<svg width="24" height="24" viewBox="0 0 24 24" fill="none" xmlns="http://www.w3.org/2000/svg">
<circle cx="12.0002" cy="12" r="9.8" stroke="#222222" stroke-width="2"/>
<mask id="path-2-inside-1_406_1424" fill="white">
<path d="M16.8002 12C16.8002 17.9646 13.2002 22.8 12.0002 22.8C10.8002 22.8 7.2002 18 7.2002 12C7.2002 5.99995 10.8002 1.19995 12.0002 1.19995C13.2002 1.19995 16.8002 6.03528 16.8002 12Z"/>
</mask>
<path d="M14.8002 12C14.8002 14.5928 14.0127 16.9697 13.0884 18.6902C12.6261 19.5506 12.1574 20.1947 11.7892 20.5921C11.6025 20.7937 11.4792 20.891 11.4326 20.9225C11.3309 20.9911 11.5511 20.8 12.0002 20.8V24.8C12.7493 24.8 13.3445 24.4577 13.6694 24.2386C14.0493 23.9823 14.4042 23.6553 14.7237 23.3104C15.368 22.6148 16.0243 21.6772 16.612 20.5832C17.7877 18.3948 18.8002 15.3718 18.8002 12H14.8002ZM12.0002 20.8C12.4453 20.8 12.6636 20.9881 12.563 20.9207C12.5167 20.8896 12.3939 20.7933 12.2077 20.5934C11.8407 20.1991 11.3728 19.5591 10.9111 18.7018C9.9885 16.9883 9.2002 14.6118 9.2002 12H5.2002C5.2002 15.3881 6.21189 18.4116 7.38925 20.5982C7.97761 21.6908 8.63474 22.6258 9.28016 23.319C9.60026 23.6628 9.95557 23.9884 10.3358 24.2433C10.6618 24.4618 11.2551 24.8 12.0002 24.8V20.8ZM9.2002 12C9.2002 9.38812 9.9885 7.01162 10.9111 5.29815C11.3728 4.44081 11.8407 3.80081 12.2077 3.40654C12.3939 3.2066 12.5167 3.11026 12.563 3.07921C12.6636 3.01181 12.4453 3.19995 12.0002 3.19995V-0.800049C11.2551 -0.800049 10.6618 -0.461904 10.3358 -0.243367C9.95557 0.0115131 9.60026 0.337054 9.28016 0.680864C8.63474 1.37409 7.97761 2.30909 7.38925 3.40175C6.21189 5.58828 5.2002 8.61179 5.2002 12H9.2002ZM12.0002 3.19995C11.5511 3.19995 11.3309 3.00882 11.4326 3.07742C11.4792 3.1089 11.6025 3.20622 11.7892 3.40781C12.1574 3.80524 12.6261 4.44926 13.0884 5.30974C14.0127 7.03017 14.8002 9.40713 14.8002 12H18.8002C18.8002 8.6281 17.7877 5.60506 16.612 3.41666C16.0243 2.32272 15.368 1.38512 14.7237 0.689531C14.4042 0.344604 14.0493 0.0175641 13.6694 -0.238686C13.3445 -0.457814 12.7493 -0.800049 12.0002 -0.800049V3.19995Z" fill="#222222" mask="url(#path-2-inside-1_406_1424)"/>
<path d="M1.7998 12H22.1998" stroke="#222222" stroke-width="2"/>
</svg>
