<svg width="42" height="42" viewBox="0 0 42 42" fill="none" xmlns="http://www.w3.org/2000/svg">
<circle cx="21" cy="21" r="20.5" stroke="#DDDDDD"/>
<path fill-rule="evenodd" clip-rule="evenodd" d="M30.2714 16.7366C30.2714 16.7366 30.077 15.3301 29.5127 14.7174C28.7951 13.9159 27.9878 13.9043 27.629 13.8504C24.9867 13.65 21.0213 13.65 21.0213 13.65H20.9989C20.9989 13.65 17.0447 13.65 14.3987 13.8504C14.0212 13.9043 13.2214 13.9159 12.5038 14.7174C11.9395 15.3301 11.7451 16.7366 11.7451 16.7366C11.7451 16.7366 11.5508 18.3858 11.5508 20.0119V21.5648C11.5508 23.214 11.7451 24.8401 11.7451 24.8401C11.7451 24.8401 11.9395 26.2466 12.5038 26.867C13.2214 27.68 14.1632 27.6492 14.593 27.734C16.0992 27.892 21.0176 27.9459 21.0176 27.9459C21.0176 27.9459 24.983 27.9267 27.6253 27.734C27.9841 27.68 28.7951 27.68 29.509 26.867C30.0733 26.2427 30.2676 24.8401 30.2676 24.8401C30.2676 24.8401 30.4508 23.214 30.4508 21.5648V20.0119C30.4508 18.3858 30.2676 16.7366 30.2676 16.7366H30.2714ZM24.1645 20.5822L19.0517 23.4221V17.7192L21.3689 19.0177L24.1682 20.5822H24.1645Z" fill="#888888"/>
</svg>
