<svg width="327" height="299" viewBox="0 0 327 299" fill="none" xmlns="http://www.w3.org/2000/svg">
<path d="M164 46L271.833 134L225 255H103L56.167 134L164 46Z" fill="#F6F7FE"/>
<path d="M57.9588 134.474L164 47.9361L270.041 134.474L223.972 253.5H104.028L57.9588 134.474Z" stroke="#C6D4F9" stroke-opacity="0.2" stroke-width="3"/>
<circle cx="164" cy="47" r="47" fill="white"/>
<circle cx="164" cy="47" r="45.5" stroke="#7094F0" stroke-opacity="0.3" stroke-width="3"/>
<path d="M143.845 49.472C145.597 49.136 147.109 48.104 147.805 46.712C148.513 48.092 150.037 49.1 151.825 49.436L152.329 48.452C150.181 48.116 148.453 46.652 148.453 45.02V44.996H151.897V44H143.713V44.996H147.157V45.02C147.157 46.652 145.441 48.152 143.329 48.488L143.845 49.472ZM148.441 51.584V49.052H147.193V51.584H142.909V52.592H152.725V51.584H148.441ZM160.382 48.236C158.714 47.696 157.73 46.364 157.73 44.984V44.78H160.046V43.784H154.118V44.78H156.47V44.984C156.47 46.448 155.498 47.852 153.782 48.428L154.43 49.4C155.726 48.944 156.638 48.044 157.118 46.892C157.598 47.96 158.51 48.8 159.758 49.196L160.382 48.236ZM155.318 51.164H161.39V53.924H162.626V50.168H155.318V51.164ZM161.39 43.076V49.628H162.626V43.076H161.39ZM167.739 46.016H169.599V44.996H167.739V43.46H166.563V44.996H164.691V46.016H166.563V46.4C166.563 48.128 165.843 49.976 164.355 50.852L165.063 51.788C166.095 51.188 166.779 50.096 167.163 48.824C167.559 50 168.255 50.996 169.275 51.548L169.959 50.624C168.471 49.82 167.739 48.092 167.739 46.4V46.016ZM170.367 47.288H168.903V48.296H170.367V53.396H171.531V43.304H170.367V47.288ZM172.551 43.088V53.924H173.727V43.088H172.551ZM181.168 46.016H179.8C179.884 45.512 179.92 44.972 179.92 44.42H175.732V45.416H178.696C178.516 47.636 177.436 49.4 175.204 50.756L175.912 51.632C177.94 50.42 179.08 48.848 179.584 47.024H181.168V48.74H179.392V49.748H181.168V53.396H182.32V43.352H181.168V46.016ZM183.352 43.088V53.924H184.54V43.088H183.352Z" fill="#222222"/>
<circle cx="55" cy="133" r="47" fill="white"/>
<circle cx="55" cy="133" r="45.5" stroke="#7094F0" stroke-opacity="0.3" stroke-width="3"/>
<path d="M35.5317 123.956V125.204H32.9037V126.212H35.5317V127.46H36.7677V121.088H35.5317V122.948H33.2997C33.3597 122.612 33.3957 122.252 33.3957 121.868H28.4757V122.864H32.0757C31.8597 124.556 30.4557 125.888 27.9117 126.596L28.4037 127.58C30.7437 126.896 32.3397 125.684 33.0117 123.956H35.5317ZM33.2157 130.904C31.7517 130.904 30.8277 130.484 30.8277 129.728C30.8277 128.984 31.7517 128.564 33.2157 128.564C34.6917 128.564 35.6157 128.984 35.6157 129.728C35.6157 130.484 34.6917 130.904 33.2157 130.904ZM33.2157 127.592C31.0197 127.592 29.6037 128.408 29.6037 129.728C29.6037 131.06 31.0197 131.876 33.2157 131.876C35.4117 131.876 36.8397 131.06 36.8397 129.728C36.8397 128.408 35.4117 127.592 33.2157 127.592ZM39.9008 124.316C39.9008 123.368 40.5968 122.744 41.5568 122.744C42.4928 122.744 43.1888 123.368 43.1888 124.316C43.1888 125.252 42.4928 125.876 41.5568 125.876C40.5968 125.876 39.9008 125.252 39.9008 124.316ZM46.3208 123.584V125.048H44.2568C44.3288 124.82 44.3648 124.58 44.3648 124.316C44.3648 124.052 44.3288 123.812 44.2688 123.584H46.3208ZM46.3208 126.044V127.472H47.5568V121.076H46.3208V122.576H43.7048C43.2008 122.036 42.4448 121.7 41.5568 121.7C39.9368 121.7 38.7248 122.78 38.7248 124.316C38.7248 125.84 39.9368 126.92 41.5568 126.92C42.4328 126.92 43.2008 126.596 43.7048 126.044H46.3208ZM43.9448 130.952C42.4088 130.952 41.5088 130.556 41.5088 129.812C41.5088 129.092 42.4088 128.684 43.9448 128.684C45.4928 128.684 46.3808 129.092 46.3808 129.812C46.3808 130.556 45.4928 130.952 43.9448 130.952ZM43.9448 127.712C41.6888 127.712 40.2968 128.492 40.2968 129.812C40.2968 131.144 41.6888 131.924 43.9448 131.924C46.2008 131.924 47.6048 131.144 47.6048 129.812C47.6048 128.492 46.2008 127.712 43.9448 127.712ZM58.2978 121.1H57.0618V128.984H58.2978V121.1ZM56.0538 126.56C54.3858 126.02 53.4018 124.7 53.4018 123.32V122.924H55.7178V121.928H49.7898V122.924H52.1418V123.32C52.1418 124.784 51.1698 126.188 49.4538 126.764L50.1018 127.724C51.3978 127.292 52.3098 126.368 52.7898 125.216C53.2698 126.284 54.1818 127.124 55.4298 127.532L56.0538 126.56ZM52.4658 130.712V128.264H51.2178V131.72H58.6098V130.712H52.4658ZM66.0962 121.844C64.4042 121.844 63.1562 122.912 63.1562 124.448C63.1562 125.984 64.4042 127.052 66.0962 127.052C67.7882 127.052 69.0482 125.984 69.0482 124.448C69.0482 122.912 67.7882 121.844 66.0962 121.844ZM66.0962 122.9C67.1042 122.9 67.8362 123.5 67.8362 124.448C67.8362 125.384 67.1042 125.996 66.0962 125.996C65.1002 125.996 64.3682 125.384 64.3682 124.448C64.3682 123.5 65.1002 122.9 66.0962 122.9ZM70.2722 121.076V131.936H71.5202V121.076H70.2722ZM62.8082 129.644C64.7282 129.644 67.3202 129.62 69.7082 129.164L69.6242 128.264C67.2962 128.612 64.5962 128.624 62.6522 128.624L62.8082 129.644ZM77.3893 123.188H79.8013V122.168H73.7293V123.188H76.1413V124.22C76.1413 126.08 75.0253 128.096 73.3453 128.876L74.0533 129.86C75.3253 129.248 76.2973 127.964 76.7773 126.452C77.2813 127.856 78.2533 129.032 79.5133 129.584L80.1973 128.612C78.5053 127.892 77.3893 126.02 77.3893 124.22V123.188ZM81.0613 121.088V131.924H82.3093V121.088H81.0613ZM35.3449 145.472C37.0969 145.136 38.6089 144.104 39.3049 142.712C40.0129 144.092 41.5369 145.1 43.3249 145.436L43.8289 144.452C41.6809 144.116 39.9529 142.652 39.9529 141.02V140.996H43.3969V140H35.2129V140.996H38.6569V141.02C38.6569 142.652 36.9409 144.152 34.8289 144.488L35.3449 145.472ZM39.9409 147.584V145.052H38.6929V147.584H34.4089V148.592H44.2249V147.584H39.9409ZM51.8819 144.236C50.2139 143.696 49.2299 142.364 49.2299 140.984V140.78H51.5459V139.784H45.6179V140.78H47.9699V140.984C47.9699 142.448 46.9979 143.852 45.2819 144.428L45.9299 145.4C47.2259 144.944 48.1379 144.044 48.6179 142.892C49.0979 143.96 50.0099 144.8 51.2579 145.196L51.8819 144.236ZM46.8179 147.164H52.8899V149.924H54.1259V146.168H46.8179V147.164ZM52.8899 139.076V145.628H54.1259V139.076H52.8899ZM63.319 142.496H58.435V140.552H63.319V142.496ZM64.531 139.568H57.223V143.48H64.531V139.568ZM58.411 146.588H57.175V149.72H64.711V148.712H58.411V146.588ZM55.975 144.548V145.544H60.367V147.572H61.603V145.544H65.803V144.548H55.975ZM73.2801 140.336H70.6881V139.124H69.4521V140.336H66.8361V141.332H73.2801V140.336ZM68.6361 143.9C68.6361 143.228 69.2241 142.82 70.0761 142.82C70.9281 142.82 71.5041 143.228 71.5041 143.9C71.5041 144.56 70.9281 144.968 70.0761 144.968C69.2241 144.968 68.6361 144.56 68.6361 143.9ZM70.6881 145.868C71.8881 145.676 72.6681 144.932 72.6681 143.9C72.6681 142.676 71.6121 141.872 70.0761 141.872C68.5281 141.872 67.4721 142.676 67.4721 143.9C67.4721 144.932 68.2521 145.664 69.4521 145.868V146.924C68.4441 146.96 67.4721 146.96 66.6441 146.96L66.8121 147.98C68.6721 147.98 71.1801 147.956 73.4961 147.548L73.4001 146.636C72.5361 146.768 71.6121 146.828 70.6881 146.876V145.868ZM76.7841 143.612H75.2481V139.076H74.0121V149.924H75.2481V144.632H76.7841V143.612Z" fill="#222222"/>
<circle cx="272" cy="133" r="47" fill="white"/>
<circle cx="272" cy="133" r="45.5" stroke="#7094F0" stroke-opacity="0.3" stroke-width="3"/>
<path d="M255.805 130.324C257.329 130.324 258.325 130.768 258.325 131.536C258.325 132.304 257.329 132.748 255.805 132.748C254.269 132.748 253.273 132.304 253.273 131.536C253.273 130.768 254.269 130.324 255.805 130.324ZM255.805 133.744C258.121 133.744 259.645 132.892 259.645 131.536C259.645 130.18 258.121 129.328 255.805 129.328C253.477 129.328 251.965 130.18 251.965 131.536C251.965 132.892 253.477 133.744 255.805 133.744ZM253.357 136.516H252.109V139.72H259.645V138.712H253.357V136.516ZM250.897 134.476V135.484H255.265V137.536H256.525V135.484H260.725V134.476H250.897ZM263.018 132.316C263.018 131.368 263.714 130.744 264.674 130.744C265.61 130.744 266.306 131.368 266.306 132.316C266.306 133.252 265.61 133.876 264.674 133.876C263.714 133.876 263.018 133.252 263.018 132.316ZM269.438 131.584V133.048H267.374C267.446 132.82 267.482 132.58 267.482 132.316C267.482 132.052 267.446 131.812 267.386 131.584H269.438ZM269.438 134.044V135.472H270.674V129.076H269.438V130.576H266.822C266.318 130.036 265.562 129.7 264.674 129.7C263.054 129.7 261.842 130.78 261.842 132.316C261.842 133.84 263.054 134.92 264.674 134.92C265.55 134.92 266.318 134.596 266.822 134.044H269.438ZM267.062 138.952C265.526 138.952 264.626 138.556 264.626 137.812C264.626 137.092 265.526 136.684 267.062 136.684C268.61 136.684 269.498 137.092 269.498 137.812C269.498 138.556 268.61 138.952 267.062 138.952ZM267.062 135.712C264.806 135.712 263.414 136.492 263.414 137.812C263.414 139.144 264.806 139.924 267.062 139.924C269.318 139.924 270.722 139.144 270.722 137.812C270.722 136.492 269.318 135.712 267.062 135.712ZM273.099 130.228V131.236H276.963C276.747 133.732 275.403 135.64 272.559 137.008L273.219 137.992C276.939 136.192 278.235 133.456 278.235 130.228H273.099ZM280.191 129.088V139.924H281.427V129.088H280.191ZM284.26 133.924C286.132 133.684 287.584 132.82 288.16 131.62C288.748 132.82 290.212 133.684 292.096 133.924L292.552 132.94C290.524 132.7 289.096 131.692 289 130.588H292.18V129.592H284.176V130.588H287.332C287.236 131.692 285.832 132.7 283.792 132.94L284.26 133.924ZM285.7 136.624H284.464V139.72H292V138.712H285.7V136.624ZM283.264 134.584V135.58H287.656V137.62H288.892V135.58H293.092V134.584H283.264Z" fill="#222222"/>
<circle cx="99" cy="252" r="47" fill="white"/>
<circle cx="99" cy="252" r="45.5" stroke="#7094F0" stroke-opacity="0.3" stroke-width="3"/>
<path d="M86.7994 248.988H85.5634V250.764C85.5634 252.852 84.4354 254.928 82.7074 255.708L83.4394 256.74C84.7474 256.104 85.7074 254.82 86.1994 253.248C86.6914 254.712 87.6394 255.912 88.8874 256.5L89.6074 255.516C87.9034 254.748 86.7994 252.756 86.7994 250.764V248.988ZM90.4714 248.076V258.948H91.7194V248.076H90.4714ZM102.988 253.38C100.852 252.996 99.1125 251.328 99.1125 249.6V248.784H97.8045V249.6C97.8045 251.316 96.0645 252.984 93.9285 253.38L94.4565 254.4C96.2205 254.04 97.7445 252.912 98.4525 251.424C99.1605 252.912 100.684 254.04 102.448 254.4L102.988 253.38ZM93.5925 256.512V257.532H103.408V256.512H93.5925ZM110.286 254.496H111.438V248.256H110.286V250.752H109.002V251.748H110.286V254.496ZM109.374 252.792C108.306 252.984 107.394 253.044 106.026 253.056V251.832H108.522V250.884H106.026V249.756H108.918V248.76H104.838V254.04H105.546C107.226 254.04 108.258 254.004 109.494 253.776L109.374 252.792ZM107.562 256.044H112.35V257.808H107.562V256.044ZM106.338 258.792H113.55V255.06H106.338V258.792ZM112.374 248.076V254.592H113.55V248.076H112.374Z" fill="#222222"/>
<circle cx="228" cy="252" r="47" fill="white"/>
<circle cx="228" cy="252" r="45.5" stroke="#7094F0" stroke-opacity="0.3" stroke-width="3"/>
<path d="M214.041 253.644H211.545V250.104H214.041V253.644ZM210.309 253.644H208.749V254.652H216.837V253.644H215.265V250.104H216.861V249.108H208.713V250.104H210.309V253.644ZM207.897 256.572V257.592H217.737V256.572H207.897ZM224.206 256.632V254.784H227.59V253.788H221.098V252.276H227.35V248.844H219.862V249.84H226.126V251.292H219.886V254.784H222.97V256.632H218.698V257.652H228.514V256.632H224.206ZM232.811 249.084H231.611V251.04C231.611 252.888 230.867 254.832 229.331 255.744L230.087 256.68C231.131 256.044 231.839 254.904 232.223 253.572C232.595 254.784 233.243 255.84 234.227 256.44L234.923 255.48C233.471 254.568 232.811 252.732 232.811 250.98V249.084ZM235.355 251.88H233.759V252.888H235.355V258.42H236.519V248.292H235.355V251.88ZM237.563 248.088V258.924H238.739V248.088H237.563ZM249.672 253.38C247.536 252.996 245.796 251.328 245.796 249.6V248.784H244.488V249.6C244.488 251.316 242.748 252.984 240.612 253.38L241.14 254.4C242.904 254.04 244.428 252.912 245.136 251.424C245.844 252.912 247.368 254.04 249.132 254.4L249.672 253.38ZM240.276 256.512V257.532H250.092V256.512H240.276Z" fill="#222222"/>
<path d="M121.293 160.14C120.547 160.14 119.851 160.019 119.207 159.776C118.573 159.524 118.017 159.174 117.541 158.726C117.075 158.269 116.711 157.732 116.449 157.116C116.188 156.5 116.057 155.828 116.057 155.1C116.057 154.372 116.188 153.7 116.449 153.084C116.711 152.468 117.079 151.936 117.555 151.488C118.031 151.031 118.587 150.681 119.221 150.438C119.856 150.186 120.551 150.06 121.307 150.06C122.11 150.06 122.843 150.2 123.505 150.48C124.168 150.751 124.728 151.157 125.185 151.698L124.009 152.804C123.655 152.421 123.258 152.137 122.819 151.95C122.381 151.754 121.905 151.656 121.391 151.656C120.878 151.656 120.407 151.74 119.977 151.908C119.557 152.076 119.189 152.314 118.871 152.622C118.563 152.93 118.321 153.294 118.143 153.714C117.975 154.134 117.891 154.596 117.891 155.1C117.891 155.604 117.975 156.066 118.143 156.486C118.321 156.906 118.563 157.27 118.871 157.578C119.189 157.886 119.557 158.124 119.977 158.292C120.407 158.46 120.878 158.544 121.391 158.544C121.905 158.544 122.381 158.451 122.819 158.264C123.258 158.068 123.655 157.774 124.009 157.382L125.185 158.502C124.728 159.034 124.168 159.44 123.505 159.72C122.843 160 122.105 160.14 121.293 160.14ZM131.066 160.14C130.301 160.14 129.596 160.014 128.952 159.762C128.308 159.51 127.748 159.16 127.272 158.712C126.796 158.255 126.428 157.723 126.166 157.116C125.905 156.5 125.774 155.828 125.774 155.1C125.774 154.372 125.905 153.705 126.166 153.098C126.428 152.482 126.796 151.95 127.272 151.502C127.748 151.045 128.308 150.69 128.952 150.438C129.596 150.186 130.296 150.06 131.052 150.06C131.818 150.06 132.518 150.186 133.152 150.438C133.796 150.69 134.356 151.045 134.832 151.502C135.308 151.95 135.677 152.482 135.938 153.098C136.2 153.705 136.33 154.372 136.33 155.1C136.33 155.828 136.2 156.5 135.938 157.116C135.677 157.732 135.308 158.264 134.832 158.712C134.356 159.16 133.796 159.51 133.152 159.762C132.518 160.014 131.822 160.14 131.066 160.14ZM131.052 158.544C131.547 158.544 132.004 158.46 132.424 158.292C132.844 158.124 133.208 157.886 133.516 157.578C133.824 157.261 134.062 156.897 134.23 156.486C134.408 156.066 134.496 155.604 134.496 155.1C134.496 154.596 134.408 154.139 134.23 153.728C134.062 153.308 133.824 152.944 133.516 152.636C133.208 152.319 132.844 152.076 132.424 151.908C132.004 151.74 131.547 151.656 131.052 151.656C130.558 151.656 130.1 151.74 129.68 151.908C129.27 152.076 128.906 152.319 128.588 152.636C128.28 152.944 128.038 153.308 127.86 153.728C127.692 154.139 127.608 154.596 127.608 155.1C127.608 155.595 127.692 156.052 127.86 156.472C128.038 156.892 128.28 157.261 128.588 157.578C128.896 157.886 129.26 158.124 129.68 158.292C130.1 158.46 130.558 158.544 131.052 158.544ZM138.009 160V150.2H139.507L143.791 157.354H143.007L147.221 150.2H148.719L148.733 160H147.011L146.997 152.902H147.361L143.777 158.88H142.965L139.325 152.902H139.745V160H138.009ZM151.13 160V150.2H155.162C156.03 150.2 156.772 150.34 157.388 150.62C158.014 150.9 158.494 151.301 158.83 151.824C159.166 152.347 159.334 152.967 159.334 153.686C159.334 154.405 159.166 155.025 158.83 155.548C158.494 156.071 158.014 156.472 157.388 156.752C156.772 157.032 156.03 157.172 155.162 157.172H152.138L152.95 156.318V160H151.13ZM152.95 156.514L152.138 155.632H155.078C155.881 155.632 156.483 155.464 156.884 155.128C157.295 154.783 157.5 154.302 157.5 153.686C157.5 153.061 157.295 152.58 156.884 152.244C156.483 151.908 155.881 151.74 155.078 151.74H152.138L152.95 150.844V156.514ZM160.902 160V150.2H162.722V158.46H167.846V160H160.902ZM169.033 160V150.2H170.853V160H169.033ZM171.867 160L176.278 150.2H178.07L182.494 160H180.59L176.796 151.166H177.524L173.744 160H171.867ZM173.898 157.732L174.388 156.304H179.68L180.169 157.732H173.898ZM183.49 160V150.2H184.988L191.134 157.746H190.392V150.2H192.198V160H190.7L184.554 152.454H185.296V160H183.49ZM199.11 160.14C198.363 160.14 197.668 160.019 197.024 159.776C196.389 159.524 195.834 159.174 195.358 158.726C194.891 158.269 194.527 157.732 194.266 157.116C194.004 156.5 193.874 155.828 193.874 155.1C193.874 154.372 194.004 153.7 194.266 153.084C194.527 152.468 194.896 151.936 195.372 151.488C195.848 151.031 196.403 150.681 197.038 150.438C197.672 150.186 198.368 150.06 199.124 150.06C199.926 150.06 200.659 150.2 201.322 150.48C201.984 150.751 202.544 151.157 203.002 151.698L201.826 152.804C201.471 152.421 201.074 152.137 200.636 151.95C200.197 151.754 199.721 151.656 199.208 151.656C198.694 151.656 198.223 151.74 197.794 151.908C197.374 152.076 197.005 152.314 196.688 152.622C196.38 152.93 196.137 153.294 195.96 153.714C195.792 154.134 195.708 154.596 195.708 155.1C195.708 155.604 195.792 156.066 195.96 156.486C196.137 156.906 196.38 157.27 196.688 157.578C197.005 157.886 197.374 158.124 197.794 158.292C198.223 158.46 198.694 158.544 199.208 158.544C199.721 158.544 200.197 158.451 200.636 158.264C201.074 158.068 201.471 157.774 201.826 157.382L203.002 158.502C202.544 159.034 201.984 159.44 201.322 159.72C200.659 160 199.922 160.14 199.11 160.14ZM206.176 154.274H211.048V155.772H206.176V154.274ZM206.316 158.474H211.846V160H204.496V150.2H211.65V151.726H206.316V158.474ZM127.587 179V169.2H131.619C132.487 169.2 133.229 169.34 133.845 169.62C134.47 169.9 134.951 170.301 135.287 170.824C135.623 171.347 135.791 171.967 135.791 172.686C135.791 173.405 135.623 174.025 135.287 174.548C134.951 175.071 134.47 175.472 133.845 175.752C133.229 176.032 132.487 176.172 131.619 176.172H128.595L129.407 175.318V179H127.587ZM129.407 175.514L128.595 174.632H131.535C132.337 174.632 132.939 174.464 133.341 174.128C133.751 173.783 133.957 173.302 133.957 172.686C133.957 172.061 133.751 171.58 133.341 171.244C132.939 170.908 132.337 170.74 131.535 170.74H128.595L129.407 169.844V175.514ZM137.358 179V169.2H141.39C142.258 169.2 143 169.34 143.616 169.62C144.241 169.9 144.722 170.301 145.058 170.824C145.394 171.347 145.562 171.967 145.562 172.686C145.562 173.405 145.394 174.025 145.058 174.548C144.722 175.061 144.241 175.458 143.616 175.738C143 176.009 142.258 176.144 141.39 176.144H138.366L139.178 175.318V179H137.358ZM143.77 179L141.292 175.444H143.238L145.73 179H143.77ZM139.178 175.514L138.366 174.646H141.306C142.109 174.646 142.711 174.473 143.112 174.128C143.523 173.783 143.728 173.302 143.728 172.686C143.728 172.061 143.523 171.58 143.112 171.244C142.711 170.908 142.109 170.74 141.306 170.74H138.366L139.178 169.844V175.514ZM151.94 179.14C151.175 179.14 150.47 179.014 149.826 178.762C149.182 178.51 148.622 178.16 148.146 177.712C147.67 177.255 147.302 176.723 147.04 176.116C146.779 175.5 146.648 174.828 146.648 174.1C146.648 173.372 146.779 172.705 147.04 172.098C147.302 171.482 147.67 170.95 148.146 170.502C148.622 170.045 149.182 169.69 149.826 169.438C150.47 169.186 151.17 169.06 151.926 169.06C152.692 169.06 153.392 169.186 154.026 169.438C154.67 169.69 155.23 170.045 155.706 170.502C156.182 170.95 156.551 171.482 156.812 172.098C157.074 172.705 157.204 173.372 157.204 174.1C157.204 174.828 157.074 175.5 156.812 176.116C156.551 176.732 156.182 177.264 155.706 177.712C155.23 178.16 154.67 178.51 154.026 178.762C153.392 179.014 152.696 179.14 151.94 179.14ZM151.926 177.544C152.421 177.544 152.878 177.46 153.298 177.292C153.718 177.124 154.082 176.886 154.39 176.578C154.698 176.261 154.936 175.897 155.104 175.486C155.282 175.066 155.37 174.604 155.37 174.1C155.37 173.596 155.282 173.139 155.104 172.728C154.936 172.308 154.698 171.944 154.39 171.636C154.082 171.319 153.718 171.076 153.298 170.908C152.878 170.74 152.421 170.656 151.926 170.656C151.432 170.656 150.974 170.74 150.554 170.908C150.144 171.076 149.78 171.319 149.462 171.636C149.154 171.944 148.912 172.308 148.734 172.728C148.566 173.139 148.482 173.596 148.482 174.1C148.482 174.595 148.566 175.052 148.734 175.472C148.912 175.892 149.154 176.261 149.462 176.578C149.77 176.886 150.134 177.124 150.554 177.292C150.974 177.46 151.432 177.544 151.926 177.544ZM163.461 179.14C162.696 179.14 161.991 179.019 161.347 178.776C160.713 178.524 160.157 178.174 159.681 177.726C159.205 177.269 158.837 176.732 158.575 176.116C158.314 175.5 158.183 174.828 158.183 174.1C158.183 173.372 158.314 172.7 158.575 172.084C158.837 171.468 159.205 170.936 159.681 170.488C160.167 170.031 160.731 169.681 161.375 169.438C162.019 169.186 162.724 169.06 163.489 169.06C164.32 169.06 165.067 169.195 165.729 169.466C166.401 169.737 166.966 170.133 167.423 170.656L166.275 171.776C165.893 171.393 165.477 171.113 165.029 170.936C164.591 170.749 164.105 170.656 163.573 170.656C163.06 170.656 162.584 170.74 162.145 170.908C161.707 171.076 161.329 171.314 161.011 171.622C160.694 171.93 160.447 172.294 160.269 172.714C160.101 173.134 160.017 173.596 160.017 174.1C160.017 174.595 160.101 175.052 160.269 175.472C160.447 175.892 160.694 176.261 161.011 176.578C161.329 176.886 161.702 177.124 162.131 177.292C162.561 177.46 163.037 177.544 163.559 177.544C164.045 177.544 164.511 177.469 164.959 177.32C165.417 177.161 165.851 176.9 166.261 176.536L167.297 177.894C166.784 178.305 166.187 178.617 165.505 178.832C164.833 179.037 164.152 179.14 163.461 179.14ZM165.575 177.656V173.988H167.297V177.894L165.575 177.656ZM169.448 179V169.2H173.48C174.348 169.2 175.09 169.34 175.706 169.62C176.331 169.9 176.812 170.301 177.148 170.824C177.484 171.347 177.652 171.967 177.652 172.686C177.652 173.405 177.484 174.025 177.148 174.548C176.812 175.061 176.331 175.458 175.706 175.738C175.09 176.009 174.348 176.144 173.48 176.144H170.456L171.268 175.318V179H169.448ZM175.86 179L173.382 175.444H175.328L177.82 179H175.86ZM171.268 175.514L170.456 174.646H173.396C174.199 174.646 174.801 174.473 175.202 174.128C175.613 173.783 175.818 173.302 175.818 172.686C175.818 172.061 175.613 171.58 175.202 171.244C174.801 170.908 174.199 170.74 173.396 170.74H170.456L171.268 169.844V175.514ZM178.052 179L182.462 169.2H184.254L188.678 179H186.774L182.98 170.166H183.708L179.928 179H178.052ZM180.082 176.732L180.572 175.304H185.864L186.354 176.732H180.082ZM189.674 179V169.2H191.172L195.456 176.354H194.672L198.886 169.2H200.384L200.398 179H198.676L198.662 171.902H199.026L195.442 177.88H194.63L190.99 171.902H191.41V179H189.674Z" fill="#435CE7"/>
</svg>
