<svg width="1200" height="230" viewBox="0 0 1200 230" fill="none" xmlns="http://www.w3.org/2000/svg">
<mask id="path-1-inside-1_2291_37813" fill="white">
<path fill-rule="evenodd" clip-rule="evenodd" d="M10 0C4.47715 0 0 4.47715 0 10V220C0 225.523 4.47716 230 10 230H370C375.523 230 380 225.523 380 220V162.589C380 161.035 380.517 159.525 381.47 158.298L386.096 152.337C387.217 150.894 387.217 148.875 386.096 147.432L381.47 141.471C380.517 140.243 380 138.733 380 137.179V10C380 4.47715 375.523 0 370 0H10Z"/>
</mask>
<path fill-rule="evenodd" clip-rule="evenodd" d="M10 0C4.47715 0 0 4.47715 0 10V220C0 225.523 4.47716 230 10 230H370C375.523 230 380 225.523 380 220V162.589C380 161.035 380.517 159.525 381.47 158.298L386.096 152.337C387.217 150.894 387.217 148.875 386.096 147.432L381.47 141.471C380.517 140.243 380 138.733 380 137.179V10C380 4.47715 375.523 0 370 0H10Z" fill="white"/>
<path d="M386.096 152.337L385.307 151.724V151.724L386.096 152.337ZM386.096 147.432L386.886 146.819L386.096 147.432ZM381.47 141.471L382.26 140.858L381.47 141.471ZM381.47 158.298L380.68 157.684L381.47 158.298ZM1 10C1 5.02944 5.02944 1 10 1V-1C3.92487 -1 -1 3.92487 -1 10H1ZM1 220V10H-1V220H1ZM10 229C5.02944 229 1 224.971 1 220H-1C-1 226.075 3.92488 231 10 231V229ZM370 229H10V231H370V229ZM379 220C379 224.971 374.971 229 370 229V231C376.075 231 381 226.075 381 220H379ZM379 162.589V220H381V162.589H379ZM385.307 151.724L380.68 157.684L382.26 158.911L386.886 152.95L385.307 151.724ZM385.307 148.045C386.147 149.127 386.147 150.641 385.307 151.724L386.886 152.95C388.287 151.146 388.287 148.623 386.886 146.819L385.307 148.045ZM380.68 142.084L385.307 148.045L386.886 146.819L382.26 140.858L380.68 142.084ZM379 10V137.179H381V10H379ZM370 1C374.971 1 379 5.02944 379 10H381C381 3.92487 376.075 -1 370 -1V1ZM10 1H370V-1H10V1ZM382.26 140.858C381.443 139.806 381 138.511 381 137.179H379C379 138.955 379.591 140.681 380.68 142.084L382.26 140.858ZM381 162.589C381 161.257 381.443 159.963 382.26 158.911L380.68 157.684C379.591 159.088 379 160.813 379 162.589H381Z" fill="#EEEEEE" mask="url(#path-1-inside-1_2291_37813)"/>
<path d="M57.688 159.096C59.336 159.096 60.808 158.536 61.8 157.448L61.048 156.696C60.136 157.64 59.016 158.04 57.736 158.04C55.032 158.04 53 156.056 53 153.4C53 150.744 55.032 148.76 57.736 148.76C59.016 148.76 60.136 149.16 61.048 150.088L61.8 149.336C60.808 148.248 59.336 147.704 57.704 147.704C54.328 147.704 51.832 150.12 51.832 153.4C51.832 156.68 54.328 159.096 57.688 159.096ZM65.258 157.976V153.816H71.05V152.808H65.258V148.824H71.754V147.8H64.074V159H71.994V157.976H65.258ZM79.3606 159.096C82.7206 159.096 85.2326 156.68 85.2326 153.4C85.2326 150.12 82.7206 147.704 79.3606 147.704C75.9686 147.704 73.4726 150.136 73.4726 153.4C73.4726 156.664 75.9686 159.096 79.3606 159.096ZM79.3606 158.04C76.6566 158.04 74.6406 156.072 74.6406 153.4C74.6406 150.728 76.6566 148.76 79.3606 148.76C82.0486 148.76 84.0486 150.728 84.0486 153.4C84.0486 156.072 82.0486 158.04 79.3606 158.04ZM95.254 146.888C93.03 146.888 91.414 148.248 91.414 150.264C91.414 152.264 93.03 153.64 95.254 153.64C97.494 153.64 99.094 152.264 99.094 150.264C99.094 148.248 97.494 146.888 95.254 146.888ZM95.254 148.008C96.742 148.008 97.814 148.92 97.814 150.264C97.814 151.592 96.742 152.52 95.254 152.52C93.782 152.52 92.694 151.592 92.694 150.264C92.694 148.92 93.782 148.008 95.254 148.008ZM100.982 145.832V160.216H102.294V145.832H100.982ZM90.854 157.064C93.446 157.064 96.918 157.032 100.15 156.44L100.038 155.464C96.902 155.944 93.302 155.96 90.694 155.96L90.854 157.064ZM110.187 148.392H113.563V147.304H105.547V148.392H108.875V150.216C108.875 152.696 107.131 155.4 105.067 156.376L105.835 157.432C107.467 156.6 108.875 154.792 109.531 152.696C110.219 154.664 111.627 156.312 113.291 157.08L114.027 156.024C111.915 155.128 110.187 152.648 110.187 150.216V148.392ZM115.499 145.848V160.184H116.811V145.848H115.499ZM124.448 153.96H127.568V157.368H124.448V153.96ZM124.224 148.216H127.792V152.904H124.224V148.216ZM128.88 157.368V153.96H131.312V152.904H129.104V148.216H131.328V147.16H120.688V148.216H122.911V152.904H120.72V153.96H123.136V157.368H119.52V158.44H132.544V157.368H128.88ZM139.924 152.248H135.956V147.976H139.924V152.248ZM144.5 149.224V151H141.204V149.224H144.5ZM141.204 152.056H144.5V154.328H145.828V145.848H144.5V148.168H141.204V146.92H134.66V153.288H141.204V152.056ZM141.076 159.144C138.932 159.144 137.62 158.52 137.62 157.464C137.62 156.408 138.932 155.784 141.076 155.784C143.252 155.784 144.564 156.408 144.564 157.464C144.564 158.52 143.252 159.144 141.076 159.144ZM141.076 154.76C138.132 154.76 136.308 155.736 136.308 157.464C136.308 159.176 138.132 160.168 141.076 160.168C144.036 160.168 145.876 159.176 145.876 157.464C145.876 155.736 144.036 154.76 141.076 154.76ZM53.128 180.184C55.448 179.832 57.56 178.68 58.344 177.016C59.112 178.68 61.224 179.832 63.56 180.184L64.04 179.128C61.512 178.792 59.192 177.368 59.192 175.624V175.608H63.656V174.552H53.032V175.608H57.496V175.624C57.496 177.368 55.176 178.792 52.632 179.128L53.128 180.184ZM54.792 183.8H53.48V187.864H63.4V186.792H54.792V183.8ZM51.816 181.224V182.28H57.784V185.192H59.096V182.28H64.84V181.224H51.816ZM76.8288 186.92H70.2368V185.128H76.8288V186.92ZM76.8288 184.104H70.2368V182.36H68.9408V187.976H78.1248V182.36H76.8288V184.104ZM72.2048 180.072H68.3328V177.8H72.2048V180.072ZM76.8128 173.848V177.368H73.5008V174.584H72.2048V176.776H68.3328V174.584H67.0368V181.144H73.5008V178.44H76.8128V181.688H78.1408V173.848H76.8128ZM90.9295 176.856C90.9295 178.632 90.9295 180.52 90.4335 183.08L91.7295 183.24C92.2415 180.552 92.2415 178.68 92.2415 176.856V175.272H82.1295V176.344H90.9295V176.856ZM88.8175 185.096V180.344H87.5215V185.096H85.2655V180.344H83.9695V185.096H80.7855V186.168H93.7615V185.096H88.8175ZM101.734 175.208C104.006 175.208 105.43 175.848 105.43 176.92C105.43 177.992 104.006 178.632 101.734 178.632C99.4623 178.632 98.0383 177.992 98.0383 176.92C98.0383 175.848 99.4623 175.208 101.734 175.208ZM101.734 179.656C104.838 179.656 106.774 178.648 106.774 176.92C106.774 175.192 104.838 174.168 101.734 174.168C98.6463 174.168 96.6943 175.192 96.6943 176.92C96.6943 178.648 98.6463 179.656 101.734 179.656ZM103.494 183.624H99.9903V181.8H103.494V183.624ZM108.23 181.8V180.744H95.2543V181.8H98.6783V183.624H96.6943V184.68H105.318V188.2H106.63V183.624H104.806V181.8H108.23Z" fill="#666666"/>
<rect x="40" y="151" width="3" height="3" fill="#666666"/>
<rect x="40" y="180" width="3" height="3" fill="#666666"/>
<path d="M216.68 148.392H219.864V147.304H212.104V148.392H215.384V150.216C215.384 152.648 213.656 155.368 211.608 156.392L212.376 157.432C213.992 156.6 215.384 154.776 216.04 152.68C216.696 154.6 218.04 156.28 219.64 157.08L220.392 156.024C218.312 155.048 216.68 152.504 216.68 150.216V148.392ZM225.256 151.624H222.888V145.848H221.576V160.184H222.888V152.728H225.256V151.624ZM232.797 146.984C235.149 146.984 236.493 147.528 236.493 148.488C236.493 149.448 235.149 149.992 232.797 149.992C230.461 149.992 229.101 149.448 229.101 148.488C229.101 147.528 230.461 146.984 232.797 146.984ZM232.797 150.968C235.965 150.968 237.837 150.104 237.837 148.488C237.837 146.872 235.965 145.992 232.797 145.992C229.645 145.992 227.757 146.872 227.757 148.488C227.757 150.104 229.645 150.968 232.797 150.968ZM234.397 154.312H231.133V152.888H234.397V154.312ZM239.277 152.888V151.832H226.317V152.888H229.837V154.312H227.885V155.304H236.333V156.584H227.917V160.024H238.061V159H229.197V157.544H237.629V154.312H235.693V152.888H239.277ZM249.25 152.744C247.17 152.008 245.762 150.216 245.762 148.344V147.816H248.914V146.744H241.25V147.816H244.45V148.36C244.45 150.392 242.962 152.296 240.834 153.064L241.522 154.088C243.202 153.48 244.514 152.168 245.138 150.52C245.762 151.992 246.994 153.192 248.594 153.768L249.25 152.744ZM244.562 155.976H251.33V158.936H244.562V155.976ZM243.282 159.992H252.61V154.936H243.282V159.992ZM251.282 145.832V149.432H248.45V150.52H251.282V154.232H252.61V145.832H251.282ZM256.134 146.744V147.816H261.222C260.95 150.248 258.822 152.12 255.414 153.096L255.958 154.12C260.07 152.952 262.614 150.376 262.614 146.744H256.134ZM259.094 155.672H265.782V158.92H259.094V155.672ZM257.798 159.976H267.078V154.632H257.798V159.976ZM265.75 145.832V149.528H262.63V150.6H265.75V154.024H267.078V145.832H265.75ZM221.016 175.8V180.792H214.008V175.8H212.824V187H214.008V181.832H221.016V187H222.184V175.8H221.016ZM232.694 182.792C232.694 180.264 230.982 178.52 228.614 178.52C226.246 178.52 224.502 180.296 224.502 182.792C224.502 185.288 226.294 187.08 228.918 187.08C230.246 187.08 231.414 186.6 232.166 185.704L231.526 184.968C230.886 185.704 229.974 186.072 228.95 186.072C227.11 186.072 225.766 184.904 225.638 183.144H232.678C232.678 183.016 232.694 182.888 232.694 182.792ZM228.614 179.496C230.262 179.496 231.462 180.648 231.606 182.296H225.638C225.782 180.648 226.982 179.496 228.614 179.496ZM234.756 187H235.892V175.128H234.756V187ZM243.139 178.52C241.747 178.52 240.579 179.128 239.891 180.248V178.584H238.803V190.104H239.939V185.416C240.643 186.504 241.795 187.08 243.139 187.08C245.539 187.08 247.331 185.352 247.331 182.792C247.331 180.248 245.539 178.52 243.139 178.52ZM243.059 186.072C241.267 186.072 239.923 184.76 239.923 182.792C239.923 180.84 241.267 179.512 243.059 179.512C244.835 179.512 246.195 180.84 246.195 182.792C246.195 184.76 244.835 186.072 243.059 186.072ZM253.574 187H258.134C261.718 187 264.134 184.696 264.134 181.4C264.134 178.104 261.718 175.8 258.134 175.8H253.574V187ZM254.758 185.976V176.824H258.07C261.046 176.824 262.966 178.712 262.966 181.4C262.966 184.088 261.046 185.976 258.07 185.976H254.758ZM273.647 182.792C273.647 180.264 271.935 178.52 269.567 178.52C267.199 178.52 265.455 180.296 265.455 182.792C265.455 185.288 267.247 187.08 269.871 187.08C271.199 187.08 272.367 186.6 273.119 185.704L272.479 184.968C271.839 185.704 270.927 186.072 269.903 186.072C268.063 186.072 266.719 184.904 266.591 183.144H273.631C273.631 183.016 273.647 182.888 273.647 182.792ZM269.567 179.496C271.215 179.496 272.415 180.648 272.559 182.296H266.591C266.735 180.648 267.935 179.496 269.567 179.496ZM277.965 187.08C280.157 187.08 281.437 186.136 281.437 184.68C281.437 181.448 275.981 183.16 275.981 180.888C275.981 180.088 276.653 179.496 278.173 179.496C279.037 179.496 279.917 179.704 280.653 180.216L281.149 179.304C280.445 178.824 279.261 178.52 278.173 178.52C276.029 178.52 274.845 179.544 274.845 180.92C274.845 184.248 280.301 182.52 280.301 184.712C280.301 185.544 279.645 186.088 278.045 186.088C276.861 186.088 275.725 185.672 275.053 185.144L274.541 186.04C275.229 186.632 276.573 187.08 277.965 187.08ZM289.799 187H291.191L287.255 182.024L290.855 178.584H289.447L284.423 183.176V175.128H283.287V187H284.423V184.6L286.407 182.776L289.799 187Z" fill="#666666"/>
<rect x="200" y="151" width="3" height="3" fill="#666666"/>
<rect x="200" y="180" width="3" height="3" fill="#666666"/>
<path d="M47.12 119.432C47.168 119 47.2 118.52 47.2 118.024C47.2 117.512 47.168 117.032 47.104 116.584H48.4V119.432H47.12ZM44.016 121.4C43.184 121.4 42.704 120.28 42.704 118.024C42.704 115.768 43.184 114.664 44.016 114.664C44.832 114.664 45.312 115.768 45.312 118.024C45.312 120.28 44.832 121.4 44.016 121.4ZM48.4 114.888H46.704C46.16 113.464 45.216 112.68 44.016 112.68C42.048 112.68 40.816 114.696 40.816 118.024C40.816 121.368 42.048 123.384 44.016 123.384C45.232 123.384 46.176 122.568 46.72 121.144H48.4V125.704H50.368V111.88H48.4V114.888ZM51.328 111.624V126.36H53.328V111.624H51.328ZM60.5648 117.848H57.6688V116.024H60.5648V117.848ZM62.6448 112.584H60.5648V114.408H57.6688V112.584H55.5888V119.496H62.6448V112.584ZM61.9248 124.76C60.0528 124.76 59.0448 124.36 59.0448 123.528C59.0448 122.696 60.0528 122.296 61.9248 122.296C63.8128 122.296 64.8208 122.696 64.8208 123.528C64.8208 124.36 63.8128 124.76 61.9248 124.76ZM61.9248 120.648C58.8688 120.648 56.9488 121.72 56.9488 123.528C56.9488 125.32 58.8688 126.392 61.9248 126.392C64.9968 126.392 66.9168 125.32 66.9168 123.528C66.9168 121.72 64.9968 120.648 61.9248 120.648ZM66.7568 115.08V111.656H64.6448V120.328H66.7568V116.808H68.7088V115.08H66.7568ZM81.5605 112.568H78.4405V111.528H76.3285V112.568H73.1925V113.96H81.5605V112.568ZM75.7845 116.168C75.7845 115.752 76.3765 115.544 77.3845 115.544C78.3925 115.544 78.9685 115.752 78.9685 116.168C78.9685 116.6 78.3925 116.824 77.3845 116.824C76.3765 116.824 75.7845 116.6 75.7845 116.168ZM81.9285 118.344C80.8085 118.472 79.6245 118.568 78.4405 118.632V118.04C80.0085 117.848 80.9685 117.176 80.9685 116.168C80.9685 114.968 79.5765 114.248 77.3845 114.248C75.1925 114.248 73.7845 114.968 73.7845 116.168C73.7845 117.176 74.7445 117.848 76.3285 118.04V118.712C75.0645 118.744 73.8805 118.744 72.8245 118.744L73.0325 120.184C75.5765 120.184 78.9845 120.152 82.0725 119.608L81.9285 118.344ZM76.8885 124.168H84.6805V120.84H74.7765V122.232H82.6005V122.872H74.7925V126.264H85.1925V124.872H76.8885V124.168ZM84.6805 115.112V111.624H82.5685V120.312H84.6805V116.84H86.5365V115.112H84.6805ZM94.0933 124.792C92.1253 124.792 91.1173 124.456 91.1173 123.688C91.1173 122.92 92.1253 122.568 94.0933 122.568C96.0613 122.568 97.0693 122.92 97.0693 123.688C97.0693 124.456 96.0613 124.792 94.0933 124.792ZM94.0933 120.968C90.9093 120.968 88.9893 121.944 88.9893 123.688C88.9893 125.416 90.9093 126.392 94.0933 126.392C97.2773 126.392 99.2133 125.416 99.2133 123.688C99.2133 121.944 97.2773 120.968 94.0933 120.968ZM95.1973 118.568V117.352H99.2933V115.672H91.1973V113.944H99.2133V112.264H89.1013V117.352H93.0853V118.568H87.4853V120.248H100.813V118.568H95.1973Z" fill="#435CE7"/>
<rect width="380" height="70" rx="10" fill="#435CE7"/>
<path d="M146.297 28.4H140.843V41H143.759V37.526H146.297C149.663 37.526 151.769 35.78 151.769 32.972C151.769 30.146 149.663 28.4 146.297 28.4ZM146.135 35.15H143.759V30.776H146.135C147.917 30.776 148.817 31.586 148.817 32.972C148.817 34.34 147.917 35.15 146.135 35.15ZM156.084 32.594V31.316H153.402V41H156.21V36.428C156.21 34.574 157.236 33.728 158.784 33.728C159 33.728 159.18 33.746 159.414 33.764V31.172C157.92 31.172 156.768 31.658 156.084 32.594ZM170.232 36.194C170.232 33.08 168.036 31.172 165.192 31.172C162.24 31.172 160.026 33.26 160.026 36.158C160.026 39.038 162.204 41.144 165.552 41.144C167.298 41.144 168.648 40.604 169.548 39.578L168.054 37.958C167.388 38.588 166.65 38.894 165.624 38.894C164.148 38.894 163.122 38.156 162.852 36.95H170.178C170.196 36.716 170.232 36.41 170.232 36.194ZM165.21 33.296C166.47 33.296 167.388 34.088 167.586 35.312H162.816C163.014 34.07 163.932 33.296 165.21 33.296ZM178.588 31.316L175.816 37.904L173.134 31.316H170.236L174.304 41H177.202L181.288 31.316H178.588ZM191.406 36.194C191.406 33.08 189.21 31.172 186.366 31.172C183.414 31.172 181.2 33.26 181.2 36.158C181.2 39.038 183.378 41.144 186.726 41.144C188.472 41.144 189.822 40.604 190.722 39.578L189.228 37.958C188.562 38.588 187.824 38.894 186.798 38.894C185.322 38.894 184.296 38.156 184.026 36.95H191.352C191.37 36.716 191.406 36.41 191.406 36.194ZM186.384 33.296C187.644 33.296 188.562 34.088 188.76 35.312H183.99C184.188 34.07 185.106 33.296 186.384 33.296ZM198.911 31.172C197.597 31.172 196.463 31.622 195.707 32.45V31.316H193.025V41H195.833V36.212C195.833 34.43 196.805 33.602 198.155 33.602C199.397 33.602 200.117 34.322 200.117 35.888V41H202.925V35.456C202.925 32.504 201.197 31.172 198.911 31.172ZM210.711 38.552C210.405 38.786 209.991 38.912 209.577 38.912C208.821 38.912 208.371 38.462 208.371 37.634V33.692H210.783V31.532H208.371V29.174H205.563V31.532H204.069V33.692H205.563V37.67C205.563 39.974 206.895 41.144 209.181 41.144C210.045 41.144 210.891 40.946 211.467 40.532L210.711 38.552ZM214.197 29.966C215.241 29.966 215.943 29.282 215.943 28.346C215.943 27.482 215.241 26.834 214.197 26.834C213.153 26.834 212.451 27.518 212.451 28.4C212.451 29.282 213.153 29.966 214.197 29.966ZM212.793 41H215.601V31.316H212.793V41ZM222.565 41.144C225.643 41.144 227.875 39.074 227.875 36.158C227.875 33.242 225.643 31.172 222.565 31.172C219.487 31.172 217.237 33.242 217.237 36.158C217.237 39.074 219.487 41.144 222.565 41.144ZM222.565 38.84C221.161 38.84 220.081 37.832 220.081 36.158C220.081 34.484 221.161 33.476 222.565 33.476C223.969 33.476 225.031 34.484 225.031 36.158C225.031 37.832 223.969 38.84 222.565 38.84ZM235.388 31.172C234.074 31.172 232.94 31.622 232.184 32.45V31.316H229.502V41H232.31V36.212C232.31 34.43 233.282 33.602 234.632 33.602C235.874 33.602 236.594 34.322 236.594 35.888V41H239.402V35.456C239.402 32.504 237.674 31.172 235.388 31.172Z" fill="white"/>
<mask id="path-12-inside-2_2291_37813" fill="white">
<path fill-rule="evenodd" clip-rule="evenodd" d="M420 0C414.477 0 410 4.47715 410 10V220C410 225.523 414.477 230 420 230H780C785.523 230 790 225.523 790 220V167.589C790 166.035 790.517 164.525 791.47 163.298L796.096 157.337C797.217 155.894 797.217 153.875 796.096 152.432L791.47 146.471C790.517 145.243 790 143.733 790 142.179V10C790 4.47715 785.523 0 780 0H420Z"/>
</mask>
<path fill-rule="evenodd" clip-rule="evenodd" d="M420 0C414.477 0 410 4.47715 410 10V220C410 225.523 414.477 230 420 230H780C785.523 230 790 225.523 790 220V167.589C790 166.035 790.517 164.525 791.47 163.298L796.096 157.337C797.217 155.894 797.217 153.875 796.096 152.432L791.47 146.471C790.517 145.243 790 143.733 790 142.179V10C790 4.47715 785.523 0 780 0H420Z" fill="white"/>
<path d="M796.096 157.337L795.307 156.724V156.724L796.096 157.337ZM796.096 152.432L796.886 151.819L796.096 152.432ZM791.47 146.471L792.26 145.858L791.47 146.471ZM791.47 163.298L790.68 162.684L791.47 163.298ZM411 10C411 5.02944 415.029 1 420 1V-1C413.925 -1 409 3.92486 409 10H411ZM411 220V10H409V220H411ZM420 229C415.029 229 411 224.971 411 220H409C409 226.075 413.925 231 420 231V229ZM780 229H420V231H780V229ZM789 220C789 224.971 784.971 229 780 229V231C786.075 231 791 226.075 791 220H789ZM789 167.589V220H791V167.589H789ZM795.307 156.724L790.68 162.684L792.26 163.911L796.886 157.95L795.307 156.724ZM795.307 153.045C796.147 154.127 796.147 155.641 795.307 156.724L796.886 157.95C798.287 156.146 798.287 153.623 796.886 151.819L795.307 153.045ZM790.68 147.084L795.307 153.045L796.886 151.819L792.26 145.858L790.68 147.084ZM789 10V142.179H791V10H789ZM780 1C784.971 1 789 5.02944 789 10H791C791 3.92487 786.075 -1 780 -1V1ZM420 1H780V-1H420V1ZM792.26 145.858C791.443 144.806 791 143.511 791 142.179H789C789 143.955 789.591 145.681 790.68 147.084L792.26 145.858ZM791 167.589C791 166.257 791.443 164.963 792.26 163.911L790.68 162.684C789.591 164.088 789 165.813 789 167.589H791Z" fill="#EEEEEE" mask="url(#path-12-inside-2_2291_37813)"/>
<path d="M464.824 155.72H463.512V159.864H473.384V158.792H464.824V155.72ZM464.632 149.128C464.632 147.992 466.072 147.32 468.344 147.32C470.584 147.32 472.024 147.992 472.024 149.128C472.024 150.264 470.584 150.92 468.344 150.92C466.072 150.92 464.632 150.264 464.632 149.128ZM469 153.464V151.96C471.672 151.816 473.368 150.776 473.368 149.128C473.368 147.336 471.4 146.264 468.344 146.264C465.256 146.264 463.288 147.336 463.288 149.128C463.288 150.792 464.984 151.816 467.688 151.96V153.464H461.848V154.536H474.808V153.464H469ZM479.885 154.296C480.461 154.296 480.941 153.832 480.941 153.192C480.941 152.52 480.461 152.056 479.885 152.056C479.309 152.056 478.829 152.52 478.829 153.192C478.829 153.832 479.309 154.296 479.885 154.296ZM487.564 150.536C487.564 148.888 489.244 147.816 491.532 147.816C493.82 147.816 495.484 148.888 495.484 150.536C495.484 152.184 493.82 153.256 491.532 153.256C489.244 153.256 487.564 152.184 487.564 150.536ZM492.188 157.256V154.264C494.86 154.072 496.732 152.648 496.732 150.536C496.732 148.248 494.556 146.776 491.532 146.776C488.492 146.776 486.299 148.248 486.299 150.536C486.299 152.648 488.188 154.072 490.86 154.264V157.256H485.02V158.344H498.06V157.256H492.188ZM507.76 153.32H504.192V148.328H507.76V153.32ZM502.88 153.32H500.688V154.392H511.264V153.32H509.072V148.328H511.296V147.272H500.656V148.328H502.88V153.32ZM499.504 157.256V158.344H512.512V157.256H499.504ZM515.845 152.312H521.013V147.16H514.517V148.232H519.717V151.24H514.565V156.728H515.701C518.437 156.728 520.357 156.616 522.597 156.216L522.453 155.128C520.309 155.544 518.453 155.64 515.845 155.64V152.312ZM527.381 151.528H525.029V145.816H523.717V160.2H525.029V152.632H527.381V151.528ZM540.218 145.848H538.906V156.328H540.218V145.848ZM530.058 150.36C530.058 148.968 531.114 147.976 532.506 147.976C533.93 147.976 534.986 148.968 534.986 150.36C534.986 151.784 533.93 152.776 532.506 152.776C531.114 152.776 530.058 151.784 530.058 150.36ZM536.266 150.36C536.266 148.296 534.65 146.84 532.506 146.84C530.378 146.84 528.778 148.296 528.778 150.36C528.778 152.44 530.378 153.912 532.506 153.912C534.65 153.912 536.266 152.44 536.266 150.36ZM532.298 158.792V155.256H530.986V159.864H540.65V158.792H532.298ZM549.039 148.072H556.383V152.728H549.039V148.072ZM553.391 157.256V153.768H557.663V147.032H547.775V153.768H552.063V157.256H546.239V158.344H559.247V157.256H553.391ZM562.915 147.224H561.603V156.472H562.787C565.075 156.472 567.331 156.312 569.827 155.8L569.683 154.68C567.299 155.16 565.075 155.352 562.915 155.352V147.224ZM571.155 145.832V160.168H572.467V145.832H571.155ZM577.144 152.232H581.848V151.176H577.144V148.216H582.472V147.128H575.832V156.744H576.936C579.672 156.744 581.416 156.664 583.496 156.296L583.352 155.224C581.4 155.576 579.736 155.672 577.144 155.672V152.232ZM585.688 145.816V151.24H582.728V152.328H585.688V160.2H587V145.816H585.688ZM601.421 145.832H600.109V154.664H601.421V145.832ZM598.365 152.264C596.093 152.632 594.221 152.712 591.677 152.712V150.696H596.877V146.728H590.349V147.8H595.581V149.688H590.397V153.784H591.549C594.205 153.784 596.157 153.704 598.509 153.32L598.365 152.264ZM596.669 159.128C594.493 159.128 593.181 158.552 593.181 157.56C593.181 156.584 594.493 156.008 596.669 156.008C598.877 156.008 600.189 156.584 600.189 157.56C600.189 158.552 598.877 159.128 596.669 159.128ZM596.669 154.968C593.693 154.968 591.869 155.912 591.869 157.56C591.869 159.224 593.693 160.168 596.669 160.168C599.661 160.168 601.501 159.224 601.501 157.56C601.501 155.912 599.661 154.968 596.669 154.968Z" fill="#666666"/>
<rect x="450" y="151" width="3" height="3" fill="#666666"/>
<path d="M649.016 147.8V152.792H642.008V147.8H640.824V159H642.008V153.832H649.016V159H650.184V147.8H649.016ZM656.79 159.08C659.254 159.08 661.062 157.288 661.062 154.792C661.062 152.296 659.254 150.52 656.79 150.52C654.326 150.52 652.502 152.296 652.502 154.792C652.502 157.288 654.326 159.08 656.79 159.08ZM656.79 158.072C654.998 158.072 653.654 156.76 653.654 154.792C653.654 152.824 654.998 151.512 656.79 151.512C658.582 151.512 659.91 152.824 659.91 154.792C659.91 156.76 658.582 158.072 656.79 158.072ZM667.163 157.672C666.843 157.96 666.379 158.104 665.915 158.104C664.971 158.104 664.459 157.56 664.459 156.568V151.544H667.019V150.584H664.459V148.744H663.323V150.584H661.819V151.544H663.323V156.632C663.323 158.184 664.203 159.08 665.787 159.08C666.443 159.08 667.115 158.888 667.563 158.488L667.163 157.672ZM668.601 155.16H672.793V154.168H668.601V155.16ZM675.324 159H682.78V157.976H676.508V147.8H675.324V159ZM684.832 148.744C685.312 148.744 685.664 148.376 685.664 147.912C685.664 147.48 685.296 147.128 684.832 147.128C684.368 147.128 684 147.496 684 147.928C684 148.376 684.368 148.744 684.832 148.744ZM684.256 159H685.392V150.584H684.256V159ZM692.591 150.52C691.135 150.52 689.999 151.112 689.391 152.136V150.584H688.303V159H689.439V154.584C689.439 152.664 690.575 151.544 692.383 151.544C693.983 151.544 694.911 152.456 694.911 154.232V159H696.047V154.12C696.047 151.704 694.639 150.52 692.591 150.52ZM706.256 154.792C706.256 152.264 704.544 150.52 702.176 150.52C699.808 150.52 698.064 152.296 698.064 154.792C698.064 157.288 699.856 159.08 702.48 159.08C703.808 159.08 704.976 158.6 705.728 157.704L705.088 156.968C704.448 157.704 703.536 158.072 702.512 158.072C700.672 158.072 699.328 156.904 699.2 155.144H706.24C706.24 155.016 706.256 154.888 706.256 154.792ZM702.176 151.496C703.824 151.496 705.024 152.648 705.168 154.296H699.2C699.344 152.648 700.544 151.496 702.176 151.496ZM717.391 147.256C719.599 147.256 721.039 147.944 721.039 149.08C721.039 150.2 719.599 150.888 717.391 150.888C715.199 150.888 713.743 150.2 713.743 149.08C713.743 147.944 715.199 147.256 717.391 147.256ZM717.391 151.96C720.431 151.96 722.415 150.856 722.415 149.08C722.415 147.304 720.431 146.2 717.391 146.2C714.351 146.2 712.367 147.304 712.367 149.08C712.367 150.856 714.351 151.96 717.391 151.96ZM713.871 155.672H712.559V159.864H722.479V158.776H713.871V155.672ZM710.895 153.112V154.184H716.847V157.08H718.175V154.184H723.903V153.112H710.895ZM726.851 150.088C726.851 148.76 727.907 147.8 729.299 147.8C730.707 147.8 731.731 148.76 731.731 150.088C731.731 151.432 730.707 152.392 729.299 152.392C727.907 152.392 726.851 151.432 726.851 150.088ZM735.875 148.968V151.208H732.787C732.915 150.856 732.979 150.488 732.979 150.088C732.979 149.672 732.915 149.304 732.803 148.968H735.875ZM735.875 152.28V154.328H737.203V145.832H735.875V147.896H732.195C731.539 147.16 730.515 146.696 729.299 146.696C727.171 146.696 725.603 148.088 725.603 150.088C725.603 152.104 727.171 153.512 729.299 153.512C730.515 153.512 731.539 153.048 732.195 152.28H735.875ZM732.451 159.128C730.291 159.128 728.979 158.488 728.979 157.416C728.979 156.328 730.291 155.688 732.451 155.688C734.643 155.688 735.955 156.328 735.955 157.416C735.955 158.488 734.643 159.128 732.451 159.128ZM732.451 154.664C729.507 154.664 727.683 155.672 727.683 157.416C727.683 159.16 729.507 160.168 732.451 160.168C735.411 160.168 737.251 159.16 737.251 157.416C737.251 155.672 735.411 154.664 732.451 154.664Z" fill="#666666"/>
<rect x="628" y="151" width="3" height="3" fill="#666666"/>
<path d="M459.568 118.264C457.312 117.512 456.304 115.768 456.24 114.072H459.104V112.392H451.184V114.072H454.08C454.032 115.896 452.976 117.752 450.608 118.52L451.68 120.2C453.392 119.624 454.544 118.472 455.2 117.016C455.84 118.328 456.928 119.384 458.544 119.912L459.568 118.264ZM455.28 122.408H460.944V124.552H455.28V122.408ZM453.2 126.2H463.008V120.76H453.2V126.2ZM460.896 111.64V115.048H458.672V116.76H460.896V120.152H463.008V111.64H460.896ZM466.021 112.488V114.168H470.501C470.165 116.12 468.389 117.72 465.221 118.584L466.053 120.216C470.341 119.032 472.741 116.376 472.741 112.488H466.021ZM469.861 122.136H475.397V124.552H469.861V122.136ZM467.781 126.2H477.477V120.472H467.781V126.2ZM475.365 111.656V115.128H472.821V116.84H475.365V119.864H477.477V111.656H475.365ZM495.225 111.656H493.113V120.008H495.225V111.656ZM488.825 117.112H485.817V114.184H488.825V117.112ZM490.889 112.52H483.737V118.76H490.889V112.52ZM495.465 122.36V120.792H491.352V119.592H489.209V120.792H485.081V122.36H489.161C488.937 123.384 487.465 124.504 484.521 124.76L485.177 126.328C487.657 126.12 489.385 125.256 490.281 124.12C491.177 125.24 492.889 126.12 495.337 126.328L496.009 124.76C493.097 124.52 491.625 123.336 491.401 122.36H495.465ZM504.316 114.392H510.668V118.296H504.316V114.392ZM508.556 122.952V119.96H512.732V112.728H502.252V119.96H506.444V122.952H500.844V124.664H514.188V122.952H508.556ZM518.177 113.032H516.081V122.744H517.393C519.633 122.744 522.081 122.584 524.593 122.056L524.369 120.296C522.209 120.728 520.113 120.888 518.177 120.936V113.032ZM525.505 111.624V126.36H527.617V111.624H525.505ZM532.55 118.616H536.774V116.968H532.55V114.568H537.27V112.872H530.454V123.064H531.654C534.134 123.064 536.022 123.016 538.15 122.68L537.958 120.984C536.15 121.272 534.534 121.352 532.55 121.368V118.616ZM540.038 111.624V116.824H537.51V118.52H540.038V126.408H542.15V111.624H540.038ZM556.491 111.64H554.363V120.584H556.491V111.64ZM553.147 117.88C551.227 118.2 549.515 118.28 547.083 118.296V117H551.771V112.504H544.987V114.184H549.691V115.432H545.003V119.992H546.299C549.227 119.992 551.195 119.928 553.387 119.56L553.147 117.88ZM551.531 124.76C549.611 124.76 548.603 124.408 548.603 123.624C548.603 122.856 549.611 122.504 551.531 122.504C553.467 122.504 554.475 122.856 554.475 123.624C554.475 124.408 553.467 124.76 551.531 124.76ZM551.531 120.856C548.411 120.856 546.491 121.88 546.491 123.624C546.491 125.368 548.411 126.392 551.531 126.392C554.667 126.392 556.587 125.368 556.587 123.624C556.587 121.88 554.667 120.856 551.531 120.856Z" fill="#435CE7"/>
<rect x="409.938" width="380" height="70" rx="10" fill="#435CE7"/>
<path d="M555.753 41H561.477C565.599 41 568.425 38.516 568.425 34.7C568.425 30.884 565.599 28.4 561.477 28.4H555.753V41ZM558.669 38.606V30.794H561.333C563.835 30.794 565.473 32.288 565.473 34.7C565.473 37.112 563.835 38.606 561.333 38.606H558.669ZM579.662 36.194C579.662 33.08 577.466 31.172 574.622 31.172C571.67 31.172 569.456 33.26 569.456 36.158C569.456 39.038 571.634 41.144 574.982 41.144C576.728 41.144 578.078 40.604 578.978 39.578L577.484 37.958C576.818 38.588 576.08 38.894 575.054 38.894C573.578 38.894 572.552 38.156 572.282 36.95H579.608C579.626 36.716 579.662 36.41 579.662 36.194ZM574.64 33.296C575.9 33.296 576.818 34.088 577.016 35.312H572.246C572.444 34.07 573.362 33.296 574.64 33.296ZM586.771 38.552C586.465 38.786 586.051 38.912 585.637 38.912C584.881 38.912 584.431 38.462 584.431 37.634V33.692H586.843V31.532H584.431V29.174H581.623V31.532H580.129V33.692H581.623V37.67C581.623 39.974 582.955 41.144 585.241 41.144C586.105 41.144 586.951 40.946 587.527 40.532L586.771 38.552ZM598.041 36.194C598.041 33.08 595.845 31.172 593.001 31.172C590.049 31.172 587.835 33.26 587.835 36.158C587.835 39.038 590.013 41.144 593.361 41.144C595.107 41.144 596.457 40.604 597.357 39.578L595.863 37.958C595.197 38.588 594.459 38.894 593.433 38.894C591.957 38.894 590.931 38.156 590.661 36.95H597.987C598.005 36.716 598.041 36.41 598.041 36.194ZM593.019 33.296C594.279 33.296 595.197 34.088 595.395 35.312H590.625C590.823 34.07 591.741 33.296 593.019 33.296ZM604.34 41.144C606.374 41.144 607.976 40.244 608.678 38.696L606.5 37.508C605.978 38.444 605.204 38.84 604.322 38.84C602.9 38.84 601.784 37.85 601.784 36.158C601.784 34.466 602.9 33.476 604.322 33.476C605.204 33.476 605.978 33.89 606.5 34.808L608.678 33.638C607.976 32.054 606.374 31.172 604.34 31.172C601.19 31.172 598.94 33.242 598.94 36.158C598.94 39.074 601.19 41.144 604.34 41.144ZM615.676 38.552C615.37 38.786 614.956 38.912 614.542 38.912C613.786 38.912 613.336 38.462 613.336 37.634V33.692H615.748V31.532H613.336V29.174H610.528V31.532H609.034V33.692H610.528V37.67C610.528 39.974 611.86 41.144 614.146 41.144C615.01 41.144 615.856 40.946 616.432 40.532L615.676 38.552ZM619.162 29.966C620.206 29.966 620.908 29.282 620.908 28.346C620.908 27.482 620.206 26.834 619.162 26.834C618.118 26.834 617.416 27.518 617.416 28.4C617.416 29.282 618.118 29.966 619.162 29.966ZM617.758 41H620.566V31.316H617.758V41ZM627.53 41.144C630.608 41.144 632.84 39.074 632.84 36.158C632.84 33.242 630.608 31.172 627.53 31.172C624.452 31.172 622.202 33.242 622.202 36.158C622.202 39.074 624.452 41.144 627.53 41.144ZM627.53 38.84C626.126 38.84 625.046 37.832 625.046 36.158C625.046 34.484 626.126 33.476 627.53 33.476C628.934 33.476 629.996 34.484 629.996 36.158C629.996 37.832 628.934 38.84 627.53 38.84ZM640.353 31.172C639.039 31.172 637.905 31.622 637.149 32.45V31.316H634.467V41H637.275V36.212C637.275 34.43 638.247 33.602 639.597 33.602C640.839 33.602 641.559 34.322 641.559 35.888V41H644.367V35.456C644.367 32.504 642.639 31.172 640.353 31.172Z" fill="white"/>
<mask id="path-21-inside-3_2291_37813" fill="white">
<path d="M820 10C820 4.47715 824.477 0 830 0H1190C1195.52 0 1200 4.47715 1200 10V220C1200 225.523 1195.52 230 1190 230H830C824.477 230 820 225.523 820 220V10Z"/>
</mask>
<path d="M820 10C820 4.47715 824.477 0 830 0H1190C1195.52 0 1200 4.47715 1200 10V220C1200 225.523 1195.52 230 1190 230H830C824.477 230 820 225.523 820 220V10Z" fill="white"/>
<path d="M830 1H1190V-1H830V1ZM1199 10V220H1201V10H1199ZM1190 229H830V231H1190V229ZM821 220V10H819V220H821ZM830 229C825.029 229 821 224.971 821 220H819C819 226.075 823.925 231 830 231V229ZM1199 220C1199 224.971 1194.97 229 1190 229V231C1196.08 231 1201 226.075 1201 220H1199ZM1190 1C1194.97 1 1199 5.02944 1199 10H1201C1201 3.92487 1196.08 -1 1190 -1V1ZM830 -1C823.925 -1 819 3.92487 819 10H821C821 5.02944 825.029 1 830 1V-1Z" fill="#EEEEEE" mask="url(#path-21-inside-3_2291_37813)"/>
<path d="M872.392 147.688V148.76H876.696C876.504 151.736 875.144 154.328 871.848 156.168L872.616 157.112C876.696 154.808 877.992 151.384 877.992 147.688H872.392ZM882.76 145.832V151.608H880.808V146.216H879.576V159.464H880.808V152.68H882.76V160.184H884.024V145.832H882.76ZM896.813 156.568H898.141V145.848H896.813V149.208H893.677V150.296H896.813V156.568ZM894.701 153.176C892.637 152.408 891.229 150.52 891.229 148.52V146.696H889.917V148.472C889.917 150.664 888.477 152.696 886.333 153.48L887.021 154.52C888.701 153.848 889.981 152.488 890.589 150.776C891.197 152.328 892.429 153.56 894.013 154.184L894.701 153.176ZM890.221 158.792V155.384H888.909V159.864H898.477V158.792H890.221ZM908.274 153.88C908.674 151.208 908.674 149.336 908.674 148.184V147.4H901.426V148.472H907.394C907.394 149.624 907.362 151.368 906.962 153.752L908.274 153.88ZM904.978 151.496H903.682V155.912C902.61 155.944 901.554 155.96 900.642 155.96L900.786 157.048C903.33 157.048 906.706 156.984 909.682 156.504L909.602 155.544C908.146 155.72 906.546 155.816 904.978 155.88V151.496ZM914.082 151.832H911.794V145.832H910.482V160.184H911.794V152.936H914.082V151.832ZM919.462 148.584H922.022V147.512H915.478V148.584H918.198V149.88C918.198 152.52 917.078 155.128 915.078 156.328L915.878 157.304C917.302 156.408 918.342 154.728 918.838 152.76C919.334 154.584 920.326 156.12 921.718 156.952L922.518 155.992C920.534 154.872 919.462 152.376 919.462 149.88V148.584ZM923.302 150.984H920.934V152.056H923.302V159.432H924.55V146.152H923.302V150.984ZM926.182 145.816V160.168H927.446V145.816H926.182ZM934.347 153.416C936.571 153.08 938.635 151.976 939.547 150.424C940.459 151.976 942.507 153.08 944.731 153.416L945.195 152.36C942.635 152.008 940.203 150.424 940.203 148.664H944.779V147.608H940.203V145.832H938.891V147.608H934.315V148.664H938.875C938.875 150.44 936.459 152.008 933.867 152.36L934.347 153.416ZM946.043 154.504H933.067V155.576H938.891V160.2H940.203V155.576H946.043V154.504ZM959.296 145.848H957.984V156.344H959.296V145.848ZM956.288 153.256C954.176 152.552 952.688 150.808 952.688 148.872V148.088H955.936V147.032H948.064V148.088H951.344V148.872C951.344 150.92 949.888 152.792 947.712 153.544L948.4 154.568C950.096 153.96 951.424 152.664 952.032 151.032C952.688 152.536 954 153.72 955.648 154.296L956.288 153.256ZM951.376 158.792V155.352H950.064V159.864H959.728V158.792H951.376ZM877.688 187.096C879.336 187.096 880.808 186.536 881.8 185.448L881.048 184.696C880.136 185.64 879.016 186.04 877.736 186.04C875.032 186.04 873 184.056 873 181.4C873 178.744 875.032 176.76 877.736 176.76C879.016 176.76 880.136 177.16 881.048 178.088L881.8 177.336C880.808 176.248 879.336 175.704 877.704 175.704C874.328 175.704 871.832 178.12 871.832 181.4C871.832 184.68 874.328 187.096 877.688 187.096ZM886.899 187.08C889.363 187.08 891.171 185.288 891.171 182.792C891.171 180.296 889.363 178.52 886.899 178.52C884.435 178.52 882.611 180.296 882.611 182.792C882.611 185.288 884.435 187.08 886.899 187.08ZM886.899 186.072C885.107 186.072 883.763 184.76 883.763 182.792C883.763 180.824 885.107 179.512 886.899 179.512C888.691 179.512 890.019 180.824 890.019 182.792C890.019 184.76 888.691 186.072 886.899 186.072ZM903.736 178.52C902.216 178.52 901.016 179.208 900.408 180.296C899.896 179.112 898.808 178.52 897.416 178.52C896.008 178.52 894.92 179.112 894.328 180.12V178.584H893.24V187H894.376V182.584C894.376 180.664 895.48 179.544 897.192 179.544C898.728 179.544 899.624 180.456 899.624 182.232V187H900.76V182.584C900.76 180.664 901.848 179.544 903.576 179.544C905.096 179.544 905.992 180.456 905.992 182.232V187H907.128V182.12C907.128 179.704 905.784 178.52 903.736 178.52ZM914.295 178.52C912.903 178.52 911.735 179.128 911.047 180.248V178.584H909.959V190.104H911.095V185.416C911.799 186.504 912.951 187.08 914.295 187.08C916.695 187.08 918.487 185.352 918.487 182.792C918.487 180.248 916.695 178.52 914.295 178.52ZM914.215 186.072C912.423 186.072 911.079 184.76 911.079 182.792C911.079 180.84 912.423 179.512 914.215 179.512C915.991 179.512 917.351 180.84 917.351 182.792C917.351 184.76 915.991 186.072 914.215 186.072ZM920.553 187H921.689V175.128H920.553V187ZM925.176 176.744C925.656 176.744 926.008 176.376 926.008 175.912C926.008 175.48 925.64 175.128 925.176 175.128C924.712 175.128 924.344 175.496 924.344 175.928C924.344 176.376 924.712 176.744 925.176 176.744ZM924.6 187H925.736V178.584H924.6V187ZM931.591 178.52C930.263 178.52 929.015 178.936 928.167 179.656L928.679 180.504C929.367 179.896 930.391 179.512 931.479 179.512C933.047 179.512 933.863 180.296 933.863 181.736V182.248H931.191C928.775 182.248 927.943 183.336 927.943 184.632C927.943 186.088 929.111 187.08 931.015 187.08C932.407 187.08 933.399 186.552 933.911 185.688V187H934.999V181.784C934.999 179.608 933.767 178.52 931.591 178.52ZM931.191 186.184C929.847 186.184 929.062 185.576 929.062 184.6C929.062 183.736 929.591 183.096 931.223 183.096H933.863V184.472C933.415 185.576 932.471 186.184 931.191 186.184ZM942.122 178.52C940.666 178.52 939.53 179.112 938.922 180.136V178.584H937.834V187H938.97V182.584C938.97 180.664 940.106 179.544 941.914 179.544C943.514 179.544 944.442 180.456 944.442 182.232V187H945.578V182.12C945.578 179.704 944.17 178.52 942.122 178.52ZM951.931 187.08C953.355 187.08 954.555 186.504 955.227 185.416L954.379 184.84C953.803 185.688 952.907 186.072 951.931 186.072C950.091 186.072 948.747 184.776 948.747 182.792C948.747 180.824 950.091 179.512 951.931 179.512C952.907 179.512 953.803 179.912 954.379 180.76L955.227 180.184C954.555 179.08 953.355 178.52 951.931 178.52C949.419 178.52 947.595 180.28 947.595 182.792C947.595 185.304 949.419 187.08 951.931 187.08ZM964.412 182.792C964.412 180.264 962.7 178.52 960.332 178.52C957.964 178.52 956.22 180.296 956.22 182.792C956.22 185.288 958.012 187.08 960.636 187.08C961.964 187.08 963.132 186.6 963.884 185.704L963.244 184.968C962.604 185.704 961.692 186.072 960.668 186.072C958.828 186.072 957.484 184.904 957.356 183.144H964.396C964.396 183.016 964.412 182.888 964.412 182.792ZM960.332 179.496C961.98 179.496 963.18 180.648 963.324 182.296H957.356C957.5 180.648 958.7 179.496 960.332 179.496ZM970.251 182.296C972.411 181.832 974.667 180.408 975.579 178.424C976.491 180.392 978.763 181.8 980.955 182.232L981.483 181.176C978.987 180.776 976.251 178.808 976.251 176.52V176.216H981.003V175.144H970.139V176.216H974.891V176.52C974.891 178.808 972.171 180.808 969.691 181.224L970.251 182.296ZM976.235 185.256V181.784H974.923V185.256H969.067V186.344H982.091V185.256H976.235ZM992.304 180.84C990.192 180.136 988.704 178.392 988.704 176.472V175.896H991.952V174.84H984.08V175.896H987.36V176.472C987.36 178.488 985.904 180.36 983.728 181.128L984.416 182.152C986.112 181.528 987.44 180.248 988.048 178.616C988.704 180.12 990.016 181.304 991.664 181.88L992.304 180.84ZM985.712 184.328H994V188.184H995.312V183.272H985.712V184.328ZM994 173.832V182.52H995.312V173.832H994ZM1008.5 182.68H1009.83V173.848H1008.5V176.392H1006.13V177.464H1008.5V178.968H1006.13V180.04H1008.5V182.68ZM1001.12 175.976H1003.28V180.632C1002.56 180.664 1001.83 180.696 1001.12 180.712V175.976ZM1006.44 180.376C1005.84 180.456 1005.2 180.504 1004.56 180.552V175.976H1005.99V174.92H998.436V175.976H999.86V180.728C999.22 180.744 998.596 180.744 998.052 180.744L998.196 181.832C1000.52 181.832 1003.75 181.784 1006.52 181.352L1006.44 180.376ZM1005.09 187.144C1002.92 187.144 1001.62 186.568 1001.62 185.56C1001.62 184.584 1002.92 183.992 1005.09 183.992C1007.27 183.992 1008.56 184.584 1008.56 185.56C1008.56 186.568 1007.27 187.144 1005.09 187.144ZM1005.09 182.984C1002.12 182.984 1000.31 183.912 1000.31 185.56C1000.31 187.224 1002.12 188.168 1005.09 188.168C1008.05 188.168 1009.88 187.224 1009.88 185.56C1009.88 183.912 1008.05 182.984 1005.09 182.984ZM1013.24 175.368V176.456H1018.51C1018.2 179.848 1016.23 182.6 1012.57 184.44L1013.29 185.464C1017.93 183.144 1019.8 179.448 1019.8 175.368H1013.24ZM1025.82 179.656H1023.51V173.832H1022.2V188.184H1023.51V180.744H1025.82V179.656Z" fill="#666666"/>
<rect x="860" y="150" width="3" height="3" fill="#666666"/>
<rect x="860" y="179" width="3" height="3" fill="#666666"/>
<path d="M1067.54 148.264H1071.1V152.968H1067.54V148.264ZM1069.98 157.32V154.024H1074.61V152.968H1072.42V148.264H1074.64V147.208H1064V148.264H1066.22V152.968H1064.03V154.024H1068.66V157.32H1062.85V158.392H1075.86V157.32H1069.98ZM1085.6 152.584C1083.54 151.88 1082.13 150.088 1082.13 148.152V146.568H1080.82V148.04C1080.82 150.232 1079.43 152.184 1077.25 152.968L1077.94 154.008C1079.62 153.368 1080.9 152.056 1081.49 150.376C1082.13 151.848 1083.36 153.032 1084.92 153.608L1085.6 152.584ZM1083.89 159.144C1081.76 159.144 1080.47 158.552 1080.47 157.56C1080.47 156.552 1081.76 155.96 1083.89 155.96C1086 155.96 1087.3 156.552 1087.3 157.56C1087.3 158.552 1086 159.144 1083.89 159.144ZM1083.89 154.936C1080.96 154.936 1079.16 155.88 1079.16 157.56C1079.16 159.224 1080.96 160.168 1083.89 160.168C1086.8 160.168 1088.61 159.224 1088.61 157.56C1088.61 155.88 1086.8 154.936 1083.89 154.936ZM1088.45 149.544V145.848H1087.14V154.536H1088.45V150.632H1090.58V149.544H1088.45ZM1106.87 145.832H1105.56V154.072H1106.87V145.832ZM1101.29 151.576H1097.15V147.8H1101.29V151.576ZM1102.57 146.76H1095.87V152.632H1102.57V146.76ZM1107.21 156.056V155.048H1103V153.656H1101.67V155.048H1097.47V156.056H1101.66C1101.64 157.48 1099.35 158.84 1096.91 159.128L1097.34 160.136C1099.5 159.832 1101.48 158.872 1102.35 157.512C1103.19 158.84 1105.11 159.832 1107.27 160.136L1107.72 159.128C1105.26 158.824 1103.03 157.432 1103.02 156.056H1107.21ZM1124.69 145.848H1123.37V154.504H1124.69V145.848ZM1121.68 152.792C1119.57 152.104 1118.08 150.36 1118.08 148.44V148.024H1121.33V146.952H1113.45V148.024H1116.73V148.44C1116.73 150.52 1115.28 152.408 1113.12 153.16L1113.81 154.2C1115.5 153.56 1116.83 152.248 1117.44 150.616C1118.09 152.104 1119.41 153.272 1121.04 153.832L1121.68 152.792ZM1119.92 159.208C1117.74 159.208 1116.4 158.6 1116.4 157.544C1116.4 156.472 1117.74 155.88 1119.92 155.88C1122.09 155.88 1123.42 156.472 1123.42 157.544C1123.42 158.6 1122.09 159.208 1119.92 159.208ZM1119.92 154.84C1116.94 154.84 1115.1 155.832 1115.1 157.544C1115.1 159.256 1116.94 160.232 1119.92 160.232C1122.89 160.232 1124.73 159.256 1124.73 157.544C1124.73 155.832 1122.89 154.84 1119.92 154.84ZM1135.44 149.832H1133.32C1133.44 149.112 1133.51 148.392 1133.51 147.656H1128V148.728H1132.21C1131.99 151.736 1130.45 154.312 1127.36 156.152L1128.13 157.08C1130.85 155.464 1132.4 153.304 1133.08 150.888H1135.44V153.416H1132.85V154.488H1135.44V159.448H1136.69V146.216H1135.44V149.832ZM1138.32 145.832V160.168H1139.57V145.832H1138.32Z" fill="#666666"/>
<rect x="1051" y="150" width="3" height="3" fill="#666666"/>
<path d="M866.112 112.776H863.984V114.92C863.984 117.656 862.864 120.472 860.384 121.64L861.648 123.352C863.312 122.536 864.416 120.984 865.056 119.112C865.664 120.872 866.704 122.296 868.24 123.08L869.52 121.416C867.152 120.248 866.112 117.576 866.112 114.92V112.776ZM874.368 117.304H872.224V111.64H870.112V126.376H872.224V119.064H874.368V117.304ZM887.781 113.176H882.869V111.624H880.757V113.176H875.797V114.824H887.781V113.176ZM884.677 117.944C884.677 118.6 883.733 118.904 881.813 118.904C879.893 118.904 878.965 118.6 878.965 117.944C878.965 117.256 879.893 116.968 881.813 116.968C883.733 116.968 884.677 117.256 884.677 117.944ZM876.773 117.944C876.773 119.56 878.661 120.472 881.813 120.472C884.965 120.472 886.869 119.56 886.869 117.944C886.869 116.312 884.965 115.4 881.813 115.4C878.661 115.4 876.773 116.312 876.773 117.944ZM888.501 121.176H875.157V122.872H880.757V126.392H882.869V122.872H888.501V121.176ZM897.498 117.96C897.834 116.104 897.834 114.648 897.834 113.624V112.712H890.266V114.392H895.754C895.738 115.272 895.674 116.344 895.434 117.72L897.498 117.96ZM898.474 118.552C897.098 118.744 895.626 118.856 894.17 118.92V116.136H892.106V119C891.146 119.016 890.234 119.016 889.418 119.016L889.61 120.696C892.138 120.68 895.562 120.616 898.602 120.056L898.474 118.552ZM893.674 121.688H891.562V126.12H901.85V124.44H893.674V121.688ZM901.386 116.12V111.624H899.274V122.664H901.386V117.864H903.146V116.12H901.386ZM907.038 118.584H911.822V112.888H904.862V114.568H909.662V116.92H904.878V122.984H906.206C908.878 122.984 911.038 122.888 913.438 122.472L913.214 120.76C911.134 121.112 909.278 121.224 907.038 121.24V118.584ZM914.238 111.624V126.408H916.35V111.624H914.238Z" fill="#435CE7"/>
<rect x="819.938" width="380" height="70" rx="10" fill="#435CE7"/>
<path d="M966.527 41H972.251C976.373 41 979.199 38.516 979.199 34.7C979.199 30.884 976.373 28.4 972.251 28.4H966.527V41ZM969.443 38.606V30.794H972.107C974.609 30.794 976.247 32.288 976.247 34.7C976.247 37.112 974.609 38.606 972.107 38.606H969.443ZM982.354 29.966C983.398 29.966 984.1 29.282 984.1 28.346C984.1 27.482 983.398 26.834 982.354 26.834C981.31 26.834 980.608 27.518 980.608 28.4C980.608 29.282 981.31 29.966 982.354 29.966ZM980.95 41H983.758V31.316H980.95V41ZM989.372 41.144C992.27 41.144 993.944 39.866 993.944 38.066C993.944 34.25 988.094 35.852 988.094 34.196C988.094 33.692 988.634 33.296 989.894 33.296C990.776 33.296 991.73 33.476 992.684 34.016L993.62 32.018C992.702 31.478 991.226 31.172 989.894 31.172C987.068 31.172 985.412 32.468 985.412 34.304C985.412 38.174 991.262 36.554 991.262 38.138C991.262 38.678 990.776 39.02 989.48 39.02C988.292 39.02 986.978 38.642 986.114 38.084L985.178 40.1C986.078 40.694 987.734 41.144 989.372 41.144ZM1000.11 41.144C1002.14 41.144 1003.74 40.244 1004.44 38.696L1002.27 37.508C1001.74 38.444 1000.97 38.84 1000.09 38.84C998.667 38.84 997.551 37.85 997.551 36.158C997.551 34.466 998.667 33.476 1000.09 33.476C1000.97 33.476 1001.74 33.89 1002.27 34.808L1004.44 33.638C1003.74 32.054 1002.14 31.172 1000.11 31.172C996.957 31.172 994.707 33.242 994.707 36.158C994.707 39.074 996.957 41.144 1000.11 41.144ZM1007.22 29.966C1008.26 29.966 1008.96 29.282 1008.96 28.346C1008.96 27.482 1008.26 26.834 1007.22 26.834C1006.17 26.834 1005.47 27.518 1005.47 28.4C1005.47 29.282 1006.17 29.966 1007.22 29.966ZM1005.81 41H1008.62V31.316H1005.81V41ZM1016.7 31.172C1015.4 31.172 1014.36 31.586 1013.66 32.432V31.316H1010.98V44.492H1013.78V39.974C1014.5 40.766 1015.49 41.144 1016.7 41.144C1019.42 41.144 1021.52 39.2 1021.52 36.158C1021.52 33.116 1019.42 31.172 1016.7 31.172ZM1016.21 38.84C1014.81 38.84 1013.75 37.832 1013.75 36.158C1013.75 34.484 1014.81 33.476 1016.21 33.476C1017.62 33.476 1018.68 34.484 1018.68 36.158C1018.68 37.832 1017.62 38.84 1016.21 38.84ZM1023.15 41H1025.96V27.644H1023.15V41ZM1029.72 29.966C1030.77 29.966 1031.47 29.282 1031.47 28.346C1031.47 27.482 1030.77 26.834 1029.72 26.834C1028.68 26.834 1027.98 27.518 1027.98 28.4C1027.98 29.282 1028.68 29.966 1029.72 29.966ZM1028.32 41H1031.13V31.316H1028.32V41ZM1039.37 31.172C1038.05 31.172 1036.92 31.622 1036.16 32.45V31.316H1033.48V41H1036.29V36.212C1036.29 34.43 1037.26 33.602 1038.61 33.602C1039.85 33.602 1040.57 34.322 1040.57 35.888V41H1043.38V35.456C1043.38 32.504 1041.65 31.172 1039.37 31.172ZM1055.27 36.194C1055.27 33.08 1053.07 31.172 1050.23 31.172C1047.28 31.172 1045.06 33.26 1045.06 36.158C1045.06 39.038 1047.24 41.144 1050.59 41.144C1052.33 41.144 1053.68 40.604 1054.58 39.578L1053.09 37.958C1052.42 38.588 1051.69 38.894 1050.66 38.894C1049.18 38.894 1048.16 38.156 1047.89 36.95H1055.21C1055.23 36.716 1055.27 36.41 1055.27 36.194ZM1050.25 33.296C1051.51 33.296 1052.42 34.088 1052.62 35.312H1047.85C1048.05 34.07 1048.97 33.296 1050.25 33.296Z" fill="white"/>
</svg>
