<svg width="56" height="56" viewBox="0 0 56 56" fill="none" xmlns="http://www.w3.org/2000/svg">
<path d="M4 7.25C4 5.59315 5.34315 4.25 7 4.25H24.7655C25.9312 4.25 26.9915 4.92537 27.4843 5.98189L28.6922 8.57169C29.185 9.6282 30.2452 10.3036 31.411 10.3036H49C50.6569 10.3036 52 11.6467 52 13.3036V40.25C52 41.9069 50.6569 43.25 49 43.25H7C5.34315 43.25 4 41.9069 4 40.25V7.25Z" fill="#435CE7"/>
<path d="M10 17.25L46 17.25" stroke="white" stroke-width="3" stroke-linecap="round"/>
<path d="M18.2268 37.25C17.364 37.25 16.9062 36.2305 17.4794 35.5856L27.2526 24.5908C27.6504 24.1433 28.3496 24.1433 28.7474 24.5908L38.5206 35.5856C39.0938 36.2305 38.636 37.25 37.7732 37.25H33.3333V49.75C33.3333 50.3023 32.8856 50.75 32.3333 50.75H23.6667C23.1144 50.75 22.6667 50.3023 22.6667 49.75V37.25H18.2268Z" fill="#435CE7"/>
<path fill-rule="evenodd" clip-rule="evenodd" d="M33.3331 43.2505H22.6664V37.2505H18.2266C17.3637 37.2505 16.9059 36.2311 17.4792 35.5862L27.2523 24.5914C27.6501 24.1439 28.3493 24.1439 28.7471 24.5914L38.5203 35.5862C39.0935 36.2311 38.6357 37.2505 37.7729 37.2505H33.3331V43.2505Z" fill="#283895"/>
</svg>
