<svg width="327" height="616" viewBox="0 0 327 616" fill="none" xmlns="http://www.w3.org/2000/svg">
<rect width="327" height="616" rx="7" fill="#F6F7FE"/>
<path opacity="0.7" d="M104 78.0002C103.724 78.0002 103.5 78.2241 103.5 78.5002C103.5 78.7764 103.724 79.0002 104 79.0002V78.0002ZM184 79.0002C184.276 79.0002 184.5 78.7764 184.5 78.5002C184.5 78.2241 184.276 78.0002 184 78.0002V79.0002ZM182.974 78.0002C182.698 78.0002 182.474 78.2241 182.474 78.5002C182.474 78.7764 182.698 79.0002 182.974 79.0002V78.0002ZM178.872 79.0002C179.148 79.0002 179.372 78.7764 179.372 78.5002C179.372 78.2241 179.148 78.0002 178.872 78.0002V79.0002ZM176.821 78.0002C176.544 78.0002 176.321 78.2241 176.321 78.5002C176.321 78.7764 176.544 79.0002 176.821 79.0002V78.0002ZM172.718 79.0002C172.994 79.0002 173.218 78.7764 173.218 78.5002C173.218 78.2241 172.994 78.0002 172.718 78.0002V79.0002ZM170.667 78.0002C170.391 78.0002 170.167 78.2241 170.167 78.5002C170.167 78.7764 170.391 79.0002 170.667 79.0002V78.0002ZM166.564 79.0002C166.84 79.0002 167.064 78.7764 167.064 78.5002C167.064 78.2241 166.84 78.0002 166.564 78.0002V79.0002ZM164.513 78.0002C164.237 78.0002 164.013 78.2241 164.013 78.5002C164.013 78.7764 164.237 79.0002 164.513 79.0002V78.0002ZM160.41 79.0002C160.686 79.0002 160.91 78.7764 160.91 78.5002C160.91 78.2241 160.686 78.0002 160.41 78.0002V79.0002ZM158.359 78.0002C158.083 78.0002 157.859 78.2241 157.859 78.5002C157.859 78.7764 158.083 79.0002 158.359 79.0002V78.0002ZM154.256 79.0002C154.533 79.0002 154.756 78.7764 154.756 78.5002C154.756 78.2241 154.533 78.0002 154.256 78.0002V79.0002ZM152.205 78.0002C151.929 78.0002 151.705 78.2241 151.705 78.5002C151.705 78.7764 151.929 79.0002 152.205 79.0002V78.0002ZM148.103 79.0002C148.379 79.0002 148.603 78.7764 148.603 78.5002C148.603 78.2241 148.379 78.0002 148.103 78.0002V79.0002ZM146.051 78.0002C145.775 78.0002 145.551 78.2241 145.551 78.5002C145.551 78.7764 145.775 79.0002 146.051 79.0002V78.0002ZM141.949 79.0002C142.225 79.0002 142.449 78.7764 142.449 78.5002C142.449 78.2241 142.225 78.0002 141.949 78.0002V79.0002ZM139.897 78.0002C139.621 78.0002 139.397 78.2241 139.397 78.5002C139.397 78.7764 139.621 79.0002 139.897 79.0002V78.0002ZM135.795 79.0002C136.071 79.0002 136.295 78.7764 136.295 78.5002C136.295 78.2241 136.071 78.0002 135.795 78.0002V79.0002ZM133.744 78.0002C133.467 78.0002 133.244 78.2241 133.244 78.5002C133.244 78.7764 133.467 79.0002 133.744 79.0002V78.0002ZM129.641 79.0002C129.917 79.0002 130.141 78.7764 130.141 78.5002C130.141 78.2241 129.917 78.0002 129.641 78.0002V79.0002ZM127.59 78.0002C127.314 78.0002 127.09 78.2241 127.09 78.5002C127.09 78.7764 127.314 79.0002 127.59 79.0002V78.0002ZM123.487 79.0002C123.763 79.0002 123.987 78.7764 123.987 78.5002C123.987 78.2241 123.763 78.0002 123.487 78.0002V79.0002ZM121.436 78.0002C121.16 78.0002 120.936 78.2241 120.936 78.5002C120.936 78.7764 121.16 79.0002 121.436 79.0002V78.0002ZM117.333 79.0002C117.609 79.0002 117.833 78.7764 117.833 78.5002C117.833 78.2241 117.609 78.0002 117.333 78.0002V79.0002ZM115.282 78.0002C115.006 78.0002 114.782 78.2241 114.782 78.5002C114.782 78.7764 115.006 79.0002 115.282 79.0002V78.0002ZM111.179 79.0002C111.456 79.0002 111.679 78.7764 111.679 78.5002C111.679 78.2241 111.456 78.0002 111.179 78.0002V79.0002ZM109.128 78.0002C108.852 78.0002 108.628 78.2241 108.628 78.5002C108.628 78.7764 108.852 79.0002 109.128 79.0002V78.0002ZM105.026 79.0002C105.302 79.0002 105.526 78.7764 105.526 78.5002C105.526 78.2241 105.302 78.0002 105.026 78.0002V79.0002ZM184 78.0002H182.974V79.0002H184V78.0002ZM178.872 78.0002H176.821V79.0002H178.872V78.0002ZM172.718 78.0002H170.667V79.0002H172.718V78.0002ZM166.564 78.0002H164.513V79.0002H166.564V78.0002ZM160.41 78.0002H158.359V79.0002H160.41V78.0002ZM154.256 78.0002H152.205V79.0002H154.256V78.0002ZM148.103 78.0002H146.051V79.0002H148.103V78.0002ZM141.949 78.0002H139.897V79.0002H141.949V78.0002ZM135.795 78.0002H133.744V79.0002H135.795V78.0002ZM129.641 78.0002H127.59V79.0002H129.641V78.0002ZM123.487 78.0002H121.436V79.0002H123.487V78.0002ZM117.333 78.0002H115.282V79.0002H117.333V78.0002ZM111.179 78.0002H109.128V79.0002H111.179V78.0002ZM105.026 78.0002H104V79.0002H105.026V78.0002Z" fill="#7094F0"/>
<path opacity="0.7" d="M233 118C233 117.724 232.776 117.5 232.5 117.5C232.224 117.5 232 117.724 232 118H233ZM232 218C232 218.276 232.224 218.5 232.5 218.5C232.776 218.5 233 218.276 233 218H232ZM233 217.02C233 216.744 232.776 216.52 232.5 216.52C232.224 216.52 232 216.744 232 217.02H233ZM232 213.098C232 213.374 232.224 213.598 232.5 213.598C232.776 213.598 233 213.374 233 213.098H232ZM233 211.137C233 210.861 232.776 210.637 232.5 210.637C232.224 210.637 232 210.861 232 211.137H233ZM232 207.216C232 207.492 232.224 207.716 232.5 207.716C232.776 207.716 233 207.492 233 207.216H232ZM233 205.255C233 204.979 232.776 204.755 232.5 204.755C232.224 204.755 232 204.979 232 205.255H233ZM232 201.334C232 201.61 232.224 201.834 232.5 201.834C232.776 201.834 233 201.61 233 201.334H232ZM233 199.373C233 199.097 232.776 198.873 232.5 198.873C232.224 198.873 232 199.097 232 199.373H233ZM232 195.451C232 195.727 232.224 195.951 232.5 195.951C232.776 195.951 233 195.727 233 195.451H232ZM233 193.49C233 193.214 232.776 192.99 232.5 192.99C232.224 192.99 232 193.214 232 193.49H233ZM232 189.569C232 189.845 232.224 190.069 232.5 190.069C232.776 190.069 233 189.845 233 189.569H232ZM233 187.608C233 187.332 232.776 187.108 232.5 187.108C232.224 187.108 232 187.332 232 187.608H233ZM232 183.687C232 183.963 232.224 184.187 232.5 184.187C232.776 184.187 233 183.963 233 183.687H232ZM233 181.726C233 181.45 232.776 181.226 232.5 181.226C232.224 181.226 232 181.45 232 181.726H233ZM232 177.804C232 178.08 232.224 178.304 232.5 178.304C232.776 178.304 233 178.08 233 177.804H232ZM233 175.843C233 175.567 232.776 175.343 232.5 175.343C232.224 175.343 232 175.567 232 175.843H233ZM232 171.922C232 172.198 232.224 172.422 232.5 172.422C232.776 172.422 233 172.198 233 171.922H232ZM233 169.961C233 169.685 232.776 169.461 232.5 169.461C232.224 169.461 232 169.685 232 169.961H233ZM232 166.039C232 166.316 232.224 166.539 232.5 166.539C232.776 166.539 233 166.316 233 166.039H232ZM233 164.079C233 163.803 232.776 163.579 232.5 163.579C232.224 163.579 232 163.803 232 164.079H233ZM232 160.157C232 160.433 232.224 160.657 232.5 160.657C232.776 160.657 233 160.433 233 160.157H232ZM233 158.196C233 157.92 232.776 157.696 232.5 157.696C232.224 157.696 232 157.92 232 158.196H233ZM232 154.275C232 154.551 232.224 154.775 232.5 154.775C232.776 154.775 233 154.551 233 154.275H232ZM233 152.314C233 152.038 232.776 151.814 232.5 151.814C232.224 151.814 232 152.038 232 152.314H233ZM232 148.392C232 148.669 232.224 148.892 232.5 148.892C232.776 148.892 233 148.669 233 148.392H232ZM233 146.432C233 146.155 232.776 145.932 232.5 145.932C232.224 145.932 232 146.155 232 146.432H233ZM232 142.51C232 142.786 232.224 143.01 232.5 143.01C232.776 143.01 233 142.786 233 142.51H232ZM233 140.549C233 140.273 232.776 140.049 232.5 140.049C232.224 140.049 232 140.273 232 140.549H233ZM232 136.628C232 136.904 232.224 137.128 232.5 137.128C232.776 137.128 233 136.904 233 136.628H232ZM233 134.667C233 134.391 232.776 134.167 232.5 134.167C232.224 134.167 232 134.391 232 134.667H233ZM232 130.745C232 131.021 232.224 131.245 232.5 131.245C232.776 131.245 233 131.021 233 130.745H232ZM233 128.785C233 128.508 232.776 128.285 232.5 128.285C232.224 128.285 232 128.508 232 128.785H233ZM232 124.863C232 125.139 232.224 125.363 232.5 125.363C232.776 125.363 233 125.139 233 124.863H232ZM233 122.902C233 122.626 232.776 122.402 232.5 122.402C232.224 122.402 232 122.626 232 122.902H233ZM232 118.981C232 119.257 232.224 119.481 232.5 119.481C232.776 119.481 233 119.257 233 118.981H232ZM233 218V217.02H232V218H233ZM233 213.098V211.137H232V213.098H233ZM233 207.216V205.255H232V207.216H233ZM233 201.334V199.373H232V201.334H233ZM233 195.451V193.49H232V195.451H233ZM233 189.569V187.608H232V189.569H233ZM233 183.687V181.726H232V183.687H233ZM233 177.804V175.843H232V177.804H233ZM233 171.922V169.961H232V171.922H233ZM233 166.039V164.079H232V166.039H233ZM233 160.157V158.196H232V160.157H233ZM233 154.275V152.314H232V154.275H233ZM233 148.392V146.432H232V148.392H233ZM233 142.51V140.549H232V142.51H233ZM233 136.628V134.667H232V136.628H233ZM233 130.745V128.785H232V130.745H233ZM233 124.863V122.902H232V124.863H233ZM233 118.981V118H232V118.981H233Z" fill="#7094F0"/>
<path opacity="0.7" d="M103 290C103 289.724 102.776 289.5 102.5 289.5C102.224 289.5 102 289.724 102 290H103ZM102 514C102 514.276 102.224 514.5 102.5 514.5C102.776 514.5 103 514.276 103 514H102ZM103 512.991C103 512.715 102.776 512.491 102.5 512.491C102.224 512.491 102 512.715 102 512.991H103ZM102 508.955C102 509.231 102.224 509.455 102.5 509.455C102.776 509.455 103 509.231 103 508.955H102ZM103 506.937C103 506.661 102.776 506.437 102.5 506.437C102.224 506.437 102 506.661 102 506.937H103ZM102 502.901C102 503.177 102.224 503.401 102.5 503.401C102.776 503.401 103 503.177 103 502.901H102ZM103 500.883C103 500.607 102.776 500.383 102.5 500.383C102.224 500.383 102 500.607 102 500.883H103ZM102 496.847C102 497.123 102.224 497.347 102.5 497.347C102.776 497.347 103 497.123 103 496.847H102ZM103 494.829C103 494.553 102.776 494.329 102.5 494.329C102.224 494.329 102 494.553 102 494.829H103ZM102 490.793C102 491.069 102.224 491.293 102.5 491.293C102.776 491.293 103 491.069 103 490.793H102ZM103 488.775C103 488.499 102.776 488.275 102.5 488.275C102.224 488.275 102 488.499 102 488.775H103ZM102 484.739C102 485.015 102.224 485.239 102.5 485.239C102.776 485.239 103 485.015 103 484.739H102ZM103 482.721C103 482.445 102.776 482.221 102.5 482.221C102.224 482.221 102 482.445 102 482.721H103ZM102 478.685C102 478.961 102.224 479.185 102.5 479.185C102.776 479.185 103 478.961 103 478.685H102ZM103 476.667C103 476.391 102.776 476.167 102.5 476.167C102.224 476.167 102 476.391 102 476.667H103ZM102 472.631C102 472.907 102.224 473.131 102.5 473.131C102.776 473.131 103 472.907 103 472.631H102ZM103 470.613C103 470.337 102.776 470.113 102.5 470.113C102.224 470.113 102 470.337 102 470.613H103ZM102 466.577C102 466.853 102.224 467.077 102.5 467.077C102.776 467.077 103 466.853 103 466.577H102ZM103 464.559C103 464.283 102.776 464.059 102.5 464.059C102.224 464.059 102 464.283 102 464.559H103ZM102 460.523C102 460.799 102.224 461.023 102.5 461.023C102.776 461.023 103 460.799 103 460.523H102ZM103 458.505C103 458.229 102.776 458.005 102.5 458.005C102.224 458.005 102 458.229 102 458.505H103ZM102 454.469C102 454.745 102.224 454.969 102.5 454.969C102.776 454.969 103 454.745 103 454.469H102ZM103 452.451C103 452.175 102.776 451.951 102.5 451.951C102.224 451.951 102 452.175 102 452.451H103ZM102 448.415C102 448.691 102.224 448.915 102.5 448.915C102.776 448.915 103 448.691 103 448.415H102ZM103 446.397C103 446.12 102.776 445.897 102.5 445.897C102.224 445.897 102 446.12 102 446.397H103ZM102 442.361C102 442.637 102.224 442.861 102.5 442.861C102.776 442.861 103 442.637 103 442.361H102ZM103 440.343C103 440.066 102.776 439.843 102.5 439.843C102.224 439.843 102 440.066 102 440.343H103ZM102 436.307C102 436.583 102.224 436.807 102.5 436.807C102.776 436.807 103 436.583 103 436.307H102ZM103 434.289C103 434.012 102.776 433.789 102.5 433.789C102.224 433.789 102 434.012 102 434.289H103ZM102 430.252C102 430.529 102.224 430.752 102.5 430.752C102.776 430.752 103 430.529 103 430.252H102ZM103 428.234C103 427.958 102.776 427.734 102.5 427.734C102.224 427.734 102 427.958 102 428.234H103ZM102 424.198C102 424.475 102.224 424.698 102.5 424.698C102.776 424.698 103 424.475 103 424.198H102ZM103 422.18C103 421.904 102.776 421.68 102.5 421.68C102.224 421.68 102 421.904 102 422.18H103ZM102 418.144C102 418.421 102.224 418.644 102.5 418.644C102.776 418.644 103 418.421 103 418.144H102ZM103 416.126C103 415.85 102.776 415.626 102.5 415.626C102.224 415.626 102 415.85 102 416.126H103ZM102 412.09C102 412.366 102.224 412.59 102.5 412.59C102.776 412.59 103 412.366 103 412.09H102ZM103 410.072C103 409.796 102.776 409.572 102.5 409.572C102.224 409.572 102 409.796 102 410.072H103ZM102 406.036C102 406.312 102.224 406.536 102.5 406.536C102.776 406.536 103 406.312 103 406.036H102ZM103 404.018C103 403.742 102.776 403.518 102.5 403.518C102.224 403.518 102 403.742 102 404.018H103ZM102 399.982C102 400.258 102.224 400.482 102.5 400.482C102.776 400.482 103 400.258 103 399.982H102ZM103 397.964C103 397.688 102.776 397.464 102.5 397.464C102.224 397.464 102 397.688 102 397.964H103ZM102 393.928C102 394.204 102.224 394.428 102.5 394.428C102.776 394.428 103 394.204 103 393.928H102ZM103 391.91C103 391.634 102.776 391.41 102.5 391.41C102.224 391.41 102 391.634 102 391.91H103ZM102 387.874C102 388.15 102.224 388.374 102.5 388.374C102.776 388.374 103 388.15 103 387.874H102ZM103 385.856C103 385.58 102.776 385.356 102.5 385.356C102.224 385.356 102 385.58 102 385.856H103ZM102 381.82C102 382.096 102.224 382.32 102.5 382.32C102.776 382.32 103 382.096 103 381.82H102ZM103 379.802C103 379.526 102.776 379.302 102.5 379.302C102.224 379.302 102 379.526 102 379.802H103ZM102 375.766C102 376.042 102.224 376.266 102.5 376.266C102.776 376.266 103 376.042 103 375.766H102ZM103 373.748C103 373.472 102.776 373.248 102.5 373.248C102.224 373.248 102 373.472 102 373.748H103ZM102 369.712C102 369.988 102.224 370.212 102.5 370.212C102.776 370.212 103 369.988 103 369.712H102ZM103 367.694C103 367.418 102.776 367.194 102.5 367.194C102.224 367.194 102 367.418 102 367.694H103ZM102 363.658C102 363.934 102.224 364.158 102.5 364.158C102.776 364.158 103 363.934 103 363.658H102ZM103 361.64C103 361.364 102.776 361.14 102.5 361.14C102.224 361.14 102 361.364 102 361.64H103ZM102 357.604C102 357.88 102.224 358.104 102.5 358.104C102.776 358.104 103 357.88 103 357.604H102ZM103 355.586C103 355.31 102.776 355.086 102.5 355.086C102.224 355.086 102 355.31 102 355.586H103ZM102 351.55C102 351.826 102.224 352.05 102.5 352.05C102.776 352.05 103 351.826 103 351.55H102ZM103 349.532C103 349.256 102.776 349.032 102.5 349.032C102.224 349.032 102 349.256 102 349.532H103ZM102 345.496C102 345.772 102.224 345.996 102.5 345.996C102.776 345.996 103 345.772 103 345.496H102ZM103 343.478C103 343.202 102.776 342.978 102.5 342.978C102.224 342.978 102 343.202 102 343.478H103ZM102 339.442C102 339.718 102.224 339.942 102.5 339.942C102.776 339.942 103 339.718 103 339.442H102ZM103 337.424C103 337.147 102.776 336.924 102.5 336.924C102.224 336.924 102 337.147 102 337.424H103ZM102 333.388C102 333.664 102.224 333.888 102.5 333.888C102.776 333.888 103 333.664 103 333.388H102ZM103 331.37C103 331.093 102.776 330.87 102.5 330.87C102.224 330.87 102 331.093 102 331.37H103ZM102 327.334C102 327.61 102.224 327.834 102.5 327.834C102.776 327.834 103 327.61 103 327.334H102ZM103 325.315C103 325.039 102.776 324.815 102.5 324.815C102.224 324.815 102 325.039 102 325.315H103ZM102 321.279C102 321.556 102.224 321.779 102.5 321.779C102.776 321.779 103 321.556 103 321.279H102ZM103 319.261C103 318.985 102.776 318.761 102.5 318.761C102.224 318.761 102 318.985 102 319.261H103ZM102 315.225C102 315.502 102.224 315.725 102.5 315.725C102.776 315.725 103 315.502 103 315.225H102ZM103 313.207C103 312.931 102.776 312.707 102.5 312.707C102.224 312.707 102 312.931 102 313.207H103ZM102 309.171C102 309.447 102.224 309.671 102.5 309.671C102.776 309.671 103 309.447 103 309.171H102ZM103 307.153C103 306.877 102.776 306.653 102.5 306.653C102.224 306.653 102 306.877 102 307.153H103ZM102 303.117C102 303.393 102.224 303.617 102.5 303.617C102.776 303.617 103 303.393 103 303.117H102ZM103 301.099C103 300.823 102.776 300.599 102.5 300.599C102.224 300.599 102 300.823 102 301.099H103ZM102 297.063C102 297.339 102.224 297.563 102.5 297.563C102.776 297.563 103 297.339 103 297.063H102ZM103 295.045C103 294.769 102.776 294.545 102.5 294.545C102.224 294.545 102 294.769 102 295.045H103ZM102 291.009C102 291.285 102.224 291.509 102.5 291.509C102.776 291.509 103 291.285 103 291.009H102ZM103 514V512.991H102V514H103ZM103 508.955V506.937H102V508.955H103ZM103 502.901V500.883H102V502.901H103ZM103 496.847V494.829H102V496.847H103ZM103 490.793V488.775H102V490.793H103ZM103 484.739V482.721H102V484.739H103ZM103 478.685V476.667H102V478.685H103ZM103 472.631V470.613H102V472.631H103ZM103 466.577V464.559H102V466.577H103ZM103 460.523V458.505H102V460.523H103ZM103 454.469V452.451H102V454.469H103ZM103 448.415V446.397H102V448.415H103ZM103 442.361V440.343H102V442.361H103ZM103 436.307V434.289H102V436.307H103ZM103 430.252V428.234H102V430.252H103ZM103 424.198V422.18H102V424.198H103ZM103 418.144V416.126H102V418.144H103ZM103 412.09V410.072H102V412.09H103ZM103 406.036V404.018H102V406.036H103ZM103 399.982V397.964H102V399.982H103ZM103 393.928V391.91H102V393.928H103ZM103 387.874V385.856H102V387.874H103ZM103 381.82V379.802H102V381.82H103ZM103 375.766V373.748H102V375.766H103ZM103 369.712V367.694H102V369.712H103ZM103 363.658V361.64H102V363.658H103ZM103 357.604V355.586H102V357.604H103ZM103 351.55V349.532H102V351.55H103ZM103 345.496V343.478H102V345.496H103ZM103 339.442V337.424H102V339.442H103ZM103 333.388V331.37H102V333.388H103ZM103 327.334V325.315H102V327.334H103ZM103 321.279V319.261H102V321.279H103ZM103 315.225V313.207H102V315.225H103ZM103 309.171V307.153H102V309.171H103ZM103 303.117V301.099H102V303.117H103ZM103 297.063V295.045H102V297.063H103ZM103 291.009V290H102V291.009H103Z" fill="#7094F0"/>
<path opacity="0.4" d="M223.5 78.0002H294C297.866 78.0002 301 81.1343 301 85.0002V538C301 541.866 297.866 545 294 545H156" stroke="#353535" stroke-linecap="round" stroke-dasharray="2 4"/>
<path opacity="0.7" d="M45.2414 78.0002H33C29.134 78.0002 26 81.1343 26 85.0002V538C26 541.866 29.134 545 33 545H62" stroke="#7094F0" stroke-linecap="round" stroke-dasharray="2 4"/>
<path opacity="0.7" d="M133 266.5C132.724 266.5 132.5 266.724 132.5 267C132.5 267.276 132.724 267.5 133 267.5V266.5ZM213 267.5C213.276 267.5 213.5 267.276 213.5 267C213.5 266.724 213.276 266.5 213 266.5V267.5ZM211.974 266.5C211.698 266.5 211.474 266.724 211.474 267C211.474 267.276 211.698 267.5 211.974 267.5V266.5ZM207.872 267.5C208.148 267.5 208.372 267.276 208.372 267C208.372 266.724 208.148 266.5 207.872 266.5V267.5ZM205.821 266.5C205.544 266.5 205.321 266.724 205.321 267C205.321 267.276 205.544 267.5 205.821 267.5V266.5ZM201.718 267.5C201.994 267.5 202.218 267.276 202.218 267C202.218 266.724 201.994 266.5 201.718 266.5V267.5ZM199.667 266.5C199.391 266.5 199.167 266.724 199.167 267C199.167 267.276 199.391 267.5 199.667 267.5V266.5ZM195.564 267.5C195.84 267.5 196.064 267.276 196.064 267C196.064 266.724 195.84 266.5 195.564 266.5V267.5ZM193.513 266.5C193.237 266.5 193.013 266.724 193.013 267C193.013 267.276 193.237 267.5 193.513 267.5V266.5ZM189.41 267.5C189.686 267.5 189.91 267.276 189.91 267C189.91 266.724 189.686 266.5 189.41 266.5V267.5ZM187.359 266.5C187.083 266.5 186.859 266.724 186.859 267C186.859 267.276 187.083 267.5 187.359 267.5V266.5ZM183.256 267.5C183.533 267.5 183.756 267.276 183.756 267C183.756 266.724 183.533 266.5 183.256 266.5V267.5ZM181.205 266.5C180.929 266.5 180.705 266.724 180.705 267C180.705 267.276 180.929 267.5 181.205 267.5V266.5ZM177.103 267.5C177.379 267.5 177.603 267.276 177.603 267C177.603 266.724 177.379 266.5 177.103 266.5V267.5ZM175.051 266.5C174.775 266.5 174.551 266.724 174.551 267C174.551 267.276 174.775 267.5 175.051 267.5V266.5ZM170.949 267.5C171.225 267.5 171.449 267.276 171.449 267C171.449 266.724 171.225 266.5 170.949 266.5V267.5ZM168.897 266.5C168.621 266.5 168.397 266.724 168.397 267C168.397 267.276 168.621 267.5 168.897 267.5V266.5ZM164.795 267.5C165.071 267.5 165.295 267.276 165.295 267C165.295 266.724 165.071 266.5 164.795 266.5V267.5ZM162.744 266.5C162.467 266.5 162.244 266.724 162.244 267C162.244 267.276 162.467 267.5 162.744 267.5V266.5ZM158.641 267.5C158.917 267.5 159.141 267.276 159.141 267C159.141 266.724 158.917 266.5 158.641 266.5V267.5ZM156.59 266.5C156.314 266.5 156.09 266.724 156.09 267C156.09 267.276 156.314 267.5 156.59 267.5V266.5ZM152.487 267.5C152.763 267.5 152.987 267.276 152.987 267C152.987 266.724 152.763 266.5 152.487 266.5V267.5ZM150.436 266.5C150.16 266.5 149.936 266.724 149.936 267C149.936 267.276 150.16 267.5 150.436 267.5V266.5ZM146.333 267.5C146.609 267.5 146.833 267.276 146.833 267C146.833 266.724 146.609 266.5 146.333 266.5V267.5ZM144.282 266.5C144.006 266.5 143.782 266.724 143.782 267C143.782 267.276 144.006 267.5 144.282 267.5V266.5ZM140.179 267.5C140.456 267.5 140.679 267.276 140.679 267C140.679 266.724 140.456 266.5 140.179 266.5V267.5ZM138.128 266.5C137.852 266.5 137.628 266.724 137.628 267C137.628 267.276 137.852 267.5 138.128 267.5V266.5ZM134.026 267.5C134.302 267.5 134.526 267.276 134.526 267C134.526 266.724 134.302 266.5 134.026 266.5V267.5ZM213 266.5H211.974V267.5H213V266.5ZM207.872 266.5H205.821V267.5H207.872V266.5ZM201.718 266.5H199.667V267.5H201.718V266.5ZM195.564 266.5H193.513V267.5H195.564V266.5ZM189.41 266.5H187.359V267.5H189.41V266.5ZM183.256 266.5H181.205V267.5H183.256V266.5ZM177.103 266.5H175.051V267.5H177.103V266.5ZM170.949 266.5H168.897V267.5H170.949V266.5ZM164.795 266.5H162.744V267.5H164.795V266.5ZM158.641 266.5H156.59V267.5H158.641V266.5ZM152.487 266.5H150.436V267.5H152.487V266.5ZM146.333 266.5H144.282V267.5H146.333V266.5ZM140.179 266.5H138.128V267.5H140.179V266.5ZM134.026 266.5H133V267.5H134.026V266.5Z" fill="#7094F0"/>
<path opacity="0.7" d="M122 404.502C121.724 404.502 121.5 404.726 121.5 405.002C121.5 405.278 121.724 405.502 122 405.502V404.502ZM202 405.502C202.276 405.502 202.5 405.278 202.5 405.002C202.5 404.726 202.276 404.502 202 404.502V405.502ZM200.974 404.502C200.698 404.502 200.474 404.726 200.474 405.002C200.474 405.278 200.698 405.502 200.974 405.502V404.502ZM196.872 405.502C197.148 405.502 197.372 405.278 197.372 405.002C197.372 404.726 197.148 404.502 196.872 404.502V405.502ZM194.821 404.502C194.544 404.502 194.321 404.726 194.321 405.002C194.321 405.278 194.544 405.502 194.821 405.502V404.502ZM190.718 405.502C190.994 405.502 191.218 405.278 191.218 405.002C191.218 404.726 190.994 404.502 190.718 404.502V405.502ZM188.667 404.502C188.391 404.502 188.167 404.726 188.167 405.002C188.167 405.278 188.391 405.502 188.667 405.502V404.502ZM184.564 405.502C184.84 405.502 185.064 405.278 185.064 405.002C185.064 404.726 184.84 404.502 184.564 404.502V405.502ZM182.513 404.502C182.237 404.502 182.013 404.726 182.013 405.002C182.013 405.278 182.237 405.502 182.513 405.502V404.502ZM178.41 405.502C178.686 405.502 178.91 405.278 178.91 405.002C178.91 404.726 178.686 404.502 178.41 404.502V405.502ZM176.359 404.502C176.083 404.502 175.859 404.726 175.859 405.002C175.859 405.278 176.083 405.502 176.359 405.502V404.502ZM172.256 405.502C172.533 405.502 172.756 405.278 172.756 405.002C172.756 404.726 172.533 404.502 172.256 404.502V405.502ZM170.205 404.502C169.929 404.502 169.705 404.726 169.705 405.002C169.705 405.278 169.929 405.502 170.205 405.502V404.502ZM166.103 405.502C166.379 405.502 166.603 405.278 166.603 405.002C166.603 404.726 166.379 404.502 166.103 404.502V405.502ZM164.051 404.502C163.775 404.502 163.551 404.726 163.551 405.002C163.551 405.278 163.775 405.502 164.051 405.502V404.502ZM159.949 405.502C160.225 405.502 160.449 405.278 160.449 405.002C160.449 404.726 160.225 404.502 159.949 404.502V405.502ZM157.897 404.502C157.621 404.502 157.397 404.726 157.397 405.002C157.397 405.278 157.621 405.502 157.897 405.502V404.502ZM153.795 405.502C154.071 405.502 154.295 405.278 154.295 405.002C154.295 404.726 154.071 404.502 153.795 404.502V405.502ZM151.744 404.502C151.467 404.502 151.244 404.726 151.244 405.002C151.244 405.278 151.467 405.502 151.744 405.502V404.502ZM147.641 405.502C147.917 405.502 148.141 405.278 148.141 405.002C148.141 404.726 147.917 404.502 147.641 404.502V405.502ZM145.59 404.502C145.314 404.502 145.09 404.726 145.09 405.002C145.09 405.278 145.314 405.502 145.59 405.502V404.502ZM141.487 405.502C141.763 405.502 141.987 405.278 141.987 405.002C141.987 404.726 141.763 404.502 141.487 404.502V405.502ZM139.436 404.502C139.16 404.502 138.936 404.726 138.936 405.002C138.936 405.278 139.16 405.502 139.436 405.502V404.502ZM135.333 405.502C135.609 405.502 135.833 405.278 135.833 405.002C135.833 404.726 135.609 404.502 135.333 404.502V405.502ZM133.282 404.502C133.006 404.502 132.782 404.726 132.782 405.002C132.782 405.278 133.006 405.502 133.282 405.502V404.502ZM129.179 405.502C129.456 405.502 129.679 405.278 129.679 405.002C129.679 404.726 129.456 404.502 129.179 404.502V405.502ZM127.128 404.502C126.852 404.502 126.628 404.726 126.628 405.002C126.628 405.278 126.852 405.502 127.128 405.502V404.502ZM123.026 405.502C123.302 405.502 123.526 405.278 123.526 405.002C123.526 404.726 123.302 404.502 123.026 404.502V405.502ZM202 404.502H200.974V405.502H202V404.502ZM196.872 404.502H194.821V405.502H196.872V404.502ZM190.718 404.502H188.667V405.502H190.718V404.502ZM184.564 404.502H182.513V405.502H184.564V404.502ZM178.41 404.502H176.359V405.502H178.41V404.502ZM172.256 404.502H170.205V405.502H172.256V404.502ZM166.103 404.502H164.051V405.502H166.103V404.502ZM159.949 404.502H157.897V405.502H159.949V404.502ZM153.795 404.502H151.744V405.502H153.795V404.502ZM147.641 404.502H145.59V405.502H147.641V404.502ZM141.487 404.502H139.436V405.502H141.487V404.502ZM135.333 404.502H133.282V405.502H135.333V404.502ZM129.179 404.502H127.128V405.502H129.179V404.502ZM123.026 404.502H122V405.502H123.026V404.502Z" fill="#7094F0"/>
<path d="M149.062 266.053L152.616 263.024C153.269 262.468 154.273 262.937 154.265 263.795L154.206 269.936C154.197 270.795 153.182 271.245 152.541 270.673L149.046 267.561C148.593 267.157 148.601 266.446 149.062 266.053Z" fill="#98B3F5"/>
<path d="M231.509 219.884L228.441 216.364C227.877 215.717 228.335 214.708 229.193 214.707L235.335 214.698C236.193 214.696 236.654 215.707 236.09 216.354L233.017 219.884C232.618 220.341 231.907 220.341 231.509 219.884Z" fill="#98B3F5"/>
<path d="M185.461 79.1116L181.992 82.2373C181.355 82.8113 180.339 82.3698 180.323 81.5124L180.212 75.3718C180.197 74.5131 181.199 74.0357 181.856 74.5889L185.436 77.6038C185.9 77.9947 185.912 78.7054 185.461 79.1116Z" fill="#98B3F5"/>
<path d="M48.4611 78.6108L44.9923 81.7365C44.3552 82.3106 43.3385 81.8691 43.323 81.0117L43.2122 74.8711C43.1967 74.0124 44.1994 73.5349 44.8562 74.0882L48.4358 77.1031C48.8999 77.4939 48.9118 78.2047 48.4611 78.6108Z" fill="#98B3F5"/>
<path d="M101.808 358.45L98.7404 354.93C98.177 354.283 98.6352 353.274 99.4927 353.273L105.634 353.263C106.493 353.262 106.954 354.272 106.39 354.92L103.316 358.449C102.918 358.907 102.207 358.907 101.808 358.45Z" fill="#98B3F5"/>
<path d="M185.461 405.428L181.992 408.553C181.355 409.127 180.339 408.686 180.323 407.829L180.212 401.688C180.197 400.829 181.199 400.352 181.856 400.905L185.436 403.92C185.9 404.311 185.912 405.022 185.461 405.428Z" fill="#98B3F5"/>
<path d="M101.808 497.45L98.7404 493.93C98.177 493.283 98.6352 492.274 99.4927 492.273L105.634 492.263C106.493 492.262 106.954 493.272 106.39 493.92L103.316 497.449C102.918 497.907 102.207 497.907 101.808 497.45Z" fill="#98B3F5"/>
<path d="M149.864 543.823L153.375 540.745C154.02 540.18 155.03 540.635 155.034 541.493L155.061 547.634C155.065 548.493 154.056 548.957 153.406 548.395L149.868 545.331C149.41 544.934 149.407 544.223 149.864 543.823Z" fill="#A9A9AD"/>
<rect x="20" y="142" width="24" height="145" fill="#F6F7FE"/>
<rect x="290" y="393.002" width="21" height="105" fill="#F6F7FE"/>
<circle cx="95" cy="79" r="45" fill="white"/>
<circle cx="95" cy="79" r="44" stroke="#7094F0" stroke-opacity="0.4" stroke-width="2"/>
<path d="M82.6929 57.9129C82.7381 57.3964 83.1706 57 83.6891 57H89.3109C89.8294 57 90.2619 57.3964 90.3071 57.9129L92.5 83H82.6825C81.5091 83 80.5879 81.9947 80.69 80.8258L82.6929 57.9129Z" fill="#283895"/>
<path d="M87.5 72.1176C87.5 71.4231 87.8603 70.7783 88.4518 70.4143L98.2139 64.4069C99.2133 63.7918 100.5 64.5109 100.5 65.6843V81C100.5 82.1046 99.6046 83 98.5 83H87.5V72.1176Z" fill="#435CE7"/>
<path d="M96.5 72.1176C96.5 71.4231 96.8603 70.7783 97.4518 70.4143L107.214 64.4069C108.213 63.7918 109.5 64.5109 109.5 65.6843V81C109.5 82.1046 108.605 83 107.5 83H98.5C97.3954 83 96.5 82.1046 96.5 81V72.1176Z" fill="#435CE7"/>
<path d="M92.5 75L92.5 72" stroke="white" stroke-width="2" stroke-linecap="round" stroke-linejoin="round"/>
<path d="M96.5 75L96.5 72" stroke="white" stroke-width="2" stroke-linecap="round" stroke-linejoin="round"/>
<mask id="mask0_1848_32935" style="mask-type:alpha" maskUnits="userSpaceOnUse" x="80" y="57" width="13" height="26">
<path d="M82.6929 57.9129C82.7381 57.3964 83.1706 57 83.6891 57H89.3109C89.8294 57 90.2619 57.3964 90.3071 57.9129L92.5 83H82.6825C81.5091 83 80.5879 81.9947 80.69 80.8258L82.6929 57.9129Z" fill="#283895"/>
</mask>
<g mask="url(#mask0_1848_32935)">
<rect x="78.5" y="62" width="10" height="4" rx="2" fill="#435CE7"/>
</g>
<path d="M83.4849 97.02C80.9649 96.612 79.6089 94.956 79.6089 93.384V92.592H77.9169V93.384C77.9169 94.92 76.5489 96.612 74.0529 97.02L74.7009 98.328C76.6329 97.98 78.0369 96.936 78.7569 95.58C79.4769 96.948 80.8929 97.98 82.8369 98.328L83.4849 97.02ZM79.5609 100.452V97.98H77.9769V100.452H73.8129V101.724H83.8209V100.452H79.5609ZM92.6659 91.968V96.204H91.7659V92.148H90.2899V99.3C88.6579 98.448 88.1059 96.612 88.1059 94.68V94.38H89.7619V93.096H84.7579V94.38H86.5699V94.68C86.5699 96.804 86.0419 98.76 84.3979 99.72L85.3459 100.92C86.3779 100.308 87.0259 99.264 87.3859 97.992C87.7819 99.096 88.4179 99.984 89.4019 100.512L90.2899 99.324V102.528H91.7659V97.5H92.6659V103.02H94.1659V91.968H92.6659ZM103.059 101.652H98.883V100.656H103.059V101.652ZM103.059 99.456H98.883V98.4H97.311V102.9H104.631V98.4H103.059V99.456ZM98.439 96.396C97.635 96.396 97.047 95.904 97.047 95.076C97.047 94.248 97.635 93.756 98.439 93.756C99.255 93.756 99.843 94.248 99.843 95.076C99.843 95.904 99.255 96.396 98.439 96.396ZM103.047 91.98V94.416H101.283C100.971 93.24 99.843 92.436 98.439 92.436C96.783 92.436 95.535 93.54 95.535 95.076C95.535 96.612 96.783 97.716 98.439 97.716C99.867 97.716 100.995 96.9 101.295 95.7H103.047V97.92H104.631V91.98H103.047ZM109.612 95.1H111.304V93.828H109.612V92.34H108.112V93.828H106.384V95.1H108.112V95.328C108.112 97.032 107.548 98.844 105.976 99.768L106.864 100.956C107.86 100.38 108.508 99.396 108.88 98.244C109.276 99.3 109.912 100.176 110.884 100.692L111.736 99.516C110.176 98.688 109.612 96.996 109.612 95.328V95.1ZM111.928 96.156H110.668V97.44H111.928V102.528H113.404V92.16H111.928V96.156ZM114.16 91.968V103.02H115.66V91.968H114.16Z" fill="#222222"/>
<path d="M277 267C277 291.853 256.853 312 232 312C207.147 312 187 291.853 187 267C187 242.147 207.147 222 232 222C256.853 222 277 242.147 277 267Z" fill="white"/>
<path d="M276 267C276 291.301 256.301 311 232 311C207.699 311 188 291.301 188 267C188 242.699 207.699 223 232 223C256.301 223 276 242.699 276 267Z" stroke="#7094F0" stroke-opacity="0.4" stroke-width="2"/>
<circle cx="232" cy="249" r="6" fill="#435CE7"/>
<path d="M221 268C221 261.925 225.925 257 232 257C238.075 257 243 261.925 243 268V270C243 271.105 242.105 272 241 272H223C221.895 272 221 271.105 221 270V268Z" fill="#283895"/>
<path d="M229.529 265.367L231.034 259.783C231.3 258.796 232.7 258.796 232.966 259.783L234.471 265.367C234.552 265.67 234.487 265.993 234.295 266.24L232.79 268.181C232.39 268.697 231.61 268.697 231.21 268.181L229.705 266.24C229.513 265.993 229.448 265.67 229.529 265.367Z" fill="white"/>
<path d="M230.206 287.276C230.65 284.924 230.65 283.364 230.65 281.984V280.928H222.622V282.188H229.066C229.066 283.472 229.042 285.008 228.622 287.096L230.206 287.276ZM226.726 288.428V284.624H225.142V288.428H221.614V289.7H231.61V288.428H226.726ZM232.799 280.748V282.008H235.535C235.319 283.496 234.335 284.612 232.271 285.368L233.003 286.52C235.883 285.404 237.179 283.544 237.179 280.748H232.799ZM234.155 288.164H240.227V291.044H241.811V286.892H234.155V288.164ZM240.311 279.98V282.536H239.363V280.172H237.887V286.4H239.363V283.808H240.311V286.436H241.811V279.98H240.311Z" fill="#222222"/>
<rect x="187" y="34" width="90" height="84" rx="14" fill="white"/>
<rect x="188" y="35" width="88" height="82" rx="13" stroke="#7094F0" stroke-opacity="0.4" stroke-width="2"/>
<path d="M261.464 59.8763C260.649 55.0611 246.694 53.556 230.283 56.5186C223.394 57.765 217.168 59.597 212.322 61.6675C213.064 61.6879 213.622 61.865 213.957 62.2055C214.22 62.4779 214.351 62.8525 214.351 63.3157V63.7924H212.742V63.3701C212.742 63.0228 212.538 62.8049 212.177 62.8049C211.875 62.8049 211.691 62.9479 211.625 63.2271C211.612 63.3088 211.606 63.4382 211.632 63.5608C211.803 64.2896 214.193 64.7391 214.456 66.0944C214.489 66.2647 214.535 66.6393 214.463 67.1705C214.311 68.2602 213.392 68.6757 212.223 68.6757C210.588 68.6757 209.925 67.872 209.925 66.7619V66.2442H211.652V66.8981C211.652 67.2658 211.914 67.4702 212.263 67.4702C212.611 67.4702 212.788 67.334 212.86 67.0479C212.886 66.9185 212.906 66.7278 212.847 66.578C212.525 65.7471 210.292 65.3589 210.023 64.0172C209.964 63.7175 209.957 63.4587 210.01 63.1386C210.036 62.9615 210.089 62.8117 210.154 62.6755C204.763 65.2635 201.617 68.1308 202.037 70.6099C202.852 75.4319 216.807 76.9302 233.218 73.9676C240.429 72.6599 246.917 70.7121 251.849 68.5326C251.777 68.5326 251.711 68.5394 251.639 68.5394C250.516 68.5394 249.511 68.1036 249.406 66.9117C249.387 66.6937 249.387 66.6052 249.38 66.4826V63.7447C249.38 63.6289 249.393 63.4246 249.406 63.3157C249.538 62.1646 250.418 61.6947 251.633 61.6947C252.572 61.6947 253.728 61.974 253.852 63.3225C253.872 63.4859 253.866 63.6698 253.866 63.7311V63.9899H252.243V63.6085C252.243 63.6085 252.243 63.4587 252.224 63.3633C252.197 63.2271 252.086 62.907 251.62 62.907C251.153 62.907 251.048 63.2271 251.015 63.3633C251.002 63.4382 250.989 63.5472 250.989 63.6698V66.6461C250.989 66.7482 250.989 66.83 251.002 66.8913C251.002 66.9321 251.094 67.3476 251.626 67.3476C252.158 67.3476 252.237 66.9389 252.243 66.8913C252.257 66.8095 252.263 66.7142 252.257 66.6461V65.7266H251.613V64.7323H253.879V66.4962C253.879 66.6188 253.879 66.7006 253.859 66.9253C253.833 67.2386 253.734 67.5042 253.59 67.729C258.824 65.1545 261.871 62.3281 261.464 59.8899M218.908 68.4169L218.088 62.6142H218.055L217.214 68.4169H215.48L216.643 61.865H219.48L220.642 68.4169H218.915H218.908ZM227.255 68.4169L227.216 62.7231H227.19L226.172 68.4169H224.543L223.532 62.7231H223.506L223.466 68.4169H221.851L221.988 61.865H224.583L225.338 66.7346H225.377L226.132 61.865H228.726L228.864 68.4169H227.262H227.255ZM234.854 67.1433C234.676 68.4169 233.481 68.6348 232.634 68.6348C231.228 68.6348 230.355 68.0082 230.355 66.7414V66.2238H232.063V66.8708C232.063 67.2182 232.306 67.4361 232.667 67.4361C232.995 67.4361 233.186 67.2999 233.258 67.0207C233.284 66.8913 233.304 66.7006 233.245 66.5575C232.929 65.7471 230.716 65.3452 230.447 64.024C230.388 63.7243 230.381 63.4723 230.434 63.1454C230.618 61.9467 231.728 61.7015 232.621 61.7015C233.422 61.7015 234 61.8786 234.348 62.2464C234.604 62.5188 234.735 62.8866 234.735 63.3497V63.8265H233.146V63.411C233.146 63.0568 232.929 62.8457 232.588 62.8457C232.279 62.8457 232.095 62.9887 232.036 63.268C232.03 63.3225 232.01 63.4587 232.043 63.5949C232.214 64.3236 234.584 64.7663 234.84 66.1012C234.873 66.2715 234.919 66.6393 234.84 67.1705M240.744 66.578C240.744 66.7006 240.738 66.9457 240.731 67.007C240.633 68.0831 239.891 68.6348 238.525 68.6348C237.159 68.6348 236.41 68.0831 236.311 67.007C236.311 66.9457 236.298 66.6938 236.298 66.578V61.8854H237.927V66.721C237.927 66.83 237.927 66.9117 237.94 66.9662C237.96 67.0751 238.065 67.4225 238.518 67.4225C238.971 67.4225 239.083 67.0683 239.103 66.9662C239.109 66.9117 239.116 66.83 239.116 66.721V61.8854H240.744V66.578ZM247.771 68.376H245.506L243.982 63.1863H243.956L244.041 68.376H242.458V61.865H244.823L246.234 66.8504H246.267L246.189 61.865H247.778V68.3487L247.771 68.376Z" fill="#144393"/>
<g clip-path="url(#clip0_1848_32935)">
<path d="M243.164 95.1632H244.602C246.721 95.1632 247.498 94.4185 247.498 91.8269V89.5694C247.498 87.312 246.753 86.4794 245.169 86.4794H243.17V95.169L243.164 95.1632ZM241.649 85.2363H245.315C246.836 85.2363 247.924 85.7464 248.522 86.9367C249 87.8807 249.051 90.1089 249.051 90.4607C249.051 92.8412 248.821 94.2192 248.325 94.9579C247.682 95.9137 246.473 96.3945 244.386 96.3945H241.649V85.2422" fill="#144393"/>
<path d="M234.815 93.1345V93.457C234.815 94.9756 235.839 95.4506 236.813 95.4506C238.016 95.4506 238.945 94.9756 238.945 93.6446C238.945 91.1761 233.586 91.4517 233.586 88.1037C233.586 86.1277 235.088 85.0781 237.093 85.0781C239.269 85.0781 240.491 86.069 240.402 88.3382H238.811C238.824 87.1186 238.417 86.3153 236.978 86.3153C236.068 86.3153 235.146 86.7433 235.146 87.9512C235.146 90.4021 240.498 90.0503 240.498 93.586C240.498 95.9314 238.767 96.6878 236.8 96.6878C233.275 96.7171 233.275 94.2017 233.306 93.1404H234.815V93.1345Z" fill="#144393"/>
<path d="M219.535 85.0137V91.0003H221.132V88.5962H222.481V87.3708H221.132V85.0137H219.535Z" fill="#144393"/>
<path d="M219.592 95.1925V92.6888H215.157V95.1925H219.592ZM213.629 96.3887V91.4927H221.132V96.3887H213.623" fill="#144393"/>
<path d="M231.938 85.0137V91.0003H230.373V88.5962H228.336V87.3766H230.341V85.0137H231.938Z" fill="#144393"/>
<path d="M230.596 93.926C230.596 93.0699 229.437 92.3781 228.012 92.3781C226.586 92.3781 225.428 93.0699 225.428 93.926C225.428 94.7821 226.586 95.474 228.012 95.474C229.437 95.474 230.596 94.7821 230.596 93.926ZM228.012 96.6994C225.708 96.6994 223.85 95.4622 223.85 93.926C223.85 92.3898 225.708 91.1526 228.012 91.1526C230.316 91.1526 232.167 92.3956 232.167 93.926C232.167 95.4564 230.309 96.6994 228.012 96.6994Z" fill="#144393"/>
<path d="M215.768 85.2305C215.768 85.2305 215.558 88.4671 218.402 89.8098L217.581 90.8535C217.581 90.8535 215.5 89.587 215.023 88.1974C214.552 89.587 212.465 90.8535 212.465 90.8535L211.644 89.8098C214.495 88.473 214.285 85.2305 214.285 85.2305H215.761H215.768Z" fill="#144393"/>
<path d="M225.638 88.1974C225.167 89.587 223.258 90.748 223.258 90.748L222.437 89.7043C225.11 88.473 224.9 85.2363 224.9 85.2363H226.376C226.376 85.2363 226.166 88.473 228.839 89.7043L228.018 90.748C228.018 90.748 226.109 89.587 225.638 88.1974Z" fill="#144393"/>
<path d="M251.972 85.2422H250.4V96.3593H251.972V85.2422Z" fill="#144393"/>
</g>
<circle cx="103" cy="265" r="45" fill="white"/>
<circle cx="103" cy="265" r="44" stroke="#7094F0" stroke-opacity="0.4" stroke-width="2"/>
<path d="M109.5 254C112.538 254 115 251.538 115 248.5C115 245.463 112.538 243 109.5 243C106.462 243 104 245.463 104 248.5C104 251.538 106.462 254 109.5 254Z" fill="#425BE6"/>
<path d="M109.505 256C104.808 256 101 259.856 101 264.611V268C101 269.105 101.895 270 103 270H116C117.105 270 118 269.105 118 268V264.611C118.009 259.856 114.201 256 109.505 256Z" fill="#425BE6"/>
<path d="M96.5 254C99.5376 254 102 251.538 102 248.5C102 245.463 99.5376 243 96.5 243C93.4624 243 91 245.463 91 248.5C91 251.538 93.4624 254 96.5 254Z" fill="#283895"/>
<path d="M96.5045 256C91.808 256 88 259.856 88 264.611V268C88 269.105 88.8954 270 90 270H103C104.105 270 105 269.105 105 268V264.611C105.009 259.856 101.201 256 96.5045 256Z" fill="#283895"/>
<path d="M97.3794 283.02C94.8594 282.612 93.5034 280.956 93.5034 279.384V278.592H91.8114V279.384C91.8114 280.92 90.4434 282.612 87.9474 283.02L88.5954 284.328C90.5274 283.98 91.9314 282.936 92.6514 281.58C93.3714 282.948 94.7874 283.98 96.7314 284.328L97.3794 283.02ZM93.4554 286.452V283.98H91.8714V286.452H87.7074V287.724H97.7154V286.452H93.4554ZM106.068 277.968V289.056H107.652V277.968H106.068ZM99.0365 278.856V286.476H104.484V278.856H102.912V281.532H100.608V278.856H99.0365ZM100.608 282.768H102.912V285.216H100.608V282.768ZM113.342 280.344H115.538V279.036H109.466V280.344H111.758V280.956C111.758 282.78 110.858 284.856 109.046 285.696L109.934 286.956C111.194 286.356 112.082 285.144 112.574 283.704C113.066 285.012 113.93 286.116 115.154 286.68L116.03 285.432C114.218 284.592 113.342 282.636 113.342 280.956V280.344ZM119.546 282.192H117.938V277.98H116.354V289.032H117.938V283.5H119.546V282.192Z" fill="#222222"/>
<circle cx="103" cy="405" r="45" fill="white"/>
<circle cx="103" cy="405" r="44" stroke="#7094F0" stroke-opacity="0.4" stroke-width="2"/>
<path d="M117 388H97C92.5817 388 89 391.582 89 396V404H117V388Z" fill="#435CE7"/>
<path d="M97 384C97 382.895 97.8954 382 99 382H115C116.105 382 117 382.895 117 384V398H97V384Z" fill="#283895"/>
<path d="M112 388L109 388" stroke="white" stroke-width="2" stroke-linecap="round" stroke-linejoin="round"/>
<path d="M112 393L109 393" stroke="white" stroke-width="2" stroke-linecap="round" stroke-linejoin="round"/>
<circle cx="97.5" cy="404.5" r="3.5" fill="#283895"/>
<circle cx="110.5" cy="404.5" r="3.5" fill="#283895"/>
<path d="M88.7249 419.204H86.2049V418.016H84.6209V419.204H82.0889V420.44H88.7249V419.204ZM84.1769 422.96C84.1769 422.384 84.6809 422.072 85.4129 422.072C86.1569 422.072 86.6489 422.384 86.6489 422.96C86.6489 423.524 86.1569 423.836 85.4129 423.836C84.6809 423.836 84.1769 423.524 84.1769 422.96ZM86.2049 424.952C87.3809 424.724 88.1489 423.98 88.1489 422.96C88.1489 421.712 87.0209 420.872 85.4129 420.872C83.7929 420.872 82.6649 421.712 82.6649 422.96C82.6649 423.98 83.4329 424.724 84.6209 424.952V425.888C83.6369 425.912 82.7009 425.912 81.8729 425.912L82.0649 427.196C84.0209 427.196 86.5769 427.184 88.9889 426.74L88.8689 425.6C88.0049 425.72 87.1049 425.78 86.2049 425.828V424.952ZM89.4449 417.98V429.032H91.0289V417.98H89.4449ZM102.238 421.904C99.7299 421.556 98.4579 420.116 98.4579 418.832V418.304H96.7659V418.832C96.7659 420.128 95.5059 421.556 92.9859 421.904L93.5859 423.176C95.5179 422.888 96.9099 421.988 97.6179 420.8C98.3259 421.988 99.7059 422.888 101.638 423.176L102.238 421.904ZM102.598 423.992H92.6139V425.276H96.7779V429.044H98.3619V425.276H102.598V423.992ZM111.059 427.652H106.883V426.656H111.059V427.652ZM111.059 425.456H106.883V424.4H105.311V428.9H112.631V424.4H111.059V425.456ZM106.439 422.396C105.635 422.396 105.047 421.904 105.047 421.076C105.047 420.248 105.635 419.756 106.439 419.756C107.255 419.756 107.843 420.248 107.843 421.076C107.843 421.904 107.255 422.396 106.439 422.396ZM111.047 417.98V420.416H109.283C108.971 419.24 107.843 418.436 106.439 418.436C104.783 418.436 103.535 419.54 103.535 421.076C103.535 422.612 104.783 423.716 106.439 423.716C107.867 423.716 108.995 422.9 109.295 421.7H111.047V423.92H112.631V417.98H111.047ZM117.612 421.1H119.304V419.828H117.612V418.34H116.112V419.828H114.384V421.1H116.112V421.328C116.112 423.032 115.548 424.844 113.976 425.768L114.864 426.956C115.86 426.38 116.508 425.396 116.88 424.244C117.276 425.3 117.912 426.176 118.884 426.692L119.736 425.516C118.176 424.688 117.612 422.996 117.612 421.328V421.1ZM119.928 422.156H118.668V423.44H119.928V428.528H121.404V418.16H119.928V422.156ZM122.16 417.968V429.02H123.66V417.968H122.16Z" fill="#222222"/>
<circle cx="232" cy="405" r="45" fill="white"/>
<circle cx="232" cy="405" r="44" stroke="#7094F0" stroke-opacity="0.4" stroke-width="2"/>
<path d="M235.962 387.22C230.92 384.309 224.686 385.665 222.039 390.249C220.646 392.662 220.524 395.488 221.457 398.049" stroke="#435CE7" stroke-width="3.5" stroke-linecap="square"/>
<path d="M228.038 404.78C233.08 407.691 239.314 406.335 241.961 401.751C243.33 399.38 243.471 396.609 242.59 394.084" stroke="#283895" stroke-width="3.5" stroke-linecap="square"/>
<path d="M223.035 402.274C222.755 401.652 223.167 400.939 223.845 400.87L231.105 400.13C231.917 400.047 232.481 400.919 232.073 401.625L227.802 409.022C227.394 409.728 226.358 409.675 226.024 408.931L223.035 402.274Z" fill="#283895"/>
<path d="M240.965 389.726C241.245 390.348 240.833 391.061 240.155 391.13L232.895 391.87C232.083 391.953 231.519 391.081 231.927 390.375L236.198 382.978C236.606 382.272 237.642 382.325 237.976 383.069L240.965 389.726Z" fill="#435CE7"/>
<path d="M202.184 428V419.6H205.82C206.572 419.6 207.22 419.724 207.764 419.972C208.308 420.212 208.728 420.56 209.024 421.016C209.32 421.472 209.468 422.016 209.468 422.648C209.468 423.272 209.32 423.812 209.024 424.268C208.728 424.716 208.308 425.06 207.764 425.3C207.22 425.54 206.572 425.66 205.82 425.66H203.264L204.128 424.808V428H202.184ZM207.523 428L205.424 424.952H207.5L209.624 428H207.523ZM204.128 425.024L203.264 424.112H205.712C206.312 424.112 206.76 423.984 207.056 423.728C207.352 423.464 207.5 423.104 207.5 422.648C207.5 422.184 207.352 421.824 207.056 421.568C206.76 421.312 206.312 421.184 205.712 421.184H203.264L204.128 420.26V425.024ZM213.83 428.096C213.094 428.096 212.446 427.952 211.886 427.664C211.334 427.376 210.906 426.984 210.602 426.488C210.298 425.984 210.146 425.412 210.146 424.772C210.146 424.124 210.294 423.552 210.59 423.056C210.894 422.552 211.306 422.16 211.826 421.88C212.346 421.592 212.934 421.448 213.59 421.448C214.222 421.448 214.79 421.584 215.294 421.856C215.806 422.12 216.21 422.504 216.506 423.008C216.802 423.504 216.95 424.1 216.95 424.796C216.95 424.868 216.946 424.952 216.938 425.048C216.93 425.136 216.922 425.22 216.914 425.3H211.67V424.208H215.93L215.21 424.532C215.21 424.196 215.142 423.904 215.006 423.656C214.87 423.408 214.682 423.216 214.442 423.08C214.202 422.936 213.922 422.864 213.602 422.864C213.282 422.864 212.998 422.936 212.75 423.08C212.51 423.216 212.322 423.412 212.186 423.668C212.05 423.916 211.982 424.212 211.982 424.556V424.844C211.982 425.196 212.058 425.508 212.21 425.78C212.37 426.044 212.59 426.248 212.87 426.392C213.158 426.528 213.494 426.596 213.878 426.596C214.222 426.596 214.522 426.544 214.778 426.44C215.042 426.336 215.282 426.18 215.498 425.972L216.494 427.052C216.198 427.388 215.826 427.648 215.378 427.832C214.93 428.008 214.414 428.096 213.83 428.096ZM220.67 428.096C220.134 428.096 219.654 427.992 219.23 427.784C218.814 427.576 218.49 427.26 218.258 426.836C218.026 426.404 217.91 425.856 217.91 425.192V421.544H219.782V424.916C219.782 425.452 219.894 425.848 220.118 426.104C220.35 426.352 220.674 426.476 221.09 426.476C221.378 426.476 221.634 426.416 221.858 426.296C222.082 426.168 222.258 425.976 222.386 425.72C222.514 425.456 222.578 425.128 222.578 424.736V421.544H224.45V428H222.674V426.224L222.998 426.74C222.782 427.188 222.462 427.528 222.038 427.76C221.622 427.984 221.166 428.096 220.67 428.096ZM228.106 428.096C227.554 428.096 227.022 428.032 226.51 427.904C226.006 427.768 225.606 427.6 225.31 427.4L225.934 426.056C226.23 426.24 226.578 426.392 226.978 426.512C227.386 426.624 227.786 426.68 228.178 426.68C228.61 426.68 228.914 426.628 229.09 426.524C229.274 426.42 229.366 426.276 229.366 426.092C229.366 425.94 229.294 425.828 229.15 425.756C229.014 425.676 228.83 425.616 228.598 425.576C228.366 425.536 228.11 425.496 227.83 425.456C227.558 425.416 227.282 425.364 227.002 425.3C226.722 425.228 226.466 425.124 226.234 424.988C226.002 424.852 225.814 424.668 225.67 424.436C225.534 424.204 225.466 423.904 225.466 423.536C225.466 423.128 225.582 422.768 225.814 422.456C226.054 422.144 226.398 421.9 226.846 421.724C227.294 421.54 227.83 421.448 228.454 421.448C228.894 421.448 229.342 421.496 229.798 421.592C230.254 421.688 230.634 421.828 230.938 422.012L230.314 423.344C230.002 423.16 229.686 423.036 229.366 422.972C229.054 422.9 228.75 422.864 228.454 422.864C228.038 422.864 227.734 422.92 227.542 423.032C227.35 423.144 227.254 423.288 227.254 423.464C227.254 423.624 227.322 423.744 227.458 423.824C227.602 423.904 227.79 423.968 228.022 424.016C228.254 424.064 228.506 424.108 228.778 424.148C229.058 424.18 229.338 424.232 229.618 424.304C229.898 424.376 230.15 424.48 230.374 424.616C230.606 424.744 230.794 424.924 230.938 425.156C231.082 425.38 231.154 425.676 231.154 426.044C231.154 426.444 231.034 426.8 230.794 427.112C230.554 427.416 230.206 427.656 229.75 427.832C229.302 428.008 228.754 428.096 228.106 428.096ZM235.263 428.096C234.527 428.096 233.879 427.952 233.319 427.664C232.767 427.376 232.339 426.984 232.035 426.488C231.731 425.984 231.579 425.412 231.579 424.772C231.579 424.124 231.727 423.552 232.023 423.056C232.327 422.552 232.739 422.16 233.259 421.88C233.779 421.592 234.367 421.448 235.023 421.448C235.655 421.448 236.223 421.584 236.727 421.856C237.239 422.12 237.643 422.504 237.939 423.008C238.235 423.504 238.383 424.1 238.383 424.796C238.383 424.868 238.379 424.952 238.371 425.048C238.363 425.136 238.355 425.22 238.347 425.3H233.103V424.208H237.363L236.643 424.532C236.643 424.196 236.575 423.904 236.439 423.656C236.303 423.408 236.115 423.216 235.875 423.08C235.635 422.936 235.355 422.864 235.035 422.864C234.715 422.864 234.431 422.936 234.183 423.08C233.943 423.216 233.755 423.412 233.619 423.668C233.483 423.916 233.415 424.212 233.415 424.556V424.844C233.415 425.196 233.491 425.508 233.643 425.78C233.803 426.044 234.023 426.248 234.303 426.392C234.591 426.528 234.927 426.596 235.311 426.596C235.655 426.596 235.955 426.544 236.211 426.44C236.475 426.336 236.715 426.18 236.931 425.972L237.927 427.052C237.631 427.388 237.259 427.648 236.811 427.832C236.363 428.008 235.847 428.096 235.263 428.096ZM249.168 427.64H244.992V426.656H249.168V427.64ZM249.168 425.456H244.992V424.4H243.42V428.9H250.74V424.4H249.168V425.456ZM244.548 422.396C243.744 422.396 243.156 421.904 243.156 421.076C243.156 420.248 243.744 419.756 244.548 419.756C245.364 419.756 245.952 420.248 245.952 421.076C245.952 421.904 245.364 422.396 244.548 422.396ZM249.156 417.98V420.416H247.392C247.08 419.24 245.952 418.436 244.548 418.436C242.892 418.436 241.644 419.54 241.644 421.076C241.644 422.612 242.892 423.716 244.548 423.716C245.976 423.716 247.104 422.9 247.404 421.7H249.156V423.92H250.74V417.98H249.156ZM255.721 421.1H257.413V419.828H255.721V418.34H254.221V419.828H252.493V421.1H254.221V421.328C254.221 423.032 253.657 424.844 252.085 425.768L252.973 426.956C253.969 426.38 254.617 425.396 254.989 424.244C255.385 425.3 256.021 426.176 256.993 426.692L257.845 425.516C256.285 424.688 255.721 422.996 255.721 421.328V421.1ZM258.037 422.156H256.777V423.44H258.037V428.528H259.513V418.16H258.037V422.156ZM260.269 417.968V429.02H261.769V417.968H260.269Z" fill="#222222"/>
<circle cx="103" cy="545" r="45" fill="white"/>
<circle cx="103" cy="545" r="44" stroke="#7094F0" stroke-opacity="0.4" stroke-width="2"/>
<path d="M107.847 539.296L107.847 532.97L116.339 532.997C116.736 532.998 116.973 533.44 116.755 533.771L113.119 539.296L107.847 539.296Z" fill="#435CE7"/>
<path d="M107.777 528.029L113.025 524.827L117.336 532.206L110.755 532.206C110.585 532.206 110.427 532.12 110.335 531.978L107.777 528.029Z" fill="#283895"/>
<path d="M103.868 536.592C103.704 536.405 103.702 536.126 103.863 535.937L107.414 531.773C107.715 531.421 108.291 531.631 108.295 532.094L108.358 540.368C108.361 540.831 107.788 541.049 107.482 540.702L103.868 536.592Z" fill="#435CE7"/>
<path d="M91.7057 528.075L97.1599 531.279L92.8354 538.587C92.6331 538.929 92.132 538.91 91.9565 538.554L89.0358 532.62L91.7057 528.075Z" fill="#435CE7"/>
<path d="M101.472 533.783L101.575 539.93L94.7709 539.913C93.9988 539.911 93.5201 539.072 93.9112 538.406L96.5 534L101.472 533.783Z" fill="#283895"/>
<path d="M96.053 526.014C96.297 525.967 96.5386 526.106 96.6199 526.341L98.4113 531.512C98.5629 531.95 98.0898 532.341 97.6889 532.109L90.5233 527.972C90.1223 527.741 90.2242 527.135 90.6788 527.048L96.053 526.014Z" fill="#435CE7"/>
<path d="M109.942 519.332L104.67 522.83L99.9977 515.739C99.779 515.407 100.016 514.966 100.413 514.964L107.027 514.94L109.942 519.332Z" fill="#435CE7"/>
<path d="M100.304 525.274L94.7344 522.672L97.7323 516.564C98.0725 515.871 99.0364 515.809 99.4633 516.452L102.289 520.71L100.304 525.274Z" fill="#283895"/>
<path d="M109.888 524.143C109.824 524.383 109.592 524.539 109.346 524.509L103.912 523.852C103.453 523.797 103.309 523.2 103.693 522.941L110.552 518.315C110.936 518.056 111.435 518.412 111.315 518.859L109.888 524.143Z" fill="#435CE7"/>
<path d="M74.2929 559V550.6H77.9289C78.6809 550.6 79.3289 550.724 79.8729 550.972C80.4169 551.212 80.8369 551.56 81.1329 552.016C81.4289 552.472 81.5769 553.016 81.5769 553.648C81.5769 554.272 81.4289 554.812 81.1329 555.268C80.8369 555.716 80.4169 556.06 79.8729 556.3C79.3289 556.54 78.6809 556.66 77.9289 556.66H75.3729L76.2369 555.808V559H74.2929ZM79.6329 559L77.5329 555.952H79.6089L81.7329 559H79.6329ZM76.2369 556.024L75.3729 555.112H77.8209C78.4209 555.112 78.8689 554.984 79.1649 554.728C79.4609 554.464 79.6089 554.104 79.6089 553.648C79.6089 553.184 79.4609 552.824 79.1649 552.568C78.8689 552.312 78.4209 552.184 77.8209 552.184H75.3729L76.2369 551.26V556.024ZM85.9391 559.096C85.2031 559.096 84.5551 558.952 83.9951 558.664C83.4431 558.376 83.0151 557.984 82.7111 557.488C82.4071 556.984 82.2551 556.412 82.2551 555.772C82.2551 555.124 82.4031 554.552 82.6991 554.056C83.0031 553.552 83.4151 553.16 83.9351 552.88C84.4551 552.592 85.0431 552.448 85.6991 552.448C86.3311 552.448 86.8991 552.584 87.4031 552.856C87.9151 553.12 88.3191 553.504 88.6151 554.008C88.9111 554.504 89.0591 555.1 89.0591 555.796C89.0591 555.868 89.0551 555.952 89.0471 556.048C89.0391 556.136 89.0311 556.22 89.0231 556.3H83.7791V555.208H88.0391L87.3191 555.532C87.3191 555.196 87.2511 554.904 87.1151 554.656C86.9791 554.408 86.7911 554.216 86.5511 554.08C86.3111 553.936 86.0311 553.864 85.7111 553.864C85.3911 553.864 85.1071 553.936 84.8591 554.08C84.6191 554.216 84.4311 554.412 84.2951 554.668C84.1591 554.916 84.0911 555.212 84.0911 555.556V555.844C84.0911 556.196 84.1671 556.508 84.3191 556.78C84.4791 557.044 84.6991 557.248 84.9791 557.392C85.2671 557.528 85.6031 557.596 85.9871 557.596C86.3311 557.596 86.6311 557.544 86.8871 557.44C87.1511 557.336 87.3911 557.18 87.6071 556.972L88.6031 558.052C88.3071 558.388 87.9351 558.648 87.4871 558.832C87.0391 559.008 86.5231 559.096 85.9391 559.096ZM93.1754 559.096C92.4794 559.096 91.8594 558.956 91.3154 558.676C90.7714 558.388 90.3434 557.992 90.0314 557.488C89.7274 556.984 89.5754 556.412 89.5754 555.772C89.5754 555.124 89.7274 554.552 90.0314 554.056C90.3434 553.552 90.7714 553.16 91.3154 552.88C91.8594 552.592 92.4794 552.448 93.1754 552.448C93.8554 552.448 94.4474 552.592 94.9514 552.88C95.4554 553.16 95.8274 553.564 96.0674 554.092L94.6154 554.872C94.4474 554.568 94.2354 554.344 93.9794 554.2C93.7314 554.056 93.4594 553.984 93.1634 553.984C92.8434 553.984 92.5554 554.056 92.2994 554.2C92.0434 554.344 91.8394 554.548 91.6874 554.812C91.5434 555.076 91.4714 555.396 91.4714 555.772C91.4714 556.148 91.5434 556.468 91.6874 556.732C91.8394 556.996 92.0434 557.2 92.2994 557.344C92.5554 557.488 92.8434 557.56 93.1634 557.56C93.4594 557.56 93.7314 557.492 93.9794 557.356C94.2354 557.212 94.4474 556.984 94.6154 556.672L96.0674 557.464C95.8274 557.984 95.4554 558.388 94.9514 558.676C94.4474 558.956 93.8554 559.096 93.1754 559.096ZM97.6175 561.424C97.2815 561.424 96.9495 561.372 96.6215 561.268C96.2935 561.164 96.0255 561.02 95.8175 560.836L96.5015 559.504C96.6455 559.632 96.8095 559.732 96.9935 559.804C97.1855 559.876 97.3735 559.912 97.5575 559.912C97.8215 559.912 98.0295 559.848 98.1815 559.72C98.3415 559.6 98.4855 559.396 98.6135 559.108L98.9495 558.316L99.0935 558.112L101.41 552.544H103.21L100.294 559.396C100.086 559.916 99.8455 560.324 99.5735 560.62C99.3095 560.916 99.0135 561.124 98.6855 561.244C98.3655 561.364 98.0095 561.424 97.6175 561.424ZM98.7215 559.252L95.8415 552.544H97.7735L100.006 557.944L98.7215 559.252ZM106.668 559.096C105.972 559.096 105.352 558.956 104.808 558.676C104.264 558.388 103.836 557.992 103.524 557.488C103.22 556.984 103.068 556.412 103.068 555.772C103.068 555.124 103.22 554.552 103.524 554.056C103.836 553.552 104.264 553.16 104.808 552.88C105.352 552.592 105.972 552.448 106.668 552.448C107.348 552.448 107.94 552.592 108.444 552.88C108.948 553.16 109.32 553.564 109.56 554.092L108.108 554.872C107.94 554.568 107.728 554.344 107.472 554.2C107.224 554.056 106.952 553.984 106.656 553.984C106.336 553.984 106.048 554.056 105.792 554.2C105.536 554.344 105.332 554.548 105.18 554.812C105.036 555.076 104.964 555.396 104.964 555.772C104.964 556.148 105.036 556.468 105.18 556.732C105.332 556.996 105.536 557.2 105.792 557.344C106.048 557.488 106.336 557.56 106.656 557.56C106.952 557.56 107.224 557.492 107.472 557.356C107.728 557.212 107.94 556.984 108.108 556.672L109.56 557.464C109.32 557.984 108.948 558.388 108.444 558.676C107.94 558.956 107.348 559.096 106.668 559.096ZM110.352 559V550.096H112.224V559H110.352ZM113.712 559V552.544H115.584V559H113.712ZM114.648 551.644C114.304 551.644 114.024 551.544 113.808 551.344C113.592 551.144 113.484 550.896 113.484 550.6C113.484 550.304 113.592 550.056 113.808 549.856C114.024 549.656 114.304 549.556 114.648 549.556C114.992 549.556 115.272 549.652 115.488 549.844C115.704 550.028 115.812 550.268 115.812 550.564C115.812 550.876 115.704 551.136 115.488 551.344C115.28 551.544 115 551.644 114.648 551.644ZM120.995 552.448C121.507 552.448 121.963 552.552 122.363 552.76C122.771 552.96 123.091 553.272 123.323 553.696C123.555 554.112 123.671 554.648 123.671 555.304V559H121.799V555.592C121.799 555.072 121.683 554.688 121.451 554.44C121.227 554.192 120.907 554.068 120.491 554.068C120.195 554.068 119.927 554.132 119.687 554.26C119.455 554.38 119.271 554.568 119.135 554.824C119.007 555.08 118.943 555.408 118.943 555.808V559H117.071V552.544H118.859V554.332L118.523 553.792C118.755 553.36 119.087 553.028 119.519 552.796C119.951 552.564 120.443 552.448 120.995 552.448ZM128.201 561.424C127.593 561.424 127.005 561.348 126.437 561.196C125.877 561.052 125.409 560.832 125.033 560.536L125.777 559.192C126.049 559.416 126.393 559.592 126.809 559.72C127.233 559.856 127.649 559.924 128.057 559.924C128.721 559.924 129.201 559.776 129.497 559.48C129.801 559.184 129.953 558.744 129.953 558.16V557.188L130.073 555.568L130.049 553.936V552.544H131.825V557.92C131.825 559.12 131.513 560.004 130.889 560.572C130.265 561.14 129.369 561.424 128.201 561.424ZM127.913 558.688C127.313 558.688 126.769 558.56 126.281 558.304C125.801 558.04 125.413 557.676 125.117 557.212C124.829 556.74 124.685 556.192 124.685 555.568C124.685 554.936 124.829 554.388 125.117 553.924C125.413 553.452 125.801 553.088 126.281 552.832C126.769 552.576 127.313 552.448 127.913 552.448C128.457 552.448 128.937 552.56 129.353 552.784C129.769 553 130.093 553.34 130.325 553.804C130.557 554.26 130.673 554.848 130.673 555.568C130.673 556.28 130.557 556.868 130.325 557.332C130.093 557.788 129.769 558.128 129.353 558.352C128.937 558.576 128.457 558.688 127.913 558.688ZM128.285 557.152C128.613 557.152 128.905 557.088 129.161 556.96C129.417 556.824 129.617 556.636 129.761 556.396C129.905 556.156 129.977 555.88 129.977 555.568C129.977 555.248 129.905 554.972 129.761 554.74C129.617 554.5 129.417 554.316 129.161 554.188C128.905 554.052 128.613 553.984 128.285 553.984C127.957 553.984 127.665 554.052 127.409 554.188C127.153 554.316 126.949 554.5 126.797 554.74C126.653 554.972 126.581 555.248 126.581 555.568C126.581 555.88 126.653 556.156 126.797 556.396C126.949 556.636 127.153 556.824 127.409 556.96C127.665 557.088 127.957 557.152 128.285 557.152ZM100.27 574.64H96.0939V573.656H100.27V574.64ZM100.27 572.456H96.0939V571.4H94.5219V575.9H101.842V571.4H100.27V572.456ZM95.6499 569.396C94.8459 569.396 94.2579 568.904 94.2579 568.076C94.2579 567.248 94.8459 566.756 95.6499 566.756C96.4659 566.756 97.0539 567.248 97.0539 568.076C97.0539 568.904 96.4659 569.396 95.6499 569.396ZM100.258 564.98V567.416H98.4939C98.1819 566.24 97.0539 565.436 95.6499 565.436C93.9939 565.436 92.7459 566.54 92.7459 568.076C92.7459 569.612 93.9939 570.716 95.6499 570.716C97.0779 570.716 98.2059 569.9 98.5059 568.7H100.258V570.92H101.842V564.98H100.258ZM106.823 568.1H108.515V566.828H106.823V565.34H105.323V566.828H103.595V568.1H105.323V568.328C105.323 570.032 104.759 571.844 103.187 572.768L104.075 573.956C105.071 573.38 105.719 572.396 106.091 571.244C106.487 572.3 107.123 573.176 108.095 573.692L108.947 572.516C107.387 571.688 106.823 569.996 106.823 568.328V568.1ZM109.139 569.156H107.879V570.44H109.139V575.528H110.615V565.16H109.139V569.156ZM111.371 564.968V576.02H112.871V564.968H111.371Z" fill="#222222"/>
<path d="M146.8 60.292C146.8 59.284 147.568 58.588 148.648 58.588C149.716 58.588 150.496 59.284 150.496 60.292C150.496 61.3 149.716 62.008 148.648 62.008C147.568 62.008 146.8 61.3 146.8 60.292ZM151.456 60.292C151.456 58.804 150.268 57.772 148.648 57.772C147.016 57.772 145.84 58.804 145.84 60.292C145.84 61.792 147.016 62.836 148.648 62.836C150.268 62.836 151.456 61.792 151.456 60.292ZM150.568 67.096C148.972 67.096 148 66.628 148 65.86C148 65.08 148.972 64.624 150.568 64.624C152.152 64.624 153.124 65.08 153.124 65.86C153.124 66.628 152.152 67.096 150.568 67.096ZM150.568 63.844C148.384 63.844 147.016 64.576 147.016 65.86C147.016 67.132 148.384 67.876 150.568 67.876C152.74 67.876 154.108 67.132 154.108 65.86C154.108 64.576 152.74 63.844 150.568 63.844ZM155.56 59.536V58.732H153.988V57.136H153.004V63.508H153.988V61.84H155.56V61.024H153.988V59.536H155.56ZM157.469 64.864H164.021V67.924H165.005V64.06H157.469V64.864ZM164.657 61.66C164.933 60.244 164.933 59.2 164.933 58.372V57.64H157.673V58.444H163.961C163.961 59.26 163.949 60.268 163.673 61.66H156.425V62.452H166.193V61.66H164.657ZM170.394 59.2H172.35V58.396H167.358V59.2H169.446V60.04C169.446 62.224 168.642 64.06 167.106 64.924L167.706 65.668C168.822 65.02 169.578 63.856 169.938 62.392C170.322 63.664 171.066 64.708 172.122 65.296L172.698 64.54C171.174 63.748 170.394 62.008 170.394 60.04V59.2ZM175.446 57.112V61.468H174.03V57.364H173.106V67.36H174.03V62.284H175.446V67.888H176.394V57.112H175.446Z" fill="#666666"/>
<path d="M168.934 47.3847L167.059 44.1025C167.02 44.0351 166.966 43.9776 166.902 43.9345L165.5 43L163.685 42.0926C163.567 42.0333 163.476 41.9293 163.435 41.8035L163.013 40.5385C163.004 40.5129 162.994 40.488 162.981 40.4641L162.435 39.424C162.31 39.1869 162.021 39.09 161.779 39.2042L160.263 39.9186C160.152 39.971 160.064 40.0625 160.016 40.1756L159.283 41.9041C159.256 41.9673 159.217 42.0244 159.167 42.0717L157.226 43.9111C157.164 43.9694 157.119 44.0424 157.093 44.1233L156.526 45.9188C156.509 45.9725 156.483 46.023 156.449 46.0681L155.1 47.8667C155.035 47.9532 155 48.0585 155 48.1667V49.2143C155 49.4904 155.224 49.7143 155.5 49.7143H158.973C159.141 49.7143 159.298 49.7987 159.391 49.9389L159.943 50.7754C160.035 50.9156 160.192 51 160.36 51H164.549C164.682 51 164.81 50.9466 164.904 50.8518L165.459 50.2911C165.553 50.1962 165.681 50.1429 165.815 50.1429H168.5C168.776 50.1429 169 49.919 169 49.6429V47.6328C169 47.5458 168.977 47.4603 168.934 47.3847Z" fill="#666666" stroke="#666666"/>
<path d="M160.5 45.5L160.203 46.941C160.167 47.1121 160.088 47.271 159.972 47.4018L159.162 48.3169C159.056 48.4372 158.98 48.5814 158.941 48.7372L158.5 50.5" stroke="#F6F7FE" stroke-width="0.8" stroke-linecap="round"/>
<path d="M165.5 49L166.2 51" stroke="#F6F7FE" stroke-width="0.8" stroke-linecap="round"/>
<circle cx="160.95" cy="48.95" r="0.45" fill="#F6F7FE"/>
<circle cx="156.15" cy="47.95" r="0.45" fill="#F6F7FE"/>
<circle cx="157.45" cy="46.45" r="0.45" fill="#F6F7FE"/>
<circle cx="159.95" cy="42.95" r="0.45" fill="#F6F7FE"/>
<circle cx="161.95" cy="47.45" r="0.45" fill="#F6F7FE"/>
<circle cx="167.25" cy="48.95" r="0.45" fill="#F6F7FE"/>
<path d="M192.161 164.396H189.905V161.552H192.161V164.396ZM192.161 160.772H189.905V158.144H188.969V165.188H193.085V158.144H192.161V160.772ZM196.793 157.124V161.384H195.341V157.364H194.417V167.36H195.341V162.188H196.793V167.888H197.729V157.124H196.793ZM200.85 161.924H204.378V161.132H200.85V158.912H204.846V158.096H199.866V165.308H200.694C202.746 165.308 204.054 165.248 205.614 164.972L205.506 164.168C204.042 164.432 202.794 164.504 200.85 164.504V161.924ZM207.258 157.112V161.18H205.038V161.996H207.258V167.9H208.242V157.112H207.258ZM211.771 161.972H215.743V158.12H210.751V158.924H214.747V161.168H210.787V165.296H211.675C213.523 165.296 215.155 165.224 217.099 164.9L217.003 164.096C215.119 164.396 213.535 164.48 211.771 164.48V161.972ZM218.011 157.112V167.9H218.995V157.112H218.011ZM144.942 184.167L145.569 183.87C144.612 182.308 144.161 180.449 144.161 178.579C144.161 176.709 144.612 174.861 145.569 173.288L144.942 173.002C143.929 174.641 143.325 176.423 143.325 178.579C143.325 180.746 143.929 182.517 144.942 184.167ZM149.277 174.85H151.07V174.113H146.494V174.85H148.408V175.62C148.408 177.622 147.671 179.305 146.263 180.097L146.813 180.779C147.836 180.185 148.529 179.118 148.859 177.776C149.211 178.942 149.893 179.899 150.861 180.438L151.389 179.745C149.992 179.019 149.277 177.424 149.277 175.62V174.85ZM153.908 172.936V176.929H152.61V173.167H151.763V182.33H152.61V177.677H153.908V182.814H154.777V172.936H153.908ZM162.094 173.695H159.718V172.848H158.816V173.695H156.429V174.344H162.094V173.695ZM157.815 175.95C157.815 175.51 158.376 175.246 159.267 175.246C160.147 175.246 160.708 175.51 160.708 175.95C160.708 176.39 160.147 176.665 159.267 176.665C158.376 176.665 157.815 176.39 157.815 175.95ZM162.391 177.578C161.544 177.699 160.62 177.765 159.718 177.809V177.237C160.851 177.138 161.566 176.676 161.566 175.95C161.566 175.136 160.653 174.652 159.267 174.652C157.859 174.652 156.957 175.136 156.957 175.95C156.957 176.687 157.672 177.149 158.816 177.237V177.842C157.87 177.875 156.957 177.875 156.187 177.875L156.286 178.546C158.013 178.546 160.345 178.535 162.446 178.161L162.391 177.578ZM158.398 181.219H163.876V179.206H157.485V179.844H162.985V180.614H157.518V182.704H164.25V182.055H158.398V181.219ZM163.876 175.466V172.947H162.974V178.777H163.876V176.225H165.328V175.466H163.876ZM170.556 182.11C169.005 182.11 168.092 181.725 168.092 181.054C168.092 180.383 169.005 179.998 170.556 179.998C172.096 179.998 173.02 180.383 173.02 181.054C173.02 181.725 172.096 182.11 170.556 182.11ZM170.556 179.294C168.444 179.294 167.179 179.921 167.179 181.054C167.179 182.187 168.444 182.803 170.556 182.803C172.679 182.803 173.933 182.187 173.933 181.054C173.933 179.921 172.679 179.294 170.556 179.294ZM169.192 176.676C169.599 176.742 170.061 176.786 170.556 176.786C171.062 176.786 171.524 176.742 171.931 176.676V177.831H169.192V176.676ZM168.015 174.96C168.015 174.245 168.983 173.827 170.556 173.827C172.129 173.827 173.097 174.245 173.097 174.96C173.097 175.664 172.129 176.093 170.556 176.093C168.983 176.093 168.015 175.664 168.015 174.96ZM172.822 177.831V176.434C173.581 176.126 174.021 175.62 174.021 174.96C174.021 173.805 172.701 173.123 170.556 173.123C168.422 173.123 167.091 173.805 167.091 174.96C167.091 175.631 167.52 176.126 168.301 176.445V177.831H166.09V178.557H175.022V177.831H172.822ZM186.694 177.765C184.967 177.457 183.086 176.005 183.086 174.366V173.607H182.14V174.366C182.14 176.005 180.27 177.457 178.543 177.765L178.917 178.513C180.435 178.194 181.975 177.171 182.613 175.763C183.251 177.171 184.802 178.194 186.309 178.513L186.694 177.765ZM183.064 180.79V178.392H182.162V180.79H178.18V181.527H187.134V180.79H183.064ZM190.964 174.85H192.757V174.113H188.181V174.85H190.095V175.62C190.095 177.622 189.358 179.305 187.95 180.097L188.5 180.779C189.523 180.185 190.216 179.118 190.546 177.776C190.898 178.942 191.58 179.899 192.548 180.438L193.076 179.745C191.679 179.019 190.964 177.424 190.964 175.62V174.85ZM195.595 172.936V176.929H194.297V173.167H193.45V182.33H194.297V177.677H195.595V182.814H196.464V172.936H195.595ZM202.999 175.521H204.858V174.784H203.01V173.31H202.141V174.784H200.282V175.521H202.141V175.972C202.141 177.589 201.371 179.305 200.04 180.086L200.579 180.768C201.547 180.196 202.24 179.096 202.581 177.842C202.944 179.019 203.637 180.009 204.605 180.548L205.122 179.877C203.802 179.151 202.999 177.545 202.999 175.972V175.521ZM207.674 172.947V176.929H206.376V173.167H205.529V182.33H206.376V177.677H207.674V182.814H208.543V172.947H207.674ZM214.452 182.11C212.901 182.11 211.988 181.725 211.988 181.054C211.988 180.383 212.901 179.998 214.452 179.998C215.992 179.998 216.916 180.383 216.916 181.054C216.916 181.725 215.992 182.11 214.452 182.11ZM214.452 179.294C212.34 179.294 211.075 179.921 211.075 181.054C211.075 182.187 212.34 182.803 214.452 182.803C216.575 182.803 217.829 182.187 217.829 181.054C217.829 179.921 216.575 179.294 214.452 179.294ZM213.088 176.676C213.495 176.742 213.957 176.786 214.452 176.786C214.958 176.786 215.42 176.742 215.827 176.676V177.831H213.088V176.676ZM211.911 174.96C211.911 174.245 212.879 173.827 214.452 173.827C216.025 173.827 216.993 174.245 216.993 174.96C216.993 175.664 216.025 176.093 214.452 176.093C212.879 176.093 211.911 175.664 211.911 174.96ZM216.718 177.831V176.434C217.477 176.126 217.917 175.62 217.917 174.96C217.917 173.805 216.597 173.123 214.452 173.123C212.318 173.123 210.987 173.805 210.987 174.96C210.987 175.631 211.416 176.126 212.197 176.445V177.831H209.986V178.557H218.918V177.831H216.718ZM220.372 184.167C221.395 182.517 222 180.746 222 178.579C222 176.423 221.395 174.641 220.372 173.002L219.756 173.288C220.702 174.861 221.164 176.709 221.164 178.579C221.164 180.449 220.702 182.308 219.756 183.87L220.372 184.167Z" fill="#666666"/>
<rect x="203.5" y="138.5" width="15" height="11" rx="1.5" stroke="#666666"/>
<rect x="-0.5" y="0.5" width="1" height="5" rx="0.5" transform="matrix(-1 0 0 1 219 141)" stroke="#666666"/>
<path d="M206.849 144.34C206.817 144.12 206.86 143.895 206.97 143.702L208.512 141.004C208.69 140.692 209.021 140.5 209.38 140.5H211.614C211.892 140.5 212.157 140.616 212.347 140.82L215.033 143.712C215.205 143.897 215.3 144.14 215.3 144.393V145.484C215.3 145.658 215.255 145.829 215.168 145.981L214.588 146.996C214.41 147.308 214.079 147.5 213.72 147.5H208.167C207.67 147.5 207.248 147.134 207.177 146.641L206.849 144.34Z" fill="#666666"/>
<path d="M207.3 147L209.744 144.594M209.744 144.594L209.327 141.923C209.31 141.811 209.331 141.696 209.387 141.598L210.3 140M209.744 144.594L212 144.389M216.3 144L212 144.389M212 144.389L213.5 141.75" stroke="#F6F7FE" stroke-width="0.6" stroke-linecap="round"/>
<path d="M153.351 246.74C153.351 245.924 154.059 245.372 155.091 245.372C156.099 245.372 156.819 245.924 156.819 246.74C156.819 247.568 156.099 248.108 155.091 248.108C154.059 248.108 153.351 247.568 153.351 246.74ZM158.511 249.608C157.587 249.752 156.591 249.824 155.595 249.884V248.828C156.879 248.672 157.743 247.88 157.743 246.74C157.743 245.48 156.651 244.628 155.091 244.628C153.519 244.628 152.439 245.48 152.439 246.74C152.439 247.892 153.303 248.684 154.611 248.84V249.92C153.615 249.956 152.643 249.968 151.815 249.968L151.947 250.772C153.783 250.772 156.339 250.736 158.583 250.328L158.511 249.608ZM154.347 251.672H153.363V254.636H160.551V253.832H154.347V251.672ZM160.167 247.772V244.136H159.183V252.368H160.167V248.588H161.751V247.772H160.167ZM165.772 246.188H167.692V245.384H162.784V246.188H164.824V247.16C164.824 249.14 163.984 251.096 162.484 251.996L163.084 252.728C164.152 252.056 164.932 250.796 165.304 249.32C165.676 250.688 166.42 251.84 167.464 252.464L168.064 251.744C166.576 250.904 165.772 249.032 165.772 247.16V246.188ZM168.652 247.988H166.876V248.792H168.652V254.324H169.588V244.364H168.652V247.988ZM170.812 244.112V254.876H171.76V244.112H170.812ZM179.598 247.52H176.922V245.264H179.598V247.52ZM175.938 247.52H174.354V248.312H182.166V247.52H180.582V245.264H182.214V244.472H174.318V245.264H175.938V247.52ZM180.99 253.952H175.566V252.164H180.99V253.952ZM183.138 250.124V249.332H173.406V250.124H177.786V251.384H174.606V254.744H181.95V251.384H178.77V250.124H183.138Z" fill="#666666"/>
<rect x="160" y="225.5" width="15" height="11" rx="1.5" stroke="#666666"/>
<rect x="161.5" y="227" width="12" height="8" rx="1.5" fill="#666666"/>
<path d="M164.958 231.157L168.135 228.053C168.294 227.898 168.549 228.078 168.457 228.279L167.706 229.917C167.645 230.049 167.742 230.2 167.887 230.2L169.94 230.2C170.115 230.2 170.206 230.411 170.084 230.538L167.128 233.642C166.976 233.802 166.715 233.634 166.797 233.43L167.465 231.775C167.518 231.643 167.421 231.5 167.279 231.5L165.097 231.5C164.918 231.5 164.829 231.282 164.958 231.157Z" fill="#F6F7FE"/>
<rect x="-0.5" y="0.5" width="1" height="5" rx="0.5" transform="matrix(-1 0 0 1 175.5 228)" stroke="#666666"/>
<path d="M136.829 328.272H138.173V333.36C137.717 333.384 137.273 333.408 136.829 333.42V328.272ZM139.073 328.272H139.961V327.48H135.029V328.272H135.929V333.432C135.521 333.444 135.149 333.444 134.825 333.444L134.921 334.26C136.349 334.26 138.593 334.212 140.237 333.924L140.177 333.204C139.829 333.252 139.457 333.276 139.073 333.312V328.272ZM141.113 329.184H139.709V329.988H141.113V331.476H139.709V332.28H141.113V336.324H142.037V326.388H141.113V329.184ZM143.177 326.136V336.888H144.125V326.136H143.177ZM149.298 333.396H147.042V330.552H149.298V333.396ZM149.298 329.772H147.042V327.144H146.106V334.188H150.222V327.144H149.298V329.772ZM153.93 326.124V330.384H152.478V326.364H151.554V336.36H152.478V331.188H153.93V336.888H154.866V326.124H153.93ZM157.987 330.924H161.515V330.132H157.987V327.912H161.983V327.096H157.003V334.308H157.831C159.883 334.308 161.191 334.248 162.751 333.972L162.643 333.168C161.179 333.432 159.931 333.504 157.987 333.504V330.924ZM164.395 326.112V330.18H162.175V330.996H164.395V336.9H165.379V326.112H164.395ZM168.908 330.972H172.88V327.12H167.888V327.924H171.884V330.168H167.924V334.296H168.812C170.66 334.296 172.292 334.224 174.236 333.9L174.14 333.096C172.256 333.396 170.672 333.48 168.908 333.48V330.972ZM175.148 326.112V336.9H176.132V326.112H175.148Z" fill="#666666"/>
<rect x="113" y="325.5" width="15" height="11" rx="1.5" stroke="#666666"/>
<rect x="115" y="327.5" width="11" height="7" rx="1" stroke="#666666"/>
<path d="M125.5 328L115.5 334" stroke="#666666" stroke-linecap="round"/>
<rect x="-0.5" y="0.5" width="1" height="5" rx="0.5" transform="matrix(-1 0 0 1 128.5 328)" stroke="#666666"/>
<path d="M24.036 222.459L24.876 222.315L24.528 215.811C25.272 215.883 26.112 215.991 27.072 216.195L27.192 215.223C24.984 214.767 23.508 214.767 22.188 214.767L21.18 214.767L21.168 215.331L21.168 222.171L21.972 222.171L21.972 215.739L22.188 215.739C22.68 215.739 23.196 215.739 23.76 215.763L24.036 222.459ZM28.62 218.559L25.824 218.559L25.824 219.543L28.62 219.543L28.62 223.335L29.424 223.335L29.424 213.603L28.62 213.603L28.62 218.559ZM24.48 208.082L24.48 211.13L22.872 211.13L22.872 208.082L24.48 208.082ZM20.568 207.122L20.568 208.082L22.116 208.082L22.116 211.13L20.568 211.13L20.568 212.102L25.272 212.102L25.272 207.122L20.568 207.122ZM28.812 210.038L28.812 204.194L26.196 204.194L26.196 211.034L26.976 211.034L26.976 205.166L28.08 205.166L28.08 210.998L30.768 210.998L30.768 203.798L29.988 203.798L29.988 210.038L28.812 210.038ZM22.44 204.194L20.136 204.194L20.136 205.178L25.692 205.178L25.692 204.194L23.256 204.194L23.256 202.598L22.44 202.598L22.44 204.194ZM25.932 193.117L25.932 199.513L24.228 199.513L24.228 193.465L23.448 193.465L23.448 199.513L21.852 199.513L21.852 193.225L21.06 193.225L21.06 200.509L26.724 200.509L26.724 193.117L25.932 193.117ZM28.692 201.769L29.496 201.769L29.496 192.001L28.692 192.001L28.692 201.769ZM32.28 190.704C31.824 189.624 30.924 188.952 29.772 188.952C28.968 188.952 28.476 189.3 28.476 189.876C28.476 190.32 28.776 190.704 29.244 190.704C29.748 190.704 30.012 190.32 30.012 189.9C30.012 189.852 30.012 189.816 30 189.768C30.732 189.78 31.308 190.224 31.632 190.968L32.28 190.704ZM21.168 183.788L21.168 184.772L28.104 184.772L28.104 183.884C28.104 182.168 27.984 180.476 27.6 178.604L26.76 178.712C27.12 180.5 27.264 182.168 27.264 183.788L21.168 183.788ZM20.124 177.608L30.876 177.608L30.876 176.624L20.124 176.624L20.124 177.608ZM20.136 165.535L20.136 166.471L25.788 166.471L25.788 165.535L20.136 165.535ZM23.58 168.595L25.704 168.595L25.704 167.671L20.304 167.671L20.304 168.595L22.776 168.595L22.776 170.203C22.152 169.987 21.468 169.867 20.736 169.867L20.736 174.055L21.528 174.055L21.528 170.851C21.912 170.887 22.272 170.971 22.62 171.091L22.836 174.559L23.64 174.403L23.328 171.463C24.228 172.039 24.96 173.035 25.5 174.511L26.208 174.067C25.584 172.411 24.708 171.259 23.58 170.599L23.58 168.595ZM29.964 171.631L28.812 171.631L28.812 165.535L26.268 165.535L26.268 172.639L27.048 172.639L27.048 166.507L28.068 166.507L28.068 172.615L30.744 172.615L30.744 165.115L29.964 165.115L29.964 171.631ZM23.424 152.828L23.424 159.224L21.348 159.224L21.348 152.9L20.556 152.9L20.556 160.208L24.216 160.208L24.216 152.828L23.424 152.828ZM30.108 156.572C30.108 158.264 29.688 159.26 28.932 159.26C28.176 159.26 27.756 158.264 27.756 156.572C27.756 154.88 28.176 153.884 28.932 153.884C29.688 153.884 30.108 154.892 30.108 156.572ZM26.988 156.572C26.988 158.864 27.684 160.256 28.932 160.256C30.18 160.256 30.876 158.864 30.876 156.572C30.876 154.28 30.18 152.888 28.932 152.888C27.684 152.888 26.988 154.28 26.988 156.572ZM25.248 161.432L26.064 161.432L26.064 151.688L25.248 151.688L25.248 161.432Z" fill="#666666"/>
<g clip-path="url(#clip1_1848_32935)">
<path d="M25.2491 252C25.0855 252 24.9245 251.96 24.78 251.883L17.5308 248.032C17.2042 247.858 17 247.519 17 247.149L17 242.897C17 242.642 17.0972 242.397 17.2718 242.211L24.7039 234.315C24.8928 234.114 25.1563 234 25.4321 234L28.7639 234C28.9192 234 29.0723 234.036 29.2111 234.106L32.4472 235.724C32.786 235.893 33 236.239 33 236.618L33 251C33 251.552 32.5523 252 32 252L25.2491 252Z" fill="#666666"/>
<path d="M32.5 252L27 246.5M27 246.5L25 234M27 246.5L20.5864 247.98C20.5293 247.993 20.4702 247.996 20.412 247.989L16.5 247.5" stroke="#F6F7FE" stroke-width="0.6" stroke-linecap="round"/>
<path d="M29.1 245.953C29.1 244.803 28.69 243.823 27.93 243.173L27.13 244.013C27.69 244.523 27.96 245.153 27.96 245.883C27.96 247.333 26.94 248.383 25.5 248.383C24.06 248.383 23.04 247.333 23.04 245.883C23.04 245.153 23.31 244.523 23.86 244.013L23.07 243.173C22.31 243.823 21.9 244.803 21.9 245.943C21.9 248.093 23.41 249.693 25.5 249.693C27.59 249.693 29.1 248.093 29.1 245.953ZM29.07 240.092C29.07 238.432 27.93 237.242 26.33 237.242C24.73 237.242 23.6 238.432 23.6 240.092C23.6 241.732 24.73 242.932 26.33 242.932C27.93 242.932 29.07 241.732 29.07 240.092ZM28 240.092C28 240.992 27.35 241.672 26.33 241.672C25.31 241.672 24.66 240.992 24.66 240.092C24.66 239.182 25.31 238.502 26.33 238.502C27.35 238.502 28 239.182 28 240.092Z" fill="white"/>
</g>
<g clip-path="url(#clip2_1848_32935)">
<path d="M25.2491 276C25.0855 276 24.9245 275.96 24.78 275.883L17.5308 272.032C17.2042 271.858 17 271.519 17 271.149L17 266.897C17 266.642 17.0972 266.397 17.2718 266.211L24.7039 258.315C24.8928 258.114 25.1563 258 25.4321 258L28.7639 258C28.9192 258 29.0723 258.036 29.2111 258.106L32.4472 259.724C32.786 259.893 33 260.239 33 260.618L33 275C33 275.552 32.5523 276 32 276L25.2491 276Z" fill="#666666"/>
<path d="M32.5 276L27 270.5M27 270.5L25 258M27 270.5L20.5864 271.98C20.5293 271.993 20.4702 271.996 20.412 271.989L16.5 271.5" stroke="#F6F7FE" stroke-width="0.6" stroke-linecap="round"/>
<path d="M22.5 266.998L27.24 266.998L22.5 270.858L22.5 271.928L29.5 271.928L29.5 270.638L24.76 270.638L29.5 266.778L29.5 265.708L22.5 265.708L22.5 266.998ZM23.28 263.572C23.28 263.102 22.94 262.772 22.5 262.772C22.09 262.772 21.78 263.112 21.78 263.572C21.78 264.032 22.11 264.372 22.53 264.372C22.95 264.372 23.28 264.032 23.28 263.572ZM29.5 264.202L29.5 262.952L24.16 262.952L24.16 264.202L29.5 264.202Z" fill="white"/>
</g>
<path d="M303.412 439.346C302.572 439.346 301.78 439.346 300.676 439.058L300.568 440.018C301.672 440.318 302.548 440.318 303.412 440.318L304.324 440.318L304.324 432.986L303.532 432.986L303.532 439.346L303.412 439.346ZM294.892 436.646C294.892 434.966 295.348 433.886 296.092 433.886C296.86 433.886 297.316 434.966 297.316 436.646C297.316 438.338 296.86 439.418 296.092 439.418C295.348 439.418 294.892 438.338 294.892 436.646ZM298.072 436.646C298.072 434.354 297.34 432.902 296.092 432.902C294.868 432.902 294.124 434.354 294.124 436.646C294.124 438.938 294.868 440.402 296.092 440.402C297.34 440.402 298.072 438.938 298.072 436.646ZM299.86 436.802L301.924 436.802L301.924 435.818L299.86 435.818L299.86 431.846L299.056 431.846L299.056 441.53L299.86 441.53L299.86 436.802ZM302.08 448.359L301.276 448.359L301.276 450.483L298.456 450.483L298.456 451.479L304.864 451.479L304.864 450.483L302.08 450.483L302.08 448.359ZM299.632 448.959C300.184 447.399 301.54 446.343 302.92 446.343L303.292 446.343L303.292 448.707L304.084 448.707L304.084 442.959L303.292 442.959L303.292 445.359L302.92 445.359C301.372 445.359 299.92 444.255 299.332 442.647L298.552 443.163C299.032 444.423 300.04 445.419 301.288 445.875C300.184 446.343 299.296 447.267 298.864 448.467L299.632 448.959ZM294.88 447.927C294.88 446.307 295.336 445.323 296.116 445.323C296.896 445.323 297.364 446.307 297.364 447.927C297.364 449.547 296.896 450.531 296.116 450.531C295.336 450.531 294.88 449.547 294.88 447.927ZM298.12 447.927C298.12 445.719 297.388 444.339 296.116 444.339C294.844 444.339 294.112 445.719 294.112 447.927C294.112 450.135 294.844 451.503 296.116 451.503C297.388 451.503 298.12 450.135 298.12 447.927ZM299.464 465.109C299.824 463.225 301.456 461.185 303.292 461.185L304.12 461.185L304.12 460.153L303.292 460.153C301.456 460.153 299.836 458.125 299.464 456.241L298.648 456.685C299.032 458.305 300.184 459.985 301.756 460.669C300.172 461.353 299.02 463.033 298.648 464.665L299.464 465.109ZM296.368 455.833L295.552 455.833L295.552 465.589L296.368 465.589L296.368 455.833ZM300.508 467.51L299.692 467.654L300.052 474.146C299.224 474.086 298.336 473.966 297.304 473.738L297.208 474.698C299.416 475.166 300.868 475.166 302.464 475.166L303.784 475.166L303.784 467.786L302.98 467.786L302.98 474.206L302.464 474.206C301.912 474.206 301.36 474.206 300.796 474.182L300.508 467.51ZM296.416 466.634L295.612 466.634L295.612 476.366L296.416 476.366L296.416 466.634ZM300.388 482.559C300.124 481.299 300.064 480.243 300.064 478.851L301.456 478.851L301.456 481.923L304.228 481.923L304.228 477.879L303.448 477.879L303.448 480.975L302.2 480.975L302.2 477.903L299.272 477.903L299.272 478.611C299.272 480.159 299.332 481.287 299.596 482.655L300.388 482.559ZM295.06 485.523L295.06 480.411L296.416 480.411L296.416 485.523L295.06 485.523ZM297.184 485.523L297.184 480.411L298.42 480.411L298.42 479.427L294.256 479.427L294.256 486.495L298.42 486.495L298.42 485.523L297.184 485.523ZM304.864 485.547L302.32 485.547L302.32 484.107L304.672 484.107L304.672 483.171L299.02 483.171L299.02 484.107L301.528 484.107L301.528 485.547L298.912 485.547L298.912 486.495L304.864 486.495L304.864 485.547Z" fill="#666666"/>
<g clip-path="url(#clip3_1848_32935)">
<rect x="295" y="403" width="18" height="2" rx="1" transform="rotate(90 295 403)" fill="#666666"/>
<path d="M307.033 404.668C307.572 404.686 308 405.128 308 405.667L308 406.733C308 407.272 307.572 407.714 307.033 407.732L293 408.2L293 404.2L307.033 404.668Z" fill="#666666"/>
<path d="M301 407.9L303.4 411.1C303.647 411.43 303.412 411.9 303 411.9L293 411.9L293 407.9L301 407.9Z" fill="#666666"/>
<path d="M301 411.9L303.4 415.1C303.647 415.43 303.412 415.9 303 415.9L293 415.9L293 411.9L301 411.9Z" fill="#666666"/>
<path d="M301 415.9L303.4 419.1C303.647 419.43 303.412 419.9 303 419.9L293 419.9L293 415.9L301 415.9Z" fill="#666666"/>
<rect x="298" y="412" width="1" height="6" rx="0.5" transform="rotate(90 298 412)" fill="#F6F7FE"/>
<rect x="298" y="416" width="1" height="6" rx="0.5" transform="rotate(90 298 416)" fill="#F6F7FE"/>
</g>
<path d="M136.829 468.272H138.173V473.36C137.717 473.384 137.273 473.408 136.829 473.42V468.272ZM139.073 468.272H139.961V467.48H135.029V468.272H135.929V473.432C135.521 473.444 135.149 473.444 134.825 473.444L134.921 474.26C136.349 474.26 138.593 474.212 140.237 473.924L140.177 473.204C139.829 473.252 139.457 473.276 139.073 473.312V468.272ZM141.113 469.184H139.709V469.988H141.113V471.476H139.709V472.28H141.113V476.324H142.037V466.388H141.113V469.184ZM143.177 466.136V476.888H144.125V466.136H143.177ZM149.298 473.396H147.042V470.552H149.298V473.396ZM149.298 469.772H147.042V467.144H146.106V474.188H150.222V467.144H149.298V469.772ZM153.93 466.124V470.384H152.478V466.364H151.554V476.36H152.478V471.188H153.93V476.888H154.866V466.124H153.93ZM157.987 470.924H161.515V470.132H157.987V467.912H161.983V467.096H157.003V474.308H157.831C159.883 474.308 161.191 474.248 162.751 473.972L162.643 473.168C161.179 473.432 159.931 473.504 157.987 473.504V470.924ZM164.395 466.112V470.18H162.175V470.996H164.395V476.9H165.379V466.112H164.395ZM168.908 470.972H172.88V467.12H167.888V467.924H171.884V470.168H167.924V474.296H168.812C170.66 474.296 172.292 474.224 174.236 473.9L174.14 473.096C172.256 473.396 170.672 473.48 168.908 473.48V470.972ZM175.148 466.112V476.9H176.132V466.112H175.148Z" fill="#666666"/>
<rect x="113" y="465.5" width="15" height="11" rx="1.5" stroke="#666666"/>
<rect x="115" y="467.5" width="11" height="7" rx="1" stroke="#666666"/>
<path d="M125.5 468L115.5 474" stroke="#666666" stroke-linecap="round"/>
<rect x="-0.5" y="0.5" width="1" height="5" rx="0.5" transform="matrix(-1 0 0 1 128.5 468)" stroke="#666666"/>
<defs>
<clipPath id="clip0_1848_32935">
<rect width="41.3475" height="12.2927" fill="white" transform="translate(211.076 84.7073)"/>
</clipPath>
<clipPath id="clip1_1848_32935">
<rect width="18" height="18" fill="white" transform="translate(16 252) rotate(-90)"/>
</clipPath>
<clipPath id="clip2_1848_32935">
<rect width="18" height="18" fill="white" transform="translate(16 276) rotate(-90)"/>
</clipPath>
<clipPath id="clip3_1848_32935">
<rect width="18" height="18" fill="white" transform="translate(309 403) rotate(90)"/>
</clipPath>
</defs>
</svg>
