<svg width="327" height="225" viewBox="0 0 327 225" fill="none" xmlns="http://www.w3.org/2000/svg">
<mask id="path-1-inside-1_1848_32934" fill="white">
<path d="M0 20H209V192H0V20Z"/>
</mask>
<path d="M209 191H0V193H209V191Z" fill="#DDDDDD" mask="url(#path-1-inside-1_1848_32934)"/>
<mask id="path-3-inside-2_1848_32934" fill="white">
<path d="M215 20H327V192H215V20Z"/>
</mask>
<path d="M327 191H215V193H327V191Z" fill="#DDDDDD" mask="url(#path-3-inside-2_1848_32934)"/>
<rect opacity="0.14" x="215" width="112" height="34" rx="7" fill="#10C469"/>
<rect x="251" width="76" height="34" rx="7" fill="#10C469"/>
<path d="M293.755 21.144C292.987 21.144 292.319 20.984 291.751 20.664C291.191 20.344 290.759 19.876 290.455 19.26C290.151 18.644 289.999 17.884 289.999 16.98C289.999 16.012 290.179 15.192 290.539 14.52C290.907 13.848 291.411 13.336 292.051 12.984C292.699 12.632 293.443 12.456 294.283 12.456C294.731 12.456 295.159 12.504 295.567 12.6C295.975 12.696 296.327 12.84 296.623 13.032L295.903 14.46C295.671 14.3 295.423 14.192 295.159 14.136C294.895 14.072 294.619 14.04 294.331 14.04C293.603 14.04 293.027 14.26 292.603 14.7C292.179 15.14 291.967 15.792 291.967 16.656C291.967 16.8 291.967 16.96 291.967 17.136C291.975 17.312 291.999 17.488 292.039 17.664L291.499 17.16C291.651 16.848 291.847 16.588 292.087 16.38C292.327 16.164 292.611 16.004 292.939 15.9C293.275 15.788 293.643 15.732 294.043 15.732C294.587 15.732 295.075 15.84 295.507 16.056C295.939 16.272 296.283 16.576 296.539 16.968C296.803 17.36 296.935 17.82 296.935 18.348C296.935 18.916 296.791 19.412 296.503 19.836C296.223 20.252 295.843 20.576 295.363 20.808C294.891 21.032 294.355 21.144 293.755 21.144ZM293.647 19.692C293.919 19.692 294.159 19.644 294.367 19.548C294.583 19.444 294.751 19.296 294.871 19.104C294.991 18.912 295.051 18.692 295.051 18.444C295.051 18.06 294.919 17.756 294.655 17.532C294.399 17.3 294.055 17.184 293.623 17.184C293.335 17.184 293.083 17.24 292.867 17.352C292.651 17.456 292.479 17.604 292.351 17.796C292.231 17.98 292.171 18.196 292.171 18.444C292.171 18.684 292.231 18.9 292.351 19.092C292.471 19.276 292.639 19.424 292.855 19.536C293.071 19.64 293.335 19.692 293.647 19.692ZM300.87 21.144C300.166 21.144 299.55 21.04 299.022 20.832C298.494 20.616 298.082 20.316 297.786 19.932C297.49 19.54 297.342 19.084 297.342 18.564C297.342 18.044 297.486 17.604 297.774 17.244C298.07 16.876 298.482 16.6 299.01 16.416C299.538 16.224 300.158 16.128 300.87 16.128C301.59 16.128 302.214 16.224 302.742 16.416C303.278 16.6 303.69 16.876 303.978 17.244C304.274 17.604 304.422 18.044 304.422 18.564C304.422 19.084 304.274 19.54 303.978 19.932C303.682 20.316 303.266 20.616 302.73 20.832C302.202 21.04 301.582 21.144 300.87 21.144ZM300.87 19.716C301.358 19.716 301.742 19.608 302.022 19.392C302.31 19.176 302.454 18.88 302.454 18.504C302.454 18.128 302.31 17.836 302.022 17.628C301.742 17.412 301.358 17.304 300.87 17.304C300.39 17.304 300.01 17.412 299.73 17.628C299.45 17.836 299.31 18.128 299.31 18.504C299.31 18.88 299.45 19.176 299.73 19.392C300.01 19.608 300.39 19.716 300.87 19.716ZM300.87 17.112C300.222 17.112 299.654 17.024 299.166 16.848C298.686 16.672 298.31 16.416 298.038 16.08C297.774 15.736 297.642 15.328 297.642 14.856C297.642 14.36 297.778 13.936 298.05 13.584C298.322 13.224 298.702 12.948 299.19 12.756C299.678 12.556 300.238 12.456 300.87 12.456C301.518 12.456 302.082 12.556 302.562 12.756C303.05 12.948 303.43 13.224 303.702 13.584C303.982 13.936 304.122 14.36 304.122 14.856C304.122 15.328 303.986 15.736 303.714 16.08C303.45 16.416 303.074 16.672 302.586 16.848C302.098 17.024 301.526 17.112 300.87 17.112ZM300.87 15.972C301.278 15.972 301.598 15.88 301.83 15.696C302.07 15.512 302.19 15.26 302.19 14.94C302.19 14.604 302.066 14.344 301.818 14.16C301.578 13.976 301.262 13.884 300.87 13.884C300.486 13.884 300.174 13.976 299.934 14.16C299.694 14.344 299.574 14.604 299.574 14.94C299.574 15.26 299.69 15.512 299.922 15.696C300.154 15.88 300.47 15.972 300.87 15.972ZM306.157 21L311.893 12.6H313.321L307.585 21H306.157ZM306.889 17.136C306.481 17.136 306.121 17.044 305.809 16.86C305.497 16.668 305.249 16.4 305.065 16.056C304.889 15.704 304.801 15.292 304.801 14.82C304.801 14.348 304.889 13.94 305.065 13.596C305.249 13.252 305.497 12.984 305.809 12.792C306.121 12.6 306.481 12.504 306.889 12.504C307.297 12.504 307.657 12.6 307.969 12.792C308.281 12.984 308.525 13.252 308.701 13.596C308.877 13.94 308.965 14.348 308.965 14.82C308.965 15.292 308.877 15.704 308.701 16.056C308.525 16.4 308.281 16.668 307.969 16.86C307.657 17.044 307.297 17.136 306.889 17.136ZM306.889 16.152C307.153 16.152 307.365 16.044 307.525 15.828C307.685 15.604 307.765 15.268 307.765 14.82C307.765 14.372 307.685 14.04 307.525 13.824C307.365 13.6 307.153 13.488 306.889 13.488C306.633 13.488 306.421 13.6 306.253 13.824C306.093 14.04 306.013 14.372 306.013 14.82C306.013 15.26 306.093 15.592 306.253 15.816C306.421 16.04 306.633 16.152 306.889 16.152ZM312.589 21.096C312.189 21.096 311.829 21.004 311.509 20.82C311.197 20.628 310.953 20.36 310.777 20.016C310.601 19.664 310.513 19.252 310.513 18.78C310.513 18.308 310.601 17.9 310.777 17.556C310.953 17.212 311.197 16.944 311.509 16.752C311.829 16.56 312.189 16.464 312.589 16.464C313.005 16.464 313.369 16.56 313.681 16.752C313.993 16.944 314.237 17.212 314.413 17.556C314.589 17.9 314.677 18.308 314.677 18.78C314.677 19.252 314.589 19.664 314.413 20.016C314.237 20.36 313.993 20.628 313.681 20.82C313.369 21.004 313.005 21.096 312.589 21.096ZM312.589 20.112C312.853 20.112 313.065 20.004 313.225 19.788C313.385 19.564 313.465 19.228 313.465 18.78C313.465 18.34 313.385 18.008 313.225 17.784C313.065 17.56 312.853 17.448 312.589 17.448C312.333 17.448 312.121 17.56 311.953 17.784C311.793 18 311.713 18.332 311.713 18.78C311.713 19.228 311.793 19.564 311.953 19.788C312.121 20.004 312.333 20.112 312.589 20.112Z" fill="white"/>
<rect opacity="0.5" width="209" height="34" rx="7" fill="#D4DFFA"/>
<path d="M209 7C209 3.13401 205.866 0 202 0L124 0C120.134 0 117 3.13401 117 7V27C117 30.866 120.134 34 124 34L202 34C205.866 34 209 30.866 209 27V7Z" fill="#435CE7"/>
<path d="M175.359 21.144C174.775 21.144 174.195 21.068 173.619 20.916C173.051 20.756 172.563 20.532 172.155 20.244L172.923 18.756C173.243 18.988 173.611 19.172 174.027 19.308C174.451 19.444 174.879 19.512 175.311 19.512C175.799 19.512 176.183 19.416 176.463 19.224C176.743 19.032 176.883 18.764 176.883 18.42C176.883 18.204 176.827 18.012 176.715 17.844C176.603 17.676 176.403 17.548 176.115 17.46C175.835 17.372 175.439 17.328 174.927 17.328H172.779L173.211 12.6H178.335V14.16H173.907L174.915 13.272L174.615 16.644L173.607 15.756H175.383C176.215 15.756 176.883 15.872 177.387 16.104C177.899 16.328 178.271 16.636 178.503 17.028C178.735 17.42 178.851 17.864 178.851 18.36C178.851 18.856 178.727 19.316 178.479 19.74C178.231 20.156 177.847 20.496 177.327 20.76C176.815 21.016 176.159 21.144 175.359 21.144ZM182.87 21.144C182.166 21.144 181.55 21.04 181.022 20.832C180.494 20.616 180.082 20.316 179.786 19.932C179.49 19.54 179.342 19.084 179.342 18.564C179.342 18.044 179.486 17.604 179.774 17.244C180.07 16.876 180.482 16.6 181.01 16.416C181.538 16.224 182.158 16.128 182.87 16.128C183.59 16.128 184.214 16.224 184.742 16.416C185.278 16.6 185.69 16.876 185.978 17.244C186.274 17.604 186.422 18.044 186.422 18.564C186.422 19.084 186.274 19.54 185.978 19.932C185.682 20.316 185.266 20.616 184.73 20.832C184.202 21.04 183.582 21.144 182.87 21.144ZM182.87 19.716C183.358 19.716 183.742 19.608 184.022 19.392C184.31 19.176 184.454 18.88 184.454 18.504C184.454 18.128 184.31 17.836 184.022 17.628C183.742 17.412 183.358 17.304 182.87 17.304C182.39 17.304 182.01 17.412 181.73 17.628C181.45 17.836 181.31 18.128 181.31 18.504C181.31 18.88 181.45 19.176 181.73 19.392C182.01 19.608 182.39 19.716 182.87 19.716ZM182.87 17.112C182.222 17.112 181.654 17.024 181.166 16.848C180.686 16.672 180.31 16.416 180.038 16.08C179.774 15.736 179.642 15.328 179.642 14.856C179.642 14.36 179.778 13.936 180.05 13.584C180.322 13.224 180.702 12.948 181.19 12.756C181.678 12.556 182.238 12.456 182.87 12.456C183.518 12.456 184.082 12.556 184.562 12.756C185.05 12.948 185.43 13.224 185.702 13.584C185.982 13.936 186.122 14.36 186.122 14.856C186.122 15.328 185.986 15.736 185.714 16.08C185.45 16.416 185.074 16.672 184.586 16.848C184.098 17.024 183.526 17.112 182.87 17.112ZM182.87 15.972C183.278 15.972 183.598 15.88 183.83 15.696C184.07 15.512 184.19 15.26 184.19 14.94C184.19 14.604 184.066 14.344 183.818 14.16C183.578 13.976 183.262 13.884 182.87 13.884C182.486 13.884 182.174 13.976 181.934 14.16C181.694 14.344 181.574 14.604 181.574 14.94C181.574 15.26 181.69 15.512 181.922 15.696C182.154 15.88 182.47 15.972 182.87 15.972ZM188.157 21L193.893 12.6H195.321L189.585 21H188.157ZM188.889 17.136C188.481 17.136 188.121 17.044 187.809 16.86C187.497 16.668 187.249 16.4 187.065 16.056C186.889 15.704 186.801 15.292 186.801 14.82C186.801 14.348 186.889 13.94 187.065 13.596C187.249 13.252 187.497 12.984 187.809 12.792C188.121 12.6 188.481 12.504 188.889 12.504C189.297 12.504 189.657 12.6 189.969 12.792C190.281 12.984 190.525 13.252 190.701 13.596C190.877 13.94 190.965 14.348 190.965 14.82C190.965 15.292 190.877 15.704 190.701 16.056C190.525 16.4 190.281 16.668 189.969 16.86C189.657 17.044 189.297 17.136 188.889 17.136ZM188.889 16.152C189.153 16.152 189.365 16.044 189.525 15.828C189.685 15.604 189.765 15.268 189.765 14.82C189.765 14.372 189.685 14.04 189.525 13.824C189.365 13.6 189.153 13.488 188.889 13.488C188.633 13.488 188.421 13.6 188.253 13.824C188.093 14.04 188.013 14.372 188.013 14.82C188.013 15.26 188.093 15.592 188.253 15.816C188.421 16.04 188.633 16.152 188.889 16.152ZM194.589 21.096C194.189 21.096 193.829 21.004 193.509 20.82C193.197 20.628 192.953 20.36 192.777 20.016C192.601 19.664 192.513 19.252 192.513 18.78C192.513 18.308 192.601 17.9 192.777 17.556C192.953 17.212 193.197 16.944 193.509 16.752C193.829 16.56 194.189 16.464 194.589 16.464C195.005 16.464 195.369 16.56 195.681 16.752C195.993 16.944 196.237 17.212 196.413 17.556C196.589 17.9 196.677 18.308 196.677 18.78C196.677 19.252 196.589 19.664 196.413 20.016C196.237 20.36 195.993 20.628 195.681 20.82C195.369 21.004 195.005 21.096 194.589 21.096ZM194.589 20.112C194.853 20.112 195.065 20.004 195.225 19.788C195.385 19.564 195.465 19.228 195.465 18.78C195.465 18.34 195.385 18.008 195.225 17.784C195.065 17.56 194.853 17.448 194.589 17.448C194.333 17.448 194.121 17.56 193.953 17.784C193.793 18 193.713 18.332 193.713 18.78C193.713 19.228 193.793 19.564 193.953 19.788C194.121 20.004 194.333 20.112 194.589 20.112Z" fill="white"/>
<path d="M14.172 20.956L16.74 18.484C17.88 17.392 18.12 16.66 18.12 15.844C18.12 14.404 16.992 13.504 15.24 13.504C13.932 13.504 12.816 13.972 12.168 14.776L12.984 15.484C13.5 14.86 14.232 14.572 15.132 14.572C16.308 14.572 16.92 15.1 16.92 15.964C16.92 16.492 16.752 17.02 15.864 17.884L12.444 21.184V22H18.48V20.956H14.172ZM22.6135 22.096C24.5695 22.096 26.0335 20.536 26.0335 17.8C26.0335 15.064 24.5695 13.504 22.6135 13.504C20.6455 13.504 19.1815 15.064 19.1815 17.8C19.1815 20.536 20.6455 22.096 22.6135 22.096ZM22.6135 21.028C21.2935 21.028 20.3815 19.948 20.3815 17.8C20.3815 15.652 21.2935 14.572 22.6135 14.572C23.9215 14.572 24.8335 15.652 24.8335 17.8C24.8335 19.948 23.9215 21.028 22.6135 21.028ZM28.4962 20.956L31.0642 18.484C32.2042 17.392 32.4442 16.66 32.4442 15.844C32.4442 14.404 31.3162 13.504 29.5642 13.504C28.2562 13.504 27.1402 13.972 26.4922 14.776L27.3082 15.484C27.8242 14.86 28.5562 14.572 29.4562 14.572C30.6322 14.572 31.2442 15.1 31.2442 15.964C31.2442 16.492 31.0762 17.02 30.1882 17.884L26.7682 21.184V22H32.8042V20.956H28.4962ZM35.9408 16.948H35.0048L35.2328 14.644H38.9648V13.6H34.2248L33.7808 17.992H35.6888C37.6328 17.992 38.2328 18.58 38.2328 19.528C38.2328 20.44 37.5128 21.028 36.2408 21.028C35.2208 21.028 34.2848 20.656 33.7208 20.128L33.1688 21.076C33.8888 21.712 35.0648 22.096 36.2528 22.096C38.4008 22.096 39.4328 20.932 39.4328 19.48C39.4328 17.992 38.4488 16.948 35.9408 16.948ZM47.9575 20.092H49.1935V12.088H47.9575V13.408H45.0775V14.392H47.9575V15.46H45.0775V16.444H47.9575V20.092ZM46.2775 17.188C44.7775 17.452 43.4695 17.536 42.0655 17.548V12.832H40.8295V18.568H41.6695C43.2775 18.568 44.7175 18.496 46.3975 18.196L46.2775 17.188ZM43.3975 21.712V19.384H42.1615V22.72L49.4695 22.72V21.712L43.3975 21.712Z" fill="#435CE7"/>
<rect opacity="0.14" x="215" y="46" width="112" height="34" rx="7" fill="#10C469"/>
<rect x="242" y="46" width="85" height="34" rx="7" fill="#10C469"/>
<path d="M292.152 67L295.536 59.344L296.04 60.184H291.516L292.38 59.272V61.552H290.652V58.6H297.384V59.86L294.264 67H292.152ZM297.927 67V65.74L301.167 62.68C301.423 62.448 301.611 62.24 301.731 62.056C301.851 61.872 301.931 61.704 301.971 61.552C302.019 61.4 302.043 61.26 302.043 61.132C302.043 60.796 301.927 60.54 301.695 60.364C301.471 60.18 301.139 60.088 300.699 60.088C300.347 60.088 300.019 60.156 299.715 60.292C299.419 60.428 299.167 60.64 298.959 60.928L297.543 60.016C297.863 59.536 298.311 59.156 298.887 58.876C299.463 58.596 300.127 58.456 300.879 58.456C301.503 58.456 302.047 58.56 302.511 58.768C302.983 58.968 303.347 59.252 303.603 59.62C303.867 59.988 303.999 60.428 303.999 60.94C303.999 61.212 303.963 61.484 303.891 61.756C303.827 62.02 303.691 62.3 303.483 62.596C303.283 62.892 302.987 63.224 302.595 63.592L299.907 66.124L299.535 65.416H304.275V67H297.927ZM306.157 67L311.893 58.6H313.321L307.585 67H306.157ZM306.889 63.136C306.481 63.136 306.121 63.044 305.809 62.86C305.497 62.668 305.249 62.4 305.065 62.056C304.889 61.704 304.801 61.292 304.801 60.82C304.801 60.348 304.889 59.94 305.065 59.596C305.249 59.252 305.497 58.984 305.809 58.792C306.121 58.6 306.481 58.504 306.889 58.504C307.297 58.504 307.657 58.6 307.969 58.792C308.281 58.984 308.525 59.252 308.701 59.596C308.877 59.94 308.965 60.348 308.965 60.82C308.965 61.292 308.877 61.704 308.701 62.056C308.525 62.4 308.281 62.668 307.969 62.86C307.657 63.044 307.297 63.136 306.889 63.136ZM306.889 62.152C307.153 62.152 307.365 62.044 307.525 61.828C307.685 61.604 307.765 61.268 307.765 60.82C307.765 60.372 307.685 60.04 307.525 59.824C307.365 59.6 307.153 59.488 306.889 59.488C306.633 59.488 306.421 59.6 306.253 59.824C306.093 60.04 306.013 60.372 306.013 60.82C306.013 61.26 306.093 61.592 306.253 61.816C306.421 62.04 306.633 62.152 306.889 62.152ZM312.589 67.096C312.189 67.096 311.829 67.004 311.509 66.82C311.197 66.628 310.953 66.36 310.777 66.016C310.601 65.664 310.513 65.252 310.513 64.78C310.513 64.308 310.601 63.9 310.777 63.556C310.953 63.212 311.197 62.944 311.509 62.752C311.829 62.56 312.189 62.464 312.589 62.464C313.005 62.464 313.369 62.56 313.681 62.752C313.993 62.944 314.237 63.212 314.413 63.556C314.589 63.9 314.677 64.308 314.677 64.78C314.677 65.252 314.589 65.664 314.413 66.016C314.237 66.36 313.993 66.628 313.681 66.82C313.369 67.004 313.005 67.096 312.589 67.096ZM312.589 66.112C312.853 66.112 313.065 66.004 313.225 65.788C313.385 65.564 313.465 65.228 313.465 64.78C313.465 64.34 313.385 64.008 313.225 63.784C313.065 63.56 312.853 63.448 312.589 63.448C312.333 63.448 312.121 63.56 311.953 63.784C311.793 64 311.713 64.332 311.713 64.78C311.713 65.228 311.793 65.564 311.953 65.788C312.121 66.004 312.333 66.112 312.589 66.112Z" fill="white"/>
<rect opacity="0.5" y="46" width="209" height="34" rx="7" fill="#D4DFFA"/>
<path d="M209 53C209 49.134 205.866 46 202 46L102 46C98.134 46 95 49.134 95 53V73C95 76.866 98.134 80 102 80L202 80C205.866 80 209 76.866 209 73V53Z" fill="#435CE7"/>
<path d="M175.415 67.144C174.647 67.144 173.979 66.984 173.411 66.664C172.851 66.344 172.419 65.876 172.115 65.26C171.811 64.644 171.659 63.884 171.659 62.98C171.659 62.012 171.839 61.192 172.199 60.52C172.567 59.848 173.071 59.336 173.711 58.984C174.359 58.632 175.103 58.456 175.943 58.456C176.391 58.456 176.819 58.504 177.227 58.6C177.635 58.696 177.987 58.84 178.283 59.032L177.563 60.46C177.331 60.3 177.083 60.192 176.819 60.136C176.555 60.072 176.279 60.04 175.991 60.04C175.263 60.04 174.687 60.26 174.263 60.7C173.839 61.14 173.627 61.792 173.627 62.656C173.627 62.8 173.627 62.96 173.627 63.136C173.635 63.312 173.659 63.488 173.699 63.664L173.159 63.16C173.311 62.848 173.507 62.588 173.747 62.38C173.987 62.164 174.271 62.004 174.599 61.9C174.935 61.788 175.303 61.732 175.703 61.732C176.247 61.732 176.735 61.84 177.167 62.056C177.599 62.272 177.943 62.576 178.199 62.968C178.463 63.36 178.595 63.82 178.595 64.348C178.595 64.916 178.451 65.412 178.163 65.836C177.883 66.252 177.503 66.576 177.023 66.808C176.551 67.032 176.015 67.144 175.415 67.144ZM175.307 65.692C175.579 65.692 175.819 65.644 176.027 65.548C176.243 65.444 176.411 65.296 176.531 65.104C176.651 64.912 176.711 64.692 176.711 64.444C176.711 64.06 176.579 63.756 176.315 63.532C176.059 63.3 175.715 63.184 175.283 63.184C174.995 63.184 174.743 63.24 174.527 63.352C174.311 63.456 174.139 63.604 174.011 63.796C173.891 63.98 173.831 64.196 173.831 64.444C173.831 64.684 173.891 64.9 174.011 65.092C174.131 65.276 174.299 65.424 174.515 65.536C174.731 65.64 174.995 65.692 175.307 65.692ZM182.65 67.144C181.962 67.144 181.346 66.976 180.802 66.64C180.258 66.296 179.83 65.8 179.518 65.152C179.206 64.504 179.05 63.72 179.05 62.8C179.05 61.88 179.206 61.096 179.518 60.448C179.83 59.8 180.258 59.308 180.802 58.972C181.346 58.628 181.962 58.456 182.65 58.456C183.346 58.456 183.962 58.628 184.498 58.972C185.042 59.308 185.47 59.8 185.782 60.448C186.094 61.096 186.25 61.88 186.25 62.8C186.25 63.72 186.094 64.504 185.782 65.152C185.47 65.8 185.042 66.296 184.498 66.64C183.962 66.976 183.346 67.144 182.65 67.144ZM182.65 65.5C182.978 65.5 183.262 65.408 183.502 65.224C183.75 65.04 183.942 64.748 184.078 64.348C184.222 63.948 184.294 63.432 184.294 62.8C184.294 62.168 184.222 61.652 184.078 61.252C183.942 60.852 183.75 60.56 183.502 60.376C183.262 60.192 182.978 60.1 182.65 60.1C182.33 60.1 182.046 60.192 181.798 60.376C181.558 60.56 181.366 60.852 181.222 61.252C181.086 61.652 181.018 62.168 181.018 62.8C181.018 63.432 181.086 63.948 181.222 64.348C181.366 64.748 181.558 65.04 181.798 65.224C182.046 65.408 182.33 65.5 182.65 65.5ZM188.157 67L193.893 58.6H195.321L189.585 67H188.157ZM188.889 63.136C188.481 63.136 188.121 63.044 187.809 62.86C187.497 62.668 187.249 62.4 187.065 62.056C186.889 61.704 186.801 61.292 186.801 60.82C186.801 60.348 186.889 59.94 187.065 59.596C187.249 59.252 187.497 58.984 187.809 58.792C188.121 58.6 188.481 58.504 188.889 58.504C189.297 58.504 189.657 58.6 189.969 58.792C190.281 58.984 190.525 59.252 190.701 59.596C190.877 59.94 190.965 60.348 190.965 60.82C190.965 61.292 190.877 61.704 190.701 62.056C190.525 62.4 190.281 62.668 189.969 62.86C189.657 63.044 189.297 63.136 188.889 63.136ZM188.889 62.152C189.153 62.152 189.365 62.044 189.525 61.828C189.685 61.604 189.765 61.268 189.765 60.82C189.765 60.372 189.685 60.04 189.525 59.824C189.365 59.6 189.153 59.488 188.889 59.488C188.633 59.488 188.421 59.6 188.253 59.824C188.093 60.04 188.013 60.372 188.013 60.82C188.013 61.26 188.093 61.592 188.253 61.816C188.421 62.04 188.633 62.152 188.889 62.152ZM194.589 67.096C194.189 67.096 193.829 67.004 193.509 66.82C193.197 66.628 192.953 66.36 192.777 66.016C192.601 65.664 192.513 65.252 192.513 64.78C192.513 64.308 192.601 63.9 192.777 63.556C192.953 63.212 193.197 62.944 193.509 62.752C193.829 62.56 194.189 62.464 194.589 62.464C195.005 62.464 195.369 62.56 195.681 62.752C195.993 62.944 196.237 63.212 196.413 63.556C196.589 63.9 196.677 64.308 196.677 64.78C196.677 65.252 196.589 65.664 196.413 66.016C196.237 66.36 195.993 66.628 195.681 66.82C195.369 67.004 195.005 67.096 194.589 67.096ZM194.589 66.112C194.853 66.112 195.065 66.004 195.225 65.788C195.385 65.564 195.465 65.228 195.465 64.78C195.465 64.34 195.385 64.008 195.225 63.784C195.065 63.56 194.853 63.448 194.589 63.448C194.333 63.448 194.121 63.56 193.953 63.784C193.793 64 193.713 64.332 193.713 64.78C193.713 65.228 193.793 65.564 193.953 65.788C194.121 66.004 194.333 66.112 194.589 66.112Z" fill="white"/>
<path d="M14.172 66.956L16.74 64.484C17.88 63.392 18.12 62.66 18.12 61.844C18.12 60.404 16.992 59.504 15.24 59.504C13.932 59.504 12.816 59.972 12.168 60.776L12.984 61.484C13.5 60.86 14.232 60.572 15.132 60.572C16.308 60.572 16.92 61.1 16.92 61.964C16.92 62.492 16.752 63.02 15.864 63.884L12.444 67.184V68H18.48V66.956H14.172ZM22.6135 68.096C24.5695 68.096 26.0335 66.536 26.0335 63.8C26.0335 61.064 24.5695 59.504 22.6135 59.504C20.6455 59.504 19.1815 61.064 19.1815 63.8C19.1815 66.536 20.6455 68.096 22.6135 68.096ZM22.6135 67.028C21.2935 67.028 20.3815 65.948 20.3815 63.8C20.3815 61.652 21.2935 60.572 22.6135 60.572C23.9215 60.572 24.8335 61.652 24.8335 63.8C24.8335 65.948 23.9215 67.028 22.6135 67.028ZM30.0342 63.128L32.2302 60.416V59.6H26.6862V60.644H30.7302L28.6182 63.236V64.076H29.2902C30.7302 64.076 31.3662 64.652 31.3662 65.54C31.3662 66.452 30.6462 67.028 29.3862 67.028C28.3542 67.028 27.4182 66.656 26.8542 66.128L26.3022 67.076C27.0102 67.712 28.1862 68.096 29.3862 68.096C31.5222 68.096 32.5662 66.944 32.5662 65.528C32.5662 64.232 31.7142 63.284 30.0342 63.128ZM36.8674 68.096C38.8234 68.096 40.2874 66.536 40.2874 63.8C40.2874 61.064 38.8234 59.504 36.8674 59.504C34.8994 59.504 33.4354 61.064 33.4354 63.8C33.4354 66.536 34.8994 68.096 36.8674 68.096ZM36.8674 67.028C35.5474 67.028 34.6354 65.948 34.6354 63.8C34.6354 61.652 35.5474 60.572 36.8674 60.572C38.1754 60.572 39.0874 61.652 39.0874 63.8C39.0874 65.948 38.1754 67.028 36.8674 67.028ZM48.9653 66.092H50.2013V58.088H48.9653V59.408H46.0853V60.392H48.9653V61.46H46.0853V62.444H48.9653V66.092ZM47.2853 63.188C45.7853 63.452 44.4773 63.536 43.0733 63.548V58.832L41.8373 58.832V64.568H42.6773C44.2853 64.568 45.7253 64.496 47.4053 64.196L47.2853 63.188ZM44.4053 67.712V65.384H43.1693V68.72H50.4773V67.712H44.4053Z" fill="#435CE7"/>
<rect opacity="0.14" x="215" y="92" width="112" height="34" rx="7" fill="#10C469"/>
<rect x="233" y="92" width="94" height="34" rx="7" fill="#10C469"/>
<path d="M292.611 104.456C290.835 104.456 289.431 105.536 289.431 107.252C289.431 108.836 290.703 109.868 292.323 109.868C293.199 109.868 293.919 109.604 294.411 109.112C294.351 110.732 293.439 111.56 292.047 111.56C291.471 111.56 290.931 111.452 290.475 111.14L289.755 112.568C290.343 112.94 291.195 113.144 292.083 113.144C294.627 113.144 296.367 111.524 296.367 108.62C296.367 105.908 294.939 104.456 292.611 104.456ZM292.755 108.416C291.891 108.416 291.327 107.924 291.327 107.156C291.327 106.388 291.903 105.908 292.731 105.908C293.655 105.908 294.195 106.436 294.195 107.156C294.195 107.888 293.607 108.416 292.755 108.416ZM300.65 113.144C302.726 113.144 304.25 111.572 304.25 108.8C304.25 106.028 302.726 104.456 300.65 104.456C298.586 104.456 297.05 106.028 297.05 108.8C297.05 111.572 298.586 113.144 300.65 113.144ZM300.65 111.5C299.69 111.5 299.018 110.708 299.018 108.8C299.018 106.892 299.69 106.1 300.65 106.1C301.622 106.1 302.294 106.892 302.294 108.8C302.294 110.708 301.622 111.5 300.65 111.5ZM306.889 109.136C308.113 109.136 308.965 108.248 308.965 106.82C308.965 105.392 308.113 104.504 306.889 104.504C305.665 104.504 304.801 105.404 304.801 106.82C304.801 108.236 305.665 109.136 306.889 109.136ZM306.157 113H307.585L313.321 104.6H311.893L306.157 113ZM306.889 108.152C306.373 108.152 306.013 107.708 306.013 106.82C306.013 105.932 306.373 105.488 306.889 105.488C307.417 105.488 307.765 105.92 307.765 106.82C307.765 107.72 307.417 108.152 306.889 108.152ZM312.589 113.096C313.813 113.096 314.677 112.196 314.677 110.78C314.677 109.364 313.813 108.464 312.589 108.464C311.377 108.464 310.513 109.364 310.513 110.78C310.513 112.196 311.377 113.096 312.589 113.096ZM312.589 112.112C312.073 112.112 311.713 111.68 311.713 110.78C311.713 109.88 312.073 109.448 312.589 109.448C313.117 109.448 313.465 109.892 313.465 110.78C313.465 111.668 313.117 112.112 312.589 112.112Z" fill="white"/>
<rect opacity="0.5" y="92" width="209" height="34" rx="7" fill="#D4DFFA"/>
<path d="M209 99C209 95.134 205.866 92 202 92L74 92C70.134 92 67 95.134 67 99V119C67 122.866 70.134 126 74 126L202 126C205.866 126 209 122.866 209 119V99Z" fill="#435CE7"/>
<path d="M176.018 113.144C175.314 113.144 174.698 113.04 174.17 112.832C173.642 112.616 173.23 112.316 172.934 111.932C172.638 111.54 172.49 111.084 172.49 110.564C172.49 110.044 172.634 109.604 172.922 109.244C173.218 108.876 173.63 108.6 174.158 108.416C174.686 108.224 175.306 108.128 176.018 108.128C176.738 108.128 177.362 108.224 177.89 108.416C178.426 108.6 178.838 108.876 179.126 109.244C179.422 109.604 179.57 110.044 179.57 110.564C179.57 111.084 179.422 111.54 179.126 111.932C178.83 112.316 178.414 112.616 177.878 112.832C177.35 113.04 176.73 113.144 176.018 113.144ZM176.018 111.716C176.506 111.716 176.89 111.608 177.17 111.392C177.458 111.176 177.602 110.88 177.602 110.504C177.602 110.128 177.458 109.836 177.17 109.628C176.89 109.412 176.506 109.304 176.018 109.304C175.538 109.304 175.158 109.412 174.878 109.628C174.598 109.836 174.458 110.128 174.458 110.504C174.458 110.88 174.598 111.176 174.878 111.392C175.158 111.608 175.538 111.716 176.018 111.716ZM176.018 109.112C175.37 109.112 174.802 109.024 174.314 108.848C173.834 108.672 173.458 108.416 173.186 108.08C172.922 107.736 172.79 107.328 172.79 106.856C172.79 106.36 172.926 105.936 173.198 105.584C173.47 105.224 173.85 104.948 174.338 104.756C174.826 104.556 175.386 104.456 176.018 104.456C176.666 104.456 177.23 104.556 177.71 104.756C178.198 104.948 178.578 105.224 178.85 105.584C179.13 105.936 179.27 106.36 179.27 106.856C179.27 107.328 179.134 107.736 178.862 108.08C178.598 108.416 178.222 108.672 177.734 108.848C177.246 109.024 176.674 109.112 176.018 109.112ZM176.018 107.972C176.426 107.972 176.746 107.88 176.978 107.696C177.218 107.512 177.338 107.26 177.338 106.94C177.338 106.604 177.214 106.344 176.966 106.16C176.726 105.976 176.41 105.884 176.018 105.884C175.634 105.884 175.322 105.976 175.082 106.16C174.842 106.344 174.722 106.604 174.722 106.94C174.722 107.26 174.838 107.512 175.07 107.696C175.302 107.88 175.618 107.972 176.018 107.972ZM182.934 113.144C182.35 113.144 181.77 113.068 181.194 112.916C180.618 112.756 180.13 112.532 179.73 112.244L180.486 110.756C180.806 110.988 181.178 111.172 181.602 111.308C182.026 111.444 182.454 111.512 182.886 111.512C183.374 111.512 183.758 111.416 184.038 111.224C184.318 111.032 184.458 110.768 184.458 110.432C184.458 110.112 184.334 109.86 184.086 109.676C183.838 109.492 183.438 109.4 182.886 109.4H181.998V108.116L184.338 105.464L184.554 106.16H180.15V104.6H186.03V105.86L183.702 108.512L182.718 107.948H183.282C184.314 107.948 185.094 108.18 185.622 108.644C186.15 109.108 186.414 109.704 186.414 110.432C186.414 110.904 186.29 111.348 186.042 111.764C185.794 112.172 185.414 112.504 184.902 112.76C184.39 113.016 183.734 113.144 182.934 113.144ZM188.157 113L193.893 104.6H195.321L189.585 113H188.157ZM188.889 109.136C188.481 109.136 188.121 109.044 187.809 108.86C187.497 108.668 187.249 108.4 187.065 108.056C186.889 107.704 186.801 107.292 186.801 106.82C186.801 106.348 186.889 105.94 187.065 105.596C187.249 105.252 187.497 104.984 187.809 104.792C188.121 104.6 188.481 104.504 188.889 104.504C189.297 104.504 189.657 104.6 189.969 104.792C190.281 104.984 190.525 105.252 190.701 105.596C190.877 105.94 190.965 106.348 190.965 106.82C190.965 107.292 190.877 107.704 190.701 108.056C190.525 108.4 190.281 108.668 189.969 108.86C189.657 109.044 189.297 109.136 188.889 109.136ZM188.889 108.152C189.153 108.152 189.365 108.044 189.525 107.828C189.685 107.604 189.765 107.268 189.765 106.82C189.765 106.372 189.685 106.04 189.525 105.824C189.365 105.6 189.153 105.488 188.889 105.488C188.633 105.488 188.421 105.6 188.253 105.824C188.093 106.04 188.013 106.372 188.013 106.82C188.013 107.26 188.093 107.592 188.253 107.816C188.421 108.04 188.633 108.152 188.889 108.152ZM194.589 113.096C194.189 113.096 193.829 113.004 193.509 112.82C193.197 112.628 192.953 112.36 192.777 112.016C192.601 111.664 192.513 111.252 192.513 110.78C192.513 110.308 192.601 109.9 192.777 109.556C192.953 109.212 193.197 108.944 193.509 108.752C193.829 108.56 194.189 108.464 194.589 108.464C195.005 108.464 195.369 108.56 195.681 108.752C195.993 108.944 196.237 109.212 196.413 109.556C196.589 109.9 196.677 110.308 196.677 110.78C196.677 111.252 196.589 111.664 196.413 112.016C196.237 112.36 195.993 112.628 195.681 112.82C195.369 113.004 195.005 113.096 194.589 113.096ZM194.589 112.112C194.853 112.112 195.065 112.004 195.225 111.788C195.385 111.564 195.465 111.228 195.465 110.78C195.465 110.34 195.385 110.008 195.225 109.784C195.065 109.56 194.853 109.448 194.589 109.448C194.333 109.448 194.121 109.56 193.953 109.784C193.793 110 193.713 110.332 193.713 110.78C193.713 111.228 193.793 111.564 193.953 111.788C194.121 112.004 194.333 112.112 194.589 112.112Z" fill="white"/>
<path d="M14.172 112.956L16.74 110.484C17.88 109.392 18.12 108.66 18.12 107.844C18.12 106.404 16.992 105.504 15.24 105.504C13.932 105.504 12.816 105.972 12.168 106.776L12.984 107.484C13.5 106.86 14.232 106.572 15.132 106.572C16.308 106.572 16.92 107.1 16.92 107.964C16.92 108.492 16.752 109.02 15.864 109.884L12.444 113.184V114H18.48V112.956H14.172ZM22.6135 114.096C24.5695 114.096 26.0335 112.536 26.0335 109.8C26.0335 107.064 24.5695 105.504 22.6135 105.504C20.6455 105.504 19.1815 107.064 19.1815 109.8C19.1815 112.536 20.6455 114.096 22.6135 114.096ZM22.6135 113.028C21.2935 113.028 20.3815 111.948 20.3815 109.8C20.3815 107.652 21.2935 106.572 22.6135 106.572C23.9215 106.572 24.8335 107.652 24.8335 109.8C24.8335 111.948 23.9215 113.028 22.6135 113.028ZM34.2434 110.904H32.6474V109.08H31.5194V110.904H28.2914L32.4074 105.6H31.1114L26.8154 111.096V111.936H31.4834V114H32.6474V111.936H34.2434V110.904ZM38.1447 114.096C40.1007 114.096 41.5647 112.536 41.5647 109.8C41.5647 107.064 40.1007 105.504 38.1447 105.504C36.1767 105.504 34.7127 107.064 34.7127 109.8C34.7127 112.536 36.1767 114.096 38.1447 114.096ZM38.1447 113.028C36.8247 113.028 35.9127 111.948 35.9127 109.8C35.9127 107.652 36.8247 106.572 38.1447 106.572C39.4527 106.572 40.3647 107.652 40.3647 109.8C40.3647 111.948 39.4527 113.028 38.1447 113.028ZM50.2426 112.092H51.4786V104.088H50.2426V105.408H47.3626V106.392H50.2426V107.46H47.3626V108.444H50.2426V112.092ZM48.5626 109.188C47.0626 109.452 45.7546 109.536 44.3506 109.548V104.832H43.1146V110.568H43.9546C45.5626 110.568 47.0026 110.496 48.6826 110.196L48.5626 109.188ZM45.6826 113.712V111.384H44.4466V114.72H51.7546V113.712H45.6826Z" fill="#435CE7"/>
<rect opacity="0.14" x="215" y="138" width="112" height="30" rx="7" fill="#10C469"/>
<rect x="215" y="138" width="112" height="34" rx="7" fill="#10C469"/>
<path d="M284.322 150.6V152.16H286.002V159H287.946V150.6H284.322ZM292.756 159.144C294.832 159.144 296.356 157.572 296.356 154.8C296.356 152.028 294.832 150.456 292.756 150.456C290.692 150.456 289.156 152.028 289.156 154.8C289.156 157.572 290.692 159.144 292.756 159.144ZM292.756 157.5C291.796 157.5 291.124 156.708 291.124 154.8C291.124 152.892 291.796 152.1 292.756 152.1C293.728 152.1 294.4 152.892 294.4 154.8C294.4 156.708 293.728 157.5 292.756 157.5ZM300.65 159.144C302.726 159.144 304.25 157.572 304.25 154.8C304.25 152.028 302.726 150.456 300.65 150.456C298.586 150.456 297.05 152.028 297.05 154.8C297.05 157.572 298.586 159.144 300.65 159.144ZM300.65 157.5C299.69 157.5 299.018 156.708 299.018 154.8C299.018 152.892 299.69 152.1 300.65 152.1C301.622 152.1 302.294 152.892 302.294 154.8C302.294 156.708 301.622 157.5 300.65 157.5ZM306.889 155.136C308.113 155.136 308.965 154.248 308.965 152.82C308.965 151.392 308.113 150.504 306.889 150.504C305.665 150.504 304.801 151.404 304.801 152.82C304.801 154.236 305.665 155.136 306.889 155.136ZM306.157 159H307.585L313.321 150.6H311.893L306.157 159ZM306.889 154.152C306.373 154.152 306.013 153.708 306.013 152.82C306.013 151.932 306.373 151.488 306.889 151.488C307.417 151.488 307.765 151.92 307.765 152.82C307.765 153.72 307.417 154.152 306.889 154.152ZM312.589 159.096C313.813 159.096 314.677 158.196 314.677 156.78C314.677 155.364 313.813 154.464 312.589 154.464C311.377 154.464 310.513 155.364 310.513 156.78C310.513 158.196 311.377 159.096 312.589 159.096ZM312.589 158.112C312.073 158.112 311.713 157.68 311.713 156.78C311.713 155.88 312.073 155.448 312.589 155.448C313.117 155.448 313.465 155.892 313.465 156.78C313.465 157.668 313.117 158.112 312.589 158.112Z" fill="white"/>
<rect opacity="0.5" y="138" width="209" height="34" rx="7" fill="#D4DFFA"/>
<path d="M209 145C209 141.134 205.866 138 202 138L7 138C3.134 138 0 141.134 0 145V165C0 168.866 3.134 172 7 172L202 172C205.866 172 209 168.866 209 165V145Z" fill="#435CE7"/>
<path d="M168.002 159V151.32L168.842 152.16H166.322V150.6H169.946V159H168.002ZM174.756 159.144C174.068 159.144 173.452 158.976 172.908 158.64C172.364 158.296 171.936 157.8 171.624 157.152C171.312 156.504 171.156 155.72 171.156 154.8C171.156 153.88 171.312 153.096 171.624 152.448C171.936 151.8 172.364 151.308 172.908 150.972C173.452 150.628 174.068 150.456 174.756 150.456C175.452 150.456 176.068 150.628 176.604 150.972C177.148 151.308 177.576 151.8 177.888 152.448C178.2 153.096 178.356 153.88 178.356 154.8C178.356 155.72 178.2 156.504 177.888 157.152C177.576 157.8 177.148 158.296 176.604 158.64C176.068 158.976 175.452 159.144 174.756 159.144ZM174.756 157.5C175.084 157.5 175.368 157.408 175.608 157.224C175.856 157.04 176.048 156.748 176.184 156.348C176.328 155.948 176.4 155.432 176.4 154.8C176.4 154.168 176.328 153.652 176.184 153.252C176.048 152.852 175.856 152.56 175.608 152.376C175.368 152.192 175.084 152.1 174.756 152.1C174.436 152.1 174.152 152.192 173.904 152.376C173.664 152.56 173.472 152.852 173.328 153.252C173.192 153.652 173.124 154.168 173.124 154.8C173.124 155.432 173.192 155.948 173.328 156.348C173.472 156.748 173.664 157.04 173.904 157.224C174.152 157.408 174.436 157.5 174.756 157.5ZM182.65 159.144C181.962 159.144 181.346 158.976 180.802 158.64C180.258 158.296 179.83 157.8 179.518 157.152C179.206 156.504 179.05 155.72 179.05 154.8C179.05 153.88 179.206 153.096 179.518 152.448C179.83 151.8 180.258 151.308 180.802 150.972C181.346 150.628 181.962 150.456 182.65 150.456C183.346 150.456 183.962 150.628 184.498 150.972C185.042 151.308 185.47 151.8 185.782 152.448C186.094 153.096 186.25 153.88 186.25 154.8C186.25 155.72 186.094 156.504 185.782 157.152C185.47 157.8 185.042 158.296 184.498 158.64C183.962 158.976 183.346 159.144 182.65 159.144ZM182.65 157.5C182.978 157.5 183.262 157.408 183.502 157.224C183.75 157.04 183.942 156.748 184.078 156.348C184.222 155.948 184.294 155.432 184.294 154.8C184.294 154.168 184.222 153.652 184.078 153.252C183.942 152.852 183.75 152.56 183.502 152.376C183.262 152.192 182.978 152.1 182.65 152.1C182.33 152.1 182.046 152.192 181.798 152.376C181.558 152.56 181.366 152.852 181.222 153.252C181.086 153.652 181.018 154.168 181.018 154.8C181.018 155.432 181.086 155.948 181.222 156.348C181.366 156.748 181.558 157.04 181.798 157.224C182.046 157.408 182.33 157.5 182.65 157.5ZM188.157 159L193.893 150.6H195.321L189.585 159H188.157ZM188.889 155.136C188.481 155.136 188.121 155.044 187.809 154.86C187.497 154.668 187.249 154.4 187.065 154.056C186.889 153.704 186.801 153.292 186.801 152.82C186.801 152.348 186.889 151.94 187.065 151.596C187.249 151.252 187.497 150.984 187.809 150.792C188.121 150.6 188.481 150.504 188.889 150.504C189.297 150.504 189.657 150.6 189.969 150.792C190.281 150.984 190.525 151.252 190.701 151.596C190.877 151.94 190.965 152.348 190.965 152.82C190.965 153.292 190.877 153.704 190.701 154.056C190.525 154.4 190.281 154.668 189.969 154.86C189.657 155.044 189.297 155.136 188.889 155.136ZM188.889 154.152C189.153 154.152 189.365 154.044 189.525 153.828C189.685 153.604 189.765 153.268 189.765 152.82C189.765 152.372 189.685 152.04 189.525 151.824C189.365 151.6 189.153 151.488 188.889 151.488C188.633 151.488 188.421 151.6 188.253 151.824C188.093 152.04 188.013 152.372 188.013 152.82C188.013 153.26 188.093 153.592 188.253 153.816C188.421 154.04 188.633 154.152 188.889 154.152ZM194.589 159.096C194.189 159.096 193.829 159.004 193.509 158.82C193.197 158.628 192.953 158.36 192.777 158.016C192.601 157.664 192.513 157.252 192.513 156.78C192.513 156.308 192.601 155.9 192.777 155.556C192.953 155.212 193.197 154.944 193.509 154.752C193.829 154.56 194.189 154.464 194.589 154.464C195.005 154.464 195.369 154.56 195.681 154.752C195.993 154.944 196.237 155.212 196.413 155.556C196.589 155.9 196.677 156.308 196.677 156.78C196.677 157.252 196.589 157.664 196.413 158.016C196.237 158.36 195.993 158.628 195.681 158.82C195.369 159.004 195.005 159.096 194.589 159.096ZM194.589 158.112C194.853 158.112 195.065 158.004 195.225 157.788C195.385 157.564 195.465 157.228 195.465 156.78C195.465 156.34 195.385 156.008 195.225 155.784C195.065 155.56 194.853 155.448 194.589 155.448C194.333 155.448 194.121 155.56 193.953 155.784C193.793 156 193.713 156.332 193.713 156.78C193.713 157.228 193.793 157.564 193.953 157.788C194.121 158.004 194.333 158.112 194.589 158.112Z" fill="white"/>
<path d="M12.444 160V159.184L15.864 155.884C16.168 155.596 16.392 155.344 16.536 155.128C16.688 154.904 16.788 154.7 16.836 154.516C16.892 154.324 16.92 154.14 16.92 153.964C16.92 153.532 16.768 153.192 16.464 152.944C16.16 152.696 15.716 152.572 15.132 152.572C14.684 152.572 14.28 152.648 13.92 152.8C13.56 152.944 13.248 153.172 12.984 153.484L12.168 152.776C12.488 152.368 12.916 152.056 13.452 151.84C13.996 151.616 14.592 151.504 15.24 151.504C15.824 151.504 16.332 151.6 16.764 151.792C17.196 151.976 17.528 152.244 17.76 152.596C18 152.948 18.12 153.364 18.12 153.844C18.12 154.116 18.084 154.384 18.012 154.648C17.94 154.912 17.804 155.192 17.604 155.488C17.404 155.784 17.116 156.116 16.74 156.484L13.692 159.424L13.404 158.956H18.48V160H12.444ZM22.6369 160.096C21.9809 160.096 21.3929 159.928 20.8729 159.592C20.3609 159.256 19.9529 158.768 19.6489 158.128C19.3529 157.488 19.2049 156.712 19.2049 155.8C19.2049 154.888 19.3529 154.112 19.6489 153.472C19.9529 152.832 20.3609 152.344 20.8729 152.008C21.3929 151.672 21.9809 151.504 22.6369 151.504C23.2849 151.504 23.8689 151.672 24.3889 152.008C24.9089 152.344 25.3169 152.832 25.6129 153.472C25.9089 154.112 26.0569 154.888 26.0569 155.8C26.0569 156.712 25.9089 157.488 25.6129 158.128C25.3169 158.768 24.9089 159.256 24.3889 159.592C23.8689 159.928 23.2849 160.096 22.6369 160.096ZM22.6369 159.028C23.0769 159.028 23.4609 158.908 23.7889 158.668C24.1249 158.428 24.3849 158.068 24.5689 157.588C24.7609 157.108 24.8569 156.512 24.8569 155.8C24.8569 155.088 24.7609 154.492 24.5689 154.012C24.3849 153.532 24.1249 153.172 23.7889 152.932C23.4609 152.692 23.0769 152.572 22.6369 152.572C22.1969 152.572 21.8089 152.692 21.4729 152.932C21.1369 153.172 20.8729 153.532 20.6809 154.012C20.4969 154.492 20.4049 155.088 20.4049 155.8C20.4049 156.512 20.4969 157.108 20.6809 157.588C20.8729 158.068 21.1369 158.428 21.4729 158.668C21.8089 158.908 22.1969 159.028 22.6369 159.028ZM29.6708 160.096C29.0788 160.096 28.5028 160.004 27.9428 159.82C27.3908 159.636 26.9388 159.388 26.5868 159.076L27.1388 158.128C27.4188 158.392 27.7828 158.608 28.2308 158.776C28.6788 158.944 29.1548 159.028 29.6588 159.028C30.2988 159.028 30.7908 158.892 31.1348 158.62C31.4788 158.348 31.6508 157.984 31.6508 157.528C31.6508 157.216 31.5748 156.944 31.4228 156.712C31.2708 156.48 31.0068 156.304 30.6308 156.184C30.2628 156.056 29.7548 155.992 29.1068 155.992H27.1988L27.6428 151.6H32.3828V152.644H28.0868L28.7108 152.056L28.3628 155.524L27.7388 154.948H29.3588C30.1988 154.948 30.8748 155.056 31.3868 155.272C31.8988 155.488 32.2708 155.788 32.5028 156.172C32.7348 156.548 32.8508 156.984 32.8508 157.48C32.8508 157.96 32.7348 158.4 32.5028 158.8C32.2708 159.192 31.9188 159.508 31.4468 159.748C30.9828 159.98 30.3908 160.096 29.6708 160.096ZM37.0314 160.096C36.3754 160.096 35.7874 159.928 35.2674 159.592C34.7554 159.256 34.3474 158.768 34.0434 158.128C33.7474 157.488 33.5994 156.712 33.5994 155.8C33.5994 154.888 33.7474 154.112 34.0434 153.472C34.3474 152.832 34.7554 152.344 35.2674 152.008C35.7874 151.672 36.3754 151.504 37.0314 151.504C37.6794 151.504 38.2634 151.672 38.7834 152.008C39.3034 152.344 39.7114 152.832 40.0074 153.472C40.3034 154.112 40.4514 154.888 40.4514 155.8C40.4514 156.712 40.3034 157.488 40.0074 158.128C39.7114 158.768 39.3034 159.256 38.7834 159.592C38.2634 159.928 37.6794 160.096 37.0314 160.096ZM37.0314 159.028C37.4714 159.028 37.8554 158.908 38.1834 158.668C38.5194 158.428 38.7794 158.068 38.9634 157.588C39.1554 157.108 39.2514 156.512 39.2514 155.8C39.2514 155.088 39.1554 154.492 38.9634 154.012C38.7794 153.532 38.5194 153.172 38.1834 152.932C37.8554 152.692 37.4714 152.572 37.0314 152.572C36.5914 152.572 36.2034 152.692 35.8674 152.932C35.5314 153.172 35.2674 153.532 35.0754 154.012C34.8914 154.492 34.7994 155.088 34.7994 155.8C34.7994 156.512 34.8914 157.108 35.0754 157.588C35.2674 158.068 35.5314 158.428 35.8674 158.668C36.2034 158.908 36.5914 159.028 37.0314 159.028ZM49.1293 158.092H50.3653V150.088H49.1293V151.408H46.2493V152.392H49.1293V153.46H46.2493V154.444H49.1293V158.092ZM47.4493 155.188C45.9493 155.452 44.6413 155.536 43.2373 155.548V150.832H42.0013V156.568H42.8413C44.4493 156.568 45.8893 156.496 47.5693 156.196L47.4493 155.188ZM44.5693 159.712V157.384H43.3333V160.72H50.6413V159.712H44.5693Z" fill="white"/>
<path d="M9.52267 215.55H11.6417V214.679H6.23367V215.55H8.49567V216.46C8.49567 218.826 7.62467 220.815 5.96067 221.751L6.61067 222.557C7.81967 221.855 8.63867 220.594 9.02867 219.008C9.44467 220.386 10.2507 221.517 11.3947 222.154L12.0187 221.335C10.3677 220.477 9.52267 218.592 9.52267 216.46V215.55ZM14.9957 213.288V218.007H13.4617V213.561H12.4607V224.39H13.4617V218.891H14.9957V224.962H16.0227V213.288H14.9957ZM25.1187 217.305H26.6007V220.503H27.6277V213.314H26.6007V216.434H25.1187V213.535H24.1047V220.126H25.1187V217.305ZM23.6237 218.774C22.1287 218.202 21.2577 216.889 21.2577 215.602V214.029H20.2307V215.602C20.2307 216.902 19.3207 218.41 17.7997 219.086L18.3717 219.918C19.5027 219.411 20.3347 218.423 20.7507 217.331C21.1667 218.319 21.9597 219.151 23.0517 219.593L23.6237 218.774ZM23.7797 224.13C22.0377 224.13 20.9457 223.662 20.9457 222.856C20.9457 222.05 22.0377 221.595 23.7797 221.595C25.5477 221.595 26.6267 222.05 26.6267 222.856C26.6267 223.662 25.5477 224.13 23.7797 224.13ZM23.7797 220.763C21.3877 220.763 19.8927 221.53 19.8927 222.856C19.8927 224.182 21.3877 224.949 23.7797 224.949C26.1847 224.949 27.6797 224.182 27.6797 222.856C27.6797 221.53 26.1847 220.763 23.7797 220.763ZM32.1346 221.413C31.1986 221.413 30.6136 220.23 30.6136 218.319C30.6136 216.447 31.1986 215.264 32.1346 215.264C33.0446 215.264 33.6426 216.447 33.6426 218.319C33.6426 220.23 33.0446 221.413 32.1346 221.413ZM36.0736 217.838H34.6046C34.4746 215.641 33.5386 214.276 32.1346 214.276C30.6136 214.276 29.6386 215.836 29.6386 218.319C29.6386 220.841 30.6136 222.401 32.1346 222.401C33.5646 222.401 34.5136 220.997 34.6046 218.709H36.0736V224.39H37.0876V213.561H36.0736V217.838ZM38.3876 213.301V224.962H39.4016V213.301H38.3876ZM42.9076 214.601H41.8416V222.167H42.7516C44.5976 222.167 46.2356 222.05 48.0816 221.699L47.9386 220.789C46.2226 221.14 44.6366 221.257 42.9076 221.27V214.601ZM49.7456 213.301V217.149H46.1706V218.033H49.7456V224.988H50.8116V213.301H49.7456ZM57.0736 215.381H59.8166V214.497H53.3036V215.381H56.0076V216.863C56.0076 218.878 54.5906 221.075 52.9136 221.868L53.5376 222.726C54.8636 222.05 56.0076 220.581 56.5406 218.878C57.0996 220.477 58.2436 221.816 59.5956 222.44L60.1936 221.582C58.4776 220.854 57.0736 218.839 57.0736 216.863V215.381ZM61.3896 213.314V224.962H62.4556V213.314H61.3896ZM73.4678 216.525V217.396H75.8078V221.855H76.8868V213.314H75.8078V216.525H73.4678ZM74.1568 219.268C72.4668 218.67 71.3228 217.214 71.3228 215.693V215.121H73.8838V214.25H67.6568V215.121H70.2568V215.706C70.2568 217.357 69.0478 218.904 67.3188 219.528L67.8778 220.36C69.2428 219.866 70.3088 218.787 70.8158 217.461C71.3228 218.657 72.3238 219.632 73.6238 220.1L74.1568 219.268ZM70.5038 223.831V221.101H69.4248V224.702H77.2118V223.831H70.5038ZM85.9178 214.445H83.1098V213.262H82.0438V214.445H79.2228V215.238H85.9178V214.445ZM80.8608 217.513C80.8608 216.889 81.5238 216.486 82.5768 216.486C83.6038 216.486 84.2798 216.889 84.2798 217.513C84.2798 218.163 83.6038 218.553 82.5768 218.553C81.5238 218.553 80.8608 218.163 80.8608 217.513ZM86.2688 219.814C85.2678 219.983 84.1758 220.074 83.1098 220.126V219.294C84.4488 219.151 85.2938 218.514 85.2938 217.513C85.2938 216.408 84.2018 215.732 82.5768 215.732C80.9388 215.732 79.8468 216.408 79.8468 217.513C79.8468 218.514 80.7048 219.164 82.0438 219.294V220.178C80.9258 220.217 79.8468 220.23 78.9368 220.23L79.0538 221.088C81.0818 221.075 83.8768 221.036 86.3468 220.581L86.2688 219.814ZM81.7188 221.829H80.6528V224.702H88.4398V223.831H81.7188V221.829ZM88.0238 217.37V213.301H86.9578V222.427H88.0238V218.254H89.7398V217.37H88.0238ZM93.3368 221.413C92.4008 221.413 91.8158 220.23 91.8158 218.319C91.8158 216.447 92.4008 215.264 93.3368 215.264C94.2468 215.264 94.8448 216.447 94.8448 218.319C94.8448 220.23 94.2468 221.413 93.3368 221.413ZM97.2758 217.838H95.8068C95.6768 215.641 94.7408 214.276 93.3368 214.276C91.8158 214.276 90.8408 215.836 90.8408 218.319C90.8408 220.841 91.8158 222.401 93.3368 222.401C94.7668 222.401 95.7158 220.997 95.8068 218.709H97.2758V224.39H98.2898V213.561H97.2758V217.838ZM99.5898 213.301V224.962H100.604V213.301H99.5898ZM106.468 215.394H108.353V214.523H105.415V221.907H105.935C106.637 221.907 107.495 221.894 108.587 221.66L108.47 220.776C107.716 220.932 107.04 220.997 106.468 221.01V215.394ZM110.056 215.394H112.097V214.523H109.003V221.907H109.575C110.771 221.907 111.577 221.881 112.565 221.634L112.448 220.75C111.668 220.945 110.953 221.01 110.056 221.023V215.394ZM115.906 217.877H114.216V213.288H113.15V224.962H114.216V218.774H115.906V217.877ZM124.937 215.797H118.125V218.696H126.237V217.864H119.178V216.59H125.99V213.691H118.099V214.523H124.937V215.797ZM119.217 221.53H118.151V224.702H126.237V223.831H119.217V221.53ZM116.76 219.762V220.633H127.342V219.762H116.76ZM133.557 221.335H132.491V224.702H140.512V223.831H133.557V221.335ZM133.401 215.979C133.401 215.056 134.571 214.51 136.417 214.51C138.237 214.51 139.407 215.056 139.407 215.979C139.407 216.902 138.237 217.435 136.417 217.435C134.571 217.435 133.401 216.902 133.401 215.979ZM136.95 219.502V218.28C139.121 218.163 140.499 217.318 140.499 215.979C140.499 214.523 138.9 213.652 136.417 213.652C133.908 213.652 132.309 214.523 132.309 215.979C132.309 217.331 133.687 218.163 135.884 218.28V219.502H131.139V220.373H141.669V219.502H136.95ZM152.403 213.314H151.337V219.346H152.403V213.314ZM149.907 218.176C148.178 217.604 146.956 216.148 146.956 214.536V213.652H145.89V214.536C145.89 216.226 144.681 217.786 142.926 218.397L143.472 219.229C144.85 218.735 145.929 217.669 146.436 216.33C146.969 217.565 148.035 218.54 149.374 219.008L149.907 218.176ZM145.942 223.987V222.739H152.416V219.931H144.863V220.776H151.363V221.933H144.889V224.832H152.806V223.987H145.942ZM155.181 214.549V215.433H159.458C159.211 218.189 157.612 220.425 154.635 221.92L155.22 222.752C158.99 220.867 160.511 217.864 160.511 214.549H155.181ZM165.399 218.033H163.527V213.301H162.461V224.962H163.527V218.917H165.399V218.033ZM176.315 219.164C174.274 218.774 172.064 217.006 172.064 215.017V214.12H170.946V215.017C170.946 217.006 168.749 218.761 166.708 219.164L167.189 220.048C168.944 219.632 170.764 218.384 171.505 216.681C172.246 218.397 174.066 219.645 175.834 220.048L176.315 219.164ZM166.266 222.518V223.402H176.835V222.518H166.266ZM184.662 215.368H187.314V214.497H180.957V215.368H183.596V216.72C183.596 218.787 182.205 220.997 180.541 221.816L181.165 222.661C182.491 221.959 183.622 220.464 184.129 218.748C184.662 220.36 185.78 221.751 187.08 222.414L187.717 221.582C186.027 220.776 184.662 218.657 184.662 216.72V215.368ZM189.173 213.301V217.539H186.651V218.41H189.173V224.975H190.239V213.301H189.173ZM192.848 214.042V214.913H197.086C196.878 216.889 195.175 218.423 192.328 219.19L192.744 220.035C196.176 219.099 198.23 217.006 198.23 214.042H192.848ZM195.097 221.322H200.336V223.935H195.097V221.322ZM194.044 224.793H201.389V220.464H194.044V224.793ZM203.118 216.148H201.389V213.288H200.323V219.918H201.389V217.032H203.118V216.148Z" fill="#666666"/>
<path d="M233.199 215.55H235.318V214.679H229.91V215.55H232.172V216.46C232.172 218.826 231.301 220.815 229.637 221.751L230.287 222.557C231.496 221.855 232.315 220.594 232.705 219.008C233.121 220.386 233.927 221.517 235.071 222.154L235.695 221.335C234.044 220.477 233.199 218.592 233.199 216.46V215.55ZM238.672 213.288V218.007H237.138V213.561H236.137V224.39H237.138V218.891H238.672V224.962H239.699V213.288H238.672ZM248.795 217.305H250.277V220.503H251.304V213.314H250.277V216.434H248.795V213.535H247.781V220.126H248.795V217.305ZM247.3 218.774C245.805 218.202 244.934 216.889 244.934 215.602V214.029H243.907V215.602C243.907 216.902 242.997 218.41 241.476 219.086L242.048 219.918C243.179 219.411 244.011 218.423 244.427 217.331C244.843 218.319 245.636 219.151 246.728 219.593L247.3 218.774ZM247.456 224.13C245.714 224.13 244.622 223.662 244.622 222.856C244.622 222.05 245.714 221.595 247.456 221.595C249.224 221.595 250.303 222.05 250.303 222.856C250.303 223.662 249.224 224.13 247.456 224.13ZM247.456 220.763C245.064 220.763 243.569 221.53 243.569 222.856C243.569 224.182 245.064 224.949 247.456 224.949C249.861 224.949 251.356 224.182 251.356 222.856C251.356 221.53 249.861 220.763 247.456 220.763ZM255.811 221.413C254.875 221.413 254.29 220.23 254.29 218.319C254.29 216.447 254.875 215.264 255.811 215.264C256.721 215.264 257.319 216.447 257.319 218.319C257.319 220.23 256.721 221.413 255.811 221.413ZM259.75 217.838H258.281C258.151 215.641 257.215 214.276 255.811 214.276C254.29 214.276 253.315 215.836 253.315 218.319C253.315 220.841 254.29 222.401 255.811 222.401C257.241 222.401 258.19 220.997 258.281 218.709H259.75V224.39H260.764V213.561H259.75V217.838ZM262.064 213.301V224.962H263.078V213.301H262.064ZM266.584 214.601H265.518V222.167H266.428C268.274 222.167 269.912 222.05 271.758 221.699L271.615 220.789C269.899 221.14 268.313 221.257 266.584 221.27V214.601ZM273.422 213.301V217.149H269.847V218.033H273.422V224.988H274.488V213.301H273.422ZM280.75 215.381H283.493V214.497H276.98V215.381H279.684V216.863C279.684 218.878 278.267 221.075 276.59 221.868L277.214 222.726C278.54 222.05 279.684 220.581 280.217 218.878C280.776 220.477 281.92 221.816 283.272 222.44L283.87 221.582C282.154 220.854 280.75 218.839 280.75 216.863V215.381ZM285.066 213.314V224.962H286.132V213.314H285.066ZM297.144 216.525V217.396H299.484V221.855H300.563V213.314H299.484V216.525H297.144ZM297.833 219.268C296.143 218.67 294.999 217.214 294.999 215.693V215.121H297.56V214.25H291.333V215.121H293.933V215.706C293.933 217.357 292.724 218.904 290.995 219.528L291.554 220.36C292.919 219.866 293.985 218.787 294.492 217.461C294.999 218.657 296 219.632 297.3 220.1L297.833 219.268ZM294.18 223.831V221.101H293.101V224.702H300.888V223.831H294.18ZM309.594 214.445H306.786V213.262H305.72V214.445H302.899V215.238H309.594V214.445ZM304.537 217.513C304.537 216.889 305.2 216.486 306.253 216.486C307.28 216.486 307.956 216.889 307.956 217.513C307.956 218.163 307.28 218.553 306.253 218.553C305.2 218.553 304.537 218.163 304.537 217.513ZM309.945 219.814C308.944 219.983 307.852 220.074 306.786 220.126V219.294C308.125 219.151 308.97 218.514 308.97 217.513C308.97 216.408 307.878 215.732 306.253 215.732C304.615 215.732 303.523 216.408 303.523 217.513C303.523 218.514 304.381 219.164 305.72 219.294V220.178C304.602 220.217 303.523 220.23 302.613 220.23L302.73 221.088C304.758 221.075 307.553 221.036 310.023 220.581L309.945 219.814ZM305.395 221.829H304.329V224.702H312.116V223.831H305.395V221.829ZM311.7 217.37V213.301H310.634V222.427H311.7V218.254H313.416V217.37H311.7Z" fill="#666666"/>
</svg>
