<svg width="1200" height="370" viewBox="0 0 1200 370" fill="none" xmlns="http://www.w3.org/2000/svg">
<mask id="path-1-inside-1_5200_37980" fill="white">
<path d="M0 0H740V330H0V0Z"/>
</mask>
<path d="M740 329H0V331H740V329Z" fill="#DDDDDD" mask="url(#path-1-inside-1_5200_37980)"/>
<mask id="path-3-inside-2_5200_37980" fill="white">
<path d="M780 0H1200V330H780V0Z"/>
</mask>
<path d="M1200 329H780V331H1200V329Z" fill="#DDDDDD" mask="url(#path-3-inside-2_5200_37980)"/>
<rect opacity="0.14" x="779.994" width="419.997" height="60" rx="10" fill="#10C469"/>
<rect x="915" width="285" height="60" rx="10" fill="#10C469"/>
<path d="M1145.12 35.2959C1144.23 35.2959 1143.45 35.1093 1142.79 34.7359C1142.13 34.3626 1141.63 33.8166 1141.27 33.0979C1140.92 32.3793 1140.74 31.4926 1140.74 30.4379C1140.74 29.3086 1140.95 28.3519 1141.37 27.5679C1141.8 26.7839 1142.39 26.1866 1143.14 25.7759C1143.89 25.3653 1144.76 25.1599 1145.74 25.1599C1146.26 25.1599 1146.76 25.2159 1147.24 25.3279C1147.71 25.4399 1148.12 25.6079 1148.47 25.8319L1147.63 27.4979C1147.36 27.3113 1147.07 27.1853 1146.76 27.1199C1146.45 27.0453 1146.13 27.0079 1145.8 27.0079C1144.95 27.0079 1144.27 27.2646 1143.78 27.7779C1143.28 28.2913 1143.04 29.0519 1143.04 30.0599C1143.04 30.2279 1143.04 30.4146 1143.04 30.6199C1143.05 30.8253 1143.07 31.0306 1143.12 31.2359L1142.49 30.6479C1142.67 30.2839 1142.9 29.9806 1143.18 29.7379C1143.46 29.4859 1143.79 29.2993 1144.17 29.1779C1144.56 29.0473 1144.99 28.9819 1145.46 28.9819C1146.09 28.9819 1146.66 29.1079 1147.17 29.3599C1147.67 29.6119 1148.07 29.9666 1148.37 30.4239C1148.68 30.8813 1148.83 31.4179 1148.83 32.0339C1148.83 32.6966 1148.67 33.2753 1148.33 33.7699C1148 34.2553 1147.56 34.6333 1147 34.9039C1146.45 35.1653 1145.82 35.2959 1145.12 35.2959ZM1145 33.6019C1145.31 33.6019 1145.59 33.5459 1145.84 33.4339C1146.09 33.3126 1146.29 33.1399 1146.43 32.9159C1146.57 32.6919 1146.64 32.4353 1146.64 32.1459C1146.64 31.6979 1146.48 31.3433 1146.17 31.0819C1145.87 30.8113 1145.47 30.6759 1144.97 30.6759C1144.63 30.6759 1144.34 30.7413 1144.09 30.8719C1143.84 30.9933 1143.63 31.1659 1143.49 31.3899C1143.35 31.6046 1143.28 31.8566 1143.28 32.1459C1143.28 32.4259 1143.35 32.6779 1143.49 32.9019C1143.63 33.1166 1143.82 33.2893 1144.07 33.4199C1144.33 33.5413 1144.63 33.6019 1145 33.6019ZM1153.47 35.2959C1152.64 35.2959 1151.93 35.1746 1151.31 34.9319C1150.69 34.6799 1150.21 34.3299 1149.87 33.8819C1149.52 33.4246 1149.35 32.8926 1149.35 32.2859C1149.35 31.6793 1149.52 31.1659 1149.85 30.7459C1150.2 30.3166 1150.68 29.9946 1151.3 29.7799C1151.91 29.5559 1152.63 29.4439 1153.47 29.4439C1154.31 29.4439 1155.03 29.5559 1155.65 29.7799C1156.27 29.9946 1156.76 30.3166 1157.09 30.7459C1157.44 31.1659 1157.61 31.6793 1157.61 32.2859C1157.61 32.8926 1157.44 33.4246 1157.09 33.8819C1156.75 34.3299 1156.26 34.6799 1155.64 34.9319C1155.02 35.1746 1154.3 35.2959 1153.47 35.2959ZM1153.47 33.6299C1154.03 33.6299 1154.48 33.5039 1154.81 33.2519C1155.15 32.9999 1155.31 32.6546 1155.31 32.2159C1155.31 31.7773 1155.15 31.4366 1154.81 31.1939C1154.48 30.9419 1154.03 30.8159 1153.47 30.8159C1152.91 30.8159 1152.46 30.9419 1152.14 31.1939C1151.81 31.4366 1151.65 31.7773 1151.65 32.2159C1151.65 32.6546 1151.81 32.9999 1152.14 33.2519C1152.46 33.5039 1152.91 33.6299 1153.47 33.6299ZM1153.47 30.5919C1152.71 30.5919 1152.05 30.4893 1151.48 30.2839C1150.92 30.0786 1150.48 29.7799 1150.16 29.3879C1149.85 28.9866 1149.7 28.5106 1149.7 27.9599C1149.7 27.3813 1149.86 26.8866 1150.18 26.4759C1150.49 26.0559 1150.94 25.7339 1151.51 25.5099C1152.07 25.2766 1152.73 25.1599 1153.47 25.1599C1154.22 25.1599 1154.88 25.2766 1155.44 25.5099C1156.01 25.7339 1156.45 26.0559 1156.77 26.4759C1157.1 26.8866 1157.26 27.3813 1157.26 27.9599C1157.26 28.5106 1157.1 28.9866 1156.78 29.3879C1156.48 29.7799 1156.04 30.0786 1155.47 30.2839C1154.9 30.4893 1154.23 30.5919 1153.47 30.5919ZM1153.47 29.2619C1153.94 29.2619 1154.31 29.1546 1154.59 28.9399C1154.87 28.7253 1155.01 28.4313 1155.01 28.0579C1155.01 27.6659 1154.86 27.3626 1154.57 27.1479C1154.29 26.9333 1153.92 26.8259 1153.47 26.8259C1153.02 26.8259 1152.65 26.9333 1152.37 27.1479C1152.09 27.3626 1151.95 27.6659 1151.95 28.0579C1151.95 28.4313 1152.09 28.7253 1152.36 28.9399C1152.63 29.1546 1153 29.2619 1153.47 29.2619ZM1159.67 35.1279L1166.37 25.3279H1168.03L1161.34 35.1279H1159.67ZM1160.53 30.6199C1160.05 30.6199 1159.63 30.5126 1159.27 30.2979C1158.9 30.0739 1158.62 29.7613 1158.4 29.3599C1158.2 28.9493 1158.09 28.4686 1158.09 27.9179C1158.09 27.3673 1158.2 26.8913 1158.4 26.4899C1158.62 26.0886 1158.9 25.7759 1159.27 25.5519C1159.63 25.3279 1160.05 25.2159 1160.53 25.2159C1161 25.2159 1161.42 25.3279 1161.79 25.5519C1162.15 25.7759 1162.44 26.0886 1162.64 26.4899C1162.85 26.8913 1162.95 27.3673 1162.95 27.9179C1162.95 28.4686 1162.85 28.9493 1162.64 29.3599C1162.44 29.7613 1162.15 30.0739 1161.79 30.2979C1161.42 30.5126 1161 30.6199 1160.53 30.6199ZM1160.53 29.4719C1160.84 29.4719 1161.08 29.3459 1161.27 29.0939C1161.46 28.8326 1161.55 28.4406 1161.55 27.9179C1161.55 27.3953 1161.46 27.0079 1161.27 26.7559C1161.08 26.4946 1160.84 26.3639 1160.53 26.3639C1160.23 26.3639 1159.98 26.4946 1159.79 26.7559C1159.6 27.0079 1159.51 27.3953 1159.51 27.9179C1159.51 28.4313 1159.6 28.8186 1159.79 29.0799C1159.98 29.3413 1160.23 29.4719 1160.53 29.4719ZM1167.18 35.2399C1166.71 35.2399 1166.29 35.1326 1165.92 34.9179C1165.55 34.6939 1165.27 34.3813 1165.06 33.9799C1164.86 33.5693 1164.76 33.0886 1164.76 32.5379C1164.76 31.9873 1164.86 31.5113 1165.06 31.1099C1165.27 30.7086 1165.55 30.3959 1165.92 30.1719C1166.29 29.9479 1166.71 29.8359 1167.18 29.8359C1167.66 29.8359 1168.09 29.9479 1168.45 30.1719C1168.82 30.3959 1169.1 30.7086 1169.31 31.1099C1169.51 31.5113 1169.61 31.9873 1169.61 32.5379C1169.61 33.0886 1169.51 33.5693 1169.31 33.9799C1169.1 34.3813 1168.82 34.6939 1168.45 34.9179C1168.09 35.1326 1167.66 35.2399 1167.18 35.2399ZM1167.18 34.0919C1167.49 34.0919 1167.73 33.9659 1167.92 33.7139C1168.11 33.4526 1168.2 33.0606 1168.2 32.5379C1168.2 32.0246 1168.11 31.6373 1167.92 31.3759C1167.73 31.1146 1167.49 30.9839 1167.18 30.9839C1166.88 30.9839 1166.63 31.1146 1166.44 31.3759C1166.25 31.6279 1166.16 32.0153 1166.16 32.5379C1166.16 33.0606 1166.25 33.4526 1166.44 33.7139C1166.63 33.9659 1166.88 34.0919 1167.18 34.0919Z" fill="white"/>
<rect opacity="0.5" width="740" height="60" rx="10" fill="#D4DFFA"/>
<rect width="326" height="60" rx="10" transform="matrix(-1 0 0 1 740 0)" fill="#435CE7"/>
<path d="M684.665 34.2989C683.983 34.2989 683.307 34.2102 682.635 34.0329C681.972 33.8462 681.403 33.5849 680.927 33.2489L681.823 31.5129C682.196 31.7835 682.625 31.9982 683.111 32.1569C683.605 32.3155 684.105 32.3949 684.609 32.3949C685.178 32.3949 685.626 32.2829 685.953 32.0589C686.279 31.8349 686.443 31.5222 686.443 31.1209C686.443 30.8689 686.377 30.6449 686.247 30.4489C686.116 30.2529 685.883 30.1035 685.547 30.0009C685.22 29.8982 684.758 29.8469 684.161 29.8469H681.655L682.159 24.3309L688.137 24.3309V26.1509L682.971 26.1509L684.147 25.1149L683.797 29.0489L682.621 28.0129L684.693 28.0129C685.663 28.0129 686.443 28.1482 687.031 28.4189C687.628 28.6802 688.062 29.0395 688.333 29.4969C688.603 29.9542 688.739 30.4722 688.739 31.0509C688.739 31.6295 688.594 32.1662 688.305 32.6609C688.015 33.1462 687.567 33.5429 686.961 33.8509C686.363 34.1495 685.598 34.2989 684.665 34.2989ZM693.469 34.2989C692.647 34.2989 691.929 34.1775 691.313 33.9349C690.697 33.6829 690.216 33.3329 689.871 32.8849C689.525 32.4275 689.353 31.8955 689.353 31.2889C689.353 30.6822 689.521 30.1689 689.857 29.7489C690.202 29.3195 690.683 28.9975 691.299 28.7829C691.915 28.5589 692.638 28.4469 693.469 28.4469C694.309 28.4469 695.037 28.5589 695.653 28.7829C696.278 28.9975 696.759 29.3195 697.095 29.7489C697.44 30.1689 697.613 30.6822 697.613 31.2889C697.613 31.8955 697.44 32.4275 697.095 32.8849C696.749 33.3329 696.264 33.6829 695.639 33.9349C695.023 34.1775 694.299 34.2989 693.469 34.2989ZM693.469 32.6329C694.038 32.6329 694.486 32.5069 694.813 32.2549C695.149 32.0029 695.317 31.6575 695.317 31.2189C695.317 30.7802 695.149 30.4395 694.813 30.1969C694.486 29.9449 694.038 29.8189 693.469 29.8189C692.909 29.8189 692.465 29.9449 692.139 30.1969C691.812 30.4395 691.649 30.7802 691.649 31.2189C691.649 31.6575 691.812 32.0029 692.139 32.2549C692.465 32.5069 692.909 32.6329 693.469 32.6329ZM693.469 29.5949C692.713 29.5949 692.05 29.4922 691.481 29.2869C690.921 29.0815 690.482 28.7829 690.165 28.3909C689.857 27.9895 689.703 27.5135 689.703 26.9629C689.703 26.3842 689.861 25.8895 690.179 25.4789C690.496 25.0589 690.939 24.7369 691.509 24.5129C692.078 24.2795 692.731 24.1629 693.469 24.1629C694.225 24.1629 694.883 24.2795 695.443 24.5129C696.012 24.7369 696.455 25.0589 696.773 25.4789C697.099 25.8895 697.263 26.3842 697.263 26.9629C697.263 27.5135 697.104 27.9895 696.787 28.3909C696.479 28.7829 696.04 29.0815 695.471 29.2869C694.901 29.4922 694.234 29.5949 693.469 29.5949ZM693.469 28.2649C693.945 28.2649 694.318 28.1575 694.589 27.9429C694.869 27.7282 695.009 27.4342 695.009 27.0609C695.009 26.6689 694.864 26.3655 694.575 26.1509C694.295 25.9362 693.926 25.8289 693.469 25.8289C693.021 25.8289 692.657 25.9362 692.377 26.1509C692.097 26.3655 691.957 26.6689 691.957 27.0609C691.957 27.4342 692.092 27.7282 692.363 27.9429C692.633 28.1575 693.002 28.2649 693.469 28.2649ZM699.678 34.1309L706.37 24.3309H708.036L701.344 34.1309H699.678ZM700.532 29.6229C700.056 29.6229 699.636 29.5155 699.272 29.3009C698.908 29.0769 698.619 28.7642 698.404 28.3629C698.199 27.9522 698.096 27.4715 698.096 26.9209C698.096 26.3702 698.199 25.8942 698.404 25.4929C698.619 25.0915 698.908 24.7789 699.272 24.5549C699.636 24.3309 700.056 24.2189 700.532 24.2189C701.008 24.2189 701.428 24.3309 701.792 24.5549C702.156 24.7789 702.441 25.0915 702.646 25.4929C702.852 25.8942 702.954 26.3702 702.954 26.9209C702.954 27.4715 702.852 27.9522 702.646 28.3629C702.441 28.7642 702.156 29.0769 701.792 29.3009C701.428 29.5155 701.008 29.6229 700.532 29.6229ZM700.532 28.4749C700.84 28.4749 701.088 28.3489 701.274 28.0969C701.461 27.8355 701.554 27.4435 701.554 26.9209C701.554 26.3982 701.461 26.0109 701.274 25.7589C701.088 25.4975 700.84 25.3669 700.532 25.3669C700.234 25.3669 699.986 25.4975 699.79 25.7589C699.604 26.0109 699.51 26.3982 699.51 26.9209C699.51 27.4342 699.604 27.8215 699.79 28.0829C699.986 28.3442 700.234 28.4749 700.532 28.4749ZM707.182 34.2429C706.716 34.2429 706.296 34.1355 705.922 33.9209C705.558 33.6969 705.274 33.3842 705.068 32.9829C704.863 32.5722 704.76 32.0915 704.76 31.5409C704.76 30.9902 704.863 30.5142 705.068 30.1129C705.274 29.7115 705.558 29.3989 705.922 29.1749C706.296 28.9509 706.716 28.8389 707.182 28.8389C707.668 28.8389 708.092 28.9509 708.456 29.1749C708.82 29.3989 709.105 29.7115 709.31 30.1129C709.516 30.5142 709.618 30.9902 709.618 31.5409C709.618 32.0915 709.516 32.5722 709.31 32.9829C709.105 33.3842 708.82 33.6969 708.456 33.9209C708.092 34.1355 707.668 34.2429 707.182 34.2429ZM707.182 33.0949C707.49 33.0949 707.738 32.9689 707.924 32.7169C708.111 32.4555 708.204 32.0635 708.204 31.5409C708.204 31.0275 708.111 30.6402 707.924 30.3789C707.738 30.1175 707.49 29.9869 707.182 29.9869C706.884 29.9869 706.636 30.1175 706.44 30.3789C706.254 30.6309 706.16 31.0182 706.16 31.5409C706.16 32.0635 706.254 32.4555 706.44 32.7169C706.636 32.9689 706.884 33.0949 707.182 33.0949Z" fill="white"/>
<path d="M32.5335 34.9099L35.5295 32.0259C36.8595 30.7519 37.1395 29.8979 37.1395 28.9459C37.1395 27.2659 35.8235 26.2159 33.7795 26.2159C32.2535 26.2159 30.9515 26.7619 30.1955 27.6999L31.1475 28.5259C31.7495 27.7979 32.6035 27.4619 33.6535 27.4619C35.0255 27.4619 35.7395 28.0779 35.7395 29.0859C35.7395 29.7019 35.5435 30.3179 34.5075 31.3259L30.5175 35.1759V36.1279H37.5595V34.9099H32.5335ZM42.4236 36.2399C44.7056 36.2399 46.4136 34.4199 46.4136 31.2279C46.4136 28.0359 44.7056 26.2159 42.4236 26.2159C40.1276 26.2159 38.4196 28.0359 38.4196 31.2279C38.4196 34.4199 40.1276 36.2399 42.4236 36.2399ZM42.4236 34.9939C40.8836 34.9939 39.8196 33.7339 39.8196 31.2279C39.8196 28.7219 40.8836 27.4619 42.4236 27.4619C43.9496 27.4619 45.0136 28.7219 45.0136 31.2279C45.0136 33.7339 43.9496 34.9939 42.4236 34.9939ZM49.3284 34.9099L52.3244 32.0259C53.6544 30.7519 53.9344 29.8979 53.9344 28.9459C53.9344 27.2659 52.6184 26.2159 50.5744 26.2159C49.0484 26.2159 47.7464 26.7619 46.9904 27.6999L47.9424 28.5259C48.5444 27.7979 49.3984 27.4619 50.4484 27.4619C51.8204 27.4619 52.5344 28.0779 52.5344 29.0859C52.5344 29.7019 52.3384 30.3179 51.3024 31.3259L47.3124 35.1759V36.1279H54.3544V34.9099H49.3284ZM58.0555 30.2339H56.9635L57.2295 27.5459L61.5835 27.5459V26.3279H56.0535L55.5355 31.4519H57.7615C60.0295 31.4519 60.7295 32.1379 60.7295 33.2439C60.7295 34.3079 59.8895 34.9939 58.4055 34.9939C57.2155 34.9939 56.1235 34.5599 55.4655 33.9439L54.8215 35.0499C55.6615 35.7919 57.0335 36.2399 58.4195 36.2399C60.9255 36.2399 62.1295 34.8819 62.1295 33.1879C62.1295 31.4519 60.9815 30.2339 58.0555 30.2339ZM72.1166 33.9019H73.5586V24.5639H72.1166V26.1039H68.7566V27.2519H72.1166V28.4979H68.7566V29.6459H72.1166V33.9019ZM70.1566 30.5139C68.4066 30.8219 66.8806 30.9199 65.2426 30.9339V25.4319H63.8006V32.1239H64.7806C66.6566 32.1239 68.3366 32.0399 70.2966 31.6899L70.1566 30.5139ZM66.7966 35.7919V33.0759H65.3546V36.9679H73.8806V35.7919H66.7966Z" fill="#435CE7"/>
<rect opacity="0.14" x="780" y="80" width="420" height="60" rx="10" fill="#10C469"/>
<rect x="880" y="80" width="320" height="60" rx="10" fill="#10C469"/>
<path d="M1143.26 115.128L1147.21 106.196L1147.8 107.176H1142.52L1143.53 106.112V108.772H1141.51V105.328H1149.36V106.798L1145.72 115.128H1143.26ZM1150.04 115.128V113.658L1153.82 110.088C1154.12 109.817 1154.34 109.575 1154.48 109.36C1154.62 109.145 1154.71 108.949 1154.76 108.772C1154.81 108.595 1154.84 108.431 1154.84 108.282C1154.84 107.89 1154.71 107.591 1154.44 107.386C1154.17 107.171 1153.79 107.064 1153.27 107.064C1152.86 107.064 1152.48 107.143 1152.13 107.302C1151.78 107.461 1151.49 107.708 1151.24 108.044L1149.59 106.98C1149.97 106.42 1150.49 105.977 1151.16 105.65C1151.83 105.323 1152.61 105.16 1153.48 105.16C1154.21 105.16 1154.85 105.281 1155.39 105.524C1155.94 105.757 1156.36 106.089 1156.66 106.518C1156.97 106.947 1157.12 107.461 1157.12 108.058C1157.12 108.375 1157.08 108.693 1157 109.01C1156.92 109.318 1156.76 109.645 1156.52 109.99C1156.29 110.335 1155.94 110.723 1155.49 111.152L1152.35 114.106L1151.92 113.28H1157.45V115.128H1150.04ZM1159.68 115.128L1166.37 105.328H1168.04L1161.35 115.128H1159.68ZM1160.54 110.62C1160.06 110.62 1159.64 110.513 1159.28 110.298C1158.91 110.074 1158.62 109.761 1158.41 109.36C1158.2 108.949 1158.1 108.469 1158.1 107.918C1158.1 107.367 1158.2 106.891 1158.41 106.49C1158.62 106.089 1158.91 105.776 1159.28 105.552C1159.64 105.328 1160.06 105.216 1160.54 105.216C1161.01 105.216 1161.43 105.328 1161.8 105.552C1162.16 105.776 1162.45 106.089 1162.65 106.49C1162.86 106.891 1162.96 107.367 1162.96 107.918C1162.96 108.469 1162.86 108.949 1162.65 109.36C1162.45 109.761 1162.16 110.074 1161.8 110.298C1161.43 110.513 1161.01 110.62 1160.54 110.62ZM1160.54 109.472C1160.84 109.472 1161.09 109.346 1161.28 109.094C1161.47 108.833 1161.56 108.441 1161.56 107.918C1161.56 107.395 1161.47 107.008 1161.28 106.756C1161.09 106.495 1160.84 106.364 1160.54 106.364C1160.24 106.364 1159.99 106.495 1159.79 106.756C1159.61 107.008 1159.51 107.395 1159.51 107.918C1159.51 108.431 1159.61 108.819 1159.79 109.08C1159.99 109.341 1160.24 109.472 1160.54 109.472ZM1167.19 115.24C1166.72 115.24 1166.3 115.133 1165.93 114.918C1165.56 114.694 1165.28 114.381 1165.07 113.98C1164.87 113.569 1164.76 113.089 1164.76 112.538C1164.76 111.987 1164.87 111.511 1165.07 111.11C1165.28 110.709 1165.56 110.396 1165.93 110.172C1166.3 109.948 1166.72 109.836 1167.19 109.836C1167.67 109.836 1168.1 109.948 1168.46 110.172C1168.82 110.396 1169.11 110.709 1169.31 111.11C1169.52 111.511 1169.62 111.987 1169.62 112.538C1169.62 113.089 1169.52 113.569 1169.31 113.98C1169.11 114.381 1168.82 114.694 1168.46 114.918C1168.1 115.133 1167.67 115.24 1167.19 115.24ZM1167.19 114.092C1167.49 114.092 1167.74 113.966 1167.93 113.714C1168.12 113.453 1168.21 113.061 1168.21 112.538C1168.21 112.025 1168.12 111.637 1167.93 111.376C1167.74 111.115 1167.49 110.984 1167.19 110.984C1166.89 110.984 1166.64 111.115 1166.44 111.376C1166.26 111.628 1166.16 112.015 1166.16 112.538C1166.16 113.061 1166.26 113.453 1166.44 113.714C1166.64 113.966 1166.89 114.092 1167.19 114.092Z" fill="white"/>
<rect opacity="0.5" y="80" width="740" height="60" rx="10" fill="#D4DFFA"/>
<rect width="403" height="60" rx="10" transform="matrix(-1 0 0 1 740 80)" fill="#435CE7"/>
<path d="M684.735 114.299C683.839 114.299 683.059 114.112 682.397 113.739C681.743 113.366 681.239 112.82 680.885 112.101C680.53 111.382 680.353 110.496 680.353 109.441C680.353 108.312 680.563 107.355 680.983 106.571C681.412 105.787 682 105.19 682.747 104.779C683.503 104.368 684.371 104.163 685.351 104.163C685.873 104.163 686.373 104.219 686.849 104.331C687.325 104.443 687.735 104.611 688.081 104.835L687.241 106.501C686.97 106.314 686.681 106.188 686.373 106.123C686.065 106.048 685.743 106.011 685.407 106.011C684.557 106.011 683.885 106.268 683.391 106.781C682.896 107.294 682.649 108.055 682.649 109.063C682.649 109.231 682.649 109.418 682.649 109.623C682.658 109.828 682.686 110.034 682.733 110.239L682.103 109.651C682.28 109.287 682.509 108.984 682.789 108.741C683.069 108.489 683.4 108.302 683.783 108.181C684.175 108.05 684.604 107.985 685.071 107.985C685.705 107.985 686.275 108.111 686.779 108.363C687.283 108.615 687.684 108.97 687.983 109.427C688.291 109.884 688.445 110.421 688.445 111.037C688.445 111.7 688.277 112.278 687.941 112.773C687.614 113.258 687.171 113.636 686.611 113.907C686.06 114.168 685.435 114.299 684.735 114.299ZM684.609 112.605C684.926 112.605 685.206 112.549 685.449 112.437C685.701 112.316 685.897 112.143 686.037 111.919C686.177 111.695 686.247 111.438 686.247 111.149C686.247 110.701 686.093 110.346 685.785 110.085C685.486 109.814 685.085 109.679 684.581 109.679C684.245 109.679 683.951 109.744 683.699 109.875C683.447 109.996 683.246 110.169 683.097 110.393C682.957 110.608 682.887 110.86 682.887 111.149C682.887 111.429 682.957 111.681 683.097 111.905C683.237 112.12 683.433 112.292 683.685 112.423C683.937 112.544 684.245 112.605 684.609 112.605ZM693.217 114.299C692.414 114.299 691.695 114.103 691.061 113.711C690.426 113.31 689.927 112.731 689.563 111.975C689.199 111.219 689.017 110.304 689.017 109.231C689.017 108.158 689.199 107.243 689.563 106.487C689.927 105.731 690.426 105.157 691.061 104.765C691.695 104.364 692.414 104.163 693.217 104.163C694.029 104.163 694.747 104.364 695.373 104.765C696.007 105.157 696.507 105.731 696.871 106.487C697.235 107.243 697.417 108.158 697.417 109.231C697.417 110.304 697.235 111.219 696.871 111.975C696.507 112.731 696.007 113.31 695.373 113.711C694.747 114.103 694.029 114.299 693.217 114.299ZM693.217 112.381C693.599 112.381 693.931 112.274 694.211 112.059C694.5 111.844 694.724 111.504 694.883 111.037C695.051 110.57 695.135 109.968 695.135 109.231C695.135 108.494 695.051 107.892 694.883 107.425C694.724 106.958 694.5 106.618 694.211 106.403C693.931 106.188 693.599 106.081 693.217 106.081C692.843 106.081 692.512 106.188 692.223 106.403C691.943 106.618 691.719 106.958 691.551 107.425C691.392 107.892 691.313 108.494 691.313 109.231C691.313 109.968 691.392 110.57 691.551 111.037C691.719 111.504 691.943 111.844 692.223 112.059C692.512 112.274 692.843 112.381 693.217 112.381ZM699.683 114.131L706.375 104.331H708.041L701.349 114.131H699.683ZM700.537 109.623C700.061 109.623 699.641 109.516 699.277 109.301C698.913 109.077 698.623 108.764 698.409 108.363C698.203 107.952 698.101 107.472 698.101 106.921C698.101 106.37 698.203 105.894 698.409 105.493C698.623 105.092 698.913 104.779 699.277 104.555C699.641 104.331 700.061 104.219 700.537 104.219C701.013 104.219 701.433 104.331 701.797 104.555C702.161 104.779 702.445 105.092 702.651 105.493C702.856 105.894 702.959 106.37 702.959 106.921C702.959 107.472 702.856 107.952 702.651 108.363C702.445 108.764 702.161 109.077 701.797 109.301C701.433 109.516 701.013 109.623 700.537 109.623ZM700.537 108.475C700.845 108.475 701.092 108.349 701.279 108.097C701.465 107.836 701.559 107.444 701.559 106.921C701.559 106.398 701.465 106.011 701.279 105.759C701.092 105.498 700.845 105.367 700.537 105.367C700.238 105.367 699.991 105.498 699.795 105.759C699.608 106.011 699.515 106.398 699.515 106.921C699.515 107.434 699.608 107.822 699.795 108.083C699.991 108.344 700.238 108.475 700.537 108.475ZM707.187 114.243C706.72 114.243 706.3 114.136 705.927 113.921C705.563 113.697 705.278 113.384 705.073 112.983C704.867 112.572 704.765 112.092 704.765 111.541C704.765 110.99 704.867 110.514 705.073 110.113C705.278 109.712 705.563 109.399 705.927 109.175C706.3 108.951 706.72 108.839 707.187 108.839C707.672 108.839 708.097 108.951 708.461 109.175C708.825 109.399 709.109 109.712 709.315 110.113C709.52 110.514 709.623 110.99 709.623 111.541C709.623 112.092 709.52 112.572 709.315 112.983C709.109 113.384 708.825 113.697 708.461 113.921C708.097 114.136 707.672 114.243 707.187 114.243ZM707.187 113.095C707.495 113.095 707.742 112.969 707.929 112.717C708.115 112.456 708.209 112.064 708.209 111.541C708.209 111.028 708.115 110.64 707.929 110.379C707.742 110.118 707.495 109.987 707.187 109.987C706.888 109.987 706.641 110.118 706.445 110.379C706.258 110.631 706.165 111.018 706.165 111.541C706.165 112.064 706.258 112.456 706.445 112.717C706.641 112.969 706.888 113.095 707.187 113.095Z" fill="white"/>
<path d="M32.5338 114.91L35.5298 112.026C36.8598 110.752 37.1398 109.898 37.1398 108.946C37.1398 107.266 35.8238 106.216 33.7798 106.216C32.2538 106.216 30.9518 106.762 30.1958 107.7L31.1478 108.526C31.7498 107.798 32.6038 107.462 33.6538 107.462C35.0258 107.462 35.7398 108.078 35.7398 109.086C35.7398 109.702 35.5438 110.318 34.5078 111.326L30.5178 115.176V116.128H37.5598V114.91H32.5338ZM42.4238 116.24C44.7058 116.24 46.4138 114.42 46.4138 111.228C46.4138 108.036 44.7058 106.216 42.4238 106.216C40.1278 106.216 38.4198 108.036 38.4198 111.228C38.4198 114.42 40.1278 116.24 42.4238 116.24ZM42.4238 114.994C40.8838 114.994 39.8198 113.734 39.8198 111.228C39.8198 108.722 40.8838 107.462 42.4238 107.462C43.9498 107.462 45.0138 108.722 45.0138 111.228C45.0138 113.734 43.9498 114.994 42.4238 114.994ZM51.123 110.444L53.685 107.28V106.328H47.217V107.546H51.935L49.471 110.57V111.55H50.255C51.935 111.55 52.677 112.222 52.677 113.258C52.677 114.322 51.837 114.994 50.367 114.994C49.163 114.994 48.071 114.56 47.413 113.944L46.769 115.05C47.595 115.792 48.967 116.24 50.367 116.24C52.859 116.24 54.077 114.896 54.077 113.244C54.077 111.732 53.083 110.626 51.123 110.444ZM59.1367 116.24C61.4187 116.24 63.1267 114.42 63.1267 111.228C63.1267 108.036 61.4187 106.216 59.1367 106.216C56.8407 106.216 55.1327 108.036 55.1327 111.228C55.1327 114.42 56.8407 116.24 59.1367 116.24ZM59.1367 114.994C57.5967 114.994 56.5327 113.734 56.5327 111.228C56.5327 108.722 57.5967 107.462 59.1367 107.462C60.6627 107.462 61.7267 108.722 61.7267 111.228C61.7267 113.734 60.6627 114.994 59.1367 114.994ZM73.2926 113.902H74.7346V104.564H73.2926V106.104H69.9326V107.252H73.2926V108.498H69.9326V109.646H73.2926V113.902ZM71.3326 110.514C69.5826 110.822 68.0566 110.92 66.4186 110.934V105.432H64.9766V112.124H65.9566C67.8326 112.124 69.5126 112.04 71.4726 111.69L71.3326 110.514ZM67.9726 115.792V113.076H66.5306V116.968H75.0566V115.792H67.9726Z" fill="#435CE7"/>
<rect opacity="0.14" x="780" y="160" width="420" height="60" rx="10" fill="#10C469"/>
<rect x="848" y="160" width="352" height="60" rx="10" fill="#10C469"/>
<path d="M1143.8 185.16C1141.72 185.16 1140.09 186.42 1140.09 188.422C1140.09 190.27 1141.57 191.474 1143.46 191.474C1144.48 191.474 1145.32 191.166 1145.9 190.592C1145.83 192.482 1144.76 193.448 1143.14 193.448C1142.47 193.448 1141.84 193.322 1141.3 192.958L1140.46 194.624C1141.15 195.058 1142.14 195.296 1143.18 195.296C1146.15 195.296 1148.18 193.406 1148.18 190.018C1148.18 186.854 1146.51 185.16 1143.8 185.16ZM1143.96 189.78C1142.96 189.78 1142.3 189.206 1142.3 188.31C1142.3 187.414 1142.97 186.854 1143.94 186.854C1145.01 186.854 1145.64 187.47 1145.64 188.31C1145.64 189.164 1144.96 189.78 1143.96 189.78ZM1153.22 195.296C1155.64 195.296 1157.42 193.462 1157.42 190.228C1157.42 186.994 1155.64 185.16 1153.22 185.16C1150.81 185.16 1149.02 186.994 1149.02 190.228C1149.02 193.462 1150.81 195.296 1153.22 195.296ZM1153.22 193.378C1152.1 193.378 1151.31 192.454 1151.31 190.228C1151.31 188.002 1152.1 187.078 1153.22 187.078C1154.35 187.078 1155.13 188.002 1155.13 190.228C1155.13 192.454 1154.35 193.378 1153.22 193.378ZM1160.54 190.62C1161.96 190.62 1162.96 189.584 1162.96 187.918C1162.96 186.252 1161.96 185.216 1160.54 185.216C1159.11 185.216 1158.1 186.266 1158.1 187.918C1158.1 189.57 1159.11 190.62 1160.54 190.62ZM1159.68 195.128H1161.35L1168.04 185.328H1166.37L1159.68 195.128ZM1160.54 189.472C1159.93 189.472 1159.51 188.954 1159.51 187.918C1159.51 186.882 1159.93 186.364 1160.54 186.364C1161.15 186.364 1161.56 186.868 1161.56 187.918C1161.56 188.968 1161.15 189.472 1160.54 189.472ZM1167.19 195.24C1168.61 195.24 1169.62 194.19 1169.62 192.538C1169.62 190.886 1168.61 189.836 1167.19 189.836C1165.77 189.836 1164.76 190.886 1164.76 192.538C1164.76 194.19 1165.77 195.24 1167.19 195.24ZM1167.19 194.092C1166.58 194.092 1166.16 193.588 1166.16 192.538C1166.16 191.488 1166.58 190.984 1167.19 190.984C1167.8 190.984 1168.21 191.502 1168.21 192.538C1168.21 193.574 1167.8 194.092 1167.19 194.092Z" fill="white"/>
<rect opacity="0.5" y="160" width="740" height="60" rx="10" fill="#D4DFFA"/>
<rect width="502" height="60" rx="10" transform="matrix(-1 0 0 1 740 160)" fill="#435CE7"/>
<path d="M685.438 194.299C684.617 194.299 683.898 194.178 683.282 193.935C682.666 193.683 682.185 193.333 681.84 192.885C681.495 192.428 681.322 191.896 681.322 191.289C681.322 190.682 681.49 190.169 681.826 189.749C682.171 189.32 682.652 188.998 683.268 188.783C683.884 188.559 684.607 188.447 685.438 188.447C686.278 188.447 687.006 188.559 687.622 188.783C688.247 188.998 688.728 189.32 689.064 189.749C689.409 190.169 689.582 190.682 689.582 191.289C689.582 191.896 689.409 192.428 689.064 192.885C688.719 193.333 688.233 193.683 687.608 193.935C686.992 194.178 686.269 194.299 685.438 194.299ZM685.438 192.633C686.007 192.633 686.455 192.507 686.782 192.255C687.118 192.003 687.286 191.658 687.286 191.219C687.286 190.78 687.118 190.44 686.782 190.197C686.455 189.945 686.007 189.819 685.438 189.819C684.878 189.819 684.435 189.945 684.108 190.197C683.781 190.44 683.618 190.78 683.618 191.219C683.618 191.658 683.781 192.003 684.108 192.255C684.435 192.507 684.878 192.633 685.438 192.633ZM685.438 189.595C684.682 189.595 684.019 189.492 683.45 189.287C682.89 189.082 682.451 188.783 682.134 188.391C681.826 187.99 681.672 187.514 681.672 186.963C681.672 186.384 681.831 185.89 682.148 185.479C682.465 185.059 682.909 184.737 683.478 184.513C684.047 184.28 684.701 184.163 685.438 184.163C686.194 184.163 686.852 184.28 687.412 184.513C687.981 184.737 688.425 185.059 688.742 185.479C689.069 185.89 689.232 186.384 689.232 186.963C689.232 187.514 689.073 187.99 688.756 188.391C688.448 188.783 688.009 189.082 687.44 189.287C686.871 189.492 686.203 189.595 685.438 189.595ZM685.438 188.265C685.914 188.265 686.287 188.158 686.558 187.943C686.838 187.728 686.978 187.434 686.978 187.061C686.978 186.669 686.833 186.366 686.544 186.151C686.264 185.936 685.895 185.829 685.438 185.829C684.99 185.829 684.626 185.936 684.346 186.151C684.066 186.366 683.926 186.669 683.926 187.061C683.926 187.434 684.061 187.728 684.332 187.943C684.603 188.158 684.971 188.265 685.438 188.265ZM693.548 194.299C692.867 194.299 692.19 194.21 691.518 194.033C690.846 193.846 690.277 193.585 689.81 193.249L690.692 191.513C691.066 191.784 691.5 191.998 691.994 192.157C692.489 192.316 692.988 192.395 693.492 192.395C694.062 192.395 694.51 192.283 694.836 192.059C695.163 191.835 695.326 191.527 695.326 191.135C695.326 190.762 695.182 190.468 694.892 190.253C694.603 190.038 694.136 189.931 693.492 189.931H692.456V188.433L695.186 185.339L695.438 186.151H690.3V184.331H697.16V185.801L694.444 188.895L693.296 188.237H693.954C695.158 188.237 696.068 188.508 696.684 189.049C697.3 189.59 697.608 190.286 697.608 191.135C697.608 191.686 697.464 192.204 697.174 192.689C696.885 193.165 696.442 193.552 695.844 193.851C695.247 194.15 694.482 194.299 693.548 194.299ZM699.683 194.131L706.375 184.331H708.041L701.349 194.131H699.683ZM700.537 189.623C700.061 189.623 699.641 189.516 699.277 189.301C698.913 189.077 698.623 188.764 698.409 188.363C698.203 187.952 698.101 187.472 698.101 186.921C698.101 186.37 698.203 185.894 698.409 185.493C698.623 185.092 698.913 184.779 699.277 184.555C699.641 184.331 700.061 184.219 700.537 184.219C701.013 184.219 701.433 184.331 701.797 184.555C702.161 184.779 702.445 185.092 702.651 185.493C702.856 185.894 702.959 186.37 702.959 186.921C702.959 187.472 702.856 187.952 702.651 188.363C702.445 188.764 702.161 189.077 701.797 189.301C701.433 189.516 701.013 189.623 700.537 189.623ZM700.537 188.475C700.845 188.475 701.092 188.349 701.279 188.097C701.465 187.836 701.559 187.444 701.559 186.921C701.559 186.398 701.465 186.011 701.279 185.759C701.092 185.498 700.845 185.367 700.537 185.367C700.238 185.367 699.991 185.498 699.795 185.759C699.608 186.011 699.515 186.398 699.515 186.921C699.515 187.434 699.608 187.822 699.795 188.083C699.991 188.344 700.238 188.475 700.537 188.475ZM707.187 194.243C706.72 194.243 706.3 194.136 705.927 193.921C705.563 193.697 705.278 193.384 705.073 192.983C704.867 192.572 704.765 192.092 704.765 191.541C704.765 190.99 704.867 190.514 705.073 190.113C705.278 189.712 705.563 189.399 705.927 189.175C706.3 188.951 706.72 188.839 707.187 188.839C707.672 188.839 708.097 188.951 708.461 189.175C708.825 189.399 709.109 189.712 709.315 190.113C709.52 190.514 709.623 190.99 709.623 191.541C709.623 192.092 709.52 192.572 709.315 192.983C709.109 193.384 708.825 193.697 708.461 193.921C708.097 194.136 707.672 194.243 707.187 194.243ZM707.187 193.095C707.495 193.095 707.742 192.969 707.929 192.717C708.115 192.456 708.209 192.064 708.209 191.541C708.209 191.028 708.115 190.64 707.929 190.379C707.742 190.118 707.495 189.987 707.187 189.987C706.888 189.987 706.641 190.118 706.445 190.379C706.258 190.631 706.165 191.018 706.165 191.541C706.165 192.064 706.258 192.456 706.445 192.717C706.641 192.969 706.888 193.095 707.187 193.095Z" fill="white"/>
<path d="M32.5338 194.91L35.5298 192.026C36.8598 190.752 37.1398 189.898 37.1398 188.946C37.1398 187.266 35.8238 186.216 33.7798 186.216C32.2538 186.216 30.9518 186.762 30.1958 187.7L31.1478 188.526C31.7498 187.798 32.6038 187.462 33.6538 187.462C35.0258 187.462 35.7398 188.078 35.7398 189.086C35.7398 189.702 35.5438 190.318 34.5078 191.326L30.5178 195.176V196.128H37.5598V194.91H32.5338ZM42.4238 196.24C44.7058 196.24 46.4138 194.42 46.4138 191.228C46.4138 188.036 44.7058 186.216 42.4238 186.216C40.1278 186.216 38.4198 188.036 38.4198 191.228C38.4198 194.42 40.1278 196.24 42.4238 196.24ZM42.4238 194.994C40.8838 194.994 39.8198 193.734 39.8198 191.228C39.8198 188.722 40.8838 187.462 42.4238 187.462C43.9498 187.462 45.0138 188.722 45.0138 191.228C45.0138 193.734 43.9498 194.994 42.4238 194.994ZM56.0337 192.516H54.1717V190.388H52.8557V192.516H49.0897L53.8917 186.328H52.3797L47.3677 192.74V193.72H52.8137V196.128H54.1717V193.72H56.0337V192.516ZM60.6269 196.24C62.9089 196.24 64.6169 194.42 64.6169 191.228C64.6169 188.036 62.9089 186.216 60.6269 186.216C58.3309 186.216 56.6229 188.036 56.6229 191.228C56.6229 194.42 58.3309 196.24 60.6269 196.24ZM60.6269 194.994C59.0869 194.994 58.0229 193.734 58.0229 191.228C58.0229 188.722 59.0869 187.462 60.6269 187.462C62.1529 187.462 63.2169 188.722 63.2169 191.228C63.2169 193.734 62.1529 194.994 60.6269 194.994ZM74.7828 193.902H76.2248V184.564H74.7828V186.104H71.4228V187.252H74.7828V188.498H71.4228V189.646H74.7828V193.902ZM72.8228 190.514C71.0728 190.822 69.5468 190.92 67.9088 190.934V185.432H66.4668V192.124H67.4468C69.3228 192.124 71.0028 192.04 72.9628 191.69L72.8228 190.514ZM69.4628 195.792V193.076H68.0208V196.968H76.5468V195.792H69.4628Z" fill="#435CE7"/>
<rect opacity="0.14" x="779.994" y="240" width="420.006" height="59.7928" rx="7" fill="#10C469"/>
<rect x="780" y="240" width="419.997" height="60" rx="10" fill="#10C469"/>
<path d="M1134.08 265.328V267.148H1136.04V275.128H1138.3V265.328H1134.08ZM1143.96 275.296C1146.38 275.296 1148.16 273.462 1148.16 270.228C1148.16 266.994 1146.38 265.16 1143.96 265.16C1141.55 265.16 1139.76 266.994 1139.76 270.228C1139.76 273.462 1141.55 275.296 1143.96 275.296ZM1143.96 273.378C1142.84 273.378 1142.05 272.454 1142.05 270.228C1142.05 268.002 1142.84 267.078 1143.96 267.078C1145.09 267.078 1145.88 268.002 1145.88 270.228C1145.88 272.454 1145.09 273.378 1143.96 273.378ZM1153.21 275.296C1155.63 275.296 1157.41 273.462 1157.41 270.228C1157.41 266.994 1155.63 265.16 1153.21 265.16C1150.8 265.16 1149.01 266.994 1149.01 270.228C1149.01 273.462 1150.8 275.296 1153.21 275.296ZM1153.21 273.378C1152.09 273.378 1151.31 272.454 1151.31 270.228C1151.31 268.002 1152.09 267.078 1153.21 267.078C1154.34 267.078 1155.13 268.002 1155.13 270.228C1155.13 272.454 1154.34 273.378 1153.21 273.378ZM1160.53 270.62C1161.96 270.62 1162.95 269.584 1162.95 267.918C1162.95 266.252 1161.96 265.216 1160.53 265.216C1159.1 265.216 1158.09 266.266 1158.09 267.918C1158.09 269.57 1159.1 270.62 1160.53 270.62ZM1159.67 275.128H1161.34L1168.03 265.328H1166.37L1159.67 275.128ZM1160.53 269.472C1159.93 269.472 1159.51 268.954 1159.51 267.918C1159.51 266.882 1159.93 266.364 1160.53 266.364C1161.14 266.364 1161.55 266.868 1161.55 267.918C1161.55 268.968 1161.14 269.472 1160.53 269.472ZM1167.18 275.24C1168.61 275.24 1169.61 274.19 1169.61 272.538C1169.61 270.886 1168.61 269.836 1167.18 269.836C1165.76 269.836 1164.76 270.886 1164.76 272.538C1164.76 274.19 1165.76 275.24 1167.18 275.24ZM1167.18 274.092C1166.58 274.092 1166.16 273.588 1166.16 272.538C1166.16 271.488 1166.58 270.984 1167.18 270.984C1167.79 270.984 1168.2 271.502 1168.2 272.538C1168.2 273.574 1167.79 274.092 1167.18 274.092Z" fill="white"/>
<rect opacity="0.5" y="240" width="740" height="60" rx="10" fill="#D4DFFA"/>
<rect width="740" height="60" rx="10" transform="matrix(-1 0 0 1 740 240)" fill="#435CE7"/>
<path d="M673.04 274.158V265.198L674.02 266.178H671.08V264.358H675.308V274.158H673.04ZM680.96 274.326C680.158 274.326 679.439 274.13 678.804 273.738C678.17 273.337 677.67 272.758 677.306 272.002C676.942 271.246 676.76 270.332 676.76 269.258C676.76 268.185 676.942 267.27 677.306 266.514C677.67 265.758 678.17 265.184 678.804 264.792C679.439 264.391 680.158 264.19 680.96 264.19C681.772 264.19 682.491 264.391 683.116 264.792C683.751 265.184 684.25 265.758 684.614 266.514C684.978 267.27 685.16 268.185 685.16 269.258C685.16 270.332 684.978 271.246 684.614 272.002C684.25 272.758 683.751 273.337 683.116 273.738C682.491 274.13 681.772 274.326 680.96 274.326ZM680.96 272.408C681.343 272.408 681.674 272.301 681.954 272.086C682.244 271.872 682.468 271.531 682.626 271.064C682.794 270.598 682.878 269.996 682.878 269.258C682.878 268.521 682.794 267.919 682.626 267.452C682.468 266.986 682.244 266.645 681.954 266.43C681.674 266.216 681.343 266.108 680.96 266.108C680.587 266.108 680.256 266.216 679.966 266.43C679.686 266.645 679.462 266.986 679.294 267.452C679.136 267.919 679.056 268.521 679.056 269.258C679.056 269.996 679.136 270.598 679.294 271.064C679.462 271.531 679.686 271.872 679.966 272.086C680.256 272.301 680.587 272.408 680.96 272.408ZM690.212 274.326C689.41 274.326 688.691 274.13 688.056 273.738C687.422 273.337 686.922 272.758 686.558 272.002C686.194 271.246 686.012 270.332 686.012 269.258C686.012 268.185 686.194 267.27 686.558 266.514C686.922 265.758 687.422 265.184 688.056 264.792C688.691 264.391 689.41 264.19 690.212 264.19C691.024 264.19 691.743 264.391 692.368 264.792C693.003 265.184 693.502 265.758 693.866 266.514C694.23 267.27 694.412 268.185 694.412 269.258C694.412 270.332 694.23 271.246 693.866 272.002C693.502 272.758 693.003 273.337 692.368 273.738C691.743 274.13 691.024 274.326 690.212 274.326ZM690.212 272.408C690.595 272.408 690.926 272.301 691.206 272.086C691.496 271.872 691.72 271.531 691.878 271.064C692.046 270.598 692.13 269.996 692.13 269.258C692.13 268.521 692.046 267.919 691.878 267.452C691.72 266.986 691.496 266.645 691.206 266.43C690.926 266.216 690.595 266.108 690.212 266.108C689.839 266.108 689.508 266.216 689.218 266.43C688.938 266.645 688.714 266.986 688.546 267.452C688.388 267.919 688.308 268.521 688.308 269.258C688.308 269.996 688.388 270.598 688.546 271.064C688.714 271.531 688.938 271.872 689.218 272.086C689.508 272.301 689.839 272.408 690.212 272.408ZM696.678 274.158L703.37 264.358H705.036L698.344 274.158H696.678ZM697.532 269.65C697.056 269.65 696.636 269.543 696.272 269.328C695.908 269.104 695.619 268.792 695.404 268.39C695.199 267.98 695.096 267.499 695.096 266.948C695.096 266.398 695.199 265.922 695.404 265.52C695.619 265.119 695.908 264.806 696.272 264.582C696.636 264.358 697.056 264.246 697.532 264.246C698.008 264.246 698.428 264.358 698.792 264.582C699.156 264.806 699.441 265.119 699.646 265.52C699.852 265.922 699.954 266.398 699.954 266.948C699.954 267.499 699.852 267.98 699.646 268.39C699.441 268.792 699.156 269.104 698.792 269.328C698.428 269.543 698.008 269.65 697.532 269.65ZM697.532 268.502C697.84 268.502 698.088 268.376 698.274 268.124C698.461 267.863 698.554 267.471 698.554 266.948C698.554 266.426 698.461 266.038 698.274 265.786C698.088 265.525 697.84 265.394 697.532 265.394C697.234 265.394 696.986 265.525 696.79 265.786C696.604 266.038 696.51 266.426 696.51 266.948C696.51 267.462 696.604 267.849 696.79 268.11C696.986 268.372 697.234 268.502 697.532 268.502ZM704.182 274.27C703.716 274.27 703.296 274.163 702.922 273.948C702.558 273.724 702.274 273.412 702.068 273.01C701.863 272.6 701.76 272.119 701.76 271.568C701.76 271.018 701.863 270.542 702.068 270.14C702.274 269.739 702.558 269.426 702.922 269.202C703.296 268.978 703.716 268.866 704.182 268.866C704.668 268.866 705.092 268.978 705.456 269.202C705.82 269.426 706.105 269.739 706.31 270.14C706.516 270.542 706.618 271.018 706.618 271.568C706.618 272.119 706.516 272.6 706.31 273.01C706.105 273.412 705.82 273.724 705.456 273.948C705.092 274.163 704.668 274.27 704.182 274.27ZM704.182 273.122C704.49 273.122 704.738 272.996 704.924 272.744C705.111 272.483 705.204 272.091 705.204 271.568C705.204 271.055 705.111 270.668 704.924 270.406C704.738 270.145 704.49 270.014 704.182 270.014C703.884 270.014 703.636 270.145 703.44 270.406C703.254 270.658 703.16 271.046 703.16 271.568C703.16 272.091 703.254 272.483 703.44 272.744C703.636 272.996 703.884 273.122 704.182 273.122Z" fill="white"/>
<path d="M30.5175 276.128V275.176L34.5075 271.326C34.8622 270.99 35.1235 270.696 35.2915 270.444C35.4688 270.183 35.5855 269.945 35.6415 269.73C35.7068 269.506 35.7395 269.291 35.7395 269.086C35.7395 268.582 35.5622 268.185 35.2075 267.896C34.8528 267.607 34.3348 267.462 33.6535 267.462C33.1308 267.462 32.6595 267.551 32.2395 267.728C31.8195 267.896 31.4555 268.162 31.1475 268.526L30.1955 267.7C30.5688 267.224 31.0682 266.86 31.6935 266.608C32.3282 266.347 33.0235 266.216 33.7795 266.216C34.4608 266.216 35.0535 266.328 35.5575 266.552C36.0615 266.767 36.4488 267.079 36.7195 267.49C36.9995 267.901 37.1395 268.386 37.1395 268.946C37.1395 269.263 37.0975 269.576 37.0135 269.884C36.9295 270.192 36.7708 270.519 36.5375 270.864C36.3042 271.209 35.9682 271.597 35.5295 272.026L31.9735 275.456L31.6375 274.91H37.5595V276.128H30.5175ZM42.4509 276.24C41.6856 276.24 40.9996 276.044 40.3929 275.652C39.7956 275.26 39.3196 274.691 38.9649 273.944C38.6196 273.197 38.4469 272.292 38.4469 271.228C38.4469 270.164 38.6196 269.259 38.9649 268.512C39.3196 267.765 39.7956 267.196 40.3929 266.804C40.9996 266.412 41.6856 266.216 42.4509 266.216C43.2069 266.216 43.8882 266.412 44.4949 266.804C45.1016 267.196 45.5776 267.765 45.9229 268.512C46.2682 269.259 46.4409 270.164 46.4409 271.228C46.4409 272.292 46.2682 273.197 45.9229 273.944C45.5776 274.691 45.1016 275.26 44.4949 275.652C43.8882 276.044 43.2069 276.24 42.4509 276.24ZM42.4509 274.994C42.9642 274.994 43.4122 274.854 43.7949 274.574C44.1869 274.294 44.4902 273.874 44.7049 273.314C44.9289 272.754 45.0409 272.059 45.0409 271.228C45.0409 270.397 44.9289 269.702 44.7049 269.142C44.4902 268.582 44.1869 268.162 43.7949 267.882C43.4122 267.602 42.9642 267.462 42.4509 267.462C41.9376 267.462 41.4849 267.602 41.0929 267.882C40.7009 268.162 40.3929 268.582 40.1689 269.142C39.9542 269.702 39.8469 270.397 39.8469 271.228C39.8469 272.059 39.9542 272.754 40.1689 273.314C40.3929 273.874 40.7009 274.294 41.0929 274.574C41.4849 274.854 41.9376 274.994 42.4509 274.994ZM50.6988 276.24C50.0081 276.24 49.3361 276.133 48.6828 275.918C48.0388 275.703 47.5115 275.414 47.1008 275.05L47.7448 273.944C48.0715 274.252 48.4961 274.504 49.0188 274.7C49.5415 274.896 50.0968 274.994 50.6848 274.994C51.4315 274.994 52.0055 274.835 52.4068 274.518C52.8081 274.201 53.0088 273.776 53.0088 273.244C53.0088 272.88 52.9201 272.563 52.7428 272.292C52.5655 272.021 52.2575 271.816 51.8188 271.676C51.3895 271.527 50.7968 271.452 50.0408 271.452H47.8148L48.3328 266.328H53.8628V267.546H48.8508L49.5788 266.86L49.1728 270.906L48.4448 270.234H50.3348C51.3148 270.234 52.1035 270.36 52.7008 270.612C53.2981 270.864 53.7321 271.214 54.0028 271.662C54.2735 272.101 54.4088 272.609 54.4088 273.188C54.4088 273.748 54.2735 274.261 54.0028 274.728C53.7321 275.185 53.3215 275.554 52.7708 275.834C52.2295 276.105 51.5388 276.24 50.6988 276.24ZM59.3279 276.24C58.5625 276.24 57.8765 276.044 57.2699 275.652C56.6725 275.26 56.1965 274.691 55.8419 273.944C55.4965 273.197 55.3239 272.292 55.3239 271.228C55.3239 270.164 55.4965 269.259 55.8419 268.512C56.1965 267.765 56.6725 267.196 57.2699 266.804C57.8765 266.412 58.5625 266.216 59.3279 266.216C60.0839 266.216 60.7652 266.412 61.3719 266.804C61.9785 267.196 62.4545 267.765 62.7999 268.512C63.1452 269.259 63.3179 270.164 63.3179 271.228C63.3179 272.292 63.1452 273.197 62.7999 273.944C62.4545 274.691 61.9785 275.26 61.3719 275.652C60.7652 276.044 60.0839 276.24 59.3279 276.24ZM59.3279 274.994C59.8412 274.994 60.2892 274.854 60.6719 274.574C61.0639 274.294 61.3672 273.874 61.5819 273.314C61.8059 272.754 61.9179 272.059 61.9179 271.228C61.9179 270.397 61.8059 269.702 61.5819 269.142C61.3672 268.582 61.0639 268.162 60.6719 267.882C60.2892 267.602 59.8412 267.462 59.3279 267.462C58.8145 267.462 58.3619 267.602 57.9699 267.882C57.5779 268.162 57.2699 268.582 57.0459 269.142C56.8312 269.702 56.7239 270.397 56.7239 271.228C56.7239 272.059 56.8312 272.754 57.0459 273.314C57.2699 273.874 57.5779 274.294 57.9699 274.574C58.3619 274.854 58.8145 274.994 59.3279 274.994ZM73.4837 273.902H74.9257V264.564H73.4837V266.104H70.1237V267.252H73.4837V268.498H70.1237V269.646H73.4837V273.902ZM71.5237 270.514C69.7737 270.822 68.2477 270.92 66.6097 270.934V265.432H65.1677V272.124H66.1477C68.0237 272.124 69.7037 272.04 71.6637 271.69L71.5237 270.514ZM68.1637 275.792V273.076H66.7217V276.968H75.2477V275.792H68.1637Z" fill="white"/>
<path d="M256.557 354.6H259.165V353.528H252.509V354.6H255.293V355.72C255.293 358.632 254.221 361.08 252.173 362.232L252.973 363.224C254.461 362.36 255.469 360.808 255.949 358.856C256.461 360.552 257.453 361.944 258.861 362.728L259.629 361.72C257.597 360.664 256.557 358.344 256.557 355.72V354.6ZM263.293 351.816V357.624H261.405V352.152H260.173V365.48H261.405V358.712H263.293V366.184H264.557V351.816H263.293ZM275.81 356.76H277.634V360.696H278.898V351.848H277.634V355.688H275.81V352.12H274.562V360.232H275.81V356.76ZM273.97 358.568C272.13 357.864 271.058 356.248 271.058 354.664V352.728H269.794V354.664C269.794 356.264 268.674 358.12 266.802 358.952L267.506 359.976C268.898 359.352 269.922 358.136 270.434 356.792C270.946 358.008 271.922 359.032 273.266 359.576L273.97 358.568ZM274.161 365.16C272.018 365.16 270.674 364.584 270.674 363.592C270.674 362.6 272.018 362.04 274.161 362.04C276.338 362.04 277.666 362.6 277.666 363.592C277.666 364.584 276.338 365.16 274.161 365.16ZM274.161 361.016C271.218 361.016 269.378 361.96 269.378 363.592C269.378 365.224 271.218 366.168 274.161 366.168C277.122 366.168 278.962 365.224 278.962 363.592C278.962 361.96 277.122 361.016 274.161 361.016ZM284.502 361.816C283.35 361.816 282.63 360.36 282.63 358.008C282.63 355.704 283.35 354.248 284.502 354.248C285.622 354.248 286.358 355.704 286.358 358.008C286.358 360.36 285.622 361.816 284.502 361.816ZM289.35 357.416H287.542C287.382 354.712 286.23 353.032 284.502 353.032C282.63 353.032 281.43 354.952 281.43 358.008C281.43 361.112 282.63 363.032 284.502 363.032C286.262 363.032 287.43 361.304 287.542 358.488H289.35V365.48H290.598V352.152H289.35V357.416ZM292.198 351.832V366.184H293.446V351.832H292.198ZM297.819 353.432H296.507V362.744H297.627C299.899 362.744 301.915 362.6 304.187 362.168L304.011 361.048C301.899 361.48 299.947 361.624 297.819 361.64V353.432ZM306.235 351.832V356.568H301.835V357.656H306.235V366.216H307.547V351.832H306.235ZM315.312 354.392H318.688V353.304H310.672V354.392H314V356.216C314 358.696 312.256 361.4 310.192 362.376L310.96 363.432C312.592 362.6 314 360.792 314.656 358.696C315.344 360.664 316.752 362.312 318.416 363.08L319.152 362.024C317.04 361.128 315.312 358.648 315.312 356.216V354.392ZM320.624 351.848V366.184H321.936V351.848H320.624ZM335.605 355.8V356.872H338.485V362.36H339.813V351.848H338.485V355.8H335.605ZM336.453 359.176C334.373 358.44 332.965 356.648 332.965 354.776V354.072H336.117V353H328.453V354.072H331.653V354.792C331.653 356.824 330.165 358.728 328.037 359.496L328.725 360.52C330.405 359.912 331.717 358.584 332.341 356.952C332.965 358.424 334.197 359.624 335.797 360.2L336.453 359.176ZM331.957 364.792V361.432H330.629V365.864H340.213V364.792H331.957ZM350.985 353.24H347.529V351.784H346.217V353.24H342.745V354.216H350.985V353.24ZM344.761 357.016C344.761 356.248 345.577 355.752 346.873 355.752C348.137 355.752 348.969 356.248 348.969 357.016C348.969 357.816 348.137 358.296 346.873 358.296C345.577 358.296 344.761 357.816 344.761 357.016ZM351.417 359.848C350.185 360.056 348.841 360.168 347.529 360.232V359.208C349.177 359.032 350.217 358.248 350.217 357.016C350.217 355.656 348.873 354.824 346.873 354.824C344.857 354.824 343.513 355.656 343.513 357.016C343.513 358.248 344.569 359.048 346.217 359.208V360.296C344.841 360.344 343.513 360.36 342.393 360.36L342.537 361.416C345.033 361.4 348.473 361.352 351.513 360.792L351.417 359.848ZM345.817 362.328H344.505V365.864H354.089V364.792H345.817V362.328ZM353.577 356.84V351.832H352.265V363.064H353.577V357.928H355.689V356.84H353.577ZM360.174 361.816C359.022 361.816 358.302 360.36 358.302 358.008C358.302 355.704 359.022 354.248 360.174 354.248C361.294 354.248 362.03 355.704 362.03 358.008C362.03 360.36 361.294 361.816 360.174 361.816ZM365.022 357.416H363.214C363.054 354.712 361.902 353.032 360.174 353.032C358.302 353.032 357.102 354.952 357.102 358.008C357.102 361.112 358.302 363.032 360.174 363.032C361.934 363.032 363.102 361.304 363.214 358.488H365.022V365.48H366.27V352.152H365.022V357.416ZM367.87 351.832V366.184H369.118V351.832H367.87ZM376.451 354.408H378.771V353.336H375.155V362.424H375.795C376.659 362.424 377.715 362.408 379.059 362.12L378.915 361.032C377.987 361.224 377.155 361.304 376.451 361.32V354.408ZM380.867 354.408H383.379V353.336H379.571V362.424H380.275C381.747 362.424 382.739 362.392 383.955 362.088L383.811 361C382.851 361.24 381.971 361.32 380.867 361.336V354.408ZM388.067 357.464H385.987V351.816H384.675V366.184H385.987V358.568H388.067V357.464ZM399.24 354.904H390.856V358.472H400.84V357.448H392.152V355.88H400.536V352.312H390.824V353.336H399.24V354.904ZM392.2 361.96H390.888V365.864H400.84V364.792H392.2V361.96ZM389.176 359.784V360.856H402.2V359.784H389.176ZM409.965 361.72H408.653V365.864H418.525V364.792H409.965V361.72ZM409.773 355.128C409.773 353.992 411.213 353.32 413.485 353.32C415.725 353.32 417.165 353.992 417.165 355.128C417.165 356.264 415.725 356.92 413.485 356.92C411.213 356.92 409.773 356.264 409.773 355.128ZM414.141 359.464V357.96C416.813 357.816 418.509 356.776 418.509 355.128C418.509 353.336 416.541 352.264 413.485 352.264C410.397 352.264 408.429 353.336 408.429 355.128C408.429 356.792 410.125 357.816 412.829 357.96V359.464H406.989V360.536H419.949V359.464H414.141ZM433.217 351.848H431.905V359.272H433.217V351.848ZM430.145 357.832C428.017 357.128 426.513 355.336 426.513 353.352V352.264H425.201V353.352C425.201 355.432 423.713 357.352 421.553 358.104L422.225 359.128C423.921 358.52 425.249 357.208 425.873 355.56C426.529 357.08 427.841 358.28 429.489 358.856L430.145 357.832ZM425.265 364.984V363.448H433.233V359.992H423.937V361.032H431.937V362.456H423.969V366.024H433.713V364.984H425.265ZM436.694 353.368V354.456H441.958C441.654 357.848 439.686 360.6 436.022 362.44L436.742 363.464C441.382 361.144 443.254 357.448 443.254 353.368H436.694ZM449.27 357.656H446.966V351.832H445.654V366.184H446.966V358.744H449.27V357.656ZM462.763 359.048C460.251 358.568 457.531 356.392 457.531 353.944V352.84H456.155V353.944C456.155 356.392 453.451 358.552 450.939 359.048L451.531 360.136C453.691 359.624 455.931 358.088 456.843 355.992C457.755 358.104 459.995 359.64 462.171 360.136L462.763 359.048ZM450.395 363.176V364.264H463.403V363.176H450.395ZM473.152 354.376H476.416V353.304H468.592V354.376H471.84V356.04C471.84 358.584 470.128 361.304 468.08 362.312L468.848 363.352C470.48 362.488 471.872 360.648 472.496 358.536C473.152 360.52 474.528 362.232 476.128 363.048L476.912 362.024C474.832 361.032 473.152 358.424 473.152 356.04V354.376ZM478.704 351.832V357.048H475.6V358.12H478.704V366.2H480.016V351.832H478.704ZM483.285 352.744V353.816H488.501C488.245 356.248 486.149 358.136 482.645 359.08L483.157 360.12C487.381 358.968 489.909 356.392 489.909 352.744H483.285ZM486.053 361.704H492.501V364.92H486.053V361.704ZM484.757 365.976H493.797V360.648H484.757V365.976ZM495.925 355.336H493.797V351.816H492.485V359.976H493.797V356.424H495.925V355.336Z" fill="#666666"/>
<path d="M942.657 354.6H945.265V353.528H938.609V354.6H941.393V355.72C941.393 358.632 940.321 361.08 938.273 362.232L939.073 363.224C940.561 362.36 941.569 360.808 942.049 358.856C942.561 360.552 943.553 361.944 944.961 362.728L945.729 361.72C943.697 360.664 942.657 358.344 942.657 355.72V354.6ZM949.393 351.816V357.624H947.505V352.152H946.273V365.48H947.505V358.712H949.393V366.184H950.657V351.816H949.393ZM961.91 356.76H963.734V360.696H964.998V351.848H963.734V355.688H961.91V352.12H960.662V360.232H961.91V356.76ZM960.07 358.568C958.23 357.864 957.158 356.248 957.158 354.664V352.728H955.894V354.664C955.894 356.264 954.774 358.12 952.902 358.952L953.606 359.976C954.998 359.352 956.022 358.136 956.534 356.792C957.046 358.008 958.022 359.032 959.366 359.576L960.07 358.568ZM960.262 365.16C958.118 365.16 956.774 364.584 956.774 363.592C956.774 362.6 958.118 362.04 960.262 362.04C962.438 362.04 963.766 362.6 963.766 363.592C963.766 364.584 962.438 365.16 960.262 365.16ZM960.262 361.016C957.318 361.016 955.478 361.96 955.478 363.592C955.478 365.224 957.318 366.168 960.262 366.168C963.222 366.168 965.062 365.224 965.062 363.592C965.062 361.96 963.222 361.016 960.262 361.016ZM970.603 361.816C969.451 361.816 968.731 360.36 968.731 358.008C968.731 355.704 969.451 354.248 970.603 354.248C971.723 354.248 972.459 355.704 972.459 358.008C972.459 360.36 971.723 361.816 970.603 361.816ZM975.451 357.416H973.643C973.483 354.712 972.331 353.032 970.603 353.032C968.731 353.032 967.531 354.952 967.531 358.008C967.531 361.112 968.731 363.032 970.603 363.032C972.363 363.032 973.531 361.304 973.643 358.488H975.451V365.48H976.699V352.152H975.451V357.416ZM978.299 351.832V366.184H979.547V351.832H978.299ZM983.919 353.432H982.607V362.744H983.727C985.999 362.744 988.015 362.6 990.287 362.168L990.111 361.048C987.999 361.48 986.047 361.624 983.919 361.64V353.432ZM992.335 351.832V356.568H987.935V357.656H992.335V366.216H993.647V351.832H992.335ZM1001.41 354.392H1004.79V353.304H996.772V354.392H1000.1V356.216C1000.1 358.696 998.356 361.4 996.292 362.376L997.06 363.432C998.692 362.6 1000.1 360.792 1000.76 358.696C1001.44 360.664 1002.85 362.312 1004.52 363.08L1005.25 362.024C1003.14 361.128 1001.41 358.648 1001.41 356.216V354.392ZM1006.72 351.848V366.184H1008.04V351.848H1006.72ZM1021.71 355.8V356.872H1024.59V362.36H1025.91V351.848H1024.59V355.8H1021.71ZM1022.55 359.176C1020.47 358.44 1019.07 356.648 1019.07 354.776V354.072H1022.22V353H1014.55V354.072H1017.75V354.792C1017.75 356.824 1016.27 358.728 1014.14 359.496L1014.83 360.52C1016.51 359.912 1017.82 358.584 1018.44 356.952C1019.07 358.424 1020.3 359.624 1021.9 360.2L1022.55 359.176ZM1018.06 364.792V361.432H1016.73V365.864H1026.31V364.792H1018.06ZM1037.09 353.24H1033.63V351.784H1032.32V353.24H1028.85V354.216H1037.09V353.24ZM1030.86 357.016C1030.86 356.248 1031.68 355.752 1032.97 355.752C1034.24 355.752 1035.07 356.248 1035.07 357.016C1035.07 357.816 1034.24 358.296 1032.97 358.296C1031.68 358.296 1030.86 357.816 1030.86 357.016ZM1037.52 359.848C1036.29 360.056 1034.94 360.168 1033.63 360.232V359.208C1035.28 359.032 1036.32 358.248 1036.32 357.016C1036.32 355.656 1034.97 354.824 1032.97 354.824C1030.96 354.824 1029.61 355.656 1029.61 357.016C1029.61 358.248 1030.67 359.048 1032.32 359.208V360.296C1030.94 360.344 1029.61 360.36 1028.49 360.36L1028.64 361.416C1031.13 361.4 1034.57 361.352 1037.61 360.792L1037.52 359.848ZM1031.92 362.312H1030.61V365.864H1040.19V364.792H1031.92V362.312ZM1039.68 356.84V351.832H1038.37V363.064H1039.68V357.928H1041.77V356.84H1039.68Z" fill="#666666"/>
</svg>
