<svg width="327" height="225" viewBox="0 0 327 225" fill="none" xmlns="http://www.w3.org/2000/svg">
<mask id="path-1-inside-1_1848_32934" fill="white">
<path d="M0 20H209V192H0V20Z"/>
</mask>
<path d="M209 191H0V193H209V191Z" fill="#DDDDDD" mask="url(#path-1-inside-1_1848_32934)"/>
<mask id="path-3-inside-2_1848_32934" fill="white">
<path d="M215 20H327V192H215V20Z"/>
</mask>
<path d="M327 191H215V193H327V191Z" fill="#DDDDDD" mask="url(#path-3-inside-2_1848_32934)"/>
<rect opacity="0.14" x="215" width="112" height="34" rx="7" fill="#10C469"/>
<rect x="275" width="52" height="34" rx="7" fill="#10C469"/>
<path d="M297.691 17.652H296.323V16.08H294.487V17.652H292.231L295.903 12.6H293.863L289.903 17.928V19.236H294.427V21H296.323V19.236H297.691V17.652ZM300.663 19.416L302.595 17.592C303.771 16.5 303.999 15.756 303.999 14.94C303.999 13.416 302.751 12.456 300.879 12.456C299.367 12.456 298.191 13.068 297.543 14.016L298.959 14.928C299.367 14.364 299.979 14.088 300.699 14.088C301.587 14.088 302.043 14.472 302.043 15.132C302.043 15.54 301.911 15.972 301.167 16.68L297.927 19.74V21H304.275V19.416H300.663ZM306.889 17.136C308.113 17.136 308.965 16.248 308.965 14.82C308.965 13.392 308.113 12.504 306.889 12.504C305.665 12.504 304.801 13.404 304.801 14.82C304.801 16.236 305.665 17.136 306.889 17.136ZM306.157 21H307.585L313.321 12.6H311.893L306.157 21ZM306.889 16.152C306.373 16.152 306.013 15.708 306.013 14.82C306.013 13.932 306.373 13.488 306.889 13.488C307.417 13.488 307.765 13.92 307.765 14.82C307.765 15.72 307.417 16.152 306.889 16.152ZM312.589 21.096C313.813 21.096 314.677 20.196 314.677 18.78C314.677 17.364 313.813 16.464 312.589 16.464C311.377 16.464 310.513 17.364 310.513 18.78C310.513 20.196 311.377 21.096 312.589 21.096ZM312.589 20.112C312.073 20.112 311.713 19.68 311.713 18.78C311.713 17.88 312.073 17.448 312.589 17.448C313.117 17.448 313.465 17.892 313.465 18.78C313.465 19.668 313.117 20.112 312.589 20.112Z" fill="white"/>
<rect opacity="0.5" width="209" height="34" rx="7" fill="#D4DFFA"/>
<path d="M209 7C209 3.13401 205.866 0 202 0L159 0C155.134 0 152 3.13401 152 7V27C152 30.866 155.134 34 159 34L202 34C205.866 34 209 30.866 209 27V7Z" fill="#435CE7"/>
<path d="M176.861 16.02L178.757 13.86V12.6H172.877V14.16H176.453L174.725 16.116V17.4H175.613C176.717 17.4 177.185 17.796 177.185 18.432C177.185 19.116 176.585 19.512 175.613 19.512C174.737 19.512 173.849 19.236 173.213 18.756L172.457 20.244C173.273 20.82 174.485 21.144 175.661 21.144C178.049 21.144 179.141 19.848 179.141 18.432C179.141 17.196 178.373 16.26 176.861 16.02ZM179.527 12.6V15.552H181.255V14.184L184.039 14.184L181.027 21H183.139L186.259 13.86V12.6L179.527 12.6ZM188.889 17.136C190.113 17.136 190.965 16.248 190.965 14.82C190.965 13.392 190.113 12.504 188.889 12.504C187.665 12.504 186.801 13.404 186.801 14.82C186.801 16.236 187.665 17.136 188.889 17.136ZM188.157 21H189.585L195.321 12.6H193.893L188.157 21ZM188.889 16.152C188.373 16.152 188.013 15.708 188.013 14.82C188.013 13.932 188.373 13.488 188.889 13.488C189.417 13.488 189.765 13.92 189.765 14.82C189.765 15.72 189.417 16.152 188.889 16.152ZM194.589 21.096C195.813 21.096 196.677 20.196 196.677 18.78C196.677 17.364 195.813 16.464 194.589 16.464C193.377 16.464 192.513 17.364 192.513 18.78C192.513 20.196 193.377 21.096 194.589 21.096ZM194.589 20.112C194.073 20.112 193.713 19.68 193.713 18.78C193.713 17.88 194.073 17.448 194.589 17.448C195.117 17.448 195.465 17.892 195.465 18.78C195.465 19.668 195.117 20.112 194.589 20.112Z" fill="white"/>
<path d="M14.172 20.956L16.74 18.484C17.88 17.392 18.12 16.66 18.12 15.844C18.12 14.404 16.992 13.504 15.24 13.504C13.932 13.504 12.816 13.972 12.168 14.776L12.984 15.484C13.5 14.86 14.232 14.572 15.132 14.572C16.308 14.572 16.92 15.1 16.92 15.964C16.92 16.492 16.752 17.02 15.864 17.884L12.444 21.184V22H18.48V20.956H14.172ZM22.6135 22.096C24.5695 22.096 26.0335 20.536 26.0335 17.8C26.0335 15.064 24.5695 13.504 22.6135 13.504C20.6455 13.504 19.1815 15.064 19.1815 17.8C19.1815 20.536 20.6455 22.096 22.6135 22.096ZM22.6135 21.028C21.2935 21.028 20.3815 19.948 20.3815 17.8C20.3815 15.652 21.2935 14.572 22.6135 14.572C23.9215 14.572 24.8335 15.652 24.8335 17.8C24.8335 19.948 23.9215 21.028 22.6135 21.028ZM28.4962 20.956L31.0642 18.484C32.2042 17.392 32.4442 16.66 32.4442 15.844C32.4442 14.404 31.3162 13.504 29.5642 13.504C28.2562 13.504 27.1402 13.972 26.4922 14.776L27.3082 15.484C27.8242 14.86 28.5562 14.572 29.4562 14.572C30.6322 14.572 31.2442 15.1 31.2442 15.964C31.2442 16.492 31.0762 17.02 30.1882 17.884L26.7682 21.184V22H32.8042V20.956H28.4962ZM35.9408 16.948H35.0048L35.2328 14.644H38.9648V13.6H34.2248L33.7808 17.992H35.6888C37.6328 17.992 38.2328 18.58 38.2328 19.528C38.2328 20.44 37.5128 21.028 36.2408 21.028C35.2208 21.028 34.2848 20.656 33.7208 20.128L33.1688 21.076C33.8888 21.712 35.0648 22.096 36.2528 22.096C38.4008 22.096 39.4328 20.932 39.4328 19.48C39.4328 17.992 38.4488 16.948 35.9408 16.948ZM47.9575 20.092H49.1935V12.088H47.9575V13.408H45.0775V14.392H47.9575V15.46H45.0775V16.444H47.9575V20.092ZM46.2775 17.188C44.7775 17.452 43.4695 17.536 42.0655 17.548V12.832H40.8295V18.568H41.6695C43.2775 18.568 44.7175 18.496 46.3975 18.196L46.2775 17.188ZM43.3975 21.712V19.384H42.1615V22.72L49.4695 22.72V21.712L43.3975 21.712Z" fill="#435CE7"/>
<rect opacity="0.14" x="215" y="46" width="112" height="34" rx="7" fill="#10C469"/>
<rect x="251" y="46" width="76" height="34" rx="7" fill="#10C469"/>
<path d="M294.828 61.732C293.952 61.732 293.244 61.984 292.752 62.476C292.812 60.868 293.712 60.04 295.116 60.04C295.68 60.04 296.22 60.148 296.688 60.46L297.408 59.032C296.82 58.66 295.956 58.456 295.068 58.456C292.536 58.456 290.784 60.076 290.784 62.98C290.784 65.692 292.224 67.144 294.54 67.144C296.316 67.144 297.72 66.064 297.72 64.348C297.72 62.764 296.448 61.732 294.828 61.732ZM294.432 65.692C293.496 65.692 292.956 65.164 292.956 64.444C292.956 63.712 293.556 63.184 294.408 63.184C295.272 63.184 295.836 63.676 295.836 64.444C295.836 65.212 295.26 65.692 294.432 65.692ZM301.055 61.756H300.371L300.503 60.16H304.007V58.6H298.883L298.451 63.328H300.599C302.123 63.328 302.555 63.76 302.555 64.42C302.555 65.104 301.955 65.512 300.983 65.512C300.107 65.512 299.231 65.236 298.595 64.756L297.827 66.244C298.643 66.82 299.867 67.144 301.031 67.144C303.431 67.144 304.523 65.848 304.523 64.36C304.523 62.872 303.539 61.756 301.055 61.756ZM306.889 63.136C308.113 63.136 308.965 62.248 308.965 60.82C308.965 59.392 308.113 58.504 306.889 58.504C305.665 58.504 304.801 59.404 304.801 60.82C304.801 62.236 305.665 63.136 306.889 63.136ZM306.157 67H307.585L313.321 58.6H311.893L306.157 67ZM306.889 62.152C306.373 62.152 306.013 61.708 306.013 60.82C306.013 59.932 306.373 59.488 306.889 59.488C307.417 59.488 307.765 59.92 307.765 60.82C307.765 61.72 307.417 62.152 306.889 62.152ZM312.589 67.096C313.813 67.096 314.677 66.196 314.677 64.78C314.677 63.364 313.813 62.464 312.589 62.464C311.377 62.464 310.513 63.364 310.513 64.78C310.513 66.196 311.377 67.096 312.589 67.096ZM312.589 66.112C312.073 66.112 311.713 65.68 311.713 64.78C311.713 63.88 312.073 63.448 312.589 63.448C313.117 63.448 313.465 63.892 313.465 64.78C313.465 65.668 313.117 66.112 312.589 66.112Z" fill="white"/>
<rect opacity="0.5" y="46" width="209" height="34" rx="7" fill="#D4DFFA"/>
<path d="M209 53C209 49.134 205.866 46 202 46L124 46C120.134 46 117 49.134 117 53V73C117 76.866 120.134 80 124 80L202 80C205.866 80 209 76.866 209 73V53Z" fill="#435CE7"/>
<path d="M175.383 61.756H174.699L174.831 60.16H178.335V58.6H173.211L172.779 63.328H174.927C176.451 63.328 176.883 63.76 176.883 64.42C176.883 65.104 176.283 65.512 175.311 65.512C174.435 65.512 173.559 65.236 172.923 64.756L172.155 66.244C172.971 66.82 174.195 67.144 175.359 67.144C177.759 67.144 178.851 65.848 178.851 64.36C178.851 62.872 177.867 61.756 175.383 61.756ZM185.138 62.584C185.762 62.2 186.122 61.612 186.122 60.856C186.122 59.38 184.802 58.456 182.87 58.456C180.962 58.456 179.642 59.38 179.642 60.856C179.642 61.612 179.99 62.2 180.614 62.584C179.81 62.992 179.342 63.664 179.342 64.564C179.342 66.148 180.746 67.144 182.87 67.144C185.006 67.144 186.422 66.148 186.422 64.564C186.422 63.664 185.954 62.992 185.138 62.584ZM182.87 59.884C183.662 59.884 184.19 60.28 184.19 60.94C184.19 61.576 183.674 61.972 182.87 61.972C182.078 61.972 181.574 61.576 181.574 60.94C181.574 60.28 182.09 59.884 182.87 59.884ZM182.87 65.716C181.91 65.716 181.31 65.248 181.31 64.504C181.31 63.76 181.91 63.304 182.87 63.304C183.842 63.304 184.454 63.76 184.454 64.504C184.454 65.248 183.842 65.716 182.87 65.716ZM188.889 63.136C190.113 63.136 190.965 62.248 190.965 60.82C190.965 59.392 190.113 58.504 188.889 58.504C187.665 58.504 186.801 59.404 186.801 60.82C186.801 62.236 187.665 63.136 188.889 63.136ZM188.157 67H189.585L195.321 58.6H193.893L188.157 67ZM188.889 62.152C188.373 62.152 188.013 61.708 188.013 60.82C188.013 59.932 188.373 59.488 188.889 59.488C189.417 59.488 189.765 59.92 189.765 60.82C189.765 61.72 189.417 62.152 188.889 62.152ZM194.589 67.096C195.813 67.096 196.677 66.196 196.677 64.78C196.677 63.364 195.813 62.464 194.589 62.464C193.377 62.464 192.513 63.364 192.513 64.78C192.513 66.196 193.377 67.096 194.589 67.096ZM194.589 66.112C194.073 66.112 193.713 65.68 193.713 64.78C193.713 63.88 194.073 63.448 194.589 63.448C195.117 63.448 195.465 63.892 195.465 64.78C195.465 65.668 195.117 66.112 194.589 66.112Z" fill="white"/>
<path d="M14.172 66.956L16.74 64.484C17.88 63.392 18.12 62.66 18.12 61.844C18.12 60.404 16.992 59.504 15.24 59.504C13.932 59.504 12.816 59.972 12.168 60.776L12.984 61.484C13.5 60.86 14.232 60.572 15.132 60.572C16.308 60.572 16.92 61.1 16.92 61.964C16.92 62.492 16.752 63.02 15.864 63.884L12.444 67.184V68H18.48V66.956H14.172ZM22.6135 68.096C24.5695 68.096 26.0335 66.536 26.0335 63.8C26.0335 61.064 24.5695 59.504 22.6135 59.504C20.6455 59.504 19.1815 61.064 19.1815 63.8C19.1815 66.536 20.6455 68.096 22.6135 68.096ZM22.6135 67.028C21.2935 67.028 20.3815 65.948 20.3815 63.8C20.3815 61.652 21.2935 60.572 22.6135 60.572C23.9215 60.572 24.8335 61.652 24.8335 63.8C24.8335 65.948 23.9215 67.028 22.6135 67.028ZM30.0342 63.128L32.2302 60.416V59.6H26.6862V60.644H30.7302L28.6182 63.236V64.076H29.2902C30.7302 64.076 31.3662 64.652 31.3662 65.54C31.3662 66.452 30.6462 67.028 29.3862 67.028C28.3542 67.028 27.4182 66.656 26.8542 66.128L26.3022 67.076C27.0102 67.712 28.1862 68.096 29.3862 68.096C31.5222 68.096 32.5662 66.944 32.5662 65.528C32.5662 64.232 31.7142 63.284 30.0342 63.128ZM36.8674 68.096C38.8234 68.096 40.2874 66.536 40.2874 63.8C40.2874 61.064 38.8234 59.504 36.8674 59.504C34.8994 59.504 33.4354 61.064 33.4354 63.8C33.4354 66.536 34.8994 68.096 36.8674 68.096ZM36.8674 67.028C35.5474 67.028 34.6354 65.948 34.6354 63.8C34.6354 61.652 35.5474 60.572 36.8674 60.572C38.1754 60.572 39.0874 61.652 39.0874 63.8C39.0874 65.948 38.1754 67.028 36.8674 67.028ZM48.9653 66.092H50.2013V58.088H48.9653V59.408H46.0853V60.392H48.9653V61.46H46.0853V62.444H48.9653V66.092ZM47.2853 63.188C45.7853 63.452 44.4773 63.536 43.0733 63.548V58.832L41.8373 58.832V64.568H42.6773C44.2853 64.568 45.7253 64.496 47.4053 64.196L47.2853 63.188ZM44.4053 67.712V65.384H43.1693V68.72H50.4773V67.712H44.4053Z" fill="#435CE7"/>
<rect opacity="0.14" x="215" y="92" width="112" height="34" rx="7" fill="#10C469"/>
<rect x="233" y="92" width="94" height="34" rx="7" fill="#10C469"/>
<path d="M292.611 104.456C290.835 104.456 289.431 105.536 289.431 107.252C289.431 108.836 290.703 109.868 292.323 109.868C293.199 109.868 293.919 109.604 294.411 109.112C294.351 110.732 293.439 111.56 292.047 111.56C291.471 111.56 290.931 111.452 290.475 111.14L289.755 112.568C290.343 112.94 291.195 113.144 292.083 113.144C294.627 113.144 296.367 111.524 296.367 108.62C296.367 105.908 294.939 104.456 292.611 104.456ZM292.755 108.416C291.891 108.416 291.327 107.924 291.327 107.156C291.327 106.388 291.903 105.908 292.731 105.908C293.655 105.908 294.195 106.436 294.195 107.156C294.195 107.888 293.607 108.416 292.755 108.416ZM300.65 113.144C302.726 113.144 304.25 111.572 304.25 108.8C304.25 106.028 302.726 104.456 300.65 104.456C298.586 104.456 297.05 106.028 297.05 108.8C297.05 111.572 298.586 113.144 300.65 113.144ZM300.65 111.5C299.69 111.5 299.018 110.708 299.018 108.8C299.018 106.892 299.69 106.1 300.65 106.1C301.622 106.1 302.294 106.892 302.294 108.8C302.294 110.708 301.622 111.5 300.65 111.5ZM306.889 109.136C308.113 109.136 308.965 108.248 308.965 106.82C308.965 105.392 308.113 104.504 306.889 104.504C305.665 104.504 304.801 105.404 304.801 106.82C304.801 108.236 305.665 109.136 306.889 109.136ZM306.157 113H307.585L313.321 104.6H311.893L306.157 113ZM306.889 108.152C306.373 108.152 306.013 107.708 306.013 106.82C306.013 105.932 306.373 105.488 306.889 105.488C307.417 105.488 307.765 105.92 307.765 106.82C307.765 107.72 307.417 108.152 306.889 108.152ZM312.589 113.096C313.813 113.096 314.677 112.196 314.677 110.78C314.677 109.364 313.813 108.464 312.589 108.464C311.377 108.464 310.513 109.364 310.513 110.78C310.513 112.196 311.377 113.096 312.589 113.096ZM312.589 112.112C312.073 112.112 311.713 111.68 311.713 110.78C311.713 109.88 312.073 109.448 312.589 109.448C313.117 109.448 313.465 109.892 313.465 110.78C313.465 111.668 313.117 112.112 312.589 112.112Z" fill="white"/>
<rect opacity="0.5" y="92" width="209" height="34" rx="7" fill="#D4DFFA"/>
<path d="M209 99C209 95.134 205.866 92 202 92L102 92C98.134 92 95 95.134 95 99V119C95 122.866 98.134 126 102 126L202 126C205.866 126 209 122.866 209 119V99Z" fill="#435CE7"/>
<path d="M173.027 104.6V107.552H174.755V106.184H177.539L174.527 113H176.639L179.759 105.86V104.6H173.027ZM183.055 107.756H182.371L182.503 106.16H186.007V104.6H180.883L180.451 109.328H182.599C184.123 109.328 184.555 109.76 184.555 110.42C184.555 111.104 183.955 111.512 182.983 111.512C182.107 111.512 181.231 111.236 180.595 110.756L179.827 112.244C180.643 112.82 181.867 113.144 183.031 113.144C185.431 113.144 186.523 111.848 186.523 110.36C186.523 108.872 185.539 107.756 183.055 107.756ZM188.889 109.136C190.113 109.136 190.965 108.248 190.965 106.82C190.965 105.392 190.113 104.504 188.889 104.504C187.665 104.504 186.801 105.404 186.801 106.82C186.801 108.236 187.665 109.136 188.889 109.136ZM188.157 113H189.585L195.321 104.6H193.893L188.157 113ZM188.889 108.152C188.373 108.152 188.013 107.708 188.013 106.82C188.013 105.932 188.373 105.488 188.889 105.488C189.417 105.488 189.765 105.92 189.765 106.82C189.765 107.72 189.417 108.152 188.889 108.152ZM194.589 113.096C195.813 113.096 196.677 112.196 196.677 110.78C196.677 109.364 195.813 108.464 194.589 108.464C193.377 108.464 192.513 109.364 192.513 110.78C192.513 112.196 193.377 113.096 194.589 113.096ZM194.589 112.112C194.073 112.112 193.713 111.68 193.713 110.78C193.713 109.88 194.073 109.448 194.589 109.448C195.117 109.448 195.465 109.892 195.465 110.78C195.465 111.668 195.117 112.112 194.589 112.112Z" fill="white"/>
<path d="M14.172 112.956L16.74 110.484C17.88 109.392 18.12 108.66 18.12 107.844C18.12 106.404 16.992 105.504 15.24 105.504C13.932 105.504 12.816 105.972 12.168 106.776L12.984 107.484C13.5 106.86 14.232 106.572 15.132 106.572C16.308 106.572 16.92 107.1 16.92 107.964C16.92 108.492 16.752 109.02 15.864 109.884L12.444 113.184V114H18.48V112.956H14.172ZM22.6135 114.096C24.5695 114.096 26.0335 112.536 26.0335 109.8C26.0335 107.064 24.5695 105.504 22.6135 105.504C20.6455 105.504 19.1815 107.064 19.1815 109.8C19.1815 112.536 20.6455 114.096 22.6135 114.096ZM22.6135 113.028C21.2935 113.028 20.3815 111.948 20.3815 109.8C20.3815 107.652 21.2935 106.572 22.6135 106.572C23.9215 106.572 24.8335 107.652 24.8335 109.8C24.8335 111.948 23.9215 113.028 22.6135 113.028ZM34.2434 110.904H32.6474V109.08H31.5194V110.904H28.2914L32.4074 105.6H31.1114L26.8154 111.096V111.936H31.4834V114H32.6474V111.936H34.2434V110.904ZM38.1447 114.096C40.1007 114.096 41.5647 112.536 41.5647 109.8C41.5647 107.064 40.1007 105.504 38.1447 105.504C36.1767 105.504 34.7127 107.064 34.7127 109.8C34.7127 112.536 36.1767 114.096 38.1447 114.096ZM38.1447 113.028C36.8247 113.028 35.9127 111.948 35.9127 109.8C35.9127 107.652 36.8247 106.572 38.1447 106.572C39.4527 106.572 40.3647 107.652 40.3647 109.8C40.3647 111.948 39.4527 113.028 38.1447 113.028ZM50.2426 112.092H51.4786V104.088H50.2426V105.408H47.3626V106.392H50.2426V107.46H47.3626V108.444H50.2426V112.092ZM48.5626 109.188C47.0626 109.452 45.7546 109.536 44.3506 109.548V104.832H43.1146V110.568H43.9546C45.5626 110.568 47.0026 110.496 48.6826 110.196L48.5626 109.188ZM45.6826 113.712V111.384H44.4466V114.72H51.7546V113.712H45.6826Z" fill="#435CE7"/>
<rect opacity="0.14" x="215" y="138" width="112" height="30" rx="7" fill="#10C469"/>
<rect x="215" y="138" width="112" height="34" rx="7" fill="#10C469"/>
<path d="M284.322 150.6V152.16H286.002V159H287.946V150.6H284.322ZM292.756 159.144C294.832 159.144 296.356 157.572 296.356 154.8C296.356 152.028 294.832 150.456 292.756 150.456C290.692 150.456 289.156 152.028 289.156 154.8C289.156 157.572 290.692 159.144 292.756 159.144ZM292.756 157.5C291.796 157.5 291.124 156.708 291.124 154.8C291.124 152.892 291.796 152.1 292.756 152.1C293.728 152.1 294.4 152.892 294.4 154.8C294.4 156.708 293.728 157.5 292.756 157.5ZM300.65 159.144C302.726 159.144 304.25 157.572 304.25 154.8C304.25 152.028 302.726 150.456 300.65 150.456C298.586 150.456 297.05 152.028 297.05 154.8C297.05 157.572 298.586 159.144 300.65 159.144ZM300.65 157.5C299.69 157.5 299.018 156.708 299.018 154.8C299.018 152.892 299.69 152.1 300.65 152.1C301.622 152.1 302.294 152.892 302.294 154.8C302.294 156.708 301.622 157.5 300.65 157.5ZM306.889 155.136C308.113 155.136 308.965 154.248 308.965 152.82C308.965 151.392 308.113 150.504 306.889 150.504C305.665 150.504 304.801 151.404 304.801 152.82C304.801 154.236 305.665 155.136 306.889 155.136ZM306.157 159H307.585L313.321 150.6H311.893L306.157 159ZM306.889 154.152C306.373 154.152 306.013 153.708 306.013 152.82C306.013 151.932 306.373 151.488 306.889 151.488C307.417 151.488 307.765 151.92 307.765 152.82C307.765 153.72 307.417 154.152 306.889 154.152ZM312.589 159.096C313.813 159.096 314.677 158.196 314.677 156.78C314.677 155.364 313.813 154.464 312.589 154.464C311.377 154.464 310.513 155.364 310.513 156.78C310.513 158.196 311.377 159.096 312.589 159.096ZM312.589 158.112C312.073 158.112 311.713 157.68 311.713 156.78C311.713 155.88 312.073 155.448 312.589 155.448C313.117 155.448 313.465 155.892 313.465 156.78C313.465 157.668 313.117 158.112 312.589 158.112Z" fill="white"/>
<rect opacity="0.5" y="138" width="209" height="34" rx="7" fill="#D4DFFA"/>
<path d="M209 145C209 141.134 205.866 138 202 138L74 138C70.134 138 67 141.134 67 145V165C67 168.866 70.134 172 74 172L202 172C205.866 172 209 168.866 209 165V145Z" fill="#435CE7"/>
<path d="M178.075 154.584C178.699 154.2 179.059 153.612 179.059 152.856C179.059 151.38 177.739 150.456 175.807 150.456C173.899 150.456 172.579 151.38 172.579 152.856C172.579 153.612 172.927 154.2 173.551 154.584C172.747 154.992 172.279 155.664 172.279 156.564C172.279 158.148 173.683 159.144 175.807 159.144C177.943 159.144 179.359 158.148 179.359 156.564C179.359 155.664 178.891 154.992 178.075 154.584ZM175.807 151.884C176.599 151.884 177.127 152.28 177.127 152.94C177.127 153.576 176.611 153.972 175.807 153.972C175.015 153.972 174.511 153.576 174.511 152.94C174.511 152.28 175.027 151.884 175.807 151.884ZM175.807 157.716C174.847 157.716 174.247 157.248 174.247 156.504C174.247 155.76 174.847 155.304 175.807 155.304C176.779 155.304 177.391 155.76 177.391 156.504C177.391 157.248 176.779 157.716 175.807 157.716ZM182.663 157.416L184.595 155.592C185.771 154.5 185.999 153.756 185.999 152.94C185.999 151.416 184.751 150.456 182.879 150.456C181.367 150.456 180.191 151.068 179.543 152.016L180.959 152.928C181.367 152.364 181.979 152.088 182.699 152.088C183.587 152.088 184.043 152.472 184.043 153.132C184.043 153.54 183.911 153.972 183.167 154.68L179.927 157.74V159H186.275V157.416H182.663ZM188.889 155.136C190.113 155.136 190.965 154.248 190.965 152.82C190.965 151.392 190.113 150.504 188.889 150.504C187.665 150.504 186.801 151.404 186.801 152.82C186.801 154.236 187.665 155.136 188.889 155.136ZM188.157 159H189.585L195.321 150.6H193.893L188.157 159ZM188.889 154.152C188.373 154.152 188.013 153.708 188.013 152.82C188.013 151.932 188.373 151.488 188.889 151.488C189.417 151.488 189.765 151.92 189.765 152.82C189.765 153.72 189.417 154.152 188.889 154.152ZM194.589 159.096C195.813 159.096 196.677 158.196 196.677 156.78C196.677 155.364 195.813 154.464 194.589 154.464C193.377 154.464 192.513 155.364 192.513 156.78C192.513 158.196 193.377 159.096 194.589 159.096ZM194.589 158.112C194.073 158.112 193.713 157.68 193.713 156.78C193.713 155.88 194.073 155.448 194.589 155.448C195.117 155.448 195.465 155.892 195.465 156.78C195.465 157.668 195.117 158.112 194.589 158.112Z" fill="white"/>
<path d="M14.172 158.956L16.74 156.484C17.88 155.392 18.12 154.66 18.12 153.844C18.12 152.404 16.992 151.504 15.24 151.504C13.932 151.504 12.816 151.972 12.168 152.776L12.984 153.484C13.5 152.86 14.232 152.572 15.132 152.572C16.308 152.572 16.92 153.1 16.92 153.964C16.92 154.492 16.752 155.02 15.864 155.884L12.444 159.184V160H18.48V158.956H14.172ZM22.6135 160.096C24.5695 160.096 26.0335 158.536 26.0335 155.8C26.0335 153.064 24.5695 151.504 22.6135 151.504C20.6455 151.504 19.1815 153.064 19.1815 155.8C19.1815 158.536 20.6455 160.096 22.6135 160.096ZM22.6135 159.028C21.2935 159.028 20.3815 157.948 20.3815 155.8C20.3815 153.652 21.2935 152.572 22.6135 152.572C23.9215 152.572 24.8335 153.652 24.8335 155.8C24.8335 157.948 23.9215 159.028 22.6135 159.028ZM29.3354 154.948H28.3994L28.6274 152.644H32.3594V151.6H27.6194L27.1754 155.992H29.0834C31.0274 155.992 31.6274 156.58 31.6274 157.528C31.6274 158.44 30.9074 159.028 29.6354 159.028C28.6154 159.028 27.6794 158.656 27.1154 158.128L26.5634 159.076C27.2834 159.712 28.4594 160.096 29.6474 160.096C31.7954 160.096 32.8274 158.932 32.8274 157.48C32.8274 155.992 31.8434 154.948 29.3354 154.948ZM37.008 160.096C38.964 160.096 40.428 158.536 40.428 155.8C40.428 153.064 38.964 151.504 37.008 151.504C35.04 151.504 33.576 153.064 33.576 155.8C33.576 158.536 35.04 160.096 37.008 160.096ZM37.008 159.028C35.688 159.028 34.776 157.948 34.776 155.8C34.776 153.652 35.688 152.572 37.008 152.572C38.316 152.572 39.228 153.652 39.228 155.8C39.228 157.948 38.316 159.028 37.008 159.028ZM49.1059 158.092H50.3419V150.088H49.1059V151.408H46.2259V152.392H49.1059V153.46H46.2259V154.444H49.1059V158.092ZM47.4259 155.188C45.9259 155.452 44.6179 155.536 43.2139 155.548V150.832H41.9779V156.568H42.8179C44.4259 156.568 45.8659 156.496 47.5459 156.196L47.4259 155.188ZM44.5459 159.712V157.384H43.3099V160.72H50.6179V159.712H44.5459Z" fill="#435CE7"/>
<path d="M9.52267 215.55H11.6417V214.679H6.23367V215.55H8.49567V216.46C8.49567 218.826 7.62467 220.815 5.96067 221.751L6.61067 222.557C7.81967 221.855 8.63867 220.594 9.02867 219.008C9.44467 220.386 10.2507 221.517 11.3947 222.154L12.0187 221.335C10.3677 220.477 9.52267 218.592 9.52267 216.46V215.55ZM14.9957 213.288V218.007H13.4617V213.561H12.4607V224.39H13.4617V218.891H14.9957V224.962H16.0227V213.288H14.9957ZM25.1187 217.305H26.6007V220.503H27.6277V213.314H26.6007V216.434H25.1187V213.535H24.1047V220.126H25.1187V217.305ZM23.6237 218.774C22.1287 218.202 21.2577 216.889 21.2577 215.602V214.029H20.2307V215.602C20.2307 216.902 19.3207 218.41 17.7997 219.086L18.3717 219.918C19.5027 219.411 20.3347 218.423 20.7507 217.331C21.1667 218.319 21.9597 219.151 23.0517 219.593L23.6237 218.774ZM23.7797 224.13C22.0377 224.13 20.9457 223.662 20.9457 222.856C20.9457 222.05 22.0377 221.595 23.7797 221.595C25.5477 221.595 26.6267 222.05 26.6267 222.856C26.6267 223.662 25.5477 224.13 23.7797 224.13ZM23.7797 220.763C21.3877 220.763 19.8927 221.53 19.8927 222.856C19.8927 224.182 21.3877 224.949 23.7797 224.949C26.1847 224.949 27.6797 224.182 27.6797 222.856C27.6797 221.53 26.1847 220.763 23.7797 220.763ZM32.1346 221.413C31.1986 221.413 30.6136 220.23 30.6136 218.319C30.6136 216.447 31.1986 215.264 32.1346 215.264C33.0446 215.264 33.6426 216.447 33.6426 218.319C33.6426 220.23 33.0446 221.413 32.1346 221.413ZM36.0736 217.838H34.6046C34.4746 215.641 33.5386 214.276 32.1346 214.276C30.6136 214.276 29.6386 215.836 29.6386 218.319C29.6386 220.841 30.6136 222.401 32.1346 222.401C33.5646 222.401 34.5136 220.997 34.6046 218.709H36.0736V224.39H37.0876V213.561H36.0736V217.838ZM38.3876 213.301V224.962H39.4016V213.301H38.3876ZM42.9076 214.601H41.8416V222.167H42.7516C44.5976 222.167 46.2356 222.05 48.0816 221.699L47.9386 220.789C46.2226 221.14 44.6366 221.257 42.9076 221.27V214.601ZM49.7456 213.301V217.149H46.1706V218.033H49.7456V224.988H50.8116V213.301H49.7456ZM57.0736 215.381H59.8166V214.497H53.3036V215.381H56.0076V216.863C56.0076 218.878 54.5906 221.075 52.9136 221.868L53.5376 222.726C54.8636 222.05 56.0076 220.581 56.5406 218.878C57.0996 220.477 58.2436 221.816 59.5956 222.44L60.1936 221.582C58.4776 220.854 57.0736 218.839 57.0736 216.863V215.381ZM61.3896 213.314V224.962H62.4556V213.314H61.3896ZM73.4678 216.525V217.396H75.8078V221.855H76.8868V213.314H75.8078V216.525H73.4678ZM74.1568 219.268C72.4668 218.67 71.3228 217.214 71.3228 215.693V215.121H73.8838V214.25H67.6568V215.121H70.2568V215.706C70.2568 217.357 69.0478 218.904 67.3188 219.528L67.8778 220.36C69.2428 219.866 70.3088 218.787 70.8158 217.461C71.3228 218.657 72.3238 219.632 73.6238 220.1L74.1568 219.268ZM70.5038 223.831V221.101H69.4248V224.702H77.2118V223.831H70.5038ZM85.9178 214.445H83.1098V213.262H82.0438V214.445H79.2228V215.238H85.9178V214.445ZM80.8608 217.513C80.8608 216.889 81.5238 216.486 82.5768 216.486C83.6038 216.486 84.2798 216.889 84.2798 217.513C84.2798 218.163 83.6038 218.553 82.5768 218.553C81.5238 218.553 80.8608 218.163 80.8608 217.513ZM86.2688 219.814C85.2678 219.983 84.1758 220.074 83.1098 220.126V219.294C84.4488 219.151 85.2938 218.514 85.2938 217.513C85.2938 216.408 84.2018 215.732 82.5768 215.732C80.9388 215.732 79.8468 216.408 79.8468 217.513C79.8468 218.514 80.7048 219.164 82.0438 219.294V220.178C80.9258 220.217 79.8468 220.23 78.9368 220.23L79.0538 221.088C81.0818 221.075 83.8768 221.036 86.3468 220.581L86.2688 219.814ZM81.7188 221.829H80.6528V224.702H88.4398V223.831H81.7188V221.829ZM88.0238 217.37V213.301H86.9578V222.427H88.0238V218.254H89.7398V217.37H88.0238ZM93.3368 221.413C92.4008 221.413 91.8158 220.23 91.8158 218.319C91.8158 216.447 92.4008 215.264 93.3368 215.264C94.2468 215.264 94.8448 216.447 94.8448 218.319C94.8448 220.23 94.2468 221.413 93.3368 221.413ZM97.2758 217.838H95.8068C95.6768 215.641 94.7408 214.276 93.3368 214.276C91.8158 214.276 90.8408 215.836 90.8408 218.319C90.8408 220.841 91.8158 222.401 93.3368 222.401C94.7668 222.401 95.7158 220.997 95.8068 218.709H97.2758V224.39H98.2898V213.561H97.2758V217.838ZM99.5898 213.301V224.962H100.604V213.301H99.5898ZM106.468 215.394H108.353V214.523H105.415V221.907H105.935C106.637 221.907 107.495 221.894 108.587 221.66L108.47 220.776C107.716 220.932 107.04 220.997 106.468 221.01V215.394ZM110.056 215.394H112.097V214.523H109.003V221.907H109.575C110.771 221.907 111.577 221.881 112.565 221.634L112.448 220.75C111.668 220.945 110.953 221.01 110.056 221.023V215.394ZM115.906 217.877H114.216V213.288H113.15V224.962H114.216V218.774H115.906V217.877ZM124.937 215.797H118.125V218.696H126.237V217.864H119.178V216.59H125.99V213.691H118.099V214.523H124.937V215.797ZM119.217 221.53H118.151V224.702H126.237V223.831H119.217V221.53ZM116.76 219.762V220.633H127.342V219.762H116.76ZM133.557 221.335H132.491V224.702H140.512V223.831H133.557V221.335ZM133.401 215.979C133.401 215.056 134.571 214.51 136.417 214.51C138.237 214.51 139.407 215.056 139.407 215.979C139.407 216.902 138.237 217.435 136.417 217.435C134.571 217.435 133.401 216.902 133.401 215.979ZM136.95 219.502V218.28C139.121 218.163 140.499 217.318 140.499 215.979C140.499 214.523 138.9 213.652 136.417 213.652C133.908 213.652 132.309 214.523 132.309 215.979C132.309 217.331 133.687 218.163 135.884 218.28V219.502H131.139V220.373H141.669V219.502H136.95ZM152.403 213.314H151.337V219.346H152.403V213.314ZM149.907 218.176C148.178 217.604 146.956 216.148 146.956 214.536V213.652H145.89V214.536C145.89 216.226 144.681 217.786 142.926 218.397L143.472 219.229C144.85 218.735 145.929 217.669 146.436 216.33C146.969 217.565 148.035 218.54 149.374 219.008L149.907 218.176ZM145.942 223.987V222.739H152.416V219.931H144.863V220.776H151.363V221.933H144.889V224.832H152.806V223.987H145.942ZM155.181 214.549V215.433H159.458C159.211 218.189 157.612 220.425 154.635 221.92L155.22 222.752C158.99 220.867 160.511 217.864 160.511 214.549H155.181ZM165.399 218.033H163.527V213.301H162.461V224.962H163.527V218.917H165.399V218.033ZM176.315 219.164C174.274 218.774 172.064 217.006 172.064 215.017V214.12H170.946V215.017C170.946 217.006 168.749 218.761 166.708 219.164L167.189 220.048C168.944 219.632 170.764 218.384 171.505 216.681C172.246 218.397 174.066 219.645 175.834 220.048L176.315 219.164ZM166.266 222.518V223.402H176.835V222.518H166.266ZM184.662 215.368H187.314V214.497H180.957V215.368H183.596V216.72C183.596 218.787 182.205 220.997 180.541 221.816L181.165 222.661C182.491 221.959 183.622 220.464 184.129 218.748C184.662 220.36 185.78 221.751 187.08 222.414L187.717 221.582C186.027 220.776 184.662 218.657 184.662 216.72V215.368ZM189.173 213.301V217.539H186.651V218.41H189.173V224.975H190.239V213.301H189.173ZM192.848 214.042V214.913H197.086C196.878 216.889 195.175 218.423 192.328 219.19L192.744 220.035C196.176 219.099 198.23 217.006 198.23 214.042H192.848ZM195.097 221.322H200.336V223.935H195.097V221.322ZM194.044 224.793H201.389V220.464H194.044V224.793ZM203.118 216.148H201.389V213.288H200.323V219.918H201.389V217.032H203.118V216.148Z" fill="#666666"/>
<path d="M233.199 215.55H235.318V214.679H229.91V215.55H232.172V216.46C232.172 218.826 231.301 220.815 229.637 221.751L230.287 222.557C231.496 221.855 232.315 220.594 232.705 219.008C233.121 220.386 233.927 221.517 235.071 222.154L235.695 221.335C234.044 220.477 233.199 218.592 233.199 216.46V215.55ZM238.672 213.288V218.007H237.138V213.561H236.137V224.39H237.138V218.891H238.672V224.962H239.699V213.288H238.672ZM248.795 217.305H250.277V220.503H251.304V213.314H250.277V216.434H248.795V213.535H247.781V220.126H248.795V217.305ZM247.3 218.774C245.805 218.202 244.934 216.889 244.934 215.602V214.029H243.907V215.602C243.907 216.902 242.997 218.41 241.476 219.086L242.048 219.918C243.179 219.411 244.011 218.423 244.427 217.331C244.843 218.319 245.636 219.151 246.728 219.593L247.3 218.774ZM247.456 224.13C245.714 224.13 244.622 223.662 244.622 222.856C244.622 222.05 245.714 221.595 247.456 221.595C249.224 221.595 250.303 222.05 250.303 222.856C250.303 223.662 249.224 224.13 247.456 224.13ZM247.456 220.763C245.064 220.763 243.569 221.53 243.569 222.856C243.569 224.182 245.064 224.949 247.456 224.949C249.861 224.949 251.356 224.182 251.356 222.856C251.356 221.53 249.861 220.763 247.456 220.763ZM255.811 221.413C254.875 221.413 254.29 220.23 254.29 218.319C254.29 216.447 254.875 215.264 255.811 215.264C256.721 215.264 257.319 216.447 257.319 218.319C257.319 220.23 256.721 221.413 255.811 221.413ZM259.75 217.838H258.281C258.151 215.641 257.215 214.276 255.811 214.276C254.29 214.276 253.315 215.836 253.315 218.319C253.315 220.841 254.29 222.401 255.811 222.401C257.241 222.401 258.19 220.997 258.281 218.709H259.75V224.39H260.764V213.561H259.75V217.838ZM262.064 213.301V224.962H263.078V213.301H262.064ZM266.584 214.601H265.518V222.167H266.428C268.274 222.167 269.912 222.05 271.758 221.699L271.615 220.789C269.899 221.14 268.313 221.257 266.584 221.27V214.601ZM273.422 213.301V217.149H269.847V218.033H273.422V224.988H274.488V213.301H273.422ZM280.75 215.381H283.493V214.497H276.98V215.381H279.684V216.863C279.684 218.878 278.267 221.075 276.59 221.868L277.214 222.726C278.54 222.05 279.684 220.581 280.217 218.878C280.776 220.477 281.92 221.816 283.272 222.44L283.87 221.582C282.154 220.854 280.75 218.839 280.75 216.863V215.381ZM285.066 213.314V224.962H286.132V213.314H285.066ZM297.144 216.525V217.396H299.484V221.855H300.563V213.314H299.484V216.525H297.144ZM297.833 219.268C296.143 218.67 294.999 217.214 294.999 215.693V215.121H297.56V214.25H291.333V215.121H293.933V215.706C293.933 217.357 292.724 218.904 290.995 219.528L291.554 220.36C292.919 219.866 293.985 218.787 294.492 217.461C294.999 218.657 296 219.632 297.3 220.1L297.833 219.268ZM294.18 223.831V221.101H293.101V224.702H300.888V223.831H294.18ZM309.594 214.445H306.786V213.262H305.72V214.445H302.899V215.238H309.594V214.445ZM304.537 217.513C304.537 216.889 305.2 216.486 306.253 216.486C307.28 216.486 307.956 216.889 307.956 217.513C307.956 218.163 307.28 218.553 306.253 218.553C305.2 218.553 304.537 218.163 304.537 217.513ZM309.945 219.814C308.944 219.983 307.852 220.074 306.786 220.126V219.294C308.125 219.151 308.97 218.514 308.97 217.513C308.97 216.408 307.878 215.732 306.253 215.732C304.615 215.732 303.523 216.408 303.523 217.513C303.523 218.514 304.381 219.164 305.72 219.294V220.178C304.602 220.217 303.523 220.23 302.613 220.23L302.73 221.088C304.758 221.075 307.553 221.036 310.023 220.581L309.945 219.814ZM305.395 221.829H304.329V224.702H312.116V223.831H305.395V221.829ZM311.7 217.37V213.301H310.634V222.427H311.7V218.254H313.416V217.37H311.7Z" fill="#666666"/>
</svg>
