<svg width="327" height="314" viewBox="0 0 327 314" fill="none" xmlns="http://www.w3.org/2000/svg">
<rect x="51" width="122" height="130" rx="7" fill="#F6F7FE"/>
<path d="M51 7C51 3.13401 54.134 0 58 0L166 0C169.866 0 173 3.13401 173 7V54L51 54L51 7Z" fill="#435CE7"/>
<path d="M108.766 77.186C108.766 78.166 108.766 79.09 108.43 80.378L109.55 80.504C109.9 79.216 109.9 78.194 109.9 77.186V76.122H101.346V77.046H108.766V77.186ZM105.616 87.126C103.656 87.126 102.396 86.594 102.396 85.726C102.396 84.83 103.656 84.298 105.616 84.298C107.59 84.298 108.85 84.83 108.85 85.726C108.85 86.594 107.59 87.126 105.616 87.126ZM105.616 83.416C102.942 83.416 101.248 84.27 101.248 85.726C101.248 87.154 102.942 88.022 105.616 88.022C108.29 88.022 109.998 87.154 109.998 85.726C109.998 84.27 108.29 83.416 105.616 83.416ZM105.798 81.33V78.922H104.65V81.33H100.016V82.268H111.314V81.33H105.798ZM121.395 86.944H115.221V85.222H121.395V86.944ZM121.395 84.326H115.221V82.674H114.087V87.868H122.529V82.674H121.395V84.326ZM122.207 80.602C122.543 79.048 122.543 77.928 122.543 76.962V76.052H114.059V76.99H121.409C121.409 77.942 121.409 79.062 121.059 80.602H112.603V81.54H124.013V80.602H122.207ZM80.9623 99.454C80.9623 98.222 81.8863 97.354 83.1183 97.354C84.3503 97.354 85.2743 98.222 85.2743 99.454C85.2743 100.686 84.3503 101.554 83.1183 101.554C81.8863 101.554 80.9623 100.686 80.9623 99.454ZM86.3943 99.454C86.3943 97.634 84.9943 96.36 83.1183 96.36C81.2423 96.36 79.8423 97.634 79.8423 99.454C79.8423 101.274 81.2423 102.548 83.1183 102.548C84.9943 102.548 86.3943 101.274 86.3943 99.454ZM82.6843 103.78H81.5363V107.756H89.9083V106.818H82.6843V103.78ZM89.3483 99.3V95.478H88.2003V104.718H89.3483V100.252H91.2103V99.3H89.3483ZM98.9392 98.74V99.678H101.417V102.968H102.579V95.492H101.417V98.74H98.9392ZM99.6392 101.596C97.8192 100.952 96.5872 99.37 96.5872 97.76V97.326H99.3452V96.402H92.6392V97.326H95.4392V97.76C95.4392 99.566 94.1512 101.26 92.2752 101.946L92.8772 102.856C94.3472 102.296 95.5092 101.12 96.0412 99.664C96.5872 100.952 97.6652 101.988 99.0652 102.492L99.6392 101.596ZM98.4352 107.14C96.5452 107.14 95.3972 106.608 95.3972 105.698C95.3972 104.788 96.5452 104.242 98.4352 104.242C100.325 104.242 101.473 104.788 101.473 105.698C101.473 106.608 100.325 107.14 98.4352 107.14ZM98.4352 103.36C95.8592 103.36 94.2492 104.214 94.2492 105.698C94.2492 107.182 95.8592 108.036 98.4352 108.036C101.011 108.036 102.607 107.182 102.607 105.698C102.607 104.214 101.011 103.36 98.4352 103.36ZM114.046 102.912H115.208V95.492H114.046V98.152H111.316V99.09H114.046V102.912ZM112.226 101.428C110.392 100.784 109.174 99.23 109.174 97.438V96.192H108.026V97.48C108.026 99.398 106.78 101.078 104.848 101.764L105.45 102.702C106.962 102.128 108.096 100.994 108.628 99.51C109.174 100.812 110.238 101.806 111.61 102.324L112.226 101.428ZM111.064 107.112C109.174 107.112 108.026 106.566 108.026 105.656C108.026 104.732 109.174 104.186 111.064 104.186C112.954 104.186 114.102 104.732 114.102 105.656C114.102 106.566 112.954 107.112 111.064 107.112ZM111.064 103.29C108.488 103.29 106.878 104.144 106.878 105.656C106.878 107.154 108.488 108.022 111.064 108.022C113.64 108.022 115.236 107.154 115.236 105.656C115.236 104.144 113.64 103.29 111.064 103.29ZM127.834 96.626H124.81V95.394H123.662V96.626H120.624V97.494H127.834V96.626ZM122.388 99.818C122.388 99.16 123.102 98.754 124.236 98.754C125.342 98.754 126.07 99.16 126.07 99.818C126.07 100.476 125.342 100.896 124.236 100.896C123.102 100.896 122.388 100.476 122.388 99.818ZM128.212 102.226C127.12 102.394 125.958 102.478 124.81 102.534V101.666C126.252 101.512 127.162 100.84 127.162 99.818C127.162 98.67 125.986 97.956 124.236 97.956C122.458 97.956 121.296 98.67 121.296 99.818C121.296 100.854 122.206 101.526 123.662 101.666V102.576C122.458 102.618 121.31 102.618 120.316 102.618L120.442 103.542C122.64 103.528 125.608 103.528 128.296 103.052L128.212 102.226ZM121.842 105.446H128.954V108.036H130.102V104.536H121.842V105.446ZM131.95 99.286H130.102V95.492H128.954V103.906H130.102V100.238H131.95V99.286ZM135.479 99.552H141.891V101.862H135.479V99.552ZM139.259 105.488V102.786H143.011V96.374H141.891V98.614H135.479V96.374H134.345V102.786H138.097V105.488H133.001V106.426H144.383V105.488H139.259Z" fill="#666666"/>
<path d="M78.6441 16.918C79.4141 16.54 79.9601 15.798 79.9601 14.734C79.9601 13.152 78.7001 12.2 76.4461 12.2H72.0501V22H76.7261C79.2041 22 80.4781 21.034 80.4781 19.354C80.4781 18.052 79.7501 17.226 78.6441 16.918ZM76.3201 13.334C77.7481 13.334 78.5601 13.866 78.5601 14.902C78.5601 15.938 77.7481 16.47 76.3201 16.47H73.4501V13.334H76.3201ZM76.6701 20.866H73.4501V17.604H76.6701C78.2241 17.604 79.0641 18.108 79.0641 19.242C79.0641 20.376 78.2241 20.866 76.6701 20.866ZM85.3778 22.084C87.6038 22.084 89.2278 20.502 89.2278 18.29C89.2278 16.078 87.6038 14.51 85.3778 14.51C83.1518 14.51 81.5138 16.078 81.5138 18.29C81.5138 20.502 83.1518 22.084 85.3778 22.084ZM85.3778 20.908C83.9498 20.908 82.8718 19.872 82.8718 18.29C82.8718 16.708 83.9498 15.686 85.3778 15.686C86.8058 15.686 87.8698 16.708 87.8698 18.29C87.8698 19.872 86.8058 20.908 85.3778 20.908ZM94.5885 20.6C94.3085 20.824 93.9305 20.95 93.5385 20.95C92.7965 20.95 92.3765 20.502 92.3765 19.704V15.686H94.5045V14.58H92.3765V12.956H91.0325V14.58H89.7725V15.686H91.0325V19.76C91.0325 21.258 91.8865 22.084 93.3845 22.084C93.9865 22.084 94.6025 21.916 95.0085 21.566L94.5885 20.6ZM99.9576 20.6C99.6776 20.824 99.2996 20.95 98.9076 20.95C98.1656 20.95 97.7456 20.502 97.7456 19.704V15.686H99.8736V14.58H97.7456V12.956H96.4016V14.58H95.1416V15.686H96.4016V19.76C96.4016 21.258 97.2556 22.084 98.7536 22.084C99.3556 22.084 99.9716 21.916 100.378 21.566L99.9576 20.6ZM101.753 22H103.097V11.612H101.753V22ZM112.119 18.332C112.119 16.05 110.593 14.51 108.451 14.51C106.309 14.51 104.727 16.092 104.727 18.29C104.727 20.502 106.323 22.084 108.717 22.084C109.949 22.084 110.971 21.664 111.643 20.88L110.901 20.012C110.355 20.614 109.627 20.908 108.759 20.908C107.289 20.908 106.239 20.04 106.071 18.738H112.091C112.105 18.612 112.119 18.444 112.119 18.332ZM108.451 15.644C109.753 15.644 110.691 16.526 110.831 17.772H106.071C106.211 16.512 107.163 15.644 108.451 15.644ZM113.396 18.738H117.162V17.576H113.396V18.738ZM126.205 12.2V19.508L120.325 12.2H119.177V22H120.577V14.692L126.457 22H127.605V12.2H126.205ZM136.798 18.332C136.798 16.05 135.272 14.51 133.13 14.51C130.988 14.51 129.406 16.092 129.406 18.29C129.406 20.502 131.002 22.084 133.396 22.084C134.628 22.084 135.65 21.664 136.322 20.88L135.58 20.012C135.034 20.614 134.306 20.908 133.438 20.908C131.968 20.908 130.918 20.04 130.75 18.738H136.77C136.784 18.612 136.798 18.444 136.798 18.332ZM133.13 15.644C134.432 15.644 135.37 16.526 135.51 17.772H130.75C130.89 16.512 131.842 15.644 133.13 15.644ZM141.649 22.084C142.979 22.084 144.085 21.524 144.673 20.488L143.651 19.844C143.175 20.572 142.447 20.908 141.635 20.908C140.179 20.908 139.087 19.9 139.087 18.29C139.087 16.708 140.179 15.686 141.635 15.686C142.447 15.686 143.175 16.022 143.651 16.75L144.673 16.092C144.085 15.056 142.979 14.51 141.649 14.51C139.367 14.51 137.729 16.078 137.729 18.29C137.729 20.502 139.367 22.084 141.649 22.084ZM151.737 22H153.389L149.959 17.646L153.081 14.58H151.457L147.411 18.276V11.612H146.067V22H147.411V19.97L148.951 18.542L151.737 22ZM97.8375 44.786L98.8455 44.338C97.6415 42.336 97.0815 39.97 97.0815 37.618C97.0815 35.28 97.6415 32.914 98.8455 30.898L97.8375 30.464C96.5355 32.578 95.7655 34.86 95.7655 37.618C95.7655 40.404 96.5355 42.658 97.8375 44.786ZM108.99 33.572V34.986H106.358V33.572H108.99ZM104.944 36.064H101.962V34.216H104.944V36.064ZM106.358 36.162H108.99V38.052H110.432V30.436H108.99V32.396H106.358V31.206H104.944V33.082H101.962V31.206H100.534V37.212H106.358V36.162ZM106.218 41.958C104.426 41.958 103.404 41.51 103.404 40.684C103.404 39.858 104.426 39.41 106.218 39.41C108.01 39.41 109.046 39.858 109.046 40.684C109.046 41.51 108.01 41.958 106.218 41.958ZM106.218 38.29C103.586 38.29 101.962 39.186 101.962 40.684C101.962 42.196 103.586 43.078 106.218 43.078C108.864 43.078 110.488 42.196 110.488 40.684C110.488 39.186 108.864 38.29 106.218 38.29ZM113.863 40.18H121.171V43.078H122.613V39.018H113.863V40.18ZM115.445 32.088H121.143V34.174H115.445V32.088ZM119.015 36.736V35.322H122.557V30.94H114.031V35.322H117.559V36.736H112.575V37.898H124.027V36.736H119.015ZM126.156 44.786C127.472 42.658 128.242 40.404 128.242 37.618C128.242 34.86 127.472 32.578 126.156 30.464L125.148 30.898C126.352 32.914 126.912 35.28 126.912 37.618C126.912 39.97 126.352 42.336 125.148 44.338L126.156 44.786Z" fill="white"/>
<rect x="51" y="140" width="122" height="130" rx="7" fill="#F6F7FE"/>
<path d="M51 147C51 143.134 54.134 140 58 140L166 140C169.866 140 173 143.134 173 147V194L51 194L51 147Z" fill="#435CE7"/>
<path d="M84.6579 221.694H82.7959C83.1459 219.888 83.1459 218.558 83.1459 217.382V216.29H74.7179V217.214H82.0259V217.382C82.0259 218.558 82.0259 219.888 81.6339 221.694H73.3039V222.632H78.3719V228.05H79.5339V222.632H84.6579V221.694ZM87.4448 217.844H90.0768V223.752H87.4448V217.844ZM86.3668 224.662H91.1408V216.934H86.3668V224.662ZM95.4948 215.478V220.448H93.8008V215.758H92.7228V227.406H93.8008V221.386H95.4948V228.022H96.5868V215.478H95.4948ZM110.627 226.944H104.873V225.32H110.627V226.944ZM110.627 224.424H104.873V222.842H103.739V227.868H111.775V222.842H110.627V224.424ZM104.859 220.924C103.613 220.924 102.717 220.112 102.717 218.964C102.717 217.816 103.613 217.018 104.859 217.018C106.105 217.018 107.001 217.816 107.001 218.964C107.001 220.112 106.105 220.924 104.859 220.924ZM110.613 215.492V218.474H108.051C107.813 217.018 106.553 216.066 104.859 216.066C102.983 216.066 101.625 217.242 101.625 218.964C101.625 220.7 102.983 221.876 104.859 221.876C106.581 221.876 107.841 220.896 108.065 219.412H110.613V222.226H111.775V215.492H110.613ZM122.849 220.154H116.619V217.102H122.849V220.154ZM123.983 216.178H115.499V221.064H123.983V216.178ZM125.439 222.772H114.043V223.71H119.139V228.022H120.287V223.71H125.439V222.772ZM131.026 218.572H133.812V217.648H131.026V215.702H129.878V217.648H127.05V218.572H129.892V219.538C129.892 221.708 128.548 223.85 126.7 224.732L127.344 225.614C128.772 224.914 129.934 223.458 130.466 221.708C131.026 223.36 132.188 224.718 133.616 225.376L134.246 224.494C132.398 223.668 131.026 221.624 131.026 219.538V218.572ZM135.884 215.464V220.518H133.168V221.456H135.884V228.064H137.032V215.464H135.884ZM141.191 221.134H145.825V216.64H140.001V217.578H144.663V220.196H140.043V225.012H141.079C143.235 225.012 145.139 224.928 147.407 224.55L147.295 223.612C145.097 223.962 143.249 224.06 141.191 224.06V221.134ZM148.471 215.464V228.05H149.619V215.464H148.471ZM84.3065 237.326H79.8125V235.674H78.6645V237.326H74.1145V238.264H84.3065V237.326ZM77.6845 243.654C78.1465 243.738 78.6645 243.78 79.2385 243.78C79.7985 243.78 80.3165 243.738 80.7645 243.654V245.656H77.6845V243.654ZM79.2385 239.986C81.0445 239.986 82.1645 240.532 82.1645 241.442C82.1645 242.338 81.0445 242.884 79.2385 242.884C77.3905 242.884 76.2705 242.338 76.2705 241.442C76.2705 240.532 77.3905 239.986 79.2385 239.986ZM81.8985 245.656V243.332C82.8085 242.94 83.3265 242.296 83.3265 241.442C83.3265 239.944 81.7445 239.09 79.2385 239.09C76.6905 239.09 75.1085 239.944 75.1085 241.442C75.1085 242.296 75.6265 242.94 76.5505 243.332V245.656H73.5545V246.594H84.9365V245.656H81.8985ZM91.8534 236.486C93.9114 236.486 95.0874 236.962 95.0874 237.802C95.0874 238.642 93.9114 239.118 91.8534 239.118C89.8094 239.118 88.6194 238.642 88.6194 237.802C88.6194 236.962 89.8094 236.486 91.8534 236.486ZM91.8534 239.972C94.6254 239.972 96.2634 239.216 96.2634 237.802C96.2634 236.388 94.6254 235.618 91.8534 235.618C89.0954 235.618 87.4434 236.388 87.4434 237.802C87.4434 239.216 89.0954 239.972 91.8534 239.972ZM93.2534 242.898H90.3974V241.652H93.2534V242.898ZM97.5234 241.652V240.728H86.1834V241.652H89.2634V242.898H87.5554V243.766H94.9474V244.886H87.5834V247.896H96.4594V247H88.7034V245.726H96.0814V242.898H94.3874V241.652H97.5234ZM106.386 237.004H103.222V235.492H102.074V237.004H98.8823V237.914H106.386V237.004ZM100.772 240.98C100.772 240.112 101.528 239.538 102.648 239.538C103.768 239.538 104.524 240.112 104.524 240.98C104.524 241.848 103.768 242.408 102.648 242.408C101.528 242.408 100.772 241.848 100.772 240.98ZM103.222 243.276C104.664 243.094 105.616 242.226 105.616 240.98C105.616 239.566 104.398 238.656 102.648 238.656C100.898 238.656 99.6803 239.566 99.6803 240.98C99.6803 242.226 100.632 243.094 102.074 243.276V244.648C100.856 244.69 99.6803 244.69 98.6723 244.69L98.8263 245.656C101.024 245.656 103.978 245.628 106.666 245.152L106.596 244.298C105.518 244.466 104.356 244.55 103.222 244.606V243.276ZM110.446 240.812H108.486V235.478H107.338V248.036H108.486V241.778H110.446V240.812ZM110.853 249.506H111.791L115.977 235.898H115.053L110.853 249.506ZM120.902 237.718H123.688V236.766H116.898V237.718H119.768V239.314C119.768 241.442 118.256 243.822 116.464 244.718L117.136 245.628C118.55 244.9 119.768 243.304 120.342 241.47C120.916 243.15 122.092 244.62 123.492 245.32L124.15 244.396C122.33 243.542 120.902 241.316 120.902 239.314V237.718ZM128.406 240.546H126.334V235.492H125.186V248.036H126.334V241.512H128.406V240.546ZM134.987 247.14C132.999 247.14 131.837 246.65 131.837 245.768C131.837 244.886 132.999 244.396 134.987 244.396C136.947 244.396 138.109 244.886 138.109 245.768C138.109 246.65 136.947 247.14 134.987 247.14ZM134.987 243.5C132.299 243.5 130.675 244.312 130.675 245.768C130.675 247.224 132.299 248.036 134.987 248.036C137.647 248.036 139.271 247.224 139.271 245.768C139.271 244.312 137.647 243.5 134.987 243.5ZM135.561 241.68V240.224H139.341V239.3H131.879V236.976H139.257V236.052H130.731V240.224H134.413V241.68H129.303V242.604H140.671V241.68H135.561ZM149.505 237.004H146.341V235.492H145.193V237.004H142.001V237.914H149.505V237.004ZM143.891 240.98C143.891 240.112 144.647 239.538 145.767 239.538C146.887 239.538 147.643 240.112 147.643 240.98C147.643 241.848 146.887 242.408 145.767 242.408C144.647 242.408 143.891 241.848 143.891 240.98ZM146.341 243.276C147.783 243.094 148.735 242.226 148.735 240.98C148.735 239.566 147.517 238.656 145.767 238.656C144.017 238.656 142.799 239.566 142.799 240.98C142.799 242.226 143.751 243.094 145.193 243.276V244.648C143.975 244.69 142.799 244.69 141.791 244.69L141.945 245.656C144.143 245.656 147.097 245.628 149.785 245.152L149.715 244.298C148.637 244.466 147.475 244.55 146.341 244.606V243.276ZM153.565 240.812H151.605V235.478H150.457V248.036H151.605V241.778H153.565V240.812Z" fill="#666666"/>
<path d="M94.1066 162L91.7826 158.71C93.1546 158.22 93.9386 157.128 93.9386 155.616C93.9386 153.488 92.3986 152.2 89.8506 152.2H86.0286V162H87.4286V159.018H89.8506C90.0606 159.018 90.2706 159.004 90.4666 158.99L92.5806 162H94.1066ZM89.8086 157.828H87.4286V153.418H89.8086C91.6006 153.418 92.5386 154.216 92.5386 155.616C92.5386 157.016 91.6006 157.828 89.8086 157.828ZM98.9325 162.084C101.158 162.084 102.782 160.502 102.782 158.29C102.782 156.078 101.158 154.51 98.9325 154.51C96.7065 154.51 95.0685 156.078 95.0685 158.29C95.0685 160.502 96.7065 162.084 98.9325 162.084ZM98.9325 160.908C97.5045 160.908 96.4265 159.872 96.4265 158.29C96.4265 156.708 97.5045 155.686 98.9325 155.686C100.36 155.686 101.424 156.708 101.424 158.29C101.424 159.872 100.36 160.908 98.9325 160.908ZM109.963 154.58V158.416C109.963 160.012 109.067 160.88 107.667 160.88C106.393 160.88 105.665 160.152 105.665 158.696V154.58H104.321V158.85C104.321 161.034 105.595 162.084 107.513 162.084C108.563 162.084 109.487 161.65 110.033 160.88V162H111.307V154.58H109.963ZM117.368 160.6C117.088 160.824 116.71 160.95 116.318 160.95C115.576 160.95 115.156 160.502 115.156 159.704V155.686H117.284V154.58H115.156V152.956H113.812V154.58H112.552V155.686H113.812V159.76C113.812 161.258 114.666 162.084 116.164 162.084C116.766 162.084 117.382 161.916 117.788 161.566L117.368 160.6ZM119.835 153.152C120.367 153.152 120.745 152.76 120.745 152.256C120.745 151.78 120.353 151.402 119.835 151.402C119.317 151.402 118.925 151.794 118.925 152.284C118.925 152.774 119.317 153.152 119.835 153.152ZM119.163 162H120.507V154.58H119.163V162ZM126.785 154.51C125.609 154.51 124.657 154.944 124.111 155.7V154.58H122.823V162H124.167V158.178C124.167 156.568 125.091 155.714 126.519 155.714C127.793 155.714 128.521 156.428 128.521 157.884V162H129.865V157.73C129.865 155.546 128.591 154.51 126.785 154.51ZM138.849 158.332C138.849 156.05 137.323 154.51 135.181 154.51C133.039 154.51 131.457 156.092 131.457 158.29C131.457 160.502 133.053 162.084 135.447 162.084C136.679 162.084 137.701 161.664 138.373 160.88L137.631 160.012C137.085 160.614 136.357 160.908 135.489 160.908C134.019 160.908 132.969 160.04 132.801 158.738H138.821C138.835 158.612 138.849 158.444 138.849 158.332ZM135.181 155.644C136.483 155.644 137.421 156.526 137.561 157.772H132.801C132.941 156.512 133.893 155.644 135.181 155.644ZM97.8375 184.786L98.8455 184.338C97.6415 182.336 97.0815 179.97 97.0815 177.618C97.0815 175.28 97.6415 172.914 98.8455 170.898L97.8375 170.464C96.5355 172.578 95.7655 174.86 95.7655 177.618C95.7655 180.404 96.5355 182.658 97.8375 184.786ZM110.376 170.422H108.934V176.848H110.376V170.422ZM101.598 173.698C101.598 172.69 102.41 172.032 103.502 172.032C104.608 172.032 105.434 172.69 105.434 173.698C105.434 174.706 104.608 175.364 103.502 175.364C102.41 175.364 101.598 174.706 101.598 173.698ZM106.834 173.698C106.834 172.032 105.42 170.842 103.502 170.842C101.598 170.842 100.198 172.032 100.198 173.698C100.198 175.364 101.598 176.54 103.502 176.54C105.42 176.54 106.834 175.364 106.834 173.698ZM103.53 181.79V180.67H110.376V177.422H102.088V178.556H108.948V179.606H102.116V182.924H110.754V181.79H103.53ZM117.559 176.526H114.465V174.44H117.559V176.526ZM118.987 171.346H117.559V173.32H114.465V171.346H113.023V177.688H118.987V171.346ZM115.907 178.836H114.451V182.84H122.963V181.664H115.907V178.836ZM122.459 174.16V170.45H121.017V179.732H122.459V175.35H124.251V174.16H122.459ZM126.156 184.786C127.472 182.658 128.242 180.404 128.242 177.618C128.242 174.86 127.472 172.578 126.156 170.464L125.148 170.898C126.352 172.914 126.912 175.28 126.912 177.618C126.912 179.97 126.352 182.336 125.148 184.338L126.156 184.786Z" fill="white"/>
<rect x="183" width="122" height="130" rx="7" fill="#F6F7FE"/>
<path d="M183 7C183 3.13401 186.134 0 190 0L298 0C301.866 0 305 3.13401 305 7V54L183 54V7Z" fill="#435CE7"/>
<path d="M218.268 88.95V89.888H220.788V94.69H221.95V85.492H220.788V88.95H218.268ZM219.01 91.904C217.19 91.26 215.958 89.692 215.958 88.054V87.438H218.716V86.5H212.01V87.438H214.81V88.068C214.81 89.846 213.508 91.512 211.646 92.184L212.248 93.08C213.718 92.548 214.866 91.386 215.412 89.958C215.958 91.246 217.036 92.296 218.436 92.8L219.01 91.904ZM215.076 96.818V93.878H213.914V97.756H222.3V96.818H215.076ZM231.625 91.092C229.721 91.428 228.111 91.512 225.913 91.512V89.706H230.407V86.22H224.751V87.158H229.273V88.824H224.779V92.45H225.773C228.097 92.45 229.749 92.366 231.737 92.03L231.625 91.092ZM225.815 94.704H232.829V98.022H233.977V93.78H225.815V94.704ZM235.839 88.432V87.48H233.977V85.492H232.829V93.122H233.977V91.064H235.839V90.112H233.977V88.432H235.839ZM244.268 91.61C242.448 90.966 241.216 89.384 241.216 87.774V87.27H243.974V86.332H237.268V87.27H240.068V87.774C240.068 89.552 238.766 91.232 236.904 91.89L237.506 92.8C238.976 92.254 240.124 91.106 240.656 89.664C241.216 90.966 242.294 92.002 243.694 92.506L244.268 91.61ZM238.808 94.606H246.046V98.05H247.194V93.682H238.808V94.606ZM246.046 85.478V88.754H243.596V89.692H246.046V92.996H247.194V85.478H246.046ZM259.428 86.738H256.544V85.352H255.396V86.738H252.4V87.662H259.428V86.738ZM254.192 90.546C254.192 89.706 254.906 89.16 255.956 89.16C257.006 89.16 257.72 89.706 257.72 90.546C257.72 91.386 257.006 91.932 255.956 91.932C254.906 91.932 254.192 91.386 254.192 90.546ZM258.798 90.546C258.798 89.188 257.622 88.292 255.956 88.292C254.276 88.292 253.114 89.188 253.114 90.546C253.114 91.904 254.276 92.8 255.956 92.8C257.622 92.8 258.798 91.904 258.798 90.546ZM261.584 96.958H255.718V95.628H261.584V96.958ZM261.584 94.746H255.718V93.458H254.584V97.868H262.718V93.458H261.584V94.746ZM261.556 85.492V88.418H259.442V89.342H261.556V90.854H259.428V91.792H261.556V92.898H262.718V85.492H261.556ZM271.637 91.4C270.181 91.638 268.977 91.694 266.653 91.694V89.79H270.909V86.234H265.491V87.172H269.789V88.908H265.533V92.632H266.429C268.935 92.632 270.209 92.59 271.749 92.324L271.637 91.4ZM266.933 94.816H274.185V98.05H275.333V93.878H266.933V94.816ZM274.185 85.492V87.34H271.735V88.278H274.185V89.958H271.735V90.882H274.185V93.206H275.333V85.492H274.185Z" fill="#666666"/>
<path d="M225.899 22.112C227.425 22.112 228.741 21.58 229.637 20.572L228.727 19.69C227.971 20.488 227.047 20.866 225.969 20.866C223.757 20.866 222.119 19.27 222.119 17.1C222.119 14.93 223.757 13.334 225.969 13.334C227.047 13.334 227.971 13.698 228.727 14.496L229.637 13.614C228.741 12.606 227.425 12.088 225.913 12.088C222.931 12.088 220.719 14.202 220.719 17.1C220.719 19.998 222.931 22.112 225.899 22.112ZM232.476 15.826V14.58H231.188V22H232.532V18.304C232.532 16.68 233.428 15.798 234.87 15.798C234.968 15.798 235.066 15.798 235.178 15.812V14.51C233.876 14.51 232.952 14.958 232.476 15.826ZM237.257 13.152C237.789 13.152 238.167 12.76 238.167 12.256C238.167 11.78 237.775 11.402 237.257 11.402C236.739 11.402 236.347 11.794 236.347 12.284C236.347 12.774 236.739 13.152 237.257 13.152ZM236.585 22H237.929V14.58H236.585V22ZM243.997 20.6C243.717 20.824 243.339 20.95 242.947 20.95C242.205 20.95 241.785 20.502 241.785 19.704V15.686H243.913V14.58H241.785V12.956H240.441V14.58H239.181V15.686H240.441V19.76C240.441 21.258 241.295 22.084 242.793 22.084C243.395 22.084 244.011 21.916 244.417 21.566L243.997 20.6ZM246.464 13.152C246.996 13.152 247.374 12.76 247.374 12.256C247.374 11.78 246.982 11.402 246.464 11.402C245.946 11.402 245.554 11.794 245.554 12.284C245.554 12.774 245.946 13.152 246.464 13.152ZM245.792 22H247.136V14.58H245.792V22ZM252.686 22.084C254.016 22.084 255.122 21.524 255.71 20.488L254.688 19.844C254.212 20.572 253.484 20.908 252.672 20.908C251.216 20.908 250.124 19.9 250.124 18.29C250.124 16.708 251.216 15.686 252.672 15.686C253.484 15.686 254.212 16.022 254.688 16.75L255.71 16.092C255.122 15.056 254.016 14.51 252.686 14.51C250.404 14.51 248.766 16.078 248.766 18.29C248.766 20.502 250.404 22.084 252.686 22.084ZM259.902 14.51C258.712 14.51 257.606 14.846 256.836 15.462L257.396 16.47C257.97 15.98 258.866 15.672 259.748 15.672C261.078 15.672 261.736 16.33 261.736 17.464V17.73H259.608C257.396 17.73 256.626 18.71 256.626 19.9C256.626 21.188 257.69 22.084 259.37 22.084C260.532 22.084 261.358 21.692 261.806 21.02V22H263.08V17.52C263.08 15.49 261.932 14.51 259.902 14.51ZM259.594 21.048C258.572 21.048 257.956 20.586 257.956 19.844C257.956 19.214 258.334 18.696 259.664 18.696H261.736V19.732C261.4 20.586 260.602 21.048 259.594 21.048ZM265.317 22H266.661V11.612H265.317V22ZM229.838 44.786L230.846 44.338C229.642 42.336 229.082 39.97 229.082 37.618C229.082 35.28 229.642 32.914 230.846 30.898L229.838 30.464C228.536 32.578 227.766 34.86 227.766 37.618C227.766 40.404 228.536 42.658 229.838 44.786ZM238.694 33.824V35.014H240.99V39.69H242.432V30.45H240.99V33.824H238.694ZM239.478 36.778C237.588 36.12 236.51 34.538 236.51 32.984V32.55H239.142V31.388H232.38V32.55H235.054V32.984C235.054 34.692 233.906 36.358 231.946 37.044L232.688 38.178C234.186 37.66 235.25 36.554 235.81 35.182C236.342 36.428 237.364 37.422 238.764 37.898L239.478 36.778ZM235.684 41.664V38.892H234.242V42.84H242.754V41.664H235.684ZM251.939 35.966C250.203 36.288 248.677 36.358 246.507 36.372V34.832H250.805V31.15H245.065V32.312H249.377V33.74H245.093V37.548H246.115C248.537 37.548 250.189 37.478 252.093 37.142L251.939 35.966ZM246.143 39.914H253.017V43.092H254.459V38.752H246.143V39.914ZM256.237 33.516V32.34H254.459V30.464H253.017V38.122H254.459V36.19H256.237V35H254.459V33.516H256.237ZM258.156 44.786C259.472 42.658 260.242 40.404 260.242 37.618C260.242 34.86 259.472 32.578 258.156 30.464L257.148 30.898C258.352 32.914 258.912 35.28 258.912 37.618C258.912 39.97 258.352 42.336 257.148 44.338L258.156 44.786Z" fill="white"/>
<rect x="183" y="140" width="122" height="130" rx="7" fill="#F6F7FE"/>
<path d="M183 147C183 143.134 186.134 140 190 140L298 140C301.866 140 305 143.134 305 147V194L183 194V147Z" fill="#435CE7"/>
<path d="M221.795 218.81H215.635V216.808H221.795V218.81ZM222.929 215.898H214.515V219.72H222.929V215.898ZM224.399 221.694V220.77H213.031V221.694H218.141V222.926H214.403V223.794H221.809V224.914H214.445V227.896H223.321V227H215.565V225.754H222.943V222.926H219.289V221.694H224.399ZM233.066 220.994C231.162 221.33 229.552 221.4 227.354 221.4V219.664H231.848V216.262H226.192V217.2H230.714V218.782H226.22V222.338H227.214C229.538 222.338 231.19 222.268 233.178 221.932L233.066 220.994ZM231.414 227.14C229.538 227.14 228.404 226.622 228.404 225.74C228.404 224.858 229.538 224.34 231.414 224.34C233.29 224.34 234.41 224.858 234.41 225.74C234.41 226.622 233.29 227.14 231.414 227.14ZM231.414 223.444C228.852 223.444 227.284 224.284 227.284 225.74C227.284 227.196 228.852 228.022 231.414 228.022C233.962 228.022 235.544 227.196 235.544 225.74C235.544 224.284 233.962 223.444 231.414 223.444ZM237.28 218.39V217.438H235.418V215.492H234.27V223.08H235.418V221.036H237.28V220.084H235.418V218.39H237.28ZM243.973 227.154C241.957 227.154 240.823 226.762 240.823 226.006C240.823 225.264 241.957 224.858 243.973 224.858C246.003 224.858 247.123 225.264 247.123 226.006C247.123 226.762 246.003 227.154 243.973 227.154ZM243.973 224.004C241.243 224.004 239.675 224.704 239.675 226.006C239.675 227.322 241.243 228.022 243.973 228.022C246.703 228.022 248.271 227.322 248.271 226.006C248.271 224.704 246.703 224.004 243.973 224.004ZM244.547 222.128V220.896H248.327V220H240.935V218.768H247.921V217.9H240.935V216.738H248.257V215.842H239.787V220.896H243.399V222.128H238.289V223.052H249.657V222.128H244.547ZM258.379 216.766H255.243V215.352H254.095V216.766H250.973V217.69H258.379V216.766ZM252.765 220.476C252.765 219.664 253.521 219.146 254.669 219.146C255.817 219.146 256.587 219.664 256.587 220.476C256.587 221.302 255.817 221.806 254.669 221.806C253.521 221.806 252.765 221.302 252.765 220.476ZM257.679 220.476C257.679 219.146 256.461 218.292 254.669 218.292C252.877 218.292 251.673 219.146 251.673 220.476C251.673 221.82 252.877 222.674 254.669 222.674C256.461 222.674 257.679 221.82 257.679 220.476ZM259.541 226.944H253.913V225.558H259.541V226.944ZM259.541 224.662H253.913V223.332H252.779V227.868H260.675V223.332H259.541V224.662ZM262.537 218.67H260.675V215.478H259.527V222.772H260.675V219.636H262.537V218.67ZM266.402 224.214C265.394 224.214 264.764 222.94 264.764 220.882C264.764 218.866 265.394 217.592 266.402 217.592C267.382 217.592 268.026 218.866 268.026 220.882C268.026 222.94 267.382 224.214 266.402 224.214ZM270.644 220.364H269.062C268.922 217.998 267.914 216.528 266.402 216.528C264.764 216.528 263.714 218.208 263.714 220.882C263.714 223.598 264.764 225.278 266.402 225.278C267.942 225.278 268.964 223.766 269.062 221.302H270.644V227.42H271.736V215.758H270.644V220.364ZM273.136 215.478V228.036H274.228V215.478H273.136ZM207.923 236.402C205.977 236.402 204.563 237.592 204.563 239.356C204.563 241.106 205.977 242.31 207.923 242.31C209.883 242.31 211.283 241.106 211.283 239.356C211.283 237.592 209.883 236.402 207.923 236.402ZM207.923 237.382C209.225 237.382 210.163 238.18 210.163 239.356C210.163 240.518 209.225 241.33 207.923 241.33C206.621 241.33 205.683 240.518 205.683 239.356C205.683 238.18 206.621 237.382 207.923 237.382ZM212.935 235.478V248.064H214.083V235.478H212.935ZM204.073 245.306C206.341 245.306 209.379 245.292 212.207 244.76L212.109 243.906C209.365 244.326 206.215 244.34 203.933 244.34L204.073 245.306ZM223.926 237.018H220.79V235.492H219.642V237.018H216.52V237.942H223.926V237.018ZM218.312 240.966C218.312 240.098 219.068 239.538 220.216 239.538C221.35 239.538 222.134 240.098 222.134 240.966C222.134 241.848 221.35 242.408 220.216 242.408C219.068 242.408 218.312 241.848 218.312 240.966ZM223.226 240.966C223.226 239.566 221.994 238.642 220.216 238.642C218.438 238.642 217.22 239.566 217.22 240.966C217.22 242.38 218.438 243.304 220.216 243.304C221.994 243.304 223.226 242.38 223.226 240.966ZM219.558 244.158H218.41V247.756H226.782V246.818H219.558V244.158ZM226.222 239.622V235.492H225.074V244.9H226.222V240.588H228.084V239.622H226.222ZM232.66 236.822V237.774H237.266C237 240.742 235.278 243.15 232.072 244.76L232.702 245.656C236.762 243.626 238.4 240.392 238.4 236.822H232.66ZM243.664 240.574H241.648V235.478H240.5V248.036H241.648V241.526H243.664V240.574ZM246.563 244.452H253.801V248.008H254.963V243.528H246.563V244.452ZM253.801 235.478V237.718H251.029C251.141 237.27 251.197 236.794 251.197 236.318H245.457V237.256H249.965C249.741 239.398 247.837 241.064 244.799 241.89L245.261 242.814C247.949 242.058 249.895 240.63 250.735 238.656H253.801V240.378H250.553V241.316H253.801V242.968H254.963V235.478H253.801ZM264.694 236.626H261.558V235.352H260.41V236.626H257.288V237.508H264.694V236.626ZM259.08 240.126C259.08 239.37 259.822 238.922 260.984 238.922C262.146 238.922 262.902 239.37 262.902 240.126C262.902 240.882 262.146 241.33 260.984 241.33C259.822 241.33 259.08 240.882 259.08 240.126ZM263.994 240.126C263.994 238.852 262.804 238.068 260.984 238.068C259.178 238.068 257.988 238.852 257.988 240.126C257.988 241.4 259.178 242.184 260.984 242.184C262.804 242.184 263.994 241.4 263.994 240.126ZM260.172 245.81H266.99V243.024H259.01V243.878H265.856V244.97H259.052V247.896H267.452V247.014H260.172V245.81ZM266.99 238.46V235.436H265.842V242.38H266.99V239.412H268.852V238.46H266.99ZM280.179 235.492H279.031V244.662H280.179V235.492ZM271.289 239.44C271.289 238.222 272.213 237.354 273.431 237.354C274.677 237.354 275.601 238.222 275.601 239.44C275.601 240.686 274.677 241.554 273.431 241.554C272.213 241.554 271.289 240.686 271.289 239.44ZM276.721 239.44C276.721 237.634 275.307 236.36 273.431 236.36C271.569 236.36 270.169 237.634 270.169 239.44C270.169 241.26 271.569 242.548 273.431 242.548C275.307 242.548 276.721 241.26 276.721 239.44ZM273.249 246.818V243.724H272.101V247.756H280.557V246.818H273.249Z" fill="#666666"/>
<path d="M213.785 162H220.491V160.782H215.185V152.2H213.785V162ZM228.262 158.332C228.262 156.05 226.736 154.51 224.594 154.51C222.452 154.51 220.87 156.092 220.87 158.29C220.87 160.502 222.466 162.084 224.86 162.084C226.092 162.084 227.114 161.664 227.786 160.88L227.044 160.012C226.498 160.614 225.77 160.908 224.902 160.908C223.432 160.908 222.382 160.04 222.214 158.738H228.234C228.248 158.612 228.262 158.444 228.262 158.332ZM224.594 155.644C225.896 155.644 226.834 156.526 226.974 157.772H222.214C222.354 156.512 223.306 155.644 224.594 155.644ZM234.992 154.58L232.388 160.53L229.84 154.58H228.44L231.688 162H233.06L236.308 154.58H234.992ZM243.813 158.332C243.813 156.05 242.287 154.51 240.145 154.51C238.003 154.51 236.421 156.092 236.421 158.29C236.421 160.502 238.017 162.084 240.411 162.084C241.643 162.084 242.665 161.664 243.337 160.88L242.595 160.012C242.049 160.614 241.321 160.908 240.453 160.908C238.983 160.908 237.933 160.04 237.765 158.738H243.785C243.799 158.612 243.813 158.444 243.813 158.332ZM240.145 155.644C241.447 155.644 242.385 156.526 242.525 157.772H237.765C237.905 156.512 238.857 155.644 240.145 155.644ZM246.717 155.826V154.58H245.429V162H246.773V158.304C246.773 156.68 247.669 155.798 249.111 155.798C249.209 155.798 249.307 155.798 249.419 155.812V154.51C248.117 154.51 247.193 154.958 246.717 155.826ZM253.514 154.51C252.324 154.51 251.218 154.846 250.448 155.462L251.008 156.47C251.582 155.98 252.478 155.672 253.36 155.672C254.69 155.672 255.348 156.33 255.348 157.464V157.73H253.22C251.008 157.73 250.238 158.71 250.238 159.9C250.238 161.188 251.302 162.084 252.982 162.084C254.144 162.084 254.97 161.692 255.418 161.02V162H256.692V157.52C256.692 155.49 255.544 154.51 253.514 154.51ZM253.206 161.048C252.184 161.048 251.568 160.586 251.568 159.844C251.568 159.214 251.946 158.696 253.276 158.696H255.348V159.732C255.012 160.586 254.214 161.048 253.206 161.048ZM264.794 154.58V155.728C264.164 154.916 263.156 154.51 262.05 154.51C259.908 154.51 258.284 155.952 258.284 158.094C258.284 160.236 259.908 161.692 262.05 161.692C263.114 161.692 264.08 161.314 264.724 160.544V161.132C264.724 162.812 263.926 163.624 262.176 163.624C261.084 163.624 260.006 163.246 259.32 162.658L258.676 163.694C259.488 164.422 260.86 164.8 262.218 164.8C264.738 164.8 266.068 163.61 266.068 160.992V154.58H264.794ZM262.204 160.516C260.706 160.516 259.642 159.522 259.642 158.094C259.642 156.652 260.706 155.686 262.204 155.686C263.688 155.686 264.752 156.652 264.752 158.094C264.752 159.522 263.688 160.516 262.204 160.516ZM275.092 158.332C275.092 156.05 273.566 154.51 271.424 154.51C269.282 154.51 267.7 156.092 267.7 158.29C267.7 160.502 269.296 162.084 271.69 162.084C272.922 162.084 273.944 161.664 274.616 160.88L273.874 160.012C273.328 160.614 272.6 160.908 271.732 160.908C270.262 160.908 269.212 160.04 269.044 158.738H275.064C275.078 158.612 275.092 158.444 275.092 158.332ZM271.424 155.644C272.726 155.644 273.664 156.526 273.804 157.772H269.044C269.184 156.512 270.136 155.644 271.424 155.644ZM229.838 184.786L230.846 184.338C229.642 182.336 229.082 179.97 229.082 177.618C229.082 175.28 229.642 172.914 230.846 170.898L229.838 170.464C228.536 172.578 227.766 174.86 227.766 177.618C227.766 180.404 228.536 182.658 229.838 184.786ZM240.99 173.782V175.238H237.924V176.414H240.99V177.87H242.432V170.436H240.99V172.606H238.386C238.456 172.214 238.498 171.794 238.498 171.346H232.758V172.508H236.958C236.706 174.482 235.068 176.036 232.1 176.862L232.674 178.01C235.404 177.212 237.266 175.798 238.05 173.782H240.99ZM238.288 181.888C236.58 181.888 235.502 181.398 235.502 180.516C235.502 179.648 236.58 179.158 238.288 179.158C240.01 179.158 241.088 179.648 241.088 180.516C241.088 181.398 240.01 181.888 238.288 181.888ZM238.288 178.024C235.726 178.024 234.074 178.976 234.074 180.516C234.074 182.07 235.726 183.022 238.288 183.022C240.85 183.022 242.516 182.07 242.516 180.516C242.516 178.976 240.85 178.024 238.288 178.024ZM252.611 174.832H253.913V178.15H255.285V170.45H253.913V173.656H252.611V170.674H251.253V177.744H252.611V174.832ZM250.749 176.358C249.181 175.742 248.425 174.426 248.425 172.956V172.606H250.483V171.43H244.855V172.606H247.025V172.956C247.025 174.468 246.213 175.98 244.547 176.68L245.303 177.8C246.493 177.296 247.291 176.358 247.739 175.252C248.173 176.246 248.901 177.016 250.007 177.464L250.749 176.358ZM251.085 181.958C249.293 181.958 248.229 181.524 248.229 180.74C248.229 179.942 249.293 179.508 251.085 179.508C252.849 179.508 253.913 179.942 253.913 180.74C253.913 181.524 252.849 181.958 251.085 181.958ZM251.085 178.388C248.439 178.388 246.787 179.27 246.787 180.74C246.787 182.196 248.439 183.078 251.085 183.078C253.703 183.078 255.355 182.196 255.355 180.74C255.355 179.27 253.703 178.388 251.085 178.388ZM258.156 184.786C259.472 182.658 260.242 180.404 260.242 177.618C260.242 174.86 259.472 172.578 258.156 170.464L257.148 170.898C258.352 172.914 258.912 175.28 258.912 177.618C258.912 179.97 258.352 182.336 257.148 184.338L258.156 184.786Z" fill="white"/>
<path d="M17.0286 2.2V6.568H10.8966V2.2H9.86065V12H10.8966V7.478H17.0286V12H18.0506V2.2H17.0286ZM21.2933 3.026C21.7133 3.026 22.0213 2.704 22.0213 2.298C22.0213 1.92 21.6993 1.612 21.2933 1.612C20.8873 1.612 20.5653 1.934 20.5653 2.312C20.5653 2.704 20.8873 3.026 21.2933 3.026ZM20.7893 12H21.7833V4.636H20.7893V12ZM30.1651 4.636V6.05C29.5491 5.084 28.4851 4.58 27.2531 4.58C25.1531 4.58 23.5571 6.022 23.5571 8.136C23.5571 10.25 25.1531 11.72 27.2531 11.72C28.4571 11.72 29.5071 11.23 30.1231 10.292V11.23C30.1231 13.05 29.2691 13.904 27.4071 13.904C26.2731 13.904 25.2091 13.526 24.5091 12.896L24.0051 13.652C24.7751 14.38 26.0911 14.786 27.4351 14.786C29.8711 14.786 31.1171 13.638 31.1171 11.104V4.636H30.1651ZM27.3511 10.838C25.7271 10.838 24.5651 9.732 24.5651 8.136C24.5651 6.54 25.7271 5.448 27.3511 5.448C28.9751 5.448 30.1511 6.54 30.1511 8.136C30.1511 9.732 28.9751 10.838 27.3511 10.838ZM37.3987 4.58C36.1527 4.58 35.1867 5.07 34.6407 5.924V1.612H33.6467V12H34.6407V8.136C34.6407 6.456 35.6347 5.476 37.2167 5.476C38.6167 5.476 39.4287 6.274 39.4287 7.828V12H40.4227V7.73C40.4227 5.616 39.1907 4.58 37.3987 4.58Z" fill="#666666"/>
<path d="M12.596 292H19.12V291.104H13.632V282.2H12.596V292ZM23.2808 292.07C25.4368 292.07 27.0188 290.502 27.0188 288.318C27.0188 286.134 25.4368 284.58 23.2808 284.58C21.1248 284.58 19.5288 286.134 19.5288 288.318C19.5288 290.502 21.1248 292.07 23.2808 292.07ZM23.2808 291.188C21.7128 291.188 20.5368 290.04 20.5368 288.318C20.5368 286.596 21.7128 285.448 23.2808 285.448C24.8488 285.448 26.0108 286.596 26.0108 288.318C26.0108 290.04 24.8488 291.188 23.2808 291.188ZM38.491 284.636L36.153 290.894L33.801 284.636H32.947L30.581 290.894L28.271 284.636H27.319L30.091 292H31.029L33.353 285.966L35.677 292H36.615L39.401 284.636H38.491Z" fill="#666666"/>
<path d="M24.2318 30.9219L21.3668 34.3598C20.824 35.0111 21.2872 36 22.135 36H27.865C28.7128 36 29.176 35.0111 28.6332 34.3598L25.7682 30.9219C25.3684 30.4421 24.6316 30.4421 24.2318 30.9219Z" fill="#888888"/>
<line x1="25.5" y1="32" x2="25.5" y2="270" stroke="#888888"/>
<path d="M305.078 286.232L301.64 283.367C300.989 282.824 300 283.287 300 284.135L300 289.865C300 290.713 300.989 291.176 301.64 290.633L305.078 287.768C305.558 287.368 305.558 286.632 305.078 286.232Z" fill="#888888"/>
<line x1="300" y1="287.5" x2="52" y2="287.5" stroke="#888888"/>
<path d="M11.04 89.768L11.04 104.264H12.704L12.704 89.768H11.04ZM1.584 90.968L1.584 100.824H8.528L8.528 90.968H6.88V94.648H3.216L3.216 90.968H1.584ZM3.216 95.96H6.88L6.88 99.496H3.216L3.216 95.96ZM2.048 115.728C4.384 115.28 6.416 113.92 7.344 112.048C8.288 113.904 10.336 115.216 12.704 115.664L13.376 114.352C10.512 113.92 8.208 111.968 8.208 109.792V109.456H12.8V108.112H1.888L1.888 109.456H6.48V109.792C6.48 111.968 4.192 113.952 1.376 114.416L2.048 115.728ZM0.816 118.064L0.816 119.408H13.904V118.064H0.816ZM3.296 125.192H1.664L1.664 134.584H2.896C5.136 134.584 7.472 134.408 9.952 133.896L9.776 132.52C7.504 132.984 5.344 133.16 3.296 133.176L3.296 125.192ZM11.104 123.784L11.104 138.232H12.752L12.752 123.784H11.104ZM13.344 147.84C10.496 147.328 8.176 145.104 8.176 142.8V141.712H6.432V142.8C6.432 145.088 4.112 147.312 1.264 147.84L1.968 149.2C4.32 148.72 6.352 147.216 7.296 145.232C8.24 147.216 10.272 148.72 12.624 149.2L13.344 147.84ZM0.816 152.016L0.816 153.376H13.904V152.016H0.816ZM2.048 170.72C4.576 170.448 6.56 169.408 7.344 167.92C8.112 169.408 10.096 170.448 12.64 170.72L13.216 169.424C10.544 169.152 8.688 168.032 8.464 166.736H12.688V165.408H2.016L2.016 166.736H6.208C5.984 168.032 4.128 169.152 1.456 169.424L2.048 170.72ZM10.624 176.672C10.624 177.504 9.424 177.968 7.312 177.968C5.2 177.968 4.016 177.504 4.016 176.672C4.016 175.808 5.2 175.36 7.312 175.36C9.424 175.36 10.624 175.808 10.624 176.672ZM13.872 172.768V171.456H0.8L0.8 172.768H6.512L6.512 174.096C3.888 174.256 2.336 175.168 2.336 176.672C2.336 178.304 4.208 179.232 7.312 179.232C10.432 179.232 12.288 178.304 12.288 176.672C12.288 175.168 10.768 174.272 8.16 174.112V172.768H13.872ZM5.52 189.976C6.08 190.104 6.704 190.168 7.344 190.168C7.984 190.168 8.608 190.104 9.168 189.96L9.168 193.112H5.52L5.52 189.976ZM7.344 183.912C9.52 183.912 11.04 184.872 11.04 186.392C11.04 187.928 9.52 188.888 7.344 188.888C5.152 188.888 3.632 187.928 3.632 186.392C3.632 184.872 5.152 183.912 7.344 183.912ZM10.816 193.112L10.816 189.352C11.968 188.696 12.656 187.672 12.656 186.392C12.656 184.088 10.416 182.616 7.344 182.616C4.256 182.616 2.032 184.088 2.032 186.392C2.032 187.672 2.72 188.712 3.872 189.352L3.872 193.112H0.816L0.816 194.456H13.904V193.112H10.816ZM8.16 210.144V206.736H12.432V205.408H4.064L4.064 201.2H12.304V199.872H2.416L2.416 206.736H6.512L6.512 210.144H0.816L0.816 211.504H13.904V210.144H8.16Z" fill="#666666"/>
<path d="M139.951 305.84H137.935C138.303 303.792 138.303 302.288 138.303 300.928V299.664H128.447V300.992H136.687C136.687 302.32 136.687 303.824 136.271 305.84H126.879V307.2H132.527V313.232H134.191V307.2H139.951V305.84ZM143.363 301.68H145.859V308.16H143.363V301.68ZM141.827 309.472H147.395V300.368H141.827V309.472ZM152.115 298.784V304.416H150.467V299.056H148.915V312.544H150.467V305.76H152.115V313.216H153.683V298.784H152.115ZM159.016 309.152H165.656V311.744H159.016V309.152ZM157.4 313.056H167.272V307.84H157.4V313.056ZM166.904 304.752C167.272 303.024 167.272 301.744 167.272 300.608V299.488H157.464V300.832H165.656C165.656 301.92 165.624 303.136 165.256 304.752H155.816V306.096H168.904V304.752H166.904ZM171.869 303.136C171.869 301.888 172.621 301.072 173.677 301.072C174.717 301.072 175.485 301.888 175.485 303.136C175.485 304.384 174.717 305.216 173.677 305.216C172.621 305.216 171.869 304.384 171.869 303.136ZM176.973 303.136C176.973 301.088 175.581 299.68 173.677 299.68C171.757 299.68 170.381 301.088 170.381 303.136C170.381 305.168 171.757 306.592 173.677 306.592C175.581 306.592 176.973 305.168 176.973 303.136ZM172.717 309.456H180.861V313.232H182.509V308.128H172.717V309.456ZM180.941 298.8V302.4H179.437V299.072H177.885V307.312H179.437V303.744H180.941V307.376H182.509V298.8H180.941ZM189.329 304.72C191.857 304.448 193.841 303.408 194.625 301.92C195.393 303.408 197.377 304.448 199.921 304.72L200.497 303.424C197.825 303.152 195.969 302.032 195.745 300.736H199.969V299.408H189.297V300.736H193.489C193.265 302.032 191.409 303.152 188.737 303.424L189.329 304.72ZM197.905 310.672C197.905 311.504 196.705 311.968 194.593 311.968C192.481 311.968 191.297 311.504 191.297 310.672C191.297 309.808 192.481 309.36 194.593 309.36C196.705 309.36 197.905 309.808 197.905 310.672ZM201.153 306.768V305.456H188.081V306.768H193.793V308.096C191.169 308.256 189.617 309.168 189.617 310.672C189.617 312.304 191.489 313.232 194.593 313.232C197.713 313.232 199.569 312.304 199.569 310.672C199.569 309.168 198.049 308.272 195.441 308.112V306.768H201.153ZM207.27 306.976C207.83 307.104 208.454 307.168 209.094 307.168C209.734 307.168 210.358 307.104 210.918 306.96V310.112H207.27V306.976ZM209.094 300.912C211.27 300.912 212.79 301.872 212.79 303.392C212.79 304.928 211.27 305.888 209.094 305.888C206.902 305.888 205.382 304.928 205.382 303.392C205.382 301.872 206.902 300.912 209.094 300.912ZM212.566 310.112V306.352C213.718 305.696 214.406 304.672 214.406 303.392C214.406 301.088 212.166 299.616 209.094 299.616C206.006 299.616 203.782 301.088 203.782 303.392C203.782 304.672 204.47 305.712 205.622 306.352V310.112H202.566V311.456H215.654V310.112H212.566ZM224.379 310.144V306.736H228.651V305.408H220.283V301.2H228.523V299.872H218.635V306.736H222.731V310.144H217.035V311.504H230.123V310.144H224.379Z" fill="#666666"/>
</svg>
