<svg width="1065" height="491" viewBox="0 0 1065 491" fill="none" xmlns="http://www.w3.org/2000/svg">
<path d="M0 1H1065V490H0V1Z" fill="white"/>
<path d="M190 490L190 1" stroke="#DDDDDD" stroke-linecap="round" stroke-linejoin="round" stroke-dasharray="2 4"/>
<path d="M410 490L410 1" stroke="#DDDDDD" stroke-linecap="round" stroke-linejoin="round" stroke-dasharray="2 4"/>
<path d="M630 490L630 1" stroke="#DDDDDD" stroke-linecap="round" stroke-linejoin="round" stroke-dasharray="2 4"/>
<path d="M850 490L850 1" stroke="#DDDDDD" stroke-linecap="round" stroke-linejoin="round" stroke-dasharray="2 4"/>
<path d="M380 106H425" stroke="#7094F0" stroke-linecap="round" stroke-linejoin="round" stroke-dasharray="2 4"/>
<path d="M429.077 106.768L425.639 109.633C424.988 110.176 423.999 109.713 423.999 108.865L423.999 103.135C423.999 102.287 424.988 101.824 425.639 102.367L429.077 105.232C429.557 105.632 429.557 106.368 429.077 106.768Z" fill="#7094F0"/>
<rect y="81" width="160" height="50" rx="7" fill="#F6F7FE"/>
<path d="M65.2634 101.8V113H63.6794V103.192H61.1514V101.8H65.2634ZM71.9171 106.856C74.3011 106.504 76.2531 105.32 77.1331 103.72C78.0131 105.32 79.9811 106.504 82.3651 106.856L82.9571 105.56C80.2051 105.192 78.1731 103.608 78.0771 101.928H82.4451V100.6H71.8051V101.928H76.2051C76.1091 103.608 74.0771 105.192 71.3251 105.56L71.9171 106.856ZM83.6771 107.912H70.6051V109.24H76.2691V114.248H77.9171V109.24H83.6611L83.6771 107.912ZM90.0658 103.544H93.1218V102.216H90.0658V100.072H88.4178V102.216H85.3138V103.544H88.4178V104.376C88.4178 106.744 87.0738 109.176 84.8658 110.232L85.7778 111.496C87.4258 110.728 88.6258 109.144 89.2658 107.272C89.8578 109.016 91.0098 110.488 92.5618 111.24L93.4738 109.976C91.3298 108.936 90.0658 106.584 90.0658 104.376V103.544ZM98.5138 105.576H96.2578V99.768H94.6098V114.232H96.2578V106.936H98.5138V105.576Z" fill="#283895"/>
<rect y="151" width="160" height="50" rx="7" fill="#F6F7FE"/>
<path d="M61.2866 181.608L64.7106 178.312C66.2306 176.856 66.5506 175.88 66.5506 174.792C66.5506 172.872 65.0466 171.672 62.7106 171.672C60.9666 171.672 59.4786 172.296 58.6146 173.368L59.7026 174.312C60.3906 173.48 61.3666 173.096 62.5666 173.096C64.1346 173.096 64.9506 173.8 64.9506 174.952C64.9506 175.656 64.7266 176.36 63.5426 177.512L58.9826 181.912V183H67.0306V181.608H61.2866ZM72.5499 176.856C74.9339 176.504 76.8859 175.32 77.7659 173.72C78.6459 175.32 80.6139 176.504 82.9979 176.856L83.5899 175.56C80.8379 175.192 78.8059 173.608 78.7099 171.928H83.0779V170.6H72.4379V171.928H76.8379C76.7419 173.608 74.7099 175.192 71.9579 175.56L72.5499 176.856ZM84.3099 177.912H71.2379V179.24H76.9019V184.248H78.5499V179.24H84.2939L84.3099 177.912ZM90.6986 173.544H93.7546V172.216H90.6986V170.072H89.0506V172.216H85.9466V173.544H89.0506V174.376C89.0506 176.744 87.7066 179.176 85.4986 180.232L86.4106 181.496C88.0586 180.728 89.2586 179.144 89.8986 177.272C90.4906 179.016 91.6426 180.488 93.1946 181.24L94.1066 179.976C91.9626 178.936 90.6986 176.584 90.6986 174.376V173.544ZM99.1466 175.576H96.8906V169.768H95.2426V184.232H96.8906V176.936H99.1466V175.576Z" fill="#283895"/>
<rect y="1" width="160" height="50" rx="7" fill="#F5F5F5"/>
<path d="M67.5343 26.856C69.9183 26.504 71.8703 25.32 72.7503 23.72C73.6302 25.32 75.5983 26.504 77.9823 26.856L78.5743 25.56C75.8223 25.192 73.7903 23.608 73.6943 21.928H78.0623V20.6H67.4223V21.928H71.8223C71.7263 23.608 69.6943 25.192 66.9423 25.56L67.5343 26.856ZM79.2943 27.912H66.2223V29.24H71.8863V34.248H73.5343V29.24H79.2783L79.2943 27.912ZM85.683 23.544H88.739V22.216H85.683V20.072H84.035V22.216H80.931V23.544H84.035V24.376C84.035 26.744 82.691 29.176 80.483 30.232L81.395 31.496C83.043 30.728 84.243 29.144 84.883 27.272C85.475 29.016 86.627 30.488 88.179 31.24L89.091 29.976C86.947 28.936 85.683 26.584 85.683 24.376V23.544ZM94.131 25.576H91.875V19.768H90.227V34.232H91.875V26.936H94.131V25.576Z" fill="#222222"/>
<rect x="220" y="151" width="160" height="50" rx="7" fill="#435CE7"/>
<path d="M277.31 172.584H280.366V171.224H272.51V172.584H275.661V173.976C275.661 176.376 274.19 179.112 271.982 180.168L272.926 181.48C274.59 180.664 275.87 178.936 276.51 176.92C277.166 178.744 278.398 180.344 280.014 181.112L280.926 179.816C278.734 178.776 277.31 176.216 277.31 173.976V172.584ZM285.694 175.48H283.438V169.784H281.79V184.232H283.438V176.84H285.694V175.48ZM291.858 178.68H294.818V181.176H291.858V178.68ZM296.45 181.176V178.68H298.578V177.352H289.922V175.352H298.258V170.792H288.274V172.12H296.626V174.04H288.306V178.68H290.226V181.176H286.722V182.536H299.81V181.176H296.45ZM302.455 177C304.167 176.616 305.367 175.752 305.991 174.6C306.631 175.64 307.799 176.44 309.447 176.792L310.103 175.512C308.023 175.08 306.807 173.944 306.791 172.632H309.815V171.336H306.791V169.816H305.127V171.336H302.119V172.632H305.143C305.127 174.024 303.895 175.272 301.783 175.736L302.455 177ZM310.567 177.384C307.463 177.816 303.879 177.848 301.191 177.848L301.399 179.208C302.535 179.208 303.799 179.192 305.143 179.144V183.816H306.791V179.048C308.071 178.984 309.399 178.824 310.663 178.6L310.567 177.384ZM311.495 169.784V184.248H313.143V169.784H311.495ZM324.204 171.16H320.764V169.656H319.116V171.16H315.676V172.488H324.204V171.16ZM318.012 175.56C318.012 174.744 318.78 174.248 319.932 174.248C321.084 174.248 321.868 174.744 321.868 175.56C321.868 176.392 321.084 176.888 319.932 176.888C318.78 176.888 318.012 176.392 318.012 175.56ZM323.436 175.56C323.436 174.04 322.028 173.016 319.932 173.016C317.852 173.016 316.428 174.04 316.428 175.56C316.428 177.096 317.852 178.12 319.932 178.12C322.028 178.12 323.436 177.096 323.436 175.56ZM325.308 182.744H319.34V181.416H325.308V182.744ZM325.308 180.136H319.34V178.808H317.708V184.056H326.94V178.808H325.308V180.136ZM328.988 173.384H326.94V169.784H325.292V178.216H326.94V174.744H328.988V173.384Z" fill="white"/>
<rect x="220" y="291" width="160" height="50" rx="7" fill="#435CE7"/>
<path d="M282.574 313.032V314.52H279.038V315.8H282.574V317.112H284.222V309.784H282.574V311.752H279.582C279.661 311.336 279.694 310.888 279.694 310.424H273.23V311.752H277.87C277.646 313.768 275.87 315.352 272.446 316.088L273.022 317.432C276.206 316.712 278.334 315.24 279.23 313.032H282.574ZM276.494 322.776V321.448H284.222V317.704H274.814V319.016H282.574V320.216H274.846V324.104H284.622V322.776H276.494ZM294.29 317.912C294.69 315.352 294.69 313.528 294.69 312.264V311.304H287.346V312.632H293.074C293.074 313.848 293.042 315.528 292.674 317.768L294.29 317.912ZM291.058 315.448H289.442V319.8C288.434 319.816 287.458 319.832 286.578 319.832L286.754 321.192C289.282 321.192 292.594 321.128 295.57 320.632L295.49 319.432C294.082 319.608 292.562 319.704 291.058 319.768V315.448ZM300.05 315.72H297.922V309.784H296.258V324.232H297.922V317.112H300.05V315.72ZM308.823 315.976C309.175 314.104 309.175 312.68 309.175 311.704V310.872H301.911V312.216H307.559C307.543 313.112 307.495 314.248 307.207 315.8L308.823 315.976ZM310.023 316.696C308.599 316.92 307.047 317.016 305.543 317.08V314.168H303.911V317.128C302.887 317.16 301.895 317.16 301.031 317.16L301.207 318.504C303.719 318.504 307.127 318.424 310.135 317.896L310.023 316.696ZM304.871 319.672H303.207V323.96H313.031V322.616H304.871V319.672ZM312.567 314.36V309.784H310.903V320.632H312.567V315.72H314.487V314.36H312.567ZM318.14 316.424H323.18V311.064H316.444V312.408H321.516V315.096H316.476V320.824H317.708C320.252 320.824 322.412 320.744 324.892 320.312L324.716 318.968C322.428 319.336 320.428 319.448 318.14 319.464V316.424ZM325.916 309.752V324.264H327.58V309.752H325.916Z" fill="white"/>
<rect x="220" y="440" width="160" height="50" rx="7" fill="#F6F7FE"/>
<path d="M282.574 462.032V463.52H279.038V464.8H282.574V466.112H284.222V458.784H282.574V460.752H279.582C279.661 460.336 279.694 459.888 279.694 459.424H273.23V460.752H277.87C277.646 462.768 275.87 464.352 272.446 465.088L273.022 466.432C276.206 465.712 278.334 464.24 279.23 462.032H282.574ZM276.494 471.776V470.448H284.222V466.704H274.814V468.016H282.574V469.216H274.846V473.104H284.622V471.776H276.494ZM294.29 466.912C294.69 464.352 294.69 462.528 294.69 461.264V460.304H287.346V461.632H293.074C293.074 462.848 293.042 464.528 292.674 466.768L294.29 466.912ZM291.058 464.448H289.442V468.8C288.434 468.816 287.458 468.832 286.578 468.832L286.754 470.192C289.282 470.192 292.594 470.128 295.57 469.632L295.49 468.416C294.082 468.608 292.562 468.688 291.058 468.752V464.448ZM300.05 464.72H297.922V458.784H296.258V473.232H297.922V466.112H300.05V464.72ZM308.823 464.976C309.175 463.104 309.175 461.68 309.175 460.704V459.872H301.911V461.216H307.559C307.543 462.112 307.495 463.248 307.207 464.8L308.823 464.976ZM310.023 465.696C308.599 465.92 307.047 466.016 305.543 466.08V463.168H303.911V466.128C302.887 466.16 301.895 466.16 301.031 466.16L301.207 467.504C303.719 467.504 307.127 467.424 310.135 466.896L310.023 465.696ZM304.871 468.672H303.207V472.96H313.031V471.616H304.871V468.672ZM312.567 463.36V458.784H310.903V469.632H312.567V464.72H314.487V463.36H312.567ZM318.14 465.424H323.18V460.064H316.444V461.408H321.516V464.096H316.476V469.824H317.708C320.252 469.824 322.412 469.744 324.892 469.312L324.716 467.968C322.428 468.336 320.428 468.448 318.14 468.464V465.424ZM325.916 458.752V473.264H327.58V458.752H325.916Z" fill="#283895"/>
<rect x="220" y="81" width="160" height="50" rx="7" fill="#7094F0"/>
<path d="M281.358 101.464H277.822V99.8H276.174V101.464H272.622V102.792H281.358V101.464ZM275.038 106.184C275.038 105.304 275.838 104.76 277.006 104.76C278.158 104.76 278.958 105.304 278.958 106.184C278.958 107.08 278.158 107.624 277.006 107.624C275.838 107.624 275.038 107.08 275.038 106.184ZM277.822 108.824C279.454 108.568 280.526 107.592 280.526 106.184C280.526 104.568 279.086 103.496 277.006 103.496C274.91 103.496 273.47 104.568 273.47 106.184C273.47 107.576 274.542 108.568 276.174 108.824V110.232C274.814 110.28 273.486 110.28 272.334 110.28L272.542 111.64C275.166 111.64 278.59 111.592 281.774 111.048L281.662 109.848C280.43 110.024 279.118 110.104 277.822 110.184V108.824ZM282.478 99.768V114.232H284.142V99.768H282.478ZM291.378 100.792C289.122 100.792 287.458 102.216 287.458 104.264C287.458 106.312 289.122 107.736 291.378 107.736C293.634 107.736 295.314 106.312 295.314 104.264C295.314 102.216 293.634 100.792 291.378 100.792ZM291.378 102.2C292.722 102.2 293.698 103 293.698 104.264C293.698 105.512 292.722 106.328 291.378 106.328C290.05 106.328 289.074 105.512 289.074 104.264C289.074 103 290.05 102.2 291.378 102.2ZM296.946 99.768V114.248H298.61V99.768H296.946ZM286.994 111.192C289.554 111.192 293.01 111.16 296.194 110.552L296.082 109.352C292.978 109.816 289.378 109.832 286.786 109.832L286.994 111.192ZM312.231 105.528C312.631 104.04 312.631 102.84 312.631 101.688V100.472H302.711V101.8H310.999C310.999 102.888 310.983 103.928 310.615 105.352L312.231 105.528ZM307.671 112.968C305.527 112.968 304.215 112.44 304.215 111.528C304.215 110.632 305.527 110.104 307.671 110.104C309.799 110.104 311.079 110.632 311.079 111.528C311.079 112.44 309.799 112.968 307.671 112.968ZM307.671 108.84C304.551 108.84 302.583 109.864 302.583 111.528C302.583 113.208 304.551 114.232 307.671 114.232C310.743 114.232 312.727 113.208 312.727 111.528C312.727 109.864 310.743 108.84 307.671 108.84ZM307.991 106.392V103.736H306.327V106.392H301.207V107.72H314.231V106.392H307.991ZM320.988 102.584H324.204V101.224H316.108V102.584H319.324V103.96C319.324 106.44 317.836 109.128 315.596 110.168L316.54 111.48C318.236 110.664 319.532 108.952 320.172 106.936C320.844 108.808 322.14 110.376 323.82 111.112L324.732 109.816C322.476 108.856 320.988 106.36 320.988 103.96V102.584ZM325.884 99.784V114.232H327.548V99.784H325.884Z" fill="white"/>
<rect x="220" y="1" width="160" height="50" rx="7" fill="#F5F5F5"/>
<path d="M278.782 21.432C280.814 21.432 282.142 22.024 282.142 23.048C282.142 24.072 280.814 24.664 278.782 24.664C276.734 24.664 275.406 24.072 275.406 23.048C275.406 22.024 276.734 21.432 278.782 21.432ZM278.782 25.992C281.87 25.992 283.902 24.856 283.902 23.048C283.902 21.24 281.87 20.104 278.782 20.104C275.678 20.104 273.662 21.24 273.662 23.048C273.662 24.856 275.678 25.992 278.782 25.992ZM275.518 29.688H273.854V33.96H283.902V32.616H275.518V29.688ZM272.238 26.968V28.312H278.062V31.048H279.742V28.312H285.342V26.968H272.238ZM288.482 24.088C288.482 22.824 289.41 21.992 290.69 21.992C291.938 21.992 292.866 22.824 292.866 24.088C292.866 25.336 291.938 26.168 290.69 26.168C289.41 26.168 288.482 25.336 288.482 24.088ZM297.042 23.112V25.064H294.29C294.386 24.76 294.434 24.44 294.434 24.088C294.434 23.736 294.386 23.416 294.306 23.112H297.042ZM297.042 26.392V28.296H298.69V19.768H297.042V21.768H293.554C292.882 21.048 291.874 20.6 290.69 20.6C288.53 20.6 286.914 22.04 286.914 24.088C286.914 26.12 288.53 27.56 290.69 27.56C291.858 27.56 292.882 27.128 293.554 26.392H297.042ZM293.874 32.936C291.826 32.936 290.626 32.408 290.626 31.416C290.626 30.456 291.826 29.912 293.874 29.912C295.938 29.912 297.122 30.456 297.122 31.416C297.122 32.408 295.938 32.936 293.874 32.936ZM293.874 28.616C290.866 28.616 289.01 29.656 289.01 31.416C289.01 33.192 290.866 34.232 293.874 34.232C296.882 34.232 298.754 33.192 298.754 31.416C298.754 29.656 296.882 28.616 293.874 28.616ZM311.015 25.336H304.407V23.496H311.015V25.336ZM312.663 20.344H311.015V22.168H304.407V20.344H302.759V26.664H312.663V20.344ZM314.279 28.232H301.175V29.56H306.855V34.248H308.503V29.56H314.279V28.232ZM320.892 20.952H319.228V23.336C319.228 26.04 317.82 28.824 315.564 29.928L316.604 31.24C318.252 30.392 319.436 28.712 320.076 26.664C320.7 28.6 321.868 30.184 323.5 31L324.476 29.672C322.268 28.648 320.892 26.024 320.892 23.336V20.952ZM325.996 19.752V24.504H322.908V25.848H325.996V34.248H327.66V19.752H325.996Z" fill="#222222"/>
<rect x="660" y="221" width="160" height="50" rx="7" fill="#435CE7"/>
<path d="M721.358 241.464H717.822V239.816H716.174V241.464H712.622V242.792H721.358V241.464ZM715.038 246.184C715.038 245.304 715.838 244.76 717.006 244.76C718.158 244.76 718.958 245.304 718.958 246.184C718.958 247.08 718.158 247.624 717.006 247.624C715.838 247.624 715.038 247.08 715.038 246.184ZM717.822 248.824C719.454 248.568 720.526 247.592 720.526 246.184C720.526 244.568 719.086 243.496 717.006 243.496C714.91 243.496 713.47 244.568 713.47 246.184C713.47 247.576 714.542 248.568 716.174 248.824V250.232C714.814 250.28 713.486 250.28 712.334 250.28L712.542 251.64C715.166 251.64 718.59 251.592 721.774 251.048L721.662 249.848C720.43 250.024 719.118 250.104 717.822 250.184V248.824ZM722.478 239.768V254.232H724.142V239.768H722.478ZM731.378 240.792C729.122 240.792 727.458 242.216 727.458 244.264C727.458 246.312 729.122 247.736 731.378 247.736C733.634 247.736 735.314 246.312 735.314 244.264C735.314 242.216 733.634 240.792 731.378 240.792ZM731.378 242.2C732.722 242.2 733.698 243 733.698 244.264C733.698 245.512 732.722 246.328 731.378 246.328C730.05 246.328 729.074 245.512 729.074 244.264C729.074 243 730.05 242.2 731.378 242.2ZM736.946 239.768V254.248H738.61V239.768H736.946ZM726.994 251.192C729.554 251.192 733.01 251.16 736.194 250.552L736.082 249.352C732.978 249.816 729.378 249.832 726.786 249.832L726.994 251.192ZM753.095 239.784H751.431V247.192H753.095V239.784ZM749.975 245.576C747.751 244.888 746.455 243.128 746.455 241.256V240.168H744.775V241.256C744.775 243.208 743.479 245.08 741.191 245.832L742.007 247.144C743.751 246.552 744.983 245.352 745.639 243.8C746.295 245.224 747.511 246.328 749.175 246.872L749.975 245.576ZM745.271 252.808V251.544H753.095V247.88H743.623V249.16H751.463V250.344H743.655V254.104H753.527V252.808H745.271ZM760.988 240.984H759.34V243.352C759.34 246.136 757.836 248.904 755.532 249.944L756.508 251.32C758.252 250.472 759.532 248.76 760.188 246.664C760.844 248.616 762.108 250.216 763.772 251L764.732 249.688C762.46 248.664 760.988 246.008 760.988 243.352V240.984ZM765.884 239.768V254.264H767.548V239.768H765.884Z" fill="white"/>
<path d="M735.109 354.789C738.361 353.632 741.913 353.632 745.165 354.789L820.034 381.426C824.466 383.003 824.466 389.271 820.034 390.848L743.489 418.082C741.321 418.853 738.953 418.853 736.785 418.082L660.24 390.848C655.808 389.271 655.808 383.003 660.24 381.426L735.109 354.789Z" fill="#283895"/>
<path d="M729.488 384.502H736.336V386.87H729.488V384.502ZM733.728 391.11V388.198H737.968V380.742H736.336V383.174H729.488V380.742H727.856V388.198H732.08V391.11H726.384V392.47H739.472V391.11H733.728ZM750.837 382.55C750.837 384.278 750.837 386.326 750.277 389.158L751.941 389.334C752.501 386.342 752.501 384.342 752.501 382.55V381.126H742.213V382.47H750.837V382.55ZM747.381 390.982V385.894H745.717V390.982H740.853V392.342H753.909V390.982H747.381Z" fill="white"/>
<rect x="660" y="1" width="160" height="50" rx="7" fill="#F5F5F5"/>
<path d="M713.803 26.12C711.579 25.416 710.283 23.64 710.283 21.736V20.344H708.603V21.736C708.603 23.704 707.307 25.608 705.035 26.376L705.835 27.672C707.563 27.08 708.811 25.848 709.467 24.296C710.107 25.752 711.339 26.856 713.003 27.4L713.803 26.12ZM709.083 30.056H715.307V32.744H709.083V30.056ZM707.467 34.056H716.923V28.744H707.467V34.056ZM715.275 19.8V27.992H716.923V19.8H715.275ZM724.144 20.792C721.888 20.792 720.224 22.216 720.224 24.264C720.224 26.312 721.888 27.736 724.144 27.736C726.4 27.736 728.08 26.312 728.08 24.264C728.08 22.216 726.4 20.792 724.144 20.792ZM724.144 22.2C725.488 22.2 726.464 23 726.464 24.264C726.464 25.512 725.488 26.328 724.144 26.328C722.816 26.328 721.84 25.512 721.84 24.264C721.84 23 722.816 22.2 724.144 22.2ZM729.712 19.768V34.248H731.376V19.768H729.712ZM719.76 31.192C722.32 31.192 725.776 31.16 728.96 30.552L728.848 29.352C725.744 29.816 722.144 29.832 719.552 29.832L719.76 31.192ZM738.661 21.768C739.925 21.768 740.805 22.424 740.805 23.432C740.805 24.456 739.925 25.112 738.661 25.112C737.413 25.112 736.517 24.456 736.517 23.432C736.517 22.424 737.413 21.768 738.661 21.768ZM738.661 26.472C740.821 26.472 742.389 25.224 742.389 23.432C742.389 21.656 740.821 20.408 738.661 20.408C736.501 20.408 734.933 21.656 734.933 23.432C734.933 25.224 736.501 26.472 738.661 26.472ZM743.317 27.016C740.197 27.48 736.565 27.528 733.957 27.528L734.149 28.888C735.269 28.888 736.549 28.872 737.909 28.824V33.8H739.557V28.728C740.837 28.632 742.165 28.488 743.429 28.232L743.317 27.016ZM744.261 19.784V34.248H745.909V19.784H744.261ZM755.913 28.264V29.416H758.745V30.76H760.393V19.768H758.745V28.264H755.913ZM753.033 21.544C754.217 21.544 755.033 22.056 755.033 22.872C755.033 23.688 754.217 24.2 753.033 24.2C751.833 24.2 751.017 23.688 751.017 22.872C751.017 22.056 751.833 21.544 753.033 21.544ZM753.033 25.416C755.145 25.416 756.601 24.408 756.601 22.872C756.601 21.336 755.145 20.328 753.033 20.328C750.905 20.328 749.449 21.336 749.449 22.872C749.449 24.408 750.905 25.416 753.033 25.416ZM752.377 30.296H754.025V27.512C755.257 27.432 756.521 27.304 757.737 27.096L757.609 25.912C754.553 26.296 751.001 26.328 748.345 26.344L748.553 27.688C749.705 27.688 751.001 27.672 752.377 27.608V30.296ZM751.945 32.616V29.688H750.297V33.96H760.729V32.616H751.945ZM771.998 21.464H768.462V19.816H766.814V21.464H763.262V22.792H771.998V21.464ZM765.678 26.184C765.678 25.304 766.478 24.76 767.646 24.76C768.798 24.76 769.598 25.304 769.598 26.184C769.598 27.08 768.798 27.624 767.646 27.624C766.478 27.624 765.678 27.08 765.678 26.184ZM768.462 28.824C770.094 28.568 771.166 27.592 771.166 26.184C771.166 24.568 769.726 23.496 767.646 23.496C765.55 23.496 764.11 24.568 764.11 26.184C764.11 27.576 765.182 28.568 766.814 28.824V30.232C765.454 30.28 764.126 30.28 762.974 30.28L763.182 31.64C765.806 31.64 769.23 31.592 772.414 31.048L772.302 29.848C771.07 30.024 769.758 30.104 768.462 30.184V28.824ZM773.118 19.768V34.232H774.782V19.768H773.118Z" fill="#222222"/>
<rect x="880" y="440" width="160" height="50" rx="7" fill="#F6F7FE"/>
<path d="M942.574 462.032V463.52H939.038V464.8H942.574V466.112H944.222V458.784H942.574V460.752H939.582C939.661 460.336 939.694 459.888 939.694 459.424H933.23V460.752H937.87C937.646 462.768 935.87 464.352 932.446 465.088L933.022 466.432C936.206 465.712 938.334 464.24 939.23 462.032H942.574ZM936.494 471.776V470.448H944.222V466.704H934.814V468.016H942.574V469.216H934.846V473.104H944.622V471.776H936.494ZM954.29 466.912C954.69 464.352 954.69 462.528 954.69 461.264V460.304H947.346V461.632H953.074C953.074 462.848 953.042 464.528 952.674 466.768L954.29 466.912ZM951.058 464.448H949.442V468.8C948.434 468.816 947.458 468.832 946.578 468.832L946.754 470.192C949.282 470.192 952.594 470.128 955.57 469.632L955.49 468.416C954.082 468.608 952.562 468.688 951.058 468.752V464.448ZM960.05 464.72H957.922V458.784H956.258V473.232H957.922V466.112H960.05V464.72ZM968.823 464.976C969.175 463.104 969.175 461.68 969.175 460.704V459.872H961.911V461.216H967.559C967.543 462.112 967.495 463.248 967.207 464.8L968.823 464.976ZM970.023 465.696C968.599 465.92 967.047 466.016 965.543 466.08V463.168H963.911V466.128C962.887 466.16 961.895 466.16 961.031 466.16L961.207 467.504C963.719 467.504 967.127 467.424 970.135 466.896L970.023 465.696ZM964.871 468.672H963.207V472.96H973.031V471.616H964.871V468.672ZM972.567 463.36V458.784H970.903V469.632H972.567V464.72H974.487V463.36H972.567ZM978.14 465.424H983.18V460.064H976.444V461.408H981.516V464.096H976.476V469.824H977.708C980.252 469.824 982.412 469.744 984.892 469.312L984.716 467.968C982.428 468.336 980.428 468.448 978.14 468.464V465.424ZM985.916 458.752V473.264H987.58V458.752H985.916Z" fill="#283895"/>
<rect x="880" y="1" width="160" height="50" rx="7" fill="#F5F5F5"/>
<path d="M944.044 20.984H942.396V23.352C942.396 26.024 940.988 28.76 938.732 29.864L939.74 31.192C941.388 30.344 942.604 28.664 943.228 26.664C943.852 28.552 945.004 30.12 946.556 30.92L947.564 29.608C945.388 28.536 944.044 25.928 944.044 23.352V20.984ZM952.428 25.512H950.172V19.784H948.524V34.232H950.172V26.872H952.428V25.512ZM963.281 24.936H956.673V21.864H963.281V24.936ZM964.913 20.552H955.041V26.264H964.913V20.552ZM966.545 28.04H953.441V29.368H959.121V34.232H960.769V29.368H966.545V28.04ZM981.013 26.856V25.528H979.061C979.381 23.88 979.381 22.632 979.381 21.544V20.44H969.557V21.768H977.765C977.765 22.808 977.733 23.976 977.413 25.528H967.925V26.856H973.621V29.224H969.253V30.552H977.797V34.232H979.445V29.224H975.285V26.856H981.013Z" fill="#222222"/>
<path d="M521.005 176L521.005 131" stroke="#7094F0" stroke-linecap="round" stroke-linejoin="round" stroke-dasharray="2 4"/>
<path d="M521 176L392 176" stroke="#7094F0" stroke-linecap="round" stroke-linejoin="round" stroke-dasharray="2 4"/>
<path d="M390.922 175.232L394.36 172.367C395.011 171.824 396 172.287 396 173.135L396 178.865C396 179.713 395.011 180.176 394.36 179.633L390.922 176.768C390.442 176.368 390.442 175.632 390.922 175.232Z" fill="#7094F0"/>
<path d="M741.005 316L741.005 271" stroke="#7094F0" stroke-linecap="round" stroke-linejoin="round" stroke-dasharray="2 4"/>
<path d="M741 316L396 316" stroke="#7094F0" stroke-linecap="round" stroke-linejoin="round" stroke-dasharray="2 4"/>
<path d="M390.922 315.232L394.36 312.367C395.011 311.824 396 312.287 396 313.135L396 318.865C396 319.713 395.011 320.176 394.36 319.633L390.922 316.768C390.442 316.368 390.442 315.632 390.922 315.232Z" fill="#7094F0"/>
<path d="M741.005 465L741.005 420" stroke="#7094F0" stroke-linecap="round" stroke-linejoin="round" stroke-dasharray="2 4"/>
<path d="M867 465L396 465" stroke="#7094F0" stroke-linecap="round" stroke-linejoin="round" stroke-dasharray="2 4"/>
<path d="M390.922 464.232L394.36 461.367C395.011 460.824 396 461.287 396 462.135L396 467.865C396 468.713 395.011 469.176 394.36 468.633L390.922 465.768C390.442 465.368 390.442 464.632 390.922 464.232Z" fill="#7094F0"/>
<path d="M869.078 465.768L865.64 468.633C864.989 469.176 864 468.713 864 467.865L864 462.135C864 461.287 864.989 460.824 865.64 461.367L869.078 464.232C869.558 464.632 869.558 465.368 869.078 465.768Z" fill="#7094F0"/>
<path d="M758.892 445.128C757.762 445.128 756.743 444.883 755.836 444.392C754.93 443.891 754.215 443.203 753.692 442.328C753.18 441.453 752.924 440.477 752.924 439.4C752.924 438.323 753.18 437.347 753.692 436.472C754.215 435.597 754.93 434.915 755.836 434.424C756.743 433.923 757.762 433.672 758.892 433.672C760.012 433.672 761.026 433.923 761.932 434.424C762.839 434.915 763.548 435.597 764.06 436.472C764.572 437.336 764.828 438.312 764.828 439.4C764.828 440.488 764.572 441.469 764.06 442.344C763.548 443.208 762.839 443.891 761.932 444.392C761.026 444.883 760.012 445.128 758.892 445.128ZM758.892 443.704C759.714 443.704 760.45 443.517 761.1 443.144C761.762 442.771 762.279 442.259 762.652 441.608C763.036 440.947 763.228 440.211 763.228 439.4C763.228 438.589 763.036 437.859 762.652 437.208C762.279 436.547 761.762 436.029 761.1 435.656C760.45 435.283 759.714 435.096 758.892 435.096C758.071 435.096 757.324 435.283 756.652 435.656C755.991 436.029 755.468 436.547 755.084 437.208C754.711 437.859 754.524 438.589 754.524 439.4C754.524 440.211 754.711 440.947 755.084 441.608C755.468 442.259 755.991 442.771 756.652 443.144C757.324 443.517 758.071 443.704 758.892 443.704ZM770.672 440.024L768.624 442.104V445H767.024V433.8H768.624V440.056L774.704 433.8H776.528L771.744 438.84L776.832 445H774.96L770.672 440.024Z" fill="#7094F0"/>
<path d="M300 246L300 201" stroke="#7094F0" stroke-linecap="round" stroke-linejoin="round" stroke-dasharray="2 4"/>
<path d="M649 246L300 246" stroke="#7094F0" stroke-linecap="round" stroke-linejoin="round" stroke-dasharray="2 4"/>
<path d="M649.078 246.768L645.64 249.633C644.989 250.176 644 249.713 644 248.865L644 243.135C644 242.287 644.989 241.824 645.64 242.367L649.078 245.232C649.558 245.632 649.558 246.368 649.078 246.768Z" fill="#7094F0"/>
<path d="M300 386L300 341" stroke="#7094F0" stroke-linecap="round" stroke-linejoin="round" stroke-dasharray="2 4"/>
<path d="M649 386L300 386" stroke="#7094F0" stroke-linecap="round" stroke-linejoin="round" stroke-dasharray="2 4"/>
<path d="M649.078 386.768L645.64 389.633C644.989 390.176 644 389.713 644 388.865L644 383.135C644 382.287 644.989 381.824 645.64 382.367L649.078 385.232C649.558 385.632 649.558 386.368 649.078 386.768Z" fill="#7094F0"/>
<rect x="440" y="1" width="160" height="50" rx="7" fill="#F5F5F5"/>
<path d="M502.021 22.088C501.365 22.904 500.501 23.64 499.525 24.264C498.933 23.768 497.909 23.128 496.965 22.648C497.253 22.472 497.541 22.28 497.797 22.088H502.021ZM503.237 20.776L502.997 20.84H499.317C499.637 20.536 499.941 20.216 500.229 19.896L498.581 19.528C497.509 20.856 495.461 22.296 492.645 23.24C492.965 23.48 493.429 23.992 493.637 24.344C494.389 24.04 495.077 23.72 495.717 23.384C496.597 23.848 497.589 24.472 498.229 25.016C496.469 25.912 494.469 26.552 492.517 26.888C492.773 27.192 493.077 27.784 493.205 28.168C497.557 27.24 502.165 25.096 504.197 21.352L503.237 20.776ZM504.341 27.752C503.701 28.808 502.805 29.672 501.749 30.376C501.093 29.768 499.973 29.032 498.997 28.488C499.397 28.248 499.765 28.008 500.133 27.752H504.341ZM505.445 26.408L505.189 26.472H501.717C502.117 26.104 502.469 25.736 502.805 25.352L501.157 24.968C499.925 26.488 497.573 28.072 494.261 29.096C494.565 29.352 494.997 29.912 495.157 30.248C496.053 29.928 496.885 29.576 497.653 29.208C498.613 29.736 499.717 30.52 500.405 31.144C498.469 32.104 496.165 32.648 493.749 32.92C494.005 33.256 494.293 33.88 494.389 34.28C499.685 33.528 504.469 31.592 506.437 26.936L505.445 26.408ZM521.115 26.84H519.099C519.467 24.792 519.467 23.288 519.467 21.928V20.664H509.611V21.992H517.851C517.851 23.32 517.851 24.824 517.435 26.84H508.043V28.2H513.691V34.232H515.355V28.2H521.115V26.84ZM524.527 22.68H527.023V29.16H524.527V22.68ZM522.991 30.472H528.559V21.368H522.991V30.472ZM533.279 19.784V25.416H531.631V20.056H530.079V33.544H531.631V26.76H533.279V34.216H534.847V19.784H533.279ZM545.604 27.336H547.14V31.704C546.585 32.1627 545.94 32.5147 545.204 32.76C544.468 33.0053 543.7 33.128 542.9 33.128C541.769 33.128 540.751 32.8827 539.844 32.392C538.937 31.8907 538.223 31.208 537.7 30.344C537.188 29.4693 536.932 28.488 536.932 27.4C536.932 26.312 537.188 25.3307 537.7 24.456C538.223 23.5813 538.937 22.8987 539.844 22.408C540.761 21.9173 541.791 21.672 542.932 21.672C543.828 21.672 544.639 21.8213 545.364 22.12C546.1 22.408 546.724 22.8347 547.236 23.4L546.244 24.392C545.348 23.528 544.265 23.096 542.996 23.096C542.143 23.096 541.375 23.2827 540.692 23.656C540.02 24.0187 539.492 24.5307 539.108 25.192C538.724 25.8427 538.532 26.5787 538.532 27.4C538.532 28.2107 538.724 28.9467 539.108 29.608C539.492 30.2587 540.02 30.7707 540.692 31.144C541.375 31.5173 542.137 31.704 542.98 31.704C543.983 31.704 544.857 31.464 545.604 30.984V27.336Z" fill="#222222"/>
<rect x="440" y="81" width="160" height="50" rx="7" fill="#7094F0"/>
<path d="M497.31 102.584H500.366V101.224H492.51V102.584H495.661V103.976C495.661 106.376 494.19 109.112 491.982 110.168L492.926 111.48C494.59 110.664 495.87 108.936 496.51 106.92C497.166 108.744 498.398 110.344 500.014 111.112L500.926 109.816C498.734 108.776 497.31 106.216 497.31 103.976V102.584ZM505.694 105.48H503.438V99.784H501.79V114.232H503.438V106.84H505.694V105.48ZM511.858 108.68H514.818V111.176H511.858V108.68ZM516.45 111.176V108.68H518.578V107.352H509.922V105.352H518.258V100.792H508.274V102.12H516.626V104.04H508.306V108.68H510.226V111.176H506.722V112.536H519.81V111.176H516.45ZM529.687 106.648C527.479 105.912 526.263 104.136 526.263 102.312V102.056H529.287V100.712H521.527V102.056H524.599V102.312C524.599 104.296 523.335 106.136 521.047 106.904L521.911 108.2C523.607 107.608 524.807 106.424 525.447 104.904C526.071 106.28 527.223 107.384 528.839 107.912L529.687 106.648ZM522.967 110.52H530.823V114.232H532.471V109.192H522.967V110.52ZM534.519 103.464H532.471V99.768H530.823V108.488H532.471V104.824H534.519V103.464ZM545.98 108.296H547.628V99.768H545.98V102.664H543.052V104.008H545.98V108.296ZM544.236 106.424C542.044 105.704 540.844 103.896 540.844 101.896V100.552H539.18V101.976C539.18 104.088 537.916 106.04 535.596 106.824L536.46 108.152C538.204 107.528 539.42 106.264 540.06 104.664C540.684 106.072 541.804 107.16 543.356 107.72L544.236 106.424ZM542.812 112.936C540.764 112.936 539.596 112.408 539.596 111.464C539.596 110.52 540.764 109.992 542.812 109.992C544.86 109.992 546.044 110.52 546.044 111.464C546.044 112.408 544.86 112.936 542.812 112.936ZM542.812 108.696C539.804 108.696 537.948 109.72 537.948 111.464C537.948 113.208 539.804 114.232 542.812 114.232C545.836 114.232 547.692 113.208 547.692 111.464C547.692 109.72 545.836 108.696 542.812 108.696Z" fill="white"/>
</svg>
