<svg width="588" height="480" viewBox="0 0 588 480" fill="none" xmlns="http://www.w3.org/2000/svg">
<rect x="68" width="250" height="188" rx="10" fill="#F6F7FE"/>
<path d="M68 10C68 4.47715 72.4772 0 78 0L308 0C313.523 0 318 4.47715 318 10V74L68 74L68 10Z" fill="#435CE7"/>
<path d="M149.786 125.784C149.786 126.904 149.786 127.96 149.402 129.432L150.682 129.576C151.082 128.104 151.082 126.936 151.082 125.784V124.568H141.306V125.624H149.786V125.784ZM146.186 137.144C143.946 137.144 142.506 136.536 142.506 135.544C142.506 134.52 143.946 133.912 146.186 133.912C148.442 133.912 149.882 134.52 149.882 135.544C149.882 136.536 148.442 137.144 146.186 137.144ZM146.186 132.904C143.13 132.904 141.194 133.88 141.194 135.544C141.194 137.176 143.13 138.168 146.186 138.168C149.242 138.168 151.194 137.176 151.194 135.544C151.194 133.88 149.242 132.904 146.186 132.904ZM146.394 130.52V127.768H145.082V130.52H139.786V131.576H152.698V130.52H146.394ZM164.255 136.936H157.199V134.968H164.255V136.936ZM164.255 133.944H157.199V132.056H155.903V137.992H165.551V132.056H164.255V133.944ZM165.183 129.688C165.567 127.912 165.567 126.632 165.567 125.528V124.488H155.871V125.56H164.271C164.271 126.648 164.271 127.928 163.871 129.688H154.207V130.76H167.247V129.688H165.183ZM173.572 128.376C173.572 126.968 174.628 125.976 176.036 125.976C177.444 125.976 178.5 126.968 178.5 128.376C178.5 129.784 177.444 130.776 176.036 130.776C174.628 130.776 173.572 129.784 173.572 128.376ZM179.78 128.376C179.78 126.296 178.18 124.84 176.036 124.84C173.892 124.84 172.292 126.296 172.292 128.376C172.292 130.456 173.892 131.912 176.036 131.912C178.18 131.912 179.78 130.456 179.78 128.376ZM175.54 133.32H174.228V137.864H183.796V136.792H175.54V133.32ZM183.156 128.2V123.832H181.844V134.392H183.156V129.288H185.268V128.2H183.156ZM194.153 127.56V128.632H196.985V132.392H198.313V123.848H196.985V127.56H194.153ZM194.953 130.824C192.873 130.088 191.465 128.28 191.465 126.44V125.944H194.617V124.888H186.953V125.944H190.153V126.44C190.153 128.504 188.681 130.44 186.537 131.224L187.225 132.264C188.905 131.624 190.233 130.28 190.841 128.616C191.465 130.088 192.697 131.272 194.297 131.848L194.953 130.824ZM193.577 137.16C191.417 137.16 190.105 136.552 190.105 135.512C190.105 134.472 191.417 133.848 193.577 133.848C195.737 133.848 197.049 134.472 197.049 135.512C197.049 136.552 195.737 137.16 193.577 137.16ZM193.577 132.84C190.633 132.84 188.793 133.816 188.793 135.512C188.793 137.208 190.633 138.184 193.577 138.184C196.521 138.184 198.361 137.208 198.361 135.512C198.361 133.816 196.521 132.84 193.577 132.84ZM211.453 132.328H212.781V123.848H211.453V126.888H208.333V127.96H211.453V132.328ZM209.373 130.632C207.277 129.896 205.885 128.12 205.885 126.072V124.648H204.573V126.12C204.573 128.312 203.149 130.232 200.941 131.016L201.629 132.088C203.357 131.432 204.653 130.136 205.261 128.44C205.885 129.928 207.101 131.064 208.669 131.656L209.373 130.632ZM208.045 137.128C205.885 137.128 204.573 136.504 204.573 135.464C204.573 134.408 205.885 133.784 208.045 133.784C210.205 133.784 211.517 134.408 211.517 135.464C211.517 136.504 210.205 137.128 208.045 137.128ZM208.045 132.76C205.101 132.76 203.261 133.736 203.261 135.464C203.261 137.176 205.101 138.168 208.045 138.168C210.989 138.168 212.829 137.176 212.829 135.464C212.829 133.736 210.989 132.76 208.045 132.76ZM227.282 125.144H223.826V123.736H222.514V125.144H219.042V126.136H227.282V125.144ZM221.058 128.792C221.058 128.04 221.874 127.576 223.17 127.576C224.434 127.576 225.266 128.04 225.266 128.792C225.266 129.544 224.434 130.024 223.17 130.024C221.874 130.024 221.058 129.544 221.058 128.792ZM227.714 131.544C226.466 131.736 225.138 131.832 223.826 131.896V130.904C225.474 130.728 226.514 129.96 226.514 128.792C226.514 127.48 225.17 126.664 223.17 126.664C221.138 126.664 219.81 127.48 219.81 128.792C219.81 129.976 220.85 130.744 222.514 130.904V131.944C221.138 131.992 219.826 131.992 218.69 131.992L218.834 133.048C221.346 133.032 224.738 133.016 227.81 132.488L227.714 131.544ZM220.434 135.224H228.562V138.184H229.874V134.184H220.434V135.224ZM231.97 128.184H229.874V123.848H228.562V133.464H229.874V129.272H231.97V128.184ZM236.055 128.488H243.383V131.128H236.055V128.488ZM240.375 135.272V132.184H244.663V124.856H243.383V127.416H236.055V124.856H234.759V132.184H239.047V135.272H233.223V136.344H246.231V135.272H240.375Z" fill="#666666"/>
<path d="M132.771 38.192C133.651 37.76 134.275 36.912 134.275 35.696C134.275 33.888 132.835 32.8 130.259 32.8H125.235V44H130.579C133.411 44 134.867 42.896 134.867 40.976C134.867 39.488 134.035 38.544 132.771 38.192ZM130.115 34.096C131.747 34.096 132.675 34.704 132.675 35.888C132.675 37.072 131.747 37.68 130.115 37.68H126.835V34.096H130.115ZM130.515 42.704H126.835V38.976H130.515C132.291 38.976 133.251 39.552 133.251 40.848C133.251 42.144 132.291 42.704 130.515 42.704ZM140.502 44.096C143.046 44.096 144.902 42.288 144.902 39.76C144.902 37.232 143.046 35.44 140.502 35.44C137.958 35.44 136.086 37.232 136.086 39.76C136.086 42.288 137.958 44.096 140.502 44.096ZM140.502 42.752C138.87 42.752 137.638 41.568 137.638 39.76C137.638 37.952 138.87 36.784 140.502 36.784C142.134 36.784 143.35 37.952 143.35 39.76C143.35 41.568 142.134 42.752 140.502 42.752ZM151.064 42.4C150.744 42.656 150.312 42.8 149.864 42.8C149.016 42.8 148.536 42.288 148.536 41.376V36.784H150.968V35.52H148.536V33.664H147V35.52H145.56V36.784H147V41.44C147 43.152 147.976 44.096 149.688 44.096C150.376 44.096 151.08 43.904 151.544 43.504L151.064 42.4ZM157.236 42.4C156.916 42.656 156.484 42.8 156.036 42.8C155.188 42.8 154.708 42.288 154.708 41.376V36.784H157.14V35.52H154.708V33.664H153.172V35.52H151.732V36.784H153.172V41.44C153.172 43.152 154.148 44.096 155.86 44.096C156.548 44.096 157.252 43.904 157.716 43.504L157.236 42.4ZM159.323 44H160.859V32.128H159.323V44ZM171.206 39.808C171.206 37.2 169.462 35.44 167.014 35.44C164.566 35.44 162.758 37.248 162.758 39.76C162.758 42.288 164.582 44.096 167.318 44.096C168.726 44.096 169.894 43.616 170.662 42.72L169.814 41.728C169.19 42.416 168.358 42.752 167.366 42.752C165.686 42.752 164.486 41.76 164.294 40.272H171.174C171.19 40.128 171.206 39.936 171.206 39.808ZM167.014 36.736C168.502 36.736 169.574 37.744 169.734 39.168H164.294C164.454 37.728 165.542 36.736 167.014 36.736ZM172.701 40.272H177.005V38.944H172.701V40.272ZM187.376 32.8V41.152L180.656 32.8H179.344V44H180.944V35.648L187.664 44H188.976V32.8H187.376ZM199.518 39.808C199.518 37.2 197.774 35.44 195.326 35.44C192.878 35.44 191.07 37.248 191.07 39.76C191.07 42.288 192.894 44.096 195.63 44.096C197.038 44.096 198.206 43.616 198.974 42.72L198.126 41.728C197.502 42.416 196.67 42.752 195.678 42.752C193.998 42.752 192.798 41.76 192.606 40.272H199.486C199.502 40.128 199.518 39.936 199.518 39.808ZM195.326 36.736C196.814 36.736 197.886 37.744 198.046 39.168H192.606C192.766 37.728 193.854 36.736 195.326 36.736ZM205.097 44.096C206.617 44.096 207.881 43.456 208.553 42.272L207.385 41.536C206.841 42.368 206.009 42.752 205.081 42.752C203.417 42.752 202.169 41.6 202.169 39.76C202.169 37.952 203.417 36.784 205.081 36.784C206.009 36.784 206.841 37.168 207.385 38L208.553 37.248C207.881 36.064 206.617 35.44 205.097 35.44C202.489 35.44 200.617 37.232 200.617 39.76C200.617 42.288 202.489 44.096 205.097 44.096ZM216.663 44H218.551L214.631 39.024L218.199 35.52H216.343L211.719 39.744V32.128H210.183V44H211.719V41.68L213.479 40.048L216.663 44ZM226.175 47.184L227.327 46.672C225.951 44.384 225.311 41.68 225.311 38.992C225.311 36.32 225.951 33.616 227.327 31.312L226.175 30.816C224.687 33.232 223.807 35.84 223.807 38.992C223.807 42.176 224.687 44.752 226.175 47.184ZM238.956 34.368V35.984H235.948V34.368H238.956ZM234.332 37.216H230.924V35.104H234.332V37.216ZM235.948 37.328H238.956V39.488H240.604V30.784H238.956V33.024H235.948V31.664H234.332V33.808H230.924V31.664H229.292V38.528H235.948V37.328ZM235.788 43.952C233.74 43.952 232.572 43.44 232.572 42.496C232.572 41.552 233.74 41.04 235.788 41.04C237.836 41.04 239.02 41.552 239.02 42.496C239.02 43.44 237.836 43.952 235.788 43.952ZM235.788 39.76C232.78 39.76 230.924 40.784 230.924 42.496C230.924 44.224 232.78 45.232 235.788 45.232C238.812 45.232 240.668 44.224 240.668 42.496C240.668 40.784 238.812 39.76 235.788 39.76ZM244.561 41.92H252.913V45.232H254.561V40.592H244.561V41.92ZM246.369 32.672H252.881V35.056H246.369V32.672ZM250.449 37.984V36.368H254.497V31.36H244.753V36.368H248.785V37.984H243.089V39.312H256.177V37.984H250.449ZM258.646 47.184C260.15 44.752 261.03 42.176 261.03 38.992C261.03 35.84 260.15 33.232 258.646 30.816L257.494 31.312C258.87 33.616 259.51 36.32 259.51 38.992C259.51 41.68 258.87 44.384 257.494 46.672L258.646 47.184Z" fill="white"/>
<rect x="68" y="208" width="250" height="199" rx="10" fill="#F6F7FE"/>
<path d="M68 218C68 212.477 72.4772 208 78 208L308 208C313.523 208 318 212.477 318 218V282L68 282L68 218Z" fill="#435CE7"/>
<path d="M113.567 339.936H111.439C111.839 337.872 111.839 336.352 111.839 335.008V333.76H102.207V334.816H110.559V335.008C110.559 336.352 110.559 337.872 110.111 339.936H100.591V341.008H106.383V347.2H107.711V341.008H113.567V339.936ZM116.787 335.536H119.795V342.288H116.787V335.536ZM115.555 343.328H121.011V334.496H115.555V343.328ZM125.987 332.832V338.512H124.051V333.152H122.819V346.464H124.051V339.584H125.987V347.168H127.235V332.832H125.987ZM143.352 345.936H136.776V344.08H143.352V345.936ZM143.352 343.056H136.776V341.232H135.48V346.992H144.664V341.232H143.352V343.056ZM136.76 339.056C135.336 339.056 134.312 338.128 134.312 336.816C134.312 335.504 135.336 334.592 136.76 334.592C138.184 334.592 139.208 335.504 139.208 336.816C139.208 338.128 138.184 339.056 136.76 339.056ZM143.336 332.848V336.256H140.408C140.136 334.592 138.696 333.504 136.76 333.504C134.616 333.504 133.064 334.848 133.064 336.816C133.064 338.8 134.616 340.144 136.76 340.144C138.728 340.144 140.168 339.024 140.424 337.328H143.336V340.544H144.664V332.848H143.336ZM157.357 338.176H150.237V334.688H157.357V338.176ZM158.653 333.632H148.957V339.216H158.653V333.632ZM160.317 341.168H147.293V342.224H153.117V347.168H154.429V342.224H160.317V341.168ZM166.738 336.368H169.922V335.312H166.738V333.088H165.426V335.312H162.194V336.368H165.442V337.472C165.442 339.952 163.906 342.4 161.794 343.408L162.53 344.416C164.162 343.616 165.49 341.952 166.098 339.952C166.738 341.84 168.066 343.392 169.698 344.144L170.418 343.136C168.306 342.192 166.738 339.856 166.738 337.472V336.368ZM172.29 332.816V338.592H169.186V339.664H172.29V347.216H173.602V332.816H172.29ZM178.39 339.28H183.686V334.16H177.03V335.232H182.358V338.224H177.078V343.728H178.262C180.726 343.728 182.902 343.632 185.494 343.2L185.366 342.128C182.854 342.528 180.742 342.64 178.39 342.64V339.28ZM186.71 332.816V347.2H188.022V332.816H186.71ZM206.331 334.944H201.195V333.056H199.883V334.944H194.683V336.016H206.331V334.944ZM198.763 342.176C199.291 342.272 199.883 342.32 200.539 342.32C201.179 342.32 201.771 342.272 202.283 342.176V344.464H198.763V342.176ZM200.539 337.984C202.603 337.984 203.883 338.608 203.883 339.648C203.883 340.672 202.603 341.296 200.539 341.296C198.427 341.296 197.147 340.672 197.147 339.648C197.147 338.608 198.427 337.984 200.539 337.984ZM203.579 344.464V341.808C204.619 341.36 205.211 340.624 205.211 339.648C205.211 337.936 203.403 336.96 200.539 336.96C197.627 336.96 195.819 337.936 195.819 339.648C195.819 340.624 196.411 341.36 197.467 341.808V344.464H194.043V345.536H207.051V344.464H203.579ZM214.992 333.984C217.344 333.984 218.688 334.528 218.688 335.488C218.688 336.448 217.344 336.992 214.992 336.992C212.656 336.992 211.296 336.448 211.296 335.488C211.296 334.528 212.656 333.984 214.992 333.984ZM214.992 337.968C218.16 337.968 220.032 337.104 220.032 335.488C220.032 333.872 218.16 332.992 214.992 332.992C211.84 332.992 209.952 333.872 209.952 335.488C209.952 337.104 211.84 337.968 214.992 337.968ZM216.592 341.312H213.328V339.888H216.592V341.312ZM221.472 339.888V338.832H208.512V339.888H212.032V341.312H210.08V342.304H218.528V343.584H210.112V347.024H220.256V346H211.392V344.544H219.824V341.312H217.888V339.888H221.472ZM231.637 334.576H228.021V332.848H226.709V334.576H223.061V335.616H231.637V334.576ZM225.221 339.12C225.221 338.128 226.085 337.472 227.365 337.472C228.645 337.472 229.509 338.128 229.509 339.12C229.509 340.112 228.645 340.752 227.365 340.752C226.085 340.752 225.221 340.112 225.221 339.12ZM228.021 341.744C229.669 341.536 230.757 340.544 230.757 339.12C230.757 337.504 229.365 336.464 227.365 336.464C225.365 336.464 223.973 337.504 223.973 339.12C223.973 340.544 225.061 341.536 226.709 341.744V343.312C225.317 343.36 223.973 343.36 222.821 343.36L222.997 344.464C225.509 344.464 228.885 344.432 231.957 343.888L231.877 342.912C230.645 343.104 229.317 343.2 228.021 343.264V341.744ZM236.277 338.928H234.037V332.832H232.725V347.184H234.037V340.032H236.277V338.928ZM236.778 348.864H237.85L242.634 333.296H241.578L236.778 348.864ZM248.297 335.392H251.481V334.304H243.721V335.392H247.001V337.216C247.001 339.648 245.273 342.368 243.225 343.392L243.993 344.432C245.609 343.6 247.001 341.776 247.657 339.68C248.313 341.6 249.657 343.28 251.257 344.08L252.009 343.024C249.929 342.048 248.297 339.504 248.297 337.216V335.392ZM256.873 338.624H254.505V332.848H253.193V347.184H254.505V339.728H256.873V338.624ZM264.43 346.16C262.158 346.16 260.83 345.6 260.83 344.592C260.83 343.584 262.158 343.024 264.43 343.024C266.67 343.024 267.998 343.584 267.998 344.592C267.998 345.6 266.67 346.16 264.43 346.16ZM264.43 342C261.358 342 259.502 342.928 259.502 344.592C259.502 346.256 261.358 347.184 264.43 347.184C267.47 347.184 269.326 346.256 269.326 344.592C269.326 342.928 267.47 342 264.43 342ZM265.086 339.92V338.256H269.406V337.2H260.878V334.544H269.31V333.488H259.566V338.256H263.774V339.92H257.934V340.976H270.926V339.92H265.086ZM281.059 334.576H277.443V332.848H276.131V334.576H272.483V335.616H281.059V334.576ZM274.643 339.12C274.643 338.128 275.507 337.472 276.787 337.472C278.067 337.472 278.931 338.128 278.931 339.12C278.931 340.112 278.067 340.752 276.787 340.752C275.507 340.752 274.643 340.112 274.643 339.12ZM277.443 341.744C279.091 341.536 280.179 340.544 280.179 339.12C280.179 337.504 278.787 336.464 276.787 336.464C274.787 336.464 273.395 337.504 273.395 339.12C273.395 340.544 274.483 341.536 276.131 341.744V343.312C274.739 343.36 273.395 343.36 272.243 343.36L272.419 344.464C274.931 344.464 278.307 344.432 281.379 343.888L281.299 342.912C280.067 343.104 278.739 343.2 277.443 343.264V341.744ZM285.699 338.928H283.459V332.832H282.147V347.184H283.459V340.032H285.699V338.928Z" fill="#666666"/>
<path d="M150.514 252L147.858 248.24C149.426 247.68 150.322 246.432 150.322 244.704C150.322 242.272 148.562 240.8 145.65 240.8H141.282V252H142.882V248.592H145.65C145.89 248.592 146.13 248.576 146.354 248.56L148.77 252H150.514ZM145.602 247.232H142.882V242.192H145.602C147.65 242.192 148.722 243.104 148.722 244.704C148.722 246.304 147.65 247.232 145.602 247.232ZM156.065 252.096C158.609 252.096 160.465 250.288 160.465 247.76C160.465 245.232 158.609 243.44 156.065 243.44C153.521 243.44 151.649 245.232 151.649 247.76C151.649 250.288 153.521 252.096 156.065 252.096ZM156.065 250.752C154.433 250.752 153.201 249.568 153.201 247.76C153.201 245.952 154.433 244.784 156.065 244.784C157.697 244.784 158.913 245.952 158.913 247.76C158.913 249.568 157.697 250.752 156.065 250.752ZM168.707 243.52V247.904C168.707 249.728 167.683 250.72 166.083 250.72C164.627 250.72 163.795 249.888 163.795 248.224V243.52H162.259V248.4C162.259 250.896 163.715 252.096 165.907 252.096C167.107 252.096 168.163 251.6 168.787 250.72V252H170.243V243.52H168.707ZM177.205 250.4C176.885 250.656 176.453 250.8 176.005 250.8C175.157 250.8 174.677 250.288 174.677 249.376V244.784H177.109V243.52H174.677V241.664H173.141V243.52H171.701V244.784H173.141V249.44C173.141 251.152 174.117 252.096 175.829 252.096C176.517 252.096 177.221 251.904 177.685 251.504L177.205 250.4ZM180.06 241.888C180.668 241.888 181.1 241.44 181.1 240.864C181.1 240.32 180.652 239.888 180.06 239.888C179.468 239.888 179.02 240.336 179.02 240.896C179.02 241.456 179.468 241.888 180.06 241.888ZM179.292 252H180.828V243.52H179.292V252ZM188.039 243.44C186.695 243.44 185.607 243.936 184.983 244.8V243.52H183.511V252H185.047V247.632C185.047 245.792 186.103 244.816 187.735 244.816C189.191 244.816 190.023 245.632 190.023 247.296V252H191.559V247.12C191.559 244.624 190.103 243.44 188.039 243.44ZM201.862 247.808C201.862 245.2 200.118 243.44 197.67 243.44C195.222 243.44 193.414 245.248 193.414 247.76C193.414 250.288 195.238 252.096 197.974 252.096C199.382 252.096 200.55 251.616 201.318 250.72L200.47 249.728C199.846 250.416 199.014 250.752 198.022 250.752C196.342 250.752 195.142 249.76 194.95 248.272H201.83C201.846 248.128 201.862 247.936 201.862 247.808ZM197.67 244.736C199.158 244.736 200.23 245.744 200.39 247.168H194.95C195.11 245.728 196.198 244.736 197.67 244.736ZM210.128 255.184L211.28 254.672C209.904 252.384 209.264 249.68 209.264 246.992C209.264 244.32 209.904 241.616 211.28 239.312L210.128 238.816C208.64 241.232 207.76 243.84 207.76 246.992C207.76 250.176 208.64 252.752 210.128 255.184ZM224.493 238.768H222.845V246.112H224.493V238.768ZM214.461 242.512C214.461 241.36 215.389 240.608 216.637 240.608C217.901 240.608 218.845 241.36 218.845 242.512C218.845 243.664 217.901 244.416 216.637 244.416C215.389 244.416 214.461 243.664 214.461 242.512ZM220.445 242.512C220.445 240.608 218.829 239.248 216.637 239.248C214.461 239.248 212.861 240.608 212.861 242.512C212.861 244.416 214.461 245.76 216.637 245.76C218.829 245.76 220.445 244.416 220.445 242.512ZM216.669 251.76V250.48H224.493V246.768H215.021V248.064H222.861V249.264H215.053V253.056H224.925V251.76H216.669ZM232.738 245.744H229.202V243.36H232.738V245.744ZM234.37 239.824H232.738V242.08H229.202V239.824H227.554V247.072H234.37V239.824ZM230.85 248.384H229.186V252.96H238.914V251.616H230.85V248.384ZM238.338 243.04V238.8H236.69V249.408H238.338V244.4H240.386V243.04H238.338ZM242.599 255.184C244.103 252.752 244.983 250.176 244.983 246.992C244.983 243.84 244.103 241.232 242.599 238.816L241.447 239.312C242.823 241.616 243.463 244.32 243.463 246.992C243.463 249.68 242.823 252.384 241.447 254.672L242.599 255.184Z" fill="white"/>
<rect x="338" width="250" height="188" rx="10" fill="#F6F7FE"/>
<path d="M338 10C338 4.47715 342.477 0 348 0L578 0C583.523 0 588 4.47715 588 10V74L338 74V10Z" fill="#435CE7"/>
<path d="M433.503 127.8V128.872H436.383V134.36H437.711V123.848H436.383V127.8H433.503ZM434.351 131.176C432.271 130.44 430.863 128.648 430.863 126.776V126.072H434.015V125H426.351V126.072H429.551V126.792C429.551 128.824 428.063 130.728 425.935 131.496L426.623 132.52C428.303 131.912 429.615 130.584 430.239 128.952C430.863 130.424 432.095 131.624 433.695 132.2L434.351 131.176ZM429.855 136.792V133.432H428.527V137.864H438.111V136.792H429.855ZM448.804 130.248C446.628 130.632 444.788 130.728 442.276 130.728V128.664H447.412V124.68H440.948V125.752H446.116V127.656H440.98V131.8H442.116C444.772 131.8 446.66 131.704 448.932 131.32L448.804 130.248ZM442.164 134.376H450.18V138.168H451.492V133.32H442.164V134.376ZM453.604 127.208V126.12H451.492V123.848H450.18V132.568H451.492V130.216H453.604V129.128H451.492V127.208H453.604ZM463.289 130.84C461.209 130.104 459.801 128.296 459.801 126.456V125.88H462.953V124.808H455.289V125.88H458.489V126.456C458.489 128.488 457.001 130.408 454.873 131.16L455.561 132.2C457.241 131.576 458.553 130.264 459.161 128.616C459.801 130.104 461.033 131.288 462.633 131.864L463.289 130.84ZM457.049 134.264H465.321V138.2H466.649V133.208H457.049V134.264ZM465.321 123.832V127.576H462.521V128.648H465.321V132.424H466.649V123.832H465.321ZM480.685 125.272H477.389V123.688H476.077V125.272H472.653V126.328H480.685V125.272ZM474.701 129.624C474.701 128.664 475.517 128.04 476.717 128.04C477.917 128.04 478.733 128.664 478.733 129.624C478.733 130.584 477.917 131.208 476.717 131.208C475.517 131.208 474.701 130.584 474.701 129.624ZM479.965 129.624C479.965 128.072 478.621 127.048 476.717 127.048C474.797 127.048 473.469 128.072 473.469 129.624C473.469 131.176 474.797 132.2 476.717 132.2C478.621 132.2 479.965 131.176 479.965 129.624ZM483.149 136.952H476.445V135.432H483.149V136.952ZM483.149 134.424H476.445V132.952H475.149V137.992H484.445V132.952H483.149V134.424ZM483.117 123.848V127.192H480.701V128.248H483.117V129.976H480.685V131.048H483.117V132.312H484.445V123.848H483.117ZM494.674 130.6C493.01 130.872 491.634 130.936 488.978 130.936V128.76H493.842V124.696H487.65V125.768H492.562V127.752H487.698V132.008H488.722C491.586 132.008 493.042 131.96 494.802 131.656L494.674 130.6ZM489.298 134.504H497.586V138.2H498.914V133.432H489.298V134.504ZM497.586 123.848V125.96H494.786V127.032H497.586V128.952H494.786V130.008H497.586V132.664H498.914V123.848H497.586Z" fill="#666666"/>
<path d="M442.188 32.128C443.932 32.128 445.436 31.52 446.46 30.368L445.42 29.36C444.556 30.272 443.5 30.704 442.268 30.704C439.74 30.704 437.868 28.88 437.868 26.4C437.868 23.92 439.74 22.096 442.268 22.096C443.5 22.096 444.556 22.512 445.42 23.424L446.46 22.416C445.436 21.264 443.932 20.672 442.204 20.672C438.796 20.672 436.268 23.088 436.268 26.4C436.268 29.712 438.796 32.128 442.188 32.128ZM449.741 24.944V23.52H448.269V32H449.805V27.776C449.805 25.92 450.829 24.912 452.477 24.912C452.589 24.912 452.701 24.912 452.829 24.928V23.44C451.341 23.44 450.285 23.952 449.741 24.944ZM455.24 21.888C455.848 21.888 456.28 21.44 456.28 20.864C456.28 20.32 455.832 19.888 455.24 19.888C454.648 19.888 454.2 20.336 454.2 20.896C454.2 21.456 454.648 21.888 455.24 21.888ZM454.472 32H456.008V23.52H454.472V32ZM462.978 30.4C462.658 30.656 462.226 30.8 461.778 30.8C460.93 30.8 460.45 30.288 460.45 29.376V24.784H462.882V23.52H460.45V21.664H458.914V23.52H457.474V24.784H458.914V29.44C458.914 31.152 459.89 32.096 461.602 32.096C462.29 32.096 462.994 31.904 463.458 31.504L462.978 30.4ZM465.833 21.888C466.441 21.888 466.873 21.44 466.873 20.864C466.873 20.32 466.425 19.888 465.833 19.888C465.241 19.888 464.793 20.336 464.793 20.896C464.793 21.456 465.241 21.888 465.833 21.888ZM465.065 32H466.601V23.52H465.065V32ZM472.98 32.096C474.5 32.096 475.764 31.456 476.436 30.272L475.268 29.536C474.724 30.368 473.892 30.752 472.964 30.752C471.3 30.752 470.052 29.6 470.052 27.76C470.052 25.952 471.3 24.784 472.964 24.784C473.892 24.784 474.724 25.168 475.268 26L476.436 25.248C475.764 24.064 474.5 23.44 472.98 23.44C470.372 23.44 468.5 25.232 468.5 27.76C468.5 30.288 470.372 32.096 472.98 32.096ZM481.263 23.44C479.903 23.44 478.639 23.824 477.759 24.528L478.399 25.68C479.055 25.12 480.079 24.768 481.087 24.768C482.607 24.768 483.359 25.52 483.359 26.816V27.12H480.927C478.399 27.12 477.519 28.24 477.519 29.6C477.519 31.072 478.735 32.096 480.655 32.096C481.983 32.096 482.927 31.648 483.439 30.88V32H484.895V26.88C484.895 24.56 483.583 23.44 481.263 23.44ZM480.911 30.912C479.743 30.912 479.039 30.384 479.039 29.536C479.039 28.816 479.471 28.224 480.991 28.224H483.359V29.408C482.975 30.384 482.063 30.912 480.911 30.912ZM487.487 32H489.023V20.128H487.487V32ZM446.761 57.184L447.913 56.672C446.537 54.384 445.897 51.68 445.897 48.992C445.897 46.32 446.537 43.616 447.913 41.312L446.761 40.816C445.273 43.232 444.393 45.84 444.393 48.992C444.393 52.176 445.273 54.752 446.761 57.184ZM456.918 44.656V46.016H459.542V51.36H461.19V40.8H459.542V44.656H456.918ZM457.814 48.032C455.654 47.28 454.422 45.472 454.422 43.696V43.2H457.43V41.872H449.702V43.2H452.758V43.696C452.758 45.648 451.446 47.552 449.206 48.336L450.054 49.632C451.766 49.04 452.982 47.776 453.622 46.208C454.23 47.632 455.398 48.768 456.998 49.312L457.814 48.032ZM453.478 53.616V50.448H451.83V54.96H461.558V53.616H453.478ZM472.091 47.104C470.107 47.472 468.363 47.552 465.883 47.568V45.808H470.795V41.6H464.235V42.928H469.163V44.56H464.267V48.912H465.435C468.203 48.912 470.091 48.832 472.267 48.448L472.091 47.104ZM465.467 51.616H473.323V55.248H474.971V50.288H465.467V51.616ZM477.003 44.304V42.96H474.971V40.816H473.323V49.568H474.971V47.36H477.003V46H474.971V44.304H477.003ZM479.232 57.184C480.736 54.752 481.616 52.176 481.616 48.992C481.616 45.84 480.736 43.232 479.232 40.816L478.08 41.312C479.456 43.616 480.096 46.32 480.096 48.992C480.096 51.68 479.456 54.384 478.08 56.672L479.232 57.184Z" fill="white"/>
<rect x="338" y="208" width="250" height="199" rx="10" fill="#F6F7FE"/>
<path d="M338 218C338 212.477 342.477 208 348 208L578 208C583.523 208 588 212.477 588 218V282H338V218Z" fill="#435CE7"/>
<path d="M392.481 336.64H385.441V334.352H392.481V336.64ZM393.777 333.312H384.161V337.68H393.777V333.312ZM395.457 339.936V338.88H382.465V339.936H388.305V341.344H384.033V342.336H392.497V343.616H384.081V347.024H394.225V346H385.361V344.576H393.793V341.344H389.617V339.936H395.457ZM405.398 339.136C403.222 339.52 401.382 339.6 398.87 339.6V337.616H404.006V333.728H397.542V334.8H402.71V336.608H397.574V340.672H398.71C401.366 340.672 403.254 340.592 405.526 340.208L405.398 339.136ZM403.51 346.16C401.366 346.16 400.07 345.568 400.07 344.56C400.07 343.552 401.366 342.96 403.51 342.96C405.654 342.96 406.934 343.552 406.934 344.56C406.934 345.568 405.654 346.16 403.51 346.16ZM403.51 341.936C400.582 341.936 398.79 342.896 398.79 344.56C398.79 346.224 400.582 347.168 403.51 347.168C406.422 347.168 408.23 346.224 408.23 344.56C408.23 342.896 406.422 341.936 403.51 341.936ZM410.214 336.16V335.072H408.086V332.848H406.774V341.52H408.086V339.184H410.214V338.096H408.086V336.16H410.214ZM417.898 346.176C415.594 346.176 414.298 345.728 414.298 344.864C414.298 344.016 415.594 343.552 417.898 343.552C420.218 343.552 421.498 344.016 421.498 344.864C421.498 345.728 420.218 346.176 417.898 346.176ZM417.898 342.576C414.778 342.576 412.986 343.376 412.986 344.864C412.986 346.368 414.778 347.168 417.898 347.168C421.018 347.168 422.81 346.368 422.81 344.864C422.81 343.376 421.018 342.576 417.898 342.576ZM418.554 340.432V339.024H422.874V338H414.426V336.592H422.41V335.6H414.426V334.272H422.794V333.248H413.114V339.024H417.242V340.432H411.402V341.488H424.394V340.432H418.554ZM434.399 334.304H430.815V332.688H429.503V334.304H425.935V335.36H434.399V334.304ZM427.983 338.544C427.983 337.616 428.847 337.024 430.159 337.024C431.471 337.024 432.351 337.616 432.351 338.544C432.351 339.488 431.471 340.064 430.159 340.064C428.847 340.064 427.983 339.488 427.983 338.544ZM433.599 338.544C433.599 337.024 432.207 336.048 430.159 336.048C428.111 336.048 426.735 337.024 426.735 338.544C426.735 340.08 428.111 341.056 430.159 341.056C432.207 341.056 433.599 340.08 433.599 338.544ZM435.727 345.936H429.295V344.352H435.727V345.936ZM435.727 343.328H429.295V341.808H427.999V346.992H437.023V341.808H435.727V343.328ZM439.151 336.48H437.023V332.832H435.711V341.168H437.023V337.584H439.151V336.48ZM443.604 342.816C442.452 342.816 441.732 341.36 441.732 339.008C441.732 336.704 442.452 335.248 443.604 335.248C444.724 335.248 445.46 336.704 445.46 339.008C445.46 341.36 444.724 342.816 443.604 342.816ZM448.452 338.416H446.644C446.484 335.712 445.332 334.032 443.604 334.032C441.732 334.032 440.532 335.952 440.532 339.008C440.532 342.112 441.732 344.032 443.604 344.032C445.364 344.032 446.532 342.304 446.644 339.488H448.452V346.48H449.7V333.152H448.452V338.416ZM451.3 332.832V347.184H452.548V332.832H451.3ZM459.481 333.888C457.257 333.888 455.641 335.248 455.641 337.264C455.641 339.264 457.257 340.64 459.481 340.64C461.721 340.64 463.321 339.264 463.321 337.264C463.321 335.248 461.721 333.888 459.481 333.888ZM459.481 335.008C460.969 335.008 462.041 335.92 462.041 337.264C462.041 338.592 460.969 339.52 459.481 339.52C458.009 339.52 456.921 338.592 456.921 337.264C456.921 335.92 458.009 335.008 459.481 335.008ZM465.209 332.832V347.216H466.521V332.832H465.209ZM455.081 344.064C457.673 344.064 461.145 344.032 464.377 343.44L464.265 342.464C461.129 342.944 457.529 342.96 454.921 342.96L455.081 344.064ZM477.805 334.592H474.221V332.832H472.909V334.592H469.341V335.648H477.805V334.592ZM471.389 339.104C471.389 338.112 472.269 337.472 473.565 337.472C474.861 337.472 475.757 338.112 475.757 339.104C475.757 340.112 474.861 340.752 473.565 340.752C472.269 340.752 471.389 340.112 471.389 339.104ZM477.005 339.104C477.005 337.504 475.597 336.448 473.565 336.448C471.533 336.448 470.141 337.504 470.141 339.104C470.141 340.72 471.533 341.776 473.565 341.776C475.597 341.776 477.005 340.72 477.005 339.104ZM472.813 342.752H471.501V346.864H481.069V345.792H472.813V342.752ZM480.429 337.568V332.832H479.117V343.6H480.429V338.672H482.541V337.568H480.429ZM487.858 334.368V335.456H493.122C492.818 338.848 490.85 341.6 487.186 343.44L487.906 344.464C492.546 342.144 494.418 338.448 494.418 334.368H487.858ZM500.434 338.656H498.13V332.832H496.818V347.184H498.13V339.744H500.434V338.656ZM503.783 343.088H512.055V347.152H513.383V342.032H503.783V343.088ZM512.055 332.832V335.392H508.887C509.015 334.88 509.079 334.336 509.079 333.792H502.519V334.864H507.671C507.415 337.312 505.239 339.216 501.767 340.16L502.295 341.216C505.367 340.352 507.591 338.72 508.551 336.464H512.055V338.432H508.343V339.504H512.055V341.392H513.383V332.832H512.055ZM524.54 334.144H520.956V332.688H519.644V334.144H516.076V335.152H524.54V334.144ZM518.124 338.144C518.124 337.28 518.972 336.768 520.3 336.768C521.628 336.768 522.492 337.28 522.492 338.144C522.492 338.992 521.628 339.52 520.3 339.52C518.972 339.52 518.124 338.992 518.124 338.144ZM523.74 338.144C523.74 336.688 522.38 335.792 520.3 335.792C518.236 335.792 516.876 336.688 516.876 338.144C516.876 339.6 518.236 340.496 520.3 340.496C522.38 340.496 523.74 339.6 523.74 338.144ZM519.372 344.64H527.164V341.456H518.044V342.432H525.868V343.68H518.092V347.024H527.692V346.016H519.372V344.64ZM527.164 336.24V332.784H525.852V340.72H527.164V337.328H529.292V336.24H527.164ZM542.272 332.848H540.96V343.328H542.272V332.848ZM532.112 337.36C532.112 335.968 533.168 334.976 534.56 334.976C535.984 334.976 537.04 335.968 537.04 337.36C537.04 338.784 535.984 339.776 534.56 339.776C533.168 339.776 532.112 338.784 532.112 337.36ZM538.32 337.36C538.32 335.296 536.704 333.84 534.56 333.84C532.432 333.84 530.832 335.296 530.832 337.36C530.832 339.44 532.432 340.912 534.56 340.912C536.704 340.912 538.32 339.44 538.32 337.36ZM534.352 345.792V342.256H533.04V346.864H542.704V345.792H534.352Z" fill="#666666"/>
<path d="M406.414 252H414.078V250.608H408.014V240.8H406.414V252ZM422.995 247.808C422.995 245.2 421.251 243.44 418.803 243.44C416.355 243.44 414.547 245.248 414.547 247.76C414.547 250.288 416.371 252.096 419.107 252.096C420.515 252.096 421.683 251.616 422.451 250.72L421.603 249.728C420.979 250.416 420.147 250.752 419.155 250.752C417.475 250.752 416.275 249.76 416.083 248.272H422.963C422.979 248.128 422.995 247.936 422.995 247.808ZM418.803 244.736C420.291 244.736 421.363 245.744 421.523 247.168H416.083C416.243 245.728 417.331 244.736 418.803 244.736ZM430.722 243.52L427.746 250.32L424.834 243.52H423.234L426.946 252H428.514L432.226 243.52H430.722ZM440.839 247.808C440.839 245.2 439.095 243.44 436.647 243.44C434.199 243.44 432.391 245.248 432.391 247.76C432.391 250.288 434.215 252.096 436.951 252.096C438.359 252.096 439.527 251.616 440.295 250.72L439.447 249.728C438.823 250.416 437.991 250.752 436.999 250.752C435.319 250.752 434.119 249.76 433.927 248.272H440.807C440.823 248.128 440.839 247.936 440.839 247.808ZM436.647 244.736C438.135 244.736 439.207 245.744 439.367 247.168H433.927C434.087 245.728 435.175 244.736 436.647 244.736ZM444.194 244.944V243.52H442.722V252H444.258V247.776C444.258 245.92 445.282 244.912 446.93 244.912C447.042 244.912 447.154 244.912 447.282 244.928V243.44C445.794 243.44 444.738 243.952 444.194 244.944ZM451.997 243.44C450.637 243.44 449.373 243.824 448.493 244.528L449.133 245.68C449.789 245.12 450.813 244.768 451.821 244.768C453.341 244.768 454.093 245.52 454.093 246.816V247.12H451.661C449.133 247.12 448.253 248.24 448.253 249.6C448.253 251.072 449.469 252.096 451.389 252.096C452.717 252.096 453.661 251.648 454.173 250.88V252H455.629V246.88C455.629 244.56 454.317 243.44 451.997 243.44ZM451.645 250.912C450.477 250.912 449.773 250.384 449.773 249.536C449.773 248.816 450.205 248.224 451.725 248.224H454.093V249.408C453.709 250.384 452.797 250.912 451.645 250.912ZM464.925 243.52V244.832C464.205 243.904 463.053 243.44 461.789 243.44C459.341 243.44 457.485 245.088 457.485 247.536C457.485 249.984 459.341 251.648 461.789 251.648C463.005 251.648 464.109 251.216 464.845 250.336V251.008C464.845 252.928 463.933 253.856 461.933 253.856C460.685 253.856 459.453 253.424 458.669 252.752L457.933 253.936C458.861 254.768 460.429 255.2 461.981 255.2C464.861 255.2 466.381 253.84 466.381 250.848V243.52H464.925ZM461.965 250.304C460.253 250.304 459.037 249.168 459.037 247.536C459.037 245.888 460.253 244.784 461.965 244.784C463.661 244.784 464.877 245.888 464.877 247.536C464.877 249.168 463.661 250.304 461.965 250.304ZM476.729 247.808C476.729 245.2 474.985 243.44 472.537 243.44C470.089 243.44 468.281 245.248 468.281 247.76C468.281 250.288 470.105 252.096 472.841 252.096C474.249 252.096 475.417 251.616 476.185 250.72L475.337 249.728C474.713 250.416 473.881 250.752 472.889 250.752C471.209 250.752 470.009 249.76 469.817 248.272H476.697C476.713 248.128 476.729 247.936 476.729 247.808ZM472.537 244.736C474.025 244.736 475.097 245.744 475.257 247.168H469.817C469.977 245.728 471.065 244.736 472.537 244.736ZM484.995 255.184L486.147 254.672C484.771 252.384 484.131 249.68 484.131 246.992C484.131 244.32 484.771 241.616 486.147 239.312L484.995 238.816C483.507 241.232 482.627 243.84 482.627 246.992C482.627 250.176 483.507 252.752 484.995 255.184ZM497.777 242.608V244.272H494.273V245.616H497.777V247.28H499.425V238.784H497.777V241.264H494.801C494.881 240.816 494.929 240.336 494.929 239.824H488.369V241.152H493.169C492.881 243.408 491.009 245.184 487.617 246.128L488.273 247.44C491.393 246.528 493.521 244.912 494.417 242.608H497.777ZM494.689 251.872C492.737 251.872 491.505 251.312 491.505 250.304C491.505 249.312 492.737 248.752 494.689 248.752C496.657 248.752 497.889 249.312 497.889 250.304C497.889 251.312 496.657 251.872 494.689 251.872ZM494.689 247.456C491.761 247.456 489.873 248.544 489.873 250.304C489.873 252.08 491.761 253.168 494.689 253.168C497.617 253.168 499.521 252.08 499.521 250.304C499.521 248.544 497.617 247.456 494.689 247.456ZM511.093 243.808H512.581V247.6H514.149V238.8H512.581V242.464H511.093V239.056H509.541V247.136H511.093V243.808ZM508.965 245.552C507.173 244.848 506.309 243.344 506.309 241.664V241.264H508.661V239.92H502.229V241.264H504.709V241.664C504.709 243.392 503.781 245.12 501.877 245.92L502.741 247.2C504.101 246.624 505.013 245.552 505.525 244.288C506.021 245.424 506.853 246.304 508.117 246.816L508.965 245.552ZM509.349 251.952C507.301 251.952 506.085 251.456 506.085 250.56C506.085 249.648 507.301 249.152 509.349 249.152C511.365 249.152 512.581 249.648 512.581 250.56C512.581 251.456 511.365 251.952 509.349 251.952ZM509.349 247.872C506.325 247.872 504.437 248.88 504.437 250.56C504.437 252.224 506.325 253.232 509.349 253.232C512.341 253.232 514.229 252.224 514.229 250.56C514.229 248.88 512.341 247.872 509.349 247.872ZM517.466 255.184C518.97 252.752 519.85 250.176 519.85 246.992C519.85 243.84 518.97 241.232 517.466 238.816L516.314 239.312C517.69 241.616 518.33 244.32 518.33 246.992C518.33 249.68 517.69 252.384 516.314 254.672L517.466 255.184Z" fill="white"/>
<path d="M29.9786 2.4V8.016H22.0946V2.4H20.7626V15H22.0946V9.186H29.9786V15H31.2926V2.4H29.9786ZM35.5331 3.462C36.0731 3.462 36.4691 3.048 36.4691 2.526C36.4691 2.04 36.0551 1.644 35.5331 1.644C35.0111 1.644 34.5971 2.058 34.5971 2.544C34.5971 3.048 35.0111 3.462 35.5331 3.462ZM34.8851 15H36.1631V5.532H34.8851V15ZM47.0111 5.532V7.35C46.2191 6.108 44.8511 5.46 43.2671 5.46C40.5671 5.46 38.5151 7.314 38.5151 10.032C38.5151 12.75 40.5671 14.64 43.2671 14.64C44.8151 14.64 46.1651 14.01 46.9571 12.804V14.01C46.9571 16.35 45.8591 17.448 43.4651 17.448C42.0071 17.448 40.6391 16.962 39.7391 16.152L39.0911 17.124C40.0811 18.06 41.7731 18.582 43.5011 18.582C46.6331 18.582 48.2351 17.106 48.2351 13.848V5.532H47.0111ZM43.3931 13.506C41.3051 13.506 39.8111 12.084 39.8111 10.032C39.8111 7.98 41.3051 6.576 43.3931 6.576C45.4811 6.576 46.9931 7.98 46.9931 10.032C46.9931 12.084 45.4811 13.506 43.3931 13.506ZM56.383 5.46C54.781 5.46 53.539 6.09 52.837 7.188V1.644H51.559V15H52.837V10.032C52.837 7.872 54.115 6.612 56.149 6.612C57.949 6.612 58.993 7.638 58.993 9.636V15H60.271V9.51C60.271 6.792 58.687 5.46 56.383 5.46Z" fill="#666666"/>
<path d="M24.052 440H32.44V438.848H25.384V427.4H24.052V440ZM37.861 440.09C40.633 440.09 42.667 438.074 42.667 435.266C42.667 432.458 40.633 430.46 37.861 430.46C35.089 430.46 33.037 432.458 33.037 435.266C33.037 438.074 35.089 440.09 37.861 440.09ZM37.861 438.956C35.845 438.956 34.333 437.48 34.333 435.266C34.333 433.052 35.845 431.576 37.861 431.576C39.877 431.576 41.371 433.052 41.371 435.266C41.371 437.48 39.877 438.956 37.861 438.956ZM57.4885 430.532L54.4825 438.578L51.4585 430.532H50.3605L47.3185 438.578L44.3485 430.532H43.1245L46.6885 440H47.8945L50.8825 432.242L53.8705 440H55.0765L58.6585 430.532H57.4885Z" fill="#666666"/>
<path d="M39.2474 54.8601L34.4512 60.3415C33.8854 60.9881 34.3446 62 35.2038 62H44.7962C45.6554 62 46.1146 60.9881 45.5488 60.3415L40.7526 54.8601C40.3542 54.4048 39.6458 54.4048 39.2474 54.8601Z" fill="#888888"/>
<line x1="39.5" y1="58" x2="39.5" y2="426" stroke="#888888"/>
<path d="M586.141 434.248L580.668 429.453C580.022 428.887 579.009 429.346 579.009 430.205L579.009 439.795C579.009 440.654 580.022 441.113 580.668 440.547L586.141 435.752C586.596 435.354 586.596 434.646 586.141 434.248Z" fill="#888888"/>
<line x1="579" y1="435.5" x2="68" y2="435.5" stroke="#888888"/>
<path d="M12.42 137.114L12.42 153.422H14.292L14.292 137.114H12.42ZM1.782 138.464L1.782 149.552H9.594L9.594 138.464H7.74V142.604H3.618L3.618 138.464H1.782ZM3.618 144.08H7.74V148.058H3.618L3.618 144.08ZM2.304 166.194C4.932 165.69 7.218 164.16 8.262 162.054C9.324 164.142 11.628 165.618 14.292 166.122L15.048 164.646C11.826 164.16 9.234 161.964 9.234 159.516V159.138H14.4V157.626H2.124L2.124 159.138H7.29V159.516C7.29 161.964 4.716 164.196 1.548 164.718L2.304 166.194ZM0.918 168.822L0.918 170.334H15.642V168.822H0.918ZM3.708 176.716H1.872L1.872 187.282H3.258C5.778 187.282 8.406 187.084 11.196 186.508L10.998 184.96C8.442 185.482 6.012 185.68 3.708 185.698L3.708 176.716ZM12.492 175.132L12.492 191.386H14.346L14.346 175.132H12.492ZM15.012 202.07C11.808 201.494 9.198 198.992 9.198 196.4L9.198 195.176H7.236V196.4C7.236 198.974 4.626 201.476 1.422 202.07L2.214 203.6C4.86 203.06 7.146 201.368 8.208 199.136C9.27 201.368 11.556 203.06 14.202 203.6L15.012 202.07ZM0.918 206.768L0.918 208.298H15.642L15.642 206.768H0.918ZM2.304 226.81C5.148 226.504 7.38 225.334 8.262 223.66C9.126 225.334 11.358 226.504 14.22 226.81L14.868 225.352C11.862 225.046 9.774 223.786 9.522 222.328H14.274V220.834H2.268L2.268 222.328H6.984C6.732 223.786 4.644 225.046 1.638 225.352L2.304 226.81ZM11.952 233.506C11.952 234.442 10.602 234.964 8.226 234.964C5.85 234.964 4.518 234.442 4.518 233.506C4.518 232.534 5.85 232.03 8.226 232.03C10.602 232.03 11.952 232.534 11.952 233.506ZM15.606 229.114L15.606 227.638H0.9L0.9 229.114H7.326V230.608C4.374 230.788 2.628 231.814 2.628 233.506C2.628 235.342 4.734 236.386 8.226 236.386C11.736 236.386 13.824 235.342 13.824 233.506C13.824 231.814 12.114 230.806 9.18 230.626V229.114H15.606ZM6.21 247.348C6.84 247.492 7.542 247.564 8.262 247.564C8.982 247.564 9.684 247.492 10.314 247.33V250.876H6.21L6.21 247.348ZM8.262 240.526C10.71 240.526 12.42 241.606 12.42 243.316C12.42 245.044 10.71 246.124 8.262 246.124C5.796 246.124 4.086 245.044 4.086 243.316C4.086 241.606 5.796 240.526 8.262 240.526ZM12.168 250.876V246.646C13.464 245.908 14.238 244.756 14.238 243.316C14.238 240.724 11.718 239.068 8.262 239.068C4.788 239.068 2.286 240.724 2.286 243.316C2.286 244.756 3.06 245.926 4.356 246.646L4.356 250.876H0.918L0.918 252.388H15.642L15.642 250.876H12.168ZM9.18 268.912V265.078H13.986V263.584H4.572L4.572 258.85H13.842V257.356H2.718L2.718 265.078H7.326V268.912H0.918L0.918 270.442H15.642V268.912H9.18Z" fill="#666666"/>
<path d="M281.647 467.07H279.379C279.793 464.766 279.793 463.074 279.793 461.544V460.122H268.705V461.616H277.975C277.975 463.11 277.975 464.802 277.507 467.07H266.941V468.6H273.295V475.386H275.167V468.6H281.647V467.07ZM285.518 462.39H288.326V469.68H285.518V462.39ZM283.79 471.156H290.054V460.914H283.79V471.156ZM295.364 459.132V465.468H293.51V459.438H291.764V474.612H293.51V466.98H295.364V475.368H297.128V459.132H295.364ZM303.159 470.796H310.629V473.712H303.159V470.796ZM301.341 475.188H312.447V469.32H301.341V475.188ZM312.033 465.846C312.447 463.902 312.447 462.462 312.447 461.184V459.924H301.413V461.436H310.629C310.629 462.66 310.593 464.028 310.179 465.846H299.559V467.358H314.283V465.846H312.033ZM317.649 464.028C317.649 462.624 318.495 461.706 319.683 461.706C320.853 461.706 321.717 462.624 321.717 464.028C321.717 465.432 320.853 466.368 319.683 466.368C318.495 466.368 317.649 465.432 317.649 464.028ZM323.391 464.028C323.391 461.724 321.825 460.14 319.683 460.14C317.523 460.14 315.975 461.724 315.975 464.028C315.975 466.314 317.523 467.916 319.683 467.916C321.825 467.916 323.391 466.314 323.391 464.028ZM318.603 471.138H327.765V475.386H329.619V469.644H318.603V471.138ZM327.855 459.15V463.2H326.163V459.456H324.417V468.726H326.163V464.712H327.855V468.798H329.619V459.15H327.855ZM337.355 465.81C340.199 465.504 342.431 464.334 343.313 462.66C344.177 464.334 346.409 465.504 349.271 465.81L349.919 464.352C346.913 464.046 344.825 462.786 344.573 461.328H349.325V459.834H337.319V461.328H342.035C341.783 462.786 339.695 464.046 336.689 464.352L337.355 465.81ZM347.003 472.506C347.003 473.442 345.653 473.964 343.277 473.964C340.901 473.964 339.569 473.442 339.569 472.506C339.569 471.534 340.901 471.03 343.277 471.03C345.653 471.03 347.003 471.534 347.003 472.506ZM350.657 468.114V466.638H335.951V468.114H342.377V469.608C339.425 469.788 337.679 470.814 337.679 472.506C337.679 474.342 339.785 475.386 343.277 475.386C346.787 475.386 348.875 474.342 348.875 472.506C348.875 470.814 347.165 469.806 344.231 469.626V468.114H350.657ZM357.569 468.348C358.199 468.492 358.901 468.564 359.621 468.564C360.341 468.564 361.043 468.492 361.673 468.33V471.876H357.569V468.348ZM359.621 461.526C362.069 461.526 363.779 462.606 363.779 464.316C363.779 466.044 362.069 467.124 359.621 467.124C357.155 467.124 355.445 466.044 355.445 464.316C355.445 462.606 357.155 461.526 359.621 461.526ZM363.527 471.876V467.646C364.823 466.908 365.597 465.756 365.597 464.316C365.597 461.724 363.077 460.068 359.621 460.068C356.147 460.068 353.645 461.724 353.645 464.316C353.645 465.756 354.419 466.926 355.715 467.646V471.876H352.277V473.388H367.001V471.876H363.527ZM376.848 471.912V468.078H381.654V466.584H372.24V461.85H381.51V460.356H370.386V468.078H374.994V471.912H368.586V473.442H383.31V471.912H376.848Z" fill="#666666"/>
</svg>
