<svg width="1200" height="538" viewBox="0 0 1200 538" fill="none" xmlns="http://www.w3.org/2000/svg">
<path d="M0 20C0 8.95432 8.95431 0 20 0H1180C1191.05 0 1200 8.9543 1200 20V516C1200 527.046 1191.05 536 1180 536H20C8.95429 536 0 527.046 0 516V20Z" fill="white"/>
<rect x="540" y="30" width="250" height="188" rx="10" fill="#F6F7FE"/>
<path d="M540 40C540 34.4772 544.477 30 550 30L780 30C785.523 30 790 34.4772 790 40V104L540 104V40Z" fill="#435CE7"/>
<path d="M621.786 155.784C621.786 156.904 621.786 157.96 621.402 159.432L622.682 159.576C623.082 158.104 623.082 156.936 623.082 155.784V154.568H613.306V155.624H621.786V155.784ZM618.186 167.144C615.946 167.144 614.506 166.536 614.506 165.544C614.506 164.52 615.946 163.912 618.186 163.912C620.442 163.912 621.882 164.52 621.882 165.544C621.882 166.536 620.442 167.144 618.186 167.144ZM618.186 162.904C615.13 162.904 613.194 163.88 613.194 165.544C613.194 167.176 615.13 168.168 618.186 168.168C621.242 168.168 623.194 167.176 623.194 165.544C623.194 163.88 621.242 162.904 618.186 162.904ZM618.394 160.52V157.768H617.082V160.52H611.786V161.576H624.698V160.52H618.394ZM636.255 166.936H629.199V164.968H636.255V166.936ZM636.255 163.944H629.199V162.056H627.903V167.992H637.551V162.056H636.255V163.944ZM637.183 159.688C637.567 157.912 637.567 156.632 637.567 155.528V154.488H627.871V155.56H636.271C636.271 156.648 636.271 157.928 635.871 159.688H626.207V160.76H639.247V159.688H637.183ZM645.572 158.376C645.572 156.968 646.628 155.976 648.036 155.976C649.444 155.976 650.5 156.968 650.5 158.376C650.5 159.784 649.444 160.776 648.036 160.776C646.628 160.776 645.572 159.784 645.572 158.376ZM651.78 158.376C651.78 156.296 650.18 154.84 648.036 154.84C645.892 154.84 644.292 156.296 644.292 158.376C644.292 160.456 645.892 161.912 648.036 161.912C650.18 161.912 651.78 160.456 651.78 158.376ZM647.54 163.32H646.228V167.864H655.796V166.792H647.54V163.32ZM655.156 158.2V153.832H653.844V164.392H655.156V159.288H657.268V158.2H655.156ZM666.153 157.56V158.632H668.985V162.392H670.313V153.848H668.985V157.56H666.153ZM666.953 160.824C664.873 160.088 663.465 158.28 663.465 156.44V155.944H666.617V154.888H658.953V155.944H662.153V156.44C662.153 158.504 660.681 160.44 658.537 161.224L659.225 162.264C660.905 161.624 662.233 160.28 662.841 158.616C663.465 160.088 664.697 161.272 666.297 161.848L666.953 160.824ZM665.577 167.16C663.417 167.16 662.105 166.552 662.105 165.512C662.105 164.472 663.417 163.848 665.577 163.848C667.737 163.848 669.049 164.472 669.049 165.512C669.049 166.552 667.737 167.16 665.577 167.16ZM665.577 162.84C662.633 162.84 660.793 163.816 660.793 165.512C660.793 167.208 662.633 168.184 665.577 168.184C668.521 168.184 670.361 167.208 670.361 165.512C670.361 163.816 668.521 162.84 665.577 162.84ZM683.453 162.328H684.781V153.848H683.453V156.888H680.333V157.96H683.453V162.328ZM681.373 160.632C679.277 159.896 677.885 158.12 677.885 156.072V154.648H676.573V156.12C676.573 158.312 675.149 160.232 672.941 161.016L673.629 162.088C675.357 161.432 676.653 160.136 677.261 158.44C677.885 159.928 679.101 161.064 680.669 161.656L681.373 160.632ZM680.045 167.128C677.885 167.128 676.573 166.504 676.573 165.464C676.573 164.408 677.885 163.784 680.045 163.784C682.205 163.784 683.517 164.408 683.517 165.464C683.517 166.504 682.205 167.128 680.045 167.128ZM680.045 162.76C677.101 162.76 675.261 163.736 675.261 165.464C675.261 167.176 677.101 168.168 680.045 168.168C682.989 168.168 684.829 167.176 684.829 165.464C684.829 163.736 682.989 162.76 680.045 162.76ZM699.282 155.144H695.826V153.736H694.514V155.144H691.042V156.136H699.282V155.144ZM693.058 158.792C693.058 158.04 693.874 157.576 695.17 157.576C696.434 157.576 697.266 158.04 697.266 158.792C697.266 159.544 696.434 160.024 695.17 160.024C693.874 160.024 693.058 159.544 693.058 158.792ZM699.714 161.544C698.466 161.736 697.138 161.832 695.826 161.896V160.904C697.474 160.728 698.514 159.96 698.514 158.792C698.514 157.48 697.17 156.664 695.17 156.664C693.138 156.664 691.81 157.48 691.81 158.792C691.81 159.976 692.85 160.744 694.514 160.904V161.944C693.138 161.992 691.826 161.992 690.69 161.992L690.834 163.048C693.346 163.032 696.738 163.016 699.81 162.488L699.714 161.544ZM692.434 165.224H700.562V168.184H701.874V164.184H692.434V165.224ZM703.97 158.184H701.874V153.848H700.562V163.464H701.874V159.272H703.97V158.184ZM708.055 158.488H715.383V161.128H708.055V158.488ZM712.375 165.272V162.184H716.663V154.856H715.383V157.416H708.055V154.856H706.759V162.184H711.047V165.272H705.223V166.344H718.231V165.272H712.375Z" fill="#666666"/>
<path d="M604.771 68.192C605.651 67.76 606.275 66.912 606.275 65.696C606.275 63.888 604.835 62.8 602.259 62.8H597.235V74H602.579C605.411 74 606.867 72.896 606.867 70.976C606.867 69.488 606.035 68.544 604.771 68.192ZM602.115 64.096C603.747 64.096 604.675 64.704 604.675 65.888C604.675 67.072 603.747 67.68 602.115 67.68H598.835V64.096H602.115ZM602.515 72.704H598.835V68.976H602.515C604.291 68.976 605.251 69.552 605.251 70.848C605.251 72.144 604.291 72.704 602.515 72.704ZM612.502 74.096C615.046 74.096 616.902 72.288 616.902 69.76C616.902 67.232 615.046 65.44 612.502 65.44C609.958 65.44 608.086 67.232 608.086 69.76C608.086 72.288 609.958 74.096 612.502 74.096ZM612.502 72.752C610.87 72.752 609.638 71.568 609.638 69.76C609.638 67.952 610.87 66.784 612.502 66.784C614.134 66.784 615.35 67.952 615.35 69.76C615.35 71.568 614.134 72.752 612.502 72.752ZM623.064 72.4C622.744 72.656 622.312 72.8 621.864 72.8C621.016 72.8 620.536 72.288 620.536 71.376V66.784H622.968V65.52H620.536V63.664H619V65.52H617.56V66.784H619V71.44C619 73.152 619.976 74.096 621.688 74.096C622.376 74.096 623.08 73.904 623.544 73.504L623.064 72.4ZM629.236 72.4C628.916 72.656 628.484 72.8 628.036 72.8C627.188 72.8 626.708 72.288 626.708 71.376V66.784H629.14V65.52H626.708V63.664H625.172V65.52H623.732V66.784H625.172V71.44C625.172 73.152 626.148 74.096 627.86 74.096C628.548 74.096 629.252 73.904 629.716 73.504L629.236 72.4ZM631.323 74H632.859V62.128H631.323V74ZM643.206 69.808C643.206 67.2 641.462 65.44 639.014 65.44C636.566 65.44 634.758 67.248 634.758 69.76C634.758 72.288 636.582 74.096 639.318 74.096C640.726 74.096 641.894 73.616 642.662 72.72L641.814 71.728C641.19 72.416 640.358 72.752 639.366 72.752C637.686 72.752 636.486 71.76 636.294 70.272H643.174C643.19 70.128 643.206 69.936 643.206 69.808ZM639.014 66.736C640.502 66.736 641.574 67.744 641.734 69.168H636.294C636.454 67.728 637.542 66.736 639.014 66.736ZM644.701 70.272H649.005V68.944H644.701V70.272ZM659.376 62.8V71.152L652.656 62.8H651.344V74H652.944V65.648L659.664 74H660.976V62.8H659.376ZM671.518 69.808C671.518 67.2 669.774 65.44 667.326 65.44C664.878 65.44 663.07 67.248 663.07 69.76C663.07 72.288 664.894 74.096 667.63 74.096C669.038 74.096 670.206 73.616 670.974 72.72L670.126 71.728C669.502 72.416 668.67 72.752 667.678 72.752C665.998 72.752 664.798 71.76 664.606 70.272H671.486C671.502 70.128 671.518 69.936 671.518 69.808ZM667.326 66.736C668.814 66.736 669.886 67.744 670.046 69.168H664.606C664.766 67.728 665.854 66.736 667.326 66.736ZM677.097 74.096C678.617 74.096 679.881 73.456 680.553 72.272L679.385 71.536C678.841 72.368 678.009 72.752 677.081 72.752C675.417 72.752 674.169 71.6 674.169 69.76C674.169 67.952 675.417 66.784 677.081 66.784C678.009 66.784 678.841 67.168 679.385 68L680.553 67.248C679.881 66.064 678.617 65.44 677.097 65.44C674.489 65.44 672.617 67.232 672.617 69.76C672.617 72.288 674.489 74.096 677.097 74.096ZM688.663 74H690.551L686.631 69.024L690.199 65.52H688.343L683.719 69.744V62.128H682.183V74H683.719V71.68L685.479 70.048L688.663 74ZM698.175 77.184L699.327 76.672C697.951 74.384 697.311 71.68 697.311 68.992C697.311 66.32 697.951 63.616 699.327 61.312L698.175 60.816C696.687 63.232 695.807 65.84 695.807 68.992C695.807 72.176 696.687 74.752 698.175 77.184ZM710.956 64.368V65.984H707.948V64.368H710.956ZM706.332 67.216H702.924V65.104H706.332V67.216ZM707.948 67.328H710.956V69.488H712.604V60.784H710.956V63.024H707.948V61.664H706.332V63.808H702.924V61.664H701.292V68.528H707.948V67.328ZM707.788 73.952C705.74 73.952 704.572 73.44 704.572 72.496C704.572 71.552 705.74 71.04 707.788 71.04C709.836 71.04 711.02 71.552 711.02 72.496C711.02 73.44 709.836 73.952 707.788 73.952ZM707.788 69.76C704.78 69.76 702.924 70.784 702.924 72.496C702.924 74.224 704.78 75.232 707.788 75.232C710.812 75.232 712.668 74.224 712.668 72.496C712.668 70.784 710.812 69.76 707.788 69.76ZM716.561 71.92H724.913V75.232H726.561V70.592H716.561V71.92ZM718.369 62.672H724.881V65.056H718.369V62.672ZM722.449 67.984V66.368H726.497V61.36H716.753V66.368H720.785V67.984H715.089V69.312H728.177V67.984H722.449ZM730.646 77.184C732.15 74.752 733.03 72.176 733.03 68.992C733.03 65.84 732.15 63.232 730.646 60.816L729.494 61.312C730.87 63.616 731.51 66.32 731.51 68.992C731.51 71.68 730.87 74.384 729.494 76.672L730.646 77.184Z" fill="white"/>
<rect x="540" y="238" width="250" height="199" rx="10" fill="#F6F7FE"/>
<path d="M540 248C540 242.477 544.477 238 550 238L780 238C785.523 238 790 242.477 790 248V312L540 312V248Z" fill="#435CE7"/>
<path d="M585.567 369.936H583.439C583.839 367.872 583.839 366.352 583.839 365.008V363.76H574.207V364.816H582.559V365.008C582.559 366.352 582.559 367.872 582.111 369.936H572.591V371.008H578.383V377.2H579.711V371.008H585.567V369.936ZM588.787 365.536H591.795V372.288H588.787V365.536ZM587.555 373.328H593.011V364.496H587.555V373.328ZM597.987 362.832V368.512H596.051V363.152H594.819V376.464H596.051V369.584H597.987V377.168H599.235V362.832H597.987ZM615.352 375.936H608.776V374.08H615.352V375.936ZM615.352 373.056H608.776V371.232H607.48V376.992H616.664V371.232H615.352V373.056ZM608.76 369.056C607.336 369.056 606.312 368.128 606.312 366.816C606.312 365.504 607.336 364.592 608.76 364.592C610.184 364.592 611.208 365.504 611.208 366.816C611.208 368.128 610.184 369.056 608.76 369.056ZM615.336 362.848V366.256H612.408C612.136 364.592 610.696 363.504 608.76 363.504C606.616 363.504 605.064 364.848 605.064 366.816C605.064 368.8 606.616 370.144 608.76 370.144C610.728 370.144 612.168 369.024 612.424 367.328H615.336V370.544H616.664V362.848H615.336ZM629.357 368.176H622.237V364.688H629.357V368.176ZM630.653 363.632H620.957V369.216H630.653V363.632ZM632.317 371.168H619.293V372.224H625.117V377.168H626.429V372.224H632.317V371.168ZM638.738 366.368H641.922V365.312H638.738V363.088H637.426V365.312H634.194V366.368H637.442V367.472C637.442 369.952 635.906 372.4 633.794 373.408L634.53 374.416C636.162 373.616 637.49 371.952 638.098 369.952C638.738 371.84 640.066 373.392 641.698 374.144L642.418 373.136C640.306 372.192 638.738 369.856 638.738 367.472V366.368ZM644.29 362.816V368.592H641.186V369.664H644.29V377.216H645.602V362.816H644.29ZM650.39 369.28H655.686V364.16H649.03V365.232H654.358V368.224H649.078V373.728H650.262C652.726 373.728 654.902 373.632 657.494 373.2L657.366 372.128C654.854 372.528 652.742 372.64 650.39 372.64V369.28ZM658.71 362.816V377.2H660.022V362.816H658.71ZM678.331 364.944H673.195V363.056H671.883V364.944H666.683V366.016H678.331V364.944ZM670.763 372.176C671.291 372.272 671.883 372.32 672.539 372.32C673.179 372.32 673.771 372.272 674.283 372.176V374.464H670.763V372.176ZM672.539 367.984C674.603 367.984 675.883 368.608 675.883 369.648C675.883 370.672 674.603 371.296 672.539 371.296C670.427 371.296 669.147 370.672 669.147 369.648C669.147 368.608 670.427 367.984 672.539 367.984ZM675.579 374.464V371.808C676.619 371.36 677.211 370.624 677.211 369.648C677.211 367.936 675.403 366.96 672.539 366.96C669.627 366.96 667.819 367.936 667.819 369.648C667.819 370.624 668.411 371.36 669.467 371.808V374.464H666.043V375.536H679.051V374.464H675.579ZM686.992 363.984C689.344 363.984 690.688 364.528 690.688 365.488C690.688 366.448 689.344 366.992 686.992 366.992C684.656 366.992 683.296 366.448 683.296 365.488C683.296 364.528 684.656 363.984 686.992 363.984ZM686.992 367.968C690.16 367.968 692.032 367.104 692.032 365.488C692.032 363.872 690.16 362.992 686.992 362.992C683.84 362.992 681.952 363.872 681.952 365.488C681.952 367.104 683.84 367.968 686.992 367.968ZM688.592 371.312H685.328V369.888H688.592V371.312ZM693.472 369.888V368.832H680.512V369.888H684.032V371.312H682.08V372.304H690.528V373.584H682.112V377.024H692.256V376H683.392V374.544H691.824V371.312H689.888V369.888H693.472ZM703.637 364.576H700.021V362.848H698.709V364.576H695.061V365.616H703.637V364.576ZM697.221 369.12C697.221 368.128 698.085 367.472 699.365 367.472C700.645 367.472 701.509 368.128 701.509 369.12C701.509 370.112 700.645 370.752 699.365 370.752C698.085 370.752 697.221 370.112 697.221 369.12ZM700.021 371.744C701.669 371.536 702.757 370.544 702.757 369.12C702.757 367.504 701.365 366.464 699.365 366.464C697.365 366.464 695.973 367.504 695.973 369.12C695.973 370.544 697.061 371.536 698.709 371.744V373.312C697.317 373.36 695.973 373.36 694.821 373.36L694.997 374.464C697.509 374.464 700.885 374.432 703.957 373.888L703.877 372.912C702.645 373.104 701.317 373.2 700.021 373.264V371.744ZM708.277 368.928H706.037V362.832H704.725V377.184H706.037V370.032H708.277V368.928ZM708.778 378.864H709.85L714.634 363.296H713.578L708.778 378.864ZM720.297 365.392H723.481V364.304H715.721V365.392H719.001V367.216C719.001 369.648 717.273 372.368 715.225 373.392L715.993 374.432C717.609 373.6 719.001 371.776 719.657 369.68C720.313 371.6 721.657 373.28 723.257 374.08L724.009 373.024C721.929 372.048 720.297 369.504 720.297 367.216V365.392ZM728.873 368.624H726.505V362.848H725.193V377.184H726.505V369.728H728.873V368.624ZM736.43 376.16C734.158 376.16 732.83 375.6 732.83 374.592C732.83 373.584 734.158 373.024 736.43 373.024C738.67 373.024 739.998 373.584 739.998 374.592C739.998 375.6 738.67 376.16 736.43 376.16ZM736.43 372C733.358 372 731.502 372.928 731.502 374.592C731.502 376.256 733.358 377.184 736.43 377.184C739.47 377.184 741.326 376.256 741.326 374.592C741.326 372.928 739.47 372 736.43 372ZM737.086 369.92V368.256H741.406V367.2H732.878V364.544H741.31V363.488H731.566V368.256H735.774V369.92H729.934V370.976H742.926V369.92H737.086ZM753.059 364.576H749.443V362.848H748.131V364.576H744.483V365.616H753.059V364.576ZM746.643 369.12C746.643 368.128 747.507 367.472 748.787 367.472C750.067 367.472 750.931 368.128 750.931 369.12C750.931 370.112 750.067 370.752 748.787 370.752C747.507 370.752 746.643 370.112 746.643 369.12ZM749.443 371.744C751.091 371.536 752.179 370.544 752.179 369.12C752.179 367.504 750.787 366.464 748.787 366.464C746.787 366.464 745.395 367.504 745.395 369.12C745.395 370.544 746.483 371.536 748.131 371.744V373.312C746.739 373.36 745.395 373.36 744.243 373.36L744.419 374.464C746.931 374.464 750.307 374.432 753.379 373.888L753.299 372.912C752.067 373.104 750.739 373.2 749.443 373.264V371.744ZM757.699 368.928H755.459V362.832H754.147V377.184H755.459V370.032H757.699V368.928Z" fill="#666666"/>
<path d="M622.514 282L619.858 278.24C621.426 277.68 622.322 276.432 622.322 274.704C622.322 272.272 620.562 270.8 617.65 270.8H613.282V282H614.882V278.592H617.65C617.89 278.592 618.13 278.576 618.354 278.56L620.77 282H622.514ZM617.602 277.232H614.882V272.192H617.602C619.65 272.192 620.722 273.104 620.722 274.704C620.722 276.304 619.65 277.232 617.602 277.232ZM628.065 282.096C630.609 282.096 632.465 280.288 632.465 277.76C632.465 275.232 630.609 273.44 628.065 273.44C625.521 273.44 623.649 275.232 623.649 277.76C623.649 280.288 625.521 282.096 628.065 282.096ZM628.065 280.752C626.433 280.752 625.201 279.568 625.201 277.76C625.201 275.952 626.433 274.784 628.065 274.784C629.697 274.784 630.913 275.952 630.913 277.76C630.913 279.568 629.697 280.752 628.065 280.752ZM640.707 273.52V277.904C640.707 279.728 639.683 280.72 638.083 280.72C636.627 280.72 635.795 279.888 635.795 278.224V273.52H634.259V278.4C634.259 280.896 635.715 282.096 637.907 282.096C639.107 282.096 640.163 281.6 640.787 280.72V282H642.243V273.52H640.707ZM649.205 280.4C648.885 280.656 648.453 280.8 648.005 280.8C647.157 280.8 646.677 280.288 646.677 279.376V274.784H649.109V273.52H646.677V271.664H645.141V273.52H643.701V274.784H645.141V279.44C645.141 281.152 646.117 282.096 647.829 282.096C648.517 282.096 649.221 281.904 649.685 281.504L649.205 280.4ZM652.06 271.888C652.668 271.888 653.1 271.44 653.1 270.864C653.1 270.32 652.652 269.888 652.06 269.888C651.468 269.888 651.02 270.336 651.02 270.896C651.02 271.456 651.468 271.888 652.06 271.888ZM651.292 282H652.828V273.52H651.292V282ZM660.039 273.44C658.695 273.44 657.607 273.936 656.983 274.8V273.52H655.511V282H657.047V277.632C657.047 275.792 658.103 274.816 659.735 274.816C661.191 274.816 662.023 275.632 662.023 277.296V282H663.559V277.12C663.559 274.624 662.103 273.44 660.039 273.44ZM673.862 277.808C673.862 275.2 672.118 273.44 669.67 273.44C667.222 273.44 665.414 275.248 665.414 277.76C665.414 280.288 667.238 282.096 669.974 282.096C671.382 282.096 672.55 281.616 673.318 280.72L672.47 279.728C671.846 280.416 671.014 280.752 670.022 280.752C668.342 280.752 667.142 279.76 666.95 278.272H673.83C673.846 278.128 673.862 277.936 673.862 277.808ZM669.67 274.736C671.158 274.736 672.23 275.744 672.39 277.168H666.95C667.11 275.728 668.198 274.736 669.67 274.736ZM682.128 285.184L683.28 284.672C681.904 282.384 681.264 279.68 681.264 276.992C681.264 274.32 681.904 271.616 683.28 269.312L682.128 268.816C680.64 271.232 679.76 273.84 679.76 276.992C679.76 280.176 680.64 282.752 682.128 285.184ZM696.493 268.768H694.845V276.112H696.493V268.768ZM686.461 272.512C686.461 271.36 687.389 270.608 688.637 270.608C689.901 270.608 690.845 271.36 690.845 272.512C690.845 273.664 689.901 274.416 688.637 274.416C687.389 274.416 686.461 273.664 686.461 272.512ZM692.445 272.512C692.445 270.608 690.829 269.248 688.637 269.248C686.461 269.248 684.861 270.608 684.861 272.512C684.861 274.416 686.461 275.76 688.637 275.76C690.829 275.76 692.445 274.416 692.445 272.512ZM688.669 281.76V280.48H696.493V276.768H687.021V278.064H694.861V279.264H687.053V283.056H696.925V281.76H688.669ZM704.738 275.744H701.202V273.36H704.738V275.744ZM706.37 269.824H704.738V272.08H701.202V269.824H699.554V277.072H706.37V269.824ZM702.85 278.384H701.186V282.96H710.914V281.616H702.85V278.384ZM710.338 273.04V268.8H708.69V279.408H710.338V274.4H712.386V273.04H710.338ZM714.599 285.184C716.103 282.752 716.983 280.176 716.983 276.992C716.983 273.84 716.103 271.232 714.599 268.816L713.447 269.312C714.823 271.616 715.463 274.32 715.463 276.992C715.463 279.68 714.823 282.384 713.447 284.672L714.599 285.184Z" fill="white"/>
<rect x="810" y="30" width="250" height="188" rx="10" fill="#F6F7FE"/>
<path d="M810 40C810 34.4772 814.477 30 820 30L1050 30C1055.52 30 1060 34.4772 1060 40V104L810 104V40Z" fill="#435CE7"/>
<path d="M905.503 157.8V158.872H908.383V164.36H909.711V153.848H908.383V157.8H905.503ZM906.351 161.176C904.271 160.44 902.863 158.648 902.863 156.776V156.072H906.015V155H898.351V156.072H901.551V156.792C901.551 158.824 900.063 160.728 897.935 161.496L898.623 162.52C900.303 161.912 901.615 160.584 902.239 158.952C902.863 160.424 904.095 161.624 905.695 162.2L906.351 161.176ZM901.855 166.792V163.432H900.527V167.864H910.111V166.792H901.855ZM920.804 160.248C918.628 160.632 916.788 160.728 914.276 160.728V158.664H919.412V154.68H912.948V155.752H918.116V157.656H912.98V161.8H914.116C916.772 161.8 918.66 161.704 920.932 161.32L920.804 160.248ZM914.164 164.376H922.18V168.168H923.492V163.32H914.164V164.376ZM925.604 157.208V156.12H923.492V153.848H922.18V162.568H923.492V160.216H925.604V159.128H923.492V157.208H925.604ZM935.289 160.84C933.209 160.104 931.801 158.296 931.801 156.456V155.88H934.953V154.808H927.289V155.88H930.489V156.456C930.489 158.488 929.001 160.408 926.873 161.16L927.561 162.2C929.241 161.576 930.553 160.264 931.161 158.616C931.801 160.104 933.033 161.288 934.633 161.864L935.289 160.84ZM929.049 164.264H937.321V168.2H938.649V163.208H929.049V164.264ZM937.321 153.832V157.576H934.521V158.648H937.321V162.424H938.649V153.832H937.321ZM952.685 155.272H949.389V153.688H948.077V155.272H944.653V156.328H952.685V155.272ZM946.701 159.624C946.701 158.664 947.517 158.04 948.717 158.04C949.917 158.04 950.733 158.664 950.733 159.624C950.733 160.584 949.917 161.208 948.717 161.208C947.517 161.208 946.701 160.584 946.701 159.624ZM951.965 159.624C951.965 158.072 950.621 157.048 948.717 157.048C946.797 157.048 945.469 158.072 945.469 159.624C945.469 161.176 946.797 162.2 948.717 162.2C950.621 162.2 951.965 161.176 951.965 159.624ZM955.149 166.952H948.445V165.432H955.149V166.952ZM955.149 164.424H948.445V162.952H947.149V167.992H956.445V162.952H955.149V164.424ZM955.117 153.848V157.192H952.701V158.248H955.117V159.976H952.685V161.048H955.117V162.312H956.445V153.848H955.117ZM966.674 160.6C965.01 160.872 963.634 160.936 960.978 160.936V158.76H965.842V154.696H959.65V155.768H964.562V157.752H959.698V162.008H960.722C963.586 162.008 965.042 161.96 966.802 161.656L966.674 160.6ZM961.298 164.504H969.586V168.2H970.914V163.432H961.298V164.504ZM969.586 153.848V155.96H966.786V157.032H969.586V158.952H966.786V160.008H969.586V162.664H970.914V153.848H969.586Z" fill="#666666"/>
<path d="M914.188 62.128C915.932 62.128 917.436 61.52 918.46 60.368L917.42 59.36C916.556 60.272 915.5 60.704 914.268 60.704C911.74 60.704 909.868 58.88 909.868 56.4C909.868 53.92 911.74 52.096 914.268 52.096C915.5 52.096 916.556 52.512 917.42 53.424L918.46 52.416C917.436 51.264 915.932 50.672 914.204 50.672C910.796 50.672 908.268 53.088 908.268 56.4C908.268 59.712 910.796 62.128 914.188 62.128ZM921.741 54.944V53.52H920.269V62H921.805V57.776C921.805 55.92 922.829 54.912 924.477 54.912C924.589 54.912 924.701 54.912 924.829 54.928V53.44C923.341 53.44 922.285 53.952 921.741 54.944ZM927.24 51.888C927.848 51.888 928.28 51.44 928.28 50.864C928.28 50.32 927.832 49.888 927.24 49.888C926.648 49.888 926.2 50.336 926.2 50.896C926.2 51.456 926.648 51.888 927.24 51.888ZM926.472 62H928.008V53.52H926.472V62ZM934.978 60.4C934.658 60.656 934.226 60.8 933.778 60.8C932.93 60.8 932.45 60.288 932.45 59.376V54.784H934.882V53.52H932.45V51.664H930.914V53.52H929.474V54.784H930.914V59.44C930.914 61.152 931.89 62.096 933.602 62.096C934.29 62.096 934.994 61.904 935.458 61.504L934.978 60.4ZM937.833 51.888C938.441 51.888 938.873 51.44 938.873 50.864C938.873 50.32 938.425 49.888 937.833 49.888C937.241 49.888 936.793 50.336 936.793 50.896C936.793 51.456 937.241 51.888 937.833 51.888ZM937.065 62H938.601V53.52H937.065V62ZM944.98 62.096C946.5 62.096 947.764 61.456 948.436 60.272L947.268 59.536C946.724 60.368 945.892 60.752 944.964 60.752C943.3 60.752 942.052 59.6 942.052 57.76C942.052 55.952 943.3 54.784 944.964 54.784C945.892 54.784 946.724 55.168 947.268 56L948.436 55.248C947.764 54.064 946.5 53.44 944.98 53.44C942.372 53.44 940.5 55.232 940.5 57.76C940.5 60.288 942.372 62.096 944.98 62.096ZM953.263 53.44C951.903 53.44 950.639 53.824 949.759 54.528L950.399 55.68C951.055 55.12 952.079 54.768 953.087 54.768C954.607 54.768 955.359 55.52 955.359 56.816V57.12H952.927C950.399 57.12 949.519 58.24 949.519 59.6C949.519 61.072 950.735 62.096 952.655 62.096C953.983 62.096 954.927 61.648 955.439 60.88V62H956.895V56.88C956.895 54.56 955.583 53.44 953.263 53.44ZM952.911 60.912C951.743 60.912 951.039 60.384 951.039 59.536C951.039 58.816 951.471 58.224 952.991 58.224H955.359V59.408C954.975 60.384 954.063 60.912 952.911 60.912ZM959.487 62H961.023V50.128H959.487V62ZM918.761 87.184L919.913 86.672C918.537 84.384 917.897 81.68 917.897 78.992C917.897 76.32 918.537 73.616 919.913 71.312L918.761 70.816C917.273 73.232 916.393 75.84 916.393 78.992C916.393 82.176 917.273 84.752 918.761 87.184ZM928.918 74.656V76.016H931.542V81.36H933.19V70.8H931.542V74.656H928.918ZM929.814 78.032C927.654 77.28 926.422 75.472 926.422 73.696V73.2H929.43V71.872H921.702V73.2H924.758V73.696C924.758 75.648 923.446 77.552 921.206 78.336L922.054 79.632C923.766 79.04 924.982 77.776 925.622 76.208C926.23 77.632 927.398 78.768 928.998 79.312L929.814 78.032ZM925.478 83.616V80.448H923.83V84.96H933.558V83.616H925.478ZM944.091 77.104C942.107 77.472 940.363 77.552 937.883 77.568V75.808H942.795V71.6H936.235V72.928H941.163V74.56H936.267V78.912H937.435C940.203 78.912 942.091 78.832 944.267 78.448L944.091 77.104ZM937.467 81.616H945.323V85.248H946.971V80.288H937.467V81.616ZM949.003 74.304V72.96H946.971V70.816H945.323V79.568H946.971V77.36H949.003V76H946.971V74.304H949.003ZM951.232 87.184C952.736 84.752 953.616 82.176 953.616 78.992C953.616 75.84 952.736 73.232 951.232 70.816L950.08 71.312C951.456 73.616 952.096 76.32 952.096 78.992C952.096 81.68 951.456 84.384 950.08 86.672L951.232 87.184Z" fill="white"/>
<rect x="810" y="238" width="250" height="199" rx="10" fill="#F6F7FE"/>
<path d="M810 248C810 242.477 814.477 238 820 238L1050 238C1055.52 238 1060 242.477 1060 248V312H810V248Z" fill="#435CE7"/>
<path d="M864.481 366.64H857.441V364.352H864.481V366.64ZM865.777 363.312H856.161V367.68H865.777V363.312ZM867.457 369.936V368.88H854.465V369.936H860.305V371.344H856.033V372.336H864.497V373.616H856.081V377.024H866.225V376H857.361V374.576H865.793V371.344H861.617V369.936H867.457ZM877.398 369.136C875.222 369.52 873.382 369.6 870.87 369.6V367.616H876.006V363.728H869.542V364.8H874.71V366.608H869.574V370.672H870.71C873.366 370.672 875.254 370.592 877.526 370.208L877.398 369.136ZM875.51 376.16C873.366 376.16 872.07 375.568 872.07 374.56C872.07 373.552 873.366 372.96 875.51 372.96C877.654 372.96 878.934 373.552 878.934 374.56C878.934 375.568 877.654 376.16 875.51 376.16ZM875.51 371.936C872.582 371.936 870.79 372.896 870.79 374.56C870.79 376.224 872.582 377.168 875.51 377.168C878.422 377.168 880.23 376.224 880.23 374.56C880.23 372.896 878.422 371.936 875.51 371.936ZM882.214 366.16V365.072H880.086V362.848H878.774V371.52H880.086V369.184H882.214V368.096H880.086V366.16H882.214ZM889.898 376.176C887.594 376.176 886.298 375.728 886.298 374.864C886.298 374.016 887.594 373.552 889.898 373.552C892.218 373.552 893.498 374.016 893.498 374.864C893.498 375.728 892.218 376.176 889.898 376.176ZM889.898 372.576C886.778 372.576 884.986 373.376 884.986 374.864C884.986 376.368 886.778 377.168 889.898 377.168C893.018 377.168 894.81 376.368 894.81 374.864C894.81 373.376 893.018 372.576 889.898 372.576ZM890.554 370.432V369.024H894.874V368H886.426V366.592H894.41V365.6H886.426V364.272H894.794V363.248H885.114V369.024H889.242V370.432H883.402V371.488H896.394V370.432H890.554ZM906.399 364.304H902.815V362.688H901.503V364.304H897.935V365.36H906.399V364.304ZM899.983 368.544C899.983 367.616 900.847 367.024 902.159 367.024C903.471 367.024 904.351 367.616 904.351 368.544C904.351 369.488 903.471 370.064 902.159 370.064C900.847 370.064 899.983 369.488 899.983 368.544ZM905.599 368.544C905.599 367.024 904.207 366.048 902.159 366.048C900.111 366.048 898.735 367.024 898.735 368.544C898.735 370.08 900.111 371.056 902.159 371.056C904.207 371.056 905.599 370.08 905.599 368.544ZM907.727 375.936H901.295V374.352H907.727V375.936ZM907.727 373.328H901.295V371.808H899.999V376.992H909.023V371.808H907.727V373.328ZM911.151 366.48H909.023V362.832H907.711V371.168H909.023V367.584H911.151V366.48ZM915.604 372.816C914.452 372.816 913.732 371.36 913.732 369.008C913.732 366.704 914.452 365.248 915.604 365.248C916.724 365.248 917.46 366.704 917.46 369.008C917.46 371.36 916.724 372.816 915.604 372.816ZM920.452 368.416H918.644C918.484 365.712 917.332 364.032 915.604 364.032C913.732 364.032 912.532 365.952 912.532 369.008C912.532 372.112 913.732 374.032 915.604 374.032C917.364 374.032 918.532 372.304 918.644 369.488H920.452V376.48H921.7V363.152H920.452V368.416ZM923.3 362.832V377.184H924.548V362.832H923.3ZM931.481 363.888C929.257 363.888 927.641 365.248 927.641 367.264C927.641 369.264 929.257 370.64 931.481 370.64C933.721 370.64 935.321 369.264 935.321 367.264C935.321 365.248 933.721 363.888 931.481 363.888ZM931.481 365.008C932.969 365.008 934.041 365.92 934.041 367.264C934.041 368.592 932.969 369.52 931.481 369.52C930.009 369.52 928.921 368.592 928.921 367.264C928.921 365.92 930.009 365.008 931.481 365.008ZM937.209 362.832V377.216H938.521V362.832H937.209ZM927.081 374.064C929.673 374.064 933.145 374.032 936.377 373.44L936.265 372.464C933.129 372.944 929.529 372.96 926.921 372.96L927.081 374.064ZM949.805 364.592H946.221V362.832H944.909V364.592H941.341V365.648H949.805V364.592ZM943.389 369.104C943.389 368.112 944.269 367.472 945.565 367.472C946.861 367.472 947.757 368.112 947.757 369.104C947.757 370.112 946.861 370.752 945.565 370.752C944.269 370.752 943.389 370.112 943.389 369.104ZM949.005 369.104C949.005 367.504 947.597 366.448 945.565 366.448C943.533 366.448 942.141 367.504 942.141 369.104C942.141 370.72 943.533 371.776 945.565 371.776C947.597 371.776 949.005 370.72 949.005 369.104ZM944.813 372.752H943.501V376.864H953.069V375.792H944.813V372.752ZM952.429 367.568V362.832H951.117V373.6H952.429V368.672H954.541V367.568H952.429ZM959.858 364.368V365.456H965.122C964.818 368.848 962.85 371.6 959.186 373.44L959.906 374.464C964.546 372.144 966.418 368.448 966.418 364.368H959.858ZM972.434 368.656H970.13V362.832H968.818V377.184H970.13V369.744H972.434V368.656ZM975.783 373.088H984.055V377.152H985.383V372.032H975.783V373.088ZM984.055 362.832V365.392H980.887C981.015 364.88 981.079 364.336 981.079 363.792H974.519V364.864H979.671C979.415 367.312 977.239 369.216 973.767 370.16L974.295 371.216C977.367 370.352 979.591 368.72 980.551 366.464H984.055V368.432H980.343V369.504H984.055V371.392H985.383V362.832H984.055ZM996.54 364.144H992.956V362.688H991.644V364.144H988.076V365.152H996.54V364.144ZM990.124 368.144C990.124 367.28 990.972 366.768 992.3 366.768C993.628 366.768 994.492 367.28 994.492 368.144C994.492 368.992 993.628 369.52 992.3 369.52C990.972 369.52 990.124 368.992 990.124 368.144ZM995.74 368.144C995.74 366.688 994.38 365.792 992.3 365.792C990.236 365.792 988.876 366.688 988.876 368.144C988.876 369.6 990.236 370.496 992.3 370.496C994.38 370.496 995.74 369.6 995.74 368.144ZM991.372 374.64H999.164V371.456H990.044V372.432H997.868V373.68H990.092V377.024H999.692V376.016H991.372V374.64ZM999.164 366.24V362.784H997.852V370.72H999.164V367.328H1001.29V366.24H999.164ZM1014.27 362.848H1012.96V373.328H1014.27V362.848ZM1004.11 367.36C1004.11 365.968 1005.17 364.976 1006.56 364.976C1007.98 364.976 1009.04 365.968 1009.04 367.36C1009.04 368.784 1007.98 369.776 1006.56 369.776C1005.17 369.776 1004.11 368.784 1004.11 367.36ZM1010.32 367.36C1010.32 365.296 1008.7 363.84 1006.56 363.84C1004.43 363.84 1002.83 365.296 1002.83 367.36C1002.83 369.44 1004.43 370.912 1006.56 370.912C1008.7 370.912 1010.32 369.44 1010.32 367.36ZM1006.35 375.792V372.256H1005.04V376.864H1014.7V375.792H1006.35Z" fill="#666666"/>
<path d="M878.414 282H886.078V280.608H880.014V270.8H878.414V282ZM894.995 277.808C894.995 275.2 893.251 273.44 890.803 273.44C888.355 273.44 886.547 275.248 886.547 277.76C886.547 280.288 888.371 282.096 891.107 282.096C892.515 282.096 893.683 281.616 894.451 280.72L893.603 279.728C892.979 280.416 892.147 280.752 891.155 280.752C889.475 280.752 888.275 279.76 888.083 278.272H894.963C894.979 278.128 894.995 277.936 894.995 277.808ZM890.803 274.736C892.291 274.736 893.363 275.744 893.523 277.168H888.083C888.243 275.728 889.331 274.736 890.803 274.736ZM902.722 273.52L899.746 280.32L896.834 273.52H895.234L898.946 282H900.514L904.226 273.52H902.722ZM912.839 277.808C912.839 275.2 911.095 273.44 908.647 273.44C906.199 273.44 904.391 275.248 904.391 277.76C904.391 280.288 906.215 282.096 908.951 282.096C910.359 282.096 911.527 281.616 912.295 280.72L911.447 279.728C910.823 280.416 909.991 280.752 908.999 280.752C907.319 280.752 906.119 279.76 905.927 278.272H912.807C912.823 278.128 912.839 277.936 912.839 277.808ZM908.647 274.736C910.135 274.736 911.207 275.744 911.367 277.168H905.927C906.087 275.728 907.175 274.736 908.647 274.736ZM916.194 274.944V273.52H914.722V282H916.258V277.776C916.258 275.92 917.282 274.912 918.93 274.912C919.042 274.912 919.154 274.912 919.282 274.928V273.44C917.794 273.44 916.738 273.952 916.194 274.944ZM923.997 273.44C922.637 273.44 921.373 273.824 920.493 274.528L921.133 275.68C921.789 275.12 922.813 274.768 923.821 274.768C925.341 274.768 926.093 275.52 926.093 276.816V277.12H923.661C921.133 277.12 920.253 278.24 920.253 279.6C920.253 281.072 921.469 282.096 923.389 282.096C924.717 282.096 925.661 281.648 926.173 280.88V282H927.629V276.88C927.629 274.56 926.317 273.44 923.997 273.44ZM923.645 280.912C922.477 280.912 921.773 280.384 921.773 279.536C921.773 278.816 922.205 278.224 923.725 278.224H926.093V279.408C925.709 280.384 924.797 280.912 923.645 280.912ZM936.925 273.52V274.832C936.205 273.904 935.053 273.44 933.789 273.44C931.341 273.44 929.485 275.088 929.485 277.536C929.485 279.984 931.341 281.648 933.789 281.648C935.005 281.648 936.109 281.216 936.845 280.336V281.008C936.845 282.928 935.933 283.856 933.933 283.856C932.685 283.856 931.453 283.424 930.669 282.752L929.933 283.936C930.861 284.768 932.429 285.2 933.981 285.2C936.861 285.2 938.381 283.84 938.381 280.848V273.52H936.925ZM933.965 280.304C932.253 280.304 931.037 279.168 931.037 277.536C931.037 275.888 932.253 274.784 933.965 274.784C935.661 274.784 936.877 275.888 936.877 277.536C936.877 279.168 935.661 280.304 933.965 280.304ZM948.729 277.808C948.729 275.2 946.985 273.44 944.537 273.44C942.089 273.44 940.281 275.248 940.281 277.76C940.281 280.288 942.105 282.096 944.841 282.096C946.249 282.096 947.417 281.616 948.185 280.72L947.337 279.728C946.713 280.416 945.881 280.752 944.889 280.752C943.209 280.752 942.009 279.76 941.817 278.272H948.697C948.713 278.128 948.729 277.936 948.729 277.808ZM944.537 274.736C946.025 274.736 947.097 275.744 947.257 277.168H941.817C941.977 275.728 943.065 274.736 944.537 274.736ZM956.995 285.184L958.147 284.672C956.771 282.384 956.131 279.68 956.131 276.992C956.131 274.32 956.771 271.616 958.147 269.312L956.995 268.816C955.507 271.232 954.627 273.84 954.627 276.992C954.627 280.176 955.507 282.752 956.995 285.184ZM969.777 272.608V274.272H966.273V275.616H969.777V277.28H971.425V268.784H969.777V271.264H966.801C966.881 270.816 966.929 270.336 966.929 269.824H960.369V271.152H965.169C964.881 273.408 963.009 275.184 959.617 276.128L960.273 277.44C963.393 276.528 965.521 274.912 966.417 272.608H969.777ZM966.689 281.872C964.737 281.872 963.505 281.312 963.505 280.304C963.505 279.312 964.737 278.752 966.689 278.752C968.657 278.752 969.889 279.312 969.889 280.304C969.889 281.312 968.657 281.872 966.689 281.872ZM966.689 277.456C963.761 277.456 961.873 278.544 961.873 280.304C961.873 282.08 963.761 283.168 966.689 283.168C969.617 283.168 971.521 282.08 971.521 280.304C971.521 278.544 969.617 277.456 966.689 277.456ZM983.093 273.808H984.581V277.6H986.149V268.8H984.581V272.464H983.093V269.056H981.541V277.136H983.093V273.808ZM980.965 275.552C979.173 274.848 978.309 273.344 978.309 271.664V271.264H980.661V269.92H974.229V271.264H976.709V271.664C976.709 273.392 975.781 275.12 973.877 275.92L974.741 277.2C976.101 276.624 977.013 275.552 977.525 274.288C978.021 275.424 978.853 276.304 980.117 276.816L980.965 275.552ZM981.349 281.952C979.301 281.952 978.085 281.456 978.085 280.56C978.085 279.648 979.301 279.152 981.349 279.152C983.365 279.152 984.581 279.648 984.581 280.56C984.581 281.456 983.365 281.952 981.349 281.952ZM981.349 277.872C978.325 277.872 976.437 278.88 976.437 280.56C976.437 282.224 978.325 283.232 981.349 283.232C984.341 283.232 986.229 282.224 986.229 280.56C986.229 278.88 984.341 277.872 981.349 277.872ZM989.466 285.184C990.97 282.752 991.85 280.176 991.85 276.992C991.85 273.84 990.97 271.232 989.466 268.816L988.314 269.312C989.69 271.616 990.33 274.32 990.33 276.992C990.33 279.68 989.69 282.384 988.314 284.672L989.466 285.184Z" fill="white"/>
<path d="M501.979 32.4V38.016H494.095V32.4H492.763V45H494.095V39.186H501.979V45H503.293V32.4H501.979ZM507.533 33.462C508.073 33.462 508.469 33.048 508.469 32.526C508.469 32.04 508.055 31.644 507.533 31.644C507.011 31.644 506.597 32.058 506.597 32.544C506.597 33.048 507.011 33.462 507.533 33.462ZM506.885 45H508.163V35.532H506.885V45ZM519.011 35.532V37.35C518.219 36.108 516.851 35.46 515.267 35.46C512.567 35.46 510.515 37.314 510.515 40.032C510.515 42.75 512.567 44.64 515.267 44.64C516.815 44.64 518.165 44.01 518.957 42.804V44.01C518.957 46.35 517.859 47.448 515.465 47.448C514.007 47.448 512.639 46.962 511.739 46.152L511.091 47.124C512.081 48.06 513.773 48.582 515.501 48.582C518.633 48.582 520.235 47.106 520.235 43.848V35.532H519.011ZM515.393 43.506C513.305 43.506 511.811 42.084 511.811 40.032C511.811 37.98 513.305 36.576 515.393 36.576C517.481 36.576 518.993 37.98 518.993 40.032C518.993 42.084 517.481 43.506 515.393 43.506ZM528.383 35.46C526.781 35.46 525.539 36.09 524.837 37.188V31.644H523.559V45H524.837V40.032C524.837 37.872 526.115 36.612 528.149 36.612C529.949 36.612 530.993 37.638 530.993 39.636V45H532.271V39.51C532.271 36.792 530.687 35.46 528.383 35.46Z" fill="#666666"/>
<path d="M496.052 470H504.44V468.848H497.384V457.4H496.052V470ZM509.861 470.09C512.633 470.09 514.667 468.074 514.667 465.266C514.667 462.458 512.633 460.46 509.861 460.46C507.089 460.46 505.037 462.458 505.037 465.266C505.037 468.074 507.089 470.09 509.861 470.09ZM509.861 468.956C507.845 468.956 506.333 467.48 506.333 465.266C506.333 463.052 507.845 461.576 509.861 461.576C511.877 461.576 513.371 463.052 513.371 465.266C513.371 467.48 511.877 468.956 509.861 468.956ZM529.488 460.532L526.482 468.578L523.458 460.532H522.36L519.318 468.578L516.348 460.532H515.124L518.688 470H519.894L522.882 462.242L525.87 470H527.076L530.658 460.532H529.488Z" fill="#666666"/>
<path d="M511.247 84.8601L506.451 90.3415C505.885 90.9881 506.345 92 507.204 92H516.796C517.655 92 518.115 90.9881 517.549 90.3415L512.753 84.8601C512.354 84.4048 511.646 84.4048 511.247 84.8601Z" fill="#888888"/>
<line x1="511.5" y1="88" x2="511.5" y2="456" stroke="#888888"/>
<path d="M1058.14 464.248L1052.67 459.453C1052.02 458.887 1051.01 459.346 1051.01 460.205L1051.01 469.795C1051.01 470.654 1052.02 471.113 1052.67 470.547L1058.14 465.752C1058.6 465.354 1058.6 464.646 1058.14 464.248Z" fill="#888888"/>
<line x1="1051" y1="465.5" x2="540" y2="465.5" stroke="#888888"/>
<path d="M484.42 167.114V183.422H486.292V167.114H484.42ZM473.782 168.464V179.552H481.594V168.464H479.74V172.604H475.618V168.464H473.782ZM475.618 174.08H479.74V178.058H475.618V174.08ZM474.304 196.194C476.932 195.69 479.218 194.16 480.262 192.054C481.324 194.142 483.628 195.618 486.292 196.122L487.048 194.646C483.826 194.16 481.234 191.964 481.234 189.516V189.138H486.4V187.626H474.124V189.138H479.29V189.516C479.29 191.964 476.716 194.196 473.548 194.718L474.304 196.194ZM472.918 198.822V200.334H487.642V198.822H472.918ZM475.708 206.716H473.872V217.282H475.258C477.778 217.282 480.406 217.084 483.196 216.508L482.998 214.96C480.442 215.482 478.012 215.68 475.708 215.698V206.716ZM484.492 205.132V221.386H486.346V205.132H484.492ZM487.012 232.07C483.808 231.494 481.198 228.992 481.198 226.4V225.176H479.236V226.4C479.236 228.974 476.626 231.476 473.422 232.07L474.214 233.6C476.86 233.06 479.146 231.368 480.208 229.136C481.27 231.368 483.556 233.06 486.202 233.6L487.012 232.07ZM472.918 236.768V238.298H487.642V236.768H472.918ZM474.304 256.81C477.148 256.504 479.38 255.334 480.262 253.66C481.126 255.334 483.358 256.504 486.22 256.81L486.868 255.352C483.862 255.046 481.774 253.786 481.522 252.328H486.274V250.834H474.268V252.328H478.984C478.732 253.786 476.644 255.046 473.638 255.352L474.304 256.81ZM483.952 263.506C483.952 264.442 482.602 264.964 480.226 264.964C477.85 264.964 476.518 264.442 476.518 263.506C476.518 262.534 477.85 262.03 480.226 262.03C482.602 262.03 483.952 262.534 483.952 263.506ZM487.606 259.114V257.638H472.9V259.114H479.326V260.608C476.374 260.788 474.628 261.814 474.628 263.506C474.628 265.342 476.734 266.386 480.226 266.386C483.736 266.386 485.824 265.342 485.824 263.506C485.824 261.814 484.114 260.806 481.18 260.626V259.114H487.606ZM478.21 277.348C478.84 277.492 479.542 277.564 480.262 277.564C480.982 277.564 481.684 277.492 482.314 277.33V280.876H478.21V277.348ZM480.262 270.526C482.71 270.526 484.42 271.606 484.42 273.316C484.42 275.044 482.71 276.124 480.262 276.124C477.796 276.124 476.086 275.044 476.086 273.316C476.086 271.606 477.796 270.526 480.262 270.526ZM484.168 280.876V276.646C485.464 275.908 486.238 274.756 486.238 273.316C486.238 270.724 483.718 269.068 480.262 269.068C476.788 269.068 474.286 270.724 474.286 273.316C474.286 274.756 475.06 275.926 476.356 276.646V280.876H472.918V282.388H487.642V280.876H484.168ZM481.18 298.912V295.078H485.986V293.584H476.572V288.85H485.842V287.356H474.718V295.078H479.326V298.912H472.918V300.442H487.642V298.912H481.18Z" fill="#666666"/>
<path d="M753.647 497.07H751.379C751.793 494.766 751.793 493.074 751.793 491.544V490.122H740.705V491.616H749.975C749.975 493.11 749.975 494.802 749.507 497.07H738.941V498.6H745.295V505.386H747.167V498.6H753.647V497.07ZM757.518 492.39H760.326V499.68H757.518V492.39ZM755.79 501.156H762.054V490.914H755.79V501.156ZM767.364 489.132V495.468H765.51V489.438H763.764V504.612H765.51V496.98H767.364V505.368H769.128V489.132H767.364ZM775.159 500.796H782.629V503.712H775.159V500.796ZM773.341 505.188H784.447V499.32H773.341V505.188ZM784.033 495.846C784.447 493.902 784.447 492.462 784.447 491.184V489.924H773.413V491.436H782.629C782.629 492.66 782.593 494.028 782.179 495.846H771.559V497.358H786.283V495.846H784.033ZM789.649 494.028C789.649 492.624 790.495 491.706 791.683 491.706C792.853 491.706 793.717 492.624 793.717 494.028C793.717 495.432 792.853 496.368 791.683 496.368C790.495 496.368 789.649 495.432 789.649 494.028ZM795.391 494.028C795.391 491.724 793.825 490.14 791.683 490.14C789.523 490.14 787.975 491.724 787.975 494.028C787.975 496.314 789.523 497.916 791.683 497.916C793.825 497.916 795.391 496.314 795.391 494.028ZM790.603 501.138H799.765V505.386H801.619V499.644H790.603V501.138ZM799.855 489.15V493.2H798.163V489.456H796.417V498.726H798.163V494.712H799.855V498.798H801.619V489.15H799.855ZM809.355 495.81C812.199 495.504 814.431 494.334 815.313 492.66C816.177 494.334 818.409 495.504 821.271 495.81L821.919 494.352C818.913 494.046 816.825 492.786 816.573 491.328H821.325V489.834H809.319V491.328H814.035C813.783 492.786 811.695 494.046 808.689 494.352L809.355 495.81ZM819.003 502.506C819.003 503.442 817.653 503.964 815.277 503.964C812.901 503.964 811.569 503.442 811.569 502.506C811.569 501.534 812.901 501.03 815.277 501.03C817.653 501.03 819.003 501.534 819.003 502.506ZM822.657 498.114V496.638H807.951V498.114H814.377V499.608C811.425 499.788 809.679 500.814 809.679 502.506C809.679 504.342 811.785 505.386 815.277 505.386C818.787 505.386 820.875 504.342 820.875 502.506C820.875 500.814 819.165 499.806 816.231 499.626V498.114H822.657ZM829.569 498.348C830.199 498.492 830.901 498.564 831.621 498.564C832.341 498.564 833.043 498.492 833.673 498.33V501.876H829.569V498.348ZM831.621 491.526C834.069 491.526 835.779 492.606 835.779 494.316C835.779 496.044 834.069 497.124 831.621 497.124C829.155 497.124 827.445 496.044 827.445 494.316C827.445 492.606 829.155 491.526 831.621 491.526ZM835.527 501.876V497.646C836.823 496.908 837.597 495.756 837.597 494.316C837.597 491.724 835.077 490.068 831.621 490.068C828.147 490.068 825.645 491.724 825.645 494.316C825.645 495.756 826.419 496.926 827.715 497.646V501.876H824.277V503.388H839.001V501.876H835.527ZM848.848 501.912V498.078H853.654V496.584H844.24V491.85H853.51V490.356H842.386V498.078H846.994V501.912H840.586V503.442H855.31V501.912H848.848Z" fill="#666666"/>
<path d="M79.306 164.372V162.932L75.058 161.366L72.358 160.358V160.286L75.058 159.278L79.306 157.712V156.29L70.684 159.674V160.988L79.306 164.372ZM92.4244 152.186V168.35H93.9004V152.186H92.4244ZM81.6064 153.554V164.444H89.2024V153.554H87.7444V157.82H83.0644V153.554H81.6064ZM83.0644 158.99H87.7444V163.238H83.0644V158.99ZM98.329 162.158C100.759 161.672 103.297 160.052 104.323 157.82C105.349 160.034 107.923 161.618 110.371 162.122L110.965 160.934C108.157 160.466 105.079 158.252 105.079 155.696V154.994H110.425V153.788H98.203V154.994H103.549V155.696C103.549 158.252 100.489 160.502 97.699 160.988L98.329 162.158ZM96.997 164.966V166.19H111.649V164.966H96.997ZM115.79 153.752H114.314V164.156H115.646C118.22 164.156 120.758 163.976 123.566 163.4L123.404 162.14C120.722 162.68 118.22 162.896 115.79 162.896V153.752ZM125.06 152.186V168.314H126.536V152.186H125.06ZM143.528 160.304C140.702 159.764 137.642 157.316 137.642 154.562V153.32H136.094V154.562C136.094 157.316 133.052 159.746 130.226 160.304L130.892 161.528C133.322 160.952 135.842 159.224 136.868 156.866C137.894 159.242 140.414 160.97 142.862 161.528L143.528 160.304ZM129.614 164.948V166.172H144.248V164.948H129.614ZM151.048 158.774C153.694 158.45 156.124 157.262 157.006 155.48C157.906 157.262 160.318 158.45 162.964 158.774L163.486 157.604C160.66 157.28 158.086 155.894 157.96 154.112H162.982V152.924H151.048V154.112H156.052C155.926 155.894 153.352 157.28 150.526 157.604L151.048 158.774ZM161.02 165.47C161.02 166.55 159.508 167.18 156.988 167.18C154.45 167.18 152.956 166.55 152.956 165.47C152.956 164.39 154.45 163.778 156.988 163.778C159.508 163.778 161.02 164.39 161.02 165.47ZM164.296 160.934V159.746H149.698V160.934H156.25V162.662C153.244 162.806 151.462 163.796 151.462 165.47C151.462 167.306 153.55 168.314 157.006 168.314C160.444 168.314 162.514 167.306 162.514 165.47C162.514 163.796 160.75 162.806 157.744 162.662V160.934H164.296ZM171.065 161.24C171.731 161.402 172.505 161.492 173.297 161.492C174.107 161.492 174.881 161.402 175.565 161.24V165.038H171.065V161.24ZM173.297 154.364C175.889 154.364 177.761 155.552 177.761 157.352C177.761 159.152 175.889 160.34 173.297 160.34C170.705 160.34 168.851 159.152 168.851 157.352C168.851 155.552 170.705 154.364 173.297 154.364ZM177.041 165.038V160.664C178.373 159.962 179.165 158.81 179.165 157.352C179.165 154.832 176.735 153.212 173.297 153.212C169.877 153.212 167.429 154.832 167.429 157.352C167.429 158.81 168.239 159.98 169.589 160.682V165.038H165.989V166.262H180.659V165.038H177.041ZM190.361 165.074V160.934H195.275V159.746H185.645V154.688H195.113V153.482H184.169V160.934H188.867V165.074H182.297V166.298H196.967V165.074H190.361ZM217.015 160.178H214.621C215.071 157.856 215.071 156.146 215.071 154.634V153.23H204.235V154.418H213.631V154.634C213.631 156.146 213.631 157.856 213.127 160.178H202.417V161.384H208.933V168.35H210.427V161.384H217.015V160.178ZM230.516 161.744H232.01V152.204H230.516V155.624H227.006V156.83H230.516V161.744ZM228.176 159.836C225.818 159.008 224.252 157.01 224.252 154.706V153.104H222.776V154.76C222.776 157.226 221.174 159.386 218.69 160.268L219.464 161.474C221.408 160.736 222.866 159.278 223.55 157.37C224.252 159.044 225.62 160.322 227.384 160.988L228.176 159.836ZM226.682 167.144C224.252 167.144 222.776 166.442 222.776 165.272C222.776 164.084 224.252 163.382 226.682 163.382C229.112 163.382 230.588 164.084 230.588 165.272C230.588 166.442 229.112 167.144 226.682 167.144ZM226.682 162.23C223.37 162.23 221.3 163.328 221.3 165.272C221.3 167.198 223.37 168.314 226.682 168.314C229.994 168.314 232.046 167.198 232.046 165.272C232.046 163.328 229.994 162.23 226.682 162.23ZM240.075 161.24C240.741 161.402 241.515 161.492 242.307 161.492C243.117 161.492 243.891 161.402 244.575 161.24V165.038H240.075V161.24ZM242.307 154.364C244.899 154.364 246.771 155.552 246.771 157.352C246.771 159.152 244.899 160.34 242.307 160.34C239.715 160.34 237.861 159.152 237.861 157.352C237.861 155.552 239.715 154.364 242.307 154.364ZM246.051 165.038V160.664C247.383 159.962 248.175 158.81 248.175 157.352C248.175 154.832 245.745 153.212 242.307 153.212C238.887 153.212 236.438 154.832 236.438 157.352C236.438 158.81 237.249 159.98 238.599 160.682V165.038H234.999V166.262H249.669V165.038H246.051ZM265.257 160.07C262.431 159.566 259.353 157.19 259.353 154.508V153.266H257.805V154.508C257.805 157.19 254.745 159.566 251.919 160.07L252.531 161.294C255.015 160.772 257.535 159.098 258.579 156.794C259.623 159.098 262.161 160.772 264.627 161.294L265.257 160.07ZM259.317 165.02V161.096H257.841V165.02H251.325V166.226H265.977V165.02H259.317ZM267.364 164.372L275.986 160.988V159.674L267.364 156.29V157.712L271.612 159.278L274.312 160.286V160.358L271.612 161.366L267.364 162.932V164.372Z" fill="#666666"/>
<circle cx="71.5" cy="193.5" r="1.5" fill="#666666"/>
<path d="M92.24 188.382C92.24 189.642 92.24 190.83 91.808 192.486L93.248 192.648C93.698 190.992 93.698 189.678 93.698 188.382V187.014H82.7V188.202H92.24V188.382ZM88.19 201.162C85.67 201.162 84.05 200.478 84.05 199.362C84.05 198.21 85.67 197.526 88.19 197.526C90.728 197.526 92.348 198.21 92.348 199.362C92.348 200.478 90.728 201.162 88.19 201.162ZM88.19 196.392C84.752 196.392 82.574 197.49 82.574 199.362C82.574 201.198 84.752 202.314 88.19 202.314C91.628 202.314 93.824 201.198 93.824 199.362C93.824 197.49 91.628 196.392 88.19 196.392ZM88.424 193.71V190.614H86.948V193.71H80.99V194.916H95.516V193.71H88.424ZM108.549 200.928H100.611V198.714H108.549V200.928ZM108.549 197.562H100.611V195.438H99.1526V202.116H110.007V195.438H108.549V197.562ZM109.593 192.774C110.025 190.776 110.025 189.336 110.025 188.094V186.924H99.1166V188.13H108.567C108.567 189.354 108.567 190.794 108.117 192.774H97.2446V193.98H111.915V192.774H109.593ZM114.921 192.774C117.567 192.45 119.997 191.262 120.879 189.48C121.779 191.262 124.191 192.45 126.837 192.774L127.359 191.604C124.533 191.28 121.959 189.894 121.833 188.112H126.855V186.924H114.921V188.112H119.925C119.799 189.894 117.225 191.28 114.399 191.604L114.921 192.774ZM124.893 199.47C124.893 200.55 123.381 201.18 120.861 201.18C118.323 201.18 116.829 200.55 116.829 199.47C116.829 198.39 118.323 197.778 120.861 197.778C123.381 197.778 124.893 198.39 124.893 199.47ZM128.169 194.934V193.746H113.571V194.934H120.123V196.662C117.117 196.806 115.335 197.796 115.335 199.47C115.335 201.306 117.423 202.314 120.879 202.314C124.317 202.314 126.387 201.306 126.387 199.47C126.387 197.796 124.623 196.806 121.617 196.662V194.934H128.169ZM139.222 193.26C137.116 193.674 135.28 193.8 132.094 193.8V188.778H137.764V187.59H130.618V195.006H131.878C135.262 195.006 137.17 194.898 139.384 194.448L139.222 193.26ZM133.84 196.698H132.364V201.972H143.128V200.766H133.84V196.698ZM142.408 190.974V186.186H140.932V197.868H142.408V192.198H144.802V190.974H142.408ZM157.924 186.186V202.368H159.4V186.186H157.924ZM150.886 187.428C148.492 187.428 146.782 189.624 146.782 193.062C146.782 196.5 148.492 198.696 150.886 198.696C153.28 198.696 154.99 196.5 154.99 193.062C154.99 189.624 153.28 187.428 150.886 187.428ZM150.886 188.76C152.452 188.76 153.568 190.452 153.568 193.062C153.568 195.69 152.452 197.382 150.886 197.382C149.302 197.382 148.186 195.69 148.186 193.062C148.186 190.452 149.302 188.76 150.886 188.76ZM178.008 186.186V202.35H179.484V186.186H178.008ZM167.19 187.554V198.444H174.786V187.554H173.328V191.82H168.648V187.554H167.19ZM168.648 192.99H173.328V197.238H168.648V192.99ZM183.913 196.158C186.343 195.672 188.881 194.052 189.907 191.82C190.933 194.034 193.507 195.618 195.955 196.122L196.549 194.934C193.741 194.466 190.663 192.252 190.663 189.696V188.994H196.009V187.788H183.787V188.994H189.133V189.696C189.133 192.252 186.073 194.502 183.283 194.988L183.913 196.158ZM182.581 198.966V200.19H197.233V198.966H182.581ZM201.374 187.752H199.898V198.156H201.23C203.804 198.156 206.342 197.976 209.15 197.4L208.988 196.14C206.306 196.68 203.804 196.896 201.374 196.896V187.752ZM210.644 186.186V202.314H212.12V186.186H210.644ZM229.112 194.304C226.286 193.764 223.226 191.316 223.226 188.562V187.32H221.678V188.562C221.678 191.316 218.636 193.746 215.81 194.304L216.476 195.528C218.906 194.952 221.426 193.224 222.452 190.866C223.478 193.242 225.998 194.97 228.446 195.528L229.112 194.304ZM215.198 198.948V200.172H229.832V198.948H215.198ZM235.161 197.418C233.865 197.418 233.055 195.78 233.055 193.134C233.055 190.542 233.865 188.904 235.161 188.904C236.421 188.904 237.249 190.542 237.249 193.134C237.249 195.78 236.421 197.418 235.161 197.418ZM240.615 192.468H238.581C238.401 189.426 237.105 187.536 235.161 187.536C233.055 187.536 231.705 189.696 231.705 193.134C231.705 196.626 233.055 198.786 235.161 198.786C237.141 198.786 238.455 196.842 238.581 193.674H240.615V201.54H242.019V186.546H240.615V192.468ZM243.819 186.186V202.332H245.223V186.186H243.819ZM252.527 187.77V198.264H259.943V187.77H252.527ZM258.503 188.958V197.094H253.967V188.958H258.503ZM263.327 186.186V202.368H264.803V186.186H263.327ZM273.839 190.164H277.529V188.976H273.857V186.474H272.363V188.976H268.637V190.164H272.381V191.406C272.381 194.232 270.599 196.95 268.205 198.084L269.033 199.2C270.887 198.3 272.417 196.464 273.137 194.214C273.875 196.338 275.405 198.084 277.259 198.93L278.087 197.778C275.675 196.734 273.839 194.106 273.839 191.406V190.164ZM279.635 186.168V202.314H281.129V186.168H279.635ZM297.15 191.046H287.646V186.78H286.17V192.252H297.15V191.046ZM287.538 197.22H286.062V201.936H297.24V200.73H287.538V197.22ZM284.19 194.412V195.6H298.824V194.412H284.19ZM305.948 190.974C305.948 189.48 307.136 188.4 308.702 188.4C310.286 188.4 311.438 189.48 311.438 190.974C311.438 192.486 310.286 193.566 308.702 193.566C307.136 193.566 305.948 192.486 305.948 190.974ZM316.1 189.714V192.234H312.626C312.77 191.838 312.842 191.424 312.842 190.974C312.842 190.506 312.77 190.092 312.644 189.714H316.1ZM316.1 193.44V195.744H317.594V186.186H316.1V188.508H311.96C311.222 187.68 310.07 187.158 308.702 187.158C306.308 187.158 304.544 188.724 304.544 190.974C304.544 193.242 306.308 194.826 308.702 194.826C310.07 194.826 311.222 194.304 311.96 193.44H316.1ZM312.248 201.144C309.818 201.144 308.342 200.424 308.342 199.218C308.342 197.994 309.818 197.274 312.248 197.274C314.714 197.274 316.19 197.994 316.19 199.218C316.19 200.424 314.714 201.144 312.248 201.144ZM312.248 196.122C308.936 196.122 306.884 197.256 306.884 199.218C306.884 201.18 308.936 202.314 312.248 202.314C315.578 202.314 317.648 201.18 317.648 199.218C317.648 197.256 315.578 196.122 312.248 196.122ZM330.176 188.004H326.144V186.042H324.668V188.004H320.654V189.192H330.176V188.004ZM322.958 192.846C322.958 191.784 323.93 191.118 325.406 191.118C326.882 191.118 327.872 191.784 327.872 192.846C327.872 193.908 326.882 194.592 325.406 194.592C323.93 194.592 322.958 193.908 322.958 192.846ZM329.276 192.846C329.276 191.118 327.71 190.002 325.406 190.002C323.102 190.002 321.554 191.118 321.554 192.846C321.554 194.592 323.102 195.708 325.406 195.708C327.71 195.708 329.276 194.592 329.276 192.846ZM328.07 201.18C325.712 201.18 324.272 200.568 324.272 199.524C324.272 198.48 325.712 197.868 328.07 197.868C330.428 197.868 331.868 198.48 331.868 199.524C331.868 200.568 330.428 201.18 328.07 201.18ZM328.07 196.734C324.812 196.734 322.814 197.742 322.814 199.524C322.814 201.288 324.812 202.314 328.07 202.314C331.31 202.314 333.326 201.288 333.326 199.524C333.326 197.742 331.31 196.734 328.07 196.734ZM335.486 190.182V188.976H333.128V186.186H331.652V196.572H333.128V193.638H335.486V192.414H333.128V190.182H335.486ZM344.955 199.074V194.934H349.869V193.746H340.239V188.688H349.707V187.482H338.763V194.934H343.461V199.074H336.891V200.298H351.561V199.074H344.955Z" fill="#666666"/>
<circle cx="71.5" cy="231.5" r="1.5" fill="#666666"/>
<path d="M92.762 232.538H94.256V224.204H92.762V227.12H89.252V228.326H92.762V232.538ZM90.386 231.044C88.064 230.27 86.426 228.308 86.426 226.202V224.708H84.968V226.202C84.968 228.542 83.366 230.576 80.936 231.404L81.71 232.574C83.6 231.872 85.058 230.468 85.742 228.65C86.444 230.288 87.848 231.566 89.63 232.196L90.386 231.044ZM85.346 238.946V237.218H94.256V233.348H83.852V234.518H92.798V236.102H83.888V240.116H94.868V238.946H85.346ZM106.335 228.686H103.941C104.085 227.876 104.157 227.066 104.157 226.238H97.9646V227.444H102.699C102.447 230.828 100.719 233.726 97.2446 235.796L98.1086 236.84C101.169 235.022 102.915 232.592 103.671 229.874H106.335V232.718H103.419V233.924H106.335V239.504H107.739V224.618H106.335V228.686ZM109.575 224.186V240.314H110.979V224.186H109.575ZM118.809 225.374C116.307 225.374 114.489 226.904 114.489 229.172C114.489 231.422 116.307 232.97 118.809 232.97C121.329 232.97 123.129 231.422 123.129 229.172C123.129 226.904 121.329 225.374 118.809 225.374ZM118.809 226.634C120.483 226.634 121.689 227.66 121.689 229.172C121.689 230.666 120.483 231.71 118.809 231.71C117.153 231.71 115.929 230.666 115.929 229.172C115.929 227.66 117.153 226.634 118.809 226.634ZM125.253 224.186V240.368H126.729V224.186H125.253ZM113.859 236.822C116.775 236.822 120.681 236.786 124.317 236.12L124.191 235.022C120.663 235.562 116.613 235.58 113.679 235.58L113.859 236.822ZM135.275 236.48H144.977V240.332H146.453V235.292H135.275V236.48ZM137.039 227.552H144.887V229.424H137.039V227.552ZM141.701 232.52V230.594H146.345V224.564H144.887V226.4H137.039V224.564H135.581V230.594H140.225V232.52H133.637V233.726H148.253V232.52H141.701ZM159.324 231.71C156.966 230.936 155.418 229.046 155.418 226.994V226.454H158.964V225.248H150.324V226.454H153.924V226.994C153.924 229.244 152.286 231.242 149.874 232.034L150.594 233.222C152.538 232.538 153.996 231.152 154.68 229.37C155.4 230.99 156.804 232.268 158.64 232.88L159.324 231.71ZM161.034 238.928H153.78V236.912H161.034V238.928ZM161.034 235.742H153.78V233.798H152.322V240.116H162.492V233.798H161.034V235.742ZM164.886 227.912H162.492V224.186H161.016V233.042H162.492V229.136H164.886V227.912ZM178.08 233.744H179.574V224.204H178.08V227.624H174.57V228.83H178.08V233.744ZM175.74 231.836C173.382 231.008 171.816 229.01 171.816 226.706V225.104H170.34V226.76C170.34 229.226 168.738 231.386 166.254 232.268L167.028 233.474C168.972 232.736 170.43 231.278 171.114 229.37C171.816 231.044 173.184 232.322 174.948 232.988L175.74 231.836ZM174.246 239.144C171.816 239.144 170.34 238.442 170.34 237.272C170.34 236.084 171.816 235.382 174.246 235.382C176.676 235.382 178.152 236.084 178.152 237.272C178.152 238.442 176.676 239.144 174.246 239.144ZM174.246 234.23C170.934 234.23 168.864 235.328 168.864 237.272C168.864 239.198 170.934 240.314 174.246 240.314C177.558 240.314 179.628 239.198 179.628 237.272C179.628 235.328 177.558 234.23 174.246 234.23Z" fill="#666666"/>
<circle cx="71.5" cy="269.5" r="1.5" fill="#666666"/>
<path d="M85.688 265.282H88.568V264.076H81.206V265.282H84.266V266.74C84.266 269.71 83.006 272.644 80.756 273.994L81.656 275.092C83.258 274.084 84.428 272.194 84.986 269.98C85.544 272.032 86.66 273.76 88.226 274.696L89.126 273.616C86.894 272.356 85.688 269.548 85.688 266.74V265.282ZM90.008 267.982H87.344V269.188H90.008V277.486H91.412V262.546H90.008V267.982ZM93.248 262.168V278.314H94.67V262.168H93.248ZM98.5946 271.708C101.025 271.186 103.563 269.584 104.589 267.352C105.615 269.566 108.171 271.15 110.637 271.636L111.231 270.448C108.423 269.998 105.345 267.784 105.345 265.21V264.868H110.691V263.662H98.4686V264.868H103.815V265.21C103.815 267.784 100.755 270.034 97.9646 270.502L98.5946 271.708ZM105.327 275.038V271.132H103.851V275.038H97.2626V276.262H111.915V275.038H105.327ZM124.857 264.382C124.857 265.642 124.857 266.83 124.425 268.486L125.865 268.648C126.315 266.992 126.315 265.678 126.315 264.382V263.014H115.317V264.202H124.857V264.382ZM120.807 277.162C118.287 277.162 116.667 276.478 116.667 275.362C116.667 274.21 118.287 273.526 120.807 273.526C123.345 273.526 124.965 274.21 124.965 275.362C124.965 276.478 123.345 277.162 120.807 277.162ZM120.807 272.392C117.369 272.392 115.191 273.49 115.191 275.362C115.191 277.198 117.369 278.314 120.807 278.314C124.245 278.314 126.441 277.198 126.441 275.362C126.441 273.49 124.245 272.392 120.807 272.392ZM121.041 269.71V266.614H119.565V269.71H113.607V270.898H128.133V269.71H121.041ZM138.502 266.38V267.586H141.688V271.816H143.182V262.204H141.688V266.38H138.502ZM139.402 270.052C137.062 269.224 135.478 267.19 135.478 265.12V264.562H139.024V263.374H130.402V264.562H134.002V265.12C134.002 267.442 132.346 269.62 129.934 270.502L130.708 271.672C132.598 270.952 134.092 269.44 134.776 267.568C135.478 269.224 136.864 270.556 138.664 271.204L139.402 270.052ZM137.854 277.18C135.424 277.18 133.948 276.496 133.948 275.326C133.948 274.156 135.424 273.454 137.854 273.454C140.284 273.454 141.76 274.156 141.76 275.326C141.76 276.496 140.284 277.18 137.854 277.18ZM137.854 272.32C134.542 272.32 132.472 273.418 132.472 275.326C132.472 277.234 134.542 278.332 137.854 278.332C141.166 278.332 143.236 277.234 143.236 275.326C143.236 273.418 141.166 272.32 137.854 272.32ZM151.426 263.374C148.924 263.374 147.106 264.904 147.106 267.172C147.106 269.422 148.924 270.97 151.426 270.97C153.946 270.97 155.746 269.422 155.746 267.172C155.746 264.904 153.946 263.374 151.426 263.374ZM151.426 264.634C153.1 264.634 154.306 265.66 154.306 267.172C154.306 268.666 153.1 269.71 151.426 269.71C149.77 269.71 148.546 268.666 148.546 267.172C148.546 265.66 149.77 264.634 151.426 264.634ZM157.87 262.186V278.368H159.346V262.186H157.87ZM146.476 274.822C149.392 274.822 153.298 274.786 156.934 274.12L156.808 273.022C153.28 273.562 149.23 273.58 146.296 273.58L146.476 274.822ZM167.892 274.48H177.594V278.332H179.07V273.292H167.892V274.48ZM169.656 265.552H177.504V267.424H169.656V265.552ZM174.318 270.52V268.594H178.962V262.564H177.504V264.4H169.656V262.564H168.198V268.594H172.842V270.52H166.254V271.726H180.87V270.52H174.318ZM191.941 269.71C189.583 268.936 188.035 267.046 188.035 264.994V264.454H191.581V263.248H182.941V264.454H186.541V264.994C186.541 267.244 184.903 269.242 182.491 270.034L183.211 271.222C185.155 270.538 186.613 269.152 187.297 267.37C188.017 268.99 189.421 270.268 191.257 270.88L191.941 269.71ZM193.651 276.928H186.397V274.912H193.651V276.928ZM193.651 273.742H186.397V271.798H184.939V278.116H195.109V271.798H193.651V273.742ZM197.503 265.912H195.109V262.186H193.633V271.042H195.109V267.136H197.503V265.912ZM210.698 271.744H212.192V262.204H210.698V265.624H207.188V266.83H210.698V271.744ZM208.358 269.836C206 269.008 204.434 267.01 204.434 264.706V263.104H202.958V264.76C202.958 267.226 201.356 269.386 198.872 270.268L199.646 271.474C201.59 270.736 203.048 269.278 203.732 267.37C204.434 269.044 205.802 270.322 207.566 270.988L208.358 269.836ZM206.864 277.144C204.434 277.144 202.958 276.442 202.958 275.272C202.958 274.084 204.434 273.382 206.864 273.382C209.294 273.382 210.77 274.084 210.77 275.272C210.77 276.442 209.294 277.144 206.864 277.144ZM206.864 272.23C203.552 272.23 201.482 273.328 201.482 275.272C201.482 277.198 203.552 278.314 206.864 278.314C210.176 278.314 212.246 277.198 212.246 275.272C212.246 273.328 210.176 272.23 206.864 272.23Z" fill="#666666"/>
<circle cx="71.5" cy="307.5" r="1.5" fill="#666666"/>
<path d="M95.57 308.178H93.176C93.626 305.856 93.626 304.146 93.626 302.634V301.23H82.79V302.418H92.186V302.634C92.186 304.146 92.186 305.856 91.682 308.178H80.972V309.384H87.488V316.35H88.982V309.384H95.57V308.178ZM99.2246 303.228H102.609V310.824H99.2246V303.228ZM97.8386 311.994H103.977V302.058H97.8386V311.994ZM109.575 300.186V306.576H107.397V300.546H106.011V315.522H107.397V307.782H109.575V316.314H110.979V300.186H109.575ZM125.379 304.362V306.522H121.149V307.728H125.379V309.852H126.873V300.204H125.379V303.156H121.725C121.833 302.598 121.905 302.004 121.905 301.41H114.615V302.598H120.303C120.033 305.388 117.639 307.53 113.787 308.682L114.381 309.852C117.855 308.844 120.303 306.954 121.347 304.362H125.379ZM121.599 315.108C119.223 315.108 117.711 314.37 117.711 313.146C117.711 311.94 119.223 311.202 121.599 311.202C123.975 311.202 125.487 311.94 125.487 313.146C125.487 314.37 123.975 315.108 121.599 315.108ZM121.599 310.032C118.341 310.032 116.253 311.202 116.253 313.146C116.253 315.09 118.341 316.26 121.599 316.26C124.857 316.26 126.945 315.09 126.945 313.146C126.945 311.202 124.857 310.032 121.599 310.032ZM139.258 301.878H135.316V300.024H133.84V301.878H129.898V303.066H139.258V301.878ZM132.238 306.774C132.238 305.73 133.21 305.01 134.578 305.01C135.946 305.01 136.918 305.73 136.918 306.774C136.918 307.818 135.946 308.538 134.578 308.538C133.21 308.538 132.238 307.818 132.238 306.774ZM138.304 306.774C138.304 305.046 136.756 303.894 134.578 303.894C132.382 303.894 130.834 305.046 130.834 306.774C130.834 308.502 132.382 309.636 134.578 309.636C136.756 309.636 138.304 308.502 138.304 306.774ZM134.128 311.994H141.742V314.928H134.128V311.994ZM132.688 316.116H143.182V310.824H132.688V316.116ZM141.688 300.204V305.1H139.006V306.306H141.688V309.96H143.182V300.204H141.688Z" fill="#666666"/>
<circle cx="71.5" cy="345.5" r="1.5" fill="#666666"/>
<path d="M86.678 339.59H85.22V342.488C85.22 345.548 83.258 348.644 80.882 349.778L81.782 350.984C83.672 350.012 85.22 347.996 85.958 345.566C86.732 347.87 88.28 349.778 90.116 350.678L90.998 349.49C88.604 348.41 86.678 345.44 86.678 342.488V339.59ZM92.69 338.186V354.368H94.166V338.186H92.69ZM106.623 345.998C104.247 345.206 102.717 343.316 102.717 341.21V340.58H106.281V339.392H97.6226V340.58H101.241V341.21C101.241 343.532 99.6206 345.62 97.1906 346.466L97.9466 347.636C99.8726 346.952 101.331 345.512 102.015 343.676C102.699 345.278 104.085 346.556 105.921 347.15L106.623 345.998ZM104.661 353.144C102.249 353.144 100.809 352.478 100.809 351.326C100.809 350.192 102.249 349.526 104.661 349.526C107.037 349.526 108.495 350.192 108.495 351.326C108.495 352.478 107.037 353.144 104.661 353.144ZM104.661 348.356C101.349 348.356 99.3326 349.454 99.3326 351.326C99.3326 353.216 101.349 354.314 104.661 354.314C107.937 354.314 109.971 353.216 109.971 351.326C109.971 349.454 107.937 348.356 104.661 348.356ZM109.791 342.272V338.204H108.315V347.942H109.791V343.514H112.185V342.272H109.791ZM118.809 339.374C116.307 339.374 114.489 340.904 114.489 343.172C114.489 345.422 116.307 346.97 118.809 346.97C121.329 346.97 123.129 345.422 123.129 343.172C123.129 340.904 121.329 339.374 118.809 339.374ZM118.809 340.634C120.483 340.634 121.689 341.66 121.689 343.172C121.689 344.666 120.483 345.71 118.809 345.71C117.153 345.71 115.929 344.666 115.929 343.172C115.929 341.66 117.153 340.634 118.809 340.634ZM125.253 338.186V354.368H126.729V338.186H125.253ZM113.859 350.822C116.775 350.822 120.681 350.786 124.317 350.12L124.191 349.022C120.663 349.562 116.613 349.58 113.679 349.58L113.859 350.822ZM144.941 340.382C144.941 341.642 144.941 342.83 144.509 344.486L145.949 344.648C146.399 342.992 146.399 341.678 146.399 340.382V339.014H135.401V340.202H144.941V340.382ZM140.891 353.162C138.371 353.162 136.751 352.478 136.751 351.362C136.751 350.21 138.371 349.526 140.891 349.526C143.429 349.526 145.049 350.21 145.049 351.362C145.049 352.478 143.429 353.162 140.891 353.162ZM140.891 348.392C137.453 348.392 135.275 349.49 135.275 351.362C135.275 353.198 137.453 354.314 140.891 354.314C144.329 354.314 146.525 353.198 146.525 351.362C146.525 349.49 144.329 348.392 140.891 348.392ZM141.125 345.71V342.614H139.649V345.71H133.691V346.898H148.217V345.71H141.125ZM161.25 352.928H153.312V350.714H161.25V352.928ZM161.25 349.562H153.312V347.438H151.854V354.116H162.708V347.438H161.25V349.562ZM162.294 344.774C162.726 342.776 162.726 341.336 162.726 340.094V338.924H151.818V340.13H161.268C161.268 341.354 161.268 342.794 160.818 344.774H149.946V345.98H164.616V344.774H162.294ZM179.214 342.686H169.728V338.528H168.252V343.874H179.214V342.686ZM173.562 353.126C171.024 353.126 169.53 352.46 169.53 351.344C169.53 350.192 171.024 349.544 173.562 349.544C176.1 349.544 177.594 350.192 177.594 351.344C177.594 352.46 176.082 353.126 173.562 353.126ZM173.562 348.392C170.124 348.392 168.036 349.454 168.036 351.344C168.036 353.216 170.124 354.278 173.562 354.278C177 354.278 179.088 353.216 179.088 351.344C179.088 349.454 177 348.392 173.562 348.392ZM166.29 345.746V346.952H180.888V345.746H166.29ZM191.113 345.8C189.241 346.106 187.693 346.178 184.705 346.178V343.73H190.177V339.158H183.211V340.364H188.737V342.596H183.265V347.384H184.417C187.639 347.384 189.277 347.33 191.257 346.988L191.113 345.8ZM185.065 350.192H194.389V354.35H195.883V348.986H185.065V350.192ZM194.389 338.204V340.58H191.239V341.786H194.389V343.946H191.239V345.134H194.389V348.122H195.883V338.204H194.389Z" fill="#666666"/>
<circle cx="71.5" cy="383.5" r="1.5" fill="#666666"/>
<path d="M92.24 378.382C92.24 379.642 92.24 380.83 91.808 382.486L93.248 382.648C93.698 380.992 93.698 379.678 93.698 378.382V377.014H82.7V378.202H92.24V378.382ZM88.19 391.162C85.67 391.162 84.05 390.478 84.05 389.362C84.05 388.21 85.67 387.526 88.19 387.526C90.728 387.526 92.348 388.21 92.348 389.362C92.348 390.478 90.728 391.162 88.19 391.162ZM88.19 386.392C84.752 386.392 82.574 387.49 82.574 389.362C82.574 391.198 84.752 392.314 88.19 392.314C91.628 392.314 93.824 391.198 93.824 389.362C93.824 387.49 91.628 386.392 88.19 386.392ZM88.424 383.71V380.614H86.948V383.71H80.99V384.898H95.516V383.71H88.424ZM108.549 390.928H100.611V388.714H108.549V390.928ZM108.549 387.562H100.611V385.438H99.1526V392.116H110.007V385.438H108.549V387.562ZM109.593 382.774C110.025 380.776 110.025 379.336 110.025 378.094V376.924H99.1166V378.13H108.567C108.567 379.354 108.567 380.794 108.117 382.774H97.2446V383.98H111.915V382.774H109.593ZM118.989 377.59H117.531V380.488C117.531 383.422 115.695 386.518 113.373 387.706L114.255 388.894C116.073 387.922 117.567 385.906 118.269 383.548C119.007 385.762 120.465 387.652 122.175 388.57L123.093 387.4C120.825 386.266 118.989 383.332 118.989 380.488V377.59ZM128.655 382.738H125.991V376.204H124.515V392.332H125.991V383.962H128.655V382.738ZM130.564 377.446V378.652H136.504C136.198 381.496 133.714 383.782 129.916 384.97L130.51 386.14C135.154 384.682 138.088 381.622 138.088 377.446H130.564ZM133.822 386.788H132.346V391.972H143.11V390.766H133.822V386.788ZM142.408 381.1V376.204H140.932V387.994H142.408V382.324H144.784V381.1H142.408ZM161.772 380.362V382.522H157.542V383.728H161.772V385.852H163.266V376.204H161.772V379.156H158.118C158.226 378.598 158.298 378.004 158.298 377.41H151.008V378.598H156.696C156.426 381.388 154.032 383.53 150.18 384.682L150.774 385.852C154.248 384.844 156.696 382.954 157.74 380.362H161.772ZM157.992 391.108C155.616 391.108 154.104 390.37 154.104 389.146C154.104 387.94 155.616 387.202 157.992 387.202C160.368 387.202 161.88 387.94 161.88 389.146C161.88 390.37 160.368 391.108 157.992 391.108ZM157.992 386.032C154.734 386.032 152.646 387.202 152.646 389.146C152.646 391.09 154.734 392.26 157.992 392.26C161.25 392.26 163.338 391.09 163.338 389.146C163.338 387.202 161.25 386.032 157.992 386.032ZM176.442 381.694H178.476V386.086H179.898V376.204H178.476V380.488H176.442V376.51H175.056V385.546H176.442V381.694ZM174.174 383.962C172.158 383.17 171.042 381.424 171.042 379.444V378.724H173.886V377.536H166.65V378.724H169.602V379.444C169.602 381.46 168.45 383.494 166.326 384.394L167.136 385.528C168.684 384.844 169.782 383.548 170.34 381.982C170.88 383.368 171.924 384.502 173.4 385.096L174.174 383.962ZM174.57 391.162C172.158 391.162 170.646 390.514 170.646 389.38C170.646 388.264 172.158 387.616 174.57 387.616C177.018 387.616 178.512 388.264 178.512 389.38C178.512 390.514 177.018 391.162 174.57 391.162ZM174.57 386.464C171.258 386.464 169.188 387.526 169.188 389.38C169.188 391.234 171.258 392.314 174.57 392.314C177.9 392.314 179.97 391.234 179.97 389.38C179.97 387.526 177.9 386.464 174.57 386.464ZM191.059 383.08C191.473 380.956 191.473 379.354 191.473 378.292V377.446H183.445V378.652H190.033C190.033 379.678 189.979 381.064 189.601 382.918L191.059 383.08ZM192.589 384.052C190.951 384.268 189.115 384.412 187.351 384.484V381.046H185.893V384.538C184.669 384.556 183.499 384.574 182.473 384.574L182.617 385.78C185.479 385.78 189.349 385.69 192.697 385.132L192.589 384.052ZM186.415 387.238H184.939V391.972H195.667V390.766H186.415V387.238ZM195.145 381.442V376.186H193.669V388.354H195.145V382.666H197.449V381.442H195.145ZM207.962 380.686H205.568C205.712 379.876 205.784 379.066 205.784 378.238H199.592V379.444H204.326C204.074 382.828 202.346 385.726 198.872 387.796L199.736 388.84C202.796 387.022 204.542 384.592 205.298 381.874H207.962V384.718H205.046V385.924H207.962V391.504H209.366V376.618H207.962V380.686ZM211.202 376.186V392.314H212.606V376.186H211.202Z" fill="#666666"/>
<circle cx="71.5" cy="421.5" r="1.5" fill="#666666"/>
<path d="M94.202 414.204H92.726V426.012H94.202V414.204ZM90.818 422.538C88.442 421.746 86.768 419.784 86.768 417.606V416.724H90.422V415.536H81.566V416.724H85.256V417.606C85.256 419.91 83.618 422.016 81.17 422.862L81.944 424.014C83.852 423.33 85.346 421.872 86.03 420.036C86.768 421.728 88.244 423.06 90.098 423.708L90.818 422.538ZM85.292 428.766V424.896H83.816V429.972H94.688V428.766H85.292ZM109.035 414.204V422.862H110.511V414.204H109.035ZM100.107 423.654V430.116H110.511V423.654H109.053V425.634H101.565V423.654H100.107ZM101.565 426.786H109.053V428.928H101.565V426.786ZM101.835 414.96C99.4046 414.96 97.6406 416.472 97.6406 418.668C97.6406 420.9 99.4046 422.394 101.835 422.394C104.283 422.394 106.065 420.9 106.065 418.668C106.065 416.472 104.283 414.96 101.835 414.96ZM101.835 416.184C103.473 416.184 104.625 417.21 104.625 418.668C104.625 420.144 103.473 421.17 101.835 421.17C100.233 421.17 99.0806 420.144 99.0806 418.668C99.0806 417.21 100.233 416.184 101.835 416.184ZM122.931 421.998C120.555 421.206 119.025 419.316 119.025 417.21V416.58H122.589V415.392H113.931V416.58H117.549V417.21C117.549 419.532 115.929 421.62 113.499 422.466L114.255 423.636C116.181 422.952 117.639 421.512 118.323 419.676C119.007 421.278 120.393 422.556 122.229 423.15L122.931 421.998ZM120.969 429.144C118.557 429.144 117.117 428.478 117.117 427.326C117.117 426.192 118.557 425.526 120.969 425.526C123.345 425.526 124.803 426.192 124.803 427.326C124.803 428.478 123.345 429.144 120.969 429.144ZM120.969 424.356C117.657 424.356 115.641 425.454 115.641 427.326C115.641 429.216 117.657 430.314 120.969 430.314C124.245 430.314 126.279 429.216 126.279 427.326C126.279 425.454 124.245 424.356 120.969 424.356ZM126.099 418.272V414.204H124.623V423.942H126.099V419.514H128.493V418.272H126.099ZM132.382 425.868H141.688V430.35H143.182V424.662H132.382V425.868ZM137.962 420.054V417.984H141.688V420.054H137.962ZM136.504 421.692H132.148V418.974H136.504V421.692ZM141.688 414.204V416.778H137.962V415.158H136.504V417.804H132.148V415.158H130.69V422.88H137.962V421.26H141.688V423.798H143.182V414.204H141.688Z" fill="#666666"/>
<circle cx="71.5" cy="459.5" r="1.5" fill="#666666"/>
<path d="M92.24 454.382C92.24 455.642 92.24 456.83 91.808 458.486L93.248 458.648C93.698 456.992 93.698 455.678 93.698 454.382V453.014H82.7V454.202H92.24V454.382ZM88.19 467.162C85.67 467.162 84.05 466.478 84.05 465.362C84.05 464.21 85.67 463.526 88.19 463.526C90.728 463.526 92.348 464.21 92.348 465.362C92.348 466.478 90.728 467.162 88.19 467.162ZM88.19 462.392C84.752 462.392 82.574 463.49 82.574 465.362C82.574 467.198 84.752 468.314 88.19 468.314C91.628 468.314 93.824 467.198 93.824 465.362C93.824 463.49 91.628 462.392 88.19 462.392ZM88.424 459.71V456.614H86.948V459.71H80.99V460.898H95.516V459.71H88.424ZM108.549 466.928H100.611V464.714H108.549V466.928ZM108.549 463.562H100.611V461.438H99.1526V468.116H110.007V461.438H108.549V463.562ZM109.593 458.774C110.025 456.776 110.025 455.336 110.025 454.094V452.924H99.1166V454.13H108.567C108.567 455.354 108.567 456.794 108.117 458.774H97.2446V459.98H111.915V458.774H109.593ZM123.071 453.59H121.613V456.488C121.613 459.548 119.651 462.644 117.275 463.778L118.175 464.984C120.065 464.012 121.613 461.996 122.351 459.566C123.125 461.87 124.673 463.778 126.509 464.678L127.391 463.49C124.997 462.41 123.071 459.44 123.071 456.488V453.59ZM129.083 452.186V468.368H130.559V452.186H129.083ZM143.015 459.998C140.639 459.206 139.109 457.316 139.109 455.21V454.58H142.673V453.392H134.015V454.58H137.633V455.21C137.633 457.532 136.013 459.62 133.583 460.466L134.339 461.636C136.265 460.952 137.723 459.512 138.407 457.676C139.091 459.278 140.477 460.556 142.313 461.15L143.015 459.998ZM141.053 467.144C138.641 467.144 137.201 466.478 137.201 465.326C137.201 464.192 138.641 463.526 141.053 463.526C143.429 463.526 144.887 464.192 144.887 465.326C144.887 466.478 143.429 467.144 141.053 467.144ZM141.053 462.356C137.741 462.356 135.725 463.454 135.725 465.326C135.725 467.216 137.741 468.314 141.053 468.314C144.329 468.314 146.363 467.216 146.363 465.326C146.363 463.454 144.329 462.356 141.053 462.356ZM146.183 456.272V452.204H144.707V461.942H146.183V457.514H148.577V456.272H146.183ZM155.202 453.374C152.7 453.374 150.882 454.904 150.882 457.172C150.882 459.422 152.7 460.97 155.202 460.97C157.722 460.97 159.522 459.422 159.522 457.172C159.522 454.904 157.722 453.374 155.202 453.374ZM155.202 454.634C156.876 454.634 158.082 455.66 158.082 457.172C158.082 458.666 156.876 459.71 155.202 459.71C153.546 459.71 152.322 458.666 152.322 457.172C152.322 455.66 153.546 454.634 155.202 454.634ZM161.646 452.186V468.368H163.122V452.186H161.646ZM150.252 464.822C153.168 464.822 157.074 464.786 160.71 464.12L160.584 463.022C157.056 463.562 153.006 463.58 150.072 463.58L150.252 464.822ZM175.808 455.066H179.606V453.842H170.588V455.066H174.332V457.118C174.332 459.908 172.37 462.95 170.048 464.048L170.912 465.236C172.748 464.3 174.332 462.266 175.07 459.908C175.844 462.122 177.428 463.976 179.3 464.84L180.128 463.652C177.752 462.644 175.808 459.854 175.808 457.118V455.066ZM181.784 452.204V468.332H183.26V452.204H181.784ZM188.768 459.44H194.726V453.68H187.238V454.886H193.232V458.252H187.292V464.444H188.624C191.396 464.444 193.844 464.336 196.76 463.85L196.616 462.644C193.79 463.094 191.414 463.22 188.768 463.22V459.44ZM198.128 452.168V468.35H199.604V452.168H198.128ZM212.187 460.07C209.847 459.242 208.263 457.208 208.263 455.138V454.49H211.809V453.284H203.187V454.49H206.787V455.138C206.787 457.424 205.113 459.584 202.719 460.43L203.493 461.6C205.383 460.898 206.859 459.422 207.543 457.568C208.263 459.242 209.649 460.574 211.449 461.222L212.187 460.07ZM205.167 463.922H214.473V468.35H215.967V462.734H205.167V463.922ZM214.473 452.186V456.398H211.323V457.604H214.473V461.852H215.967V452.186H214.473ZM228.041 454.166C229.607 454.166 230.723 455.012 230.723 456.272C230.723 457.532 229.607 458.378 228.041 458.378C226.457 458.378 225.341 457.532 225.341 456.272C225.341 455.012 226.457 454.166 228.041 454.166ZM228.041 459.584C230.435 459.584 232.145 458.234 232.145 456.272C232.145 454.292 230.435 452.942 228.041 452.942C225.629 452.942 223.919 454.292 223.919 456.272C223.919 458.234 225.629 459.584 228.041 459.584ZM233.351 460.376C229.805 460.916 225.719 460.952 222.713 460.952L222.911 462.194C224.243 462.194 225.773 462.176 227.375 462.104V467.828H228.851V462.014C230.381 461.924 231.947 461.744 233.477 461.474L233.351 460.376ZM234.521 452.204V468.35H235.997V452.204H234.521ZM244.998 456.164H248.688V454.976H245.016V452.474H243.522V454.976H239.796V456.164H243.54V457.406C243.54 460.232 241.758 462.95 239.364 464.084L240.192 465.2C242.046 464.3 243.576 462.464 244.296 460.214C245.034 462.338 246.564 464.084 248.418 464.93L249.228 463.778C246.834 462.734 244.998 460.106 244.998 457.406V456.164ZM250.794 452.168V468.314H252.288V452.168H250.794Z" fill="#666666"/>
<circle cx="71.5" cy="497.5" r="1.5" fill="#666666"/>
<path d="M92.24 492.382C92.24 493.642 92.24 494.83 91.808 496.486L93.248 496.648C93.698 494.992 93.698 493.678 93.698 492.382V491.014H82.7V492.202H92.24V492.382ZM88.19 505.162C85.67 505.162 84.05 504.478 84.05 503.362C84.05 502.21 85.67 501.526 88.19 501.526C90.728 501.526 92.348 502.21 92.348 503.362C92.348 504.478 90.728 505.162 88.19 505.162ZM88.19 500.392C84.752 500.392 82.574 501.49 82.574 503.362C82.574 505.198 84.752 506.314 88.19 506.314C91.628 506.314 93.824 505.198 93.824 503.362C93.824 501.49 91.628 500.392 88.19 500.392ZM88.424 497.71V494.614H86.948V497.71H80.99V498.898H95.516V497.71H88.424ZM108.549 504.928H100.611V502.714H108.549V504.928ZM108.549 501.562H100.611V499.438H99.1526V506.116H110.007V499.438H108.549V501.562ZM109.593 496.774C110.025 494.776 110.025 493.336 110.025 492.094V490.924H99.1166V492.13H108.567C108.567 493.354 108.567 494.794 108.117 496.774H97.2446V497.98H111.915V496.774H109.593ZM120.213 497.17H115.677V492.598H120.213V497.17ZM121.653 491.41H114.237V498.358H121.653V491.41ZM120.951 505.162C118.557 505.162 117.117 504.46 117.117 503.308C117.117 502.138 118.557 501.454 120.951 501.454C123.345 501.454 124.803 502.138 124.803 503.308C124.803 504.46 123.345 505.162 120.951 505.162ZM120.951 500.284C117.693 500.284 115.641 501.382 115.641 503.308C115.641 505.216 117.693 506.332 120.951 506.332C124.227 506.332 126.279 505.216 126.279 503.308C126.279 501.382 124.227 500.284 120.951 500.284ZM126.099 494.218V490.204H124.623V499.726H126.099V495.442H128.493V494.218H126.099ZM135.118 491.374C132.616 491.374 130.798 492.904 130.798 495.172C130.798 497.422 132.616 498.97 135.118 498.97C137.638 498.97 139.438 497.422 139.438 495.172C139.438 492.904 137.638 491.374 135.118 491.374ZM135.118 492.634C136.792 492.634 137.998 493.66 137.998 495.172C137.998 496.666 136.792 497.71 135.118 497.71C133.462 497.71 132.238 496.666 132.238 495.172C132.238 493.66 133.462 492.634 135.118 492.634ZM141.562 490.186V506.368H143.038V490.186H141.562ZM130.168 502.822C133.084 502.822 136.99 502.786 140.626 502.12L140.5 501.022C136.972 501.562 132.922 501.58 129.988 501.58L130.168 502.822ZM151.584 502.48H161.286V506.332H162.762V501.292H151.584V502.48ZM153.348 493.552H161.196V495.424H153.348V493.552ZM158.01 498.52V496.594H162.654V490.564H161.196V492.4H153.348V490.564H151.89V496.594H156.534V498.52H149.946V499.726H164.562V498.52H158.01ZM175.632 497.71C173.274 496.936 171.726 495.046 171.726 492.994V492.454H175.272V491.248H166.632V492.454H170.232V492.994C170.232 495.244 168.594 497.242 166.182 498.034L166.902 499.222C168.846 498.538 170.304 497.152 170.988 495.37C171.708 496.99 173.112 498.268 174.948 498.88L175.632 497.71ZM177.342 504.928H170.088V502.912H177.342V504.928ZM177.342 501.742H170.088V499.798H168.63V506.116H178.8V499.798H177.342V501.742ZM181.194 493.912H178.8V490.186H177.324V499.042H178.8V495.136H181.194V493.912ZM194.389 499.744H195.883V490.204H194.389V493.624H190.879V494.83H194.389V499.744ZM192.049 497.836C189.691 497.008 188.125 495.01 188.125 492.706V491.104H186.649V492.76C186.649 495.226 185.047 497.386 182.563 498.268L183.337 499.474C185.281 498.736 186.739 497.278 187.423 495.37C188.125 497.044 189.493 498.322 191.257 498.988L192.049 497.836ZM190.555 505.144C188.125 505.144 186.649 504.442 186.649 503.272C186.649 502.084 188.125 501.382 190.555 501.382C192.985 501.382 194.461 502.084 194.461 503.272C194.461 504.442 192.985 505.144 190.555 505.144ZM190.555 500.23C187.243 500.23 185.173 501.328 185.173 503.272C185.173 505.198 187.243 506.314 190.555 506.314C193.867 506.314 195.937 505.198 195.937 503.272C195.937 501.328 193.867 500.23 190.555 500.23Z" fill="#666666"/>
<path d="M79.306 44.372V42.932L75.058 41.366L72.358 40.358V40.286L75.058 39.278L79.306 37.712V36.29L70.684 39.674V40.988L79.306 44.372ZM95.3044 40.178H92.9104C93.3604 37.856 93.3604 36.146 93.3604 34.634V33.23H82.5244V34.418H91.9204V34.634C91.9204 36.146 91.9204 37.856 91.4164 40.178H80.7064V41.384H87.2224V48.35H88.7164V41.384H95.3044V40.178ZM98.959 35.228H102.343V42.824H98.959V35.228ZM97.573 43.994H103.711V34.058H97.573V43.994ZM109.309 32.186V38.576H107.131V32.546H105.745V47.522H107.131V39.782H109.309V48.314H110.713V32.186H109.309ZM116.546 43.562H124.664V46.928H116.546V43.562ZM115.106 48.116H126.122V42.374H115.106V48.116ZM125.636 38.99C126.068 36.974 126.068 35.498 126.068 34.238V33.05H115.16V34.238H124.61C124.61 35.498 124.61 36.974 124.142 38.99H113.288V40.178H127.958V38.99H125.636ZM131.108 37.01C131.108 35.516 132.098 34.436 133.448 34.436C134.78 34.436 135.77 35.516 135.77 37.01C135.77 38.504 134.78 39.584 133.448 39.584C132.098 39.584 131.108 38.504 131.108 37.01ZM137.12 37.01C137.12 34.742 135.554 33.194 133.448 33.194C131.324 33.194 129.776 34.742 129.776 37.01C129.776 39.26 131.324 40.808 133.448 40.808C135.554 40.808 137.12 39.26 137.12 37.01ZM132.386 43.904H141.764V48.35H143.24V42.716H132.386V43.904ZM141.818 32.186V36.344H139.766V32.492H138.38V41.708H139.766V37.55H141.818V41.798H143.24V32.186H141.818ZM151.048 38.774C153.694 38.45 156.124 37.262 157.006 35.48C157.906 37.262 160.318 38.45 162.964 38.774L163.486 37.604C160.66 37.28 158.086 35.894 157.96 34.112H162.982V32.924H151.048V34.112H156.052C155.926 35.894 153.352 37.28 150.526 37.604L151.048 38.774ZM161.02 45.47C161.02 46.55 159.508 47.18 156.988 47.18C154.45 47.18 152.956 46.55 152.956 45.47C152.956 44.39 154.45 43.778 156.988 43.778C159.508 43.778 161.02 44.39 161.02 45.47ZM164.296 40.934V39.746H149.698V40.934H156.25V42.662C153.244 42.806 151.462 43.796 151.462 45.47C151.462 47.306 153.55 48.314 157.006 48.314C160.444 48.314 162.514 47.306 162.514 45.47C162.514 43.796 160.75 42.806 157.744 42.662V40.934H164.296ZM171.065 41.24C171.731 41.402 172.505 41.492 173.297 41.492C174.107 41.492 174.881 41.402 175.565 41.24V45.038H171.065V41.24ZM173.297 34.364C175.889 34.364 177.761 35.552 177.761 37.352C177.761 39.152 175.889 40.34 173.297 40.34C170.705 40.34 168.851 39.152 168.851 37.352C168.851 35.552 170.705 34.364 173.297 34.364ZM177.041 45.038V40.664C178.373 39.962 179.165 38.81 179.165 37.352C179.165 34.832 176.735 33.212 173.297 33.212C169.877 33.212 167.429 34.832 167.429 37.352C167.429 38.81 168.239 39.98 169.589 40.682V45.038H165.989V46.262H180.659V45.038H177.041ZM190.361 45.074V40.934H195.275V39.746H185.645V34.688H195.113V33.482H184.169V40.934H188.867V45.074H182.297V46.298H196.967V45.074H190.361ZM217.015 40.178H214.621C215.071 37.856 215.071 36.146 215.071 34.634V33.23H204.235V34.418H213.631V34.634C213.631 36.146 213.631 37.856 213.127 40.178H202.417V41.384H208.933V48.35H210.427V41.384H217.015V40.178ZM230.516 41.744H232.01V32.204H230.516V35.624H227.006V36.83H230.516V41.744ZM228.176 39.836C225.818 39.008 224.252 37.01 224.252 34.706V33.104H222.776V34.76C222.776 37.226 221.174 39.386 218.69 40.268L219.464 41.474C221.408 40.736 222.866 39.278 223.55 37.37C224.252 39.044 225.62 40.322 227.384 40.988L228.176 39.836ZM226.682 47.144C224.252 47.144 222.776 46.442 222.776 45.272C222.776 44.084 224.252 43.382 226.682 43.382C229.112 43.382 230.588 44.084 230.588 45.272C230.588 46.442 229.112 47.144 226.682 47.144ZM226.682 42.23C223.37 42.23 221.3 43.328 221.3 45.272C221.3 47.198 223.37 48.314 226.682 48.314C229.994 48.314 232.046 47.198 232.046 45.272C232.046 43.328 229.994 42.23 226.682 42.23ZM240.075 41.24C240.741 41.402 241.515 41.492 242.307 41.492C243.117 41.492 243.891 41.402 244.575 41.24V45.038H240.075V41.24ZM242.307 34.364C244.899 34.364 246.771 35.552 246.771 37.352C246.771 39.152 244.899 40.34 242.307 40.34C239.715 40.34 237.861 39.152 237.861 37.352C237.861 35.552 239.715 34.364 242.307 34.364ZM246.051 45.038V40.664C247.383 39.962 248.175 38.81 248.175 37.352C248.175 34.832 245.745 33.212 242.307 33.212C238.887 33.212 236.438 34.832 236.438 37.352C236.438 38.81 237.249 39.98 238.599 40.682V45.038H234.999V46.262H249.669V45.038H246.051ZM265.257 40.07C262.431 39.566 259.353 37.19 259.353 34.508V33.266H257.805V34.508C257.805 37.19 254.745 39.566 251.919 40.07L252.531 41.294C255.015 40.772 257.535 39.098 258.579 36.794C259.623 39.098 262.161 40.772 264.627 41.294L265.257 40.07ZM259.317 45.02V41.096H257.841V45.02H251.325V46.226H265.977V45.02H259.317ZM267.364 44.372L275.986 40.988V39.674L267.364 36.29V37.712L271.612 39.278L274.312 40.286V40.358L271.612 41.366L267.364 42.932V44.372Z" fill="#666666"/>
<circle cx="71.5" cy="73.5" r="1.5" fill="#666666"/>
<path d="M89.522 70.65V71.856H92.762V78.03H94.256V66.204H92.762V70.65H89.522ZM90.476 74.448C88.136 73.62 86.552 71.604 86.552 69.498V68.706H90.098V67.5H81.476V68.706H85.076V69.516C85.076 71.802 83.402 73.944 81.008 74.808L81.782 75.96C83.672 75.276 85.148 73.782 85.85 71.946C86.552 73.602 87.938 74.952 89.738 75.6L90.476 74.448ZM85.418 80.766V76.986H83.924V81.972H94.706V80.766H85.418ZM101.961 70.38H104.949V69.156H101.979V66.762H100.557V69.156H97.5686V70.38H100.557V71.154C100.557 73.8 99.3146 76.626 97.1366 77.922L98.0006 79.02C99.5846 78.066 100.719 76.266 101.277 74.214C101.871 76.158 103.023 77.796 104.589 78.678L105.435 77.562C103.257 76.392 101.961 73.728 101.961 71.154V70.38ZM106.317 72.558H103.851V73.782H106.317V81.486H107.721V66.564H106.317V72.558ZM109.557 66.186V82.314H110.979V66.186H109.557ZM131.963 74.178H129.569C130.019 71.856 130.019 70.146 130.019 68.634V67.23H119.183V68.418H128.579V68.634C128.579 70.146 128.579 71.856 128.075 74.178H117.365V75.384H123.881V82.35H125.375V75.384H131.963V74.178ZM135.617 69.228H139.001V76.824H135.617V69.228ZM134.231 77.994H140.369V68.058H134.231V77.994ZM145.967 66.186V72.576H143.789V66.546H142.403V81.522H143.789V73.782H145.967V82.314H147.371V66.186H145.967ZM153.204 77.562H161.322V80.928H153.204V77.562ZM151.764 82.116H162.78V76.374H151.764V82.116ZM162.294 72.99C162.726 70.974 162.726 69.498 162.726 68.238V67.05H151.818V68.238H161.268C161.268 69.498 161.268 70.974 160.8 72.99H149.946V74.178H164.616V72.99H162.294ZM167.766 71.01C167.766 69.516 168.756 68.436 170.106 68.436C171.438 68.436 172.428 69.516 172.428 71.01C172.428 72.504 171.438 73.584 170.106 73.584C168.756 73.584 167.766 72.504 167.766 71.01ZM173.778 71.01C173.778 68.742 172.212 67.194 170.106 67.194C167.982 67.194 166.434 68.742 166.434 71.01C166.434 73.26 167.982 74.808 170.106 74.808C172.212 74.808 173.778 73.26 173.778 71.01ZM169.044 77.904H178.422V82.35H179.898V76.716H169.044V77.904ZM178.476 66.186V70.344H176.424V66.492H175.038V75.708H176.424V71.55H178.476V75.798H179.898V66.186H178.476ZM186.235 77.418C184.939 77.418 184.129 75.78 184.129 73.134C184.129 70.542 184.939 68.904 186.235 68.904C187.495 68.904 188.323 70.542 188.323 73.134C188.323 75.78 187.495 77.418 186.235 77.418ZM191.689 72.468H189.655C189.475 69.426 188.179 67.536 186.235 67.536C184.129 67.536 182.779 69.696 182.779 73.134C182.779 76.626 184.129 78.786 186.235 78.786C188.215 78.786 189.529 76.842 189.655 73.674H191.689V81.54H193.093V66.546H191.689V72.468ZM194.893 66.186V82.332H196.297V66.186H194.893ZM204.542 67.572H203.066V70.47C203.066 73.458 201.23 76.572 198.89 77.742L199.79 78.912C201.608 77.94 203.102 75.906 203.804 73.512C204.542 75.78 206.018 77.706 207.854 78.624L208.718 77.454C206.378 76.338 204.542 73.404 204.542 70.47V67.572ZM210.716 66.186V71.658H206.972V72.864H210.716V82.35H212.192V66.186H210.716ZM224.374 70.164H227.956V68.976H224.374V66.474H222.898V68.976H219.262V70.164H222.916V71.424C222.916 74.214 221.188 76.95 218.83 78.102L219.658 79.218C221.494 78.318 222.97 76.446 223.654 74.232C224.338 76.302 225.706 78.066 227.47 78.93L228.298 77.778C225.976 76.662 224.374 74.016 224.374 71.424V70.164ZM234.058 72.828H231.394V66.186H229.918V82.332H231.394V74.052H234.058V72.828ZM241.042 69.066H244.84V67.842H235.822V69.066H239.566V71.118C239.566 73.908 237.604 76.95 235.282 78.048L236.146 79.236C237.982 78.3 239.566 76.266 240.304 73.908C241.078 76.122 242.662 77.976 244.534 78.84L245.362 77.652C242.986 76.644 241.042 73.854 241.042 71.118V69.066ZM247.018 66.204V82.332H248.494V66.204H247.018ZM256.325 77.508C254.867 77.508 253.805 76.464 253.805 75.024C253.805 73.566 254.867 72.522 256.325 72.522C257.801 72.522 258.863 73.566 258.863 75.024C258.863 76.464 257.801 77.508 256.325 77.508ZM256.325 71.298C254.057 71.298 252.419 72.846 252.419 75.024C252.419 77.22 254.057 78.732 256.325 78.732C258.629 78.732 260.267 77.22 260.267 75.024C260.267 72.846 258.629 71.298 256.325 71.298ZM257.045 66.384H255.569V68.778H251.501V69.966H261.023V68.778H257.045V66.384ZM266.675 72.828H264.029V66.204H262.553V82.332H264.029V74.07H266.675V72.828ZM280.841 71.046H271.337V66.78H269.861V72.252H280.841V71.046ZM271.229 77.22H269.753V81.936H280.931V80.73H271.229V77.22ZM267.881 74.412V75.6H282.515V74.412H267.881ZM299.719 66.186V82.35H301.195V66.186H299.719ZM288.901 67.554V78.444H296.497V67.554H295.039V71.82H290.359V67.554H288.901ZM290.359 72.99H295.039V77.238H290.359V72.99ZM305.642 72.774C308.288 72.45 310.718 71.262 311.6 69.48C312.5 71.262 314.912 72.45 317.558 72.774L318.08 71.604C315.254 71.28 312.68 69.894 312.554 68.112H317.576V66.924H305.642V68.112H310.646C310.52 69.894 307.946 71.28 305.12 71.604L305.642 72.774ZM315.614 79.47C315.614 80.55 314.102 81.18 311.582 81.18C309.044 81.18 307.55 80.55 307.55 79.47C307.55 78.39 309.044 77.778 311.582 77.778C314.102 77.778 315.614 78.39 315.614 79.47ZM318.89 74.934V73.746H304.292V74.934H310.844V76.662C307.838 76.806 306.056 77.796 306.056 79.47C306.056 81.306 308.144 82.314 311.6 82.314C315.038 82.314 317.108 81.306 317.108 79.47C317.108 77.796 315.344 76.806 312.338 76.662V74.934H318.89Z" fill="#666666"/>
<circle cx="71.5" cy="111.5" r="1.5" fill="#666666"/>
<path d="M81.818 105.914V107.138H87.74C87.398 110.954 85.184 114.05 81.062 116.12L81.872 117.272C87.092 114.662 89.198 110.504 89.198 105.914H81.818ZM95.966 110.738H93.374V104.186H91.898V120.332H93.374V111.962H95.966V110.738ZM99.7646 115.724H109.071V120.296H110.565V114.536H99.7646V115.724ZM109.071 104.186V107.066H105.507C105.651 106.49 105.723 105.878 105.723 105.266H98.3426V106.472H104.139C103.851 109.226 101.403 111.368 97.4966 112.43L98.0906 113.618C101.547 112.646 104.049 110.81 105.129 108.272H109.071V110.486H104.895V111.692H109.071V113.816H110.565V104.186H109.071ZM126.509 112.034C124.421 112.412 122.675 112.502 119.561 112.502V110.09H125.177V108.92H119.561V106.67H125.465V105.482H118.085V113.672H119.309C122.639 113.672 124.475 113.618 126.671 113.204L126.509 112.034ZM121.307 115.076H119.831V119.972H130.595V118.766H121.307V115.076ZM129.875 109.208V104.186H128.399V116.156H129.875V110.432H132.269V109.208H129.875ZM142.187 111.8C140.315 112.106 138.767 112.178 135.779 112.178V109.73H141.251V105.158H134.285V106.364H139.811V108.596H134.339V113.384H135.491C138.713 113.384 140.351 113.33 142.331 112.988L142.187 111.8ZM136.139 116.192H145.463V120.35H146.939V114.986H136.139V116.192ZM145.463 104.204V106.58H142.313V107.786H145.463V109.946H142.313V111.134H145.463V114.122H146.939V104.204H145.463ZM161.772 113.744H163.266V104.204H161.772V107.624H158.262V108.83H161.772V113.744ZM159.432 111.836C157.074 111.008 155.508 109.01 155.508 106.706V105.104H154.032V106.76C154.032 109.226 152.43 111.386 149.946 112.268L150.72 113.474C152.664 112.736 154.122 111.278 154.806 109.37C155.508 111.044 156.876 112.322 158.64 112.988L159.432 111.836ZM157.938 119.144C155.508 119.144 154.032 118.442 154.032 117.272C154.032 116.084 155.508 115.382 157.938 115.382C160.368 115.382 161.844 116.084 161.844 117.272C161.844 118.442 160.368 119.144 157.938 119.144ZM157.938 114.23C154.626 114.23 152.556 115.328 152.556 117.272C152.556 119.198 154.626 120.314 157.938 120.314C161.25 120.314 163.302 119.198 163.302 117.272C163.302 115.328 161.25 114.23 157.938 114.23Z" fill="#666666"/>
</svg>
