<svg width="212" height="38" viewBox="0 0 212 38" fill="none" xmlns="http://www.w3.org/2000/svg">
<g clip-path="url(#clip0_766_29646)">
<path d="M211.927 9.04524C210.422 0.113722 184.408 -2.67816 153.83 2.81718C140.995 5.12902 129.395 8.52729 120.365 12.3677C121.748 12.4056 122.788 12.7341 123.412 13.3657C123.901 13.871 124.146 14.5659 124.146 15.4249V16.3092H121.148V15.526C121.148 14.8817 120.769 14.4774 120.096 14.4774C119.533 14.4774 119.19 14.7427 119.068 15.2607C119.044 15.3996 119.031 15.6523 119.08 15.8797C119.398 17.2314 123.852 18.0778 124.342 20.5791C124.403 20.895 124.489 21.5898 124.342 22.5752C124.06 24.5964 122.347 25.367 120.169 25.367C117.122 25.367 115.887 23.8764 115.887 21.8172V20.8444H119.105V22.0572C119.105 22.7394 119.594 23.1184 120.243 23.1184C120.854 23.1184 121.222 22.8657 121.356 22.3351C121.405 22.0951 121.442 21.7414 121.332 21.4635C120.732 19.9222 116.584 19.2022 116.07 16.7135C115.96 16.1576 115.948 15.6776 116.046 15.0838C116.095 14.7553 116.193 14.4774 116.315 14.2248C106.294 19.0506 100.445 24.3817 101.216 28.9674C102.733 37.9116 128.734 40.6908 159.312 35.1955C172.747 32.77 184.836 29.1569 194.025 25.1144C193.891 25.1144 193.768 25.1397 193.634 25.1397C191.542 25.1397 189.669 24.3311 189.474 22.1204C189.437 21.7161 189.437 21.5519 189.425 21.3245V16.246C189.425 16.0313 189.449 15.6523 189.474 15.4502C189.718 13.3152 191.358 12.4435 193.622 12.4435C195.371 12.4435 197.525 12.9615 197.757 15.4628C197.794 15.766 197.782 16.1071 197.782 16.2208V16.7008H194.76V15.9934C194.76 15.9934 194.76 15.7028 194.723 15.5386C194.674 15.2859 194.466 14.6922 193.597 14.6922C192.728 14.6922 192.533 15.2859 192.471 15.5386C192.447 15.6776 192.423 15.8797 192.423 16.1071V21.6277C192.423 21.8172 192.423 21.9688 192.447 22.0825C192.447 22.1709 192.618 22.9289 193.609 22.9289C194.601 22.9289 194.747 22.1709 194.76 22.0825C194.784 21.9309 194.796 21.754 194.784 21.6277V19.9222H193.585V18.0778H197.806V21.3498C197.806 21.5772 197.806 21.7288 197.77 22.1456C197.721 22.7268 197.537 23.2194 197.268 23.6363C207.02 18.8611 212.697 13.6184 211.939 9.09577M132.65 24.9375L131.12 14.1742H131.071L129.505 24.9375H126.275L128.441 12.7846H133.727L135.892 24.9375H132.674H132.65ZM148.202 24.9375L148.128 14.389H148.079L146.183 24.9375H143.148L141.264 14.389H141.215L141.142 24.9375H138.132L138.389 12.7846H143.234L144.641 21.8172H144.715L146.122 12.7846H150.955L151.212 24.9375H148.226H148.202ZM162.359 22.5752C162.028 24.9375 159.801 25.3418 158.223 25.3418C155.605 25.3418 153.977 24.1795 153.977 21.8298V20.8697H157.159V22.0698C157.159 22.7141 157.611 23.1184 158.284 23.1184C158.896 23.1184 159.251 22.8657 159.373 22.3478C159.422 22.1077 159.459 21.754 159.349 21.4887C158.761 19.9854 154.638 19.2401 154.136 16.7893C154.026 16.2334 154.014 15.766 154.112 15.1596C154.454 12.9362 156.522 12.4814 158.186 12.4814C159.679 12.4814 160.756 12.8099 161.404 13.492C161.882 13.9847 162.126 14.6795 162.126 15.5386V16.4229H159.165V15.6523C159.165 14.9954 158.761 14.6037 158.125 14.6037C157.562 14.6037 157.207 14.869 157.097 15.387C157.073 15.4881 157.048 15.7407 157.11 15.9934C157.428 17.3325 161.845 18.1662 162.322 20.6423C162.383 20.9581 162.469 21.6403 162.322 22.6257M173.322 21.5266C173.322 21.754 173.31 22.2088 173.298 22.3225C173.114 24.3185 171.732 25.3418 169.174 25.3418C166.617 25.3418 165.234 24.3185 165.051 22.3225C165.051 22.1962 165.026 21.7414 165.026 21.5266V12.8225H168.061V21.7919C168.061 21.994 168.061 22.133 168.097 22.2467C168.134 22.4488 168.33 23.0931 169.174 23.0931C170.018 23.0931 170.227 22.4362 170.275 22.2467C170.288 22.1456 170.3 21.994 170.3 21.7919V12.8225H173.334V21.5266H173.322ZM186.415 24.8617H182.193L179.355 15.2354H179.306L179.465 24.8617H176.516V12.7341H180.921L183.551 21.9814H183.613L183.466 12.7341H186.427V24.7607L186.415 24.8617Z" fill="#144393"/>
<path d="M60.5925 28.2853H63.3578C67.4323 28.2853 68.9251 26.681 68.9251 21.0972V16.2335C68.9251 11.3698 67.4935 9.5759 64.4468 9.5759H60.6047V28.298L60.5925 28.2853ZM57.6803 6.89771H64.7282C67.6526 6.89771 69.7449 7.99677 70.8951 10.5613C71.8128 12.5952 71.9107 17.3957 71.9107 18.1537C71.9107 23.2827 71.4702 26.2514 70.5158 27.8432C69.28 29.9024 66.9551 30.9383 62.9418 30.9383H57.6803V6.91034" fill="#144393"/>
<path d="M44.5389 23.9142V24.609C44.5389 27.881 46.5088 28.9043 48.3809 28.9043C50.6935 28.9043 52.48 27.881 52.48 25.0133C52.48 19.6948 42.1773 20.2886 42.1773 13.0751C42.1773 8.81782 45.065 6.55652 48.9193 6.55652C53.104 6.55652 55.4533 8.69149 55.282 13.5805H52.223C52.2475 10.9528 51.4644 9.22208 48.6991 9.22208C46.9493 9.22208 45.1751 10.1443 45.1751 12.7467C45.1751 18.0273 55.4656 17.2693 55.4656 24.887C55.4656 29.9402 52.1374 31.5698 48.3565 31.5698C41.5778 31.633 41.5778 26.2134 41.6389 23.9269H44.5389V23.9142Z" fill="#144393"/>
<path d="M15.1604 6.4176V19.3159H18.2316V14.1364H20.8256V11.4961H18.2316V6.4176H15.1604Z" fill="#144393"/>
<path d="M15.2705 28.3485V22.9542H6.74208V28.3485H15.2705ZM3.80545 30.9256V20.3771H18.2316V30.9256H3.79321" fill="#144393"/>
<path d="M39.0083 6.4176V19.3159H35.9983V14.1364H32.0828V11.5087H35.9371V6.4176H39.0083Z" fill="#144393"/>
<path d="M36.4265 25.6197C36.4265 23.7753 34.1996 22.2846 31.4587 22.2846C28.7179 22.2846 26.4909 23.7753 26.4909 25.6197C26.4909 27.4641 28.7179 28.9548 31.4587 28.9548C34.1996 28.9548 36.4265 27.4641 36.4265 25.6197ZM31.4587 31.5951C27.0293 31.5951 23.4564 28.9295 23.4564 25.6197C23.4564 22.3098 27.0293 19.6443 31.4587 19.6443C35.8881 19.6443 39.4488 22.3225 39.4488 25.6197C39.4488 28.9169 35.8759 31.5951 31.4587 31.5951Z" fill="#144393"/>
<path d="M7.91644 6.88501C7.91644 6.88501 7.51266 13.8584 12.9821 16.7514L11.4037 19C11.4037 19 7.40253 16.2713 6.48484 13.2773C5.57938 16.2713 1.56599 19 1.56599 19L-0.0124512 16.7514C5.46925 13.871 5.06547 6.88501 5.06547 6.88501H7.90421H7.91644Z" fill="#144393"/>
<path d="M26.8947 13.2774C25.9892 16.2714 22.3184 18.7727 22.3184 18.7727L20.74 16.524C25.8791 13.8711 25.4753 6.89771 25.4753 6.89771H28.314C28.314 6.89771 27.9103 13.8711 33.0494 16.524L31.4709 18.7727C31.4709 18.7727 27.8001 16.2714 26.8947 13.2774Z" fill="#144393"/>
<path d="M77.527 6.91028H74.5048V30.8624H77.527V6.91028Z" fill="#144393"/>
</g>
<defs>
<clipPath id="clip0_766_29646">
<rect width="212" height="38" fill="white"/>
</clipPath>
</defs>
</svg>
