<svg width="267" height="36" viewBox="0 0 267 36" fill="none" xmlns="http://www.w3.org/2000/svg">
<g clip-path="url(#clip0_766_29665)">
<path d="M266.94 8.56855C265.452 0.107831 239.769 -2.54064 209.574 2.66043C196.896 4.8535 185.452 8.07721 176.536 11.7084C177.903 11.7443 178.919 12.0559 179.548 12.6551C180.02 13.1345 180.262 13.7936 180.262 14.6085V15.4474H177.298V14.7044C177.298 14.0932 176.923 13.7097 176.258 13.7097C175.702 13.7097 175.363 13.9494 175.242 14.4527C175.218 14.5845 175.206 14.8242 175.266 15.0399C175.581 16.3222 179.972 17.1132 180.456 19.486C180.516 19.7856 180.601 20.4327 180.468 21.3675C180.19 23.2849 178.496 24.016 176.343 24.016C173.33 24.016 172.109 22.6018 172.109 20.6484V19.7377H175.278V20.8881C175.278 21.5353 175.75 21.8828 176.403 21.8828C177.008 21.8828 177.371 21.6431 177.492 21.1398C177.54 20.9121 177.577 20.5765 177.468 20.3129C176.887 18.8508 172.774 18.1678 172.278 15.8189C172.157 15.2796 172.157 14.8362 172.242 14.261C172.29 13.9494 172.387 13.6857 172.508 13.446C162.612 18.0239 156.83 23.0692 157.592 27.4194C159.092 35.8921 184.762 38.5286 214.957 33.3275C228.228 31.0266 240.156 27.6112 249.241 23.7643C249.108 23.7643 248.987 23.7883 248.842 23.7883C246.773 23.7883 244.922 23.0213 244.741 20.9361C244.705 20.5526 244.705 20.3968 244.693 20.1811V15.3635C244.693 15.1598 244.729 14.8002 244.741 14.6085C244.995 12.5832 246.604 11.7563 248.842 11.7563C250.572 11.7563 252.689 12.2476 252.931 14.6205C252.967 14.9201 252.967 15.2317 252.967 15.3395V15.7949H249.979V15.1238C249.979 15.1238 249.979 14.8602 249.943 14.6924C249.894 14.4527 249.689 13.8895 248.83 13.8895C247.971 13.8895 247.777 14.4527 247.717 14.6924C247.693 14.8242 247.668 15.016 247.668 15.2317V20.4567C247.668 20.6365 247.668 20.7803 247.693 20.8881C247.693 20.972 247.862 21.6911 248.842 21.6911C249.822 21.6911 249.967 20.96 249.979 20.8881C250.003 20.7443 250.015 20.5765 250.003 20.4567V18.8389H248.83V17.0892H252.991V20.1931C252.991 20.4088 252.991 20.5646 252.955 20.948C252.895 21.4873 252.725 21.9667 252.459 22.3622C262.089 17.8322 267.702 12.8708 266.952 8.58053L266.94 8.56855ZM188.646 23.5725L187.133 13.3741H187.085L185.537 23.5725H182.343L184.496 12.0559H189.71L191.839 23.5725H188.658H188.646ZM204.009 23.5725L203.937 13.5779H203.888L202.013 23.5725H199.013L197.15 13.5779H197.102L197.029 23.5725H194.065L194.319 12.0559H199.098L200.489 20.6125H200.562L201.953 12.0559H206.731L206.985 23.5725H204.033H204.009ZM217.982 21.3435C217.667 23.5725 215.453 23.968 213.905 23.968C211.316 23.968 209.719 22.8775 209.719 20.6365V19.7257H212.852V20.8642C212.852 21.4753 213.3 21.8588 213.965 21.8588C214.57 21.8588 214.921 21.6192 215.042 21.1278C215.102 20.9001 215.127 20.5646 215.018 20.3129C214.437 18.8868 210.372 18.1797 209.876 15.8668C209.755 15.3275 209.755 14.8961 209.852 14.3209C210.191 12.2117 212.235 11.7803 213.881 11.7803C215.357 11.7803 216.421 12.0919 217.062 12.727C217.534 13.1944 217.776 13.8535 217.776 14.6564V15.4953H214.848V14.7643C214.848 14.1411 214.449 13.7696 213.82 13.7696C213.264 13.7696 212.925 14.0213 212.804 14.5006C212.78 14.5965 212.756 14.8362 212.816 15.0759C213.131 16.3582 217.486 17.1371 217.97 19.486C218.03 19.7856 218.115 20.4327 217.97 21.3555L217.982 21.3435ZM228.845 20.3009C228.845 20.5166 228.833 20.948 228.821 21.0559C228.639 22.9494 227.272 23.9201 224.756 23.9201C222.24 23.9201 220.861 22.9494 220.691 21.0559C220.691 20.948 220.655 20.5166 220.667 20.3009V12.0559H223.667V20.5646C223.667 20.7563 223.667 20.9001 223.704 20.996C223.74 21.1877 223.934 21.7989 224.768 21.7989C225.603 21.7989 225.809 21.1877 225.845 20.996C225.857 20.9001 225.869 20.7563 225.869 20.5646V12.0559H228.857V20.3009H228.845ZM241.765 23.4527H237.591L234.785 14.3329H234.736L234.882 23.4527H231.966V12.0679H236.309L238.898 20.8282H238.958L238.813 12.0679H241.741V23.4647L241.765 23.4527Z" fill="#144393"/>
<path d="M4.85098 26.3409C0.629013 26.3409 -0.157313 23.8842 0.0241466 21.0919H3.43559C3.43559 22.6379 3.50818 23.9321 5.37116 23.9321C6.52041 23.9321 7.08898 23.2011 7.08898 22.0986C7.08898 19.1865 0.229801 19.0067 0.229801 14.2011C0.229801 11.6725 1.45163 9.65918 5.60101 9.65918C8.91568 9.65918 10.5609 11.1332 10.3432 14.5127H7.0285C7.0285 13.3023 6.82284 12.08 5.44375 12.08C4.34289 12.08 3.67754 12.6792 3.67754 13.8057C3.67754 16.8736 10.5367 16.5979 10.5367 21.6792C10.5367 25.8616 7.43981 26.3529 4.85098 26.3529V26.3409Z" fill="#144393"/>
<path d="M14.9885 26.0773L15.9079 22.5061H20.5533L21.4606 26.0773H25.0535L20.6259 9.93481H16.1378L11.6255 26.0773H14.9885ZM19.8396 20.0254H16.5854L18.1459 13.0507H18.1943L19.8396 20.0254Z" fill="#144393"/>
<path d="M26.4689 26.0773V9.93481H31.949L34.5015 20.9122H34.5499L37.2597 9.93481H42.5583V26.0773H39.2436V13.6259H39.1953L36.062 26.0773H32.8079L29.8319 13.6259H29.7835V26.0773H26.4689Z" fill="#144393"/>
<path d="M49.6474 26.3409C45.4254 26.3409 44.6391 23.8842 44.8205 21.0919H48.232C48.232 22.6379 48.3046 23.9321 50.1676 23.9321C51.3168 23.9321 51.8854 23.2011 51.8854 22.0986C51.8854 19.1985 45.0262 19.0187 45.0262 14.2011C45.0262 11.6725 46.248 9.65918 50.3974 9.65918C53.7121 9.65918 55.3573 11.1332 55.1396 14.5127H51.8249C51.8249 13.3023 51.6192 12.08 50.2401 12.08C49.1393 12.08 48.4739 12.6792 48.4739 13.8057C48.4739 16.8736 55.3331 16.5979 55.3331 21.6792C55.3331 25.8616 52.2362 26.3529 49.6474 26.3529V26.3409Z" fill="#144393"/>
<path d="M68.6644 9.93481V21.3796C68.6644 23.7883 67.2853 26.3409 63.1359 26.3409C59.3858 26.3409 57.5833 24.4235 57.5833 21.3796V9.93481H60.9947V21.1519C60.9947 23.1412 61.8536 23.9202 63.0996 23.9202C64.5876 23.9202 65.2651 22.9375 65.2651 21.1519V9.93481H68.6765H68.6644Z" fill="#144393"/>
<path d="M71.35 26.0773V9.93481H75.9591L80.2899 21.1039H80.3383V9.93481H83.5078V26.0773H79.0197L74.58 14.273H74.5316V26.0773H71.35Z" fill="#144393"/>
<path d="M93.7179 14.8962C93.7421 13.3982 93.488 12.0799 91.6855 12.0799C89.5685 12.0799 89.5685 14.9201 89.5685 18.048C89.5685 23.1052 90.0645 23.992 92 23.992C92.5686 23.992 93.1735 23.8602 93.6937 23.6804V20.1092H91.8428V17.6285H97.1051V25.8136C96.1857 25.9934 93.8509 26.3529 92.496 26.3529C86.7619 26.3529 86.1086 24.004 86.1086 17.8802C86.1086 13.8056 86.3143 9.68311 91.8912 9.68311C95.23 9.68311 97.3108 11.5406 97.1051 14.9081H93.7179V14.8962Z" fill="#144393"/>
<path d="M109.263 26.3409C105.041 26.3409 104.255 23.8842 104.436 21.0919H107.848C107.848 22.6379 107.92 23.9321 109.783 23.9321C110.932 23.9321 111.501 23.2011 111.501 22.0986C111.501 19.1985 104.642 19.0187 104.642 14.2011C104.642 11.6725 105.864 9.65918 110.013 9.65918C113.328 9.65918 114.973 11.1332 114.755 14.5127H111.44C111.44 13.3023 111.235 12.08 109.856 12.08C108.755 12.08 108.102 12.6792 108.102 13.8057C108.102 16.8736 114.961 16.5979 114.961 21.6792C114.961 25.8616 111.876 26.3529 109.275 26.3529L109.263 26.3409Z" fill="#144393"/>
<path d="M117.344 26.0773H122.897C128.715 26.0773 128.34 20.3969 128.34 17.9162C128.34 12.8829 127.506 9.93481 123.042 9.93481H117.356V26.0773H117.344ZM120.755 12.4155H122.51C124.881 12.4155 124.881 15.028 124.881 18.0001C124.881 22.0507 124.469 23.5846 122.401 23.5846H120.755V12.4155Z" fill="#144393"/>
<path d="M134.353 9.93481H130.941V26.0773H134.353V9.93481Z" fill="#144393"/>
</g>
<defs>
<clipPath id="clip0_766_29665">
<rect width="267" height="36" fill="white"/>
</clipPath>
</defs>
</svg>
