<svg width="1200" height="208" viewBox="0 0 1200 208" fill="none" xmlns="http://www.w3.org/2000/svg">
<rect x="128" width="526" height="60" rx="10" fill="#435CE7"/>
<path d="M351.382 25.64V27.11H355.68C355.414 29.966 353.986 31.982 350.696 33.564L351.662 35.02C356.24 32.808 357.57 29.588 357.57 25.64H351.382ZM359.544 24.296V37.19H361.406V24.296H359.544ZM374.343 25.654H370.045V24.296H368.197V25.654H363.857V27.096H374.343V25.654ZM371.627 29.826C371.627 30.4 370.801 30.666 369.121 30.666C367.441 30.666 366.629 30.4 366.629 29.826C366.629 29.224 367.441 28.972 369.121 28.972C370.801 28.972 371.627 29.224 371.627 29.826ZM364.711 29.826C364.711 31.24 366.363 32.038 369.121 32.038C371.879 32.038 373.545 31.24 373.545 29.826C373.545 28.398 371.879 27.6 369.121 27.6C366.363 27.6 364.711 28.398 364.711 29.826ZM374.973 32.654H363.297V34.138H368.197V37.218H370.045V34.138H374.973V32.654ZM387.78 27.936V29.224H385.484V27.936H387.78ZM383.678 30.358H381.228V28.538H383.678V30.358ZM385.484 30.694H387.78V33.83H389.628V24.31H387.78V26.452H385.484V25.164H383.678V27.124H381.228V25.164H379.394V31.828H385.484V30.694ZM382.964 35.51V32.906H381.116V36.98H389.908V35.51H382.964ZM399.163 25.724H396.307V24.366H394.459V25.724H391.575V27.18H399.163V25.724ZM393.983 30.106C393.983 29.448 394.543 29.084 395.383 29.084C396.223 29.084 396.783 29.448 396.783 30.106C396.783 30.792 396.223 31.156 395.383 31.156C394.543 31.156 393.983 30.792 393.983 30.106ZM396.307 32.444C397.651 32.164 398.533 31.296 398.533 30.106C398.533 28.664 397.231 27.684 395.383 27.684C393.535 27.684 392.233 28.664 392.233 30.106C392.233 31.296 393.115 32.164 394.459 32.444V33.536C393.325 33.564 392.261 33.564 391.337 33.564L391.561 35.062C393.745 35.062 396.643 35.062 399.359 34.53L399.219 33.2C398.295 33.34 397.301 33.41 396.307 33.466V32.444ZM403.335 29.56H401.725V24.31H399.877V37.204H401.725V31.086H403.335V29.56ZM409.212 27.292H412.166V25.794H407.392V34.306H408.288C409.94 34.306 411.312 34.25 412.88 33.956L412.74 32.458C411.508 32.682 410.416 32.752 409.212 32.78V27.292ZM416.338 24.296V29.266H415.176V24.548H413.454V36.602H415.176V30.75H416.338V37.204H418.088V24.296H416.338ZM419.657 30.33V31.786H431.305V30.33H419.657ZM425.453 32.486C422.667 32.486 420.987 33.34 420.987 34.852C420.987 36.364 422.667 37.218 425.453 37.218C428.239 37.218 429.933 36.364 429.933 34.852C429.933 33.34 428.239 32.486 425.453 32.486ZM425.453 33.886C427.175 33.886 428.057 34.194 428.057 34.852C428.057 35.524 427.175 35.818 425.453 35.818C423.731 35.818 422.849 35.524 422.849 34.852C422.849 34.194 423.731 33.886 425.453 33.886ZM425.481 24.59C422.653 24.59 420.819 25.556 420.819 27.11C420.819 28.692 422.653 29.644 425.481 29.644C428.323 29.644 430.157 28.692 430.157 27.11C430.157 25.556 428.323 24.59 425.481 24.59ZM425.481 26.004C427.245 26.004 428.253 26.382 428.253 27.11C428.253 27.866 427.245 28.23 425.481 28.23C423.731 28.23 422.723 27.866 422.723 27.11C422.723 26.382 423.731 26.004 425.481 26.004Z" fill="white"/>
<rect x="674" width="526" height="60" rx="10" fill="#435CE7"/>
<path d="M915.49 27.068H918.052V25.542H910.968V27.068H913.642V27.782C913.642 29.91 912.592 32.332 910.478 33.312L911.514 34.782C912.984 34.082 914.02 32.668 914.594 30.988C915.168 32.514 916.176 33.802 917.604 34.46L918.626 33.004C916.512 32.024 915.49 29.742 915.49 27.782V27.068ZM922.728 29.224H920.852V24.31H919.004V37.204H920.852V30.75H922.728V29.224ZM929.967 31.8V33.06H932.389V34.082H934.237V24.31H932.389V31.8H929.967ZM927.489 26.088C928.343 26.088 928.945 26.424 928.945 27.054C928.945 27.684 928.343 28.006 927.489 28.006C926.621 28.006 926.019 27.684 926.019 27.054C926.019 26.424 926.621 26.088 927.489 26.088ZM927.489 29.35C929.365 29.35 930.695 28.426 930.695 27.054C930.695 25.682 929.365 24.744 927.489 24.744C925.599 24.744 924.283 25.682 924.283 27.054C924.283 28.426 925.599 29.35 927.489 29.35ZM926.803 35.51V33.746H928.581V31.31C929.617 31.226 930.653 31.114 931.661 30.946L931.535 29.63C928.819 29.98 925.683 30.008 923.331 30.022L923.569 31.492C924.535 31.492 925.613 31.478 926.747 31.422V33.144H924.955V36.98H934.517V35.51H926.803ZM950.012 28.468C947.17 28.076 945.714 26.466 945.714 25.052V24.646H943.81V25.052C943.81 26.508 942.368 28.104 939.526 28.496L940.212 29.952C942.382 29.602 943.964 28.608 944.776 27.292C945.588 28.594 947.156 29.574 949.312 29.91L950.012 28.468ZM942.13 33.214H940.282V36.98H949.312V35.51H942.13V33.214ZM938.924 30.652V32.108H944.006V34.306H945.854V32.108H950.614V30.652H938.924ZM959.057 25.36H956.327V24.254H954.479V25.36H951.735V26.676H959.057V25.36ZM954.003 29.014C954.003 28.51 954.535 28.244 955.403 28.244C956.271 28.244 956.789 28.51 956.789 29.014C956.789 29.504 956.271 29.77 955.403 29.77C954.535 29.77 954.003 29.504 954.003 29.014ZM959.379 31.296C958.399 31.436 957.377 31.52 956.327 31.59V30.932C957.685 30.722 958.539 30.022 958.539 29.014C958.539 27.768 957.293 27.012 955.403 27.012C953.499 27.012 952.253 27.768 952.253 29.014C952.253 30.022 953.107 30.722 954.479 30.932V31.674C953.373 31.716 952.323 31.716 951.413 31.716L951.609 33.13C953.807 33.116 956.845 33.06 959.519 32.556L959.379 31.296ZM955.053 33.746H953.205V36.98H962.221V35.51H955.053V33.746ZM961.787 28.524V24.296H959.939V34.376H961.787V30.036H963.411V28.524H961.787Z" fill="white"/>
<rect x="947" y="154" width="253" height="54" rx="10" fill="#F6F7FE"/>
<path d="M1025.43 175.422H1023.99V181.848H1025.43V175.422ZM1016.65 178.698C1016.65 177.69 1017.47 177.032 1018.56 177.032C1019.66 177.032 1020.49 177.69 1020.49 178.698C1020.49 179.706 1019.66 180.364 1018.56 180.364C1017.47 180.364 1016.65 179.706 1016.65 178.698ZM1021.89 178.698C1021.89 177.032 1020.48 175.842 1018.56 175.842C1016.65 175.842 1015.25 177.032 1015.25 178.698C1015.25 180.364 1016.65 181.54 1018.56 181.54C1020.48 181.54 1021.89 180.364 1021.89 178.698ZM1018.59 186.79V185.67H1025.43V182.422H1017.14V183.556H1024V184.606H1017.17V187.924H1025.81V186.79H1018.59ZM1035.61 176.906H1032.52V175.464H1031.07V176.906H1027.97V178.068H1035.61V176.906ZM1030.08 181.036C1030.08 180.266 1030.78 179.79 1031.8 179.79C1032.81 179.79 1033.51 180.266 1033.51 181.036C1033.51 181.82 1032.81 182.296 1031.8 182.296C1030.78 182.296 1030.08 181.82 1030.08 181.036ZM1032.52 183.346C1033.94 183.122 1034.88 182.268 1034.88 181.036C1034.88 179.622 1033.62 178.684 1031.8 178.684C1029.97 178.684 1028.71 179.622 1028.71 181.036C1028.71 182.254 1029.65 183.122 1031.07 183.346V184.578C1029.88 184.62 1028.72 184.62 1027.71 184.62L1027.9 185.81C1030.19 185.81 1033.19 185.768 1035.97 185.292L1035.88 184.242C1034.8 184.396 1033.65 184.466 1032.52 184.536V183.346ZM1036.59 175.422V188.078H1038.05V175.422H1036.59ZM1045.96 186.972C1044.11 186.972 1043.07 186.58 1043.07 185.81C1043.07 185.054 1044.11 184.648 1045.96 184.648C1047.81 184.648 1048.86 185.054 1048.86 185.81C1048.86 186.58 1047.81 186.972 1045.96 186.972ZM1045.96 183.542C1043.24 183.542 1041.6 184.368 1041.6 185.81C1041.6 187.266 1043.24 188.078 1045.96 188.078C1048.69 188.078 1050.31 187.266 1050.31 185.81C1050.31 184.368 1048.69 183.542 1045.96 183.542ZM1044.42 180.294C1044.88 180.364 1045.43 180.406 1045.99 180.406C1046.55 180.406 1047.06 180.364 1047.53 180.294V181.582H1044.42V180.294ZM1045.99 176.766C1047.86 176.766 1049 177.214 1049 178.026C1049 178.838 1047.86 179.3 1045.99 179.3C1044.1 179.3 1042.96 178.838 1042.96 178.026C1042.96 177.214 1044.1 176.766 1045.99 176.766ZM1048.97 181.582V179.916C1049.93 179.496 1050.49 178.852 1050.49 178.026C1050.49 176.542 1048.74 175.646 1045.99 175.646C1043.21 175.646 1041.48 176.542 1041.48 178.026C1041.48 178.852 1042.02 179.496 1042.98 179.902V181.582H1040.26V182.73H1051.7V181.582H1048.97ZM1060.06 179.286H1057.14V176.962H1060.06V179.286ZM1055.7 179.286H1053.98V180.448H1063.21V179.286H1061.5V176.962H1063.28V175.8H1053.91V176.962H1055.7V179.286ZM1061.53 186.776H1055.69V185.054H1061.53V186.776ZM1064.33 182.618V181.456H1052.89V182.618H1057.89V183.906H1054.26V187.924H1062.94V183.906H1059.33V182.618H1064.33ZM1072.85 176.486H1071.41V178.558C1071.41 180.896 1070.18 183.29 1068.2 184.256L1069.08 185.418C1070.53 184.676 1071.59 183.206 1072.14 181.456C1072.68 183.108 1073.69 184.48 1075.05 185.18L1075.93 184.032C1074.03 183.094 1072.85 180.812 1072.85 178.558V176.486ZM1080.19 180.448H1078.21V175.436H1076.77V188.078H1078.21V181.638H1080.19V180.448ZM1086.74 186.972C1084.89 186.972 1083.85 186.58 1083.85 185.81C1083.85 185.054 1084.89 184.648 1086.74 184.648C1088.59 184.648 1089.64 185.054 1089.64 185.81C1089.64 186.58 1088.59 186.972 1086.74 186.972ZM1086.74 183.542C1084.02 183.542 1082.38 184.368 1082.38 185.81C1082.38 187.266 1084.02 188.078 1086.74 188.078C1089.47 188.078 1091.09 187.266 1091.09 185.81C1091.09 184.368 1089.47 183.542 1086.74 183.542ZM1085.2 180.294C1085.66 180.364 1086.21 180.406 1086.77 180.406C1087.33 180.406 1087.84 180.364 1088.31 180.294V181.582H1085.2V180.294ZM1086.77 176.766C1088.64 176.766 1089.78 177.214 1089.78 178.026C1089.78 178.838 1088.64 179.3 1086.77 179.3C1084.88 179.3 1083.74 178.838 1083.74 178.026C1083.74 177.214 1084.88 176.766 1086.77 176.766ZM1089.75 181.582V179.916C1090.71 179.496 1091.27 178.852 1091.27 178.026C1091.27 176.542 1089.52 175.646 1086.77 175.646C1083.99 175.646 1082.26 176.542 1082.26 178.026C1082.26 178.852 1082.8 179.496 1083.76 179.902V181.582H1081.04V182.73H1092.48V181.582H1089.75ZM1097.63 182.604C1099.13 182.156 1100.22 181.218 1100.76 180C1101.32 181.162 1102.42 182.058 1103.9 182.478L1104.54 181.358C1102.68 180.854 1101.56 179.594 1101.48 178.166H1104.24V177.004H1101.48V175.548H1100.04V177.004H1097.29V178.166H1100.02C1099.95 179.65 1098.85 180.966 1096.97 181.484L1097.63 182.604ZM1101.48 182.198H1100.04V184.368C1098.82 184.41 1097.63 184.41 1096.63 184.41L1096.82 185.6C1099.06 185.6 1102.08 185.586 1104.87 185.026L1104.75 183.976C1103.7 184.144 1102.58 184.242 1101.48 184.298V182.198ZM1105.52 175.422V188.106H1106.98V175.422H1105.52ZM1120.17 181.414C1117.68 180.994 1115.65 179.118 1115.65 177.158V176.206H1114.12V177.158C1114.12 179.104 1112.09 180.994 1109.58 181.414L1110.2 182.618C1112.26 182.212 1114.05 180.952 1114.89 179.272C1115.7 180.952 1117.49 182.212 1119.57 182.618L1120.17 181.414ZM1115.59 185.32V182.366H1114.15V185.32H1109.21V186.51H1120.66V185.32H1115.59ZM1129.42 176.892H1126.4V175.478H1124.96V176.892H1121.91V178.054H1129.42V176.892ZM1124.01 181.05C1124.01 180.266 1124.69 179.79 1125.69 179.79C1126.68 179.79 1127.35 180.266 1127.35 181.05C1127.35 181.82 1126.68 182.296 1125.69 182.296C1124.69 182.296 1124.01 181.82 1124.01 181.05ZM1126.4 183.346C1127.8 183.122 1128.71 182.254 1128.71 181.05C1128.71 179.622 1127.48 178.684 1125.69 178.684C1123.88 178.684 1122.65 179.622 1122.65 181.05C1122.65 182.254 1123.56 183.108 1124.96 183.346V184.578C1123.78 184.62 1122.65 184.62 1121.68 184.62L1121.88 185.81C1124.05 185.81 1126.97 185.782 1129.68 185.306L1129.56 184.242C1128.56 184.396 1127.48 184.466 1126.4 184.522V183.346ZM1133.51 180.714H1131.72V175.422H1130.28V188.078H1131.72V181.904H1133.51V180.714Z" fill="#283895"/>
<rect x="674" y="154" width="253" height="54" rx="10" fill="#F6F7FE"/>
<path d="M738.678 176.486H737.236V178.558C737.236 180.896 736.004 183.29 734.03 184.256L734.912 185.418C736.354 184.676 737.418 183.206 737.964 181.456C738.51 183.108 739.518 184.48 740.876 185.18L741.758 184.032C739.854 183.094 738.678 180.812 738.678 178.558V176.486ZM746.014 180.448H744.04V175.436H742.598V188.078H744.04V181.638H746.014V180.448ZM755.927 186.762H750.565V185.362H755.927V186.762ZM755.927 184.242H750.565V182.814H749.137V187.924H757.355V182.814H755.927V184.242ZM750.355 180.728C749.235 180.728 748.437 180.014 748.437 178.95C748.437 177.872 749.235 177.186 750.355 177.186C751.447 177.186 752.259 177.872 752.259 178.95C752.259 180.014 751.447 180.728 750.355 180.728ZM755.913 175.436V178.348H753.575C753.295 176.934 752.021 175.996 750.355 175.996C748.451 175.996 747.051 177.214 747.051 178.95C747.051 180.7 748.451 181.918 750.355 181.918C752.035 181.918 753.323 180.952 753.575 179.524H755.913V182.212H757.355V175.436H755.913ZM766.932 181.386C765 180.77 763.95 179.3 763.95 177.732V177.494H766.596V176.332H759.806V177.494H762.494V177.746C762.494 179.468 761.388 181.092 759.4 181.778L760.128 182.912C761.64 182.394 762.704 181.316 763.264 179.972C763.81 181.148 764.818 182.058 766.232 182.506L766.932 181.386ZM765.308 186.944C763.544 186.944 762.522 186.496 762.522 185.684C762.522 184.858 763.544 184.424 765.308 184.424C767.072 184.424 768.094 184.858 768.094 185.684C768.094 186.496 767.072 186.944 765.308 186.944ZM765.308 183.29C762.704 183.29 761.094 184.172 761.094 185.684C761.094 187.182 762.704 188.078 765.308 188.078C767.912 188.078 769.522 187.182 769.522 185.684C769.522 184.172 767.912 183.29 765.308 183.29ZM769.382 178.516V175.436H767.94V182.996H769.382V179.706H771.174V178.516H769.382ZM780.719 186.972C778.871 186.972 777.835 186.58 777.835 185.81C777.835 185.054 778.871 184.648 780.719 184.648C782.567 184.648 783.617 185.054 783.617 185.81C783.617 186.58 782.567 186.972 780.719 186.972ZM780.719 183.542C778.003 183.542 776.365 184.368 776.365 185.81C776.365 187.266 778.003 188.078 780.719 188.078C783.449 188.078 785.073 187.266 785.073 185.81C785.073 184.368 783.449 183.542 780.719 183.542ZM779.179 180.294C779.641 180.364 780.187 180.406 780.747 180.406C781.307 180.406 781.825 180.364 782.287 180.294V181.582H779.179V180.294ZM780.747 176.766C782.623 176.766 783.757 177.214 783.757 178.026C783.757 178.838 782.623 179.3 780.747 179.3C778.857 179.3 777.723 178.838 777.723 178.026C777.723 177.214 778.857 176.766 780.747 176.766ZM783.729 181.582V179.916C784.695 179.496 785.255 178.852 785.255 178.026C785.255 176.542 783.505 175.646 780.747 175.646C777.975 175.646 776.239 176.542 776.239 178.026C776.239 178.852 776.785 179.496 777.737 179.902V181.582H775.021V182.73H786.459V181.582H783.729ZM798.598 180.098C796.05 179.734 794.146 178.152 794.146 176.514V175.842H792.62V176.514C792.62 178.18 790.744 179.734 788.168 180.098L788.728 181.26C790.828 180.924 792.578 179.874 793.39 178.404C794.216 179.86 795.938 180.924 798.038 181.26L798.598 180.098ZM799.088 182.45H787.664V183.626H792.62V188.092H794.062V183.626H799.088V182.45ZM807.611 176.486H806.169V178.558C806.169 180.896 804.937 183.29 802.963 184.256L803.845 185.418C805.287 184.676 806.351 183.206 806.897 181.456C807.443 183.108 808.451 184.48 809.809 185.18L810.691 184.032C808.787 183.094 807.611 180.812 807.611 178.558V176.486ZM814.947 180.448H812.973V175.436H811.531V188.078H812.973V181.638H814.947V180.448ZM821.5 186.972C819.652 186.972 818.616 186.58 818.616 185.81C818.616 185.054 819.652 184.648 821.5 184.648C823.348 184.648 824.398 185.054 824.398 185.81C824.398 186.58 823.348 186.972 821.5 186.972ZM821.5 183.542C818.784 183.542 817.146 184.368 817.146 185.81C817.146 187.266 818.784 188.078 821.5 188.078C824.23 188.078 825.854 187.266 825.854 185.81C825.854 184.368 824.23 183.542 821.5 183.542ZM819.96 180.294C820.422 180.364 820.968 180.406 821.528 180.406C822.088 180.406 822.606 180.364 823.068 180.294V181.582H819.96V180.294ZM821.528 176.766C823.404 176.766 824.538 177.214 824.538 178.026C824.538 178.838 823.404 179.3 821.528 179.3C819.638 179.3 818.504 178.838 818.504 178.026C818.504 177.214 819.638 176.766 821.528 176.766ZM824.51 181.582V179.916C825.476 179.496 826.036 178.852 826.036 178.026C826.036 176.542 824.286 175.646 821.528 175.646C818.756 175.646 817.02 176.542 817.02 178.026C817.02 178.852 817.566 179.496 818.518 179.902V181.582H815.802V182.73H827.24V181.582H824.51ZM835.795 180.84C834.059 181.162 832.533 181.232 830.363 181.246V179.804H834.661V176.192H828.921V177.354H833.233V178.712H828.949V182.422H829.971C832.393 182.422 834.045 182.352 835.949 182.016L835.795 180.84ZM834.227 186.972C832.435 186.972 831.427 186.538 831.427 185.726C831.427 184.928 832.435 184.494 834.227 184.494C836.005 184.494 837.027 184.928 837.027 185.726C837.027 186.538 836.005 186.972 834.227 186.972ZM834.227 183.374C831.609 183.374 830.013 184.242 830.013 185.726C830.013 187.21 831.609 188.078 834.227 188.078C836.845 188.078 838.441 187.21 838.441 185.726C838.441 184.242 836.845 183.374 834.227 183.374ZM840.107 178.474V177.284H838.315V175.422H836.873V183.08H838.315V181.134H840.107V179.944H838.315V178.474H840.107ZM850.759 178.152V179.328H852.985V181.918H854.441V175.436H852.985V178.152H850.759ZM851.431 180.728C849.569 180.14 848.477 178.74 848.477 177.312V177.172H851.123V176.01H844.361V177.172H847.021V177.298C847.021 178.796 845.873 180.364 843.941 181.008L844.641 182.128C846.125 181.652 847.203 180.616 847.763 179.356C848.309 180.49 849.345 181.4 850.759 181.848L851.431 180.728ZM847.651 186.818V185.698H854.441V182.492H846.209V183.626H853.013V184.634H846.223V187.952H854.861V186.818H847.651ZM857.102 176.192V177.368H861.442C861.204 179.286 859.482 180.826 856.528 181.61L857.088 182.758C860.826 181.764 862.996 179.468 862.996 176.192H857.102ZM859.818 184.256H865.04V186.762H859.818V184.256ZM858.39 187.924H866.468V183.108H858.39V187.924ZM868.26 178.362H866.468V175.422H865.026V182.562H866.468V179.552H868.26V178.362Z" fill="#283895"/>
<rect x="401" y="154" width="253" height="54" rx="10" fill="#F6F7FE"/>
<path d="M467.988 178.824V180.014H470.284V184.69H471.726V175.45H470.284V178.824H467.988ZM468.772 181.778C466.882 181.12 465.804 179.538 465.804 177.984V177.55H468.436V176.388H461.674V177.55H464.348V177.984C464.348 179.692 463.2 181.358 461.24 182.044L461.982 183.178C463.48 182.66 464.544 181.554 465.104 180.182C465.636 181.428 466.658 182.422 468.058 182.898L468.772 181.778ZM464.978 186.664V183.892H463.536V187.84H472.048V186.664H464.978ZM485.821 186.762H480.459V185.362H485.821V186.762ZM485.821 184.242H480.459V182.814H479.031V187.924H487.249V182.814H485.821V184.242ZM480.249 180.728C479.129 180.728 478.331 180.014 478.331 178.95C478.331 177.872 479.129 177.186 480.249 177.186C481.341 177.186 482.153 177.872 482.153 178.95C482.153 180.014 481.341 180.728 480.249 180.728ZM485.807 175.436V178.348H483.469C483.189 176.934 481.915 175.996 480.249 175.996C478.345 175.996 476.945 177.214 476.945 178.95C476.945 180.7 478.345 181.918 480.249 181.918C481.929 181.918 483.217 180.952 483.469 179.524H485.807V182.212H487.249V175.436H485.807ZM498.002 179.944H492.22V177.256H498.002V179.944ZM499.43 176.108H490.792V181.106H499.43V176.108ZM500.858 182.66H489.392V183.822H494.362V188.078H495.804V183.822H500.858V182.66ZM506.403 178.726H509.077V177.564H506.403V175.688H504.961V177.564H502.245V178.726H504.961V179.454C504.961 181.526 503.785 183.654 501.853 184.578L502.651 185.684C504.093 185.012 505.143 183.626 505.703 181.988C506.221 183.514 507.229 184.802 508.587 185.46L509.385 184.354C507.509 183.444 506.403 181.386 506.403 179.454V178.726ZM513.795 180.504H511.821V175.422H510.379V188.078H511.821V181.694H513.795V180.504ZM526.155 179.944H520.373V177.256H526.155V179.944ZM527.583 176.108H518.945V181.106H527.583V176.108ZM529.011 182.66H517.545V183.822H522.515V188.078H523.957V183.822H529.011V182.66ZM539.847 180.462C540.197 179.16 540.197 178.11 540.197 177.102V176.038H531.517V177.2H538.769C538.769 178.152 538.755 179.062 538.433 180.308L539.847 180.462ZM535.857 186.972C533.981 186.972 532.833 186.51 532.833 185.712C532.833 184.928 533.981 184.466 535.857 184.466C537.719 184.466 538.839 184.928 538.839 185.712C538.839 186.51 537.719 186.972 535.857 186.972ZM535.857 183.36C533.127 183.36 531.405 184.256 531.405 185.712C531.405 187.182 533.127 188.078 535.857 188.078C538.545 188.078 540.281 187.182 540.281 185.712C540.281 184.256 538.545 183.36 535.857 183.36ZM536.137 181.218V178.894H534.681V181.218H530.201V182.38H541.597V181.218H536.137ZM545.896 184.046C545.042 184.046 544.44 183.36 544.44 182.31C544.44 181.26 545.042 180.56 545.896 180.56C546.75 180.56 547.352 181.26 547.352 182.31C547.352 183.36 546.75 184.046 545.896 184.046ZM545.896 179.37C544.3 179.37 543.152 180.56 543.152 182.31C543.152 184.046 544.3 185.25 545.896 185.25C547.492 185.25 548.64 184.046 548.64 182.31C548.64 180.56 547.492 179.37 545.896 179.37ZM546.61 175.8H545.182V177.494H542.788V178.656H548.976V177.494H546.61V175.8ZM552.21 175.436V180.672H550.866V175.702H549.522V187.49H550.866V181.862H552.21V188.078H553.582V175.436H552.21ZM559.813 178.726H562.487V177.564H559.813V175.688H558.371V177.564H555.655V178.726H558.371V179.454C558.371 181.526 557.195 183.654 555.263 184.578L556.061 185.684C557.503 185.012 558.553 183.626 559.113 181.988C559.631 183.514 560.639 184.802 561.997 185.46L562.795 184.354C560.919 183.444 559.813 181.386 559.813 179.454V178.726ZM567.205 180.504H565.231V175.422H563.789V188.078H565.231V181.694H567.205V180.504ZM577.703 178.824V180.014H579.999V184.69H581.441V175.45H579.999V178.824H577.703ZM578.487 181.778C576.597 181.12 575.519 179.538 575.519 177.984V177.55H578.151V176.388H571.389V177.55H574.063V177.984C574.063 179.692 572.915 181.358 570.955 182.044L571.697 183.178C573.195 182.66 574.259 181.554 574.819 180.182C575.351 181.428 576.373 182.422 577.773 182.898L578.487 181.778ZM574.693 186.664V183.892H573.251V187.84H581.763V186.664H574.693ZM591.032 176.57H588.162V175.38H586.706V176.57H583.808V177.634H591.032V176.57ZM585.768 180.028C585.768 179.426 586.412 179.062 587.42 179.062C588.428 179.062 589.072 179.426 589.072 180.028C589.072 180.616 588.428 180.966 587.42 180.966C586.412 180.966 585.768 180.616 585.768 180.028ZM591.382 182.408C590.36 182.562 589.254 182.646 588.162 182.716V181.918C589.562 181.75 590.43 181.05 590.43 180.028C590.43 178.824 589.24 178.082 587.42 178.082C585.6 178.082 584.41 178.824 584.41 180.028C584.41 181.064 585.292 181.75 586.706 181.918V182.786C585.544 182.814 584.424 182.828 583.486 182.828L583.654 183.976C585.838 183.962 588.848 183.906 591.494 183.402L591.382 182.408ZM586.762 184.69H585.32V187.84H593.93V186.664H586.762V184.69ZM593.496 179.72V175.422H592.054V185.32H593.496V180.91H595.232V179.72H593.496Z" fill="#283895"/>
<rect x="128" y="154" width="253" height="54" rx="10" fill="#F6F7FE"/>
<path d="M189.065 181.484C187.497 181.764 186.153 181.82 183.899 181.834V180.224H188.071V179.09H183.899V177.592H188.309V176.43H182.457V182.982H183.451C186.027 182.982 187.511 182.94 189.219 182.618L189.065 181.484ZM185.257 183.962H183.801V187.84H192.313V186.664H185.257V183.962ZM191.809 179.286V175.436H190.367V184.83H191.809V180.476H193.601V179.286H191.809ZM205.53 181.414C203.038 180.994 201.008 179.118 201.008 177.158V176.206H199.482V177.158C199.482 179.104 197.452 180.994 194.946 181.414L195.562 182.618C197.62 182.212 199.412 180.952 200.252 179.272C201.064 180.952 202.856 182.212 204.928 182.618L205.53 181.414ZM200.952 185.32V182.366H199.51V185.32H194.568V186.51H206.02V185.32H200.952ZM212.167 180.35H209.073V178.74H212.167V180.35ZM213.595 175.968H212.167V177.634H209.073V175.968H207.631V181.498H213.595V175.968ZM210.347 185.712H217.067V182.478H208.905V183.598H215.639V184.648H208.933V187.966H217.487V186.832H210.347V185.712ZM217.067 178.026V175.436H215.625V181.918H217.067V179.216H218.845V178.026H217.067ZM224.25 177.886H226.924V176.696H220.05V177.886H222.808V179.104C222.808 181.204 221.52 183.598 219.588 184.522L220.414 185.67C221.87 184.956 222.99 183.444 223.55 181.68C224.124 183.276 225.202 184.676 226.616 185.348L227.414 184.214C225.496 183.304 224.25 181.064 224.25 179.104V177.886ZM231.586 180.42H229.612V175.436H228.17V188.078H229.612V181.61H231.586V180.42ZM243.907 181.624V180.462H242.199C242.479 179.02 242.479 177.928 242.479 176.976V176.01H233.883V177.172H241.065C241.065 178.082 241.037 179.104 240.757 180.462H232.455V181.624H237.439V183.696H233.617V184.858H241.093V188.078H242.535V183.696H238.895V181.624H243.907ZM258.394 175.436H256.952V184.62H258.394V175.436ZM249.63 179.44C249.63 178.278 250.456 177.522 251.576 177.522C252.682 177.522 253.522 178.278 253.522 179.44C253.522 180.588 252.682 181.358 251.576 181.358C250.456 181.358 249.63 180.588 249.63 179.44ZM254.922 179.44C254.922 177.592 253.48 176.276 251.576 176.276C249.672 176.276 248.216 177.592 248.216 179.44C248.216 181.274 249.672 182.604 251.576 182.604C253.48 182.604 254.922 181.274 254.922 179.44ZM251.59 186.664V183.696H250.134V187.84H258.758V186.664H251.59ZM261.685 180.728C263.897 180.49 265.633 179.58 266.319 178.278C266.991 179.58 268.713 180.49 270.953 180.728L271.457 179.608C269.105 179.37 267.467 178.362 267.285 177.214H270.995V176.052H261.657V177.214H265.339C265.157 178.362 263.519 179.37 261.167 179.608L261.685 180.728ZM266.291 186.944C264.443 186.944 263.407 186.538 263.407 185.768C263.407 184.984 264.443 184.578 266.291 184.578C268.139 184.578 269.189 184.984 269.189 185.768C269.189 186.538 268.139 186.944 266.291 186.944ZM266.291 183.444C263.589 183.444 261.937 184.298 261.937 185.768C261.937 187.238 263.589 188.078 266.291 188.078C269.007 188.078 270.645 187.238 270.645 185.768C270.645 184.298 269.007 183.444 266.291 183.444ZM260.593 181.372V182.534H272.031V181.372H260.593ZM279.967 177.998H282.053V176.808H276.341V177.998H278.567V178.908C278.567 181.162 277.727 183.444 275.935 184.564L276.803 185.628C278.021 184.858 278.833 183.5 279.281 181.904C279.729 183.374 280.513 184.62 281.703 185.32L282.543 184.27C280.779 183.248 279.967 181.064 279.967 178.908V177.998ZM282.991 179.874H281.129V181.05H282.991V187.462H284.349V175.674H282.991V179.874ZM285.539 175.422V188.064H286.911V175.422H285.539ZM295.914 179.286H293.002V176.962H295.914V179.286ZM291.56 179.286H289.838V180.448H299.064V179.286H297.356V176.962H299.134V175.8H289.768V176.962H291.56V179.286ZM297.384 186.776H291.546V185.054H297.384V186.776ZM300.184 182.618V181.456H288.746V182.618H293.744V183.906H290.118V187.924H298.798V183.906H295.186V182.618H300.184ZM311.717 176.5H308.847V175.324H307.391V176.5H304.493V177.55H311.717V176.5ZM306.453 179.832C306.453 179.258 307.097 178.908 308.105 178.908C309.113 178.908 309.757 179.258 309.757 179.832C309.757 180.392 309.113 180.728 308.105 180.728C307.097 180.728 306.453 180.392 306.453 179.832ZM312.067 182.156C311.045 182.31 309.939 182.38 308.847 182.436V181.652C310.247 181.484 311.115 180.826 311.115 179.832C311.115 178.656 309.925 177.942 308.105 177.942C306.285 177.942 305.095 178.656 305.095 179.832C305.095 180.826 305.963 181.498 307.391 181.652V182.492C306.229 182.52 305.123 182.52 304.171 182.52L304.339 183.668C306.551 183.654 309.505 183.64 312.179 183.164L312.067 182.156ZM305.739 185.698H312.739V188.092H314.181V184.55H305.739V185.698ZM315.917 179.174H314.181V175.45H312.739V183.99H314.181V180.364H315.917V179.174ZM318.746 178.11H322.008V176.934H317.332V185.068H318.172C319.95 185.068 321.252 185.012 322.778 184.718L322.652 183.528C321.35 183.794 320.202 183.864 318.746 183.878V178.11ZM326.32 175.422V180.42H324.822V175.688H323.464V187.448H324.822V181.596H326.32V188.064H327.692V175.422H326.32Z" fill="#283895"/>
<rect x="947" y="80" width="253" height="54" rx="10" fill="#F6F7FE"/>
<path d="M1005.36 102.486H1003.92V104.558C1003.92 106.896 1002.69 109.29 1000.72 110.256L1001.6 111.418C1003.04 110.676 1004.1 109.206 1004.65 107.456C1005.2 109.108 1006.2 110.48 1007.56 111.18L1008.44 110.032C1006.54 109.094 1005.36 106.812 1005.36 104.558V102.486ZM1012.7 106.448H1010.73V101.436H1009.28V114.078H1010.73V107.638H1012.7V106.448ZM1022.61 112.762H1017.25V111.362H1022.61V112.762ZM1022.61 110.242H1017.25V108.814H1015.82V113.924H1024.04V108.814H1022.61V110.242ZM1017.04 106.728C1015.92 106.728 1015.12 106.014 1015.12 104.95C1015.12 103.872 1015.92 103.186 1017.04 103.186C1018.13 103.186 1018.94 103.872 1018.94 104.95C1018.94 106.014 1018.13 106.728 1017.04 106.728ZM1022.6 101.436V104.348H1020.26C1019.98 102.934 1018.71 101.996 1017.04 101.996C1015.14 101.996 1013.74 103.214 1013.74 104.95C1013.74 106.7 1015.14 107.918 1017.04 107.918C1018.72 107.918 1020.01 106.952 1020.26 105.524H1022.6V108.212H1024.04V101.436H1022.6ZM1033.62 107.386C1031.69 106.77 1030.64 105.3 1030.64 103.732V103.494H1033.28V102.332H1026.49V103.494H1029.18V103.746C1029.18 105.468 1028.07 107.092 1026.09 107.778L1026.81 108.912C1028.33 108.394 1029.39 107.316 1029.95 105.972C1030.5 107.148 1031.5 108.058 1032.92 108.506L1033.62 107.386ZM1031.99 112.944C1030.23 112.944 1029.21 112.496 1029.21 111.684C1029.21 110.858 1030.23 110.424 1031.99 110.424C1033.76 110.424 1034.78 110.858 1034.78 111.684C1034.78 112.496 1033.76 112.944 1031.99 112.944ZM1031.99 109.29C1029.39 109.29 1027.78 110.172 1027.78 111.684C1027.78 113.182 1029.39 114.078 1031.99 114.078C1034.6 114.078 1036.21 113.182 1036.21 111.684C1036.21 110.172 1034.6 109.29 1031.99 109.29ZM1036.07 104.516V101.436H1034.63V108.996H1036.07V105.706H1037.86V104.516H1036.07ZM1044.06 104.096H1045.36V109.85C1044.93 109.864 1044.49 109.878 1044.06 109.892V104.096ZM1046.65 104.096H1047.59V102.934H1041.83V104.096H1042.76V109.92C1042.32 109.92 1041.93 109.92 1041.58 109.92L1041.75 111.11C1043.39 111.11 1045.96 111.054 1047.89 110.704L1047.8 109.654C1047.43 109.696 1047.05 109.724 1046.65 109.766V104.096ZM1048.75 104.978H1047.29V106.154H1048.75V107.596H1047.29V108.772H1048.75V113.448H1050.11V101.716H1048.75V104.978ZM1051.21 101.422V114.078H1052.6V101.422H1051.21ZM1055.06 102.766V103.942H1059.57C1059.32 106.854 1057.75 109.08 1054.43 110.676L1055.2 111.824C1059.54 109.724 1061.06 106.532 1061.06 102.766H1055.06ZM1063.34 101.436V114.078H1064.78V101.436H1063.34ZM1075.52 104.6H1069.85V102.948H1075.52V104.6ZM1076.93 101.828H1068.42V105.734H1076.93V101.828ZM1078.42 107.764V106.616H1066.96V107.764H1071.95V108.814H1068.32V109.906H1075.56V110.802H1068.35V113.966H1077.34V112.86H1069.78V111.824H1076.97V108.814H1073.4V107.764H1078.42ZM1084.27 103.97H1086.45V109.64H1084.27V103.97ZM1082.92 110.788H1087.79V102.822H1082.92V110.788ZM1091.92 101.436V106.364H1090.48V101.674H1089.12V113.476H1090.48V107.54H1091.92V114.064H1093.3V101.436H1091.92ZM1102.79 106.63C1100.95 106.938 1099.37 107.008 1097.2 107.008V105.608H1101.53V102.024H1095.75V103.2H1100.11V104.516H1095.77V108.184H1096.84C1099.26 108.184 1100.97 108.128 1102.96 107.806L1102.79 106.63ZM1104.12 112.762H1098.7V111.446H1104.12V112.762ZM1104.12 110.312H1098.7V109.01H1097.26V113.924H1105.55V109.01H1104.12V110.312ZM1104.1 101.436V108.422H1105.55V101.436H1104.1ZM1111.7 108.604C1113.2 108.156 1114.29 107.218 1114.84 106C1115.4 107.162 1116.49 108.058 1117.98 108.478L1118.62 107.358C1116.76 106.854 1115.64 105.594 1115.55 104.166H1118.31V103.004H1115.55V101.534H1114.11V103.004H1111.37V104.166H1114.1C1114.03 105.65 1112.92 106.966 1111.05 107.484L1111.7 108.604ZM1115.55 108.198H1114.11V110.368C1112.89 110.41 1111.7 110.41 1110.71 110.41L1110.89 111.6C1113.13 111.6 1116.16 111.586 1118.94 111.026L1118.83 109.976C1117.78 110.144 1116.66 110.242 1115.55 110.298V108.198ZM1119.6 101.422V114.106H1121.06V101.422H1119.6ZM1134.25 107.414C1131.75 106.994 1129.72 105.118 1129.72 103.158V102.206H1128.2V103.158C1128.2 105.104 1126.17 106.994 1123.66 107.414L1124.28 108.618C1126.34 108.212 1128.13 106.952 1128.97 105.272C1129.78 106.952 1131.57 108.212 1133.64 108.618L1134.25 107.414ZM1129.67 111.32V108.366H1128.23V111.32H1123.28V112.51H1134.74V111.32H1129.67ZM1143.5 102.892H1140.48V101.464H1139.03V102.892H1135.98V104.054H1143.5V102.892ZM1138.08 107.05C1138.08 106.266 1138.77 105.79 1139.76 105.79C1140.76 105.79 1141.43 106.266 1141.43 107.05C1141.43 107.82 1140.76 108.296 1139.76 108.296C1138.77 108.296 1138.08 107.82 1138.08 107.05ZM1140.48 109.346C1141.88 109.122 1142.79 108.254 1142.79 107.05C1142.79 105.622 1141.55 104.684 1139.76 104.684C1137.96 104.684 1136.72 105.622 1136.72 107.05C1136.72 108.254 1137.63 109.108 1139.03 109.346V110.578C1137.86 110.62 1136.72 110.62 1135.76 110.62L1135.95 111.81C1138.12 111.81 1141.05 111.782 1143.75 111.306L1143.64 110.242C1142.63 110.396 1141.55 110.466 1140.48 110.522V109.346ZM1147.6 106.714H1145.8V101.422H1144.35V114.078H1145.8V107.904H1147.6V106.714Z" fill="#283895"/>
<rect x="401" y="80" width="253" height="54" rx="10" fill="#F6F7FE"/>
<path d="M478.214 110.172H476.758V113.84H485.48V112.664H478.214V110.172ZM478.018 104.348C478.018 103.452 479.166 102.948 481.042 102.948C482.904 102.948 484.052 103.452 484.052 104.348C484.052 105.244 482.904 105.748 481.042 105.748C479.166 105.748 478.018 105.244 478.018 104.348ZM481.756 108.058V106.882C484.08 106.728 485.55 105.79 485.55 104.348C485.55 102.752 483.772 101.786 481.042 101.786C478.312 101.786 476.534 102.752 476.534 104.348C476.534 105.79 477.99 106.714 480.3 106.882V108.058H475.316V109.22H486.754V108.058H481.756ZM498.375 101.436H496.919V107.918H498.375V101.436ZM495.645 106.504C493.699 105.902 492.565 104.362 492.565 102.724V101.772H491.095V102.724C491.095 104.432 489.961 106.07 487.959 106.728L488.673 107.876C490.199 107.358 491.277 106.308 491.851 104.95C492.425 106.196 493.489 107.162 494.945 107.638L495.645 106.504ZM491.529 112.832V111.726H498.375V108.52H490.087V109.64H496.947V110.676H490.115V113.966H498.753V112.832H491.529ZM501.204 102.766V103.942H505.628C505.334 106.854 503.668 109.08 500.574 110.662L501.372 111.768C505.502 109.682 507.07 106.434 507.07 102.766H501.204ZM512.292 106.42H510.374V101.422H508.932V114.064H510.374V107.624H512.292V106.42ZM524.179 107.61C521.687 107.162 519.657 105.216 519.657 103.2V102.248H518.131V103.2C518.131 105.202 516.101 107.148 513.609 107.61L514.225 108.8C516.283 108.38 518.061 107.064 518.887 105.328C519.713 107.064 521.491 108.38 523.549 108.8L524.179 107.61ZM513.217 111.264V112.454H524.669V111.264H513.217ZM532.702 109.822H530.518V106.714H532.702V109.822ZM532.702 105.566H530.518V102.598H529.16V110.998H534.046V102.598H532.702V105.566ZM538.162 101.422V106.364H536.72V101.674H535.362V113.49H536.72V107.54H538.162V114.078H539.534V101.436L538.162 101.422ZM542.321 106.476C544.561 106.322 546.269 105.706 547.067 104.642C547.865 105.706 549.601 106.322 551.841 106.476L552.233 105.398C549.769 105.258 548.201 104.558 547.921 103.564H551.659V102.486H547.795V101.38H546.353V102.486H542.503V103.564H546.227C545.947 104.558 544.393 105.258 541.901 105.398L542.321 106.476ZM552.793 108.016V106.938H541.383V108.016H546.353V108.996H542.713V110.06H549.951V110.942H542.741V113.966H551.729V112.888H544.169V111.936H551.365V108.996H547.795V108.016H552.793ZM561.428 103.872H564.172V102.696H557.242V103.872H559.972V104.894C559.972 107.176 558.698 109.584 556.752 110.522L557.606 111.67C559.076 110.914 560.168 109.374 560.728 107.582C561.288 109.276 562.366 110.704 563.808 111.404L564.648 110.27C562.688 109.36 561.428 107.036 561.428 104.894V103.872ZM565.936 101.422V105.944H563.444V107.134H565.936V114.092H567.378V101.422H565.936ZM570.025 102.192V103.368H574.365C574.127 105.286 572.405 106.826 569.451 107.61L570.011 108.758C573.749 107.764 575.919 105.468 575.919 102.192H570.025ZM572.741 110.256H577.963V112.762H572.741V110.256ZM571.313 113.924H579.391V109.108H571.313V113.924ZM581.183 104.362H579.391V101.422H577.949V108.562H579.391V105.552H581.183V104.362Z" fill="#283895"/>
<rect x="674" y="80" width="253" height="54" rx="10" fill="#F6F7FE"/>
<path d="M710.511 109.822H708.327V106.714H710.511V109.822ZM710.511 105.566H708.327V102.598H706.969V110.998H711.855V102.598H710.511V105.566ZM715.971 101.422V106.364H714.529V101.674H713.171V113.49H714.529V107.54H715.971V114.078H717.343V101.436L715.971 101.422ZM721.18 107.232H725.086V106.084H721.18V103.718H725.604V102.528H719.738V111.138H720.732C723.028 111.138 724.61 111.082 726.416 110.76L726.29 109.598C724.638 109.878 723.196 109.948 721.18 109.962V107.232ZM728.222 101.408V106.056H725.8V107.246H728.222V114.092H729.678V101.408H728.222ZM733.977 107.246H738.387V102.556H732.493V103.732H736.931V106.084H732.521V111.096H733.599C735.825 111.096 737.715 111.026 739.885 110.648L739.731 109.472C737.729 109.794 735.979 109.892 733.977 109.906V107.246ZM740.781 101.408V114.106H742.237V101.408H740.781ZM749.5 107.246H753.91V102.556H748.016V103.732H752.454V106.084H748.044V111.096H749.122C751.348 111.096 753.238 111.026 755.408 110.648L755.254 109.472C753.252 109.794 751.502 109.892 749.5 109.906V107.246ZM756.304 101.408V114.106H757.76V101.408H756.304ZM764.383 102.486H762.941V104.558C762.941 106.896 761.709 109.29 759.735 110.256L760.617 111.418C762.059 110.676 763.123 109.206 763.669 107.456C764.215 109.108 765.223 110.48 766.581 111.18L767.463 110.032C765.559 109.094 764.383 106.812 764.383 104.558V102.486ZM771.719 106.448H769.745V101.436H768.303V114.078H769.745V107.638H771.719V106.448ZM781.534 101.422V114.106H782.99V101.422H781.534ZM776.256 102.36C774.38 102.36 773.008 104.096 773.008 106.812C773.008 109.556 774.38 111.278 776.256 111.278C778.146 111.278 779.518 109.556 779.518 106.812C779.518 104.096 778.146 102.36 776.256 102.36ZM776.256 103.662C777.362 103.662 778.132 104.852 778.132 106.812C778.132 108.8 777.362 109.99 776.256 109.99C775.164 109.99 774.394 108.8 774.394 106.812C774.394 104.852 775.164 103.662 776.256 103.662ZM787.961 111.74H795.339V108.618H786.519V109.738H793.911V110.69H786.547V113.924H795.773V112.804H787.961V111.74ZM794.975 106.476C795.241 105.09 795.241 103.984 795.241 102.99V101.968H786.659V103.102H793.827C793.827 103.424 793.827 103.746 793.813 104.096L786.323 104.32L786.491 105.426L793.743 105.118C793.701 105.538 793.645 105.986 793.533 106.476H785.231V107.624H796.627V106.476H794.975ZM803.558 102.71C805.518 102.71 806.568 103.088 806.568 103.816C806.568 104.53 805.518 104.908 803.558 104.908C801.598 104.908 800.548 104.53 800.548 103.816C800.548 103.088 801.598 102.71 803.558 102.71ZM803.558 105.986C806.386 105.986 808.066 105.216 808.066 103.816C808.066 102.402 806.386 101.632 803.558 101.632C800.716 101.632 799.05 102.402 799.05 103.816C799.05 105.216 800.716 105.986 803.558 105.986ZM800.646 111.81H807.842V108.786H799.19V109.878H806.428V110.788H799.218V113.966H808.206V112.86H800.646V111.81ZM797.832 106.728V107.876H809.284V106.728H797.832ZM819.053 113C817.149 113 816.155 112.692 816.155 112.02C816.155 111.376 817.149 111.054 819.053 111.054C820.971 111.054 821.965 111.376 821.965 112.02C821.965 112.692 820.971 113 819.053 113ZM819.053 109.99C816.309 109.99 814.699 110.69 814.699 112.02C814.699 113.364 816.309 114.078 819.053 114.078C821.811 114.078 823.407 113.364 823.407 112.02C823.407 110.69 821.811 109.99 819.053 109.99ZM819.795 108.044V107.008H823.505V105.902H816.253V104.922H823.113V103.844H816.253V102.892H823.421V101.786H814.811V107.008H818.339V108.044H813.341V109.206H824.779V108.044H819.795ZM833.474 102.878H830.464V101.436H829.022V102.878H826.012V104.026H833.474V102.878ZM828.056 107.008C828.056 106.21 828.742 105.734 829.736 105.734C830.744 105.734 831.43 106.21 831.43 107.008C831.43 107.806 830.744 108.282 829.736 108.282C828.742 108.282 828.056 107.806 828.056 107.008ZM832.802 107.008C832.802 105.58 831.556 104.614 829.736 104.614C827.93 104.614 826.67 105.58 826.67 107.008C826.67 108.45 827.93 109.402 829.736 109.402C831.556 109.402 832.802 108.45 832.802 107.008ZM829.316 110.186H827.86V113.84H836.372V112.664H829.316V110.186ZM835.868 105.468V101.436H834.426V110.914H835.868V106.658H837.66V105.468H835.868ZM845.945 103.886H848.619V102.696H841.745V103.886H844.503V105.104C844.503 107.204 843.215 109.598 841.283 110.522L842.109 111.67C843.565 110.956 844.685 109.444 845.245 107.68C845.819 109.276 846.897 110.676 848.311 111.348L849.109 110.214C847.191 109.304 845.945 107.064 845.945 105.104V103.886ZM853.281 106.42H851.307V101.436H849.865V114.078H851.307V107.61H853.281V106.42ZM860.702 108.856V109.864H863.18V111.04H864.622V101.422H863.18V108.856H860.702ZM858.182 102.976C859.218 102.976 859.932 103.424 859.932 104.138C859.932 104.852 859.218 105.3 858.182 105.3C857.132 105.3 856.418 104.852 856.418 104.138C856.418 103.424 857.132 102.976 858.182 102.976ZM858.182 106.364C860.03 106.364 861.304 105.482 861.304 104.138C861.304 102.794 860.03 101.912 858.182 101.912C856.32 101.912 855.046 102.794 855.046 104.138C855.046 105.482 856.32 106.364 858.182 106.364ZM857.608 110.634H859.05V108.198C860.128 108.128 861.234 108.016 862.298 107.834L862.186 106.798C859.512 107.134 856.404 107.162 854.08 107.176L854.262 108.352C855.27 108.352 856.404 108.338 857.608 108.282V110.634ZM857.23 112.664V110.102H855.788V113.84H864.916V112.664H857.23ZM877.64 102.906H874.546V101.464H873.104V102.906H869.996V104.068H877.64V102.906ZM872.11 107.036C872.11 106.266 872.81 105.79 873.832 105.79C874.84 105.79 875.54 106.266 875.54 107.036C875.54 107.82 874.84 108.296 873.832 108.296C872.81 108.296 872.11 107.82 872.11 107.036ZM874.546 109.346C875.974 109.122 876.912 108.268 876.912 107.036C876.912 105.622 875.652 104.684 873.832 104.684C871.998 104.684 870.738 105.622 870.738 107.036C870.738 108.254 871.676 109.122 873.104 109.346V110.578C871.914 110.62 870.752 110.62 869.744 110.62L869.926 111.81C872.222 111.81 875.218 111.768 878.004 111.292L877.906 110.242C876.828 110.396 875.68 110.466 874.546 110.536V109.346ZM878.62 101.422V114.078H880.076V101.422H878.62ZM893.237 106.098C890.689 105.734 888.785 104.152 888.785 102.514V101.842H887.259V102.514C887.259 104.18 885.383 105.734 882.807 106.098L883.367 107.26C885.467 106.924 887.217 105.874 888.029 104.404C888.855 105.86 890.577 106.924 892.677 107.26L893.237 106.098ZM893.727 108.45H882.303V109.626H887.259V114.092H888.701V109.626H893.727V108.45Z" fill="#283895"/>
<rect x="128" y="80" width="253" height="54" rx="10" fill="#F6F7FE"/>
<path d="M193.551 104.012H195.665V102.822H189.869V104.012H192.151V104.712C192.151 107.218 191.353 109.416 189.519 110.48L190.401 111.558C191.647 110.816 192.459 109.528 192.893 107.918C193.355 109.318 194.139 110.466 195.343 111.124L196.183 110.018C194.349 109.066 193.551 106.994 193.551 104.712V104.012ZM199.179 101.422V106.42H197.793V101.66H196.435V113.49H197.793V107.61H199.179V114.078H200.551V101.422H199.179ZM210.324 105.86H211.654V109.206H213.026V101.45H211.654V104.684H210.324V101.674H208.966V108.8H210.324V105.86ZM208.672 107.232C207.034 106.588 206.208 105.202 206.208 103.802V102.206H204.808V103.802C204.808 105.244 203.954 106.826 202.26 107.596L203.016 108.702C204.234 108.17 205.06 107.19 205.522 106.028C205.998 107.036 206.782 107.876 207.902 108.31L208.672 107.232ZM208.812 112.972C207.034 112.972 205.97 112.538 205.97 111.768C205.97 110.984 207.034 110.55 208.812 110.55C210.59 110.55 211.654 110.984 211.654 111.768C211.654 112.538 210.59 112.972 208.812 112.972ZM208.812 109.444C206.18 109.444 204.528 110.312 204.528 111.768C204.528 113.21 206.18 114.078 208.812 114.078C211.444 114.078 213.096 113.21 213.096 111.768C213.096 110.312 211.444 109.444 208.812 109.444ZM217.801 110.032C216.933 110.032 216.401 108.898 216.401 106.896C216.401 104.894 216.933 103.774 217.801 103.774C218.669 103.774 219.201 104.894 219.201 106.896C219.201 108.898 218.669 110.032 217.801 110.032ZM221.847 106.224H220.489C220.335 103.858 219.313 102.416 217.801 102.416C216.163 102.416 215.085 104.124 215.085 106.896C215.085 109.668 216.163 111.39 217.801 111.39C219.341 111.39 220.377 109.878 220.503 107.414H221.847V113.476H223.191V101.674H221.847V106.224ZM224.381 101.436V114.064H225.753V101.436H224.381ZM229.688 102.822H228.26V111.082H229.268C231.214 111.082 233.062 110.956 235.078 110.564L234.91 109.374C233.132 109.724 231.438 109.864 229.688 109.878V102.822ZM236.646 101.436V105.496H232.978V106.672H236.646V114.106H238.088V101.436H236.646ZM244.879 103.886H247.693V102.696H240.609V103.886H243.423V105.09C243.423 107.26 242.121 109.612 240.161 110.522L240.987 111.67C242.471 110.956 243.605 109.458 244.165 107.694C244.753 109.332 245.887 110.704 247.357 111.348L248.155 110.214C246.181 109.374 244.879 107.19 244.879 105.09V103.886ZM249.163 101.436V114.078H250.619V101.436H249.163ZM255.753 103.2V104.418H257.965V113H259.351V103.2H255.753ZM265.249 113.112C267.531 113.112 269.239 111.292 269.239 108.1C269.239 104.908 267.531 103.088 265.249 103.088C262.953 103.088 261.245 104.908 261.245 108.1C261.245 111.292 262.953 113.112 265.249 113.112ZM265.249 111.866C263.709 111.866 262.645 110.606 262.645 108.1C262.645 105.594 263.709 104.334 265.249 104.334C266.775 104.334 267.839 105.594 267.839 108.1C267.839 110.606 266.775 111.866 265.249 111.866ZM274.337 113.112C276.619 113.112 278.327 111.292 278.327 108.1C278.327 104.908 276.619 103.088 274.337 103.088C272.041 103.088 270.333 104.908 270.333 108.1C270.333 111.292 272.041 113.112 274.337 113.112ZM274.337 111.866C272.797 111.866 271.733 110.606 271.733 108.1C271.733 105.594 272.797 104.334 274.337 104.334C275.863 104.334 276.927 105.594 276.927 108.1C276.927 110.606 275.863 111.866 274.337 111.866ZM281.549 108.464C282.907 108.464 283.817 107.4 283.817 105.79C283.817 104.18 282.907 103.116 281.549 103.116C280.191 103.116 279.267 104.194 279.267 105.79C279.267 107.386 280.191 108.464 281.549 108.464ZM280.765 113H281.843L288.535 103.2H287.457L280.765 113ZM281.549 107.666C280.709 107.666 280.177 106.952 280.177 105.79C280.177 104.628 280.709 103.914 281.549 103.914C282.403 103.914 282.921 104.614 282.921 105.79C282.921 106.966 282.403 107.666 281.549 107.666ZM287.751 113.084C289.109 113.084 290.033 112.006 290.033 110.41C290.033 108.814 289.109 107.736 287.751 107.736C286.393 107.736 285.483 108.814 285.483 110.41C285.483 112.006 286.393 113.084 287.751 113.084ZM287.751 112.286C286.897 112.286 286.379 111.586 286.379 110.41C286.379 109.234 286.897 108.534 287.751 108.534C288.591 108.534 289.123 109.248 289.123 110.41C289.123 111.572 288.591 112.286 287.751 112.286ZM301.255 104.824V106.014H303.551V110.69H304.993V101.45H303.551V104.824H301.255ZM302.039 107.778C300.149 107.12 299.071 105.538 299.071 103.984V103.55H301.703V102.388H294.941V103.55H297.615V103.984C297.615 105.692 296.467 107.358 294.507 108.044L295.249 109.178C296.747 108.66 297.811 107.554 298.371 106.182C298.903 107.428 299.925 108.422 301.325 108.898L302.039 107.778ZM298.245 112.664V109.892H296.803V113.84H305.315V112.664H298.245ZM314.584 102.57H311.714V101.38H310.258V102.57H307.36V103.634H314.584V102.57ZM309.32 106.028C309.32 105.426 309.964 105.062 310.972 105.062C311.98 105.062 312.624 105.426 312.624 106.028C312.624 106.616 311.98 106.966 310.972 106.966C309.964 106.966 309.32 106.616 309.32 106.028ZM314.934 108.408C313.912 108.562 312.806 108.646 311.714 108.716V107.918C313.114 107.75 313.982 107.05 313.982 106.028C313.982 104.824 312.792 104.082 310.972 104.082C309.152 104.082 307.962 104.824 307.962 106.028C307.962 107.064 308.844 107.75 310.258 107.918V108.786C309.096 108.814 307.976 108.828 307.038 108.828L307.206 109.976C309.39 109.962 312.4 109.906 315.046 109.402L314.934 108.408ZM310.314 110.69H308.872V113.84H317.468V112.664H310.314V110.69ZM317.048 105.72V101.422H315.606V111.32H317.048V106.91H318.784V105.72H317.048Z" fill="#283895"/>
<rect y="80" width="108" height="128" rx="10" fill="#F5F5F5"/>
<path d="M37.7158 144.862C38.6118 144.442 39.1018 143.714 39.1018 142.748C39.1018 141.11 37.6738 140.088 35.5458 140.088C33.4318 140.088 32.0178 141.11 32.0178 142.748C32.0178 143.714 32.4938 144.442 33.3898 144.862C32.2838 145.282 31.6678 146.108 31.6678 147.228C31.6678 149.006 33.1658 150.112 35.5458 150.112C37.9398 150.112 39.4518 149.006 39.4518 147.228C39.4518 146.108 38.8358 145.296 37.7158 144.862ZM35.5458 141.222C36.8618 141.222 37.7298 141.824 37.7298 142.804C37.7298 143.77 36.9038 144.372 35.5458 144.372C34.2018 144.372 33.4038 143.77 33.4038 142.804C33.4038 141.824 34.2298 141.222 35.5458 141.222ZM35.5458 148.978C33.9918 148.978 33.0678 148.292 33.0678 147.186C33.0678 146.108 33.9918 145.436 35.5458 145.436C37.0998 145.436 38.0518 146.108 38.0518 147.186C38.0518 148.292 37.0998 148.978 35.5458 148.978ZM42.3595 141.11H45.6215V139.934H40.9455V148.068H41.7855C43.5635 148.068 44.8655 148.012 46.3915 147.718L46.2655 146.528C44.9635 146.794 43.8155 146.864 42.3595 146.878V141.11ZM49.9335 138.422V143.42H48.4355V138.688H47.0775V150.448H48.4355V144.596H49.9335V151.064H51.3055V138.422H49.9335ZM59.7764 145.548C60.1264 143.308 60.1264 141.712 60.1264 140.606V139.766H53.7004V140.928H58.7124C58.7124 141.992 58.6844 143.462 58.3624 145.422L59.7764 145.548ZM56.9484 143.392H55.5344V147.2C54.6524 147.214 53.7984 147.228 53.0284 147.228L53.1824 148.418C55.3944 148.418 58.2924 148.362 60.8964 147.928L60.8264 146.864C59.5944 147.032 58.2644 147.102 56.9484 147.158V143.392ZM64.8164 143.63H62.9544V138.436H61.4984V151.078H62.9544V144.848H64.8164V143.63ZM69.6193 140.998H71.7053V139.808H65.9933V140.998H68.2193V141.908C68.2193 144.162 67.3793 146.444 65.5873 147.564L66.4553 148.628C67.6733 147.858 68.4853 146.5 68.9333 144.904C69.3813 146.374 70.1653 147.62 71.3553 148.32L72.1953 147.27C70.4313 146.248 69.6193 144.064 69.6193 141.908V140.998ZM72.6433 142.874H70.7813V144.05H72.6433V150.462H74.0013V138.674H72.6433V142.874ZM75.1913 138.422V151.064H76.5633V138.422H75.1913Z" fill="#666666"/>
<rect width="108" height="60" rx="10" fill="#F5F5F5"/>
<path d="M32.6238 34.782L35.6198 31.898C36.9498 30.624 37.2298 29.77 37.2298 28.818C37.2298 27.138 35.9138 26.088 33.8698 26.088C32.3438 26.088 31.0418 26.634 30.2858 27.572L31.2378 28.398C31.8398 27.67 32.6938 27.334 33.7438 27.334C35.1158 27.334 35.8298 27.95 35.8298 28.958C35.8298 29.574 35.6338 30.19 34.5978 31.198L30.6078 35.048V36H37.6498V34.782H32.6238ZM40.4269 27.11H43.6889V25.934H39.0129V34.068H39.8529C41.6309 34.068 42.9329 34.012 44.4589 33.718L44.3329 32.528C43.0309 32.794 41.8829 32.864 40.4269 32.878V27.11ZM48.0009 24.422V29.42H46.5029V24.688H45.1449V36.448H46.5029V30.596H48.0009V37.064H49.3729V24.422H48.0009ZM55.9223 30.442H58.6943V29.308H55.9223V27.054H59.2263V25.892H54.5363V34.152H55.3763C57.2943 34.152 58.4843 34.11 59.9123 33.858L59.7863 32.682C58.5403 32.906 57.4763 32.962 55.9223 32.976V30.442ZM60.9483 29.14H59.3243V30.33H60.9483V36.476H62.3063V24.702H60.9483V29.14ZM63.5243 24.422V37.064H64.9103V24.422H63.5243ZM68.6073 26.816H71.6733V32.78H68.6073V26.816ZM67.1793 33.928H73.1012V25.668H67.1793V33.928ZM78.5053 29.378H76.5313V24.436H75.0893V37.092H76.5313V30.568H78.5053V29.378Z" fill="#666666"/>
</svg>
