<svg width="327" height="314" viewBox="0 0 327 314" fill="none" xmlns="http://www.w3.org/2000/svg">
<rect x="55" width="132" height="48" rx="7" fill="#435CE7"/>
<path d="M87.2865 20.228V21.236H91.1505C90.9345 23.732 89.5905 25.64 86.7465 27.008L87.4065 27.992C91.1265 26.192 92.4225 23.456 92.4225 20.228H87.2865ZM94.3785 19.088V29.924H95.6145V19.088H94.3785ZM106.716 20.276H102.972V19.064H101.736V20.276H97.9436V21.26H106.716V20.276ZM104.676 23.624C104.676 24.212 103.872 24.536 102.36 24.536C100.848 24.536 100.032 24.212 100.032 23.624C100.032 23.036 100.848 22.724 102.36 22.724C103.872 22.724 104.676 23.036 104.676 23.624ZM98.7476 23.624C98.7476 24.8 100.104 25.46 102.36 25.46C104.616 25.46 105.972 24.8 105.972 23.624C105.972 22.448 104.616 21.788 102.36 21.788C100.104 21.788 98.7476 22.448 98.7476 23.624ZM107.28 26.108H97.4516V27.104H101.736V29.936H102.972V27.104H107.28V26.108ZM118.438 21.992V23.324H116.182V21.992H118.438ZM114.97 24.332H112.414V22.568H114.97V24.332ZM116.182 24.332H118.438V27.104H119.674V19.1H118.438V20.996H116.182V19.808H114.97V21.596H112.414V19.808H111.19V25.34H116.182V24.332ZM113.866 28.712V26.324H112.618V29.72H119.926V28.712H113.866ZM127.991 20.336H125.399V19.124H124.163V20.336H121.547V21.332H127.991V20.336ZM123.347 23.9C123.347 23.228 123.935 22.82 124.787 22.82C125.639 22.82 126.215 23.228 126.215 23.9C126.215 24.56 125.639 24.968 124.787 24.968C123.935 24.968 123.347 24.56 123.347 23.9ZM125.399 25.868C126.599 25.676 127.379 24.932 127.379 23.9C127.379 22.676 126.323 21.872 124.787 21.872C123.239 21.872 122.183 22.676 122.183 23.9C122.183 24.932 122.963 25.664 124.163 25.868V26.924C123.155 26.96 122.183 26.96 121.355 26.96L121.523 27.98C123.383 27.98 125.891 27.956 128.207 27.548L128.111 26.636C127.247 26.768 126.323 26.828 125.399 26.876V25.868ZM131.495 23.612H129.959V19.076H128.723V29.924H129.959V24.632H131.495V23.612ZM136.293 21.38H139.089V20.372H135.081V27.344H135.801C137.325 27.344 138.441 27.296 139.749 27.044L139.641 26.024C138.525 26.252 137.541 26.312 136.293 26.324V21.38ZM142.785 19.076V23.36H141.501V19.304H140.337V29.384H141.501V24.368H142.785V29.912H143.961V19.076H142.785ZM145.498 24.26V25.256H155.302V24.26H145.498ZM150.382 26.012C148.054 26.012 146.65 26.732 146.65 27.98C146.65 29.228 148.054 29.936 150.382 29.936C152.722 29.936 154.114 29.228 154.114 27.98C154.114 26.732 152.722 26.012 150.382 26.012ZM150.382 26.972C151.966 26.972 152.866 27.32 152.866 27.98C152.866 28.64 151.966 28.988 150.382 28.988C148.798 28.988 147.91 28.64 147.91 27.98C147.91 27.32 148.798 26.972 150.382 26.972ZM150.406 19.34C148.042 19.34 146.542 20.132 146.542 21.44C146.542 22.736 148.042 23.528 150.406 23.528C152.758 23.528 154.27 22.736 154.27 21.44C154.27 20.132 152.758 19.34 150.406 19.34ZM150.406 20.312C152.014 20.312 152.986 20.72 152.986 21.44C152.986 22.148 152.014 22.556 150.406 22.556C148.798 22.556 147.814 22.148 147.814 21.44C147.814 20.72 148.798 20.312 150.406 20.312Z" fill="white"/>
<rect opacity="0.5" x="55" y="58" width="132" height="58" rx="7" fill="#D4DFFA"/>
<path d="M98.3143 75.296H100.126V74.276H95.1583V75.296H97.1143V75.896C97.1143 78.044 96.4303 79.928 94.8583 80.84L95.6143 81.764C96.6823 81.128 97.3783 80.024 97.7503 78.644C98.1463 79.844 98.8183 80.828 99.8503 81.392L100.57 80.444C98.9983 79.628 98.3143 77.852 98.3143 75.896V75.296ZM103.138 73.076V77.36H101.95V73.28H100.786V83.42H101.95V78.38H103.138V83.924H104.314V73.076H103.138ZM112.655 76.88H113.795V79.748H114.971V73.1H113.795V75.872H112.655V73.292H111.491V79.4H112.655V76.88ZM111.239 78.056C109.835 77.504 109.127 76.316 109.127 75.116V73.748H107.927V75.116C107.927 76.352 107.195 77.708 105.743 78.368L106.391 79.316C107.435 78.86 108.143 78.02 108.539 77.024C108.947 77.888 109.619 78.608 110.579 78.98L111.239 78.056ZM111.359 82.976C109.835 82.976 108.923 82.604 108.923 81.944C108.923 81.272 109.835 80.9 111.359 80.9C112.883 80.9 113.795 81.272 113.795 81.944C113.795 82.604 112.883 82.976 111.359 82.976ZM111.359 79.952C109.103 79.952 107.687 80.696 107.687 81.944C107.687 83.18 109.103 83.924 111.359 83.924C113.615 83.924 115.031 83.18 115.031 81.944C115.031 80.696 113.615 79.952 111.359 79.952ZM119.028 80.456C118.284 80.456 117.828 79.484 117.828 77.768C117.828 76.052 118.284 75.092 119.028 75.092C119.772 75.092 120.228 76.052 120.228 77.768C120.228 79.484 119.772 80.456 119.028 80.456ZM122.496 77.192H121.332C121.2 75.164 120.324 73.928 119.028 73.928C117.624 73.928 116.7 75.392 116.7 77.768C116.7 80.144 117.624 81.62 119.028 81.62C120.348 81.62 121.236 80.324 121.344 78.212H122.496V83.408H123.648V73.292H122.496V77.192ZM124.668 73.088V83.912H125.844V73.088H124.668ZM129.182 74.276H127.958V81.356H128.822C130.49 81.356 132.074 81.248 133.802 80.912L133.658 79.892C132.134 80.192 130.682 80.312 129.182 80.324V74.276ZM135.146 73.088V76.568H132.002V77.576H135.146V83.948H136.382V73.088H135.146ZM142.167 75.188H144.579V74.168H138.507V75.188H140.919V76.22C140.919 78.08 139.803 80.096 138.123 80.876L138.831 81.86C140.103 81.248 141.075 79.964 141.555 78.452C142.059 79.856 143.031 81.032 144.291 81.584L144.975 80.612C143.283 79.892 142.167 78.02 142.167 76.22V75.188ZM145.839 73.088V83.924H147.087V73.088H145.839ZM94.4144 92.6V93.644H96.3104V101H97.4984V92.6H94.4144ZM102.518 101.096C104.474 101.096 105.938 99.536 105.938 96.8C105.938 94.064 104.474 92.504 102.518 92.504C100.55 92.504 99.0858 94.064 99.0858 96.8C99.0858 99.536 100.55 101.096 102.518 101.096ZM102.518 100.028C101.198 100.028 100.286 98.948 100.286 96.8C100.286 94.652 101.198 93.572 102.518 93.572C103.826 93.572 104.738 94.652 104.738 96.8C104.738 98.948 103.826 100.028 102.518 100.028ZM110.272 101.096C112.228 101.096 113.692 99.536 113.692 96.8C113.692 94.064 112.228 92.504 110.272 92.504C108.304 92.504 106.84 94.064 106.84 96.8C106.84 99.536 108.304 101.096 110.272 101.096ZM110.272 100.028C108.952 100.028 108.04 98.948 108.04 96.8C108.04 94.652 108.952 93.572 110.272 93.572C111.58 93.572 112.492 94.652 112.492 96.8C112.492 98.948 111.58 100.028 110.272 100.028ZM116.418 97.112C117.582 97.112 118.362 96.2 118.362 94.82C118.362 93.44 117.582 92.528 116.418 92.528C115.254 92.528 114.462 93.452 114.462 94.82C114.462 96.188 115.254 97.112 116.418 97.112ZM115.746 101H116.67L122.406 92.6H121.482L115.746 101ZM116.418 96.428C115.698 96.428 115.242 95.816 115.242 94.82C115.242 93.824 115.698 93.212 116.418 93.212C117.15 93.212 117.594 93.812 117.594 94.82C117.594 95.828 117.15 96.428 116.418 96.428ZM121.734 101.072C122.898 101.072 123.69 100.148 123.69 98.78C123.69 97.412 122.898 96.488 121.734 96.488C120.57 96.488 119.79 97.412 119.79 98.78C119.79 100.148 120.57 101.072 121.734 101.072ZM121.734 100.388C121.002 100.388 120.558 99.788 120.558 98.78C120.558 97.772 121.002 97.172 121.734 97.172C122.454 97.172 122.91 97.784 122.91 98.78C122.91 99.776 122.454 100.388 121.734 100.388ZM133.238 93.992V95.012H135.206V99.02H136.442V91.1H135.206V93.992H133.238ZM133.91 96.524C132.29 95.96 131.366 94.604 131.366 93.272V92.9H133.622V91.904H127.826V92.9H130.118V93.272C130.118 94.736 129.134 96.164 127.454 96.752L128.09 97.724C129.374 97.28 130.286 96.332 130.766 95.156C131.222 96.224 132.098 97.076 133.298 97.484L133.91 96.524ZM130.658 100.712V98.336H129.422V101.72H136.718V100.712H130.658ZM144.627 92.06H142.167V91.04H140.919V92.06H138.435V92.972H144.627V92.06ZM140.115 95.024C140.115 94.508 140.667 94.196 141.531 94.196C142.395 94.196 142.947 94.508 142.947 95.024C142.947 95.528 142.395 95.828 141.531 95.828C140.667 95.828 140.115 95.528 140.115 95.024ZM144.927 97.064C144.051 97.196 143.103 97.268 142.167 97.328V96.644C143.367 96.5 144.111 95.9 144.111 95.024C144.111 93.992 143.091 93.356 141.531 93.356C139.971 93.356 138.951 93.992 138.951 95.024C138.951 95.912 139.707 96.5 140.919 96.644V97.388C139.923 97.412 138.963 97.424 138.159 97.424L138.303 98.408C140.175 98.396 142.755 98.348 145.023 97.916L144.927 97.064ZM140.967 99.02H139.731V101.72H147.111V100.712H140.967V99.02ZM146.739 94.76V91.076H145.503V99.56H146.739V95.78H148.227V94.76H146.739Z" fill="#283895"/>
<rect opacity="0.5" x="55" y="130" width="132" height="40" rx="7" fill="#D4DFFA"/>
<path d="M78.3574 152.576H77.1094V155.72H84.5854V154.712H78.3574V152.576ZM78.1894 147.584C78.1894 146.816 79.1734 146.384 80.7814 146.384C82.3774 146.384 83.3614 146.816 83.3614 147.584C83.3614 148.352 82.3774 148.784 80.7814 148.784C79.1734 148.784 78.1894 148.352 78.1894 147.584ZM81.3934 150.764V149.756C83.3854 149.624 84.6454 148.82 84.6454 147.584C84.6454 146.216 83.1214 145.388 80.7814 145.388C78.4414 145.388 76.9174 146.216 76.9174 147.584C76.9174 148.82 78.1654 149.612 80.1454 149.756V150.764H75.8734V151.76H85.6774V150.764H81.3934ZM95.6025 145.088H94.3545V150.644H95.6025V145.088ZM93.2625 149.432C91.5945 148.916 90.6225 147.596 90.6225 146.192V145.376H89.3625V146.192C89.3625 147.656 88.3905 149.06 86.6745 149.624L87.2865 150.608C88.5945 150.164 89.5185 149.264 90.0105 148.1C90.5025 149.168 91.4145 149.996 92.6625 150.404L93.2625 149.432ZM89.7345 154.856V153.908H95.6025V151.16H88.4985V152.12H94.3785V153.008H88.5225V155.828H95.9265V154.856H89.7345ZM97.9916 146.228V147.236H101.784C101.532 149.732 100.104 151.64 97.4516 152.996L98.1356 153.944C101.676 152.156 103.02 149.372 103.02 146.228H97.9916ZM107.496 149.36H105.852V145.076H104.616V155.912H105.852V150.392H107.496V149.36ZM117.649 150.38C115.513 149.996 113.773 148.328 113.773 146.6V145.784H112.465V146.6C112.465 148.316 110.725 149.984 108.589 150.38L109.117 151.4C110.881 151.04 112.405 149.912 113.113 148.424C113.821 149.912 115.345 151.04 117.109 151.4L117.649 150.38ZM108.253 153.512V154.532H118.069V153.512H108.253ZM124.883 152.276H123.011V149.612H124.883V152.276ZM124.883 148.628H123.011V146.084H121.847V153.284H126.035V146.084H124.883V148.628ZM129.563 145.076V149.312H128.327V145.292H127.163V155.42H128.327V150.32H129.563V155.924H130.739V145.088L129.563 145.076ZM133.092 149.408C135.012 149.276 136.476 148.748 137.16 147.836C137.844 148.748 139.332 149.276 141.252 149.408L141.588 148.484C139.476 148.364 138.132 147.764 137.892 146.912H141.096V145.988H137.784V145.04H136.548V145.988H133.248V146.912H136.44C136.2 147.764 134.868 148.364 132.732 148.484L133.092 149.408ZM142.068 150.728V149.804H132.288V150.728H136.548V151.568H133.428V152.48H139.632V153.236H133.452V155.828H141.156V154.904H134.676V154.088H140.844V151.568H137.784V150.728H142.068ZM149.398 147.176H151.75V146.168H145.81V147.176H148.15V148.052C148.15 150.008 147.058 152.072 145.39 152.876L146.122 153.86C147.382 153.212 148.318 151.892 148.798 150.356C149.278 151.808 150.202 153.032 151.438 153.632L152.158 152.66C150.478 151.88 149.398 149.888 149.398 148.052V147.176ZM153.262 145.076V148.952H151.126V149.972H153.262V155.936H154.498V145.076H153.262ZM156.732 145.736V146.744H160.452C160.248 148.388 158.771 149.708 156.24 150.38L156.72 151.364C159.924 150.512 161.784 148.544 161.784 145.736H156.732ZM159.06 152.648H163.536V154.796H159.06V152.648ZM157.836 155.792H164.76V151.664H157.836V155.792ZM166.296 147.596H164.76V145.076H163.524V151.196H164.76V148.616H166.296V147.596Z" fill="#283895"/>
<rect opacity="0.5" x="55" y="184" width="132" height="58" rx="7" fill="#D4DFFA"/>
<path d="M100.622 204.272C99.2783 204.512 98.1263 204.56 96.1943 204.572V203.192H99.7703V202.22H96.1943V200.936H99.9743V199.94H94.9583V205.556H95.8103C98.0183 205.556 99.2903 205.52 100.754 205.244L100.622 204.272ZM97.3583 206.396H96.1103V209.72H103.406V208.712H97.3583V206.396ZM102.974 202.388V199.088H101.738V207.14H102.974V203.408H104.51V202.388H102.974ZM114.699 204.212C112.563 203.852 110.823 202.244 110.823 200.564V199.748H109.515V200.564C109.515 202.232 107.775 203.852 105.627 204.212L106.155 205.244C107.919 204.896 109.455 203.816 110.175 202.376C110.871 203.816 112.407 204.896 114.183 205.244L114.699 204.212ZM110.775 207.56V205.028H109.539V207.56H105.303V208.58H115.119V207.56H110.775ZM120.352 203.3H117.7V201.92H120.352V203.3ZM121.576 199.544H120.352V200.972H117.7V199.544H116.464V204.284H121.576V199.544ZM118.792 207.896H124.552V205.124H117.556V206.084H123.328V206.984H117.58V209.828H124.912V208.856H118.792V207.896ZM124.552 201.308V199.088H123.316V204.644H124.552V202.328H126.076V201.308H124.552ZM130.674 201.188H132.966V200.168H127.074V201.188H129.438V202.232C129.438 204.032 128.334 206.084 126.678 206.876L127.386 207.86C128.634 207.248 129.594 205.952 130.074 204.44C130.566 205.808 131.49 207.008 132.702 207.584L133.386 206.612C131.742 205.832 130.674 203.912 130.674 202.232V201.188ZM136.962 203.36H135.27V199.088H134.034V209.924H135.27V204.38H136.962V203.36ZM147.487 204.392V203.396H146.023C146.263 202.16 146.263 201.224 146.263 200.408V199.58H138.895V200.576H145.051C145.051 201.356 145.027 202.232 144.787 203.396H137.671V204.392H141.943V206.168H138.667V207.164H145.075V209.924H146.311V206.168H143.191V204.392H147.487ZM95.6025 217.088H94.3665V224.96H95.6025V217.088ZM88.0905 220.52C88.0905 219.524 88.7985 218.876 89.7585 218.876C90.7065 218.876 91.4265 219.524 91.4265 220.52C91.4265 221.504 90.7065 222.164 89.7585 222.164C88.7985 222.164 88.0905 221.504 88.0905 220.52ZM92.6265 220.52C92.6265 218.936 91.3905 217.808 89.7585 217.808C88.1265 217.808 86.8785 218.936 86.8785 220.52C86.8785 222.092 88.1265 223.232 89.7585 223.232C91.3905 223.232 92.6265 222.092 92.6265 220.52ZM89.7705 226.712V224.168H88.5225V227.72H95.9145V226.712H89.7705ZM98.3876 221.624C100.284 221.42 101.772 220.64 102.36 219.524C102.936 220.64 104.412 221.42 106.332 221.624L106.764 220.664C104.748 220.46 103.344 219.596 103.188 218.612H106.368V217.616H98.3636V218.612H101.52C101.364 219.596 99.9596 220.46 97.9436 220.664L98.3876 221.624ZM102.336 226.952C100.752 226.952 99.8636 226.604 99.8636 225.944C99.8636 225.272 100.752 224.924 102.336 224.924C103.92 224.924 104.82 225.272 104.82 225.944C104.82 226.604 103.92 226.952 102.336 226.952ZM102.336 223.952C100.02 223.952 98.6036 224.684 98.6036 225.944C98.6036 227.204 100.02 227.924 102.336 227.924C104.664 227.924 106.068 227.204 106.068 225.944C106.068 224.684 104.664 223.952 102.336 223.952ZM97.4516 222.176V223.172H107.256V222.176H97.4516ZM113.986 219.284H115.774V218.264H110.878V219.284H112.786V220.064C112.786 221.996 112.066 223.952 110.53 224.912L111.274 225.824C112.318 225.164 113.014 224 113.398 222.632C113.782 223.892 114.454 224.96 115.474 225.56L116.194 224.66C114.682 223.784 113.986 221.912 113.986 220.064V219.284ZM116.578 220.892H114.982V221.9H116.578V227.396H117.742V217.292H116.578V220.892ZM118.762 217.076V227.912H119.938V217.076H118.762ZM127.619 220.388H125.123V218.396H127.619V220.388ZM123.887 220.388H122.411V221.384H130.319V220.388H128.855V218.396H130.379V217.4H122.351V218.396H123.887V220.388ZM128.879 226.808H123.875V225.332H128.879V226.808ZM131.279 223.244V222.248H121.475V223.244H125.759V224.348H122.651V227.792H130.091V224.348H126.995V223.244H131.279ZM141.093 218H138.633V216.992H137.385V218H134.901V218.9H141.093V218ZM136.581 220.856C136.581 220.364 137.133 220.064 137.997 220.064C138.861 220.064 139.413 220.364 139.413 220.856C139.413 221.336 138.861 221.624 137.997 221.624C137.133 221.624 136.581 221.336 136.581 220.856ZM141.393 222.848C140.517 222.98 139.569 223.04 138.633 223.088V222.416C139.833 222.272 140.577 221.708 140.577 220.856C140.577 219.848 139.557 219.236 137.997 219.236C136.437 219.236 135.417 219.848 135.417 220.856C135.417 221.708 136.161 222.284 137.385 222.416V223.136C136.389 223.16 135.441 223.16 134.625 223.16L134.769 224.144C136.665 224.132 139.197 224.12 141.489 223.712L141.393 222.848ZM135.969 225.884H141.969V227.936H143.205V224.9H135.969V225.884ZM144.693 220.292H143.205V217.1H141.969V224.42H143.205V221.312H144.693V220.292ZM147.082 219.38H149.878V218.372H145.87V225.344H146.59C148.114 225.344 149.23 225.296 150.538 225.044L150.43 224.024C149.314 224.252 148.33 224.312 147.082 224.324V219.38ZM153.574 217.076V221.36H152.29V217.304H151.126V227.384H152.29V222.368H153.574V227.912H154.75V217.076H153.574Z" fill="#283895"/>
<rect opacity="0.5" x="55" y="256" width="132" height="58" rx="7" fill="#D4DFFA"/>
<path d="M104.458 273.992V275.012H106.426V279.02H107.662V271.1H106.426V273.992H104.458ZM105.13 276.524C103.51 275.96 102.586 274.604 102.586 273.272V272.9H104.842V271.904H99.0462V272.9H101.338V273.272C101.338 274.736 100.354 276.164 98.6742 276.752L99.3102 277.724C100.594 277.28 101.506 276.332 101.986 275.156C102.442 276.224 103.318 277.076 104.518 277.484L105.13 276.524ZM101.878 280.712V278.336H100.642V281.72H107.938V280.712H101.878ZM119.673 280.796H115.077V279.596H119.673V280.796ZM119.673 278.636H115.077V277.412H113.853V281.792H120.897V277.412H119.673V278.636ZM114.897 275.624C113.937 275.624 113.253 275.012 113.253 274.1C113.253 273.176 113.937 272.588 114.897 272.588C115.833 272.588 116.529 273.176 116.529 274.1C116.529 275.012 115.833 275.624 114.897 275.624ZM119.661 271.088V273.584H117.657C117.417 272.372 116.325 271.568 114.897 271.568C113.265 271.568 112.065 272.612 112.065 274.1C112.065 275.6 113.265 276.644 114.897 276.644C116.337 276.644 117.441 275.816 117.657 274.592H119.661V276.896H120.897V271.088H119.661ZM130.078 274.952H125.122V272.648H130.078V274.952ZM131.302 271.664H123.898V275.948H131.302V271.664ZM132.526 277.28H122.698V278.276H126.958V281.924H128.194V278.276H132.526V277.28ZM137.243 273.908H139.535V272.912H137.243V271.304H136.007V272.912H133.679V273.908H136.007V274.532C136.007 276.308 134.999 278.132 133.343 278.924L134.027 279.872C135.263 279.296 136.163 278.108 136.643 276.704C137.087 278.012 137.951 279.116 139.115 279.68L139.799 278.732C138.191 277.952 137.243 276.188 137.243 274.532V273.908ZM143.579 275.432H141.887V271.076H140.651V281.924H141.887V276.452H143.579V275.432ZM95.2652 292.952H90.3092V290.648H95.2652V292.952ZM96.4892 289.664H89.0852V293.948H96.4892V289.664ZM97.7132 295.28H87.8852V296.276H92.1452V299.924H93.3812V296.276H97.7132V295.28ZM106.966 293.396C107.266 292.28 107.266 291.38 107.266 290.516V289.604H99.8262V290.6H106.042C106.042 291.416 106.03 292.196 105.754 293.264L106.966 293.396ZM103.546 298.976C101.938 298.976 100.954 298.58 100.954 297.896C100.954 297.224 101.938 296.828 103.546 296.828C105.142 296.828 106.102 297.224 106.102 297.896C106.102 298.58 105.142 298.976 103.546 298.976ZM103.546 295.88C101.206 295.88 99.7302 296.648 99.7302 297.896C99.7302 299.156 101.206 299.924 103.546 299.924C105.85 299.924 107.338 299.156 107.338 297.896C107.338 296.648 105.85 295.88 103.546 295.88ZM103.786 294.044V292.052H102.538V294.044H98.6982V295.04H108.466V294.044H103.786ZM112.115 296.468C111.383 296.468 110.867 295.88 110.867 294.98C110.867 294.08 111.383 293.48 112.115 293.48C112.847 293.48 113.363 294.08 113.363 294.98C113.363 295.88 112.847 296.468 112.115 296.468ZM112.115 292.46C110.747 292.46 109.763 293.48 109.763 294.98C109.763 296.468 110.747 297.5 112.115 297.5C113.483 297.5 114.467 296.468 114.467 294.98C114.467 293.48 113.483 292.46 112.115 292.46ZM112.727 289.4H111.503V290.852H109.451V291.848H114.755V290.852H112.727V289.4ZM117.527 289.088V293.576H116.375V289.316H115.223V299.42H116.375V294.596H117.527V299.924H118.703V289.088H117.527ZM124.008 291.908H126.3V290.912H124.008V289.304H122.772V290.912H120.444V291.908H122.772V292.532C122.772 294.308 121.764 296.132 120.108 296.924L120.792 297.872C122.028 297.296 122.928 296.108 123.408 294.704C123.852 296.012 124.716 297.116 125.88 297.68L126.564 296.732C124.956 295.952 124.008 294.188 124.008 292.532V291.908ZM130.344 293.432H128.652V289.076H127.416V299.924H128.652V294.452H130.344V293.432ZM139.271 291.992V293.012H141.239V297.02H142.475V289.1H141.239V291.992H139.271ZM139.943 294.524C138.323 293.96 137.399 292.604 137.399 291.272V290.9H139.655V289.904H133.859V290.9H136.151V291.272C136.151 292.736 135.167 294.164 133.487 294.752L134.123 295.724C135.407 295.28 136.319 294.332 136.799 293.156C137.255 294.224 138.131 295.076 139.331 295.484L139.943 294.524ZM136.691 298.712V296.336H135.455V299.72H142.751V298.712H136.691ZM150.66 290.06H148.2V289.04H146.952V290.06H144.468V290.972H150.66V290.06ZM146.148 293.024C146.148 292.508 146.7 292.196 147.564 292.196C148.428 292.196 148.98 292.508 148.98 293.024C148.98 293.528 148.428 293.828 147.564 293.828C146.7 293.828 146.148 293.528 146.148 293.024ZM150.96 295.064C150.084 295.196 149.136 295.268 148.2 295.328V294.644C149.4 294.5 150.144 293.9 150.144 293.024C150.144 291.992 149.124 291.356 147.564 291.356C146.004 291.356 144.984 291.992 144.984 293.024C144.984 293.912 145.74 294.5 146.952 294.644V295.388C145.956 295.412 144.996 295.424 144.192 295.424L144.336 296.408C146.208 296.396 148.788 296.348 151.056 295.916L150.96 295.064ZM147 297.02H145.764V299.72H153.132V298.712H147V297.02ZM152.772 292.76V289.076H151.536V297.56H152.772V293.78H154.26V292.76H152.772Z" fill="#283895"/>
<rect x="195" width="132" height="48" rx="7" fill="#435CE7"/>
<path d="M242.478 21.188H244.77V20.168H238.878V21.188H241.242V22.232C241.242 24.032 240.138 26.084 238.482 26.876L239.19 27.86C240.438 27.248 241.398 25.952 241.878 24.44C242.37 25.808 243.294 27.008 244.506 27.584L245.19 26.612C243.546 25.832 242.478 23.912 242.478 22.232V21.188ZM248.766 23.36H247.074V19.088H245.838V29.924H247.074V24.38H248.766V23.36ZM255.091 25.448V26.312H257.215V27.32H258.451V19.076H257.215V25.448H255.091ZM252.931 20.408C253.819 20.408 254.431 20.792 254.431 21.404C254.431 22.016 253.819 22.4 252.931 22.4C252.031 22.4 251.419 22.016 251.419 21.404C251.419 20.792 252.031 20.408 252.931 20.408ZM252.931 23.312C254.515 23.312 255.607 22.556 255.607 21.404C255.607 20.252 254.515 19.496 252.931 19.496C251.335 19.496 250.243 20.252 250.243 21.404C250.243 22.556 251.335 23.312 252.931 23.312ZM252.439 26.972H253.675V24.884C254.599 24.824 255.547 24.728 256.459 24.572L256.363 23.684C254.071 23.972 251.407 23.996 249.415 24.008L249.571 25.016C250.435 25.016 251.407 25.004 252.439 24.956V26.972ZM252.115 28.712V26.516H250.879V29.72H258.703V28.712H252.115ZM271.962 22.748C269.838 22.448 268.242 21.14 268.242 19.808V19.364H266.97V19.808C266.97 21.176 265.386 22.472 263.25 22.772L263.73 23.756C265.482 23.48 266.922 22.592 267.606 21.392C268.302 22.58 269.754 23.456 271.494 23.72L271.962 22.748ZM265.134 26.564H263.898V29.72H271.434V28.712H265.134V26.564ZM262.698 24.524V25.52H267.09V27.548H268.326V25.52H272.526V24.524H262.698ZM279.871 20.06H277.411V19.04H276.163V20.06H273.679V20.972H279.871V20.06ZM275.359 23.024C275.359 22.508 275.911 22.196 276.775 22.196C277.639 22.196 278.191 22.508 278.191 23.024C278.191 23.528 277.639 23.828 276.775 23.828C275.911 23.828 275.359 23.528 275.359 23.024ZM280.171 25.064C279.295 25.196 278.347 25.268 277.411 25.328V24.644C278.611 24.5 279.355 23.9 279.355 23.024C279.355 21.992 278.335 21.356 276.775 21.356C275.215 21.356 274.195 21.992 274.195 23.024C274.195 23.912 274.951 24.5 276.163 24.644V25.388C275.167 25.412 274.207 25.424 273.403 25.424L273.547 26.408C275.419 26.396 277.999 26.348 280.267 25.916L280.171 25.064ZM276.211 27.02H274.975V29.72H282.343V28.712H276.211V27.02ZM281.983 22.76V19.076H280.747V27.56H281.983V23.78H283.471V22.76H281.983Z" fill="white"/>
<rect opacity="0.5" x="195" y="58" width="132" height="58" rx="7" fill="#D4DFFA"/>
<path d="M220.504 80.276H218.632V77.612H220.504V80.276ZM220.504 76.628H218.632V74.084H217.468V81.284H221.656V74.084H220.504V76.628ZM225.184 73.076V77.312H223.948V73.292H222.784V83.42H223.948V78.32H225.184V83.924H226.36V73.088L225.184 73.076ZM229.613 78.056H232.961V77.072H229.613V75.044H233.405V74.024H228.377V81.404H229.229C231.197 81.404 232.553 81.356 234.101 81.08L233.993 80.084C232.577 80.324 231.341 80.384 229.613 80.396V78.056ZM235.649 73.064V77.048H233.573V78.068H235.649V83.936H236.897V73.064H235.649ZM240.546 78.068H244.326V74.048H239.274V75.056H243.078V77.072H239.298V81.368H240.222C242.13 81.368 243.75 81.308 245.61 80.984L245.478 79.976C243.762 80.252 242.262 80.336 240.546 80.348V78.068ZM246.378 73.064V83.948H247.626V73.064H246.378ZM253.781 78.068H257.561V74.048H252.509V75.056H256.313V77.072H252.533V81.368H253.457C255.365 81.368 256.985 81.308 258.845 80.984L258.713 79.976C256.997 80.252 255.497 80.336 253.781 80.348V78.068ZM259.613 73.064V83.948H260.861V73.064H259.613ZM266.502 73.988H265.266V75.764C265.266 77.768 264.21 79.82 262.518 80.648L263.274 81.644C264.51 81.008 265.422 79.748 265.89 78.248C266.358 79.664 267.222 80.84 268.386 81.44L269.142 80.456C267.51 79.652 266.502 77.696 266.502 75.764V73.988ZM272.79 77.384H271.098V73.088H269.862V83.924H271.098V78.404H272.79V77.384ZM281.167 73.076V83.948H282.415V73.076H281.167ZM276.643 73.88C275.035 73.88 273.859 75.368 273.859 77.696C273.859 80.048 275.035 81.524 276.643 81.524C278.263 81.524 279.439 80.048 279.439 77.696C279.439 75.368 278.263 73.88 276.643 73.88ZM276.643 74.996C277.591 74.996 278.251 76.016 278.251 77.696C278.251 79.4 277.591 80.42 276.643 80.42C275.707 80.42 275.047 79.4 275.047 77.696C275.047 76.016 275.707 74.996 276.643 74.996ZM286.64 81.92H292.964V79.244H285.404V80.204H291.74V81.02H285.428V83.792H293.336V82.832H286.64V81.92ZM292.652 77.408C292.88 76.22 292.88 75.272 292.88 74.42V73.544H285.524V74.516H291.668C291.668 74.792 291.668 75.068 291.656 75.368L285.236 75.56L285.38 76.508L291.596 76.244C291.56 76.604 291.512 76.988 291.416 77.408H284.3V78.392H294.068V77.408H292.652ZM299.973 74.18C301.653 74.18 302.553 74.504 302.553 75.128C302.553 75.74 301.653 76.064 299.973 76.064C298.293 76.064 297.393 75.74 297.393 75.128C297.393 74.504 298.293 74.18 299.973 74.18ZM299.973 76.988C302.397 76.988 303.837 76.328 303.837 75.128C303.837 73.916 302.397 73.256 299.973 73.256C297.537 73.256 296.109 73.916 296.109 75.128C296.109 76.328 297.537 76.988 299.973 76.988ZM297.477 81.98H303.645V79.388H296.229V80.324H302.433V81.104H296.253V83.828H303.957V82.88H297.477V81.98ZM295.065 77.624V78.608H304.881V77.624H295.065ZM230.324 101C228.692 101 227.84 100.736 227.84 100.16C227.84 99.608 228.692 99.332 230.324 99.332C231.968 99.332 232.82 99.608 232.82 100.16C232.82 100.736 231.968 101 230.324 101ZM230.324 98.42C227.972 98.42 226.592 99.02 226.592 100.16C226.592 101.312 227.972 101.924 230.324 101.924C232.688 101.924 234.056 101.312 234.056 100.16C234.056 99.02 232.688 98.42 230.324 98.42ZM230.96 96.752V95.864H234.14V94.916H227.924V94.076H233.804V93.152H227.924V92.336H234.068V91.388H226.688V95.864H229.712V96.752H225.428V97.748H235.232V96.752H230.96ZM242.649 92.324H240.069V91.076H238.833V92.324H236.253V93.308H242.649V92.324ZM238.005 95.864C238.005 95.18 238.593 94.772 239.445 94.772C240.309 94.772 240.897 95.18 240.897 95.864C240.897 96.548 240.309 96.956 239.445 96.956C238.593 96.956 238.005 96.548 238.005 95.864ZM242.073 95.864C242.073 94.64 241.005 93.812 239.445 93.812C237.897 93.812 236.817 94.64 236.817 95.864C236.817 97.1 237.897 97.916 239.445 97.916C241.005 97.916 242.073 97.1 242.073 95.864ZM239.085 98.588H237.837V101.72H245.133V100.712H239.085V98.588ZM244.701 94.544V91.088H243.465V99.212H244.701V95.564H246.237V94.544H244.701ZM253.267 93.188H255.559V92.168H249.667V93.188H252.031V94.232C252.031 96.032 250.927 98.084 249.271 98.876L249.979 99.86C251.227 99.248 252.187 97.952 252.667 96.44C253.159 97.808 254.083 99.008 255.295 99.584L255.979 98.612C254.335 97.832 253.267 95.912 253.267 94.232V93.188ZM259.555 95.36H257.863V91.088H256.627V101.924H257.863V96.38H259.555V95.36ZM265.88 97.448V98.312H268.004V99.32H269.24V91.076H268.004V97.448H265.88ZM263.72 92.408C264.608 92.408 265.22 92.792 265.22 93.404C265.22 94.016 264.608 94.4 263.72 94.4C262.82 94.4 262.208 94.016 262.208 93.404C262.208 92.792 262.82 92.408 263.72 92.408ZM263.72 95.312C265.304 95.312 266.396 94.556 266.396 93.404C266.396 92.252 265.304 91.496 263.72 91.496C262.124 91.496 261.032 92.252 261.032 93.404C261.032 94.556 262.124 95.312 263.72 95.312ZM263.228 98.972H264.464V96.884C265.388 96.836 266.336 96.728 267.248 96.572L267.152 95.684C264.86 95.972 262.196 95.996 260.204 96.008L260.36 97.016C261.212 97.016 262.196 97.004 263.228 96.956V98.972ZM262.904 100.712V98.516H261.668V101.72H269.492V100.712H262.904ZM280.327 92.348H277.675V91.1H276.439V92.348H273.775V93.344H280.327V92.348ZM275.587 95.888C275.587 95.228 276.187 94.82 277.063 94.82C277.927 94.82 278.527 95.228 278.527 95.888C278.527 96.56 277.927 96.968 277.063 96.968C276.187 96.968 275.587 96.56 275.587 95.888ZM277.675 97.868C278.899 97.676 279.703 96.944 279.703 95.888C279.703 94.676 278.623 93.872 277.063 93.872C275.491 93.872 274.411 94.676 274.411 95.888C274.411 96.932 275.215 97.676 276.439 97.868V98.924C275.419 98.96 274.423 98.96 273.559 98.96L273.715 99.98C275.683 99.98 278.251 99.944 280.639 99.536L280.555 98.636C279.631 98.768 278.647 98.828 277.675 98.888V97.868ZM281.167 91.076V101.924H282.415V91.076H281.167ZM293.66 95.084C291.476 94.772 289.844 93.416 289.844 92.012V91.436H288.536V92.012C288.536 93.44 286.928 94.772 284.72 95.084L285.2 96.08C287 95.792 288.5 94.892 289.196 93.632C289.904 94.88 291.38 95.792 293.18 96.08L293.66 95.084ZM294.08 97.1H284.288V98.108H288.536V101.936H289.772V98.108H294.08V97.1Z" fill="#283895"/>
<rect opacity="0.5" x="195" y="130" width="132" height="40" rx="7" fill="#D4DFFA"/>
<path d="M219.677 145.988H218.441V147.764C218.441 149.768 217.385 151.82 215.693 152.648L216.449 153.644C217.685 153.008 218.597 151.748 219.065 150.248C219.533 151.664 220.397 152.84 221.561 153.44L222.317 152.456C220.685 151.652 219.677 149.696 219.677 147.764V145.988ZM225.965 149.384H224.273V145.088H223.037V155.924H224.273V150.404H225.965V149.384ZM234.427 154.796H229.831V153.596H234.427V154.796ZM234.427 152.636H229.831V151.412H228.607V155.792H235.651V151.412H234.427V152.636ZM229.651 149.624C228.691 149.624 228.007 149.012 228.007 148.1C228.007 147.176 228.691 146.588 229.651 146.588C230.587 146.588 231.283 147.176 231.283 148.1C231.283 149.012 230.587 149.624 229.651 149.624ZM234.415 145.088V147.584H232.411C232.171 146.372 231.079 145.568 229.651 145.568C228.019 145.568 226.819 146.612 226.819 148.1C226.819 149.6 228.019 150.644 229.651 150.644C231.091 150.644 232.195 149.816 232.411 148.592H234.415V150.896H235.651V145.088H234.415ZM243.824 150.188C242.168 149.66 241.268 148.4 241.268 147.056V146.852H243.536V145.856H237.716V146.852H240.02V147.068C240.02 148.544 239.072 149.936 237.368 150.524L237.992 151.496C239.288 151.052 240.2 150.128 240.68 148.976C241.148 149.984 242.012 150.764 243.224 151.148L243.824 150.188ZM242.432 154.952C240.92 154.952 240.044 154.568 240.044 153.872C240.044 153.164 240.92 152.792 242.432 152.792C243.944 152.792 244.82 153.164 244.82 153.872C244.82 154.568 243.944 154.952 242.432 154.952ZM242.432 151.82C240.2 151.82 238.82 152.576 238.82 153.872C238.82 155.156 240.2 155.924 242.432 155.924C244.664 155.924 246.044 155.156 246.044 153.872C246.044 152.576 244.664 151.82 242.432 151.82ZM245.924 147.728V145.088H244.688V151.568H245.924V148.748H247.46V147.728H245.924ZM253.998 147.296H255.81V146.276H250.842V147.296H252.798V147.896C252.798 150.044 252.114 151.928 250.542 152.84L251.298 153.764C252.366 153.128 253.062 152.024 253.434 150.644C253.83 151.844 254.502 152.828 255.534 153.392L256.254 152.444C254.682 151.628 253.998 149.852 253.998 147.896V147.296ZM258.822 145.076V149.36H257.634V145.28H256.47V155.42H257.634V150.38H258.822V155.924H259.998V145.076H258.822ZM267.859 145.844H265.399V144.98H264.151V145.844H261.679V146.696H267.859V145.844ZM263.347 148.388C263.347 147.98 263.899 147.752 264.763 147.752C265.639 147.752 266.179 147.98 266.179 148.388C266.179 148.808 265.639 149.036 264.763 149.036C263.899 149.036 263.347 148.808 263.347 148.388ZM268.159 150.104C267.283 150.224 266.335 150.296 265.399 150.344V149.78C266.611 149.66 267.343 149.168 267.343 148.388C267.343 147.5 266.335 146.972 264.763 146.972C263.191 146.972 262.183 147.5 262.183 148.388C262.183 149.168 262.927 149.66 264.151 149.78V150.392C263.155 150.416 262.207 150.416 261.391 150.416L261.523 151.292C263.407 151.292 265.963 151.268 268.255 150.86L268.159 150.104ZM264.079 154.22H269.971V151.916H262.831V152.756H268.747V153.44H262.855V155.828H270.367V154.976H264.079V154.22ZM269.971 147.764V145.088H268.735V151.46H269.971V148.784H271.459V147.764H269.971ZM277.148 154.976C275.564 154.976 274.676 154.64 274.676 153.98C274.676 153.332 275.564 152.984 277.148 152.984C278.732 152.984 279.632 153.332 279.632 153.98C279.632 154.64 278.732 154.976 277.148 154.976ZM277.148 152.036C274.82 152.036 273.416 152.744 273.416 153.98C273.416 155.228 274.82 155.924 277.148 155.924C279.488 155.924 280.88 155.228 280.88 153.98C280.88 152.744 279.488 152.036 277.148 152.036ZM275.828 149.252C276.224 149.312 276.692 149.348 277.172 149.348C277.652 149.348 278.096 149.312 278.492 149.252V150.356H275.828V149.252ZM277.172 146.228C278.78 146.228 279.752 146.612 279.752 147.308C279.752 148.004 278.78 148.4 277.172 148.4C275.552 148.4 274.58 148.004 274.58 147.308C274.58 146.612 275.552 146.228 277.172 146.228ZM279.728 150.356V148.928C280.556 148.568 281.036 148.016 281.036 147.308C281.036 146.036 279.536 145.268 277.172 145.268C274.796 145.268 273.308 146.036 273.308 147.308C273.308 148.016 273.776 148.568 274.592 148.916V150.356H272.264V151.34H282.068V150.356H279.728ZM291.882 146H289.422V144.992H288.174V146H285.69V146.9H291.882V146ZM287.37 148.856C287.37 148.364 287.922 148.064 288.786 148.064C289.65 148.064 290.202 148.364 290.202 148.856C290.202 149.336 289.65 149.624 288.786 149.624C287.922 149.624 287.37 149.336 287.37 148.856ZM292.182 150.848C291.306 150.98 290.358 151.04 289.422 151.088V150.416C290.622 150.272 291.366 149.708 291.366 148.856C291.366 147.848 290.346 147.236 288.786 147.236C287.226 147.236 286.206 147.848 286.206 148.856C286.206 149.708 286.95 150.284 288.174 150.416V151.136C287.178 151.16 286.23 151.16 285.414 151.16L285.558 152.144C287.454 152.132 289.986 152.12 292.278 151.712L292.182 150.848ZM286.758 153.884H292.758V155.936H293.994V152.9H286.758V153.884ZM295.482 148.292H293.994V145.1H292.758V152.42H293.994V149.312H295.482V148.292ZM297.872 147.38H300.668V146.372H296.66V153.344H297.38C298.904 153.344 300.02 153.296 301.328 153.044L301.22 152.024C300.104 152.252 299.12 152.312 297.872 152.324V147.38ZM304.364 145.076V149.36H303.08V145.304H301.916V155.384H303.08V150.368H304.364V155.912H305.54V145.076H304.364Z" fill="#283895"/>
<rect opacity="0.5" x="195" y="184" width="132" height="58" rx="7" fill="#D4DFFA"/>
<path d="M237.584 199.988H236.348V201.764C236.348 203.768 235.292 205.82 233.6 206.648L234.356 207.644C235.592 207.008 236.504 205.748 236.972 204.248C237.44 205.664 238.304 206.84 239.468 207.44L240.224 206.456C238.592 205.652 237.584 203.696 237.584 201.764V199.988ZM243.872 203.384H242.18V199.088H240.944V209.924H242.18V204.404H243.872V203.384ZM252.333 208.796H247.737V207.596H252.333V208.796ZM252.333 206.636H247.737V205.412H246.513V209.792H253.557V205.412H252.333V206.636ZM247.557 203.624C246.597 203.624 245.913 203.012 245.913 202.1C245.913 201.176 246.597 200.588 247.557 200.588C248.493 200.588 249.189 201.176 249.189 202.1C249.189 203.012 248.493 203.624 247.557 203.624ZM252.321 199.088V201.584H250.317C250.077 200.372 248.985 199.568 247.557 199.568C245.925 199.568 244.725 200.612 244.725 202.1C244.725 203.6 245.925 204.644 247.557 204.644C248.997 204.644 250.101 203.816 250.317 202.592H252.321V204.896H253.557V199.088H252.321ZM261.73 204.188C260.074 203.66 259.174 202.4 259.174 201.056V200.852H261.442V199.856H255.622V200.852H257.926V201.068C257.926 202.544 256.978 203.936 255.274 204.524L255.898 205.496C257.194 205.052 258.106 204.128 258.586 202.976C259.054 203.984 259.918 204.764 261.13 205.148L261.73 204.188ZM260.338 208.952C258.826 208.952 257.95 208.568 257.95 207.872C257.95 207.164 258.826 206.792 260.338 206.792C261.85 206.792 262.726 207.164 262.726 207.872C262.726 208.568 261.85 208.952 260.338 208.952ZM260.338 205.82C258.106 205.82 256.726 206.576 256.726 207.872C256.726 209.156 258.106 209.924 260.338 209.924C262.57 209.924 263.95 209.156 263.95 207.872C263.95 206.576 262.57 205.82 260.338 205.82ZM263.83 201.728V199.088H262.594V205.568H263.83V202.748H265.366V201.728H263.83ZM273.476 208.976C271.892 208.976 271.004 208.64 271.004 207.98C271.004 207.332 271.892 206.984 273.476 206.984C275.06 206.984 275.96 207.332 275.96 207.98C275.96 208.64 275.06 208.976 273.476 208.976ZM273.476 206.036C271.148 206.036 269.744 206.744 269.744 207.98C269.744 209.228 271.148 209.924 273.476 209.924C275.816 209.924 277.208 209.228 277.208 207.98C277.208 206.744 275.816 206.036 273.476 206.036ZM272.156 203.252C272.552 203.312 273.02 203.348 273.5 203.348C273.98 203.348 274.424 203.312 274.82 203.252V204.356H272.156V203.252ZM273.5 200.228C275.108 200.228 276.08 200.612 276.08 201.308C276.08 202.004 275.108 202.4 273.5 202.4C271.88 202.4 270.908 202.004 270.908 201.308C270.908 200.612 271.88 200.228 273.5 200.228ZM276.056 204.356V202.928C276.884 202.568 277.364 202.016 277.364 201.308C277.364 200.036 275.864 199.268 273.5 199.268C271.124 199.268 269.636 200.036 269.636 201.308C269.636 202.016 270.104 202.568 270.92 202.916V204.356H268.592V205.34H278.396V204.356H276.056ZM288.765 203.084C286.581 202.772 284.949 201.416 284.949 200.012V199.436H283.641V200.012C283.641 201.44 282.033 202.772 279.825 203.084L280.305 204.08C282.105 203.792 283.605 202.892 284.301 201.632C285.009 202.88 286.485 203.792 288.285 204.08L288.765 203.084ZM289.185 205.1H279.393V206.108H283.641V209.936H284.877V206.108H289.185V205.1ZM237.584 217.988H236.348V219.764C236.348 221.768 235.292 223.82 233.6 224.648L234.356 225.644C235.592 225.008 236.504 223.748 236.972 222.248C237.44 223.664 238.304 224.84 239.468 225.44L240.224 224.456C238.592 223.652 237.584 221.696 237.584 219.764V217.988ZM243.872 221.384H242.18V217.088H240.944V227.924H242.18V222.404H243.872V221.384ZM249.453 226.976C247.869 226.976 246.981 226.64 246.981 225.98C246.981 225.332 247.869 224.984 249.453 224.984C251.037 224.984 251.937 225.332 251.937 225.98C251.937 226.64 251.037 226.976 249.453 226.976ZM249.453 224.036C247.125 224.036 245.721 224.744 245.721 225.98C245.721 227.228 247.125 227.924 249.453 227.924C251.793 227.924 253.185 227.228 253.185 225.98C253.185 224.744 251.793 224.036 249.453 224.036ZM248.133 221.252C248.529 221.312 248.997 221.348 249.477 221.348C249.957 221.348 250.401 221.312 250.797 221.252V222.356H248.133V221.252ZM249.477 218.228C251.085 218.228 252.057 218.612 252.057 219.308C252.057 220.004 251.085 220.4 249.477 220.4C247.857 220.4 246.885 220.004 246.885 219.308C246.885 218.612 247.857 218.228 249.477 218.228ZM252.033 222.356V220.928C252.861 220.568 253.341 220.016 253.341 219.308C253.341 218.036 251.841 217.268 249.477 217.268C247.101 217.268 245.613 218.036 245.613 219.308C245.613 220.016 246.081 220.568 246.897 220.916V222.356H244.569V223.34H254.373V222.356H252.033ZM261.67 221.72C260.182 221.996 258.874 222.056 257.014 222.068V220.832H260.698V217.736H255.778V218.732H259.474V219.896H255.802V223.076H256.678C258.754 223.076 260.17 223.016 261.802 222.728L261.67 221.72ZM260.326 226.976C258.79 226.976 257.926 226.604 257.926 225.908C257.926 225.224 258.79 224.852 260.326 224.852C261.85 224.852 262.726 225.224 262.726 225.908C262.726 226.604 261.85 226.976 260.326 226.976ZM260.326 223.892C258.082 223.892 256.714 224.636 256.714 225.908C256.714 227.18 258.082 227.924 260.326 227.924C262.57 227.924 263.938 227.18 263.938 225.908C263.938 224.636 262.57 223.892 260.326 223.892ZM265.366 219.692V218.672H263.83V217.076H262.594V223.64H263.83V221.972H265.366V220.952H263.83V219.692H265.366ZM274.424 219.416V220.424H276.332V222.644H277.58V217.088H276.332V219.416H274.424ZM275 221.624C273.404 221.12 272.468 219.92 272.468 218.696V218.576H274.736V217.58H268.94V218.576H271.22V218.684C271.22 219.968 270.236 221.312 268.58 221.864L269.18 222.824C270.452 222.416 271.376 221.528 271.856 220.448C272.324 221.42 273.212 222.2 274.424 222.584L275 221.624ZM271.76 226.844V225.884H277.58V223.136H270.524V224.108H276.356V224.972H270.536V227.816H277.94V226.844H271.76ZM279.825 217.736V218.744H283.545C283.341 220.388 281.865 221.708 279.333 222.38L279.813 223.364C283.017 222.512 284.877 220.544 284.877 217.736H279.825ZM282.153 224.648H286.629V226.796H282.153V224.648ZM280.929 227.792H287.853V223.664H280.929V227.792ZM289.389 219.596H287.853V217.076H286.617V223.196H287.853V220.616H289.389V219.596Z" fill="#283895"/>
<rect opacity="0.5" x="195" y="256" width="132" height="58" rx="7" fill="#D4DFFA"/>
<path d="M249.337 271.076H248.101V276.584H249.337V271.076ZM241.813 273.884C241.813 273.02 242.509 272.456 243.445 272.456C244.393 272.456 245.101 273.02 245.101 273.884C245.101 274.748 244.393 275.312 243.445 275.312C242.509 275.312 241.813 274.748 241.813 273.884ZM246.301 273.884C246.301 272.456 245.089 271.436 243.445 271.436C241.813 271.436 240.613 272.456 240.613 273.884C240.613 275.312 241.813 276.32 243.445 276.32C245.089 276.32 246.301 275.312 246.301 273.884ZM243.469 280.82V279.86H249.337V277.076H242.233V278.048H248.113V278.948H242.257V281.792H249.661V280.82H243.469ZM258.026 272.348H255.374V271.1H254.138V272.348H251.474V273.344H258.026V272.348ZM253.286 275.888C253.286 275.228 253.886 274.82 254.762 274.82C255.626 274.82 256.226 275.228 256.226 275.888C256.226 276.56 255.626 276.968 254.762 276.968C253.886 276.968 253.286 276.56 253.286 275.888ZM255.374 277.868C256.598 277.676 257.402 276.944 257.402 275.888C257.402 274.676 256.322 273.872 254.762 273.872C253.19 273.872 252.11 274.676 252.11 275.888C252.11 276.932 252.914 277.676 254.138 277.868V278.924C253.118 278.96 252.122 278.96 251.258 278.96L251.414 279.98C253.382 279.98 255.95 279.944 258.338 279.536L258.254 278.636C257.33 278.768 256.346 278.828 255.374 278.888V277.868ZM258.866 271.076V281.924H260.114V271.076H258.866ZM266.859 280.976C265.275 280.976 264.387 280.64 264.387 279.98C264.387 279.332 265.275 278.984 266.859 278.984C268.443 278.984 269.343 279.332 269.343 279.98C269.343 280.64 268.443 280.976 266.859 280.976ZM266.859 278.036C264.531 278.036 263.127 278.744 263.127 279.98C263.127 281.228 264.531 281.924 266.859 281.924C269.199 281.924 270.591 281.228 270.591 279.98C270.591 278.744 269.199 278.036 266.859 278.036ZM265.539 275.252C265.935 275.312 266.403 275.348 266.883 275.348C267.363 275.348 267.807 275.312 268.203 275.252V276.356H265.539V275.252ZM266.883 272.228C268.491 272.228 269.463 272.612 269.463 273.308C269.463 274.004 268.491 274.4 266.883 274.4C265.263 274.4 264.291 274.004 264.291 273.308C264.291 272.612 265.263 272.228 266.883 272.228ZM269.439 276.356V274.928C270.267 274.568 270.747 274.016 270.747 273.308C270.747 272.036 269.247 271.268 266.883 271.268C264.507 271.268 263.019 272.036 263.019 273.308C263.019 274.016 263.487 274.568 264.303 274.916V276.356H261.975V277.34H271.779V276.356H269.439ZM278.908 274.388H276.412V272.396H278.908V274.388ZM275.176 274.388H273.7V275.384H281.608V274.388H280.144V272.396H281.668V271.4H273.64V272.396H275.176V274.388ZM280.168 280.808H275.164V279.332H280.168V280.808ZM282.568 277.244V276.248H272.764V277.244H277.048V278.348H273.94V281.792H281.38V278.348H278.284V277.244H282.568ZM237.584 289.988H236.348V291.764C236.348 293.768 235.292 295.82 233.6 296.648L234.356 297.644C235.592 297.008 236.504 295.748 236.972 294.248C237.44 295.664 238.304 296.84 239.468 297.44L240.224 296.456C238.592 295.652 237.584 293.696 237.584 291.764V289.988ZM243.872 293.384H242.18V289.088H240.944V299.924H242.18V294.404H243.872V293.384ZM249.453 298.976C247.869 298.976 246.981 298.64 246.981 297.98C246.981 297.332 247.869 296.984 249.453 296.984C251.037 296.984 251.937 297.332 251.937 297.98C251.937 298.64 251.037 298.976 249.453 298.976ZM249.453 296.036C247.125 296.036 245.721 296.744 245.721 297.98C245.721 299.228 247.125 299.924 249.453 299.924C251.793 299.924 253.185 299.228 253.185 297.98C253.185 296.744 251.793 296.036 249.453 296.036ZM248.133 293.252C248.529 293.312 248.997 293.348 249.477 293.348C249.957 293.348 250.401 293.312 250.797 293.252V294.356H248.133V293.252ZM249.477 290.228C251.085 290.228 252.057 290.612 252.057 291.308C252.057 292.004 251.085 292.4 249.477 292.4C247.857 292.4 246.885 292.004 246.885 291.308C246.885 290.612 247.857 290.228 249.477 290.228ZM252.033 294.356V292.928C252.861 292.568 253.341 292.016 253.341 291.308C253.341 290.036 251.841 289.268 249.477 289.268C247.101 289.268 245.613 290.036 245.613 291.308C245.613 292.016 246.081 292.568 246.897 292.916V294.356H244.569V295.34H254.373V294.356H252.033ZM258.715 295.232C259.999 294.848 260.935 294.044 261.403 293C261.883 293.996 262.819 294.764 264.091 295.124L264.643 294.164C263.047 293.732 262.087 292.652 262.015 291.428H264.379V290.432H262.015V289.172H260.779V290.432H258.427V291.428H260.767C260.707 292.7 259.759 293.828 258.151 294.272L258.715 295.232ZM262.015 294.884H260.779V296.744C259.735 296.78 258.715 296.78 257.863 296.78L258.019 297.8C259.939 297.8 262.531 297.788 264.919 297.308L264.823 296.408C263.923 296.552 262.963 296.636 262.015 296.684V294.884ZM265.483 289.076V299.948H266.731V289.076H265.483ZM278 294.212C275.864 293.852 274.124 292.244 274.124 290.564V289.748H272.816V290.564C272.816 292.232 271.076 293.852 268.928 294.212L269.456 295.244C271.22 294.896 272.756 293.816 273.476 292.376C274.172 293.816 275.708 294.896 277.484 295.244L278 294.212ZM274.076 297.56V295.028H272.84V297.56H268.604V298.58H278.42V297.56H274.076ZM285.897 290.336H283.305V289.112H282.069V290.336H279.453V291.332H285.897V290.336ZM281.253 293.9C281.253 293.228 281.841 292.82 282.693 292.82C283.545 292.82 284.121 293.228 284.121 293.9C284.121 294.56 283.545 294.968 282.693 294.968C281.841 294.968 281.253 294.56 281.253 293.9ZM283.305 295.868C284.505 295.676 285.285 294.932 285.285 293.9C285.285 292.676 284.229 291.872 282.693 291.872C281.145 291.872 280.089 292.676 280.089 293.9C280.089 294.932 280.869 295.664 282.069 295.868V296.924C281.061 296.96 280.089 296.96 279.261 296.96L279.429 297.98C281.289 297.98 283.797 297.956 286.113 297.548L286.017 296.636C285.153 296.768 284.229 296.828 283.305 296.876V295.868ZM289.413 293.612H287.865V289.076H286.629V299.924H287.865V294.632H289.413V293.612Z" fill="#283895"/>
<rect y="58" width="46" height="256" rx="7" fill="#F5F5F5"/>
<path d="M19.4561 178.596C20.2241 178.236 20.6441 177.612 20.6441 176.784C20.6441 175.38 19.4201 174.504 17.5961 174.504C15.7841 174.504 14.5721 175.38 14.5721 176.784C14.5721 177.612 14.9801 178.236 15.7481 178.596C14.8001 178.956 14.2721 179.664 14.2721 180.624C14.2721 182.148 15.5561 183.096 17.5961 183.096C19.6481 183.096 20.9441 182.148 20.9441 180.624C20.9441 179.664 20.4161 178.968 19.4561 178.596ZM17.5961 175.476C18.7241 175.476 19.4681 175.992 19.4681 176.832C19.4681 177.66 18.7601 178.176 17.5961 178.176C16.4441 178.176 15.7601 177.66 15.7601 176.832C15.7601 175.992 16.4681 175.476 17.5961 175.476ZM17.5961 182.124C16.2641 182.124 15.4721 181.536 15.4721 180.588C15.4721 179.664 16.2641 179.088 17.5961 179.088C18.9281 179.088 19.7441 179.664 19.7441 180.588C19.7441 181.536 18.9281 182.124 17.5961 182.124ZM23.4008 175.38H26.1968V174.372H22.1888V181.344H22.9088C24.4328 181.344 25.5488 181.296 26.8568 181.044L26.7488 180.024C25.6328 180.252 24.6488 180.312 23.4008 180.324V175.38ZM29.8928 173.076V177.36H28.6088V173.304H27.4448V183.384H28.6088V178.368H29.8928V183.912H31.0688V173.076H29.8928ZM18.3739 195.184C18.6739 193.264 18.6739 191.896 18.6739 190.948V190.228H13.1659V191.224H17.4619C17.4619 192.136 17.4379 193.396 17.1619 195.076L18.3739 195.184ZM15.9499 193.336H14.7379V196.6C13.9819 196.612 13.2499 196.624 12.5899 196.624L12.7219 197.644C14.6179 197.644 17.1019 197.596 19.3339 197.224L19.2739 196.312C18.2179 196.456 17.0779 196.516 15.9499 196.564V193.336ZM22.6939 193.54H21.0979V189.088H19.8499V199.924H21.0979V194.584H22.6939V193.54ZM26.775 191.284H28.563V190.264H23.667V191.284H25.575V192.064C25.575 193.996 24.855 195.952 23.319 196.912L24.063 197.824C25.107 197.164 25.803 196 26.187 194.632C26.571 195.892 27.243 196.96 28.263 197.56L28.983 196.66C27.471 195.784 26.775 193.912 26.775 192.064V191.284ZM29.367 192.892H27.771V193.9H29.367V199.396H30.531V189.292H29.367V192.892ZM31.551 189.076V199.912H32.727V189.076H31.551Z" fill="#888888"/>
<rect width="46" height="48" rx="7" fill="#F5F5F5"/>
<path d="M14.6042 21V20.184L18.0242 16.884C18.3282 16.596 18.5522 16.344 18.6962 16.128C18.8482 15.904 18.9482 15.7 18.9962 15.516C19.0522 15.324 19.0802 15.14 19.0802 14.964C19.0802 14.532 18.9282 14.192 18.6242 13.944C18.3202 13.696 17.8762 13.572 17.2922 13.572C16.8442 13.572 16.4402 13.648 16.0802 13.8C15.7202 13.944 15.4082 14.172 15.1442 14.484L14.3282 13.776C14.6482 13.368 15.0762 13.056 15.6122 12.84C16.1562 12.616 16.7522 12.504 17.4002 12.504C17.9842 12.504 18.4922 12.6 18.9242 12.792C19.3562 12.976 19.6882 13.244 19.9202 13.596C20.1602 13.948 20.2802 14.364 20.2802 14.844C20.2802 15.116 20.2442 15.384 20.1722 15.648C20.1002 15.912 19.9642 16.192 19.7642 16.488C19.5642 16.784 19.2762 17.116 18.9002 17.484L15.8522 20.424L15.5642 19.956H20.6402V21H14.6042ZM22.9848 13.38H25.7808V12.372H21.7728V19.344H22.4928C24.0168 19.344 25.1328 19.296 26.4408 19.044L26.3328 18.024C25.2168 18.252 24.2328 18.312 22.9848 18.324V13.38ZM29.4768 11.076V15.36H28.1928V11.304H27.0288V21.384H28.1928V16.368H29.4768V21.912H30.6528V11.076H29.4768ZM14.2459 32.236H16.6219V31.264H14.2459V29.332H17.0779V28.336H13.0579V35.416H13.7779C15.4219 35.416 16.4419 35.38 17.6659 35.164L17.5579 34.156C16.4899 34.348 15.5779 34.396 14.2459 34.408V32.236ZM18.5539 31.12H17.1619V32.14H18.5539V37.408H19.7179V27.316H18.5539V31.12ZM20.7619 27.076V37.912H21.9499V27.076H20.7619ZM25.083 29.128H27.711V34.24H25.083V29.128ZM23.859 35.224H28.935V28.144H23.859V35.224ZM33.567 31.324H31.875V27.088H30.639V37.936H31.875V32.344H33.567V31.324Z" fill="#888888"/>
</svg>
