<svg width="327" height="488" viewBox="0 0 327 488" fill="none" xmlns="http://www.w3.org/2000/svg">
<rect width="327" height="40" rx="7" fill="#435CE7"/>
<path d="M131.103 24V15.6H134.739C135.491 15.6 136.139 15.724 136.683 15.972C137.227 16.212 137.647 16.56 137.943 17.016C138.239 17.472 138.387 18.016 138.387 18.648C138.387 19.272 138.239 19.812 137.943 20.268C137.647 20.724 137.227 21.076 136.683 21.324C136.139 21.564 135.491 21.684 134.739 21.684H132.183L133.047 20.808V24H131.103ZM133.047 21.024L132.183 20.1H134.631C135.231 20.1 135.679 19.972 135.975 19.716C136.271 19.46 136.419 19.104 136.419 18.648C136.419 18.184 136.271 17.824 135.975 17.568C135.679 17.312 135.231 17.184 134.631 17.184H132.183L133.047 16.26V21.024ZM139.382 24V17.544H141.17V19.368L140.918 18.84C141.11 18.384 141.418 18.04 141.842 17.808C142.266 17.568 142.782 17.448 143.39 17.448V19.176C143.31 19.168 143.238 19.164 143.174 19.164C143.11 19.156 143.042 19.152 142.97 19.152C142.458 19.152 142.042 19.3 141.722 19.596C141.41 19.884 141.254 20.336 141.254 20.952V24H139.382ZM147.41 24.096C146.674 24.096 146.026 23.952 145.466 23.664C144.914 23.376 144.486 22.984 144.182 22.488C143.878 21.984 143.726 21.412 143.726 20.772C143.726 20.124 143.874 19.552 144.17 19.056C144.474 18.552 144.886 18.16 145.406 17.88C145.926 17.592 146.514 17.448 147.17 17.448C147.802 17.448 148.37 17.584 148.874 17.856C149.386 18.12 149.79 18.504 150.086 19.008C150.382 19.504 150.53 20.1 150.53 20.796C150.53 20.868 150.526 20.952 150.518 21.048C150.51 21.136 150.502 21.22 150.494 21.3H145.25V20.208H149.51L148.79 20.532C148.79 20.196 148.722 19.904 148.586 19.656C148.45 19.408 148.262 19.216 148.022 19.08C147.782 18.936 147.502 18.864 147.182 18.864C146.862 18.864 146.578 18.936 146.33 19.08C146.09 19.216 145.902 19.412 145.766 19.668C145.63 19.916 145.562 20.212 145.562 20.556V20.844C145.562 21.196 145.638 21.508 145.79 21.78C145.95 22.044 146.17 22.248 146.45 22.392C146.738 22.528 147.074 22.596 147.458 22.596C147.802 22.596 148.102 22.544 148.358 22.44C148.622 22.336 148.862 22.18 149.078 21.972L150.074 23.052C149.778 23.388 149.406 23.648 148.958 23.832C148.51 24.008 147.994 24.096 147.41 24.096ZM153.161 24L150.449 17.544H152.381L154.637 23.1H153.677L156.017 17.544H157.817L155.093 24H153.161ZM161.359 24.096C160.623 24.096 159.975 23.952 159.415 23.664C158.863 23.376 158.435 22.984 158.131 22.488C157.827 21.984 157.675 21.412 157.675 20.772C157.675 20.124 157.823 19.552 158.119 19.056C158.423 18.552 158.835 18.16 159.355 17.88C159.875 17.592 160.463 17.448 161.119 17.448C161.751 17.448 162.319 17.584 162.823 17.856C163.335 18.12 163.739 18.504 164.035 19.008C164.331 19.504 164.479 20.1 164.479 20.796C164.479 20.868 164.475 20.952 164.467 21.048C164.459 21.136 164.451 21.22 164.443 21.3H159.199V20.208H163.459L162.739 20.532C162.739 20.196 162.671 19.904 162.535 19.656C162.399 19.408 162.211 19.216 161.971 19.08C161.731 18.936 161.451 18.864 161.131 18.864C160.811 18.864 160.527 18.936 160.279 19.08C160.039 19.216 159.851 19.412 159.715 19.668C159.579 19.916 159.511 20.212 159.511 20.556V20.844C159.511 21.196 159.587 21.508 159.739 21.78C159.899 22.044 160.119 22.248 160.399 22.392C160.687 22.528 161.023 22.596 161.407 22.596C161.751 22.596 162.051 22.544 162.307 22.44C162.571 22.336 162.811 22.18 163.027 21.972L164.023 23.052C163.727 23.388 163.355 23.648 162.907 23.832C162.459 24.008 161.943 24.096 161.359 24.096ZM169.399 17.448C169.911 17.448 170.367 17.552 170.767 17.76C171.175 17.96 171.495 18.272 171.727 18.696C171.959 19.112 172.075 19.648 172.075 20.304V24H170.203V20.592C170.203 20.072 170.087 19.688 169.855 19.44C169.631 19.192 169.311 19.068 168.895 19.068C168.599 19.068 168.331 19.132 168.091 19.26C167.859 19.38 167.675 19.568 167.539 19.824C167.411 20.08 167.347 20.408 167.347 20.808V24H165.475V17.544H167.263V19.332L166.927 18.792C167.159 18.36 167.491 18.028 167.923 17.796C168.355 17.564 168.847 17.448 169.399 17.448ZM176.162 24.096C175.402 24.096 174.81 23.904 174.386 23.52C173.962 23.128 173.75 22.548 173.75 21.78V16.116H175.622V21.756C175.622 22.028 175.694 22.24 175.838 22.392C175.982 22.536 176.178 22.608 176.426 22.608C176.722 22.608 176.974 22.528 177.182 22.368L177.686 23.688C177.494 23.824 177.262 23.928 176.99 24C176.726 24.064 176.45 24.096 176.162 24.096ZM172.754 19.128V17.688H177.23V19.128H172.754ZM178.487 24V17.544H180.359V24H178.487ZM179.423 16.644C179.079 16.644 178.799 16.544 178.583 16.344C178.367 16.144 178.259 15.896 178.259 15.6C178.259 15.304 178.367 15.056 178.583 14.856C178.799 14.656 179.079 14.556 179.423 14.556C179.767 14.556 180.047 14.652 180.263 14.844C180.479 15.028 180.587 15.268 180.587 15.564C180.587 15.876 180.479 16.136 180.263 16.344C180.055 16.544 179.775 16.644 179.423 16.644ZM184.918 24.096C184.23 24.096 183.618 23.952 183.082 23.664C182.554 23.376 182.134 22.984 181.822 22.488C181.518 21.984 181.366 21.412 181.366 20.772C181.366 20.124 181.518 19.552 181.822 19.056C182.134 18.552 182.554 18.16 183.082 17.88C183.618 17.592 184.23 17.448 184.918 17.448C185.598 17.448 186.206 17.592 186.742 17.88C187.278 18.16 187.698 18.548 188.002 19.044C188.306 19.54 188.458 20.116 188.458 20.772C188.458 21.412 188.306 21.984 188.002 22.488C187.698 22.984 187.278 23.376 186.742 23.664C186.206 23.952 185.598 24.096 184.918 24.096ZM184.918 22.56C185.23 22.56 185.51 22.488 185.758 22.344C186.006 22.2 186.202 21.996 186.346 21.732C186.49 21.46 186.562 21.14 186.562 20.772C186.562 20.396 186.49 20.076 186.346 19.812C186.202 19.548 186.006 19.344 185.758 19.2C185.51 19.056 185.23 18.984 184.918 18.984C184.606 18.984 184.326 19.056 184.078 19.2C183.83 19.344 183.63 19.548 183.478 19.812C183.334 20.076 183.262 20.396 183.262 20.772C183.262 21.14 183.334 21.46 183.478 21.732C183.63 21.996 183.83 22.2 184.078 22.344C184.326 22.488 184.606 22.56 184.918 22.56ZM193.384 17.448C193.896 17.448 194.352 17.552 194.752 17.76C195.16 17.96 195.48 18.272 195.712 18.696C195.944 19.112 196.06 19.648 196.06 20.304V24H194.188V20.592C194.188 20.072 194.072 19.688 193.84 19.44C193.616 19.192 193.296 19.068 192.88 19.068C192.584 19.068 192.316 19.132 192.076 19.26C191.844 19.38 191.66 19.568 191.524 19.824C191.396 20.08 191.332 20.408 191.332 20.808V24H189.46V17.544H191.248V19.332L190.912 18.792C191.144 18.36 191.476 18.028 191.908 17.796C192.34 17.564 192.832 17.448 193.384 17.448Z" fill="white"/>
<mask id="path-3-inside-1_1848_33016" fill="white">
<path fill-rule="evenodd" clip-rule="evenodd" d="M7 50C3.13401 50 0 53.134 0 57V151C0 154.866 3.134 158 6.99999 158H151.682C153.37 158 155.002 158.61 156.275 159.718L160.875 163.718C162.38 165.026 164.62 165.026 166.125 163.718L170.725 159.718C171.998 158.61 173.63 158 175.318 158H320C323.866 158 327 154.866 327 151V57C327 53.134 323.866 50 320 50H7Z"/>
</mask>
<path fill-rule="evenodd" clip-rule="evenodd" d="M7 50C3.13401 50 0 53.134 0 57V151C0 154.866 3.134 158 6.99999 158H151.682C153.37 158 155.002 158.61 156.275 159.718L160.875 163.718C162.38 165.026 164.62 165.026 166.125 163.718L170.725 159.718C171.998 158.61 173.63 158 175.318 158H320C323.866 158 327 154.866 327 151V57C327 53.134 323.866 50 320 50H7Z" fill="white"/>
<path d="M160.875 163.718L161.531 162.963L161.531 162.963L160.875 163.718ZM166.125 163.718L165.469 162.963L166.125 163.718ZM170.725 159.718L170.068 158.963L170.725 159.718ZM156.275 159.718L156.932 158.963L156.275 159.718ZM1 57C1 53.6863 3.68629 51 7 51V49C2.58172 49 -1 52.5817 -1 57H1ZM1 151V57H-1V151H1ZM6.99999 157C3.68629 157 1 154.314 1 151H-1C-1 155.418 2.58171 159 6.99999 159V157ZM151.682 157H6.99999V159H151.682V157ZM161.531 162.963L156.932 158.963L155.619 160.472L160.219 164.472L161.531 162.963ZM165.469 162.963C164.34 163.945 162.66 163.945 161.531 162.963L160.219 164.472C162.1 166.108 164.9 166.108 166.781 164.472L165.469 162.963ZM170.068 158.963L165.469 162.963L166.781 164.472L171.381 160.472L170.068 158.963ZM320 157H175.318V159H320V157ZM326 151C326 154.314 323.314 157 320 157V159C324.418 159 328 155.418 328 151H326ZM326 57V151H328V57H326ZM320 51C323.314 51 326 53.6863 326 57H328C328 52.5817 324.418 49 320 49V51ZM7 51H320V49H7V51ZM171.381 160.472C172.473 159.523 173.871 159 175.318 159V157C173.389 157 171.524 157.697 170.068 158.963L171.381 160.472ZM151.682 159C153.129 159 154.527 159.523 155.619 160.472L156.932 158.963C155.476 157.697 153.611 157 151.682 157V159Z" fill="#EEEEEE" mask="url(#path-3-inside-1_1848_33016)"/>
<path d="M37.016 113.072C38.252 113.072 39.356 112.652 40.1 111.836L39.536 111.272C38.852 111.98 38.012 112.28 37.052 112.28C35.024 112.28 33.5 110.792 33.5 108.8C33.5 106.808 35.024 105.32 37.052 105.32C38.012 105.32 38.852 105.62 39.536 106.316L40.1 105.752C39.356 104.936 38.252 104.528 37.028 104.528C34.496 104.528 32.624 106.34 32.624 108.8C32.624 111.26 34.496 113.072 37.016 113.072ZM42.631 112.232V109.112H46.975V108.356H42.631V105.368H47.503V104.6H41.743V113H47.683V112.232H42.631ZM53.1455 113.072C55.6655 113.072 57.5495 111.26 57.5495 108.8C57.5495 106.34 55.6655 104.528 53.1455 104.528C50.6015 104.528 48.7295 106.352 48.7295 108.8C48.7295 111.248 50.6015 113.072 53.1455 113.072ZM53.1455 112.28C51.1175 112.28 49.6055 110.804 49.6055 108.8C49.6055 106.796 51.1175 105.32 53.1455 105.32C55.1615 105.32 56.6615 106.796 56.6615 108.8C56.6615 110.804 55.1615 112.28 53.1455 112.28ZM64.9405 103.916C63.2725 103.916 62.0605 104.936 62.0605 106.448C62.0605 107.948 63.2725 108.98 64.9405 108.98C66.6205 108.98 67.8205 107.948 67.8205 106.448C67.8205 104.936 66.6205 103.916 64.9405 103.916ZM64.9405 104.756C66.0565 104.756 66.8605 105.44 66.8605 106.448C66.8605 107.444 66.0565 108.14 64.9405 108.14C63.8245 108.14 63.0205 107.444 63.0205 106.448C63.0205 105.44 63.8245 104.756 64.9405 104.756ZM69.2365 103.124V113.912H70.2205V103.124H69.2365ZM61.6405 111.548C63.5845 111.548 66.1885 111.536 68.6125 111.08L68.5285 110.348C66.1765 110.708 63.4765 110.72 61.5205 110.72L61.6405 111.548ZM76.0776 105.044H78.6096V104.228H72.5976V105.044H75.0936V106.412C75.0936 108.272 73.7856 110.3 72.2376 111.032L72.8136 111.824C74.0376 111.2 75.0936 109.844 75.5856 108.272C76.1016 109.748 77.1576 110.984 78.4056 111.56L78.9576 110.768C77.3736 110.096 76.0776 108.236 76.0776 106.412V105.044ZM80.0616 103.136V113.888H81.0456V103.136H80.0616ZM86.7106 109.22H89.0506V111.776H86.7106V109.22ZM86.5426 104.912H89.2186V108.428H86.5426V104.912ZM90.0346 111.776V109.22H91.8586V108.428H90.2026V104.912H91.8706V104.12H83.8906V104.912H85.5586V108.428H83.9146V109.22H85.7266V111.776H83.0146V112.58H92.7826V111.776H90.0346ZM98.2557 107.936H95.2797V104.732H98.2557V107.936ZM101.688 105.668V107H99.2157V105.668H101.688ZM99.2157 107.792H101.688V109.496H102.684V103.136H101.688V104.876H99.2157V103.94H94.3077V108.716H99.2157V107.792ZM99.1197 113.108C97.5117 113.108 96.5277 112.64 96.5277 111.848C96.5277 111.056 97.5117 110.588 99.1197 110.588C100.752 110.588 101.736 111.056 101.736 111.848C101.736 112.64 100.752 113.108 99.1197 113.108ZM99.1197 109.82C96.9117 109.82 95.5437 110.552 95.5437 111.848C95.5437 113.132 96.9117 113.876 99.1197 113.876C101.34 113.876 102.708 113.132 102.708 111.848C102.708 110.552 101.34 109.82 99.1197 109.82ZM33.596 127.888C35.336 127.624 36.92 126.76 37.508 125.512C38.084 126.76 39.668 127.624 41.42 127.888L41.78 127.096C39.884 126.844 38.144 125.776 38.144 124.468V124.456H41.492V123.664H33.524V124.456H36.872V124.468C36.872 125.776 35.132 126.844 33.224 127.096L33.596 127.888ZM34.844 130.6H33.86V133.648H41.3V132.844H34.844V130.6ZM32.612 128.668V129.46H37.088V131.644H38.072V129.46H42.38V128.668H32.612ZM51.3091 132.94H46.3651V131.596H51.3091V132.94ZM51.3091 130.828H46.3651V129.532H45.3931V133.732H52.2811V129.532H51.3091V130.828ZM47.8411 127.804H44.9371V126.1H47.8411V127.804ZM51.2971 123.136V125.776H48.8131V123.688H47.8411V125.332H44.9371V123.688H43.9651V128.608H48.8131V126.58H51.2971V129.016H52.2931V123.136H51.2971ZM61.8221 125.392C61.8221 126.724 61.8221 128.14 61.4501 130.06L62.4221 130.18C62.8061 128.164 62.8061 126.76 62.8061 125.392V124.204H55.2221V125.008H61.8221V125.392ZM60.2381 131.572V128.008H59.2661V131.572H57.5741V128.008H56.6021V131.572H54.2141V132.376H63.9461V131.572H60.2381ZM69.8632 124.156C71.5672 124.156 72.6352 124.636 72.6352 125.44C72.6352 126.244 71.5672 126.724 69.8632 126.724C68.1592 126.724 67.0912 126.244 67.0912 125.44C67.0912 124.636 68.1592 124.156 69.8632 124.156ZM69.8632 127.492C72.1912 127.492 73.6432 126.736 73.6432 125.44C73.6432 124.144 72.1912 123.376 69.8632 123.376C67.5472 123.376 66.0832 124.144 66.0832 125.44C66.0832 126.736 67.5472 127.492 69.8632 127.492ZM71.1832 130.468H68.5552V129.1H71.1832V130.468ZM74.7352 129.1V128.308H65.0032V129.1H67.5712V130.468H66.0832V131.26H72.5512V133.9H73.5352V130.468H72.1672V129.1H74.7352Z" fill="#666666"/>
<rect x="24" y="107" width="2" height="2" fill="#666666"/>
<rect x="24" y="128" width="2" height="2" fill="#666666"/>
<path d="M196.26 105.044H198.648V104.228H192.828V105.044H195.288V106.412C195.288 108.236 193.992 110.276 192.456 111.044L193.032 111.824C194.244 111.2 195.288 109.832 195.78 108.26C196.272 109.7 197.28 110.96 198.48 111.56L199.044 110.768C197.484 110.036 196.26 108.128 196.26 106.412V105.044ZM202.692 107.468H200.916V103.136H199.932V113.888H200.916V108.296H202.692V107.468ZM208.285 103.988C210.049 103.988 211.057 104.396 211.057 105.116C211.057 105.836 210.049 106.244 208.285 106.244C206.533 106.244 205.513 105.836 205.513 105.116C205.513 104.396 206.533 103.988 208.285 103.988ZM208.285 106.976C210.661 106.976 212.065 106.328 212.065 105.116C212.065 103.904 210.661 103.244 208.285 103.244C205.921 103.244 204.505 103.904 204.505 105.116C204.505 106.328 205.921 106.976 208.285 106.976ZM209.485 109.484H207.037V108.416H209.485V109.484ZM213.145 108.416V107.624H203.425V108.416H206.065V109.484H204.601V110.228H210.937V111.188H204.625V113.768H212.233V113H205.585V111.908H211.909V109.484H210.457V108.416H213.145ZM220.562 108.308C219.002 107.756 217.946 106.412 217.946 105.008V104.612H220.31V103.808H214.562V104.612H216.962V105.02C216.962 106.544 215.846 107.972 214.25 108.548L214.766 109.316C216.026 108.86 217.01 107.876 217.478 106.64C217.946 107.744 218.87 108.644 220.07 109.076L220.562 108.308ZM217.046 110.732H222.122V112.952H217.046V110.732ZM216.086 113.744H223.082V109.952H216.086V113.744ZM222.086 103.124V105.824H219.962V106.64H222.086V109.424H223.082V103.124H222.086ZM225.663 103.808V104.612H229.479C229.275 106.436 227.679 107.84 225.123 108.572L225.531 109.34C228.615 108.464 230.523 106.532 230.523 103.808H225.663ZM227.883 110.504H232.899V112.94H227.883V110.504ZM226.911 113.732H233.859V109.724H226.911V113.732ZM232.875 103.124V105.896H230.535V106.7H232.875V109.268H233.859V103.124H232.875ZM199.512 124.6V128.344H194.256V124.6H193.368V133H194.256V129.124H199.512V133H200.388V124.6H199.512ZM208.208 129.844C208.208 127.948 206.924 126.64 205.148 126.64C203.372 126.64 202.064 127.972 202.064 129.844C202.064 131.716 203.408 133.06 205.376 133.06C206.372 133.06 207.248 132.7 207.812 132.028L207.332 131.476C206.852 132.028 206.168 132.304 205.4 132.304C204.02 132.304 203.012 131.428 202.916 130.108H208.196C208.196 130.012 208.208 129.916 208.208 129.844ZM205.148 127.372C206.384 127.372 207.284 128.236 207.392 129.472H202.916C203.024 128.236 203.924 127.372 205.148 127.372ZM209.692 133H210.544V124.096H209.692V133ZM215.917 126.64C214.873 126.64 213.997 127.096 213.481 127.936V126.688H212.665V135.328H213.517V131.812C214.045 132.628 214.909 133.06 215.917 133.06C217.717 133.06 219.061 131.764 219.061 129.844C219.061 127.936 217.717 126.64 215.917 126.64ZM215.857 132.304C214.513 132.304 213.505 131.32 213.505 129.844C213.505 128.38 214.513 127.384 215.857 127.384C217.189 127.384 218.209 128.38 218.209 129.844C218.209 131.32 217.189 132.304 215.857 132.304ZM223.618 133H227.038C229.726 133 231.538 131.272 231.538 128.8C231.538 126.328 229.726 124.6 227.038 124.6H223.618V133ZM224.506 132.232V125.368H226.99C229.222 125.368 230.662 126.784 230.662 128.8C230.662 130.816 229.222 132.232 226.99 132.232H224.506ZM238.61 129.844C238.61 127.948 237.326 126.64 235.55 126.64C233.774 126.64 232.466 127.972 232.466 129.844C232.466 131.716 233.81 133.06 235.778 133.06C236.774 133.06 237.65 132.7 238.214 132.028L237.734 131.476C237.254 132.028 236.57 132.304 235.802 132.304C234.422 132.304 233.414 131.428 233.318 130.108H238.598C238.598 130.012 238.61 129.916 238.61 129.844ZM235.55 127.372C236.786 127.372 237.686 128.236 237.794 129.472H233.318C233.426 128.236 234.326 127.372 235.55 127.372ZM241.786 133.06C243.43 133.06 244.39 132.352 244.39 131.26C244.39 128.836 240.298 130.12 240.298 128.416C240.298 127.816 240.802 127.372 241.942 127.372C242.59 127.372 243.25 127.528 243.802 127.912L244.174 127.228C243.646 126.868 242.758 126.64 241.942 126.64C240.334 126.64 239.446 127.408 239.446 128.44C239.446 130.936 243.538 129.64 243.538 131.284C243.538 131.908 243.046 132.316 241.846 132.316C240.958 132.316 240.106 132.004 239.602 131.608L239.218 132.28C239.734 132.724 240.742 133.06 241.786 133.06ZM250.599 133H251.643L248.691 129.268L251.391 126.688H250.335L246.567 130.132V124.096H245.715V133H246.567V131.2L248.055 129.832L250.599 133Z" fill="#666666"/>
<rect x="184" y="107" width="2" height="2" fill="#666666"/>
<rect x="184" y="127" width="2" height="2" fill="#666666"/>
<path d="M30.23 82.128C30.272 81.75 30.3 81.33 30.3 80.896C30.3 80.448 30.272 80.028 30.216 79.636H31.35V82.128H30.23ZM27.514 83.85C26.786 83.85 26.366 82.87 26.366 80.896C26.366 78.922 26.786 77.956 27.514 77.956C28.228 77.956 28.648 78.922 28.648 80.896C28.648 82.87 28.228 83.85 27.514 83.85ZM31.35 78.152H29.866C29.39 76.906 28.564 76.22 27.514 76.22C25.792 76.22 24.714 77.984 24.714 80.896C24.714 83.822 25.792 85.586 27.514 85.586C28.578 85.586 29.404 84.872 29.88 83.626H31.35V87.616H33.072V75.52H31.35V78.152ZM33.912 75.296V88.19H35.662V75.296H33.912ZM41.9629 80.742H39.4289V79.146H41.9629V80.742ZM43.7829 76.136H41.9629V77.732H39.4289V76.136H37.6089V82.184H43.7829V76.136ZM43.1529 86.79C41.5149 86.79 40.6329 86.44 40.6329 85.712C40.6329 84.984 41.5149 84.634 43.1529 84.634C44.8049 84.634 45.6869 84.984 45.6869 85.712C45.6869 86.44 44.8049 86.79 43.1529 86.79ZM43.1529 83.192C40.4789 83.192 38.7989 84.13 38.7989 85.712C38.7989 87.28 40.4789 88.218 43.1529 88.218C45.8409 88.218 47.5209 87.28 47.5209 85.712C47.5209 84.13 45.8409 83.192 43.1529 83.192ZM47.3809 78.32V75.324H45.5329V82.912H47.3809V79.832H49.0889V78.32H47.3809ZM60.2717 76.122H57.5417V75.212H55.6937V76.122H52.9497V77.34H60.2717V76.122ZM55.2177 79.272C55.2177 78.908 55.7357 78.726 56.6177 78.726C57.4997 78.726 58.0037 78.908 58.0037 79.272C58.0037 79.65 57.4997 79.846 56.6177 79.846C55.7357 79.846 55.2177 79.65 55.2177 79.272ZM60.5937 81.176C59.6137 81.288 58.5777 81.372 57.5417 81.428V80.91C58.9137 80.742 59.7537 80.154 59.7537 79.272C59.7537 78.222 58.5357 77.592 56.6177 77.592C54.6997 77.592 53.4677 78.222 53.4677 79.272C53.4677 80.154 54.3077 80.742 55.6937 80.91V81.498C54.5877 81.526 53.5517 81.526 52.6277 81.526L52.8097 82.786C55.0357 82.786 58.0177 82.758 60.7197 82.282L60.5937 81.176ZM56.1837 86.272H63.0017V83.36H54.3357V84.578H61.1817V85.138H54.3497V88.106H63.4497V86.888H56.1837V86.272ZM63.0017 78.348V75.296H61.1537V82.898H63.0017V79.86H64.6257V78.348H63.0017ZM71.2066 86.818C69.4846 86.818 68.6026 86.524 68.6026 85.852C68.6026 85.18 69.4846 84.872 71.2066 84.872C72.9286 84.872 73.8106 85.18 73.8106 85.852C73.8106 86.524 72.9286 86.818 71.2066 86.818ZM71.2066 83.472C68.4206 83.472 66.7406 84.326 66.7406 85.852C66.7406 87.364 68.4206 88.218 71.2066 88.218C73.9926 88.218 75.6866 87.364 75.6866 85.852C75.6866 84.326 73.9926 83.472 71.2066 83.472ZM72.1726 81.372V80.308H75.7566V78.838H68.6726V77.326H75.6866V75.856H66.8386V80.308H70.3246V81.372H65.4246V82.842H77.0866V81.372H72.1726Z" fill="#435CE7"/>
<rect y="174.699" width="327" height="40" rx="7" fill="#435CE7"/>
<path d="M134.377 198.699H138.193C140.941 198.699 142.825 197.043 142.825 194.499C142.825 191.955 140.941 190.299 138.193 190.299H134.377V198.699ZM136.321 197.103V191.895H138.097C139.765 191.895 140.857 192.891 140.857 194.499C140.857 196.107 139.765 197.103 138.097 197.103H136.321ZM150.233 195.495C150.233 193.419 148.769 192.147 146.873 192.147C144.905 192.147 143.429 193.539 143.429 195.471C143.429 197.391 144.881 198.795 147.113 198.795C148.277 198.795 149.177 198.435 149.777 197.751L148.781 196.671C148.337 197.091 147.845 197.295 147.161 197.295C146.177 197.295 145.493 196.803 145.313 195.999H150.197C150.209 195.843 150.233 195.639 150.233 195.495ZM146.885 193.563C147.725 193.563 148.337 194.091 148.469 194.907H145.289C145.421 194.079 146.033 193.563 146.885 193.563ZM154.889 197.067C154.685 197.223 154.409 197.307 154.133 197.307C153.629 197.307 153.329 197.007 153.329 196.455V193.827H154.937V192.387H153.329V190.815H151.457V192.387H150.461V193.827H151.457V196.479C151.457 198.015 152.345 198.795 153.869 198.795C154.445 198.795 155.009 198.663 155.393 198.387L154.889 197.067ZM162.319 195.495C162.319 193.419 160.855 192.147 158.959 192.147C156.991 192.147 155.515 193.539 155.515 195.471C155.515 197.391 156.967 198.795 159.199 198.795C160.363 198.795 161.263 198.435 161.863 197.751L160.867 196.671C160.423 197.091 159.931 197.295 159.247 197.295C158.263 197.295 157.579 196.803 157.399 195.999H162.283C162.295 195.843 162.319 195.639 162.319 195.495ZM158.971 193.563C159.811 193.563 160.423 194.091 160.555 194.907H157.375C157.507 194.079 158.119 193.563 158.971 193.563ZM166.435 198.795C167.791 198.795 168.859 198.195 169.327 197.163L167.875 196.371C167.527 196.995 167.011 197.259 166.423 197.259C165.475 197.259 164.731 196.599 164.731 195.471C164.731 194.343 165.475 193.683 166.423 193.683C167.011 193.683 167.527 193.959 167.875 194.571L169.327 193.791C168.859 192.735 167.791 192.147 166.435 192.147C164.335 192.147 162.835 193.527 162.835 195.471C162.835 197.415 164.335 198.795 166.435 198.795ZM173.909 197.067C173.705 197.223 173.429 197.307 173.153 197.307C172.649 197.307 172.349 197.007 172.349 196.455V193.827H173.957V192.387H172.349V190.815H170.477V192.387H169.481V193.827H170.477V196.479C170.477 198.015 171.365 198.795 172.889 198.795C173.465 198.795 174.029 198.663 174.413 198.387L173.909 197.067ZM176.15 191.343C176.846 191.343 177.314 190.887 177.314 190.263C177.314 189.687 176.846 189.255 176.15 189.255C175.454 189.255 174.986 189.711 174.986 190.299C174.986 190.887 175.454 191.343 176.15 191.343ZM175.214 198.699H177.086V192.243H175.214V198.699ZM181.645 198.795C183.697 198.795 185.185 197.415 185.185 195.471C185.185 193.527 183.697 192.147 181.645 192.147C179.593 192.147 178.093 193.527 178.093 195.471C178.093 197.415 179.593 198.795 181.645 198.795ZM181.645 197.259C180.709 197.259 179.989 196.587 179.989 195.471C179.989 194.355 180.709 193.683 181.645 193.683C182.581 193.683 183.289 194.355 183.289 195.471C183.289 196.587 182.581 197.259 181.645 197.259ZM190.11 192.147C189.234 192.147 188.478 192.447 187.974 192.999V192.243H186.186V198.699H188.058V195.507C188.058 194.319 188.706 193.767 189.606 193.767C190.434 193.767 190.914 194.247 190.914 195.291V198.699H192.786V195.003C192.786 193.035 191.634 192.147 190.11 192.147Z" fill="white"/>
<mask id="path-14-inside-2_1848_33016" fill="white">
<path fill-rule="evenodd" clip-rule="evenodd" d="M7 224.699C3.13401 224.699 0 227.833 0 231.699V305.699C0 309.565 3.134 312.699 6.99999 312.699H151.682C153.37 312.699 155.002 313.309 156.275 314.417L160.875 318.417C162.38 319.726 164.62 319.726 166.125 318.417L170.725 314.417C171.998 313.309 173.63 312.699 175.318 312.699H320C323.866 312.699 327 309.565 327 305.699V231.699C327 227.833 323.866 224.699 320 224.699H7Z"/>
</mask>
<path fill-rule="evenodd" clip-rule="evenodd" d="M7 224.699C3.13401 224.699 0 227.833 0 231.699V305.699C0 309.565 3.134 312.699 6.99999 312.699H151.682C153.37 312.699 155.002 313.309 156.275 314.417L160.875 318.417C162.38 319.726 164.62 319.726 166.125 318.417L170.725 314.417C171.998 313.309 173.63 312.699 175.318 312.699H320C323.866 312.699 327 309.565 327 305.699V231.699C327 227.833 323.866 224.699 320 224.699H7Z" fill="white"/>
<path d="M160.875 318.417L161.531 317.662L161.531 317.662L160.875 318.417ZM166.125 318.417L165.469 317.662L166.125 318.417ZM170.725 314.417L170.068 313.662L170.725 314.417ZM156.275 314.417L156.932 313.662L156.275 314.417ZM1 231.699C1 228.386 3.68629 225.699 7 225.699V223.699C2.58172 223.699 -1 227.281 -1 231.699H1ZM1 305.699V231.699H-1V305.699H1ZM6.99999 311.699C3.68629 311.699 1 309.013 1 305.699H-1C-1 310.117 2.58171 313.699 6.99999 313.699V311.699ZM151.682 311.699H6.99999V313.699H151.682V311.699ZM161.531 317.662L156.932 313.662L155.619 315.172L160.219 319.171L161.531 317.662ZM165.469 317.662C164.34 318.644 162.66 318.644 161.531 317.662L160.219 319.171C162.1 320.807 164.9 320.807 166.781 319.171L165.469 317.662ZM170.068 313.662L165.469 317.662L166.781 319.171L171.381 315.172L170.068 313.662ZM320 311.699H175.318V313.699H320V311.699ZM326 305.699C326 309.013 323.314 311.699 320 311.699V313.699C324.418 313.699 328 310.118 328 305.699H326ZM326 231.699V305.699H328V231.699H326ZM320 225.699C323.314 225.699 326 228.386 326 231.699H328C328 227.281 324.418 223.699 320 223.699V225.699ZM7 225.699H320V223.699H7V225.699ZM171.381 315.172C172.473 314.222 173.871 313.699 175.318 313.699V311.699C173.389 311.699 171.524 312.396 170.068 313.662L171.381 315.172ZM151.682 313.699C153.129 313.699 154.527 314.222 155.619 315.172L156.932 313.662C155.476 312.396 153.611 311.699 151.682 311.699V313.699Z" fill="#EEEEEE" mask="url(#path-14-inside-2_1848_33016)"/>
<path d="M34.868 285.239H33.884V288.347H41.288V287.543H34.868V285.239ZM34.724 280.295C34.724 279.443 35.804 278.939 37.508 278.939C39.188 278.939 40.268 279.443 40.268 280.295C40.268 281.147 39.188 281.639 37.508 281.639C35.804 281.639 34.724 281.147 34.724 280.295ZM38 283.547V282.419C40.004 282.311 41.276 281.531 41.276 280.295C41.276 278.951 39.8 278.147 37.508 278.147C35.192 278.147 33.716 278.951 33.716 280.295C33.716 281.543 34.988 282.311 37.016 282.419V283.547H32.636V284.351H42.356V283.547H38ZM46.1011 284.171C46.5331 284.171 46.8931 283.823 46.8931 283.343C46.8931 282.839 46.5331 282.491 46.1011 282.491C45.6691 282.491 45.3091 282.839 45.3091 283.343C45.3091 283.823 45.6691 284.171 46.1011 284.171ZM51.7976 281.351C51.7976 280.115 53.0576 279.311 54.7736 279.311C56.4896 279.311 57.7376 280.115 57.7376 281.351C57.7376 282.587 56.4896 283.391 54.7736 283.391C53.0576 283.391 51.7976 282.587 51.7976 281.351ZM55.2656 286.391V284.147C57.2696 284.003 58.6736 282.935 58.6736 281.351C58.6736 279.635 57.0416 278.531 54.7736 278.531C52.4936 278.531 50.8496 279.635 50.8496 281.351C50.8496 282.935 52.2656 284.003 54.2696 284.147V286.391H49.8896V287.207H59.6696V286.391H55.2656ZM66.8827 283.439H64.2067V279.695H66.8827V283.439ZM63.2227 283.439H61.5787V284.243H69.5107V283.439H67.8667V279.695H69.5347V278.903H61.5547V279.695H63.2227V283.439ZM60.6907 286.391V287.207H70.4467V286.391H60.6907ZM72.8838 282.683H76.7598V278.819H71.8878V279.623H75.7878V281.879H71.9238V285.995H72.7758C74.8278 285.995 76.2678 285.911 77.9478 285.611L77.8398 284.795C76.2318 285.107 74.8398 285.179 72.8838 285.179V282.683ZM81.5358 282.095H79.7718V277.811H78.7878V288.599H79.7718V282.923H81.5358V282.095ZM91.1008 277.835H90.1168V285.695H91.1008V277.835ZM83.4808 281.219C83.4808 280.175 84.2728 279.431 85.3168 279.431C86.3848 279.431 87.1768 280.175 87.1768 281.219C87.1768 282.287 86.3848 283.031 85.3168 283.031C84.2728 283.031 83.4808 282.287 83.4808 281.219ZM88.1368 281.219C88.1368 279.671 86.9248 278.579 85.3168 278.579C83.7208 278.579 82.5208 279.671 82.5208 281.219C82.5208 282.779 83.7208 283.883 85.3168 283.883C86.9248 283.883 88.1368 282.779 88.1368 281.219ZM85.1608 287.543V284.891H84.1768V288.347H91.4248V287.543H85.1608ZM97.5915 279.503H103.099V282.995H97.5915V279.503ZM100.855 286.391V283.775H104.059V278.723H96.6435V283.775H99.8595V286.391H95.4915V287.207H105.247V286.391H100.855ZM107.937 278.867H106.953V285.803H107.841C109.557 285.803 111.249 285.683 113.121 285.299L113.013 284.459C111.225 284.819 109.557 284.963 107.937 284.963V278.867ZM114.117 277.823V288.575H115.101V277.823H114.117ZM118.546 282.623H122.074V281.831H118.546V279.611H122.542V278.795H117.562V286.007H118.39C120.442 286.007 121.75 285.947 123.31 285.671L123.202 284.867C121.738 285.131 120.49 285.203 118.546 285.203V282.623ZM124.954 277.811V281.879H122.734V282.695H124.954V288.599H125.938V277.811H124.954ZM136.691 277.823H135.707V284.447H136.691V277.823ZM134.399 282.647C132.695 282.923 131.291 282.983 129.383 282.983V281.471H133.283V278.495H128.387V279.299H132.311V280.715H128.423V283.787H129.287C131.279 283.787 132.743 283.727 134.507 283.439L134.399 282.647ZM133.127 287.795C131.495 287.795 130.511 287.363 130.511 286.619C130.511 285.887 131.495 285.455 133.127 285.455C134.783 285.455 135.767 285.887 135.767 286.619C135.767 287.363 134.783 287.795 133.127 287.795ZM133.127 284.675C130.895 284.675 129.527 285.383 129.527 286.619C129.527 287.867 130.895 288.575 133.127 288.575C135.371 288.575 136.751 287.867 136.751 286.619C136.751 285.383 135.371 284.675 133.127 284.675Z" fill="#666666"/>
<rect x="24" y="281.699" width="2" height="2" fill="#666666"/>
<path d="M199.512 279.299V283.043H194.256V279.299H193.368V287.699H194.256V283.823H199.512V287.699H200.388V279.299H199.512ZM205.28 287.759C207.128 287.759 208.484 286.415 208.484 284.543C208.484 282.671 207.128 281.339 205.28 281.339C203.432 281.339 202.064 282.671 202.064 284.543C202.064 286.415 203.432 287.759 205.28 287.759ZM205.28 287.003C203.936 287.003 202.928 286.019 202.928 284.543C202.928 283.067 203.936 282.083 205.28 282.083C206.624 282.083 207.62 283.067 207.62 284.543C207.62 286.019 206.624 287.003 205.28 287.003ZM212.997 286.703C212.757 286.919 212.409 287.027 212.061 287.027C211.353 287.027 210.969 286.619 210.969 285.875V282.107H212.889V281.387H210.969V280.007H210.117V281.387H208.989V282.107H210.117V285.923C210.117 287.087 210.777 287.759 211.965 287.759C212.457 287.759 212.961 287.615 213.297 287.315L212.997 286.703ZM214.013 284.819H217.157V284.075H214.013V284.819ZM218.993 287.699H224.585V286.931H219.881V279.299H218.993V287.699ZM226.061 280.007C226.421 280.007 226.685 279.731 226.685 279.383C226.685 279.059 226.409 278.795 226.061 278.795C225.713 278.795 225.437 279.071 225.437 279.395C225.437 279.731 225.713 280.007 226.061 280.007ZM225.629 287.699H226.481V281.387H225.629V287.699ZM231.818 281.339C230.726 281.339 229.874 281.783 229.418 282.551V281.387H228.602V287.699H229.454V284.387C229.454 282.947 230.306 282.107 231.662 282.107C232.862 282.107 233.558 282.791 233.558 284.123V287.699H234.41V284.039C234.41 282.227 233.354 281.339 231.818 281.339ZM242.005 284.543C242.005 282.647 240.721 281.339 238.945 281.339C237.169 281.339 235.861 282.671 235.861 284.543C235.861 286.415 237.205 287.759 239.173 287.759C240.169 287.759 241.045 287.399 241.609 286.727L241.129 286.175C240.649 286.727 239.965 287.003 239.197 287.003C237.817 287.003 236.809 286.127 236.713 284.807H241.993C241.993 284.711 242.005 284.615 242.005 284.543ZM238.945 282.071C240.181 282.071 241.081 282.935 241.189 284.171H236.713C236.821 282.935 237.721 282.071 238.945 282.071ZM250.23 278.891C251.886 278.891 252.966 279.407 252.966 280.259C252.966 281.099 251.886 281.615 250.23 281.615C248.586 281.615 247.494 281.099 247.494 280.259C247.494 279.407 248.586 278.891 250.23 278.891ZM250.23 282.419C252.51 282.419 253.998 281.591 253.998 280.259C253.998 278.927 252.51 278.099 250.23 278.099C247.95 278.099 246.462 278.927 246.462 280.259C246.462 281.591 247.95 282.419 250.23 282.419ZM247.59 285.203H246.606V288.347H254.046V287.531H247.59V285.203ZM245.358 283.283V284.087H249.822V286.259H250.818V284.087H255.114V283.283H245.358ZM257.263 281.015C257.263 280.019 258.055 279.299 259.099 279.299C260.155 279.299 260.923 280.019 260.923 281.015C260.923 282.023 260.155 282.743 259.099 282.743C258.055 282.743 257.263 282.023 257.263 281.015ZM264.031 280.175V281.855H261.715C261.811 281.591 261.859 281.315 261.859 281.015C261.859 280.703 261.811 280.427 261.727 280.175H264.031ZM264.031 282.659V284.195H265.027V277.823H264.031V279.371H261.271C260.779 278.819 260.011 278.471 259.099 278.471C257.503 278.471 256.327 279.515 256.327 281.015C256.327 282.527 257.503 283.583 259.099 283.583C260.011 283.583 260.779 283.235 261.271 282.659H264.031ZM261.463 287.795C259.843 287.795 258.859 287.315 258.859 286.511C258.859 285.695 259.843 285.215 261.463 285.215C263.107 285.215 264.091 285.695 264.091 286.511C264.091 287.315 263.107 287.795 261.463 287.795ZM261.463 284.447C259.255 284.447 257.887 285.203 257.887 286.511C257.887 287.819 259.255 288.575 261.463 288.575C263.683 288.575 265.063 287.819 265.063 286.511C265.063 285.203 263.683 284.447 261.463 284.447Z" fill="#666666"/>
<rect x="184" y="281.699" width="2" height="2" fill="#666666"/>
<path d="M32.372 255.805C30.398 255.147 29.516 253.621 29.46 252.137H31.966V250.667H25.036V252.137H27.57C27.528 253.733 26.604 255.357 24.532 256.029L25.47 257.499C26.968 256.995 27.976 255.987 28.55 254.713C29.11 255.861 30.062 256.785 31.476 257.247L32.372 255.805ZM28.62 259.431H33.576V261.307H28.62V259.431ZM26.8 262.749H35.382V257.989H26.8V262.749ZM33.534 250.009V252.991H31.588V254.489H33.534V257.457H35.382V250.009H33.534ZM37.9869 250.751V252.221H41.9069C41.6129 253.929 40.0589 255.329 37.2869 256.085L38.0149 257.513C41.7669 256.477 43.8669 254.153 43.8669 250.751H37.9869ZM41.3469 259.193H46.1909V261.307H41.3469V259.193ZM39.5269 262.749H48.0109V257.737H39.5269V262.749ZM46.1629 250.023V253.061H43.9369V254.559H46.1629V257.205H48.0109V250.023H46.1629ZM63.4777 250.023H61.6297V257.331H63.4777V250.023ZM57.8777 254.797H55.2457V252.235H57.8777V254.797ZM59.6837 250.779H53.4257V256.239H59.6837V250.779ZM63.6877 259.389V258.017H60.0897V256.967H58.2137V258.017H54.6017V259.389H58.1717C57.9897 260.285 56.6877 261.265 54.1117 261.489L54.6857 262.861C56.8557 262.679 58.3677 261.923 59.1517 260.929C59.9357 261.909 61.4337 262.679 63.5757 262.861L64.1637 261.489C61.6157 261.279 60.3277 260.243 60.1317 259.389H63.6877ZM71.3705 252.417H76.9285V255.833H71.3705V252.417ZM75.0805 259.907V257.289H78.7345V250.961H69.5645V257.289H73.2325V259.907H68.3325V261.405H80.0085V259.907H75.0805ZM83.4674 251.227H81.6334V259.725H82.7814C84.7414 259.725 86.8834 259.585 89.0814 259.123L88.8854 257.583C86.9954 257.961 85.1614 258.101 83.4674 258.143V251.227ZM89.8794 249.995V262.889H91.7274V249.995H89.8794ZM96.0123 256.113H99.7083V254.671H96.0123V252.571H100.142V251.087H94.1783V260.005H95.2283C97.3983 260.005 99.0503 259.963 100.912 259.669L100.744 258.185C99.1623 258.437 97.7483 258.507 96.0123 258.521V256.113ZM102.564 249.995V254.545H100.352V256.029H102.564V262.931H104.412V249.995H102.564ZM116.929 250.009H115.067V257.835H116.929V250.009ZM114.003 255.469C112.323 255.749 110.825 255.819 108.697 255.833V254.699H112.799V250.765H106.863V252.235H110.979V253.327H106.877V257.317H108.011C110.573 257.317 112.295 257.261 114.213 256.939L114.003 255.469ZM112.589 261.489C110.909 261.489 110.027 261.181 110.027 260.495C110.027 259.823 110.909 259.515 112.589 259.515C114.283 259.515 115.165 259.823 115.165 260.495C115.165 261.181 114.283 261.489 112.589 261.489ZM112.589 258.073C109.859 258.073 108.179 258.969 108.179 260.495C108.179 262.021 109.859 262.917 112.589 262.917C115.333 262.917 117.013 262.021 117.013 260.495C117.013 258.969 115.333 258.073 112.589 258.073Z" fill="#435CE7"/>
<rect y="329.398" width="327" height="40" rx="7" fill="#435CE7"/>
<path d="M134.101 353.398H137.917C140.665 353.398 142.549 351.742 142.549 349.198C142.549 346.654 140.665 344.998 137.917 344.998H134.101V353.398ZM136.045 351.802V346.594H137.821C139.489 346.594 140.581 347.59 140.581 349.198C140.581 350.806 139.489 351.802 137.821 351.802H136.045ZM144.57 346.042C145.266 346.042 145.734 345.586 145.734 344.962C145.734 344.386 145.266 343.954 144.57 343.954C143.874 343.954 143.406 344.41 143.406 344.998C143.406 345.586 143.874 346.042 144.57 346.042ZM143.634 353.398H145.506V346.942H143.634V353.398ZM149.165 353.494C151.097 353.494 152.213 352.642 152.213 351.442C152.213 348.898 148.313 349.966 148.313 348.862C148.313 348.526 148.673 348.262 149.513 348.262C150.101 348.262 150.737 348.382 151.373 348.742L151.997 347.41C151.385 347.05 150.401 346.846 149.513 346.846C147.629 346.846 146.525 347.71 146.525 348.934C146.525 351.514 150.425 350.434 150.425 351.49C150.425 351.85 150.101 352.078 149.237 352.078C148.445 352.078 147.569 351.826 146.993 351.454L146.369 352.798C146.969 353.194 148.073 353.494 149.165 353.494ZM156.238 353.494C157.594 353.494 158.662 352.894 159.13 351.862L157.678 351.07C157.33 351.694 156.814 351.958 156.226 351.958C155.278 351.958 154.534 351.298 154.534 350.17C154.534 349.042 155.278 348.382 156.226 348.382C156.814 348.382 157.33 348.658 157.678 349.27L159.13 348.49C158.662 347.434 157.594 346.846 156.238 346.846C154.138 346.846 152.638 348.226 152.638 350.17C152.638 352.114 154.138 353.494 156.238 353.494ZM160.894 346.042C161.59 346.042 162.058 345.586 162.058 344.962C162.058 344.386 161.59 343.954 160.894 343.954C160.198 343.954 159.73 344.41 159.73 344.998C159.73 345.586 160.198 346.042 160.894 346.042ZM159.958 353.398H161.83V346.942H159.958V353.398ZM167.133 346.846C166.269 346.846 165.573 347.122 165.105 347.686V346.942H163.317V355.726H165.189V352.714C165.669 353.242 166.329 353.494 167.133 353.494C168.945 353.494 170.349 352.198 170.349 350.17C170.349 348.142 168.945 346.846 167.133 346.846ZM166.809 351.958C165.873 351.958 165.165 351.286 165.165 350.17C165.165 349.054 165.873 348.382 166.809 348.382C167.745 348.382 168.453 349.054 168.453 350.17C168.453 351.286 167.745 351.958 166.809 351.958ZM171.352 353.398H173.224V344.494H171.352V353.398ZM175.648 346.042C176.344 346.042 176.812 345.586 176.812 344.962C176.812 344.386 176.344 343.954 175.648 343.954C174.952 343.954 174.484 344.41 174.484 344.998C174.484 345.586 174.952 346.042 175.648 346.042ZM174.712 353.398H176.584V346.942H174.712V353.398ZM181.995 346.846C181.119 346.846 180.363 347.146 179.859 347.698V346.942H178.071V353.398H179.943V350.206C179.943 349.018 180.591 348.466 181.491 348.466C182.319 348.466 182.799 348.946 182.799 349.99V353.398H184.671V349.702C184.671 347.734 183.519 346.846 181.995 346.846ZM192.512 350.194C192.512 348.118 191.048 346.846 189.152 346.846C187.184 346.846 185.708 348.238 185.708 350.17C185.708 352.09 187.16 353.494 189.392 353.494C190.556 353.494 191.456 353.134 192.056 352.45L191.06 351.37C190.616 351.79 190.124 351.994 189.44 351.994C188.456 351.994 187.772 351.502 187.592 350.698H192.476C192.488 350.542 192.512 350.338 192.512 350.194ZM189.164 348.262C190.004 348.262 190.616 348.79 190.748 349.606H187.568C187.7 348.778 188.312 348.262 189.164 348.262Z" fill="white"/>
<rect x="0.5" y="379.898" width="326" height="107" rx="6.5" fill="white" stroke="#EEEEEE"/>
<path d="M33.044 433.914V434.718H36.272C36.128 436.95 35.108 438.894 32.636 440.274L33.212 440.982C36.272 439.254 37.244 436.686 37.244 433.914H33.044ZM40.82 432.522V436.854H39.356V432.81H38.432V442.746H39.356V437.658H40.82V443.286H41.768V432.522H40.82ZM51.2971 440.574H52.2931V432.534H51.2971V435.054H48.9451V435.87H51.2971V440.574ZM49.7131 438.03C48.1651 437.454 47.1091 436.038 47.1091 434.538V433.17H46.1251V434.502C46.1251 436.146 45.0451 437.67 43.4371 438.258L43.9531 439.038C45.2131 438.534 46.1731 437.514 46.6291 436.23C47.0851 437.394 48.0091 438.318 49.1971 438.786L49.7131 438.03ZM46.3531 442.242V439.686H45.3691V443.046H52.5451V442.242H46.3531ZM59.8301 438.558C60.1301 436.554 60.1301 435.15 60.1301 434.286V433.698H54.6941V434.502H59.1701C59.1701 435.366 59.1461 436.674 58.8461 438.462L59.8301 438.558ZM57.3581 436.77H56.3861V440.082C55.5821 440.106 54.7901 440.118 54.1061 440.118L54.2141 440.934C56.1221 440.934 58.6541 440.886 60.8861 440.526L60.8261 439.806C59.7341 439.95 58.5341 440.01 57.3581 440.058V436.77ZM64.1861 437.022H62.4701V432.522H61.4861V443.286H62.4701V437.85H64.1861V437.022ZM68.1592 434.586H70.0792V433.782H65.1712V434.586H67.2112V435.558C67.2112 437.538 66.3712 439.494 64.8712 440.394L65.4712 441.126C66.5392 440.454 67.3192 439.194 67.6912 437.718C68.0632 439.086 68.8072 440.238 69.8512 440.862L70.4512 440.142C68.9632 439.302 68.1592 437.43 68.1592 435.558V434.586ZM71.0392 436.386H69.2632V437.19H71.0392V442.722H71.9752V432.762H71.0392V436.386ZM73.1992 432.51V443.274H74.1472V432.51H73.1992ZM79.1978 438.21C80.8658 437.958 82.4138 437.13 83.0978 435.966C83.7818 437.13 85.3178 437.958 86.9858 438.21L87.3338 437.418C85.4138 437.154 83.5898 435.966 83.5898 434.646H87.0218V433.854H83.5898V432.534H82.6058V433.854H79.1738V434.646H82.5938C82.5938 435.978 80.7818 437.154 78.8378 437.418L79.1978 438.21ZM87.9698 439.026H78.2378V439.83H82.6058V443.298H83.5898V439.83H87.9698V439.026ZM97.8469 432.534H96.8629V440.406H97.8469V432.534ZM95.5909 438.09C94.0069 437.562 92.8909 436.254 92.8909 434.802V434.214H95.3269V433.422H89.4229V434.214H91.8829V434.802C91.8829 436.338 90.7909 437.742 89.1589 438.306L89.6749 439.074C90.9469 438.618 91.9429 437.646 92.3989 436.422C92.8909 437.55 93.8749 438.438 95.1109 438.87L95.5909 438.09ZM91.9069 442.242V439.662H90.9229V443.046H98.1709V442.242H91.9069ZM37.016 462.47C38.252 462.47 39.356 462.05 40.1 461.234L39.536 460.67C38.852 461.378 38.012 461.678 37.052 461.678C35.024 461.678 33.5 460.19 33.5 458.198C33.5 456.206 35.024 454.718 37.052 454.718C38.012 454.718 38.852 455.018 39.536 455.714L40.1 455.15C39.356 454.334 38.252 453.926 37.028 453.926C34.496 453.926 32.624 455.738 32.624 458.198C32.624 460.658 34.496 462.47 37.016 462.47ZM43.8618 462.458C45.7098 462.458 47.0658 461.114 47.0658 459.242C47.0658 457.37 45.7098 456.038 43.8618 456.038C42.0138 456.038 40.6458 457.37 40.6458 459.242C40.6458 461.114 42.0138 462.458 43.8618 462.458ZM43.8618 461.702C42.5178 461.702 41.5098 460.718 41.5098 459.242C41.5098 457.766 42.5178 456.782 43.8618 456.782C45.2058 456.782 46.2018 457.766 46.2018 459.242C46.2018 460.718 45.2058 461.702 43.8618 461.702ZM56.4272 456.038C55.2872 456.038 54.3872 456.554 53.9312 457.37C53.5472 456.482 52.7312 456.038 51.6872 456.038C50.6312 456.038 49.8152 456.482 49.3712 457.238V456.086H48.5552V462.398H49.4072V459.086C49.4072 457.646 50.2352 456.806 51.5192 456.806C52.6712 456.806 53.3432 457.49 53.3432 458.822V462.398H54.1952V459.086C54.1952 457.646 55.0112 456.806 56.3072 456.806C57.4472 456.806 58.1192 457.49 58.1192 458.822V462.398H58.9712V458.738C58.9712 456.926 57.9632 456.038 56.4272 456.038ZM64.2838 456.038C63.2398 456.038 62.3638 456.494 61.8478 457.334V456.086H61.0318V464.726H61.8838V461.21C62.4118 462.026 63.2758 462.458 64.2838 462.458C66.0838 462.458 67.4278 461.162 67.4278 459.242C67.4278 457.334 66.0838 456.038 64.2838 456.038ZM64.2238 461.702C62.8798 461.702 61.8718 460.718 61.8718 459.242C61.8718 457.778 62.8798 456.782 64.2238 456.782C65.5558 456.782 66.5758 457.778 66.5758 459.242C66.5758 460.718 65.5558 461.702 64.2238 461.702ZM68.9146 462.398H69.7666V453.494H68.9146V462.398ZM72.3192 454.706C72.6792 454.706 72.9432 454.43 72.9432 454.082C72.9432 453.758 72.6672 453.494 72.3192 453.494C71.9712 453.494 71.6952 453.77 71.6952 454.094C71.6952 454.43 71.9712 454.706 72.3192 454.706ZM71.8872 462.398H72.7392V456.086H71.8872V462.398ZM77.0679 456.038C76.0719 456.038 75.1359 456.35 74.4999 456.89L74.8839 457.526C75.3999 457.07 76.1679 456.782 76.9839 456.782C78.1599 456.782 78.7719 457.37 78.7719 458.45V458.834H76.7679C74.9559 458.834 74.3319 459.65 74.3319 460.622C74.3319 461.714 75.2079 462.458 76.6359 462.458C77.6799 462.458 78.4239 462.062 78.8079 461.414V462.398H79.6239V458.486C79.6239 456.854 78.6999 456.038 77.0679 456.038ZM76.7679 461.786C75.7599 461.786 75.1719 461.33 75.1719 460.598C75.1719 459.95 75.5679 459.47 76.7919 459.47H78.7719V460.502C78.4359 461.33 77.7279 461.786 76.7679 461.786ZM84.904 456.038C83.812 456.038 82.96 456.482 82.504 457.25V456.086H81.688V462.398H82.54V459.086C82.54 457.646 83.392 456.806 84.748 456.806C85.948 456.806 86.644 457.49 86.644 458.822V462.398H87.496V458.738C87.496 456.926 86.44 456.038 84.904 456.038ZM92.1985 462.458C93.2665 462.458 94.1665 462.026 94.6705 461.21L94.0345 460.778C93.6025 461.414 92.9305 461.702 92.1985 461.702C90.8185 461.702 89.8105 460.73 89.8105 459.242C89.8105 457.766 90.8185 456.782 92.1985 456.782C92.9305 456.782 93.6025 457.082 94.0345 457.718L94.6705 457.286C94.1665 456.458 93.2665 456.038 92.1985 456.038C90.3145 456.038 88.9465 457.358 88.9465 459.242C88.9465 461.126 90.3145 462.458 92.1985 462.458ZM101.497 459.242C101.497 457.346 100.213 456.038 98.4368 456.038C96.6608 456.038 95.3528 457.37 95.3528 459.242C95.3528 461.114 96.6968 462.458 98.6648 462.458C99.6608 462.458 100.537 462.098 101.101 461.426L100.621 460.874C100.141 461.426 99.4568 461.702 98.6888 461.702C97.3088 461.702 96.3008 460.826 96.2048 459.506H101.485C101.485 459.41 101.497 459.314 101.497 459.242ZM98.4368 456.77C99.6728 456.77 100.573 457.634 100.681 458.87H96.2048C96.3128 457.634 97.2128 456.77 98.4368 456.77ZM105.751 458.87C107.371 458.522 109.063 457.454 109.747 455.966C110.431 457.442 112.135 458.498 113.779 458.822L114.175 458.03C112.303 457.73 110.251 456.254 110.251 454.538V454.31H113.815V453.506H105.667V454.31H109.231V454.538C109.231 456.254 107.191 457.754 105.331 458.066L105.751 458.87ZM110.239 461.09V458.486H109.255V461.09H104.863V461.906H114.631V461.09H110.239ZM122.228 457.778C120.644 457.25 119.528 455.942 119.528 454.502V454.07H121.964V453.278H116.06V454.07H118.52V454.502C118.52 456.014 117.428 457.418 115.796 457.994L116.312 458.762C117.584 458.294 118.58 457.334 119.036 456.11C119.528 457.238 120.512 458.126 121.748 458.558L122.228 457.778ZM117.284 460.394H123.5V463.286H124.484V459.602H117.284V460.394ZM123.5 452.522V459.038H124.484V452.522H123.5ZM134.313 459.158H135.309V452.534H134.313V454.442H132.537V455.246H134.313V456.374H132.537V457.178H134.313V459.158ZM128.781 454.13H130.401V457.622C129.861 457.646 129.309 457.67 128.781 457.682V454.13ZM132.765 457.43C132.321 457.49 131.841 457.538 131.361 457.574V454.13H132.429V453.338H126.765V454.13H127.833V457.694C127.353 457.706 126.885 457.706 126.477 457.706L126.585 458.522C128.325 458.522 130.749 458.486 132.825 458.162L132.765 457.43ZM131.757 462.506C130.125 462.506 129.153 462.074 129.153 461.318C129.153 460.586 130.125 460.142 131.757 460.142C133.389 460.142 134.361 460.586 134.361 461.318C134.361 462.074 133.389 462.506 131.757 462.506ZM131.757 459.386C129.525 459.386 128.169 460.082 128.169 461.318C128.169 462.566 129.525 463.274 131.757 463.274C133.977 463.274 135.333 462.566 135.333 461.318C135.333 460.082 133.977 459.386 131.757 459.386ZM137.806 453.674V454.49H141.754C141.526 457.034 140.05 459.098 137.302 460.478L137.842 461.246C141.322 459.506 142.726 456.734 142.726 453.674H137.806ZM147.238 456.89H145.51V452.522H144.526V463.286H145.51V457.706H147.238V456.89Z" fill="#666666"/>
<rect x="24" y="436.399" width="2" height="2" fill="#666666"/>
<rect x="24" y="457.399" width="2" height="2" fill="#666666"/>
<path d="M196.152 434.346H198.828V437.874H196.152V434.346ZM197.988 441.138V438.666H201.456V437.874H199.812V434.346H201.48V433.554H193.5V434.346H195.168V437.874H193.524V438.666H196.992V441.138H192.636V441.942H202.392V441.138H197.988ZM209.641 437.586C208.093 437.058 207.037 435.714 207.037 434.262V433.074H206.053V434.178C206.053 435.822 205.009 437.286 203.377 437.874L203.893 438.654C205.153 438.174 206.113 437.19 206.557 435.93C207.037 437.034 207.961 437.922 209.125 438.354L209.641 437.586ZM208.357 442.506C206.761 442.506 205.789 442.062 205.789 441.318C205.789 440.562 206.761 440.118 208.357 440.118C209.941 440.118 210.913 440.562 210.913 441.318C210.913 442.062 209.941 442.506 208.357 442.506ZM208.357 439.35C206.161 439.35 204.805 440.058 204.805 441.318C204.805 442.566 206.161 443.274 208.357 443.274C210.541 443.274 211.897 442.566 211.897 441.318C211.897 440.058 210.541 439.35 208.357 439.35ZM211.777 435.306V432.534H210.793V439.05H211.777V436.122H213.373V435.306H211.777ZM225.468 432.522H224.484V438.702H225.468V432.522ZM221.28 436.83H218.172V433.998H221.28V436.83ZM222.24 433.218H217.212V437.622H222.24V433.218ZM225.72 440.19V439.434H222.564V438.39H221.568V439.434H218.412V440.19H221.556C221.544 441.258 219.828 442.278 217.992 442.494L218.316 443.25C219.936 443.022 221.424 442.302 222.072 441.282C222.708 442.278 224.148 443.022 225.768 443.25L226.104 442.494C224.256 442.266 222.576 441.222 222.564 440.19H225.72ZM238.702 432.534H237.718V439.026H238.702V432.534ZM236.446 437.742C234.862 437.226 233.746 435.918 233.746 434.478V434.166H236.182V433.362H230.278V434.166H232.738V434.478C232.738 436.038 231.646 437.454 230.026 438.018L230.542 438.798C231.814 438.318 232.81 437.334 233.266 436.11C233.758 437.226 234.742 438.102 235.966 438.522L236.446 437.742ZM235.126 442.554C233.494 442.554 232.486 442.098 232.486 441.306C232.486 440.502 233.494 440.058 235.126 440.058C236.758 440.058 237.754 440.502 237.754 441.306C237.754 442.098 236.758 442.554 235.126 442.554ZM235.126 439.278C232.894 439.278 231.514 440.022 231.514 441.306C231.514 442.59 232.894 443.322 235.126 443.322C237.358 443.322 238.738 442.59 238.738 441.306C238.738 440.022 237.358 439.278 235.126 439.278ZM246.707 435.522H245.111C245.207 434.982 245.255 434.442 245.255 433.89H241.127V434.694H244.283C244.115 436.95 242.963 438.882 240.647 440.262L241.223 440.958C243.263 439.746 244.427 438.126 244.931 436.314H246.707V438.21H244.763V439.014H246.707V442.734H247.643V432.81H246.707V435.522ZM248.867 432.522V443.274H249.803V432.522H248.867Z" fill="#666666"/>
<rect x="184" y="436.399" width="2" height="2" fill="#666666"/>
<path d="M29.348 405.702H27.486V407.578C27.486 409.972 26.506 412.436 24.336 413.458L25.442 414.956C26.898 414.242 27.864 412.884 28.424 411.246C28.956 412.786 29.866 414.032 31.21 414.718L32.33 413.262C30.258 412.24 29.348 409.902 29.348 407.578V405.702ZM36.572 409.664H34.696V404.708H32.848V417.602H34.696V411.204H36.572V409.664ZM48.2769 406.052H43.9789V404.694H42.1309V406.052H37.7909V407.494H48.2769V406.052ZM45.5609 410.224C45.5609 410.798 44.7349 411.064 43.0549 411.064C41.3749 411.064 40.5629 410.798 40.5629 410.224C40.5629 409.622 41.3749 409.37 43.0549 409.37C44.7349 409.37 45.5609 409.622 45.5609 410.224ZM38.6449 410.224C38.6449 411.638 40.2969 412.436 43.0549 412.436C45.8129 412.436 47.4789 411.638 47.4789 410.224C47.4789 408.796 45.8129 407.998 43.0549 407.998C40.2969 407.998 38.6449 408.796 38.6449 410.224ZM48.9069 413.052H37.2309V414.536H42.1309V417.616H43.9789V414.536H48.9069V413.052ZM56.7478 410.238C57.0418 408.614 57.0418 407.34 57.0418 406.444V405.646H50.4198V407.116H55.2218C55.2078 407.886 55.1518 408.824 54.9418 410.028L56.7478 410.238ZM57.6018 410.756C56.3978 410.924 55.1098 411.022 53.8358 411.078V408.642H52.0298V411.148C51.1898 411.162 50.3918 411.162 49.6778 411.162L49.8458 412.632C52.0578 412.618 55.0538 412.562 57.7138 412.072L57.6018 410.756ZM53.4018 413.5H51.5538V417.378H60.5558V415.908H53.4018V413.5ZM60.1498 408.628V404.694H58.3018V414.354H60.1498V410.154H61.6898V408.628H60.1498ZM65.0647 410.784H69.2507V405.8H63.1607V407.27H67.3607V409.328H63.1747V414.634H64.3367C66.6747 414.634 68.5647 414.55 70.6647 414.186L70.4687 412.688C68.6487 412.996 67.0247 413.094 65.0647 413.108V410.784ZM71.3647 404.694V417.63H73.2127V404.694H71.3647Z" fill="#435CE7"/>
</svg>
