<svg width="1200" height="370" viewBox="0 0 1200 370" fill="none" xmlns="http://www.w3.org/2000/svg">
<mask id="path-1-inside-1_2559_42187" fill="white">
<path d="M0 0H740V330H0V0Z"/>
</mask>
<path d="M740 329H0V331H740V329Z" fill="#DDDDDD" mask="url(#path-1-inside-1_2559_42187)"/>
<mask id="path-3-inside-2_2559_42187" fill="white">
<path d="M780 0H1200V330H780V0Z"/>
</mask>
<path d="M1200 329H780V331H1200V329Z" fill="#DDDDDD" mask="url(#path-3-inside-2_2559_42187)"/>
<rect opacity="0.14" x="779.994" width="419.997" height="60" rx="10" fill="#10C469"/>
<rect x="1004.99" width="195.003" height="60" rx="10" fill="#10C469"/>
<path d="M1149.72 31.2219H1148.12V29.3879H1145.98V31.2219H1143.35L1147.63 25.3279H1145.25L1140.63 31.5439V33.0699H1145.91V35.1279H1148.12V33.0699H1149.72V31.2219ZM1153.22 33.2799L1155.48 31.1519C1156.85 29.8779 1157.12 29.0099 1157.12 28.0579C1157.12 26.2799 1155.66 25.1599 1153.48 25.1599C1151.71 25.1599 1150.34 25.8739 1149.58 26.9799L1151.24 28.0439C1151.71 27.3859 1152.43 27.0639 1153.27 27.0639C1154.3 27.0639 1154.83 27.5119 1154.83 28.2819C1154.83 28.7579 1154.68 29.2619 1153.81 30.0879L1150.03 33.6579V35.1279H1157.44V33.2799H1153.22ZM1160.53 30.6199C1161.96 30.6199 1162.95 29.5839 1162.95 27.9179C1162.95 26.2519 1161.96 25.2159 1160.53 25.2159C1159.1 25.2159 1158.09 26.2659 1158.09 27.9179C1158.09 29.5699 1159.1 30.6199 1160.53 30.6199ZM1159.67 35.1279H1161.34L1168.03 25.3279H1166.37L1159.67 35.1279ZM1160.53 29.4719C1159.93 29.4719 1159.51 28.9539 1159.51 27.9179C1159.51 26.8819 1159.93 26.3639 1160.53 26.3639C1161.14 26.3639 1161.55 26.8679 1161.55 27.9179C1161.55 28.9679 1161.14 29.4719 1160.53 29.4719ZM1167.18 35.2399C1168.61 35.2399 1169.61 34.1899 1169.61 32.5379C1169.61 30.8859 1168.61 29.8359 1167.18 29.8359C1165.76 29.8359 1164.76 30.8859 1164.76 32.5379C1164.76 34.1899 1165.76 35.2399 1167.18 35.2399ZM1167.18 34.0919C1166.58 34.0919 1166.16 33.5879 1166.16 32.5379C1166.16 31.4879 1166.58 30.9839 1167.18 30.9839C1167.79 30.9839 1168.2 31.5019 1168.2 32.5379C1168.2 33.5739 1167.79 34.0919 1167.18 34.0919Z" fill="white"/>
<rect opacity="0.5" width="740" height="60" rx="10" fill="#D4DFFA"/>
<rect width="202" height="60" rx="10" transform="matrix(-1 0 0 1 740 0)" fill="#435CE7"/>
<path d="M686.416 28.3209L688.628 25.8009V24.3309L681.768 24.3309V26.1509L685.94 26.1509L683.924 28.4329V29.9309L684.96 29.9309C686.248 29.9309 686.794 30.3929 686.794 31.1349C686.794 31.9329 686.094 32.3949 684.96 32.3949C683.938 32.3949 682.902 32.0729 682.16 31.5129L681.278 33.2489C682.23 33.9209 683.644 34.2989 685.016 34.2989C687.802 34.2989 689.076 32.7869 689.076 31.1349C689.076 29.6929 688.18 28.6009 686.416 28.3209ZM689.569 24.3309V27.7749H691.585V26.1789H694.833L691.319 34.1309H693.783L697.423 25.8009V24.3309H689.569ZM700.532 29.6229C701.96 29.6229 702.954 28.5869 702.954 26.9209C702.954 25.2549 701.96 24.2189 700.532 24.2189C699.104 24.2189 698.096 25.2689 698.096 26.9209C698.096 28.5729 699.104 29.6229 700.532 29.6229ZM699.678 34.1309H701.344L708.036 24.3309H706.37L699.678 34.1309ZM700.532 28.4749C699.93 28.4749 699.51 27.9569 699.51 26.9209C699.51 25.8849 699.93 25.3669 700.532 25.3669C701.148 25.3669 701.554 25.8709 701.554 26.9209C701.554 27.9709 701.148 28.4749 700.532 28.4749ZM707.182 34.2429C708.61 34.2429 709.618 33.1929 709.618 31.5409C709.618 29.8889 708.61 28.8389 707.182 28.8389C705.768 28.8389 704.76 29.8889 704.76 31.5409C704.76 33.1929 705.768 34.2429 707.182 34.2429ZM707.182 33.0949C706.58 33.0949 706.16 32.5909 706.16 31.5409C706.16 30.4909 706.58 29.9869 707.182 29.9869C707.798 29.9869 708.204 30.5049 708.204 31.5409C708.204 32.5769 707.798 33.0949 707.182 33.0949Z" fill="white"/>
<path d="M32.5335 34.9099L35.5295 32.0259C36.8595 30.7519 37.1395 29.8979 37.1395 28.9459C37.1395 27.2659 35.8235 26.2159 33.7795 26.2159C32.2535 26.2159 30.9515 26.7619 30.1955 27.6999L31.1475 28.5259C31.7495 27.7979 32.6035 27.4619 33.6535 27.4619C35.0255 27.4619 35.7395 28.0779 35.7395 29.0859C35.7395 29.7019 35.5435 30.3179 34.5075 31.3259L30.5175 35.1759V36.1279H37.5595V34.9099H32.5335ZM42.4236 36.2399C44.7056 36.2399 46.4136 34.4199 46.4136 31.2279C46.4136 28.0359 44.7056 26.2159 42.4236 26.2159C40.1276 26.2159 38.4196 28.0359 38.4196 31.2279C38.4196 34.4199 40.1276 36.2399 42.4236 36.2399ZM42.4236 34.9939C40.8836 34.9939 39.8196 33.7339 39.8196 31.2279C39.8196 28.7219 40.8836 27.4619 42.4236 27.4619C43.9496 27.4619 45.0136 28.7219 45.0136 31.2279C45.0136 33.7339 43.9496 34.9939 42.4236 34.9939ZM49.3284 34.9099L52.3244 32.0259C53.6544 30.7519 53.9344 29.8979 53.9344 28.9459C53.9344 27.2659 52.6184 26.2159 50.5744 26.2159C49.0484 26.2159 47.7464 26.7619 46.9904 27.6999L47.9424 28.5259C48.5444 27.7979 49.3984 27.4619 50.4484 27.4619C51.8204 27.4619 52.5344 28.0779 52.5344 29.0859C52.5344 29.7019 52.3384 30.3179 51.3024 31.3259L47.3124 35.1759V36.1279H54.3544V34.9099H49.3284ZM58.0555 30.2339H56.9635L57.2295 27.5459L61.5835 27.5459V26.3279H56.0535L55.5355 31.4519H57.7615C60.0295 31.4519 60.7295 32.1379 60.7295 33.2439C60.7295 34.3079 59.8895 34.9939 58.4055 34.9939C57.2155 34.9939 56.1235 34.5599 55.4655 33.9439L54.8215 35.0499C55.6615 35.7919 57.0335 36.2399 58.4195 36.2399C60.9255 36.2399 62.1295 34.8819 62.1295 33.1879C62.1295 31.4519 60.9815 30.2339 58.0555 30.2339ZM72.1166 33.9019H73.5586V24.5639H72.1166V26.1039H68.7566V27.2519H72.1166V28.4979H68.7566V29.6459H72.1166V33.9019ZM70.1566 30.5139C68.4066 30.8219 66.8806 30.9199 65.2426 30.9339V25.4319H63.8006V32.1239H64.7806C66.6566 32.1239 68.3366 32.0399 70.2966 31.6899L70.1566 30.5139ZM66.7966 35.7919V33.0759H65.3546V36.9679H73.8806V35.7919H66.7966Z" fill="#435CE7"/>
<rect opacity="0.14" x="780" y="80" width="420" height="60" rx="10" fill="#10C469"/>
<rect x="915" y="80" width="285" height="60" rx="10" fill="#10C469"/>
<path d="M1146.38 108.982C1145.36 108.982 1144.54 109.276 1143.96 109.85C1144.03 107.974 1145.08 107.008 1146.72 107.008C1147.38 107.008 1148.01 107.134 1148.55 107.498L1149.39 105.832C1148.71 105.398 1147.7 105.16 1146.66 105.16C1143.71 105.16 1141.67 107.05 1141.67 110.438C1141.67 113.602 1143.35 115.296 1146.05 115.296C1148.12 115.296 1149.76 114.036 1149.76 112.034C1149.76 110.186 1148.27 108.982 1146.38 108.982ZM1145.92 113.602C1144.83 113.602 1144.2 112.986 1144.2 112.146C1144.2 111.292 1144.9 110.676 1145.89 110.676C1146.9 110.676 1147.56 111.25 1147.56 112.146C1147.56 113.042 1146.89 113.602 1145.92 113.602ZM1153.69 109.01H1152.89L1153.05 107.148H1157.13V105.328H1151.16L1150.65 110.844H1153.16C1154.94 110.844 1155.44 111.348 1155.44 112.118C1155.44 112.916 1154.74 113.392 1153.61 113.392C1152.58 113.392 1151.56 113.07 1150.82 112.51L1149.92 114.246C1150.88 114.918 1152.3 115.296 1153.66 115.296C1156.46 115.296 1157.74 113.784 1157.74 112.048C1157.74 110.312 1156.59 109.01 1153.69 109.01ZM1160.54 110.62C1161.96 110.62 1162.96 109.584 1162.96 107.918C1162.96 106.252 1161.96 105.216 1160.54 105.216C1159.11 105.216 1158.1 106.266 1158.1 107.918C1158.1 109.57 1159.11 110.62 1160.54 110.62ZM1159.68 115.128H1161.35L1168.04 105.328H1166.37L1159.68 115.128ZM1160.54 109.472C1159.93 109.472 1159.51 108.954 1159.51 107.918C1159.51 106.882 1159.93 106.364 1160.54 106.364C1161.15 106.364 1161.56 106.868 1161.56 107.918C1161.56 108.968 1161.15 109.472 1160.54 109.472ZM1167.19 115.24C1168.61 115.24 1169.62 114.19 1169.62 112.538C1169.62 110.886 1168.61 109.836 1167.19 109.836C1165.77 109.836 1164.76 110.886 1164.76 112.538C1164.76 114.19 1165.77 115.24 1167.19 115.24ZM1167.19 114.092C1166.58 114.092 1166.16 113.588 1166.16 112.538C1166.16 111.488 1166.58 110.984 1167.19 110.984C1167.8 110.984 1168.21 111.502 1168.21 112.538C1168.21 113.574 1167.8 114.092 1167.19 114.092Z" fill="white"/>
<rect opacity="0.5" y="80" width="740" height="60" rx="10" fill="#D4DFFA"/>
<rect width="326" height="60" rx="10" transform="matrix(-1 0 0 1 740 80)" fill="#435CE7"/>
<path d="M684.697 108.013H683.899L684.053 106.151H688.141V104.331H682.163L681.659 109.847H684.165C685.943 109.847 686.447 110.351 686.447 111.121C686.447 111.919 685.747 112.395 684.613 112.395C683.591 112.395 682.569 112.073 681.827 111.513L680.931 113.249C681.883 113.921 683.311 114.299 684.669 114.299C687.469 114.299 688.743 112.787 688.743 111.051C688.743 109.315 687.595 108.013 684.697 108.013ZM696.119 108.979C696.847 108.531 697.267 107.845 697.267 106.963C697.267 105.241 695.727 104.163 693.473 104.163C691.247 104.163 689.707 105.241 689.707 106.963C689.707 107.845 690.113 108.531 690.841 108.979C689.903 109.455 689.357 110.239 689.357 111.289C689.357 113.137 690.995 114.299 693.473 114.299C695.965 114.299 697.617 113.137 697.617 111.289C697.617 110.239 697.071 109.455 696.119 108.979ZM693.473 105.829C694.397 105.829 695.013 106.291 695.013 107.061C695.013 107.803 694.411 108.265 693.473 108.265C692.549 108.265 691.961 107.803 691.961 107.061C691.961 106.291 692.563 105.829 693.473 105.829ZM693.473 112.633C692.353 112.633 691.653 112.087 691.653 111.219C691.653 110.351 692.353 109.819 693.473 109.819C694.607 109.819 695.321 110.351 695.321 111.219C695.321 112.087 694.607 112.633 693.473 112.633ZM700.537 109.623C701.965 109.623 702.959 108.587 702.959 106.921C702.959 105.255 701.965 104.219 700.537 104.219C699.109 104.219 698.101 105.269 698.101 106.921C698.101 108.573 699.109 109.623 700.537 109.623ZM699.683 114.131H701.349L708.041 104.331H706.375L699.683 114.131ZM700.537 108.475C699.935 108.475 699.515 107.957 699.515 106.921C699.515 105.885 699.935 105.367 700.537 105.367C701.153 105.367 701.559 105.871 701.559 106.921C701.559 107.971 701.153 108.475 700.537 108.475ZM707.187 114.243C708.615 114.243 709.623 113.193 709.623 111.541C709.623 109.889 708.615 108.839 707.187 108.839C705.773 108.839 704.765 109.889 704.765 111.541C704.765 113.193 705.773 114.243 707.187 114.243ZM707.187 113.095C706.585 113.095 706.165 112.591 706.165 111.541C706.165 110.491 706.585 109.987 707.187 109.987C707.803 109.987 708.209 110.505 708.209 111.541C708.209 112.577 707.803 113.095 707.187 113.095Z" fill="white"/>
<path d="M32.5338 114.91L35.5298 112.026C36.8598 110.752 37.1398 109.898 37.1398 108.946C37.1398 107.266 35.8238 106.216 33.7798 106.216C32.2538 106.216 30.9518 106.762 30.1958 107.7L31.1478 108.526C31.7498 107.798 32.6038 107.462 33.6538 107.462C35.0258 107.462 35.7398 108.078 35.7398 109.086C35.7398 109.702 35.5438 110.318 34.5078 111.326L30.5178 115.176V116.128H37.5598V114.91H32.5338ZM42.4238 116.24C44.7058 116.24 46.4138 114.42 46.4138 111.228C46.4138 108.036 44.7058 106.216 42.4238 106.216C40.1278 106.216 38.4198 108.036 38.4198 111.228C38.4198 114.42 40.1278 116.24 42.4238 116.24ZM42.4238 114.994C40.8838 114.994 39.8198 113.734 39.8198 111.228C39.8198 108.722 40.8838 107.462 42.4238 107.462C43.9498 107.462 45.0138 108.722 45.0138 111.228C45.0138 113.734 43.9498 114.994 42.4238 114.994ZM51.123 110.444L53.685 107.28V106.328H47.217V107.546H51.935L49.471 110.57V111.55H50.255C51.935 111.55 52.677 112.222 52.677 113.258C52.677 114.322 51.837 114.994 50.367 114.994C49.163 114.994 48.071 114.56 47.413 113.944L46.769 115.05C47.595 115.792 48.967 116.24 50.367 116.24C52.859 116.24 54.077 114.896 54.077 113.244C54.077 111.732 53.083 110.626 51.123 110.444ZM59.1367 116.24C61.4187 116.24 63.1267 114.42 63.1267 111.228C63.1267 108.036 61.4187 106.216 59.1367 106.216C56.8407 106.216 55.1327 108.036 55.1327 111.228C55.1327 114.42 56.8407 116.24 59.1367 116.24ZM59.1367 114.994C57.5967 114.994 56.5327 113.734 56.5327 111.228C56.5327 108.722 57.5967 107.462 59.1367 107.462C60.6627 107.462 61.7267 108.722 61.7267 111.228C61.7267 113.734 60.6627 114.994 59.1367 114.994ZM73.2926 113.902H74.7346V104.564H73.2926V106.104H69.9326V107.252H73.2926V108.498H69.9326V109.646H73.2926V113.902ZM71.3326 110.514C69.5826 110.822 68.0566 110.92 66.4186 110.934V105.432H64.9766V112.124H65.9566C67.8326 112.124 69.5126 112.04 71.4726 111.69L71.3326 110.514ZM67.9726 115.792V113.076H66.5306V116.968H75.0566V115.792H67.9726Z" fill="#435CE7"/>
<rect opacity="0.14" x="780" y="160" width="420" height="60" rx="10" fill="#10C469"/>
<rect x="848" y="160" width="352" height="60" rx="10" fill="#10C469"/>
<path d="M1143.8 185.16C1141.72 185.16 1140.09 186.42 1140.09 188.422C1140.09 190.27 1141.57 191.474 1143.46 191.474C1144.48 191.474 1145.32 191.166 1145.9 190.592C1145.83 192.482 1144.76 193.448 1143.14 193.448C1142.47 193.448 1141.84 193.322 1141.3 192.958L1140.46 194.624C1141.15 195.058 1142.14 195.296 1143.18 195.296C1146.15 195.296 1148.18 193.406 1148.18 190.018C1148.18 186.854 1146.51 185.16 1143.8 185.16ZM1143.96 189.78C1142.96 189.78 1142.3 189.206 1142.3 188.31C1142.3 187.414 1142.97 186.854 1143.94 186.854C1145.01 186.854 1145.64 187.47 1145.64 188.31C1145.64 189.164 1144.96 189.78 1143.96 189.78ZM1153.22 195.296C1155.64 195.296 1157.42 193.462 1157.42 190.228C1157.42 186.994 1155.64 185.16 1153.22 185.16C1150.81 185.16 1149.02 186.994 1149.02 190.228C1149.02 193.462 1150.81 195.296 1153.22 195.296ZM1153.22 193.378C1152.1 193.378 1151.31 192.454 1151.31 190.228C1151.31 188.002 1152.1 187.078 1153.22 187.078C1154.35 187.078 1155.13 188.002 1155.13 190.228C1155.13 192.454 1154.35 193.378 1153.22 193.378ZM1160.54 190.62C1161.96 190.62 1162.96 189.584 1162.96 187.918C1162.96 186.252 1161.96 185.216 1160.54 185.216C1159.11 185.216 1158.1 186.266 1158.1 187.918C1158.1 189.57 1159.11 190.62 1160.54 190.62ZM1159.68 195.128H1161.35L1168.04 185.328H1166.37L1159.68 195.128ZM1160.54 189.472C1159.93 189.472 1159.51 188.954 1159.51 187.918C1159.51 186.882 1159.93 186.364 1160.54 186.364C1161.15 186.364 1161.56 186.868 1161.56 187.918C1161.56 188.968 1161.15 189.472 1160.54 189.472ZM1167.19 195.24C1168.61 195.24 1169.62 194.19 1169.62 192.538C1169.62 190.886 1168.61 189.836 1167.19 189.836C1165.77 189.836 1164.76 190.886 1164.76 192.538C1164.76 194.19 1165.77 195.24 1167.19 195.24ZM1167.19 194.092C1166.58 194.092 1166.16 193.588 1166.16 192.538C1166.16 191.488 1166.58 190.984 1167.19 190.984C1167.8 190.984 1168.21 191.502 1168.21 192.538C1168.21 193.574 1167.8 194.092 1167.19 194.092Z" fill="white"/>
<rect opacity="0.5" y="160" width="740" height="60" rx="10" fill="#D4DFFA"/>
<rect width="403" height="60" rx="10" transform="matrix(-1 0 0 1 740 160)" fill="#435CE7"/>
<path d="M681.948 184.331V187.775H683.964V186.179H687.212L683.698 194.131H686.162L689.802 185.801V184.331H681.948ZM693.689 188.013H692.891L693.045 186.151H697.133V184.331H691.155L690.651 189.847H693.157C694.935 189.847 695.439 190.351 695.439 191.121C695.439 191.919 694.739 192.395 693.605 192.395C692.583 192.395 691.561 192.073 690.819 191.513L689.923 193.249C690.875 193.921 692.303 194.299 693.661 194.299C696.461 194.299 697.735 192.787 697.735 191.051C697.735 189.315 696.587 188.013 693.689 188.013ZM700.537 189.623C701.965 189.623 702.959 188.587 702.959 186.921C702.959 185.255 701.965 184.219 700.537 184.219C699.109 184.219 698.101 185.269 698.101 186.921C698.101 188.573 699.109 189.623 700.537 189.623ZM699.683 194.131H701.349L708.041 184.331H706.375L699.683 194.131ZM700.537 188.475C699.935 188.475 699.515 187.957 699.515 186.921C699.515 185.885 699.935 185.367 700.537 185.367C701.153 185.367 701.559 185.871 701.559 186.921C701.559 187.971 701.153 188.475 700.537 188.475ZM707.187 194.243C708.615 194.243 709.623 193.193 709.623 191.541C709.623 189.889 708.615 188.839 707.187 188.839C705.773 188.839 704.765 189.889 704.765 191.541C704.765 193.193 705.773 194.243 707.187 194.243ZM707.187 193.095C706.585 193.095 706.165 192.591 706.165 191.541C706.165 190.491 706.585 189.987 707.187 189.987C707.803 189.987 708.209 190.505 708.209 191.541C708.209 192.577 707.803 193.095 707.187 193.095Z" fill="white"/>
<path d="M32.5338 194.91L35.5298 192.026C36.8598 190.752 37.1398 189.898 37.1398 188.946C37.1398 187.266 35.8238 186.216 33.7798 186.216C32.2538 186.216 30.9518 186.762 30.1958 187.7L31.1478 188.526C31.7498 187.798 32.6038 187.462 33.6538 187.462C35.0258 187.462 35.7398 188.078 35.7398 189.086C35.7398 189.702 35.5438 190.318 34.5078 191.326L30.5178 195.176V196.128H37.5598V194.91H32.5338ZM42.4238 196.24C44.7058 196.24 46.4138 194.42 46.4138 191.228C46.4138 188.036 44.7058 186.216 42.4238 186.216C40.1278 186.216 38.4198 188.036 38.4198 191.228C38.4198 194.42 40.1278 196.24 42.4238 196.24ZM42.4238 194.994C40.8838 194.994 39.8198 193.734 39.8198 191.228C39.8198 188.722 40.8838 187.462 42.4238 187.462C43.9498 187.462 45.0138 188.722 45.0138 191.228C45.0138 193.734 43.9498 194.994 42.4238 194.994ZM56.0337 192.516H54.1717V190.388H52.8557V192.516H49.0897L53.8917 186.328H52.3797L47.3677 192.74V193.72H52.8137V196.128H54.1717V193.72H56.0337V192.516ZM60.6269 196.24C62.9089 196.24 64.6169 194.42 64.6169 191.228C64.6169 188.036 62.9089 186.216 60.6269 186.216C58.3309 186.216 56.6229 188.036 56.6229 191.228C56.6229 194.42 58.3309 196.24 60.6269 196.24ZM60.6269 194.994C59.0869 194.994 58.0229 193.734 58.0229 191.228C58.0229 188.722 59.0869 187.462 60.6269 187.462C62.1529 187.462 63.2169 188.722 63.2169 191.228C63.2169 193.734 62.1529 194.994 60.6269 194.994ZM74.7828 193.902H76.2248V184.564H74.7828V186.104H71.4228V187.252H74.7828V188.498H71.4228V189.646H74.7828V193.902ZM72.8228 190.514C71.0728 190.822 69.5468 190.92 67.9088 190.934V185.432H66.4668V192.124H67.4468C69.3228 192.124 71.0028 192.04 72.9628 191.69L72.8228 190.514ZM69.4628 195.792V193.076H68.0208V196.968H76.5468V195.792H69.4628Z" fill="#435CE7"/>
<rect opacity="0.14" x="779.994" y="240" width="420.006" height="59.7928" rx="7" fill="#10C469"/>
<rect x="780" y="240" width="419.997" height="60" rx="10" fill="#10C469"/>
<path d="M1134.08 265.328V267.148H1136.04V275.128H1138.3V265.328H1134.08ZM1143.96 275.296C1146.38 275.296 1148.16 273.462 1148.16 270.228C1148.16 266.994 1146.38 265.16 1143.96 265.16C1141.55 265.16 1139.76 266.994 1139.76 270.228C1139.76 273.462 1141.55 275.296 1143.96 275.296ZM1143.96 273.378C1142.84 273.378 1142.05 272.454 1142.05 270.228C1142.05 268.002 1142.84 267.078 1143.96 267.078C1145.09 267.078 1145.88 268.002 1145.88 270.228C1145.88 272.454 1145.09 273.378 1143.96 273.378ZM1153.21 275.296C1155.63 275.296 1157.41 273.462 1157.41 270.228C1157.41 266.994 1155.63 265.16 1153.21 265.16C1150.8 265.16 1149.01 266.994 1149.01 270.228C1149.01 273.462 1150.8 275.296 1153.21 275.296ZM1153.21 273.378C1152.09 273.378 1151.31 272.454 1151.31 270.228C1151.31 268.002 1152.09 267.078 1153.21 267.078C1154.34 267.078 1155.13 268.002 1155.13 270.228C1155.13 272.454 1154.34 273.378 1153.21 273.378ZM1160.53 270.62C1161.96 270.62 1162.95 269.584 1162.95 267.918C1162.95 266.252 1161.96 265.216 1160.53 265.216C1159.1 265.216 1158.09 266.266 1158.09 267.918C1158.09 269.57 1159.1 270.62 1160.53 270.62ZM1159.67 275.128H1161.34L1168.03 265.328H1166.37L1159.67 275.128ZM1160.53 269.472C1159.93 269.472 1159.51 268.954 1159.51 267.918C1159.51 266.882 1159.93 266.364 1160.53 266.364C1161.14 266.364 1161.55 266.868 1161.55 267.918C1161.55 268.968 1161.14 269.472 1160.53 269.472ZM1167.18 275.24C1168.61 275.24 1169.61 274.19 1169.61 272.538C1169.61 270.886 1168.61 269.836 1167.18 269.836C1165.76 269.836 1164.76 270.886 1164.76 272.538C1164.76 274.19 1165.76 275.24 1167.18 275.24ZM1167.18 274.092C1166.58 274.092 1166.16 273.588 1166.16 272.538C1166.16 271.488 1166.58 270.984 1167.18 270.984C1167.79 270.984 1168.2 271.502 1168.2 272.538C1168.2 273.574 1167.79 274.092 1167.18 274.092Z" fill="white"/>
<rect opacity="0.5" y="240" width="740" height="60" rx="10" fill="#D4DFFA"/>
<rect width="502" height="60" rx="10" transform="matrix(-1 0 0 1 740 240)" fill="#435CE7"/>
<path d="M684.834 269.006C685.562 268.558 685.982 267.872 685.982 266.99C685.982 265.268 684.442 264.19 682.188 264.19C679.962 264.19 678.422 265.268 678.422 266.99C678.422 267.872 678.828 268.558 679.556 269.006C678.618 269.482 678.072 270.266 678.072 271.316C678.072 273.164 679.71 274.326 682.188 274.326C684.68 274.326 686.332 273.164 686.332 271.316C686.332 270.266 685.786 269.482 684.834 269.006ZM682.188 265.856C683.112 265.856 683.728 266.318 683.728 267.088C683.728 267.83 683.126 268.292 682.188 268.292C681.264 268.292 680.676 267.83 680.676 267.088C680.676 266.318 681.278 265.856 682.188 265.856ZM682.188 272.66C681.068 272.66 680.368 272.114 680.368 271.246C680.368 270.378 681.068 269.846 682.188 269.846C683.322 269.846 684.036 270.378 684.036 271.246C684.036 272.114 683.322 272.66 682.188 272.66ZM690.228 272.31L692.482 270.182C693.854 268.908 694.12 268.04 694.12 267.088C694.12 265.31 692.664 264.19 690.48 264.19C688.716 264.19 687.344 264.904 686.588 266.01L688.24 267.074C688.716 266.416 689.43 266.094 690.27 266.094C691.306 266.094 691.838 266.542 691.838 267.312C691.838 267.788 691.684 268.292 690.816 269.118L687.036 272.688V274.158H694.442V272.31H690.228ZM697.532 269.65C698.96 269.65 699.954 268.614 699.954 266.948C699.954 265.282 698.96 264.246 697.532 264.246C696.104 264.246 695.096 265.296 695.096 266.948C695.096 268.6 696.104 269.65 697.532 269.65ZM696.678 274.158H698.344L705.036 264.358H703.37L696.678 274.158ZM697.532 268.502C696.93 268.502 696.51 267.984 696.51 266.948C696.51 265.912 696.93 265.394 697.532 265.394C698.148 265.394 698.554 265.898 698.554 266.948C698.554 267.998 698.148 268.502 697.532 268.502ZM704.182 274.27C705.61 274.27 706.618 273.22 706.618 271.568C706.618 269.916 705.61 268.866 704.182 268.866C702.768 268.866 701.76 269.916 701.76 271.568C701.76 273.22 702.768 274.27 704.182 274.27ZM704.182 273.122C703.58 273.122 703.16 272.618 703.16 271.568C703.16 270.518 703.58 270.014 704.182 270.014C704.798 270.014 705.204 270.532 705.204 271.568C705.204 272.604 704.798 273.122 704.182 273.122Z" fill="white"/>
<path d="M32.5335 274.91L35.5295 272.026C36.8595 270.752 37.1395 269.898 37.1395 268.946C37.1395 267.266 35.8235 266.216 33.7795 266.216C32.2535 266.216 30.9515 266.762 30.1955 267.7L31.1475 268.526C31.7495 267.798 32.6035 267.462 33.6535 267.462C35.0255 267.462 35.7395 268.078 35.7395 269.086C35.7395 269.702 35.5435 270.318 34.5075 271.326L30.5175 275.176V276.128H37.5595V274.91H32.5335ZM42.4236 276.24C44.7056 276.24 46.4136 274.42 46.4136 271.228C46.4136 268.036 44.7056 266.216 42.4236 266.216C40.1276 266.216 38.4196 268.036 38.4196 271.228C38.4196 274.42 40.1276 276.24 42.4236 276.24ZM42.4236 274.994C40.8836 274.994 39.8196 273.734 39.8196 271.228C39.8196 268.722 40.8836 267.462 42.4236 267.462C43.9496 267.462 45.0136 268.722 45.0136 271.228C45.0136 273.734 43.9496 274.994 42.4236 274.994ZM50.3074 270.234H49.2154L49.4814 267.546H53.8354V266.328H48.3054L47.7874 271.452H50.0134C52.2814 271.452 52.9814 272.138 52.9814 273.244C52.9814 274.308 52.1414 274.994 50.6574 274.994C49.4674 274.994 48.3754 274.56 47.7174 273.944L47.0734 275.05C47.9134 275.792 49.2854 276.24 50.6714 276.24C53.1774 276.24 54.3814 274.882 54.3814 273.188C54.3814 271.452 53.2334 270.234 50.3074 270.234ZM59.3005 276.24C61.5825 276.24 63.2905 274.42 63.2905 271.228C63.2905 268.036 61.5825 266.216 59.3005 266.216C57.0045 266.216 55.2965 268.036 55.2965 271.228C55.2965 274.42 57.0045 276.24 59.3005 276.24ZM59.3005 274.994C57.7605 274.994 56.6965 273.734 56.6965 271.228C56.6965 268.722 57.7605 267.462 59.3005 267.462C60.8265 267.462 61.8905 268.722 61.8905 271.228C61.8905 273.734 60.8265 274.994 59.3005 274.994ZM73.4564 273.902H74.8984V264.564H73.4564V266.104H70.0964V267.252H73.4564V268.498H70.0964V269.646H73.4564V273.902ZM71.4964 270.514C69.7464 270.822 68.2204 270.92 66.5824 270.934V265.432H65.1404V272.124H66.1204C67.9964 272.124 69.6764 272.04 71.6364 271.69L71.4964 270.514ZM68.1364 275.792V273.076H66.6944V276.968H75.2204V275.792H68.1364Z" fill="#435CE7"/>
<path d="M256.557 354.6H259.165V353.528H252.509V354.6H255.293V355.72C255.293 358.632 254.221 361.08 252.173 362.232L252.973 363.224C254.461 362.36 255.469 360.808 255.949 358.856C256.461 360.552 257.453 361.944 258.861 362.728L259.629 361.72C257.597 360.664 256.557 358.344 256.557 355.72V354.6ZM263.293 351.816V357.624H261.405V352.152H260.173V365.48H261.405V358.712H263.293V366.184H264.557V351.816H263.293ZM275.81 356.76H277.634V360.696H278.898V351.848H277.634V355.688H275.81V352.12H274.562V360.232H275.81V356.76ZM273.97 358.568C272.13 357.864 271.058 356.248 271.058 354.664V352.728H269.794V354.664C269.794 356.264 268.674 358.12 266.802 358.952L267.506 359.976C268.898 359.352 269.922 358.136 270.434 356.792C270.946 358.008 271.922 359.032 273.266 359.576L273.97 358.568ZM274.161 365.16C272.018 365.16 270.674 364.584 270.674 363.592C270.674 362.6 272.018 362.04 274.161 362.04C276.338 362.04 277.666 362.6 277.666 363.592C277.666 364.584 276.338 365.16 274.161 365.16ZM274.161 361.016C271.218 361.016 269.378 361.96 269.378 363.592C269.378 365.224 271.218 366.168 274.161 366.168C277.122 366.168 278.962 365.224 278.962 363.592C278.962 361.96 277.122 361.016 274.161 361.016ZM284.502 361.816C283.35 361.816 282.63 360.36 282.63 358.008C282.63 355.704 283.35 354.248 284.502 354.248C285.622 354.248 286.358 355.704 286.358 358.008C286.358 360.36 285.622 361.816 284.502 361.816ZM289.35 357.416H287.542C287.382 354.712 286.23 353.032 284.502 353.032C282.63 353.032 281.43 354.952 281.43 358.008C281.43 361.112 282.63 363.032 284.502 363.032C286.262 363.032 287.43 361.304 287.542 358.488H289.35V365.48H290.598V352.152H289.35V357.416ZM292.198 351.832V366.184H293.446V351.832H292.198ZM297.819 353.432H296.507V362.744H297.627C299.899 362.744 301.915 362.6 304.187 362.168L304.011 361.048C301.899 361.48 299.947 361.624 297.819 361.64V353.432ZM306.235 351.832V356.568H301.835V357.656H306.235V366.216H307.547V351.832H306.235ZM315.312 354.392H318.688V353.304H310.672V354.392H314V356.216C314 358.696 312.256 361.4 310.192 362.376L310.96 363.432C312.592 362.6 314 360.792 314.656 358.696C315.344 360.664 316.752 362.312 318.416 363.08L319.152 362.024C317.04 361.128 315.312 358.648 315.312 356.216V354.392ZM320.624 351.848V366.184H321.936V351.848H320.624ZM335.605 355.8V356.872H338.485V362.36H339.813V351.848H338.485V355.8H335.605ZM336.453 359.176C334.373 358.44 332.965 356.648 332.965 354.776V354.072H336.117V353H328.453V354.072H331.653V354.792C331.653 356.824 330.165 358.728 328.037 359.496L328.725 360.52C330.405 359.912 331.717 358.584 332.341 356.952C332.965 358.424 334.197 359.624 335.797 360.2L336.453 359.176ZM331.957 364.792V361.432H330.629V365.864H340.213V364.792H331.957ZM350.985 353.24H347.529V351.784H346.217V353.24H342.745V354.216H350.985V353.24ZM344.761 357.016C344.761 356.248 345.577 355.752 346.873 355.752C348.137 355.752 348.969 356.248 348.969 357.016C348.969 357.816 348.137 358.296 346.873 358.296C345.577 358.296 344.761 357.816 344.761 357.016ZM351.417 359.848C350.185 360.056 348.841 360.168 347.529 360.232V359.208C349.177 359.032 350.217 358.248 350.217 357.016C350.217 355.656 348.873 354.824 346.873 354.824C344.857 354.824 343.513 355.656 343.513 357.016C343.513 358.248 344.569 359.048 346.217 359.208V360.296C344.841 360.344 343.513 360.36 342.393 360.36L342.537 361.416C345.033 361.4 348.473 361.352 351.513 360.792L351.417 359.848ZM345.817 362.328H344.505V365.864H354.089V364.792H345.817V362.328ZM353.577 356.84V351.832H352.265V363.064H353.577V357.928H355.689V356.84H353.577ZM360.174 361.816C359.022 361.816 358.302 360.36 358.302 358.008C358.302 355.704 359.022 354.248 360.174 354.248C361.294 354.248 362.03 355.704 362.03 358.008C362.03 360.36 361.294 361.816 360.174 361.816ZM365.022 357.416H363.214C363.054 354.712 361.902 353.032 360.174 353.032C358.302 353.032 357.102 354.952 357.102 358.008C357.102 361.112 358.302 363.032 360.174 363.032C361.934 363.032 363.102 361.304 363.214 358.488H365.022V365.48H366.27V352.152H365.022V357.416ZM367.87 351.832V366.184H369.118V351.832H367.87ZM376.451 354.408H378.771V353.336H375.155V362.424H375.795C376.659 362.424 377.715 362.408 379.059 362.12L378.915 361.032C377.987 361.224 377.155 361.304 376.451 361.32V354.408ZM380.867 354.408H383.379V353.336H379.571V362.424H380.275C381.747 362.424 382.739 362.392 383.955 362.088L383.811 361C382.851 361.24 381.971 361.32 380.867 361.336V354.408ZM388.067 357.464H385.987V351.816H384.675V366.184H385.987V358.568H388.067V357.464ZM399.24 354.904H390.856V358.472H400.84V357.448H392.152V355.88H400.536V352.312H390.824V353.336H399.24V354.904ZM392.2 361.96H390.888V365.864H400.84V364.792H392.2V361.96ZM389.176 359.784V360.856H402.2V359.784H389.176ZM409.965 361.72H408.653V365.864H418.525V364.792H409.965V361.72ZM409.773 355.128C409.773 353.992 411.213 353.32 413.485 353.32C415.725 353.32 417.165 353.992 417.165 355.128C417.165 356.264 415.725 356.92 413.485 356.92C411.213 356.92 409.773 356.264 409.773 355.128ZM414.141 359.464V357.96C416.813 357.816 418.509 356.776 418.509 355.128C418.509 353.336 416.541 352.264 413.485 352.264C410.397 352.264 408.429 353.336 408.429 355.128C408.429 356.792 410.125 357.816 412.829 357.96V359.464H406.989V360.536H419.949V359.464H414.141ZM433.217 351.848H431.905V359.272H433.217V351.848ZM430.145 357.832C428.017 357.128 426.513 355.336 426.513 353.352V352.264H425.201V353.352C425.201 355.432 423.713 357.352 421.553 358.104L422.225 359.128C423.921 358.52 425.249 357.208 425.873 355.56C426.529 357.08 427.841 358.28 429.489 358.856L430.145 357.832ZM425.265 364.984V363.448H433.233V359.992H423.937V361.032H431.937V362.456H423.969V366.024H433.713V364.984H425.265ZM436.694 353.368V354.456H441.958C441.654 357.848 439.686 360.6 436.022 362.44L436.742 363.464C441.382 361.144 443.254 357.448 443.254 353.368H436.694ZM449.27 357.656H446.966V351.832H445.654V366.184H446.966V358.744H449.27V357.656ZM462.763 359.048C460.251 358.568 457.531 356.392 457.531 353.944V352.84H456.155V353.944C456.155 356.392 453.451 358.552 450.939 359.048L451.531 360.136C453.691 359.624 455.931 358.088 456.843 355.992C457.755 358.104 459.995 359.64 462.171 360.136L462.763 359.048ZM450.395 363.176V364.264H463.403V363.176H450.395ZM473.152 354.376H476.416V353.304H468.592V354.376H471.84V356.04C471.84 358.584 470.128 361.304 468.08 362.312L468.848 363.352C470.48 362.488 471.872 360.648 472.496 358.536C473.152 360.52 474.528 362.232 476.128 363.048L476.912 362.024C474.832 361.032 473.152 358.424 473.152 356.04V354.376ZM478.704 351.832V357.048H475.6V358.12H478.704V366.2H480.016V351.832H478.704ZM483.285 352.744V353.816H488.501C488.245 356.248 486.149 358.136 482.645 359.08L483.157 360.12C487.381 358.968 489.909 356.392 489.909 352.744H483.285ZM486.053 361.704H492.501V364.92H486.053V361.704ZM484.757 365.976H493.797V360.648H484.757V365.976ZM495.925 355.336H493.797V351.816H492.485V359.976H493.797V356.424H495.925V355.336Z" fill="#666666"/>
<path d="M942.657 354.6H945.265V353.528H938.609V354.6H941.393V355.72C941.393 358.632 940.321 361.08 938.273 362.232L939.073 363.224C940.561 362.36 941.569 360.808 942.049 358.856C942.561 360.552 943.553 361.944 944.961 362.728L945.729 361.72C943.697 360.664 942.657 358.344 942.657 355.72V354.6ZM949.393 351.816V357.624H947.505V352.152H946.273V365.48H947.505V358.712H949.393V366.184H950.657V351.816H949.393ZM961.91 356.76H963.734V360.696H964.998V351.848H963.734V355.688H961.91V352.12H960.662V360.232H961.91V356.76ZM960.07 358.568C958.23 357.864 957.158 356.248 957.158 354.664V352.728H955.894V354.664C955.894 356.264 954.774 358.12 952.902 358.952L953.606 359.976C954.998 359.352 956.022 358.136 956.534 356.792C957.046 358.008 958.022 359.032 959.366 359.576L960.07 358.568ZM960.262 365.16C958.118 365.16 956.774 364.584 956.774 363.592C956.774 362.6 958.118 362.04 960.262 362.04C962.438 362.04 963.766 362.6 963.766 363.592C963.766 364.584 962.438 365.16 960.262 365.16ZM960.262 361.016C957.318 361.016 955.478 361.96 955.478 363.592C955.478 365.224 957.318 366.168 960.262 366.168C963.222 366.168 965.062 365.224 965.062 363.592C965.062 361.96 963.222 361.016 960.262 361.016ZM970.603 361.816C969.451 361.816 968.731 360.36 968.731 358.008C968.731 355.704 969.451 354.248 970.603 354.248C971.723 354.248 972.459 355.704 972.459 358.008C972.459 360.36 971.723 361.816 970.603 361.816ZM975.451 357.416H973.643C973.483 354.712 972.331 353.032 970.603 353.032C968.731 353.032 967.531 354.952 967.531 358.008C967.531 361.112 968.731 363.032 970.603 363.032C972.363 363.032 973.531 361.304 973.643 358.488H975.451V365.48H976.699V352.152H975.451V357.416ZM978.299 351.832V366.184H979.547V351.832H978.299ZM983.919 353.432H982.607V362.744H983.727C985.999 362.744 988.015 362.6 990.287 362.168L990.111 361.048C987.999 361.48 986.047 361.624 983.919 361.64V353.432ZM992.335 351.832V356.568H987.935V357.656H992.335V366.216H993.647V351.832H992.335ZM1001.41 354.392H1004.79V353.304H996.772V354.392H1000.1V356.216C1000.1 358.696 998.356 361.4 996.292 362.376L997.06 363.432C998.692 362.6 1000.1 360.792 1000.76 358.696C1001.44 360.664 1002.85 362.312 1004.52 363.08L1005.25 362.024C1003.14 361.128 1001.41 358.648 1001.41 356.216V354.392ZM1006.72 351.848V366.184H1008.04V351.848H1006.72ZM1021.71 355.8V356.872H1024.59V362.36H1025.91V351.848H1024.59V355.8H1021.71ZM1022.55 359.176C1020.47 358.44 1019.07 356.648 1019.07 354.776V354.072H1022.22V353H1014.55V354.072H1017.75V354.792C1017.75 356.824 1016.27 358.728 1014.14 359.496L1014.83 360.52C1016.51 359.912 1017.82 358.584 1018.44 356.952C1019.07 358.424 1020.3 359.624 1021.9 360.2L1022.55 359.176ZM1018.06 364.792V361.432H1016.73V365.864H1026.31V364.792H1018.06ZM1037.09 353.24H1033.63V351.784H1032.32V353.24H1028.85V354.216H1037.09V353.24ZM1030.86 357.016C1030.86 356.248 1031.68 355.752 1032.97 355.752C1034.24 355.752 1035.07 356.248 1035.07 357.016C1035.07 357.816 1034.24 358.296 1032.97 358.296C1031.68 358.296 1030.86 357.816 1030.86 357.016ZM1037.52 359.848C1036.29 360.056 1034.94 360.168 1033.63 360.232V359.208C1035.28 359.032 1036.32 358.248 1036.32 357.016C1036.32 355.656 1034.97 354.824 1032.97 354.824C1030.96 354.824 1029.61 355.656 1029.61 357.016C1029.61 358.248 1030.67 359.048 1032.32 359.208V360.296C1030.94 360.344 1029.61 360.36 1028.49 360.36L1028.64 361.416C1031.13 361.4 1034.57 361.352 1037.61 360.792L1037.52 359.848ZM1031.92 362.312H1030.61V365.864H1040.19V364.792H1031.92V362.312ZM1039.68 356.84V351.832H1038.37V363.064H1039.68V357.928H1041.77V356.84H1039.68Z" fill="#666666"/>
</svg>
