<svg width="327" height="352" viewBox="0 0 327 352" fill="none" xmlns="http://www.w3.org/2000/svg">
<rect x="0.000244141" width="327" height="352" rx="14" fill="#F6F7FE"/>
<path opacity="0.7" d="M106.241 66.0005H73.0001C69.1341 66.0005 66.0001 69.1345 66.0001 73.0005V153" stroke="#7094F0" stroke-linecap="round" stroke-dasharray="2 4"/>
<path opacity="0.7" d="M220.759 286L254 286C257.866 286 261 282.866 261 279L261 199" stroke="#7094F0" stroke-linecap="round" stroke-dasharray="2 4"/>
<path opacity="0.7" d="M153 286L73.0002 286C69.1343 286 66.0002 282.866 66.0002 279L66.0002 245L66.0002 239.5L66.0002 235.5" stroke="#7094F0" stroke-linecap="round" stroke-dasharray="2 4"/>
<path opacity="0.7" d="M174 66L254 66C257.866 66 261 69.134 261 73L261 107L261 112.5L261 119" stroke="#7094F0" stroke-linecap="round" stroke-dasharray="2 4"/>
<path d="M65.232 231.922L62.3671 235.36C61.8243 236.011 62.2874 237 63.1353 237H68.8652C69.713 237 70.1762 236.011 69.6334 235.36L66.7685 231.922C66.3687 231.442 65.6318 231.442 65.232 231.922Z" fill="#7094F0"/>
<path d="M261.768 120.078L264.633 116.64C265.176 115.989 264.713 115 263.865 115L258.135 115C257.287 115 256.824 115.989 257.367 116.64L260.232 120.078C260.632 120.558 261.369 120.558 261.768 120.078Z" fill="#7094F0"/>
<path d="M108.078 65.2318L104.64 62.3668C103.989 61.824 103 62.2872 103 63.135L103 68.865C103 69.7128 103.989 70.176 104.64 69.6332L108.078 66.7682C108.558 66.3684 108.558 65.6316 108.078 65.2318Z" fill="#7094F0"/>
<path d="M219.922 286.768L223.36 289.633C224.011 290.176 225 289.713 225 288.865L225 283.135C225 282.287 224.011 281.824 223.36 282.367L219.922 285.232C219.442 285.632 219.442 286.368 219.922 286.768Z" fill="#7094F0"/>
<circle cx="164" cy="66" r="49.5" fill="white" stroke="#435CE7"/>
<circle cx="164" cy="286" r="49.5" fill="white" stroke="#435CE7"/>
<circle cx="66.0002" cy="176" r="49.5" fill="white" stroke="#435CE7"/>
<circle cx="261" cy="176" r="49.5" fill="white" stroke="#435CE7"/>
<path d="M134.239 66.246H138.649V61.556H132.755V62.732H137.193V65.084H132.783V70.096H133.861C136.087 70.096 137.977 70.026 140.147 69.648L139.993 68.472C137.991 68.794 136.241 68.892 134.239 68.906V66.246ZM141.043 60.408V73.106H142.499V60.408H141.043ZM155.66 66.61C153.168 66.162 151.138 64.216 151.138 62.2V61.248H149.612V62.2C149.612 64.202 147.582 66.148 145.09 66.61L145.706 67.8C147.764 67.38 149.542 66.064 150.368 64.328C151.194 66.064 152.972 67.38 155.03 67.8L155.66 66.61ZM144.698 70.264V71.454H156.15V70.264H144.698ZM158.307 65.42L158.489 66.596L165.951 66.218C165.881 67.142 165.741 68.136 165.475 69.27L166.903 69.396C167.463 66.736 167.463 65 167.463 63.166V61.64H158.657V62.802H166.049V63.166C166.049 63.81 166.049 64.454 166.021 65.126L158.307 65.42ZM157.327 70.25V71.44H168.751V70.25H157.327ZM184.289 66.666H182.399C182.763 64.636 182.763 63.18 182.763 62.074V61.192H174.251V62.368H181.335C181.335 63.432 181.307 64.818 180.943 66.666H172.851V67.856H175.637V73.092H177.065V67.856H179.977V73.092H181.419V67.856H184.289V66.666ZM190.478 65.924H187.44V62.522H190.478V65.924ZM194.51 63.558V64.888H191.878V63.558H194.51ZM191.878 66.064H194.51V67.884H195.952V60.436H194.51V62.382H191.878V61.374H186.026V67.072H191.878V66.064ZM191.738 71.958C189.946 71.958 188.924 71.496 188.924 70.656C188.924 69.83 189.946 69.368 191.738 69.368C193.53 69.368 194.566 69.83 194.566 70.656C194.566 71.496 193.53 71.958 191.738 71.958ZM191.738 68.234C189.106 68.234 187.482 69.13 187.482 70.656C187.482 72.182 189.106 73.078 191.738 73.078C194.384 73.078 196.008 72.182 196.008 70.656C196.008 69.13 194.384 68.234 191.738 68.234Z" fill="#435CE7"/>
<path d="M133.24 286.246H137.65V281.556H131.756V282.732H136.194V285.084H131.784V290.096H132.862C135.088 290.096 136.978 290.026 139.148 289.648L138.994 288.472C136.992 288.794 135.242 288.892 133.24 288.906V286.246ZM140.044 280.408V293.106H141.5V280.408H140.044ZM154.661 286.61C152.169 286.162 150.139 284.216 150.139 282.2V281.248H148.613V282.2C148.613 284.202 146.583 286.148 144.091 286.61L144.707 287.8C146.765 287.38 148.543 286.064 149.369 284.328C150.195 286.064 151.973 287.38 154.031 287.8L154.661 286.61ZM143.699 290.264V291.454H155.151V290.264H143.699ZM157.308 285.42L157.49 286.596L164.952 286.218C164.882 287.142 164.742 288.136 164.476 289.27L165.904 289.396C166.464 286.736 166.464 285 166.464 283.166V281.64H157.658V282.802H165.05V283.166C165.05 283.81 165.05 284.454 165.022 285.126L157.308 285.42ZM156.328 290.25V291.44H167.752V290.25H156.328ZM173.685 283.11H176.947V281.934H172.271V290.068H173.111C174.889 290.068 176.191 290.012 177.717 289.718L177.591 288.528C176.289 288.794 175.141 288.864 173.685 288.878V283.11ZM181.259 280.422V285.42H179.761V280.688H178.403V292.448H179.761V286.596H181.259V293.064H182.631V280.422H181.259ZM184.466 286.47V287.632H195.904V286.47H184.466ZM190.164 288.514C187.448 288.514 185.81 289.354 185.81 290.81C185.81 292.266 187.448 293.092 190.164 293.092C192.894 293.092 194.518 292.266 194.518 290.81C194.518 289.354 192.894 288.514 190.164 288.514ZM190.164 289.634C192.012 289.634 193.062 290.04 193.062 290.81C193.062 291.58 192.012 291.986 190.164 291.986C188.316 291.986 187.28 291.58 187.28 290.81C187.28 290.04 188.316 289.634 190.164 289.634ZM190.192 280.73C187.434 280.73 185.684 281.654 185.684 283.18C185.684 284.692 187.434 285.616 190.192 285.616C192.936 285.616 194.7 284.692 194.7 283.18C194.7 281.654 192.936 280.73 190.192 280.73ZM190.192 281.864C192.068 281.864 193.202 282.34 193.202 283.18C193.202 284.006 192.068 284.482 190.192 284.482C188.316 284.482 187.168 284.006 187.168 283.18C187.168 282.34 188.316 281.864 190.192 281.864Z" fill="#435CE7"/>
<path d="M36.2397 166.246H40.6497V161.556H34.7557V162.732H39.1937V165.084H34.7837V170.096H35.8617C38.0877 170.096 39.9777 170.026 42.1477 169.648L41.9937 168.472C39.9917 168.794 38.2417 168.892 36.2397 168.906V166.246ZM43.0437 160.408V173.106H44.4997V160.408H43.0437ZM57.6606 166.61C55.1686 166.162 53.1386 164.216 53.1386 162.2V161.248H51.6126V162.2C51.6126 164.202 49.5826 166.148 47.0906 166.61L47.7066 167.8C49.7646 167.38 51.5426 166.064 52.3686 164.328C53.1946 166.064 54.9726 167.38 57.0306 167.8L57.6606 166.61ZM46.6986 170.264V171.454H58.1506V170.264H46.6986ZM60.3075 165.42L60.4895 166.596L67.9515 166.218C67.8815 167.142 67.7415 168.136 67.4755 169.27L68.9035 169.396C69.4635 166.736 69.4635 165 69.4635 163.166V161.64H60.6575V162.802H68.0495V163.166C68.0495 163.81 68.0495 164.454 68.0215 165.126L60.3075 165.42ZM59.3275 170.25V171.44H70.7515V170.25H59.3275ZM83.797 160.422V173.106H85.253V160.422H83.797ZM78.519 161.36C76.643 161.36 75.271 163.096 75.271 165.812C75.271 168.556 76.643 170.278 78.519 170.278C80.409 170.278 81.781 168.556 81.781 165.812C81.781 163.096 80.409 161.36 78.519 161.36ZM78.519 162.662C79.625 162.662 80.395 163.852 80.395 165.812C80.395 167.8 79.625 168.99 78.519 168.99C77.427 168.99 76.657 167.8 76.657 165.812C76.657 163.852 77.427 162.662 78.519 162.662ZM94.0459 166.288C92.6739 166.526 91.5119 166.582 89.3979 166.582V164.944H93.4439V161.164H87.9559V162.326H92.0159V163.838H87.9839V167.758H88.9079C91.3859 167.758 92.6739 167.716 94.1999 167.45L94.0459 166.288ZM89.3979 170.026H96.5099V173.106H97.9519V168.85H89.3979V170.026ZM96.5099 160.436V162.256H94.2419V163.418H96.5099V164.902H94.2419V166.064H96.5099V168.22H97.9519V160.436H96.5099ZM61.1383 185.854C61.4463 184.216 61.4463 182.97 61.4463 182.116V181.388H55.0903V182.564H60.0323C60.0183 183.348 59.9763 184.342 59.7243 185.7L61.1383 185.854ZM62.1883 186.484C60.9423 186.68 59.5843 186.764 58.2683 186.82V184.272H56.8403V186.862C55.9443 186.89 55.0763 186.89 54.3203 186.89L54.4743 188.066C56.6723 188.066 59.6543 187.996 62.2863 187.534L62.1883 186.484ZM57.6803 189.088H56.2243V192.84H64.8203V191.664H57.6803V189.088ZM64.4143 184.44V180.436H62.9583V189.928H64.4143V185.63H66.0943V184.44H64.4143ZM69.2592 186.246H73.6692V181.556H67.7752V182.732H72.2132V185.084H67.8032V190.096H68.8812C71.1072 190.096 72.9972 190.026 75.1672 189.648L75.0132 188.472C73.0112 188.794 71.2612 188.892 69.2592 188.906V186.246ZM76.0632 180.408V193.106H77.5192V180.408H76.0632Z" fill="#435CE7"/>
<path d="M231.24 176.246H235.65V171.556H229.756V172.732H234.194V175.084H229.784V180.096H230.862C233.088 180.096 234.978 180.026 237.148 179.648L236.994 178.472C234.992 178.794 233.242 178.892 231.24 178.906V176.246ZM238.044 170.408V183.106H239.5V170.408H238.044ZM252.661 176.61C250.169 176.162 248.139 174.216 248.139 172.2V171.248H246.613V172.2C246.613 174.202 244.583 176.148 242.091 176.61L242.707 177.8C244.765 177.38 246.543 176.064 247.369 174.328C248.195 176.064 249.973 177.38 252.031 177.8L252.661 176.61ZM241.699 180.264V181.454H253.151V180.264H241.699ZM255.308 175.42L255.49 176.596L262.952 176.218C262.882 177.142 262.742 178.136 262.476 179.27L263.904 179.396C264.464 176.736 264.464 175 264.464 173.166V171.64H255.658V172.802H263.05V173.166C263.05 173.81 263.05 174.454 263.022 175.126L255.308 175.42ZM254.328 180.25V181.44H265.752V180.25H254.328ZM278.881 178.206H280.323V170.436H278.881V172.592H277.047V173.754H278.881V174.902H277.047V176.064H278.881V178.206ZM272.721 172.508H274.331V176.316C273.785 176.344 273.253 176.358 272.721 176.372V172.508ZM277.145 176.092C276.683 176.148 276.207 176.204 275.717 176.218V172.508H276.851V171.332H270.187V172.508H271.335V176.4C270.817 176.4 270.313 176.4 269.851 176.4L270.019 177.59C272.049 177.59 274.849 177.548 277.229 177.142L277.145 176.092ZM276.109 181.972C274.303 181.972 273.295 181.538 273.295 180.768C273.295 179.97 274.303 179.55 276.109 179.55C277.915 179.55 278.937 179.97 278.937 180.768C278.937 181.538 277.915 181.972 276.109 181.972ZM276.109 178.43C273.463 178.43 271.853 179.284 271.853 180.768C271.853 182.224 273.463 183.078 276.109 183.078C278.755 183.078 280.379 182.224 280.379 180.768C280.379 179.284 278.755 178.43 276.109 178.43ZM283.096 171.766V172.942H287.52C287.226 175.854 285.56 178.08 282.466 179.662L283.264 180.768C287.394 178.682 288.962 175.434 288.962 171.766H283.096ZM294.184 175.42H292.266V170.422H290.824V183.064H292.266V176.624H294.184V175.42Z" fill="#435CE7"/>
</svg>
