<svg width="327" height="562" viewBox="0 0 327 562" fill="none" xmlns="http://www.w3.org/2000/svg">
<path d="M164 474L164 214" stroke="#7094F0" stroke-linecap="round" stroke-linejoin="round" stroke-dasharray="2 4"/>
<path d="M164 150L164 84" stroke="#7094F0" stroke-linecap="round" stroke-linejoin="round" stroke-dasharray="2 4"/>
<path d="M164.768 122.078L167.633 118.64C168.176 117.989 167.713 117 166.865 117L161.135 117C160.287 117 159.824 117.989 160.367 118.64L163.232 122.078C163.632 122.558 164.368 122.558 164.768 122.078Z" fill="#7094F0"/>
<path d="M163.232 94.9219L160.367 98.3598C159.824 99.0111 160.287 100 161.135 100H166.865C167.713 100 168.176 99.0111 167.633 98.3598L164.768 94.9219C164.368 94.4421 163.632 94.4421 163.232 94.9219Z" fill="#7094F0"/>
<path d="M282.043 522L282.043 442" stroke="#7094F0" stroke-linecap="round" stroke-linejoin="round" stroke-dasharray="2 4"/>
<path d="M45.043 522L45.043 442" stroke="#7094F0" stroke-linecap="round" stroke-linejoin="round" stroke-dasharray="2 4"/>
<path d="M45.0414 442H282.042" stroke="#7094F0" stroke-linecap="round" stroke-linejoin="round" stroke-dasharray="2 4"/>
<path d="M164 268L283 268" stroke="#7094F0" stroke-linecap="round" stroke-linejoin="round" stroke-dasharray="2 4"/>
<rect x="44" width="240" height="94" rx="7" fill="#F6F7FE"/>
<rect x="54" y="44" width="220" height="40" rx="7" fill="#435CE7"/>
<path d="M112.421 60.886H115.235V59.696H108.151V60.886H110.965V62.09C110.965 64.26 109.663 66.612 107.703 67.522L108.529 68.67C110.013 67.956 111.147 66.458 111.707 64.694C112.295 66.332 113.429 67.704 114.899 68.348L115.697 67.214C113.723 66.374 112.421 64.19 112.421 62.09V60.886ZM116.705 58.436V71.078H118.161V58.436H116.705ZM131.154 62.454C128.62 62.118 126.828 60.718 126.828 59.122V58.646H125.344V59.122C125.344 60.69 123.51 62.118 121.018 62.454L121.55 63.574C123.594 63.266 125.274 62.3 126.072 60.956C126.884 62.314 128.578 63.252 130.608 63.574L131.154 62.454ZM121.648 68.096H128.97V71.092H130.412V66.934H121.648V68.096ZM126.8 64.68V62.874H125.358V64.68H120.374V65.842H131.84V64.68H126.8ZM133.633 59.766V60.942H138.057C137.763 63.854 136.097 66.08 133.003 67.662L133.801 68.768C137.931 66.682 139.499 63.434 139.499 59.766H133.633ZM144.721 63.42H142.803V58.422H141.361V71.064H142.803V64.624H144.721V63.42ZM155.782 61.796H148.586V58.674H147.144V62.958H155.782V61.796ZM151.33 69.93C149.482 69.93 148.446 69.496 148.446 68.726C148.446 67.928 149.482 67.522 151.33 67.522C153.178 67.522 154.228 67.928 154.228 68.726C154.228 69.496 153.178 69.93 151.33 69.93ZM151.33 66.388C148.628 66.388 146.976 67.242 146.976 68.726C146.976 70.196 148.628 71.05 151.33 71.05C154.046 71.05 155.684 70.196 155.684 68.726C155.684 67.242 154.046 66.388 151.33 66.388ZM145.646 64.232V65.408H157.084V64.232H145.646ZM167.305 61.782V63.238H164.239V64.414H167.305V65.87H168.747V58.436H167.305V60.606H164.701C164.771 60.214 164.813 59.794 164.813 59.346H159.073V60.508H163.273C163.021 62.482 161.383 64.036 158.415 64.862L158.989 66.01C161.719 65.212 163.581 63.798 164.365 61.782H167.305ZM164.603 69.888C162.895 69.888 161.817 69.398 161.817 68.516C161.817 67.648 162.895 67.158 164.603 67.158C166.325 67.158 167.403 67.648 167.403 68.516C167.403 69.398 166.325 69.888 164.603 69.888ZM164.603 66.024C162.041 66.024 160.389 66.976 160.389 68.516C160.389 70.07 162.041 71.022 164.603 71.022C167.165 71.022 168.831 70.07 168.831 68.516C168.831 66.976 167.165 66.024 164.603 66.024ZM172.443 62.202C172.443 61.096 173.255 60.368 174.375 60.368C175.467 60.368 176.279 61.096 176.279 62.202C176.279 63.294 175.467 64.022 174.375 64.022C173.255 64.022 172.443 63.294 172.443 62.202ZM179.933 61.348V63.056H177.525C177.609 62.79 177.651 62.51 177.651 62.202C177.651 61.894 177.609 61.614 177.539 61.348H179.933ZM179.933 64.218V65.884H181.375V58.422H179.933V60.172H176.881C176.293 59.542 175.411 59.15 174.375 59.15C172.485 59.15 171.071 60.41 171.071 62.202C171.071 63.98 172.485 65.24 174.375 65.24C175.397 65.24 176.293 64.862 176.881 64.218H179.933ZM177.161 69.944C175.369 69.944 174.319 69.482 174.319 68.614C174.319 67.774 175.369 67.298 177.161 67.298C178.967 67.298 180.003 67.774 180.003 68.614C180.003 69.482 178.967 69.944 177.161 69.944ZM177.161 66.164C174.529 66.164 172.905 67.074 172.905 68.614C172.905 70.168 174.529 71.078 177.161 71.078C179.793 71.078 181.431 70.168 181.431 68.614C181.431 67.074 179.793 66.164 177.161 66.164ZM187.648 60.172C188.754 60.172 189.524 60.746 189.524 61.628C189.524 62.524 188.754 63.098 187.648 63.098C186.556 63.098 185.772 62.524 185.772 61.628C185.772 60.746 186.556 60.172 187.648 60.172ZM187.648 64.288C189.538 64.288 190.91 63.196 190.91 61.628C190.91 60.074 189.538 58.982 187.648 58.982C185.758 58.982 184.386 60.074 184.386 61.628C184.386 63.196 185.758 64.288 187.648 64.288ZM191.722 64.764C188.992 65.17 185.814 65.212 183.532 65.212L183.7 66.402C184.68 66.402 185.8 66.388 186.99 66.346V70.7H188.432V66.262C189.552 66.178 190.714 66.052 191.82 65.828L191.722 64.764ZM192.548 58.436V71.092H193.99V58.436H192.548ZM202.713 65.856V66.864H205.191V68.04H206.633V58.422H205.191V65.856H202.713ZM200.193 59.976C201.229 59.976 201.943 60.424 201.943 61.138C201.943 61.852 201.229 62.3 200.193 62.3C199.143 62.3 198.429 61.852 198.429 61.138C198.429 60.424 199.143 59.976 200.193 59.976ZM200.193 63.364C202.041 63.364 203.315 62.482 203.315 61.138C203.315 59.794 202.041 58.912 200.193 58.912C198.331 58.912 197.057 59.794 197.057 61.138C197.057 62.482 198.331 63.364 200.193 63.364ZM199.619 67.634H201.061V65.198C202.139 65.142 203.245 65.016 204.309 64.834L204.197 63.798C201.523 64.134 198.415 64.162 196.091 64.176L196.273 65.352C197.267 65.352 198.415 65.338 199.619 65.282V67.634ZM199.241 69.664V67.102H197.799V70.84H206.927V69.664H199.241ZM216.756 59.906H213.662V58.45H212.22V59.906H209.112V61.068H216.756V59.906ZM211.226 64.036C211.226 63.266 211.926 62.79 212.948 62.79C213.956 62.79 214.656 63.266 214.656 64.036C214.656 64.82 213.956 65.296 212.948 65.296C211.926 65.296 211.226 64.82 211.226 64.036ZM213.662 66.346C215.09 66.122 216.028 65.268 216.028 64.036C216.028 62.622 214.768 61.684 212.948 61.684C211.114 61.684 209.854 62.622 209.854 64.036C209.854 65.254 210.792 66.122 212.22 66.346V67.578C211.03 67.62 209.868 67.62 208.86 67.62L209.042 68.81C211.338 68.81 214.334 68.768 217.12 68.292L217.022 67.242C215.944 67.396 214.796 67.466 213.662 67.536V66.346ZM217.736 58.422V71.078H219.192V58.422H217.736Z" fill="white"/>
<path d="M155.092 17.422V30.106H156.548V17.422H155.092ZM149.814 18.36C147.938 18.36 146.566 20.096 146.566 22.812C146.566 25.556 147.938 27.278 149.814 27.278C151.704 27.278 153.076 25.556 153.076 22.812C153.076 20.096 151.704 18.36 149.814 18.36ZM149.814 19.662C150.92 19.662 151.69 20.852 151.69 22.812C151.69 24.8 150.92 25.99 149.814 25.99C148.722 25.99 147.952 24.8 147.952 22.812C147.952 20.852 148.722 19.662 149.814 19.662ZM163.199 18.486H161.757V20.558C161.757 22.896 160.525 25.29 158.551 26.256L159.433 27.418C160.875 26.676 161.939 25.206 162.485 23.456C163.031 25.108 164.039 26.48 165.397 27.18L166.279 26.032C164.375 25.094 163.199 22.812 163.199 20.558V18.486ZM170.535 22.448H168.561V17.436H167.119V30.078H168.561V23.638H170.535V22.448ZM179.369 18.906H176.275V17.45H174.833V18.906H171.725V20.068H179.369V18.906ZM173.839 23.036C173.839 22.266 174.539 21.79 175.561 21.79C176.569 21.79 177.269 22.266 177.269 23.036C177.269 23.82 176.569 24.296 175.561 24.296C174.539 24.296 173.839 23.82 173.839 23.036ZM176.275 25.346C177.703 25.122 178.641 24.268 178.641 23.036C178.641 21.622 177.381 20.684 175.561 20.684C173.727 20.684 172.467 21.622 172.467 23.036C172.467 24.254 173.405 25.122 174.833 25.346V26.578C173.643 26.62 172.481 26.62 171.473 26.62L171.655 27.81C173.951 27.81 176.947 27.768 179.733 27.292L179.635 26.242C178.557 26.396 177.409 26.466 176.275 26.536V25.346ZM180.349 17.422V30.078H181.805V17.422H180.349Z" fill="#222222"/>
<rect x="44" y="124" width="240" height="94" rx="7" fill="#F6F7FE"/>
<rect x="54" y="168" width="220" height="40" rx="7" fill="#435CE7"/>
<path d="M112.421 184.886H115.235V183.696H108.151V184.886H110.965V186.09C110.965 188.26 109.663 190.612 107.703 191.522L108.529 192.67C110.013 191.956 111.147 190.458 111.707 188.694C112.295 190.332 113.429 191.704 114.899 192.348L115.697 191.214C113.723 190.374 112.421 188.19 112.421 186.09V184.886ZM116.705 182.436V195.078H118.161V182.436H116.705ZM131.154 186.454C128.62 186.118 126.828 184.718 126.828 183.122V182.646H125.344V183.122C125.344 184.69 123.51 186.118 121.018 186.454L121.55 187.574C123.594 187.266 125.274 186.3 126.072 184.956C126.884 186.314 128.578 187.252 130.608 187.574L131.154 186.454ZM121.648 192.096H128.97V195.092H130.412V190.934H121.648V192.096ZM126.8 188.68V186.874H125.358V188.68H120.374V189.842H131.84V188.68H126.8ZM133.633 183.766V184.942H138.057C137.763 187.854 136.097 190.08 133.003 191.662L133.801 192.768C137.931 190.682 139.499 187.434 139.499 183.766H133.633ZM144.721 187.42H142.803V182.422H141.361V195.064H142.803V188.624H144.721V187.42ZM155.782 185.796H148.586V182.674H147.144V186.958H155.782V185.796ZM151.33 193.93C149.482 193.93 148.446 193.496 148.446 192.726C148.446 191.928 149.482 191.522 151.33 191.522C153.178 191.522 154.228 191.928 154.228 192.726C154.228 193.496 153.178 193.93 151.33 193.93ZM151.33 190.388C148.628 190.388 146.976 191.242 146.976 192.726C146.976 194.196 148.628 195.05 151.33 195.05C154.046 195.05 155.684 194.196 155.684 192.726C155.684 191.242 154.046 190.388 151.33 190.388ZM145.646 188.232V189.408H157.084V188.232H145.646ZM167.305 185.782V187.238H164.239V188.414H167.305V189.87H168.747V182.436H167.305V184.606H164.701C164.771 184.214 164.813 183.794 164.813 183.346H159.073V184.508H163.273C163.021 186.482 161.383 188.036 158.415 188.862L158.989 190.01C161.719 189.212 163.581 187.798 164.365 185.782H167.305ZM164.603 193.888C162.895 193.888 161.817 193.398 161.817 192.516C161.817 191.648 162.895 191.158 164.603 191.158C166.325 191.158 167.403 191.648 167.403 192.516C167.403 193.398 166.325 193.888 164.603 193.888ZM164.603 190.024C162.041 190.024 160.389 190.976 160.389 192.516C160.389 194.07 162.041 195.022 164.603 195.022C167.165 195.022 168.831 194.07 168.831 192.516C168.831 190.976 167.165 190.024 164.603 190.024ZM172.443 186.202C172.443 185.096 173.255 184.368 174.375 184.368C175.467 184.368 176.279 185.096 176.279 186.202C176.279 187.294 175.467 188.022 174.375 188.022C173.255 188.022 172.443 187.294 172.443 186.202ZM179.933 185.348V187.056H177.525C177.609 186.79 177.651 186.51 177.651 186.202C177.651 185.894 177.609 185.614 177.539 185.348H179.933ZM179.933 188.218V189.884H181.375V182.422H179.933V184.172H176.881C176.293 183.542 175.411 183.15 174.375 183.15C172.485 183.15 171.071 184.41 171.071 186.202C171.071 187.98 172.485 189.24 174.375 189.24C175.397 189.24 176.293 188.862 176.881 188.218H179.933ZM177.161 193.944C175.369 193.944 174.319 193.482 174.319 192.614C174.319 191.774 175.369 191.298 177.161 191.298C178.967 191.298 180.003 191.774 180.003 192.614C180.003 193.482 178.967 193.944 177.161 193.944ZM177.161 190.164C174.529 190.164 172.905 191.074 172.905 192.614C172.905 194.168 174.529 195.078 177.161 195.078C179.793 195.078 181.431 194.168 181.431 192.614C181.431 191.074 179.793 190.164 177.161 190.164ZM190.574 183.612H187.844V182.31H186.402V183.612H183.56V184.76H190.574V183.612ZM185.562 187.56C185.562 186.818 186.192 186.356 187.116 186.356C188.054 186.356 188.684 186.818 188.684 187.56C188.684 188.302 188.054 188.764 187.116 188.764C186.192 188.764 185.562 188.302 185.562 187.56ZM190.028 187.56C190.028 186.188 188.838 185.278 187.116 185.278C185.408 185.278 184.218 186.188 184.218 187.56C184.218 188.932 185.408 189.842 187.116 189.842C188.838 189.842 190.028 188.932 190.028 187.56ZM192.576 193.79H187.13V192.684H192.576V193.79ZM192.576 191.592H187.13V190.444H185.702V194.924H194.004V190.444H192.576V191.592ZM192.562 182.422V185.264H190.658V186.44H192.562V187.742H190.63V188.918H192.562V189.94H194.004V182.422H192.562ZM200.235 183.318C198.261 183.318 196.805 184.564 196.805 186.356C196.805 188.148 198.261 189.394 200.235 189.394C202.209 189.394 203.679 188.148 203.679 186.356C203.679 184.564 202.209 183.318 200.235 183.318ZM200.235 184.55C201.411 184.55 202.265 185.25 202.265 186.356C202.265 187.448 201.411 188.162 200.235 188.162C199.073 188.162 198.219 187.448 198.219 186.356C198.219 185.25 199.073 184.55 200.235 184.55ZM205.107 182.422V195.092H206.563V182.422H205.107ZM196.399 192.418C198.639 192.418 201.663 192.39 204.449 191.858L204.351 190.808C201.635 191.214 198.485 191.228 196.217 191.228L196.399 192.418ZM216.756 183.906H213.662V182.45H212.22V183.906H209.112V185.068H216.756V183.906ZM211.226 188.036C211.226 187.266 211.926 186.79 212.948 186.79C213.956 186.79 214.656 187.266 214.656 188.036C214.656 188.82 213.956 189.296 212.948 189.296C211.926 189.296 211.226 188.82 211.226 188.036ZM213.662 190.346C215.09 190.122 216.028 189.268 216.028 188.036C216.028 186.622 214.768 185.684 212.948 185.684C211.114 185.684 209.854 186.622 209.854 188.036C209.854 189.254 210.792 190.122 212.22 190.346V191.578C211.03 191.62 209.868 191.62 208.86 191.62L209.042 192.81C211.338 192.81 214.334 192.768 217.12 192.292L217.022 191.242C215.944 191.396 214.796 191.466 213.662 191.536V190.346ZM217.736 182.422V195.078H219.192V182.422H217.736Z" fill="white"/>
<path d="M155.176 144.782V146.238H152.11V147.414H155.176V148.87H156.618V141.436H155.176V143.606H152.572C152.642 143.214 152.684 142.794 152.684 142.346H146.944V143.508H151.144C150.892 145.482 149.254 147.036 146.286 147.862L146.86 149.01C149.59 148.212 151.452 146.798 152.236 144.782H155.176ZM152.474 152.888C150.766 152.888 149.688 152.398 149.688 151.516C149.688 150.648 150.766 150.158 152.474 150.158C154.196 150.158 155.274 150.648 155.274 151.516C155.274 152.398 154.196 152.888 152.474 152.888ZM152.474 149.024C149.912 149.024 148.26 149.976 148.26 151.516C148.26 153.07 149.912 154.022 152.474 154.022C155.036 154.022 156.702 153.07 156.702 151.516C156.702 149.976 155.036 149.024 152.474 149.024ZM160.315 145.202C160.315 144.096 161.127 143.368 162.247 143.368C163.339 143.368 164.151 144.096 164.151 145.202C164.151 146.294 163.339 147.022 162.247 147.022C161.127 147.022 160.315 146.294 160.315 145.202ZM167.805 144.348V146.056H165.397C165.481 145.79 165.523 145.51 165.523 145.202C165.523 144.894 165.481 144.614 165.411 144.348H167.805ZM167.805 147.218V148.884H169.247V141.422H167.805V143.172H164.753C164.165 142.542 163.283 142.15 162.247 142.15C160.357 142.15 158.943 143.41 158.943 145.202C158.943 146.98 160.357 148.24 162.247 148.24C163.269 148.24 164.165 147.862 164.753 147.218H167.805ZM165.033 152.944C163.241 152.944 162.191 152.482 162.191 151.614C162.191 150.774 163.241 150.298 165.033 150.298C166.839 150.298 167.875 150.774 167.875 151.614C167.875 152.482 166.839 152.944 165.033 152.944ZM165.033 149.164C162.401 149.164 160.777 150.074 160.777 151.614C160.777 153.168 162.401 154.078 165.033 154.078C167.665 154.078 169.303 153.168 169.303 151.614C169.303 150.074 167.665 149.164 165.033 149.164ZM181.819 141.45H180.377V150.648H181.819V141.45ZM179.201 147.82C177.255 147.19 176.107 145.65 176.107 144.04V143.578H178.809V142.416H171.893V143.578H174.637V144.04C174.637 145.748 173.503 147.386 171.501 148.058L172.257 149.178C173.769 148.674 174.833 147.596 175.393 146.252C175.953 147.498 177.017 148.478 178.473 148.954L179.201 147.82ZM175.015 152.664V149.808H173.559V153.84H182.183V152.664H175.015Z" fill="#222222"/>
<rect x="44" y="318" width="240" height="94" rx="7" fill="#F6F7FE"/>
<rect x="54" y="362" width="220" height="40" rx="7" fill="#283895"/>
<path d="M97.913 385.782V382.618H102.827V381.428H97.913V378.418H103.429V377.2H96.513V387H103.625V385.782H97.913ZM108.498 387.112C111.088 387.112 112.292 385.824 112.292 384.326C112.292 380.728 106.356 382.226 106.356 379.832C106.356 378.978 107.07 378.278 108.736 378.278C109.604 378.278 110.57 378.53 111.424 379.076L111.886 377.956C111.074 377.396 109.884 377.088 108.736 377.088C106.16 377.088 104.984 378.376 104.984 379.888C104.984 383.528 110.92 382.016 110.92 384.41C110.92 385.264 110.192 385.922 108.498 385.922C107.238 385.922 105.992 385.446 105.264 384.788L104.746 385.88C105.53 386.608 107 387.112 108.498 387.112ZM120.877 385.236C120.177 385.684 119.407 385.866 118.581 385.866C116.327 385.866 114.689 384.256 114.689 382.1C114.689 379.916 116.327 378.334 118.595 378.334C119.701 378.334 120.625 378.684 121.437 379.468L122.305 378.6C121.409 377.606 120.093 377.088 118.539 377.088C115.501 377.088 113.289 379.202 113.289 382.1C113.289 384.998 115.501 387.112 118.511 387.112C119.883 387.112 121.241 386.692 122.221 385.866V382.044H120.877V385.236ZM140.677 377.2L137.975 385.208L135.273 377.2H133.985L131.227 385.166L128.581 377.2H127.139L130.415 387H131.913L134.587 379.174L137.261 387H138.731L142.007 377.2H140.677ZM145.891 387.084C148.117 387.084 149.741 385.502 149.741 383.29C149.741 381.078 148.117 379.51 145.891 379.51C143.665 379.51 142.027 381.078 142.027 383.29C142.027 385.502 143.665 387.084 145.891 387.084ZM145.891 385.908C144.463 385.908 143.385 384.872 143.385 383.29C143.385 381.708 144.463 380.686 145.891 380.686C147.319 380.686 148.383 381.708 148.383 383.29C148.383 384.872 147.319 385.908 145.891 385.908ZM152.638 380.826V379.58H151.35V387H152.694V383.304C152.694 381.68 153.59 380.798 155.032 380.798C155.13 380.798 155.228 380.798 155.34 380.812V379.51C154.038 379.51 153.114 379.958 152.638 380.826ZM162.417 387H164.069L160.639 382.646L163.761 379.58H162.137L158.091 383.276V376.612H156.747V387H158.091V384.97L159.631 383.542L162.417 387ZM165.7 378.152C166.232 378.152 166.61 377.76 166.61 377.256C166.61 376.78 166.218 376.402 165.7 376.402C165.182 376.402 164.79 376.794 164.79 377.284C164.79 377.774 165.182 378.152 165.7 378.152ZM165.028 387H166.372V379.58H165.028V387ZM172.65 379.51C171.474 379.51 170.522 379.944 169.976 380.7V379.58H168.688V387H170.032V383.178C170.032 381.568 170.956 380.714 172.384 380.714C173.658 380.714 174.386 381.428 174.386 382.884V387H175.73V382.73C175.73 380.546 174.456 379.51 172.65 379.51ZM183.832 379.58V380.728C183.202 379.916 182.194 379.51 181.088 379.51C178.946 379.51 177.322 380.952 177.322 383.094C177.322 385.236 178.946 386.692 181.088 386.692C182.152 386.692 183.118 386.314 183.762 385.544V386.132C183.762 387.812 182.964 388.624 181.214 388.624C180.122 388.624 179.044 388.246 178.358 387.658L177.714 388.694C178.526 389.422 179.898 389.8 181.256 389.8C183.776 389.8 185.106 388.61 185.106 385.992V379.58H183.832ZM181.242 385.516C179.744 385.516 178.68 384.522 178.68 383.094C178.68 381.652 179.744 380.686 181.242 380.686C182.726 380.686 183.79 381.652 183.79 383.094C183.79 384.522 182.726 385.516 181.242 385.516ZM197.92 385.236C197.22 385.684 196.45 385.866 195.624 385.866C193.37 385.866 191.732 384.256 191.732 382.1C191.732 379.916 193.37 378.334 195.638 378.334C196.744 378.334 197.668 378.684 198.48 379.468L199.348 378.6C198.452 377.606 197.136 377.088 195.582 377.088C192.544 377.088 190.332 379.202 190.332 382.1C190.332 384.998 192.544 387.112 195.554 387.112C196.926 387.112 198.284 386.692 199.264 385.866V382.044H197.92V385.236ZM202.787 380.826V379.58H201.499V387H202.843V383.304C202.843 381.68 203.739 380.798 205.181 380.798C205.279 380.798 205.377 380.798 205.489 380.812V379.51C204.187 379.51 203.263 379.958 202.787 380.826ZM210.005 387.084C212.231 387.084 213.855 385.502 213.855 383.29C213.855 381.078 212.231 379.51 210.005 379.51C207.779 379.51 206.141 381.078 206.141 383.29C206.141 385.502 207.779 387.084 210.005 387.084ZM210.005 385.908C208.577 385.908 207.499 384.872 207.499 383.29C207.499 381.708 208.577 380.686 210.005 380.686C211.433 380.686 212.497 381.708 212.497 383.29C212.497 384.872 211.433 385.908 210.005 385.908ZM221.035 379.58V383.416C221.035 385.012 220.139 385.88 218.739 385.88C217.465 385.88 216.737 385.152 216.737 383.696V379.58H215.393V383.85C215.393 386.034 216.667 387.084 218.585 387.084C219.635 387.084 220.559 386.65 221.105 385.88V387H222.379V379.58H221.035ZM228.622 379.51C227.53 379.51 226.578 379.93 225.976 380.756V379.58H224.688V389.716H226.032V385.88C226.648 386.678 227.572 387.084 228.622 387.084C230.792 387.084 232.374 385.572 232.374 383.29C232.374 381.022 230.792 379.51 228.622 379.51ZM228.51 385.908C227.096 385.908 226.018 384.872 226.018 383.29C226.018 381.722 227.096 380.686 228.51 380.686C229.938 380.686 231.016 381.722 231.016 383.29C231.016 384.872 229.938 385.908 228.51 385.908Z" fill="white"/>
<path d="M156.562 335.436H155.106V341.918H156.562V335.436ZM153.832 340.504C151.886 339.902 150.752 338.362 150.752 336.724V335.772H149.282V336.724C149.282 338.432 148.148 340.07 146.146 340.728L146.86 341.876C148.386 341.358 149.464 340.308 150.038 338.95C150.612 340.196 151.676 341.162 153.132 341.638L153.832 340.504ZM149.716 346.832V345.726H156.562V342.52H148.274V343.64H155.134V344.676H148.302V347.966H156.94V346.832H149.716ZM167.371 339.944H161.589V337.256H167.371V339.944ZM168.799 336.108H160.161V341.106H168.799V336.108ZM170.227 342.66H158.761V343.822H163.731V348.078H165.173V343.822H170.227V342.66ZM181.819 335.45H180.377V344.648H181.819V335.45ZM179.201 341.82C177.255 341.19 176.107 339.65 176.107 338.04V337.578H178.809V336.416H171.893V337.578H174.637V338.04C174.637 339.748 173.503 341.386 171.501 342.058L172.257 343.178C173.769 342.674 174.833 341.596 175.393 340.252C175.953 341.498 177.017 342.478 178.473 342.954L179.201 341.82ZM175.015 346.664V343.808H173.559V347.84H182.183V346.664H175.015Z" fill="#222222"/>
<rect x="187" y="248" width="140" height="40" rx="7" fill="#435CE7"/>
<path d="M205.421 264.886H208.235V263.696H201.151V264.886H203.965V266.09C203.965 268.26 202.663 270.612 200.703 271.522L201.529 272.67C203.013 271.956 204.147 270.458 204.707 268.694C205.295 270.332 206.429 271.704 207.899 272.348L208.697 271.214C206.723 270.374 205.421 268.19 205.421 266.09V264.886ZM209.705 262.436V275.078H211.161V262.436H209.705ZM224.154 266.454C221.62 266.118 219.828 264.718 219.828 263.122V262.646H218.344V263.122C218.344 264.69 216.51 266.118 214.018 266.454L214.55 267.574C216.594 267.266 218.274 266.3 219.072 264.956C219.884 266.314 221.578 267.252 223.608 267.574L224.154 266.454ZM214.648 272.096H221.97V275.092H223.412V270.934H214.648V272.096ZM219.8 268.68V266.874H218.358V268.68H213.374V269.842H224.84V268.68H219.8ZM226.633 263.766V264.942H231.057C230.763 267.854 229.097 270.08 226.003 271.662L226.801 272.768C230.931 270.682 232.499 267.434 232.499 263.766H226.633ZM237.721 267.42H235.803V262.422H234.361V275.064H235.803V268.624H237.721V267.42ZM248.782 265.796H241.586V262.674H240.144V266.958H248.782V265.796ZM244.33 273.93C242.482 273.93 241.446 273.496 241.446 272.726C241.446 271.928 242.482 271.522 244.33 271.522C246.178 271.522 247.228 271.928 247.228 272.726C247.228 273.496 246.178 273.93 244.33 273.93ZM244.33 270.388C241.628 270.388 239.976 271.242 239.976 272.726C239.976 274.196 241.628 275.05 244.33 275.05C247.046 275.05 248.684 274.196 248.684 272.726C248.684 271.242 247.046 270.388 244.33 270.388ZM238.646 268.232V269.408H250.084V268.232H238.646ZM260.305 265.782V267.238H257.239V268.414H260.305V269.87H261.747V262.436H260.305V264.606H257.701C257.771 264.214 257.813 263.794 257.813 263.346H252.073V264.508H256.273C256.021 266.482 254.383 268.036 251.415 268.862L251.989 270.01C254.719 269.212 256.581 267.798 257.365 265.782H260.305ZM257.603 273.888C255.895 273.888 254.817 273.398 254.817 272.516C254.817 271.648 255.895 271.158 257.603 271.158C259.325 271.158 260.403 271.648 260.403 272.516C260.403 273.398 259.325 273.888 257.603 273.888ZM257.603 270.024C255.041 270.024 253.389 270.976 253.389 272.516C253.389 274.07 255.041 275.022 257.603 275.022C260.165 275.022 261.831 274.07 261.831 272.516C261.831 270.976 260.165 270.024 257.603 270.024ZM265.443 266.202C265.443 265.096 266.255 264.368 267.375 264.368C268.467 264.368 269.279 265.096 269.279 266.202C269.279 267.294 268.467 268.022 267.375 268.022C266.255 268.022 265.443 267.294 265.443 266.202ZM272.933 265.348V267.056H270.525C270.609 266.79 270.651 266.51 270.651 266.202C270.651 265.894 270.609 265.614 270.539 265.348H272.933ZM272.933 268.218V269.884H274.375V262.422H272.933V264.172H269.881C269.293 263.542 268.411 263.15 267.375 263.15C265.485 263.15 264.071 264.41 264.071 266.202C264.071 267.98 265.485 269.24 267.375 269.24C268.397 269.24 269.293 268.862 269.881 268.218H272.933ZM270.161 273.944C268.369 273.944 267.319 273.482 267.319 272.614C267.319 271.774 268.369 271.298 270.161 271.298C271.967 271.298 273.003 271.774 273.003 272.614C273.003 273.482 271.967 273.944 270.161 273.944ZM270.161 270.164C267.529 270.164 265.905 271.074 265.905 272.614C265.905 274.168 267.529 275.078 270.161 275.078C272.793 275.078 274.431 274.168 274.431 272.614C274.431 271.074 272.793 270.164 270.161 270.164ZM280.956 263.486H279.514V265.558C279.514 267.896 278.282 270.29 276.308 271.256L277.19 272.418C278.632 271.676 279.696 270.206 280.242 268.456C280.788 270.108 281.796 271.48 283.154 272.18L284.036 271.032C282.132 270.094 280.956 267.812 280.956 265.558V263.486ZM288.292 267.448H286.318V262.436H284.876V275.078H286.318V268.638H288.292V267.448ZM297.757 266.944H291.975V264.256H297.757V266.944ZM299.185 263.108H290.547V268.106H299.185V263.108ZM300.613 269.66H289.147V270.822H294.117V275.078H295.559V270.822H300.613V269.66ZM313.242 268.624V267.462H311.534C311.814 266.02 311.814 264.928 311.814 263.976V263.01H303.218V264.172H310.4C310.4 265.082 310.372 266.104 310.092 267.462H301.79V268.624H306.774V270.696H302.952V271.858H310.428V275.078H311.87V270.696H308.23V268.624H313.242Z" fill="white"/>
<rect x="237" y="472" width="90" height="90" rx="7" fill="#F6F7FE"/>
<rect x="118" y="472" width="90" height="90" rx="7" fill="#F6F7FE"/>
<rect y="472" width="90" height="90" rx="7" fill="#F6F7FE"/>
<path d="M262.529 513.06C264.335 513.06 265.525 513.676 265.525 514.684C265.525 515.706 264.335 516.322 262.529 516.322C260.709 516.322 259.519 515.706 259.519 514.684C259.519 513.676 260.709 513.06 262.529 513.06ZM262.529 517.484C265.189 517.484 267.009 516.392 267.009 514.684C267.009 512.99 265.189 511.898 262.529 511.898C259.855 511.898 258.035 512.99 258.035 514.684C258.035 516.392 259.855 517.484 262.529 517.484ZM268.283 518.562H256.817V519.752H259.617V524.078H261.087V519.752H263.971V524.078H265.441V519.752H268.297L268.283 518.562ZM276.138 516.854C276.446 515.216 276.446 513.97 276.446 513.116V512.388H270.09V513.564H275.032C275.018 514.348 274.976 515.342 274.724 516.7L276.138 516.854ZM277.188 517.484C275.942 517.68 274.584 517.764 273.268 517.82V515.272H271.84V517.862C270.944 517.89 270.076 517.89 269.32 517.89L269.474 519.066C271.672 519.066 274.654 518.996 277.286 518.534L277.188 517.484ZM272.68 520.088H271.224V523.84H279.82V522.664H272.68V520.088ZM279.414 515.44V511.436H277.958V520.928H279.414V516.63H281.094V515.44H279.414ZM290.685 516.294H284.903V514.684H290.685V516.294ZM292.127 511.926H290.685V513.522H284.903V511.926H283.461V517.456H292.127V511.926ZM293.541 518.828H282.075V519.99H287.045V524.092H288.487V519.99H293.541V518.828ZM299.296 512.458H297.84V514.544C297.84 516.91 296.608 519.346 294.634 520.312L295.544 521.46C296.986 520.718 298.022 519.248 298.582 517.456C299.128 519.15 300.15 520.536 301.578 521.25L302.432 520.088C300.5 519.192 299.296 516.896 299.296 514.544V512.458ZM303.762 511.408V515.566H301.06V516.742H303.762V524.092H305.218V511.408H303.762Z" fill="#283895"/>
<path d="M140.911 520.046C140.057 520.046 139.455 519.36 139.455 518.31C139.455 517.26 140.057 516.56 140.911 516.56C141.765 516.56 142.367 517.26 142.367 518.31C142.367 519.36 141.765 520.046 140.911 520.046ZM140.911 515.37C139.315 515.37 138.167 516.56 138.167 518.31C138.167 520.046 139.315 521.25 140.911 521.25C142.507 521.25 143.655 520.046 143.655 518.31C143.655 516.56 142.507 515.37 140.911 515.37ZM141.625 511.8H140.197V513.494H137.803V514.656H143.991V513.494H141.625V511.8ZM147.225 511.436V516.672H145.881V511.702H144.537V523.49H145.881V517.862H147.225V524.078H148.597V511.436H147.225ZM152.518 515.258C152.518 514.152 153.372 513.452 154.534 513.452C155.71 513.452 156.564 514.152 156.564 515.258C156.564 516.35 155.71 517.05 154.534 517.05C153.372 517.05 152.518 516.35 152.518 515.258ZM155.262 518.24C156.858 517.974 157.978 516.812 157.978 515.258C157.978 513.466 156.508 512.22 154.534 512.22C152.56 512.22 151.104 513.466 151.104 515.258C151.104 516.812 152.21 517.974 153.806 518.24V520.214C152.63 520.256 151.482 520.256 150.516 520.256L150.698 521.446C152.938 521.446 155.962 521.418 158.748 520.886L158.65 519.836C157.558 520.004 156.396 520.088 155.262 520.158V518.24ZM159.406 511.422V524.092H160.862V511.422H159.406ZM172.119 522.748H166.771V521.418H172.119V522.748ZM172.119 520.284H166.771V518.94H165.343V523.91H173.561V518.94H172.119V520.284ZM168.073 516.756H165.091V514.978H168.073V516.756ZM172.119 511.422V514.446H169.487V512.08H168.073V513.858H165.091V512.066H163.663V517.932H169.487V515.622H172.119V518.366H173.561V511.436L172.119 511.422ZM186.134 511.436H184.692V520.62H186.134V511.436ZM177.37 515.44C177.37 514.278 178.196 513.522 179.316 513.522C180.422 513.522 181.262 514.278 181.262 515.44C181.262 516.588 180.422 517.358 179.316 517.358C178.196 517.358 177.37 516.588 177.37 515.44ZM182.662 515.44C182.662 513.592 181.22 512.276 179.316 512.276C177.412 512.276 175.956 513.592 175.956 515.44C175.956 517.274 177.412 518.604 179.316 518.604C181.22 518.604 182.662 517.274 182.662 515.44ZM179.33 522.664V519.696H177.874V523.84H186.498V522.664H179.33Z" fill="#283895"/>
<path d="M30.5696 512.486H29.1276V514.558C29.1276 516.896 27.8956 519.29 25.9216 520.256L26.8036 521.418C28.2456 520.676 29.3096 519.206 29.8556 517.456C30.4016 519.108 31.4096 520.48 32.7676 521.18L33.6496 520.032C31.7456 519.094 30.5696 516.812 30.5696 514.558V512.486ZM37.9056 516.448H35.9316V511.436H34.4896V524.078H35.9316V517.638H37.9056V516.448ZM47.8185 522.762H42.4565V521.362H47.8185V522.762ZM47.8185 520.242H42.4565V518.814H41.0285V523.924H49.2465V518.814H47.8185V520.242ZM42.2465 516.728C41.1265 516.728 40.3285 516.014 40.3285 514.95C40.3285 513.872 41.1265 513.186 42.2465 513.186C43.3385 513.186 44.1505 513.872 44.1505 514.95C44.1505 516.014 43.3385 516.728 42.2465 516.728ZM47.8045 511.436V514.348H45.4665C45.1865 512.934 43.9125 511.996 42.2465 511.996C40.3425 511.996 38.9425 513.214 38.9425 514.95C38.9425 516.7 40.3425 517.918 42.2465 517.918C43.9265 517.918 45.2145 516.952 45.4665 515.524H47.8045V518.212H49.2465V511.436H47.8045ZM59.9995 516.294H54.2175V514.684H59.9995V516.294ZM61.4415 511.926H59.9995V513.522H54.2175V511.926H52.7755V517.456H61.4415V511.926ZM62.8555 518.828H51.3895V519.99H56.3595V524.092H57.8015V519.99H62.8555V518.828Z" fill="#283895"/>
</svg>
