<svg width="42" height="42" viewBox="0 0 42 42" fill="none" xmlns="http://www.w3.org/2000/svg">
<circle cx="21" cy="21" r="20.5" stroke="#DDDDDD"/>
<g clip-path="url(#clip0_1_4001)">
<path d="M16.6658 18.1678H13.7773V27.5036H16.6658V18.1678Z" fill="#888888"/>
<path d="M15.2075 16.9433C16.1508 16.9433 16.915 16.1721 16.915 15.2217C16.915 14.2713 16.1545 13.5 15.2075 13.5C14.2605 13.5 13.5 14.2713 13.5 15.2217C13.5 16.1721 14.2642 16.9433 15.2075 16.9433Z" fill="#888888"/>
<path d="M21.2871 22.6019C21.2871 21.2896 21.8904 20.5073 23.0494 20.5073C24.1134 20.5073 24.6217 21.2567 24.6217 22.6019V27.5H27.4992V21.5893C27.4992 19.0891 26.0805 17.8792 24.1025 17.8792C22.1244 17.8792 21.2871 19.4217 21.2871 19.4217V18.1643H18.5156V27.5H21.2871V22.6019Z" fill="#888888"/>
</g>
<defs>
<clipPath id="clip0_1_4001">
<rect width="14" height="14" fill="white" transform="translate(13.5 13.5)"/>
</clipPath>
</defs>
</svg>
