<svg width="42" height="42" viewBox="0 0 42 42" fill="none" xmlns="http://www.w3.org/2000/svg">
<circle cx="21" cy="21" r="20.5" stroke="#DDDDDD"/>
<path d="M26.3809 20.0072C25.8221 20.2006 25.7699 21.0939 26.2939 21.3569C26.7464 21.6121 27.4057 21.2815 27.3806 20.7362C27.4425 20.218 26.8547 19.7849 26.3809 20.0072Z" fill="#888888"/>
<path d="M22.0216 20.0188C21.43 20.1831 21.3507 21.1132 21.8979 21.3839C22.3523 21.6585 23.0349 21.2891 22.973 20.74C23.0349 20.2431 22.4818 19.8428 22.0216 20.0188Z" fill="#888888"/>
<path d="M15.3563 20.0383C14.7878 20.2394 14.7607 21.1579 15.3138 21.3996C15.772 21.6432 16.4062 21.27 16.3637 20.7364C16.414 20.2182 15.8262 19.8179 15.3582 20.0383H15.3563Z" fill="#888888"/>
<path d="M30.2818 16.2657C29.8312 14.7768 28.3675 13.6534 26.8032 13.6515C22.934 13.6495 19.0649 13.6495 15.1938 13.6515C13.3221 13.6418 11.6301 15.266 11.5567 17.1358C11.547 19.1023 11.5509 21.0707 11.5567 23.0392C11.5992 24.8568 13.1712 26.4675 14.9869 26.568C16.4932 26.6047 18.0014 26.5622 19.5115 26.5893C19.8596 27.3337 20.2328 28.0646 20.5924 28.8052C20.6911 28.9908 20.7645 29.2267 20.9966 29.2809C21.2344 29.2364 21.3059 28.9966 21.4046 28.811C21.7681 28.0685 22.1355 27.3298 22.4951 26.5854C24.0014 26.5699 25.5077 26.6028 27.0159 26.5699C28.8277 26.4694 30.3959 24.8606 30.4423 23.045C30.45 21.4749 30.4423 19.9067 30.4481 18.3366C30.4345 17.6463 30.5138 16.9347 30.2837 16.2677L30.2818 16.2657ZM16.9224 22.14C16.3733 22.6157 15.4258 22.6428 14.9521 22.0453C14.954 22.1304 14.956 22.3025 14.9598 22.3875C14.5789 22.3914 14.198 22.3953 13.8171 22.3798C13.8345 20.7672 13.7977 19.1526 13.8383 17.54C14.2135 17.5516 14.5866 17.5477 14.9598 17.5516C14.9463 18.1529 14.9656 18.7581 14.9444 19.3595C15.4916 18.8084 16.4603 18.8316 17.0017 19.3788C17.75 20.0981 17.723 21.4691 16.9224 22.14ZM19.5618 22.3875C19.1867 22.3914 18.8135 22.3914 18.4403 22.3875C18.4229 21.3647 18.4616 20.3398 18.4191 19.317C18.421 18.9786 18.2431 18.6421 17.9028 18.5435C17.897 18.1723 17.9009 17.801 17.9028 17.4278C18.2489 17.4394 18.6008 17.5148 18.8773 17.7275C19.3704 18.0872 19.5773 18.7272 19.5657 19.317C19.5618 20.3418 19.5676 21.3647 19.5638 22.3875H19.5618ZM23.5412 22.0917C22.5899 22.8129 20.9038 22.577 20.4436 21.3917C20.051 20.4636 20.5924 19.288 21.5882 19.0501C22.294 18.851 23.1313 18.9592 23.6765 19.4813C24.4055 20.1619 24.3514 21.4961 23.5412 22.0936V22.0917ZM28.4738 22.2715C28.47 22.8477 28.2669 23.4646 27.7874 23.8184C27.3717 24.1336 26.8225 24.1684 26.3198 24.1471C26.3198 23.7991 26.3198 23.451 26.3198 23.103C26.5866 23.0914 26.8941 23.103 27.1029 22.9077C27.3349 22.6834 27.3349 22.3392 27.3562 22.0395C26.7916 22.5751 25.8422 22.5906 25.2756 22.053C24.4867 21.3086 24.6066 19.8448 25.4999 19.228C26.0452 18.8413 26.896 18.8413 27.3446 19.3846C27.3427 19.3073 27.3427 19.1526 27.3427 19.0733C27.7197 19.0695 28.0968 19.0695 28.4758 19.0733C28.4758 20.1387 28.4777 21.2061 28.4758 22.2715H28.4738Z" fill="#888888"/>
</svg>
