<svg width="204" height="27" viewBox="0 0 204 27" fill="none" xmlns="http://www.w3.org/2000/svg">
<path d="M186.213 15.7448C186.186 15.467 186.186 15.3505 186.186 15.1892V11.6495C186.186 11.4972 186.204 11.2373 186.222 11.0939C186.41 9.52571 187.682 9.01492 189.179 9.01492C190.675 9.01492 191.975 9.51675 192.127 11.0939C192.154 11.3627 192.145 11.6495 192.145 11.6495V11.9273H190.021V11.4524C190.021 11.4524 190.021 11.2552 189.994 11.1298C189.959 10.9416 189.797 10.5204 189.152 10.5204C188.507 10.5204 188.363 10.9236 188.319 11.1298C188.292 11.2373 188.283 11.3896 188.283 11.524V15.3684C188.283 15.4759 188.283 15.5924 188.301 15.691C188.337 15.915 188.552 16.3004 189.161 16.3004C189.77 16.3004 189.985 15.915 190.021 15.691C190.039 15.5924 190.039 15.4759 190.039 15.3684V14.1497H189.179V12.922H192.163V15.1802C192.163 15.3325 192.163 15.449 192.136 15.7358C192.073 16.4437 191.742 16.9366 191.267 17.2682C199.099 13.7375 203.723 9.8035 203.131 6.42514C202.029 0.0806343 182.951 -1.90875 160.53 1.99832C150.727 3.70095 141.909 6.25488 135.179 9.11349C135.546 9.02388 135.941 8.97908 136.362 8.97908C137.554 8.97908 139.194 9.26583 139.194 11.0939V11.6853H137.097V11.1656C137.097 10.7086 136.81 10.4039 136.317 10.4039C135.788 10.4039 135.609 10.6996 135.546 10.9685C135.528 11.067 135.519 11.2463 135.546 11.4165C135.788 12.4022 138.978 12.922 139.328 14.6873C139.364 14.8666 139.435 15.3415 139.328 16.0674C139.131 17.4653 137.876 17.9851 136.353 17.9851C134.829 17.9851 133.297 17.4205 133.297 15.5476V14.8934H135.555V15.7089C135.555 16.1659 135.878 16.4706 136.407 16.4706C136.962 16.4706 137.159 16.1839 137.222 15.9061C137.258 15.7448 137.285 15.4849 137.204 15.2788C136.774 14.1945 133.781 13.6926 133.414 11.9721C133.324 11.5509 133.333 11.2104 133.396 10.834C133.494 10.2336 133.79 9.81246 134.211 9.51675C126.11 13.1012 121.298 17.1158 121.898 20.5569C123.001 26.9104 142.079 28.8908 164.509 24.9837C174.527 23.2363 183.507 20.6107 190.299 17.6804C189.941 17.77 189.555 17.8148 189.161 17.8148C187.673 17.8148 186.347 17.2682 186.204 15.7358L186.213 15.7448ZM145.359 17.6535L144.239 10.0275H144.194L143.038 17.6535H140.771L142.33 9.24791H146.067L147.617 17.6535H145.359ZM156.542 17.6535L156.489 10.0903H156.444L155.037 17.6535H152.904L151.497 10.0903H151.452L151.399 17.6535H149.293L149.481 9.24791H152.913L153.953 15.6731H153.997L155.037 9.24791H158.469L158.648 17.6535H156.551H156.542ZM166.668 16.0405C166.471 17.4295 165.226 17.9402 163.729 17.9402C162.233 17.9402 160.7 17.3757 160.7 15.5207V14.8755H162.932V15.682C162.932 16.1301 163.254 16.4348 163.774 16.4348C164.33 16.4348 164.518 16.157 164.589 15.8792C164.625 15.7179 164.652 15.467 164.572 15.2609C164.141 14.1855 161.184 13.6927 160.826 11.99C160.736 11.5689 160.745 11.2373 160.808 10.8699C161.023 9.50778 162.242 9.02388 163.72 9.02388C164.903 9.02388 166.534 9.31064 166.534 11.1208V11.7033H164.455V11.1925C164.455 10.7355 164.168 10.4397 163.684 10.4397C163.165 10.4397 162.985 10.7265 162.923 10.9953C162.905 11.085 162.887 11.2642 162.923 11.4344C163.156 12.4112 166.319 12.931 166.668 14.6694C166.704 14.8486 166.776 15.3146 166.668 16.0315V16.0405ZM174.581 15.2788C174.581 15.4311 174.572 15.7537 174.563 15.8344C174.411 17.4026 173.174 17.9134 171.624 17.9134C170.074 17.9134 168.837 17.4026 168.685 15.8344C168.685 15.7537 168.658 15.4401 168.667 15.2788V9.24791H170.791V15.467C170.791 15.5745 170.791 15.7 170.809 15.7896C170.853 15.9957 171.033 16.3989 171.615 16.3989C172.198 16.3989 172.386 15.9957 172.422 15.7896C172.439 15.7 172.439 15.5745 172.439 15.467V9.24791H174.563V15.2788H174.581ZM183.99 17.5728H180.997L178.918 10.7444H178.874L178.99 17.5728H176.92V9.24791H180.047L181.974 15.8433H182.019L181.902 9.24791H183.981V17.5639L183.99 17.5728Z" fill="white"/>
<path d="M134.238 9.5257C134.551 9.39129 134.856 9.24791 135.179 9.11349C134.82 9.2031 134.507 9.33752 134.238 9.5257Z" fill="white"/>
<path d="M190.317 17.6893C190.675 17.5997 190.998 17.4653 191.267 17.2682C190.953 17.4115 190.639 17.546 190.317 17.6893Z" fill="white"/>
<path d="M3.77215 20.0461C0.492362 20.0461 -0.125958 18.1195 0.0174202 15.924H2.66993C2.66993 17.1337 2.72369 18.1553 4.18436 18.1553C5.08048 18.1553 5.51958 17.5728 5.51958 16.7126C5.51062 14.4275 0.178721 14.293 0.178721 10.5114C0.178721 8.53102 1.12861 6.94489 4.36359 6.94489C6.9444 6.94489 8.22585 8.10088 8.05559 10.7534H5.47477C5.47477 9.8035 5.31347 8.8357 4.24709 8.8357C3.38682 8.8357 2.87603 9.31064 2.87603 10.1888C2.87603 12.5994 8.21689 12.3843 8.21689 16.372C8.21689 19.6518 5.80634 20.0461 3.79007 20.0461H3.77215Z" fill="white"/>
<path d="M11.667 19.84L12.3838 17.0262H16.0042L16.7031 19.84H19.499L16.0579 7.15996H12.5631L9.05029 19.84H11.667ZM15.4396 15.0816H12.9126L14.1223 9.60636H14.1582L15.4396 15.0816Z" fill="white"/>
<path d="M20.6011 19.84V7.15996H24.8666L26.856 15.7806H26.8918L28.9977 7.15996H33.1288V19.84H30.539V10.0544H30.5032L28.0657 19.84H25.5387L23.2177 10.0544H23.1819V19.84H20.6011Z" fill="white"/>
<path d="M38.6398 20.0461C35.36 20.0461 34.7417 18.1105 34.8851 15.915H37.5376C37.5376 17.1248 37.5914 18.1463 39.052 18.1463C39.9482 18.1463 40.3873 17.5639 40.3873 16.7036C40.3873 14.4185 35.0464 14.2751 35.0464 10.5025C35.0464 8.52206 35.9963 6.93593 39.2223 6.93593C41.8031 6.93593 43.0846 8.09192 42.9143 10.7444H40.3335C40.3335 9.79454 40.1722 8.82674 39.1058 8.82674C38.2455 8.82674 37.7347 9.30168 37.7347 10.1799C37.7347 12.5904 43.0756 12.3754 43.0756 16.3631C43.0756 19.6429 40.6651 20.0372 38.6488 20.0372L38.6398 20.0461Z" fill="white"/>
<path d="M53.4439 7.15996V16.157C53.4439 18.0567 52.3685 20.0551 49.1425 20.0551C46.2301 20.0551 44.8232 18.5406 44.8232 16.157V7.15996H47.4757V15.9777C47.4757 17.537 48.1478 18.1553 49.1067 18.1553C50.2627 18.1553 50.7914 17.3847 50.7914 15.9777V7.15996H53.4439Z" fill="white"/>
<path d="M55.5317 19.84V7.15996H59.1162L62.4946 15.9419H62.5214V7.15996H65.0037V19.84H61.5088L58.0498 10.5652H58.014V19.84H55.5317Z" fill="white"/>
<path d="M72.9432 11.0581C72.9611 9.88415 72.764 8.84466 71.366 8.84466C69.7172 8.84466 69.7172 11.076 69.7172 13.5313C69.7172 17.5011 70.1025 18.2001 71.6169 18.2001C72.056 18.2001 72.531 18.0926 72.9342 17.9582V15.1444H71.4915V13.1908H75.5867V19.616C74.8698 19.7594 73.0597 20.0372 72.0023 20.0372C67.5396 20.0372 67.0288 18.1912 67.0288 13.379C67.0288 10.1799 67.1901 6.93593 71.5273 6.93593C74.1261 6.93593 75.7391 8.3966 75.5867 11.0491H72.9521L72.9432 11.0581Z" fill="white"/>
<path d="M85.0409 20.0461C81.7522 20.0461 81.1428 18.1105 81.2773 15.915H83.9298C83.9298 17.1248 83.9835 18.1463 85.4442 18.1463C86.3403 18.1463 86.7794 17.5639 86.7794 16.7036C86.7794 14.4185 81.4386 14.2751 81.4386 10.5025C81.4386 8.52206 82.3884 6.93593 85.6145 6.93593C88.1953 6.93593 89.4767 8.09192 89.3065 10.7444H86.7256C86.7256 9.79454 86.5643 8.82674 85.498 8.82674C84.6377 8.82674 84.1269 9.30168 84.1269 10.1799C84.1269 12.5904 89.4678 12.3754 89.4678 16.3631C89.4678 19.6429 87.0662 20.0372 85.0409 20.0372V20.0461Z" fill="white"/>
<path d="M91.3229 19.84H95.6422C100.177 19.84 99.8719 15.3773 99.8719 13.4328C99.8719 9.4809 99.2177 7.15996 95.7408 7.15996H91.314V19.84H91.3229ZM93.9754 9.10453H95.3465C97.1925 9.10453 97.1925 11.1566 97.1925 13.4955C97.1925 16.6767 96.8789 17.8865 95.2569 17.8865H93.9754V9.10453Z" fill="white"/>
<path d="M104.568 7.15996H101.915V19.84H104.568V7.15996Z" fill="white"/>
</svg>
