<svg width="160" height="28" viewBox="0 0 160 28" fill="none" xmlns="http://www.w3.org/2000/svg">
<g clip-path="url(#clip0_390_1900)">
<path d="M142.483 16.259C142.455 15.9723 142.455 15.8521 142.455 15.6856V12.0324C142.455 11.8752 142.474 11.607 142.492 11.459C142.687 9.8405 144 9.31333 145.544 9.31333C147.089 9.31333 148.43 9.83125 148.587 11.459C148.615 11.7365 148.606 12.0324 148.606 12.0324V12.3191H146.414V11.8289C146.414 11.8289 146.414 11.6255 146.386 11.496C146.349 11.3018 146.183 10.8671 145.517 10.8671C144.851 10.8671 144.703 11.2833 144.657 11.496C144.629 11.607 144.62 11.7642 144.62 11.9029V15.8706C144.62 15.9815 144.62 16.1018 144.647 16.2035C144.684 16.4347 144.906 16.8324 145.535 16.8324C146.164 16.8324 146.386 16.4347 146.423 16.2035C146.442 16.1018 146.442 15.9815 146.442 15.8706V14.6128H145.554V13.3457H148.634V15.6763C148.634 15.8428 148.633 15.9538 148.606 16.2497C148.541 16.9804 148.199 17.4891 147.718 17.8313C155.801 14.1873 160.573 10.118 159.972 6.63125C158.835 0.0740259 139.135 -1.9699 115.977 2.06247C105.859 3.82894 96.7491 6.45553 89.8034 9.40582C90.1826 9.31333 90.5896 9.26709 91.0335 9.26709C92.2636 9.26709 93.956 9.56304 93.956 11.4497V12.0602H91.7919V11.5237C91.7919 11.0521 91.4959 10.7376 90.9873 10.7376C90.4416 10.7376 90.2566 11.0428 90.1919 11.3203C90.1734 11.422 90.1641 11.607 90.2011 11.7827C90.4508 12.8 93.7433 13.3457 94.104 15.1584C94.141 15.3434 94.215 15.8336 94.104 16.5827C93.9006 18.0255 92.6058 18.5619 91.0335 18.5619C89.4613 18.5619 87.8797 17.9792 87.8797 16.0463V15.3711H90.2104V16.2128C90.2104 16.6844 90.5433 16.9989 91.089 16.9989C91.6624 16.9989 91.8659 16.7029 91.9399 16.4162C91.9769 16.2497 92.0046 15.9815 91.9214 15.7688C91.4774 14.6497 88.3884 14.1318 88.0092 12.3561C87.9167 11.9214 87.926 11.57 87.9907 11.1815C88.0925 10.5619 88.3977 10.1272 88.8324 9.822C80.4624 13.5214 75.4959 17.6648 76.1156 21.2255C77.2624 27.7827 96.9526 29.8266 120.111 25.7943C130.451 23.9908 139.727 21.281 146.738 18.2474C146.368 18.3399 145.97 18.3862 145.563 18.3862C144.018 18.3862 142.65 17.822 142.511 16.2405L142.483 16.259ZM100.301 18.2382L99.1445 10.3584H99.0982L97.9052 18.2382H95.5653L97.1745 9.55379H101.04L102.64 18.2382H100.31H100.301ZM111.852 18.2382L111.797 10.4324H111.75L110.298 18.2382H108.097L106.645 10.4324H106.599L106.543 18.2382H104.37L104.564 9.55379H108.106L109.179 16.1943H109.225L110.298 9.55379H113.84L114.025 18.2382H111.852ZM122.303 16.5642C122.099 17.9977 120.814 18.5249 119.269 18.5249C117.725 18.5249 116.143 17.9422 116.143 16.0278V15.3619H118.446V16.1943C118.446 16.6567 118.779 16.9711 119.316 16.9711C119.889 16.9711 120.083 16.6844 120.157 16.3977C120.194 16.2313 120.222 15.9723 120.139 15.7596C119.695 14.6497 116.643 14.1411 116.273 12.3839C116.18 11.9492 116.19 11.607 116.254 11.2278C116.476 9.822 117.734 9.32258 119.26 9.32258C120.481 9.32258 122.155 9.61854 122.155 11.4867V12.0879H120.009V11.5607C120.009 11.0891 119.713 10.7839 119.214 10.7839C118.677 10.7839 118.492 11.0798 118.428 11.3573C118.409 11.4497 118.391 11.6347 118.428 11.8104C118.668 12.8185 121.933 13.3549 122.294 15.1584C122.331 15.3434 122.405 15.8243 122.294 16.5642H122.303ZM130.469 15.7781C130.469 15.9353 130.46 16.2682 130.451 16.3515C130.294 17.97 129.017 18.4971 127.417 18.4971C125.817 18.4971 124.541 17.97 124.384 16.3515C124.384 16.2682 124.356 15.9445 124.365 15.7781V9.55379H126.557V15.9815C126.557 16.0925 126.557 16.222 126.576 16.3145C126.622 16.5272 126.807 16.9434 127.408 16.9434C128.009 16.9434 128.203 16.5272 128.24 16.3145C128.259 16.222 128.268 16.0925 128.259 15.9815V9.55379H130.46V15.7781H130.469ZM140.19 18.1457H137.101L134.955 11.0983H134.909L135.029 18.1457H132.892V9.55379H136.12L138.118 16.37H138.164L138.044 9.55379H140.19V18.1457Z" fill="white"/>
<path d="M88.8138 9.84047C89.1375 9.70174 89.452 9.55377 89.7849 9.41504C89.415 9.50752 89.0913 9.64625 88.8138 9.84047Z" fill="white"/>
<path d="M146.719 18.266C147.089 18.1735 147.422 18.0348 147.699 17.8313C147.376 17.9793 147.043 18.118 146.719 18.266Z" fill="white"/>
<path d="M45.7896 20.7352H47.8798C50.9503 20.7352 52.0879 19.5607 52.0879 15.4728V11.9121C52.0879 8.35141 51.0058 7.03812 48.7029 7.03812H45.7988V20.7445L45.7896 20.7352ZM43.5884 5.08667H48.9156C51.126 5.08667 52.7075 5.89129 53.5769 7.76875C54.2705 9.25777 54.3445 12.763 54.3445 13.3271C54.3445 17.082 54.0116 19.2555 53.2902 20.4208C52.3561 21.9283 50.5988 22.6867 47.5653 22.6867H43.5884V5.08667Z" fill="white"/>
<path d="M33.6555 17.5354V18.0441C33.6555 20.4394 35.1445 21.1886 36.5595 21.1886C38.3075 21.1886 39.6578 20.4394 39.6578 18.34C39.6578 14.4464 31.8705 14.8811 31.8705 9.60014C31.8705 6.49262 34.0532 4.82788 36.9665 4.82788C40.1295 4.82788 41.9052 6.39089 41.7665 9.97008H39.4543C39.4728 8.04638 38.8809 6.77933 36.7907 6.77933C35.4682 6.77933 34.1272 7.45447 34.1272 9.35967C34.1272 13.2256 41.9052 12.6707 41.9052 18.2475C41.9052 21.947 39.3896 23.14 36.5318 23.14C31.4081 23.1863 31.4081 19.2186 31.4543 17.5446H33.6462L33.6555 17.5354Z" fill="white"/>
<path d="M11.4497 4.72607V14.1688H13.7711V10.3769H15.741V8.45324H13.7711V4.72607H11.4497Z" fill="white"/>
<path d="M11.5421 20.7816V16.8325H5.09591V20.7816H11.5421ZM2.87625 22.6683V14.9458H13.7711V22.6683H2.867" fill="white"/>
<path d="M29.4751 4.72607V14.1688H27.2V10.3769H24.2404V8.45324H27.163V4.72607H29.4751Z" fill="white"/>
<path d="M27.5237 18.784C27.5237 17.4337 25.8404 16.3424 23.7688 16.3424C21.6971 16.3424 20.0139 17.4429 20.0139 18.784C20.0139 20.125 21.6971 21.2256 23.7688 21.2256C25.8404 21.2256 27.5237 20.1343 27.5237 18.784ZM23.7688 23.1493C20.4208 23.1493 17.7202 21.1979 17.7202 18.784C17.7202 16.3701 20.4208 14.4094 23.7688 14.4094C27.1167 14.4094 29.8081 16.3701 29.8081 18.784C29.8081 21.1979 27.1075 23.1493 23.7688 23.1493Z" fill="white"/>
<path d="M5.98379 5.06836C5.98379 5.06836 5.67858 10.1736 9.81269 12.2915L8.61962 13.9377C8.61962 13.9377 5.59535 11.94 4.90171 9.74813C4.21731 11.94 1.18379 13.9377 1.18379 13.9377L-0.00927734 12.2915C4.13408 10.1828 3.82887 5.06836 3.82887 5.06836H5.97454H5.98379Z" fill="white"/>
<path d="M20.3283 9.74813C19.6439 11.94 16.8693 13.762 16.8693 13.762L15.6763 12.1158C19.5607 10.1736 19.2555 5.06836 19.2555 5.06836H21.4011C21.4011 5.06836 21.0959 10.1736 24.9803 12.1158L23.7873 13.762C23.7873 13.762 21.0127 11.9308 20.3283 9.74813Z" fill="white"/>
<path d="M58.5896 5.08667H56.3052V22.6219H58.5896V5.08667Z" fill="white"/>
</g>
<defs>
<clipPath id="clip0_390_1900">
<rect width="160" height="27.8751" fill="white"/>
</clipPath>
</defs>
</svg>
