<svg width="204" height="27" viewBox="0 0 204 27" fill="none" xmlns="http://www.w3.org/2000/svg">
<path d="M186.213 15.7448C186.186 15.467 186.186 15.3505 186.186 15.1892V11.6495C186.186 11.4972 186.204 11.2373 186.222 11.0939C186.41 9.52572 187.683 9.01494 189.179 9.01494C190.676 9.01494 191.975 9.51676 192.128 11.0939C192.155 11.3628 192.146 11.6495 192.146 11.6495V11.9273H190.022V11.4524C190.022 11.4524 190.022 11.2552 189.995 11.1298C189.959 10.9416 189.798 10.5204 189.153 10.5204C188.507 10.5204 188.364 10.9237 188.319 11.1298C188.292 11.2373 188.283 11.3896 188.283 11.5241V15.3684C188.283 15.4759 188.283 15.5924 188.301 15.691C188.337 15.915 188.552 16.3004 189.161 16.3004C189.771 16.3004 189.986 15.915 190.022 15.691C190.04 15.5924 190.04 15.4759 190.04 15.3684V14.1497H189.179V12.922H192.163V15.1802C192.163 15.3326 192.163 15.4491 192.137 15.7358C192.074 16.4437 191.742 16.9366 191.267 17.2682C199.099 13.7375 203.723 9.80352 203.132 6.42516C202.03 0.0806515 182.951 -1.90873 160.531 1.99834C150.727 3.70096 141.909 6.2549 135.179 9.11351C135.547 9.0239 135.941 8.97909 136.362 8.97909C137.554 8.97909 139.194 9.26585 139.194 11.0939V11.6854H137.097V11.1656C137.097 10.7086 136.81 10.4039 136.317 10.4039C135.789 10.4039 135.61 10.6996 135.547 10.9685C135.529 11.067 135.52 11.2463 135.547 11.4165C135.789 12.4023 138.979 12.922 139.328 14.6874C139.364 14.8666 139.436 15.3415 139.328 16.0674C139.131 17.4653 137.877 17.9851 136.353 17.9851C134.83 17.9851 133.298 17.4205 133.298 15.5476V14.8935H135.556V15.7089C135.556 16.166 135.878 16.4706 136.407 16.4706C136.963 16.4706 137.16 16.1839 137.223 15.9061C137.258 15.7448 137.285 15.4849 137.205 15.2788C136.774 14.1945 133.781 13.6927 133.414 11.9721C133.324 11.5509 133.333 11.2104 133.396 10.8341C133.495 10.2337 133.79 9.81248 134.212 9.51676C126.111 13.1012 121.299 17.1158 121.899 20.5569C123.001 26.9104 142.08 28.8908 164.509 24.9837C174.528 23.2363 183.507 20.6107 190.3 17.6804C189.941 17.77 189.556 17.8148 189.161 17.8148C187.674 17.8148 186.348 17.2682 186.204 15.7358L186.213 15.7448ZM145.359 17.6535L144.239 10.0275H144.194L143.038 17.6535H140.771L142.33 9.24793H146.067L147.618 17.6535H145.359ZM156.543 17.6535L156.489 10.0903H156.444L155.037 17.6535H152.905L151.498 10.0903H151.453L151.399 17.6535H149.293L149.481 9.24793H152.914L153.953 15.6731H153.998L155.037 9.24793H158.469L158.649 17.6535H156.552H156.543ZM166.669 16.0405C166.472 17.4295 165.226 17.9403 163.73 17.9403C162.233 17.9403 160.701 17.3757 160.701 15.5207V14.8755H162.932V15.682C162.932 16.1301 163.255 16.4348 163.774 16.4348C164.33 16.4348 164.518 16.157 164.59 15.8792C164.626 15.7179 164.653 15.467 164.572 15.2609C164.142 14.1855 161.185 13.6927 160.826 11.99C160.737 11.5689 160.746 11.2373 160.808 10.8699C161.023 9.5078 162.242 9.0239 163.721 9.0239C164.904 9.0239 166.535 9.31066 166.535 11.1208V11.7033H164.456V11.1925C164.456 10.7355 164.169 10.4398 163.685 10.4398C163.165 10.4398 162.986 10.7265 162.923 10.9954C162.905 11.085 162.887 11.2642 162.923 11.4345C163.156 12.4112 166.319 12.931 166.669 14.6694C166.705 14.8487 166.776 15.3146 166.669 16.0315V16.0405ZM174.582 15.2788C174.582 15.4311 174.573 15.7537 174.564 15.8344C174.411 17.4026 173.175 17.9134 171.624 17.9134C170.074 17.9134 168.838 17.4026 168.685 15.8344C168.685 15.7537 168.658 15.4401 168.667 15.2788V9.24793H170.791V15.467C170.791 15.5745 170.791 15.7 170.809 15.7896C170.854 15.9957 171.033 16.3989 171.616 16.3989C172.198 16.3989 172.386 15.9957 172.422 15.7896C172.44 15.7 172.44 15.5745 172.44 15.467V9.24793H174.564V15.2788H174.582ZM183.991 17.5729H180.998L178.919 10.7444H178.874L178.991 17.5729H176.921V9.24793H180.048L181.975 15.8433H182.019L181.903 9.24793H183.982V17.5639L183.991 17.5729Z" fill="#283895"/>
<path d="M134.238 9.52572C134.552 9.39131 134.857 9.24793 135.179 9.11351C134.821 9.20312 134.507 9.33754 134.238 9.52572Z" fill="#283895"/>
<path d="M190.317 17.6893C190.676 17.5997 190.998 17.4653 191.267 17.2682C190.954 17.4116 190.64 17.546 190.317 17.6893Z" fill="#283895"/>
<path d="M3.77264 20.0461C0.49285 20.0461 -0.12547 18.1195 0.0179085 15.924H2.67041C2.67041 17.1338 2.72418 18.1553 4.18485 18.1553C5.08097 18.1553 5.52007 17.5729 5.52007 16.7126C5.51111 14.4275 0.17921 14.2931 0.17921 10.5114C0.17921 8.53103 1.12909 6.9449 4.36408 6.9449C6.94489 6.9449 8.22634 8.1009 8.05608 10.7534H5.47526C5.47526 9.80352 5.31396 8.83571 4.24758 8.83571C3.38731 8.83571 2.87652 9.31065 2.87652 10.1888C2.87652 12.5994 8.21738 12.3843 8.21738 16.3721C8.21738 19.6518 5.80682 20.0461 3.79056 20.0461H3.77264Z" fill="#283895"/>
<path d="M11.6674 19.84L12.3843 17.0262H16.0046L16.7036 19.84H19.4995L16.0584 7.15997H12.5636L9.05078 19.84H11.6674ZM15.4401 15.0816H12.913L14.1228 9.60637H14.1586L15.4401 15.0816Z" fill="#283895"/>
<path d="M20.6016 19.84V7.15997H24.8671L26.8565 15.7806H26.8923L28.9982 7.15997H33.1293V19.84H30.5395V10.0544H30.5037L28.0662 19.84H25.5392L23.2182 10.0544H23.1824V19.84H20.6016Z" fill="#283895"/>
<path d="M38.6408 20.0461C35.361 20.0461 34.7427 18.1105 34.8861 15.915H37.5386C37.5386 17.1248 37.5923 18.1464 39.053 18.1464C39.9491 18.1464 40.3882 17.5639 40.3882 16.7036C40.3882 14.4185 35.0474 14.2751 35.0474 10.5025C35.0474 8.52207 35.9973 6.93594 39.2233 6.93594C41.8041 6.93594 43.0855 8.09193 42.9153 10.7444H40.3345C40.3345 9.79456 40.1732 8.82675 39.1068 8.82675C38.2465 8.82675 37.7357 9.30169 37.7357 10.1799C37.7357 12.5904 43.0766 12.3754 43.0766 16.3631C43.0766 19.6429 40.666 20.0372 38.6498 20.0372L38.6408 20.0461Z" fill="#283895"/>
<path d="M53.4449 7.15997V16.157C53.4449 18.0568 52.3695 20.0551 49.1435 20.0551C46.2311 20.0551 44.8242 18.5407 44.8242 16.157V7.15997H47.4767V15.9778C47.4767 17.537 48.1488 18.1553 49.1077 18.1553C50.2636 18.1553 50.7924 17.3847 50.7924 15.9778V7.15997H53.4449Z" fill="#283895"/>
<path d="M55.5322 19.84V7.15997H59.1167L62.4951 15.9419H62.5219V7.15997H65.0042V19.84H61.5093L58.0503 10.5652H58.0145V19.84H55.5322Z" fill="#283895"/>
<path d="M72.9437 11.0581C72.9616 9.88417 72.7644 8.84467 71.3665 8.84467C69.7176 8.84467 69.7176 11.076 69.7176 13.5314C69.7176 17.5012 70.103 18.2001 71.6174 18.2001C72.0565 18.2001 72.5315 18.0926 72.9347 17.9582V15.1444H71.492V13.1908H75.5872V19.616C74.8703 19.7594 73.0602 20.0372 72.0027 20.0372C67.5401 20.0372 67.0293 18.1912 67.0293 13.379C67.0293 10.1799 67.1906 6.93594 71.5278 6.93594C74.1265 6.93594 75.7395 8.39661 75.5872 11.0491H72.9526L72.9437 11.0581Z" fill="#283895"/>
<path d="M85.0414 20.0461C81.7527 20.0461 81.1433 18.1105 81.2777 15.915H83.9303C83.9303 17.1248 83.984 18.1464 85.4447 18.1464C86.3408 18.1464 86.7799 17.5639 86.7799 16.7036C86.7799 14.4185 81.439 14.2751 81.439 10.5025C81.439 8.52207 82.3889 6.93594 85.6149 6.93594C88.1958 6.93594 89.4772 8.09193 89.307 10.7444H86.7261C86.7261 9.79456 86.5648 8.82675 85.4985 8.82675C84.6382 8.82675 84.1274 9.30169 84.1274 10.1799C84.1274 12.5904 89.4682 12.3754 89.4682 16.3631C89.4682 19.6429 87.0667 20.0372 85.0414 20.0372V20.0461Z" fill="#283895"/>
<path d="M91.3234 19.84H95.6427C100.177 19.84 99.8724 15.3774 99.8724 13.4328C99.8724 9.48092 99.2182 7.15997 95.7413 7.15997H91.3145V19.84H91.3234ZM93.9759 9.10455H95.347C97.193 9.10455 97.193 11.1567 97.193 13.4955C97.193 16.6767 96.8793 17.8865 95.2574 17.8865H93.9759V9.10455Z" fill="#283895"/>
<path d="M104.568 7.15997H101.915V19.84H104.568V7.15997Z" fill="#283895"/>
</svg>
