<svg width="24" height="24" viewBox="0 0 24 24" fill="none" xmlns="http://www.w3.org/2000/svg">
<circle cx="12" cy="12" r="9.8" stroke="white" stroke-width="2"/>
<mask id="path-2-inside-1_390_1962" fill="white">
<path d="M16.8 12C16.8 17.9646 13.2 22.8 12 22.8C10.8 22.8 7.20001 18 7.20001 12C7.20001 5.99995 10.8 1.19995 12 1.19995C13.2 1.19995 16.8 6.03528 16.8 12Z"/>
</mask>
<path d="M14.8 12C14.8 14.5928 14.0125 16.9697 13.0882 18.6902C12.6259 19.5506 12.1572 20.1947 11.789 20.5921C11.6023 20.7937 11.479 20.891 11.4324 20.9225C11.3307 20.9911 11.5509 20.8 12 20.8V24.8C12.7491 24.8 13.3444 24.4577 13.6692 24.2386C14.0491 23.9823 14.404 23.6553 14.7235 23.3104C15.3678 22.6148 16.0241 21.6772 16.6118 20.5832C17.7876 18.3948 18.8 15.3718 18.8 12H14.8ZM12 20.8C12.4451 20.8 12.6634 20.9881 12.5628 20.9207C12.5165 20.8896 12.3937 20.7933 12.2076 20.5934C11.8405 20.1991 11.3726 19.5591 10.911 18.7018C9.98832 16.9883 9.20001 14.6118 9.20001 12H5.20001C5.20001 15.3881 6.21171 18.4116 7.38907 20.5982C7.97743 21.6908 8.63455 22.6258 9.27997 23.319C9.60007 23.6628 9.95539 23.9884 10.3356 24.2433C10.6616 24.4618 11.2549 24.8 12 24.8V20.8ZM9.20001 12C9.20001 9.38812 9.98832 7.01162 10.911 5.29815C11.3726 4.44081 11.8405 3.80081 12.2076 3.40654C12.3937 3.2066 12.5165 3.11026 12.5628 3.07921C12.6634 3.01181 12.4451 3.19995 12 3.19995V-0.800049C11.2549 -0.800049 10.6616 -0.461904 10.3356 -0.243367C9.95539 0.0115131 9.60007 0.337054 9.27997 0.680864C8.63455 1.37409 7.97743 2.30909 7.38907 3.40175C6.21171 5.58828 5.20001 8.61179 5.20001 12H9.20001ZM12 3.19995C11.5509 3.19995 11.3307 3.00882 11.4324 3.07742C11.479 3.1089 11.6023 3.20622 11.789 3.40781C12.1572 3.80524 12.6259 4.44926 13.0882 5.30974C14.0125 7.03017 14.8 9.40713 14.8 12H18.8C18.8 8.6281 17.7876 5.60506 16.6118 3.41666C16.0241 2.32272 15.3678 1.38512 14.7235 0.689531C14.404 0.344604 14.0491 0.0175641 13.6692 -0.238686C13.3444 -0.457814 12.7491 -0.800049 12 -0.800049V3.19995Z" fill="white" mask="url(#path-2-inside-1_390_1962)"/>
<path d="M1.79999 12H22.2" stroke="white" stroke-width="2"/>
</svg>
