<svg width="42" height="42" viewBox="0 0 42 42" fill="none" xmlns="http://www.w3.org/2000/svg">
<circle cx="21" cy="21" r="21" fill="#222222"/>
<path d="M11.5498 27.2701C13.268 28.3707 15.3019 29.0115 17.4938 29.0115C24.6916 29.0115 28.7595 22.9328 28.5134 17.4765C29.2703 16.9285 29.9297 16.2459 30.4498 15.4704C29.7532 15.7769 29.0056 15.9858 28.2255 16.0787C29.0242 15.6004 29.6418 14.8388 29.9297 13.9333C29.1821 14.3791 28.3508 14.6995 27.4685 14.876C26.7627 14.1237 25.755 13.65 24.6358 13.65C22.1329 13.65 20.294 15.9858 20.8605 18.4099C17.6331 18.252 14.7772 16.7102 12.864 14.3652C11.8516 16.1066 12.3392 18.3866 14.0667 19.5429C13.4305 19.5243 12.8315 19.3479 12.3114 19.06C12.2696 20.8571 13.5559 22.5381 15.4227 22.9096C14.8747 23.0582 14.2803 23.0907 13.672 22.9746C14.1642 24.5164 15.5945 25.6355 17.2941 25.668C15.6642 26.945 13.6116 27.5162 11.5544 27.2747L11.5498 27.2701Z" fill="#888888"/>
</svg>
