<svg width="160" height="28" viewBox="0 0 160 28" fill="none" xmlns="http://www.w3.org/2000/svg">
<g clip-path="url(#clip0_406_1377)">
<path d="M159.954 6.64041C161.101 13.1976 143.251 21.7803 120.093 25.8127C96.9344 29.845 77.235 27.8011 76.0974 21.2439C74.9598 14.6867 92.8003 6.10399 115.959 2.07162C139.117 -1.96075 158.807 0.0831812 159.954 6.64041Z" fill="#283895"/>
<path d="M138.155 16.3699L138.035 9.55371H140.19V18.1456H137.101L134.955 11.089H134.909L135.029 18.1456H132.893V9.55371H136.111L138.109 16.3699H138.155Z" fill="white"/>
<path d="M99.0886 10.3583L97.9048 18.2289H95.5557L97.1649 9.55371H101.031L102.631 18.2289H100.3L99.1441 10.3583H99.0886Z" fill="white"/>
<path d="M109.216 16.1849L110.289 9.55371H113.831L114.016 18.2289H111.842L111.787 10.4323H111.741L110.298 18.2289H108.088L106.636 10.4323H106.589L106.534 18.2289H104.36L104.555 9.55371H108.097L109.17 16.1849H109.216Z" fill="white"/>
<path d="M91.9029 15.7873C91.9862 16 91.9584 16.2682 91.9214 16.4347C91.8475 16.7214 91.6532 17.0173 91.0706 17.0173C90.5249 17.0173 90.192 16.7029 90.192 16.2312V15.3896H87.8613V16.0647C87.8613 17.9977 89.3873 18.5803 91.0151 18.5803C92.6428 18.5803 93.8729 18.0439 94.0856 16.6011C94.1873 15.852 94.1134 15.3618 94.0856 15.1769C93.7249 13.3641 90.4232 12.8185 90.1827 11.8011C90.1365 11.6254 90.155 11.4404 90.1735 11.3387C90.2382 11.0612 90.4232 10.756 90.9688 10.756C91.4775 10.756 91.7735 11.0705 91.7735 11.5422V12.0786H93.9376V11.4682C93.9376 9.58148 92.2359 9.28552 91.0151 9.28552C89.4706 9.28552 88.2128 9.79419 87.9816 11.2092C87.9168 11.5977 87.9076 11.9491 88.0001 12.3838C88.3792 14.1595 91.4683 14.6682 91.9122 15.7965L91.9029 15.7873Z" fill="white"/>
<path d="M120.129 15.7688C120.212 15.9722 120.185 16.2405 120.148 16.4069C120.074 16.6936 119.879 16.9803 119.306 16.9803C118.77 16.9803 118.437 16.6659 118.437 16.2035V15.3711H116.134V16.037C116.134 17.9514 117.641 18.5341 119.26 18.5341C120.878 18.5341 122.09 18.0069 122.293 16.5734C122.395 15.8335 122.321 15.3433 122.293 15.1676C121.933 13.3642 118.668 12.8277 118.427 11.8196C118.39 11.6439 118.4 11.459 118.427 11.3665C118.492 11.089 118.677 10.7931 119.214 10.7931C119.713 10.7931 120.009 11.0983 120.009 11.5699V12.0971H122.155V11.4959C122.155 9.62774 120.471 9.33179 119.26 9.33179C117.734 9.33179 116.485 9.83121 116.254 11.237C116.189 11.6254 116.18 11.9676 116.273 12.3931C116.642 14.1503 119.694 14.659 120.138 15.7688H120.129Z" fill="white"/>
<path d="M127.418 16.934C128.019 16.934 128.213 16.5178 128.25 16.3051C128.269 16.2126 128.278 16.0832 128.269 15.9722V9.54443H130.46V15.7687C130.46 15.9259 130.451 16.2589 130.442 16.3421C130.285 17.9606 129.008 18.4878 127.408 18.4878C125.808 18.4878 124.532 17.9606 124.375 16.3421C124.375 16.2589 124.347 15.9352 124.356 15.7687V9.54443H126.548V15.9722C126.548 16.0832 126.548 16.2126 126.567 16.3051C126.613 16.5178 126.798 16.934 127.399 16.934H127.418Z" fill="white"/>
<path d="M145.526 16.8416C146.155 16.8416 146.377 16.4439 146.414 16.2127C146.432 16.1109 146.432 15.9907 146.432 15.8797V14.6219H145.545V13.3549H148.624V15.6855C148.624 15.852 148.624 15.9629 148.597 16.2589C148.449 17.8404 147.08 18.4046 145.545 18.4046C144.009 18.4046 142.631 17.8404 142.493 16.2589C142.465 15.9722 142.465 15.852 142.465 15.6855V12.0323C142.465 11.8751 142.483 11.6069 142.502 11.4589C142.696 9.8404 144.009 9.31323 145.554 9.31323C147.098 9.31323 148.439 9.83115 148.597 11.4589C148.624 11.7364 148.615 12.0323 148.615 12.0323V12.319H146.423V11.8288C146.423 11.8288 146.423 11.6254 146.395 11.4959C146.358 11.3017 146.192 10.867 145.526 10.867C144.86 10.867 144.712 11.2832 144.666 11.4959C144.638 11.6069 144.629 11.7641 144.629 11.9028V15.8705C144.629 15.9814 144.629 16.1017 144.657 16.2034C144.694 16.4346 144.916 16.8323 145.545 16.8323L145.526 16.8416Z" fill="white"/>
<path d="M45.79 20.7352H47.8802C50.9507 20.7352 52.0883 19.5607 52.0883 15.4728V11.9121C52.0883 8.35141 51.0062 7.03812 48.7033 7.03812H45.7993V20.7445L45.79 20.7352ZM43.5889 5.08667H48.916C51.1264 5.08667 52.7079 5.89129 53.5773 7.76875C54.2709 9.25777 54.3449 12.763 54.3449 13.3271C54.3449 17.082 54.012 19.2555 53.2906 20.4208C52.3565 21.9283 50.5993 22.6867 47.5657 22.6867H43.5889V5.08667Z" fill="#283895"/>
<path d="M33.6561 17.5352V18.0438C33.6561 20.4392 35.1451 21.1883 36.5601 21.1883C38.3081 21.1883 39.6584 20.4392 39.6584 18.3398C39.6584 14.4461 31.8711 14.8808 31.8711 9.59989C31.8711 6.49238 34.0538 4.82764 36.9671 4.82764C40.1301 4.82764 41.9058 6.39064 41.7671 9.96983H39.4549C39.4734 8.04613 38.8815 6.77908 36.7914 6.77908C35.4688 6.77908 34.1278 7.45423 34.1278 9.35943C34.1278 13.2253 41.9058 12.6704 41.9058 18.2473C41.9058 21.9467 39.3902 23.1398 36.5324 23.1398C31.4087 23.186 31.4087 19.2184 31.4549 17.5444H33.6469L33.6561 17.5352Z" fill="#283895"/>
<path d="M11.4502 4.72595V14.1687H13.7716V10.3768H15.7415V8.45312H13.7716V4.72595H11.4502Z" fill="#283895"/>
<path d="M11.5423 20.7814V16.8323H5.09609V20.7814H11.5423ZM2.87644 22.6681V14.9456H13.7712V22.6681H2.86719" fill="#283895"/>
<path d="M29.4759 4.72595V14.1687H27.2007V10.3768H24.2412V8.45312H27.1638V4.72595H29.4759Z" fill="#283895"/>
<path d="M27.5242 18.7837C27.5242 17.4335 25.8409 16.3421 23.7693 16.3421C21.6976 16.3421 20.0143 17.4427 20.0143 18.7837C20.0143 20.1248 21.6976 21.2254 23.7693 21.2254C25.8409 21.2254 27.5242 20.134 27.5242 18.7837ZM23.7693 23.1491C20.4213 23.1491 17.7207 21.1976 17.7207 18.7837C17.7207 16.3699 20.4213 14.4092 23.7693 14.4092C27.1172 14.4092 29.8086 16.3699 29.8086 18.7837C29.8086 21.1976 27.108 23.1491 23.7693 23.1491Z" fill="#283895"/>
<path d="M5.98427 5.06812C5.98427 5.06812 5.67907 10.1733 9.81318 12.2912L8.62011 13.9375C8.62011 13.9375 5.59584 11.9398 4.90219 9.74788C4.2178 11.9398 1.18427 13.9375 1.18427 13.9375L-0.00878906 12.2912C4.13456 10.1826 3.82936 5.06812 3.82936 5.06812H5.97503H5.98427Z" fill="#283895"/>
<path d="M20.3288 9.74788C19.6444 11.9398 16.8698 13.7618 16.8698 13.7618L15.6768 12.1155C19.5612 10.1733 19.2559 5.06812 19.2559 5.06812H21.4016C21.4016 5.06812 21.0964 10.1733 24.9808 12.1155L23.7877 13.7618C23.7877 13.7618 21.0132 11.9305 20.3288 9.74788Z" fill="#283895"/>
<path d="M58.5901 5.08667H56.3057V22.6219H58.5901V5.08667Z" fill="#283895"/>
</g>
<defs>
<clipPath id="clip0_406_1377">
<rect width="160" height="27.8751" fill="white"/>
</clipPath>
</defs>
</svg>
