<svg width="24" height="24" viewBox="0 0 24 24" fill="none" xmlns="http://www.w3.org/2000/svg">
<path d="M17.7578 1.19995C18.3978 1.19989 19.0276 1.35969 19.5901 1.66485C20.1527 1.97001 20.63 2.41086 20.9789 2.94736C21.3278 3.48386 21.5371 4.09902 21.5879 4.73696C21.6387 5.37491 21.5293 6.01543 21.2697 6.60036C21.01 7.18529 20.6084 7.6961 20.1012 8.0864C19.5941 8.4767 18.9974 8.73412 18.3655 8.83529C17.7336 8.93646 17.0864 8.87816 16.4828 8.66571C15.8791 8.45325 15.3381 8.09336 14.9088 7.61871L9.90852 10.4754C10.1427 11.2228 10.1427 12.024 9.90852 12.7715L14.9077 15.6304C15.5433 14.928 16.416 14.4853 17.3582 14.3871C18.3004 14.289 19.2456 14.5424 20.0123 15.0987C20.779 15.6549 21.3132 16.4749 21.5123 17.401C21.7113 18.3271 21.5612 19.2941 21.0908 20.1163C20.6203 20.9385 19.8627 21.5579 18.9634 21.8555C18.0641 22.1532 17.0866 22.1081 16.2185 21.7289C15.3504 21.3498 14.653 20.6633 14.2602 19.8013C13.8675 18.9393 13.807 17.9626 14.0904 17.0587L9.09123 14.1987C8.57055 14.7745 7.88767 15.179 7.13255 15.3589C6.37744 15.5389 5.58552 15.4859 4.86113 15.2069C4.13673 14.928 3.51384 14.4361 3.07451 13.7961C2.63518 13.1561 2.40002 12.3981 2.40002 11.6218C2.40002 10.8455 2.63518 10.0875 3.07451 9.44751C3.51384 8.80753 4.13673 8.31565 4.86113 8.03666C5.58552 7.75768 6.37744 7.70469 7.13255 7.88466C7.88767 8.06463 8.57055 8.46913 9.09123 9.04486L14.0904 6.18818C13.9106 5.61292 13.8686 5.00342 13.9679 4.40894C14.0672 3.81446 14.3049 3.25168 14.6619 2.76608C15.0189 2.28049 15.4852 1.8857 16.023 1.61364C16.5608 1.34157 17.1551 1.19986 17.7578 1.19995ZM17.7578 16.0099C17.1753 16.0099 16.6167 16.2413 16.2048 16.6532C15.7929 17.0651 15.5616 17.6237 15.5616 18.2062C15.5616 18.7887 15.7929 19.3473 16.2048 19.7592C16.6167 20.1711 17.1753 20.4025 17.7578 20.4025C18.3403 20.4025 18.8989 20.1711 19.3108 19.7592C19.7227 19.3473 19.9541 18.7887 19.9541 18.2062C19.9541 17.6237 19.7227 17.0651 19.3108 16.6532C18.8989 16.2413 18.3403 16.0099 17.7578 16.0099ZM6.24113 9.42773C5.65864 9.42773 5.10001 9.65912 4.68813 10.071C4.27625 10.4829 4.04486 11.0415 4.04486 11.624C4.04486 12.2065 4.27625 12.7651 4.68813 13.177C5.10001 13.5889 5.65864 13.8203 6.24113 13.8203C6.82362 13.8203 7.38225 13.5889 7.79413 13.177C8.20601 12.7651 8.4374 12.2065 8.4374 11.624C8.4374 11.0415 8.20601 10.4829 7.79413 10.071C7.38225 9.65912 6.82362 9.42773 6.24113 9.42773ZM17.7578 2.84551C17.1753 2.84551 16.6167 3.0769 16.2048 3.48878C15.7929 3.90066 15.5616 4.45929 15.5616 5.04177C15.5616 5.62426 15.7929 6.18289 16.2048 6.59477C16.6167 7.00665 17.1753 7.23804 17.7578 7.23804C18.3403 7.23804 18.8989 7.00665 19.3108 6.59477C19.7227 6.18289 19.9541 5.62426 19.9541 5.04177C19.9541 4.45929 19.7227 3.90066 19.3108 3.48878C18.8989 3.0769 18.3403 2.84551 17.7578 2.84551Z" fill="white"/>
</svg>
