<svg width="24" height="24" viewBox="0 0 24 24" fill="none" xmlns="http://www.w3.org/2000/svg">
<path d="M17.7582 1.19995C18.3982 1.19989 19.028 1.35969 19.5905 1.66485C20.153 1.97001 20.6304 2.41086 20.9793 2.94736C21.3282 3.48386 21.5375 4.09902 21.5883 4.73696C21.6391 5.37491 21.5297 6.01543 21.27 6.60036C21.0104 7.18529 20.6088 7.6961 20.1016 8.0864C19.5944 8.4767 18.9978 8.73412 18.3659 8.83529C17.734 8.93646 17.0868 8.87816 16.4831 8.66571C15.8795 8.45325 15.3384 8.09336 14.9092 7.61871L9.90889 10.4754C10.1431 11.2228 10.1431 12.024 9.90889 12.7715L14.9081 15.6304C15.5437 14.928 16.4164 14.4853 17.3586 14.3871C18.3007 14.289 19.246 14.5424 20.0127 15.0987C20.7794 15.6549 21.3136 16.4749 21.5126 17.401C21.7117 18.3271 21.5616 19.2941 21.0911 20.1163C20.6207 20.9385 19.8631 21.5579 18.9638 21.8555C18.0645 22.1532 17.0869 22.1081 16.2189 21.7289C15.3508 21.3498 14.6534 20.6633 14.2606 19.8013C13.8678 18.9393 13.8074 17.9626 14.0908 17.0587L9.0916 14.1987C8.57091 14.7745 7.88803 15.179 7.13292 15.3589C6.37781 15.5389 5.58589 15.4859 4.86149 15.2069C4.1371 14.928 3.5142 14.4361 3.07487 13.7961C2.63554 13.1561 2.40039 12.3981 2.40039 11.6218C2.40039 10.8455 2.63554 10.0875 3.07487 9.44751C3.5142 8.80753 4.1371 8.31565 4.86149 8.03666C5.58589 7.75768 6.37781 7.70469 7.13292 7.88466C7.88803 8.06463 8.57091 8.46913 9.0916 9.04486L14.0908 6.18818C13.9109 5.61292 13.869 5.00342 13.9682 4.40894C14.0675 3.81446 14.3053 3.25168 14.6623 2.76608C15.0193 2.28049 15.4856 1.8857 16.0234 1.61364C16.5612 1.34157 17.1555 1.19986 17.7582 1.19995ZM17.7582 16.0099C17.1757 16.0099 16.6171 16.2413 16.2052 16.6532C15.7933 17.0651 15.5619 17.6237 15.5619 18.2062C15.5619 18.7887 15.7933 19.3473 16.2052 19.7592C16.6171 20.1711 17.1757 20.4025 17.7582 20.4025C18.3407 20.4025 18.8993 20.1711 19.3112 19.7592C19.7231 19.3473 19.9545 18.7887 19.9545 18.2062C19.9545 17.6237 19.7231 17.0651 19.3112 16.6532C18.8993 16.2413 18.3407 16.0099 17.7582 16.0099ZM6.2415 9.42773C5.65901 9.42773 5.10038 9.65912 4.6885 10.071C4.27662 10.4829 4.04523 11.0415 4.04523 11.624C4.04523 12.2065 4.27662 12.7651 4.6885 13.177C5.10038 13.5889 5.65901 13.8203 6.2415 13.8203C6.82398 13.8203 7.38261 13.5889 7.79449 13.177C8.20637 12.7651 8.43776 12.2065 8.43776 11.624C8.43776 11.0415 8.20637 10.4829 7.79449 10.071C7.38261 9.65912 6.82398 9.42773 6.2415 9.42773ZM17.7582 2.84551C17.1757 2.84551 16.6171 3.0769 16.2052 3.48878C15.7933 3.90066 15.5619 4.45929 15.5619 5.04177C15.5619 5.62426 15.7933 6.18289 16.2052 6.59477C16.6171 7.00665 17.1757 7.23804 17.7582 7.23804C18.3407 7.23804 18.8993 7.00665 19.3112 6.59477C19.7231 6.18289 19.9545 5.62426 19.9545 5.04177C19.9545 4.45929 19.7231 3.90066 19.3112 3.48878C18.8993 3.0769 18.3407 2.84551 17.7582 2.84551Z" fill="#222222"/>
</svg>
