<svg width="327" height="314" viewBox="0 0 327 314" fill="none" xmlns="http://www.w3.org/2000/svg">
<rect x="55" width="132" height="48" rx="7" fill="#435CE7"/>
<path d="M97.429 21.452V20.396H93.481C93.325 19.94 93.049 19.328 92.785 18.824L91.681 19.1C91.873 19.496 92.065 19.976 92.221 20.396H87.565V23.624C87.565 25.316 87.481 27.728 86.581 29.408C86.845 29.516 87.349 29.84 87.553 30.044C88.537 28.232 88.693 25.472 88.693 23.624V21.452H97.429ZM93.829 26.216C93.649 25.112 93.205 23.468 92.797 22.172L91.777 22.436C92.161 23.732 92.593 25.424 92.749 26.528L93.829 26.216ZM91.621 26.792C91.357 25.688 90.793 24.044 90.265 22.76L89.293 23.132C89.773 24.428 90.349 26.12 90.577 27.236L91.621 26.792ZM94.465 28.364C95.533 26.564 96.409 24.464 96.973 22.52L95.797 22.112C95.341 24.14 94.453 26.552 93.301 28.364H88.705V29.42H97.573V28.364H94.465ZM102.735 20.408L102.543 20.456H98.751V21.512H102.243C102.075 22.64 101.835 23.684 101.487 24.632C100.887 24.032 100.263 23.444 99.663 22.928L98.895 23.636C99.603 24.26 100.347 25.004 101.031 25.76C100.359 27.212 99.471 28.328 98.403 29.024C98.679 29.228 99.015 29.66 99.195 29.924C100.251 29.144 101.151 28.088 101.847 26.708C102.339 27.332 102.759 27.932 103.035 28.448L103.911 27.62C103.575 27.008 103.011 26.288 102.363 25.544C102.891 24.176 103.263 22.532 103.467 20.624L102.735 20.408ZM106.011 26.48C105.819 25.76 105.255 24.692 104.691 23.888L103.779 24.32C104.331 25.148 104.859 26.252 105.039 26.96L106.011 26.48ZM109.359 21.704H108.003V18.944H106.899V21.704H103.683V22.784H106.899V28.496C106.899 28.712 106.815 28.772 106.611 28.772C106.407 28.784 105.759 28.784 105.039 28.76C105.195 29.084 105.363 29.624 105.411 29.948C106.407 29.948 107.055 29.9 107.463 29.708C107.847 29.516 108.003 29.18 108.003 28.496V22.784H109.359V21.704ZM120.725 21.14V20.192H113.369C113.513 19.868 113.645 19.532 113.765 19.196L112.649 18.908C112.085 20.6 111.089 22.232 109.925 23.24C110.213 23.396 110.705 23.732 110.933 23.912C111.641 23.204 112.325 22.232 112.901 21.14H120.725ZM119.789 22.808V21.896H112.745V22.808H119.789ZM111.497 23.624V24.584H117.809C117.941 27.584 118.373 29.936 120.041 29.936C120.845 29.936 121.085 29.336 121.169 27.908C120.929 27.764 120.629 27.488 120.401 27.236C120.389 28.22 120.329 28.832 120.113 28.832C119.261 28.832 118.949 26.312 118.901 23.624H111.497ZM124.087 18.992C123.535 20.792 122.599 22.568 121.591 23.732C121.783 24.008 122.059 24.632 122.155 24.908C122.491 24.512 122.827 24.056 123.139 23.552V29.936H124.195V21.608C124.555 20.852 124.867 20.06 125.119 19.28L124.087 18.992ZM126.007 20.324H125.035V28.028H126.007V20.324ZM132.955 26.828V25.868H130.075V25.82V24.56H132.583V23.636H128.347C128.467 23.348 128.575 23.06 128.671 22.76L128.251 22.664H132.703V21.716H131.491V19.484H127.087V20.408H130.459V21.716H126.343V22.664H127.627C127.315 23.6 126.823 24.524 126.223 25.148C126.475 25.28 126.895 25.568 127.087 25.724C127.375 25.412 127.651 25.004 127.903 24.56H128.983V25.808V25.868H126.355V26.828H128.851C128.611 27.656 127.915 28.544 125.983 29.18C126.235 29.372 126.547 29.744 126.703 29.972C128.299 29.36 129.163 28.568 129.619 27.764C130.063 28.628 130.867 29.504 132.439 29.96C132.571 29.696 132.847 29.264 133.087 29.06C131.239 28.592 130.543 27.656 130.231 26.828H132.955ZM137.157 24.584H138.285V21.104H139.941V24.572H141.069V21.104H144.261V20.12H140.037C139.869 19.76 139.557 19.22 139.305 18.824L138.213 19.088C138.405 19.388 138.621 19.796 138.753 20.12H133.989V21.104H137.157V24.584ZM141.321 22.064C142.029 22.688 142.905 23.636 143.325 24.26L144.189 23.672C143.769 23.084 142.905 22.184 142.137 21.56L141.321 22.064ZM135.669 21.512C135.321 22.328 134.733 23.12 134.085 23.66C134.337 23.804 134.769 24.08 134.961 24.26C135.597 23.648 136.269 22.712 136.665 21.788L135.669 21.512ZM141.405 25.856C140.829 26.552 140.061 27.104 139.137 27.56C138.213 27.104 137.457 26.528 136.881 25.856H141.405ZM142.389 24.836L142.185 24.884H134.709V25.856H135.657C136.269 26.732 137.049 27.452 137.985 28.04C136.701 28.496 135.237 28.808 133.737 28.988C133.929 29.216 134.181 29.684 134.277 29.972C135.981 29.708 137.637 29.3 139.101 28.664C140.481 29.312 142.113 29.732 143.937 29.96C144.081 29.672 144.345 29.228 144.573 28.988C142.989 28.832 141.537 28.52 140.277 28.052C141.465 27.356 142.449 26.468 143.097 25.316L142.389 24.836ZM148.511 19.112C147.743 20.948 146.459 22.736 145.127 23.852C145.331 24.128 145.679 24.728 145.799 25.016C146.267 24.584 146.747 24.068 147.191 23.504V29.924H148.307V21.932C148.811 21.14 149.243 20.312 149.603 19.472L148.511 19.112ZM152.591 28.616C152.003 28.616 151.907 28.508 151.907 27.848V24.68C153.395 23.708 154.823 22.556 155.891 21.464L154.847 20.936C154.139 21.728 153.071 22.604 151.907 23.396V19.088H150.767V24.116C150.227 24.44 149.687 24.728 149.171 24.98C149.363 25.208 149.639 25.652 149.783 25.916C150.107 25.748 150.431 25.568 150.767 25.376V27.836C150.767 29.288 151.163 29.696 152.483 29.696H154.667C155.879 29.696 156.203 29.048 156.347 27.248C156.023 27.176 155.567 26.96 155.291 26.768C155.219 28.256 155.123 28.616 154.571 28.616H152.591Z" fill="white"/>
<rect opacity="0.5" x="55" y="58" width="132" height="58" rx="7" fill="#D4DFFA"/>
<path d="M79.2108 83V75.08L79.7268 75.644H77.3148V74.6H80.3988V83H79.2108ZM85.4182 83.096C84.7622 83.096 84.1742 82.928 83.6542 82.592C83.1422 82.256 82.7342 81.768 82.4302 81.128C82.1342 80.488 81.9862 79.712 81.9862 78.8C81.9862 77.888 82.1342 77.112 82.4302 76.472C82.7342 75.832 83.1422 75.344 83.6542 75.008C84.1742 74.672 84.7622 74.504 85.4182 74.504C86.0662 74.504 86.6502 74.672 87.1702 75.008C87.6902 75.344 88.0982 75.832 88.3942 76.472C88.6902 77.112 88.8382 77.888 88.8382 78.8C88.8382 79.712 88.6902 80.488 88.3942 81.128C88.0982 81.768 87.6902 82.256 87.1702 82.592C86.6502 82.928 86.0662 83.096 85.4182 83.096ZM85.4182 82.028C85.8582 82.028 86.2422 81.908 86.5702 81.668C86.9062 81.428 87.1662 81.068 87.3502 80.588C87.5422 80.108 87.6382 79.512 87.6382 78.8C87.6382 78.088 87.5422 77.492 87.3502 77.012C87.1662 76.532 86.9062 76.172 86.5702 75.932C86.2422 75.692 85.8582 75.572 85.4182 75.572C84.9782 75.572 84.5902 75.692 84.2542 75.932C83.9182 76.172 83.6542 76.532 83.4622 77.012C83.2782 77.492 83.1862 78.088 83.1862 78.8C83.1862 79.512 83.2782 80.108 83.4622 80.588C83.6542 81.068 83.9182 81.428 84.2542 81.668C84.5902 81.908 84.9782 82.028 85.4182 82.028ZM93.1721 83.096C92.5161 83.096 91.9281 82.928 91.4081 82.592C90.8961 82.256 90.4881 81.768 90.1841 81.128C89.8881 80.488 89.7401 79.712 89.7401 78.8C89.7401 77.888 89.8881 77.112 90.1841 76.472C90.4881 75.832 90.8961 75.344 91.4081 75.008C91.9281 74.672 92.5161 74.504 93.1721 74.504C93.8201 74.504 94.4041 74.672 94.9241 75.008C95.4441 75.344 95.8521 75.832 96.1481 76.472C96.4441 77.112 96.5921 77.888 96.5921 78.8C96.5921 79.712 96.4441 80.488 96.1481 81.128C95.8521 81.768 95.4441 82.256 94.9241 82.592C94.4041 82.928 93.8201 83.096 93.1721 83.096ZM93.1721 82.028C93.6121 82.028 93.9961 81.908 94.3241 81.668C94.6601 81.428 94.9201 81.068 95.1041 80.588C95.2961 80.108 95.3921 79.512 95.3921 78.8C95.3921 78.088 95.2961 77.492 95.1041 77.012C94.9201 76.532 94.6601 76.172 94.3241 75.932C93.9961 75.692 93.6121 75.572 93.1721 75.572C92.7321 75.572 92.3441 75.692 92.0081 75.932C91.6721 76.172 91.4081 76.532 91.2161 77.012C91.0321 77.492 90.9401 78.088 90.9401 78.8C90.9401 79.512 91.0321 80.108 91.2161 80.588C91.4081 81.068 91.6721 81.428 92.0081 81.668C92.3441 81.908 92.7321 82.028 93.1721 82.028ZM98.646 83L104.382 74.6H105.306L99.57 83H98.646ZM99.318 79.112C98.934 79.112 98.594 79.016 98.298 78.824C98.002 78.632 97.77 78.364 97.602 78.02C97.442 77.676 97.362 77.276 97.362 76.82C97.362 76.364 97.442 75.964 97.602 75.62C97.77 75.276 98.002 75.008 98.298 74.816C98.594 74.624 98.934 74.528 99.318 74.528C99.71 74.528 100.05 74.624 100.338 74.816C100.634 75.008 100.862 75.276 101.022 75.62C101.182 75.964 101.262 76.364 101.262 76.82C101.262 77.276 101.182 77.676 101.022 78.02C100.862 78.364 100.634 78.632 100.338 78.824C100.05 79.016 99.71 79.112 99.318 79.112ZM99.318 78.428C99.686 78.428 99.974 78.288 100.182 78.008C100.39 77.72 100.494 77.324 100.494 76.82C100.494 76.316 100.39 75.924 100.182 75.644C99.974 75.356 99.686 75.212 99.318 75.212C98.958 75.212 98.67 75.356 98.454 75.644C98.246 75.924 98.142 76.316 98.142 76.82C98.142 77.316 98.246 77.708 98.454 77.996C98.67 78.284 98.958 78.428 99.318 78.428ZM104.634 83.072C104.25 83.072 103.91 82.976 103.614 82.784C103.318 82.592 103.09 82.324 102.93 81.98C102.77 81.636 102.69 81.236 102.69 80.78C102.69 80.324 102.77 79.924 102.93 79.58C103.09 79.236 103.318 78.968 103.614 78.776C103.91 78.584 104.25 78.488 104.634 78.488C105.026 78.488 105.366 78.584 105.654 78.776C105.95 78.968 106.178 79.236 106.338 79.58C106.506 79.924 106.59 80.324 106.59 80.78C106.59 81.236 106.506 81.636 106.338 81.98C106.178 82.324 105.95 82.592 105.654 82.784C105.366 82.976 105.026 83.072 104.634 83.072ZM104.634 82.388C104.994 82.388 105.278 82.248 105.486 81.968C105.702 81.68 105.81 81.284 105.81 80.78C105.81 80.284 105.702 79.892 105.486 79.604C105.278 79.316 104.994 79.172 104.634 79.172C104.274 79.172 103.986 79.316 103.77 79.604C103.562 79.884 103.458 80.276 103.458 80.78C103.458 81.284 103.562 81.68 103.77 81.968C103.986 82.248 104.274 82.388 104.634 82.388ZM112.481 77.504V79.904H109.721V77.504H112.481ZM113.585 80.96V76.448H108.641V81.896H109.721V80.96H113.585ZM118.121 73.76H107.465V74.876H115.529V82.436C115.529 82.688 115.445 82.76 115.181 82.772C114.893 82.772 113.897 82.784 112.985 82.736C113.165 83.06 113.393 83.612 113.453 83.936C114.653 83.936 115.493 83.924 116.009 83.72C116.513 83.552 116.693 83.18 116.693 82.46V74.876H118.121V73.76ZM125.035 80.144V78.86H127.459V80.144H125.035ZM121.603 78.86H123.931V80.144H121.603V78.86ZM121.603 76.664H123.931V77.9H121.603V76.664ZM127.459 76.664V77.9H125.035V76.664H127.459ZM130.051 80.144H128.575V78.86H129.907V77.9H128.575V75.644H125.035V74.648H129.595V73.616H119.479V74.648H123.931V75.644H120.499V77.9H119.191V78.86H120.499V80.144H119.035V81.164H120.499V83.96H121.603V81.164H127.459V82.64C127.459 82.844 127.387 82.904 127.171 82.916C126.955 82.916 126.163 82.928 125.419 82.904C125.575 83.192 125.755 83.66 125.815 83.96C126.859 83.96 127.543 83.948 127.987 83.78C128.419 83.6 128.575 83.264 128.575 82.652V81.164H130.051V80.144ZM136.881 82.496V79.736H140.613V78.668H136.881V76.268H141.057V75.176H136.881V72.944H135.729V75.176H133.557C133.785 74.6 134.001 73.988 134.181 73.376L133.029 73.112C132.585 74.792 131.829 76.436 130.857 77.456C131.157 77.612 131.649 77.936 131.877 78.128C132.297 77.624 132.693 76.988 133.065 76.268H135.729V78.668H132.309V79.736H135.729V82.496H130.977V83.576H141.633V82.496H136.881ZM152.051 78.2C153.071 78.2 153.395 77.804 153.515 76.304C153.203 76.244 152.747 76.076 152.507 75.896C152.459 77.012 152.387 77.204 151.955 77.204H150.323C149.819 77.204 149.735 77.132 149.735 76.736V75.74C150.827 75.416 152.027 74.996 152.951 74.576L152.231 73.772C151.595 74.108 150.659 74.504 149.735 74.828V72.956H148.619V76.748C148.619 77.888 148.931 78.2 150.191 78.2H152.051ZM144.275 80.732V79.82H146.483V80.732H144.275ZM146.483 78.116V78.968H144.275V78.116H146.483ZM147.587 77.18H143.231V83.924H144.275V81.584H146.483V82.724C146.483 82.868 146.447 82.916 146.291 82.916C146.123 82.928 145.631 82.928 145.127 82.904C145.283 83.192 145.439 83.624 145.499 83.912C146.231 83.912 146.759 83.9 147.131 83.732C147.479 83.552 147.587 83.264 147.587 82.736V77.18ZM145.967 74.108C146.207 74.444 146.435 74.828 146.651 75.212L144.599 75.308C144.935 74.648 145.295 73.88 145.595 73.16L144.431 72.896C144.215 73.628 143.819 74.6 143.435 75.356C143.099 75.368 142.799 75.38 142.523 75.392L142.619 76.46C143.843 76.388 145.499 76.28 147.143 76.184C147.251 76.436 147.347 76.664 147.407 76.856L148.403 76.448C148.163 75.692 147.515 74.576 146.903 73.748L145.967 74.108ZM150.347 82.868C149.819 82.868 149.723 82.796 149.723 82.388V81.2C150.875 80.852 152.159 80.42 153.071 79.892L152.351 79.076C151.703 79.496 150.707 79.928 149.723 80.276V78.5H148.619V82.4C148.619 83.516 148.943 83.84 150.203 83.84H152.135C153.191 83.84 153.503 83.408 153.635 81.776C153.335 81.704 152.891 81.524 152.639 81.356C152.591 82.64 152.507 82.868 152.039 82.868H150.347ZM157.453 74.264C157.033 73.844 156.145 73.34 155.449 73.028L154.813 73.832C155.521 74.18 156.373 74.744 156.781 75.152L157.453 74.264ZM156.877 77.372C156.445 76.988 155.569 76.508 154.861 76.208L154.237 77.036C154.945 77.348 155.821 77.888 156.217 78.284L156.877 77.372ZM156.205 79.328C155.677 80.708 154.957 82.244 154.453 83.18L155.461 83.78C156.013 82.64 156.625 81.212 157.105 79.952L156.205 79.328ZM159.805 80.468C159.505 81.308 159.013 82.148 158.437 82.724C158.689 82.856 159.109 83.144 159.313 83.3C159.877 82.652 160.453 81.668 160.801 80.72L159.805 80.468ZM160.477 78.176H163.717V79.076H160.477V78.176ZM160.477 76.532H163.717V77.396H160.477V76.532ZM164.773 79.892V75.704H162.409C162.529 75.344 162.649 74.936 162.781 74.54H165.169V73.532H157.813V76.796C157.813 78.74 157.705 81.44 156.361 83.324C156.613 83.444 157.105 83.744 157.285 83.912C158.701 81.932 158.905 78.884 158.905 76.796V74.54H161.521C161.473 74.9 161.389 75.332 161.317 75.704H159.481V79.892H161.509V82.808C161.509 82.94 161.461 82.988 161.317 82.988C161.173 82.988 160.669 83 160.165 82.976C160.285 83.252 160.429 83.66 160.465 83.936C161.245 83.948 161.773 83.936 162.121 83.78C162.481 83.624 162.565 83.348 162.565 82.844V79.892H164.773ZM163.165 80.744C163.669 81.488 164.209 82.508 164.413 83.156L165.433 82.7C165.217 82.052 164.641 81.08 164.125 80.348L163.165 80.744ZM115.001 98.108L113.549 98.348V96.956H114.617V95.948H113.549V94.196H112.481V95.948H111.509C111.869 95.156 112.205 94.232 112.517 93.284H114.665V92.264H112.805C112.913 91.892 113.009 91.508 113.093 91.136L112.013 90.932C111.953 91.376 111.857 91.832 111.761 92.264H110.177V93.284H111.509C111.245 94.196 110.993 94.94 110.873 95.216C110.657 95.732 110.489 96.104 110.273 96.164C110.405 96.428 110.549 96.92 110.609 97.124C110.705 97.028 111.101 96.956 111.497 96.956H112.481V98.516C111.581 98.66 110.753 98.792 110.105 98.876L110.333 99.956C110.969 99.848 111.701 99.704 112.481 99.572V101.924H113.549V99.368L115.037 99.08L115.001 98.108ZM121.097 95.528V94.496H117.797C117.905 94.1 118.001 93.692 118.109 93.296H120.677V92.276H118.385C118.493 91.868 118.589 91.448 118.685 91.076L117.581 90.944C117.485 91.376 117.377 91.82 117.257 92.276H115.181V93.296H116.993C116.885 93.692 116.777 94.1 116.669 94.496H114.749V95.528H116.357C116.117 96.368 115.865 97.148 115.649 97.772H118.961C118.589 98.3 118.145 98.888 117.713 99.44C117.329 99.2 116.921 98.96 116.549 98.744L115.829 99.464C117.065 100.196 118.541 101.288 119.249 101.996L119.993 101.108C119.645 100.796 119.129 100.412 118.565 100.004C119.333 99.032 120.149 97.94 120.749 97.052L119.957 96.668L119.777 96.728H117.161C117.269 96.344 117.377 95.948 117.497 95.528H121.097ZM124.351 93.272V90.956H123.271V93.272H121.951V94.304H123.271V96.728C122.719 96.884 122.227 97.028 121.807 97.124L122.071 98.192L123.271 97.832V100.616C123.271 100.772 123.211 100.82 123.079 100.82C122.947 100.82 122.539 100.82 122.107 100.808C122.251 101.108 122.383 101.612 122.419 101.9C123.139 101.9 123.607 101.864 123.931 101.672C124.243 101.492 124.351 101.18 124.351 100.616V97.508L125.587 97.124L125.431 96.104L124.351 96.416V94.304H125.407V93.272H124.351ZM127.291 97.46V94.82H128.623V96.104C128.623 96.512 128.611 96.968 128.491 97.46H127.291ZM130.159 92.912C129.943 93.26 129.655 93.632 129.391 93.944H127.051C127.351 93.608 127.627 93.26 127.867 92.912H130.159ZM130.903 97.46H129.583C129.679 96.98 129.703 96.524 129.703 96.116V94.82H130.903V97.46ZM132.787 98.42V97.46H132.019V93.944H130.627C131.059 93.452 131.467 92.9 131.755 92.408L131.023 91.916L130.843 91.976H128.455C128.611 91.688 128.755 91.424 128.887 91.136L127.759 90.944C127.339 91.916 126.547 93.14 125.407 94.04C125.647 94.208 125.983 94.592 126.139 94.844L126.235 94.76V97.46H125.419V98.42H128.155C127.663 99.38 126.703 100.364 124.759 101.18C125.023 101.384 125.359 101.744 125.527 101.972C127.399 101.096 128.443 100.064 129.019 99.02C129.787 100.328 130.939 101.372 132.319 101.9C132.463 101.636 132.787 101.24 133.015 101.024C131.623 100.568 130.423 99.608 129.739 98.42H132.787Z" fill="#283895"/>
<rect opacity="0.5" x="55" y="130" width="132" height="58" rx="7" fill="#D4DFFA"/>
<path d="M95.401 156.32H91.717V155.372H95.401V156.32ZM95.401 158.156H91.717V157.196H95.401V158.156ZM96.493 154.448H90.661V159.08H96.493V154.448ZM90.121 155.276C89.641 154.892 88.657 154.376 87.925 154.088L87.325 154.88C88.069 155.216 89.029 155.768 89.485 156.164L90.121 155.276ZM89.413 158.48C88.921 158.108 87.925 157.592 87.181 157.304L86.605 158.108C87.373 158.444 88.333 158.996 88.813 159.392L89.413 158.48ZM88.945 160.244C88.321 161.6 87.457 163.124 86.869 164.048L87.829 164.72C88.477 163.592 89.209 162.164 89.785 160.916L88.945 160.244ZM91.273 160.916H92.221V163.628H91.273V160.916ZM94.033 160.916V163.628H93.073V160.916H94.033ZM95.845 160.916V163.628H94.885V160.916H95.845ZM96.901 163.628V159.968H90.277V163.628H89.305V164.6H97.657V163.628H96.901ZM99.819 155.792H107.919V157.1H109.059V154.784H104.415V153.932H103.275V154.784H98.727V157.1H99.819V155.792ZM104.415 163.616V162.368H108.171V161.396H104.415V160.172C105.315 160.136 106.251 160.112 107.163 160.076C107.415 160.328 107.643 160.568 107.799 160.772L108.675 160.16C108.111 159.488 106.923 158.516 105.963 157.868L105.159 158.42C105.471 158.636 105.807 158.9 106.131 159.164C104.835 159.188 103.539 159.224 102.351 159.248C102.663 158.804 102.975 158.288 103.263 157.808H107.835V156.848H99.987V157.808H101.967C101.739 158.288 101.451 158.828 101.175 159.272C100.563 159.284 99.987 159.296 99.495 159.296L99.543 160.316C100.563 160.28 101.871 160.244 103.275 160.208V161.396H99.699V162.368H103.275V163.616H98.631V164.612H109.167V163.616H104.415ZM120.725 156.14V155.192H113.369C113.513 154.868 113.645 154.532 113.765 154.196L112.649 153.908C112.085 155.6 111.089 157.232 109.925 158.24C110.213 158.396 110.705 158.732 110.933 158.912C111.641 158.204 112.325 157.232 112.901 156.14H120.725ZM119.789 157.808V156.896H112.745V157.808H119.789ZM111.497 158.624V159.584H117.809C117.941 162.584 118.373 164.936 120.041 164.936C120.845 164.936 121.085 164.336 121.169 162.908C120.929 162.764 120.629 162.488 120.401 162.236C120.389 163.22 120.329 163.832 120.113 163.832C119.261 163.832 118.949 161.312 118.901 158.624H111.497ZM124.267 153.992C123.691 155.732 122.755 157.484 121.723 158.612C121.915 158.864 122.239 159.476 122.347 159.74C122.647 159.38 122.935 158.996 123.235 158.564V164.924H124.303V156.716C124.687 155.924 125.047 155.108 125.311 154.292L124.267 153.992ZM132.787 157.28V156.224H129.355V153.992H128.263V156.224H125.047V157.28H127.675C126.967 159.248 125.791 161.204 124.519 162.26C124.759 162.452 125.143 162.836 125.311 163.112C126.487 161.984 127.531 160.172 128.263 158.204V161.816H126.475V162.824H128.263V164.876H129.355V162.824H131.131V161.816H129.355V158.132C130.063 160.088 131.095 161.96 132.223 163.076C132.427 162.776 132.799 162.392 133.075 162.188C131.839 161.144 130.663 159.212 129.979 157.28H132.787ZM144.501 155.264C144.201 154.868 143.589 154.352 143.061 154.004L142.389 154.52C142.929 154.892 143.529 155.456 143.793 155.84L144.501 155.264ZM136.353 156.488C136.029 155.948 135.297 155.192 134.673 154.652L133.917 155.3C134.529 155.864 135.237 156.656 135.525 157.196L136.353 156.488ZM135.393 158.912C134.841 160.352 134.097 161.972 133.557 162.956L134.517 163.604C135.093 162.416 135.729 160.88 136.221 159.548L135.393 158.912ZM140.961 157.736H138.129V158.564H140.961V157.736ZM140.133 160.196V161.684H138.969V160.196H140.133ZM138.969 162.512H140.865V159.368H138.249V163.028H138.969V162.512ZM143.277 158.108C143.073 158.948 142.797 159.716 142.461 160.424C142.353 159.464 142.257 158.3 142.221 156.932H144.465V155.924H142.197C142.185 155.3 142.173 154.628 142.185 153.932H141.117C141.129 154.628 141.141 155.288 141.153 155.924H136.749V158.816C136.749 160.46 136.629 162.728 135.489 164.336C135.729 164.432 136.149 164.72 136.329 164.888C137.541 163.172 137.733 160.616 137.733 158.828V156.932H141.189C141.273 158.888 141.417 160.52 141.645 161.804C140.925 162.8 140.025 163.592 138.897 164.18C139.125 164.348 139.509 164.732 139.653 164.924C140.517 164.408 141.273 163.772 141.921 163.016C142.293 164.276 142.797 164.948 143.493 164.948C144.285 164.948 144.609 164.624 144.753 162.68C144.513 162.584 144.189 162.344 143.985 162.116C143.925 163.472 143.805 163.88 143.589 163.88C143.277 163.88 142.953 163.244 142.701 161.972C143.373 160.94 143.889 159.716 144.261 158.312L143.277 158.108ZM148.919 158.948L147.827 159.272V157.292H149.027V156.26H147.827V153.944H146.807V156.26H145.415V157.292H146.807V159.572C146.219 159.74 145.679 159.896 145.247 160.004L145.499 161.084C145.895 160.952 146.339 160.82 146.807 160.676V163.712C146.807 163.88 146.747 163.916 146.591 163.916C146.459 163.928 146.015 163.928 145.535 163.916C145.679 164.204 145.811 164.684 145.835 164.948C146.603 164.948 147.071 164.912 147.395 164.744C147.719 164.564 147.827 164.264 147.827 163.712V160.364C148.235 160.232 148.655 160.1 149.063 159.968L148.919 158.948ZM151.067 155.924H149.195V156.932H151.067V158.408H149.291V159.404H151.067C151.055 159.872 151.019 160.328 150.959 160.772C150.071 161.06 149.219 161.324 148.583 161.492L149.015 162.452C149.543 162.26 150.131 162.044 150.719 161.816C150.419 162.728 149.867 163.544 148.883 164.204C149.123 164.372 149.495 164.732 149.675 164.948C151.799 163.484 152.063 161.324 152.063 158.948V153.92H151.067V155.924ZM156.383 160.988H154.187V159.404H156.047V158.408H154.187V156.932H156.179V155.924H154.187V153.92H153.131V164.924H154.187V162.008H156.383V160.988Z" fill="#283895"/>
<rect opacity="0.5" x="55" y="202" width="132" height="40" rx="7" fill="#D4DFFA"/>
<path d="M72.26 222.068L71.12 222.404V220.328H72.38V219.272H71.12V216.956H70.052V219.272H68.672V220.328H70.052V222.716C69.464 222.884 68.936 223.016 68.504 223.124L68.768 224.228L70.052 223.844V226.604C70.052 226.772 69.992 226.82 69.836 226.82C69.704 226.82 69.248 226.82 68.78 226.808C68.924 227.108 69.068 227.6 69.104 227.888C69.86 227.9 70.352 227.852 70.688 227.66C71.012 227.492 71.12 227.18 71.12 226.604V223.52C71.552 223.388 71.996 223.256 72.416 223.112L72.26 222.068ZM79.4 218.708H76.916L77.084 218.648C76.916 218.192 76.58 217.496 76.256 216.968L75.26 217.28C75.5 217.712 75.752 218.264 75.932 218.708H73.04V221.696C73.04 223.4 72.896 225.764 71.588 227.384C71.852 227.516 72.332 227.828 72.536 228.032C73.916 226.28 74.144 223.58 74.144 221.696V219.776H79.4V218.708ZM91.018 221.408V220.256H86.182C86.326 219.068 86.338 217.916 86.35 216.944H85.138C85.126 217.904 85.138 219.056 84.994 220.256H80.53V221.408H84.79C84.31 223.58 83.146 225.74 80.29 226.988C80.602 227.228 80.962 227.624 81.142 227.924C83.866 226.64 85.162 224.564 85.774 222.392C86.71 224.936 88.162 226.88 90.406 227.924C90.586 227.588 90.958 227.12 91.234 226.88C88.966 225.932 87.454 223.904 86.638 221.408H91.018ZM102.528 217.292H101.556V218.888H100.068V216.932H99.072V218.888H97.668V217.292H96.732V219.8H102.528V217.292ZM94.86 225.428H93.78V222.164H94.86V225.428ZM95.808 226.4V221.192H93.864C94.068 220.364 94.224 219.476 94.344 218.564H96.18V217.58H92.028V218.564H93.324C93.084 220.556 92.652 222.452 91.848 223.676C92.04 223.916 92.34 224.432 92.46 224.684C92.604 224.468 92.736 224.252 92.856 224.012V227.336H93.78V226.4H95.808ZM97.632 221.612H102.996V220.664H97.632V220.1H96.672V220.664H96.072V221.612H96.672V222.092C96.672 223.736 96.564 225.68 95.436 227.288C95.712 227.408 96.096 227.696 96.288 227.876C97.5 226.112 97.632 223.964 97.632 222.104V221.612ZM98.232 225.164C98.676 224.588 98.904 223.628 98.976 222.764L98.208 222.632C98.124 223.436 97.884 224.276 97.512 224.768L98.232 225.164ZM101.568 224.96C101.94 224.396 102.396 223.544 102.792 222.8L101.844 222.464C101.616 223.1 101.208 224.024 100.86 224.624C100.656 223.952 100.584 223.22 100.536 222.452C100.548 222.248 100.548 222.032 100.56 221.816H99.636C99.552 224.72 99.336 226.304 97.056 227.18C97.248 227.348 97.524 227.72 97.632 227.948C99.084 227.36 99.804 226.484 100.164 225.224C100.524 226.364 101.208 227.348 102.528 227.948C102.672 227.684 102.948 227.312 103.164 227.12C101.844 226.58 101.208 225.716 100.872 224.672L101.568 224.96ZM106.37 218.564H112.334V220.592H106.37V218.564ZM109.898 224.384H113.858V223.34H109.898V221.648H113.51V217.496H105.266V221.648H108.758V226.244C107.882 225.86 107.198 225.188 106.742 224.084C106.874 223.592 106.97 223.088 107.042 222.608L105.878 222.464C105.698 224.144 105.146 226.136 103.79 227.18C104.018 227.348 104.39 227.708 104.582 227.936C105.374 227.312 105.938 226.412 106.322 225.404C107.498 227.36 109.346 227.816 111.818 227.816H114.398C114.458 227.504 114.638 226.988 114.806 226.724C114.23 226.748 112.322 226.748 111.878 226.748C111.17 226.748 110.51 226.712 109.898 226.592V224.384ZM121.168 220.748C121.168 222.296 120.988 224.132 119.188 225.572C119.464 225.716 119.86 226.028 120.052 226.256C121.972 224.648 122.188 222.536 122.188 220.76V219.5H123.184V225.008C123.184 225.14 123.136 225.176 123.004 225.188C122.848 225.188 122.392 225.188 121.9 225.176C122.044 225.452 122.2 225.884 122.236 226.172C122.968 226.172 123.448 226.148 123.784 225.992C124.132 225.824 124.228 225.536 124.228 225.008V219.5H126.388V218.468H123.196V216.932H122.104V218.468H119.02V219.5H121.168V220.748ZM124.456 220.7C124.984 221.732 125.452 223.088 125.584 223.94L126.568 223.64C126.424 222.776 125.92 221.444 125.38 220.436L124.456 220.7ZM119.656 220.412C119.404 221.552 118.936 222.68 118.288 223.4C118.54 223.508 118.996 223.748 119.2 223.904C119.824 223.1 120.364 221.888 120.676 220.604L119.656 220.412ZM118.804 218.468C118.384 218 117.544 217.412 116.848 217.052L116.104 217.736C116.8 218.144 117.628 218.768 118 219.224L118.804 218.468ZM118.408 220.784C117.976 220.328 117.088 219.764 116.368 219.416L115.636 220.148C116.368 220.52 117.232 221.12 117.64 221.576L118.408 220.784ZM118.156 222.404H115.6V223.436H117.076V225.488C116.524 225.932 115.924 226.376 115.408 226.712L115.972 227.828C116.584 227.312 117.148 226.832 117.676 226.34C118.432 227.264 119.488 227.66 121.012 227.732C122.38 227.78 124.84 227.756 126.208 227.684C126.268 227.348 126.436 226.832 126.568 226.58C125.068 226.688 122.356 226.712 121.012 226.664C119.68 226.616 118.708 226.232 118.156 225.404V222.404ZM130.986 218.828C130.578 218.384 129.714 217.64 129.126 217.124L128.37 217.82C128.97 218.384 129.81 219.164 130.206 219.632L130.986 218.828ZM130.314 225.392V220.628H127.326V221.696H129.246V225.56C129.246 226.16 128.826 226.604 128.562 226.784C128.754 226.964 129.054 227.348 129.15 227.576C129.342 227.336 129.678 227.06 131.946 225.452C131.85 225.236 131.694 224.804 131.622 224.504L130.314 225.392ZM134.106 216.956C134.082 220.904 134.154 224.984 131.154 227.132C131.454 227.312 131.814 227.672 131.994 227.936C133.494 226.808 134.298 225.236 134.718 223.436C135.174 225.032 136.014 226.844 137.562 227.936C137.742 227.66 138.054 227.312 138.366 227.108C135.75 225.368 135.282 221.672 135.126 220.496C135.21 219.332 135.222 218.144 135.234 216.956H134.106ZM142.304 218.96C141.896 218.468 141.044 217.712 140.408 217.196L139.676 217.868C140.324 218.432 141.152 219.212 141.524 219.728L142.304 218.96ZM141.752 225.308V220.628H139.112V221.696H140.672V225.524C140.672 226.196 140.24 226.7 139.964 226.928C140.168 227.084 140.528 227.444 140.66 227.672C140.852 227.396 141.2 227.108 143.276 225.404C143.144 225.176 142.94 224.732 142.844 224.42L141.752 225.308ZM147.368 226.436V222.776H149.552V221.744H147.368V218.816H149.78V217.772H143.12V218.816H146.228V226.436H144.824V220.868H143.72V226.436H142.76V227.48H150.008V226.436H147.368ZM161.086 218.276H157.234C157.066 217.892 156.718 217.316 156.382 216.896L155.254 217.196C155.494 217.508 155.722 217.928 155.89 218.276H151.582V219.344H161.086V218.276ZM161.386 221.408H158.626C158.95 220.952 159.298 220.376 159.646 219.836L158.41 219.44C158.206 220.028 157.81 220.856 157.486 221.408H154.51L155.362 221.024C155.17 220.556 154.714 219.86 154.33 219.368L153.358 219.764C153.718 220.268 154.114 220.94 154.306 221.408H151.726V223.04C151.726 224.276 151.618 226.016 150.682 227.276C150.922 227.42 151.426 227.84 151.606 228.068C152.674 226.652 152.89 224.516 152.89 223.064V222.5H161.386V221.408ZM170.256 220.46H165.756V218.504H170.256V220.46ZM171.396 217.436H164.688V221.528H171.396V217.436ZM166.236 223.76V226.256H164.052V223.76H166.236ZM162.996 227.948H164.052V227.324H166.236V227.864H167.34V222.692H162.996V227.948ZM169.584 226.256V223.76H171.96V226.256H169.584ZM168.516 222.692V227.948H169.584V227.324H171.96V227.888H173.076V222.692H168.516Z" fill="#283895"/>
<rect opacity="0.5" x="55" y="256" width="132" height="58" rx="7" fill="#D4DFFA"/>
<path d="M86.238 272.312C87.09 273.38 88.242 274.448 89.478 275.276H82.962C84.174 274.424 85.374 273.356 86.238 272.312ZM86.802 278.864H90.066V277.892H86.802V276.26H89.55V275.324C90.054 275.66 90.582 275.96 91.098 276.2C91.266 275.888 91.626 275.42 91.854 275.192C89.91 274.424 87.906 272.864 86.838 271.268H83.01V272.312H84.918C83.754 273.524 82.11 274.712 80.682 275.336C80.934 275.576 81.222 275.96 81.378 276.248C81.882 275.984 82.41 275.66 82.938 275.288V276.26H85.626V277.892H82.398V278.864H85.626V280.628H81.222V281.636H91.35V280.628H86.802V278.864ZM98.504 272.18H96.188V270.992H95.108V272.18H92.804V273.152H98.504V272.18ZM97.124 275.42C97.364 274.928 97.628 274.184 97.892 273.512L96.836 273.272C96.704 273.836 96.452 274.676 96.236 275.192L97.124 275.42ZM94.976 275.168C94.904 274.676 94.712 273.896 94.448 273.332L93.524 273.536C93.752 274.112 93.944 274.892 93.992 275.396L94.976 275.168ZM96.968 278.396V280.328H94.304V278.396H96.968ZM93.272 281.948H94.304V281.3H96.968V281.9H98.06V277.412H93.272V281.948ZM92.516 276.488H98.66V275.468H92.516V276.488ZM102.716 271.58L102.536 271.628H99.092V281.948H100.184V272.672H102.092C101.756 273.608 101.288 274.868 100.856 275.804C101.96 276.8 102.272 277.676 102.272 278.372C102.272 278.804 102.188 279.116 101.948 279.26C101.816 279.344 101.66 279.38 101.468 279.392C101.252 279.404 100.964 279.392 100.652 279.368C100.832 279.68 100.94 280.148 100.952 280.472C101.288 280.472 101.66 280.484 101.936 280.448C102.248 280.4 102.512 280.316 102.74 280.16C103.172 279.872 103.352 279.308 103.352 278.504C103.352 277.688 103.088 276.752 101.984 275.66C102.5 274.616 103.076 273.236 103.544 272.096L102.716 271.58ZM113.842 273.596C113.398 274.976 112.582 276.728 111.946 277.82L112.87 278.3C113.518 277.172 114.298 275.516 114.862 274.088L113.842 273.596ZM107.362 277.808C107.05 276.728 106.33 274.928 105.73 273.56L104.71 273.884C105.298 275.264 105.97 277.112 106.246 278.216L107.362 277.808ZM111.802 280.256V271.1H110.662V280.256H108.85V271.088H107.71V280.256H104.482V281.36H115.03V280.256H111.802ZM121.644 277.556C121.74 277.244 121.812 276.896 121.872 276.536L120.708 276.44C120.66 276.848 120.588 277.22 120.492 277.556H117.012V278.516H120.12C119.424 279.872 118.152 280.616 116.208 281C116.412 281.216 116.736 281.684 116.844 281.936C119.1 281.348 120.54 280.376 121.32 278.516H124.764C124.56 279.884 124.344 280.556 124.068 280.772C123.936 280.88 123.792 280.892 123.528 280.892C123.216 280.892 122.412 280.88 121.644 280.808C121.836 281.084 121.992 281.492 122.004 281.78C122.736 281.828 123.468 281.828 123.864 281.804C124.356 281.78 124.656 281.708 124.956 281.444C125.388 281.06 125.652 280.136 125.928 278.012C125.952 277.868 125.988 277.556 125.988 277.556H121.644ZM119.592 273.068H124.2C123.516 273.692 122.604 274.196 121.56 274.616C120.672 274.244 119.952 273.776 119.46 273.2L119.592 273.068ZM125.304 272.072L125.112 272.12H120.456C120.708 271.808 120.936 271.484 121.128 271.16L119.988 270.932C119.376 271.952 118.224 273.104 116.544 273.932C116.772 274.1 117.084 274.52 117.216 274.772C117.78 274.484 118.284 274.148 118.728 273.8C119.184 274.28 119.7 274.688 120.3 275.036C118.968 275.408 117.528 275.66 116.1 275.792C116.268 276.044 116.448 276.488 116.532 276.764C118.248 276.56 120 276.212 121.56 275.636C122.928 276.176 124.572 276.476 126.396 276.62C126.528 276.332 126.78 275.876 127.02 275.636C125.52 275.552 124.116 275.372 122.916 275.06C124.2 274.424 125.28 273.584 125.988 272.528L125.304 272.072ZM132.626 278.108L131.174 278.348V276.956H132.242V275.948H131.174V274.196H130.106V275.948H129.134C129.494 275.156 129.83 274.232 130.142 273.284H132.29V272.264H130.43C130.538 271.892 130.634 271.508 130.718 271.136L129.638 270.932C129.578 271.376 129.482 271.832 129.386 272.264H127.802V273.284H129.134C128.87 274.196 128.618 274.94 128.498 275.216C128.282 275.732 128.114 276.104 127.898 276.164C128.03 276.428 128.174 276.92 128.234 277.124C128.33 277.028 128.726 276.956 129.122 276.956H130.106V278.516C129.206 278.66 128.378 278.792 127.73 278.876L127.958 279.956C128.594 279.848 129.326 279.704 130.106 279.572V281.924H131.174V279.368L132.662 279.08L132.626 278.108ZM138.722 275.528V274.496H135.422C135.53 274.1 135.626 273.692 135.734 273.296H138.302V272.276H136.01C136.118 271.868 136.214 271.448 136.31 271.076L135.206 270.944C135.11 271.376 135.002 271.82 134.882 272.276H132.806V273.296H134.618C134.51 273.692 134.402 274.1 134.294 274.496H132.374V275.528H133.982C133.742 276.368 133.49 277.148 133.274 277.772H136.586C136.214 278.3 135.77 278.888 135.338 279.44C134.954 279.2 134.546 278.96 134.174 278.744L133.454 279.464C134.69 280.196 136.166 281.288 136.874 281.996L137.618 281.108C137.27 280.796 136.754 280.412 136.19 280.004C136.958 279.032 137.774 277.94 138.374 277.052L137.582 276.668L137.402 276.728H134.786C134.894 276.344 135.002 275.948 135.122 275.528H138.722ZM141.976 273.272V270.956H140.896V273.272H139.576V274.304H140.896V276.728C140.344 276.884 139.852 277.028 139.432 277.124L139.696 278.192L140.896 277.832V280.616C140.896 280.772 140.836 280.82 140.704 280.82C140.572 280.82 140.164 280.82 139.732 280.808C139.876 281.108 140.008 281.612 140.044 281.9C140.764 281.9 141.232 281.864 141.556 281.672C141.868 281.492 141.976 281.18 141.976 280.616V277.508L143.212 277.124L143.056 276.104L141.976 276.416V274.304H143.032V273.272H141.976ZM144.916 277.46V274.82H146.248V276.104C146.248 276.512 146.236 276.968 146.116 277.46H144.916ZM147.784 272.912C147.568 273.26 147.28 273.632 147.016 273.944H144.676C144.976 273.608 145.252 273.26 145.492 272.912H147.784ZM148.528 277.46H147.208C147.304 276.98 147.328 276.524 147.328 276.116V274.82H148.528V277.46ZM150.412 278.42V277.46H149.644V273.944H148.252C148.684 273.452 149.092 272.9 149.38 272.408L148.648 271.916L148.468 271.976H146.08C146.236 271.688 146.38 271.424 146.512 271.136L145.384 270.944C144.964 271.916 144.172 273.14 143.032 274.04C143.272 274.208 143.608 274.592 143.764 274.844L143.86 274.76V277.46H143.044V278.42H145.78C145.288 279.38 144.328 280.364 142.384 281.18C142.648 281.384 142.984 281.744 143.152 281.972C145.024 281.096 146.068 280.064 146.644 279.02C147.412 280.328 148.564 281.372 149.944 281.9C150.088 281.636 150.412 281.24 150.64 281.024C149.248 280.568 148.048 279.608 147.364 278.42H150.412ZM154.818 273.02C154.578 272.528 154.038 271.784 153.57 271.256L152.61 271.664C153.054 272.228 153.57 272.996 153.786 273.476L154.818 273.02ZM156.654 273.764C156.678 273.308 156.69 272.876 156.69 272.456V270.968H155.562V272.456C155.562 272.864 155.55 273.308 155.526 273.764H151.746V274.88H155.394C155.082 276.92 154.134 279.224 151.434 280.952C151.722 281.12 152.142 281.516 152.322 281.756C155.262 279.824 156.246 277.184 156.546 274.88H160.374C160.23 278.648 160.062 280.184 159.714 280.532C159.57 280.688 159.45 280.724 159.198 280.712C158.886 280.712 158.178 280.712 157.398 280.652C157.614 280.988 157.77 281.48 157.794 281.804C158.514 281.84 159.258 281.864 159.69 281.804C160.146 281.756 160.458 281.636 160.758 281.252C161.238 280.688 161.382 278.996 161.562 274.316C161.574 274.16 161.574 273.764 161.574 273.764H156.654ZM159.15 278.432C158.85 277.82 158.178 276.884 157.59 276.2L156.642 276.644C157.218 277.352 157.878 278.324 158.166 278.948L159.15 278.432ZM109.251 294.224V293.168H104.139C104.211 292.412 104.235 291.608 104.247 290.768H108.579V289.712H99.255V290.768H103.107C103.095 291.62 103.083 292.412 103.011 293.168H98.535V294.224H102.867C102.483 296.408 101.403 298.076 98.355 299.012C98.631 299.24 98.931 299.672 99.075 299.972C102.459 298.844 103.599 296.828 104.007 294.224H109.251ZM105.831 298.724C105.255 298.724 105.147 298.652 105.147 298.244V294.704H103.983V298.244C103.983 299.468 104.343 299.828 105.699 299.828H107.739C108.963 299.828 109.299 299.312 109.443 297.356C109.119 297.284 108.615 297.08 108.363 296.876C108.291 298.484 108.207 298.724 107.667 298.724H105.831ZM113.585 289.436V290.528H117.305C118.037 292.04 119.117 293.552 120.257 294.524C120.497 294.272 120.977 293.9 121.277 293.72C120.017 292.772 118.769 291.056 118.097 289.436H113.585ZM112.673 290.72C112.205 291.836 111.209 293.168 110.117 293.972C110.393 294.152 110.801 294.512 111.029 294.752C112.193 293.864 113.249 292.4 113.897 291.068L112.673 290.72ZM117.005 295.868C117.533 296.504 118.097 297.248 118.589 297.992C116.933 298.052 115.241 298.124 113.729 298.172C114.473 296.816 115.313 295.028 115.937 293.492L114.629 293.18C114.149 294.728 113.261 296.768 112.481 298.22L110.765 298.268L110.897 299.432C113.009 299.348 116.249 299.192 119.273 299.048C119.489 299.408 119.669 299.732 119.801 300.02L120.917 299.42C120.341 298.304 119.153 296.636 118.037 295.376L117.005 295.868ZM123.523 291.02H131.227V292.292H132.367V290.048H127.915V288.932H126.775V290.048H122.419V292.292H123.523V291.02ZM129.991 297.416V298.688H124.855V297.416H129.991ZM123.787 299.948H124.855V299.588H129.991V299.912H131.107V296.516H123.787V299.948ZM127.903 295.004V294.26H131.575V293.408H127.903V292.736H131.059V291.872H127.903V291.116H126.775V291.872H123.739V292.736H126.775V293.408H123.283V294.26H126.775V295.004H122.119V295.916H132.667V295.004H127.903ZM144.429 296.684H140.325V295.1H143.433V294.032H140.325V292.34H139.137V294.032H136.377C136.845 293.348 137.313 292.568 137.757 291.716H144.201V290.648H138.285C138.525 290.168 138.741 289.688 138.933 289.196L137.649 288.86C137.445 289.46 137.205 290.072 136.953 290.648H134.061V291.716H136.449C136.089 292.424 135.777 292.964 135.609 293.192C135.285 293.72 135.045 294.044 134.745 294.128C134.901 294.44 135.105 295.028 135.165 295.28C135.285 295.16 135.801 295.1 136.497 295.1H139.137V296.684H133.857V297.776H139.137V299.948H140.325V297.776H144.429V296.684Z" fill="#283895"/>
<rect x="195" width="132" height="48" rx="7" fill="#435CE7"/>
<path d="M241.431 20.516C240.879 20.108 239.787 19.604 238.947 19.304L238.383 20.072C239.235 20.396 240.315 20.96 240.843 21.368L241.431 20.516ZM241.455 21.896C240.183 22.316 238.875 22.724 238.011 22.976L238.335 23.996C239.283 23.66 240.507 23.264 241.647 22.856L241.455 21.896ZM247.383 27.716V24.536H239.511V27.812H240.615V25.544H246.243V27.716H247.383ZM242.907 25.868C242.571 27.632 241.731 28.604 237.963 29.048C238.131 29.276 238.371 29.708 238.455 29.96C242.523 29.396 243.603 28.136 244.011 25.868H242.907ZM243.519 28.184C244.971 28.652 246.939 29.396 247.923 29.912L248.595 29C247.563 28.508 245.559 27.8 244.155 27.404L243.519 28.184ZM247.095 20.84C246.951 21.2 246.783 21.56 246.639 21.812L247.623 22.076C247.911 21.596 248.259 20.84 248.523 20.156L247.707 19.952L247.539 19.988H243.783C243.915 19.7 244.035 19.424 244.143 19.136L243.087 18.992C242.799 19.832 242.199 20.804 241.251 21.524C241.491 21.668 241.863 21.98 242.019 22.232C242.547 21.8 242.955 21.332 243.291 20.84H244.491C244.143 21.992 243.411 23.024 241.347 23.6C241.551 23.78 241.827 24.164 241.935 24.404C243.555 23.9 244.467 23.144 245.031 22.232C245.751 23.192 246.807 23.924 248.103 24.296C248.247 24.032 248.523 23.624 248.763 23.432C247.275 23.108 246.063 22.352 245.439 21.332C245.499 21.164 245.547 21.008 245.595 20.84H247.095ZM252.797 20.264C252.377 19.844 251.489 19.34 250.793 19.028L250.157 19.832C250.865 20.18 251.717 20.744 252.125 21.152L252.797 20.264ZM252.221 23.372C251.789 22.988 250.913 22.508 250.205 22.208L249.581 23.036C250.289 23.348 251.165 23.888 251.561 24.284L252.221 23.372ZM251.549 25.328C251.021 26.708 250.301 28.244 249.797 29.18L250.805 29.78C251.357 28.64 251.969 27.212 252.449 25.952L251.549 25.328ZM255.149 26.468C254.849 27.308 254.357 28.148 253.781 28.724C254.033 28.856 254.453 29.144 254.657 29.3C255.221 28.652 255.797 27.668 256.145 26.72L255.149 26.468ZM255.821 24.176H259.061V25.076H255.821V24.176ZM255.821 22.532H259.061V23.396H255.821V22.532ZM260.117 25.892V21.704H257.753C257.873 21.344 257.993 20.936 258.125 20.54H260.513V19.532H253.157V22.796C253.157 24.74 253.049 27.44 251.705 29.324C251.957 29.444 252.449 29.744 252.629 29.912C254.045 27.932 254.249 24.884 254.249 22.796V20.54H256.865C256.817 20.9 256.733 21.332 256.661 21.704H254.825V25.892H256.853V28.808C256.853 28.94 256.805 28.988 256.661 28.988C256.517 28.988 256.013 29 255.509 28.976C255.629 29.252 255.773 29.66 255.809 29.936C256.589 29.948 257.117 29.936 257.465 29.78C257.825 29.624 257.909 29.348 257.909 28.844V25.892H260.117ZM258.509 26.744C259.013 27.488 259.553 28.508 259.757 29.156L260.777 28.7C260.561 28.052 259.985 27.08 259.469 26.348L258.509 26.744ZM263.719 18.932C263.215 19.76 262.183 20.756 261.283 21.38C261.463 21.572 261.751 21.968 261.883 22.184C262.903 21.476 264.007 20.348 264.727 19.316L263.719 18.932ZM263.983 21.416C263.311 22.628 262.219 23.84 261.163 24.608C261.343 24.848 261.667 25.4 261.775 25.628C262.171 25.316 262.567 24.932 262.951 24.512V29.936H263.995V23.264C264.355 22.772 264.691 22.268 264.967 21.764L263.983 21.416ZM266.311 21.668V20.768C267.115 20.696 267.955 20.6 268.783 20.48C268.783 20.852 268.771 21.26 268.771 21.668H266.311ZM270.823 25.448H267.871V24.596H270.823V25.448ZM267.871 28.712V27.848H270.823V28.712H267.871ZM267.871 26.228H270.823V27.068H267.871V26.228ZM272.371 22.616V21.668H269.815C269.839 21.2 269.851 20.732 269.863 20.312H269.827C270.571 20.18 271.267 20.024 271.867 19.856L271.087 19.088C269.911 19.448 267.919 19.76 266.119 19.952L265.279 19.736V23.372C265.279 25.1 265.183 27.452 264.283 29.192C264.559 29.312 264.967 29.672 265.135 29.888C266.179 27.968 266.311 25.208 266.311 23.384V22.616H268.735C268.723 23 268.699 23.36 268.675 23.684H266.875V29.948H267.871V29.492H270.823V29.876H271.867V23.684H269.671C269.707 23.36 269.731 23 269.755 22.616H272.371ZM275.517 26.816V24.14H276.513V23.108H275.517V20.72H276.777V19.7H273.141V20.72H274.485V23.108H273.309V24.14H274.485V27.164C273.957 27.344 273.465 27.488 273.057 27.608L273.321 28.652C274.341 28.316 275.625 27.872 276.837 27.44L276.657 26.432L275.517 26.816ZM284.001 25.736C283.497 24.908 282.417 23.576 281.565 22.616L280.857 23.108V22.136C281.073 21.668 281.265 21.188 281.445 20.708H283.965V19.652H277.317V20.708H280.221C279.465 22.724 278.277 24.56 276.849 25.712C277.101 25.928 277.545 26.372 277.725 26.6C278.457 25.94 279.141 25.1 279.753 24.152V29.912H280.857V23.36C281.685 24.356 282.633 25.616 283.065 26.432L284.001 25.736Z" fill="white"/>
<rect opacity="0.5" x="195" y="58" width="132" height="58" rx="7" fill="#D4DFFA"/>
<path d="M233.265 76.736V77.612H231.537V76.736H233.265ZM236.061 77.612H234.273V76.736H236.061V77.612ZM234.273 79.328V78.428H236.061V79.328H234.273ZM231.537 79.328V78.428H233.265V79.328H231.537ZM231.537 80.168H233.265V82.016H234.273V80.168H236.061V81.008C236.061 81.152 236.013 81.2 235.881 81.2C235.737 81.2 235.281 81.212 234.777 81.188C234.909 81.44 235.041 81.812 235.077 82.088C235.845 82.088 236.349 82.076 236.685 81.932C237.033 81.776 237.117 81.524 237.117 81.02V75.908H235.641C235.413 75.776 235.137 75.632 234.825 75.488C235.665 75.032 236.493 74.432 237.117 73.856L236.445 73.316L236.217 73.376H230.541V74.252H235.185C234.789 74.54 234.321 74.828 233.865 75.056C233.337 74.828 232.785 74.612 232.317 74.444L231.597 75.044C232.209 75.284 232.929 75.596 233.577 75.908H230.493V82.052H231.537V80.168ZM229.749 74.456C229.377 74 228.549 73.424 227.877 73.052L227.133 73.724C227.805 74.132 228.609 74.744 228.957 75.2L229.749 74.456ZM229.401 76.796C228.981 76.352 228.141 75.788 227.445 75.452L226.725 76.148C227.421 76.532 228.261 77.132 228.633 77.576L229.401 76.796ZM229.161 78.404H226.677V79.436H228.093V81.548C227.589 81.992 227.025 82.424 226.533 82.76L227.097 83.852C227.685 83.336 228.201 82.856 228.705 82.364C229.473 83.288 230.529 83.684 232.053 83.744C233.433 83.78 235.953 83.768 237.333 83.708C237.381 83.384 237.549 82.88 237.693 82.616C236.169 82.736 233.421 82.76 232.053 82.7C230.709 82.652 229.713 82.28 229.161 81.44V78.404ZM246.419 80.444C246.419 80.66 246.335 80.72 246.107 80.732C245.867 80.744 245.015 80.744 244.199 80.708C244.355 81.02 244.535 81.524 244.583 81.848C245.699 81.848 246.467 81.812 246.923 81.632C247.391 81.464 247.559 81.152 247.559 80.456V76.088H249.119V75.032H247.559V72.992H246.419V75.032H241.907V76.088H246.419V80.444ZM242.375 77.336C242.963 78.08 243.695 79.112 244.019 79.736L244.955 79.16C244.619 78.536 243.863 77.552 243.263 76.844L242.375 77.336ZM241.439 75.272C241.079 74.708 240.299 73.88 239.639 73.28L238.775 73.856C239.423 74.48 240.191 75.344 240.515 75.92L241.439 75.272ZM241.127 77.36H238.511V78.404H240.035V81.308C239.507 81.524 238.895 82.016 238.295 82.664L239.087 83.756C239.615 82.988 240.167 82.244 240.539 82.244C240.803 82.244 241.199 82.64 241.715 82.94C242.579 83.444 243.575 83.576 245.063 83.576C246.227 83.576 248.267 83.504 249.095 83.456C249.119 83.12 249.299 82.544 249.443 82.232C248.279 82.376 246.419 82.484 245.099 82.484C243.779 82.484 242.711 82.4 241.943 81.932C241.583 81.728 241.343 81.548 241.127 81.404V77.36ZM252.265 79.7V78.236H254.941V79.7H252.265ZM254.941 75.752V77.216H252.265V75.752H254.941ZM258.877 75.752V77.216H256.129V75.752H258.877ZM256.129 79.7V78.236H258.877V79.7H256.129ZM256.933 82.652C256.237 82.652 256.129 82.52 256.129 81.8V80.792H260.017V74.66H256.129V72.98H254.941V74.66H251.113V81.5H252.265V80.792H254.941V81.776C254.941 83.36 255.349 83.768 256.825 83.768H259.297C260.653 83.768 261.001 83.12 261.169 81.284C260.833 81.2 260.341 81.008 260.065 80.804C259.969 82.28 259.849 82.652 259.213 82.652H256.933ZM265.323 74.252C264.831 73.868 263.883 73.364 263.127 73.052L262.515 73.892C263.271 74.216 264.207 74.768 264.663 75.176L265.323 74.252ZM264.591 77.468C264.111 77.096 263.175 76.616 262.455 76.328L261.867 77.156C262.599 77.492 263.523 78.008 263.979 78.392L264.591 77.468ZM263.247 83.756C263.907 82.628 264.651 81.2 265.227 79.964L264.387 79.256C263.727 80.612 262.863 82.136 262.263 83.048L263.247 83.756ZM268.143 82.784C267.327 82.784 267.183 82.652 267.183 81.956V77.948L268.671 77.372V81.224H269.775V76.94L271.347 76.316C271.335 78.092 271.311 79.124 271.251 79.4C271.179 79.664 271.083 79.712 270.891 79.712C270.747 79.712 270.363 79.712 270.063 79.688C270.195 79.952 270.291 80.42 270.327 80.744C270.711 80.756 271.251 80.732 271.611 80.612C271.983 80.492 272.211 80.216 272.295 79.652C272.379 79.148 272.403 77.552 272.415 75.416L272.463 75.236L271.671 74.936L271.479 75.092L271.395 75.152L269.775 75.788V72.968H268.671V76.22L267.183 76.796V74.132H266.079V77.228L264.723 77.756L265.167 78.752L266.079 78.38V81.944C266.079 83.432 266.523 83.816 268.083 83.816H271.011C272.403 83.816 272.739 83.24 272.907 81.536C272.607 81.476 272.139 81.272 271.875 81.092C271.779 82.472 271.647 82.784 270.939 82.784H268.143ZM275.969 72.932C275.465 73.76 274.433 74.756 273.533 75.38C273.713 75.572 274.001 75.968 274.133 76.184C275.153 75.476 276.257 74.348 276.977 73.316L275.969 72.932ZM276.233 75.416C275.561 76.628 274.469 77.84 273.413 78.608C273.593 78.848 273.917 79.4 274.025 79.628C274.421 79.316 274.817 78.932 275.201 78.512V83.936H276.245V77.264C276.605 76.772 276.941 76.268 277.217 75.764L276.233 75.416ZM278.561 75.668V74.768C279.365 74.696 280.205 74.6 281.033 74.48C281.033 74.852 281.021 75.26 281.021 75.668H278.561ZM283.073 79.448H280.121V78.596H283.073V79.448ZM280.121 82.712V81.848H283.073V82.712H280.121ZM280.121 80.228H283.073V81.068H280.121V80.228ZM284.621 76.616V75.668H282.065C282.089 75.2 282.101 74.732 282.113 74.312H282.077C282.821 74.18 283.517 74.024 284.117 73.856L283.337 73.088C282.161 73.448 280.169 73.76 278.369 73.952L277.529 73.736V77.372C277.529 79.1 277.433 81.452 276.533 83.192C276.809 83.312 277.217 83.672 277.385 83.888C278.429 81.968 278.561 79.208 278.561 77.384V76.616H280.985C280.973 77 280.949 77.36 280.925 77.684H279.125V83.948H280.121V83.492H283.073V83.876H284.117V77.684H281.921C281.957 77.36 281.981 77 282.005 76.616H284.621ZM287.767 80.816V78.14H288.763V77.108H287.767V74.72H289.027V73.7H285.391V74.72H286.735V77.108H285.559V78.14H286.735V81.164C286.207 81.344 285.715 81.488 285.307 81.608L285.571 82.652C286.591 82.316 287.875 81.872 289.087 81.44L288.907 80.432L287.767 80.816ZM296.251 79.736C295.747 78.908 294.667 77.576 293.815 76.616L293.107 77.108V76.136C293.323 75.668 293.515 75.188 293.695 74.708H296.215V73.652H289.567V74.708H292.471C291.715 76.724 290.527 78.56 289.099 79.712C289.351 79.928 289.795 80.372 289.975 80.6C290.707 79.94 291.391 79.1 292.003 78.152V83.912H293.107V77.36C293.935 78.356 294.883 79.616 295.315 80.432L296.251 79.736ZM245.087 97.604H242.531V95.156H245.087V97.604ZM241.475 94.172V98.576H246.203V94.172H241.475ZM240.023 100.256V92.528H247.691V100.256H240.023ZM238.871 91.388V101.948H240.023V101.3H247.691V101.948H248.891V91.388H238.871ZM259.333 94.148C259.033 95.588 258.589 96.812 257.965 97.844C257.365 96.764 256.933 95.504 256.633 94.148H259.333ZM261.181 94.148V93.092H256.945C257.161 92.468 257.341 91.808 257.497 91.148L256.357 90.92C255.961 92.792 255.253 94.568 254.293 95.744V90.992H253.201V97.736L251.893 98.072V92.312H250.825V98.348C250.537 98.408 250.273 98.48 250.045 98.528L250.429 99.656C251.233 99.416 252.217 99.104 253.201 98.792V101.936H254.293V96.056C254.545 96.272 254.869 96.584 255.013 96.764C255.337 96.38 255.625 95.936 255.901 95.444C256.249 96.704 256.693 97.844 257.257 98.828C256.501 99.728 255.541 100.436 254.329 100.964C254.545 101.204 254.869 101.72 254.977 101.972C256.165 101.396 257.125 100.688 257.905 99.8C258.613 100.712 259.477 101.444 260.545 101.96C260.701 101.672 261.061 101.216 261.313 101C260.221 100.532 259.345 99.8 258.637 98.864C259.489 97.592 260.077 96.032 260.485 94.148H261.181ZM265.431 92.516C264.879 92.108 263.787 91.604 262.947 91.304L262.383 92.072C263.235 92.396 264.315 92.96 264.843 93.368L265.431 92.516ZM265.455 93.896C264.183 94.316 262.875 94.724 262.011 94.976L262.335 95.996C263.283 95.66 264.507 95.264 265.647 94.856L265.455 93.896ZM271.383 99.716V96.536H263.511V99.812H264.615V97.544H270.243V99.716H271.383ZM266.907 97.868C266.571 99.632 265.731 100.604 261.963 101.048C262.131 101.276 262.371 101.708 262.455 101.96C266.523 101.396 267.603 100.136 268.011 97.868H266.907ZM267.519 100.184C268.971 100.652 270.939 101.396 271.923 101.912L272.595 101C271.563 100.508 269.559 99.8 268.155 99.404L267.519 100.184ZM271.095 92.84C270.951 93.2 270.783 93.56 270.639 93.812L271.623 94.076C271.911 93.596 272.259 92.84 272.523 92.156L271.707 91.952L271.539 91.988H267.783C267.915 91.7 268.035 91.424 268.143 91.136L267.087 90.992C266.799 91.832 266.199 92.804 265.251 93.524C265.491 93.668 265.863 93.98 266.019 94.232C266.547 93.8 266.955 93.332 267.291 92.84H268.491C268.143 93.992 267.411 95.024 265.347 95.6C265.551 95.78 265.827 96.164 265.935 96.404C267.555 95.9 268.467 95.144 269.031 94.232C269.751 95.192 270.807 95.924 272.103 96.296C272.247 96.032 272.523 95.624 272.763 95.432C271.275 95.108 270.063 94.352 269.439 93.332C269.499 93.164 269.547 93.008 269.595 92.84H271.095ZM276.797 92.264C276.377 91.844 275.489 91.34 274.793 91.028L274.157 91.832C274.865 92.18 275.717 92.744 276.125 93.152L276.797 92.264ZM276.221 95.372C275.789 94.988 274.913 94.508 274.205 94.208L273.581 95.036C274.289 95.348 275.165 95.888 275.561 96.284L276.221 95.372ZM275.549 97.328C275.021 98.708 274.301 100.244 273.797 101.18L274.805 101.78C275.357 100.64 275.969 99.212 276.449 97.952L275.549 97.328ZM279.149 98.468C278.849 99.308 278.357 100.148 277.781 100.724C278.033 100.856 278.453 101.144 278.657 101.3C279.221 100.652 279.797 99.668 280.145 98.72L279.149 98.468ZM279.821 96.176H283.061V97.076H279.821V96.176ZM279.821 94.532H283.061V95.396H279.821V94.532ZM284.117 97.892V93.704H281.753C281.873 93.344 281.993 92.936 282.125 92.54H284.513V91.532H277.157V94.796C277.157 96.74 277.049 99.44 275.705 101.324C275.957 101.444 276.449 101.744 276.629 101.912C278.045 99.932 278.249 96.884 278.249 94.796V92.54H280.865C280.817 92.9 280.733 93.332 280.661 93.704H278.825V97.892H280.853V100.808C280.853 100.94 280.805 100.988 280.661 100.988C280.517 100.988 280.013 101 279.509 100.976C279.629 101.252 279.773 101.66 279.809 101.936C280.589 101.948 281.117 101.936 281.465 101.78C281.825 101.624 281.909 101.348 281.909 100.844V97.892H284.117ZM282.509 98.744C283.013 99.488 283.553 100.508 283.757 101.156L284.777 100.7C284.561 100.052 283.985 99.08 283.469 98.348L282.509 98.744Z" fill="#283895"/>
<rect opacity="0.5" x="195" y="130" width="132" height="58" rx="7" fill="#D4DFFA"/>
<path d="M229.034 146.744H223.466V146.06H229.034V146.744ZM229.034 148.148H223.466V147.452H229.034V148.148ZM230.15 145.304H222.398V148.892H230.15V145.304ZM229.79 151.856C229.514 152.42 229.142 152.924 228.698 153.368C228.278 152.924 227.93 152.408 227.69 151.856H229.79ZM222.998 154.124V153.344H224.882V153.944L222.998 154.124ZM222.998 151.832H224.882V152.54H222.998V151.832ZM224.882 150.368V151.04H222.998V150.368H224.882ZM230.462 150.956L230.27 150.992H226.322V151.856H227.402L226.754 152.036C227.066 152.768 227.474 153.428 227.966 153.992C227.354 154.436 226.658 154.784 225.95 155V150.368H231.494V149.456H220.982V150.368H221.966V154.22C221.57 154.256 221.198 154.292 220.874 154.316L220.958 155.288C222.05 155.18 223.466 155.024 224.882 154.868V155.936H225.95V155.084C226.154 155.3 226.394 155.66 226.502 155.9C227.294 155.612 228.05 155.216 228.722 154.7C229.394 155.252 230.198 155.672 231.11 155.936C231.242 155.672 231.542 155.264 231.77 155.072C230.906 154.856 230.126 154.508 229.478 154.04C230.21 153.296 230.798 152.36 231.146 151.22L230.462 150.956ZM237.436 145.1V154.472C237.436 154.712 237.352 154.784 237.1 154.796C236.848 154.808 235.972 154.808 235.156 154.772C235.336 155.096 235.528 155.624 235.6 155.936C236.74 155.948 237.508 155.912 237.988 155.732C238.456 155.54 238.648 155.216 238.648 154.472V145.1H237.436ZM240.304 148.16C241.276 149.888 242.224 152.12 242.476 153.536L243.688 153.056C243.388 151.604 242.404 149.42 241.384 147.752L240.304 148.16ZM234.328 147.848C234.052 149.432 233.416 151.496 232.408 152.744C232.708 152.852 233.2 153.128 233.476 153.332C234.52 152 235.192 149.828 235.588 148.076L234.328 147.848ZM247.386 145.112C246.618 146.948 245.334 148.736 244.002 149.852C244.206 150.128 244.554 150.728 244.674 151.016C245.142 150.584 245.622 150.068 246.066 149.504V155.924H247.182V147.932C247.686 147.14 248.118 146.312 248.478 145.472L247.386 145.112ZM251.466 154.616C250.878 154.616 250.782 154.508 250.782 153.848V150.68C252.27 149.708 253.698 148.556 254.766 147.464L253.722 146.936C253.014 147.728 251.946 148.604 250.782 149.396V145.088H249.642V150.116C249.102 150.44 248.562 150.728 248.046 150.98C248.238 151.208 248.514 151.652 248.658 151.916C248.982 151.748 249.306 151.568 249.642 151.376V153.836C249.642 155.288 250.038 155.696 251.358 155.696H253.542C254.754 155.696 255.078 155.048 255.222 153.248C254.898 153.176 254.442 152.96 254.166 152.768C254.094 154.256 253.998 154.616 253.446 154.616H251.466ZM264.56 153.428V154.652H258.572V153.428H264.56ZM257.516 155.972H258.572V155.564H264.56V155.948H265.676V152.468H257.516V155.972ZM263.6 151.076H259.448V150.164H263.6V151.076ZM258.404 149.396V151.844H264.692V149.396H258.404ZM256.58 150.26H257.6V148.76H265.448V150.26H266.516V147.884H256.58V150.26ZM264.176 145.856V144.944H263.072V145.856H259.88V144.944H258.776V145.856H256.268V146.864H258.776V147.584H259.88V146.864H263.072V147.584H264.176V146.864H266.756V145.856H264.176ZM277.342 147.596C276.898 148.976 276.082 150.728 275.446 151.82L276.37 152.3C277.018 151.172 277.798 149.516 278.362 148.088L277.342 147.596ZM270.862 151.808C270.55 150.728 269.83 148.928 269.23 147.56L268.21 147.884C268.798 149.264 269.47 151.112 269.746 152.216L270.862 151.808ZM275.302 154.256V145.1H274.162V154.256H272.35V145.088H271.21V154.256H267.982V155.36H278.53V154.256H275.302ZM285.828 148.724C286.944 147.992 288.132 147.08 289.296 146.036L288.48 145.4L288.228 145.496H283.512V146.552H287.04C286.092 147.38 285.108 148.064 284.748 148.292C284.292 148.58 283.848 148.844 283.524 148.892C283.68 149.156 283.92 149.684 283.992 149.936C284.1 149.828 284.532 149.768 285.048 149.768H285.576C285.132 150.956 284.364 151.976 283.392 152.636L283.248 151.976C282.852 152.12 282.444 152.264 282.048 152.42V148.868H283.296V147.812H282.048V145.088H281.004V147.812H279.612V148.868H281.004V152.792C280.416 152.996 279.888 153.188 279.456 153.32L279.816 154.46C280.86 154.04 282.216 153.5 283.476 152.984L283.44 152.84C283.656 153.008 283.944 153.224 284.076 153.356C285.168 152.528 286.092 151.292 286.62 149.768H287.484C286.788 152.204 285.528 154.124 283.62 155.288C283.872 155.432 284.304 155.732 284.484 155.9C286.38 154.58 287.724 152.504 288.504 149.768H289.152C288.948 153.068 288.72 154.364 288.42 154.688C288.288 154.844 288.192 154.88 288 154.868C287.784 154.868 287.352 154.868 286.884 154.82C287.052 155.108 287.16 155.564 287.184 155.864C287.7 155.888 288.204 155.888 288.516 155.84C288.864 155.804 289.128 155.684 289.392 155.372C289.812 154.868 290.04 153.368 290.292 149.228C290.304 149.072 290.316 148.724 290.316 148.724H285.828ZM295.418 148.868V150.716H293.018C293.03 150.488 293.03 150.272 293.03 150.068V148.868H295.418ZM296.498 151.724V147.86H293.03V146.972C294.254 146.72 295.586 146.348 296.594 145.916L295.682 145.088C294.938 145.448 293.726 145.832 292.586 146.108L291.938 145.916V150.056C291.938 151.604 291.866 153.62 291.098 155.12C291.362 155.24 291.794 155.612 291.962 155.852C292.622 154.676 292.886 153.116 292.982 151.724H296.498ZM302.306 148.964H298.238V147.2C299.594 146.864 301.058 146.432 302.138 145.892L301.154 145.064C300.41 145.496 299.186 145.928 297.998 146.252L297.146 146.048V149.276C297.146 151.088 296.978 153.44 295.322 155.168C295.598 155.3 295.994 155.684 296.15 155.924C297.758 154.256 298.154 151.88 298.226 150.032H299.99V155.948H301.106V150.032H302.306V148.964ZM239.453 170.264C239.117 170.744 238.673 171.176 238.169 171.56C237.593 171.176 237.101 170.744 236.693 170.264H239.453ZM240.341 169.244L240.125 169.292H237.065C237.197 168.968 237.341 168.656 237.461 168.308H241.889V167.312H240.461L241.145 166.844C240.845 166.484 240.257 165.884 239.825 165.452L239.021 165.956C239.417 166.376 239.921 166.928 240.209 167.312H237.785C237.953 166.724 238.097 166.112 238.217 165.452L237.113 165.296C237.005 166.004 236.849 166.688 236.657 167.312H235.313C235.553 166.82 235.793 166.184 235.925 165.596L234.761 165.44C234.653 166.172 234.281 166.916 234.185 167.084C234.089 167.3 233.957 167.432 233.813 167.48C233.945 167.732 234.125 168.224 234.185 168.476C234.293 168.368 234.773 168.308 235.433 168.308H236.321C235.613 170.06 234.557 171.392 232.949 172.28C233.165 172.472 233.549 172.94 233.669 173.18C234.629 172.592 235.409 171.86 236.057 171.008C236.417 171.416 236.813 171.788 237.245 172.136C236.441 172.58 235.517 172.904 234.605 173.108C234.809 173.336 235.085 173.744 235.205 174.032C236.261 173.744 237.305 173.336 238.229 172.784C239.177 173.324 240.281 173.72 241.481 173.972C241.637 173.684 241.925 173.252 242.165 173.024C241.073 172.844 240.041 172.532 239.165 172.112C239.981 171.452 240.653 170.624 241.097 169.628L240.341 169.244ZM238.121 164.036C237.941 163.676 237.701 163.22 237.509 162.884L236.345 163.1C236.501 163.376 236.657 163.724 236.789 164.036H232.145V167.372C232.145 169.112 232.073 171.62 231.221 173.348C231.485 173.468 231.977 173.792 232.193 173.996C233.129 172.124 233.285 169.268 233.285 167.372V165.092H242.165V164.036H238.121ZM243.595 167.9C245.743 167.84 248.995 167.732 252.079 167.612C252.403 167.9 252.679 168.176 252.871 168.416L253.771 167.78C253.123 167.024 251.755 166.028 250.639 165.38L249.811 165.932C250.171 166.148 250.555 166.412 250.939 166.688C249.559 166.724 248.179 166.76 246.907 166.784C247.267 166.28 247.651 165.704 247.987 165.176L247.855 165.128H253.795V164.144H249.043V162.932H247.939V164.144H243.235V165.128H246.691C246.415 165.668 246.043 166.304 245.707 166.808C244.903 166.82 244.159 166.832 243.535 166.844L243.595 167.9ZM253.891 169.676H251.155V168.092H250.039V169.676H246.955V169.64V168.152H245.863V169.616V169.676H243.175V170.696H245.731C245.491 171.584 244.807 172.472 242.971 173.12C243.211 173.312 243.547 173.732 243.691 173.984C245.923 173.156 246.655 171.92 246.871 170.696H250.039V173.936H251.155V170.696H253.891V169.676ZM259.197 168.212L257.937 168.572V166.364H259.053V165.308H257.937V162.932H256.905V165.308H256.137C256.221 164.804 256.281 164.288 256.341 163.772L255.393 163.616C255.273 165.044 255.057 166.556 254.637 167.528C254.865 167.648 255.273 167.888 255.453 168.032C255.633 167.576 255.801 167 255.945 166.364H256.905V168.884C256.089 169.112 255.333 169.316 254.733 169.472L255.021 170.54L256.905 169.964V173.936H257.937V169.64C258.405 169.496 258.873 169.352 259.341 169.196L259.197 168.212ZM261.117 164.864C261.297 164.312 261.477 163.724 261.609 163.124L260.601 162.932C260.205 164.708 259.521 166.412 258.549 167.468C258.789 167.612 259.233 167.948 259.413 168.104C259.905 167.516 260.337 166.76 260.709 165.896H261.561C261.009 167.744 260.025 169.64 258.789 170.6C259.089 170.756 259.449 171.032 259.653 171.236C260.925 170.108 261.969 167.912 262.497 165.896H263.301C262.701 168.8 261.441 171.668 259.509 173.048C259.821 173.216 260.217 173.504 260.433 173.708C262.377 172.148 263.661 168.992 264.273 165.896H264.609C264.393 170.456 264.141 172.16 263.793 172.556C263.673 172.724 263.553 172.772 263.361 172.772C263.133 172.772 262.689 172.772 262.185 172.724C262.365 173.036 262.485 173.492 262.497 173.816C263.025 173.84 263.529 173.852 263.853 173.792C264.237 173.732 264.477 173.624 264.729 173.264C265.197 172.676 265.425 170.78 265.689 165.392C265.701 165.248 265.701 164.864 265.701 164.864H261.117ZM275.435 166.82H272.123V166.208H275.435V166.82ZM275.435 168.152H272.123V167.504H275.435V168.152ZM275.435 169.472H272.123V168.836H275.435V169.472ZM273.215 165.5H271.115V170.192H276.503V165.5H274.307V164.768H277.379V163.844H274.307V162.932H273.215V163.844H270.203V164.768H273.215V165.5ZM269.855 171.728H277.547V170.792H269.855V171.728ZM270.275 169.436L269.027 169.952V166.856H270.215V165.8H269.027V163.1H267.995V165.8H266.675V166.856H267.995V170.372C267.407 170.612 266.867 170.828 266.435 170.984L266.867 172.1C267.923 171.644 269.279 171.044 270.527 170.456L270.275 169.436ZM272.135 171.824C271.523 172.364 270.479 172.856 269.495 173.18C269.747 173.36 270.143 173.756 270.335 173.96C271.307 173.552 272.447 172.892 273.179 172.184L272.135 171.824ZM274.319 172.328C275.183 172.832 276.095 173.48 276.611 173.948L277.631 173.408C277.031 172.94 275.999 172.28 275.099 171.776L274.319 172.328ZM282.001 169.328C281.593 169.508 281.173 169.688 280.777 169.844V166.808H282.097V165.752H280.777V163.088H279.733V165.752H278.341V166.808H279.733V170.288C279.145 170.516 278.617 170.732 278.197 170.876L278.629 171.992C279.685 171.524 281.017 170.912 282.253 170.324L282.001 169.328ZM283.561 166.64H285.097V167.948H283.561V166.64ZM283.561 164.456H285.097V165.74H283.561V164.456ZM287.653 165.74H286.117V164.456H287.653V165.74ZM287.653 167.948H286.117V166.64H287.653V167.948ZM286.213 172.544V171.116H288.901V170.108H286.213V168.896H288.721V163.496H282.553V168.896H285.001V170.108H282.433V171.116H285.001V172.544H281.557V173.576H289.297V172.544H286.213Z" fill="#283895"/>
<rect opacity="0.5" x="195" y="202" width="132" height="40" rx="7" fill="#D4DFFA"/>
<path d="M219.376 218.264C219.076 217.868 218.464 217.352 217.936 217.004L217.264 217.52C217.804 217.892 218.404 218.456 218.668 218.84L219.376 218.264ZM211.228 219.488C210.904 218.948 210.172 218.192 209.548 217.652L208.792 218.3C209.404 218.864 210.112 219.656 210.4 220.196L211.228 219.488ZM210.268 221.912C209.716 223.352 208.972 224.972 208.432 225.956L209.392 226.604C209.968 225.416 210.604 223.88 211.096 222.548L210.268 221.912ZM215.836 220.736H213.004V221.564H215.836V220.736ZM215.008 223.196V224.684H213.844V223.196H215.008ZM213.844 225.512H215.74V222.368H213.124V226.028H213.844V225.512ZM218.152 221.108C217.948 221.948 217.672 222.716 217.336 223.424C217.228 222.464 217.132 221.3 217.096 219.932H219.34V218.924H217.072C217.06 218.3 217.048 217.628 217.06 216.932H215.992C216.004 217.628 216.016 218.288 216.028 218.924H211.624V221.816C211.624 223.46 211.504 225.728 210.364 227.336C210.604 227.432 211.024 227.72 211.204 227.888C212.416 226.172 212.608 223.616 212.608 221.828V219.932H216.064C216.148 221.888 216.292 223.52 216.52 224.804C215.8 225.8 214.9 226.592 213.772 227.18C214 227.348 214.384 227.732 214.528 227.924C215.392 227.408 216.148 226.772 216.796 226.016C217.168 227.276 217.672 227.948 218.368 227.948C219.16 227.948 219.484 227.624 219.628 225.68C219.388 225.584 219.064 225.344 218.86 225.116C218.8 226.472 218.68 226.88 218.464 226.88C218.152 226.88 217.828 226.244 217.576 224.972C218.248 223.94 218.764 222.716 219.136 221.312L218.152 221.108ZM225.186 216.932V222.836C225.186 223.028 225.114 223.076 224.898 223.088C224.694 223.088 223.962 223.088 223.218 223.076C223.386 223.388 223.566 223.88 223.626 224.216C224.61 224.216 225.294 224.192 225.738 224C226.182 223.82 226.314 223.508 226.314 222.86V216.932H225.186ZM227.754 218.816C228.75 220.064 229.806 221.732 230.19 222.824L231.33 222.212C230.886 221.096 229.782 219.488 228.786 218.288L227.754 218.816ZM228.438 221.96C227.43 225.068 225.21 226.364 221.118 226.868C221.346 227.168 221.598 227.636 221.718 227.984C226.062 227.288 228.474 225.8 229.602 222.308L228.438 221.96ZM222.51 218.432C222.102 219.716 221.238 221.312 220.206 222.296C220.506 222.44 220.962 222.74 221.214 222.956C222.27 221.888 223.17 220.184 223.746 218.72L222.51 218.432ZM240.56 225.428V226.652H234.572V225.428H240.56ZM233.516 227.972H234.572V227.564H240.56V227.948H241.676V224.468H233.516V227.972ZM239.6 223.076H235.448V222.164H239.6V223.076ZM234.404 221.396V223.844H240.692V221.396H234.404ZM232.58 222.26H233.6V220.76H241.448V222.26H242.516V219.884H232.58V222.26ZM240.176 217.856V216.944H239.072V217.856H235.88V216.944H234.776V217.856H232.268V218.864H234.776V219.584H235.88V218.864H239.072V219.584H240.176V218.864H242.756V217.856H240.176ZM253.342 219.596C252.898 220.976 252.082 222.728 251.446 223.82L252.37 224.3C253.018 223.172 253.798 221.516 254.362 220.088L253.342 219.596ZM246.862 223.808C246.55 222.728 245.83 220.928 245.23 219.56L244.21 219.884C244.798 221.264 245.47 223.112 245.746 224.216L246.862 223.808ZM251.302 226.256V217.1H250.162V226.256H248.35V217.088H247.21V226.256H243.982V227.36H254.53V226.256H251.302ZM261.828 220.724C262.944 219.992 264.132 219.08 265.296 218.036L264.48 217.4L264.228 217.496H259.512V218.552H263.04C262.092 219.38 261.108 220.064 260.748 220.292C260.292 220.58 259.848 220.844 259.524 220.892C259.68 221.156 259.92 221.684 259.992 221.936C260.1 221.828 260.532 221.768 261.048 221.768H261.576C261.132 222.956 260.364 223.976 259.392 224.636L259.248 223.976C258.852 224.12 258.444 224.264 258.048 224.42V220.868H259.296V219.812H258.048V217.088H257.004V219.812H255.612V220.868H257.004V224.792C256.416 224.996 255.888 225.188 255.456 225.32L255.816 226.46C256.86 226.04 258.216 225.5 259.476 224.984L259.44 224.84C259.656 225.008 259.944 225.224 260.076 225.356C261.168 224.528 262.092 223.292 262.62 221.768H263.484C262.788 224.204 261.528 226.124 259.62 227.288C259.872 227.432 260.304 227.732 260.484 227.9C262.38 226.58 263.724 224.504 264.504 221.768H265.152C264.948 225.068 264.72 226.364 264.42 226.688C264.288 226.844 264.192 226.88 264 226.868C263.784 226.868 263.352 226.868 262.884 226.82C263.052 227.108 263.16 227.564 263.184 227.864C263.7 227.888 264.204 227.888 264.516 227.84C264.864 227.804 265.128 227.684 265.392 227.372C265.812 226.868 266.04 225.368 266.292 221.228C266.304 221.072 266.316 220.724 266.316 220.724H261.828ZM271.418 220.868V222.716H269.018C269.03 222.488 269.03 222.272 269.03 222.068V220.868H271.418ZM272.498 223.724V219.86H269.03V218.972C270.254 218.72 271.586 218.348 272.594 217.916L271.682 217.088C270.938 217.448 269.726 217.832 268.586 218.108L267.938 217.916V222.056C267.938 223.604 267.866 225.62 267.098 227.12C267.362 227.24 267.794 227.612 267.962 227.852C268.622 226.676 268.886 225.116 268.982 223.724H272.498ZM278.306 220.964H274.238V219.2C275.594 218.864 277.058 218.432 278.138 217.892L277.154 217.064C276.41 217.496 275.186 217.928 273.998 218.252L273.146 218.048V221.276C273.146 223.088 272.978 225.44 271.322 227.168C271.598 227.3 271.994 227.684 272.15 227.924C273.758 226.256 274.154 223.88 274.226 222.032H275.99V227.948H277.106V222.032H278.306V220.964ZM285.148 223.328V221.552H288.052V223.328H285.148ZM281.38 223.328C281.416 222.884 281.428 222.44 281.428 222.032V221.552H284.032V223.328H281.38ZM284.032 218.816V220.508H281.428V218.816H284.032ZM288.052 220.508H285.148V218.816H288.052V220.508ZM289.168 217.748H280.324V222.02C280.324 223.712 280.204 225.836 278.896 227.288C279.148 227.42 279.604 227.804 279.772 228.02C280.648 227.048 281.08 225.704 281.272 224.384H284.032V227.816H285.148V224.384H288.052V226.532C288.052 226.76 287.968 226.832 287.752 226.832C287.524 226.832 286.732 226.844 285.964 226.808C286.108 227.096 286.288 227.588 286.336 227.888C287.44 227.9 288.136 227.876 288.58 227.696C289.012 227.528 289.168 227.192 289.168 226.544V217.748ZM294.462 219.872L294.246 219.92H290.958V221.048H293.838C293.274 223.292 292.11 225.008 290.622 225.968C290.898 226.136 291.342 226.592 291.534 226.844C293.262 225.632 294.642 223.34 295.218 220.148L294.462 219.872ZM300.45 218.828C299.778 219.728 298.722 220.844 297.798 221.66C297.426 220.844 297.114 219.98 296.874 219.08V216.944H295.698V226.436C295.698 226.652 295.602 226.736 295.362 226.736C295.134 226.748 294.366 226.748 293.55 226.712C293.718 227.06 293.934 227.612 293.982 227.948C295.086 227.948 295.806 227.912 296.262 227.72C296.694 227.516 296.874 227.168 296.874 226.436V222.008C297.786 224.24 299.106 226.052 301.026 227.06C301.23 226.724 301.614 226.256 301.89 226.028C300.354 225.344 299.166 224.108 298.278 222.572C299.286 221.804 300.534 220.592 301.482 219.56L300.45 218.828ZM310.712 218.456H305.228V217.916H310.712V218.456ZM310.712 219.596H305.228V219.044H310.712V219.596ZM311.84 217.304H304.148V220.208H311.84V217.304ZM313.376 220.664H302.66V221.48H313.376V220.664ZM304.988 224.3V223.736H307.448V224.3H304.988ZM304.988 222.572H307.448V223.124H304.988V222.572ZM311.072 223.124H308.528V222.572H311.072V223.124ZM311.072 224.3H308.528V223.736H311.072V224.3ZM308.528 226.808V226.232H312.404V225.476H308.528V224.936H312.164V221.936H303.932V224.936H307.448V225.476H303.632V226.232H307.448V226.808H302.612V227.66H313.424V226.808H308.528Z" fill="#283895"/>
<rect opacity="0.5" x="195" y="256" width="132" height="58" rx="7" fill="#D4DFFA"/>
<path d="M217.219 280.148C219.091 280.568 221.539 281.384 222.775 281.996L223.399 281C222.091 280.388 219.607 279.632 217.795 279.272L217.219 280.148ZM218.287 277.244C219.463 277.568 220.963 278.156 221.731 278.6L222.295 277.64C221.503 277.208 219.967 276.668 218.815 276.392L218.287 277.244ZM217.699 272.492H223.579V274.124H217.687C217.699 273.956 217.699 273.8 217.699 273.644V272.492ZM224.719 275.18V271.436H216.523V273.632C216.523 275.288 216.355 277.556 214.795 279.14C215.035 279.308 215.491 279.752 215.647 280.004C216.955 278.684 217.447 276.824 217.627 275.18H221.851C222.535 277.22 223.663 278.936 225.223 279.872C225.391 279.584 225.751 279.152 226.015 278.936C224.659 278.216 223.603 276.788 222.979 275.18H224.719ZM234.837 272.456H229.353V271.916H234.837V272.456ZM234.837 273.596H229.353V273.044H234.837V273.596ZM235.965 271.304H228.273V274.208H235.965V271.304ZM237.501 274.664H226.785V275.48H237.501V274.664ZM229.113 278.3V277.736H231.573V278.3H229.113ZM229.113 276.572H231.573V277.124H229.113V276.572ZM235.197 277.124H232.653V276.572H235.197V277.124ZM235.197 278.3H232.653V277.736H235.197V278.3ZM232.653 280.808V280.232H236.529V279.476H232.653V278.936H236.289V275.936H228.057V278.936H231.573V279.476H227.757V280.232H231.573V280.808H226.737V281.66H237.549V280.808H232.653ZM249.251 272.264C248.951 271.868 248.339 271.352 247.811 271.004L247.139 271.52C247.679 271.892 248.279 272.456 248.543 272.84L249.251 272.264ZM241.103 273.488C240.779 272.948 240.047 272.192 239.423 271.652L238.667 272.3C239.279 272.864 239.987 273.656 240.275 274.196L241.103 273.488ZM240.143 275.912C239.591 277.352 238.847 278.972 238.307 279.956L239.267 280.604C239.843 279.416 240.479 277.88 240.971 276.548L240.143 275.912ZM245.711 274.736H242.879V275.564H245.711V274.736ZM244.883 277.196V278.684H243.719V277.196H244.883ZM243.719 279.512H245.615V276.368H242.999V280.028H243.719V279.512ZM248.027 275.108C247.823 275.948 247.547 276.716 247.211 277.424C247.103 276.464 247.007 275.3 246.971 273.932H249.215V272.924H246.947C246.935 272.3 246.923 271.628 246.935 270.932H245.867C245.879 271.628 245.891 272.288 245.903 272.924H241.499V275.816C241.499 277.46 241.379 279.728 240.239 281.336C240.479 281.432 240.899 281.72 241.079 281.888C242.291 280.172 242.483 277.616 242.483 275.828V273.932H245.939C246.023 275.888 246.167 277.52 246.395 278.804C245.675 279.8 244.775 280.592 243.647 281.18C243.875 281.348 244.259 281.732 244.403 281.924C245.267 281.408 246.023 280.772 246.671 280.016C247.043 281.276 247.547 281.948 248.243 281.948C249.035 281.948 249.359 281.624 249.503 279.68C249.263 279.584 248.939 279.344 248.735 279.116C248.675 280.472 248.555 280.88 248.339 280.88C248.027 280.88 247.703 280.244 247.451 278.972C248.123 277.94 248.639 276.716 249.011 275.312L248.027 275.108ZM255.061 270.932V276.836C255.061 277.028 254.989 277.076 254.773 277.088C254.569 277.088 253.837 277.088 253.093 277.076C253.261 277.388 253.441 277.88 253.501 278.216C254.485 278.216 255.169 278.192 255.613 278C256.057 277.82 256.189 277.508 256.189 276.86V270.932H255.061ZM257.629 272.816C258.625 274.064 259.681 275.732 260.065 276.824L261.205 276.212C260.761 275.096 259.657 273.488 258.661 272.288L257.629 272.816ZM258.313 275.96C257.305 279.068 255.085 280.364 250.993 280.868C251.221 281.168 251.473 281.636 251.593 281.984C255.937 281.288 258.349 279.8 259.477 276.308L258.313 275.96ZM252.385 272.432C251.977 273.716 251.113 275.312 250.081 276.296C250.381 276.44 250.837 276.74 251.089 276.956C252.145 275.888 253.045 274.184 253.621 272.72L252.385 272.432ZM261.939 275.708V276.932H272.859V275.708H261.939ZM276.977 272.876H273.869V273.944H276.977V272.876ZM277.001 276.896C275.753 277.676 274.421 278.492 273.569 278.972L274.121 280.04C275.069 279.44 276.269 278.66 277.337 277.892L277.001 276.896ZM281.009 274.148H283.145C282.905 274.892 282.569 275.672 282.293 276.188C282.557 276.296 283.001 276.524 283.241 276.644C283.685 275.84 284.249 274.604 284.573 273.44L283.745 272.972L283.529 273.032H279.017C279.221 272.444 279.389 271.82 279.533 271.184L278.369 270.968C277.985 272.864 277.253 274.724 276.257 275.852C276.545 275.984 277.073 276.284 277.313 276.464C277.793 275.84 278.225 275.048 278.597 274.148H279.833V275.528C279.833 276.74 279.149 279.644 275.693 281.012C275.885 281.216 276.245 281.696 276.377 281.936C279.041 280.808 280.193 278.564 280.421 277.472C280.613 278.564 281.681 280.868 284.033 281.936C284.189 281.672 284.537 281.192 284.741 280.928C281.645 279.584 281.009 276.68 281.009 275.528V274.148ZM286.063 276.584C286.351 275.696 286.567 274.304 286.627 273.32L285.823 273.2C285.739 274.172 285.511 275.492 285.223 276.296L286.063 276.584ZM293.371 280.484V277.76H295.699V276.716H293.371V274.46H295.963V273.404H293.371V270.98H292.255V273.404H290.995C291.139 272.84 291.271 272.252 291.355 271.652L290.263 271.472C290.107 272.6 289.843 273.728 289.471 274.664C289.327 274.16 288.991 273.428 288.691 272.864L287.983 273.152V270.932H286.867V281.936H287.983V273.332C288.283 273.968 288.595 274.736 288.703 275.216L289.375 274.892C289.243 275.204 289.087 275.48 288.931 275.72C289.207 275.828 289.699 276.08 289.927 276.236C290.203 275.744 290.467 275.132 290.695 274.46H292.255V276.716H289.819V277.76H292.255V280.484H288.919V281.54H296.275V280.484H293.371ZM303.273 277.328V275.552H306.177V277.328H303.273ZM299.505 277.328C299.541 276.884 299.553 276.44 299.553 276.032V275.552H302.157V277.328H299.505ZM302.157 272.816V274.508H299.553V272.816H302.157ZM306.177 274.508H303.273V272.816H306.177V274.508ZM307.293 271.748H298.449V276.02C298.449 277.712 298.329 279.836 297.021 281.288C297.273 281.42 297.729 281.804 297.897 282.02C298.773 281.048 299.205 279.704 299.397 278.384H302.157V281.816H303.273V278.384H306.177V280.532C306.177 280.76 306.093 280.832 305.877 280.832C305.649 280.832 304.857 280.844 304.089 280.808C304.233 281.096 304.413 281.588 304.461 281.888C305.565 281.9 306.261 281.876 306.705 281.696C307.137 281.528 307.293 281.192 307.293 280.544V271.748ZM252.006 292.46H247.506V290.504H252.006V292.46ZM253.146 289.436H246.438V293.528H253.146V289.436ZM247.986 295.76V298.256H245.802V295.76H247.986ZM244.746 299.948H245.802V299.324H247.986V299.864H249.09V294.692H244.746V299.948ZM251.334 298.256V295.76H253.71V298.256H251.334ZM250.266 294.692V299.948H251.334V299.324H253.71V299.888H254.826V294.692H250.266ZM258.752 288.896C258.08 290.66 256.952 292.4 255.776 293.504C255.968 293.768 256.28 294.368 256.388 294.632C256.784 294.236 257.18 293.768 257.552 293.264V299.996H258.608V291.656C259.064 290.876 259.46 290.048 259.796 289.244L258.752 288.896ZM260.756 294.68V293.156H262.592V294.308V294.68H260.756ZM265.592 293.156V294.68H263.696C263.696 294.56 263.696 294.428 263.696 294.308V293.156H265.592ZM266.66 295.604V292.232H263.696V291.2H267.008V290.18H263.696V288.992H262.592V290.18H259.436V291.2H262.592V292.232H259.736V295.604H262.52C262.448 296.18 262.292 296.732 261.98 297.236C261.428 296.828 260.972 296.348 260.636 295.796L259.724 296.084C260.144 296.816 260.684 297.44 261.332 297.968C260.804 298.412 260.036 298.796 258.968 299.048C259.208 299.276 259.52 299.72 259.652 299.972C260.816 299.624 261.644 299.156 262.244 298.592C263.408 299.276 264.836 299.72 266.492 299.96C266.636 299.648 266.936 299.192 267.152 298.952C265.496 298.784 264.044 298.4 262.892 297.8C263.336 297.14 263.528 296.396 263.624 295.604H266.66ZM273.898 295.328V293.552H276.802V295.328H273.898ZM270.13 295.328C270.166 294.884 270.178 294.44 270.178 294.032V293.552H272.782V295.328H270.13ZM272.782 290.816V292.508H270.178V290.816H272.782ZM276.802 292.508H273.898V290.816H276.802V292.508ZM277.918 289.748H269.074V294.02C269.074 295.712 268.954 297.836 267.646 299.288C267.898 299.42 268.354 299.804 268.522 300.02C269.398 299.048 269.83 297.704 270.022 296.384H272.782V299.816H273.898V296.384H276.802V298.532C276.802 298.76 276.718 298.832 276.502 298.832C276.274 298.832 275.482 298.844 274.714 298.808C274.858 299.096 275.038 299.588 275.086 299.888C276.19 299.9 276.886 299.876 277.33 299.696C277.762 299.528 277.918 299.192 277.918 298.544V289.748Z" fill="#283895"/>
<rect y="58" width="46" height="256" rx="7" fill="#F5F5F5"/>
<path d="M14.245 172.868V173.804H18.901V172.868H14.245ZM18.157 172.868V173.384H18.373C18.745 177.464 19.549 181.076 21.769 182.972C21.985 182.744 22.381 182.42 22.645 182.252C20.425 180.548 19.609 176.96 19.261 172.868H18.157ZM14.557 175.148C14.233 177.68 13.465 180.656 11.593 182.348C11.821 182.504 12.169 182.816 12.337 182.996C14.293 181.184 15.121 178.064 15.577 175.292L14.557 175.148ZM23.619 175.376V176.288H34.167V175.376H23.619ZM29.463 175.736L28.563 175.952C29.463 179.18 31.095 181.712 33.687 182.936C33.843 182.684 34.143 182.3 34.371 182.096C31.875 181.064 30.243 178.64 29.463 175.736ZM28.407 171.932C28.383 174.812 28.479 179.984 23.379 182.204C23.631 182.384 23.919 182.708 24.063 182.948C29.307 180.548 29.331 175.076 29.379 171.932H28.407ZM12.289 188.688C12.877 189.252 13.621 190.032 13.957 190.524L14.605 189.912C14.245 189.432 13.489 188.688 12.889 188.16L12.289 188.688ZM13.225 198.48C13.381 198.252 13.681 197.988 15.661 196.308C15.565 196.152 15.409 195.816 15.325 195.576L13.273 197.28L13.057 197.652L13.225 198.48ZM11.641 191.676V192.504H13.873V191.676H11.641ZM15.181 194.148V194.976H22.585V194.148H15.181ZM19.597 194.544L18.973 194.808C19.717 196.152 21.025 197.628 22.165 198.384C22.309 198.156 22.585 197.844 22.789 197.676C21.649 197.052 20.305 195.744 19.597 194.544ZM16.657 191.136H20.977V192.384H16.657V191.136ZM16.657 189.18H20.977V190.416H16.657V189.18ZM15.829 188.436V193.128H21.829V188.436H15.829ZM18.181 194.544C17.473 195.864 16.081 197.196 14.773 197.808C14.965 197.976 15.229 198.276 15.361 198.492C16.681 197.76 18.061 196.284 18.817 194.784L18.181 194.544ZM18.481 188.808V192.756H18.457V198.96H19.345V192.756H19.309V188.808H18.481ZM13.225 198.48C13.225 198.12 14.185 197.184 14.185 197.184V191.676H13.321V196.584C13.321 197.208 12.901 197.676 12.673 197.88C12.841 198 13.117 198.312 13.225 198.48ZM24.975 190.62H27.435V191.532H24.975V190.62ZM24.975 189.084H27.435V189.984H24.975V189.084ZM24.171 188.436V192.204H28.275V188.436H24.171ZM23.451 193.092V193.788H28.887V193.092H23.451ZM28.863 188.472V189.216H34.335V188.472H28.863ZM25.887 193.32V197.424L26.667 197.892V193.32H25.887ZM26.247 195.084V195.768H28.659V195.084H26.247ZM31.155 188.724C31.047 189.24 30.819 189.984 30.639 190.476L31.359 190.656C31.575 190.2 31.827 189.528 32.067 188.904L31.155 188.724ZM24.879 195.624L24.327 195.828C25.299 198.312 27.219 198.708 30.231 198.708H34.107C34.143 198.468 34.299 198.12 34.431 197.928C33.735 197.952 30.783 197.952 30.243 197.952C27.579 197.952 25.719 197.688 24.879 195.624ZM29.343 190.368V195.42H30.111V191.052H32.955V195.384H33.747V190.368H29.343ZM24.351 194.388C24.291 196.116 24.075 197.556 23.271 198.492C23.451 198.6 23.787 198.828 23.919 198.936C24.735 197.892 25.035 196.368 25.119 194.436L24.351 194.388ZM31.203 191.64C31.131 194.76 30.879 196.284 28.359 197.088C28.527 197.22 28.719 197.508 28.803 197.676C31.539 196.776 31.887 195.024 31.971 191.64H31.203ZM31.623 195.78C32.379 196.32 33.303 197.112 33.771 197.616L34.311 197.064C33.843 196.56 32.895 195.804 32.151 195.3L31.623 195.78Z" fill="#888888"/>
<rect width="46" height="48" rx="7" fill="#F5F5F5"/>
<path d="M11.833 10.76V11.636H22.417V10.76H11.833ZM12.337 13.292V20.972H13.237V14.144H21.577V13.292H12.337ZM21.025 13.292V19.808C21.025 20.012 20.953 20.072 20.725 20.084C20.497 20.096 19.681 20.108 18.829 20.06C18.973 20.324 19.093 20.72 19.141 20.972C20.221 20.972 20.953 20.96 21.373 20.828C21.793 20.672 21.925 20.384 21.925 19.82V13.292H21.025ZM15.109 15.716C15.649 16.364 16.285 17.252 16.573 17.816L17.113 17.096C16.837 16.568 16.177 15.728 15.625 15.092L15.109 15.716ZM15.109 11.336V13.376C15.109 14.852 15.013 17.084 13.369 18.632C13.585 18.776 13.873 19.076 14.017 19.268C15.781 17.504 15.997 15.092 15.997 13.376V11.336H15.109ZM18.205 15.704C18.997 16.604 19.921 17.852 20.341 18.62L20.893 17.936C20.473 17.192 19.513 15.98 18.709 15.104L18.205 15.704ZM18.181 11.336V13.376C18.181 14.852 18.073 17.084 16.441 18.632C16.645 18.776 16.945 19.076 17.077 19.268C18.841 17.504 19.069 15.092 19.069 13.376V11.336H18.181ZM23.619 13.376V14.288H34.167V13.376H23.619ZM29.463 13.736L28.563 13.952C29.463 17.18 31.095 19.712 33.687 20.936C33.843 20.684 34.143 20.3 34.371 20.096C31.875 19.064 30.243 16.64 29.463 13.736ZM28.407 9.932C28.383 12.812 28.479 17.984 23.379 20.204C23.631 20.384 23.919 20.708 24.063 20.948C29.307 18.548 29.331 13.076 29.379 9.932H28.407ZM12.349 28.32V29.208H21.889V28.32H12.349ZM12.901 31.848V32.724H21.385V31.848H12.901ZM11.797 35.676V36.564H22.489V35.676H11.797ZM16.633 29.028V36.132H17.605V29.028H16.633ZM15.601 26.472C16.393 27.06 17.341 27.912 17.773 28.476L18.553 27.912C18.085 27.336 17.113 26.52 16.333 25.968L15.601 26.472ZM24.975 28.62H27.435V29.532H24.975V28.62ZM24.975 27.084H27.435V27.984H24.975V27.084ZM24.171 26.436V30.204H28.275V26.436H24.171ZM23.451 31.092V31.788H28.887V31.092H23.451ZM28.863 26.472V27.216H34.335V26.472H28.863ZM25.887 31.32V35.424L26.667 35.892V31.32H25.887ZM26.247 33.084V33.768H28.659V33.084H26.247ZM31.155 26.724C31.047 27.24 30.819 27.984 30.639 28.476L31.359 28.656C31.575 28.2 31.827 27.528 32.067 26.904L31.155 26.724ZM24.879 33.624L24.327 33.828C25.299 36.312 27.219 36.708 30.231 36.708H34.107C34.143 36.468 34.299 36.12 34.431 35.928C33.735 35.952 30.783 35.952 30.243 35.952C27.579 35.952 25.719 35.688 24.879 33.624ZM29.343 28.368V33.42H30.111V29.052H32.955V33.384H33.747V28.368H29.343ZM24.351 32.388C24.291 34.116 24.075 35.556 23.271 36.492C23.451 36.6 23.787 36.828 23.919 36.936C24.735 35.892 25.035 34.368 25.119 32.436L24.351 32.388ZM31.203 29.64C31.131 32.76 30.879 34.284 28.359 35.088C28.527 35.22 28.719 35.508 28.803 35.676C31.539 34.776 31.887 33.024 31.971 29.64H31.203ZM31.623 33.78C32.379 34.32 33.303 35.112 33.771 35.616L34.311 35.064C33.843 34.56 32.895 33.804 32.151 33.3L31.623 33.78Z" fill="#888888"/>
</svg>
