<svg width="1200" height="208" viewBox="0 0 1200 208" fill="none" xmlns="http://www.w3.org/2000/svg">
<rect x="128" width="526" height="60" rx="10" fill="#435CE7"/>
<path d="M353.373 27.334H363.425V25.752H358.903C358.707 25.192 358.427 24.52 358.175 23.974L356.495 24.366C356.677 24.786 356.873 25.276 357.027 25.752H351.679V29.518C351.679 31.534 351.595 34.418 350.545 36.392C350.951 36.56 351.707 37.064 352.015 37.358C353.177 35.188 353.373 31.758 353.373 29.518V27.334ZM359.267 32.654C359.043 31.324 358.525 29.434 358.049 27.894L356.537 28.286C356.971 29.798 357.489 31.8 357.657 33.088L359.267 32.654ZM353.765 29.154C354.325 30.666 354.983 32.682 355.249 33.984L356.817 33.326C356.495 32.024 355.837 30.106 355.235 28.58L353.765 29.154ZM360.107 35.104C361.339 33.06 362.361 30.652 363.019 28.426L361.227 27.838C360.723 30.204 359.701 33.018 358.343 35.104H353.163V36.672H363.579V35.104H360.107ZM369.391 25.738L369.111 25.794H364.813V27.39H368.677C368.495 28.496 368.243 29.546 367.935 30.526C367.263 29.896 366.591 29.294 365.947 28.748L364.799 29.812C365.611 30.526 366.479 31.352 367.263 32.206C366.521 33.774 365.527 35.034 364.351 35.832C364.743 36.14 365.261 36.756 365.513 37.19C366.717 36.28 367.711 35.09 368.481 33.62C369.013 34.278 369.447 34.922 369.755 35.468L371.043 34.222C370.651 33.522 369.993 32.696 369.251 31.884C369.853 30.218 370.273 28.272 370.497 26.046L369.391 25.738ZM370.581 30.596C371.197 31.548 371.813 32.822 372.023 33.634L373.465 32.906C373.241 32.08 372.569 30.862 371.911 29.952L370.581 30.596ZM377.371 27.25H375.873V24.128H374.221V27.25H370.693V28.846H374.221V35.132C374.221 35.37 374.137 35.44 373.885 35.44C373.647 35.44 372.891 35.454 372.121 35.412C372.345 35.916 372.583 36.714 372.639 37.204C373.801 37.204 374.641 37.134 375.159 36.84C375.691 36.56 375.873 36.084 375.873 35.132V28.846H377.371V27.25ZM390.631 26.914V25.514H382.287C382.413 25.192 382.553 24.87 382.665 24.548L380.971 24.142C380.355 26.088 379.193 27.95 377.807 29.07C378.213 29.294 378.969 29.798 379.291 30.078C380.117 29.266 380.929 28.16 381.615 26.914H390.631ZM389.455 28.93V27.572H381.279V28.93H389.455ZM379.753 29.672V31.114H386.921C387.061 34.502 387.607 37.176 389.679 37.176C390.757 37.176 391.079 36.42 391.205 34.712C390.841 34.474 390.435 34.068 390.099 33.69C390.085 34.824 390.015 35.51 389.791 35.51C388.895 35.524 388.601 32.78 388.587 29.672H379.753ZM394.329 24.184C393.699 26.228 392.663 28.272 391.543 29.588C391.809 30.022 392.215 30.988 392.341 31.38C392.649 31.016 392.943 30.624 393.237 30.19V37.204H394.819V27.292C395.211 26.424 395.561 25.514 395.855 24.646L394.329 24.184ZM396.989 25.822H395.547V34.978H396.989V25.822ZM404.983 33.62V32.22H401.847V31.002H404.591V29.63H399.901C400.013 29.35 400.125 29.07 400.209 28.79L399.789 28.692H404.759V27.306H403.387V24.73H398.109V26.102H401.847V27.306H397.325V28.692H398.627C398.291 29.7 397.731 30.694 397.101 31.352C397.451 31.534 398.081 31.94 398.389 32.192C398.669 31.856 398.949 31.45 399.215 31.002H400.237V32.22H397.353V33.62H400.041C399.719 34.502 398.893 35.426 396.835 36.07C397.199 36.364 397.689 36.91 397.885 37.26C399.565 36.602 400.559 35.762 401.133 34.894C401.679 35.832 402.589 36.742 404.255 37.246C404.437 36.826 404.843 36.21 405.193 35.902C403.219 35.384 402.407 34.46 402.043 33.62H404.983ZM409.591 30.82H411.285V26.956H412.923V30.82H414.603V28.104C415.429 28.79 416.423 29.812 416.913 30.498L418.173 29.588C417.683 28.944 416.675 27.964 415.779 27.306L414.603 28.048V26.956H418.173V25.486H413.343C413.161 25.066 412.811 24.436 412.531 23.988L410.921 24.366C411.103 24.702 411.313 25.108 411.481 25.486H406.091V26.956H409.591V30.82ZM407.785 27.292C407.435 28.16 406.749 29.042 406.021 29.63C406.371 29.826 407.001 30.26 407.309 30.498C408.037 29.826 408.835 28.762 409.283 27.684L407.785 27.292ZM414.449 32.584C413.833 33.242 413.049 33.76 412.139 34.208C411.229 33.76 410.459 33.228 409.857 32.584H414.449ZM415.919 31.072L415.653 31.128H406.889V32.584H407.939C408.625 33.48 409.437 34.25 410.389 34.88C408.961 35.328 407.379 35.622 405.713 35.79C405.993 36.126 406.357 36.84 406.497 37.26C408.485 36.98 410.403 36.532 412.083 35.832C413.665 36.546 415.513 37.008 417.641 37.26C417.851 36.826 418.243 36.14 418.579 35.804C416.843 35.65 415.275 35.356 413.889 34.908C415.191 34.11 416.255 33.102 416.983 31.8L415.919 31.072ZM422.865 24.324C422.025 26.438 420.555 28.496 419.043 29.77C419.351 30.19 419.827 31.114 420.009 31.534C420.471 31.1 420.947 30.596 421.395 30.05V37.19H423.061V27.698C423.621 26.774 424.111 25.822 424.517 24.87L422.865 24.324ZM428.045 35.37C427.401 35.37 427.317 35.244 427.317 34.432V31.002C429.039 29.882 430.677 28.538 431.909 27.236L430.341 26.466C429.627 27.306 428.535 28.23 427.317 29.084V24.338H425.609V30.162C424.993 30.526 424.363 30.848 423.761 31.114C424.027 31.464 424.461 32.122 424.671 32.514C424.979 32.36 425.301 32.192 425.609 32.024V34.418C425.609 36.406 426.099 36.952 427.849 36.952H430.187C431.769 36.952 432.217 36.14 432.413 33.914C431.951 33.802 431.265 33.494 430.859 33.2C430.761 34.95 430.649 35.37 430.019 35.37H428.045Z" fill="white"/>
<rect x="674" width="526" height="60" rx="10" fill="#435CE7"/>
<path d="M914.093 25.92C913.449 25.444 912.175 24.842 911.237 24.506L910.411 25.626C911.363 26.004 912.609 26.69 913.225 27.166L914.093 25.92ZM914.107 27.502C912.609 28.006 911.055 28.51 910.005 28.79L910.509 30.316C911.657 29.924 913.071 29.42 914.387 28.93L914.107 27.502ZM921.261 34.446V30.764H911.685V34.6H913.323V32.276H919.525V34.446H921.261ZM915.605 32.64C915.185 34.362 914.303 35.37 909.865 35.846C910.145 36.196 910.495 36.868 910.607 37.246C915.521 36.56 916.739 35.076 917.229 32.64H915.605ZM916.459 35.3C918.125 35.776 920.435 36.63 921.569 37.162L922.605 35.846C921.373 35.3 919.021 34.53 917.425 34.124L916.459 35.3ZM920.519 26.564C920.393 26.942 920.253 27.292 920.141 27.572L921.597 27.95C921.919 27.32 922.283 26.396 922.577 25.57L921.359 25.276L921.079 25.346H917.103C917.215 25.066 917.341 24.772 917.439 24.492L915.871 24.254C915.563 25.248 914.905 26.354 913.813 27.18C914.163 27.362 914.709 27.866 914.961 28.216C915.577 27.712 916.039 27.166 916.431 26.564H917.523C917.145 27.796 916.361 28.902 914.037 29.546C914.345 29.826 914.737 30.386 914.905 30.75C916.739 30.162 917.803 29.322 918.461 28.3C919.245 29.392 920.393 30.176 921.807 30.61C922.003 30.19 922.437 29.602 922.773 29.308C921.093 28.958 919.763 28.118 919.049 26.984C919.105 26.844 919.133 26.704 919.175 26.564H920.519ZM927.493 25.598C926.975 25.136 925.953 24.562 925.155 24.226L924.217 25.444C925.029 25.822 926.023 26.466 926.499 26.928L927.493 25.598ZM926.807 29.294C926.303 28.832 925.281 28.3 924.469 27.978L923.559 29.196C924.357 29.574 925.351 30.162 925.813 30.624L926.807 29.294ZM925.687 31.632C925.099 33.27 924.301 35.048 923.727 36.14L925.253 37.036C925.869 35.65 926.527 34.04 927.045 32.542L925.687 31.632ZM930.111 33.13C929.803 34.054 929.271 35.048 928.627 35.664C928.991 35.874 929.607 36.266 929.915 36.518C930.559 35.776 931.203 34.614 931.581 33.48L930.111 33.13ZM931.343 30.61H934.577V31.38H931.343V30.61ZM931.343 28.72H934.577V29.49H931.343V28.72ZM936.117 32.57V27.53H933.583C933.695 27.166 933.807 26.774 933.947 26.368H936.509V24.87H927.773V28.734C927.773 31.002 927.633 34.166 926.065 36.336C926.471 36.518 927.171 36.952 927.465 37.218C929.131 34.908 929.383 31.198 929.383 28.734V26.368H932.099C932.057 26.732 931.987 27.152 931.931 27.53H929.873V32.57H932.085V35.594C932.085 35.748 932.029 35.79 931.875 35.79C931.707 35.79 931.133 35.79 930.657 35.776C930.825 36.182 931.007 36.77 931.077 37.204C931.945 37.218 932.589 37.19 933.079 36.966C933.569 36.742 933.667 36.35 933.667 35.636V32.57H936.117ZM934.059 33.536C934.591 34.418 935.137 35.594 935.347 36.35L936.859 35.692C936.621 34.936 936.033 33.802 935.487 32.962L934.059 33.536ZM940.011 24.156C939.423 25.066 938.261 26.228 937.267 26.928C937.519 27.222 937.925 27.81 938.135 28.146C939.297 27.292 940.599 25.934 941.481 24.73L940.011 24.156ZM940.263 27.138C939.535 28.496 938.303 29.854 937.141 30.736C937.407 31.086 937.855 31.926 938.009 32.29C938.373 31.982 938.737 31.646 939.101 31.254V37.218H940.655V29.378C941.047 28.818 941.411 28.244 941.719 27.684L940.263 27.138ZM943.455 27.362V26.522C944.309 26.438 945.191 26.34 946.073 26.2C946.073 26.578 946.059 26.97 946.059 27.362H943.455ZM948.327 31.884H945.457V31.128H948.327V31.884ZM945.457 35.608V34.866H948.327V35.608H945.457ZM945.457 33.004H948.327V33.746H945.457V33.004ZM950.385 28.762V27.362H947.627C947.655 26.886 947.683 26.41 947.697 25.962H947.571C948.397 25.808 949.181 25.64 949.867 25.444L948.733 24.296C947.389 24.716 945.163 25.094 943.119 25.346L941.901 25.038V29.462C941.901 31.436 941.817 34.152 940.809 36.14C941.201 36.308 941.817 36.826 942.055 37.148C943.287 34.908 943.455 31.59 943.455 29.476V28.762H946.017C946.003 29.126 945.989 29.476 945.961 29.798H943.973V37.218H945.457V36.728H948.327V37.134H949.867V29.798H947.445C947.473 29.476 947.501 29.126 947.529 28.762H950.385ZM954.139 33.27V30.484H955.245V28.958H954.139V26.48H955.567V24.968H951.129V26.48H952.599V28.958H951.325V30.484H952.599V33.746C951.997 33.928 951.465 34.082 951.003 34.194L951.381 35.762C952.627 35.342 954.209 34.838 955.651 34.348L955.385 32.864L954.139 33.27ZM964.107 32.22C963.547 31.212 962.301 29.672 961.335 28.538L960.481 29.154V28.034C960.719 27.516 960.929 27.012 961.125 26.494H963.981V24.898H956.071V26.494H959.277C958.409 28.762 957.051 30.862 955.483 32.164C955.861 32.486 956.505 33.144 956.785 33.494C957.485 32.808 958.185 31.968 958.815 31.016V37.204H960.481V29.938C961.335 31.044 962.301 32.36 962.721 33.242L964.107 32.22Z" fill="white"/>
<rect x="947" y="154" width="253" height="54" rx="10" fill="#F6F7FE"/>
<path d="M1001.72 186.006C1003.9 186.496 1006.76 187.448 1008.2 188.162L1008.93 187C1007.4 186.286 1004.51 185.404 1002.39 184.984L1001.72 186.006ZM1002.97 182.618C1004.34 182.996 1006.09 183.682 1006.98 184.2L1007.64 183.08C1006.72 182.576 1004.93 181.946 1003.58 181.624L1002.97 182.618ZM1002.28 177.074H1009.14V178.978H1002.27C1002.28 178.782 1002.28 178.6 1002.28 178.418V177.074ZM1010.47 180.21V175.842H1000.91V178.404C1000.91 180.336 1000.71 182.982 998.891 184.83C999.171 185.026 999.703 185.544 999.885 185.838C1001.41 184.298 1001.99 182.128 1002.2 180.21H1007.12C1007.92 182.59 1009.24 184.592 1011.06 185.684C1011.25 185.348 1011.67 184.844 1011.98 184.592C1010.4 183.752 1009.17 182.086 1008.44 180.21H1010.47ZM1022.32 177.032H1015.92V176.402H1022.32V177.032ZM1022.32 178.362H1015.92V177.718H1022.32V178.362ZM1023.63 175.688H1014.66V179.076H1023.63V175.688ZM1025.42 179.608H1012.92V180.56H1025.42V179.608ZM1015.64 183.85V183.192H1018.51V183.85H1015.64ZM1015.64 181.834H1018.51V182.478H1015.64V181.834ZM1022.74 182.478H1019.77V181.834H1022.74V182.478ZM1022.74 183.85H1019.77V183.192H1022.74V183.85ZM1019.77 186.776V186.104H1024.29V185.222H1019.77V184.592H1024.01V181.092H1014.41V184.592H1018.51V185.222H1014.06V186.104H1018.51V186.776H1012.87V187.77H1025.48V186.776H1019.77ZM1039.17 176.808C1038.82 176.346 1038.11 175.744 1037.49 175.338L1036.71 175.94C1037.34 176.374 1038.04 177.032 1038.35 177.48L1039.17 176.808ZM1029.67 178.236C1029.29 177.606 1028.44 176.724 1027.71 176.094L1026.83 176.85C1027.54 177.508 1028.37 178.432 1028.7 179.062L1029.67 178.236ZM1028.55 181.064C1027.9 182.744 1027.04 184.634 1026.41 185.782L1027.53 186.538C1028.2 185.152 1028.94 183.36 1029.51 181.806L1028.55 181.064ZM1035.04 179.692H1031.74V180.658H1035.04V179.692ZM1034.08 182.562V184.298H1032.72V182.562H1034.08ZM1032.72 185.264H1034.93V181.596H1031.88V185.866H1032.72V185.264ZM1037.75 180.126C1037.51 181.106 1037.19 182.002 1036.79 182.828C1036.67 181.708 1036.56 180.35 1036.51 178.754H1039.13V177.578H1036.49C1036.47 176.85 1036.46 176.066 1036.47 175.254H1035.23C1035.24 176.066 1035.25 176.836 1035.27 177.578H1030.13V180.952C1030.13 182.87 1029.99 185.516 1028.66 187.392C1028.94 187.504 1029.43 187.84 1029.64 188.036C1031.05 186.034 1031.28 183.052 1031.28 180.966V178.754H1035.31C1035.41 181.036 1035.58 182.94 1035.84 184.438C1035 185.6 1033.95 186.524 1032.64 187.21C1032.9 187.406 1033.35 187.854 1033.52 188.078C1034.53 187.476 1035.41 186.734 1036.16 185.852C1036.6 187.322 1037.19 188.106 1038 188.106C1038.92 188.106 1039.3 187.728 1039.47 185.46C1039.19 185.348 1038.81 185.068 1038.57 184.802C1038.5 186.384 1038.36 186.86 1038.11 186.86C1037.75 186.86 1037.37 186.118 1037.07 184.634C1037.86 183.43 1038.46 182.002 1038.89 180.364L1037.75 180.126ZM1045.99 175.254V182.142C1045.99 182.366 1045.91 182.422 1045.66 182.436C1045.42 182.436 1044.57 182.436 1043.7 182.422C1043.89 182.786 1044.1 183.36 1044.17 183.752C1045.32 183.752 1046.12 183.724 1046.64 183.5C1047.16 183.29 1047.31 182.926 1047.31 182.17V175.254H1045.99ZM1048.99 177.452C1050.15 178.908 1051.38 180.854 1051.83 182.128L1053.16 181.414C1052.64 180.112 1051.36 178.236 1050.19 176.836L1048.99 177.452ZM1049.79 181.12C1048.61 184.746 1046.02 186.258 1041.25 186.846C1041.51 187.196 1041.81 187.742 1041.95 188.148C1047.02 187.336 1049.83 185.6 1051.15 181.526L1049.79 181.12ZM1042.87 177.004C1042.4 178.502 1041.39 180.364 1040.18 181.512C1040.53 181.68 1041.07 182.03 1041.36 182.282C1042.59 181.036 1043.64 179.048 1044.31 177.34L1042.87 177.004ZM1054.06 180.826V182.254H1066.8V180.826H1054.06ZM1071.65 177.522H1068.02V178.768H1071.65V177.522ZM1071.67 182.212C1070.22 183.122 1068.66 184.074 1067.67 184.634L1068.31 185.88C1069.42 185.18 1070.82 184.27 1072.07 183.374L1071.67 182.212ZM1076.35 179.006H1078.84C1078.56 179.874 1078.17 180.784 1077.85 181.386C1078.16 181.512 1078.67 181.778 1078.95 181.918C1079.47 180.98 1080.13 179.538 1080.51 178.18L1079.54 177.634L1079.29 177.704H1074.03C1074.26 177.018 1074.46 176.29 1074.63 175.548L1073.27 175.296C1072.82 177.508 1071.97 179.678 1070.81 180.994C1071.14 181.148 1071.76 181.498 1072.04 181.708C1072.6 180.98 1073.1 180.056 1073.54 179.006H1074.98V180.616C1074.98 182.03 1074.18 185.418 1070.15 187.014C1070.37 187.252 1070.79 187.812 1070.95 188.092C1074.05 186.776 1075.4 184.158 1075.66 182.884C1075.89 184.158 1077.13 186.846 1079.88 188.092C1080.06 187.784 1080.47 187.224 1080.7 186.916C1077.09 185.348 1076.35 181.96 1076.35 180.616V179.006ZM1082.29 181.848C1082.62 180.812 1082.88 179.188 1082.95 178.04L1082.01 177.9C1081.91 179.034 1081.64 180.574 1081.31 181.512L1082.29 181.848ZM1090.81 186.398V183.22H1093.53V182.002H1090.81V179.37H1093.84V178.138H1090.81V175.31H1089.51V178.138H1088.04C1088.21 177.48 1088.36 176.794 1088.46 176.094L1087.19 175.884C1087.01 177.2 1086.7 178.516 1086.26 179.608C1086.1 179.02 1085.7 178.166 1085.35 177.508L1084.53 177.844V175.254H1083.23V188.092H1084.53V178.054C1084.88 178.796 1085.24 179.692 1085.37 180.252L1086.15 179.874C1086 180.238 1085.82 180.56 1085.63 180.84C1085.96 180.966 1086.53 181.26 1086.8 181.442C1087.12 180.868 1087.43 180.154 1087.69 179.37H1089.51V182.002H1086.67V183.22H1089.51V186.398H1085.62V187.63H1094.2V186.398H1090.81ZM1102.41 182.716V180.644H1105.8V182.716H1102.41ZM1098.01 182.716C1098.05 182.198 1098.07 181.68 1098.07 181.204V180.644H1101.11V182.716H1098.01ZM1101.11 177.452V179.426H1098.07V177.452H1101.11ZM1105.8 179.426H1102.41V177.452H1105.8V179.426ZM1107.1 176.206H1096.78V181.19C1096.78 183.164 1096.64 185.642 1095.11 187.336C1095.41 187.49 1095.94 187.938 1096.14 188.19C1097.16 187.056 1097.66 185.488 1097.89 183.948H1101.11V187.952H1102.41V183.948H1105.8V186.454C1105.8 186.72 1105.7 186.804 1105.45 186.804C1105.18 186.804 1104.26 186.818 1103.36 186.776C1103.53 187.112 1103.74 187.686 1103.79 188.036C1105.08 188.05 1105.89 188.022 1106.41 187.812C1106.92 187.616 1107.1 187.224 1107.1 186.468V176.206ZM1118.03 179.37H1112.78V177.088H1118.03V179.37ZM1119.36 175.842H1111.54V180.616H1119.36V175.842ZM1113.34 183.22V186.132H1110.8V183.22H1113.34ZM1109.56 188.106H1110.8V187.378H1113.34V188.008H1114.63V181.974H1109.56V188.106ZM1117.25 186.132V183.22H1120.02V186.132H1117.25ZM1116 181.974V188.106H1117.25V187.378H1120.02V188.036H1121.32V181.974H1116ZM1125.95 175.212C1125.16 177.27 1123.85 179.3 1122.47 180.588C1122.7 180.896 1123.06 181.596 1123.19 181.904C1123.65 181.442 1124.11 180.896 1124.55 180.308V188.162H1125.78V178.432C1126.31 177.522 1126.77 176.556 1127.16 175.618L1125.95 175.212ZM1128.28 181.96V180.182H1130.43V181.526V181.96H1128.28ZM1133.93 180.182V181.96H1131.71C1131.71 181.82 1131.71 181.666 1131.71 181.526V180.182H1133.93ZM1135.17 183.038V179.104H1131.71V177.9H1135.58V176.71H1131.71V175.324H1130.43V176.71H1126.74V177.9H1130.43V179.104H1127.09V183.038H1130.34C1130.26 183.71 1130.08 184.354 1129.71 184.942C1129.07 184.466 1128.54 183.906 1128.14 183.262L1127.08 183.598C1127.57 184.452 1128.2 185.18 1128.96 185.796C1128.34 186.314 1127.44 186.762 1126.2 187.056C1126.48 187.322 1126.84 187.84 1127 188.134C1128.35 187.728 1129.32 187.182 1130.02 186.524C1131.38 187.322 1133.04 187.84 1134.98 188.12C1135.14 187.756 1135.49 187.224 1135.75 186.944C1133.81 186.748 1132.12 186.3 1130.78 185.6C1131.29 184.83 1131.52 183.962 1131.63 183.038H1135.17ZM1143.66 182.716V180.644H1147.05V182.716H1143.66ZM1139.26 182.716C1139.3 182.198 1139.32 181.68 1139.32 181.204V180.644H1142.36V182.716H1139.26ZM1142.36 177.452V179.426H1139.32V177.452H1142.36ZM1147.05 179.426H1143.66V177.452H1147.05V179.426ZM1148.35 176.206H1138.03V181.19C1138.03 183.164 1137.89 185.642 1136.36 187.336C1136.66 187.49 1137.19 187.938 1137.39 188.19C1138.41 187.056 1138.91 185.488 1139.14 183.948H1142.36V187.952H1143.66V183.948H1147.05V186.454C1147.05 186.72 1146.95 186.804 1146.7 186.804C1146.43 186.804 1145.51 186.818 1144.61 186.776C1144.78 187.112 1144.99 187.686 1145.04 188.036C1146.33 188.05 1147.14 188.022 1147.66 187.812C1148.17 187.616 1148.35 187.224 1148.35 186.468V176.206Z" fill="#283895"/>
<rect x="674" y="154" width="253" height="54" rx="10" fill="#F6F7FE"/>
<path d="M752.423 176.808C752.073 176.346 751.359 175.744 750.743 175.338L749.959 175.94C750.589 176.374 751.289 177.032 751.597 177.48L752.423 176.808ZM742.917 178.236C742.539 177.606 741.685 176.724 740.957 176.094L740.075 176.85C740.789 177.508 741.615 178.432 741.951 179.062L742.917 178.236ZM741.797 181.064C741.153 182.744 740.285 184.634 739.655 185.782L740.775 186.538C741.447 185.152 742.189 183.36 742.763 181.806L741.797 181.064ZM748.293 179.692H744.989V180.658H748.293V179.692ZM747.327 182.562V184.298H745.969V182.562H747.327ZM745.969 185.264H748.181V181.596H745.129V185.866H745.969V185.264ZM750.995 180.126C750.757 181.106 750.435 182.002 750.043 182.828C749.917 181.708 749.805 180.35 749.763 178.754H752.381V177.578H749.735C749.721 176.85 749.707 176.066 749.721 175.254H748.475C748.489 176.066 748.503 176.836 748.517 177.578H743.379V180.952C743.379 182.87 743.239 185.516 741.909 187.392C742.189 187.504 742.679 187.84 742.889 188.036C744.303 186.034 744.527 183.052 744.527 180.966V178.754H748.559C748.657 181.036 748.825 182.94 749.091 184.438C748.251 185.6 747.201 186.524 745.885 187.21C746.151 187.406 746.599 187.854 746.767 188.078C747.775 187.476 748.657 186.734 749.413 185.852C749.847 187.322 750.435 188.106 751.247 188.106C752.171 188.106 752.549 187.728 752.717 185.46C752.437 185.348 752.059 185.068 751.821 184.802C751.751 186.384 751.611 186.86 751.359 186.86C750.995 186.86 750.617 186.118 750.323 184.634C751.107 183.43 751.709 182.002 752.143 180.364L750.995 180.126ZM759.243 175.254V182.142C759.243 182.366 759.159 182.422 758.907 182.436C758.669 182.436 757.815 182.436 756.947 182.422C757.143 182.786 757.353 183.36 757.423 183.752C758.571 183.752 759.369 183.724 759.887 183.5C760.405 183.29 760.559 182.926 760.559 182.17V175.254H759.243ZM762.239 177.452C763.401 178.908 764.633 180.854 765.081 182.128L766.411 181.414C765.893 180.112 764.605 178.236 763.443 176.836L762.239 177.452ZM763.037 181.12C761.861 184.746 759.271 186.258 754.497 186.846C754.763 187.196 755.057 187.742 755.197 188.148C760.265 187.336 763.079 185.6 764.395 181.526L763.037 181.12ZM756.121 177.004C755.645 178.502 754.637 180.364 753.433 181.512C753.783 181.68 754.315 182.03 754.609 182.282C755.841 181.036 756.891 179.048 757.563 177.34L756.121 177.004ZM777.221 185.166V186.594H770.235V185.166H777.221ZM769.003 188.134H770.235V187.658H777.221V188.106H778.523V184.046H769.003V188.134ZM776.101 182.422H771.257V181.358H776.101V182.422ZM770.039 180.462V183.318H777.375V180.462H770.039ZM767.911 181.47H769.101V179.72H778.257V181.47H779.503V178.698H767.911V181.47ZM776.773 176.332V175.268H775.485V176.332H771.761V175.268H770.473V176.332H767.547V177.508H770.473V178.348H771.761V177.508H775.485V178.348H776.773V177.508H779.783V176.332H776.773ZM792.175 178.362C791.657 179.972 790.705 182.016 789.963 183.29L791.041 183.85C791.797 182.534 792.707 180.602 793.365 178.936L792.175 178.362ZM784.615 183.276C784.251 182.016 783.411 179.916 782.711 178.32L781.521 178.698C782.207 180.308 782.991 182.464 783.313 183.752L784.615 183.276ZM789.795 186.132V175.45H788.465V186.132H786.351V175.436H785.021V186.132H781.255V187.42H793.561V186.132H789.795ZM802.117 179.678C803.419 178.824 804.805 177.76 806.163 176.542L805.211 175.8L804.917 175.912H799.415V177.144H803.531C802.425 178.11 801.277 178.908 800.857 179.174C800.325 179.51 799.807 179.818 799.429 179.874C799.611 180.182 799.891 180.798 799.975 181.092C800.101 180.966 800.605 180.896 801.207 180.896H801.823C801.305 182.282 800.409 183.472 799.275 184.242L799.107 183.472C798.645 183.64 798.169 183.808 797.707 183.99V179.846H799.163V178.614H797.707V175.436H796.489V178.614H794.865V179.846H796.489V184.424C795.803 184.662 795.187 184.886 794.683 185.04L795.103 186.37C796.321 185.88 797.903 185.25 799.373 184.648L799.331 184.48C799.583 184.676 799.919 184.928 800.073 185.082C801.347 184.116 802.425 182.674 803.041 180.896H804.049C803.237 183.738 801.767 185.978 799.541 187.336C799.835 187.504 800.339 187.854 800.549 188.05C802.761 186.51 804.329 184.088 805.239 180.896H805.995C805.757 184.746 805.491 186.258 805.141 186.636C804.987 186.818 804.875 186.86 804.651 186.846C804.399 186.846 803.895 186.846 803.349 186.79C803.545 187.126 803.671 187.658 803.699 188.008C804.301 188.036 804.889 188.036 805.253 187.98C805.659 187.938 805.967 187.798 806.275 187.434C806.765 186.846 807.031 185.096 807.325 180.266C807.339 180.084 807.353 179.678 807.353 179.678H802.117ZM813.347 179.846V182.002H810.547C810.561 181.736 810.561 181.484 810.561 181.246V179.846H813.347ZM814.607 183.178V178.67H810.561V177.634C811.989 177.34 813.543 176.906 814.719 176.402L813.655 175.436C812.787 175.856 811.373 176.304 810.043 176.626L809.287 176.402V181.232C809.287 183.038 809.203 185.39 808.307 187.14C808.615 187.28 809.119 187.714 809.315 187.994C810.085 186.622 810.393 184.802 810.505 183.178H814.607ZM821.383 179.958H816.637V177.9C818.219 177.508 819.927 177.004 821.187 176.374L820.039 175.408C819.171 175.912 817.743 176.416 816.357 176.794L815.363 176.556V180.322C815.363 182.436 815.167 185.18 813.235 187.196C813.557 187.35 814.019 187.798 814.201 188.078C816.077 186.132 816.539 183.36 816.623 181.204H818.681V188.106H819.983V181.204H821.383V179.958ZM829.407 182.716V180.644H832.795V182.716H829.407ZM825.011 182.716C825.053 182.198 825.067 181.68 825.067 181.204V180.644H828.105V182.716H825.011ZM828.105 177.452V179.426H825.067V177.452H828.105ZM832.795 179.426H829.407V177.452H832.795V179.426ZM834.097 176.206H823.779V181.19C823.779 183.164 823.639 185.642 822.113 187.336C822.407 187.49 822.939 187.938 823.135 188.19C824.157 187.056 824.661 185.488 824.885 183.948H828.105V187.952H829.407V183.948H832.795V186.454C832.795 186.72 832.697 186.804 832.445 186.804C832.179 186.804 831.255 186.818 830.359 186.776C830.527 187.112 830.737 187.686 830.793 188.036C832.081 188.05 832.893 188.022 833.411 187.812C833.915 187.616 834.097 187.224 834.097 186.468V176.206ZM840.315 178.684L840.063 178.74H836.227V180.056H839.587C838.929 182.674 837.571 184.676 835.835 185.796C836.157 185.992 836.675 186.524 836.899 186.818C838.915 185.404 840.525 182.73 841.197 179.006L840.315 178.684ZM847.301 177.466C846.517 178.516 845.285 179.818 844.207 180.77C843.773 179.818 843.409 178.81 843.129 177.76V175.268H841.757V186.342C841.757 186.594 841.645 186.692 841.365 186.692C841.099 186.706 840.203 186.706 839.251 186.664C839.447 187.07 839.699 187.714 839.755 188.106C841.043 188.106 841.883 188.064 842.415 187.84C842.919 187.602 843.129 187.196 843.129 186.342V181.176C844.193 183.78 845.733 185.894 847.973 187.07C848.211 186.678 848.659 186.132 848.981 185.866C847.189 185.068 845.803 183.626 844.767 181.834C845.943 180.938 847.399 179.524 848.505 178.32L847.301 177.466ZM859.315 177.032H852.917V176.402H859.315V177.032ZM859.315 178.362H852.917V177.718H859.315V178.362ZM860.631 175.688H851.657V179.076H860.631V175.688ZM862.423 179.608H849.921V180.56H862.423V179.608ZM852.637 183.85V183.192H855.507V183.85H852.637ZM852.637 181.834H855.507V182.478H852.637V181.834ZM859.735 182.478H856.767V181.834H859.735V182.478ZM859.735 183.85H856.767V183.192H859.735V183.85ZM856.767 186.776V186.104H861.289V185.222H856.767V184.592H861.009V181.092H851.405V184.592H855.507V185.222H851.055V186.104H855.507V186.776H849.865V187.77H862.479V186.776H856.767Z" fill="#283895"/>
<rect x="401" y="154" width="253" height="54" rx="10" fill="#F6F7FE"/>
<path d="M459.387 176.864C460.381 178.11 461.725 179.356 463.167 180.322H455.565C456.979 179.328 458.379 178.082 459.387 176.864ZM460.045 184.508H463.853V183.374H460.045V181.47H463.251V180.378C463.839 180.77 464.455 181.12 465.057 181.4C465.253 181.036 465.673 180.49 465.939 180.224C463.671 179.328 461.333 177.508 460.087 175.646H455.621V176.864H457.847C456.489 178.278 454.571 179.664 452.905 180.392C453.199 180.672 453.535 181.12 453.717 181.456C454.305 181.148 454.921 180.77 455.537 180.336V181.47H458.673V183.374H454.907V184.508H458.673V186.566H453.535V187.742H465.351V186.566H460.045V184.508ZM473.739 176.71H471.037V175.324H469.777V176.71H467.089V177.844H473.739V176.71ZM472.129 180.49C472.409 179.916 472.717 179.048 473.025 178.264L471.793 177.984C471.639 178.642 471.345 179.622 471.093 180.224L472.129 180.49ZM469.623 180.196C469.539 179.622 469.315 178.712 469.007 178.054L467.929 178.292C468.195 178.964 468.419 179.874 468.475 180.462L469.623 180.196ZM471.947 183.962V186.216H468.839V183.962H471.947ZM467.635 188.106H468.839V187.35H471.947V188.05H473.221V182.814H467.635V188.106ZM466.753 181.736H473.921V180.546H466.753V181.736ZM478.653 176.01L478.443 176.066H474.425V188.106H475.699V177.284H477.925C477.533 178.376 476.987 179.846 476.483 180.938C477.771 182.1 478.135 183.122 478.135 183.934C478.135 184.438 478.037 184.802 477.757 184.97C477.603 185.068 477.421 185.11 477.197 185.124C476.945 185.138 476.609 185.124 476.245 185.096C476.455 185.46 476.581 186.006 476.595 186.384C476.987 186.384 477.421 186.398 477.743 186.356C478.107 186.3 478.415 186.202 478.681 186.02C479.185 185.684 479.395 185.026 479.395 184.088C479.395 183.136 479.087 182.044 477.799 180.77C478.401 179.552 479.073 177.942 479.619 176.612L478.653 176.01ZM491.675 178.362C491.157 179.972 490.205 182.016 489.463 183.29L490.541 183.85C491.297 182.534 492.207 180.602 492.865 178.936L491.675 178.362ZM484.115 183.276C483.751 182.016 482.911 179.916 482.211 178.32L481.021 178.698C481.707 180.308 482.491 182.464 482.813 183.752L484.115 183.276ZM489.295 186.132V175.45H487.965V186.132H485.851V175.436H484.521V186.132H480.755V187.42H493.061V186.132H489.295ZM500.819 182.982C500.931 182.618 501.015 182.212 501.085 181.792L499.727 181.68C499.671 182.156 499.587 182.59 499.475 182.982H495.415V184.102H499.041C498.229 185.684 496.745 186.552 494.477 187C494.715 187.252 495.093 187.798 495.219 188.092C497.851 187.406 499.531 186.272 500.441 184.102H504.459C504.221 185.698 503.969 186.482 503.647 186.734C503.493 186.86 503.325 186.874 503.017 186.874C502.653 186.874 501.715 186.86 500.819 186.776C501.043 187.098 501.225 187.574 501.239 187.91C502.093 187.966 502.947 187.966 503.409 187.938C503.983 187.91 504.333 187.826 504.683 187.518C505.187 187.07 505.495 185.992 505.817 183.514C505.845 183.346 505.887 182.982 505.887 182.982H500.819ZM498.425 177.746H503.801C503.003 178.474 501.939 179.062 500.721 179.552C499.685 179.118 498.845 178.572 498.271 177.9L498.425 177.746ZM505.089 176.584L504.865 176.64H499.433C499.727 176.276 499.993 175.898 500.217 175.52L498.887 175.254C498.173 176.444 496.829 177.788 494.869 178.754C495.135 178.95 495.499 179.44 495.653 179.734C496.311 179.398 496.899 179.006 497.417 178.6C497.949 179.16 498.551 179.636 499.251 180.042C497.697 180.476 496.017 180.77 494.351 180.924C494.547 181.218 494.757 181.736 494.855 182.058C496.857 181.82 498.901 181.414 500.721 180.742C502.317 181.372 504.235 181.722 506.363 181.89C506.517 181.554 506.811 181.022 507.091 180.742C505.341 180.644 503.703 180.434 502.303 180.07C503.801 179.328 505.061 178.348 505.887 177.116L505.089 176.584ZM513.673 183.626L511.979 183.906V182.282H513.225V181.106H511.979V179.062H510.733V181.106H509.599C510.019 180.182 510.411 179.104 510.775 177.998H513.281V176.808H511.111C511.237 176.374 511.349 175.926 511.447 175.492L510.187 175.254C510.117 175.772 510.005 176.304 509.893 176.808H508.045V177.998H509.599C509.291 179.062 508.997 179.93 508.857 180.252C508.605 180.854 508.409 181.288 508.157 181.358C508.311 181.666 508.479 182.24 508.549 182.478C508.661 182.366 509.123 182.282 509.585 182.282H510.733V184.102C509.683 184.27 508.717 184.424 507.961 184.522L508.227 185.782C508.969 185.656 509.823 185.488 510.733 185.334V188.078H511.979V185.096L513.715 184.76L513.673 183.626ZM520.785 180.616V179.412H516.935C517.061 178.95 517.173 178.474 517.299 178.012H520.295V176.822H517.621C517.747 176.346 517.859 175.856 517.971 175.422L516.683 175.268C516.571 175.772 516.445 176.29 516.305 176.822H513.883V178.012H515.997C515.871 178.474 515.745 178.95 515.619 179.412H513.379V180.616H515.255C514.975 181.596 514.681 182.506 514.429 183.234H518.293C517.859 183.85 517.341 184.536 516.837 185.18C516.389 184.9 515.913 184.62 515.479 184.368L514.639 185.208C516.081 186.062 517.803 187.336 518.629 188.162L519.497 187.126C519.091 186.762 518.489 186.314 517.831 185.838C518.727 184.704 519.679 183.43 520.379 182.394L519.455 181.946L519.245 182.016H516.193C516.319 181.568 516.445 181.106 516.585 180.616H520.785ZM524.623 177.984V175.282H523.363V177.984H521.823V179.188H523.363V182.016C522.719 182.198 522.145 182.366 521.655 182.478L521.963 183.724L523.363 183.304V186.552C523.363 186.734 523.293 186.79 523.139 186.79C522.985 186.79 522.509 186.79 522.005 186.776C522.173 187.126 522.327 187.714 522.369 188.05C523.209 188.05 523.755 188.008 524.133 187.784C524.497 187.574 524.623 187.21 524.623 186.552V182.926L526.065 182.478L525.883 181.288L524.623 181.652V179.188H525.855V177.984H524.623ZM528.053 182.87V179.79H529.607V181.288C529.607 181.764 529.593 182.296 529.453 182.87H528.053ZM531.399 177.564C531.147 177.97 530.811 178.404 530.503 178.768H527.773C528.123 178.376 528.445 177.97 528.725 177.564H531.399ZM532.267 182.87H530.727C530.839 182.31 530.867 181.778 530.867 181.302V179.79H532.267V182.87ZM534.465 183.99V182.87H533.569V178.768H531.945C532.449 178.194 532.925 177.55 533.261 176.976L532.407 176.402L532.197 176.472H529.411C529.593 176.136 529.761 175.828 529.915 175.492L528.599 175.268C528.109 176.402 527.185 177.83 525.855 178.88C526.135 179.076 526.527 179.524 526.709 179.818L526.821 179.72V182.87H525.869V183.99H529.061C528.487 185.11 527.367 186.258 525.099 187.21C525.407 187.448 525.799 187.868 525.995 188.134C528.179 187.112 529.397 185.908 530.069 184.69C530.965 186.216 532.309 187.434 533.919 188.05C534.087 187.742 534.465 187.28 534.731 187.028C533.107 186.496 531.707 185.376 530.909 183.99H534.465ZM539.647 177.69C539.367 177.116 538.737 176.248 538.191 175.632L537.071 176.108C537.589 176.766 538.191 177.662 538.443 178.222L539.647 177.69ZM541.789 178.558C541.817 178.026 541.831 177.522 541.831 177.032V175.296H540.515V177.032C540.515 177.508 540.501 178.026 540.473 178.558H536.063V179.86H540.319C539.955 182.24 538.849 184.928 535.699 186.944C536.035 187.14 536.525 187.602 536.735 187.882C540.165 185.628 541.313 182.548 541.663 179.86H546.129C545.961 184.256 545.765 186.048 545.359 186.454C545.191 186.636 545.051 186.678 544.757 186.664C544.393 186.664 543.567 186.664 542.657 186.594C542.909 186.986 543.091 187.56 543.119 187.938C543.959 187.98 544.827 188.008 545.331 187.938C545.863 187.882 546.227 187.742 546.577 187.294C547.137 186.636 547.305 184.662 547.515 179.202C547.529 179.02 547.529 178.558 547.529 178.558H541.789ZM544.701 184.004C544.351 183.29 543.567 182.198 542.881 181.4L541.775 181.918C542.447 182.744 543.217 183.878 543.553 184.606L544.701 184.004ZM561.923 181.428V180.196H555.959C556.043 179.314 556.071 178.376 556.085 177.396H561.139V176.164H550.261V177.396H554.755C554.741 178.39 554.727 179.314 554.643 180.196H549.421V181.428H554.475C554.027 183.976 552.767 185.922 549.211 187.014C549.533 187.28 549.883 187.784 550.051 188.134C553.999 186.818 555.329 184.466 555.805 181.428H561.923ZM557.933 186.678C557.261 186.678 557.135 186.594 557.135 186.118V181.988H555.777V186.118C555.777 187.546 556.197 187.966 557.779 187.966H560.159C561.587 187.966 561.979 187.364 562.147 185.082C561.769 184.998 561.181 184.76 560.887 184.522C560.803 186.398 560.705 186.678 560.075 186.678H557.933ZM567.021 175.842V177.116H571.361C572.215 178.88 573.475 180.644 574.805 181.778C575.085 181.484 575.645 181.05 575.995 180.84C574.525 179.734 573.069 177.732 572.285 175.842H567.021ZM565.957 177.34C565.411 178.642 564.249 180.196 562.975 181.134C563.297 181.344 563.773 181.764 564.039 182.044C565.397 181.008 566.629 179.3 567.385 177.746L565.957 177.34ZM571.011 183.346C571.627 184.088 572.285 184.956 572.859 185.824C570.927 185.894 568.953 185.978 567.189 186.034C568.057 184.452 569.037 182.366 569.765 180.574L568.239 180.21C567.679 182.016 566.643 184.396 565.733 186.09L563.731 186.146L563.885 187.504C566.349 187.406 570.129 187.224 573.657 187.056C573.909 187.476 574.119 187.854 574.273 188.19L575.575 187.49C574.903 186.188 573.517 184.242 572.215 182.772L571.011 183.346ZM578.657 177.69H587.645V179.174H588.975V176.556H583.781V175.254H582.451V176.556H577.369V179.174H578.657V177.69ZM586.203 185.152V186.636H580.211V185.152H586.203ZM578.965 188.106H580.211V187.686H586.203V188.064H587.505V184.102H578.965V188.106ZM583.767 182.338V181.47H588.051V180.476H583.767V179.692H587.449V178.684H583.767V177.802H582.451V178.684H578.909V179.692H582.451V180.476H578.377V181.47H582.451V182.338H577.019V183.402H589.325V182.338H583.767ZM603.089 184.298H598.301V182.45H601.927V181.204H598.301V179.23H596.915V181.204H593.695C594.241 180.406 594.787 179.496 595.305 178.502H602.823V177.256H595.921C596.201 176.696 596.453 176.136 596.677 175.562L595.179 175.17C594.941 175.87 594.661 176.584 594.367 177.256H590.993V178.502H593.779C593.359 179.328 592.995 179.958 592.799 180.224C592.421 180.84 592.141 181.218 591.791 181.316C591.973 181.68 592.211 182.366 592.281 182.66C592.421 182.52 593.023 182.45 593.835 182.45H596.915V184.298H590.755V185.572H596.915V188.106H598.301V185.572H603.089V184.298Z" fill="#283895"/>
<rect x="128" y="154" width="253" height="54" rx="10" fill="#F6F7FE"/>
<path d="M198.121 181.246L196.791 181.638V179.216H198.261V177.984H196.791V175.282H195.545V177.984H193.935V179.216H195.545V182.002C194.859 182.198 194.243 182.352 193.739 182.478L194.047 183.766L195.545 183.318V186.538C195.545 186.734 195.475 186.79 195.293 186.79C195.139 186.79 194.607 186.79 194.061 186.776C194.229 187.126 194.397 187.7 194.439 188.036C195.321 188.05 195.895 187.994 196.287 187.77C196.665 187.574 196.791 187.21 196.791 186.538V182.94C197.295 182.786 197.813 182.632 198.303 182.464L198.121 181.246ZM206.451 177.326H203.553L203.749 177.256C203.553 176.724 203.161 175.912 202.783 175.296L201.621 175.66C201.901 176.164 202.195 176.808 202.405 177.326H199.031V180.812C199.031 182.8 198.863 185.558 197.337 187.448C197.645 187.602 198.205 187.966 198.443 188.204C200.053 186.16 200.319 183.01 200.319 180.812V178.572H206.451V177.326ZM220.047 180.476V179.132H214.405C214.573 177.746 214.587 176.402 214.601 175.268H213.187C213.173 176.388 213.187 177.732 213.019 179.132H207.811V180.476H212.781C212.221 183.01 210.863 185.53 207.531 186.986C207.895 187.266 208.315 187.728 208.525 188.078C211.703 186.58 213.215 184.158 213.929 181.624C215.021 184.592 216.715 186.86 219.333 188.078C219.543 187.686 219.977 187.14 220.299 186.86C217.653 185.754 215.889 183.388 214.937 180.476H220.047ZM233.517 175.674H232.383V177.536H230.647V175.254H229.485V177.536H227.847V175.674H226.755V178.6H233.517V175.674ZM224.571 185.166H223.311V181.358H224.571V185.166ZM225.677 186.3V180.224H223.409C223.647 179.258 223.829 178.222 223.969 177.158H226.111V176.01H221.267V177.158H222.779C222.499 179.482 221.995 181.694 221.057 183.122C221.281 183.402 221.631 184.004 221.771 184.298C221.939 184.046 222.093 183.794 222.233 183.514V187.392H223.311V186.3H225.677ZM227.805 180.714H234.063V179.608H227.805V178.95H226.685V179.608H225.985V180.714H226.685V181.274C226.685 183.192 226.559 185.46 225.243 187.336C225.565 187.476 226.013 187.812 226.237 188.022C227.651 185.964 227.805 183.458 227.805 181.288V180.714ZM228.505 184.858C229.023 184.186 229.289 183.066 229.373 182.058L228.477 181.904C228.379 182.842 228.099 183.822 227.665 184.396L228.505 184.858ZM232.397 184.62C232.831 183.962 233.363 182.968 233.825 182.1L232.719 181.708C232.453 182.45 231.977 183.528 231.571 184.228C231.333 183.444 231.249 182.59 231.193 181.694C231.207 181.456 231.207 181.204 231.221 180.952H230.143C230.045 184.34 229.793 186.188 227.133 187.21C227.357 187.406 227.679 187.84 227.805 188.106C229.499 187.42 230.339 186.398 230.759 184.928C231.179 186.258 231.977 187.406 233.517 188.106C233.685 187.798 234.007 187.364 234.259 187.14C232.719 186.51 231.977 185.502 231.585 184.284L232.397 184.62ZM238.041 177.158H244.999V179.524H238.041V177.158ZM242.157 183.948H246.777V182.73H242.157V180.756H246.371V175.912H236.753V180.756H240.827V186.118C239.805 185.67 239.007 184.886 238.475 183.598C238.629 183.024 238.741 182.436 238.825 181.876L237.467 181.708C237.257 183.668 236.613 185.992 235.031 187.21C235.297 187.406 235.731 187.826 235.955 188.092C236.879 187.364 237.537 186.314 237.985 185.138C239.357 187.42 241.513 187.952 244.397 187.952H247.407C247.477 187.588 247.687 186.986 247.883 186.678C247.211 186.706 244.985 186.706 244.467 186.706C243.641 186.706 242.871 186.664 242.157 186.524V183.948ZM255.347 179.706C255.347 181.512 255.137 183.654 253.037 185.334C253.359 185.502 253.821 185.866 254.045 186.132C256.285 184.256 256.537 181.792 256.537 179.72V178.25H257.699V184.676C257.699 184.83 257.643 184.872 257.489 184.886C257.307 184.886 256.775 184.886 256.201 184.872C256.369 185.194 256.551 185.698 256.593 186.034C257.447 186.034 258.007 186.006 258.399 185.824C258.805 185.628 258.917 185.292 258.917 184.676V178.25H261.437V177.046H257.713V175.254H256.439V177.046H252.841V178.25H255.347V179.706ZM259.183 179.65C259.799 180.854 260.345 182.436 260.499 183.43L261.647 183.08C261.479 182.072 260.891 180.518 260.261 179.342L259.183 179.65ZM253.583 179.314C253.289 180.644 252.743 181.96 251.987 182.8C252.281 182.926 252.813 183.206 253.051 183.388C253.779 182.45 254.409 181.036 254.773 179.538L253.583 179.314ZM252.589 177.046C252.099 176.5 251.119 175.814 250.307 175.394L249.439 176.192C250.251 176.668 251.217 177.396 251.651 177.928L252.589 177.046ZM252.127 179.748C251.623 179.216 250.587 178.558 249.747 178.152L248.893 179.006C249.747 179.44 250.755 180.14 251.231 180.672L252.127 179.748ZM251.833 181.638H248.851V182.842H250.573V185.236C249.929 185.754 249.229 186.272 248.627 186.664L249.285 187.966C249.999 187.364 250.657 186.804 251.273 186.23C252.155 187.308 253.387 187.77 255.165 187.854C256.761 187.91 259.631 187.882 261.227 187.798C261.297 187.406 261.493 186.804 261.647 186.51C259.897 186.636 256.733 186.664 255.165 186.608C253.611 186.552 252.477 186.104 251.833 185.138V181.638ZM266.843 177.466C266.367 176.948 265.359 176.08 264.673 175.478L263.791 176.29C264.491 176.948 265.471 177.858 265.933 178.404L266.843 177.466ZM266.059 185.124V179.566H262.573V180.812H264.813V185.32C264.813 186.02 264.323 186.538 264.015 186.748C264.239 186.958 264.589 187.406 264.701 187.672C264.925 187.392 265.317 187.07 267.963 185.194C267.851 184.942 267.669 184.438 267.585 184.088L266.059 185.124ZM270.483 175.282C270.455 179.888 270.539 184.648 267.039 187.154C267.389 187.364 267.809 187.784 268.019 188.092C269.769 186.776 270.707 184.942 271.197 182.842C271.729 184.704 272.709 186.818 274.515 188.092C274.725 187.77 275.089 187.364 275.453 187.126C272.401 185.096 271.855 180.784 271.673 179.412C271.771 178.054 271.785 176.668 271.799 175.282H270.483ZM280.089 177.62C279.613 177.046 278.619 176.164 277.877 175.562L277.023 176.346C277.779 177.004 278.745 177.914 279.179 178.516L280.089 177.62ZM279.445 185.026V179.566H276.365V180.812H278.185V185.278C278.185 186.062 277.681 186.65 277.359 186.916C277.597 187.098 278.017 187.518 278.171 187.784C278.395 187.462 278.801 187.126 281.223 185.138C281.069 184.872 280.831 184.354 280.719 183.99L279.445 185.026ZM285.997 186.342V182.072H288.545V180.868H285.997V177.452H288.811V176.234H281.041V177.452H284.667V186.342H283.029V179.846H281.741V186.342H280.621V187.56H289.077V186.342H285.997ZM302.043 176.822H297.549C297.353 176.374 296.947 175.702 296.555 175.212L295.239 175.562C295.519 175.926 295.785 176.416 295.981 176.822H290.955V178.068H302.043V176.822ZM302.393 180.476H299.173C299.551 179.944 299.957 179.272 300.363 178.642L298.921 178.18C298.683 178.866 298.221 179.832 297.843 180.476H294.371L295.365 180.028C295.141 179.482 294.609 178.67 294.161 178.096L293.027 178.558C293.447 179.146 293.909 179.93 294.133 180.476H291.123V182.38C291.123 183.822 290.997 185.852 289.905 187.322C290.185 187.49 290.773 187.98 290.983 188.246C292.229 186.594 292.481 184.102 292.481 182.408V181.75H302.393V180.476ZM312.783 179.37H307.533V177.088H312.783V179.37ZM314.113 175.842H306.287V180.616H314.113V175.842ZM308.093 183.22V186.132H305.545V183.22H308.093ZM304.313 188.106H305.545V187.378H308.093V188.008H309.381V181.974H304.313V188.106ZM311.999 186.132V183.22H314.771V186.132H311.999ZM310.753 181.974V188.106H311.999V187.378H314.771V188.036H316.073V181.974H310.753Z" fill="#283895"/>
<rect x="947" y="80" width="253" height="54" rx="10" fill="#F6F7FE"/>
<path d="M1001.77 103.368H995.278V102.57H1001.77V103.368ZM1001.77 105.006H995.278V104.194H1001.77V105.006ZM1003.08 101.688H994.032V105.874H1003.08V101.688ZM1002.66 109.332C1002.33 109.99 1001.9 110.578 1001.38 111.096C1000.89 110.578 1000.49 109.976 1000.21 109.332H1002.66ZM994.732 111.978V111.068H996.93V111.768L994.732 111.978ZM994.732 109.304H996.93V110.13H994.732V109.304ZM996.93 107.596V108.38H994.732V107.596H996.93ZM1003.44 108.282L1003.22 108.324H998.61V109.332H999.87L999.114 109.542C999.478 110.396 999.954 111.166 1000.53 111.824C999.814 112.342 999.002 112.748 998.176 113V107.596H1004.64V106.532H992.38V107.596H993.528V112.09C993.066 112.132 992.632 112.174 992.254 112.202L992.352 113.336C993.626 113.21 995.278 113.028 996.93 112.846V114.092H998.176V113.098C998.414 113.35 998.694 113.77 998.82 114.05C999.744 113.714 1000.63 113.252 1001.41 112.65C1002.19 113.294 1003.13 113.784 1004.2 114.092C1004.35 113.784 1004.7 113.308 1004.97 113.084C1003.96 112.832 1003.05 112.426 1002.29 111.88C1003.15 111.012 1003.83 109.92 1004.24 108.59L1003.44 108.282ZM1011.62 101.45V112.384C1011.62 112.664 1011.52 112.748 1011.23 112.762C1010.93 112.776 1009.91 112.776 1008.96 112.734C1009.17 113.112 1009.39 113.728 1009.48 114.092C1010.81 114.106 1011.7 114.064 1012.26 113.854C1012.81 113.63 1013.03 113.252 1013.03 112.384V101.45H1011.62ZM1014.96 105.02C1016.1 107.036 1017.2 109.64 1017.5 111.292L1018.91 110.732C1018.56 109.038 1017.41 106.49 1016.22 104.544L1014.96 105.02ZM1007.99 104.656C1007.67 106.504 1006.93 108.912 1005.75 110.368C1006.1 110.494 1006.68 110.816 1007 111.054C1008.22 109.5 1009 106.966 1009.46 104.922L1007.99 104.656ZM1023.27 101.464C1022.37 103.606 1020.87 105.692 1019.32 106.994C1019.56 107.316 1019.96 108.016 1020.1 108.352C1020.65 107.848 1021.21 107.246 1021.73 106.588V114.078H1023.03V104.754C1023.62 103.83 1024.12 102.864 1024.54 101.884L1023.27 101.464ZM1028.03 112.552C1027.34 112.552 1027.23 112.426 1027.23 111.656V107.96C1028.97 106.826 1030.63 105.482 1031.88 104.208L1030.66 103.592C1029.83 104.516 1028.59 105.538 1027.23 106.462V101.436H1025.9V107.302C1025.27 107.68 1024.64 108.016 1024.04 108.31C1024.26 108.576 1024.58 109.094 1024.75 109.402C1025.13 109.206 1025.51 108.996 1025.9 108.772V111.642C1025.9 113.336 1026.36 113.812 1027.9 113.812H1030.45C1031.86 113.812 1032.24 113.056 1032.41 110.956C1032.03 110.872 1031.5 110.62 1031.18 110.396C1031.09 112.132 1030.98 112.552 1030.34 112.552H1028.03ZM1043.35 111.166V112.594H1036.36V111.166H1043.35ZM1035.13 114.134H1036.36V113.658H1043.35V114.106H1044.65V110.046H1035.13V114.134ZM1042.23 108.422H1037.38V107.358H1042.23V108.422ZM1036.16 106.462V109.318H1043.5V106.462H1036.16ZM1034.04 107.47H1035.23V105.72H1044.38V107.47H1045.63V104.698H1034.04V107.47ZM1042.9 102.332V101.268H1041.61V102.332H1037.89V101.268H1036.6V102.332H1033.67V103.508H1036.6V104.348H1037.89V103.508H1041.61V104.348H1042.9V103.508H1045.91V102.332H1042.9ZM1058.3 104.362C1057.78 105.972 1056.83 108.016 1056.09 109.29L1057.17 109.85C1057.92 108.534 1058.83 106.602 1059.49 104.936L1058.3 104.362ZM1050.74 109.276C1050.38 108.016 1049.54 105.916 1048.84 104.32L1047.65 104.698C1048.33 106.308 1049.12 108.464 1049.44 109.752L1050.74 109.276ZM1055.92 112.132V101.45H1054.59V112.132H1052.48V101.436H1051.15V112.132H1047.38V113.42H1059.69V112.132H1055.92ZM1068.24 105.678C1069.54 104.824 1070.93 103.76 1072.29 102.542L1071.34 101.8L1071.04 101.912H1065.54V103.144H1069.66C1068.55 104.11 1067.4 104.908 1066.98 105.174C1066.45 105.51 1065.93 105.818 1065.55 105.874C1065.74 106.182 1066.02 106.798 1066.1 107.092C1066.23 106.966 1066.73 106.896 1067.33 106.896H1067.95C1067.43 108.282 1066.53 109.472 1065.4 110.242L1065.23 109.472C1064.77 109.64 1064.29 109.808 1063.83 109.99V105.846H1065.29V104.614H1063.83V101.436H1062.61V104.614H1060.99V105.846H1062.61V110.424C1061.93 110.662 1061.31 110.886 1060.81 111.04L1061.23 112.37C1062.45 111.88 1064.03 111.25 1065.5 110.648L1065.46 110.48C1065.71 110.676 1066.04 110.928 1066.2 111.082C1067.47 110.116 1068.55 108.674 1069.17 106.896H1070.17C1069.36 109.738 1067.89 111.978 1065.67 113.336C1065.96 113.504 1066.46 113.854 1066.67 114.05C1068.89 112.51 1070.45 110.088 1071.36 106.896H1072.12C1071.88 110.746 1071.62 112.258 1071.27 112.636C1071.11 112.818 1071 112.86 1070.78 112.846C1070.52 112.846 1070.02 112.846 1069.47 112.79C1069.67 113.126 1069.8 113.658 1069.82 114.008C1070.43 114.036 1071.01 114.036 1071.38 113.98C1071.78 113.938 1072.09 113.798 1072.4 113.434C1072.89 112.846 1073.16 111.096 1073.45 106.266C1073.46 106.084 1073.48 105.678 1073.48 105.678H1068.24ZM1079.47 105.846V108.002H1076.67C1076.69 107.736 1076.69 107.484 1076.69 107.246V105.846H1079.47ZM1080.73 109.178V104.67H1076.69V103.634C1078.11 103.34 1079.67 102.906 1080.84 102.402L1079.78 101.436C1078.91 101.856 1077.5 102.304 1076.17 102.626L1075.41 102.402V107.232C1075.41 109.038 1075.33 111.39 1074.43 113.14C1074.74 113.28 1075.24 113.714 1075.44 113.994C1076.21 112.622 1076.52 110.802 1076.63 109.178H1080.73ZM1087.51 105.958H1082.76V103.9C1084.34 103.508 1086.05 103.004 1087.31 102.374L1086.16 101.408C1085.3 101.912 1083.87 102.416 1082.48 102.794L1081.49 102.556V106.322C1081.49 108.436 1081.29 111.18 1079.36 113.196C1079.68 113.35 1080.14 113.798 1080.33 114.078C1082.2 112.132 1082.66 109.36 1082.75 107.204H1084.81V114.106H1086.11V107.204H1087.51V105.958ZM1097.9 109.808C1097.51 110.368 1096.99 110.872 1096.4 111.32C1095.73 110.872 1095.15 110.368 1094.68 109.808H1097.9ZM1098.93 108.618L1098.68 108.674H1095.11C1095.27 108.296 1095.43 107.932 1095.57 107.526H1100.74V106.364H1099.07L1099.87 105.818C1099.52 105.398 1098.84 104.698 1098.33 104.194L1097.39 104.782C1097.86 105.272 1098.44 105.916 1098.78 106.364H1095.95C1096.15 105.678 1096.32 104.964 1096.46 104.194L1095.17 104.012C1095.04 104.838 1094.86 105.636 1094.64 106.364H1093.07C1093.35 105.79 1093.63 105.048 1093.78 104.362L1092.42 104.18C1092.3 105.034 1091.86 105.902 1091.75 106.098C1091.64 106.35 1091.49 106.504 1091.32 106.56C1091.47 106.854 1091.68 107.428 1091.75 107.722C1091.88 107.596 1092.44 107.526 1093.21 107.526H1094.24C1093.42 109.57 1092.19 111.124 1090.31 112.16C1090.56 112.384 1091.01 112.93 1091.15 113.21C1092.27 112.524 1093.18 111.67 1093.94 110.676C1094.36 111.152 1094.82 111.586 1095.32 111.992C1094.38 112.51 1093.31 112.888 1092.24 113.126C1092.48 113.392 1092.8 113.868 1092.94 114.204C1094.17 113.868 1095.39 113.392 1096.47 112.748C1097.58 113.378 1098.86 113.84 1100.26 114.134C1100.45 113.798 1100.78 113.294 1101.06 113.028C1099.79 112.818 1098.58 112.454 1097.56 111.964C1098.51 111.194 1099.3 110.228 1099.82 109.066L1098.93 108.618ZM1096.34 102.542C1096.13 102.122 1095.85 101.59 1095.63 101.198L1094.27 101.45C1094.45 101.772 1094.64 102.178 1094.79 102.542H1089.37V106.434C1089.37 108.464 1089.29 111.39 1088.29 113.406C1088.6 113.546 1089.18 113.924 1089.43 114.162C1090.52 111.978 1090.7 108.646 1090.7 106.434V103.774H1101.06V102.542H1096.34ZM1102.77 107.05C1105.28 106.98 1109.07 106.854 1112.67 106.714C1113.05 107.05 1113.37 107.372 1113.59 107.652L1114.64 106.91C1113.89 106.028 1112.29 104.866 1110.99 104.11L1110.02 104.754C1110.44 105.006 1110.89 105.314 1111.34 105.636C1109.73 105.678 1108.12 105.72 1106.64 105.748C1107.06 105.16 1107.5 104.488 1107.9 103.872L1107.74 103.816H1114.67V102.668H1109.13V101.254H1107.84V102.668H1102.35V103.816H1106.38C1106.06 104.446 1105.63 105.188 1105.24 105.776C1104.3 105.79 1103.43 105.804 1102.7 105.818L1102.77 107.05ZM1114.78 109.122H1111.59V107.274H1110.29V109.122H1106.69V109.08V107.344H1105.42V109.052V109.122H1102.28V110.312H1105.26C1104.98 111.348 1104.19 112.384 1102.04 113.14C1102.32 113.364 1102.72 113.854 1102.88 114.148C1105.49 113.182 1106.34 111.74 1106.59 110.312H1110.29V114.092H1111.59V110.312H1114.78V109.122ZM1121.02 107.414L1119.55 107.834V105.258H1120.85V104.026H1119.55V101.254H1118.34V104.026H1117.45C1117.54 103.438 1117.61 102.836 1117.68 102.234L1116.58 102.052C1116.44 103.718 1116.19 105.482 1115.7 106.616C1115.96 106.756 1116.44 107.036 1116.65 107.204C1116.86 106.672 1117.05 106 1117.22 105.258H1118.34V108.198C1117.39 108.464 1116.51 108.702 1115.81 108.884L1116.14 110.13L1118.34 109.458V114.092H1119.55V109.08C1120.09 108.912 1120.64 108.744 1121.18 108.562L1121.02 107.414ZM1123.26 103.508C1123.47 102.864 1123.68 102.178 1123.83 101.478L1122.65 101.254C1122.19 103.326 1121.39 105.314 1120.26 106.546C1120.54 106.714 1121.06 107.106 1121.27 107.288C1121.84 106.602 1122.35 105.72 1122.78 104.712H1123.77C1123.13 106.868 1121.98 109.08 1120.54 110.2C1120.89 110.382 1121.31 110.704 1121.55 110.942C1123.03 109.626 1124.25 107.064 1124.87 104.712H1125.8C1125.1 108.1 1123.63 111.446 1121.38 113.056C1121.74 113.252 1122.21 113.588 1122.46 113.826C1124.73 112.006 1126.22 108.324 1126.94 104.712H1127.33C1127.08 110.032 1126.78 112.02 1126.38 112.482C1126.24 112.678 1126.1 112.734 1125.87 112.734C1125.61 112.734 1125.09 112.734 1124.5 112.678C1124.71 113.042 1124.85 113.574 1124.87 113.952C1125.48 113.98 1126.07 113.994 1126.45 113.924C1126.9 113.854 1127.18 113.728 1127.47 113.308C1128.02 112.622 1128.28 110.41 1128.59 104.124C1128.6 103.956 1128.6 103.508 1128.6 103.508H1123.26ZM1140 105.79H1136.14V105.076H1140V105.79ZM1140 107.344H1136.14V106.588H1140V107.344ZM1140 108.884H1136.14V108.142H1140V108.884ZM1137.41 104.25H1134.96V109.724H1141.25V104.25H1138.69V103.396H1142.27V102.318H1138.69V101.254H1137.41V102.318H1133.9V103.396H1137.41V104.25ZM1133.49 111.516H1142.47V110.424H1133.49V111.516ZM1133.98 108.842L1132.53 109.444V105.832H1133.91V104.6H1132.53V101.45H1131.32V104.6H1129.78V105.832H1131.32V109.934C1130.64 110.214 1130.01 110.466 1129.5 110.648L1130.01 111.95C1131.24 111.418 1132.82 110.718 1134.28 110.032L1133.98 108.842ZM1136.15 111.628C1135.44 112.258 1134.22 112.832 1133.07 113.21C1133.37 113.42 1133.83 113.882 1134.05 114.12C1135.19 113.644 1136.52 112.874 1137.37 112.048L1136.15 111.628ZM1138.7 112.216C1139.71 112.804 1140.77 113.56 1141.37 114.106L1142.56 113.476C1141.86 112.93 1140.66 112.16 1139.61 111.572L1138.7 112.216ZM1147.7 108.716C1147.23 108.926 1146.74 109.136 1146.28 109.318V105.776H1147.82V104.544H1146.28V101.436H1145.06V104.544H1143.43V105.776H1145.06V109.836C1144.37 110.102 1143.76 110.354 1143.27 110.522L1143.77 111.824C1145 111.278 1146.56 110.564 1148 109.878L1147.7 108.716ZM1149.52 105.58H1151.32V107.106H1149.52V105.58ZM1149.52 103.032H1151.32V104.53H1149.52V103.032ZM1154.3 104.53H1152.51V103.032H1154.3V104.53ZM1154.3 107.106H1152.51V105.58H1154.3V107.106ZM1152.62 112.468V110.802H1155.75V109.626H1152.62V108.212H1155.54V101.912H1148.35V108.212H1151.2V109.626H1148.21V110.802H1151.2V112.468H1147.19V113.672H1156.22V112.468H1152.62Z" fill="#283895"/>
<rect x="401" y="80" width="253" height="54" rx="10" fill="#F6F7FE"/>
<path d="M497.598 104.04H493.3V102.934H497.598V104.04ZM497.598 106.182H493.3V105.062H497.598V106.182ZM498.872 101.856H492.068V107.26H498.872V101.856ZM491.438 102.822C490.878 102.374 489.73 101.772 488.876 101.436L488.176 102.36C489.044 102.752 490.164 103.396 490.696 103.858L491.438 102.822ZM490.612 106.56C490.038 106.126 488.876 105.524 488.008 105.188L487.336 106.126C488.232 106.518 489.352 107.162 489.912 107.624L490.612 106.56ZM490.066 108.618C489.338 110.2 488.33 111.978 487.644 113.056L488.764 113.84C489.52 112.524 490.374 110.858 491.046 109.402L490.066 108.618ZM492.782 109.402H493.888V112.566H492.782V109.402ZM496.002 109.402V112.566H494.882V109.402H496.002ZM498.116 109.402V112.566H496.996V109.402H498.116ZM499.348 112.566V108.296H491.62V112.566H490.486V113.7H500.23V112.566H499.348ZM502.794 103.424H512.244V104.95H513.574V102.248H508.156V101.254H506.826V102.248H501.52V104.95H502.794V103.424ZM508.156 112.552V111.096H512.538V109.962H508.156V108.534C509.206 108.492 510.298 108.464 511.362 108.422C511.656 108.716 511.922 108.996 512.104 109.234L513.126 108.52C512.468 107.736 511.082 106.602 509.962 105.846L509.024 106.49C509.388 106.742 509.78 107.05 510.158 107.358C508.646 107.386 507.134 107.428 505.748 107.456C506.112 106.938 506.476 106.336 506.812 105.776H512.146V104.656H502.99V105.776H505.3C505.034 106.336 504.698 106.966 504.376 107.484C503.662 107.498 502.99 107.512 502.416 107.512L502.472 108.702C503.662 108.66 505.188 108.618 506.826 108.576V109.962H502.654V111.096H506.826V112.552H501.408V113.714H513.7V112.552H508.156ZM527.226 103.83V102.724H518.644C518.812 102.346 518.966 101.954 519.106 101.562L517.804 101.226C517.146 103.2 515.984 105.104 514.626 106.28C514.962 106.462 515.536 106.854 515.802 107.064C516.628 106.238 517.426 105.104 518.098 103.83H527.226ZM526.134 105.776V104.712H517.916V105.776H526.134ZM516.46 106.728V107.848H523.824C523.978 111.348 524.482 114.092 526.428 114.092C527.366 114.092 527.646 113.392 527.744 111.726C527.464 111.558 527.114 111.236 526.848 110.942C526.834 112.09 526.764 112.804 526.512 112.804C525.518 112.804 525.154 109.864 525.098 106.728H516.46ZM531.4 101.324C530.728 103.354 529.636 105.398 528.432 106.714C528.656 107.008 529.034 107.722 529.16 108.03C529.51 107.61 529.846 107.162 530.196 106.658V114.078H531.442V104.502C531.89 103.578 532.31 102.626 532.618 101.674L531.4 101.324ZM541.34 105.16V103.928H537.336V101.324H536.062V103.928H532.31V105.16H535.376C534.55 107.456 533.178 109.738 531.694 110.97C531.974 111.194 532.422 111.642 532.618 111.964C533.99 110.648 535.208 108.534 536.062 106.238V110.452H533.976V111.628H536.062V114.022H537.336V111.628H539.408V110.452H537.336V106.154C538.162 108.436 539.366 110.62 540.682 111.922C540.92 111.572 541.354 111.124 541.676 110.886C540.234 109.668 538.862 107.414 538.064 105.16H541.34ZM555.048 102.808C554.698 102.346 553.984 101.744 553.368 101.338L552.584 101.94C553.214 102.374 553.914 103.032 554.222 103.48L555.048 102.808ZM545.542 104.236C545.164 103.606 544.31 102.724 543.582 102.094L542.7 102.85C543.414 103.508 544.24 104.432 544.576 105.062L545.542 104.236ZM544.422 107.064C543.778 108.744 542.91 110.634 542.28 111.782L543.4 112.538C544.072 111.152 544.814 109.36 545.388 107.806L544.422 107.064ZM550.918 105.692H547.614V106.658H550.918V105.692ZM549.952 108.562V110.298H548.594V108.562H549.952ZM548.594 111.264H550.806V107.596H547.754V111.866H548.594V111.264ZM553.62 106.126C553.382 107.106 553.06 108.002 552.668 108.828C552.542 107.708 552.43 106.35 552.388 104.754H555.006V103.578H552.36C552.346 102.85 552.332 102.066 552.346 101.254H551.1C551.114 102.066 551.128 102.836 551.142 103.578H546.004V106.952C546.004 108.87 545.864 111.516 544.534 113.392C544.814 113.504 545.304 113.84 545.514 114.036C546.928 112.034 547.152 109.052 547.152 106.966V104.754H551.184C551.282 107.036 551.45 108.94 551.716 110.438C550.876 111.6 549.826 112.524 548.51 113.21C548.776 113.406 549.224 113.854 549.392 114.078C550.4 113.476 551.282 112.734 552.038 111.852C552.472 113.322 553.06 114.106 553.872 114.106C554.796 114.106 555.174 113.728 555.342 111.46C555.062 111.348 554.684 111.068 554.446 110.802C554.376 112.384 554.236 112.86 553.984 112.86C553.62 112.86 553.242 112.118 552.948 110.634C553.732 109.43 554.334 108.002 554.768 106.364L553.62 106.126ZM560.244 107.106L558.97 107.484V105.174H560.37V103.97H558.97V101.268H557.78V103.97H556.156V105.174H557.78V107.834C557.094 108.03 556.464 108.212 555.96 108.338L556.254 109.598C556.716 109.444 557.234 109.29 557.78 109.122V112.664C557.78 112.86 557.71 112.902 557.528 112.902C557.374 112.916 556.856 112.916 556.296 112.902C556.464 113.238 556.618 113.798 556.646 114.106C557.542 114.106 558.088 114.064 558.466 113.868C558.844 113.658 558.97 113.308 558.97 112.664V108.758C559.446 108.604 559.936 108.45 560.412 108.296L560.244 107.106ZM562.75 103.578H560.566V104.754H562.75V106.476H560.678V107.638H562.75C562.736 108.184 562.694 108.716 562.624 109.234C561.588 109.57 560.594 109.878 559.852 110.074L560.356 111.194C560.972 110.97 561.658 110.718 562.344 110.452C561.994 111.516 561.35 112.468 560.202 113.238C560.482 113.434 560.916 113.854 561.126 114.106C563.604 112.398 563.912 109.878 563.912 107.106V101.24H562.75V103.578ZM568.952 109.486H566.39V107.638H568.56V106.476H566.39V104.754H568.714V103.578H566.39V101.24H565.158V114.078H566.39V110.676H568.952V109.486Z" fill="#283895"/>
<rect x="674" y="80" width="253" height="54" rx="10" fill="#F6F7FE"/>
<path d="M739.606 105.692V106.714H737.59V105.692H739.606ZM742.868 106.714H740.782V105.692H742.868V106.714ZM740.782 108.716V107.666H742.868V108.716H740.782ZM737.59 108.716V107.666H739.606V108.716H737.59ZM737.59 109.696H739.606V111.852H740.782V109.696H742.868V110.676C742.868 110.844 742.812 110.9 742.658 110.9C742.49 110.9 741.958 110.914 741.37 110.886C741.524 111.18 741.678 111.614 741.72 111.936C742.616 111.936 743.204 111.922 743.596 111.754C744.002 111.572 744.1 111.278 744.1 110.69V104.726H742.378C742.112 104.572 741.79 104.404 741.426 104.236C742.406 103.704 743.372 103.004 744.1 102.332L743.316 101.702L743.05 101.772H736.428V102.794H741.846C741.384 103.13 740.838 103.466 740.306 103.732C739.69 103.466 739.046 103.214 738.5 103.018L737.66 103.718C738.374 103.998 739.214 104.362 739.97 104.726H736.372V111.894H737.59V109.696ZM735.504 103.032C735.07 102.5 734.104 101.828 733.32 101.394L732.452 102.178C733.236 102.654 734.174 103.368 734.58 103.9L735.504 103.032ZM735.098 105.762C734.608 105.244 733.628 104.586 732.816 104.194L731.976 105.006C732.788 105.454 733.768 106.154 734.202 106.672L735.098 105.762ZM734.818 107.638H731.92V108.842H733.572V111.306C732.984 111.824 732.326 112.328 731.752 112.72L732.41 113.994C733.096 113.392 733.698 112.832 734.286 112.258C735.182 113.336 736.414 113.798 738.192 113.868C739.802 113.91 742.742 113.896 744.352 113.826C744.408 113.448 744.604 112.86 744.772 112.552C742.994 112.692 739.788 112.72 738.192 112.65C736.624 112.594 735.462 112.16 734.818 111.18V107.638ZM754.994 110.018C754.994 110.27 754.896 110.34 754.63 110.354C754.35 110.368 753.356 110.368 752.404 110.326C752.586 110.69 752.796 111.278 752.852 111.656C754.154 111.656 755.05 111.614 755.582 111.404C756.128 111.208 756.324 110.844 756.324 110.032V104.936H758.144V103.704H756.324V101.324H754.994V103.704H749.73V104.936H754.994V110.018ZM750.276 106.392C750.962 107.26 751.816 108.464 752.194 109.192L753.286 108.52C752.894 107.792 752.012 106.644 751.312 105.818L750.276 106.392ZM749.184 103.984C748.764 103.326 747.854 102.36 747.084 101.66L746.076 102.332C746.832 103.06 747.728 104.068 748.106 104.74L749.184 103.984ZM748.82 106.42H745.768V107.638H747.546V111.026C746.93 111.278 746.216 111.852 745.516 112.608L746.44 113.882C747.056 112.986 747.7 112.118 748.134 112.118C748.442 112.118 748.904 112.58 749.506 112.93C750.514 113.518 751.676 113.672 753.412 113.672C754.77 113.672 757.15 113.588 758.116 113.532C758.144 113.14 758.354 112.468 758.522 112.104C757.164 112.272 754.994 112.398 753.454 112.398C751.914 112.398 750.668 112.3 749.772 111.754C749.352 111.516 749.072 111.306 748.82 111.138V106.42ZM761.856 109.15V107.442H764.978V109.15H761.856ZM764.978 104.544V106.252H761.856V104.544H764.978ZM769.57 104.544V106.252H766.364V104.544H769.57ZM766.364 109.15V107.442H769.57V109.15H766.364ZM767.302 112.594C766.49 112.594 766.364 112.44 766.364 111.6V110.424H770.9V103.27H766.364V101.31H764.978V103.27H760.512V111.25H761.856V110.424H764.978V111.572C764.978 113.42 765.454 113.896 767.176 113.896H770.06C771.642 113.896 772.048 113.14 772.244 110.998C771.852 110.9 771.278 110.676 770.956 110.438C770.844 112.16 770.704 112.594 769.962 112.594H767.302ZM777.132 102.794C776.558 102.346 775.452 101.758 774.57 101.394L773.856 102.374C774.738 102.752 775.83 103.396 776.362 103.872L777.132 102.794ZM776.278 106.546C775.718 106.112 774.626 105.552 773.786 105.216L773.1 106.182C773.954 106.574 775.032 107.176 775.564 107.624L776.278 106.546ZM774.71 113.882C775.48 112.566 776.348 110.9 777.02 109.458L776.04 108.632C775.27 110.214 774.262 111.992 773.562 113.056L774.71 113.882ZM780.422 112.748C779.47 112.748 779.302 112.594 779.302 111.782V107.106L781.038 106.434V110.928H782.326V105.93L784.16 105.202C784.146 107.274 784.118 108.478 784.048 108.8C783.964 109.108 783.852 109.164 783.628 109.164C783.46 109.164 783.012 109.164 782.662 109.136C782.816 109.444 782.928 109.99 782.97 110.368C783.418 110.382 784.048 110.354 784.468 110.214C784.902 110.074 785.168 109.752 785.266 109.094C785.364 108.506 785.392 106.644 785.406 104.152L785.462 103.942L784.538 103.592L784.314 103.774L784.216 103.844L782.326 104.586V101.296H781.038V105.09L779.302 105.762V102.654H778.014V106.266L776.432 106.882L776.95 108.044L778.014 107.61V111.768C778.014 113.504 778.532 113.952 780.352 113.952H783.768C785.392 113.952 785.784 113.28 785.98 111.292C785.63 111.222 785.084 110.984 784.776 110.774C784.664 112.384 784.51 112.748 783.684 112.748H780.422ZM789.594 101.254C789.006 102.22 787.802 103.382 786.752 104.11C786.962 104.334 787.298 104.796 787.452 105.048C788.642 104.222 789.93 102.906 790.77 101.702L789.594 101.254ZM789.902 104.152C789.118 105.566 787.844 106.98 786.612 107.876C786.822 108.156 787.2 108.8 787.326 109.066C787.788 108.702 788.25 108.254 788.698 107.764V114.092H789.916V106.308C790.336 105.734 790.728 105.146 791.05 104.558L789.902 104.152ZM792.618 104.446V103.396C793.556 103.312 794.536 103.2 795.502 103.06C795.502 103.494 795.488 103.97 795.488 104.446H792.618ZM797.882 108.856H794.438V107.862H797.882V108.856ZM794.438 112.664V111.656H797.882V112.664H794.438ZM794.438 109.766H797.882V110.746H794.438V109.766ZM799.688 105.552V104.446H796.706C796.734 103.9 796.748 103.354 796.762 102.864H796.72C797.588 102.71 798.4 102.528 799.1 102.332L798.19 101.436C796.818 101.856 794.494 102.22 792.394 102.444L791.414 102.192V106.434C791.414 108.45 791.302 111.194 790.252 113.224C790.574 113.364 791.05 113.784 791.246 114.036C792.464 111.796 792.618 108.576 792.618 106.448V105.552H795.446C795.432 106 795.404 106.42 795.376 106.798H793.276V114.106H794.438V113.574H797.882V114.022H799.1V106.798H796.538C796.58 106.42 796.608 106 796.636 105.552H799.688ZM803.4 110.452V107.33H804.562V106.126H803.4V103.34H804.87V102.15H800.628V103.34H802.196V106.126H800.824V107.33H802.196V110.858C801.58 111.068 801.006 111.236 800.53 111.376L800.838 112.594C802.028 112.202 803.526 111.684 804.94 111.18L804.73 110.004L803.4 110.452ZM813.298 109.192C812.71 108.226 811.45 106.672 810.456 105.552L809.63 106.126V104.992C809.882 104.446 810.106 103.886 810.316 103.326H813.256V102.094H805.5V103.326H808.888C808.006 105.678 806.62 107.82 804.954 109.164C805.248 109.416 805.766 109.934 805.976 110.2C806.83 109.43 807.628 108.45 808.342 107.344V114.064H809.63V106.42C810.596 107.582 811.702 109.052 812.206 110.004L813.298 109.192ZM822.19 109.038H819.208V106.182H822.19V109.038ZM817.976 105.034V110.172H823.492V105.034H817.976ZM816.282 112.132V103.116H825.228V112.132H816.282ZM814.938 101.786V114.106H816.282V113.35H825.228V114.106H826.628V101.786H814.938ZM838.852 105.006C838.502 106.686 837.984 108.114 837.256 109.318C836.556 108.058 836.052 106.588 835.702 105.006H838.852ZM841.008 105.006V103.774H836.066C836.318 103.046 836.528 102.276 836.71 101.506L835.38 101.24C834.918 103.424 834.092 105.496 832.972 106.868V101.324H831.698V109.192L830.172 109.584V102.864H828.926V109.906C828.59 109.976 828.282 110.06 828.016 110.116L828.464 111.432C829.402 111.152 830.55 110.788 831.698 110.424V114.092H832.972V107.232C833.266 107.484 833.644 107.848 833.812 108.058C834.19 107.61 834.526 107.092 834.848 106.518C835.254 107.988 835.772 109.318 836.43 110.466C835.548 111.516 834.428 112.342 833.014 112.958C833.266 113.238 833.644 113.84 833.77 114.134C835.156 113.462 836.276 112.636 837.186 111.6C838.012 112.664 839.02 113.518 840.266 114.12C840.448 113.784 840.868 113.252 841.162 113C839.888 112.454 838.866 111.6 838.04 110.508C839.034 109.024 839.72 107.204 840.196 105.006H841.008ZM846.008 103.102C845.364 102.626 844.09 102.038 843.11 101.688L842.452 102.584C843.446 102.962 844.706 103.62 845.322 104.096L846.008 103.102ZM846.036 104.712C844.552 105.202 843.026 105.678 842.018 105.972L842.396 107.162C843.502 106.77 844.93 106.308 846.26 105.832L846.036 104.712ZM852.952 111.502V107.792H843.768V111.614H845.056V108.968H851.622V111.502H852.952ZM847.73 109.346C847.338 111.404 846.358 112.538 841.962 113.056C842.158 113.322 842.438 113.826 842.536 114.12C847.282 113.462 848.542 111.992 849.018 109.346H847.73ZM848.444 112.048C850.138 112.594 852.434 113.462 853.582 114.064L854.366 113C853.162 112.426 850.824 111.6 849.186 111.138L848.444 112.048ZM852.616 103.48C852.448 103.9 852.252 104.32 852.084 104.614L853.232 104.922C853.568 104.362 853.974 103.48 854.282 102.682L853.33 102.444L853.134 102.486H848.752C848.906 102.15 849.046 101.828 849.172 101.492L847.94 101.324C847.604 102.304 846.904 103.438 845.798 104.278C846.078 104.446 846.512 104.81 846.694 105.104C847.31 104.6 847.786 104.054 848.178 103.48H849.578C849.172 104.824 848.318 106.028 845.91 106.7C846.148 106.91 846.47 107.358 846.596 107.638C848.486 107.05 849.55 106.168 850.208 105.104C851.048 106.224 852.28 107.078 853.792 107.512C853.96 107.204 854.282 106.728 854.562 106.504C852.826 106.126 851.412 105.244 850.684 104.054C850.754 103.858 850.81 103.676 850.866 103.48H852.616ZM859.31 102.808C858.82 102.318 857.784 101.73 856.972 101.366L856.23 102.304C857.056 102.71 858.05 103.368 858.526 103.844L859.31 102.808ZM858.638 106.434C858.134 105.986 857.112 105.426 856.286 105.076L855.558 106.042C856.384 106.406 857.406 107.036 857.868 107.498L858.638 106.434ZM857.854 108.716C857.238 110.326 856.398 112.118 855.81 113.21L856.986 113.91C857.63 112.58 858.344 110.914 858.904 109.444L857.854 108.716ZM862.054 110.046C861.704 111.026 861.13 112.006 860.458 112.678C860.752 112.832 861.242 113.168 861.48 113.35C862.138 112.594 862.81 111.446 863.216 110.34L862.054 110.046ZM862.838 107.372H866.618V108.422H862.838V107.372ZM862.838 105.454H866.618V106.462H862.838V105.454ZM867.85 109.374V104.488H865.092C865.232 104.068 865.372 103.592 865.526 103.13H868.312V101.954H859.73V105.762C859.73 108.03 859.604 111.18 858.036 113.378C858.33 113.518 858.904 113.868 859.114 114.064C860.766 111.754 861.004 108.198 861.004 105.762V103.13H864.056C864 103.55 863.902 104.054 863.818 104.488H861.676V109.374H864.042V112.776C864.042 112.93 863.986 112.986 863.818 112.986C863.65 112.986 863.062 113 862.474 112.972C862.614 113.294 862.782 113.77 862.824 114.092C863.734 114.106 864.35 114.092 864.756 113.91C865.176 113.728 865.274 113.406 865.274 112.818V109.374H867.85ZM865.974 110.368C866.562 111.236 867.192 112.426 867.43 113.182L868.62 112.65C868.368 111.894 867.696 110.76 867.094 109.906L865.974 110.368Z" fill="#283895"/>
<rect x="128" y="80" width="253" height="54" rx="10" fill="#F6F7FE"/>
<path d="M190.897 113V103.76L191.499 104.418H188.685V103.2H192.283V113H190.897ZM198.181 113.112C197.415 113.112 196.729 112.916 196.123 112.524C195.525 112.132 195.049 111.563 194.695 110.816C194.349 110.069 194.177 109.164 194.177 108.1C194.177 107.036 194.349 106.131 194.695 105.384C195.049 104.637 195.525 104.068 196.123 103.676C196.729 103.284 197.415 103.088 198.181 103.088C198.937 103.088 199.618 103.284 200.225 103.676C200.831 104.068 201.307 104.637 201.653 105.384C201.998 106.131 202.171 107.036 202.171 108.1C202.171 109.164 201.998 110.069 201.653 110.816C201.307 111.563 200.831 112.132 200.225 112.524C199.618 112.916 198.937 113.112 198.181 113.112ZM198.181 111.866C198.694 111.866 199.142 111.726 199.525 111.446C199.917 111.166 200.22 110.746 200.435 110.186C200.659 109.626 200.771 108.931 200.771 108.1C200.771 107.269 200.659 106.574 200.435 106.014C200.22 105.454 199.917 105.034 199.525 104.754C199.142 104.474 198.694 104.334 198.181 104.334C197.667 104.334 197.215 104.474 196.823 104.754C196.431 105.034 196.123 105.454 195.899 106.014C195.684 106.574 195.577 107.269 195.577 108.1C195.577 108.931 195.684 109.626 195.899 110.186C196.123 110.746 196.431 111.166 196.823 111.446C197.215 111.726 197.667 111.866 198.181 111.866ZM207.269 113.112C206.503 113.112 205.817 112.916 205.211 112.524C204.613 112.132 204.137 111.563 203.783 110.816C203.437 110.069 203.265 109.164 203.265 108.1C203.265 107.036 203.437 106.131 203.783 105.384C204.137 104.637 204.613 104.068 205.211 103.676C205.817 103.284 206.503 103.088 207.269 103.088C208.025 103.088 208.706 103.284 209.313 103.676C209.919 104.068 210.395 104.637 210.741 105.384C211.086 106.131 211.259 107.036 211.259 108.1C211.259 109.164 211.086 110.069 210.741 110.816C210.395 111.563 209.919 112.132 209.313 112.524C208.706 112.916 208.025 113.112 207.269 113.112ZM207.269 111.866C207.782 111.866 208.23 111.726 208.613 111.446C209.005 111.166 209.308 110.746 209.523 110.186C209.747 109.626 209.859 108.931 209.859 108.1C209.859 107.269 209.747 106.574 209.523 106.014C209.308 105.454 209.005 105.034 208.613 104.754C208.23 104.474 207.782 104.334 207.269 104.334C206.755 104.334 206.303 104.474 205.911 104.754C205.519 105.034 205.211 105.454 204.987 106.014C204.772 106.574 204.665 107.269 204.665 108.1C204.665 108.931 204.772 109.626 204.987 110.186C205.211 110.746 205.519 111.166 205.911 111.446C206.303 111.726 206.755 111.866 207.269 111.866ZM213.696 113L220.388 103.2H221.466L214.774 113H213.696ZM214.48 108.464C214.032 108.464 213.636 108.352 213.29 108.128C212.945 107.904 212.674 107.591 212.478 107.19C212.292 106.789 212.198 106.322 212.198 105.79C212.198 105.258 212.292 104.791 212.478 104.39C212.674 103.989 212.945 103.676 213.29 103.452C213.636 103.228 214.032 103.116 214.48 103.116C214.938 103.116 215.334 103.228 215.67 103.452C216.016 103.676 216.282 103.989 216.468 104.39C216.655 104.791 216.748 105.258 216.748 105.79C216.748 106.322 216.655 106.789 216.468 107.19C216.282 107.591 216.016 107.904 215.67 108.128C215.334 108.352 214.938 108.464 214.48 108.464ZM214.48 107.666C214.91 107.666 215.246 107.503 215.488 107.176C215.731 106.84 215.852 106.378 215.852 105.79C215.852 105.202 215.731 104.745 215.488 104.418C215.246 104.082 214.91 103.914 214.48 103.914C214.06 103.914 213.724 104.082 213.472 104.418C213.23 104.745 213.108 105.202 213.108 105.79C213.108 106.369 213.23 106.826 213.472 107.162C213.724 107.498 214.06 107.666 214.48 107.666ZM220.682 113.084C220.234 113.084 219.838 112.972 219.492 112.748C219.147 112.524 218.881 112.211 218.694 111.81C218.508 111.409 218.414 110.942 218.414 110.41C218.414 109.878 218.508 109.411 218.694 109.01C218.881 108.609 219.147 108.296 219.492 108.072C219.838 107.848 220.234 107.736 220.682 107.736C221.14 107.736 221.536 107.848 221.872 108.072C222.218 108.296 222.484 108.609 222.67 109.01C222.866 109.411 222.964 109.878 222.964 110.41C222.964 110.942 222.866 111.409 222.67 111.81C222.484 112.211 222.218 112.524 221.872 112.748C221.536 112.972 221.14 113.084 220.682 113.084ZM220.682 112.286C221.102 112.286 221.434 112.123 221.676 111.796C221.928 111.46 222.054 110.998 222.054 110.41C222.054 109.831 221.928 109.374 221.676 109.038C221.434 108.702 221.102 108.534 220.682 108.534C220.262 108.534 219.926 108.702 219.674 109.038C219.432 109.365 219.31 109.822 219.31 110.41C219.31 110.998 219.432 111.46 219.674 111.796C219.926 112.123 220.262 112.286 220.682 112.286ZM229.879 106.588V109.388H226.659V106.588H229.879ZM231.167 110.62V105.356H225.399V111.712H226.659V110.62H231.167ZM236.459 102.22H224.027V103.522H233.435V112.342C233.435 112.636 233.337 112.72 233.029 112.734C232.693 112.734 231.531 112.748 230.467 112.692C230.677 113.07 230.943 113.714 231.013 114.092C232.413 114.092 233.393 114.078 233.995 113.84C234.583 113.644 234.793 113.21 234.793 112.37V103.522H236.459V102.22ZM244.567 109.668V108.17H247.395V109.668H244.567ZM240.563 108.17H243.279V109.668H240.563V108.17ZM240.563 105.608H243.279V107.05H240.563V105.608ZM247.395 105.608V107.05H244.567V105.608H247.395ZM250.419 109.668H248.697V108.17H250.251V107.05H248.697V104.418H244.567V103.256H249.887V102.052H238.085V103.256H243.279V104.418H239.275V107.05H237.749V108.17H239.275V109.668H237.567V110.858H239.275V114.12H240.563V110.858H247.395V112.58C247.395 112.818 247.311 112.888 247.059 112.902C246.807 112.902 245.883 112.916 245.015 112.888C245.197 113.224 245.407 113.77 245.477 114.12C246.695 114.12 247.493 114.106 248.011 113.91C248.515 113.7 248.697 113.308 248.697 112.594V110.858H250.419V109.668ZM258.429 112.412V109.192H262.783V107.946H258.429V105.146H263.301V103.872H258.429V101.268H257.085V103.872H254.551C254.817 103.2 255.069 102.486 255.279 101.772L253.935 101.464C253.417 103.424 252.535 105.342 251.401 106.532C251.751 106.714 252.325 107.092 252.591 107.316C253.081 106.728 253.543 105.986 253.977 105.146H257.085V107.946H253.095V109.192H257.085V112.412H251.541V113.672H263.973V112.412H258.429ZM276.169 107.4C277.359 107.4 277.737 106.938 277.877 105.188C277.513 105.118 276.981 104.922 276.701 104.712C276.645 106.014 276.561 106.238 276.057 106.238H274.153C273.565 106.238 273.467 106.154 273.467 105.692V104.53C274.741 104.152 276.141 103.662 277.219 103.172L276.379 102.234C275.637 102.626 274.545 103.088 273.467 103.466V101.282H272.165V105.706C272.165 107.036 272.529 107.4 273.999 107.4H276.169ZM267.097 110.354V109.29H269.673V110.354H267.097ZM269.673 107.302V108.296H267.097V107.302H269.673ZM270.961 106.21H265.879V114.078H267.097V111.348H269.673V112.678C269.673 112.846 269.631 112.902 269.449 112.902C269.253 112.916 268.679 112.916 268.091 112.888C268.273 113.224 268.455 113.728 268.525 114.064C269.379 114.064 269.995 114.05 270.429 113.854C270.835 113.644 270.961 113.308 270.961 112.692V106.21ZM269.071 102.626C269.351 103.018 269.617 103.466 269.869 103.914L267.475 104.026C267.867 103.256 268.287 102.36 268.637 101.52L267.279 101.212C267.027 102.066 266.565 103.2 266.117 104.082C265.725 104.096 265.375 104.11 265.053 104.124L265.165 105.37C266.593 105.286 268.525 105.16 270.443 105.048C270.569 105.342 270.681 105.608 270.751 105.832L271.913 105.356C271.633 104.474 270.877 103.172 270.163 102.206L269.071 102.626ZM274.181 112.846C273.565 112.846 273.453 112.762 273.453 112.286V110.9C274.797 110.494 276.295 109.99 277.359 109.374L276.519 108.422C275.763 108.912 274.601 109.416 273.453 109.822V107.75H272.165V112.3C272.165 113.602 272.543 113.98 274.013 113.98H276.267C277.499 113.98 277.863 113.476 278.017 111.572C277.667 111.488 277.149 111.278 276.855 111.082C276.799 112.58 276.701 112.846 276.155 112.846H274.181ZM282.513 102.808C282.023 102.318 280.987 101.73 280.175 101.366L279.433 102.304C280.259 102.71 281.253 103.368 281.729 103.844L282.513 102.808ZM281.841 106.434C281.337 105.986 280.315 105.426 279.489 105.076L278.761 106.042C279.587 106.406 280.609 107.036 281.071 107.498L281.841 106.434ZM281.057 108.716C280.441 110.326 279.601 112.118 279.013 113.21L280.189 113.91C280.833 112.58 281.547 110.914 282.107 109.444L281.057 108.716ZM285.257 110.046C284.907 111.026 284.333 112.006 283.661 112.678C283.955 112.832 284.445 113.168 284.683 113.35C285.341 112.594 286.013 111.446 286.419 110.34L285.257 110.046ZM286.041 107.372H289.821V108.422H286.041V107.372ZM286.041 105.454H289.821V106.462H286.041V105.454ZM291.053 109.374V104.488H288.295C288.435 104.068 288.575 103.592 288.729 103.13H291.515V101.954H282.933V105.762C282.933 108.03 282.807 111.18 281.239 113.378C281.533 113.518 282.107 113.868 282.317 114.064C283.969 111.754 284.207 108.198 284.207 105.762V103.13H287.259C287.203 103.55 287.105 104.054 287.021 104.488H284.879V109.374H287.245V112.776C287.245 112.93 287.189 112.986 287.021 112.986C286.853 112.986 286.265 113 285.677 112.972C285.817 113.294 285.985 113.77 286.027 114.092C286.937 114.106 287.553 114.092 287.959 113.91C288.379 113.728 288.477 113.406 288.477 112.818V109.374H291.053ZM289.177 110.368C289.765 111.236 290.395 112.426 290.633 113.182L291.823 112.65C291.571 111.894 290.899 110.76 290.297 109.906L289.177 110.368ZM298.251 109.626L296.557 109.906V108.282H297.803V107.106H296.557V105.062H295.311V107.106H294.177C294.597 106.182 294.989 105.104 295.353 103.998H297.859V102.808H295.689C295.815 102.374 295.927 101.926 296.025 101.492L294.765 101.254C294.695 101.772 294.583 102.304 294.471 102.808H292.623V103.998H294.177C293.869 105.062 293.575 105.93 293.435 106.252C293.183 106.854 292.987 107.288 292.735 107.358C292.889 107.666 293.057 108.24 293.127 108.478C293.239 108.366 293.701 108.282 294.163 108.282H295.311V110.102C294.261 110.27 293.295 110.424 292.539 110.522L292.805 111.782C293.547 111.656 294.401 111.488 295.311 111.334V114.078H296.557V111.096L298.293 110.76L298.251 109.626ZM305.363 106.616V105.412H301.513C301.639 104.95 301.751 104.474 301.877 104.012H304.873V102.822H302.199C302.325 102.346 302.437 101.856 302.549 101.422L301.261 101.268C301.149 101.772 301.023 102.29 300.883 102.822H298.461V104.012H300.575C300.449 104.474 300.323 104.95 300.197 105.412H297.957V106.616H299.833C299.553 107.596 299.259 108.506 299.007 109.234H302.871C302.437 109.85 301.919 110.536 301.415 111.18C300.967 110.9 300.491 110.62 300.057 110.368L299.217 111.208C300.659 112.062 302.381 113.336 303.207 114.162L304.075 113.126C303.669 112.762 303.067 112.314 302.409 111.838C303.305 110.704 304.257 109.43 304.957 108.394L304.033 107.946L303.823 108.016H300.771C300.897 107.568 301.023 107.106 301.163 106.616H305.363ZM309.201 103.984V101.282H307.941V103.984H306.401V105.188H307.941V108.016C307.297 108.198 306.723 108.366 306.233 108.478L306.541 109.724L307.941 109.304V112.552C307.941 112.734 307.871 112.79 307.717 112.79C307.563 112.79 307.087 112.79 306.583 112.776C306.751 113.126 306.905 113.714 306.947 114.05C307.787 114.05 308.333 114.008 308.711 113.784C309.075 113.574 309.201 113.21 309.201 112.552V108.926L310.643 108.478L310.461 107.288L309.201 107.652V105.188H310.433V103.984H309.201ZM312.631 108.87V105.79H314.185V107.288C314.185 107.764 314.171 108.296 314.031 108.87H312.631ZM315.977 103.564C315.725 103.97 315.389 104.404 315.081 104.768H312.351C312.701 104.376 313.023 103.97 313.303 103.564H315.977ZM316.845 108.87H315.305C315.417 108.31 315.445 107.778 315.445 107.302V105.79H316.845V108.87ZM319.043 109.99V108.87H318.147V104.768H316.523C317.027 104.194 317.503 103.55 317.839 102.976L316.985 102.402L316.775 102.472H313.989C314.171 102.136 314.339 101.828 314.493 101.492L313.177 101.268C312.687 102.402 311.763 103.83 310.433 104.88C310.713 105.076 311.105 105.524 311.287 105.818L311.399 105.72V108.87H310.447V109.99H313.639C313.065 111.11 311.945 112.258 309.677 113.21C309.985 113.448 310.377 113.868 310.573 114.134C312.757 113.112 313.975 111.908 314.647 110.69C315.543 112.216 316.887 113.434 318.497 114.05C318.665 113.742 319.043 113.28 319.309 113.028C317.685 112.496 316.285 111.376 315.487 109.99H319.043Z" fill="#283895"/>
<rect y="80" width="108" height="128" rx="10" fill="#F5F5F5"/>
<path d="M30.015 138.346V139.438H35.447V138.346H30.015ZM34.579 138.346V138.948H34.831C35.265 143.708 36.203 147.922 38.793 150.134C39.045 149.868 39.507 149.49 39.815 149.294C37.225 147.306 36.273 143.12 35.867 138.346H34.579ZM30.379 141.006C30.001 143.96 29.105 147.432 26.921 149.406C27.187 149.588 27.593 149.952 27.789 150.162C30.071 148.048 31.037 144.408 31.569 141.174L30.379 141.006ZM40.993 141.272V142.336H53.299V141.272H40.993ZM47.811 141.692L46.761 141.944C47.811 145.71 49.715 148.664 52.739 150.092C52.921 149.798 53.271 149.35 53.537 149.112C50.625 147.908 48.721 145.08 47.811 141.692ZM46.579 137.254C46.551 140.614 46.663 146.648 40.713 149.238C41.007 149.448 41.343 149.826 41.511 150.106C47.629 147.306 47.657 140.922 47.713 137.254H46.579ZM55.233 138.136C55.919 138.794 56.787 139.704 57.179 140.278L57.935 139.564C57.515 139.004 56.633 138.136 55.933 137.52L55.233 138.136ZM56.325 149.56C56.507 149.294 56.857 148.986 59.167 147.026C59.055 146.844 58.873 146.452 58.775 146.172L56.381 148.16L56.129 148.594L56.325 149.56ZM54.477 141.622V142.588H57.081V141.622H54.477ZM58.607 144.506V145.472H67.245V144.506H58.607ZM63.759 144.968L63.031 145.276C63.899 146.844 65.425 148.566 66.755 149.448C66.923 149.182 67.245 148.818 67.483 148.622C66.153 147.894 64.585 146.368 63.759 144.968ZM60.329 140.992H65.369V142.448H60.329V140.992ZM60.329 138.71H65.369V140.152H60.329V138.71ZM59.363 137.842V143.316H66.363V137.842H59.363ZM62.107 144.968C61.281 146.508 59.657 148.062 58.131 148.776C58.355 148.972 58.663 149.322 58.817 149.574C60.357 148.72 61.967 146.998 62.849 145.248L62.107 144.968ZM62.457 138.276V142.882H62.429V150.12H63.465V142.882H63.423V138.276H62.457ZM56.325 149.56C56.325 149.14 57.445 148.048 57.445 148.048V141.622H56.437V147.348C56.437 148.076 55.947 148.622 55.681 148.86C55.877 149 56.199 149.364 56.325 149.56ZM70.075 140.39H72.945V141.454H70.075V140.39ZM70.075 138.598H72.945V139.648H70.075V138.598ZM69.137 137.842V142.238H73.925V137.842H69.137ZM68.297 143.274V144.086H74.639V143.274H68.297ZM74.611 137.884V138.752H80.995V137.884H74.611ZM71.139 143.54V148.328L72.049 148.874V143.54H71.139ZM71.559 145.598V146.396H74.373V145.598H71.559ZM77.285 138.178C77.159 138.78 76.893 139.648 76.683 140.222L77.523 140.432C77.775 139.9 78.069 139.116 78.349 138.388L77.285 138.178ZM69.963 146.228L69.319 146.466C70.453 149.364 72.693 149.826 76.207 149.826H80.729C80.771 149.546 80.953 149.14 81.107 148.916C80.295 148.944 76.851 148.944 76.221 148.944C73.113 148.944 70.943 148.636 69.963 146.228ZM75.171 140.096V145.99H76.067V140.894H79.385V145.948H80.309V140.096H75.171ZM69.347 144.786C69.277 146.802 69.025 148.482 68.087 149.574C68.297 149.7 68.689 149.966 68.843 150.092C69.795 148.874 70.145 147.096 70.243 144.842L69.347 144.786ZM77.341 141.58C77.257 145.22 76.963 146.998 74.023 147.936C74.219 148.09 74.443 148.426 74.541 148.622C77.733 147.572 78.139 145.528 78.237 141.58H77.341ZM77.831 146.41C78.713 147.04 79.791 147.964 80.337 148.552L80.967 147.908C80.421 147.32 79.315 146.438 78.447 145.85L77.831 146.41Z" fill="#666666"/>
<rect width="108" height="60" rx="10" fill="#F5F5F5"/>
<path d="M27.201 24.22V25.242H39.549V24.22H27.201ZM27.789 27.174V36.134H28.839V28.168H38.569V27.174H27.789ZM37.925 27.174V34.776C37.925 35.014 37.841 35.084 37.575 35.098C37.309 35.112 36.357 35.126 35.363 35.07C35.531 35.378 35.671 35.84 35.727 36.134C36.987 36.134 37.841 36.12 38.331 35.966C38.821 35.784 38.975 35.448 38.975 34.79V27.174H37.925ZM31.023 30.002C31.653 30.758 32.395 31.794 32.731 32.452L33.361 31.612C33.039 30.996 32.269 30.016 31.625 29.274L31.023 30.002ZM31.023 24.892V27.272C31.023 28.994 30.911 31.598 28.993 33.404C29.245 33.572 29.581 33.922 29.749 34.146C31.807 32.088 32.059 29.274 32.059 27.272V24.892H31.023ZM34.635 29.988C35.559 31.038 36.637 32.494 37.127 33.39L37.771 32.592C37.281 31.724 36.161 30.31 35.223 29.288L34.635 29.988ZM34.607 24.892V27.272C34.607 28.994 34.481 31.598 32.577 33.404C32.815 33.572 33.165 33.922 33.319 34.146C35.377 32.088 35.643 29.274 35.643 27.272V24.892H34.607ZM40.993 27.272V28.336H53.299V27.272H40.993ZM47.811 27.692L46.761 27.944C47.811 31.71 49.715 34.664 52.739 36.092C52.921 35.798 53.271 35.35 53.537 35.112C50.625 33.908 48.721 31.08 47.811 27.692ZM46.579 23.254C46.551 26.614 46.663 32.648 40.713 35.238C41.007 35.448 41.343 35.826 41.511 36.106C47.629 33.306 47.657 26.922 47.713 23.254H46.579ZM55.303 26.04V27.076H66.433V26.04H55.303ZM55.947 30.156V31.178H65.845V30.156H55.947ZM54.659 34.622V35.658H67.133V34.622H54.659ZM60.301 26.866V35.154H61.435V26.866H60.301ZM59.097 23.884C60.021 24.57 61.127 25.564 61.631 26.222L62.541 25.564C61.995 24.892 60.861 23.94 59.951 23.296L59.097 23.884ZM70.075 26.39H72.945V27.454H70.075V26.39ZM70.075 24.598H72.945V25.648H70.075V24.598ZM69.137 23.842V28.238H73.925V23.842H69.137ZM68.297 29.274V30.086H74.639V29.274H68.297ZM74.611 23.884V24.752H80.995V23.884H74.611ZM71.139 29.54V34.328L72.049 34.874V29.54H71.139ZM71.559 31.598V32.396H74.373V31.598H71.559ZM77.285 24.178C77.159 24.78 76.893 25.648 76.683 26.222L77.523 26.432C77.775 25.9 78.069 25.116 78.349 24.388L77.285 24.178ZM69.963 32.228L69.319 32.466C70.453 35.364 72.693 35.826 76.207 35.826H80.729C80.771 35.546 80.953 35.14 81.107 34.916C80.295 34.944 76.851 34.944 76.221 34.944C73.113 34.944 70.943 34.636 69.963 32.228ZM75.171 26.096V31.99H76.067V26.894H79.385V31.948H80.309V26.096H75.171ZM69.347 30.786C69.277 32.802 69.025 34.482 68.087 35.574C68.297 35.7 68.689 35.966 68.843 36.092C69.795 34.874 70.145 33.096 70.243 30.842L69.347 30.786ZM77.341 27.58C77.257 31.22 76.963 32.998 74.023 33.936C74.219 34.09 74.443 34.426 74.541 34.622C77.733 33.572 78.139 31.528 78.237 27.58H77.341ZM77.831 32.41C78.713 33.04 79.791 33.964 80.337 34.552L80.967 33.908C80.421 33.32 79.315 32.438 78.447 31.85L77.831 32.41Z" fill="#666666"/>
</svg>
