<svg width="1200" height="230" viewBox="0 0 1200 230" fill="none" xmlns="http://www.w3.org/2000/svg">
<mask id="path-1-inside-1_5304_3237" fill="white">
<path fill-rule="evenodd" clip-rule="evenodd" d="M10 0C4.47715 0 0 4.47715 0 10V220C0 225.523 4.47716 230 10 230H370C375.523 230 380 225.523 380 220V162.589C380 161.035 380.517 159.525 381.47 158.298L386.096 152.337C387.217 150.894 387.217 148.875 386.096 147.432L381.47 141.471C380.517 140.243 380 138.733 380 137.179V10C380 4.47715 375.523 0 370 0H10Z"/>
</mask>
<path fill-rule="evenodd" clip-rule="evenodd" d="M10 0C4.47715 0 0 4.47715 0 10V220C0 225.523 4.47716 230 10 230H370C375.523 230 380 225.523 380 220V162.589C380 161.035 380.517 159.525 381.47 158.298L386.096 152.337C387.217 150.894 387.217 148.875 386.096 147.432L381.47 141.471C380.517 140.243 380 138.733 380 137.179V10C380 4.47715 375.523 0 370 0H10Z" fill="white"/>
<path d="M386.096 152.337L385.307 151.724V151.724L386.096 152.337ZM386.096 147.432L386.886 146.819L386.096 147.432ZM381.47 141.471L382.26 140.858L381.47 141.471ZM381.47 158.298L380.68 157.684L381.47 158.298ZM1 10C1 5.02944 5.02944 1 10 1V-1C3.92487 -1 -1 3.92487 -1 10H1ZM1 220V10H-1V220H1ZM10 229C5.02944 229 1 224.971 1 220H-1C-1 226.075 3.92488 231 10 231V229ZM370 229H10V231H370V229ZM379 220C379 224.971 374.971 229 370 229V231C376.075 231 381 226.075 381 220H379ZM379 162.589V220H381V162.589H379ZM385.307 151.724L380.68 157.684L382.26 158.911L386.886 152.95L385.307 151.724ZM385.307 148.045C386.147 149.127 386.147 150.641 385.307 151.724L386.886 152.95C388.287 151.146 388.287 148.623 386.886 146.819L385.307 148.045ZM380.68 142.084L385.307 148.045L386.886 146.819L382.26 140.858L380.68 142.084ZM379 10V137.179H381V10H379ZM370 1C374.971 1 379 5.02944 379 10H381C381 3.92487 376.075 -1 370 -1V1ZM10 1H370V-1H10V1ZM382.26 140.858C381.443 139.806 381 138.511 381 137.179H379C379 138.955 379.591 140.681 380.68 142.084L382.26 140.858ZM381 162.589C381 161.257 381.443 159.963 382.26 158.911L380.68 157.684C379.591 159.088 379 160.813 379 162.589H381Z" fill="#EEEEEE" mask="url(#path-1-inside-1_5304_3237)"/>
<path d="M57.688 159.096C59.336 159.096 60.808 158.536 61.8 157.448L61.048 156.696C60.136 157.64 59.016 158.04 57.736 158.04C55.032 158.04 53 156.056 53 153.4C53 150.744 55.032 148.76 57.736 148.76C59.016 148.76 60.136 149.16 61.048 150.088L61.8 149.336C60.808 148.248 59.336 147.704 57.704 147.704C54.328 147.704 51.832 150.12 51.832 153.4C51.832 156.68 54.328 159.096 57.688 159.096ZM65.258 157.976V153.816H71.05V152.808H65.258V148.824H71.754V147.8H64.074V159H71.994V157.976H65.258ZM79.3606 159.096C82.7206 159.096 85.2326 156.68 85.2326 153.4C85.2326 150.12 82.7206 147.704 79.3606 147.704C75.9686 147.704 73.4726 150.136 73.4726 153.4C73.4726 156.664 75.9686 159.096 79.3606 159.096ZM79.3606 158.04C76.6566 158.04 74.6406 156.072 74.6406 153.4C74.6406 150.728 76.6566 148.76 79.3606 148.76C82.0486 148.76 84.0486 150.728 84.0486 153.4C84.0486 156.072 82.0486 158.04 79.3606 158.04ZM99.3805 153.272C98.6125 153.992 97.3805 154.888 96.3565 155.544C95.7805 154.712 95.3485 153.768 95.0125 152.744H100.741V151.704H94.3725V150.264H99.5885V149.272H94.3725V147.976H100.197V146.936H94.3725V145.608H93.1885V146.936H87.4605V147.976H93.1885V149.272H88.1805V150.264H93.1885V151.704H86.8685V152.744H92.4045C90.8365 154.072 88.4205 155.256 86.3405 155.848C86.5805 156.104 86.9165 156.52 87.1085 156.824C88.1325 156.488 89.2525 155.992 90.3245 155.416V158.6C89.4925 158.808 88.7245 158.984 88.0845 159.128L88.4685 160.216C90.3725 159.736 93.0925 159.064 95.6045 158.392L95.4765 157.336C94.1485 157.672 92.7885 158.008 91.5245 158.312V154.696C92.4205 154.12 93.2365 153.48 93.8925 152.824C95.0125 156.44 97.0605 159.016 100.469 160.168C100.629 159.848 100.965 159.352 101.237 159.128C99.4445 158.584 98.0045 157.624 96.9325 156.312C98.0045 155.688 99.3165 154.824 100.325 154.008L99.3805 153.272ZM107.003 147.672V150.696H104.011V147.672H107.003ZM104.011 154.968V151.784H107.003V154.968H104.011ZM108.107 156.072V146.6H102.891V157.544H104.011V156.072H108.107ZM110.635 154.04C110.715 153.32 110.731 152.616 110.731 151.96V151.24H115.195V154.04H110.635ZM115.195 147.416V150.152H110.731V147.416H115.195ZM116.347 146.296H109.579V151.96C109.579 154.44 109.307 157.448 106.619 159.512C106.859 159.672 107.307 160.072 107.499 160.328C109.307 158.936 110.123 157.032 110.475 155.128H115.195V158.648C115.195 158.936 115.083 159.032 114.779 159.048C114.523 159.048 113.515 159.064 112.475 159.032C112.667 159.336 112.859 159.864 112.923 160.184C114.283 160.184 115.163 160.152 115.675 159.976C116.187 159.768 116.347 159.4 116.347 158.648V146.296ZM127.857 147.64C127.649 148.136 127.329 148.792 127.073 149.24L127.473 149.352H123.025L123.489 149.224C123.377 148.792 123.105 148.152 122.801 147.64H127.857ZM132.177 149.352H128.209C128.497 148.904 128.817 148.344 129.121 147.768L128.513 147.64H131.361V146.68H125.873V145.608H124.705V146.68H119.249V147.64H122.193L121.649 147.768C121.921 148.248 122.193 148.888 122.321 149.352H118.529V150.328H132.177V149.352ZM129.265 152.968H121.457V152.024H129.265V152.968ZM129.265 154.776H121.457V153.8H129.265V154.776ZM130.417 151.128H120.321V155.672H124.193L123.585 156.264C124.561 156.696 125.697 157.4 126.241 157.912L126.977 157.16C126.433 156.68 125.392 156.072 124.465 155.672H130.417V151.128ZM118.961 159.864C120.161 159.16 120.833 157.992 121.297 156.84L120.289 156.472C119.905 157.528 119.153 158.6 118.049 159.24L118.961 159.864ZM124.225 159.096C123.393 159.096 123.265 159.016 123.265 158.632V156.584H122.097V158.632C122.097 159.784 122.529 160.072 124.129 160.072H127.153C128.433 160.072 128.801 159.656 128.913 157.88C128.625 157.8 128.145 157.656 127.905 157.48C127.825 158.904 127.729 159.096 127.041 159.096H124.225ZM128.865 156.888C129.953 157.704 131.153 158.904 131.665 159.752L132.625 159.16C132.065 158.296 130.865 157.128 129.777 156.328L128.865 156.888ZM140.423 151.752H135.047V152.872H147.191V151.752H141.607V149.048H148.151V147.912H141.607V145.608H140.423V147.912H134.023V149.048H140.423V151.752ZM138.935 153.784C140.071 154.392 141.351 155.352 141.911 156.104L142.775 155.304C142.167 154.568 140.871 153.64 139.751 153.064L138.935 153.784ZM134.615 159.672C135.863 158.712 136.455 157.08 136.775 155.496L135.735 155.176C135.431 156.696 134.791 158.168 133.623 159.032L134.615 159.672ZM140.039 158.968C139.159 158.968 139.015 158.872 139.015 158.424V154.952H137.847V158.44C137.847 159.688 138.295 160.04 139.943 160.04H143.047C144.471 160.04 144.839 159.512 144.983 157.448C144.647 157.368 144.167 157.192 143.895 157C143.831 158.712 143.719 158.968 142.983 158.968H140.039ZM144.455 155.336C145.655 156.536 146.855 158.216 147.271 159.4L148.343 158.824C147.895 157.624 146.663 155.992 145.431 154.792L144.455 155.336ZM53.56 176.52H64.36V178.76H65.608V175.416H59.576V173.608H58.344V175.416H52.36V178.76H53.56V176.52ZM53.928 182.28C54.952 183.304 56.056 184.728 56.52 185.672L57.512 184.984C57.032 184.04 55.896 182.648 54.856 181.688L53.928 182.28ZM66.024 179.704H61.928V177.416H60.728V179.704H51.992V180.872H60.728V186.696C60.728 186.968 60.616 187.064 60.296 187.08C59.992 187.08 58.872 187.096 57.72 187.048C57.88 187.384 58.088 187.896 58.136 188.232C59.656 188.232 60.616 188.216 61.176 188.04C61.736 187.848 61.928 187.48 61.928 186.696V180.872H66.024V179.704ZM72.046 175.368C71.374 174.792 70.014 174.12 68.91 173.72L68.27 174.6C69.374 175.032 70.718 175.784 71.374 176.344L72.046 175.368ZM71.214 179.544C70.51 179.032 69.118 178.424 68.046 178.072L67.422 178.984C68.526 179.368 69.902 180.04 70.574 180.552L71.214 179.544ZM70.846 182.12C69.982 183.944 68.798 186.008 67.982 187.256L68.99 188.024C69.886 186.536 70.942 184.568 71.742 182.888L70.846 182.12ZM82.174 187.624C81.63 186.36 80.318 184.44 79.118 183.032L78.11 183.56C78.67 184.248 79.246 185.048 79.758 185.832C77.87 185.96 75.966 186.072 74.318 186.152C75.022 184.76 75.774 182.936 76.366 181.416H81.902V180.28H77.358V177.352H81.15V176.232H77.358V173.624H76.142V176.232H72.494V177.352H76.142V180.28H71.694V181.416H74.958C74.478 182.936 73.71 184.872 73.038 186.232L71.71 186.296L71.886 187.48C74.094 187.336 77.31 187.128 80.398 186.888C80.686 187.384 80.91 187.848 81.07 188.248L82.174 187.624ZM92.788 177.688H95.572C95.284 179.656 94.852 181.336 94.18 182.744C93.54 181.256 93.092 179.528 92.788 177.704V177.688ZM87.06 177.88V176.296H89.06C88.74 176.856 88.388 177.384 88.004 177.88H87.06ZM97.812 177.688V176.568H93.14C93.396 175.688 93.604 174.744 93.78 173.8L92.58 173.608C92.132 176.248 91.316 178.808 90.1 180.472L89.524 180.056L89.316 180.12H87.572C87.924 179.736 88.26 179.352 88.596 178.936H90.916V177.88H89.38C90.116 176.792 90.756 175.592 91.284 174.296L90.164 173.976C89.844 174.792 89.476 175.56 89.06 176.28V175.288H87.06V173.608H85.972V175.288H83.86V176.296H85.972V177.88H83.22V178.936H87.14C86.756 179.352 86.372 179.752 85.94 180.12H84.516V181.064H84.772C84.18 181.496 83.556 181.88 82.9 182.216C83.14 182.44 83.572 182.872 83.748 183.112C84.756 182.536 85.716 181.848 86.596 181.064H88.436C88.052 181.48 87.588 181.912 87.124 182.248H86.596V183.672C85.284 183.8 84.084 183.928 83.14 184.008L83.284 185.08C84.228 184.984 85.364 184.872 86.596 184.728V186.952C86.596 187.128 86.532 187.176 86.324 187.192C86.116 187.192 85.428 187.192 84.628 187.176C84.804 187.464 84.964 187.912 85.012 188.216C86.036 188.216 86.708 188.2 87.156 188.04C87.588 187.864 87.716 187.56 87.716 186.952V184.616L90.98 184.248V183.224C89.892 183.336 88.788 183.448 87.716 183.56V182.904C88.548 182.312 89.444 181.496 90.1 180.696C90.372 180.888 90.772 181.24 90.948 181.432C91.348 180.888 91.716 180.264 92.036 179.56C92.388 181.192 92.868 182.696 93.476 183.992C92.564 185.368 91.348 186.424 89.684 187.208C89.924 187.448 90.26 187.992 90.388 188.264C91.956 187.448 93.172 186.44 94.116 185.176C94.9 186.472 95.876 187.512 97.108 188.232C97.268 187.912 97.652 187.448 97.94 187.224C96.644 186.552 95.62 185.448 94.836 184.072C95.812 182.36 96.404 180.248 96.804 177.688H97.812ZM102.73 184.68V183.448H109.85V184.68H102.73ZM109.85 181.336V182.568H102.73V181.336H109.85ZM111.05 180.344H101.546V188.216H102.73V185.576H109.85V186.952C109.85 187.176 109.77 187.24 109.53 187.256C109.258 187.256 108.33 187.256 107.402 187.24C107.546 187.512 107.722 187.928 107.786 188.216C109.066 188.216 109.882 188.2 110.394 188.04C110.89 187.896 111.05 187.592 111.05 186.952V180.344ZM109.018 176.232L108.122 176.824C108.682 177.192 109.29 177.64 109.866 178.088C107.626 178.136 105.37 178.184 103.402 178.216C103.93 177.592 104.49 176.888 104.97 176.232H109.018ZM113.242 175.176H106.826V173.608H105.626V175.176H99.274V176.232H103.45C103.082 176.872 102.57 177.624 102.106 178.232L99.898 178.264L99.946 179.368C102.746 179.32 107.002 179.208 111.018 179.048C111.45 179.432 111.834 179.8 112.106 180.12L113.098 179.416C112.218 178.472 110.49 177.128 109.066 176.232H113.242V175.176Z" fill="#666666"/>
<rect x="40" y="151" width="3" height="3" fill="#666666"/>
<rect x="40" y="180" width="3" height="3" fill="#666666"/>
<path d="M214.84 158.232V155.864H223.368V158.232H214.84ZM223.368 152.424V154.744H214.84V152.424H223.368ZM223.368 148.92V151.304H214.84V148.92H223.368ZM218.856 147.784C219.128 147.176 219.416 146.456 219.656 145.768L218.296 145.592C218.168 146.216 217.912 147.08 217.672 147.784H213.656V160.248H214.84V159.352H223.368V160.168H224.6V147.784H218.856ZM230.846 145.672C230.174 146.808 228.766 148.12 227.518 148.936C227.71 149.176 228.014 149.64 228.142 149.912C229.534 148.952 231.054 147.48 231.966 146.104L230.846 145.672ZM231.102 149.16C230.19 150.792 228.67 152.424 227.278 153.48C227.47 153.768 227.79 154.36 227.902 154.616C228.51 154.12 229.102 153.528 229.694 152.872V160.2H230.814V151.528C231.294 150.888 231.742 150.216 232.11 149.56L231.102 149.16ZM237.358 150.712H239.742V152.072H237.358V150.712ZM237.358 148.312H239.742V149.672H237.358V148.312ZM240.894 153.08V150.712H242.062V149.672H240.894V147.304H237.358V145.624H236.19V147.304H232.878V148.312H236.19V149.672H232.126V150.712H236.19V152.072H232.814V153.08H236.19V154.328H232.59V155.336H236.19V156.696H231.886V157.752H236.19V160.216H237.358V157.752H241.886V156.696H237.358V155.336H241.118V154.328H237.358V153.08H240.894ZM252.452 145.496C251.396 147.752 249.492 149.768 247.508 151.016C247.732 151.224 248.068 151.736 248.212 151.96C249.844 150.84 251.428 149.24 252.612 147.416C253.844 149.016 255.668 150.728 257.284 151.816C257.412 151.496 257.668 151.016 257.892 150.744C256.26 149.768 254.292 148.008 253.172 146.472C253.284 146.264 253.396 146.072 253.492 145.88L252.452 145.496ZM255.38 150.552H250.004V151.576H255.38V150.552ZM253.556 156.52C253.476 155.512 253.172 153.96 252.884 152.744L251.94 152.872C252.228 154.088 252.5 155.672 252.58 156.696L253.556 156.52ZM248.852 153.32C249.332 154.536 249.748 156.104 249.892 157.16L250.868 156.888C250.724 155.848 250.276 154.28 249.796 153.08L248.852 153.32ZM248.292 153.288C248.036 152.824 246.916 151.016 246.5 150.424V149.736H248.164V148.632H246.5V145.608H245.396V148.632H243.348V149.736H245.284C244.868 151.848 243.972 154.312 243.076 155.624C243.284 155.896 243.556 156.424 243.684 156.76C244.308 155.768 244.932 154.216 245.396 152.568V160.216H246.5V151.96C246.916 152.728 247.38 153.64 247.572 154.136L248.292 153.288ZM255.924 152.744C255.38 154.456 254.356 156.888 253.524 158.408H248.004V159.464H257.46V158.408H254.516C255.348 156.904 256.292 154.744 256.98 153.032L255.924 152.744ZM259.482 159.72H273.082V158.648H259.482V159.72ZM269.434 154.68H262.986V153.352H269.434V154.68ZM269.434 156.84H262.986V155.512H269.434V156.84ZM261.818 152.504V157.688H270.65V152.504H261.818ZM273.306 148.696V147.64H266.794V145.624H265.626V147.64H259.21V148.696H264.33C262.97 150.2 260.826 151.544 258.874 152.216C259.114 152.44 259.466 152.888 259.658 153.16C261.818 152.296 264.186 150.648 265.626 148.776V152.024H266.794V148.76C268.266 150.584 270.618 152.216 272.826 153.032C273.002 152.744 273.354 152.28 273.61 152.072C271.594 151.448 269.45 150.136 268.058 148.696H273.306ZM221.016 175.8V180.792H214.008V175.8H212.824V187H214.008V181.832H221.016V187H222.184V175.8H221.016ZM232.694 182.792C232.694 180.264 230.982 178.52 228.614 178.52C226.246 178.52 224.502 180.296 224.502 182.792C224.502 185.288 226.294 187.08 228.918 187.08C230.246 187.08 231.414 186.6 232.166 185.704L231.526 184.968C230.886 185.704 229.974 186.072 228.95 186.072C227.11 186.072 225.766 184.904 225.638 183.144H232.678C232.678 183.016 232.694 182.888 232.694 182.792ZM228.614 179.496C230.262 179.496 231.462 180.648 231.606 182.296H225.638C225.782 180.648 226.982 179.496 228.614 179.496ZM234.756 187H235.892V175.128H234.756V187ZM243.139 178.52C241.747 178.52 240.579 179.128 239.891 180.248V178.584H238.803V190.104H239.939V185.416C240.643 186.504 241.795 187.08 243.139 187.08C245.539 187.08 247.331 185.352 247.331 182.792C247.331 180.248 245.539 178.52 243.139 178.52ZM243.059 186.072C241.267 186.072 239.923 184.76 239.923 182.792C239.923 180.84 241.267 179.512 243.059 179.512C244.835 179.512 246.195 180.84 246.195 182.792C246.195 184.76 244.835 186.072 243.059 186.072ZM253.574 187H258.134C261.718 187 264.134 184.696 264.134 181.4C264.134 178.104 261.718 175.8 258.134 175.8H253.574V187ZM254.758 185.976V176.824H258.07C261.046 176.824 262.966 178.712 262.966 181.4C262.966 184.088 261.046 185.976 258.07 185.976H254.758ZM273.647 182.792C273.647 180.264 271.935 178.52 269.567 178.52C267.199 178.52 265.455 180.296 265.455 182.792C265.455 185.288 267.247 187.08 269.871 187.08C271.199 187.08 272.367 186.6 273.119 185.704L272.479 184.968C271.839 185.704 270.927 186.072 269.903 186.072C268.063 186.072 266.719 184.904 266.591 183.144H273.631C273.631 183.016 273.647 182.888 273.647 182.792ZM269.567 179.496C271.215 179.496 272.415 180.648 272.559 182.296H266.591C266.735 180.648 267.935 179.496 269.567 179.496ZM277.965 187.08C280.157 187.08 281.437 186.136 281.437 184.68C281.437 181.448 275.981 183.16 275.981 180.888C275.981 180.088 276.653 179.496 278.173 179.496C279.037 179.496 279.917 179.704 280.653 180.216L281.149 179.304C280.445 178.824 279.261 178.52 278.173 178.52C276.029 178.52 274.845 179.544 274.845 180.92C274.845 184.248 280.301 182.52 280.301 184.712C280.301 185.544 279.645 186.088 278.045 186.088C276.861 186.088 275.725 185.672 275.053 185.144L274.541 186.04C275.229 186.632 276.573 187.08 277.965 187.08ZM289.799 187H291.191L287.255 182.024L290.855 178.584H289.447L284.423 183.176V175.128H283.287V187H284.423V184.6L286.407 182.776L289.799 187Z" fill="#666666"/>
<rect x="200" y="151" width="3" height="3" fill="#666666"/>
<rect x="200" y="180" width="3" height="3" fill="#666666"/>
<path d="M47.808 114.888V122.552H49.584V116.584H53.024V122.488H54.88V114.888H52.032C52.16 114.52 52.288 114.136 52.416 113.736H55.504V112.056H47.296V113.736H50.384C50.336 114.12 50.272 114.52 50.192 114.888H47.808ZM46.496 121.352C46.848 120.408 47.28 118.904 47.632 117.576L46.464 117.304L46.208 117.368H45.456L45.872 116.824C45.568 116.6 45.168 116.328 44.704 116.04C45.6 115.176 46.56 113.928 47.2 112.84L46.064 112.024L45.744 112.12H40.832V113.768H44.56C44.192 114.296 43.76 114.84 43.376 115.24L42.096 114.488L41.12 115.736C41.888 116.2 42.848 116.824 43.68 117.368H40.448V119.048H42.832V124.312C42.832 124.488 42.768 124.536 42.544 124.552C42.32 124.552 41.584 124.552 40.896 124.536C41.152 125.048 41.408 125.816 41.472 126.36C42.544 126.36 43.344 126.312 43.92 126.024C44.528 125.736 44.672 125.24 44.672 124.344V119.048H45.632C45.456 119.784 45.264 120.52 45.088 121.048L46.496 121.352ZM52.176 117.368H50.4V120.28C50.4 121.768 49.936 123.8 46.416 124.968C46.848 125.304 47.36 125.912 47.6 126.296C51.536 124.792 52.176 122.392 52.176 120.312V117.368ZM51.552 123.896C52.448 124.68 53.712 125.768 54.272 126.456L55.6 125.176C54.96 124.52 53.68 123.48 52.784 122.776L51.552 123.896ZM61.014 112.056L60.742 112.136H56.95V126.392H58.726V113.832H60.134C59.878 114.952 59.51 116.408 59.174 117.448C60.102 118.536 60.326 119.544 60.326 120.296C60.326 120.76 60.246 121.08 60.054 121.224C59.91 121.32 59.766 121.352 59.59 121.352C59.382 121.368 59.158 121.368 58.87 121.336C59.142 121.816 59.286 122.552 59.302 123.048C59.686 123.048 60.07 123.048 60.374 123C60.742 122.952 61.062 122.84 61.318 122.648C61.83 122.28 62.054 121.608 62.054 120.552C62.054 119.608 61.862 118.504 60.838 117.256C61.318 115.992 61.878 114.216 62.31 112.808L61.014 112.056ZM71.062 115.768V114.008H67.398V111.448H65.51V114.008H61.958V115.768H64.15C64.07 119.912 63.814 123.064 60.374 124.872C60.822 125.224 61.366 125.88 61.59 126.344C64.39 124.808 65.398 122.392 65.798 119.384H68.39C68.294 122.68 68.15 124.008 67.862 124.312C67.718 124.488 67.574 124.552 67.302 124.552C66.982 124.552 66.326 124.536 65.638 124.456C65.958 125 66.166 125.784 66.182 126.344C67.014 126.376 67.782 126.376 68.262 126.296C68.806 126.216 69.174 126.056 69.526 125.592C70.022 124.968 70.166 123.128 70.326 118.456C70.326 118.216 70.342 117.672 70.342 117.672H65.958C65.99 117.064 66.022 116.424 66.038 115.768H71.062ZM76.908 113.256C76.22 112.808 74.828 112.104 73.932 111.656L72.86 113.032C73.788 113.56 75.148 114.312 75.772 114.792L76.908 113.256ZM76.14 117.576C75.436 117.144 74.012 116.456 73.132 116.024L72.108 117.432C73.052 117.944 74.428 118.696 75.084 119.16L76.14 117.576ZM73.932 126.216C74.908 124.664 75.916 122.84 76.764 121.16L75.372 119.88C74.412 121.736 73.18 123.72 72.332 124.92L73.932 126.216ZM84.316 124.008H79.516V121.656H84.316V124.008ZM86.924 117.912V116.088H82.86V113.896C84.108 113.656 85.308 113.336 86.332 112.952L84.876 111.448C83.116 112.152 80.108 112.68 77.388 112.952C77.612 113.384 77.868 114.12 77.948 114.584C78.94 114.488 80.012 114.376 81.052 114.216V116.088H76.796V117.912H81.052V119.928H77.788V126.392H79.516V125.736H84.316V126.312H86.124V119.928H82.86V117.912H86.924ZM94.834 112.68H88.578V114.36H94.834V112.68ZM98.978 114.904C98.994 113.88 99.01 112.824 99.01 111.736H97.122C97.122 112.824 97.122 113.896 97.106 114.904H95.314V116.728H97.042C96.93 119.256 96.578 121.464 95.65 123.208C95.362 122.104 94.722 120.408 94.162 119.112L92.642 119.528C92.882 120.136 93.122 120.824 93.362 121.512L90.642 122.152C91.17 120.904 91.65 119.464 91.986 118.104H95.122V116.376H88.066V118.104H90.034C89.682 119.8 89.122 121.416 88.914 121.896C88.658 122.472 88.434 122.84 88.13 122.952C88.354 123.416 88.642 124.28 88.738 124.648C89.202 124.36 89.89 124.12 93.842 123.096C93.922 123.368 93.986 123.64 94.034 123.848L95.554 123.384C95.218 123.928 94.818 124.456 94.354 124.92C94.818 125.224 95.458 125.896 95.762 126.376C98.018 124.136 98.69 120.744 98.914 116.728H100.562C100.418 121.736 100.258 123.656 99.906 124.104C99.746 124.328 99.586 124.376 99.314 124.376C98.978 124.376 98.29 124.376 97.538 124.312C97.858 124.84 98.066 125.624 98.098 126.168C98.93 126.2 99.746 126.2 100.242 126.12C100.818 126.008 101.186 125.848 101.57 125.288C102.098 124.552 102.274 122.216 102.434 115.768C102.434 115.528 102.45 114.904 102.45 114.904H98.978Z" fill="#435CE7"/>
<rect width="380" height="70" rx="10" fill="#435CE7"/>
<path d="M146.297 28.4H140.843V41H143.759V37.526H146.297C149.663 37.526 151.769 35.78 151.769 32.972C151.769 30.146 149.663 28.4 146.297 28.4ZM146.135 35.15H143.759V30.776H146.135C147.917 30.776 148.817 31.586 148.817 32.972C148.817 34.34 147.917 35.15 146.135 35.15ZM156.084 32.594V31.316H153.402V41H156.21V36.428C156.21 34.574 157.236 33.728 158.784 33.728C159 33.728 159.18 33.746 159.414 33.764V31.172C157.92 31.172 156.768 31.658 156.084 32.594ZM170.232 36.194C170.232 33.08 168.036 31.172 165.192 31.172C162.24 31.172 160.026 33.26 160.026 36.158C160.026 39.038 162.204 41.144 165.552 41.144C167.298 41.144 168.648 40.604 169.548 39.578L168.054 37.958C167.388 38.588 166.65 38.894 165.624 38.894C164.148 38.894 163.122 38.156 162.852 36.95H170.178C170.196 36.716 170.232 36.41 170.232 36.194ZM165.21 33.296C166.47 33.296 167.388 34.088 167.586 35.312H162.816C163.014 34.07 163.932 33.296 165.21 33.296ZM178.588 31.316L175.816 37.904L173.134 31.316H170.236L174.304 41H177.202L181.288 31.316H178.588ZM191.406 36.194C191.406 33.08 189.21 31.172 186.366 31.172C183.414 31.172 181.2 33.26 181.2 36.158C181.2 39.038 183.378 41.144 186.726 41.144C188.472 41.144 189.822 40.604 190.722 39.578L189.228 37.958C188.562 38.588 187.824 38.894 186.798 38.894C185.322 38.894 184.296 38.156 184.026 36.95H191.352C191.37 36.716 191.406 36.41 191.406 36.194ZM186.384 33.296C187.644 33.296 188.562 34.088 188.76 35.312H183.99C184.188 34.07 185.106 33.296 186.384 33.296ZM198.911 31.172C197.597 31.172 196.463 31.622 195.707 32.45V31.316H193.025V41H195.833V36.212C195.833 34.43 196.805 33.602 198.155 33.602C199.397 33.602 200.117 34.322 200.117 35.888V41H202.925V35.456C202.925 32.504 201.197 31.172 198.911 31.172ZM210.711 38.552C210.405 38.786 209.991 38.912 209.577 38.912C208.821 38.912 208.371 38.462 208.371 37.634V33.692H210.783V31.532H208.371V29.174H205.563V31.532H204.069V33.692H205.563V37.67C205.563 39.974 206.895 41.144 209.181 41.144C210.045 41.144 210.891 40.946 211.467 40.532L210.711 38.552ZM214.197 29.966C215.241 29.966 215.943 29.282 215.943 28.346C215.943 27.482 215.241 26.834 214.197 26.834C213.153 26.834 212.451 27.518 212.451 28.4C212.451 29.282 213.153 29.966 214.197 29.966ZM212.793 41H215.601V31.316H212.793V41ZM222.565 41.144C225.643 41.144 227.875 39.074 227.875 36.158C227.875 33.242 225.643 31.172 222.565 31.172C219.487 31.172 217.237 33.242 217.237 36.158C217.237 39.074 219.487 41.144 222.565 41.144ZM222.565 38.84C221.161 38.84 220.081 37.832 220.081 36.158C220.081 34.484 221.161 33.476 222.565 33.476C223.969 33.476 225.031 34.484 225.031 36.158C225.031 37.832 223.969 38.84 222.565 38.84ZM235.388 31.172C234.074 31.172 232.94 31.622 232.184 32.45V31.316H229.502V41H232.31V36.212C232.31 34.43 233.282 33.602 234.632 33.602C235.874 33.602 236.594 34.322 236.594 35.888V41H239.402V35.456C239.402 32.504 237.674 31.172 235.388 31.172Z" fill="white"/>
<mask id="path-12-inside-2_5304_3237" fill="white">
<path fill-rule="evenodd" clip-rule="evenodd" d="M420 0C414.477 0 410 4.47715 410 10V220C410 225.523 414.477 230 420 230H780C785.523 230 790 225.523 790 220V167.589C790 166.035 790.517 164.525 791.47 163.298L796.096 157.337C797.217 155.894 797.217 153.875 796.096 152.432L791.47 146.471C790.517 145.243 790 143.733 790 142.179V10C790 4.47715 785.523 0 780 0H420Z"/>
</mask>
<path fill-rule="evenodd" clip-rule="evenodd" d="M420 0C414.477 0 410 4.47715 410 10V220C410 225.523 414.477 230 420 230H780C785.523 230 790 225.523 790 220V167.589C790 166.035 790.517 164.525 791.47 163.298L796.096 157.337C797.217 155.894 797.217 153.875 796.096 152.432L791.47 146.471C790.517 145.243 790 143.733 790 142.179V10C790 4.47715 785.523 0 780 0H420Z" fill="white"/>
<path d="M796.096 157.337L795.307 156.724V156.724L796.096 157.337ZM796.096 152.432L796.886 151.819L796.096 152.432ZM791.47 146.471L792.26 145.858L791.47 146.471ZM791.47 163.298L790.68 162.684L791.47 163.298ZM411 10C411 5.02944 415.029 1 420 1V-1C413.925 -1 409 3.92486 409 10H411ZM411 220V10H409V220H411ZM420 229C415.029 229 411 224.971 411 220H409C409 226.075 413.925 231 420 231V229ZM780 229H420V231H780V229ZM789 220C789 224.971 784.971 229 780 229V231C786.075 231 791 226.075 791 220H789ZM789 167.589V220H791V167.589H789ZM795.307 156.724L790.68 162.684L792.26 163.911L796.886 157.95L795.307 156.724ZM795.307 153.045C796.147 154.127 796.147 155.641 795.307 156.724L796.886 157.95C798.287 156.146 798.287 153.623 796.886 151.819L795.307 153.045ZM790.68 147.084L795.307 153.045L796.886 151.819L792.26 145.858L790.68 147.084ZM789 10V142.179H791V10H789ZM780 1C784.971 1 789 5.02944 789 10H791C791 3.92487 786.075 -1 780 -1V1ZM420 1H780V-1H420V1ZM792.26 145.858C791.443 144.806 791 143.511 791 142.179H789C789 143.955 789.591 145.681 790.68 147.084L792.26 145.858ZM791 167.589C791 166.257 791.443 164.963 792.26 163.911L790.68 162.684C789.591 164.088 789 165.813 789 167.589H791Z" fill="#EEEEEE" mask="url(#path-12-inside-2_5304_3237)"/>
<path d="M475.224 147.272C474.728 146.856 473.704 146.248 472.92 145.912L472.248 146.568C473.032 146.952 474.04 147.576 474.536 148.008L475.224 147.272ZM463.992 154.488C465.224 153.064 466.408 151.32 467.432 149.56L466.44 148.952C466.136 149.544 465.8 150.136 465.432 150.728L463.432 150.92C464.376 149.56 465.288 147.832 465.992 146.184L464.872 145.672C464.232 147.576 463.08 149.608 462.744 150.136C462.392 150.68 462.12 151.048 461.832 151.112C461.96 151.432 462.152 151.992 462.2 152.248C462.44 152.12 462.824 152.024 464.744 151.768C464.056 152.808 463.432 153.608 463.128 153.928C462.648 154.52 462.28 154.904 461.944 154.968C462.088 155.288 462.248 155.816 462.312 156.056C462.648 155.864 463.176 155.72 467.16 154.904C467.128 154.68 467.128 154.216 467.16 153.912L463.992 154.488ZM467.224 156.68C465.256 157.208 463.24 157.784 461.928 158.088L462.168 159.24L467.4 157.688L467.224 156.68ZM475.144 153.416C474.504 154.424 473.64 155.336 472.632 156.152C472.376 155.288 472.152 154.264 471.976 153.128L476.04 152.36L475.832 151.32L471.848 152.072C471.768 151.4 471.704 150.712 471.64 149.976L475.592 149.368L475.4 148.328L471.576 148.888C471.528 147.832 471.512 146.744 471.512 145.592H470.344C470.36 146.792 470.392 147.944 470.456 149.064L467.944 149.432L468.152 150.504L470.52 150.136C470.568 150.872 470.632 151.592 470.712 152.28L467.608 152.856L467.816 153.928L470.856 153.336C471.064 154.664 471.304 155.848 471.64 156.856C470.296 157.752 468.76 158.472 467.128 158.968C467.4 159.24 467.704 159.64 467.864 159.944C469.352 159.432 470.776 158.728 472.04 157.896C472.696 159.336 473.544 160.184 474.68 160.184C475.768 160.184 476.136 159.656 476.344 157.864C476.072 157.768 475.72 157.512 475.464 157.24C475.4 158.648 475.224 159.032 474.792 159.032C474.104 159.032 473.496 158.376 473 157.208C474.264 156.264 475.336 155.128 476.136 153.88L475.144 153.416ZM484.846 158.28V151.944H490.798V150.76H484.846V145.864H483.598V158.28H477.63V159.464H491.886V158.28H484.846ZM506.724 147.272C506.228 146.856 505.204 146.248 504.42 145.912L503.748 146.568C504.532 146.952 505.54 147.576 506.036 148.008L506.724 147.272ZM495.492 154.488C496.724 153.064 497.908 151.32 498.932 149.56L497.94 148.952C497.636 149.544 497.3 150.136 496.932 150.728L494.932 150.92C495.876 149.56 496.788 147.832 497.492 146.184L496.372 145.672C495.732 147.576 494.58 149.608 494.244 150.136C493.892 150.68 493.62 151.048 493.332 151.112C493.46 151.432 493.652 151.992 493.7 152.248C493.94 152.12 494.324 152.024 496.244 151.768C495.556 152.808 494.932 153.608 494.628 153.928C494.148 154.52 493.78 154.904 493.444 154.968C493.588 155.288 493.748 155.816 493.812 156.056C494.148 155.864 494.676 155.72 498.66 154.904C498.628 154.68 498.628 154.216 498.66 153.912L495.492 154.488ZM498.724 156.68C496.756 157.208 494.74 157.784 493.428 158.088L493.668 159.24L498.9 157.688L498.724 156.68ZM506.644 153.416C506.004 154.424 505.14 155.336 504.132 156.152C503.876 155.288 503.652 154.264 503.476 153.128L507.54 152.36L507.332 151.32L503.348 152.072C503.268 151.4 503.204 150.712 503.14 149.976L507.092 149.368L506.9 148.328L503.076 148.888C503.028 147.832 503.012 146.744 503.012 145.592H501.844C501.86 146.792 501.892 147.944 501.956 149.064L499.444 149.432L499.652 150.504L502.02 150.136C502.068 150.872 502.132 151.592 502.212 152.28L499.108 152.856L499.316 153.928L502.356 153.336C502.564 154.664 502.804 155.848 503.14 156.856C501.796 157.752 500.26 158.472 498.628 158.968C498.9 159.24 499.204 159.64 499.364 159.944C500.852 159.432 502.276 158.728 503.54 157.896C504.196 159.336 505.044 160.184 506.18 160.184C507.268 160.184 507.636 159.656 507.844 157.864C507.572 157.768 507.22 157.512 506.964 157.24C506.9 158.648 506.724 159.032 506.292 159.032C505.604 159.032 504.996 158.376 504.5 157.208C505.764 156.264 506.836 155.128 507.636 153.88L506.644 153.416ZM523.322 147.976V146.792H509.194V147.976H515.306V160.2H516.57V151.784C518.394 152.76 520.538 154.072 521.626 154.968L522.458 153.896C521.194 152.936 518.682 151.496 516.778 150.584L516.57 150.824V147.976H523.322ZM539.056 148.936V147.848H534.368C534.592 147.208 534.816 146.552 534.992 145.88L533.84 145.64C533.264 147.992 532.224 150.2 530.88 151.592C531.168 151.768 531.648 152.136 531.856 152.312C532.64 151.432 533.344 150.248 533.92 148.936H539.056ZM534.128 150.68C535.264 151.48 536.64 152.6 537.296 153.336L538.256 152.616C537.552 151.88 536.144 150.792 535.024 150.056L534.128 150.68ZM530.272 145.672H529.104V153.208H530.272V145.672ZM527.136 146.2H525.984V152.712H527.136V146.2ZM527.712 155.192H529.856V158.712H527.712V155.192ZM533.104 155.192V158.712H530.96V155.192H533.104ZM536.384 155.192V158.712H534.208V155.192H536.384ZM537.552 158.712V154.168H526.592V158.712H524.8V159.8H539.248V158.712H537.552ZM550.838 148.296V151.432C550.838 152.504 551.094 152.824 552.214 152.824H553.67C554.534 152.824 554.822 152.408 554.934 150.84C554.63 150.776 554.198 150.616 553.974 150.44C553.926 151.656 553.862 151.816 553.542 151.816H552.358C552.006 151.816 551.942 151.768 551.942 151.432V148.296H553.83V149.864H554.918V147.288H550.63V145.608H549.494V147.288H545.51V150.008H546.566V148.296H548.246C548.134 150.616 547.734 151.816 545.43 152.472C545.654 152.68 545.926 153.064 546.022 153.304C548.662 152.504 549.174 151.016 549.334 148.296H550.838ZM545.35 153.272L545.142 152.2C544.614 152.392 544.086 152.568 543.574 152.744V149.912H545.238V148.824H543.574V145.624H542.47V148.824H540.47V149.912H542.47V153.128C541.638 153.4 540.87 153.656 540.262 153.848L540.55 155C541.126 154.792 541.782 154.568 542.47 154.312V158.84C542.47 159.08 542.39 159.128 542.198 159.128C542.006 159.144 541.382 159.144 540.694 159.128C540.854 159.448 540.998 159.944 541.046 160.216C542.038 160.232 542.646 160.184 543.03 160.008C543.43 159.816 543.574 159.496 543.574 158.84V153.912L545.35 153.272ZM550.63 158.68V155.336H554.294V154.248H546.038V155.336H549.478V158.68H545.014V159.768H555.062V158.68H550.63Z" fill="#666666"/>
<rect x="450" y="151" width="3" height="3" fill="#666666"/>
<path d="M649.016 147.8V152.792H642.008V147.8H640.824V159H642.008V153.832H649.016V159H650.184V147.8H649.016ZM656.79 159.08C659.254 159.08 661.062 157.288 661.062 154.792C661.062 152.296 659.254 150.52 656.79 150.52C654.326 150.52 652.502 152.296 652.502 154.792C652.502 157.288 654.326 159.08 656.79 159.08ZM656.79 158.072C654.998 158.072 653.654 156.76 653.654 154.792C653.654 152.824 654.998 151.512 656.79 151.512C658.582 151.512 659.91 152.824 659.91 154.792C659.91 156.76 658.582 158.072 656.79 158.072ZM667.163 157.672C666.843 157.96 666.379 158.104 665.915 158.104C664.971 158.104 664.459 157.56 664.459 156.568V151.544H667.019V150.584H664.459V148.744H663.323V150.584H661.819V151.544H663.323V156.632C663.323 158.184 664.203 159.08 665.787 159.08C666.443 159.08 667.115 158.888 667.563 158.488L667.163 157.672ZM668.601 155.16H672.793V154.168H668.601V155.16ZM675.324 159H682.78V157.976H676.508V147.8H675.324V159ZM684.832 148.744C685.312 148.744 685.664 148.376 685.664 147.912C685.664 147.48 685.296 147.128 684.832 147.128C684.368 147.128 684 147.496 684 147.928C684 148.376 684.368 148.744 684.832 148.744ZM684.256 159H685.392V150.584H684.256V159ZM692.591 150.52C691.135 150.52 689.999 151.112 689.391 152.136V150.584H688.303V159H689.439V154.584C689.439 152.664 690.575 151.544 692.383 151.544C693.983 151.544 694.911 152.456 694.911 154.232V159H696.047V154.12C696.047 151.704 694.639 150.52 692.591 150.52ZM706.256 154.792C706.256 152.264 704.544 150.52 702.176 150.52C699.808 150.52 698.064 152.296 698.064 154.792C698.064 157.288 699.856 159.08 702.48 159.08C703.808 159.08 704.976 158.6 705.728 157.704L705.088 156.968C704.448 157.704 703.536 158.072 702.512 158.072C700.672 158.072 699.328 156.904 699.2 155.144H706.24C706.24 155.016 706.256 154.888 706.256 154.792ZM702.176 151.496C703.824 151.496 705.024 152.648 705.168 154.296H699.2C699.344 152.648 700.544 151.496 702.176 151.496ZM720.878 146.536H712.878V147.64H720.878V146.536ZM711.982 155.832L712.158 157C714.27 156.824 717.374 156.552 720.334 156.264C720.59 156.728 720.798 157.176 720.942 157.56L721.966 157C721.454 155.688 720.158 153.752 718.926 152.296L717.966 152.776C718.59 153.512 719.214 154.376 719.742 155.224C717.95 155.368 716.158 155.512 714.606 155.64C715.214 154.408 715.886 152.76 716.43 151.368H722.046V150.248H711.87V151.368H715.038C714.622 152.776 713.966 154.504 713.39 155.736L711.982 155.832ZM711.646 147.72C711.118 147.096 709.95 146.312 709.006 145.816L708.222 146.552C709.182 147.08 710.302 147.912 710.814 148.536L711.646 147.72ZM711.182 150.84C710.574 150.232 709.374 149.464 708.382 149.016L707.598 149.784C708.606 150.28 709.79 151.08 710.366 151.688L711.182 150.84ZM710.782 153H707.534V154.104H709.63V157.08C708.878 157.752 708.03 158.424 707.326 158.904L707.95 160.072C708.766 159.384 709.55 158.712 710.27 158.024C711.278 159.256 712.734 159.832 714.83 159.928C716.606 159.976 719.95 159.944 721.71 159.88C721.774 159.512 721.95 158.968 722.11 158.696C720.206 158.824 716.574 158.856 714.814 158.808C712.958 158.728 711.55 158.184 710.782 157V153ZM734.836 156.776V158.664H726.372V156.776H734.836ZM725.236 160.28H726.372V159.672H734.836V160.248H736.004V155.736H725.236V160.28ZM733.636 153.864H727.476V152.456H733.636V153.864ZM726.356 151.592V154.728H734.804V151.592H726.356ZM723.972 152.696H725.076V150.552H735.972V152.696H737.124V149.592H723.972V152.696ZM733.86 146.936V145.624H732.692V146.936H728.196V145.624H727.028V146.936H723.508V148.024H727.028V149.16H728.196V148.024H732.692V149.16H733.86V148.024H737.476V146.936H733.86Z" fill="#666666"/>
<rect x="628" y="151" width="3" height="3" fill="#666666"/>
<path d="M457.904 116.328C458.688 115.576 459.424 114.744 460.096 113.864C460.848 114.696 461.776 115.56 462.72 116.328H457.904ZM456.064 119.304C455.824 118.872 454.656 117.144 454.24 116.616V116.088H455.344C455.152 116.216 454.944 116.344 454.752 116.472C455.104 116.84 455.648 117.656 455.856 118.04C456.384 117.656 456.928 117.24 457.44 116.76V117.928H463.104V116.632C463.664 117.064 464.224 117.448 464.768 117.784C464.944 117.272 465.344 116.424 465.648 115.944C464.048 115.176 462.192 113.752 461.056 112.44C461.168 112.264 461.28 112.088 461.376 111.896L459.744 111.272C458.768 113.064 457.168 114.776 455.52 115.96V114.328H454.24V111.448H452.528V114.328H450.64V116.088H452.384C452.016 117.88 451.296 119.992 450.464 121.16C450.736 121.672 451.152 122.536 451.328 123.096C451.76 122.376 452.176 121.368 452.528 120.248V126.392H454.24V118.936C454.544 119.56 454.816 120.168 454.976 120.568L456.064 119.304ZM461.472 122.52C461.36 121.496 461.088 119.992 460.784 118.776L459.328 118.968C459.584 120.184 459.856 121.736 459.92 122.76L461.472 122.52ZM458.704 122.84C458.544 121.816 458.144 120.264 457.744 119.064L456.288 119.448C456.656 120.648 457.024 122.232 457.136 123.288L458.704 122.84ZM463.168 118.76C462.688 120.376 461.808 122.616 461.024 124.088H455.552V125.752H465.024V124.088H462.592C463.344 122.68 464.16 120.776 464.816 119.128L463.168 118.76ZM466.758 125.944H480.742V124.28H466.758V125.944ZM469.462 118.216C470.71 117.432 471.846 116.44 472.758 115.336V117.752H474.646V115.336C475.59 116.456 476.79 117.448 478.102 118.216H469.462ZM476.326 120.248H470.95V119.464H476.326V120.248ZM476.326 122.28H470.95V121.448H476.326V122.28ZM480.886 114.888V113.24H474.646V111.448H472.758V113.24H466.646V114.888H470.918C469.686 116.104 467.958 117.176 466.182 117.736C466.582 118.104 467.126 118.808 467.398 119.256C467.974 119.032 468.518 118.776 469.062 118.456V123.528H478.326V118.344C478.886 118.664 479.462 118.904 480.054 119.128C480.31 118.664 480.87 117.944 481.286 117.576C479.478 117.064 477.702 116.056 476.438 114.888H480.886ZM496.732 120.488H493.836C493.916 119.72 493.996 118.84 494.076 117.848C494.108 117.608 494.14 117.032 494.14 117.032H486.892C487.004 116.472 487.132 115.88 487.244 115.288H494.988V113.464H487.58C487.692 112.824 487.804 112.2 487.9 111.608L485.916 111.432C485.548 113.96 484.892 117.272 484.348 119.304L486.348 119.464L486.508 118.792H492.06C492.012 119.416 491.964 119.976 491.9 120.488H482.316V122.312H491.644C491.436 123.448 491.196 124.088 490.908 124.328C490.684 124.52 490.46 124.552 490.124 124.552C489.66 124.552 488.588 124.536 487.484 124.44C487.852 124.984 488.124 125.784 488.156 126.344C489.212 126.392 490.268 126.408 490.876 126.344C491.612 126.264 492.076 126.104 492.556 125.576C493.004 125.096 493.34 124.136 493.612 122.312H496.732V120.488ZM512.402 115.304V113.576H508.098C508.274 113 508.45 112.424 508.578 111.832L506.754 111.464C506.258 113.72 505.33 115.912 504.082 117.24C504.514 117.496 505.298 118.056 505.618 118.376C506.306 117.56 506.898 116.488 507.426 115.304H512.402ZM507.378 116.696C508.354 117.512 509.554 118.664 510.082 119.416L511.634 118.312C511.042 117.56 509.826 116.456 508.834 115.72L507.378 116.696ZM504.034 111.464H502.146V119.224H504.034V111.464ZM500.834 111.992H498.994V118.792H500.834V111.992ZM501.394 121.512H502.802V124.328H501.394V121.512ZM505.986 121.512V124.328H504.546V121.512H505.986ZM509.17 121.512V124.328H507.714V121.512H509.17ZM511.026 124.328V119.912H499.618V124.328H497.986V126.024H512.546V124.328H511.026ZM523.784 114.408V117.032C523.784 118.488 524.104 118.984 525.56 118.984H526.792C527.88 118.984 528.296 118.52 528.472 116.84C528.008 116.728 527.288 116.456 526.968 116.216C526.92 117.304 526.856 117.464 526.584 117.464H525.864C525.576 117.464 525.544 117.416 525.544 117.016V114.408H526.584V115.816H528.328V112.84H524.328V111.448H522.472V112.84H518.552V115.864H520.2V114.408H521.16C521.096 116.456 520.808 117.464 518.456 118.024C518.776 118.344 519.208 118.984 519.336 119.384C522.296 118.6 522.776 117.08 522.872 114.408H523.784ZM518.328 117.832L517.048 118.264V116.216H518.392V114.472H517.048V111.464H515.32V114.472H513.64V116.216H515.32V118.856C514.6 119.08 513.928 119.288 513.384 119.448L513.832 121.256C514.296 121.096 514.792 120.92 515.32 120.744V124.376C515.32 124.584 515.24 124.648 515.048 124.648C514.856 124.664 514.296 124.664 513.72 124.632C513.944 125.144 514.152 125.928 514.2 126.392C515.256 126.408 515.928 126.344 516.424 126.04C516.904 125.736 517.048 125.256 517.048 124.376V120.104C517.576 119.912 518.12 119.72 518.632 119.512L518.328 117.832ZM524.296 121.592H527.624V119.88H519.224V121.592H522.424V124.216H518.312V125.928H528.44V124.216H524.296V121.592Z" fill="#435CE7"/>
<rect x="409.938" width="380" height="70" rx="10" fill="#435CE7"/>
<path d="M555.753 41H561.477C565.599 41 568.425 38.516 568.425 34.7C568.425 30.884 565.599 28.4 561.477 28.4H555.753V41ZM558.669 38.606V30.794H561.333C563.835 30.794 565.473 32.288 565.473 34.7C565.473 37.112 563.835 38.606 561.333 38.606H558.669ZM579.662 36.194C579.662 33.08 577.466 31.172 574.622 31.172C571.67 31.172 569.456 33.26 569.456 36.158C569.456 39.038 571.634 41.144 574.982 41.144C576.728 41.144 578.078 40.604 578.978 39.578L577.484 37.958C576.818 38.588 576.08 38.894 575.054 38.894C573.578 38.894 572.552 38.156 572.282 36.95H579.608C579.626 36.716 579.662 36.41 579.662 36.194ZM574.64 33.296C575.9 33.296 576.818 34.088 577.016 35.312H572.246C572.444 34.07 573.362 33.296 574.64 33.296ZM586.771 38.552C586.465 38.786 586.051 38.912 585.637 38.912C584.881 38.912 584.431 38.462 584.431 37.634V33.692H586.843V31.532H584.431V29.174H581.623V31.532H580.129V33.692H581.623V37.67C581.623 39.974 582.955 41.144 585.241 41.144C586.105 41.144 586.951 40.946 587.527 40.532L586.771 38.552ZM598.041 36.194C598.041 33.08 595.845 31.172 593.001 31.172C590.049 31.172 587.835 33.26 587.835 36.158C587.835 39.038 590.013 41.144 593.361 41.144C595.107 41.144 596.457 40.604 597.357 39.578L595.863 37.958C595.197 38.588 594.459 38.894 593.433 38.894C591.957 38.894 590.931 38.156 590.661 36.95H597.987C598.005 36.716 598.041 36.41 598.041 36.194ZM593.019 33.296C594.279 33.296 595.197 34.088 595.395 35.312H590.625C590.823 34.07 591.741 33.296 593.019 33.296ZM604.34 41.144C606.374 41.144 607.976 40.244 608.678 38.696L606.5 37.508C605.978 38.444 605.204 38.84 604.322 38.84C602.9 38.84 601.784 37.85 601.784 36.158C601.784 34.466 602.9 33.476 604.322 33.476C605.204 33.476 605.978 33.89 606.5 34.808L608.678 33.638C607.976 32.054 606.374 31.172 604.34 31.172C601.19 31.172 598.94 33.242 598.94 36.158C598.94 39.074 601.19 41.144 604.34 41.144ZM615.676 38.552C615.37 38.786 614.956 38.912 614.542 38.912C613.786 38.912 613.336 38.462 613.336 37.634V33.692H615.748V31.532H613.336V29.174H610.528V31.532H609.034V33.692H610.528V37.67C610.528 39.974 611.86 41.144 614.146 41.144C615.01 41.144 615.856 40.946 616.432 40.532L615.676 38.552ZM619.162 29.966C620.206 29.966 620.908 29.282 620.908 28.346C620.908 27.482 620.206 26.834 619.162 26.834C618.118 26.834 617.416 27.518 617.416 28.4C617.416 29.282 618.118 29.966 619.162 29.966ZM617.758 41H620.566V31.316H617.758V41ZM627.53 41.144C630.608 41.144 632.84 39.074 632.84 36.158C632.84 33.242 630.608 31.172 627.53 31.172C624.452 31.172 622.202 33.242 622.202 36.158C622.202 39.074 624.452 41.144 627.53 41.144ZM627.53 38.84C626.126 38.84 625.046 37.832 625.046 36.158C625.046 34.484 626.126 33.476 627.53 33.476C628.934 33.476 629.996 34.484 629.996 36.158C629.996 37.832 628.934 38.84 627.53 38.84ZM640.353 31.172C639.039 31.172 637.905 31.622 637.149 32.45V31.316H634.467V41H637.275V36.212C637.275 34.43 638.247 33.602 639.597 33.602C640.839 33.602 641.559 34.322 641.559 35.888V41H644.367V35.456C644.367 32.504 642.639 31.172 640.353 31.172Z" fill="white"/>
<mask id="path-21-inside-3_5304_3237" fill="white">
<path d="M820 10C820 4.47715 824.477 0 830 0L1190 0C1195.52 0 1200 4.47715 1200 10V220C1200 225.523 1195.52 230 1190 230H830C824.477 230 820 225.523 820 220V10Z"/>
</mask>
<path d="M820 10C820 4.47715 824.477 0 830 0L1190 0C1195.52 0 1200 4.47715 1200 10V220C1200 225.523 1195.52 230 1190 230H830C824.477 230 820 225.523 820 220V10Z" fill="white"/>
<path d="M1190 0V1V0ZM830 1H1190V-1H830V1ZM1199 10V220H1201V10H1199ZM1190 229H830V231H1190V229ZM821 220V10H819V220H821ZM830 229C825.029 229 821 224.971 821 220H819C819 226.075 823.925 231 830 231V229ZM1199 220C1199 224.971 1194.97 229 1190 229V231C1196.08 231 1201 226.075 1201 220H1199ZM1190 1C1194.97 1 1199 5.02944 1199 10H1201C1201 3.92487 1196.08 -1 1190 -1V1ZM830 -1C823.925 -1 819 3.92487 819 10H821C821 5.02944 825.029 1 830 1V-1Z" fill="#EEEEEE" mask="url(#path-21-inside-3_5304_3237)"/>
<path d="M876.6 152.616L875.064 153.064V149.912H876.616V148.824H875.064V145.624H873.912V148.824H871.768V149.912H873.912V153.4C873 153.672 872.152 153.912 871.496 154.072L871.768 155.224L873.912 154.568V158.776C873.912 159.016 873.848 159.08 873.64 159.08C873.432 159.096 872.776 159.096 872.056 159.064C872.216 159.384 872.36 159.912 872.408 160.2C873.464 160.216 874.104 160.184 874.52 159.992C874.92 159.784 875.064 159.448 875.064 158.776V154.216L876.744 153.688L876.6 152.616ZM879.08 156.072H881.688V158.296H879.08V156.072ZM881.688 151.832H879.08V149.688H881.688V151.832ZM881.688 155.032H879.08V152.856H881.688V155.032ZM886.312 158.296H882.776V156.072H885.656V155.032H882.776V152.856H885.656V151.832H882.776V149.688H886.04V148.616H882.856C883.24 147.8 883.672 146.824 884.024 145.944L882.776 145.656C882.536 146.52 882.104 147.704 881.688 148.616H879.24C879.64 147.736 879.976 146.824 880.264 145.88L879.128 145.592C878.472 147.896 877.352 150.088 875.96 151.496C876.2 151.736 876.6 152.248 876.76 152.488C877.176 152.04 877.576 151.528 877.944 150.968V160.2H879.08V159.384H886.312V158.296ZM895.614 149.64H898.254V152.488H895.582C895.614 152.152 895.614 151.832 895.614 151.512V149.64ZM898.254 153.64V157.688H899.422V153.64H901.79V152.488H899.422V149.64H901.47V148.488H899.422V145.944H898.254V148.488H895.614V145.944H894.446V148.488H892.19V149.64H894.446V151.496C894.446 151.832 894.446 152.152 894.414 152.488H892.094V153.64H894.286C894.062 154.84 893.534 156.024 892.334 156.92C892.59 157.096 893.038 157.544 893.198 157.768C894.606 156.696 895.214 155.16 895.454 153.64H898.254ZM891.438 148.52C890.926 147.816 889.838 146.712 888.958 145.944L888.11 146.584C888.99 147.384 890.046 148.536 890.542 149.272L891.438 148.52ZM890.974 151.368H887.614V152.488H889.806V157.032C889.102 157.304 888.286 158.024 887.438 158.92L888.222 159.992C889.038 158.904 889.822 157.96 890.366 157.96C890.702 157.96 891.23 158.488 891.87 158.92C892.974 159.608 894.302 159.8 896.27 159.8C897.806 159.8 900.638 159.704 901.758 159.624C901.79 159.288 901.982 158.712 902.11 158.392C900.574 158.568 898.19 158.696 896.318 158.696C894.51 158.696 893.182 158.584 892.142 157.928C891.614 157.608 891.278 157.304 890.974 157.112V151.368ZM911.812 149.656H915.348C914.996 151.8 914.452 153.576 913.62 155.016C912.772 153.48 912.18 151.672 911.796 149.688L911.812 149.656ZM917.844 149.656V148.52H912.228C912.516 147.672 912.756 146.776 912.948 145.848L911.716 145.624C911.236 148.136 910.34 150.504 909.06 152.072V147.016H903.668V148.12H907.908V151.256H903.668V156.344C903.668 157.704 904.068 158.04 905.476 158.04H907.94C909.172 158.04 909.508 157.528 909.652 155.512C909.316 155.432 908.82 155.24 908.58 155.048C908.532 156.664 908.436 156.92 907.844 156.92H905.588C904.932 156.92 904.804 156.84 904.804 156.328V152.344H907.908V152.952H909.06V152.424C909.348 152.616 909.732 152.888 909.924 153.032C910.324 152.536 910.692 151.96 911.044 151.32C911.492 153.112 912.084 154.728 912.868 156.104C911.78 157.48 910.292 158.504 908.276 159.224C908.5 159.48 908.868 160.008 908.996 160.28C910.932 159.496 912.404 158.472 913.54 157.128C914.5 158.456 915.684 159.496 917.188 160.2C917.38 159.88 917.764 159.416 918.02 159.192C916.484 158.536 915.252 157.48 914.292 156.12C915.396 154.424 916.1 152.312 916.548 149.656H917.844ZM930.042 156.84V158.712H922.522V156.84H930.042ZM921.354 160.216H922.522V159.672H930.042V160.168H931.258V155.88H921.354V160.216ZM925.61 152.28V153.976H923.018L923.578 153.8C923.418 153.368 923.05 152.76 922.65 152.28H925.61ZM929.77 152.28C929.546 152.76 929.114 153.416 928.81 153.848L929.37 153.976H926.81V152.28H929.77ZM929.962 153.976C930.282 153.592 930.634 153.064 930.97 152.504L929.994 152.28H932.97V151.368H926.81V150.264H931.498V149.368H926.81V148.296H932.49V147.384H929.29C929.594 146.968 929.946 146.424 930.266 145.88L929.05 145.592C928.826 146.104 928.394 146.872 928.074 147.384H924.186L924.362 147.32C924.186 146.84 923.738 146.136 923.306 145.624L922.25 145.944C922.586 146.376 922.922 146.936 923.13 147.384H920.058V148.296H925.61V149.368H921.018V150.264H925.61V151.368H919.626V152.28H922.426L921.546 152.52C921.882 152.936 922.202 153.528 922.394 153.976H919.146V154.936H933.386V153.976H929.962ZM938.672 148.248C938.192 147.624 937.2 146.632 936.4 145.928L935.6 146.632C936.4 147.368 937.376 148.408 937.824 149.064L938.672 148.248ZM938.112 157.016V150.584H934.752V151.672H936.976V157.08C936.976 157.912 936.432 158.52 936.112 158.792C936.336 158.952 936.704 159.352 936.848 159.592C937.056 159.272 937.456 158.952 940.064 156.728C939.936 156.52 939.744 156.072 939.632 155.768L938.112 157.016ZM941.376 149.864H943.792V151.528H941.376V149.864ZM941.376 147.272H943.792V148.92H941.376V147.272ZM947.104 148.92H944.896V147.272H947.104V148.92ZM947.104 151.528H944.896V149.864H947.104V151.528ZM949.232 154.952V153.864H944.928V152.52H948.24V146.296H940.288V152.52H943.76V153.864H939.44V154.952H943.072C942.08 156.504 940.448 157.992 938.896 158.712C939.136 158.92 939.488 159.32 939.664 159.608C941.168 158.76 942.736 157.224 943.76 155.544V160.216H944.928V155.528C945.936 157.064 947.392 158.6 948.672 159.448C948.864 159.16 949.232 158.76 949.488 158.536C948.16 157.784 946.624 156.36 945.616 154.952H949.232ZM958.374 148.856V155.544H959.382V149.752H963.158V155.496H964.214V148.856H961.222C961.398 148.424 961.606 147.864 961.83 147.32H964.982V146.344H957.734V147.32H960.614C960.47 147.832 960.31 148.408 960.134 148.856H958.374ZM964.95 157.704C964.326 157.064 963.062 156.056 962.102 155.384L961.398 156.008C962.39 156.712 963.638 157.768 964.23 158.44L964.95 157.704ZM960.838 150.536C960.742 154.664 960.422 156.68 957.078 157.752C957.302 157.912 957.558 158.296 957.654 158.52C961.286 157.32 961.734 155.016 961.862 150.536H960.838ZM955.846 148.36H952.598V147.16H955.846V148.36ZM955.846 150.392H952.598V149.192H955.846V150.392ZM956.966 146.28H951.526V151.272H956.966V146.28ZM954.838 155.992H957.478V155.08H954.838V153.384H957.766V152.456H950.582V153.384H953.814V157.672C953.334 157.288 952.934 156.808 952.614 156.152C952.694 155.56 952.758 154.92 952.79 154.232L951.782 154.152C951.686 156.456 951.382 158.376 950.342 159.592C950.582 159.736 951.014 160.04 951.19 160.2C951.782 159.432 952.166 158.504 952.406 157.384C953.83 159.496 956.182 159.88 959.574 159.88H964.662C964.726 159.56 964.934 159.112 965.11 158.856C964.182 158.888 960.294 158.888 959.59 158.888C957.67 158.872 956.07 158.776 954.838 158.264V155.992ZM877.688 187.096C879.336 187.096 880.808 186.536 881.8 185.448L881.048 184.696C880.136 185.64 879.016 186.04 877.736 186.04C875.032 186.04 873 184.056 873 181.4C873 178.744 875.032 176.76 877.736 176.76C879.016 176.76 880.136 177.16 881.048 178.088L881.8 177.336C880.808 176.248 879.336 175.704 877.704 175.704C874.328 175.704 871.832 178.12 871.832 181.4C871.832 184.68 874.328 187.096 877.688 187.096ZM886.899 187.08C889.363 187.08 891.171 185.288 891.171 182.792C891.171 180.296 889.363 178.52 886.899 178.52C884.435 178.52 882.611 180.296 882.611 182.792C882.611 185.288 884.435 187.08 886.899 187.08ZM886.899 186.072C885.107 186.072 883.763 184.76 883.763 182.792C883.763 180.824 885.107 179.512 886.899 179.512C888.691 179.512 890.019 180.824 890.019 182.792C890.019 184.76 888.691 186.072 886.899 186.072ZM903.736 178.52C902.216 178.52 901.016 179.208 900.408 180.296C899.896 179.112 898.808 178.52 897.416 178.52C896.008 178.52 894.92 179.112 894.328 180.12V178.584H893.24V187H894.376V182.584C894.376 180.664 895.48 179.544 897.192 179.544C898.728 179.544 899.624 180.456 899.624 182.232V187H900.76V182.584C900.76 180.664 901.848 179.544 903.576 179.544C905.096 179.544 905.992 180.456 905.992 182.232V187H907.128V182.12C907.128 179.704 905.784 178.52 903.736 178.52ZM914.295 178.52C912.903 178.52 911.735 179.128 911.047 180.248V178.584H909.959V190.104H911.095V185.416C911.799 186.504 912.951 187.08 914.295 187.08C916.695 187.08 918.487 185.352 918.487 182.792C918.487 180.248 916.695 178.52 914.295 178.52ZM914.215 186.072C912.423 186.072 911.079 184.76 911.079 182.792C911.079 180.84 912.423 179.512 914.215 179.512C915.991 179.512 917.351 180.84 917.351 182.792C917.351 184.76 915.991 186.072 914.215 186.072ZM920.553 187H921.689V175.128H920.553V187ZM925.176 176.744C925.656 176.744 926.008 176.376 926.008 175.912C926.008 175.48 925.64 175.128 925.176 175.128C924.712 175.128 924.344 175.496 924.344 175.928C924.344 176.376 924.712 176.744 925.176 176.744ZM924.6 187H925.736V178.584H924.6V187ZM931.591 178.52C930.263 178.52 929.015 178.936 928.167 179.656L928.679 180.504C929.367 179.896 930.391 179.512 931.479 179.512C933.047 179.512 933.863 180.296 933.863 181.736V182.248H931.191C928.775 182.248 927.943 183.336 927.943 184.632C927.943 186.088 929.111 187.08 931.015 187.08C932.407 187.08 933.399 186.552 933.911 185.688V187H934.999V181.784C934.999 179.608 933.767 178.52 931.591 178.52ZM931.191 186.184C929.847 186.184 929.062 185.576 929.062 184.6C929.062 183.736 929.591 183.096 931.223 183.096H933.863V184.472C933.415 185.576 932.471 186.184 931.191 186.184ZM942.122 178.52C940.666 178.52 939.53 179.112 938.922 180.136V178.584H937.834V187H938.97V182.584C938.97 180.664 940.106 179.544 941.914 179.544C943.514 179.544 944.442 180.456 944.442 182.232V187H945.578V182.12C945.578 179.704 944.17 178.52 942.122 178.52ZM951.931 187.08C953.355 187.08 954.555 186.504 955.227 185.416L954.379 184.84C953.803 185.688 952.907 186.072 951.931 186.072C950.091 186.072 948.747 184.776 948.747 182.792C948.747 180.824 950.091 179.512 951.931 179.512C952.907 179.512 953.803 179.912 954.379 180.76L955.227 180.184C954.555 179.08 953.355 178.52 951.931 178.52C949.419 178.52 947.595 180.28 947.595 182.792C947.595 185.304 949.419 187.08 951.931 187.08ZM964.412 182.792C964.412 180.264 962.7 178.52 960.332 178.52C957.964 178.52 956.22 180.296 956.22 182.792C956.22 185.288 958.012 187.08 960.636 187.08C961.964 187.08 963.132 186.6 963.884 185.704L963.244 184.968C962.604 185.704 961.692 186.072 960.668 186.072C958.828 186.072 957.484 184.904 957.356 183.144H964.396C964.396 183.016 964.412 182.888 964.412 182.792ZM960.332 179.496C961.98 179.496 963.18 180.648 963.324 182.296H957.356C957.5 180.648 958.7 179.496 960.332 179.496ZM967.835 182.504C969.131 181.096 970.427 179.352 971.531 177.56L970.587 177C970.267 177.56 969.899 178.136 969.531 178.696L967.227 178.952C968.235 177.576 969.211 175.832 969.995 174.12L968.923 173.608C968.203 175.56 966.955 177.624 966.571 178.152C966.203 178.696 965.915 179.064 965.627 179.128C965.755 179.448 965.931 180.008 965.979 180.248C966.219 180.136 966.619 180.024 968.795 179.752C968.027 180.792 967.323 181.64 967.003 181.96C966.491 182.552 966.075 182.936 965.739 183.032C965.867 183.304 966.043 183.848 966.091 184.056C966.443 183.88 966.987 183.736 971.323 182.856C971.307 182.616 971.291 182.184 971.323 181.864L967.835 182.504ZM971.211 184.792C969.163 185.256 967.083 185.768 965.723 186.024L965.931 187.176C967.435 186.792 969.419 186.296 971.323 185.8L971.211 184.792ZM973.723 183.688H977.627V186.792H973.723V183.688ZM977.627 175.496V178.472H973.723V175.496H977.627ZM973.723 179.56H977.627V182.616H973.723V179.56ZM978.795 186.792V174.408H972.587V186.792H970.971V187.88H980.171V186.792H978.795ZM993.649 180.648H988.849V175.88H993.649V180.648ZM994.865 174.744H987.681V181.784H994.865V174.744ZM983.521 182.552C984.785 181.128 986.001 179.416 987.057 177.656L986.081 177.08C985.761 177.656 985.409 178.264 985.025 178.824L982.865 179.048C983.857 177.672 984.817 175.912 985.553 174.2L984.417 173.672C983.761 175.608 982.577 177.688 982.193 178.216C981.841 178.76 981.569 179.128 981.265 179.208C981.409 179.528 981.601 180.088 981.665 180.328C981.889 180.232 982.273 180.136 984.321 179.864C983.601 180.904 982.929 181.72 982.625 182.04C982.129 182.632 981.745 183.016 981.393 183.08C981.537 183.384 981.713 183.928 981.777 184.168C982.129 183.944 982.673 183.8 987.041 182.936C987.009 182.68 987.009 182.216 987.041 181.896L983.521 182.552ZM986.977 184.872C984.897 185.352 982.753 185.832 981.345 186.104L981.569 187.288C983.105 186.888 985.137 186.392 987.105 185.912L986.977 184.872ZM988.817 183.336C988.337 184.968 987.505 186.52 986.465 187.528C986.753 187.688 987.281 188.04 987.505 188.216C988.561 187.096 989.489 185.4 990.049 183.608L988.817 183.336ZM992.433 183.704C993.265 185.096 994.161 186.936 994.513 188.072L995.681 187.608C995.313 186.472 994.369 184.664 993.505 183.304L992.433 183.704ZM1001.17 176.52C1000.68 175.864 999.607 174.856 998.759 174.136L997.991 174.872C998.839 175.624 999.895 176.68 1000.37 177.368L1001.17 176.52ZM1000.45 185.416V178.6H999.335V178.616H997.143V179.752H999.335V185.624C999.335 186.312 998.887 186.728 998.599 186.888C998.807 187.144 999.079 187.624 999.175 187.896C999.399 187.592 999.815 187.272 1002.42 185.256C1002.31 185.032 1002.1 184.568 1002.01 184.264L1000.45 185.416ZM1011.69 181.416H1007.22V175.56H1010.98V174.424H1002.13V175.56H1006.04V181.416H1001.69V182.552H1006.04V188.216H1007.22V182.552H1011.69V181.416ZM1002.68 176.712C1003.11 177.96 1003.48 179.576 1003.57 180.648L1004.65 180.36C1004.53 179.288 1004.15 177.688 1003.69 176.44L1002.68 176.712ZM1009.43 180.712C1009.85 179.704 1010.34 178.056 1010.74 176.712L1009.56 176.424C1009.33 177.624 1008.89 179.384 1008.49 180.456L1009.43 180.712ZM1016.44 173.672C1015.55 176.104 1014.06 178.504 1012.49 180.024C1012.72 180.296 1013.05 180.904 1013.16 181.192C1013.71 180.616 1014.25 179.976 1014.75 179.256V188.2H1015.88V177.528C1016.52 176.408 1017.1 175.208 1017.56 174.024L1016.44 173.672ZM1025.28 186.408H1019.44V182.632H1025.28V186.408ZM1027.45 178.264V177.112H1022.91V173.608H1021.71V177.112H1017.36V178.264H1021.71V181.512H1018.27V188.232H1019.44V187.544H1025.28V188.168H1026.48V181.512H1022.91V178.264H1027.45Z" fill="#666666"/>
<rect x="860" y="150" width="3" height="3" fill="#666666"/>
<rect x="860" y="179" width="3" height="3" fill="#666666"/>
<path d="M1076.37 146.92L1076.14 146.952H1072.03C1072.29 146.616 1072.51 146.28 1072.69 145.928L1071.54 145.56C1070.99 146.76 1069.66 148.056 1068.27 148.808C1068.5 149.016 1068.82 149.432 1068.98 149.672C1069.74 149.24 1070.5 148.648 1071.17 147.992H1075.57C1075.02 149.176 1074.18 150.056 1073.12 150.744C1072.61 150.12 1071.79 149.352 1071.1 148.808L1070.24 149.32C1070.91 149.896 1071.68 150.648 1072.16 151.256C1070.98 151.8 1069.58 152.168 1068.05 152.392C1068.27 152.616 1068.58 153.096 1068.69 153.384C1072.62 152.68 1075.79 151.112 1077.07 147.272L1076.37 146.92ZM1065.66 148.904C1065.41 148.232 1064.75 147.192 1064.14 146.456L1063.23 146.92C1063.82 147.688 1064.46 148.76 1064.7 149.432L1065.66 148.904ZM1066.5 153.416H1067.65V145.608H1066.5V149.656C1065.12 150.344 1063.74 151.016 1062.8 151.448L1063.31 152.472C1064.24 151.992 1065.38 151.384 1066.5 150.776V153.416ZM1076.94 155.688V154.616H1070.45C1070.54 154.216 1070.61 153.832 1070.67 153.4H1069.44C1069.38 153.832 1069.31 154.232 1069.22 154.616H1063.01V155.688H1068.86C1068.13 157.432 1066.56 158.632 1062.75 159.24C1062.96 159.48 1063.22 159.96 1063.31 160.248C1067.34 159.544 1069.12 158.152 1069.98 156.136C1071.17 158.44 1073.34 159.64 1076.61 160.12C1076.74 159.816 1077.06 159.32 1077.33 159.08C1074.14 158.728 1071.98 157.672 1070.96 155.688H1076.94ZM1083.25 152.328C1083.29 151.704 1083.3 151.064 1083.32 150.408H1086.34V149.336H1080.52V147.624H1086.85V146.52H1079.41V152.344C1079.41 154.552 1079.33 157.512 1078.29 159.608C1078.57 159.688 1079.06 159.976 1079.27 160.168C1080.36 158.008 1080.52 154.68 1080.52 152.328V150.408H1082.23C1082.17 154.248 1081.94 157.64 1080.1 159.544C1080.39 159.704 1080.76 160.072 1080.92 160.328C1082.45 158.728 1082.98 156.264 1083.21 153.352H1084.98C1084.84 157.048 1084.66 158.408 1084.39 158.728C1084.28 158.904 1084.15 158.936 1083.93 158.936C1083.7 158.936 1083.17 158.92 1082.6 158.856C1082.74 159.144 1082.84 159.544 1082.85 159.864C1083.46 159.896 1084.05 159.896 1084.39 159.848C1084.79 159.832 1085.06 159.72 1085.3 159.4C1085.7 158.888 1085.86 157.336 1086.05 152.824C1086.05 152.68 1086.07 152.328 1086.07 152.328H1083.25ZM1089.62 149.576C1089.65 148.392 1089.67 147.128 1089.67 145.88H1088.57C1088.57 147.128 1088.57 148.392 1088.53 149.576H1086.74V150.68H1088.49C1088.31 154.376 1087.73 157.528 1085.75 159.48C1086.04 159.64 1086.44 160.008 1086.63 160.264C1088.76 158.088 1089.38 154.664 1089.57 150.68H1091.51C1091.35 156.424 1091.19 158.472 1090.84 158.92C1090.68 159.128 1090.55 159.176 1090.29 159.16C1090.01 159.16 1089.33 159.16 1088.6 159.096C1088.79 159.416 1088.9 159.864 1088.92 160.2C1089.64 160.232 1090.36 160.248 1090.77 160.2C1091.22 160.152 1091.53 160.008 1091.81 159.624C1092.29 158.952 1092.45 156.776 1092.61 150.152C1092.61 150.008 1092.63 149.576 1092.63 149.576H1089.62ZM1106.03 152.12C1105.39 153.96 1104.32 155.416 1102.97 156.52C1101.56 155.368 1100.51 153.864 1099.82 152.12H1106.03ZM1103.66 147.624C1103.5 148.632 1103.29 149.896 1103.07 150.984H1098.81C1098.94 149.848 1099.02 148.712 1099.07 147.624H1103.66ZM1106.75 150.936L1106.52 150.984H1104.32C1104.6 149.544 1104.88 147.848 1105.04 146.536L1104.16 146.408L1103.95 146.472H1094.99V147.624H1097.82C1097.68 151.704 1097.21 156.552 1094.11 159.096C1094.38 159.256 1094.83 159.672 1095.05 159.896C1097.21 158.072 1098.19 155.16 1098.65 152.12H1098.72C1099.45 154.184 1100.52 155.912 1101.98 157.256C1100.59 158.168 1098.99 158.76 1097.29 159.112C1097.53 159.368 1097.84 159.848 1097.96 160.168C1099.77 159.72 1101.45 159.048 1102.92 158.04C1104.32 159.064 1106.01 159.8 1108.06 160.216C1108.2 159.88 1108.57 159.336 1108.86 159.064C1106.94 158.728 1105.31 158.12 1103.96 157.24C1105.61 155.816 1106.86 153.88 1107.53 151.272L1106.75 150.936ZM1113.25 145.608C1112.59 146.52 1111.3 147.576 1110.19 148.248C1110.4 148.456 1110.74 148.824 1110.9 149.048C1112.08 148.312 1113.44 147.112 1114.29 146.024L1113.25 145.608ZM1111.14 159.576C1111.71 158.68 1112.29 157.336 1112.71 156.392L1111.68 155.912C1111.3 156.872 1110.67 158.184 1110.05 159.032L1111.14 159.576ZM1113.51 148.104C1112.82 149.32 1111.39 150.696 1110.07 151.544C1110.24 151.752 1110.55 152.152 1110.67 152.392C1111.15 152.072 1111.65 151.72 1112.11 151.288V155.048H1113.25V150.2C1113.75 149.624 1114.21 149.048 1114.56 148.488L1113.51 148.104ZM1115.97 158.872C1114.95 158.872 1114.79 158.792 1114.79 158.376V155.944H1113.57V158.392C1113.57 159.624 1114.05 159.944 1115.91 159.944H1119.63C1121.11 159.944 1121.49 159.528 1121.65 157.832C1121.31 157.768 1120.82 157.608 1120.55 157.416C1120.47 158.68 1120.32 158.872 1119.54 158.872H1115.97ZM1119.19 157.208C1118.71 156.472 1117.68 155.4 1116.83 154.648L1115.91 155.24C1116.77 156.024 1117.76 157.144 1118.19 157.864L1119.19 157.208ZM1121.47 156.232C1122.1 157.256 1122.82 158.616 1123.11 159.464L1124.21 159C1123.91 158.168 1123.15 156.84 1122.5 155.848L1121.47 156.232ZM1120.32 153.576V150.824H1123.76V149.784H1120.32V147.496H1123.99V146.456H1115.07V147.496H1119.15V153.576H1117.04V148.76H1115.94V153.576H1114.16V154.616H1124.45V153.576H1120.32ZM1133.88 154.312V153.208H1132.09V150.12H1130.97V153.208H1128.97V150.104H1127.85V153.208H1126.06V154.312H1127.83C1127.75 155.928 1127.38 157.784 1125.9 159.128C1126.17 159.288 1126.58 159.608 1126.76 159.816C1128.44 158.312 1128.87 156.216 1128.95 154.312H1130.97V158.936H1132.09V154.312H1133.88ZM1138.12 150.6C1137.66 152.344 1137 153.96 1136.15 155.368C1135.72 153.736 1135.45 151.64 1135.3 149.288H1139.99V148.168H1138.82L1139.48 147.576C1138.94 147 1137.83 146.216 1136.92 145.704L1136.15 146.36C1136.97 146.888 1137.94 147.608 1138.5 148.168H1135.26C1135.22 147.352 1135.22 146.52 1135.22 145.656H1134.02C1134.02 146.504 1134.06 147.352 1134.09 148.168H1126.06V149.288H1134.14C1134.31 152.136 1134.68 154.696 1135.29 156.616C1134.46 157.72 1133.46 158.648 1132.36 159.368C1132.6 159.576 1133.03 160.024 1133.19 160.248C1134.14 159.576 1134.98 158.76 1135.75 157.864C1136.44 159.352 1137.34 160.232 1138.52 160.232C1139.74 160.232 1140.17 159.432 1140.36 156.712C1140.06 156.616 1139.62 156.344 1139.37 156.104C1139.27 158.232 1139.06 159.064 1138.62 159.064C1137.82 159.064 1137.13 158.216 1136.57 156.76C1137.72 155.08 1138.62 153.096 1139.26 150.856L1138.12 150.6Z" fill="#666666"/>
<rect x="1051" y="150" width="3" height="3" fill="#666666"/>
<path d="M871.792 122.696H868.912V121.944H871.792V122.696ZM868.912 119.8H871.792V120.488H868.912V119.8ZM864.464 116.616V115.848H866.976V116.616H864.464ZM871.504 115.848V116.616H868.912V115.848H871.504ZM875.392 120.488H873.728V118.52H868.912V117.816H873.456V114.648H868.912V113.992H875.024V112.488H868.912V111.448H866.976V112.488H861.008V113.992H866.976V114.648H862.64V117.816H866.976V118.52H862.24V119.8H866.976V120.488H860.64V121.944H866.976V122.696H862.112V124.072H866.976V124.568C866.976 124.856 866.88 124.952 866.576 124.968C866.32 124.968 865.376 124.968 864.608 124.936C864.848 125.336 865.136 125.992 865.232 126.44C866.592 126.44 867.456 126.408 868.064 126.168C868.688 125.896 868.912 125.512 868.912 124.568V124.072H871.792V124.728H873.728V121.944H875.392V120.488ZM888.006 121.16V123.896H882.662V121.16H888.006ZM880.822 126.376H882.662V125.672H888.006V126.328H889.942V119.4H880.822V126.376ZM879.878 115.832V114.472C883.35 114.248 887.158 113.784 890.006 113.016L888.47 111.48C886.342 112.088 882.934 112.552 879.686 112.808L877.974 112.552V117.32C877.974 119.688 877.814 122.872 876.118 125.128C876.598 125.336 877.334 125.992 877.622 126.408C879.558 123.96 879.862 120.216 879.878 117.656H891.238V115.832H879.878ZM903.292 123.672V124.568H896.956V123.672H903.292ZM902.076 119.352V120.184H896.956V119.352H902.076ZM896.956 121.544H903.964V117.976H895.132V126.408H896.956V125.976H903.292V126.408H905.18V122.28H896.956V121.544ZM906.86 112.568H902.22C902.364 112.296 902.492 112.024 902.604 111.752L900.796 111.32C900.46 112.152 899.916 112.984 899.276 113.64V112.568H895.724C895.852 112.312 895.98 112.056 896.092 111.8L894.316 111.32C893.836 112.536 892.924 113.768 891.964 114.568C892.396 114.776 893.148 115.288 893.516 115.592C893.932 115.176 894.38 114.648 894.796 114.056H895.052C895.372 114.584 895.66 115.192 895.788 115.592L897.5 115.112C897.388 114.824 897.196 114.44 896.972 114.056H898.844C898.716 114.168 898.572 114.28 898.444 114.376C898.652 114.472 898.956 114.616 899.244 114.776H898.54V115.896H892.652V119.064H894.444V117.32H904.636V119.064H906.492V115.896H900.364V115.032C900.652 114.744 900.956 114.424 901.244 114.056H902.172C902.556 114.584 902.956 115.208 903.132 115.624L904.892 115.128C904.748 114.824 904.492 114.44 904.22 114.056H906.86V112.568ZM912.994 121.4C912.482 121.576 911.954 121.736 911.426 121.896V118.696H912.866V116.952H911.426V114.136H913.138V112.36H907.858V114.136H909.618V116.952H908.002V118.696H909.618V122.456C908.882 122.664 908.226 122.84 907.666 122.984L908.098 124.92C909.634 124.424 911.554 123.816 913.314 123.192L912.994 121.4ZM915.458 116.568H917.106V117.944H915.458V116.568ZM915.458 113.736H917.106V115.08H915.458V113.736ZM920.29 115.08H918.706V113.736H920.29V115.08ZM920.29 117.944H918.706V116.568H920.29V117.944ZM918.882 124.168V122.648H922.274V120.936H918.882V119.56H922.098V112.12H913.746V119.56H916.946V120.936H913.634V122.648H916.946V124.168H912.53V125.896H922.818V124.168H918.882Z" fill="#435CE7"/>
<rect x="819.938" width="380" height="70" rx="10" fill="#435CE7"/>
<path d="M966.527 41H972.251C976.373 41 979.199 38.516 979.199 34.7C979.199 30.884 976.373 28.4 972.251 28.4H966.527V41ZM969.443 38.606V30.794H972.107C974.609 30.794 976.247 32.288 976.247 34.7C976.247 37.112 974.609 38.606 972.107 38.606H969.443ZM982.354 29.966C983.398 29.966 984.1 29.282 984.1 28.346C984.1 27.482 983.398 26.834 982.354 26.834C981.31 26.834 980.608 27.518 980.608 28.4C980.608 29.282 981.31 29.966 982.354 29.966ZM980.95 41H983.758V31.316H980.95V41ZM989.372 41.144C992.27 41.144 993.944 39.866 993.944 38.066C993.944 34.25 988.094 35.852 988.094 34.196C988.094 33.692 988.634 33.296 989.894 33.296C990.776 33.296 991.73 33.476 992.684 34.016L993.62 32.018C992.702 31.478 991.226 31.172 989.894 31.172C987.068 31.172 985.412 32.468 985.412 34.304C985.412 38.174 991.262 36.554 991.262 38.138C991.262 38.678 990.776 39.02 989.48 39.02C988.292 39.02 986.978 38.642 986.114 38.084L985.178 40.1C986.078 40.694 987.734 41.144 989.372 41.144ZM1000.11 41.144C1002.14 41.144 1003.74 40.244 1004.44 38.696L1002.27 37.508C1001.74 38.444 1000.97 38.84 1000.09 38.84C998.667 38.84 997.551 37.85 997.551 36.158C997.551 34.466 998.667 33.476 1000.09 33.476C1000.97 33.476 1001.74 33.89 1002.27 34.808L1004.44 33.638C1003.74 32.054 1002.14 31.172 1000.11 31.172C996.957 31.172 994.707 33.242 994.707 36.158C994.707 39.074 996.957 41.144 1000.11 41.144ZM1007.22 29.966C1008.26 29.966 1008.96 29.282 1008.96 28.346C1008.96 27.482 1008.26 26.834 1007.22 26.834C1006.17 26.834 1005.47 27.518 1005.47 28.4C1005.47 29.282 1006.17 29.966 1007.22 29.966ZM1005.81 41H1008.62V31.316H1005.81V41ZM1016.7 31.172C1015.4 31.172 1014.36 31.586 1013.66 32.432V31.316H1010.98V44.492H1013.78V39.974C1014.5 40.766 1015.49 41.144 1016.7 41.144C1019.42 41.144 1021.52 39.2 1021.52 36.158C1021.52 33.116 1019.42 31.172 1016.7 31.172ZM1016.21 38.84C1014.81 38.84 1013.75 37.832 1013.75 36.158C1013.75 34.484 1014.81 33.476 1016.21 33.476C1017.62 33.476 1018.68 34.484 1018.68 36.158C1018.68 37.832 1017.62 38.84 1016.21 38.84ZM1023.15 41H1025.96V27.644H1023.15V41ZM1029.72 29.966C1030.77 29.966 1031.47 29.282 1031.47 28.346C1031.47 27.482 1030.77 26.834 1029.72 26.834C1028.68 26.834 1027.98 27.518 1027.98 28.4C1027.98 29.282 1028.68 29.966 1029.72 29.966ZM1028.32 41H1031.13V31.316H1028.32V41ZM1039.37 31.172C1038.05 31.172 1036.92 31.622 1036.16 32.45V31.316H1033.48V41H1036.29V36.212C1036.29 34.43 1037.26 33.602 1038.61 33.602C1039.85 33.602 1040.57 34.322 1040.57 35.888V41H1043.38V35.456C1043.38 32.504 1041.65 31.172 1039.37 31.172ZM1055.27 36.194C1055.27 33.08 1053.07 31.172 1050.23 31.172C1047.28 31.172 1045.06 33.26 1045.06 36.158C1045.06 39.038 1047.24 41.144 1050.59 41.144C1052.33 41.144 1053.68 40.604 1054.58 39.578L1053.09 37.958C1052.42 38.588 1051.69 38.894 1050.66 38.894C1049.18 38.894 1048.16 38.156 1047.89 36.95H1055.21C1055.23 36.716 1055.27 36.41 1055.27 36.194ZM1050.25 33.296C1051.51 33.296 1052.42 34.088 1052.62 35.312H1047.85C1048.05 34.07 1048.97 33.296 1050.25 33.296Z" fill="white"/>
</svg>
