<svg width="1200" height="456" viewBox="0 0 1200 456" fill="none" xmlns="http://www.w3.org/2000/svg">
<path d="M590.99 61.9014L759.142 199.224L686.112 388.043H495.868L422.838 199.224L590.99 61.9014Z" fill="#F6F7FE"/>
<path d="M424.629 199.698L590.99 63.838L757.351 199.698L685.084 386.543H496.896L424.629 199.698Z" stroke="#C6D4F9" stroke-opacity="0.2" stroke-width="3"/>
<circle cx="591" cy="73" r="73" fill="white"/>
<circle cx="591" cy="73" r="71.5" stroke="#7094F0" stroke-opacity="0.3" stroke-width="3"/>
<path d="M561.896 74.014C563.112 72.67 564.296 71.022 565.304 69.374L564.152 68.654C563.848 69.214 563.496 69.79 563.144 70.334L561.16 70.51C562.12 69.182 563.064 67.534 563.784 65.934L562.44 65.31C561.784 67.198 560.6 69.23 560.232 69.742C559.864 70.27 559.592 70.622 559.272 70.702C559.432 71.086 559.656 71.774 559.736 72.046C559.992 71.934 560.376 71.838 562.264 71.598C561.592 72.542 560.984 73.278 560.68 73.582C560.168 74.158 559.768 74.542 559.416 74.606C559.576 74.974 559.784 75.614 559.848 75.886C560.216 75.678 560.824 75.518 565.064 74.67C565.032 74.382 565.048 73.822 565.08 73.454L561.896 74.014ZM564.888 76.398C562.856 76.878 560.776 77.358 559.416 77.646L559.672 79.054C561.176 78.67 563.16 78.158 565.032 77.646L564.888 76.398ZM567.656 75.534H571.08V78.35H567.656V75.534ZM571.08 67.47V70.142H567.656V67.47H571.08ZM567.656 71.47H571.08V74.222H567.656V71.47ZM572.552 78.35V66.126H566.248V78.35H564.728V79.694H573.88V78.35H572.552ZM587.086 72.238H582.766V67.822H587.086V72.238ZM588.622 66.398H581.294V73.646H588.622V66.398ZM577.598 74.062C578.766 72.734 579.918 71.118 580.862 69.502L579.646 68.766C579.342 69.342 578.99 69.95 578.638 70.494L576.798 70.67C577.758 69.326 578.702 67.63 579.39 66.014L577.966 65.358C577.342 67.262 576.19 69.31 575.822 69.822C575.47 70.366 575.198 70.718 574.878 70.798C575.054 71.182 575.294 71.902 575.374 72.206C575.614 72.078 575.998 71.998 577.774 71.774C577.134 72.686 576.558 73.39 576.27 73.694C575.774 74.254 575.406 74.638 575.022 74.718C575.198 75.086 575.422 75.742 575.47 76.03C575.87 75.806 576.478 75.63 580.702 74.814C580.67 74.51 580.67 73.918 580.718 73.518L577.598 74.062ZM580.59 76.526C578.526 77.006 576.382 77.47 574.99 77.742L575.262 79.23C576.814 78.814 578.814 78.318 580.75 77.838L580.59 76.526ZM582.366 75.086C581.902 76.638 581.086 78.174 580.062 79.134C580.446 79.342 581.086 79.774 581.39 80.014C582.414 78.91 583.358 77.182 583.918 75.422L582.366 75.086ZM585.934 75.534C586.782 76.926 587.662 78.75 587.998 79.902L589.486 79.326C589.118 78.174 588.19 76.382 587.326 75.022L585.934 75.534ZM593.924 65.406C593.156 67.726 591.908 70.062 590.532 71.566C590.788 71.902 591.22 72.718 591.364 73.07C591.764 72.59 592.148 72.078 592.548 71.502V79.982H593.972V69.038C594.484 67.982 594.964 66.894 595.316 65.806L593.924 65.406ZM605.284 69.79V68.382H600.708V65.406H599.252V68.382H594.964V69.79H598.468C597.524 72.414 595.956 75.022 594.26 76.43C594.58 76.686 595.092 77.198 595.316 77.566C596.884 76.062 598.276 73.646 599.252 71.022V75.838H596.868V77.182H599.252V79.918H600.708V77.182H603.076V75.838H600.708V70.926C601.652 73.534 603.028 76.03 604.532 77.518C604.804 77.118 605.3 76.606 605.668 76.334C604.02 74.942 602.452 72.366 601.54 69.79H605.284ZM610.01 75.726C609.146 76.83 607.738 77.982 606.41 78.702C606.81 78.942 607.45 79.438 607.77 79.742C609.018 78.894 610.538 77.55 611.546 76.286L610.01 75.726ZM621.194 75.086C620.394 73.998 618.714 72.414 617.354 71.31L616.138 72.094C616.618 72.51 617.13 72.974 617.642 73.454C615.85 73.502 614.058 73.534 612.362 73.566C614.17 72.158 616.186 70.382 617.738 68.782L616.298 67.998C615.306 69.15 613.946 70.478 612.554 71.678C612.122 71.294 611.578 70.878 611.002 70.478C611.866 69.678 612.874 68.622 613.69 67.63L613.562 67.566C615.898 67.39 618.122 67.134 619.914 66.782L618.858 65.518C616.074 66.078 611.29 66.414 607.21 66.51C607.354 66.862 607.53 67.454 607.562 67.838C608.874 67.822 610.266 67.774 611.674 67.694C611.13 68.382 610.474 69.118 609.866 69.726C609.546 69.518 609.226 69.326 608.922 69.15L607.898 70.094C609.082 70.798 610.49 71.822 611.386 72.654C610.954 72.99 610.538 73.31 610.138 73.598C608.858 73.614 607.69 73.63 606.714 73.63L606.874 75.134C608.554 75.102 610.698 75.054 613.002 74.974V80.014H614.57V74.926C615.994 74.894 617.466 74.846 618.906 74.782C619.29 75.214 619.61 75.614 619.85 75.966L621.194 75.086ZM615.898 76.478C617.242 77.438 618.906 78.814 619.69 79.71L621.018 78.75C620.154 77.854 618.442 76.542 617.13 75.646L615.898 76.478Z" fill="#222222"/>
<circle cx="421" cy="197.728" r="73" fill="white"/>
<circle cx="421" cy="197.728" r="71.5" stroke="#7094F0" stroke-opacity="0.3" stroke-width="3"/>
<path d="M393.998 194.47V195.734H387.038V194.47H393.998ZM392.894 190.182V191.318H387.038V190.182H392.894ZM387.038 192.422H394.382V189.078H385.63V197.366H387.038V196.87H393.998V197.334H395.486V193.35H387.038V192.422ZM397.23 183.814H392.174C392.334 183.526 392.494 183.222 392.622 182.918L391.182 182.566C390.862 183.382 390.35 184.166 389.726 184.822V183.814H385.838C385.998 183.526 386.142 183.222 386.27 182.934L384.878 182.566C384.382 183.798 383.502 185.03 382.558 185.83C382.91 186.022 383.486 186.406 383.774 186.646C384.222 186.214 384.686 185.654 385.102 185.03H385.598C385.902 185.574 386.222 186.198 386.35 186.614L387.678 186.214C387.566 185.894 387.342 185.462 387.102 185.03H389.518C389.278 185.254 389.022 185.478 388.766 185.654C388.91 185.718 389.086 185.814 389.278 185.91H389.198V187.078H383.262V190.134H384.654V188.246H395.326V190.134H396.782V187.078H390.622V185.91H390.59C390.862 185.638 391.118 185.35 391.358 185.03H392.494C392.91 185.574 393.342 186.214 393.502 186.646L394.894 186.23C394.734 185.878 394.43 185.446 394.126 185.03H397.23V183.814ZM403.412 192.678C402.868 192.87 402.292 193.046 401.748 193.222V189.606H403.268V188.23H401.748V185.046H403.524V183.67H398.436V185.046H400.324V188.23H398.596V189.606H400.324V193.67C399.556 193.91 398.852 194.102 398.276 194.262L398.628 195.782C400.068 195.318 401.924 194.694 403.668 194.086L403.412 192.678ZM405.572 187.558H407.668V189.318H405.572V187.558ZM405.572 184.646H407.668V186.374H405.572V184.646ZM410.98 186.374H408.932V184.646H410.98V186.374ZM410.98 189.318H408.932V187.558H410.98V189.318ZM409.06 195.478V193.574H412.612V192.23H409.06V190.582H412.404V183.382H404.212V190.582H407.54V192.23H404.068V193.574H407.54V195.478H402.9V196.838H413.124V195.478H409.06ZM426.17 184.662V186.326H417.018V184.662H426.17ZM427.658 187.59V183.398H415.514V188.054C415.514 190.55 415.402 194.086 413.962 196.55C414.33 196.694 415.018 197.078 415.29 197.302C416.794 194.71 417.018 190.742 417.018 188.038V187.59H427.658ZM427.386 190.102V188.806H418.394V190.102H427.386ZM428.474 192.838V191.526H417.418V192.838H420.186C419.594 193.91 418.89 194.838 418.618 195.126C418.298 195.51 417.994 195.766 417.722 195.83C417.914 196.214 418.154 196.886 418.25 197.174C418.794 196.982 419.594 196.902 426.09 196.438C426.33 196.838 426.522 197.206 426.666 197.51L428.058 196.838C427.546 195.894 426.49 194.278 425.658 193.078L424.346 193.622C424.682 194.118 425.034 194.694 425.402 195.27L419.994 195.574C420.714 194.79 421.434 193.814 422.042 192.838H428.474ZM439.488 184.806C439.312 185.254 439.072 185.798 438.848 186.198L439.104 186.262H435.168L435.488 186.182C435.408 185.814 435.184 185.254 434.944 184.806H439.488ZM444.064 186.262H440.32C440.56 185.878 440.816 185.414 441.104 184.886L440.704 184.806H443.232V183.622H437.92V182.662H436.432V183.622H431.136V184.806H433.84L433.472 184.886C433.68 185.286 433.904 185.83 434.016 186.262H430.4V187.462H444.064V186.262ZM440.928 189.974H433.552V189.254H440.928V189.974ZM440.928 191.718H433.552V190.982H440.928V191.718ZM442.4 188.15H432.128V192.822H436.032L435.424 193.43C436.352 193.846 437.488 194.518 438.032 195.014L438.944 194.07C438.464 193.686 437.616 193.19 436.832 192.822H442.4V188.15ZM431.024 197.014C432.16 196.294 432.848 195.11 433.28 193.942L432.048 193.478C431.648 194.55 430.912 195.59 429.856 196.214L431.024 197.014ZM436.288 195.974C435.504 195.974 435.36 195.91 435.36 195.526V193.638H433.92V195.542C433.92 196.838 434.368 197.19 436.144 197.19H438.96C440.336 197.19 440.736 196.758 440.912 194.982C440.528 194.902 439.936 194.71 439.632 194.502C439.568 195.798 439.456 195.974 438.832 195.974H436.288ZM440.688 194.006C441.712 194.822 442.864 196.054 443.344 196.902L444.576 196.166C444.032 195.302 442.864 194.134 441.824 193.318L440.688 194.006ZM452.15 188.614H446.934V190.022H459.078V188.614H453.638V186.214H460.038V184.806H453.638V182.662H452.15V184.806H445.91V186.214H452.15V188.614ZM450.774 190.918C451.862 191.526 453.126 192.47 453.67 193.206L454.758 192.198C454.15 191.478 452.87 190.582 451.782 190.038L450.774 190.918ZM446.726 196.742C447.926 195.766 448.502 194.15 448.838 192.566L447.526 192.166C447.222 193.638 446.582 195.062 445.494 195.926L446.726 196.742ZM452.102 195.798C451.286 195.798 451.142 195.702 451.142 195.238V191.974H449.67V195.254C449.67 196.694 450.15 197.126 451.958 197.126H454.838C456.326 197.126 456.758 196.598 456.934 194.486C456.518 194.39 455.91 194.166 455.59 193.942C455.526 195.558 455.398 195.798 454.71 195.798H452.102ZM456.214 192.438C457.382 193.654 458.534 195.35 458.918 196.518L460.294 195.782C459.83 194.598 458.63 192.966 457.462 191.782L456.214 192.438ZM393.153 213.35C394.369 212.006 395.553 210.358 396.561 208.71L395.409 207.99C395.105 208.55 394.753 209.126 394.401 209.67L392.417 209.846C393.377 208.518 394.321 206.87 395.041 205.27L393.697 204.646C393.041 206.534 391.857 208.566 391.489 209.078C391.121 209.606 390.849 209.958 390.529 210.038C390.689 210.422 390.913 211.11 390.993 211.382C391.249 211.27 391.633 211.174 393.521 210.934C392.849 211.878 392.241 212.614 391.937 212.918C391.425 213.494 391.025 213.878 390.673 213.942C390.833 214.31 391.041 214.95 391.105 215.222C391.473 215.014 392.081 214.854 396.321 214.006C396.289 213.718 396.305 213.158 396.337 212.79L393.153 213.35ZM396.145 215.734C394.113 216.214 392.033 216.694 390.673 216.982L390.929 218.39C392.433 218.006 394.417 217.494 396.289 216.982L396.145 215.734ZM398.913 214.87H402.337V217.686H398.913V214.87ZM402.337 206.806V209.478H398.913V206.806H402.337ZM398.913 210.806H402.337V213.558H398.913V210.806ZM403.809 217.686V205.462H397.505V217.686H395.985V219.03H405.137V217.686H403.809ZM418.343 211.574H414.023V207.158H418.343V211.574ZM419.879 205.734H412.551V212.982H419.879V205.734ZM408.855 213.398C410.023 212.07 411.175 210.454 412.119 208.838L410.903 208.102C410.599 208.678 410.247 209.286 409.895 209.83L408.055 210.006C409.015 208.662 409.959 206.966 410.647 205.35L409.223 204.694C408.599 206.598 407.447 208.646 407.079 209.158C406.727 209.702 406.455 210.054 406.135 210.134C406.311 210.518 406.551 211.238 406.631 211.542C406.871 211.414 407.255 211.334 409.031 211.11C408.391 212.022 407.815 212.726 407.527 213.03C407.031 213.59 406.663 213.974 406.279 214.054C406.455 214.422 406.679 215.078 406.727 215.366C407.127 215.142 407.735 214.966 411.959 214.15C411.927 213.846 411.927 213.254 411.975 212.854L408.855 213.398ZM411.847 215.862C409.783 216.342 407.639 216.806 406.247 217.078L406.519 218.566C408.071 218.15 410.071 217.654 412.007 217.174L411.847 215.862ZM413.623 214.422C413.159 215.974 412.343 217.51 411.319 218.47C411.703 218.678 412.343 219.11 412.647 219.35C413.671 218.246 414.615 216.518 415.175 214.758L413.623 214.422ZM417.191 214.87C418.039 216.262 418.919 218.086 419.255 219.238L420.743 218.662C420.375 217.51 419.447 215.718 418.583 214.358L417.191 214.87ZM432.429 208.726C431.677 210.774 430.653 212.47 429.309 213.846C427.917 212.422 426.861 210.694 426.125 208.726H432.429ZM436.557 208.726V207.286H430.077V204.662H428.557V207.286H422.173V208.726H424.493C425.373 211.174 426.541 213.254 428.093 214.95C426.445 216.278 424.397 217.254 421.933 217.926C422.237 218.294 422.717 218.998 422.877 219.382C425.389 218.582 427.485 217.51 429.229 216.054C430.957 217.558 433.069 218.662 435.693 219.35C435.933 218.918 436.413 218.23 436.765 217.878C434.253 217.302 432.157 216.294 430.477 214.902C432.045 213.27 433.261 211.238 434.173 208.726H436.557ZM441.923 204.902C440.899 207.35 439.187 209.734 437.411 211.222C437.683 211.59 438.147 212.39 438.307 212.774C438.931 212.198 439.571 211.51 440.163 210.758V219.318H441.651V208.662C442.323 207.606 442.899 206.502 443.379 205.382L441.923 204.902ZM447.363 217.574C446.579 217.574 446.451 217.43 446.451 216.55V212.326C448.435 211.03 450.339 209.494 451.763 208.038L450.371 207.334C449.427 208.39 448.003 209.558 446.451 210.614V204.87H444.931V211.574C444.211 212.006 443.491 212.39 442.803 212.726C443.059 213.03 443.427 213.622 443.619 213.974C444.051 213.75 444.483 213.51 444.931 213.254V216.534C444.931 218.47 445.459 219.014 447.219 219.014H450.131C451.747 219.014 452.179 218.15 452.371 215.75C451.939 215.654 451.331 215.366 450.963 215.11C450.867 217.094 450.739 217.574 450.003 217.574H447.363Z" fill="#222222"/>
<circle cx="759.152" cy="197.728" r="73" fill="white"/>
<circle cx="759.152" cy="197.728" r="71.5" stroke="#7094F0" stroke-opacity="0.3" stroke-width="3"/>
<path d="M741.246 190.902H733.214V192.294H741.246V190.902ZM732.286 200.038L732.51 201.526C734.606 201.334 737.582 201.062 740.462 200.774C740.686 201.222 740.862 201.622 740.99 201.99L742.302 201.318C741.806 199.99 740.558 198.086 739.374 196.646L738.174 197.238C738.718 197.91 739.262 198.71 739.742 199.478C738.174 199.606 736.59 199.734 735.182 199.846C735.758 198.678 736.366 197.206 736.894 195.91H742.366V194.534H732.19V195.91H735.166C734.782 197.222 734.206 198.806 733.694 199.942L732.286 200.038ZM732.078 192.102C731.518 191.478 730.398 190.694 729.47 190.214L728.478 191.126C729.406 191.67 730.51 192.502 731.006 193.11L732.078 192.102ZM731.55 195.19C730.974 194.582 729.79 193.83 728.83 193.366L727.854 194.342C728.83 194.838 729.982 195.638 730.526 196.246L731.55 195.19ZM731.214 197.35H727.806V198.726H729.774V201.462C729.038 202.054 728.238 202.646 727.55 203.094L728.302 204.582C729.118 203.894 729.87 203.254 730.574 202.598C731.582 203.83 732.99 204.358 735.022 204.454C736.846 204.518 740.126 204.486 741.95 204.39C742.03 203.942 742.254 203.254 742.43 202.918C740.43 203.062 736.814 203.094 735.022 203.03C733.246 202.966 731.95 202.454 731.214 201.35V197.35ZM754.836 201.382V203.014H746.852V201.382H754.836ZM745.444 204.774H746.852V204.23H754.836V204.742H756.324V200.102H745.444V204.774ZM753.556 198.246H748.02V197.03H753.556V198.246ZM746.628 196.006V199.27H755.012V196.006H746.628ZM744.196 197.158H745.556V195.158H756.02V197.158H757.444V193.99H744.196V197.158ZM754.324 191.286V190.07H752.852V191.286H748.596V190.07H747.124V191.286H743.78V192.63H747.124V193.59H748.596V192.63H752.852V193.59H754.324V192.63H757.764V191.286H754.324ZM772.89 191.174H765.962V192.566H772.89V191.174ZM765.178 197.702C764.906 197.302 763.546 195.606 763.066 195.078V194.694H765.034V193.318H763.066V190.054H761.594V193.318H759.274V194.694H761.29C760.81 196.582 759.882 198.758 758.922 199.942C759.178 200.31 759.562 200.966 759.706 201.366C760.41 200.422 761.082 198.95 761.594 197.398V204.742H763.066V196.774C763.546 197.51 764.106 198.39 764.346 198.886L765.178 197.702ZM766.186 197.974C765.786 199.638 765.082 201.366 764.234 202.47C764.57 202.646 765.162 203.03 765.418 203.254C766.266 202.022 767.066 200.134 767.53 198.294L766.186 197.974ZM773.754 196.342V194.95H765.258V196.342H768.522V202.886C768.522 203.094 768.458 203.158 768.234 203.158C768.026 203.174 767.322 203.174 766.57 203.142C766.778 203.59 766.97 204.246 767.018 204.678C768.122 204.678 768.874 204.646 769.386 204.39C769.898 204.15 770.042 203.702 770.042 202.918V196.342H773.754ZM770.874 198.342C771.594 199.942 772.282 202.022 772.49 203.302L773.85 202.79C773.594 201.526 772.858 199.494 772.122 197.926L770.874 198.342ZM779.104 193.222C778.496 192.55 777.216 191.622 776.224 190.998L775.28 192.022C776.304 192.71 777.52 193.702 778.096 194.39L779.104 193.222ZM776.096 203.574C777.04 202.198 778.08 200.518 778.944 198.998L777.856 198.006C776.912 199.654 775.68 201.462 774.848 202.55L776.096 203.574ZM781.936 200.742H784.48V202.646H781.936V200.742ZM784.48 196.262H781.936V194.47H784.48V196.262ZM784.48 199.414H781.936V197.574H784.48V199.414ZM789.6 202.646H785.92V200.742H788.864V199.414H785.92V197.574H788.864V196.262H785.92V194.47H789.264V193.126H786.192C786.528 192.342 786.896 191.398 787.232 190.534L785.712 190.134C785.504 191.03 785.12 192.214 784.768 193.126H782.128C782.56 192.262 782.944 191.366 783.264 190.454L781.824 190.054C781.04 192.406 779.712 194.694 778.224 196.15C778.544 196.422 779.088 197.046 779.312 197.35C779.728 196.918 780.128 196.422 780.512 195.862V204.726H781.936V204.022H789.6V202.646Z" fill="#222222"/>
<circle cx="489.371" cy="383" r="73" fill="white"/>
<circle cx="489.371" cy="383" r="71.5" stroke="#7094F0" stroke-opacity="0.3" stroke-width="3"/>
<path d="M477.541 385.726C476.677 386.83 475.269 387.982 473.941 388.702C474.341 388.942 474.981 389.438 475.301 389.742C476.549 388.894 478.069 387.55 479.077 386.286L477.541 385.726ZM488.725 385.086C487.925 383.998 486.245 382.414 484.885 381.31L483.669 382.094C484.149 382.51 484.661 382.974 485.173 383.454C483.381 383.502 481.589 383.534 479.893 383.566C481.701 382.158 483.717 380.382 485.269 378.782L483.829 377.998C482.837 379.15 481.477 380.478 480.085 381.678C479.653 381.294 479.109 380.878 478.533 380.478C479.397 379.678 480.405 378.622 481.221 377.63L481.093 377.566C483.429 377.39 485.653 377.134 487.445 376.782L486.389 375.518C483.605 376.078 478.821 376.414 474.741 376.51C474.885 376.862 475.061 377.454 475.093 377.838C476.405 377.822 477.797 377.774 479.205 377.694C478.661 378.382 478.005 379.118 477.397 379.726C477.077 379.518 476.757 379.326 476.453 379.15L475.429 380.094C476.613 380.798 478.021 381.822 478.917 382.654C478.485 382.99 478.069 383.31 477.669 383.598C476.389 383.614 475.221 383.63 474.245 383.63L474.405 385.134C476.085 385.102 478.229 385.054 480.533 384.974V390.014H482.101V384.926C483.525 384.894 484.997 384.846 486.437 384.782C486.821 385.214 487.141 385.614 487.381 385.966L488.725 385.086ZM483.429 386.478C484.773 387.438 486.437 388.814 487.221 389.71L488.549 388.75C487.685 387.854 485.973 386.542 484.661 385.646L483.429 386.478ZM504.315 382.926C503.867 381.982 502.843 380.494 501.995 379.39L500.843 379.982C501.147 380.382 501.451 380.846 501.771 381.31L497.931 381.646C498.587 380.83 499.371 379.758 500.011 378.878H504.219V377.534H499.771L500.779 377.23C500.603 376.734 500.219 375.902 499.883 375.294L498.491 375.63C498.763 376.238 499.083 377.006 499.259 377.534H495.563V378.878H498.251C497.563 379.822 496.619 381.054 496.267 381.374C495.963 381.678 495.515 381.806 495.195 381.87C495.339 382.206 495.611 382.958 495.675 383.31C496.139 383.118 496.859 383.022 502.475 382.478C502.731 382.894 502.923 383.278 503.067 383.614L504.315 382.926ZM492.411 383.838C493.531 382.494 494.603 380.926 495.499 379.358L494.203 378.558C493.915 379.15 493.595 379.726 493.243 380.27L491.643 380.43C492.587 379.118 493.499 377.486 494.171 375.934L492.651 375.246C492.027 377.118 490.923 379.102 490.555 379.598C490.219 380.126 489.915 380.478 489.611 380.558C489.803 380.974 490.059 381.742 490.139 382.062C490.395 381.934 490.747 381.838 492.363 381.646C491.771 382.494 491.243 383.182 490.987 383.454C490.491 384.046 490.123 384.414 489.755 384.494C489.931 384.862 490.171 385.598 490.251 385.886C490.603 385.662 491.211 385.486 495.083 384.622C495.019 384.302 495.019 383.71 495.051 383.294L492.411 383.838ZM495.035 386.126C493.099 386.734 491.115 387.39 489.787 387.742L490.155 389.23C491.611 388.718 493.515 388.046 495.291 387.39L495.035 386.126ZM497.147 383.198C497.035 386.142 496.747 387.822 494.235 388.798C494.555 389.086 494.971 389.646 495.147 390.03C498.011 388.782 498.475 386.654 498.603 383.198H497.147ZM501.915 388.462C501.627 388.462 501.579 388.398 501.579 387.95V383.182H500.123V387.95C500.123 389.294 500.427 389.726 501.659 389.726H502.907C503.995 389.726 504.331 389.086 504.443 386.782C504.075 386.67 503.483 386.446 503.179 386.19C503.131 388.126 503.067 388.462 502.779 388.462H501.915Z" fill="#222222"/>
<circle cx="690.783" cy="383" r="73" fill="white"/>
<circle cx="690.783" cy="383" r="71.5" stroke="#7094F0" stroke-opacity="0.3" stroke-width="3"/>
<path d="M687.125 380.046H682.709V377.358H687.125V380.046ZM688.565 376.094H681.333V381.31H688.565V376.094ZM680.917 384.078C680.629 383.726 679.253 382.334 678.805 381.934V381.182H680.677V379.79H678.805V377.31C679.541 377.118 680.245 376.926 680.853 376.686L679.829 375.55C678.613 376.078 676.565 376.542 674.773 376.83C674.933 377.134 675.141 377.662 675.205 377.966C675.893 377.87 676.629 377.758 677.365 377.63V379.79H674.901V381.182H677.157C676.565 382.878 675.541 384.798 674.597 385.87C674.821 386.222 675.173 386.846 675.317 387.246C676.053 386.334 676.773 384.974 677.365 383.518V389.998H678.805V383.406C679.269 384.062 679.813 384.814 680.053 385.262L680.917 384.078ZM689.333 386.478V385.214H685.637V383.39C686.741 383.246 687.797 383.07 688.645 382.83L687.701 381.726C686.149 382.174 683.413 382.462 681.109 382.622C681.253 382.942 681.429 383.422 681.477 383.758C682.341 383.71 683.253 383.646 684.165 383.566V385.214H680.373V386.478H684.165V388.334H680.901V389.646H688.837V388.334H685.637V386.478H689.333ZM703.707 383.39H701.355L701.435 383.31C701.115 383.118 700.731 382.894 700.283 382.67C701.547 381.95 702.779 380.974 703.691 380.062L702.715 379.31L702.379 379.39H694.555V380.59H701.083C700.475 381.118 699.723 381.662 699.003 382.062C698.219 381.71 697.403 381.358 696.699 381.086L695.803 381.95C696.779 382.35 697.931 382.878 698.923 383.39H693.723V384.654H698.395V388.382C698.395 388.606 698.315 388.67 698.011 388.686C697.707 388.702 696.619 388.702 695.547 388.654C695.739 389.054 695.963 389.614 696.027 390.03C697.451 390.03 698.427 390.046 699.051 389.822C699.723 389.614 699.883 389.23 699.883 388.414V384.654H702.795C702.299 385.406 701.739 386.158 701.243 386.686L702.427 387.278C703.259 386.398 704.219 385.022 705.035 383.758L703.947 383.31L703.707 383.39ZM699.099 377.038V375.326H697.547V377.038H691.787V381.39C691.787 383.71 691.675 386.958 690.379 389.23C690.699 389.39 691.355 389.806 691.611 390.062C693.003 387.63 693.243 383.902 693.243 381.406V378.414H705.035V377.038H699.099Z" fill="#222222"/>
<path d="M536.157 245.094C538.227 245.094 539.991 244.356 541.161 242.988L539.649 241.548C538.731 242.556 537.597 243.042 536.283 243.042C533.673 243.042 531.783 241.206 531.783 238.614C531.783 236.022 533.673 234.186 536.283 234.186C537.597 234.186 538.731 234.672 539.649 235.662L541.161 234.24C539.991 232.872 538.227 232.134 536.175 232.134C532.305 232.134 529.425 234.852 529.425 238.614C529.425 242.376 532.305 245.094 536.157 245.094ZM548.775 245.094C552.681 245.094 555.561 242.358 555.561 238.614C555.561 234.87 552.681 232.134 548.775 232.134C544.869 232.134 541.989 234.888 541.989 238.614C541.989 242.34 544.869 245.094 548.775 245.094ZM548.775 243.042C546.237 243.042 544.347 241.188 544.347 238.614C544.347 236.04 546.237 234.186 548.775 234.186C551.313 234.186 553.203 236.04 553.203 238.614C553.203 241.188 551.313 243.042 548.775 243.042ZM571.58 244.914L571.562 232.314H569.636L564.722 240.666L559.718 232.314H557.792V244.914H560.024V236.67L564.164 243.474H565.208L569.348 236.562L569.366 244.914H571.58ZM579.917 232.314H574.733V244.914H577.073V241.278H579.917C583.229 241.278 585.281 239.568 585.281 236.796C585.281 234.006 583.229 232.314 579.917 232.314ZM579.809 239.298H577.073V234.294H579.809C581.861 234.294 582.923 235.212 582.923 236.796C582.923 238.38 581.861 239.298 579.809 239.298ZM587.368 244.914H596.296V242.934H589.708V232.314H587.368V244.914ZM597.893 244.914H600.233V232.314H597.893V244.914ZM612.823 244.914H615.271L609.583 232.314H607.279L601.609 244.914H604.021L605.263 241.998H611.563L612.823 244.914ZM606.055 240.162L608.413 234.654L610.789 240.162H606.055ZM625.498 232.314V240.846L618.55 232.314H616.624V244.914H618.946V236.382L625.894 244.914H627.82V232.314H625.498ZM636.778 245.094C638.848 245.094 640.612 244.356 641.782 242.988L640.27 241.548C639.352 242.556 638.218 243.042 636.904 243.042C634.294 243.042 632.404 241.206 632.404 238.614C632.404 236.022 634.294 234.186 636.904 234.186C638.218 234.186 639.352 234.672 640.27 235.662L641.782 234.24C640.612 232.872 638.848 232.134 636.796 232.134C632.926 232.134 630.046 234.852 630.046 238.614C630.046 242.376 632.926 245.094 636.778 245.094ZM646.114 242.952V239.478H652.198V237.552H646.114V234.276H652.972V232.314H643.774V244.914H653.224V242.952H646.114ZM549.539 256.314H544.355V268.914H546.695V265.278H549.539C552.851 265.278 554.903 263.568 554.903 260.796C554.903 258.006 552.851 256.314 549.539 256.314ZM549.431 263.298H546.695V258.294H549.431C551.483 258.294 552.545 259.212 552.545 260.796C552.545 262.38 551.483 263.298 549.431 263.298ZM567.754 268.914L564.856 264.774C566.566 264.108 567.538 262.704 567.538 260.796C567.538 258.006 565.486 256.314 562.174 256.314H556.99V268.914H559.33V265.242H562.174C562.336 265.242 562.498 265.242 562.66 265.224L565.234 268.914H567.754ZM565.18 260.796C565.18 262.38 564.118 263.316 562.066 263.316H559.33V258.294H562.066C564.118 258.294 565.18 259.212 565.18 260.796ZM575.792 269.094C579.698 269.094 582.578 266.358 582.578 262.614C582.578 258.87 579.698 256.134 575.792 256.134C571.886 256.134 569.006 258.888 569.006 262.614C569.006 266.34 571.886 269.094 575.792 269.094ZM575.792 267.042C573.254 267.042 571.364 265.188 571.364 262.614C571.364 260.04 573.254 258.186 575.792 258.186C578.33 258.186 580.22 260.04 580.22 262.614C580.22 265.188 578.33 267.042 575.792 267.042ZM593.412 266.394C592.602 266.862 591.72 267.042 590.82 267.042C588.156 267.042 586.266 265.17 586.266 262.614C586.266 260.004 588.156 258.186 590.838 258.186C592.188 258.186 593.322 258.636 594.312 259.626L595.788 258.186C594.6 256.836 592.836 256.134 590.73 256.134C586.788 256.134 583.908 258.852 583.908 262.614C583.908 266.376 586.788 269.094 590.694 269.094C592.476 269.094 594.312 268.554 595.626 267.492V262.47H593.412V266.394ZM609.227 268.914L606.329 264.774C608.039 264.108 609.011 262.704 609.011 260.796C609.011 258.006 606.959 256.314 603.647 256.314H598.463V268.914H600.803V265.242H603.647C603.809 265.242 603.971 265.242 604.133 265.224L606.707 268.914H609.227ZM606.653 260.796C606.653 262.38 605.591 263.316 603.539 263.316H600.803V258.294H603.539C605.591 258.294 606.653 259.212 606.653 260.796ZM620.811 268.914H623.259L617.571 256.314H615.267L609.597 268.914H612.009L613.251 265.998H619.551L620.811 268.914ZM614.043 264.162L616.401 258.654L618.777 264.162H614.043ZM638.399 268.914L638.381 256.314H636.455L631.541 264.666L626.537 256.314H624.611V268.914H626.843V260.67L630.983 267.474H632.027L636.167 260.562L636.185 268.914H638.399Z" fill="#435CE7"/>
</svg>
