<svg width="327" height="299" viewBox="0 0 327 299" fill="none" xmlns="http://www.w3.org/2000/svg">
<path d="M164 46L271.833 134L225 255H103L56.167 134L164 46Z" fill="#F6F7FE"/>
<path d="M57.9588 134.474L164 47.9361L270.041 134.474L223.972 253.5H104.028L57.9588 134.474Z" stroke="#C6D4F9" stroke-opacity="0.2" stroke-width="3"/>
<circle cx="164" cy="47" r="47" fill="white"/>
<circle cx="164" cy="47" r="45.5" stroke="#7094F0" stroke-opacity="0.3" stroke-width="3"/>
<path d="M142.871 49.448C143.783 48.44 144.671 47.204 145.427 45.968L144.563 45.428C144.335 45.848 144.071 46.28 143.807 46.688L142.319 46.82C143.039 45.824 143.747 44.588 144.287 43.388L143.279 42.92C142.787 44.336 141.899 45.86 141.623 46.244C141.347 46.64 141.143 46.904 140.903 46.964C141.023 47.252 141.191 47.768 141.251 47.972C141.443 47.888 141.731 47.816 143.147 47.636C142.643 48.344 142.187 48.896 141.959 49.124C141.575 49.556 141.275 49.844 141.011 49.892C141.131 50.168 141.287 50.648 141.335 50.852C141.611 50.696 142.067 50.576 145.247 49.94C145.223 49.724 145.235 49.304 145.259 49.028L142.871 49.448ZM145.115 51.236C143.591 51.596 142.031 51.956 141.011 52.172L141.203 53.228C142.331 52.94 143.819 52.556 145.223 52.172L145.115 51.236ZM147.191 50.588H149.759V52.7H147.191V50.588ZM149.759 44.54V46.544H147.191V44.54H149.759ZM147.191 47.54H149.759V49.604H147.191V47.54ZM150.863 52.7V43.532H146.135V52.7H144.995V53.708H151.859V52.7H150.863ZM161.701 48.116H158.461V44.804H161.701V48.116ZM162.853 43.736H157.357V49.172H162.853V43.736ZM154.585 49.484C155.461 48.488 156.325 47.276 157.033 46.064L156.121 45.512C155.893 45.944 155.629 46.4 155.365 46.808L153.985 46.94C154.705 45.932 155.413 44.66 155.929 43.448L154.861 42.956C154.393 44.384 153.529 45.92 153.253 46.304C152.989 46.712 152.785 46.976 152.545 47.036C152.677 47.324 152.857 47.864 152.917 48.092C153.097 47.996 153.385 47.936 154.717 47.768C154.237 48.452 153.805 48.98 153.589 49.208C153.217 49.628 152.941 49.916 152.653 49.976C152.785 50.252 152.953 50.744 152.989 50.96C153.289 50.792 153.745 50.66 156.913 50.048C156.889 49.82 156.889 49.376 156.925 49.076L154.585 49.484ZM156.829 51.332C155.281 51.692 153.673 52.04 152.629 52.244L152.833 53.36C153.997 53.048 155.497 52.676 156.949 52.316L156.829 51.332ZM158.161 50.252C157.813 51.416 157.201 52.568 156.433 53.288C156.721 53.444 157.201 53.768 157.429 53.948C158.197 53.12 158.905 51.824 159.325 50.504L158.161 50.252ZM160.837 50.588C161.473 51.632 162.133 53 162.385 53.864L163.501 53.432C163.225 52.568 162.529 51.224 161.881 50.204L160.837 50.588ZM166.767 42.992C166.191 44.732 165.255 46.484 164.223 47.612C164.415 47.864 164.739 48.476 164.847 48.74C165.147 48.38 165.435 47.996 165.735 47.564V53.924H166.803V45.716C167.187 44.924 167.547 44.108 167.811 43.292L166.767 42.992ZM175.287 46.28V45.224H171.855V42.992H170.763V45.224H167.547V46.28H170.175C169.467 48.248 168.291 50.204 167.019 51.26C167.259 51.452 167.643 51.836 167.811 52.112C168.987 50.984 170.031 49.172 170.763 47.204V50.816H168.975V51.824H170.763V53.876H171.855V51.824H173.631V50.816H171.855V47.132C172.563 49.088 173.595 50.96 174.723 52.076C174.927 51.776 175.299 51.392 175.575 51.188C174.339 50.144 173.163 48.212 172.479 46.28H175.287ZM178.769 50.732C178.121 51.56 177.065 52.424 176.069 52.964C176.369 53.144 176.849 53.516 177.089 53.744C178.025 53.108 179.165 52.1 179.921 51.152L178.769 50.732ZM187.157 50.252C186.557 49.436 185.297 48.248 184.277 47.42L183.365 48.008C183.725 48.32 184.109 48.668 184.493 49.028C183.149 49.064 181.805 49.088 180.533 49.112C181.889 48.056 183.401 46.724 184.565 45.524L183.485 44.936C182.741 45.8 181.721 46.796 180.677 47.696C180.353 47.408 179.945 47.096 179.513 46.796C180.161 46.196 180.917 45.404 181.529 44.66L181.433 44.612C183.185 44.48 184.853 44.288 186.197 44.024L185.405 43.076C183.317 43.496 179.729 43.748 176.669 43.82C176.777 44.084 176.909 44.528 176.933 44.816C177.917 44.804 178.961 44.768 180.017 44.708C179.609 45.224 179.117 45.776 178.661 46.232C178.421 46.076 178.181 45.932 177.953 45.8L177.185 46.508C178.073 47.036 179.129 47.804 179.801 48.428C179.477 48.68 179.165 48.92 178.865 49.136C177.905 49.148 177.029 49.16 176.297 49.16L176.417 50.288C177.677 50.264 179.285 50.228 181.013 50.168V53.948H182.189V50.132C183.257 50.108 184.361 50.072 185.441 50.024C185.729 50.348 185.969 50.648 186.149 50.912L187.157 50.252ZM183.185 51.296C184.193 52.016 185.441 53.048 186.029 53.72L187.025 53C186.377 52.328 185.093 51.344 184.109 50.672L183.185 51.296Z" fill="#222222"/>
<circle cx="55" cy="133" r="47" fill="white"/>
<circle cx="55" cy="133" r="45.5" stroke="#7094F0" stroke-opacity="0.3" stroke-width="3"/>
<path d="M35.036 129.788V130.736H29.816V129.788H35.036ZM34.208 126.572V127.424H29.816V126.572H34.208ZM29.816 128.252H35.324V125.744H28.76V131.96H29.816V131.588H35.036V131.936H36.152V128.948H29.816V128.252ZM37.46 121.796H33.668C33.788 121.58 33.908 121.352 34.004 121.124L32.924 120.86C32.684 121.472 32.3 122.06 31.832 122.552V121.796H28.916C29.036 121.58 29.144 121.352 29.24 121.136L28.196 120.86C27.824 121.784 27.164 122.708 26.456 123.308C26.72 123.452 27.152 123.74 27.368 123.92C27.704 123.596 28.052 123.176 28.364 122.708H28.736C28.964 123.116 29.204 123.584 29.3 123.896L30.296 123.596C30.212 123.356 30.044 123.032 29.864 122.708H31.676C31.496 122.876 31.304 123.044 31.112 123.176C31.22 123.224 31.352 123.296 31.496 123.368H31.436V124.244H26.984V126.536H28.028V125.12H36.032V126.536H37.124V124.244H32.504V123.368H32.48C32.684 123.164 32.876 122.948 33.056 122.708H33.908C34.22 123.116 34.544 123.596 34.664 123.92L35.708 123.608C35.588 123.344 35.36 123.02 35.132 122.708H37.46V121.796ZM42.034 128.444C41.626 128.588 41.194 128.72 40.786 128.852V126.14H41.926V125.108H40.786V122.72H42.118V121.688H38.302V122.72H39.718V125.108H38.422V126.14H39.718V129.188C39.142 129.368 38.614 129.512 38.182 129.632L38.446 130.772C39.526 130.424 40.918 129.956 42.226 129.5L42.034 128.444ZM43.654 124.604H45.226V125.924H43.654V124.604ZM43.654 122.42H45.226V123.716H43.654V122.42ZM47.71 123.716H46.174V122.42H47.71V123.716ZM47.71 125.924H46.174V124.604H47.71V125.924ZM46.27 130.544V129.116H48.934V128.108H46.27V126.872H48.778V121.472H42.634V126.872H45.13V128.108H42.526V129.116H45.13V130.544H41.65V131.564H49.318V130.544H46.27ZM59.04 122.432V123.68H52.176V122.432H59.04ZM60.156 124.628V121.484H51.048V124.976C51.048 126.848 50.964 129.5 49.884 131.348C50.16 131.456 50.676 131.744 50.88 131.912C52.008 129.968 52.176 126.992 52.176 124.964V124.628H60.156ZM59.952 126.512V125.54H53.208V126.512H59.952ZM60.768 128.564V127.58H52.476V128.564H54.552C54.108 129.368 53.58 130.064 53.376 130.28C53.136 130.568 52.908 130.76 52.704 130.808C52.848 131.096 53.028 131.6 53.1 131.816C53.508 131.672 54.108 131.612 58.98 131.264C59.16 131.564 59.304 131.84 59.412 132.068L60.456 131.564C60.072 130.856 59.28 129.644 58.656 128.744L57.672 129.152C57.924 129.524 58.188 129.956 58.464 130.388L54.408 130.616C54.948 130.028 55.488 129.296 55.944 128.564H60.768ZM68.966 122.54C68.834 122.876 68.654 123.284 68.486 123.584L68.678 123.632H65.726L65.966 123.572C65.906 123.296 65.738 122.876 65.558 122.54H68.966ZM72.398 123.632H69.59C69.77 123.344 69.962 122.996 70.178 122.6L69.878 122.54H71.774V121.652H67.79V120.932H66.674V121.652H62.702V122.54H64.73L64.454 122.6C64.61 122.9 64.778 123.308 64.862 123.632H62.15V124.532H72.398V123.632ZM70.046 126.416H64.514V125.876H70.046V126.416ZM70.046 127.724H64.514V127.172H70.046V127.724ZM71.15 125.048H63.446V128.552H66.374L65.918 129.008C66.614 129.32 67.466 129.824 67.874 130.196L68.558 129.488C68.198 129.2 67.562 128.828 66.974 128.552H71.15V125.048ZM62.618 131.696C63.47 131.156 63.986 130.268 64.31 129.392L63.386 129.044C63.086 129.848 62.534 130.628 61.742 131.096L62.618 131.696ZM66.566 130.916C65.978 130.916 65.87 130.868 65.87 130.58V129.164H64.79V130.592C64.79 131.564 65.126 131.828 66.458 131.828H68.57C69.602 131.828 69.902 131.504 70.034 130.172C69.746 130.112 69.302 129.968 69.074 129.812C69.026 130.784 68.942 130.916 68.474 130.916H66.566ZM69.866 129.44C70.634 130.052 71.498 130.976 71.858 131.612L72.782 131.06C72.374 130.412 71.498 129.536 70.718 128.924L69.866 129.44ZM78.4 125.396H74.488V126.452H83.596V125.396H79.516V123.596H84.316V122.54H79.516V120.932H78.4V122.54H73.72V123.596H78.4V125.396ZM77.368 127.124C78.184 127.58 79.132 128.288 79.54 128.84L80.356 128.084C79.9 127.544 78.94 126.872 78.124 126.464L77.368 127.124ZM74.332 131.492C75.232 130.76 75.664 129.548 75.916 128.36L74.932 128.06C74.704 129.164 74.224 130.232 73.408 130.88L74.332 131.492ZM78.364 130.784C77.752 130.784 77.644 130.712 77.644 130.364V127.916H76.54V130.376C76.54 131.456 76.9 131.78 78.256 131.78H80.416C81.532 131.78 81.856 131.384 81.988 129.8C81.676 129.728 81.22 129.56 80.98 129.392C80.932 130.604 80.836 130.784 80.32 130.784H78.364ZM81.448 128.264C82.324 129.176 83.188 130.448 83.476 131.324L84.508 130.772C84.16 129.884 83.26 128.66 82.384 127.772L81.448 128.264ZM34.371 145.448C35.283 144.44 36.171 143.204 36.927 141.968L36.063 141.428C35.835 141.848 35.571 142.28 35.307 142.688L33.819 142.82C34.539 141.824 35.247 140.588 35.787 139.388L34.779 138.92C34.287 140.336 33.399 141.86 33.123 142.244C32.847 142.64 32.643 142.904 32.403 142.964C32.523 143.252 32.691 143.768 32.751 143.972C32.943 143.888 33.231 143.816 34.647 143.636C34.143 144.344 33.687 144.896 33.459 145.124C33.075 145.556 32.775 145.844 32.511 145.892C32.631 146.168 32.787 146.648 32.835 146.852C33.111 146.696 33.567 146.576 36.747 145.94C36.723 145.724 36.735 145.304 36.759 145.028L34.371 145.448ZM36.615 147.236C35.091 147.596 33.531 147.956 32.511 148.172L32.703 149.228C33.831 148.94 35.319 148.556 36.723 148.172L36.615 147.236ZM38.691 146.588H41.259V148.7H38.691V146.588ZM41.259 140.54V142.544H38.691V140.54H41.259ZM38.691 143.54H41.259V145.604H38.691V143.54ZM42.363 148.7V139.532H37.635V148.7H36.495V149.708H43.359V148.7H42.363ZM53.201 144.116H49.961V140.804H53.201V144.116ZM54.353 139.736H48.857V145.172H54.353V139.736ZM46.085 145.484C46.961 144.488 47.825 143.276 48.533 142.064L47.621 141.512C47.393 141.944 47.129 142.4 46.865 142.808L45.485 142.94C46.205 141.932 46.913 140.66 47.429 139.448L46.361 138.956C45.893 140.384 45.029 141.92 44.753 142.304C44.489 142.712 44.285 142.976 44.045 143.036C44.177 143.324 44.357 143.864 44.417 144.092C44.597 143.996 44.885 143.936 46.217 143.768C45.737 144.452 45.305 144.98 45.089 145.208C44.717 145.628 44.441 145.916 44.153 145.976C44.285 146.252 44.453 146.744 44.489 146.96C44.789 146.792 45.245 146.66 48.413 146.048C48.389 145.82 48.389 145.376 48.425 145.076L46.085 145.484ZM48.329 147.332C46.781 147.692 45.173 148.04 44.129 148.244L44.333 149.36C45.497 149.048 46.997 148.676 48.449 148.316L48.329 147.332ZM49.661 146.252C49.313 147.416 48.701 148.568 47.933 149.288C48.221 149.444 48.701 149.768 48.929 149.948C49.697 149.12 50.405 147.824 50.825 146.504L49.661 146.252ZM52.337 146.588C52.973 147.632 53.633 149 53.885 149.864L55.001 149.432C54.725 148.568 54.029 147.224 53.381 146.204L52.337 146.588ZM63.703 141.98C63.139 143.516 62.371 144.788 61.363 145.82C60.319 144.752 59.527 143.456 58.975 141.98H63.703ZM66.799 141.98V140.9H61.939V138.932H60.799V140.9H56.011V141.98H57.751C58.411 143.816 59.287 145.376 60.451 146.648C59.215 147.644 57.679 148.376 55.831 148.88C56.059 149.156 56.419 149.684 56.539 149.972C58.423 149.372 59.995 148.568 61.303 147.476C62.599 148.604 64.183 149.432 66.151 149.948C66.331 149.624 66.691 149.108 66.955 148.844C65.071 148.412 63.499 147.656 62.239 146.612C63.415 145.388 64.327 143.864 65.011 141.98H66.799ZM70.761 139.112C69.993 140.948 68.709 142.736 67.377 143.852C67.581 144.128 67.929 144.728 68.049 145.016C68.517 144.584 68.997 144.068 69.441 143.504V149.924H70.557V141.932C71.061 141.14 71.493 140.312 71.853 139.472L70.761 139.112ZM74.841 148.616C74.253 148.616 74.157 148.508 74.157 147.848V144.68C75.645 143.708 77.073 142.556 78.141 141.464L77.097 140.936C76.389 141.728 75.321 142.604 74.157 143.396V139.088H73.017V144.116C72.477 144.44 71.937 144.728 71.421 144.98C71.613 145.208 71.889 145.652 72.033 145.916C72.357 145.748 72.681 145.568 73.017 145.376V147.836C73.017 149.288 73.413 149.696 74.733 149.696H76.917C78.129 149.696 78.453 149.048 78.597 147.248C78.273 147.176 77.817 146.96 77.541 146.768C77.469 148.256 77.373 148.616 76.821 148.616H74.841Z" fill="#222222"/>
<circle cx="272" cy="133" r="47" fill="white"/>
<circle cx="272" cy="133" r="45.5" stroke="#7094F0" stroke-opacity="0.3" stroke-width="3"/>
<path d="M259.055 129.568H253.031V130.612H259.055V129.568ZM252.335 136.42L252.503 137.536C254.075 137.392 256.307 137.188 258.467 136.972C258.635 137.308 258.767 137.608 258.863 137.884L259.847 137.38C259.475 136.384 258.539 134.956 257.651 133.876L256.751 134.32C257.159 134.824 257.567 135.424 257.927 136C256.751 136.096 255.563 136.192 254.507 136.276C254.939 135.4 255.395 134.296 255.791 133.324H259.895V132.292H252.263V133.324H254.495C254.207 134.308 253.775 135.496 253.391 136.348L252.335 136.42ZM252.179 130.468C251.759 130 250.919 129.412 250.223 129.052L249.479 129.736C250.175 130.144 251.003 130.768 251.375 131.224L252.179 130.468ZM251.783 132.784C251.351 132.328 250.463 131.764 249.743 131.416L249.011 132.148C249.743 132.52 250.607 133.12 251.015 133.576L251.783 132.784ZM251.531 134.404H248.975V135.436H250.451V137.488C249.899 137.932 249.299 138.376 248.783 138.712L249.347 139.828C249.959 139.312 250.523 138.832 251.051 138.34C251.807 139.264 252.863 139.66 254.387 139.732C255.755 139.78 258.215 139.756 259.583 139.684C259.643 139.348 259.811 138.832 259.943 138.58C258.443 138.688 255.731 138.712 254.387 138.664C253.055 138.616 252.083 138.232 251.531 137.404V134.404ZM269.185 137.428V138.652H263.197V137.428H269.185ZM262.141 139.972H263.197V139.564H269.185V139.948H270.301V136.468H262.141V139.972ZM268.225 135.076H264.073V134.164H268.225V135.076ZM263.029 133.396V135.844H269.317V133.396H263.029ZM261.205 134.26H262.225V132.76H270.073V134.26H271.141V131.884H261.205V134.26ZM268.801 129.856V128.944H267.697V129.856H264.505V128.944H263.401V129.856H260.893V130.864H263.401V131.584H264.505V130.864H267.697V131.584H268.801V130.864H271.381V129.856H268.801ZM282.663 129.772H277.467V130.816H282.663V129.772ZM276.879 134.668C276.675 134.368 275.655 133.096 275.295 132.7V132.412H276.771V131.38H275.295V128.932H274.191V131.38H272.451V132.412H273.963C273.603 133.828 272.907 135.46 272.187 136.348C272.379 136.624 272.667 137.116 272.775 137.416C273.303 136.708 273.807 135.604 274.191 134.44V139.948H275.295V133.972C275.655 134.524 276.075 135.184 276.255 135.556L276.879 134.668ZM277.635 134.872C277.335 136.12 276.807 137.416 276.171 138.244C276.423 138.376 276.867 138.664 277.059 138.832C277.695 137.908 278.295 136.492 278.643 135.112L277.635 134.872ZM283.311 133.648V132.604H276.939V133.648H279.387V138.556C279.387 138.712 279.339 138.76 279.171 138.76C279.015 138.772 278.487 138.772 277.923 138.748C278.079 139.084 278.223 139.576 278.259 139.9C279.087 139.9 279.651 139.876 280.035 139.684C280.419 139.504 280.527 139.168 280.527 138.58V133.648H283.311ZM281.151 135.148C281.691 136.348 282.207 137.908 282.363 138.868L283.383 138.484C283.191 137.536 282.639 136.012 282.087 134.836L281.151 135.148ZM287.261 131.308C286.805 130.804 285.845 130.108 285.101 129.64L284.393 130.408C285.161 130.924 286.073 131.668 286.505 132.184L287.261 131.308ZM285.005 139.072C285.713 138.04 286.493 136.78 287.141 135.64L286.325 134.896C285.617 136.132 284.693 137.488 284.069 138.304L285.005 139.072ZM289.385 136.948H291.293V138.376H289.385V136.948ZM291.293 133.588H289.385V132.244H291.293V133.588ZM291.293 135.952H289.385V134.572H291.293V135.952ZM295.133 138.376H292.373V136.948H294.581V135.952H292.373V134.572H294.581V133.588H292.373V132.244H294.881V131.236H292.577C292.829 130.648 293.105 129.94 293.357 129.292L292.217 128.992C292.061 129.664 291.773 130.552 291.509 131.236H289.529C289.853 130.588 290.141 129.916 290.381 129.232L289.301 128.932C288.713 130.696 287.717 132.412 286.601 133.504C286.841 133.708 287.249 134.176 287.417 134.404C287.729 134.08 288.029 133.708 288.317 133.288V139.936H289.385V139.408H295.133V138.376Z" fill="#222222"/>
<circle cx="99" cy="252" r="47" fill="white"/>
<circle cx="99" cy="252" r="45.5" stroke="#7094F0" stroke-opacity="0.3" stroke-width="3"/>
<path d="M89.269 255.732C88.621 256.56 87.565 257.424 86.569 257.964C86.869 258.144 87.349 258.516 87.589 258.744C88.525 258.108 89.665 257.1 90.421 256.152L89.269 255.732ZM97.657 255.252C97.057 254.436 95.797 253.248 94.777 252.42L93.865 253.008C94.225 253.32 94.609 253.668 94.993 254.028C93.649 254.064 92.305 254.088 91.033 254.112C92.389 253.056 93.901 251.724 95.065 250.524L93.985 249.936C93.241 250.8 92.221 251.796 91.177 252.696C90.853 252.408 90.445 252.096 90.013 251.796C90.661 251.196 91.417 250.404 92.029 249.66L91.933 249.612C93.685 249.48 95.353 249.288 96.697 249.024L95.905 248.076C93.817 248.496 90.229 248.748 87.169 248.82C87.277 249.084 87.409 249.528 87.433 249.816C88.417 249.804 89.461 249.768 90.517 249.708C90.109 250.224 89.617 250.776 89.161 251.232C88.921 251.076 88.681 250.932 88.453 250.8L87.685 251.508C88.573 252.036 89.629 252.804 90.301 253.428C89.977 253.68 89.665 253.92 89.365 254.136C88.405 254.148 87.529 254.16 86.797 254.16L86.917 255.288C88.177 255.264 89.785 255.228 91.513 255.168V258.948H92.689V255.132C93.757 255.108 94.861 255.072 95.941 255.024C96.229 255.348 96.469 255.648 96.649 255.912L97.657 255.252ZM93.685 256.296C94.693 257.016 95.941 258.048 96.529 258.72L97.525 258C96.877 257.328 95.593 256.344 94.609 255.672L93.685 256.296ZM109.287 253.632C108.951 252.924 108.183 251.808 107.547 250.98L106.683 251.424C106.911 251.724 107.139 252.072 107.379 252.42L104.499 252.672C104.991 252.06 105.579 251.256 106.059 250.596H109.215V249.588H105.879L106.635 249.36C106.503 248.988 106.215 248.364 105.963 247.908L104.919 248.16C105.123 248.616 105.363 249.192 105.495 249.588H102.723V250.596H104.739C104.223 251.304 103.515 252.228 103.251 252.468C103.023 252.696 102.687 252.792 102.447 252.84C102.555 253.092 102.759 253.656 102.807 253.92C103.155 253.776 103.695 253.704 107.907 253.296C108.099 253.608 108.243 253.896 108.351 254.148L109.287 253.632ZM100.359 254.316C101.199 253.308 102.003 252.132 102.675 250.956L101.703 250.356C101.487 250.8 101.247 251.232 100.983 251.64L99.783 251.76C100.491 250.776 101.175 249.552 101.679 248.388L100.539 247.872C100.071 249.276 99.243 250.764 98.967 251.136C98.715 251.532 98.487 251.796 98.259 251.856C98.403 252.168 98.595 252.744 98.655 252.984C98.847 252.888 99.111 252.816 100.323 252.672C99.879 253.308 99.483 253.824 99.291 254.028C98.919 254.472 98.643 254.748 98.367 254.808C98.499 255.084 98.679 255.636 98.739 255.852C99.003 255.684 99.459 255.552 102.363 254.904C102.315 254.664 102.315 254.22 102.339 253.908L100.359 254.316ZM102.327 256.032C100.875 256.488 99.387 256.98 98.391 257.244L98.667 258.36C99.759 257.976 101.187 257.472 102.519 256.98L102.327 256.032ZM103.911 253.836C103.827 256.044 103.611 257.304 101.727 258.036C101.967 258.252 102.279 258.672 102.411 258.96C104.559 258.024 104.907 256.428 105.003 253.836H103.911ZM107.487 257.784C107.271 257.784 107.235 257.736 107.235 257.4V253.824H106.143V257.4C106.143 258.408 106.371 258.732 107.295 258.732H108.231C109.047 258.732 109.299 258.252 109.383 256.524C109.107 256.44 108.663 256.272 108.435 256.08C108.399 257.532 108.351 257.784 108.135 257.784H107.487Z" fill="#222222"/>
<circle cx="228" cy="252" r="47" fill="white"/>
<circle cx="228" cy="252" r="45.5" stroke="#7094F0" stroke-opacity="0.3" stroke-width="3"/>
<path d="M226.893 251.472H223.581V249.456H226.893V251.472ZM227.973 248.508H222.549V252.42H227.973V248.508ZM222.237 254.496C222.021 254.232 220.989 253.188 220.653 252.888V252.324H222.057V251.28H220.653V249.42C221.205 249.276 221.733 249.132 222.189 248.952L221.421 248.1C220.509 248.496 218.973 248.844 217.629 249.06C217.749 249.288 217.905 249.684 217.953 249.912C218.469 249.84 219.021 249.756 219.573 249.66V251.28H217.725V252.324H219.417C218.973 253.596 218.205 255.036 217.497 255.84C217.665 256.104 217.929 256.572 218.037 256.872C218.589 256.188 219.129 255.168 219.573 254.076V258.936H220.653V253.992C221.001 254.484 221.409 255.048 221.589 255.384L222.237 254.496ZM228.549 256.296V255.348H225.777V253.98C226.605 253.872 227.397 253.74 228.033 253.56L227.325 252.732C226.161 253.068 224.109 253.284 222.381 253.404C222.489 253.644 222.621 254.004 222.657 254.256C223.305 254.22 223.989 254.172 224.673 254.112V255.348H221.829V256.296H224.673V257.688H222.225V258.672H228.177V257.688H225.777V256.296H228.549ZM239.267 253.98H237.503L237.563 253.92C237.323 253.776 237.035 253.608 236.699 253.44C237.647 252.9 238.571 252.168 239.255 251.484L238.523 250.92L238.271 250.98H232.403V251.88H237.299C236.843 252.276 236.279 252.684 235.739 252.984C235.151 252.72 234.539 252.456 234.011 252.252L233.339 252.9C234.071 253.2 234.935 253.596 235.679 253.98H231.779V254.928H235.283V257.724C235.283 257.892 235.223 257.94 234.995 257.952C234.767 257.964 233.951 257.964 233.147 257.928C233.291 258.228 233.459 258.648 233.507 258.96C234.575 258.96 235.307 258.972 235.775 258.804C236.279 258.648 236.399 258.36 236.399 257.748V254.928H238.583C238.211 255.492 237.791 256.056 237.419 256.452L238.307 256.896C238.931 256.236 239.651 255.204 240.263 254.256L239.447 253.92L239.267 253.98ZM235.811 249.216V247.932H234.647V249.216H230.327V252.48C230.327 254.22 230.243 256.656 229.271 258.36C229.511 258.48 230.003 258.792 230.195 258.984C231.239 257.16 231.419 254.364 231.419 252.492V250.248H240.263V249.216H235.811Z" fill="#222222"/>
<path d="M121.293 160.14C120.547 160.14 119.851 160.019 119.207 159.776C118.573 159.524 118.017 159.174 117.541 158.726C117.075 158.269 116.711 157.732 116.449 157.116C116.188 156.5 116.057 155.828 116.057 155.1C116.057 154.372 116.188 153.7 116.449 153.084C116.711 152.468 117.079 151.936 117.555 151.488C118.031 151.031 118.587 150.681 119.221 150.438C119.856 150.186 120.551 150.06 121.307 150.06C122.11 150.06 122.843 150.2 123.505 150.48C124.168 150.751 124.728 151.157 125.185 151.698L124.009 152.804C123.655 152.421 123.258 152.137 122.819 151.95C122.381 151.754 121.905 151.656 121.391 151.656C120.878 151.656 120.407 151.74 119.977 151.908C119.557 152.076 119.189 152.314 118.871 152.622C118.563 152.93 118.321 153.294 118.143 153.714C117.975 154.134 117.891 154.596 117.891 155.1C117.891 155.604 117.975 156.066 118.143 156.486C118.321 156.906 118.563 157.27 118.871 157.578C119.189 157.886 119.557 158.124 119.977 158.292C120.407 158.46 120.878 158.544 121.391 158.544C121.905 158.544 122.381 158.451 122.819 158.264C123.258 158.068 123.655 157.774 124.009 157.382L125.185 158.502C124.728 159.034 124.168 159.44 123.505 159.72C122.843 160 122.105 160.14 121.293 160.14ZM131.066 160.14C130.301 160.14 129.596 160.014 128.952 159.762C128.308 159.51 127.748 159.16 127.272 158.712C126.796 158.255 126.428 157.723 126.166 157.116C125.905 156.5 125.774 155.828 125.774 155.1C125.774 154.372 125.905 153.705 126.166 153.098C126.428 152.482 126.796 151.95 127.272 151.502C127.748 151.045 128.308 150.69 128.952 150.438C129.596 150.186 130.296 150.06 131.052 150.06C131.818 150.06 132.518 150.186 133.152 150.438C133.796 150.69 134.356 151.045 134.832 151.502C135.308 151.95 135.677 152.482 135.938 153.098C136.2 153.705 136.33 154.372 136.33 155.1C136.33 155.828 136.2 156.5 135.938 157.116C135.677 157.732 135.308 158.264 134.832 158.712C134.356 159.16 133.796 159.51 133.152 159.762C132.518 160.014 131.822 160.14 131.066 160.14ZM131.052 158.544C131.547 158.544 132.004 158.46 132.424 158.292C132.844 158.124 133.208 157.886 133.516 157.578C133.824 157.261 134.062 156.897 134.23 156.486C134.408 156.066 134.496 155.604 134.496 155.1C134.496 154.596 134.408 154.139 134.23 153.728C134.062 153.308 133.824 152.944 133.516 152.636C133.208 152.319 132.844 152.076 132.424 151.908C132.004 151.74 131.547 151.656 131.052 151.656C130.558 151.656 130.1 151.74 129.68 151.908C129.27 152.076 128.906 152.319 128.588 152.636C128.28 152.944 128.038 153.308 127.86 153.728C127.692 154.139 127.608 154.596 127.608 155.1C127.608 155.595 127.692 156.052 127.86 156.472C128.038 156.892 128.28 157.261 128.588 157.578C128.896 157.886 129.26 158.124 129.68 158.292C130.1 158.46 130.558 158.544 131.052 158.544ZM138.009 160V150.2H139.507L143.791 157.354H143.007L147.221 150.2H148.719L148.733 160H147.011L146.997 152.902H147.361L143.777 158.88H142.965L139.325 152.902H139.745V160H138.009ZM151.13 160V150.2H155.162C156.03 150.2 156.772 150.34 157.388 150.62C158.014 150.9 158.494 151.301 158.83 151.824C159.166 152.347 159.334 152.967 159.334 153.686C159.334 154.405 159.166 155.025 158.83 155.548C158.494 156.071 158.014 156.472 157.388 156.752C156.772 157.032 156.03 157.172 155.162 157.172H152.138L152.95 156.318V160H151.13ZM152.95 156.514L152.138 155.632H155.078C155.881 155.632 156.483 155.464 156.884 155.128C157.295 154.783 157.5 154.302 157.5 153.686C157.5 153.061 157.295 152.58 156.884 152.244C156.483 151.908 155.881 151.74 155.078 151.74H152.138L152.95 150.844V156.514ZM160.902 160V150.2H162.722V158.46H167.846V160H160.902ZM169.033 160V150.2H170.853V160H169.033ZM171.867 160L176.278 150.2H178.07L182.494 160H180.59L176.796 151.166H177.524L173.744 160H171.867ZM173.898 157.732L174.388 156.304H179.68L180.169 157.732H173.898ZM183.49 160V150.2H184.988L191.134 157.746H190.392V150.2H192.198V160H190.7L184.554 152.454H185.296V160H183.49ZM199.11 160.14C198.363 160.14 197.668 160.019 197.024 159.776C196.389 159.524 195.834 159.174 195.358 158.726C194.891 158.269 194.527 157.732 194.266 157.116C194.004 156.5 193.874 155.828 193.874 155.1C193.874 154.372 194.004 153.7 194.266 153.084C194.527 152.468 194.896 151.936 195.372 151.488C195.848 151.031 196.403 150.681 197.038 150.438C197.672 150.186 198.368 150.06 199.124 150.06C199.926 150.06 200.659 150.2 201.322 150.48C201.984 150.751 202.544 151.157 203.002 151.698L201.826 152.804C201.471 152.421 201.074 152.137 200.636 151.95C200.197 151.754 199.721 151.656 199.208 151.656C198.694 151.656 198.223 151.74 197.794 151.908C197.374 152.076 197.005 152.314 196.688 152.622C196.38 152.93 196.137 153.294 195.96 153.714C195.792 154.134 195.708 154.596 195.708 155.1C195.708 155.604 195.792 156.066 195.96 156.486C196.137 156.906 196.38 157.27 196.688 157.578C197.005 157.886 197.374 158.124 197.794 158.292C198.223 158.46 198.694 158.544 199.208 158.544C199.721 158.544 200.197 158.451 200.636 158.264C201.074 158.068 201.471 157.774 201.826 157.382L203.002 158.502C202.544 159.034 201.984 159.44 201.322 159.72C200.659 160 199.922 160.14 199.11 160.14ZM206.176 154.274H211.048V155.772H206.176V154.274ZM206.316 158.474H211.846V160H204.496V150.2H211.65V151.726H206.316V158.474ZM127.587 179V169.2H131.619C132.487 169.2 133.229 169.34 133.845 169.62C134.47 169.9 134.951 170.301 135.287 170.824C135.623 171.347 135.791 171.967 135.791 172.686C135.791 173.405 135.623 174.025 135.287 174.548C134.951 175.071 134.47 175.472 133.845 175.752C133.229 176.032 132.487 176.172 131.619 176.172H128.595L129.407 175.318V179H127.587ZM129.407 175.514L128.595 174.632H131.535C132.337 174.632 132.939 174.464 133.341 174.128C133.751 173.783 133.957 173.302 133.957 172.686C133.957 172.061 133.751 171.58 133.341 171.244C132.939 170.908 132.337 170.74 131.535 170.74H128.595L129.407 169.844V175.514ZM137.358 179V169.2H141.39C142.258 169.2 143 169.34 143.616 169.62C144.241 169.9 144.722 170.301 145.058 170.824C145.394 171.347 145.562 171.967 145.562 172.686C145.562 173.405 145.394 174.025 145.058 174.548C144.722 175.061 144.241 175.458 143.616 175.738C143 176.009 142.258 176.144 141.39 176.144H138.366L139.178 175.318V179H137.358ZM143.77 179L141.292 175.444H143.238L145.73 179H143.77ZM139.178 175.514L138.366 174.646H141.306C142.109 174.646 142.711 174.473 143.112 174.128C143.523 173.783 143.728 173.302 143.728 172.686C143.728 172.061 143.523 171.58 143.112 171.244C142.711 170.908 142.109 170.74 141.306 170.74H138.366L139.178 169.844V175.514ZM151.94 179.14C151.175 179.14 150.47 179.014 149.826 178.762C149.182 178.51 148.622 178.16 148.146 177.712C147.67 177.255 147.302 176.723 147.04 176.116C146.779 175.5 146.648 174.828 146.648 174.1C146.648 173.372 146.779 172.705 147.04 172.098C147.302 171.482 147.67 170.95 148.146 170.502C148.622 170.045 149.182 169.69 149.826 169.438C150.47 169.186 151.17 169.06 151.926 169.06C152.692 169.06 153.392 169.186 154.026 169.438C154.67 169.69 155.23 170.045 155.706 170.502C156.182 170.95 156.551 171.482 156.812 172.098C157.074 172.705 157.204 173.372 157.204 174.1C157.204 174.828 157.074 175.5 156.812 176.116C156.551 176.732 156.182 177.264 155.706 177.712C155.23 178.16 154.67 178.51 154.026 178.762C153.392 179.014 152.696 179.14 151.94 179.14ZM151.926 177.544C152.421 177.544 152.878 177.46 153.298 177.292C153.718 177.124 154.082 176.886 154.39 176.578C154.698 176.261 154.936 175.897 155.104 175.486C155.282 175.066 155.37 174.604 155.37 174.1C155.37 173.596 155.282 173.139 155.104 172.728C154.936 172.308 154.698 171.944 154.39 171.636C154.082 171.319 153.718 171.076 153.298 170.908C152.878 170.74 152.421 170.656 151.926 170.656C151.432 170.656 150.974 170.74 150.554 170.908C150.144 171.076 149.78 171.319 149.462 171.636C149.154 171.944 148.912 172.308 148.734 172.728C148.566 173.139 148.482 173.596 148.482 174.1C148.482 174.595 148.566 175.052 148.734 175.472C148.912 175.892 149.154 176.261 149.462 176.578C149.77 176.886 150.134 177.124 150.554 177.292C150.974 177.46 151.432 177.544 151.926 177.544ZM163.461 179.14C162.696 179.14 161.991 179.019 161.347 178.776C160.713 178.524 160.157 178.174 159.681 177.726C159.205 177.269 158.837 176.732 158.575 176.116C158.314 175.5 158.183 174.828 158.183 174.1C158.183 173.372 158.314 172.7 158.575 172.084C158.837 171.468 159.205 170.936 159.681 170.488C160.167 170.031 160.731 169.681 161.375 169.438C162.019 169.186 162.724 169.06 163.489 169.06C164.32 169.06 165.067 169.195 165.729 169.466C166.401 169.737 166.966 170.133 167.423 170.656L166.275 171.776C165.893 171.393 165.477 171.113 165.029 170.936C164.591 170.749 164.105 170.656 163.573 170.656C163.06 170.656 162.584 170.74 162.145 170.908C161.707 171.076 161.329 171.314 161.011 171.622C160.694 171.93 160.447 172.294 160.269 172.714C160.101 173.134 160.017 173.596 160.017 174.1C160.017 174.595 160.101 175.052 160.269 175.472C160.447 175.892 160.694 176.261 161.011 176.578C161.329 176.886 161.702 177.124 162.131 177.292C162.561 177.46 163.037 177.544 163.559 177.544C164.045 177.544 164.511 177.469 164.959 177.32C165.417 177.161 165.851 176.9 166.261 176.536L167.297 177.894C166.784 178.305 166.187 178.617 165.505 178.832C164.833 179.037 164.152 179.14 163.461 179.14ZM165.575 177.656V173.988H167.297V177.894L165.575 177.656ZM169.448 179V169.2H173.48C174.348 169.2 175.09 169.34 175.706 169.62C176.331 169.9 176.812 170.301 177.148 170.824C177.484 171.347 177.652 171.967 177.652 172.686C177.652 173.405 177.484 174.025 177.148 174.548C176.812 175.061 176.331 175.458 175.706 175.738C175.09 176.009 174.348 176.144 173.48 176.144H170.456L171.268 175.318V179H169.448ZM175.86 179L173.382 175.444H175.328L177.82 179H175.86ZM171.268 175.514L170.456 174.646H173.396C174.199 174.646 174.801 174.473 175.202 174.128C175.613 173.783 175.818 173.302 175.818 172.686C175.818 172.061 175.613 171.58 175.202 171.244C174.801 170.908 174.199 170.74 173.396 170.74H170.456L171.268 169.844V175.514ZM178.052 179L182.462 169.2H184.254L188.678 179H186.774L182.98 170.166H183.708L179.928 179H178.052ZM180.082 176.732L180.572 175.304H185.864L186.354 176.732H180.082ZM189.674 179V169.2H191.172L195.456 176.354H194.672L198.886 169.2H200.384L200.398 179H198.676L198.662 171.902H199.026L195.442 177.88H194.63L190.99 171.902H191.41V179H189.674Z" fill="#435CE7"/>
</svg>
