<svg width="327" height="228" viewBox="0 0 327 228" fill="none" xmlns="http://www.w3.org/2000/svg">
<rect x="163" y="1.19531" width="1" height="226" fill="#EEEEEE"/>
<rect x="24" y="1.19531" width="280" height="46" rx="7" fill="#435CE7"/>
<path d="M125.365 21.0253H134.815V22.9853H135.907V20.0593H130.629V18.4773H129.551V20.0593H124.315V22.9853H125.365V21.0253ZM125.687 26.0653C126.583 26.9613 127.549 28.2073 127.955 29.0333L128.823 28.4313C128.403 27.6053 127.409 26.3873 126.499 25.5473L125.687 26.0653ZM136.271 23.8113H132.687V21.8093H131.637V23.8113H123.993V24.8333H131.637V29.9293C131.637 30.1673 131.539 30.2513 131.259 30.2653C130.993 30.2653 130.013 30.2793 129.005 30.2373C129.145 30.5313 129.327 30.9793 129.369 31.2733C130.699 31.2733 131.539 31.2593 132.029 31.1053C132.519 30.9373 132.687 30.6153 132.687 29.9293V24.8333H136.271V23.8113ZM141.509 20.0173C140.921 19.5133 139.731 18.9253 138.765 18.5753L138.205 19.3453C139.171 19.7233 140.347 20.3813 140.921 20.8713L141.509 20.0173ZM140.781 23.6713C140.165 23.2233 138.947 22.6913 138.009 22.3833L137.463 23.1813C138.429 23.5173 139.633 24.1053 140.221 24.5533L140.781 23.6713ZM140.459 25.9253C139.703 27.5213 138.667 29.3273 137.953 30.4193L138.835 31.0913C139.619 29.7893 140.543 28.0673 141.243 26.5973L140.459 25.9253ZM150.371 30.7413C149.895 29.6353 148.747 27.9553 147.697 26.7233L146.815 27.1853C147.305 27.7873 147.809 28.4873 148.257 29.1733C146.605 29.2853 144.939 29.3833 143.497 29.4533C144.113 28.2353 144.771 26.6393 145.289 25.3093H150.133V24.3153H146.157V21.7533H149.475V20.7733H146.157V18.4913H145.093V20.7733H141.901V21.7533H145.093V24.3153H141.201V25.3093H144.057C143.637 26.6393 142.965 28.3333 142.377 29.5233L141.215 29.5793L141.369 30.6153C143.301 30.4893 146.115 30.3073 148.817 30.0973C149.069 30.5313 149.265 30.9373 149.405 31.2873L150.371 30.7413ZM160.327 20.8293V23.5733C160.327 24.5113 160.551 24.7913 161.531 24.7913H162.805C163.561 24.7913 163.813 24.4273 163.911 23.0553C163.645 22.9993 163.267 22.8593 163.071 22.7053C163.029 23.7693 162.973 23.9093 162.693 23.9093H161.657C161.349 23.9093 161.293 23.8673 161.293 23.5733V20.8293H162.945V22.2013H163.897V19.9473H160.145V18.4773H159.151V19.9473H155.665V22.3273H156.589V20.8293H158.059C157.961 22.8593 157.611 23.9093 155.595 24.4833C155.791 24.6653 156.029 25.0013 156.113 25.2113C158.423 24.5113 158.871 23.2093 159.011 20.8293H160.327ZM155.525 25.1833L155.343 24.2453C154.881 24.4133 154.419 24.5673 153.971 24.7213V22.2433H155.427V21.2913H153.971V18.4913H153.005V21.2913H151.255V22.2433H153.005V25.0573C152.277 25.2953 151.605 25.5193 151.073 25.6873L151.325 26.6953C151.829 26.5133 152.403 26.3173 153.005 26.0933V30.0553C153.005 30.2653 152.935 30.3073 152.767 30.3073C152.599 30.3213 152.053 30.3213 151.451 30.3073C151.591 30.5873 151.717 31.0213 151.759 31.2593C152.627 31.2733 153.159 31.2313 153.495 31.0773C153.845 30.9093 153.971 30.6293 153.971 30.0553V25.7433L155.525 25.1833ZM160.145 29.9153V26.9893H163.351V26.0373H156.127V26.9893H159.137V29.9153H155.231V30.8673H164.023V29.9153H160.145ZM169.443 21.4453H172.271V20.4933H169.443V18.5333H168.449V20.4933H166.965C167.119 20.0173 167.259 19.4993 167.385 19.0093L166.405 18.8133C166.125 20.1573 165.635 21.5573 165.005 22.4953C165.257 22.5793 165.719 22.7613 165.929 22.8873C166.167 22.4953 166.405 21.9913 166.629 21.4453H168.449V22.9153H165.047V23.8673H168.449V25.2673H165.691V30.1253H166.643V26.2193H168.449V31.2453H169.443V26.2193H171.375V29.0753C171.375 29.2153 171.333 29.2573 171.179 29.2573C171.039 29.2713 170.577 29.2713 169.975 29.2573C170.115 29.5233 170.241 29.8873 170.283 30.1673C171.053 30.1673 171.585 30.1533 171.907 29.9993C172.257 29.8313 172.327 29.5653 172.327 29.0893V25.2673H169.443V23.8673H172.817V22.9153H169.443V21.4453ZM174.805 19.7513H173.825V27.4513H174.805V19.7513ZM176.303 18.6313V29.8453C176.303 30.0833 176.233 30.1393 176.009 30.1533C175.771 30.1533 174.987 30.1533 174.161 30.1253C174.301 30.4473 174.441 30.9233 174.497 31.2173C175.533 31.2173 176.303 31.1893 176.737 31.0073C177.157 30.8253 177.311 30.5173 177.311 29.8313V18.6313H176.303ZM190.697 19.5553H184.635V20.5353H190.697V19.5553ZM183.893 25.1553C183.627 24.7913 182.437 23.2793 182.017 22.7753V22.4113H183.823V21.4313H182.017V18.4913H180.981V21.4313H178.867V22.4113H180.757C180.309 24.1473 179.399 26.1353 178.517 27.1853C178.699 27.4373 178.979 27.8573 179.105 28.1513C179.805 27.2693 180.477 25.8133 180.981 24.3153V31.2593H182.017V23.9793C182.479 24.6653 183.053 25.5333 183.277 25.9813L183.893 25.1553ZM184.999 25.4073C184.635 26.8913 184.005 28.3893 183.235 29.3693C183.473 29.4813 183.879 29.7753 184.061 29.9153C184.817 28.8513 185.517 27.2273 185.951 25.6173L184.999 25.4073ZM191.439 23.8533V22.8733H184.033V23.8533H187.015V29.9293C187.015 30.1113 186.959 30.1533 186.749 30.1673C186.567 30.1813 185.923 30.1813 185.195 30.1533C185.321 30.4613 185.475 30.9093 185.517 31.2173C186.497 31.2173 187.141 31.2033 187.533 31.0073C187.939 30.8393 188.051 30.5313 188.051 29.9433V23.8533H191.439ZM189.003 25.6453C189.661 27.0173 190.305 28.8373 190.501 29.9293L191.467 29.5933C191.229 28.4873 190.543 26.7233 189.871 25.3793L189.003 25.6453ZM196.019 21.3473C195.501 20.7453 194.395 19.9053 193.513 19.3453L192.841 20.0593C193.737 20.6613 194.815 21.5433 195.319 22.1593L196.019 21.3473ZM193.303 30.1953C194.115 29.0333 195.095 27.4793 195.837 26.1493L195.095 25.4633C194.269 26.9053 193.177 28.5293 192.435 29.4953L193.303 30.1953ZM198.413 27.7033H200.863V29.6353H198.413V27.7033ZM200.863 23.9933H198.413V22.1733H200.863V23.9933ZM200.863 26.7933H198.413V24.9313H200.863V26.7933ZM205.259 29.6353H201.871V27.7033H204.601V26.7933H201.871V24.9313H204.601V23.9933H201.871V22.1733H204.937V21.2353H202.039C202.347 20.5213 202.683 19.6253 202.963 18.8413L201.899 18.5473C201.717 19.3453 201.381 20.4373 201.045 21.2353H198.511C198.903 20.4373 199.253 19.5973 199.547 18.7573L198.539 18.4773C197.853 20.5773 196.719 22.6213 195.403 23.9233C195.641 24.1053 196.019 24.5253 196.187 24.7213C196.607 24.2593 197.027 23.7273 197.419 23.1393V31.2593H198.413V30.5873H205.259V29.6353Z" fill="white"/>
<rect x="24.5" y="61.6953" width="279" height="45" rx="6.5" fill="#F5F5F5" stroke="#EEEEEE"/>
<path d="M111.615 81.0253H121.065V82.9853H122.157V80.0593H116.879V78.4773H115.801V80.0593H110.565V82.9853H111.615V81.0253ZM111.937 86.0653C112.833 86.9613 113.799 88.2073 114.205 89.0333L115.073 88.4313C114.653 87.6053 113.659 86.3873 112.749 85.5473L111.937 86.0653ZM122.521 83.8113H118.937V81.8093H117.887V83.8113H110.243V84.8333H117.887V89.9293C117.887 90.1673 117.789 90.2513 117.509 90.2653C117.243 90.2653 116.263 90.2793 115.255 90.2373C115.395 90.5313 115.577 90.9793 115.619 91.2733C116.949 91.2733 117.789 91.2593 118.279 91.1053C118.769 90.9373 118.937 90.6153 118.937 89.9293V84.8333H122.521V83.8113ZM127.759 80.0173C127.171 79.5133 125.981 78.9253 125.015 78.5753L124.455 79.3453C125.421 79.7233 126.597 80.3813 127.171 80.8713L127.759 80.0173ZM127.031 83.6713C126.415 83.2233 125.197 82.6913 124.259 82.3833L123.713 83.1813C124.679 83.5173 125.883 84.1053 126.471 84.5533L127.031 83.6713ZM126.709 85.9253C125.953 87.5213 124.917 89.3273 124.203 90.4193L125.085 91.0913C125.869 89.7893 126.793 88.0673 127.493 86.5973L126.709 85.9253ZM136.621 90.7413C136.145 89.6353 134.997 87.9553 133.947 86.7233L133.065 87.1853C133.555 87.7873 134.059 88.4873 134.507 89.1733C132.855 89.2853 131.189 89.3833 129.747 89.4533C130.363 88.2353 131.021 86.6393 131.539 85.3093H136.383V84.3153H132.407V81.7533H135.725V80.7733H132.407V78.4913H131.343V80.7733H128.151V81.7533H131.343V84.3153H127.451V85.3093H130.307C129.887 86.6393 129.215 88.3333 128.627 89.5233L127.465 89.5793L127.619 90.6153C129.551 90.4893 132.365 90.3073 135.067 90.0973C135.319 90.5313 135.515 90.9373 135.655 91.2873L136.621 90.7413ZM147.781 83.6993V85.2253H144.393V83.6993H147.781ZM144.393 87.7033V86.1213H147.781V87.7033H144.393ZM139.941 87.7033V86.1213H143.329V87.7033H139.941ZM143.329 83.6993V85.2253H139.941V83.6993H143.329ZM144.393 81.4313H143.329V82.7753H138.947V89.4113H139.941V88.6273H143.329V91.2453H144.393V88.6273H147.781V89.3553H148.803V82.7753H144.393V81.4313ZM144.491 79.9753L144.715 79.9053C144.561 79.5133 144.225 78.8693 143.945 78.3793L142.895 78.6873C143.119 79.0653 143.357 79.5833 143.525 79.9753H138.093V82.2573H139.115V80.9833H148.593V82.2573H149.657V79.9753H144.491ZM155.483 80.8153C155.007 80.2413 154.027 79.3453 153.257 78.7293L152.585 79.4013C153.355 80.0453 154.321 80.9833 154.783 81.5853L155.483 80.8153ZM154.573 88.7953V82.8593H151.325V83.8813H153.523V88.8933C153.523 89.4813 153.117 89.8733 152.851 90.0553C153.033 90.2793 153.299 90.7273 153.397 91.0073C153.621 90.7133 154.013 90.4053 156.617 88.5573C156.533 88.3473 156.351 87.9133 156.281 87.6473L154.573 88.7953ZM164.009 83.1113H160.467V78.5333H159.389V83.1113H155.833V84.1613H159.389V91.2733H160.467V84.1613H164.009V83.1113ZM176.751 79.2893H169.751V80.2553H176.751V79.2893ZM168.967 87.4233L169.121 88.4453C170.969 88.2913 173.685 88.0533 176.275 87.8013C176.499 88.2073 176.681 88.5993 176.807 88.9353L177.703 88.4453C177.255 87.2973 176.121 85.6033 175.043 84.3293L174.203 84.7493C174.749 85.3933 175.295 86.1493 175.757 86.8913C174.189 87.0173 172.621 87.1433 171.263 87.2553C171.795 86.1773 172.383 84.7353 172.859 83.5173H177.773V82.5373H168.869V83.5173H171.641C171.277 84.7493 170.703 86.2613 170.199 87.3393L168.967 87.4233ZM168.673 80.3253C168.211 79.7793 167.189 79.0933 166.363 78.6593L165.677 79.3033C166.517 79.7653 167.497 80.4933 167.945 81.0393L168.673 80.3253ZM168.267 83.0553C167.735 82.5233 166.685 81.8513 165.817 81.4593L165.131 82.1313C166.013 82.5653 167.049 83.2653 167.553 83.7973L168.267 83.0553ZM167.917 84.9453H165.075V85.9113H166.909V88.5153C166.251 89.1033 165.509 89.6913 164.893 90.1113L165.439 91.1333C166.153 90.5313 166.839 89.9433 167.469 89.3413C168.351 90.4193 169.625 90.9233 171.459 91.0073C173.013 91.0493 175.939 91.0213 177.479 90.9653C177.535 90.6433 177.689 90.1673 177.829 89.9293C176.163 90.0413 172.985 90.0693 171.445 90.0273C169.821 89.9573 168.589 89.4813 167.917 88.4453V84.9453ZM188.933 88.2493V89.9013H181.527V88.2493H188.933ZM180.533 91.3153H181.527V90.7833H188.933V91.2873H189.955V87.3393H180.533V91.3153ZM187.883 85.7013H182.493V84.4693H187.883V85.7013ZM181.513 83.7133V86.4573H188.905V83.7133H181.513ZM179.427 84.6793H180.393V82.8033H189.927V84.6793H190.935V81.9633H179.427V84.6793ZM188.079 79.6393V78.4913H187.057V79.6393H183.123V78.4913H182.101V79.6393H179.021V80.5913H182.101V81.5853H183.123V80.5913H187.057V81.5853H188.079V80.5913H191.243V79.6393H188.079ZM199.533 80.0873H203.397V86.5413H204.419V79.1633H198.539V86.5413H199.533V80.0873ZM197.965 88.4313C197.629 88.0113 196.215 86.3453 195.669 85.7713C195.697 85.5053 195.725 85.2533 195.753 85.0013H197.867V84.0213H195.795C195.809 83.7273 195.809 83.4193 195.809 83.1393V81.7673H197.713V80.8013H195.809V78.6313H194.829V80.8013H192.827V81.7673H194.829V83.1533C194.829 83.4193 194.829 83.7273 194.815 84.0213H192.519V85.0013H194.773C194.633 86.8773 194.143 89.0193 192.435 90.4053C192.687 90.5593 193.037 90.9093 193.163 91.1193C194.493 89.9433 195.165 88.3893 195.487 86.8353C196.103 87.6053 196.915 88.6693 197.237 89.2153L197.965 88.4313ZM202.865 90.1393C202.501 90.1393 202.389 90.0553 202.389 89.6773V86.1353H201.745C201.913 85.3793 201.969 84.6373 201.969 83.9513V81.2773H200.989V83.9373C200.989 86.0933 200.555 88.7113 197.055 90.5033C197.237 90.6433 197.573 91.0493 197.699 91.2593C199.813 90.1533 200.905 88.6693 201.451 87.1573V89.7753C201.451 90.7133 201.815 90.9653 202.725 90.9653H203.831C204.979 90.9653 205.147 90.4193 205.259 88.2493C205.007 88.1933 204.657 88.0393 204.405 87.8433C204.349 89.7753 204.279 90.1393 203.845 90.1393H202.865ZM207.837 81.0673H217.371V83.1113H218.435V80.0873H213.143V78.4913H212.065V80.0873H206.815V83.1113H207.837V81.0673ZM213.143 87.0173H217.287V86.0513H213.143V83.7273H216.713V82.7473H208.607V83.7273H212.079V89.5933C210.931 89.1593 210.035 88.3613 209.503 86.8913C209.643 86.3033 209.755 85.6873 209.839 85.0293L208.775 84.9313C208.467 87.4373 207.711 89.4253 206.157 90.6293C206.409 90.7833 206.843 91.1473 207.011 91.3293C207.921 90.5313 208.607 89.4953 209.097 88.2073C210.371 90.5733 212.457 91.0773 215.355 91.0773H218.603C218.645 90.7693 218.827 90.2793 218.995 90.0273C218.323 90.0413 215.915 90.0413 215.411 90.0413C214.599 90.0413 213.829 89.9993 213.143 89.8733V87.0173Z" fill="#666666"/>
<rect x="24.5" y="121.695" width="279" height="45" rx="6.5" fill="#F5F5F5" stroke="#EEEEEE"/>
<path d="M64.9691 140.017H71.4791V141.599H64.9691V140.017ZM63.9051 139.107V142.523H72.5851V139.107H63.9051ZM67.5871 145.603V146.877C67.5871 147.997 67.1951 149.481 62.1831 150.461C62.4211 150.671 62.7431 151.091 62.8691 151.315C68.0491 150.153 68.6791 148.361 68.6791 146.905V145.603H67.5871ZM68.5951 149.243C70.3031 149.831 72.5711 150.727 73.7191 151.315L74.2651 150.447C73.0471 149.859 70.7651 149.033 69.1131 148.487L68.5951 149.243ZM63.4151 143.741V148.865H64.4651V144.721H72.0391V148.767H73.1451V143.741H63.4151ZM82.4851 149.159V141.123H87.5111V140.059H76.4511V141.123H81.3511V149.159H75.7231V150.195H88.2111V149.159H82.4851ZM101.625 139.331H94.7931V140.311H101.625V139.331ZM92.4551 138.477C91.7551 139.471 90.4111 140.731 89.2491 141.515C89.4311 141.711 89.7111 142.117 89.8651 142.341C91.1111 141.459 92.5391 140.101 93.4491 138.869L92.4551 138.477ZM93.0291 141.459C92.0631 143.041 90.5511 144.651 89.1091 145.673C89.3191 145.883 89.6831 146.331 89.8371 146.541C90.3551 146.135 90.8871 145.631 91.4191 145.085V151.301H92.4551V143.937C93.0291 143.251 93.5611 142.537 93.9951 141.823L93.0291 141.459ZM102.031 143.153H94.1911V144.147H98.8671V149.915C98.8671 150.153 98.7831 150.209 98.5171 150.223C98.2511 150.237 97.3271 150.237 96.3331 150.209C96.4871 150.503 96.6271 150.937 96.6691 151.217C98.0411 151.217 98.8251 151.217 99.3011 151.063C99.7631 150.895 99.9171 150.573 99.9171 149.929V144.147H102.031V143.153ZM107.171 140.927C106.863 140.367 106.219 139.499 105.659 138.883L104.763 139.275C105.323 139.919 105.953 140.815 106.219 141.389L107.171 140.927ZM109.215 141.837C109.243 141.249 109.257 140.703 109.257 140.171V138.519H108.221V140.157C108.221 140.689 108.207 141.249 108.165 141.837H103.657V142.873H108.053C107.717 145.337 106.611 148.137 103.265 150.321C103.531 150.489 103.909 150.825 104.077 151.077C107.661 148.697 108.781 145.589 109.117 142.873H113.919C113.723 147.605 113.513 149.467 113.093 149.887C112.939 150.055 112.771 150.097 112.491 150.097C112.141 150.097 111.245 150.097 110.321 149.999C110.517 150.321 110.657 150.769 110.685 151.077C111.525 151.133 112.421 151.147 112.897 151.105C113.415 151.063 113.737 150.937 114.059 150.559C114.605 149.901 114.787 147.941 115.011 142.383C115.011 142.229 115.025 141.837 115.025 141.837H109.215ZM112.239 147.241C111.875 146.513 111.035 145.393 110.293 144.581L109.439 145.001C110.153 145.841 110.979 147.017 111.329 147.745L112.239 147.241ZM123.861 140.087H127.725V146.541H128.747V139.163H122.867V146.541H123.861V140.087ZM122.293 148.431C121.957 148.011 120.543 146.345 119.997 145.771C120.025 145.505 120.053 145.253 120.081 145.001H122.195V144.021H120.123C120.137 143.727 120.137 143.419 120.137 143.139V141.767H122.041V140.801H120.137V138.631H119.157V140.801H117.155V141.767H119.157V143.153C119.157 143.419 119.157 143.727 119.143 144.021H116.847V145.001H119.101C118.961 146.877 118.471 149.019 116.763 150.405C117.015 150.559 117.365 150.909 117.491 151.119C118.821 149.943 119.493 148.389 119.815 146.835C120.431 147.605 121.243 148.669 121.565 149.215L122.293 148.431ZM127.193 150.139C126.829 150.139 126.717 150.055 126.717 149.677V146.135H126.073C126.241 145.379 126.297 144.637 126.297 143.951V141.277H125.317V143.937C125.317 146.093 124.883 148.711 121.383 150.503C121.565 150.643 121.901 151.049 122.027 151.259C124.141 150.153 125.233 148.669 125.779 147.157V149.775C125.779 150.713 126.143 150.965 127.053 150.965H128.159C129.307 150.965 129.475 150.419 129.587 148.249C129.335 148.193 128.985 148.039 128.733 147.843C128.677 149.775 128.607 150.139 128.173 150.139H127.193ZM130.807 145.463C131.661 145.869 132.823 146.457 133.411 146.835L133.985 146.037C133.383 145.687 132.207 145.127 131.367 144.763L130.807 145.463ZM134.769 143.615C134.181 143.209 133.019 142.565 132.221 142.145L131.619 142.817C132.459 143.279 133.593 143.979 134.167 144.385L134.769 143.615ZM131.773 151.231C132.809 150.167 134.027 148.823 134.979 147.647L134.405 146.877C133.341 148.137 131.969 149.551 131.045 150.377L131.773 151.231ZM138.871 140.661V142.005H139.921V140.661H143.127V139.695H139.921V138.491H138.871V139.695H134.993V138.491H133.943V139.695H130.821V140.661H133.943V142.005H134.993V140.661H138.871ZM137.891 150.041C136.953 150.041 136.771 149.901 136.771 149.257V143.629H141.069V146.163C141.069 146.345 141.013 146.401 140.747 146.415C140.495 146.429 139.655 146.429 138.661 146.401C138.815 146.681 138.997 147.087 139.067 147.395C140.243 147.395 141.013 147.381 141.503 147.213C141.965 147.045 142.091 146.751 142.091 146.163V142.635H135.707V149.257C135.707 150.671 136.211 151.021 137.835 151.021H141.321C142.833 151.021 143.183 150.475 143.337 148.571C143.029 148.501 142.609 148.319 142.343 148.151C142.245 149.719 142.105 150.041 141.293 150.041H137.891ZM146.783 152.911H147.735C146.629 150.993 146.139 148.851 146.139 146.359C146.139 143.867 146.629 141.725 147.735 139.807H146.783C145.747 141.473 145.159 143.783 145.159 146.359C145.159 148.935 145.747 151.217 146.783 152.911ZM153.913 150.279C155.355 150.279 156.643 149.789 157.511 148.837L156.853 148.179C156.055 149.005 155.075 149.355 153.955 149.355C151.589 149.355 149.811 147.619 149.811 145.295C149.811 142.971 151.589 141.235 153.955 141.235C155.075 141.235 156.055 141.585 156.853 142.397L157.511 141.739C156.643 140.787 155.355 140.311 153.927 140.311C150.973 140.311 148.789 142.425 148.789 145.295C148.789 148.165 150.973 150.279 153.913 150.279ZM161.941 150.265C164.097 150.265 165.679 148.697 165.679 146.513C165.679 144.329 164.097 142.775 161.941 142.775C159.785 142.775 158.189 144.329 158.189 146.513C158.189 148.697 159.785 150.265 161.941 150.265ZM161.941 149.383C160.373 149.383 159.197 148.235 159.197 146.513C159.197 144.791 160.373 143.643 161.941 143.643C163.509 143.643 164.671 144.791 164.671 146.513C164.671 148.235 163.509 149.383 161.941 149.383ZM173.184 139.807V144.231C172.568 143.279 171.56 142.775 170.384 142.775C168.284 142.775 166.716 144.287 166.716 146.513C166.716 148.739 168.284 150.265 170.384 150.265C171.602 150.265 172.624 149.733 173.226 148.739V150.195H174.178V139.807H173.184ZM170.468 149.383C168.9 149.383 167.724 148.235 167.724 146.513C167.724 144.791 168.9 143.643 170.468 143.643C172.022 143.643 173.198 144.791 173.198 146.513C173.198 148.235 172.022 149.383 170.468 149.383ZM183.123 146.513C183.123 144.301 181.625 142.775 179.553 142.775C177.481 142.775 175.955 144.329 175.955 146.513C175.955 148.697 177.523 150.265 179.819 150.265C180.981 150.265 182.003 149.845 182.661 149.061L182.101 148.417C181.541 149.061 180.743 149.383 179.847 149.383C178.237 149.383 177.061 148.361 176.949 146.821H183.109C183.109 146.709 183.123 146.597 183.123 146.513ZM179.553 143.629C180.995 143.629 182.045 144.637 182.171 146.079H176.949C177.075 144.637 178.125 143.629 179.553 143.629ZM191.32 150.265C193.476 150.265 195.058 148.697 195.058 146.513C195.058 144.329 193.476 142.775 191.32 142.775C189.164 142.775 187.568 144.329 187.568 146.513C187.568 148.697 189.164 150.265 191.32 150.265ZM191.32 149.383C189.752 149.383 188.576 148.235 188.576 146.513C188.576 144.791 189.752 143.643 191.32 143.643C192.888 143.643 194.05 144.791 194.05 146.513C194.05 148.235 192.888 149.383 191.32 149.383ZM199.273 140.577C199.693 140.577 200.085 140.703 200.365 140.941L200.701 140.199C200.337 139.891 199.777 139.737 199.231 139.737C197.789 139.737 197.005 140.605 197.005 141.921V142.831H195.689V143.671H197.005V150.195H197.999V143.671H200.239V142.831H197.971V141.963C197.971 141.053 198.419 140.577 199.273 140.577ZM209.211 150.279C210.653 150.279 211.941 149.789 212.809 148.837L212.151 148.179C211.353 149.005 210.373 149.355 209.253 149.355C206.887 149.355 205.109 147.619 205.109 145.295C205.109 142.971 206.887 141.235 209.253 141.235C210.373 141.235 211.353 141.585 212.151 142.397L212.809 141.739C211.941 140.787 210.653 140.311 209.225 140.311C206.271 140.311 204.087 142.425 204.087 145.295C204.087 148.165 206.271 150.279 209.211 150.279ZM217.24 150.265C219.396 150.265 220.978 148.697 220.978 146.513C220.978 144.329 219.396 142.775 217.24 142.775C215.084 142.775 213.488 144.329 213.488 146.513C213.488 148.697 215.084 150.265 217.24 150.265ZM217.24 149.383C215.672 149.383 214.496 148.235 214.496 146.513C214.496 144.791 215.672 143.643 217.24 143.643C218.808 143.643 219.97 144.791 219.97 146.513C219.97 148.235 218.808 149.383 217.24 149.383ZM226.509 142.775C225.235 142.775 224.241 143.293 223.709 144.189V142.831H222.757V150.195H223.751V146.331C223.751 144.651 224.745 143.671 226.327 143.671C227.727 143.671 228.539 144.469 228.539 146.023V150.195H229.533V145.925C229.533 143.811 228.301 142.775 226.509 142.775ZM237.735 139.807V144.231C237.119 143.279 236.111 142.775 234.935 142.775C232.835 142.775 231.267 144.287 231.267 146.513C231.267 148.739 232.835 150.265 234.935 150.265C236.153 150.265 237.175 149.733 237.777 148.739V150.195H238.729V139.807H237.735ZM235.019 149.383C233.451 149.383 232.275 148.235 232.275 146.513C232.275 144.791 233.451 143.643 235.019 143.643C236.573 143.643 237.749 144.791 237.749 146.513C237.749 148.235 236.573 149.383 235.019 149.383ZM246.889 142.831V146.695C246.889 148.375 245.923 149.369 244.383 149.369C242.983 149.369 242.171 148.571 242.171 147.003V142.831H241.177V147.101C241.177 149.215 242.409 150.265 244.285 150.265C245.461 150.265 246.413 149.747 246.931 148.851V150.195H247.883V142.831H246.889ZM253.469 150.265C254.715 150.265 255.765 149.761 256.353 148.809L255.611 148.305C255.107 149.047 254.323 149.383 253.469 149.383C251.859 149.383 250.683 148.249 250.683 146.513C250.683 144.791 251.859 143.643 253.469 143.643C254.323 143.643 255.107 143.993 255.611 144.735L256.353 144.231C255.765 143.265 254.715 142.775 253.469 142.775C251.271 142.775 249.675 144.315 249.675 146.513C249.675 148.711 251.271 150.265 253.469 150.265ZM261.666 149.033C261.386 149.285 260.98 149.411 260.574 149.411C259.748 149.411 259.3 148.935 259.3 148.067V143.671H261.54V142.831H259.3V141.221H258.306V142.831H256.99V143.671H258.306V148.123C258.306 149.481 259.076 150.265 260.462 150.265C261.036 150.265 261.624 150.097 262.016 149.747L261.666 149.033ZM263.701 152.911C264.751 151.217 265.339 148.935 265.339 146.359C265.339 143.783 264.751 141.473 263.701 139.807H262.749C263.869 141.725 264.359 143.867 264.359 146.359C264.359 148.851 263.869 150.993 262.749 152.911H263.701Z" fill="#666666"/>
<rect x="24.5" y="181.695" width="279" height="45" rx="6.5" fill="white" stroke="#EEEEEE"/>
<path d="M145.325 200.731C145.129 200.129 144.583 199.233 144.107 198.547L143.197 198.883C143.673 199.583 144.177 200.535 144.373 201.137L145.325 200.731ZM141.223 200.843C140.775 200.283 139.795 199.429 139.039 198.799L138.381 199.471C139.137 200.115 140.075 201.025 140.523 201.613L141.223 200.843ZM140.579 208.809V202.859H137.443V203.867H139.585V208.907C139.585 209.593 139.165 210.041 138.913 210.251C139.095 210.405 139.375 210.783 139.487 211.007V210.993C139.683 210.699 140.047 210.405 142.329 208.627C142.217 208.431 142.049 208.039 141.951 207.759L140.579 208.809ZM150.113 206.961H146.669V204.987H149.371V204.021H146.669V202.117H149.791V201.151H148.153C148.573 200.451 149.035 199.583 149.413 198.799L148.363 198.449C148.055 199.275 147.523 200.381 147.047 201.151H142.427V202.117H145.647V204.021H142.875V204.987H145.647V206.961H142.105V207.927H145.647V211.259H146.669V207.927H150.113V206.961ZM151.319 210.461C152.691 210.181 154.539 209.817 156.317 209.467L156.261 208.529C154.371 208.865 152.425 209.243 151.151 209.439L151.319 210.461ZM152.579 203.111C153.489 201.921 154.399 200.381 155.127 198.869L154.119 198.435C153.433 200.129 152.299 201.921 151.949 202.383C151.613 202.859 151.347 203.195 151.081 203.265C151.207 203.531 151.375 204.035 151.431 204.259C151.655 204.147 152.005 204.077 154.007 203.867C153.279 204.763 152.621 205.491 152.327 205.757C151.851 206.233 151.501 206.569 151.179 206.625C151.305 206.891 151.473 207.395 151.501 207.591C151.823 207.451 152.313 207.325 156.289 206.695C156.261 206.485 156.233 206.079 156.247 205.799L153.083 206.247C154.259 205.071 155.463 203.643 156.485 202.159L155.603 201.599C155.323 202.033 155.015 202.495 154.721 202.915L152.579 203.111ZM160.587 209.187V205.253H162.561V209.187H160.587ZM157.605 205.253H159.621V209.187H157.605V205.253ZM159.621 200.255V204.273H157.605V200.255H159.621ZM162.561 204.273H160.587V200.255H162.561V204.273ZM156.639 199.219V211.077H157.605V210.167H162.561V210.951H163.555V199.219H156.639ZM169.675 204.469C169.101 204.651 168.513 204.819 167.953 204.973V202.271H169.591V201.305H167.953V198.491H166.931V201.305H164.985V202.271H166.931V205.281C166.133 205.505 165.405 205.701 164.817 205.855L165.111 206.863C165.657 206.695 166.273 206.513 166.931 206.317V210.041C166.931 210.251 166.861 210.307 166.665 210.307C166.497 210.321 165.909 210.321 165.279 210.307C165.419 210.573 165.559 210.993 165.601 211.259C166.539 211.273 167.099 211.245 167.449 211.077C167.813 210.909 167.953 210.629 167.953 210.041V206.009L169.801 205.435L169.675 204.469ZM176.031 206.051V207.437H171.495V206.051H176.031ZM171.495 209.761V208.291H176.031V209.761H171.495ZM170.501 211.259H171.495V210.615H176.031V211.203H177.053V205.155H170.501V211.259ZM172.587 203.041C171.691 203.041 171.523 202.957 171.523 202.481V201.473C173.343 201.123 175.387 200.647 176.801 200.087L176.003 199.317C174.953 199.779 173.175 200.269 171.523 200.619V198.533H170.501V202.481C170.501 203.685 170.935 203.993 172.531 203.993H175.793C177.179 203.993 177.501 203.517 177.655 201.697C177.375 201.627 176.941 201.473 176.703 201.291C176.619 202.803 176.493 203.041 175.723 203.041H172.587ZM188.661 208.529V207.661H185.539V206.247H188.423V205.393H186.841C187.107 204.875 187.387 204.273 187.653 203.685L186.715 203.475C186.533 204.021 186.211 204.805 185.917 205.393H183.411L184.167 205.155C184.041 204.707 183.691 204.021 183.355 203.531L182.529 203.741C182.851 204.231 183.173 204.931 183.299 205.393H181.829V206.247H184.545V207.661H181.535V208.529H184.545V210.993H185.539V208.529H188.661ZM191.209 200.857V199.877H185.623C185.679 199.443 185.735 198.995 185.777 198.589L184.657 198.463C184.643 198.883 184.601 199.373 184.559 199.877H178.973V200.857H184.461C184.405 201.389 184.349 201.907 184.279 202.341H179.729V211.259H180.751V203.307H189.417V210.055C189.417 210.279 189.347 210.349 189.095 210.363C188.857 210.377 188.003 210.377 187.121 210.335C187.261 210.601 187.429 210.993 187.499 211.273C188.619 211.273 189.417 211.273 189.865 211.105C190.313 210.951 190.467 210.671 190.467 210.055V202.341H185.273C185.343 201.893 185.427 201.375 185.497 200.857H191.209Z" fill="#666666"/>
</svg>
