<svg width="1200" height="100" viewBox="0 0 1200 100" fill="none" xmlns="http://www.w3.org/2000/svg">
<path d="M1064 50.0001L133 50" stroke="#EEEEEE" stroke-linecap="round" stroke-linejoin="round"/>
<rect width="277" height="100" rx="10" fill="#435CE7"/>
<path d="M94.685 45.52H105.485V47.76H106.733V44.416H100.701V42.608H99.469V44.416H93.485V47.76H94.685V45.52ZM95.053 51.28C96.077 52.304 97.181 53.728 97.645 54.672L98.637 53.984C98.157 53.04 97.021 51.648 95.981 50.688L95.053 51.28ZM107.149 48.704H103.053V46.416H101.853V48.704H93.117V49.872H101.853V55.696C101.853 55.968 101.741 56.064 101.421 56.08C101.117 56.08 99.997 56.096 98.845 56.048C99.005 56.384 99.213 56.896 99.261 57.232C100.781 57.232 101.741 57.216 102.301 57.04C102.861 56.848 103.053 56.48 103.053 55.696V49.872H107.149V48.704ZM113.171 44.368C112.499 43.792 111.139 43.12 110.035 42.72L109.395 43.6C110.499 44.032 111.843 44.784 112.499 45.344L113.171 44.368ZM112.339 48.544C111.635 48.032 110.243 47.424 109.171 47.072L108.547 47.984C109.651 48.368 111.027 49.04 111.699 49.552L112.339 48.544ZM111.971 51.12C111.107 52.944 109.923 55.008 109.107 56.256L110.115 57.024C111.011 55.536 112.067 53.568 112.867 51.888L111.971 51.12ZM123.299 56.624C122.755 55.36 121.443 53.44 120.243 52.032L119.235 52.56C119.795 53.248 120.371 54.048 120.883 54.832C118.995 54.96 117.091 55.072 115.443 55.152C116.147 53.76 116.899 51.936 117.491 50.416H123.027V49.28H118.483V46.352L122.275 46.352V45.232L118.483 45.232V42.624L117.267 42.624V45.232H113.619V46.352H117.267V49.28H112.819V50.416H116.083C115.603 51.936 114.835 53.872 114.163 55.232L112.835 55.296L113.011 56.48C115.219 56.336 118.435 56.128 121.523 55.888C121.811 56.384 122.035 56.848 122.195 57.248L123.299 56.624ZM134.713 45.296V48.432C134.713 49.504 134.969 49.824 136.089 49.824H137.545C138.409 49.824 138.697 49.408 138.809 47.84C138.505 47.776 138.073 47.616 137.849 47.44C137.801 48.656 137.737 48.816 137.417 48.816H136.233C135.881 48.816 135.817 48.768 135.817 48.432V45.296H137.705V46.864H138.793V44.288H134.505V42.608H133.369V44.288H129.385V47.008H130.441V45.296H132.121C132.009 47.616 131.609 48.816 129.305 49.472C129.529 49.68 129.801 50.064 129.897 50.304C132.537 49.504 133.049 48.016 133.209 45.296H134.713ZM129.225 50.272L129.017 49.2C128.489 49.392 127.961 49.568 127.449 49.744V46.912H129.113V45.824H127.449V42.624H126.345V45.824H124.345V46.912H126.345V50.128C125.513 50.4 124.745 50.656 124.137 50.848L124.425 52C125.001 51.792 125.657 51.568 126.345 51.312V55.84C126.345 56.08 126.265 56.128 126.073 56.128C125.881 56.144 125.257 56.144 124.569 56.128C124.729 56.448 124.873 56.944 124.921 57.216C125.913 57.232 126.521 57.184 126.905 57.008C127.305 56.816 127.449 56.496 127.449 55.84V50.912L129.225 50.272ZM134.505 55.68V52.336H138.169V51.248H129.913V52.336H133.353V55.68H128.889V56.768H138.937V55.68H134.505ZM145.167 46H148.399V44.912H145.167V42.672H144.031V44.912H142.335C142.511 44.368 142.671 43.776 142.815 43.216L141.695 42.992C141.375 44.528 140.815 46.128 140.095 47.2C140.383 47.296 140.911 47.504 141.151 47.648C141.423 47.2 141.695 46.624 141.951 46H144.031V47.68H140.143V48.768H144.031V50.368H140.879V55.92H141.967V51.456H144.031V57.2H145.167V51.456H147.375V54.72C147.375 54.88 147.327 54.928 147.151 54.928C146.991 54.944 146.463 54.944 145.775 54.928C145.935 55.232 146.079 55.648 146.127 55.968C147.007 55.968 147.615 55.952 147.983 55.776C148.383 55.584 148.463 55.28 148.463 54.736V50.368H145.167V48.768H149.023V47.68H145.167V46ZM151.295 44.064H150.175V52.864H151.295V44.064ZM153.007 42.784V55.6C153.007 55.872 152.927 55.936 152.671 55.952C152.399 55.952 151.503 55.952 150.559 55.92C150.719 56.288 150.879 56.832 150.943 57.168C152.127 57.168 153.007 57.136 153.503 56.928C153.983 56.72 154.159 56.368 154.159 55.584V42.784H153.007ZM169.493 43.84L162.565 43.84V44.96L169.493 44.96V43.84ZM161.717 50.24C161.413 49.824 160.053 48.096 159.573 47.52V47.104H161.637V45.984H159.573V42.624H158.389V45.984H155.973V47.104H158.133C157.621 49.088 156.581 51.36 155.573 52.56C155.781 52.848 156.101 53.328 156.245 53.664C157.045 52.656 157.813 50.992 158.389 49.28V57.216H159.573V48.896C160.101 49.68 160.757 50.672 161.013 51.184L161.717 50.24ZM162.981 50.528C162.565 52.224 161.845 53.936 160.965 55.056C161.237 55.184 161.701 55.52 161.909 55.68C162.773 54.464 163.573 52.608 164.069 50.768L162.981 50.528ZM170.341 48.752V47.632L161.877 47.632V48.752H165.285V55.696C165.285 55.904 165.221 55.952 164.981 55.968C164.773 55.984 164.037 55.984 163.205 55.952C163.349 56.304 163.525 56.816 163.573 57.168C164.693 57.168 165.429 57.152 165.877 56.928C166.341 56.736 166.469 56.384 166.469 55.712V48.752H170.341ZM167.557 50.8C168.309 52.368 169.045 54.448 169.269 55.696L170.373 55.312C170.101 54.048 169.317 52.032 168.549 50.496L167.557 50.8ZM175.611 45.888C175.019 45.2 173.755 44.24 172.747 43.6L171.979 44.416C173.003 45.104 174.235 46.112 174.811 46.816L175.611 45.888ZM172.507 56C173.435 54.672 174.555 52.896 175.403 51.376L174.555 50.592C173.611 52.24 172.363 54.096 171.515 55.2L172.507 56ZM178.347 53.152H181.147V55.36H178.347V53.152ZM181.147 48.912H178.347V46.832H181.147V48.912ZM181.147 52.112H178.347V49.984H181.147V52.112ZM186.171 55.36H182.299V53.152H185.419V52.112H182.299V49.984H185.419V48.912H182.299V46.832H185.803V45.76H182.491C182.843 44.944 183.227 43.92 183.547 43.024L182.331 42.688C182.123 43.6 181.739 44.848 181.355 45.76H178.459C178.907 44.848 179.307 43.888 179.643 42.928L178.491 42.608C177.707 45.008 176.411 47.344 174.907 48.832C175.179 49.04 175.611 49.52 175.803 49.744C176.283 49.216 176.763 48.608 177.211 47.936V57.216H178.347V56.448H186.171V55.36Z" fill="white"/>
<rect x="307.5" y="0.5" width="276" height="99" rx="9.5" fill="#F5F5F5" stroke="#EEEEEE"/>
<path d="M384.935 45.52H395.735V47.76H396.983V44.416H390.951V42.608H389.719V44.416H383.735V47.76H384.935V45.52ZM385.303 51.28C386.327 52.304 387.431 53.728 387.895 54.672L388.887 53.984C388.407 53.04 387.271 51.648 386.231 50.688L385.303 51.28ZM397.399 48.704H393.303V46.416H392.103V48.704H383.367V49.872H392.103V55.696C392.103 55.968 391.991 56.064 391.671 56.08C391.367 56.08 390.247 56.096 389.095 56.048C389.255 56.384 389.463 56.896 389.511 57.232C391.031 57.232 391.991 57.216 392.551 57.04C393.111 56.848 393.303 56.48 393.303 55.696V49.872H397.399V48.704ZM403.421 44.368C402.749 43.792 401.389 43.12 400.285 42.72L399.645 43.6C400.749 44.032 402.093 44.784 402.749 45.344L403.421 44.368ZM402.589 48.544C401.885 48.032 400.493 47.424 399.421 47.072L398.797 47.984C399.901 48.368 401.277 49.04 401.949 49.552L402.589 48.544ZM402.221 51.12C401.357 52.944 400.173 55.008 399.357 56.256L400.365 57.024C401.261 55.536 402.317 53.568 403.117 51.888L402.221 51.12ZM413.549 56.624C413.005 55.36 411.693 53.44 410.493 52.032L409.485 52.56C410.045 53.248 410.621 54.048 411.133 54.832C409.245 54.96 407.341 55.072 405.693 55.152C406.397 53.76 407.149 51.936 407.741 50.416H413.277V49.28H408.733V46.352L412.525 46.352V45.232L408.733 45.232V42.624L407.517 42.624V45.232H403.869V46.352H407.517V49.28H403.069V50.416H406.333C405.853 51.936 405.085 53.872 404.413 55.232L403.085 55.296L403.261 56.48C405.469 56.336 408.685 56.128 411.773 55.888C412.061 56.384 412.285 56.848 412.445 57.248L413.549 56.624ZM426.339 48.576V50.32H422.467V48.576H426.339ZM422.467 53.152V51.344H426.339V53.152H422.467ZM417.379 53.152V51.344H421.251V53.152H417.379ZM421.251 48.576V50.32H417.379V48.576H421.251ZM422.467 45.984H421.251V47.52H416.243V55.104H417.379V54.208H421.251V57.2H422.467V54.208H426.339V55.04H427.507V47.52H422.467V45.984ZM422.579 44.32L422.835 44.24C422.659 43.792 422.275 43.056 421.955 42.496L420.755 42.848C421.011 43.28 421.283 43.872 421.475 44.32H415.267V46.928H416.435V45.472H427.267V46.928H428.483V44.32H422.579ZM435.177 45.28C434.633 44.624 433.513 43.6 432.633 42.896L431.865 43.664C432.745 44.4 433.849 45.472 434.377 46.16L435.177 45.28ZM434.137 54.4V47.616H430.425V48.784H432.937V54.512C432.937 55.184 432.473 55.632 432.169 55.84C432.377 56.096 432.681 56.608 432.793 56.928C433.049 56.592 433.497 56.24 436.473 54.128C436.377 53.888 436.169 53.392 436.089 53.088L434.137 54.4ZM444.921 47.904H440.873V42.672H439.641V47.904H435.577V49.104H439.641V57.232H440.873V49.104H444.921V47.904ZM459.519 43.536L451.519 43.536V44.64L459.519 44.64V43.536ZM450.623 52.832L450.799 54C452.911 53.824 456.015 53.552 458.975 53.264C459.231 53.728 459.439 54.176 459.583 54.56L460.607 54C460.095 52.688 458.799 50.752 457.567 49.296L456.607 49.776C457.231 50.512 457.855 51.376 458.383 52.224C456.591 52.368 454.799 52.512 453.247 52.64C453.855 51.408 454.527 49.76 455.071 48.368L460.687 48.368V47.248L450.511 47.248V48.368H453.679C453.263 49.776 452.607 51.504 452.031 52.736L450.623 52.832ZM450.287 44.72C449.759 44.096 448.591 43.312 447.647 42.816L446.863 43.552C447.823 44.08 448.943 44.912 449.455 45.536L450.287 44.72ZM449.823 47.84C449.215 47.232 448.015 46.464 447.023 46.016L446.239 46.784C447.247 47.28 448.431 48.08 449.007 48.688L449.823 47.84ZM449.423 50H446.175V51.104H448.271V54.08C447.519 54.752 446.671 55.424 445.967 55.904L446.591 57.072C447.407 56.384 448.191 55.712 448.911 55.024C449.919 56.256 451.375 56.832 453.471 56.928C455.247 56.976 458.591 56.944 460.351 56.88C460.415 56.512 460.591 55.968 460.751 55.696C458.847 55.824 455.215 55.856 453.455 55.808C451.599 55.728 450.191 55.184 449.423 54V50ZM473.477 53.776V55.664H465.013V53.776H473.477ZM463.877 57.28H465.013V56.672H473.477V57.248H474.645V52.736H463.877V57.28ZM472.277 50.864H466.117V49.456H472.277V50.864ZM464.997 48.592V51.728H473.445V48.592H464.997ZM462.613 49.696H463.717V47.552H474.613V49.696H475.765V46.592H462.613V49.696ZM472.501 43.936V42.624H471.333V43.936H466.837V42.624H465.669V43.936H462.149V45.024H465.669V46.16H466.837V45.024H471.333V46.16H472.501V45.024H476.117V43.936H472.501ZM485.627 44.448H490.043V51.824H491.211V43.392H484.491V51.824H485.627V44.448ZM483.835 53.984C483.451 53.504 481.835 51.6 481.211 50.944C481.243 50.64 481.275 50.352 481.307 50.064H483.723V48.944H481.355C481.371 48.608 481.371 48.256 481.371 47.936V46.368H483.547V45.264H481.371V42.784H480.251V45.264H477.963V46.368H480.251V47.952C480.251 48.256 480.251 48.608 480.235 48.944H477.611V50.064H480.187C480.027 52.208 479.467 54.656 477.515 56.24C477.803 56.416 478.203 56.816 478.347 57.056C479.867 55.712 480.635 53.936 481.003 52.16C481.707 53.04 482.635 54.256 483.003 54.88L483.835 53.984ZM489.435 55.936C489.019 55.936 488.891 55.84 488.891 55.408V51.36H488.155C488.347 50.496 488.411 49.648 488.411 48.864V45.808H487.291V48.848C487.291 51.312 486.795 54.304 482.795 56.352C483.003 56.512 483.387 56.976 483.531 57.216C485.947 55.952 487.195 54.256 487.819 52.528V55.52C487.819 56.592 488.235 56.88 489.275 56.88H490.539C491.851 56.88 492.043 56.256 492.171 53.776C491.883 53.712 491.483 53.536 491.195 53.312C491.131 55.52 491.051 55.936 490.555 55.936H489.435ZM495.153 45.568H506.049V47.904H507.265V44.448H501.217V42.624H499.985V44.448H493.985V47.904H495.153V45.568ZM501.217 52.368H505.953V51.264H501.217V48.608H505.297V47.488H496.033V48.608H500.001V55.312C498.689 54.816 497.665 53.904 497.057 52.224C497.217 51.552 497.345 50.848 497.441 50.096L496.225 49.984C495.873 52.848 495.009 55.12 493.233 56.496C493.521 56.672 494.017 57.088 494.209 57.296C495.249 56.384 496.033 55.2 496.593 53.728C498.049 56.432 500.433 57.008 503.745 57.008H507.457C507.505 56.656 507.713 56.096 507.905 55.808C507.137 55.824 504.385 55.824 503.809 55.824C502.881 55.824 502.001 55.776 501.217 55.632V52.368Z" fill="#666666"/>
<rect x="614.5" y="0.5" width="276" height="99" rx="9.5" fill="#F5F5F5" stroke="#EEEEEE"/>
<path d="M708.929 33.368L716.369 33.368V35.176L708.929 35.176V33.368ZM707.713 32.328V36.232L717.633 36.232V32.328L707.713 32.328ZM711.921 39.752V41.208C711.921 42.488 711.473 44.184 705.745 45.304C706.017 45.544 706.385 46.024 706.529 46.28C712.449 44.952 713.169 42.904 713.169 41.24V39.752H711.921ZM713.073 43.912C715.025 44.584 717.617 45.608 718.929 46.28L719.553 45.288C718.161 44.616 715.553 43.672 713.665 43.048L713.073 43.912ZM707.153 37.624V43.48H708.353V38.744H717.009V43.368H718.273V37.624L707.153 37.624ZM728.983 43.816V34.632H734.727V33.416H722.087V34.632H727.687V43.816H721.255V45H735.527V43.816H728.983ZM750.893 32.584H743.085V33.704H750.893V32.584ZM740.413 31.608C739.613 32.744 738.077 34.184 736.749 35.08C736.957 35.304 737.277 35.768 737.453 36.024C738.877 35.016 740.509 33.464 741.549 32.056L740.413 31.608ZM741.069 35.016C739.965 36.824 738.237 38.664 736.589 39.832C736.829 40.072 737.245 40.584 737.421 40.824C738.013 40.36 738.621 39.784 739.229 39.16V46.264H740.413V37.848C741.069 37.064 741.677 36.248 742.173 35.432L741.069 35.016ZM751.357 36.952H742.397V38.088H747.741V44.68C747.741 44.952 747.645 45.016 747.341 45.032C747.037 45.048 745.981 45.048 744.845 45.016C745.021 45.352 745.181 45.848 745.229 46.168C746.797 46.168 747.693 46.168 748.237 45.992C748.765 45.8 748.941 45.432 748.941 44.696V38.088H751.357V36.952ZM757.267 34.408C756.915 33.768 756.179 32.776 755.539 32.072L754.515 32.52C755.155 33.256 755.875 34.28 756.179 34.936L757.267 34.408ZM759.603 35.448C759.635 34.776 759.651 34.152 759.651 33.544V31.656H758.467V33.528C758.467 34.136 758.451 34.776 758.403 35.448H753.251V36.632H758.275C757.891 39.448 756.627 42.648 752.803 45.144C753.107 45.336 753.539 45.72 753.731 46.008C757.827 43.288 759.107 39.736 759.491 36.632H764.979C764.755 42.04 764.515 44.168 764.035 44.648C763.859 44.84 763.667 44.888 763.347 44.888C762.947 44.888 761.923 44.888 760.867 44.776C761.091 45.144 761.251 45.656 761.283 46.008C762.243 46.072 763.267 46.088 763.811 46.04C764.403 45.992 764.771 45.848 765.139 45.416C765.763 44.664 765.971 42.424 766.227 36.072C766.227 35.896 766.243 35.448 766.243 35.448H759.603ZM763.059 41.624C762.643 40.792 761.683 39.512 760.835 38.584L759.859 39.064C760.675 40.024 761.619 41.368 762.019 42.2L763.059 41.624ZM776.377 33.448H780.793V40.824H781.961V32.392H775.241V40.824H776.377V33.448ZM774.585 42.984C774.201 42.504 772.585 40.6 771.961 39.944C771.993 39.64 772.025 39.352 772.057 39.064H774.473V37.944H772.105C772.121 37.608 772.121 37.256 772.121 36.936V35.368H774.297V34.264H772.121V31.784H771.001V34.264H768.713V35.368H771.001V36.952C771.001 37.256 771.001 37.608 770.985 37.944H768.361V39.064H770.937C770.777 41.208 770.217 43.656 768.265 45.24C768.553 45.416 768.953 45.816 769.097 46.056C770.617 44.712 771.385 42.936 771.753 41.16C772.457 42.04 773.385 43.256 773.753 43.88L774.585 42.984ZM780.185 44.936C779.769 44.936 779.641 44.84 779.641 44.408V40.36H778.905C779.097 39.496 779.161 38.648 779.161 37.864V34.808H778.041V37.848C778.041 40.312 777.545 43.304 773.545 45.352C773.753 45.512 774.137 45.976 774.281 46.216C776.697 44.952 777.945 43.256 778.569 41.528V44.52C778.569 45.592 778.985 45.88 780.025 45.88H781.289C782.601 45.88 782.793 45.256 782.921 42.776C782.633 42.712 782.233 42.536 781.945 42.312C781.881 44.52 781.801 44.936 781.305 44.936H780.185ZM784.351 39.592C785.327 40.056 786.655 40.728 787.327 41.16L787.983 40.248C787.295 39.848 785.951 39.208 784.991 38.792L784.351 39.592ZM788.879 37.48C788.207 37.016 786.879 36.28 785.967 35.8L785.279 36.568C786.239 37.096 787.535 37.896 788.191 38.36L788.879 37.48ZM785.455 46.184C786.639 44.968 788.031 43.432 789.119 42.088L788.463 41.208C787.247 42.648 785.679 44.264 784.623 45.208L785.455 46.184ZM793.567 34.104V35.64H794.767V34.104H798.431V33H794.767V31.624H793.567V33H789.135V31.624H787.935V33H784.367V34.104H787.935V35.64H789.135V34.104H793.567ZM792.447 44.824C791.375 44.824 791.167 44.664 791.167 43.928V37.496H796.079V40.392C796.079 40.6 796.015 40.664 795.711 40.68C795.423 40.696 794.463 40.696 793.327 40.664C793.503 40.984 793.711 41.448 793.791 41.8C795.135 41.8 796.015 41.784 796.575 41.592C797.103 41.4 797.247 41.064 797.247 40.392V36.36H789.951V43.928C789.951 45.544 790.527 45.944 792.383 45.944H796.367C798.095 45.944 798.495 45.32 798.671 43.144C798.319 43.064 797.839 42.856 797.535 42.664C797.423 44.456 797.263 44.824 796.335 44.824H792.447ZM684.895 70.104H685.983C684.719 67.912 684.159 65.464 684.159 62.616C684.159 59.768 684.719 57.32 685.983 55.128H684.895C683.711 57.032 683.039 59.672 683.039 62.616C683.039 65.56 683.711 68.168 684.895 70.104ZM693.079 67.096C694.727 67.096 696.199 66.536 697.191 65.448L696.439 64.696C695.527 65.64 694.407 66.04 693.127 66.04C690.423 66.04 688.391 64.056 688.391 61.4C688.391 58.744 690.423 56.76 693.127 56.76C694.407 56.76 695.527 57.16 696.439 58.088L697.191 57.336C696.199 56.248 694.727 55.704 693.095 55.704C689.719 55.704 687.223 58.12 687.223 61.4C687.223 64.68 689.719 67.096 693.079 67.096ZM702.29 67.08C704.754 67.08 706.562 65.288 706.562 62.792C706.562 60.296 704.754 58.52 702.29 58.52C699.826 58.52 698.002 60.296 698.002 62.792C698.002 65.288 699.826 67.08 702.29 67.08ZM702.29 66.072C700.498 66.072 699.154 64.76 699.154 62.792C699.154 60.824 700.498 59.512 702.29 59.512C704.082 59.512 705.41 60.824 705.41 62.792C705.41 64.76 704.082 66.072 702.29 66.072ZM715.175 55.128V60.184C714.471 59.096 713.319 58.52 711.975 58.52C709.575 58.52 707.783 60.248 707.783 62.792C707.783 65.336 709.575 67.08 711.975 67.08C713.367 67.08 714.535 66.472 715.223 65.336V67H716.311V55.128H715.175ZM712.071 66.072C710.279 66.072 708.935 64.76 708.935 62.792C708.935 60.824 710.279 59.512 712.071 59.512C713.847 59.512 715.191 60.824 715.191 62.792C715.191 64.76 713.847 66.072 712.071 66.072ZM726.569 62.792C726.569 60.264 724.857 58.52 722.489 58.52C720.121 58.52 718.377 60.296 718.377 62.792C718.377 65.288 720.169 67.08 722.793 67.08C724.121 67.08 725.289 66.6 726.041 65.704L725.401 64.968C724.761 65.704 723.849 66.072 722.825 66.072C720.985 66.072 719.641 64.904 719.513 63.144H726.553C726.553 63.016 726.569 62.888 726.569 62.792ZM722.489 59.496C724.137 59.496 725.337 60.648 725.481 62.296H719.513C719.657 60.648 720.857 59.496 722.489 59.496ZM736.008 67.08C738.472 67.08 740.28 65.288 740.28 62.792C740.28 60.296 738.472 58.52 736.008 58.52C733.544 58.52 731.72 60.296 731.72 62.792C731.72 65.288 733.544 67.08 736.008 67.08ZM736.008 66.072C734.216 66.072 732.872 64.76 732.872 62.792C732.872 60.824 734.216 59.512 736.008 59.512C737.8 59.512 739.128 60.824 739.128 62.792C739.128 64.76 737.8 66.072 736.008 66.072ZM745.134 56.008C745.614 56.008 746.062 56.152 746.382 56.424L746.766 55.576C746.35 55.224 745.71 55.048 745.086 55.048C743.438 55.048 742.542 56.04 742.542 57.544V58.584H741.038V59.544H742.542V67H743.678V59.544H746.238V58.584H743.646V57.592C743.646 56.552 744.158 56.008 745.134 56.008ZM756.563 67.096C758.211 67.096 759.683 66.536 760.675 65.448L759.923 64.696C759.011 65.64 757.891 66.04 756.611 66.04C753.907 66.04 751.875 64.056 751.875 61.4C751.875 58.744 753.907 56.76 756.611 56.76C757.891 56.76 759.011 57.16 759.923 58.088L760.675 57.336C759.683 56.248 758.211 55.704 756.579 55.704C753.203 55.704 750.707 58.12 750.707 61.4C750.707 64.68 753.203 67.096 756.563 67.096ZM765.774 67.08C768.238 67.08 770.046 65.288 770.046 62.792C770.046 60.296 768.238 58.52 765.774 58.52C763.31 58.52 761.486 60.296 761.486 62.792C761.486 65.288 763.31 67.08 765.774 67.08ZM765.774 66.072C763.982 66.072 762.638 64.76 762.638 62.792C762.638 60.824 763.982 59.512 765.774 59.512C767.566 59.512 768.894 60.824 768.894 62.792C768.894 64.76 767.566 66.072 765.774 66.072ZM776.403 58.52C774.947 58.52 773.811 59.112 773.203 60.136V58.584H772.115V67H773.251V62.584C773.251 60.664 774.387 59.544 776.195 59.544C777.795 59.544 778.723 60.456 778.723 62.232V67H779.859V62.12C779.859 59.704 778.451 58.52 776.403 58.52ZM789.269 55.128V60.184C788.565 59.096 787.413 58.52 786.069 58.52C783.669 58.52 781.877 60.248 781.877 62.792C781.877 65.336 783.669 67.08 786.069 67.08C787.461 67.08 788.629 66.472 789.317 65.336V67H790.405V55.128H789.269ZM786.165 66.072C784.373 66.072 783.029 64.76 783.029 62.792C783.029 60.824 784.373 59.512 786.165 59.512C787.941 59.512 789.285 60.824 789.285 62.792C789.285 64.76 787.941 66.072 786.165 66.072ZM799.766 58.584V63C799.766 64.92 798.662 66.056 796.902 66.056C795.302 66.056 794.374 65.144 794.374 63.352V58.584H793.238V63.464C793.238 65.88 794.646 67.08 796.79 67.08C798.134 67.08 799.222 66.488 799.814 65.464V67H800.902V58.584H799.766ZM807.322 67.08C808.746 67.08 809.946 66.504 810.618 65.416L809.77 64.84C809.194 65.688 808.298 66.072 807.322 66.072C805.482 66.072 804.138 64.776 804.138 62.792C804.138 60.824 805.482 59.512 807.322 59.512C808.298 59.512 809.194 59.912 809.77 60.76L810.618 60.184C809.946 59.08 808.746 58.52 807.322 58.52C804.81 58.52 802.986 60.28 802.986 62.792C802.986 65.304 804.81 67.08 807.322 67.08ZM816.725 65.672C816.405 65.96 815.941 66.104 815.477 66.104C814.533 66.104 814.021 65.56 814.021 64.568V59.544H816.581V58.584H814.021V56.744H812.885V58.584H811.381V59.544H812.885V64.632C812.885 66.184 813.765 67.08 815.349 67.08C816.005 67.08 816.677 66.888 817.125 66.488L816.725 65.672ZM819.087 70.104C820.287 68.168 820.959 65.56 820.959 62.616C820.959 59.672 820.287 57.032 819.087 55.128H817.999C819.279 57.32 819.839 59.768 819.839 62.616C819.839 65.464 819.279 67.912 817.999 70.104H819.087Z" fill="#666666"/>
<rect x="921.5" y="0.5" width="276" height="99" rx="9.5" fill="white" stroke="#EEEEEE"/>
<path d="M1037.09 45.184C1036.86 44.496 1036.24 43.472 1035.7 42.688L1034.66 43.072C1035.2 43.872 1035.78 44.96 1036 45.648L1037.09 45.184ZM1032.4 45.312C1031.89 44.672 1030.77 43.696 1029.9 42.976L1029.15 43.744C1030.02 44.48 1031.09 45.52 1031.6 46.192L1032.4 45.312ZM1031.66 54.416V47.616H1028.08V48.768H1030.53V54.528C1030.53 55.312 1030.05 55.824 1029.76 56.064C1029.97 56.24 1030.29 56.672 1030.42 56.928V56.912C1030.64 56.576 1031.06 56.24 1033.66 54.208C1033.54 53.984 1033.34 53.536 1033.23 53.216L1031.66 54.416ZM1042.56 52.304H1038.62V50.048H1041.71V48.944H1038.62V46.768H1042.19V45.664H1040.32C1040.8 44.864 1041.33 43.872 1041.76 42.976L1040.56 42.576C1040.21 43.52 1039.6 44.784 1039.06 45.664H1033.78V46.768H1037.46V48.944H1034.29V50.048H1037.46V52.304H1033.41V53.408H1037.46V57.216H1038.62V53.408H1042.56V52.304ZM1043.97 56.304C1045.54 55.984 1047.65 55.568 1049.69 55.168L1049.62 54.096C1047.46 54.48 1045.24 54.912 1043.78 55.136L1043.97 56.304ZM1045.41 47.904C1046.45 46.544 1047.49 44.784 1048.33 43.056L1047.17 42.56C1046.39 44.496 1045.09 46.544 1044.69 47.072C1044.31 47.616 1044.01 48 1043.7 48.08C1043.85 48.384 1044.04 48.96 1044.1 49.216C1044.36 49.088 1044.76 49.008 1047.05 48.768C1046.21 49.792 1045.46 50.624 1045.12 50.928C1044.58 51.472 1044.18 51.856 1043.81 51.92C1043.96 52.224 1044.15 52.8 1044.18 53.024C1044.55 52.864 1045.11 52.72 1049.65 52C1049.62 51.76 1049.59 51.296 1049.61 50.976L1045.99 51.488C1047.33 50.144 1048.71 48.512 1049.88 46.816L1048.87 46.176C1048.55 46.672 1048.2 47.2 1047.86 47.68L1045.41 47.904ZM1054.57 54.848V50.352H1056.82V54.848H1054.57ZM1051.16 50.352H1053.46V54.848H1051.16V50.352ZM1053.46 44.64V49.232H1051.16V44.64H1053.46ZM1056.82 49.232H1054.57V44.64H1056.82V49.232ZM1050.05 43.456V57.008H1051.16V55.968H1056.82V56.864H1057.96V43.456L1050.05 43.456ZM1064.99 49.456C1064.33 49.664 1063.66 49.856 1063.02 50.032V46.944H1064.89V45.84H1063.02V42.624H1061.85V45.84H1059.63V46.944H1061.85V50.384C1060.94 50.64 1060.11 50.864 1059.44 51.04L1059.77 52.192C1060.4 52 1061.1 51.792 1061.85 51.568V55.824C1061.85 56.064 1061.77 56.128 1061.55 56.128C1061.36 56.144 1060.68 56.144 1059.96 56.128C1060.12 56.432 1060.28 56.912 1060.33 57.216C1061.4 57.232 1062.04 57.2 1062.44 57.008C1062.86 56.816 1063.02 56.496 1063.02 55.824V51.216L1065.13 50.56L1064.99 49.456ZM1072.25 51.264V52.848H1067.07V51.264H1072.25ZM1067.07 55.504V53.824H1072.25V55.504H1067.07ZM1065.93 57.216H1067.07V56.48H1072.25V57.152H1073.42V50.24H1065.93V57.216ZM1068.32 47.824C1067.29 47.824 1067.1 47.728 1067.1 47.184V46.032C1069.18 45.632 1071.52 45.088 1073.13 44.448L1072.22 43.568C1071.02 44.096 1068.99 44.656 1067.1 45.056V42.672H1065.93V47.184C1065.93 48.56 1066.43 48.912 1068.25 48.912H1071.98C1073.56 48.912 1073.93 48.368 1074.11 46.288C1073.79 46.208 1073.29 46.032 1073.02 45.824C1072.92 47.552 1072.78 47.824 1071.9 47.824H1068.32ZM1086.72 54.096V53.104H1083.15V51.488H1086.45V50.512H1084.64C1084.95 49.92 1085.27 49.232 1085.57 48.56L1084.5 48.32C1084.29 48.944 1083.92 49.84 1083.59 50.512H1080.72L1081.59 50.24C1081.44 49.728 1081.04 48.944 1080.66 48.384L1079.71 48.624C1080.08 49.184 1080.45 49.984 1080.59 50.512H1078.91V51.488H1082.02V53.104H1078.58V54.096H1082.02V56.912H1083.15V54.096H1086.72ZM1089.63 45.328V44.208H1083.25C1083.31 43.712 1083.38 43.2 1083.43 42.736L1082.15 42.592C1082.13 43.072 1082.08 43.632 1082.03 44.208H1075.65V45.328H1081.92C1081.86 45.936 1081.79 46.528 1081.71 47.024H1076.51V57.216H1077.68V48.128H1087.59V55.84C1087.59 56.096 1087.51 56.176 1087.22 56.192C1086.95 56.208 1085.97 56.208 1084.96 56.16C1085.12 56.464 1085.31 56.912 1085.39 57.232C1086.67 57.232 1087.59 57.232 1088.1 57.04C1088.61 56.864 1088.79 56.544 1088.79 55.84V47.024H1082.85C1082.93 46.512 1083.03 45.92 1083.11 45.328H1089.63Z" fill="#666666"/>
</svg>
