<svg width="327" height="488" viewBox="0 0 327 488" fill="none" xmlns="http://www.w3.org/2000/svg">
<rect width="327" height="40" rx="7" fill="#435CE7"/>
<path d="M131.103 24V15.6H134.739C135.491 15.6 136.139 15.724 136.683 15.972C137.227 16.212 137.647 16.56 137.943 17.016C138.239 17.472 138.387 18.016 138.387 18.648C138.387 19.272 138.239 19.812 137.943 20.268C137.647 20.724 137.227 21.076 136.683 21.324C136.139 21.564 135.491 21.684 134.739 21.684H132.183L133.047 20.808V24H131.103ZM133.047 21.024L132.183 20.1H134.631C135.231 20.1 135.679 19.972 135.975 19.716C136.271 19.46 136.419 19.104 136.419 18.648C136.419 18.184 136.271 17.824 135.975 17.568C135.679 17.312 135.231 17.184 134.631 17.184H132.183L133.047 16.26V21.024ZM139.382 24V17.544H141.17V19.368L140.918 18.84C141.11 18.384 141.418 18.04 141.842 17.808C142.266 17.568 142.782 17.448 143.39 17.448V19.176C143.31 19.168 143.238 19.164 143.174 19.164C143.11 19.156 143.042 19.152 142.97 19.152C142.458 19.152 142.042 19.3 141.722 19.596C141.41 19.884 141.254 20.336 141.254 20.952V24H139.382ZM147.41 24.096C146.674 24.096 146.026 23.952 145.466 23.664C144.914 23.376 144.486 22.984 144.182 22.488C143.878 21.984 143.726 21.412 143.726 20.772C143.726 20.124 143.874 19.552 144.17 19.056C144.474 18.552 144.886 18.16 145.406 17.88C145.926 17.592 146.514 17.448 147.17 17.448C147.802 17.448 148.37 17.584 148.874 17.856C149.386 18.12 149.79 18.504 150.086 19.008C150.382 19.504 150.53 20.1 150.53 20.796C150.53 20.868 150.526 20.952 150.518 21.048C150.51 21.136 150.502 21.22 150.494 21.3H145.25V20.208H149.51L148.79 20.532C148.79 20.196 148.722 19.904 148.586 19.656C148.45 19.408 148.262 19.216 148.022 19.08C147.782 18.936 147.502 18.864 147.182 18.864C146.862 18.864 146.578 18.936 146.33 19.08C146.09 19.216 145.902 19.412 145.766 19.668C145.63 19.916 145.562 20.212 145.562 20.556V20.844C145.562 21.196 145.638 21.508 145.79 21.78C145.95 22.044 146.17 22.248 146.45 22.392C146.738 22.528 147.074 22.596 147.458 22.596C147.802 22.596 148.102 22.544 148.358 22.44C148.622 22.336 148.862 22.18 149.078 21.972L150.074 23.052C149.778 23.388 149.406 23.648 148.958 23.832C148.51 24.008 147.994 24.096 147.41 24.096ZM153.161 24L150.449 17.544H152.381L154.637 23.1H153.677L156.017 17.544H157.817L155.093 24H153.161ZM161.359 24.096C160.623 24.096 159.975 23.952 159.415 23.664C158.863 23.376 158.435 22.984 158.131 22.488C157.827 21.984 157.675 21.412 157.675 20.772C157.675 20.124 157.823 19.552 158.119 19.056C158.423 18.552 158.835 18.16 159.355 17.88C159.875 17.592 160.463 17.448 161.119 17.448C161.751 17.448 162.319 17.584 162.823 17.856C163.335 18.12 163.739 18.504 164.035 19.008C164.331 19.504 164.479 20.1 164.479 20.796C164.479 20.868 164.475 20.952 164.467 21.048C164.459 21.136 164.451 21.22 164.443 21.3H159.199V20.208H163.459L162.739 20.532C162.739 20.196 162.671 19.904 162.535 19.656C162.399 19.408 162.211 19.216 161.971 19.08C161.731 18.936 161.451 18.864 161.131 18.864C160.811 18.864 160.527 18.936 160.279 19.08C160.039 19.216 159.851 19.412 159.715 19.668C159.579 19.916 159.511 20.212 159.511 20.556V20.844C159.511 21.196 159.587 21.508 159.739 21.78C159.899 22.044 160.119 22.248 160.399 22.392C160.687 22.528 161.023 22.596 161.407 22.596C161.751 22.596 162.051 22.544 162.307 22.44C162.571 22.336 162.811 22.18 163.027 21.972L164.023 23.052C163.727 23.388 163.355 23.648 162.907 23.832C162.459 24.008 161.943 24.096 161.359 24.096ZM169.399 17.448C169.911 17.448 170.367 17.552 170.767 17.76C171.175 17.96 171.495 18.272 171.727 18.696C171.959 19.112 172.075 19.648 172.075 20.304V24H170.203V20.592C170.203 20.072 170.087 19.688 169.855 19.44C169.631 19.192 169.311 19.068 168.895 19.068C168.599 19.068 168.331 19.132 168.091 19.26C167.859 19.38 167.675 19.568 167.539 19.824C167.411 20.08 167.347 20.408 167.347 20.808V24H165.475V17.544H167.263V19.332L166.927 18.792C167.159 18.36 167.491 18.028 167.923 17.796C168.355 17.564 168.847 17.448 169.399 17.448ZM176.162 24.096C175.402 24.096 174.81 23.904 174.386 23.52C173.962 23.128 173.75 22.548 173.75 21.78V16.116H175.622V21.756C175.622 22.028 175.694 22.24 175.838 22.392C175.982 22.536 176.178 22.608 176.426 22.608C176.722 22.608 176.974 22.528 177.182 22.368L177.686 23.688C177.494 23.824 177.262 23.928 176.99 24C176.726 24.064 176.45 24.096 176.162 24.096ZM172.754 19.128V17.688H177.23V19.128H172.754ZM178.487 24V17.544H180.359V24H178.487ZM179.423 16.644C179.079 16.644 178.799 16.544 178.583 16.344C178.367 16.144 178.259 15.896 178.259 15.6C178.259 15.304 178.367 15.056 178.583 14.856C178.799 14.656 179.079 14.556 179.423 14.556C179.767 14.556 180.047 14.652 180.263 14.844C180.479 15.028 180.587 15.268 180.587 15.564C180.587 15.876 180.479 16.136 180.263 16.344C180.055 16.544 179.775 16.644 179.423 16.644ZM184.918 24.096C184.23 24.096 183.618 23.952 183.082 23.664C182.554 23.376 182.134 22.984 181.822 22.488C181.518 21.984 181.366 21.412 181.366 20.772C181.366 20.124 181.518 19.552 181.822 19.056C182.134 18.552 182.554 18.16 183.082 17.88C183.618 17.592 184.23 17.448 184.918 17.448C185.598 17.448 186.206 17.592 186.742 17.88C187.278 18.16 187.698 18.548 188.002 19.044C188.306 19.54 188.458 20.116 188.458 20.772C188.458 21.412 188.306 21.984 188.002 22.488C187.698 22.984 187.278 23.376 186.742 23.664C186.206 23.952 185.598 24.096 184.918 24.096ZM184.918 22.56C185.23 22.56 185.51 22.488 185.758 22.344C186.006 22.2 186.202 21.996 186.346 21.732C186.49 21.46 186.562 21.14 186.562 20.772C186.562 20.396 186.49 20.076 186.346 19.812C186.202 19.548 186.006 19.344 185.758 19.2C185.51 19.056 185.23 18.984 184.918 18.984C184.606 18.984 184.326 19.056 184.078 19.2C183.83 19.344 183.63 19.548 183.478 19.812C183.334 20.076 183.262 20.396 183.262 20.772C183.262 21.14 183.334 21.46 183.478 21.732C183.63 21.996 183.83 22.2 184.078 22.344C184.326 22.488 184.606 22.56 184.918 22.56ZM193.384 17.448C193.896 17.448 194.352 17.552 194.752 17.76C195.16 17.96 195.48 18.272 195.712 18.696C195.944 19.112 196.06 19.648 196.06 20.304V24H194.188V20.592C194.188 20.072 194.072 19.688 193.84 19.44C193.616 19.192 193.296 19.068 192.88 19.068C192.584 19.068 192.316 19.132 192.076 19.26C191.844 19.38 191.66 19.568 191.524 19.824C191.396 20.08 191.332 20.408 191.332 20.808V24H189.46V17.544H191.248V19.332L190.912 18.792C191.144 18.36 191.476 18.028 191.908 17.796C192.34 17.564 192.832 17.448 193.384 17.448Z" fill="white"/>
<mask id="path-3-inside-1_5305_3784" fill="white">
<path fill-rule="evenodd" clip-rule="evenodd" d="M7 50C3.13401 50 0 53.134 0 57V151C0 154.866 3.134 158 6.99999 158H151.682C153.37 158 155.002 158.61 156.275 159.718L160.875 163.718C162.38 165.026 164.62 165.026 166.125 163.718L170.725 159.718C171.998 158.61 173.63 158 175.318 158H320C323.866 158 327 154.866 327 151V57C327 53.134 323.866 50 320 50H7Z"/>
</mask>
<path fill-rule="evenodd" clip-rule="evenodd" d="M7 50C3.13401 50 0 53.134 0 57V151C0 154.866 3.134 158 6.99999 158H151.682C153.37 158 155.002 158.61 156.275 159.718L160.875 163.718C162.38 165.026 164.62 165.026 166.125 163.718L170.725 159.718C171.998 158.61 173.63 158 175.318 158H320C323.866 158 327 154.866 327 151V57C327 53.134 323.866 50 320 50H7Z" fill="white"/>
<path d="M160.875 163.718L161.531 162.963L161.531 162.963L160.875 163.718ZM166.125 163.718L165.469 162.963L165.469 162.963L166.125 163.718ZM170.725 159.718L170.068 158.963L170.725 159.718ZM156.275 159.718L156.932 158.963L156.275 159.718ZM1 57C1 53.6863 3.68629 51 7 51V49C2.58172 49 -1 52.5817 -1 57H1ZM1 151V57H-1V151H1ZM6.99999 157C3.68629 157 1 154.314 1 151H-1C-1 155.418 2.58171 159 6.99999 159V157ZM151.682 157H6.99999V159H151.682V157ZM161.531 162.963L156.932 158.963L155.619 160.472L160.219 164.472L161.531 162.963ZM165.469 162.963C164.34 163.945 162.66 163.945 161.531 162.963L160.219 164.472C162.1 166.108 164.9 166.108 166.781 164.472L165.469 162.963ZM170.068 158.963L165.469 162.963L166.781 164.472L171.381 160.472L170.068 158.963ZM320 157H175.318V159H320V157ZM326 151C326 154.314 323.314 157 320 157V159C324.418 159 328 155.418 328 151H326ZM326 57V151H328V57H326ZM320 51C323.314 51 326 53.6863 326 57H328C328 52.5817 324.418 49 320 49V51ZM7 51H320V49H7V51ZM171.381 160.472C172.473 159.523 173.871 159 175.318 159V157C173.389 157 171.524 157.697 170.068 158.963L171.381 160.472ZM151.682 159C153.129 159 154.527 159.523 155.619 160.472L156.932 158.963C155.476 157.697 153.611 157 151.682 157V159Z" fill="#EEEEEE" mask="url(#path-3-inside-1_5305_3784)"/>
<path d="M37.016 113.072C38.252 113.072 39.356 112.652 40.1 111.836L39.536 111.272C38.852 111.98 38.012 112.28 37.052 112.28C35.024 112.28 33.5 110.792 33.5 108.8C33.5 106.808 35.024 105.32 37.052 105.32C38.012 105.32 38.852 105.62 39.536 106.316L40.1 105.752C39.356 104.936 38.252 104.528 37.028 104.528C34.496 104.528 32.624 106.34 32.624 108.8C32.624 111.26 34.496 113.072 37.016 113.072ZM42.631 112.232V109.112H46.975V108.356H42.631V105.368H47.503V104.6H41.743V113H47.683V112.232H42.631ZM53.1455 113.072C55.6655 113.072 57.5495 111.26 57.5495 108.8C57.5495 106.34 55.6655 104.528 53.1455 104.528C50.6015 104.528 48.7295 106.352 48.7295 108.8C48.7295 111.248 50.6015 113.072 53.1455 113.072ZM53.1455 112.28C51.1175 112.28 49.6055 110.804 49.6055 108.8C49.6055 106.796 51.1175 105.32 53.1455 105.32C55.1615 105.32 56.6615 106.796 56.6615 108.8C56.6615 110.804 55.1615 112.28 53.1455 112.28ZM68.0979 108.704C67.5219 109.244 66.5979 109.916 65.8299 110.408C65.3979 109.784 65.0739 109.076 64.8219 108.308H69.1179V107.528H64.3419V106.448H68.2539V105.704H64.3419V104.732H68.7099V103.952H64.3419V102.956H63.4539V103.952H59.1579V104.732H63.4539V105.704H59.6979V106.448H63.4539V107.528H58.7139V108.308H62.8659C61.6899 109.304 59.8779 110.192 58.3179 110.636C58.4979 110.828 58.7499 111.14 58.8939 111.368C59.6619 111.116 60.5019 110.744 61.3059 110.312V112.7C60.6819 112.856 60.1059 112.988 59.6259 113.096L59.9139 113.912C61.3419 113.552 63.3819 113.048 65.2659 112.544L65.1699 111.752C64.1739 112.004 63.1539 112.256 62.2059 112.484V109.772C62.8779 109.34 63.4899 108.86 63.9819 108.368C64.8219 111.08 66.3579 113.012 68.9139 113.876C69.0339 113.636 69.2859 113.264 69.4899 113.096C68.1459 112.688 67.0659 111.968 66.2619 110.984C67.0659 110.516 68.0499 109.868 68.8059 109.256L68.0979 108.704ZM73.7519 104.504V106.772H71.5079V104.504H73.7519ZM71.5079 109.976V107.588H73.7519V109.976H71.5079ZM74.5799 110.804V103.7H70.6679V111.908H71.5079V110.804H74.5799ZM76.4759 109.28C76.5359 108.74 76.5479 108.212 76.5479 107.72V107.18H79.8959V109.28H76.4759ZM79.8959 104.312V106.364H76.5479V104.312H79.8959ZM80.7599 103.472H75.6839V107.72C75.6839 109.58 75.4799 111.836 73.4639 113.384C73.6439 113.504 73.9799 113.804 74.1239 113.996C75.4799 112.952 76.0919 111.524 76.3559 110.096H79.8959V112.736C79.8959 112.952 79.8119 113.024 79.5839 113.036C79.3919 113.036 78.6359 113.048 77.8559 113.024C77.9999 113.252 78.1439 113.648 78.1919 113.888C79.2119 113.888 79.8719 113.864 80.2559 113.732C80.6399 113.576 80.7599 113.3 80.7599 112.736V103.472ZM89.3299 104.48C89.1739 104.852 88.9339 105.344 88.7419 105.68L89.0419 105.764H85.7059L86.0539 105.668C85.9699 105.344 85.7659 104.864 85.5379 104.48H89.3299ZM92.5699 105.764H89.5939C89.8099 105.428 90.0499 105.008 90.2779 104.576L89.8219 104.48H91.9579V103.76H87.8419V102.956H86.9659V103.76H82.8739V104.48H85.0819L84.6739 104.576C84.8779 104.936 85.0819 105.416 85.1779 105.764H82.3339V106.496H92.5699V105.764ZM90.3859 108.476H84.5299V107.768H90.3859V108.476ZM90.3859 109.832H84.5299V109.1H90.3859V109.832ZM91.2499 107.096H83.6779V110.504H86.5819L86.1259 110.948C86.8579 111.272 87.7099 111.8 88.1179 112.184L88.6699 111.62C88.2619 111.26 87.4819 110.804 86.7859 110.504H91.2499V107.096ZM82.6579 113.648C83.5579 113.12 84.0619 112.244 84.4099 111.38L83.6539 111.104C83.3659 111.896 82.8019 112.7 81.9739 113.18L82.6579 113.648ZM86.6059 113.072C85.9819 113.072 85.8859 113.012 85.8859 112.724V111.188H85.0099V112.724C85.0099 113.588 85.3339 113.804 86.5339 113.804H88.8019C89.7619 113.804 90.0379 113.492 90.1219 112.16C89.9059 112.1 89.5459 111.992 89.3659 111.86C89.3059 112.928 89.2339 113.072 88.7179 113.072H86.6059ZM90.0859 111.416C90.9019 112.028 91.8019 112.928 92.1859 113.564L92.9059 113.12C92.4859 112.472 91.5859 111.596 90.7699 110.996L90.0859 111.416ZM98.6919 107.564H94.6599V108.404H103.768V107.564H99.5799V105.536H104.488V104.684H99.5799V102.956H98.6919V104.684H93.8919V105.536H98.6919V107.564ZM97.5759 109.088C98.4279 109.544 99.3879 110.264 99.8079 110.828L100.456 110.228C99.9999 109.676 99.0279 108.98 98.1879 108.548L97.5759 109.088ZM94.3359 113.504C95.2719 112.784 95.7159 111.56 95.9559 110.372L95.1759 110.132C94.9479 111.272 94.4679 112.376 93.5919 113.024L94.3359 113.504ZM98.4039 112.976C97.7439 112.976 97.6359 112.904 97.6359 112.568V109.964H96.7599V112.58C96.7599 113.516 97.0959 113.78 98.3319 113.78H100.66C101.728 113.78 102.004 113.384 102.112 111.836C101.86 111.776 101.5 111.644 101.296 111.5C101.248 112.784 101.164 112.976 100.612 112.976H98.4039ZM101.716 110.252C102.616 111.152 103.516 112.412 103.828 113.3L104.632 112.868C104.296 111.968 103.372 110.744 102.448 109.844L101.716 110.252ZM33.92 125.14H42.02V126.82H42.956V124.312H38.432V122.956H37.508V124.312H33.02V126.82H33.92V125.14ZM34.196 129.46C34.964 130.228 35.792 131.296 36.14 132.004L36.884 131.488C36.524 130.78 35.672 129.736 34.892 129.016L34.196 129.46ZM43.268 127.528H40.196V125.812H39.296V127.528H32.744V128.404H39.296V132.772C39.296 132.976 39.212 133.048 38.972 133.06C38.744 133.06 37.904 133.072 37.04 133.036C37.16 133.288 37.316 133.672 37.352 133.924C38.492 133.924 39.212 133.912 39.632 133.78C40.052 133.636 40.196 133.36 40.196 132.772V128.404H43.268V127.528ZM47.722 124.276C47.218 123.844 46.198 123.34 45.37 123.04L44.89 123.7C45.718 124.024 46.726 124.588 47.218 125.008L47.722 124.276ZM47.098 127.408C46.57 127.024 45.526 126.568 44.722 126.304L44.254 126.988C45.082 127.276 46.114 127.78 46.618 128.164L47.098 127.408ZM46.822 129.34C46.174 130.708 45.286 132.256 44.674 133.192L45.43 133.768C46.102 132.652 46.894 131.176 47.494 129.916L46.822 129.34ZM55.318 133.468C54.91 132.52 53.926 131.08 53.026 130.024L52.27 130.42C52.69 130.936 53.122 131.536 53.506 132.124C52.09 132.22 50.662 132.304 49.426 132.364C49.954 131.32 50.518 129.952 50.962 128.812H55.114V127.96H51.706V125.764H54.55V124.924H51.706V122.968H50.794V124.924H48.058V125.764H50.794V127.96H47.458V128.812H49.906C49.546 129.952 48.97 131.404 48.466 132.424L47.47 132.472L47.602 133.36C49.258 133.252 51.67 133.096 53.986 132.916C54.202 133.288 54.37 133.636 54.49 133.936L55.318 133.468ZM63.216 126.016H65.304C65.088 127.492 64.764 128.752 64.26 129.808C63.78 128.692 63.444 127.396 63.216 126.028V126.016ZM58.92 126.16V124.972H60.42C60.18 125.392 59.916 125.788 59.628 126.16H58.92ZM66.984 126.016V125.176H63.48C63.672 124.516 63.828 123.808 63.96 123.1L63.06 122.956C62.724 124.936 62.112 126.856 61.2 128.104L60.768 127.792L60.612 127.84H59.304C59.568 127.552 59.82 127.264 60.072 126.952H61.812V126.16H60.66C61.212 125.344 61.692 124.444 62.088 123.472L61.248 123.232C61.008 123.844 60.732 124.42 60.42 124.96V124.216H58.92V122.956H58.104V124.216H56.52V124.972H58.104V126.16H56.04V126.952H58.98C58.692 127.264 58.404 127.564 58.08 127.84H57.012V128.548H57.204C56.76 128.872 56.292 129.16 55.8 129.412C55.98 129.58 56.304 129.904 56.436 130.084C57.192 129.652 57.912 129.136 58.572 128.548H59.952C59.664 128.86 59.316 129.184 58.968 129.436H58.572V130.504C57.588 130.6 56.688 130.696 55.98 130.756L56.088 131.56C56.796 131.488 57.648 131.404 58.572 131.296V132.964C58.572 133.096 58.524 133.132 58.368 133.144C58.212 133.144 57.696 133.144 57.096 133.132C57.228 133.348 57.348 133.684 57.384 133.912C58.152 133.912 58.656 133.9 58.992 133.78C59.316 133.648 59.412 133.42 59.412 132.964V131.212L61.86 130.936V130.168C61.044 130.252 60.216 130.336 59.412 130.42V129.928C60.036 129.484 60.708 128.872 61.2 128.272C61.404 128.416 61.704 128.68 61.836 128.824C62.136 128.416 62.412 127.948 62.652 127.42C62.916 128.644 63.276 129.772 63.732 130.744C63.048 131.776 62.136 132.568 60.888 133.156C61.068 133.336 61.32 133.744 61.416 133.948C62.592 133.336 63.504 132.58 64.212 131.632C64.8 132.604 65.532 133.384 66.456 133.924C66.576 133.684 66.864 133.336 67.08 133.168C66.108 132.664 65.34 131.836 64.752 130.804C65.484 129.52 65.928 127.936 66.228 126.016H66.984ZM70.61 131.26V130.336H75.95V131.26H70.61ZM75.95 128.752V129.676H70.61V128.752H75.95ZM76.85 128.008H69.722V133.912H70.61V131.932H75.95V132.964C75.95 133.132 75.89 133.18 75.71 133.192C75.506 133.192 74.81 133.192 74.114 133.18C74.222 133.384 74.354 133.696 74.402 133.912C75.362 133.912 75.974 133.9 76.358 133.78C76.73 133.672 76.85 133.444 76.85 132.964V128.008ZM75.326 124.924L74.654 125.368C75.074 125.644 75.53 125.98 75.962 126.316C74.282 126.352 72.59 126.388 71.114 126.412C71.51 125.944 71.93 125.416 72.29 124.924H75.326ZM78.494 124.132H73.682V122.956H72.782V124.132H68.018V124.924H71.15C70.874 125.404 70.49 125.968 70.142 126.424L68.486 126.448L68.522 127.276C70.622 127.24 73.814 127.156 76.826 127.036C77.15 127.324 77.438 127.6 77.642 127.84L78.386 127.312C77.726 126.604 76.43 125.596 75.362 124.924H78.494V124.132Z" fill="#666666"/>
<rect x="24" y="107" width="2" height="2" fill="#666666"/>
<rect x="24" y="128" width="2" height="2" fill="#666666"/>
<path d="M194.88 112.424V110.648H201.276V112.424H194.88ZM201.276 108.068V109.808H194.88V108.068H201.276ZM201.276 105.44V107.228H194.88V105.44H201.276ZM197.892 104.588C198.096 104.132 198.312 103.592 198.492 103.076L197.472 102.944C197.376 103.412 197.184 104.06 197.004 104.588H193.992V113.936H194.88V113.264H201.276V113.876H202.2V104.588H197.892ZM206.822 103.004C206.318 103.856 205.262 104.84 204.326 105.452C204.47 105.632 204.698 105.98 204.794 106.184C205.838 105.464 206.978 104.36 207.662 103.328L206.822 103.004ZM207.014 105.62C206.33 106.844 205.19 108.068 204.146 108.86C204.29 109.076 204.53 109.52 204.614 109.712C205.07 109.34 205.514 108.896 205.958 108.404V113.9H206.798V107.396C207.158 106.916 207.494 106.412 207.77 105.92L207.014 105.62ZM211.706 106.784H213.494V107.804H211.706V106.784ZM211.706 104.984H213.494V106.004H211.706V104.984ZM214.358 108.56V106.784H215.234V106.004H214.358V104.228H211.706V102.968H210.83V104.228H208.346V104.984H210.83V106.004H207.782V106.784H210.83V107.804H208.298V108.56H210.83V109.496H208.13V110.252H210.83V111.272H207.602V112.064H210.83V113.912H211.706V112.064H215.102V111.272H211.706V110.252H214.526V109.496H211.706V108.56H214.358ZM222.964 102.872C222.172 104.564 220.744 106.076 219.256 107.012C219.424 107.168 219.676 107.552 219.784 107.72C221.008 106.88 222.196 105.68 223.084 104.312C224.008 105.512 225.376 106.796 226.588 107.612C226.684 107.372 226.876 107.012 227.044 106.808C225.82 106.076 224.344 104.756 223.504 103.604C223.588 103.448 223.672 103.304 223.744 103.16L222.964 102.872ZM225.16 106.664H221.128V107.432H225.16V106.664ZM223.792 111.14C223.732 110.384 223.504 109.22 223.288 108.308L222.58 108.404C222.796 109.316 223 110.504 223.06 111.272L223.792 111.14ZM220.264 108.74C220.624 109.652 220.936 110.828 221.044 111.62L221.776 111.416C221.668 110.636 221.332 109.46 220.972 108.56L220.264 108.74ZM219.844 108.716C219.652 108.368 218.812 107.012 218.5 106.568V106.052H219.748V105.224H218.5V102.956H217.672V105.224H216.136V106.052H217.588C217.276 107.636 216.604 109.484 215.932 110.468C216.088 110.672 216.292 111.068 216.388 111.32C216.856 110.576 217.324 109.412 217.672 108.176V113.912H218.5V107.72C218.812 108.296 219.16 108.98 219.304 109.352L219.844 108.716ZM225.568 108.308C225.16 109.592 224.392 111.416 223.768 112.556H219.628V113.348H226.72V112.556H224.512C225.136 111.428 225.844 109.808 226.36 108.524L225.568 108.308ZM228.174 113.54H238.374V112.736H228.174V113.54ZM235.638 109.76H230.802V108.764H235.638V109.76ZM235.638 111.38H230.802V110.384H235.638V111.38ZM229.926 108.128V112.016H236.55V108.128H229.926ZM238.542 105.272V104.48H233.658V102.968H232.782V104.48H227.97V105.272H231.81C230.79 106.4 229.182 107.408 227.718 107.912C227.898 108.08 228.162 108.416 228.306 108.62C229.926 107.972 231.702 106.736 232.782 105.332V107.768H233.658V105.32C234.762 106.688 236.526 107.912 238.182 108.524C238.314 108.308 238.578 107.96 238.77 107.804C237.258 107.336 235.65 106.352 234.606 105.272H238.542ZM199.512 124.6V128.344H194.256V124.6H193.368V133H194.256V129.124H199.512V133H200.388V124.6H199.512ZM208.208 129.844C208.208 127.948 206.924 126.64 205.148 126.64C203.372 126.64 202.064 127.972 202.064 129.844C202.064 131.716 203.408 133.06 205.376 133.06C206.372 133.06 207.248 132.7 207.812 132.028L207.332 131.476C206.852 132.028 206.168 132.304 205.4 132.304C204.02 132.304 203.012 131.428 202.916 130.108H208.196C208.196 130.012 208.208 129.916 208.208 129.844ZM205.148 127.372C206.384 127.372 207.284 128.236 207.392 129.472H202.916C203.024 128.236 203.924 127.372 205.148 127.372ZM209.692 133H210.544V124.096H209.692V133ZM215.917 126.64C214.873 126.64 213.997 127.096 213.481 127.936V126.688H212.665V135.328H213.517V131.812C214.045 132.628 214.909 133.06 215.917 133.06C217.717 133.06 219.061 131.764 219.061 129.844C219.061 127.936 217.717 126.64 215.917 126.64ZM215.857 132.304C214.513 132.304 213.505 131.32 213.505 129.844C213.505 128.38 214.513 127.384 215.857 127.384C217.189 127.384 218.209 128.38 218.209 129.844C218.209 131.32 217.189 132.304 215.857 132.304ZM223.618 133H227.038C229.726 133 231.538 131.272 231.538 128.8C231.538 126.328 229.726 124.6 227.038 124.6H223.618V133ZM224.506 132.232V125.368H226.99C229.222 125.368 230.662 126.784 230.662 128.8C230.662 130.816 229.222 132.232 226.99 132.232H224.506ZM238.61 129.844C238.61 127.948 237.326 126.64 235.55 126.64C233.774 126.64 232.466 127.972 232.466 129.844C232.466 131.716 233.81 133.06 235.778 133.06C236.774 133.06 237.65 132.7 238.214 132.028L237.734 131.476C237.254 132.028 236.57 132.304 235.802 132.304C234.422 132.304 233.414 131.428 233.318 130.108H238.598C238.598 130.012 238.61 129.916 238.61 129.844ZM235.55 127.372C236.786 127.372 237.686 128.236 237.794 129.472H233.318C233.426 128.236 234.326 127.372 235.55 127.372ZM241.786 133.06C243.43 133.06 244.39 132.352 244.39 131.26C244.39 128.836 240.298 130.12 240.298 128.416C240.298 127.816 240.802 127.372 241.942 127.372C242.59 127.372 243.25 127.528 243.802 127.912L244.174 127.228C243.646 126.868 242.758 126.64 241.942 126.64C240.334 126.64 239.446 127.408 239.446 128.44C239.446 130.936 243.538 129.64 243.538 131.284C243.538 131.908 243.046 132.316 241.846 132.316C240.958 132.316 240.106 132.004 239.602 131.608L239.218 132.28C239.734 132.724 240.742 133.06 241.786 133.06ZM250.599 133H251.643L248.691 129.268L251.391 126.688H250.335L246.567 130.132V124.096H245.715V133H246.567V131.2L248.055 129.832L250.599 133Z" fill="#666666"/>
<rect x="184" y="107" width="2" height="2" fill="#666666"/>
<rect x="184" y="127" width="2" height="2" fill="#666666"/>
<path d="M30.832 78.152V84.858H32.386V79.636H35.396V84.802H37.02V78.152H34.528C34.64 77.83 34.752 77.494 34.864 77.144H37.566V75.674H30.384V77.144H33.086C33.044 77.48 32.988 77.83 32.918 78.152H30.832ZM29.684 83.808C29.992 82.982 30.37 81.666 30.678 80.504L29.656 80.266L29.432 80.322H28.774L29.138 79.846C28.872 79.65 28.522 79.412 28.116 79.16C28.9 78.404 29.74 77.312 30.3 76.36L29.306 75.646L29.026 75.73H24.728V77.172H27.99C27.668 77.634 27.29 78.11 26.954 78.46L25.834 77.802L24.98 78.894C25.652 79.3 26.492 79.846 27.22 80.322H24.392V81.792H26.478V86.398C26.478 86.552 26.422 86.594 26.226 86.608C26.03 86.608 25.386 86.608 24.784 86.594C25.008 87.042 25.232 87.714 25.288 88.19C26.226 88.19 26.926 88.148 27.43 87.896C27.962 87.644 28.088 87.21 28.088 86.426V81.792H28.928C28.774 82.436 28.606 83.08 28.452 83.542L29.684 83.808ZM34.654 80.322H33.1V82.87C33.1 84.172 32.694 85.95 29.614 86.972C29.992 87.266 30.44 87.798 30.65 88.134C34.094 86.818 34.654 84.718 34.654 82.898V80.322ZM34.108 86.034C34.892 86.72 35.998 87.672 36.488 88.274L37.65 87.154C37.09 86.58 35.97 85.67 35.186 85.054L34.108 86.034ZM42.356 75.674L42.118 75.744H38.8V88.218H40.354V77.228H41.586C41.362 78.208 41.04 79.482 40.746 80.392C41.558 81.344 41.754 82.226 41.754 82.884C41.754 83.29 41.684 83.57 41.516 83.696C41.39 83.78 41.264 83.808 41.11 83.808C40.928 83.822 40.732 83.822 40.48 83.794C40.718 84.214 40.844 84.858 40.858 85.292C41.194 85.292 41.53 85.292 41.796 85.25C42.118 85.208 42.398 85.11 42.622 84.942C43.07 84.62 43.266 84.032 43.266 83.108C43.266 82.282 43.098 81.316 42.202 80.224C42.622 79.118 43.112 77.564 43.49 76.332L42.356 75.674ZM51.148 78.922V77.382H47.942V75.142H46.29V77.382H43.182V78.922H45.1C45.03 82.548 44.806 85.306 41.796 86.888C42.188 87.196 42.664 87.77 42.86 88.176C45.31 86.832 46.192 84.718 46.542 82.086H48.81C48.726 84.97 48.6 86.132 48.348 86.398C48.222 86.552 48.096 86.608 47.858 86.608C47.578 86.608 47.004 86.594 46.402 86.524C46.682 87 46.864 87.686 46.878 88.176C47.606 88.204 48.278 88.204 48.698 88.134C49.174 88.064 49.496 87.924 49.804 87.518C50.238 86.972 50.364 85.362 50.504 81.274C50.504 81.064 50.518 80.588 50.518 80.588H46.682C46.71 80.056 46.738 79.496 46.752 78.922H51.148ZM56.232 76.724C55.63 76.332 54.412 75.716 53.628 75.324L52.69 76.528C53.502 76.99 54.692 77.648 55.238 78.068L56.232 76.724ZM55.56 80.504C54.944 80.126 53.698 79.524 52.928 79.146L52.032 80.378C52.858 80.826 54.062 81.484 54.636 81.89L55.56 80.504ZM53.628 88.064C54.482 86.706 55.364 85.11 56.106 83.64L54.888 82.52C54.048 84.144 52.97 85.88 52.228 86.93L53.628 88.064ZM62.714 86.132H58.514V84.074H62.714V86.132ZM64.996 80.798V79.202H61.44V77.284C62.532 77.074 63.582 76.794 64.478 76.458L63.204 75.142C61.664 75.758 59.032 76.22 56.652 76.458C56.848 76.836 57.072 77.48 57.142 77.886C58.01 77.802 58.948 77.704 59.858 77.564V79.202H56.134V80.798H59.858V82.562H57.002V88.218H58.514V87.644H62.714V88.148H64.296V82.562H61.44V80.798H64.996ZM71.886 76.22H66.412V77.69H71.886V76.22ZM75.512 78.166C75.526 77.27 75.54 76.346 75.54 75.394H73.888C73.888 76.346 73.888 77.284 73.874 78.166H72.306V79.762H73.818C73.72 81.974 73.412 83.906 72.6 85.432C72.348 84.466 71.788 82.982 71.298 81.848L69.968 82.212C70.178 82.744 70.388 83.346 70.598 83.948L68.218 84.508C68.68 83.416 69.1 82.156 69.394 80.966H72.138V79.454H65.964V80.966H67.686C67.378 82.45 66.888 83.864 66.706 84.284C66.482 84.788 66.286 85.11 66.02 85.208C66.216 85.614 66.468 86.37 66.552 86.692C66.958 86.44 67.56 86.23 71.018 85.334C71.088 85.572 71.144 85.81 71.186 85.992L72.516 85.586C72.222 86.062 71.872 86.524 71.466 86.93C71.872 87.196 72.432 87.784 72.698 88.204C74.672 86.244 75.26 83.276 75.456 79.762H76.898C76.772 84.144 76.632 85.824 76.324 86.216C76.184 86.412 76.044 86.454 75.806 86.454C75.512 86.454 74.91 86.454 74.252 86.398C74.532 86.86 74.714 87.546 74.742 88.022C75.47 88.05 76.184 88.05 76.618 87.98C77.122 87.882 77.444 87.742 77.78 87.252C78.242 86.608 78.396 84.564 78.536 78.922C78.536 78.712 78.55 78.166 78.55 78.166H75.512Z" fill="#435CE7"/>
<rect y="174.699" width="327" height="40" rx="7" fill="#435CE7"/>
<path d="M134.377 198.699H138.193C140.941 198.699 142.825 197.043 142.825 194.499C142.825 191.955 140.941 190.299 138.193 190.299H134.377V198.699ZM136.321 197.103V191.895H138.097C139.765 191.895 140.857 192.891 140.857 194.499C140.857 196.107 139.765 197.103 138.097 197.103H136.321ZM150.233 195.495C150.233 193.419 148.769 192.147 146.873 192.147C144.905 192.147 143.429 193.539 143.429 195.471C143.429 197.391 144.881 198.795 147.113 198.795C148.277 198.795 149.177 198.435 149.777 197.751L148.781 196.671C148.337 197.091 147.845 197.295 147.161 197.295C146.177 197.295 145.493 196.803 145.313 195.999H150.197C150.209 195.843 150.233 195.639 150.233 195.495ZM146.885 193.563C147.725 193.563 148.337 194.091 148.469 194.907H145.289C145.421 194.079 146.033 193.563 146.885 193.563ZM154.889 197.067C154.685 197.223 154.409 197.307 154.133 197.307C153.629 197.307 153.329 197.007 153.329 196.455V193.827H154.937V192.387H153.329V190.815H151.457V192.387H150.461V193.827H151.457V196.479C151.457 198.015 152.345 198.795 153.869 198.795C154.445 198.795 155.009 198.663 155.393 198.387L154.889 197.067ZM162.319 195.495C162.319 193.419 160.855 192.147 158.959 192.147C156.991 192.147 155.515 193.539 155.515 195.471C155.515 197.391 156.967 198.795 159.199 198.795C160.363 198.795 161.263 198.435 161.863 197.751L160.867 196.671C160.423 197.091 159.931 197.295 159.247 197.295C158.263 197.295 157.579 196.803 157.399 195.999H162.283C162.295 195.843 162.319 195.639 162.319 195.495ZM158.971 193.563C159.811 193.563 160.423 194.091 160.555 194.907H157.375C157.507 194.079 158.119 193.563 158.971 193.563ZM166.435 198.795C167.791 198.795 168.859 198.195 169.327 197.163L167.875 196.371C167.527 196.995 167.011 197.259 166.423 197.259C165.475 197.259 164.731 196.599 164.731 195.471C164.731 194.343 165.475 193.683 166.423 193.683C167.011 193.683 167.527 193.959 167.875 194.571L169.327 193.791C168.859 192.735 167.791 192.147 166.435 192.147C164.335 192.147 162.835 193.527 162.835 195.471C162.835 197.415 164.335 198.795 166.435 198.795ZM173.909 197.067C173.705 197.223 173.429 197.307 173.153 197.307C172.649 197.307 172.349 197.007 172.349 196.455V193.827H173.957V192.387H172.349V190.815H170.477V192.387H169.481V193.827H170.477V196.479C170.477 198.015 171.365 198.795 172.889 198.795C173.465 198.795 174.029 198.663 174.413 198.387L173.909 197.067ZM176.15 191.343C176.846 191.343 177.314 190.887 177.314 190.263C177.314 189.687 176.846 189.255 176.15 189.255C175.454 189.255 174.986 189.711 174.986 190.299C174.986 190.887 175.454 191.343 176.15 191.343ZM175.214 198.699H177.086V192.243H175.214V198.699ZM181.645 198.795C183.697 198.795 185.185 197.415 185.185 195.471C185.185 193.527 183.697 192.147 181.645 192.147C179.593 192.147 178.093 193.527 178.093 195.471C178.093 197.415 179.593 198.795 181.645 198.795ZM181.645 197.259C180.709 197.259 179.989 196.587 179.989 195.471C179.989 194.355 180.709 193.683 181.645 193.683C182.581 193.683 183.289 194.355 183.289 195.471C183.289 196.587 182.581 197.259 181.645 197.259ZM190.11 192.147C189.234 192.147 188.478 192.447 187.974 192.999V192.243H186.186V198.699H188.058V195.507C188.058 194.319 188.706 193.767 189.606 193.767C190.434 193.767 190.914 194.247 190.914 195.291V198.699H192.786V195.003C192.786 193.035 191.634 192.147 190.11 192.147Z" fill="white"/>
<mask id="path-14-inside-2_5305_3784" fill="white">
<path fill-rule="evenodd" clip-rule="evenodd" d="M7 224.699C3.13401 224.699 0 227.833 0 231.699V305.699C0 309.565 3.134 312.699 6.99999 312.699H151.682C153.37 312.699 155.002 313.309 156.275 314.417L160.875 318.417C162.38 319.726 164.62 319.726 166.125 318.417L170.725 314.417C171.998 313.309 173.63 312.699 175.318 312.699H320C323.866 312.699 327 309.565 327 305.699V231.699C327 227.833 323.866 224.699 320 224.699H7Z"/>
</mask>
<path fill-rule="evenodd" clip-rule="evenodd" d="M7 224.699C3.13401 224.699 0 227.833 0 231.699V305.699C0 309.565 3.134 312.699 6.99999 312.699H151.682C153.37 312.699 155.002 313.309 156.275 314.417L160.875 318.417C162.38 319.726 164.62 319.726 166.125 318.417L170.725 314.417C171.998 313.309 173.63 312.699 175.318 312.699H320C323.866 312.699 327 309.565 327 305.699V231.699C327 227.833 323.866 224.699 320 224.699H7Z" fill="white"/>
<path d="M160.875 318.417L161.531 317.662L161.531 317.662L160.875 318.417ZM166.125 318.417L165.469 317.662L165.469 317.662L166.125 318.417ZM170.725 314.417L170.068 313.662L170.725 314.417ZM156.275 314.417L156.932 313.662L156.275 314.417ZM1 231.699C1 228.386 3.68629 225.699 7 225.699V223.699C2.58172 223.699 -1 227.281 -1 231.699H1ZM1 305.699V231.699H-1V305.699H1ZM6.99999 311.699C3.68629 311.699 1 309.013 1 305.699H-1C-1 310.117 2.58171 313.699 6.99999 313.699V311.699ZM151.682 311.699H6.99999V313.699H151.682V311.699ZM161.531 317.662L156.932 313.662L155.619 315.172L160.219 319.171L161.531 317.662ZM165.469 317.662C164.34 318.644 162.66 318.644 161.531 317.662L160.219 319.171C162.1 320.807 164.9 320.807 166.781 319.171L165.469 317.662ZM170.068 313.662L165.469 317.662L166.781 319.171L171.381 315.172L170.068 313.662ZM320 311.699H175.318V313.699H320V311.699ZM326 305.699C326 309.013 323.314 311.699 320 311.699V313.699C324.418 313.699 328 310.118 328 305.699H326ZM326 231.699V305.699H328V231.699H326ZM320 225.699C323.314 225.699 326 228.386 326 231.699H328C328 227.281 324.418 223.699 320 223.699V225.699ZM7 225.699H320V223.699H7V225.699ZM171.381 315.172C172.473 314.222 173.871 313.699 175.318 313.699V311.699C173.389 311.699 171.524 312.396 170.068 313.662L171.381 315.172ZM151.682 313.699C153.129 313.699 154.527 314.222 155.619 315.172L156.932 313.662C155.476 312.396 153.611 311.699 151.682 311.699V313.699Z" fill="#EEEEEE" mask="url(#path-14-inside-2_5305_3784)"/>
<path d="M42.668 278.903C42.296 278.591 41.528 278.135 40.94 277.883L40.436 278.375C41.024 278.663 41.78 279.131 42.152 279.455L42.668 278.903ZM34.244 284.315C35.168 283.247 36.056 281.939 36.824 280.619L36.08 280.163C35.852 280.607 35.6 281.051 35.324 281.495L33.824 281.639C34.532 280.619 35.216 279.323 35.744 278.087L34.904 277.703C34.424 279.131 33.56 280.655 33.308 281.051C33.044 281.459 32.84 281.735 32.624 281.783C32.72 282.023 32.864 282.443 32.9 282.635C33.08 282.539 33.368 282.467 34.808 282.275C34.292 283.055 33.824 283.655 33.596 283.895C33.236 284.339 32.96 284.627 32.708 284.675C32.816 284.915 32.936 285.311 32.984 285.491C33.236 285.347 33.632 285.239 36.62 284.627C36.596 284.459 36.596 284.111 36.62 283.883L34.244 284.315ZM36.668 285.959C35.192 286.355 33.68 286.787 32.696 287.015L32.876 287.879L36.8 286.715L36.668 285.959ZM42.608 283.511C42.128 284.267 41.48 284.951 40.724 285.563C40.532 284.915 40.364 284.147 40.232 283.295L43.28 282.719L43.124 281.939L40.136 282.503C40.076 281.999 40.028 281.483 39.98 280.931L42.944 280.475L42.8 279.695L39.932 280.115C39.896 279.323 39.884 278.507 39.884 277.643H39.008C39.02 278.543 39.044 279.407 39.092 280.247L37.208 280.523L37.364 281.327L39.14 281.051C39.176 281.603 39.224 282.143 39.284 282.659L36.956 283.091L37.112 283.895L39.392 283.451C39.548 284.447 39.728 285.335 39.98 286.091C38.972 286.763 37.82 287.303 36.596 287.675C36.8 287.879 37.028 288.179 37.148 288.407C38.264 288.023 39.332 287.495 40.28 286.871C40.772 287.951 41.408 288.587 42.26 288.587C43.076 288.587 43.352 288.191 43.508 286.847C43.304 286.775 43.04 286.583 42.848 286.379C42.8 287.435 42.668 287.723 42.344 287.723C41.828 287.723 41.372 287.231 41 286.355C41.948 285.647 42.752 284.795 43.352 283.859L42.608 283.511ZM49.822 287.159V282.407H54.286V281.519H49.822V277.847H48.886V287.159H44.41V288.047H55.102V287.159H49.822ZM66.168 278.903C65.796 278.591 65.028 278.135 64.44 277.883L63.936 278.375C64.524 278.663 65.28 279.131 65.652 279.455L66.168 278.903ZM57.744 284.315C58.668 283.247 59.556 281.939 60.324 280.619L59.58 280.163C59.352 280.607 59.1 281.051 58.824 281.495L57.324 281.639C58.032 280.619 58.716 279.323 59.244 278.087L58.404 277.703C57.924 279.131 57.06 280.655 56.808 281.051C56.544 281.459 56.34 281.735 56.124 281.783C56.22 282.023 56.364 282.443 56.4 282.635C56.58 282.539 56.868 282.467 58.308 282.275C57.792 283.055 57.324 283.655 57.096 283.895C56.736 284.339 56.46 284.627 56.208 284.675C56.316 284.915 56.436 285.311 56.484 285.491C56.736 285.347 57.132 285.239 60.12 284.627C60.096 284.459 60.096 284.111 60.12 283.883L57.744 284.315ZM60.168 285.959C58.692 286.355 57.18 286.787 56.196 287.015L56.376 287.879L60.3 286.715L60.168 285.959ZM66.108 283.511C65.628 284.267 64.98 284.951 64.224 285.563C64.032 284.915 63.864 284.147 63.732 283.295L66.78 282.719L66.624 281.939L63.636 282.503C63.576 281.999 63.528 281.483 63.48 280.931L66.444 280.475L66.3 279.695L63.432 280.115C63.396 279.323 63.384 278.507 63.384 277.643H62.508C62.52 278.543 62.544 279.407 62.592 280.247L60.708 280.523L60.864 281.327L62.64 281.051C62.676 281.603 62.724 282.143 62.784 282.659L60.456 283.091L60.612 283.895L62.892 283.451C63.048 284.447 63.228 285.335 63.48 286.091C62.472 286.763 61.32 287.303 60.096 287.675C60.3 287.879 60.528 288.179 60.648 288.407C61.764 288.023 62.832 287.495 63.78 286.871C64.272 287.951 64.908 288.587 65.76 288.587C66.576 288.587 66.852 288.191 67.008 286.847C66.804 286.775 66.54 286.583 66.348 286.379C66.3 287.435 66.168 287.723 65.844 287.723C65.328 287.723 64.872 287.231 64.5 286.355C65.448 285.647 66.252 284.795 66.852 283.859L66.108 283.511ZM78.554 279.431V278.543H67.958V279.431H72.542V288.599H73.49V282.287C74.858 283.019 76.466 284.003 77.282 284.675L77.906 283.871C76.958 283.151 75.074 282.071 73.646 281.387L73.49 281.567V279.431H78.554ZM90.292 280.151V279.335H86.776C86.944 278.855 87.112 278.363 87.244 277.859L86.38 277.679C85.948 279.443 85.168 281.099 84.16 282.143C84.376 282.275 84.736 282.551 84.892 282.683C85.48 282.023 86.008 281.135 86.44 280.151H90.292ZM86.596 281.459C87.448 282.059 88.48 282.899 88.972 283.451L89.692 282.911C89.164 282.359 88.108 281.543 87.268 280.991L86.596 281.459ZM83.704 277.703H82.828V283.355H83.704V277.703ZM81.352 278.099H80.488V282.983H81.352V278.099ZM81.784 284.843H83.392V287.483H81.784V284.843ZM85.828 284.843V287.483H84.22V284.843H85.828ZM88.288 284.843V287.483H86.656V284.843H88.288ZM89.164 287.483V284.075H80.944V287.483H79.6V288.299H90.436V287.483H89.164ZM99.066 279.671V282.023C99.066 282.827 99.258 283.067 100.098 283.067H101.19C101.838 283.067 102.054 282.755 102.138 281.579C101.91 281.531 101.586 281.411 101.418 281.279C101.382 282.191 101.334 282.311 101.094 282.311H100.206C99.942 282.311 99.894 282.275 99.894 282.023V279.671H101.31V280.847H102.126V278.915H98.91V277.655H98.058V278.915H95.07V280.955H95.862V279.671H97.122C97.038 281.411 96.738 282.311 95.01 282.803C95.178 282.959 95.382 283.247 95.454 283.427C97.434 282.827 97.818 281.711 97.938 279.671H99.066ZM94.95 283.403L94.794 282.599C94.398 282.743 94.002 282.875 93.618 283.007V280.883H94.866V280.067H93.618V277.667H92.79V280.067H91.29V280.883H92.79V283.295C92.166 283.499 91.59 283.691 91.134 283.835L91.35 284.699C91.782 284.543 92.274 284.375 92.79 284.183V287.579C92.79 287.759 92.73 287.795 92.586 287.795C92.442 287.807 91.974 287.807 91.458 287.795C91.578 288.035 91.686 288.407 91.722 288.611C92.466 288.623 92.922 288.587 93.21 288.455C93.51 288.311 93.618 288.071 93.618 287.579V283.883L94.95 283.403ZM98.91 287.459V284.951H101.658V284.135H95.466V284.951H98.046V287.459H94.698V288.275H102.234V287.459H98.91Z" fill="#666666"/>
<rect x="24" y="281.699" width="2" height="2" fill="#666666"/>
<path d="M199.512 279.299V283.043H194.256V279.299H193.368V287.699H194.256V283.823H199.512V287.699H200.388V279.299H199.512ZM205.28 287.759C207.128 287.759 208.484 286.415 208.484 284.543C208.484 282.671 207.128 281.339 205.28 281.339C203.432 281.339 202.064 282.671 202.064 284.543C202.064 286.415 203.432 287.759 205.28 287.759ZM205.28 287.003C203.936 287.003 202.928 286.019 202.928 284.543C202.928 283.067 203.936 282.083 205.28 282.083C206.624 282.083 207.62 283.067 207.62 284.543C207.62 286.019 206.624 287.003 205.28 287.003ZM212.997 286.703C212.757 286.919 212.409 287.027 212.061 287.027C211.353 287.027 210.969 286.619 210.969 285.875V282.107H212.889V281.387H210.969V280.007H210.117V281.387H208.989V282.107H210.117V285.923C210.117 287.087 210.777 287.759 211.965 287.759C212.457 287.759 212.961 287.615 213.297 287.315L212.997 286.703ZM214.013 284.819H217.157V284.075H214.013V284.819ZM218.993 287.699H224.585V286.931H219.881V279.299H218.993V287.699ZM226.061 280.007C226.421 280.007 226.685 279.731 226.685 279.383C226.685 279.059 226.409 278.795 226.061 278.795C225.713 278.795 225.437 279.071 225.437 279.395C225.437 279.731 225.713 280.007 226.061 280.007ZM225.629 287.699H226.481V281.387H225.629V287.699ZM231.818 281.339C230.726 281.339 229.874 281.783 229.418 282.551V281.387H228.602V287.699H229.454V284.387C229.454 282.947 230.306 282.107 231.662 282.107C232.862 282.107 233.558 282.791 233.558 284.123V287.699H234.41V284.039C234.41 282.227 233.354 281.339 231.818 281.339ZM242.005 284.543C242.005 282.647 240.721 281.339 238.945 281.339C237.169 281.339 235.861 282.671 235.861 284.543C235.861 286.415 237.205 287.759 239.173 287.759C240.169 287.759 241.045 287.399 241.609 286.727L241.129 286.175C240.649 286.727 239.965 287.003 239.197 287.003C237.817 287.003 236.809 286.127 236.713 284.807H241.993C241.993 284.711 242.005 284.615 242.005 284.543ZM238.945 282.071C240.181 282.071 241.081 282.935 241.189 284.171H236.713C236.821 282.935 237.721 282.071 238.945 282.071ZM252.909 278.351H246.909V279.179H252.909V278.351ZM246.237 285.323L246.369 286.199C247.953 286.067 250.281 285.863 252.501 285.647C252.693 285.995 252.849 286.331 252.957 286.619L253.725 286.199C253.341 285.215 252.369 283.763 251.445 282.671L250.725 283.031C251.193 283.583 251.661 284.231 252.057 284.867C250.713 284.975 249.369 285.083 248.205 285.179C248.661 284.255 249.165 283.019 249.573 281.975H253.785V281.135H246.153V281.975H248.529C248.217 283.031 247.725 284.327 247.293 285.251L246.237 285.323ZM245.985 279.239C245.589 278.771 244.713 278.183 244.005 277.811L243.417 278.363C244.137 278.759 244.977 279.383 245.361 279.851L245.985 279.239ZM245.637 281.579C245.181 281.123 244.281 280.547 243.537 280.211L242.949 280.787C243.705 281.159 244.593 281.759 245.025 282.215L245.637 281.579ZM245.337 283.199H242.901V284.027H244.473V286.259C243.909 286.763 243.273 287.267 242.745 287.627L243.213 288.503C243.825 287.987 244.413 287.483 244.953 286.967C245.709 287.891 246.801 288.323 248.373 288.395C249.705 288.431 252.213 288.407 253.533 288.359C253.581 288.083 253.713 287.675 253.833 287.471C252.405 287.567 249.681 287.591 248.361 287.555C246.969 287.495 245.913 287.087 245.337 286.199V283.199ZM263.315 286.031V287.447H256.967V286.031H263.315ZM256.115 288.659H256.967V288.203H263.315V288.635H264.191V285.251H256.115V288.659ZM262.415 283.847H257.795V282.791H262.415V283.847ZM256.955 282.143V284.495H263.291V282.143H256.955ZM255.167 282.971H255.995V281.363H264.167V282.971H265.031V280.643H255.167V282.971ZM262.583 278.651V277.667H261.707V278.651H258.335V277.667H257.459V278.651H254.819V279.467H257.459V280.319H258.335V279.467H261.707V280.319H262.583V279.467H265.295V278.651H262.583Z" fill="#666666"/>
<rect x="184" y="281.699" width="2" height="2" fill="#666666"/>
<path d="M30.916 254.111C31.602 253.453 32.246 252.725 32.834 251.955C33.492 252.683 34.304 253.439 35.13 254.111H30.916ZM29.306 256.715C29.096 256.337 28.074 254.825 27.71 254.363V253.901H28.676C28.508 254.013 28.326 254.125 28.158 254.237C28.466 254.559 28.942 255.273 29.124 255.609C29.586 255.273 30.062 254.909 30.51 254.489V255.511H35.466V254.377C35.956 254.755 36.446 255.091 36.922 255.385C37.076 254.937 37.426 254.195 37.692 253.775C36.292 253.103 34.668 251.857 33.674 250.709C33.772 250.555 33.87 250.401 33.954 250.233L32.526 249.687C31.672 251.255 30.272 252.753 28.83 253.789V252.361H27.71V249.841H26.212V252.361H24.56V253.901H26.086C25.764 255.469 25.134 257.317 24.406 258.339C24.644 258.787 25.008 259.543 25.162 260.033C25.54 259.403 25.904 258.521 26.212 257.541V262.917H27.71V256.393C27.976 256.939 28.214 257.471 28.354 257.821L29.306 256.715ZM34.038 259.529C33.94 258.633 33.702 257.317 33.436 256.253L32.162 256.421C32.386 257.485 32.624 258.843 32.68 259.739L34.038 259.529ZM31.616 259.809C31.476 258.913 31.126 257.555 30.776 256.505L29.502 256.841C29.824 257.891 30.146 259.277 30.244 260.201L31.616 259.809ZM35.522 256.239C35.102 257.653 34.332 259.613 33.646 260.901H28.858V262.357H37.146V260.901H35.018C35.676 259.669 36.39 258.003 36.964 256.561L35.522 256.239ZM38.632 262.525H50.868V261.069H38.632V262.525ZM40.998 255.763C42.09 255.077 43.084 254.209 43.882 253.243V255.357H45.534V253.243C46.36 254.223 47.41 255.091 48.558 255.763H40.998ZM47.004 257.541H42.3V256.855H47.004V257.541ZM47.004 259.319H42.3V258.591H47.004V259.319ZM50.994 252.851V251.409H45.534V249.841H43.882V251.409H38.534V252.851H42.272C41.194 253.915 39.682 254.853 38.128 255.343C38.478 255.665 38.954 256.281 39.192 256.673C39.696 256.477 40.172 256.253 40.648 255.973V260.411H48.754V255.875C49.244 256.155 49.748 256.365 50.266 256.561C50.49 256.155 50.98 255.525 51.344 255.203C49.762 254.755 48.208 253.873 47.102 252.851H50.994ZM64.828 257.751H62.294C62.364 257.079 62.434 256.309 62.504 255.441C62.532 255.231 62.56 254.727 62.56 254.727H56.218C56.316 254.237 56.428 253.719 56.526 253.201H63.302V251.605H56.82C56.918 251.045 57.016 250.499 57.1 249.981L55.364 249.827C55.042 252.039 54.468 254.937 53.992 256.715L55.742 256.855L55.882 256.267H60.74C60.698 256.813 60.656 257.303 60.6 257.751H52.214V259.347H60.376C60.194 260.341 59.984 260.901 59.732 261.111C59.536 261.279 59.34 261.307 59.046 261.307C58.64 261.307 57.702 261.293 56.736 261.209C57.058 261.685 57.296 262.385 57.324 262.875C58.248 262.917 59.172 262.931 59.704 262.875C60.348 262.805 60.754 262.665 61.174 262.203C61.566 261.783 61.86 260.943 62.098 259.347H64.828V257.751ZM78.508 253.215V251.703H74.742C74.896 251.199 75.05 250.695 75.162 250.177L73.566 249.855C73.132 251.829 72.32 253.747 71.228 254.909C71.606 255.133 72.292 255.623 72.572 255.903C73.174 255.189 73.692 254.251 74.154 253.215H78.508ZM74.112 254.433C74.966 255.147 76.016 256.155 76.478 256.813L77.836 255.847C77.318 255.189 76.254 254.223 75.386 253.579L74.112 254.433ZM71.186 249.855H69.534V256.645H71.186V249.855ZM68.386 250.317H66.776V256.267H68.386V250.317ZM68.876 258.647H70.108V261.111H68.876V258.647ZM72.894 258.647V261.111H71.634V258.647H72.894ZM75.68 258.647V261.111H74.406V258.647H75.68ZM77.304 261.111V257.247H67.322V261.111H65.894V262.595H78.634V261.111H77.304ZM88.436 252.431V254.727C88.436 256.001 88.716 256.435 89.99 256.435H91.068C92.02 256.435 92.384 256.029 92.538 254.559C92.132 254.461 91.502 254.223 91.222 254.013C91.18 254.965 91.124 255.105 90.886 255.105H90.256C90.004 255.105 89.976 255.063 89.976 254.713V252.431H90.886V253.663H92.412V251.059H88.912V249.841H87.288V251.059H83.858V253.705H85.3V252.431H86.14C86.084 254.223 85.832 255.105 83.774 255.595C84.054 255.875 84.432 256.435 84.544 256.785C87.134 256.099 87.554 254.769 87.638 252.431H88.436ZM83.662 255.427L82.542 255.805V254.013H83.718V252.487H82.542V249.855H81.03V252.487H79.56V254.013H81.03V256.323C80.4 256.519 79.812 256.701 79.336 256.841L79.728 258.423C80.134 258.283 80.568 258.129 81.03 257.975V261.153C81.03 261.335 80.96 261.391 80.792 261.391C80.624 261.405 80.134 261.405 79.63 261.377C79.826 261.825 80.008 262.511 80.05 262.917C80.974 262.931 81.562 262.875 81.996 262.609C82.416 262.343 82.542 261.923 82.542 261.153V257.415C83.004 257.247 83.48 257.079 83.928 256.897L83.662 255.427ZM88.884 258.717H91.796V257.219H84.446V258.717H87.246V261.013H83.648V262.511H92.51V261.013H88.884V258.717Z" fill="#435CE7"/>
<rect y="329.398" width="327" height="40" rx="7" fill="#435CE7"/>
<path d="M134.101 353.398H137.917C140.665 353.398 142.549 351.742 142.549 349.198C142.549 346.654 140.665 344.998 137.917 344.998H134.101V353.398ZM136.045 351.802V346.594H137.821C139.489 346.594 140.581 347.59 140.581 349.198C140.581 350.806 139.489 351.802 137.821 351.802H136.045ZM144.57 346.042C145.266 346.042 145.734 345.586 145.734 344.962C145.734 344.386 145.266 343.954 144.57 343.954C143.874 343.954 143.406 344.41 143.406 344.998C143.406 345.586 143.874 346.042 144.57 346.042ZM143.634 353.398H145.506V346.942H143.634V353.398ZM149.165 353.494C151.097 353.494 152.213 352.642 152.213 351.442C152.213 348.898 148.313 349.966 148.313 348.862C148.313 348.526 148.673 348.262 149.513 348.262C150.101 348.262 150.737 348.382 151.373 348.742L151.997 347.41C151.385 347.05 150.401 346.846 149.513 346.846C147.629 346.846 146.525 347.71 146.525 348.934C146.525 351.514 150.425 350.434 150.425 351.49C150.425 351.85 150.101 352.078 149.237 352.078C148.445 352.078 147.569 351.826 146.993 351.454L146.369 352.798C146.969 353.194 148.073 353.494 149.165 353.494ZM156.238 353.494C157.594 353.494 158.662 352.894 159.13 351.862L157.678 351.07C157.33 351.694 156.814 351.958 156.226 351.958C155.278 351.958 154.534 351.298 154.534 350.17C154.534 349.042 155.278 348.382 156.226 348.382C156.814 348.382 157.33 348.658 157.678 349.27L159.13 348.49C158.662 347.434 157.594 346.846 156.238 346.846C154.138 346.846 152.638 348.226 152.638 350.17C152.638 352.114 154.138 353.494 156.238 353.494ZM160.894 346.042C161.59 346.042 162.058 345.586 162.058 344.962C162.058 344.386 161.59 343.954 160.894 343.954C160.198 343.954 159.73 344.41 159.73 344.998C159.73 345.586 160.198 346.042 160.894 346.042ZM159.958 353.398H161.83V346.942H159.958V353.398ZM167.133 346.846C166.269 346.846 165.573 347.122 165.105 347.686V346.942H163.317V355.726H165.189V352.714C165.669 353.242 166.329 353.494 167.133 353.494C168.945 353.494 170.349 352.198 170.349 350.17C170.349 348.142 168.945 346.846 167.133 346.846ZM166.809 351.958C165.873 351.958 165.165 351.286 165.165 350.17C165.165 349.054 165.873 348.382 166.809 348.382C167.745 348.382 168.453 349.054 168.453 350.17C168.453 351.286 167.745 351.958 166.809 351.958ZM171.352 353.398H173.224V344.494H171.352V353.398ZM175.648 346.042C176.344 346.042 176.812 345.586 176.812 344.962C176.812 344.386 176.344 343.954 175.648 343.954C174.952 343.954 174.484 344.41 174.484 344.998C174.484 345.586 174.952 346.042 175.648 346.042ZM174.712 353.398H176.584V346.942H174.712V353.398ZM181.995 346.846C181.119 346.846 180.363 347.146 179.859 347.698V346.942H178.071V353.398H179.943V350.206C179.943 349.018 180.591 348.466 181.491 348.466C182.319 348.466 182.799 348.946 182.799 349.99V353.398H184.671V349.702C184.671 347.734 183.519 346.846 181.995 346.846ZM192.512 350.194C192.512 348.118 191.048 346.846 189.152 346.846C187.184 346.846 185.708 348.238 185.708 350.17C185.708 352.09 187.16 353.494 189.392 353.494C190.556 353.494 191.456 353.134 192.056 352.45L191.06 351.37C190.616 351.79 190.124 351.994 189.44 351.994C188.456 351.994 187.772 351.502 187.592 350.698H192.476C192.488 350.542 192.512 350.338 192.512 350.194ZM189.164 348.262C190.004 348.262 190.616 348.79 190.748 349.606H187.568C187.7 348.778 188.312 348.262 189.164 348.262Z" fill="white"/>
<rect x="0.5" y="379.898" width="326" height="107" rx="6.5" fill="white" stroke="#EEEEEE"/>
<path d="M36.2 437.61L35.048 437.946V435.582H36.212V434.766H35.048V432.366H34.184V434.766H32.576V435.582H34.184V438.198C33.5 438.402 32.864 438.582 32.372 438.702L32.576 439.566L34.184 439.074V442.23C34.184 442.41 34.136 442.458 33.98 442.458C33.824 442.47 33.332 442.47 32.792 442.446C32.912 442.686 33.02 443.082 33.056 443.298C33.848 443.31 34.328 443.286 34.64 443.142C34.94 442.986 35.048 442.734 35.048 442.23V438.81L36.308 438.414L36.2 437.61ZM38.06 440.202H40.016V441.87H38.06V440.202ZM40.016 437.022H38.06V435.414H40.016V437.022ZM40.016 439.422H38.06V437.79H40.016V439.422ZM43.484 441.87H40.832V440.202H42.992V439.422H40.832V437.79H42.992V437.022H40.832V435.414H43.28V434.61H40.892C41.18 433.998 41.504 433.266 41.768 432.606L40.832 432.39C40.652 433.038 40.328 433.926 40.016 434.61H38.18C38.48 433.95 38.732 433.266 38.948 432.558L38.096 432.342C37.604 434.07 36.764 435.714 35.72 436.77C35.9 436.95 36.2 437.334 36.32 437.514C36.632 437.178 36.932 436.794 37.208 436.374V443.298H38.06V442.686H43.484V441.87ZM50.398 435.378H52.378V437.514H50.374C50.398 437.262 50.398 437.022 50.398 436.782V435.378ZM52.378 438.378V441.414H53.254V438.378H55.03V437.514H53.254V435.378H54.79V434.514H53.254V432.606H52.378V434.514H50.398V432.606H49.522V434.514H47.83V435.378H49.522V436.77C49.522 437.022 49.522 437.262 49.498 437.514H47.758V438.378H49.402C49.234 439.278 48.838 440.166 47.938 440.838C48.13 440.97 48.466 441.306 48.586 441.474C49.642 440.67 50.098 439.518 50.278 438.378H52.378ZM47.266 434.538C46.882 434.01 46.066 433.182 45.406 432.606L44.77 433.086C45.43 433.686 46.222 434.55 46.594 435.102L47.266 434.538ZM46.918 436.674H44.398V437.514H46.042V440.922C45.514 441.126 44.902 441.666 44.266 442.338L44.854 443.142C45.466 442.326 46.054 441.618 46.462 441.618C46.714 441.618 47.11 442.014 47.59 442.338C48.418 442.854 49.414 442.998 50.89 442.998C52.042 442.998 54.166 442.926 55.006 442.866C55.03 442.614 55.174 442.182 55.27 441.942C54.118 442.074 52.33 442.17 50.926 442.17C49.57 442.17 48.574 442.086 47.794 441.594C47.398 441.354 47.146 441.126 46.918 440.982V436.674ZM62.484 435.39H65.136C64.872 436.998 64.464 438.33 63.84 439.41C63.204 438.258 62.76 436.902 62.472 435.414L62.484 435.39ZM67.008 435.39V434.538H62.796C63.012 433.902 63.192 433.23 63.336 432.534L62.412 432.366C62.052 434.25 61.38 436.026 60.42 437.202V433.41H56.376V434.238H59.556V436.59H56.376V440.406C56.376 441.426 56.676 441.678 57.732 441.678H59.58C60.504 441.678 60.756 441.294 60.864 439.782C60.612 439.722 60.24 439.578 60.06 439.434C60.024 440.646 59.952 440.838 59.508 440.838H57.816C57.324 440.838 57.228 440.778 57.228 440.394V437.406H59.556V437.862H60.42V437.466C60.636 437.61 60.924 437.814 61.068 437.922C61.368 437.55 61.644 437.118 61.908 436.638C62.244 437.982 62.688 439.194 63.276 440.226C62.46 441.258 61.344 442.026 59.832 442.566C60 442.758 60.276 443.154 60.372 443.358C61.824 442.77 62.928 442.002 63.78 440.994C64.5 441.99 65.388 442.77 66.516 443.298C66.66 443.058 66.948 442.71 67.14 442.542C65.988 442.05 65.064 441.258 64.344 440.238C65.172 438.966 65.7 437.382 66.036 435.39H67.008ZM76.094 440.778V442.182H70.454V440.778H76.094ZM69.578 443.31H70.454V442.902H76.094V443.274H77.006V440.058H69.578V443.31ZM72.77 437.358V438.63H70.826L71.246 438.498C71.126 438.174 70.85 437.718 70.55 437.358H72.77ZM75.89 437.358C75.722 437.718 75.398 438.21 75.17 438.534L75.59 438.63H73.67V437.358H75.89ZM76.034 438.63C76.274 438.342 76.538 437.946 76.79 437.526L76.058 437.358H78.29V436.674H73.67V435.846H77.186V435.174H73.67V434.37H77.93V433.686H75.53C75.758 433.374 76.022 432.966 76.262 432.558L75.35 432.342C75.182 432.726 74.858 433.302 74.618 433.686H71.702L71.834 433.638C71.702 433.278 71.366 432.75 71.042 432.366L70.25 432.606C70.502 432.93 70.754 433.35 70.91 433.686H68.606V434.37H72.77V435.174H69.326V435.846H72.77V436.674H68.282V437.358H70.382L69.722 437.538C69.974 437.85 70.214 438.294 70.358 438.63H67.922V439.35H78.602V438.63H76.034ZM82.504 434.334C82.144 433.866 81.4 433.122 80.8 432.594L80.2 433.122C80.8 433.674 81.532 434.454 81.868 434.946L82.504 434.334ZM82.084 440.91V436.086H79.564V436.902H81.232V440.958C81.232 441.582 80.824 442.038 80.584 442.242C80.752 442.362 81.028 442.662 81.136 442.842C81.292 442.602 81.592 442.362 83.548 440.694C83.452 440.538 83.308 440.202 83.224 439.974L82.084 440.91ZM84.532 435.546H86.344V436.794H84.532V435.546ZM84.532 433.602H86.344V434.838H84.532V433.602ZM88.828 434.838H87.172V433.602H88.828V434.838ZM88.828 436.794H87.172V435.546H88.828V436.794ZM90.424 439.362V438.546H87.196V437.538H89.68V432.87H83.716V437.538H86.32V438.546H83.08V439.362H85.804C85.06 440.526 83.836 441.642 82.672 442.182C82.852 442.338 83.116 442.638 83.248 442.854C84.376 442.218 85.552 441.066 86.32 439.806V443.31H87.196V439.794C87.952 440.946 89.044 442.098 90.004 442.734C90.148 442.518 90.424 442.218 90.616 442.05C89.62 441.486 88.468 440.418 87.712 439.362H90.424ZM97.218 434.79V439.806H97.974V435.462H100.806V439.77H101.598V434.79H99.354C99.486 434.466 99.642 434.046 99.81 433.638H102.174V432.906H96.738V433.638H98.898C98.79 434.022 98.67 434.454 98.538 434.79H97.218ZM102.15 441.426C101.682 440.946 100.734 440.19 100.014 439.686L99.486 440.154C100.23 440.682 101.166 441.474 101.61 441.978L102.15 441.426ZM99.066 436.05C98.994 439.146 98.754 440.658 96.246 441.462C96.414 441.582 96.606 441.87 96.678 442.038C99.402 441.138 99.738 439.41 99.834 436.05H99.066ZM95.322 434.418H92.886V433.518H95.322V434.418ZM95.322 435.942H92.886V435.042H95.322V435.942ZM96.162 432.858H92.082V436.602H96.162V432.858ZM94.566 440.142H96.546V439.458H94.566V438.186H96.762V437.49H91.374V438.186H93.798V441.402C93.438 441.114 93.138 440.754 92.898 440.262C92.958 439.818 93.006 439.338 93.03 438.822L92.274 438.762C92.202 440.49 91.974 441.93 91.194 442.842C91.374 442.95 91.698 443.178 91.83 443.298C92.274 442.722 92.562 442.026 92.742 441.186C93.81 442.77 95.574 443.058 98.118 443.058H101.934C101.982 442.818 102.138 442.482 102.27 442.29C101.574 442.314 98.658 442.314 98.13 442.314C96.69 442.302 95.49 442.23 94.566 441.846V440.142ZM37.016 462.47C38.252 462.47 39.356 462.05 40.1 461.234L39.536 460.67C38.852 461.378 38.012 461.678 37.052 461.678C35.024 461.678 33.5 460.19 33.5 458.198C33.5 456.206 35.024 454.718 37.052 454.718C38.012 454.718 38.852 455.018 39.536 455.714L40.1 455.15C39.356 454.334 38.252 453.926 37.028 453.926C34.496 453.926 32.624 455.738 32.624 458.198C32.624 460.658 34.496 462.47 37.016 462.47ZM43.8618 462.458C45.7098 462.458 47.0658 461.114 47.0658 459.242C47.0658 457.37 45.7098 456.038 43.8618 456.038C42.0138 456.038 40.6458 457.37 40.6458 459.242C40.6458 461.114 42.0138 462.458 43.8618 462.458ZM43.8618 461.702C42.5178 461.702 41.5098 460.718 41.5098 459.242C41.5098 457.766 42.5178 456.782 43.8618 456.782C45.2058 456.782 46.2018 457.766 46.2018 459.242C46.2018 460.718 45.2058 461.702 43.8618 461.702ZM56.4272 456.038C55.2872 456.038 54.3872 456.554 53.9312 457.37C53.5472 456.482 52.7312 456.038 51.6872 456.038C50.6312 456.038 49.8152 456.482 49.3712 457.238V456.086H48.5552V462.398H49.4072V459.086C49.4072 457.646 50.2352 456.806 51.5192 456.806C52.6712 456.806 53.3432 457.49 53.3432 458.822V462.398H54.1952V459.086C54.1952 457.646 55.0112 456.806 56.3072 456.806C57.4472 456.806 58.1192 457.49 58.1192 458.822V462.398H58.9712V458.738C58.9712 456.926 57.9632 456.038 56.4272 456.038ZM64.2838 456.038C63.2398 456.038 62.3638 456.494 61.8478 457.334V456.086H61.0318V464.726H61.8838V461.21C62.4118 462.026 63.2758 462.458 64.2838 462.458C66.0838 462.458 67.4278 461.162 67.4278 459.242C67.4278 457.334 66.0838 456.038 64.2838 456.038ZM64.2238 461.702C62.8798 461.702 61.8718 460.718 61.8718 459.242C61.8718 457.778 62.8798 456.782 64.2238 456.782C65.5558 456.782 66.5758 457.778 66.5758 459.242C66.5758 460.718 65.5558 461.702 64.2238 461.702ZM68.9146 462.398H69.7666V453.494H68.9146V462.398ZM72.3192 454.706C72.6792 454.706 72.9432 454.43 72.9432 454.082C72.9432 453.758 72.6672 453.494 72.3192 453.494C71.9712 453.494 71.6952 453.77 71.6952 454.094C71.6952 454.43 71.9712 454.706 72.3192 454.706ZM71.8872 462.398H72.7392V456.086H71.8872V462.398ZM77.0679 456.038C76.0719 456.038 75.1359 456.35 74.4999 456.89L74.8839 457.526C75.3999 457.07 76.1679 456.782 76.9839 456.782C78.1599 456.782 78.7719 457.37 78.7719 458.45V458.834H76.7679C74.9559 458.834 74.3319 459.65 74.3319 460.622C74.3319 461.714 75.2079 462.458 76.6359 462.458C77.6799 462.458 78.4239 462.062 78.8079 461.414V462.398H79.6239V458.486C79.6239 456.854 78.6999 456.038 77.0679 456.038ZM76.7679 461.786C75.7599 461.786 75.1719 461.33 75.1719 460.598C75.1719 459.95 75.5679 459.47 76.7919 459.47H78.7719V460.502C78.4359 461.33 77.7279 461.786 76.7679 461.786ZM84.904 456.038C83.812 456.038 82.96 456.482 82.504 457.25V456.086H81.688V462.398H82.54V459.086C82.54 457.646 83.392 456.806 84.748 456.806C85.948 456.806 86.644 457.49 86.644 458.822V462.398H87.496V458.738C87.496 456.926 86.44 456.038 84.904 456.038ZM92.1985 462.458C93.2665 462.458 94.1665 462.026 94.6705 461.21L94.0345 460.778C93.6025 461.414 92.9305 461.702 92.1985 461.702C90.8185 461.702 89.8105 460.73 89.8105 459.242C89.8105 457.766 90.8185 456.782 92.1985 456.782C92.9305 456.782 93.6025 457.082 94.0345 457.718L94.6705 457.286C94.1665 456.458 93.2665 456.038 92.1985 456.038C90.3145 456.038 88.9465 457.358 88.9465 459.242C88.9465 461.126 90.3145 462.458 92.1985 462.458ZM101.497 459.242C101.497 457.346 100.213 456.038 98.4368 456.038C96.6608 456.038 95.3528 457.37 95.3528 459.242C95.3528 461.114 96.6968 462.458 98.6648 462.458C99.6608 462.458 100.537 462.098 101.101 461.426L100.621 460.874C100.141 461.426 99.4568 461.702 98.6888 461.702C97.3088 461.702 96.3008 460.826 96.2048 459.506H101.485C101.485 459.41 101.497 459.314 101.497 459.242ZM98.4368 456.77C99.6728 456.77 100.573 457.634 100.681 458.87H96.2048C96.3128 457.634 97.2128 456.77 98.4368 456.77ZM104.001 459.026C104.973 457.97 105.945 456.662 106.773 455.318L106.065 454.898C105.825 455.318 105.549 455.75 105.273 456.17L103.545 456.362C104.301 455.33 105.033 454.022 105.621 452.738L104.817 452.354C104.277 453.818 103.341 455.366 103.053 455.762C102.777 456.17 102.561 456.446 102.345 456.494C102.441 456.734 102.573 457.154 102.609 457.334C102.789 457.25 103.089 457.166 104.721 456.962C104.145 457.742 103.617 458.378 103.377 458.618C102.993 459.062 102.681 459.35 102.429 459.422C102.525 459.626 102.657 460.034 102.693 460.19C102.957 460.058 103.365 459.95 106.617 459.29C106.605 459.11 106.593 458.786 106.617 458.546L104.001 459.026ZM106.533 460.742C104.997 461.09 103.437 461.474 102.417 461.666L102.573 462.53C103.701 462.242 105.189 461.87 106.617 461.498L106.533 460.742ZM108.417 459.914H111.345V462.242H108.417V459.914ZM111.345 453.77V456.002H108.417V453.77H111.345ZM108.417 456.818H111.345V459.11H108.417V456.818ZM112.221 462.242V452.954H107.565V462.242H106.353V463.058H113.253V462.242H112.221ZM123.299 457.634H119.699V454.058H123.299V457.634ZM124.211 453.206H118.823V458.486H124.211V453.206ZM115.703 459.062C116.651 457.994 117.563 456.71 118.355 455.39L117.623 454.958C117.383 455.39 117.119 455.846 116.831 456.266L115.211 456.434C115.955 455.402 116.675 454.082 117.227 452.798L116.375 452.402C115.883 453.854 114.995 455.414 114.707 455.81C114.443 456.218 114.239 456.494 114.011 456.554C114.119 456.794 114.263 457.214 114.311 457.394C114.479 457.322 114.767 457.25 116.303 457.046C115.763 457.826 115.259 458.438 115.031 458.678C114.659 459.122 114.371 459.41 114.107 459.458C114.215 459.686 114.347 460.094 114.395 460.274C114.659 460.106 115.067 459.998 118.343 459.35C118.319 459.158 118.319 458.81 118.343 458.57L115.703 459.062ZM118.295 460.802C116.735 461.162 115.127 461.522 114.071 461.726L114.239 462.614C115.391 462.314 116.915 461.942 118.391 461.582L118.295 460.802ZM119.675 459.65C119.315 460.874 118.691 462.038 117.911 462.794C118.127 462.914 118.523 463.178 118.691 463.31C119.483 462.47 120.179 461.198 120.599 459.854L119.675 459.65ZM122.387 459.926C123.011 460.97 123.683 462.35 123.947 463.202L124.823 462.854C124.547 462.002 123.839 460.646 123.191 459.626L122.387 459.926ZM128.881 454.538C128.509 454.046 127.705 453.29 127.069 452.75L126.493 453.302C127.129 453.866 127.921 454.658 128.281 455.174L128.881 454.538ZM128.341 461.21V456.098H127.501V456.11H125.857V456.962H127.501V461.366C127.501 461.882 127.165 462.194 126.949 462.314C127.105 462.506 127.309 462.866 127.381 463.07C127.549 462.842 127.861 462.602 129.817 461.09C129.733 460.922 129.577 460.574 129.505 460.346L128.341 461.21ZM136.765 458.21H133.417V453.818H136.237V452.966H129.601V453.818H132.529V458.21H129.265V459.062H132.529V463.31H133.417V459.062H136.765V458.21ZM130.009 454.682C130.333 455.618 130.609 456.83 130.681 457.634L131.485 457.418C131.401 456.614 131.113 455.414 130.765 454.478L130.009 454.682ZM135.073 457.682C135.385 456.926 135.757 455.69 136.057 454.682L135.169 454.466C135.001 455.366 134.665 456.686 134.365 457.49L135.073 457.682ZM140.271 452.402C139.599 454.226 138.483 456.026 137.307 457.166C137.475 457.37 137.727 457.826 137.811 458.042C138.219 457.61 138.627 457.13 138.999 456.59V463.298H139.851V455.294C140.331 454.454 140.763 453.554 141.111 452.666L140.271 452.402ZM146.895 461.954H142.515V459.122H146.895V461.954ZM148.527 455.846V454.982H145.119V452.354H144.219V454.982H140.955V455.846H144.219V458.282H141.639V463.322H142.515V462.806H146.895V463.274H147.795V458.282H145.119V455.846H148.527Z" fill="#666666"/>
<rect x="24" y="436.398" width="2" height="2" fill="#666666"/>
<rect x="24" y="457.398" width="2" height="2" fill="#666666"/>
<path d="M202.776 433.338L202.608 433.362H199.524C199.716 433.11 199.884 432.858 200.016 432.594L199.152 432.318C198.744 433.218 197.748 434.19 196.704 434.754C196.872 434.91 197.112 435.222 197.232 435.402C197.808 435.078 198.372 434.634 198.876 434.142H202.176C201.768 435.03 201.132 435.69 200.34 436.206C199.956 435.738 199.344 435.162 198.828 434.754L198.18 435.138C198.684 435.57 199.26 436.134 199.62 436.59C198.732 436.998 197.688 437.274 196.536 437.442C196.704 437.61 196.932 437.97 197.016 438.186C199.968 437.658 202.344 436.482 203.304 433.602L202.776 433.338ZM194.748 434.826C194.556 434.322 194.064 433.542 193.608 432.99L192.924 433.338C193.368 433.914 193.848 434.718 194.028 435.222L194.748 434.826ZM195.372 438.21H196.236V432.354H195.372V435.39C194.34 435.906 193.308 436.41 192.6 436.734L192.984 437.502C193.68 437.142 194.532 436.686 195.372 436.23V438.21ZM203.208 439.914V439.11H198.336C198.408 438.81 198.456 438.522 198.504 438.198H197.58C197.532 438.522 197.484 438.822 197.412 439.11H192.756V439.914H197.148C196.596 441.222 195.42 442.122 192.564 442.578C192.72 442.758 192.912 443.118 192.984 443.334C196.008 442.806 197.34 441.762 197.988 440.25C198.876 441.978 200.508 442.878 202.956 443.238C203.052 443.01 203.292 442.638 203.496 442.458C201.108 442.194 199.488 441.402 198.72 439.914H203.208ZM207.878 437.394C207.902 436.926 207.914 436.446 207.926 435.954H210.194V435.15H205.826V433.866H210.578V433.038H204.998V437.406C204.998 439.062 204.938 441.282 204.158 442.854C204.362 442.914 204.734 443.13 204.89 443.274C205.706 441.654 205.826 439.158 205.826 437.394V435.954H207.11C207.062 438.834 206.894 441.378 205.514 442.806C205.73 442.926 206.006 443.202 206.126 443.394C207.278 442.194 207.674 440.346 207.842 438.162H209.174C209.066 440.934 208.934 441.954 208.73 442.194C208.646 442.326 208.55 442.35 208.382 442.35C208.214 442.35 207.818 442.338 207.386 442.29C207.494 442.506 207.566 442.806 207.578 443.046C208.034 443.07 208.478 443.07 208.73 443.034C209.03 443.022 209.234 442.938 209.414 442.698C209.714 442.314 209.834 441.15 209.978 437.766C209.978 437.658 209.99 437.394 209.99 437.394H207.878ZM212.654 435.33C212.678 434.442 212.69 433.494 212.69 432.558H211.862C211.862 433.494 211.862 434.442 211.838 435.33H210.494V436.158H211.802C211.67 438.93 211.238 441.294 209.75 442.758C209.966 442.878 210.266 443.154 210.41 443.346C212.006 441.714 212.474 439.146 212.618 436.158H214.07C213.95 440.466 213.83 442.002 213.566 442.338C213.446 442.494 213.35 442.53 213.158 442.518C212.942 442.518 212.438 442.518 211.886 442.47C212.03 442.71 212.114 443.046 212.126 443.298C212.666 443.322 213.206 443.334 213.518 443.298C213.854 443.262 214.082 443.154 214.298 442.866C214.658 442.362 214.778 440.73 214.898 435.762C214.898 435.654 214.91 435.33 214.91 435.33H212.654ZM224.896 437.238C224.416 438.618 223.612 439.71 222.604 440.538C221.548 439.674 220.756 438.546 220.24 437.238H224.896ZM223.12 433.866C223 434.622 222.844 435.57 222.676 436.386H219.484C219.58 435.534 219.64 434.682 219.676 433.866H223.12ZM225.436 436.35L225.268 436.386H223.612C223.828 435.306 224.032 434.034 224.152 433.05L223.492 432.954L223.336 433.002H216.616V433.866H218.74C218.632 436.926 218.284 440.562 215.956 442.47C216.16 442.59 216.496 442.902 216.664 443.07C218.284 441.702 219.016 439.518 219.364 437.238H219.412C219.964 438.786 220.768 440.082 221.86 441.09C220.816 441.774 219.616 442.218 218.344 442.482C218.524 442.674 218.752 443.034 218.848 443.274C220.204 442.938 221.464 442.434 222.568 441.678C223.612 442.446 224.884 442.998 226.42 443.31C226.528 443.058 226.804 442.65 227.02 442.446C225.58 442.194 224.356 441.738 223.348 441.078C224.584 440.01 225.52 438.558 226.024 436.602L225.436 436.35ZM230.25 432.354C229.758 433.038 228.786 433.83 227.958 434.334C228.114 434.49 228.366 434.766 228.486 434.934C229.374 434.382 230.394 433.482 231.03 432.666L230.25 432.354ZM228.666 442.83C229.098 442.158 229.53 441.15 229.842 440.442L229.074 440.082C228.786 440.802 228.318 441.786 227.85 442.422L228.666 442.83ZM230.442 434.226C229.926 435.138 228.858 436.17 227.862 436.806C227.994 436.962 228.222 437.262 228.318 437.442C228.678 437.202 229.05 436.938 229.398 436.614V439.434H230.25V435.798C230.622 435.366 230.97 434.934 231.234 434.514L230.442 434.226ZM232.29 442.302C231.522 442.302 231.402 442.242 231.402 441.93V440.106H230.49V441.942C230.49 442.866 230.85 443.106 232.242 443.106H235.038C236.142 443.106 236.43 442.794 236.55 441.522C236.298 441.474 235.926 441.354 235.722 441.21C235.662 442.158 235.554 442.302 234.966 442.302H232.29ZM234.702 441.054C234.342 440.502 233.574 439.698 232.938 439.134L232.242 439.578C232.89 440.166 233.634 441.006 233.958 441.546L234.702 441.054ZM236.418 440.322C236.886 441.09 237.426 442.11 237.642 442.746L238.47 442.398C238.242 441.774 237.678 440.778 237.186 440.034L236.418 440.322ZM235.554 438.33V436.266H238.134V435.486H235.554V433.77H238.302V432.99H231.618V433.77H234.678V438.33H233.094V434.718H232.266V438.33H230.934V439.11H238.65V438.33H235.554ZM245.66 438.882V438.054H244.316V435.738H243.476V438.054H241.976V435.726H241.136V438.054H239.792V438.882H241.124C241.064 440.094 240.788 441.486 239.672 442.494C239.876 442.614 240.188 442.854 240.32 443.01C241.58 441.882 241.904 440.31 241.964 438.882H243.476V442.35H244.316V438.882H245.66ZM248.84 436.098C248.492 437.406 248 438.618 247.364 439.674C247.04 438.45 246.836 436.878 246.728 435.114H250.244V434.274H249.368L249.86 433.83C249.452 433.398 248.624 432.81 247.94 432.426L247.364 432.918C247.976 433.314 248.708 433.854 249.128 434.274H246.692C246.668 433.662 246.668 433.038 246.668 432.39H245.768C245.768 433.026 245.792 433.662 245.816 434.274H239.792V435.114H245.852C245.984 437.25 246.26 439.17 246.716 440.61C246.092 441.438 245.348 442.134 244.52 442.674C244.7 442.83 245.024 443.166 245.144 443.334C245.852 442.83 246.488 442.218 247.064 441.546C247.58 442.662 248.252 443.322 249.14 443.322C250.052 443.322 250.376 442.722 250.52 440.682C250.292 440.61 249.968 440.406 249.776 440.226C249.704 441.822 249.548 442.446 249.212 442.446C248.612 442.446 248.096 441.81 247.676 440.718C248.54 439.458 249.212 437.97 249.692 436.29L248.84 436.098Z" fill="#666666"/>
<rect x="184" y="436.398" width="2" height="2" fill="#666666"/>
<path d="M34.318 414.382H31.798V413.724H34.318V414.382ZM31.798 411.848H34.318V412.45H31.798V411.848ZM27.906 409.062V408.39H30.104V409.062H27.906ZM34.066 408.39V409.062H31.798V408.39H34.066ZM37.468 412.45H36.012V410.728H31.798V410.112H35.774V407.34H31.798V406.766H37.146V405.45H31.798V404.54H30.104V405.45H24.882V406.766H30.104V407.34H26.31V410.112H30.104V410.728H25.96V411.848H30.104V412.45H24.56V413.724H30.104V414.382H25.848V415.586H30.104V416.02C30.104 416.272 30.02 416.356 29.754 416.37C29.53 416.37 28.704 416.37 28.032 416.342C28.242 416.692 28.494 417.266 28.578 417.658C29.768 417.658 30.524 417.63 31.056 417.42C31.602 417.182 31.798 416.846 31.798 416.02V415.586H34.318V416.16H36.012V413.724H37.468V412.45ZM48.474 413.038V415.432H43.798V413.038H48.474ZM42.188 417.602H43.798V416.986H48.474V417.56H50.168V411.498H42.188V417.602ZM41.362 408.376V407.186C44.4 406.99 47.732 406.584 50.224 405.912L48.88 404.568C47.018 405.1 44.036 405.506 41.194 405.73L39.696 405.506V409.678C39.696 411.75 39.556 414.536 38.072 416.51C38.492 416.692 39.136 417.266 39.388 417.63C41.082 415.488 41.348 412.212 41.362 409.972H51.302V408.376H41.362ZM61.818 415.236V416.02H56.274V415.236H61.818ZM60.754 411.456V412.184H56.274V411.456H60.754ZM56.274 413.374H62.406V410.252H54.678V417.63H56.274V417.252H61.818V417.63H63.47V414.018H56.274V413.374ZM64.94 405.52H60.88C61.006 405.282 61.118 405.044 61.216 404.806L59.634 404.428C59.34 405.156 58.864 405.884 58.304 406.458V405.52H55.196C55.308 405.296 55.42 405.072 55.518 404.848L53.964 404.428C53.544 405.492 52.746 406.57 51.906 407.27C52.284 407.452 52.942 407.9 53.264 408.166C53.628 407.802 54.02 407.34 54.384 406.822H54.608C54.888 407.284 55.14 407.816 55.252 408.166L56.75 407.746C56.652 407.494 56.484 407.158 56.288 406.822H57.926C57.814 406.92 57.688 407.018 57.576 407.102C57.758 407.186 58.024 407.312 58.276 407.452H57.66V408.432H52.508V411.204H54.076V409.678H62.994V411.204H64.618V408.432H59.256V407.676C59.508 407.424 59.774 407.144 60.026 406.822H60.838C61.174 407.284 61.524 407.83 61.678 408.194L63.218 407.76C63.092 407.494 62.868 407.158 62.63 406.822H64.94V405.52ZM70.276 413.248C69.828 413.402 69.366 413.542 68.904 413.682V410.882H70.164V409.356H68.904V406.892H70.402V405.338H65.782V406.892H67.322V409.356H65.908V410.882H67.322V414.172C66.678 414.354 66.104 414.508 65.614 414.634L65.992 416.328C67.336 415.894 69.016 415.362 70.556 414.816L70.276 413.248ZM72.432 409.02H73.874V410.224H72.432V409.02ZM72.432 406.542H73.874V407.718H72.432V406.542ZM76.66 407.718H75.274V406.542H76.66V407.718ZM76.66 410.224H75.274V409.02H76.66V410.224ZM75.428 415.67V414.34H78.396V412.842H75.428V411.638H78.242V405.128H70.934V411.638H73.734V412.842H70.836V414.34H73.734V415.67H69.87V417.182H78.872V415.67H75.428Z" fill="#435CE7"/>
</svg>
