<svg width="327" height="448" viewBox="0 0 327 448" fill="none" xmlns="http://www.w3.org/2000/svg">
<path d="M4.452 12.084C3.668 12.084 2.99133 11.972 2.422 11.748C1.862 11.524 1.428 11.202 1.12 10.782C0.821333 10.3527 0.672 9.84867 0.672 9.27C0.672 8.71 0.816667 8.234 1.106 7.842C1.40467 7.44067 1.834 7.13267 2.394 6.918C2.96333 6.70333 3.64933 6.596 4.452 6.596C5.24533 6.596 5.92667 6.70333 6.496 6.918C7.06533 7.13267 7.49933 7.44067 7.798 7.842C8.106 8.234 8.26 8.71 8.26 9.27C8.26 9.84867 8.106 10.3527 7.798 10.782C7.49 11.202 7.05133 11.524 6.482 11.748C5.91267 11.972 5.236 12.084 4.452 12.084ZM4.452 11.23C5.32 11.23 5.99667 11.0527 6.482 10.698C6.97667 10.3433 7.224 9.86267 7.224 9.256C7.224 8.64933 6.97667 8.17333 6.482 7.828C5.99667 7.47333 5.32 7.296 4.452 7.296C3.584 7.296 2.90733 7.47333 2.422 7.828C1.93667 8.17333 1.694 8.64933 1.694 9.256C1.694 9.86267 1.93667 10.3433 2.422 10.698C2.90733 11.0527 3.584 11.23 4.452 11.23ZM4.452 7.17C3.724 7.17 3.10333 7.072 2.59 6.876C2.086 6.68 1.69867 6.4 1.428 6.036C1.15733 5.66267 1.022 5.21933 1.022 4.706C1.022 4.16467 1.162 3.70267 1.442 3.32C1.73133 2.928 2.13267 2.62933 2.646 2.424C3.15933 2.21867 3.76133 2.116 4.452 2.116C5.14267 2.116 5.74467 2.21867 6.258 2.424C6.78067 2.62933 7.18667 2.928 7.476 3.32C7.76533 3.70267 7.91 4.16467 7.91 4.706C7.91 5.21933 7.77467 5.66267 7.504 6.036C7.23333 6.4 6.83667 6.68 6.314 6.876C5.80067 7.072 5.18 7.17 4.452 7.17ZM4.452 6.498C5.21733 6.498 5.81467 6.33933 6.244 6.022C6.67333 5.70467 6.888 5.28 6.888 4.748C6.888 4.188 6.664 3.754 6.216 3.446C5.77733 3.12867 5.18933 2.97 4.452 2.97C3.71467 2.97 3.12667 3.12867 2.688 3.446C2.24933 3.754 2.03 4.18333 2.03 4.734C2.03 5.27533 2.24 5.70467 2.66 6.022C3.08933 6.33933 3.68667 6.498 4.452 6.498ZM13.3117 12.084C12.5557 12.084 11.8837 11.888 11.2957 11.496C10.7077 11.0947 10.2457 10.5253 9.90973 9.788C9.57373 9.04133 9.40573 8.14533 9.40573 7.1C9.40573 6.05467 9.57373 5.16333 9.90973 4.426C10.2457 3.67933 10.7077 3.11 11.2957 2.718C11.8837 2.31667 12.5557 2.116 13.3117 2.116C14.0677 2.116 14.7397 2.31667 15.3277 2.718C15.9157 3.11 16.3777 3.67933 16.7137 4.426C17.0591 5.16333 17.2317 6.05467 17.2317 7.1C17.2317 8.14533 17.0591 9.04133 16.7137 9.788C16.3777 10.5253 15.9157 11.0947 15.3277 11.496C14.7397 11.888 14.0677 12.084 13.3117 12.084ZM13.3117 11.16C13.8904 11.16 14.3944 11.006 14.8237 10.698C15.2531 10.3807 15.5891 9.92333 15.8317 9.326C16.0744 8.71933 16.1957 7.97733 16.1957 7.1C16.1957 6.22267 16.0744 5.48533 15.8317 4.888C15.5891 4.28133 15.2531 3.824 14.8237 3.516C14.3944 3.19867 13.8904 3.04 13.3117 3.04C12.7517 3.04 12.2524 3.19867 11.8137 3.516C11.3751 3.824 11.0344 4.28133 10.7917 4.888C10.5491 5.48533 10.4277 6.22267 10.4277 7.1C10.4277 7.97733 10.5491 8.71933 10.7917 9.326C11.0344 9.92333 11.3751 10.3807 11.8137 10.698C12.2524 11.006 12.7517 11.16 13.3117 11.16Z" fill="#666666"/>
<path d="M2.45 81L6.678 71.648L6.986 72.096H0.924L1.442 71.606V73.93H0.448V71.2H7.644V71.914L3.542 81H2.45ZM12.3547 81.084C11.5987 81.084 10.9267 80.888 10.3387 80.496C9.7507 80.0947 9.2887 79.5253 8.9527 78.788C8.6167 78.0413 8.4487 77.1453 8.4487 76.1C8.4487 75.0547 8.6167 74.1633 8.9527 73.426C9.2887 72.6793 9.7507 72.11 10.3387 71.718C10.9267 71.3167 11.5987 71.116 12.3547 71.116C13.1107 71.116 13.7827 71.3167 14.3707 71.718C14.9587 72.11 15.4207 72.6793 15.7567 73.426C16.102 74.1633 16.2747 75.0547 16.2747 76.1C16.2747 77.1453 16.102 78.0413 15.7567 78.788C15.4207 79.5253 14.9587 80.0947 14.3707 80.496C13.7827 80.888 13.1107 81.084 12.3547 81.084ZM12.3547 80.16C12.9334 80.16 13.4374 80.006 13.8667 79.698C14.296 79.3807 14.632 78.9233 14.8747 78.326C15.1174 77.7193 15.2387 76.9773 15.2387 76.1C15.2387 75.2227 15.1174 74.4853 14.8747 73.888C14.632 73.2813 14.296 72.824 13.8667 72.516C13.4374 72.1987 12.9334 72.04 12.3547 72.04C11.7947 72.04 11.2954 72.1987 10.8567 72.516C10.418 72.824 10.0774 73.2813 9.8347 73.888C9.59204 74.4853 9.4707 75.2227 9.4707 76.1C9.4707 76.9773 9.59204 77.7193 9.8347 78.326C10.0774 78.9233 10.418 79.3807 10.8567 79.698C11.2954 80.006 11.7947 80.16 12.3547 80.16Z" fill="#666666"/>
<path d="M4.746 150.084C3.878 150.084 3.14533 149.893 2.548 149.51C1.95067 149.118 1.498 148.558 1.19 147.83C0.882 147.093 0.728 146.211 0.728 145.184C0.728 144.073 0.914667 143.145 1.288 142.398C1.67067 141.642 2.198 141.073 2.87 140.69C3.542 140.307 4.32133 140.116 5.208 140.116C5.64667 140.116 6.06667 140.158 6.468 140.242C6.86933 140.326 7.224 140.461 7.532 140.648L7.126 141.46C6.874 141.292 6.58467 141.175 6.258 141.11C5.93133 141.035 5.586 140.998 5.222 140.998C4.16733 140.998 3.32267 141.334 2.688 142.006C2.06267 142.678 1.75 143.681 1.75 145.016C1.75 145.221 1.75933 145.478 1.778 145.786C1.806 146.085 1.862 146.383 1.946 146.682L1.596 146.416C1.69867 145.931 1.89933 145.52 2.198 145.184C2.49667 144.839 2.87 144.577 3.318 144.4C3.766 144.223 4.256 144.134 4.788 144.134C5.44133 144.134 6.01533 144.255 6.51 144.498C7.00467 144.741 7.392 145.081 7.672 145.52C7.952 145.959 8.092 146.477 8.092 147.074C8.092 147.681 7.94733 148.213 7.658 148.67C7.36867 149.118 6.96733 149.468 6.454 149.72C5.95 149.963 5.38067 150.084 4.746 150.084ZM4.704 149.23C5.17067 149.23 5.58133 149.146 5.936 148.978C6.3 148.801 6.58467 148.553 6.79 148.236C6.99533 147.909 7.098 147.531 7.098 147.102C7.098 146.458 6.874 145.945 6.426 145.562C5.98733 145.179 5.39 144.988 4.634 144.988C4.13 144.988 3.69133 145.081 3.318 145.268C2.94467 145.455 2.65067 145.711 2.436 146.038C2.22133 146.355 2.114 146.719 2.114 147.13C2.114 147.485 2.212 147.825 2.408 148.152C2.604 148.469 2.89333 148.731 3.276 148.936C3.668 149.132 4.144 149.23 4.704 149.23ZM12.9153 150.084C12.1593 150.084 11.4873 149.888 10.8993 149.496C10.3113 149.095 9.84925 148.525 9.51325 147.788C9.17725 147.041 9.00925 146.145 9.00925 145.1C9.00925 144.055 9.17725 143.163 9.51325 142.426C9.84925 141.679 10.3113 141.11 10.8993 140.718C11.4873 140.317 12.1593 140.116 12.9153 140.116C13.6713 140.116 14.3433 140.317 14.9313 140.718C15.5193 141.11 15.9813 141.679 16.3173 142.426C16.6626 143.163 16.8353 144.055 16.8353 145.1C16.8353 146.145 16.6626 147.041 16.3173 147.788C15.9813 148.525 15.5193 149.095 14.9313 149.496C14.3433 149.888 13.6713 150.084 12.9153 150.084ZM12.9153 149.16C13.4939 149.16 13.9979 149.006 14.4273 148.698C14.8566 148.381 15.1926 147.923 15.4353 147.326C15.6779 146.719 15.7993 145.977 15.7993 145.1C15.7993 144.223 15.6779 143.485 15.4353 142.888C15.1926 142.281 14.8566 141.824 14.4273 141.516C13.9979 141.199 13.4939 141.04 12.9153 141.04C12.3553 141.04 11.8559 141.199 11.4173 141.516C10.9786 141.824 10.6379 142.281 10.3953 142.888C10.1526 143.485 10.0312 144.223 10.0312 145.1C10.0312 145.977 10.1526 146.719 10.3953 147.326C10.6379 147.923 10.9786 148.381 11.4173 148.698C11.8559 149.006 12.3553 149.16 12.9153 149.16Z" fill="#666666"/>
<path d="M3.822 219.084C3.122 219.084 2.45467 218.972 1.82 218.748C1.18533 218.515 0.681333 218.207 0.308 217.824L0.798 217.026C1.106 217.353 1.526 217.623 2.058 217.838C2.59933 218.053 3.18267 218.16 3.808 218.16C4.63867 218.16 5.26867 217.978 5.698 217.614C6.13667 217.241 6.356 216.755 6.356 216.158C6.356 215.738 6.25333 215.379 6.048 215.08C5.852 214.772 5.516 214.534 5.04 214.366C4.564 214.198 3.91067 214.114 3.08 214.114H0.994L1.498 209.2H6.86V210.096H1.904L2.422 209.606L1.988 213.722L1.47 213.218H3.304C4.29333 213.218 5.08667 213.339 5.684 213.582C6.28133 213.825 6.71067 214.165 6.972 214.604C7.24267 215.033 7.378 215.537 7.378 216.116C7.378 216.667 7.24733 217.171 6.986 217.628C6.72467 218.076 6.33267 218.431 5.81 218.692C5.28733 218.953 4.62467 219.084 3.822 219.084ZM12.3137 219.084C11.5577 219.084 10.8857 218.888 10.2977 218.496C9.70969 218.095 9.24769 217.525 8.91169 216.788C8.57569 216.041 8.40769 215.145 8.40769 214.1C8.40769 213.055 8.57569 212.163 8.91169 211.426C9.24769 210.679 9.70969 210.11 10.2977 209.718C10.8857 209.317 11.5577 209.116 12.3137 209.116C13.0697 209.116 13.7417 209.317 14.3297 209.718C14.9177 210.11 15.3797 210.679 15.7157 211.426C16.061 212.163 16.2337 213.055 16.2337 214.1C16.2337 215.145 16.061 216.041 15.7157 216.788C15.3797 217.525 14.9177 218.095 14.3297 218.496C13.7417 218.888 13.0697 219.084 12.3137 219.084ZM12.3137 218.16C12.8924 218.16 13.3964 218.006 13.8257 217.698C14.255 217.381 14.591 216.923 14.8337 216.326C15.0764 215.719 15.1977 214.977 15.1977 214.1C15.1977 213.223 15.0764 212.485 14.8337 211.888C14.591 211.281 14.255 210.824 13.8257 210.516C13.3964 210.199 12.8924 210.04 12.3137 210.04C11.7537 210.04 11.2544 210.199 10.8157 210.516C10.377 210.824 10.0364 211.281 9.79369 211.888C9.55102 212.485 9.42969 213.223 9.42969 214.1C9.42969 214.977 9.55102 215.719 9.79369 216.326C10.0364 216.923 10.377 217.381 10.8157 217.698C11.2544 218.006 11.7537 218.16 12.3137 218.16Z" fill="#666666"/>
<path d="M0.56 285.424V284.696L5.754 278.2H6.874L1.722 284.696L1.176 284.528H9.058V285.424H0.56ZM6.09 288V285.424L6.118 284.528V282.26H7.098V288H6.09ZM13.6399 288.084C12.8839 288.084 12.2119 287.888 11.6239 287.496C11.0359 287.095 10.5739 286.525 10.2379 285.788C9.90186 285.041 9.73386 284.145 9.73386 283.1C9.73386 282.055 9.90186 281.163 10.2379 280.426C10.5739 279.679 11.0359 279.11 11.6239 278.718C12.2119 278.317 12.8839 278.116 13.6399 278.116C14.3959 278.116 15.0679 278.317 15.6559 278.718C16.2439 279.11 16.7059 279.679 17.0419 280.426C17.3872 281.163 17.5599 282.055 17.5599 283.1C17.5599 284.145 17.3872 285.041 17.0419 285.788C16.7059 286.525 16.2439 287.095 15.6559 287.496C15.0679 287.888 14.3959 288.084 13.6399 288.084ZM13.6399 287.16C14.2185 287.16 14.7225 287.006 15.1519 286.698C15.5812 286.381 15.9172 285.923 16.1599 285.326C16.4025 284.719 16.5239 283.977 16.5239 283.1C16.5239 282.223 16.4025 281.485 16.1599 280.888C15.9172 280.281 15.5812 279.824 15.1519 279.516C14.7225 279.199 14.2185 279.04 13.6399 279.04C13.0799 279.04 12.5805 279.199 12.1419 279.516C11.7032 279.824 11.3625 280.281 11.1199 280.888C10.8772 281.485 10.7559 282.223 10.7559 283.1C10.7559 283.977 10.8772 284.719 11.1199 285.326C11.3625 285.923 11.7032 286.381 12.1419 286.698C12.5805 287.006 13.0799 287.16 13.6399 287.16Z" fill="#666666"/>
<path d="M3.654 357.084C2.94467 357.084 2.27267 356.972 1.638 356.748C1.01267 356.515 0.508667 356.207 0.126 355.824L0.616 355.026C0.933333 355.353 1.358 355.623 1.89 355.838C2.43133 356.053 3.01933 356.16 3.654 356.16C4.466 356.16 5.08667 355.983 5.516 355.628C5.95467 355.273 6.174 354.797 6.174 354.2C6.174 353.603 5.95933 353.127 5.53 352.772C5.11 352.417 4.44267 352.24 3.528 352.24H2.828V351.498L5.852 347.704L5.992 348.096H0.532V347.2H6.832V347.914L3.808 351.708L3.318 351.386H3.696C4.872 351.386 5.74933 351.647 6.328 352.17C6.916 352.693 7.21 353.365 7.21 354.186C7.21 354.737 7.07933 355.231 6.818 355.67C6.55667 356.109 6.16 356.454 5.628 356.706C5.10533 356.958 4.44733 357.084 3.654 357.084ZM12.2863 357.084C11.5303 357.084 10.8583 356.888 10.2703 356.496C9.68234 356.095 9.22034 355.525 8.88434 354.788C8.54834 354.041 8.38034 353.145 8.38034 352.1C8.38034 351.055 8.54834 350.163 8.88434 349.426C9.22034 348.679 9.68234 348.11 10.2703 347.718C10.8583 347.317 11.5303 347.116 12.2863 347.116C13.0423 347.116 13.7143 347.317 14.3023 347.718C14.8903 348.11 15.3523 348.679 15.6883 349.426C16.0337 350.163 16.2063 351.055 16.2063 352.1C16.2063 353.145 16.0337 354.041 15.6883 354.788C15.3523 355.525 14.8903 356.095 14.3023 356.496C13.7143 356.888 13.0423 357.084 12.2863 357.084ZM12.2863 356.16C12.865 356.16 13.369 356.006 13.7983 355.698C14.2277 355.381 14.5637 354.923 14.8063 354.326C15.049 353.719 15.1703 352.977 15.1703 352.1C15.1703 351.223 15.049 350.485 14.8063 349.888C14.5637 349.281 14.2277 348.824 13.7983 348.516C13.369 348.199 12.865 348.04 12.2863 348.04C11.7263 348.04 11.227 348.199 10.7883 348.516C10.3497 348.824 10.009 349.281 9.76634 349.888C9.52368 350.485 9.40234 351.223 9.40234 352.1C9.40234 352.977 9.52368 353.719 9.76634 354.326C10.009 354.923 10.3497 355.381 10.7883 355.698C11.227 356.006 11.7263 356.16 12.2863 356.16Z" fill="#666666"/>
<path d="M19.546 446V445.286L23.62 441.296C23.9933 440.932 24.2733 440.615 24.46 440.344C24.6467 440.064 24.7727 439.803 24.838 439.56C24.9033 439.317 24.936 439.089 24.936 438.874C24.936 438.305 24.74 437.857 24.348 437.53C23.9653 437.203 23.396 437.04 22.64 437.04C22.0613 437.04 21.548 437.129 21.1 437.306C20.6613 437.483 20.2833 437.759 19.966 438.132L19.252 437.516C19.6347 437.068 20.1247 436.723 20.722 436.48C21.3193 436.237 21.9867 436.116 22.724 436.116C23.3867 436.116 23.9607 436.223 24.446 436.438C24.9313 436.643 25.3047 436.947 25.566 437.348C25.8367 437.749 25.972 438.221 25.972 438.762C25.972 439.079 25.9253 439.392 25.832 439.7C25.748 440.008 25.5893 440.335 25.356 440.68C25.132 441.016 24.8007 441.399 24.362 441.828L20.624 445.496L20.344 445.104H26.42V446H19.546ZM31.3137 446.084C30.5577 446.084 29.8857 445.888 29.2977 445.496C28.7097 445.095 28.2477 444.525 27.9117 443.788C27.5757 443.041 27.4077 442.145 27.4077 441.1C27.4077 440.055 27.5757 439.163 27.9117 438.426C28.2477 437.679 28.7097 437.11 29.2977 436.718C29.8857 436.317 30.5577 436.116 31.3137 436.116C32.0697 436.116 32.7417 436.317 33.3297 436.718C33.9177 437.11 34.3797 437.679 34.7157 438.426C35.061 439.163 35.2337 440.055 35.2337 441.1C35.2337 442.145 35.061 443.041 34.7157 443.788C34.3797 444.525 33.9177 445.095 33.3297 445.496C32.7417 445.888 32.0697 446.084 31.3137 446.084ZM31.3137 445.16C31.8924 445.16 32.3964 445.006 32.8257 444.698C33.255 444.381 33.591 443.923 33.8337 443.326C34.0764 442.719 34.1977 441.977 34.1977 441.1C34.1977 440.223 34.0764 439.485 33.8337 438.888C33.591 438.281 33.255 437.824 32.8257 437.516C32.3964 437.199 31.8924 437.04 31.3137 437.04C30.7537 437.04 30.2544 437.199 29.8157 437.516C29.377 437.824 29.0364 438.281 28.7937 438.888C28.551 439.485 28.4297 440.223 28.4297 441.1C28.4297 441.977 28.551 442.719 28.7937 443.326C29.0364 443.923 29.377 444.381 29.8157 444.698C30.2544 445.006 30.7537 445.16 31.3137 445.16Z" fill="#666666"/>
<path d="M140.56 443.424V442.696L145.754 436.2H146.874L141.722 442.696L141.176 442.528H149.058V443.424H140.56ZM146.09 446V443.424L146.118 442.528V440.26H147.098V446H146.09ZM153.64 446.084C152.884 446.084 152.212 445.888 151.624 445.496C151.036 445.095 150.574 444.525 150.238 443.788C149.902 443.041 149.734 442.145 149.734 441.1C149.734 440.055 149.902 439.163 150.238 438.426C150.574 437.679 151.036 437.11 151.624 436.718C152.212 436.317 152.884 436.116 153.64 436.116C154.396 436.116 155.068 436.317 155.656 436.718C156.244 437.11 156.706 437.679 157.042 438.426C157.387 439.163 157.56 440.055 157.56 441.1C157.56 442.145 157.387 443.041 157.042 443.788C156.706 444.525 156.244 445.095 155.656 445.496C155.068 445.888 154.396 446.084 153.64 446.084ZM153.64 445.16C154.219 445.16 154.723 445.006 155.152 444.698C155.581 444.381 155.917 443.923 156.16 443.326C156.403 442.719 156.524 441.977 156.524 441.1C156.524 440.223 156.403 439.485 156.16 438.888C155.917 438.281 155.581 437.824 155.152 437.516C154.723 437.199 154.219 437.04 153.64 437.04C153.08 437.04 152.581 437.199 152.142 437.516C151.703 437.824 151.363 438.281 151.12 438.888C150.877 439.485 150.756 440.223 150.756 441.1C150.756 441.977 150.877 442.719 151.12 443.326C151.363 443.923 151.703 444.381 152.142 444.698C152.581 445.006 153.08 445.16 153.64 445.16Z" fill="#666666"/>
<path d="M85.654 446.084C84.9447 446.084 84.2727 445.972 83.638 445.748C83.0127 445.515 82.5087 445.207 82.126 444.824L82.616 444.026C82.9333 444.353 83.358 444.623 83.89 444.838C84.4313 445.053 85.0193 445.16 85.654 445.16C86.466 445.16 87.0867 444.983 87.516 444.628C87.9547 444.273 88.174 443.797 88.174 443.2C88.174 442.603 87.9593 442.127 87.53 441.772C87.11 441.417 86.4427 441.24 85.528 441.24H84.828V440.498L87.852 436.704L87.992 437.096H82.532V436.2H88.832V436.914L85.808 440.708L85.318 440.386H85.696C86.872 440.386 87.7493 440.647 88.328 441.17C88.916 441.693 89.21 442.365 89.21 443.186C89.21 443.737 89.0793 444.231 88.818 444.67C88.5567 445.109 88.16 445.454 87.628 445.706C87.1053 445.958 86.4473 446.084 85.654 446.084ZM94.2863 446.084C93.5303 446.084 92.8583 445.888 92.2703 445.496C91.6823 445.095 91.2203 444.525 90.8843 443.788C90.5483 443.041 90.3803 442.145 90.3803 441.1C90.3803 440.055 90.5483 439.163 90.8843 438.426C91.2203 437.679 91.6823 437.11 92.2703 436.718C92.8583 436.317 93.5303 436.116 94.2863 436.116C95.0423 436.116 95.7143 436.317 96.3023 436.718C96.8903 437.11 97.3523 437.679 97.6883 438.426C98.0337 439.163 98.2063 440.055 98.2063 441.1C98.2063 442.145 98.0337 443.041 97.6883 443.788C97.3523 444.525 96.8903 445.095 96.3023 445.496C95.7143 445.888 95.0423 446.084 94.2863 446.084ZM94.2863 445.16C94.865 445.16 95.369 445.006 95.7983 444.698C96.2277 444.381 96.5637 443.923 96.8063 443.326C97.049 442.719 97.1703 441.977 97.1703 441.1C97.1703 440.223 97.049 439.485 96.8063 438.888C96.5637 438.281 96.2277 437.824 95.7983 437.516C95.369 437.199 94.865 437.04 94.2863 437.04C93.7263 437.04 93.227 437.199 92.7883 437.516C92.3497 437.824 92.009 438.281 91.7663 438.888C91.5237 439.485 91.4023 440.223 91.4023 441.1C91.4023 441.977 91.5237 442.719 91.7663 443.326C92.009 443.923 92.3497 444.381 92.7883 444.698C93.227 445.006 93.7263 445.16 94.2863 445.16Z" fill="#666666"/>
<path d="M203.822 446.084C203.122 446.084 202.455 445.972 201.82 445.748C201.185 445.515 200.681 445.207 200.308 444.824L200.798 444.026C201.106 444.353 201.526 444.623 202.058 444.838C202.599 445.053 203.183 445.16 203.808 445.16C204.639 445.16 205.269 444.978 205.698 444.614C206.137 444.241 206.356 443.755 206.356 443.158C206.356 442.738 206.253 442.379 206.048 442.08C205.852 441.772 205.516 441.534 205.04 441.366C204.564 441.198 203.911 441.114 203.08 441.114H200.994L201.498 436.2H206.86V437.096H201.904L202.422 436.606L201.988 440.722L201.47 440.218H203.304C204.293 440.218 205.087 440.339 205.684 440.582C206.281 440.825 206.711 441.165 206.972 441.604C207.243 442.033 207.378 442.537 207.378 443.116C207.378 443.667 207.247 444.171 206.986 444.628C206.725 445.076 206.333 445.431 205.81 445.692C205.287 445.953 204.625 446.084 203.822 446.084ZM212.314 446.084C211.558 446.084 210.886 445.888 210.298 445.496C209.71 445.095 209.248 444.525 208.912 443.788C208.576 443.041 208.408 442.145 208.408 441.1C208.408 440.055 208.576 439.163 208.912 438.426C209.248 437.679 209.71 437.11 210.298 436.718C210.886 436.317 211.558 436.116 212.314 436.116C213.07 436.116 213.742 436.317 214.33 436.718C214.918 437.11 215.38 437.679 215.716 438.426C216.061 439.163 216.234 440.055 216.234 441.1C216.234 442.145 216.061 443.041 215.716 443.788C215.38 444.525 214.918 445.095 214.33 445.496C213.742 445.888 213.07 446.084 212.314 446.084ZM212.314 445.16C212.892 445.16 213.396 445.006 213.826 444.698C214.255 444.381 214.591 443.923 214.834 443.326C215.076 442.719 215.198 441.977 215.198 441.1C215.198 440.223 215.076 439.485 214.834 438.888C214.591 438.281 214.255 437.824 213.826 437.516C213.396 437.199 212.892 437.04 212.314 437.04C211.754 437.04 211.254 437.199 210.816 437.516C210.377 437.824 210.036 438.281 209.794 438.888C209.551 439.485 209.43 440.223 209.43 441.1C209.43 441.977 209.551 442.719 209.794 443.326C210.036 443.923 210.377 444.381 210.816 444.698C211.254 445.006 211.754 445.16 212.314 445.16Z" fill="#666666"/>
<path d="M263.746 446.084C262.878 446.084 262.145 445.893 261.548 445.51C260.951 445.118 260.498 444.558 260.19 443.83C259.882 443.093 259.728 442.211 259.728 441.184C259.728 440.073 259.915 439.145 260.288 438.398C260.671 437.642 261.198 437.073 261.87 436.69C262.542 436.307 263.321 436.116 264.208 436.116C264.647 436.116 265.067 436.158 265.468 436.242C265.869 436.326 266.224 436.461 266.532 436.648L266.126 437.46C265.874 437.292 265.585 437.175 265.258 437.11C264.931 437.035 264.586 436.998 264.222 436.998C263.167 436.998 262.323 437.334 261.688 438.006C261.063 438.678 260.75 439.681 260.75 441.016C260.75 441.221 260.759 441.478 260.778 441.786C260.806 442.085 260.862 442.383 260.946 442.682L260.596 442.416C260.699 441.931 260.899 441.52 261.198 441.184C261.497 440.839 261.87 440.577 262.318 440.4C262.766 440.223 263.256 440.134 263.788 440.134C264.441 440.134 265.015 440.255 265.51 440.498C266.005 440.741 266.392 441.081 266.672 441.52C266.952 441.959 267.092 442.477 267.092 443.074C267.092 443.681 266.947 444.213 266.658 444.67C266.369 445.118 265.967 445.468 265.454 445.72C264.95 445.963 264.381 446.084 263.746 446.084ZM263.704 445.23C264.171 445.23 264.581 445.146 264.936 444.978C265.3 444.801 265.585 444.553 265.79 444.236C265.995 443.909 266.098 443.531 266.098 443.102C266.098 442.458 265.874 441.945 265.426 441.562C264.987 441.179 264.39 440.988 263.634 440.988C263.13 440.988 262.691 441.081 262.318 441.268C261.945 441.455 261.651 441.711 261.436 442.038C261.221 442.355 261.114 442.719 261.114 443.13C261.114 443.485 261.212 443.825 261.408 444.152C261.604 444.469 261.893 444.731 262.276 444.936C262.668 445.132 263.144 445.23 263.704 445.23ZM271.915 446.084C271.159 446.084 270.487 445.888 269.899 445.496C269.311 445.095 268.849 444.525 268.513 443.788C268.177 443.041 268.009 442.145 268.009 441.1C268.009 440.055 268.177 439.163 268.513 438.426C268.849 437.679 269.311 437.11 269.899 436.718C270.487 436.317 271.159 436.116 271.915 436.116C272.671 436.116 273.343 436.317 273.931 436.718C274.519 437.11 274.981 437.679 275.317 438.426C275.663 439.163 275.835 440.055 275.835 441.1C275.835 442.145 275.663 443.041 275.317 443.788C274.981 444.525 274.519 445.095 273.931 445.496C273.343 445.888 272.671 446.084 271.915 446.084ZM271.915 445.16C272.494 445.16 272.998 445.006 273.427 444.698C273.857 444.381 274.193 443.923 274.435 443.326C274.678 442.719 274.799 441.977 274.799 441.1C274.799 440.223 274.678 439.485 274.435 438.888C274.193 438.281 273.857 437.824 273.427 437.516C272.998 437.199 272.494 437.04 271.915 437.04C271.355 437.04 270.856 437.199 270.417 437.516C269.979 437.824 269.638 438.281 269.395 438.888C269.153 439.485 269.031 440.223 269.031 441.1C269.031 441.977 269.153 442.719 269.395 443.326C269.638 443.923 269.979 444.381 270.417 444.698C270.856 445.006 271.355 445.16 271.915 445.16Z" fill="#666666"/>
<path d="M312.45 446L316.678 436.648L316.986 437.096H310.924L311.442 436.606V438.93H310.448V436.2H317.644V436.914L313.542 446H312.45ZM322.355 446.084C321.599 446.084 320.927 445.888 320.339 445.496C319.751 445.095 319.289 444.525 318.953 443.788C318.617 443.041 318.449 442.145 318.449 441.1C318.449 440.055 318.617 439.163 318.953 438.426C319.289 437.679 319.751 437.11 320.339 436.718C320.927 436.317 321.599 436.116 322.355 436.116C323.111 436.116 323.783 436.317 324.371 436.718C324.959 437.11 325.421 437.679 325.757 438.426C326.102 439.163 326.275 440.055 326.275 441.1C326.275 442.145 326.102 443.041 325.757 443.788C325.421 444.525 324.959 445.095 324.371 445.496C323.783 445.888 323.111 446.084 322.355 446.084ZM322.355 445.16C322.933 445.16 323.437 445.006 323.867 444.698C324.296 444.381 324.632 443.923 324.875 443.326C325.117 442.719 325.239 441.977 325.239 441.1C325.239 440.223 325.117 439.485 324.875 438.888C324.632 438.281 324.296 437.824 323.867 437.516C323.437 437.199 322.933 437.04 322.355 437.04C321.795 437.04 321.295 437.199 320.857 437.516C320.418 437.824 320.077 438.281 319.835 438.888C319.592 439.485 319.471 440.223 319.471 441.1C319.471 441.977 319.592 442.719 319.835 443.326C320.077 443.923 320.418 444.381 320.857 444.698C321.295 445.006 321.795 445.16 322.355 445.16Z" fill="#666666"/>
<line x1="27.5" y1="2" x2="27.5" y2="425" stroke="#222222"/>
<line x1="87.5" y1="2" x2="87.5" y2="425" stroke="#DDDDDD"/>
<line x1="147.5" y1="2" x2="147.5" y2="425" stroke="#DDDDDD"/>
<line x1="207.5" y1="2" x2="207.5" y2="425" stroke="#DDDDDD"/>
<line x1="267.5" y1="2" x2="267.5" y2="425" stroke="#DDDDDD"/>
<line x1="327" y1="74.5" x2="28" y2="74.5" stroke="#DDDDDD"/>
<line x1="327" y1="144.5" x2="28" y2="144.5" stroke="#DDDDDD"/>
<line x1="327" y1="214.5" x2="28" y2="214.5" stroke="#DDDDDD"/>
<line x1="327" y1="284.5" x2="28" y2="284.5" stroke="#DDDDDD"/>
<line x1="327" y1="354.5" x2="28" y2="354.5" stroke="#DDDDDD"/>
<line x1="327" y1="424.5" x2="28" y2="424.5" stroke="#222222"/>
<circle cx="292" cy="128" r="9.5" fill="#435CE7" stroke="#435CE7"/>
<path d="M296.601 129.234H294.865V127.26H293.157V129.234H289.951L294.501 123.2H292.555L287.725 129.514V130.774H293.101V133H294.865V130.774H296.601V129.234Z" fill="white"/>
<circle cx="298" cy="214" r="9.5" fill="#435CE7" stroke="#435CE7"/>
<path d="M294.633 209.2V212.406H296.327V210.74H300.177L296.495 219H298.441L302.249 210.418V209.2H294.633Z" fill="white"/>
<circle cx="268" cy="214" r="9.5" fill="#435CE7" stroke="#435CE7"/>
<path d="M268.179 212.952C267.087 212.952 266.149 213.288 265.561 213.974V213.96C265.561 211.734 266.723 210.586 268.571 210.586C269.257 210.586 269.901 210.712 270.433 211.062L271.105 209.69C270.447 209.27 269.509 209.06 268.529 209.06C265.687 209.06 263.727 210.908 263.727 214.268C263.727 217.418 265.295 219.14 267.969 219.14C269.971 219.14 271.553 217.908 271.553 215.962C271.553 214.128 270.111 212.952 268.179 212.952ZM267.871 217.712C266.569 217.712 265.841 216.984 265.841 216.06C265.841 215.094 266.653 214.38 267.829 214.38C269.019 214.38 269.789 215.024 269.789 216.046C269.789 217.068 269.005 217.712 267.871 217.712Z" fill="white"/>
<circle cx="250" cy="214" r="9.5" fill="#435CE7" stroke="#435CE7"/>
<path d="M250.094 212.994H249.156L249.366 210.726H253.58V209.2H247.826L247.322 214.534H249.688C251.718 214.534 252.32 215.122 252.32 216.06C252.32 216.984 251.55 217.558 250.248 217.558C249.142 217.558 248.078 217.18 247.364 216.592L246.594 218.006C247.49 218.72 248.89 219.14 250.276 219.14C252.908 219.14 254.154 217.712 254.154 215.99C254.154 214.254 252.992 212.994 250.094 212.994Z" fill="white"/>
<circle cx="223" cy="176" r="10" fill="#888888"/>
<path d="M223.031 171.06C221.029 171.06 219.447 172.292 219.447 174.238C219.447 176.072 220.889 177.248 222.821 177.248C223.913 177.248 224.851 176.912 225.439 176.226V176.24C225.439 178.466 224.277 179.614 222.429 179.614C221.743 179.614 221.099 179.488 220.567 179.138L219.895 180.51C220.553 180.93 221.491 181.14 222.471 181.14C225.313 181.14 227.273 179.292 227.273 175.932C227.273 172.782 225.705 171.06 223.031 171.06ZM223.171 175.82C221.981 175.82 221.211 175.176 221.211 174.154C221.211 173.132 221.995 172.488 223.129 172.488C224.431 172.488 225.159 173.216 225.159 174.14C225.159 175.106 224.347 175.82 223.171 175.82Z" fill="white"/>
<circle cx="128" cy="92" r="10" fill="#888888"/>
<path d="M130.406 91.848C131.204 91.414 131.652 90.714 131.652 89.79C131.652 88.11 130.168 87.06 127.984 87.06C125.814 87.06 124.344 88.11 124.344 89.79C124.344 90.714 124.778 91.414 125.562 91.848C124.554 92.31 123.994 93.108 123.994 94.186C123.994 96.006 125.548 97.14 127.984 97.14C130.42 97.14 132.002 96.006 132.002 94.186C132.002 93.108 131.428 92.31 130.406 91.848ZM127.984 88.488C129.104 88.488 129.86 88.992 129.86 89.874C129.86 90.714 129.146 91.246 127.984 91.246C126.836 91.246 126.136 90.714 126.136 89.874C126.136 88.992 126.864 88.488 127.984 88.488ZM127.984 95.712C126.64 95.712 125.828 95.124 125.828 94.13C125.828 93.164 126.64 92.562 127.984 92.562C129.328 92.562 130.168 93.164 130.168 94.13C130.168 95.124 129.328 95.712 127.984 95.712Z" fill="white"/>
<circle cx="122" cy="228" r="10" fill="#888888"/>
<path d="M117.405 223.2V224.726H119.477V233H121.297V223.2H117.405ZM122.487 223.2V224.726H124.559V233H126.379V223.2H122.487Z" fill="white"/>
<circle cx="137" cy="245" r="10" fill="#888888"/>
<path d="M130.497 240.2V241.726H132.569V250H134.389V240.2H130.497ZM138.561 248.46L141.179 245.968C142.537 244.694 142.803 243.826 142.803 242.874C142.803 241.138 141.431 240.06 139.303 240.06C137.693 240.06 136.335 240.662 135.579 241.684L136.853 242.664C137.399 241.964 138.197 241.642 139.149 241.642C140.353 241.642 140.969 242.16 140.969 243.056C140.969 243.602 140.801 244.176 139.849 245.086L135.957 248.782V250H143.181V248.46H138.561Z" fill="white"/>
<circle cx="98" cy="228" r="10" fill="#888888"/>
<path d="M91.4968 223.2V224.726H93.5688V233H95.3888V223.2H91.4968ZM101.255 227.246L103.635 224.418V223.2H96.9568V224.726H101.409L99.1828 227.372V228.618H100.079C101.563 228.618 102.207 229.192 102.207 230.074C102.207 230.984 101.437 231.558 100.135 231.558C99.0288 231.558 97.9648 231.18 97.2648 230.592L96.4808 232.006C97.3908 232.72 98.7768 233.14 100.163 233.14C102.795 233.14 104.041 231.712 104.041 230.06C104.041 228.59 103.103 227.484 101.255 227.246Z" fill="white"/>
<circle cx="70" cy="350" r="10" fill="#888888"/>
<path d="M64.4553 353.46L67.0733 350.968C68.4313 349.694 68.6973 348.826 68.6973 347.874C68.6973 346.138 67.3253 345.06 65.1973 345.06C63.5873 345.06 62.2293 345.662 61.4733 346.684L62.7473 347.664C63.2933 346.964 64.0913 346.642 65.0433 346.642C66.2473 346.642 66.8633 347.16 66.8633 348.056C66.8633 348.602 66.6953 349.176 65.7433 350.086L61.8513 353.782V355H69.0753V353.46H64.4553ZM73.9228 355.14C76.2608 355.14 78.0248 353.32 78.0248 350.1C78.0248 346.88 76.2608 345.06 73.9228 345.06C71.5988 345.06 69.8348 346.88 69.8348 350.1C69.8348 353.32 71.5988 355.14 73.9228 355.14ZM73.9228 353.558C72.5928 353.558 71.6688 352.466 71.6688 350.1C71.6688 347.734 72.5928 346.642 73.9228 346.642C75.2668 346.642 76.1908 347.734 76.1908 350.1C76.1908 352.466 75.2668 353.558 73.9228 353.558Z" fill="white"/>
<circle cx="124" cy="302" r="10" fill="#888888"/>
<path d="M117.483 297.2V298.726H119.555V307H121.375V297.2H117.483ZM126.135 300.994H125.197L125.407 298.726H129.621V297.2H123.867L123.363 302.534H125.729C127.759 302.534 128.361 303.122 128.361 304.06C128.361 304.984 127.591 305.558 126.289 305.558C125.183 305.558 124.119 305.18 123.405 304.592L122.635 306.006C123.531 306.72 124.931 307.14 126.317 307.14C128.949 307.14 130.195 305.712 130.195 303.99C130.195 302.254 129.033 300.994 126.135 300.994Z" fill="white"/>
<circle cx="192" cy="350" r="10" fill="#888888"/>
<path d="M185.505 345.2V346.726H187.577V355H189.397V345.2H185.505ZM197.447 349.848C198.245 349.414 198.693 348.714 198.693 347.79C198.693 346.11 197.209 345.06 195.025 345.06C192.855 345.06 191.385 346.11 191.385 347.79C191.385 348.714 191.819 349.414 192.603 349.848C191.595 350.31 191.035 351.108 191.035 352.186C191.035 354.006 192.589 355.14 195.025 355.14C197.461 355.14 199.043 354.006 199.043 352.186C199.043 351.108 198.469 350.31 197.447 349.848ZM195.025 346.488C196.145 346.488 196.901 346.992 196.901 347.874C196.901 348.714 196.187 349.246 195.025 349.246C193.877 349.246 193.177 348.714 193.177 347.874C193.177 346.992 193.905 346.488 195.025 346.488ZM195.025 353.712C193.681 353.712 192.869 353.124 192.869 352.13C192.869 351.164 193.681 350.562 195.025 350.562C196.369 350.562 197.209 351.164 197.209 352.13C197.209 353.124 196.369 353.712 195.025 353.712Z" fill="white"/>
<circle cx="169" cy="350" r="10" fill="#888888"/>
<path d="M162.182 345.2V346.726H164.254V355H166.074V345.2H162.182ZM171.072 345.06C169.07 345.06 167.488 346.292 167.488 348.238C167.488 350.072 168.93 351.248 170.862 351.248C171.954 351.248 172.892 350.912 173.48 350.226V350.24C173.48 352.466 172.318 353.614 170.47 353.614C169.784 353.614 169.14 353.488 168.608 353.138L167.936 354.51C168.594 354.93 169.532 355.14 170.512 355.14C173.354 355.14 175.314 353.292 175.314 349.932C175.314 346.782 173.746 345.06 171.072 345.06ZM171.212 349.82C170.022 349.82 169.252 349.176 169.252 348.154C169.252 347.132 170.036 346.488 171.17 346.488C172.472 346.488 173.2 347.216 173.2 348.14C173.2 349.106 172.388 349.82 171.212 349.82Z" fill="white"/>
<circle cx="231" cy="309" r="10" fill="#888888"/>
<path d="M224.182 304.2V305.726H226.254V314H228.074V304.2H224.182ZM234.22 307.952C233.128 307.952 232.19 308.288 231.602 308.974V308.96C231.602 306.734 232.764 305.586 234.612 305.586C235.298 305.586 235.942 305.712 236.474 306.062L237.146 304.69C236.488 304.27 235.55 304.06 234.57 304.06C231.728 304.06 229.768 305.908 229.768 309.268C229.768 312.418 231.336 314.14 234.01 314.14C236.012 314.14 237.594 312.908 237.594 310.962C237.594 309.128 236.152 307.952 234.22 307.952ZM233.912 312.712C232.61 312.712 231.882 311.984 231.882 311.06C231.882 310.094 232.694 309.38 233.87 309.38C235.06 309.38 235.83 310.024 235.83 311.046C235.83 312.068 235.046 312.712 233.912 312.712Z" fill="white"/>
<circle cx="258" cy="334" r="10" fill="#888888"/>
<path d="M251.312 329.2V330.726H253.384V339H255.204V329.2H251.312ZM256.674 329.2V332.406H258.368V330.74H262.218L258.536 339H260.482L264.29 330.418V329.2H256.674Z" fill="white"/>
<circle cx="229" cy="228" r="10" fill="#888888"/>
<path d="M222.361 223.2V224.726H224.433V233H226.253V223.2H222.361ZM232.035 233.14C234.373 233.14 236.137 231.32 236.137 228.1C236.137 224.88 234.373 223.06 232.035 223.06C229.711 223.06 227.947 224.88 227.947 228.1C227.947 231.32 229.711 233.14 232.035 233.14ZM232.035 231.558C230.705 231.558 229.781 230.466 229.781 228.1C229.781 225.734 230.705 224.642 232.035 224.642C233.379 224.642 234.303 225.734 234.303 228.1C234.303 230.466 233.379 231.558 232.035 231.558Z" fill="white"/>
<circle cx="60" cy="252" r="10" fill="#888888"/>
<path d="M53.32 247.2V248.726H55.392V257H57.212V247.2H53.32ZM67.642 253.234H65.906V251.26H64.198V253.234H60.992L65.542 247.2H63.596L58.766 253.514V254.774H64.142V257H65.906V254.774H67.642V253.234Z" fill="white"/>
<circle cx="253" cy="129" r="9.5" fill="#435CE7" stroke="#435CE7"/>
<path d="M254.214 128.246L256.594 125.418V124.2H249.916V125.726H254.368L252.142 128.372V129.618H253.038C254.522 129.618 255.166 130.192 255.166 131.074C255.166 131.984 254.396 132.558 253.094 132.558C251.988 132.558 250.924 132.18 250.224 131.592L249.44 133.006C250.35 133.72 251.736 134.14 253.122 134.14C255.754 134.14 257 132.712 257 131.06C257 129.59 256.062 128.484 254.214 128.246Z" fill="white"/>
<circle cx="236" cy="104" r="9.5" fill="#435CE7" stroke="#435CE7"/>
<path d="M233.446 99.2V100.726H235.518V109H237.338V99.2H233.446Z" fill="white"/>
<circle cx="223" cy="128" r="9.5" fill="#435CE7" stroke="#435CE7"/>
<path d="M222.52 131.46L225.138 128.968C226.496 127.694 226.762 126.826 226.762 125.874C226.762 124.138 225.39 123.06 223.262 123.06C221.652 123.06 220.294 123.662 219.538 124.684L220.812 125.664C221.358 124.964 222.156 124.642 223.108 124.642C224.312 124.642 224.928 125.16 224.928 126.056C224.928 126.602 224.76 127.176 223.808 128.086L219.916 131.782V133H227.14V131.46H222.52Z" fill="white"/>
<path d="M43.88 10.712C43.48 9.192 42.552 6.68 41.8 4.808L40.056 5.32C40.792 7.288 41.64 9.848 41.976 11.384L43.88 10.712ZM50.024 13.752V10.744L51.48 11.48C52.312 9.944 53.32 7.688 54.024 5.672L52.312 4.856C51.784 6.68 50.824 8.952 50.024 10.472V1.656L48.056 1.656V13.752H45.96V1.656L43.992 1.656V13.752H39.864V15.656L54.168 15.656V13.752H50.024ZM47.384 30.312C47.496 29.928 47.576 29.544 47.656 29.112L45.688 28.952C45.624 29.448 45.528 29.88 45.432 30.312H40.904V31.928H44.728C43.8 33.448 42.184 34.312 39.848 34.792C40.2 35.16 40.76 35.96 40.952 36.36C43.848 35.56 45.736 34.264 46.824 31.928L51.096 31.928C50.856 33.432 50.552 34.216 50.232 34.472C50.024 34.632 49.8 34.648 49.464 34.648C48.984 34.648 47.832 34.632 46.792 34.536C47.112 34.984 47.352 35.672 47.384 36.168C48.44 36.216 49.464 36.216 50.056 36.184C50.776 36.152 51.288 36.024 51.752 35.592C52.344 35.08 52.744 33.8 53.096 31.08C53.144 30.824 53.192 30.312 53.192 30.312L47.384 30.312ZM44.472 24.552L50.28 24.552C49.4 25.256 48.28 25.816 47 26.296C45.896 25.864 45.016 25.32 44.36 24.648L44.472 24.552ZM52.184 22.888L51.912 22.968L45.928 22.968C46.216 22.6 46.472 22.216 46.712 21.832L44.776 21.432C43.96 22.792 42.472 24.232 40.216 25.256C40.568 25.56 41.096 26.28 41.32 26.728C41.992 26.392 42.584 26.008 43.128 25.624C43.64 26.136 44.184 26.584 44.808 26.952C43.208 27.368 41.464 27.64 39.72 27.784C40.008 28.216 40.328 28.968 40.456 29.448C42.712 29.176 44.968 28.728 47.016 28.024C48.824 28.696 51 29.08 53.448 29.256C53.688 28.76 54.12 28.008 54.504 27.592C52.648 27.512 50.92 27.32 49.4 26.984C51.048 26.136 52.424 25.048 53.384 23.656L52.184 22.888ZM52.12 41.688C51.288 42.92 49.672 44.152 48.328 44.84C48.824 45.208 49.368 45.784 49.688 46.2C51.208 45.288 52.824 43.944 53.944 42.44L52.12 41.688ZM52.408 46.136C51.512 47.384 49.816 48.664 48.392 49.384C48.888 49.752 49.432 50.328 49.752 50.744C51.32 49.8 53.016 48.408 54.168 46.888L52.408 46.136ZM42.328 44.648H46.2V45.304H42.328V44.648ZM42.328 43.048H46.2V43.672H42.328V43.048ZM48.872 47.032H45.08V46.344H47.944V41.976H40.632V46.344H43.352V47.032H39.592V48.488H48.872V47.032ZM41.064 52.776C40.712 53.624 40.072 54.488 39.416 55.08C39.8 55.288 40.456 55.72 40.776 55.992C41.464 55.304 42.2 54.232 42.648 53.208L41.064 52.776ZM42.344 50.36H46.104V51.32H42.344V50.36ZM47.816 52.552V49.144H40.728V52.552H43.352V54.728C43.352 54.888 43.304 54.936 43.096 54.936C42.92 54.952 42.28 54.952 41.672 54.92C41.912 55.304 42.248 55.928 42.36 56.376C43.224 56.376 43.88 56.36 44.408 56.104C44.936 55.88 45.08 55.512 45.08 54.776V52.552H47.816ZM52.744 50.472C51.864 52.2 50.184 53.64 48.36 54.536C47.976 53.976 47.448 53.304 47 52.792L45.592 53.48C46.168 54.184 46.872 55.176 47.176 55.768L48.248 55.224C48.616 55.592 48.952 56.024 49.16 56.392C51.432 55.224 53.4 53.464 54.616 51.128L52.744 50.472ZM42.888 64.584L42.888 70.472H41.72L41.72 64.584H42.888ZM44.456 62.84H40.072L40.072 73.64H41.72V72.216H44.456L44.456 62.84ZM50.2 68.248V71.24H49.176V68.248H50.2ZM51.432 72.552V66.936H47.944V73.4H49.176V72.552H51.432ZM54.088 64.056H49.768C50.088 63.368 50.424 62.584 50.744 61.8L48.52 61.416C48.376 62.2 48.072 63.224 47.768 64.056H45.288V76.28H47.096V65.672H52.248V74.44C52.248 74.648 52.184 74.712 51.976 74.712C51.768 74.728 51.128 74.728 50.568 74.696C50.792 75.144 51.032 75.912 51.096 76.376C52.136 76.392 52.872 76.36 53.4 76.056C53.928 75.784 54.088 75.32 54.088 74.472V64.056ZM51.784 86.04H47.976V83.736H51.784V86.04ZM53.64 82.136H46.216V87.64H53.64V82.136ZM45.864 90.264C45.576 89.912 44.264 88.536 43.832 88.184V87.704H45.544V85.928H43.832V83.688C44.536 83.512 45.24 83.304 45.832 83.064L44.552 81.608C43.304 82.152 41.304 82.616 39.512 82.904C39.704 83.32 39.944 83.976 40.04 84.392C40.664 84.312 41.32 84.216 41.992 84.088V85.928H39.688V87.704H41.736C41.16 89.256 40.264 90.952 39.368 91.992C39.656 92.472 40.072 93.256 40.248 93.8C40.872 93 41.464 91.864 41.992 90.632V96.392H43.832V90.136C44.216 90.712 44.584 91.336 44.792 91.752L45.864 90.264ZM54.312 92.904V91.304H50.856V89.784C51.912 89.64 52.904 89.464 53.784 89.256L52.632 87.848C51.016 88.28 48.328 88.568 45.992 88.712C46.184 89.096 46.392 89.72 46.456 90.136C47.24 90.104 48.088 90.056 48.952 89.992V91.304H45.32V92.904H48.952V94.392H45.864V96.056H53.848V94.392H50.856V92.904H54.312ZM42.632 104.584H54.168V102.888H48.488V101.464H46.504V102.888H40.808V107.368C40.808 109.704 40.712 113.032 39.384 115.304C39.816 115.496 40.616 116.024 40.936 116.344C42.392 113.88 42.632 109.96 42.632 107.368V104.584ZM49.896 107.432V108.488H46.984V107.432H49.896ZM51.784 109.928V107.432H54.088V105.928H51.784V104.872H49.896V105.928H46.984V104.872H45.192V105.928H43.032V107.432H45.192V109.928H51.784ZM50.488 112.056C49.96 112.568 49.304 113.016 48.568 113.368C47.816 113 47.176 112.568 46.696 112.056H50.488ZM52.104 110.488L51.768 110.568H43.144V112.056H45.528L44.776 112.328C45.288 113.016 45.912 113.608 46.616 114.104C45.352 114.472 43.944 114.696 42.472 114.824C42.76 115.224 43.096 115.944 43.24 116.424C45.144 116.184 46.936 115.8 48.504 115.176C49.896 115.8 51.528 116.216 53.368 116.44C53.608 115.944 54.104 115.208 54.488 114.808C53.048 114.68 51.72 114.456 50.552 114.12C51.704 113.352 52.648 112.36 53.288 111.08L52.104 110.488Z" fill="#222222"/>
<path d="M254.784 400.456H249.248V402.12H254.784V400.456ZM248.992 407.976C248.992 409.336 248.912 410.968 248.416 412.248C248.784 412.44 249.328 412.872 249.584 413.16C250.256 411.624 250.352 409.672 250.352 408.008V406.088H248.992V407.976ZM255.216 405.272V403.608H248.736V405.272H251.12V414.392H252.864V405.272H255.216ZM253.632 412.008H254.976V406.072H253.632V412.008ZM260.192 412.152V406.44H262.944V404.6H260.192V399.768H258.24V404.6H255.584V406.44H258.24V412.152H255.072V414.024H263.472V412.152H260.192ZM268.806 404.248C270.022 403.304 271.046 402.264 271.734 401.288C272.47 402.28 273.574 403.32 274.806 404.248H268.806ZM268.022 405.992H275.494V404.728C276.374 405.336 277.302 405.864 278.182 406.28C278.518 405.72 278.934 405.032 279.414 404.536C276.886 403.64 274.342 401.816 272.646 399.464H270.662C269.462 401.352 266.918 403.624 264.198 404.824C264.598 405.24 265.094 405.96 265.318 406.424C266.246 405.976 267.174 405.432 268.022 404.824V405.992ZM265.19 409.08H268.902C268.566 410.024 268.118 411.08 267.686 411.976L265.27 412.056L265.526 413.912C268.246 413.784 272.198 413.624 275.958 413.416C276.214 413.768 276.438 414.104 276.598 414.408L278.374 413.336C277.622 412.136 276.134 410.472 274.71 409.224L273.03 410.104C273.558 410.584 274.102 411.16 274.598 411.736C272.966 411.8 271.318 411.864 269.782 411.912C270.262 411.016 270.79 410.024 271.254 409.08H278.422V407.32H265.19V409.08ZM294.54 408.632V406.744H288.748V406.616V404.568H293.708V402.68H291.052C291.564 401.912 292.124 401.016 292.62 400.152L290.54 399.464C290.156 400.44 289.532 401.736 288.94 402.68H285.084L286.06 402.136C285.756 401.384 285.084 400.296 284.38 399.496L282.78 400.296C283.324 401 283.9 401.944 284.204 402.68H281.548V404.568H286.508V406.584V406.744H280.492V408.632H286.124C285.5 410.088 283.9 411.544 280.012 412.664C280.524 413.112 281.164 413.944 281.42 414.376C285.084 413.256 286.972 411.72 287.9 410.104C289.244 412.152 291.116 413.56 293.772 414.296C294.06 413.736 294.652 412.856 295.116 412.424C292.364 411.832 290.364 410.504 289.148 408.632H294.54ZM300.882 401.144C300.21 400.584 298.85 399.896 297.826 399.512L296.786 400.936C297.826 401.368 299.154 402.136 299.762 402.696L300.882 401.144ZM299.826 405.336C299.138 404.808 297.746 404.168 296.706 403.816L295.73 405.256C296.786 405.672 298.13 406.376 298.77 406.936L299.826 405.336ZM299.426 407.88C298.482 409.736 297.266 411.72 296.402 412.92L298.018 414.2C298.978 412.648 299.986 410.824 300.834 409.16L299.426 407.88ZM306.594 412.072V409.144H309.826V407.352H306.594V404.728H310.402V402.904H306.722L307.65 401.8C306.834 401.016 305.154 400.008 303.858 399.416L302.594 400.888C303.65 401.416 304.882 402.2 305.714 402.904H300.978V404.728H304.61V407.352H301.554V409.144H304.61V412.072H300.418V413.864H310.738V412.072H306.594ZM314.632 402.584H326.168V400.888H320.488V399.464H318.504V400.888H312.808V405.368C312.808 407.704 312.712 411.032 311.384 413.304C311.816 413.496 312.616 414.024 312.936 414.344C314.392 411.88 314.632 407.96 314.632 405.368V402.584ZM321.896 405.432V406.488H318.984V405.432H321.896ZM323.784 407.928V405.432H326.088V403.928H323.784V402.872H321.896V403.928H318.984V402.872H317.192V403.928H315.032V405.432H317.192V407.928H323.784ZM322.488 410.056C321.96 410.568 321.304 411.016 320.568 411.368C319.816 411 319.176 410.568 318.696 410.056H322.488ZM324.104 408.488L323.768 408.568H315.144V410.056H317.528L316.776 410.328C317.288 411.016 317.912 411.608 318.616 412.104C317.352 412.472 315.944 412.696 314.472 412.824C314.76 413.224 315.096 413.944 315.24 414.424C317.144 414.184 318.936 413.8 320.504 413.176C321.896 413.8 323.528 414.216 325.368 414.44C325.608 413.944 326.104 413.208 326.488 412.808C325.048 412.68 323.72 412.456 322.552 412.12C323.704 411.352 324.648 410.36 325.288 409.08L324.104 408.488Z" fill="#222222"/>
</svg>
