<svg width="328" height="226" viewBox="0 0 328 226" fill="none" xmlns="http://www.w3.org/2000/svg">
<mask id="path-1-inside-1_5305_2861" fill="white">
<path d="M1 20H210V192H1V20Z"/>
</mask>
<path d="M210 191H1V193H210V191Z" fill="#DDDDDD" mask="url(#path-1-inside-1_5305_2861)"/>
<mask id="path-3-inside-2_5305_2861" fill="white">
<path d="M216 20H328V192H216V20Z"/>
</mask>
<path d="M328 191H216V193H328V191Z" fill="#DDDDDD" mask="url(#path-3-inside-2_5305_2861)"/>
<rect opacity="0.14" x="216" width="112" height="34" rx="7" fill="#10C469"/>
<rect x="276" width="52" height="34" rx="7" fill="#10C469"/>
<path d="M298.691 17.652H297.323V16.08H295.487V17.652H293.231L296.903 12.6H294.863L290.903 17.928V19.236H295.427V21H297.323V19.236H298.691V17.652ZM301.663 19.416L303.595 17.592C304.771 16.5 304.999 15.756 304.999 14.94C304.999 13.416 303.751 12.456 301.879 12.456C300.367 12.456 299.191 13.068 298.543 14.016L299.959 14.928C300.367 14.364 300.979 14.088 301.699 14.088C302.587 14.088 303.043 14.472 303.043 15.132C303.043 15.54 302.911 15.972 302.167 16.68L298.927 19.74V21H305.275V19.416H301.663ZM307.889 17.136C309.113 17.136 309.965 16.248 309.965 14.82C309.965 13.392 309.113 12.504 307.889 12.504C306.665 12.504 305.801 13.404 305.801 14.82C305.801 16.236 306.665 17.136 307.889 17.136ZM307.157 21H308.585L314.321 12.6H312.893L307.157 21ZM307.889 16.152C307.373 16.152 307.013 15.708 307.013 14.82C307.013 13.932 307.373 13.488 307.889 13.488C308.417 13.488 308.765 13.92 308.765 14.82C308.765 15.72 308.417 16.152 307.889 16.152ZM313.589 21.096C314.813 21.096 315.677 20.196 315.677 18.78C315.677 17.364 314.813 16.464 313.589 16.464C312.377 16.464 311.513 17.364 311.513 18.78C311.513 20.196 312.377 21.096 313.589 21.096ZM313.589 20.112C313.073 20.112 312.713 19.68 312.713 18.78C312.713 17.88 313.073 17.448 313.589 17.448C314.117 17.448 314.465 17.892 314.465 18.78C314.465 19.668 314.117 20.112 313.589 20.112Z" fill="white"/>
<rect opacity="0.5" x="1" width="209" height="34" rx="7" fill="#D4DFFA"/>
<path d="M210 7C210 3.13401 206.866 0 203 0L160 0C156.134 0 153 3.13401 153 7V27C153 30.866 156.134 34 160 34L203 34C206.866 34 210 30.866 210 27V7Z" fill="#435CE7"/>
<path d="M177.861 16.02L179.757 13.86V12.6H173.877V14.16H177.453L175.725 16.116V17.4H176.613C177.717 17.4 178.185 17.796 178.185 18.432C178.185 19.116 177.585 19.512 176.613 19.512C175.737 19.512 174.849 19.236 174.213 18.756L173.457 20.244C174.273 20.82 175.485 21.144 176.661 21.144C179.049 21.144 180.141 19.848 180.141 18.432C180.141 17.196 179.373 16.26 177.861 16.02ZM180.527 12.6V15.552H182.255V14.184L185.039 14.184L182.027 21H184.139L187.259 13.86V12.6L180.527 12.6ZM189.889 17.136C191.113 17.136 191.965 16.248 191.965 14.82C191.965 13.392 191.113 12.504 189.889 12.504C188.665 12.504 187.801 13.404 187.801 14.82C187.801 16.236 188.665 17.136 189.889 17.136ZM189.157 21H190.585L196.321 12.6H194.893L189.157 21ZM189.889 16.152C189.373 16.152 189.013 15.708 189.013 14.82C189.013 13.932 189.373 13.488 189.889 13.488C190.417 13.488 190.765 13.92 190.765 14.82C190.765 15.72 190.417 16.152 189.889 16.152ZM195.589 21.096C196.813 21.096 197.677 20.196 197.677 18.78C197.677 17.364 196.813 16.464 195.589 16.464C194.377 16.464 193.513 17.364 193.513 18.78C193.513 20.196 194.377 21.096 195.589 21.096ZM195.589 20.112C195.073 20.112 194.713 19.68 194.713 18.78C194.713 17.88 195.073 17.448 195.589 17.448C196.117 17.448 196.465 17.892 196.465 18.78C196.465 19.668 196.117 20.112 195.589 20.112Z" fill="white"/>
<path d="M13.444 22V21.184L16.864 17.884C17.168 17.596 17.392 17.344 17.536 17.128C17.688 16.904 17.788 16.7 17.836 16.516C17.892 16.324 17.92 16.14 17.92 15.964C17.92 15.532 17.768 15.192 17.464 14.944C17.16 14.696 16.716 14.572 16.132 14.572C15.684 14.572 15.28 14.648 14.92 14.8C14.56 14.944 14.248 15.172 13.984 15.484L13.168 14.776C13.488 14.368 13.916 14.056 14.452 13.84C14.996 13.616 15.592 13.504 16.24 13.504C16.824 13.504 17.332 13.6 17.764 13.792C18.196 13.976 18.528 14.244 18.76 14.596C19 14.948 19.12 15.364 19.12 15.844C19.12 16.116 19.084 16.384 19.012 16.648C18.94 16.912 18.804 17.192 18.604 17.488C18.404 17.784 18.116 18.116 17.74 18.484L14.692 21.424L14.404 20.956H19.48V22H13.444ZM23.6369 22.096C22.9809 22.096 22.3929 21.928 21.8729 21.592C21.3609 21.256 20.9529 20.768 20.6489 20.128C20.3529 19.488 20.2049 18.712 20.2049 17.8C20.2049 16.888 20.3529 16.112 20.6489 15.472C20.9529 14.832 21.3609 14.344 21.8729 14.008C22.3929 13.672 22.9809 13.504 23.6369 13.504C24.2849 13.504 24.8689 13.672 25.3889 14.008C25.9089 14.344 26.3169 14.832 26.6129 15.472C26.9089 16.112 27.0569 16.888 27.0569 17.8C27.0569 18.712 26.9089 19.488 26.6129 20.128C26.3169 20.768 25.9089 21.256 25.3889 21.592C24.8689 21.928 24.2849 22.096 23.6369 22.096ZM23.6369 21.028C24.0769 21.028 24.4609 20.908 24.7889 20.668C25.1249 20.428 25.3849 20.068 25.5689 19.588C25.7609 19.108 25.8569 18.512 25.8569 17.8C25.8569 17.088 25.7609 16.492 25.5689 16.012C25.3849 15.532 25.1249 15.172 24.7889 14.932C24.4609 14.692 24.0769 14.572 23.6369 14.572C23.1969 14.572 22.8089 14.692 22.4729 14.932C22.1369 15.172 21.8729 15.532 21.6809 16.012C21.4969 16.492 21.4049 17.088 21.4049 17.8C21.4049 18.512 21.4969 19.108 21.6809 19.588C21.8729 20.068 22.1369 20.428 22.4729 20.668C22.8089 20.908 23.1969 21.028 23.6369 21.028ZM27.8268 22V21.184L31.2468 17.884C31.5508 17.596 31.7748 17.344 31.9188 17.128C32.0708 16.904 32.1708 16.7 32.2188 16.516C32.2748 16.324 32.3028 16.14 32.3028 15.964C32.3028 15.532 32.1508 15.192 31.8468 14.944C31.5428 14.696 31.0988 14.572 30.5148 14.572C30.0668 14.572 29.6628 14.648 29.3028 14.8C28.9428 14.944 28.6308 15.172 28.3668 15.484L27.5508 14.776C27.8708 14.368 28.2988 14.056 28.8348 13.84C29.3788 13.616 29.9748 13.504 30.6228 13.504C31.2068 13.504 31.7148 13.6 32.1468 13.792C32.5788 13.976 32.9108 14.244 33.1428 14.596C33.3828 14.948 33.5028 15.364 33.5028 15.844C33.5028 16.116 33.4668 16.384 33.3948 16.648C33.3228 16.912 33.1868 17.192 32.9868 17.488C32.7868 17.784 32.4988 18.116 32.1228 18.484L29.0748 21.424L28.7868 20.956H33.8628V22H27.8268ZM37.3114 22.096C36.7194 22.096 36.1434 22.004 35.5834 21.82C35.0314 21.636 34.5794 21.388 34.2274 21.076L34.7794 20.128C35.0594 20.392 35.4234 20.608 35.8714 20.776C36.3194 20.944 36.7954 21.028 37.2994 21.028C37.9394 21.028 38.4314 20.892 38.7754 20.62C39.1194 20.348 39.2914 19.984 39.2914 19.528C39.2914 19.216 39.2154 18.944 39.0634 18.712C38.9114 18.48 38.6474 18.304 38.2714 18.184C37.9034 18.056 37.3954 17.992 36.7474 17.992H34.8394L35.2834 13.6H40.0234V14.644H35.7274L36.3514 14.056L36.0034 17.524L35.3794 16.948H36.9994C37.8394 16.948 38.5154 17.056 39.0274 17.272C39.5394 17.488 39.9114 17.788 40.1434 18.172C40.3754 18.548 40.4914 18.984 40.4914 19.48C40.4914 19.96 40.3754 20.4 40.1434 20.8C39.9114 21.192 39.5594 21.508 39.0874 21.748C38.6234 21.98 38.0314 22.096 37.3114 22.096ZM44.3001 19.216V17.092H46.7121V19.216H44.3001ZM52.0761 19.216L47.8641 19.216V17.092H51.2121V16.048H47.8641V14.392H51.4881V13.312H44.5401C44.6961 12.952 44.8641 12.556 45.0081 12.184L43.8801 11.884C43.3281 13.48 42.3681 15.004 41.2641 15.952C41.5401 16.12 42.0201 16.48 42.2361 16.672C42.8481 16.072 43.4481 15.28 43.9641 14.392H46.7121V16.048H43.1841V19.216H41.2521V20.296H46.7121V22.948H47.8641V20.296L52.0761 20.296V19.216Z" fill="#435CE7"/>
<rect opacity="0.14" x="216" y="46" width="112" height="34" rx="7" fill="#10C469"/>
<rect x="252" y="46" width="76" height="34" rx="7" fill="#10C469"/>
<path d="M295.828 61.732C294.952 61.732 294.244 61.984 293.752 62.476C293.812 60.868 294.712 60.04 296.116 60.04C296.68 60.04 297.22 60.148 297.688 60.46L298.408 59.032C297.82 58.66 296.956 58.456 296.068 58.456C293.536 58.456 291.784 60.076 291.784 62.98C291.784 65.692 293.224 67.144 295.54 67.144C297.316 67.144 298.72 66.064 298.72 64.348C298.72 62.764 297.448 61.732 295.828 61.732ZM295.432 65.692C294.496 65.692 293.956 65.164 293.956 64.444C293.956 63.712 294.556 63.184 295.408 63.184C296.272 63.184 296.836 63.676 296.836 64.444C296.836 65.212 296.26 65.692 295.432 65.692ZM302.055 61.756H301.371L301.503 60.16H305.007V58.6H299.883L299.451 63.328H301.599C303.123 63.328 303.555 63.76 303.555 64.42C303.555 65.104 302.955 65.512 301.983 65.512C301.107 65.512 300.231 65.236 299.595 64.756L298.827 66.244C299.643 66.82 300.867 67.144 302.031 67.144C304.431 67.144 305.523 65.848 305.523 64.36C305.523 62.872 304.539 61.756 302.055 61.756ZM307.889 63.136C309.113 63.136 309.965 62.248 309.965 60.82C309.965 59.392 309.113 58.504 307.889 58.504C306.665 58.504 305.801 59.404 305.801 60.82C305.801 62.236 306.665 63.136 307.889 63.136ZM307.157 67H308.585L314.321 58.6H312.893L307.157 67ZM307.889 62.152C307.373 62.152 307.013 61.708 307.013 60.82C307.013 59.932 307.373 59.488 307.889 59.488C308.417 59.488 308.765 59.92 308.765 60.82C308.765 61.72 308.417 62.152 307.889 62.152ZM313.589 67.096C314.813 67.096 315.677 66.196 315.677 64.78C315.677 63.364 314.813 62.464 313.589 62.464C312.377 62.464 311.513 63.364 311.513 64.78C311.513 66.196 312.377 67.096 313.589 67.096ZM313.589 66.112C313.073 66.112 312.713 65.68 312.713 64.78C312.713 63.88 313.073 63.448 313.589 63.448C314.117 63.448 314.465 63.892 314.465 64.78C314.465 65.668 314.117 66.112 313.589 66.112Z" fill="white"/>
<rect opacity="0.5" x="1" y="46" width="209" height="34" rx="7" fill="#D4DFFA"/>
<path d="M210 53C210 49.134 206.866 46 203 46L125 46C121.134 46 118 49.134 118 53V73C118 76.866 121.134 80 125 80L203 80C206.866 80 210 76.866 210 73V53Z" fill="#435CE7"/>
<path d="M176.383 61.756H175.699L175.831 60.16H179.335V58.6H174.211L173.779 63.328H175.927C177.451 63.328 177.883 63.76 177.883 64.42C177.883 65.104 177.283 65.512 176.311 65.512C175.435 65.512 174.559 65.236 173.923 64.756L173.155 66.244C173.971 66.82 175.195 67.144 176.359 67.144C178.759 67.144 179.851 65.848 179.851 64.36C179.851 62.872 178.867 61.756 176.383 61.756ZM186.138 62.584C186.762 62.2 187.122 61.612 187.122 60.856C187.122 59.38 185.802 58.456 183.87 58.456C181.962 58.456 180.642 59.38 180.642 60.856C180.642 61.612 180.99 62.2 181.614 62.584C180.81 62.992 180.342 63.664 180.342 64.564C180.342 66.148 181.746 67.144 183.87 67.144C186.006 67.144 187.422 66.148 187.422 64.564C187.422 63.664 186.954 62.992 186.138 62.584ZM183.87 59.884C184.662 59.884 185.19 60.28 185.19 60.94C185.19 61.576 184.674 61.972 183.87 61.972C183.078 61.972 182.574 61.576 182.574 60.94C182.574 60.28 183.09 59.884 183.87 59.884ZM183.87 65.716C182.91 65.716 182.31 65.248 182.31 64.504C182.31 63.76 182.91 63.304 183.87 63.304C184.842 63.304 185.454 63.76 185.454 64.504C185.454 65.248 184.842 65.716 183.87 65.716ZM189.889 63.136C191.113 63.136 191.965 62.248 191.965 60.82C191.965 59.392 191.113 58.504 189.889 58.504C188.665 58.504 187.801 59.404 187.801 60.82C187.801 62.236 188.665 63.136 189.889 63.136ZM189.157 67H190.585L196.321 58.6H194.893L189.157 67ZM189.889 62.152C189.373 62.152 189.013 61.708 189.013 60.82C189.013 59.932 189.373 59.488 189.889 59.488C190.417 59.488 190.765 59.92 190.765 60.82C190.765 61.72 190.417 62.152 189.889 62.152ZM195.589 67.096C196.813 67.096 197.677 66.196 197.677 64.78C197.677 63.364 196.813 62.464 195.589 62.464C194.377 62.464 193.513 63.364 193.513 64.78C193.513 66.196 194.377 67.096 195.589 67.096ZM195.589 66.112C195.073 66.112 194.713 65.68 194.713 64.78C194.713 63.88 195.073 63.448 195.589 63.448C196.117 63.448 196.465 63.892 196.465 64.78C196.465 65.668 196.117 66.112 195.589 66.112Z" fill="white"/>
<path d="M13.444 68V67.184L16.864 63.884C17.168 63.596 17.392 63.344 17.536 63.128C17.688 62.904 17.788 62.7 17.836 62.516C17.892 62.324 17.92 62.14 17.92 61.964C17.92 61.532 17.768 61.192 17.464 60.944C17.16 60.696 16.716 60.572 16.132 60.572C15.684 60.572 15.28 60.648 14.92 60.8C14.56 60.944 14.248 61.172 13.984 61.484L13.168 60.776C13.488 60.368 13.916 60.056 14.452 59.84C14.996 59.616 15.592 59.504 16.24 59.504C16.824 59.504 17.332 59.6 17.764 59.792C18.196 59.976 18.528 60.244 18.76 60.596C19 60.948 19.12 61.364 19.12 61.844C19.12 62.116 19.084 62.384 19.012 62.648C18.94 62.912 18.804 63.192 18.604 63.488C18.404 63.784 18.116 64.116 17.74 64.484L14.692 67.424L14.404 66.956H19.48V68H13.444ZM23.6369 68.096C22.9809 68.096 22.3929 67.928 21.8729 67.592C21.3609 67.256 20.9529 66.768 20.6489 66.128C20.3529 65.488 20.2049 64.712 20.2049 63.8C20.2049 62.888 20.3529 62.112 20.6489 61.472C20.9529 60.832 21.3609 60.344 21.8729 60.008C22.3929 59.672 22.9809 59.504 23.6369 59.504C24.2849 59.504 24.8689 59.672 25.3889 60.008C25.9089 60.344 26.3169 60.832 26.6129 61.472C26.9089 62.112 27.0569 62.888 27.0569 63.8C27.0569 64.712 26.9089 65.488 26.6129 66.128C26.3169 66.768 25.9089 67.256 25.3889 67.592C24.8689 67.928 24.2849 68.096 23.6369 68.096ZM23.6369 67.028C24.0769 67.028 24.4609 66.908 24.7889 66.668C25.1249 66.428 25.3849 66.068 25.5689 65.588C25.7609 65.108 25.8569 64.512 25.8569 63.8C25.8569 63.088 25.7609 62.492 25.5689 62.012C25.3849 61.532 25.1249 61.172 24.7889 60.932C24.4609 60.692 24.0769 60.572 23.6369 60.572C23.1969 60.572 22.8089 60.692 22.4729 60.932C22.1369 61.172 21.8729 61.532 21.6809 62.012C21.4969 62.492 21.4049 63.088 21.4049 63.8C21.4049 64.512 21.4969 65.108 21.6809 65.588C21.8729 66.068 22.1369 66.428 22.4729 66.668C22.8089 66.908 23.1969 67.028 23.6369 67.028ZM30.4096 68.096C29.8176 68.096 29.2416 68.004 28.6816 67.82C28.1296 67.636 27.6776 67.388 27.3256 67.076L27.8776 66.128C28.1576 66.392 28.5216 66.608 28.9696 66.776C29.4176 66.944 29.8976 67.028 30.4096 67.028C31.0336 67.028 31.5176 66.896 31.8616 66.632C32.2136 66.36 32.3896 65.996 32.3896 65.54C32.3896 65.1 32.2216 64.748 31.8856 64.484C31.5576 64.212 31.0336 64.076 30.3136 64.076H29.6416V63.236L32.1376 60.164L32.3056 60.644H27.7096V59.6H33.2536V60.416L30.7696 63.476L30.1456 63.104H30.5416C31.5576 63.104 32.3176 63.332 32.8216 63.788C33.3336 64.244 33.5896 64.824 33.5896 65.528C33.5896 66 33.4736 66.432 33.2416 66.824C33.0096 67.216 32.6576 67.528 32.1856 67.76C31.7216 67.984 31.1296 68.096 30.4096 68.096ZM37.8908 68.096C37.2348 68.096 36.6468 67.928 36.1268 67.592C35.6148 67.256 35.2068 66.768 34.9028 66.128C34.6068 65.488 34.4588 64.712 34.4588 63.8C34.4588 62.888 34.6068 62.112 34.9028 61.472C35.2068 60.832 35.6148 60.344 36.1268 60.008C36.6468 59.672 37.2348 59.504 37.8908 59.504C38.5388 59.504 39.1228 59.672 39.6428 60.008C40.1628 60.344 40.5708 60.832 40.8668 61.472C41.1628 62.112 41.3108 62.888 41.3108 63.8C41.3108 64.712 41.1628 65.488 40.8668 66.128C40.5708 66.768 40.1628 67.256 39.6428 67.592C39.1228 67.928 38.5388 68.096 37.8908 68.096ZM37.8908 67.028C38.3308 67.028 38.7148 66.908 39.0428 66.668C39.3788 66.428 39.6388 66.068 39.8228 65.588C40.0148 65.108 40.1108 64.512 40.1108 63.8C40.1108 63.088 40.0148 62.492 39.8228 62.012C39.6388 61.532 39.3788 61.172 39.0428 60.932C38.7148 60.692 38.3308 60.572 37.8908 60.572C37.4508 60.572 37.0628 60.692 36.7268 60.932C36.3908 61.172 36.1268 61.532 35.9348 62.012C35.7508 62.492 35.6588 63.088 35.6588 63.8C35.6588 64.512 35.7508 65.108 35.9348 65.588C36.1268 66.068 36.3908 66.428 36.7268 66.668C37.0628 66.908 37.4508 67.028 37.8908 67.028ZM45.2727 65.216V63.092L47.6847 63.092V65.216H45.2727ZM53.0487 65.216H48.8367V63.092H52.1847V62.048H48.8367V60.392H52.4607V59.312H45.5127C45.6687 58.952 45.8367 58.556 45.9807 58.184L44.8527 57.884C44.3007 59.48 43.3407 61.004 42.2367 61.952C42.5127 62.12 42.9927 62.48 43.2087 62.672C43.8207 62.072 44.4207 61.28 44.9367 60.392H47.6847V62.048L44.1567 62.048V65.216H42.2247V66.296H47.6847V68.948H48.8367V66.296H53.0487V65.216Z" fill="#435CE7"/>
<rect opacity="0.14" x="216" y="92" width="112" height="34" rx="7" fill="#10C469"/>
<rect x="234" y="92" width="94" height="34" rx="7" fill="#10C469"/>
<path d="M293.611 104.456C291.835 104.456 290.431 105.536 290.431 107.252C290.431 108.836 291.703 109.868 293.323 109.868C294.199 109.868 294.919 109.604 295.411 109.112C295.351 110.732 294.439 111.56 293.047 111.56C292.471 111.56 291.931 111.452 291.475 111.14L290.755 112.568C291.343 112.94 292.195 113.144 293.083 113.144C295.627 113.144 297.367 111.524 297.367 108.62C297.367 105.908 295.939 104.456 293.611 104.456ZM293.755 108.416C292.891 108.416 292.327 107.924 292.327 107.156C292.327 106.388 292.903 105.908 293.731 105.908C294.655 105.908 295.195 106.436 295.195 107.156C295.195 107.888 294.607 108.416 293.755 108.416ZM301.65 113.144C303.726 113.144 305.25 111.572 305.25 108.8C305.25 106.028 303.726 104.456 301.65 104.456C299.586 104.456 298.05 106.028 298.05 108.8C298.05 111.572 299.586 113.144 301.65 113.144ZM301.65 111.5C300.69 111.5 300.018 110.708 300.018 108.8C300.018 106.892 300.69 106.1 301.65 106.1C302.622 106.1 303.294 106.892 303.294 108.8C303.294 110.708 302.622 111.5 301.65 111.5ZM307.889 109.136C309.113 109.136 309.965 108.248 309.965 106.82C309.965 105.392 309.113 104.504 307.889 104.504C306.665 104.504 305.801 105.404 305.801 106.82C305.801 108.236 306.665 109.136 307.889 109.136ZM307.157 113H308.585L314.321 104.6H312.893L307.157 113ZM307.889 108.152C307.373 108.152 307.013 107.708 307.013 106.82C307.013 105.932 307.373 105.488 307.889 105.488C308.417 105.488 308.765 105.92 308.765 106.82C308.765 107.72 308.417 108.152 307.889 108.152ZM313.589 113.096C314.813 113.096 315.677 112.196 315.677 110.78C315.677 109.364 314.813 108.464 313.589 108.464C312.377 108.464 311.513 109.364 311.513 110.78C311.513 112.196 312.377 113.096 313.589 113.096ZM313.589 112.112C313.073 112.112 312.713 111.68 312.713 110.78C312.713 109.88 313.073 109.448 313.589 109.448C314.117 109.448 314.465 109.892 314.465 110.78C314.465 111.668 314.117 112.112 313.589 112.112Z" fill="white"/>
<rect opacity="0.5" x="1" y="92" width="209" height="34" rx="7" fill="#D4DFFA"/>
<path d="M210 99C210 95.134 206.866 92 203 92L103 92C99.134 92 96 95.134 96 99V119C96 122.866 99.134 126 103 126L203 126C206.866 126 210 122.866 210 119V99Z" fill="#435CE7"/>
<path d="M174.027 104.6V107.552H175.755V106.184H178.539L175.527 113H177.639L180.759 105.86V104.6H174.027ZM184.055 107.756H183.371L183.503 106.16H187.007V104.6H181.883L181.451 109.328H183.599C185.123 109.328 185.555 109.76 185.555 110.42C185.555 111.104 184.955 111.512 183.983 111.512C183.107 111.512 182.231 111.236 181.595 110.756L180.827 112.244C181.643 112.82 182.867 113.144 184.031 113.144C186.431 113.144 187.523 111.848 187.523 110.36C187.523 108.872 186.539 107.756 184.055 107.756ZM189.889 109.136C191.113 109.136 191.965 108.248 191.965 106.82C191.965 105.392 191.113 104.504 189.889 104.504C188.665 104.504 187.801 105.404 187.801 106.82C187.801 108.236 188.665 109.136 189.889 109.136ZM189.157 113H190.585L196.321 104.6H194.893L189.157 113ZM189.889 108.152C189.373 108.152 189.013 107.708 189.013 106.82C189.013 105.932 189.373 105.488 189.889 105.488C190.417 105.488 190.765 105.92 190.765 106.82C190.765 107.72 190.417 108.152 189.889 108.152ZM195.589 113.096C196.813 113.096 197.677 112.196 197.677 110.78C197.677 109.364 196.813 108.464 195.589 108.464C194.377 108.464 193.513 109.364 193.513 110.78C193.513 112.196 194.377 113.096 195.589 113.096ZM195.589 112.112C195.073 112.112 194.713 111.68 194.713 110.78C194.713 109.88 195.073 109.448 195.589 109.448C196.117 109.448 196.465 109.892 196.465 110.78C196.465 111.668 196.117 112.112 195.589 112.112Z" fill="white"/>
<path d="M13.444 114V113.184L16.864 109.884C17.168 109.596 17.392 109.344 17.536 109.128C17.688 108.904 17.788 108.7 17.836 108.516C17.892 108.324 17.92 108.14 17.92 107.964C17.92 107.532 17.768 107.192 17.464 106.944C17.16 106.696 16.716 106.572 16.132 106.572C15.684 106.572 15.28 106.648 14.92 106.8C14.56 106.944 14.248 107.172 13.984 107.484L13.168 106.776C13.488 106.368 13.916 106.056 14.452 105.84C14.996 105.616 15.592 105.504 16.24 105.504C16.824 105.504 17.332 105.6 17.764 105.792C18.196 105.976 18.528 106.244 18.76 106.596C19 106.948 19.12 107.364 19.12 107.844C19.12 108.116 19.084 108.384 19.012 108.648C18.94 108.912 18.804 109.192 18.604 109.488C18.404 109.784 18.116 110.116 17.74 110.484L14.692 113.424L14.404 112.956H19.48V114H13.444ZM23.6369 114.096C22.9809 114.096 22.3929 113.928 21.8729 113.592C21.3609 113.256 20.9529 112.768 20.6489 112.128C20.3529 111.488 20.2049 110.712 20.2049 109.8C20.2049 108.888 20.3529 108.112 20.6489 107.472C20.9529 106.832 21.3609 106.344 21.8729 106.008C22.3929 105.672 22.9809 105.504 23.6369 105.504C24.2849 105.504 24.8689 105.672 25.3889 106.008C25.9089 106.344 26.3169 106.832 26.6129 107.472C26.9089 108.112 27.0569 108.888 27.0569 109.8C27.0569 110.712 26.9089 111.488 26.6129 112.128C26.3169 112.768 25.9089 113.256 25.3889 113.592C24.8689 113.928 24.2849 114.096 23.6369 114.096ZM23.6369 113.028C24.0769 113.028 24.4609 112.908 24.7889 112.668C25.1249 112.428 25.3849 112.068 25.5689 111.588C25.7609 111.108 25.8569 110.512 25.8569 109.8C25.8569 109.088 25.7609 108.492 25.5689 108.012C25.3849 107.532 25.1249 107.172 24.7889 106.932C24.4609 106.692 24.0769 106.572 23.6369 106.572C23.1969 106.572 22.8089 106.692 22.4729 106.932C22.1369 107.172 21.8729 107.532 21.6809 108.012C21.4969 108.492 21.4049 109.088 21.4049 109.8C21.4049 110.512 21.4969 111.108 21.6809 111.588C21.8729 112.068 22.1369 112.428 22.4729 112.668C22.8089 112.908 23.1969 113.028 23.6369 113.028ZM27.8388 111.936V111.096L32.1348 105.6H33.4308L29.1708 111.096L28.5588 110.904H35.2668V111.936H27.8388ZM32.5068 114V111.936L32.5428 110.904V109.08H33.6708V114H32.5068ZM39.1682 114.096C38.5122 114.096 37.9242 113.928 37.4042 113.592C36.8922 113.256 36.4842 112.768 36.1802 112.128C35.8842 111.488 35.7362 110.712 35.7362 109.8C35.7362 108.888 35.8842 108.112 36.1802 107.472C36.4842 106.832 36.8922 106.344 37.4042 106.008C37.9242 105.672 38.5122 105.504 39.1682 105.504C39.8162 105.504 40.4002 105.672 40.9202 106.008C41.4402 106.344 41.8482 106.832 42.1442 107.472C42.4402 108.112 42.5882 108.888 42.5882 109.8C42.5882 110.712 42.4402 111.488 42.1442 112.128C41.8482 112.768 41.4402 113.256 40.9202 113.592C40.4002 113.928 39.8162 114.096 39.1682 114.096ZM39.1682 113.028C39.6082 113.028 39.9922 112.908 40.3202 112.668C40.6562 112.428 40.9162 112.068 41.1002 111.588C41.2922 111.108 41.3882 110.512 41.3882 109.8C41.3882 109.088 41.2922 108.492 41.1002 108.012C40.9162 107.532 40.6562 107.172 40.3202 106.932C39.9922 106.692 39.6082 106.572 39.1682 106.572C38.7282 106.572 38.3402 106.692 38.0042 106.932C37.6682 107.172 37.4042 107.532 37.2122 108.012C37.0282 108.492 36.9362 109.088 36.9362 109.8C36.9362 110.512 37.0282 111.108 37.2122 111.588C37.4042 112.068 37.6682 112.428 38.0042 112.668C38.3402 112.908 38.7282 113.028 39.1682 113.028ZM46.5501 111.216V109.092H48.9621V111.216H46.5501ZM54.3261 111.216H50.1141V109.092H53.4621V108.048H50.1141V106.392H53.7381V105.312H46.7901C46.9461 104.952 47.1141 104.556 47.2581 104.184L46.1301 103.884C45.5781 105.48 44.6181 107.004 43.5141 107.952C43.7901 108.12 44.2701 108.48 44.4861 108.672C45.0981 108.072 45.6981 107.28 46.2141 106.392H48.9621V108.048H45.4341V111.216H43.5021V112.296H48.9621V114.948H50.1141V112.296H54.3261V111.216Z" fill="#435CE7"/>
<rect opacity="0.14" x="216" y="138" width="112" height="30" rx="7" fill="#10C469"/>
<rect x="216" y="138" width="112" height="34" rx="7" fill="#10C469"/>
<path d="M285.322 150.6V152.16H287.002V159H288.946V150.6H285.322ZM293.756 159.144C295.832 159.144 297.356 157.572 297.356 154.8C297.356 152.028 295.832 150.456 293.756 150.456C291.692 150.456 290.156 152.028 290.156 154.8C290.156 157.572 291.692 159.144 293.756 159.144ZM293.756 157.5C292.796 157.5 292.124 156.708 292.124 154.8C292.124 152.892 292.796 152.1 293.756 152.1C294.728 152.1 295.4 152.892 295.4 154.8C295.4 156.708 294.728 157.5 293.756 157.5ZM301.65 159.144C303.726 159.144 305.25 157.572 305.25 154.8C305.25 152.028 303.726 150.456 301.65 150.456C299.586 150.456 298.05 152.028 298.05 154.8C298.05 157.572 299.586 159.144 301.65 159.144ZM301.65 157.5C300.69 157.5 300.018 156.708 300.018 154.8C300.018 152.892 300.69 152.1 301.65 152.1C302.622 152.1 303.294 152.892 303.294 154.8C303.294 156.708 302.622 157.5 301.65 157.5ZM307.889 155.136C309.113 155.136 309.965 154.248 309.965 152.82C309.965 151.392 309.113 150.504 307.889 150.504C306.665 150.504 305.801 151.404 305.801 152.82C305.801 154.236 306.665 155.136 307.889 155.136ZM307.157 159H308.585L314.321 150.6H312.893L307.157 159ZM307.889 154.152C307.373 154.152 307.013 153.708 307.013 152.82C307.013 151.932 307.373 151.488 307.889 151.488C308.417 151.488 308.765 151.92 308.765 152.82C308.765 153.72 308.417 154.152 307.889 154.152ZM313.589 159.096C314.813 159.096 315.677 158.196 315.677 156.78C315.677 155.364 314.813 154.464 313.589 154.464C312.377 154.464 311.513 155.364 311.513 156.78C311.513 158.196 312.377 159.096 313.589 159.096ZM313.589 158.112C313.073 158.112 312.713 157.68 312.713 156.78C312.713 155.88 313.073 155.448 313.589 155.448C314.117 155.448 314.465 155.892 314.465 156.78C314.465 157.668 314.117 158.112 313.589 158.112Z" fill="white"/>
<rect opacity="0.5" x="1" y="138" width="209" height="34" rx="7" fill="#D4DFFA"/>
<path d="M210 145C210 141.134 206.866 138 203 138L75 138C71.134 138 68 141.134 68 145V165C68 168.866 71.134 172 75 172L203 172C206.866 172 210 168.866 210 165V145Z" fill="#435CE7"/>
<path d="M179.075 154.584C179.699 154.2 180.059 153.612 180.059 152.856C180.059 151.38 178.739 150.456 176.807 150.456C174.899 150.456 173.579 151.38 173.579 152.856C173.579 153.612 173.927 154.2 174.551 154.584C173.747 154.992 173.279 155.664 173.279 156.564C173.279 158.148 174.683 159.144 176.807 159.144C178.943 159.144 180.359 158.148 180.359 156.564C180.359 155.664 179.891 154.992 179.075 154.584ZM176.807 151.884C177.599 151.884 178.127 152.28 178.127 152.94C178.127 153.576 177.611 153.972 176.807 153.972C176.015 153.972 175.511 153.576 175.511 152.94C175.511 152.28 176.027 151.884 176.807 151.884ZM176.807 157.716C175.847 157.716 175.247 157.248 175.247 156.504C175.247 155.76 175.847 155.304 176.807 155.304C177.779 155.304 178.391 155.76 178.391 156.504C178.391 157.248 177.779 157.716 176.807 157.716ZM183.663 157.416L185.595 155.592C186.771 154.5 186.999 153.756 186.999 152.94C186.999 151.416 185.751 150.456 183.879 150.456C182.367 150.456 181.191 151.068 180.543 152.016L181.959 152.928C182.367 152.364 182.979 152.088 183.699 152.088C184.587 152.088 185.043 152.472 185.043 153.132C185.043 153.54 184.911 153.972 184.167 154.68L180.927 157.74V159H187.275V157.416H183.663ZM189.889 155.136C191.113 155.136 191.965 154.248 191.965 152.82C191.965 151.392 191.113 150.504 189.889 150.504C188.665 150.504 187.801 151.404 187.801 152.82C187.801 154.236 188.665 155.136 189.889 155.136ZM189.157 159H190.585L196.321 150.6H194.893L189.157 159ZM189.889 154.152C189.373 154.152 189.013 153.708 189.013 152.82C189.013 151.932 189.373 151.488 189.889 151.488C190.417 151.488 190.765 151.92 190.765 152.82C190.765 153.72 190.417 154.152 189.889 154.152ZM195.589 159.096C196.813 159.096 197.677 158.196 197.677 156.78C197.677 155.364 196.813 154.464 195.589 154.464C194.377 154.464 193.513 155.364 193.513 156.78C193.513 158.196 194.377 159.096 195.589 159.096ZM195.589 158.112C195.073 158.112 194.713 157.68 194.713 156.78C194.713 155.88 195.073 155.448 195.589 155.448C196.117 155.448 196.465 155.892 196.465 156.78C196.465 157.668 196.117 158.112 195.589 158.112Z" fill="white"/>
<path d="M13.444 160V159.184L16.864 155.884C17.168 155.596 17.392 155.344 17.536 155.128C17.688 154.904 17.788 154.7 17.836 154.516C17.892 154.324 17.92 154.14 17.92 153.964C17.92 153.532 17.768 153.192 17.464 152.944C17.16 152.696 16.716 152.572 16.132 152.572C15.684 152.572 15.28 152.648 14.92 152.8C14.56 152.944 14.248 153.172 13.984 153.484L13.168 152.776C13.488 152.368 13.916 152.056 14.452 151.84C14.996 151.616 15.592 151.504 16.24 151.504C16.824 151.504 17.332 151.6 17.764 151.792C18.196 151.976 18.528 152.244 18.76 152.596C19 152.948 19.12 153.364 19.12 153.844C19.12 154.116 19.084 154.384 19.012 154.648C18.94 154.912 18.804 155.192 18.604 155.488C18.404 155.784 18.116 156.116 17.74 156.484L14.692 159.424L14.404 158.956H19.48V160H13.444ZM23.6369 160.096C22.9809 160.096 22.3929 159.928 21.8729 159.592C21.3609 159.256 20.9529 158.768 20.6489 158.128C20.3529 157.488 20.2049 156.712 20.2049 155.8C20.2049 154.888 20.3529 154.112 20.6489 153.472C20.9529 152.832 21.3609 152.344 21.8729 152.008C22.3929 151.672 22.9809 151.504 23.6369 151.504C24.2849 151.504 24.8689 151.672 25.3889 152.008C25.9089 152.344 26.3169 152.832 26.6129 153.472C26.9089 154.112 27.0569 154.888 27.0569 155.8C27.0569 156.712 26.9089 157.488 26.6129 158.128C26.3169 158.768 25.9089 159.256 25.3889 159.592C24.8689 159.928 24.2849 160.096 23.6369 160.096ZM23.6369 159.028C24.0769 159.028 24.4609 158.908 24.7889 158.668C25.1249 158.428 25.3849 158.068 25.5689 157.588C25.7609 157.108 25.8569 156.512 25.8569 155.8C25.8569 155.088 25.7609 154.492 25.5689 154.012C25.3849 153.532 25.1249 153.172 24.7889 152.932C24.4609 152.692 24.0769 152.572 23.6369 152.572C23.1969 152.572 22.8089 152.692 22.4729 152.932C22.1369 153.172 21.8729 153.532 21.6809 154.012C21.4969 154.492 21.4049 155.088 21.4049 155.8C21.4049 156.512 21.4969 157.108 21.6809 157.588C21.8729 158.068 22.1369 158.428 22.4729 158.668C22.8089 158.908 23.1969 159.028 23.6369 159.028ZM30.6708 160.096C30.0788 160.096 29.5028 160.004 28.9428 159.82C28.3908 159.636 27.9388 159.388 27.5868 159.076L28.1388 158.128C28.4188 158.392 28.7828 158.608 29.2308 158.776C29.6788 158.944 30.1548 159.028 30.6588 159.028C31.2988 159.028 31.7908 158.892 32.1348 158.62C32.4788 158.348 32.6508 157.984 32.6508 157.528C32.6508 157.216 32.5748 156.944 32.4228 156.712C32.2708 156.48 32.0068 156.304 31.6308 156.184C31.2628 156.056 30.7548 155.992 30.1068 155.992H28.1988L28.6428 151.6H33.3828V152.644H29.0868L29.7108 152.056L29.3628 155.524L28.7388 154.948H30.3588C31.1988 154.948 31.8748 155.056 32.3868 155.272C32.8988 155.488 33.2708 155.788 33.5028 156.172C33.7348 156.548 33.8508 156.984 33.8508 157.48C33.8508 157.96 33.7348 158.4 33.5028 158.8C33.2708 159.192 32.9188 159.508 32.4468 159.748C31.9828 159.98 31.3908 160.096 30.6708 160.096ZM38.0314 160.096C37.3754 160.096 36.7874 159.928 36.2674 159.592C35.7554 159.256 35.3474 158.768 35.0434 158.128C34.7474 157.488 34.5994 156.712 34.5994 155.8C34.5994 154.888 34.7474 154.112 35.0434 153.472C35.3474 152.832 35.7554 152.344 36.2674 152.008C36.7874 151.672 37.3754 151.504 38.0314 151.504C38.6794 151.504 39.2634 151.672 39.7834 152.008C40.3034 152.344 40.7114 152.832 41.0074 153.472C41.3034 154.112 41.4514 154.888 41.4514 155.8C41.4514 156.712 41.3034 157.488 41.0074 158.128C40.7114 158.768 40.3034 159.256 39.7834 159.592C39.2634 159.928 38.6794 160.096 38.0314 160.096ZM38.0314 159.028C38.4714 159.028 38.8554 158.908 39.1834 158.668C39.5194 158.428 39.7794 158.068 39.9634 157.588C40.1554 157.108 40.2514 156.512 40.2514 155.8C40.2514 155.088 40.1554 154.492 39.9634 154.012C39.7794 153.532 39.5194 153.172 39.1834 152.932C38.8554 152.692 38.4714 152.572 38.0314 152.572C37.5914 152.572 37.2034 152.692 36.8674 152.932C36.5314 153.172 36.2674 153.532 36.0754 154.012C35.8914 154.492 35.7994 155.088 35.7994 155.8C35.7994 156.512 35.8914 157.108 36.0754 157.588C36.2674 158.068 36.5314 158.428 36.8674 158.668C37.2034 158.908 37.5914 159.028 38.0314 159.028ZM45.4133 157.216V155.092H47.8253V157.216H45.4133ZM53.1893 157.216H48.9773V155.092H52.3253V154.048H48.9773V152.392H52.6013V151.312H45.6533C45.8093 150.952 45.9773 150.556 46.1213 150.184L44.9933 149.884C44.4413 151.48 43.4813 153.004 42.3773 153.952C42.6533 154.12 43.1333 154.48 43.3493 154.672C43.9613 154.072 44.5613 153.28 45.0773 152.392H47.8253V154.048H44.2973V157.216H42.3653V158.296H47.8253V160.948H48.9773V158.296H53.1893V157.216Z" fill="#435CE7"/>
<path d="M9.297 217.838V220.802H5.904V217.838H9.297ZM10.246 221.725V216.902H4.968V222.765H5.904V221.725H10.246ZM15.147 214.042H3.642V215.004H12.56V223.597C12.56 223.87 12.469 223.961 12.183 223.974C11.884 223.987 10.818 224 9.778 223.948C9.934 224.221 10.129 224.702 10.194 224.975C11.468 224.975 12.365 224.975 12.885 224.793C13.379 224.65 13.548 224.312 13.548 223.61V215.004H15.147V214.042ZM22.554 220.997V219.372H25.518V220.997H22.554ZM18.732 219.372H21.592V220.997H18.732V219.372ZM18.732 216.954H21.592V218.527H18.732V216.954ZM25.518 216.954V218.527H22.554V216.954H25.518ZM28.079 220.997H26.454V219.372H27.936V218.527H26.454V216.07H22.554V214.809H27.611V213.912H16.665V214.809H21.592V216.07H17.796V218.527H16.366V219.372H17.796V220.997H16.197V221.894H17.796V225.014H18.732V221.894H25.518V223.792C25.518 224.026 25.427 224.091 25.193 224.091C24.959 224.104 24.101 224.117 23.204 224.091C23.347 224.325 23.516 224.754 23.568 225.001C24.712 225.001 25.453 224.988 25.882 224.845C26.311 224.689 26.454 224.39 26.454 223.805V221.894H28.079V220.997ZM35.395 223.649V220.347H39.568V219.411H35.395V216.577H40.049V215.628H35.395V213.132H34.407V215.628H31.768C32.054 214.965 32.288 214.263 32.496 213.548L31.521 213.34C31.014 215.186 30.182 216.98 29.116 218.124C29.376 218.254 29.805 218.54 29.987 218.696C30.481 218.111 30.936 217.396 31.352 216.577H34.407V219.411H30.546V220.347H34.407V223.649H29.142V224.585H40.66V223.649H35.395ZM52.071 218.787C53.098 218.787 53.397 218.371 53.514 216.798C53.228 216.733 52.851 216.577 52.63 216.421C52.578 217.708 52.487 217.916 51.993 217.916H49.926C49.341 217.916 49.237 217.838 49.237 217.422V216.109C50.485 215.745 51.863 215.277 52.89 214.796L52.24 214.094C51.499 214.484 50.342 214.952 49.237 215.316V213.145H48.288V217.435C48.288 218.501 48.613 218.787 49.848 218.787H52.071ZM43.374 221.595V220.399H46.117V221.595H43.374ZM46.117 218.527V219.645H43.374V218.527H46.117ZM47.066 217.721H42.477V224.975H43.374V222.336H46.117V223.87C46.117 224.039 46.078 224.078 45.909 224.078C45.727 224.091 45.181 224.104 44.57 224.078C44.7 224.312 44.83 224.702 44.882 224.949C45.701 224.949 46.26 224.936 46.624 224.793C46.975 224.637 47.066 224.364 47.066 223.883V217.721ZM45.467 214.341C45.766 214.744 46.065 215.212 46.338 215.68L43.673 215.797C44.076 215.056 44.492 214.146 44.843 213.353L43.868 213.119C43.595 213.912 43.114 215.017 42.672 215.836C42.308 215.849 41.983 215.862 41.684 215.875L41.775 216.785C43.101 216.707 44.973 216.616 46.793 216.512C46.936 216.798 47.053 217.058 47.131 217.279L47.95 216.915C47.677 216.122 46.936 214.926 46.26 214.029L45.467 214.341ZM49.965 224.026C49.354 224.026 49.237 223.948 49.237 223.519V222.011C50.55 221.634 52.032 221.14 53.033 220.568L52.396 219.84C51.655 220.321 50.42 220.828 49.237 221.205V219.151H48.288V223.519C48.288 224.585 48.626 224.871 49.874 224.871H52.175C53.254 224.871 53.54 224.416 53.67 222.674C53.397 222.622 53.02 222.466 52.799 222.31C52.734 223.766 52.643 224.026 52.097 224.026H49.965ZM57.762 214.653C57.32 214.185 56.358 213.613 55.591 213.249L55.045 213.938C55.812 214.328 56.748 214.952 57.19 215.407L57.762 214.653ZM57.151 218.007C56.683 217.578 55.721 217.045 54.954 216.707L54.408 217.409C55.201 217.773 56.15 218.358 56.592 218.787L57.151 218.007ZM56.657 220.1C56.072 221.569 55.253 223.259 54.681 224.26L55.552 224.806C56.163 223.597 56.878 221.998 57.424 220.633L56.657 220.1ZM60.44 221.231C60.076 222.154 59.504 223.09 58.867 223.74C59.088 223.857 59.439 224.117 59.621 224.247C60.258 223.558 60.895 222.479 61.311 221.439L60.44 221.231ZM60.843 218.618H64.795V219.762H60.843V218.618ZM60.843 216.785H64.795V217.916H60.843V216.785ZM65.692 220.503V216.044H62.988C63.118 215.615 63.261 215.108 63.391 214.653L63.326 214.64H66.186V213.756H58.282V217.292C58.282 219.424 58.152 222.349 56.683 224.429C56.904 224.52 57.32 224.78 57.489 224.936C59.01 222.778 59.231 219.554 59.231 217.292V214.64H62.325C62.26 215.069 62.156 215.602 62.052 216.044H59.985V220.503H62.299V223.974C62.299 224.117 62.247 224.156 62.078 224.169C61.935 224.169 61.363 224.182 60.739 224.156C60.856 224.39 60.973 224.741 61.012 224.975C61.883 224.988 62.429 224.988 62.78 224.845C63.144 224.715 63.222 224.455 63.222 223.987V220.503H65.692ZM64.093 221.465C64.691 222.284 65.315 223.389 65.575 224.091L66.433 223.688C66.186 222.973 65.523 221.907 64.912 221.114L64.093 221.465ZM72.436 220.919L70.746 221.218V219.502H72.072V218.618H70.746V216.655H69.81V218.618H68.536C68.952 217.721 69.355 216.655 69.693 215.537H72.046V214.64H69.966C70.083 214.211 70.2 213.756 70.278 213.327L69.342 213.132C69.264 213.639 69.16 214.146 69.043 214.64H67.262V215.537H68.822C68.51 216.603 68.211 217.487 68.068 217.799C67.834 218.358 67.639 218.774 67.418 218.826C67.535 219.06 67.665 219.489 67.717 219.684C67.821 219.58 68.211 219.502 68.666 219.502H69.81V221.374C68.822 221.543 67.899 221.699 67.184 221.803L67.392 222.752L69.81 222.284V224.936H70.746V222.102L72.488 221.751L72.436 220.919ZM79.04 217.968V217.071H75.322C75.465 216.564 75.608 216.044 75.751 215.537H78.585V214.653H75.985C76.128 214.172 76.232 213.691 76.349 213.262L75.4 213.132C75.283 213.613 75.153 214.12 75.01 214.653H72.67V215.537H74.776C74.633 216.044 74.49 216.564 74.334 217.071H72.176V217.968H74.087C73.801 218.865 73.541 219.71 73.294 220.373H77.025C76.57 221.01 76.011 221.79 75.478 222.492C75.023 222.193 74.581 221.92 74.152 221.66L73.541 222.284C74.841 223.064 76.375 224.247 77.129 225.014L77.779 224.26C77.402 223.883 76.83 223.441 76.193 222.999C77.012 221.933 77.909 220.698 78.559 219.762L77.883 219.411L77.714 219.463H74.62C74.763 219.008 74.906 218.501 75.062 217.968H79.04ZM83.873 219.723L83.743 218.826L82.495 219.229V216.629H83.704V215.732H82.495V213.132H81.546V215.732H80.038V216.629H81.546V219.515C80.922 219.697 80.35 219.879 79.895 219.983L80.142 220.919C80.571 220.789 81.052 220.646 81.546 220.477V223.805C81.546 223.974 81.481 224.026 81.338 224.026C81.208 224.026 80.753 224.026 80.272 224.013C80.389 224.286 80.519 224.715 80.558 224.962C81.286 224.975 81.767 224.936 82.066 224.767C82.391 224.611 82.495 224.338 82.495 223.805V220.165L83.873 219.723ZM85.589 220.23V217.162H87.305V218.527C87.305 219.034 87.292 219.619 87.136 220.23H85.589ZM89.034 215.095C88.735 215.524 88.358 216.005 87.994 216.382H85.329C85.719 215.966 86.044 215.524 86.343 215.095H89.034ZM89.814 220.23H88.085C88.228 219.632 88.254 219.06 88.254 218.54V217.162H89.814V220.23ZM91.673 221.075V220.23H90.763V216.382H89.112C89.593 215.849 90.074 215.212 90.425 214.653L89.775 214.211L89.619 214.263H86.837C87.019 213.938 87.188 213.6 87.331 213.275L86.369 213.106C85.901 214.185 85.043 215.563 83.782 216.59C83.99 216.733 84.289 217.045 84.419 217.266C84.497 217.188 84.588 217.123 84.666 217.045V220.23H83.73V221.075H86.85C86.343 222.193 85.251 223.35 83.015 224.338C83.249 224.494 83.535 224.819 83.678 225.014C85.875 223.974 87.019 222.765 87.617 221.569C88.462 223.09 89.775 224.325 91.296 224.962C91.439 224.715 91.712 224.377 91.907 224.195C90.373 223.649 89.034 222.492 88.293 221.075H91.673ZM93.178 220.1H94.114V218.293H98.092V219.762H94.595V223.844H95.557V220.62H98.092V225.001H99.067V220.62H101.901V222.804C101.901 222.947 101.862 222.986 101.68 222.999C101.511 223.012 100.926 223.012 100.25 222.986C100.393 223.233 100.523 223.571 100.575 223.844C101.459 223.844 102.044 223.844 102.408 223.688C102.772 223.545 102.863 223.298 102.863 222.804V219.762H99.067V218.293H103.11V220.1H104.085V217.461H93.178V220.1ZM102.369 214.679V213.197H101.42V214.679H99.067V213.184H98.118V214.679H95.895V213.197H94.946V214.679H92.84V215.511H94.946V216.824H95.895V215.511H98.118V216.798H99.067V215.511H101.42V216.863H102.369V215.511H104.423V214.679H102.369ZM117.121 219.775V218.852H111.869V215.615H116.575V214.692H111.869V213.132H110.868V214.692H106.266V215.615H110.868V218.852H105.655V219.775H110.218C109.035 221.361 107.124 222.882 105.382 223.636C105.59 223.831 105.902 224.195 106.058 224.429C107.761 223.584 109.607 222.024 110.868 220.308V224.988H111.869V220.282C113.13 221.998 114.989 223.623 116.718 224.481C116.874 224.221 117.186 223.857 117.394 223.662C115.639 222.908 113.715 221.361 112.532 219.775H117.121ZM107.319 216.239C107.826 216.993 108.32 218.046 108.489 218.696L109.399 218.345C109.217 217.669 108.684 216.668 108.164 215.914L107.319 216.239ZM114.183 218.722C114.651 218.085 115.223 217.058 115.678 216.174L114.69 215.862C114.378 216.642 113.819 217.747 113.377 218.449L114.183 218.722ZM122.409 218.787H119.679V216.07H122.409V218.787ZM119.679 222.765V219.645H122.409V222.765H119.679ZM120.771 213.093C120.68 213.704 120.446 214.575 120.251 215.199H118.795V224.663H119.679V223.636H123.293V215.199H121.135C121.356 214.64 121.59 213.925 121.811 213.288L120.771 213.093ZM129.65 215.16H125.763C125.984 214.549 126.166 213.925 126.322 213.288L125.399 213.067C124.983 214.848 124.281 216.642 123.41 217.786C123.618 217.916 124.034 218.176 124.203 218.332C124.658 217.721 125.061 216.928 125.425 216.057H128.727C128.558 221.231 128.363 223.207 127.934 223.662C127.804 223.831 127.661 223.857 127.401 223.857C127.102 223.857 126.322 223.857 125.477 223.779C125.659 224.052 125.776 224.442 125.802 224.728C126.53 224.767 127.271 224.793 127.726 224.741C128.168 224.702 128.467 224.585 128.753 224.221C129.273 223.584 129.442 221.582 129.65 215.654V215.16ZM127.596 221.01C127.18 220.243 126.283 218.995 125.555 218.072L124.801 218.514C125.516 219.45 126.387 220.737 126.777 221.517L127.596 221.01ZM140.58 215.771H136.16V214.51H140.58V215.771ZM140.58 217.825H136.16V216.551H140.58V217.825ZM141.529 213.691H135.25V218.644H141.529V213.691ZM134.574 214.588C134.054 214.159 133.014 213.6 132.195 213.288L131.688 213.977C132.494 214.341 133.521 214.926 134.028 215.368L134.574 214.588ZM133.82 218.111C133.287 217.682 132.247 217.123 131.415 216.798L130.921 217.487C131.753 217.851 132.793 218.462 133.3 218.904L133.82 218.111ZM133.573 220.022C132.871 221.491 131.909 223.181 131.246 224.169L132.065 224.767C132.78 223.571 133.651 221.959 134.288 220.607L133.573 220.022ZM135.705 220.581H136.966V223.753H135.705V220.581ZM138.994 220.581V223.753H137.72V220.581H138.994ZM141.035 220.581V223.753H139.761V220.581H141.035ZM141.958 223.753V219.749H134.834V223.753H133.729V224.611H142.829V223.753H141.958ZM145.01 214.991H154.24V216.486H155.202V214.094H150.08V213.132H149.105V214.094H144.087V216.486H145.01V214.991ZM150.08 223.753V222.128H154.24V221.27H150.08V219.775C151.146 219.749 152.251 219.71 153.33 219.671C153.642 219.957 153.902 220.23 154.097 220.464L154.825 219.918C154.214 219.164 152.901 218.111 151.809 217.422L151.12 217.903C151.536 218.189 151.991 218.527 152.42 218.878C150.795 218.93 149.157 218.969 147.701 219.008C148.104 218.436 148.533 217.76 148.897 217.149H153.941V216.291H145.4V217.149H147.792C147.48 217.76 147.064 218.475 146.687 219.034C146.024 219.047 145.413 219.047 144.88 219.06L144.932 219.944C146.076 219.905 147.532 219.866 149.105 219.814V221.27H145.114V222.128H149.105V223.753H143.931V224.624H155.371V223.753H150.08ZM167.887 215.407V214.575H159.697C159.879 214.172 160.048 213.756 160.191 213.34L159.242 213.093C158.618 214.978 157.552 216.759 156.304 217.903C156.525 218.02 156.967 218.319 157.149 218.488C157.929 217.682 158.683 216.616 159.307 215.407H167.887ZM166.925 217.175V216.356H159.203V217.175H166.925ZM157.903 218.189V219.034H164.923C165.092 222.375 165.56 224.988 167.276 224.988C168.03 224.988 168.264 224.377 168.342 222.843C168.134 222.713 167.861 222.479 167.666 222.284C167.653 223.363 167.575 224.039 167.328 224.039C166.314 224.039 165.963 221.153 165.872 218.189H157.903ZM171.927 213.171C171.277 215.134 170.224 217.071 169.08 218.332C169.249 218.553 169.535 219.06 169.639 219.281C170.016 218.839 170.393 218.332 170.744 217.786V224.975H171.667V216.187C172.109 215.303 172.512 214.367 172.824 213.444L171.927 213.171ZM180.975 216.668V215.732H177.101V213.171H176.165V215.732H172.525V216.668H175.58C174.787 218.865 173.435 221.062 172.018 222.193C172.239 222.362 172.551 222.7 172.72 222.921C174.085 221.673 175.333 219.541 176.165 217.292V221.712H174.046V222.596H176.165V224.923H177.101V222.596H179.194V221.712H177.101V217.201C177.894 219.463 179.142 221.647 180.507 222.895C180.676 222.635 181.001 222.297 181.235 222.128C179.831 220.997 178.492 218.839 177.725 216.668H180.975ZM193.621 214.614C193.283 214.159 192.581 213.574 191.983 213.184L191.385 213.652C192.009 214.068 192.685 214.692 193.01 215.134L193.621 214.614ZM184.716 215.94C184.365 215.355 183.585 214.523 182.909 213.938L182.246 214.484C182.922 215.095 183.689 215.966 184.014 216.564L184.716 215.94ZM183.884 218.553C183.299 220.113 182.48 221.933 181.895 222.999L182.74 223.558C183.351 222.297 184.079 220.555 184.599 219.112L183.884 218.553ZM189.071 219.697V221.569H187.537V219.697H189.071ZM189.734 222.31V218.943H186.874V222.895H187.537V222.31H189.734ZM189.916 217.201H186.666V217.942H189.916V217.201ZM192.464 217.656C192.204 218.709 191.84 219.658 191.398 220.516C191.229 219.359 191.112 217.916 191.034 216.187H193.634V215.303H191.008C190.995 214.614 190.982 213.899 190.982 213.132H190.072C190.085 213.886 190.098 214.614 190.124 215.303H185.34V218.501C185.34 220.295 185.197 222.739 183.923 224.481C184.144 224.572 184.508 224.832 184.664 224.962C185.99 223.129 186.198 220.425 186.198 218.501V216.187H190.163C190.254 218.397 190.436 220.23 190.696 221.634C189.903 222.752 188.876 223.649 187.615 224.299C187.81 224.468 188.161 224.806 188.278 224.962C189.305 224.364 190.202 223.623 190.943 222.713C191.359 224.208 191.918 225.001 192.685 225.001C193.465 225.001 193.79 224.663 193.92 222.661C193.712 222.583 193.426 222.362 193.244 222.18C193.179 223.662 193.023 224.091 192.776 224.091C192.36 224.091 191.944 223.337 191.619 221.79C192.36 220.672 192.919 219.359 193.309 217.825L192.464 217.656ZM198.649 219.489L198.519 218.592C198.09 218.735 197.661 218.878 197.232 219.008V216.616H198.623V215.732H197.232V213.132H196.335V215.732H194.71V216.616H196.335V219.281C195.659 219.489 195.035 219.684 194.541 219.814L194.788 220.75L196.335 220.243V223.87C196.335 224.065 196.27 224.104 196.114 224.104C195.958 224.117 195.451 224.117 194.892 224.104C195.022 224.364 195.139 224.767 195.178 224.988C195.984 225.001 196.478 224.962 196.79 224.819C197.115 224.663 197.232 224.39 197.232 223.87V219.957L198.649 219.489ZM200.937 215.329H198.805V216.213H200.937V218.033H198.896V218.904H200.937C200.924 219.489 200.898 220.048 200.82 220.581C199.832 220.906 198.883 221.205 198.168 221.387L198.545 222.232C199.182 221.998 199.91 221.751 200.638 221.465C200.313 222.583 199.689 223.558 198.48 224.351C198.688 224.507 199.013 224.819 199.156 225.001C201.509 223.428 201.795 221.153 201.795 218.566V213.119H200.937V215.329ZM206.553 220.841H204.07V218.904H206.202V218.033H204.07V216.213H206.332V215.329H204.07V213.119H203.147V224.975H204.07V221.725H206.553V220.841Z" fill="#666666"/>
<path d="M233.672 217.838V220.802H230.279V217.838H233.672ZM234.621 221.725V216.902H229.343V222.765H230.279V221.725H234.621ZM239.522 214.042H228.017V215.004H236.935V223.597C236.935 223.87 236.844 223.961 236.558 223.974C236.259 223.987 235.193 224 234.153 223.948C234.309 224.221 234.504 224.702 234.569 224.975C235.843 224.975 236.74 224.975 237.26 224.793C237.754 224.65 237.923 224.312 237.923 223.61V215.004H239.522V214.042ZM246.929 220.997V219.372H249.893V220.997H246.929ZM243.107 219.372H245.967V220.997H243.107V219.372ZM243.107 216.954H245.967V218.527H243.107V216.954ZM249.893 216.954V218.527H246.929V216.954H249.893ZM252.454 220.997H250.829V219.372H252.311V218.527H250.829V216.07H246.929V214.809H251.986V213.912H241.04V214.809H245.967V216.07H242.171V218.527H240.741V219.372H242.171V220.997H240.572V221.894H242.171V225.014H243.107V221.894H249.893V223.792C249.893 224.026 249.802 224.091 249.568 224.091C249.334 224.104 248.476 224.117 247.579 224.091C247.722 224.325 247.891 224.754 247.943 225.001C249.087 225.001 249.828 224.988 250.257 224.845C250.686 224.689 250.829 224.39 250.829 223.805V221.894H252.454V220.997ZM259.77 223.649V220.347H263.943V219.411H259.77V216.577H264.424V215.628H259.77V213.132H258.782V215.628H256.143C256.429 214.965 256.663 214.263 256.871 213.548L255.896 213.34C255.389 215.186 254.557 216.98 253.491 218.124C253.751 218.254 254.18 218.54 254.362 218.696C254.856 218.111 255.311 217.396 255.727 216.577H258.782V219.411H254.921V220.347H258.782V223.649H253.517V224.585H265.035V223.649H259.77ZM276.446 218.787C277.473 218.787 277.772 218.371 277.889 216.798C277.603 216.733 277.226 216.577 277.005 216.421C276.953 217.708 276.862 217.916 276.368 217.916H274.301C273.716 217.916 273.612 217.838 273.612 217.422V216.109C274.86 215.745 276.238 215.277 277.265 214.796L276.615 214.094C275.874 214.484 274.717 214.952 273.612 215.316V213.145H272.663V217.435C272.663 218.501 272.988 218.787 274.223 218.787H276.446ZM267.749 221.595V220.399H270.492V221.595H267.749ZM270.492 218.527V219.645H267.749V218.527H270.492ZM271.441 217.721H266.852V224.975H267.749V222.336H270.492V223.87C270.492 224.039 270.453 224.078 270.284 224.078C270.102 224.091 269.556 224.104 268.945 224.078C269.075 224.312 269.205 224.702 269.257 224.949C270.076 224.949 270.635 224.936 270.999 224.793C271.35 224.637 271.441 224.364 271.441 223.883V217.721ZM269.842 214.341C270.141 214.744 270.44 215.212 270.713 215.68L268.048 215.797C268.451 215.056 268.867 214.146 269.218 213.353L268.243 213.119C267.97 213.912 267.489 215.017 267.047 215.836C266.683 215.849 266.358 215.862 266.059 215.875L266.15 216.785C267.476 216.707 269.348 216.616 271.168 216.512C271.311 216.798 271.428 217.058 271.506 217.279L272.325 216.915C272.052 216.122 271.311 214.926 270.635 214.029L269.842 214.341ZM274.34 224.026C273.729 224.026 273.612 223.948 273.612 223.519V222.011C274.925 221.634 276.407 221.14 277.408 220.568L276.771 219.84C276.03 220.321 274.795 220.828 273.612 221.205V219.151H272.663V223.519C272.663 224.585 273.001 224.871 274.249 224.871H276.55C277.629 224.871 277.915 224.416 278.045 222.674C277.772 222.622 277.395 222.466 277.174 222.31C277.109 223.766 277.018 224.026 276.472 224.026H274.34ZM282.137 214.653C281.695 214.185 280.733 213.613 279.966 213.249L279.42 213.938C280.187 214.328 281.123 214.952 281.565 215.407L282.137 214.653ZM281.526 218.007C281.058 217.578 280.096 217.045 279.329 216.707L278.783 217.409C279.576 217.773 280.525 218.358 280.967 218.787L281.526 218.007ZM281.032 220.1C280.447 221.569 279.628 223.259 279.056 224.26L279.927 224.806C280.538 223.597 281.253 221.998 281.799 220.633L281.032 220.1ZM284.815 221.231C284.451 222.154 283.879 223.09 283.242 223.74C283.463 223.857 283.814 224.117 283.996 224.247C284.633 223.558 285.27 222.479 285.686 221.439L284.815 221.231ZM285.218 218.618H289.17V219.762H285.218V218.618ZM285.218 216.785H289.17V217.916H285.218V216.785ZM290.067 220.503V216.044H287.363C287.493 215.615 287.636 215.108 287.766 214.653L287.701 214.64H290.561V213.756H282.657V217.292C282.657 219.424 282.527 222.349 281.058 224.429C281.279 224.52 281.695 224.78 281.864 224.936C283.385 222.778 283.606 219.554 283.606 217.292V214.64H286.7C286.635 215.069 286.531 215.602 286.427 216.044H284.36V220.503H286.674V223.974C286.674 224.117 286.622 224.156 286.453 224.169C286.31 224.169 285.738 224.182 285.114 224.156C285.231 224.39 285.348 224.741 285.387 224.975C286.258 224.988 286.804 224.988 287.155 224.845C287.519 224.715 287.597 224.455 287.597 223.987V220.503H290.067ZM288.468 221.465C289.066 222.284 289.69 223.389 289.95 224.091L290.808 223.688C290.561 222.973 289.898 221.907 289.287 221.114L288.468 221.465ZM296.811 220.919L295.121 221.218V219.502H296.447V218.618H295.121V216.655H294.185V218.618H292.911C293.327 217.721 293.73 216.655 294.068 215.537H296.421V214.64H294.341C294.458 214.211 294.575 213.756 294.653 213.327L293.717 213.132C293.639 213.639 293.535 214.146 293.418 214.64H291.637V215.537H293.197C292.885 216.603 292.586 217.487 292.443 217.799C292.209 218.358 292.014 218.774 291.793 218.826C291.91 219.06 292.04 219.489 292.092 219.684C292.196 219.58 292.586 219.502 293.041 219.502H294.185V221.374C293.197 221.543 292.274 221.699 291.559 221.803L291.767 222.752L294.185 222.284V224.936H295.121V222.102L296.863 221.751L296.811 220.919ZM303.415 217.968V217.071H299.697C299.84 216.564 299.983 216.044 300.126 215.537H302.96V214.653H300.36C300.503 214.172 300.607 213.691 300.724 213.262L299.775 213.132C299.658 213.613 299.528 214.12 299.385 214.653H297.045V215.537H299.151C299.008 216.044 298.865 216.564 298.709 217.071H296.551V217.968H298.462C298.176 218.865 297.916 219.71 297.669 220.373H301.4C300.945 221.01 300.386 221.79 299.853 222.492C299.398 222.193 298.956 221.92 298.527 221.66L297.916 222.284C299.216 223.064 300.75 224.247 301.504 225.014L302.154 224.26C301.777 223.883 301.205 223.441 300.568 222.999C301.387 221.933 302.284 220.698 302.934 219.762L302.258 219.411L302.089 219.463H298.995C299.138 219.008 299.281 218.501 299.437 217.968H303.415ZM308.248 219.723L308.118 218.826L306.87 219.229V216.629H308.079V215.732H306.87V213.132H305.921V215.732H304.413V216.629H305.921V219.515C305.297 219.697 304.725 219.879 304.27 219.983L304.517 220.919C304.946 220.789 305.427 220.646 305.921 220.477V223.805C305.921 223.974 305.856 224.026 305.713 224.026C305.583 224.026 305.128 224.026 304.647 224.013C304.764 224.286 304.894 224.715 304.933 224.962C305.661 224.975 306.142 224.936 306.441 224.767C306.766 224.611 306.87 224.338 306.87 223.805V220.165L308.248 219.723ZM309.964 220.23V217.162H311.68V218.527C311.68 219.034 311.667 219.619 311.511 220.23H309.964ZM313.409 215.095C313.11 215.524 312.733 216.005 312.369 216.382H309.704C310.094 215.966 310.419 215.524 310.718 215.095H313.409ZM314.189 220.23H312.46C312.603 219.632 312.629 219.06 312.629 218.54V217.162H314.189V220.23ZM316.048 221.075V220.23H315.138V216.382H313.487C313.968 215.849 314.449 215.212 314.8 214.653L314.15 214.211L313.994 214.263H311.212C311.394 213.938 311.563 213.6 311.706 213.275L310.744 213.106C310.276 214.185 309.418 215.563 308.157 216.59C308.365 216.733 308.664 217.045 308.794 217.266C308.872 217.188 308.963 217.123 309.041 217.045V220.23H308.105V221.075H311.225C310.718 222.193 309.626 223.35 307.39 224.338C307.624 224.494 307.91 224.819 308.053 225.014C310.25 223.974 311.394 222.765 311.992 221.569C312.837 223.09 314.15 224.325 315.671 224.962C315.814 224.715 316.087 224.377 316.282 224.195C314.748 223.649 313.409 222.492 312.668 221.075H316.048Z" fill="#666666"/>
</svg>
