<svg width="1200" height="370" viewBox="0 0 1200 370" fill="none" xmlns="http://www.w3.org/2000/svg">
<mask id="path-1-inside-1_5304_2810" fill="white">
<path d="M0 0H740V330H0V0Z"/>
</mask>
<path d="M740 329H0V331H740V329Z" fill="#DDDDDD" mask="url(#path-1-inside-1_5304_2810)"/>
<mask id="path-3-inside-2_5304_2810" fill="white">
<path d="M780 0H1200V330H780V0Z"/>
</mask>
<path d="M1200 329H780V331H1200V329Z" fill="#DDDDDD" mask="url(#path-3-inside-2_5304_2810)"/>
<rect opacity="0.14" x="779.994" width="419.997" height="60" rx="10" fill="#10C469"/>
<rect x="1004.99" width="195.003" height="60" rx="10" fill="#10C469"/>
<path d="M1149.72 31.2219H1148.12V29.3879H1145.98V31.2219H1143.35L1147.63 25.3279H1145.25L1140.63 31.5439V33.0699H1145.91V35.1279H1148.12V33.0699H1149.72V31.2219ZM1153.22 33.2799L1155.48 31.1519C1156.85 29.8779 1157.12 29.0099 1157.12 28.0579C1157.12 26.2799 1155.66 25.1599 1153.48 25.1599C1151.71 25.1599 1150.34 25.8739 1149.58 26.9799L1151.24 28.0439C1151.71 27.3859 1152.43 27.0639 1153.27 27.0639C1154.3 27.0639 1154.83 27.5119 1154.83 28.2819C1154.83 28.7579 1154.68 29.2619 1153.81 30.0879L1150.03 33.6579V35.1279H1157.44V33.2799H1153.22ZM1160.53 30.6199C1161.96 30.6199 1162.95 29.5839 1162.95 27.9179C1162.95 26.2519 1161.96 25.2159 1160.53 25.2159C1159.1 25.2159 1158.09 26.2659 1158.09 27.9179C1158.09 29.5699 1159.1 30.6199 1160.53 30.6199ZM1159.67 35.1279H1161.34L1168.03 25.3279H1166.37L1159.67 35.1279ZM1160.53 29.4719C1159.93 29.4719 1159.51 28.9539 1159.51 27.9179C1159.51 26.8819 1159.93 26.3639 1160.53 26.3639C1161.14 26.3639 1161.55 26.8679 1161.55 27.9179C1161.55 28.9679 1161.14 29.4719 1160.53 29.4719ZM1167.18 35.2399C1168.61 35.2399 1169.61 34.1899 1169.61 32.5379C1169.61 30.8859 1168.61 29.8359 1167.18 29.8359C1165.76 29.8359 1164.76 30.8859 1164.76 32.5379C1164.76 34.1899 1165.76 35.2399 1167.18 35.2399ZM1167.18 34.0919C1166.58 34.0919 1166.16 33.5879 1166.16 32.5379C1166.16 31.4879 1166.58 30.9839 1167.18 30.9839C1167.79 30.9839 1168.2 31.5019 1168.2 32.5379C1168.2 33.5739 1167.79 34.0919 1167.18 34.0919Z" fill="white"/>
<rect opacity="0.5" width="740" height="60" rx="10" fill="#D4DFFA"/>
<rect width="202" height="60" rx="10" transform="matrix(-1 0 0 1 740 0)" fill="#435CE7"/>
<path d="M686.416 28.3209L688.628 25.8009V24.3309L681.768 24.3309V26.1509L685.94 26.1509L683.924 28.4329V29.9309L684.96 29.9309C686.248 29.9309 686.794 30.3929 686.794 31.1349C686.794 31.9329 686.094 32.3949 684.96 32.3949C683.938 32.3949 682.902 32.0729 682.16 31.5129L681.278 33.2489C682.23 33.9209 683.644 34.2989 685.016 34.2989C687.802 34.2989 689.076 32.7869 689.076 31.1349C689.076 29.6929 688.18 28.6009 686.416 28.3209ZM689.569 24.3309V27.7749H691.585V26.1789H694.833L691.319 34.1309H693.783L697.423 25.8009V24.3309H689.569ZM700.532 29.6229C701.96 29.6229 702.954 28.5869 702.954 26.9209C702.954 25.2549 701.96 24.2189 700.532 24.2189C699.104 24.2189 698.096 25.2689 698.096 26.9209C698.096 28.5729 699.104 29.6229 700.532 29.6229ZM699.678 34.1309H701.344L708.036 24.3309H706.37L699.678 34.1309ZM700.532 28.4749C699.93 28.4749 699.51 27.9569 699.51 26.9209C699.51 25.8849 699.93 25.3669 700.532 25.3669C701.148 25.3669 701.554 25.8709 701.554 26.9209C701.554 27.9709 701.148 28.4749 700.532 28.4749ZM707.182 34.2429C708.61 34.2429 709.618 33.1929 709.618 31.5409C709.618 29.8889 708.61 28.8389 707.182 28.8389C705.768 28.8389 704.76 29.8889 704.76 31.5409C704.76 33.1929 705.768 34.2429 707.182 34.2429ZM707.182 33.0949C706.58 33.0949 706.16 32.5909 706.16 31.5409C706.16 30.4909 706.58 29.9869 707.182 29.9869C707.798 29.9869 708.204 30.5049 708.204 31.5409C708.204 32.5769 707.798 33.0949 707.182 33.0949Z" fill="white"/>
<path d="M30.5175 36.1279V35.1759L34.5075 31.3259C34.8622 30.9899 35.1235 30.6959 35.2915 30.4439C35.4688 30.1826 35.5855 29.9446 35.6415 29.7299C35.7068 29.5059 35.7395 29.2913 35.7395 29.0859C35.7395 28.5819 35.5622 28.1853 35.2075 27.8959C34.8528 27.6066 34.3348 27.4619 33.6535 27.4619C33.1308 27.4619 32.6595 27.5506 32.2395 27.7279C31.8195 27.8959 31.4555 28.1619 31.1475 28.5259L30.1955 27.6999C30.5688 27.2239 31.0682 26.8599 31.6935 26.6079C32.3282 26.3466 33.0235 26.2159 33.7795 26.2159C34.4608 26.2159 35.0535 26.3279 35.5575 26.5519C36.0615 26.7666 36.4488 27.0793 36.7195 27.4899C36.9995 27.9006 37.1395 28.3859 37.1395 28.9459C37.1395 29.2633 37.0975 29.5759 37.0135 29.8839C36.9295 30.1919 36.7708 30.5186 36.5375 30.8639C36.3042 31.2093 35.9682 31.5966 35.5295 32.0259L31.9735 35.4559L31.6375 34.9099H37.5595V36.1279H30.5175ZM42.4509 36.2399C41.6856 36.2399 40.9996 36.0439 40.3929 35.6519C39.7956 35.2599 39.3196 34.6906 38.9649 33.9439C38.6196 33.1973 38.4469 32.2919 38.4469 31.2279C38.4469 30.1639 38.6196 29.2586 38.9649 28.5119C39.3196 27.7653 39.7956 27.1959 40.3929 26.8039C40.9996 26.4119 41.6856 26.2159 42.4509 26.2159C43.2069 26.2159 43.8882 26.4119 44.4949 26.8039C45.1016 27.1959 45.5776 27.7653 45.9229 28.5119C46.2682 29.2586 46.4409 30.1639 46.4409 31.2279C46.4409 32.2919 46.2682 33.1973 45.9229 33.9439C45.5776 34.6906 45.1016 35.2599 44.4949 35.6519C43.8882 36.0439 43.2069 36.2399 42.4509 36.2399ZM42.4509 34.9939C42.9642 34.9939 43.4122 34.8539 43.7949 34.5739C44.1869 34.2939 44.4902 33.8739 44.7049 33.3139C44.9289 32.7539 45.0409 32.0586 45.0409 31.2279C45.0409 30.3973 44.9289 29.7019 44.7049 29.1419C44.4902 28.5819 44.1869 28.1619 43.7949 27.8819C43.4122 27.6019 42.9642 27.4619 42.4509 27.4619C41.9376 27.4619 41.4849 27.6019 41.0929 27.8819C40.7009 28.1619 40.3929 28.5819 40.1689 29.1419C39.9542 29.7019 39.8469 30.3973 39.8469 31.2279C39.8469 32.0586 39.9542 32.7539 40.1689 33.3139C40.3929 33.8739 40.7009 34.2939 41.0929 34.5739C41.4849 34.8539 41.9376 34.9939 42.4509 34.9939ZM47.3808 36.1279V35.1759L51.3708 31.3259C51.7255 30.9899 51.9868 30.6959 52.1548 30.4439C52.3321 30.1826 52.4488 29.9446 52.5048 29.7299C52.5701 29.5059 52.6028 29.2913 52.6028 29.0859C52.6028 28.5819 52.4255 28.1853 52.0708 27.8959C51.7161 27.6066 51.1981 27.4619 50.5168 27.4619C49.9941 27.4619 49.5228 27.5506 49.1028 27.7279C48.6828 27.8959 48.3188 28.1619 48.0108 28.5259L47.0588 27.6999C47.4321 27.2239 47.9315 26.8599 48.5568 26.6079C49.1915 26.3466 49.8868 26.2159 50.6428 26.2159C51.3241 26.2159 51.9168 26.3279 52.4208 26.5519C52.9248 26.7666 53.3121 27.0793 53.5828 27.4899C53.8628 27.9006 54.0028 28.3859 54.0028 28.9459C54.0028 29.2633 53.9608 29.5759 53.8768 29.8839C53.7928 30.1919 53.6341 30.5186 53.4008 30.8639C53.1675 31.2093 52.8315 31.5966 52.3928 32.0259L48.8368 35.4559L48.5008 34.9099H54.4228V36.1279H47.3808ZM58.4879 36.2399C57.7972 36.2399 57.1252 36.1326 56.4719 35.9179C55.8279 35.7033 55.3005 35.4139 54.8899 35.0499L55.5339 33.9439C55.8605 34.2519 56.2852 34.5039 56.8079 34.6999C57.3305 34.8959 57.8859 34.9939 58.4739 34.9939C59.2205 34.9939 59.7945 34.8353 60.1959 34.5179C60.5972 34.2006 60.7979 33.7759 60.7979 33.2439C60.7979 32.8799 60.7092 32.5626 60.5319 32.2919C60.3545 32.0213 60.0465 31.8159 59.6079 31.6759C59.1785 31.5266 58.5859 31.4519 57.8299 31.4519H55.6039L56.1219 26.3279H61.6519V27.5459L56.6399 27.5459L57.3679 26.8599L56.9619 30.9059L56.2339 30.2339H58.1239C59.1039 30.2339 59.8925 30.3599 60.4899 30.6119C61.0872 30.8639 61.5212 31.2139 61.7919 31.6619C62.0625 32.1006 62.1979 32.6093 62.1979 33.1879C62.1979 33.7479 62.0625 34.2613 61.7919 34.7279C61.5212 35.1853 61.1105 35.5539 60.5599 35.8339C60.0185 36.1046 59.3279 36.2399 58.4879 36.2399ZM66.6829 32.8799V30.4019H69.4969V32.8799H66.6829ZM75.7549 32.8799H70.8409V30.4019H74.7469V29.1839H70.8409V27.2519H75.0689V25.9919H66.9629C67.1449 25.5719 67.3409 25.1099 67.5089 24.6759L66.1929 24.3259C65.5489 26.1879 64.4289 27.9659 63.1409 29.0719C63.4629 29.2679 64.0229 29.6879 64.2749 29.9119C64.9889 29.2119 65.6889 28.2879 66.2909 27.2519H69.4969V29.1839H65.3809V32.8799H63.1269V34.1399H69.4969V37.2339H70.8409V34.1399H75.7549V32.8799Z" fill="#435CE7"/>
<rect opacity="0.14" x="780" y="80" width="420" height="60" rx="10" fill="#10C469"/>
<rect x="915" y="80" width="285" height="60" rx="10" fill="#10C469"/>
<path d="M1146.38 108.982C1145.36 108.982 1144.54 109.276 1143.96 109.85C1144.03 107.974 1145.08 107.008 1146.72 107.008C1147.38 107.008 1148.01 107.134 1148.55 107.498L1149.39 105.832C1148.71 105.398 1147.7 105.16 1146.66 105.16C1143.71 105.16 1141.67 107.05 1141.67 110.438C1141.67 113.602 1143.35 115.296 1146.05 115.296C1148.12 115.296 1149.76 114.036 1149.76 112.034C1149.76 110.186 1148.27 108.982 1146.38 108.982ZM1145.92 113.602C1144.83 113.602 1144.2 112.986 1144.2 112.146C1144.2 111.292 1144.9 110.676 1145.89 110.676C1146.9 110.676 1147.56 111.25 1147.56 112.146C1147.56 113.042 1146.89 113.602 1145.92 113.602ZM1153.69 109.01H1152.89L1153.05 107.148H1157.13V105.328H1151.16L1150.65 110.844H1153.16C1154.94 110.844 1155.44 111.348 1155.44 112.118C1155.44 112.916 1154.74 113.392 1153.61 113.392C1152.58 113.392 1151.56 113.07 1150.82 112.51L1149.92 114.246C1150.88 114.918 1152.3 115.296 1153.66 115.296C1156.46 115.296 1157.74 113.784 1157.74 112.048C1157.74 110.312 1156.59 109.01 1153.69 109.01ZM1160.54 110.62C1161.96 110.62 1162.96 109.584 1162.96 107.918C1162.96 106.252 1161.96 105.216 1160.54 105.216C1159.11 105.216 1158.1 106.266 1158.1 107.918C1158.1 109.57 1159.11 110.62 1160.54 110.62ZM1159.68 115.128H1161.35L1168.04 105.328H1166.37L1159.68 115.128ZM1160.54 109.472C1159.93 109.472 1159.51 108.954 1159.51 107.918C1159.51 106.882 1159.93 106.364 1160.54 106.364C1161.15 106.364 1161.56 106.868 1161.56 107.918C1161.56 108.968 1161.15 109.472 1160.54 109.472ZM1167.19 115.24C1168.61 115.24 1169.62 114.19 1169.62 112.538C1169.62 110.886 1168.61 109.836 1167.19 109.836C1165.77 109.836 1164.76 110.886 1164.76 112.538C1164.76 114.19 1165.77 115.24 1167.19 115.24ZM1167.19 114.092C1166.58 114.092 1166.16 113.588 1166.16 112.538C1166.16 111.488 1166.58 110.984 1167.19 110.984C1167.8 110.984 1168.21 111.502 1168.21 112.538C1168.21 113.574 1167.8 114.092 1167.19 114.092Z" fill="white"/>
<rect opacity="0.5" y="80" width="740" height="60" rx="10" fill="#D4DFFA"/>
<rect width="326" height="60" rx="10" transform="matrix(-1 0 0 1 740 80)" fill="#435CE7"/>
<path d="M684.697 108.013H683.899L684.053 106.151H688.141V104.331H682.163L681.659 109.847H684.165C685.943 109.847 686.447 110.351 686.447 111.121C686.447 111.919 685.747 112.395 684.613 112.395C683.591 112.395 682.569 112.073 681.827 111.513L680.931 113.249C681.883 113.921 683.311 114.299 684.669 114.299C687.469 114.299 688.743 112.787 688.743 111.051C688.743 109.315 687.595 108.013 684.697 108.013ZM696.119 108.979C696.847 108.531 697.267 107.845 697.267 106.963C697.267 105.241 695.727 104.163 693.473 104.163C691.247 104.163 689.707 105.241 689.707 106.963C689.707 107.845 690.113 108.531 690.841 108.979C689.903 109.455 689.357 110.239 689.357 111.289C689.357 113.137 690.995 114.299 693.473 114.299C695.965 114.299 697.617 113.137 697.617 111.289C697.617 110.239 697.071 109.455 696.119 108.979ZM693.473 105.829C694.397 105.829 695.013 106.291 695.013 107.061C695.013 107.803 694.411 108.265 693.473 108.265C692.549 108.265 691.961 107.803 691.961 107.061C691.961 106.291 692.563 105.829 693.473 105.829ZM693.473 112.633C692.353 112.633 691.653 112.087 691.653 111.219C691.653 110.351 692.353 109.819 693.473 109.819C694.607 109.819 695.321 110.351 695.321 111.219C695.321 112.087 694.607 112.633 693.473 112.633ZM700.537 109.623C701.965 109.623 702.959 108.587 702.959 106.921C702.959 105.255 701.965 104.219 700.537 104.219C699.109 104.219 698.101 105.269 698.101 106.921C698.101 108.573 699.109 109.623 700.537 109.623ZM699.683 114.131H701.349L708.041 104.331H706.375L699.683 114.131ZM700.537 108.475C699.935 108.475 699.515 107.957 699.515 106.921C699.515 105.885 699.935 105.367 700.537 105.367C701.153 105.367 701.559 105.871 701.559 106.921C701.559 107.971 701.153 108.475 700.537 108.475ZM707.187 114.243C708.615 114.243 709.623 113.193 709.623 111.541C709.623 109.889 708.615 108.839 707.187 108.839C705.773 108.839 704.765 109.889 704.765 111.541C704.765 113.193 705.773 114.243 707.187 114.243ZM707.187 113.095C706.585 113.095 706.165 112.591 706.165 111.541C706.165 110.491 706.585 109.987 707.187 109.987C707.803 109.987 708.209 110.505 708.209 111.541C708.209 112.577 707.803 113.095 707.187 113.095Z" fill="white"/>
<path d="M30.518 116.128V115.176L34.508 111.326C34.8627 110.99 35.124 110.696 35.292 110.444C35.4693 110.183 35.586 109.945 35.642 109.73C35.7073 109.506 35.74 109.291 35.74 109.086C35.74 108.582 35.5627 108.185 35.208 107.896C34.8533 107.607 34.3353 107.462 33.654 107.462C33.1313 107.462 32.66 107.551 32.24 107.728C31.82 107.896 31.456 108.162 31.148 108.526L30.196 107.7C30.5693 107.224 31.0687 106.86 31.694 106.608C32.3287 106.347 33.024 106.216 33.78 106.216C34.4613 106.216 35.054 106.328 35.558 106.552C36.062 106.767 36.4493 107.079 36.72 107.49C37 107.901 37.14 108.386 37.14 108.946C37.14 109.263 37.098 109.576 37.014 109.884C36.93 110.192 36.7713 110.519 36.538 110.864C36.3047 111.209 35.9687 111.597 35.53 112.026L31.974 115.456L31.638 114.91H37.56V116.128H30.518ZM42.4514 116.24C41.6861 116.24 41.0001 116.044 40.3934 115.652C39.7961 115.26 39.3201 114.691 38.9654 113.944C38.6201 113.197 38.4474 112.292 38.4474 111.228C38.4474 110.164 38.6201 109.259 38.9654 108.512C39.3201 107.765 39.7961 107.196 40.3934 106.804C41.0001 106.412 41.6861 106.216 42.4514 106.216C43.2074 106.216 43.8887 106.412 44.4954 106.804C45.1021 107.196 45.5781 107.765 45.9234 108.512C46.2687 109.259 46.4414 110.164 46.4414 111.228C46.4414 112.292 46.2687 113.197 45.9234 113.944C45.5781 114.691 45.1021 115.26 44.4954 115.652C43.8887 116.044 43.2074 116.24 42.4514 116.24ZM42.4514 114.994C42.9647 114.994 43.4127 114.854 43.7954 114.574C44.1874 114.294 44.4907 113.874 44.7054 113.314C44.9294 112.754 45.0414 112.059 45.0414 111.228C45.0414 110.397 44.9294 109.702 44.7054 109.142C44.4907 108.582 44.1874 108.162 43.7954 107.882C43.4127 107.602 42.9647 107.462 42.4514 107.462C41.9381 107.462 41.4854 107.602 41.0934 107.882C40.7014 108.162 40.3934 108.582 40.1694 109.142C39.9547 109.702 39.8474 110.397 39.8474 111.228C39.8474 112.059 39.9547 112.754 40.1694 113.314C40.3934 113.874 40.7014 114.294 41.0934 114.574C41.4854 114.854 41.9381 114.994 42.4514 114.994ZM50.3946 116.24C49.7039 116.24 49.0319 116.133 48.3786 115.918C47.7346 115.703 47.2072 115.414 46.7966 115.05L47.4406 113.944C47.7672 114.252 48.1919 114.504 48.7146 114.7C49.2372 114.896 49.7972 114.994 50.3946 114.994C51.1226 114.994 51.6872 114.84 52.0886 114.532C52.4992 114.215 52.7046 113.79 52.7046 113.258C52.7046 112.745 52.5086 112.334 52.1166 112.026C51.7339 111.709 51.1226 111.55 50.2826 111.55H49.4986V110.57L52.4106 106.986L52.6066 107.546H47.2446V106.328H53.7126V107.28L50.8146 110.85L50.0866 110.416H50.5486C51.7339 110.416 52.6206 110.682 53.2086 111.214C53.8059 111.746 54.1046 112.423 54.1046 113.244C54.1046 113.795 53.9692 114.299 53.6986 114.756C53.4279 115.213 53.0172 115.577 52.4666 115.848C51.9252 116.109 51.2346 116.24 50.3946 116.24ZM59.1643 116.24C58.3989 116.24 57.7129 116.044 57.1063 115.652C56.5089 115.26 56.0329 114.691 55.6783 113.944C55.3329 113.197 55.1603 112.292 55.1603 111.228C55.1603 110.164 55.3329 109.259 55.6783 108.512C56.0329 107.765 56.5089 107.196 57.1063 106.804C57.7129 106.412 58.3989 106.216 59.1643 106.216C59.9203 106.216 60.6016 106.412 61.2083 106.804C61.8149 107.196 62.2909 107.765 62.6363 108.512C62.9816 109.259 63.1543 110.164 63.1543 111.228C63.1543 112.292 62.9816 113.197 62.6363 113.944C62.2909 114.691 61.8149 115.26 61.2083 115.652C60.6016 116.044 59.9203 116.24 59.1643 116.24ZM59.1643 114.994C59.6776 114.994 60.1256 114.854 60.5083 114.574C60.9003 114.294 61.2036 113.874 61.4183 113.314C61.6423 112.754 61.7543 112.059 61.7543 111.228C61.7543 110.397 61.6423 109.702 61.4183 109.142C61.2036 108.582 60.9003 108.162 60.5083 107.882C60.1256 107.602 59.6776 107.462 59.1643 107.462C58.6509 107.462 58.1983 107.602 57.8063 107.882C57.4143 108.162 57.1063 108.582 56.8823 109.142C56.6676 109.702 56.5603 110.397 56.5603 111.228C56.5603 112.059 56.6676 112.754 56.8823 113.314C57.1063 113.874 57.4143 114.294 57.8063 114.574C58.1983 114.854 58.6509 114.994 59.1643 114.994ZM67.8182 112.88V110.402H70.6322V112.88H67.8182ZM76.8902 112.88H71.9762V110.402H75.8822V109.184H71.9762V107.252H76.2042V105.992H68.0982C68.2802 105.572 68.4762 105.11 68.6442 104.676L67.3282 104.326C66.6842 106.188 65.5642 107.966 64.2762 109.072C64.5982 109.268 65.1582 109.688 65.4102 109.912C66.1242 109.212 66.8242 108.288 67.4262 107.252H70.6322V109.184H66.5162V112.88H64.2622V114.14H70.6322V117.234H71.9762V114.14H76.8902V112.88Z" fill="#435CE7"/>
<rect opacity="0.14" x="780" y="160" width="420" height="60" rx="10" fill="#10C469"/>
<rect x="848" y="160" width="352" height="60" rx="10" fill="#10C469"/>
<path d="M1143.8 185.16C1141.72 185.16 1140.09 186.42 1140.09 188.422C1140.09 190.27 1141.57 191.474 1143.46 191.474C1144.48 191.474 1145.32 191.166 1145.9 190.592C1145.83 192.482 1144.76 193.448 1143.14 193.448C1142.47 193.448 1141.84 193.322 1141.3 192.958L1140.46 194.624C1141.15 195.058 1142.14 195.296 1143.18 195.296C1146.15 195.296 1148.18 193.406 1148.18 190.018C1148.18 186.854 1146.51 185.16 1143.8 185.16ZM1143.96 189.78C1142.96 189.78 1142.3 189.206 1142.3 188.31C1142.3 187.414 1142.97 186.854 1143.94 186.854C1145.01 186.854 1145.64 187.47 1145.64 188.31C1145.64 189.164 1144.96 189.78 1143.96 189.78ZM1153.22 195.296C1155.64 195.296 1157.42 193.462 1157.42 190.228C1157.42 186.994 1155.64 185.16 1153.22 185.16C1150.81 185.16 1149.02 186.994 1149.02 190.228C1149.02 193.462 1150.81 195.296 1153.22 195.296ZM1153.22 193.378C1152.1 193.378 1151.31 192.454 1151.31 190.228C1151.31 188.002 1152.1 187.078 1153.22 187.078C1154.35 187.078 1155.13 188.002 1155.13 190.228C1155.13 192.454 1154.35 193.378 1153.22 193.378ZM1160.54 190.62C1161.96 190.62 1162.96 189.584 1162.96 187.918C1162.96 186.252 1161.96 185.216 1160.54 185.216C1159.11 185.216 1158.1 186.266 1158.1 187.918C1158.1 189.57 1159.11 190.62 1160.54 190.62ZM1159.68 195.128H1161.35L1168.04 185.328H1166.37L1159.68 195.128ZM1160.54 189.472C1159.93 189.472 1159.51 188.954 1159.51 187.918C1159.51 186.882 1159.93 186.364 1160.54 186.364C1161.15 186.364 1161.56 186.868 1161.56 187.918C1161.56 188.968 1161.15 189.472 1160.54 189.472ZM1167.19 195.24C1168.61 195.24 1169.62 194.19 1169.62 192.538C1169.62 190.886 1168.61 189.836 1167.19 189.836C1165.77 189.836 1164.76 190.886 1164.76 192.538C1164.76 194.19 1165.77 195.24 1167.19 195.24ZM1167.19 194.092C1166.58 194.092 1166.16 193.588 1166.16 192.538C1166.16 191.488 1166.58 190.984 1167.19 190.984C1167.8 190.984 1168.21 191.502 1168.21 192.538C1168.21 193.574 1167.8 194.092 1167.19 194.092Z" fill="white"/>
<rect opacity="0.5" y="160" width="740" height="60" rx="10" fill="#D4DFFA"/>
<rect width="403" height="60" rx="10" transform="matrix(-1 0 0 1 740 160)" fill="#435CE7"/>
<path d="M681.948 184.331V187.775H683.964V186.179H687.212L683.698 194.131H686.162L689.802 185.801V184.331H681.948ZM693.689 188.013H692.891L693.045 186.151H697.133V184.331H691.155L690.651 189.847H693.157C694.935 189.847 695.439 190.351 695.439 191.121C695.439 191.919 694.739 192.395 693.605 192.395C692.583 192.395 691.561 192.073 690.819 191.513L689.923 193.249C690.875 193.921 692.303 194.299 693.661 194.299C696.461 194.299 697.735 192.787 697.735 191.051C697.735 189.315 696.587 188.013 693.689 188.013ZM700.537 189.623C701.965 189.623 702.959 188.587 702.959 186.921C702.959 185.255 701.965 184.219 700.537 184.219C699.109 184.219 698.101 185.269 698.101 186.921C698.101 188.573 699.109 189.623 700.537 189.623ZM699.683 194.131H701.349L708.041 184.331H706.375L699.683 194.131ZM700.537 188.475C699.935 188.475 699.515 187.957 699.515 186.921C699.515 185.885 699.935 185.367 700.537 185.367C701.153 185.367 701.559 185.871 701.559 186.921C701.559 187.971 701.153 188.475 700.537 188.475ZM707.187 194.243C708.615 194.243 709.623 193.193 709.623 191.541C709.623 189.889 708.615 188.839 707.187 188.839C705.773 188.839 704.765 189.889 704.765 191.541C704.765 193.193 705.773 194.243 707.187 194.243ZM707.187 193.095C706.585 193.095 706.165 192.591 706.165 191.541C706.165 190.491 706.585 189.987 707.187 189.987C707.803 189.987 708.209 190.505 708.209 191.541C708.209 192.577 707.803 193.095 707.187 193.095Z" fill="white"/>
<path d="M30.518 196.128V195.176L34.508 191.326C34.8627 190.99 35.124 190.696 35.292 190.444C35.4693 190.183 35.586 189.945 35.642 189.73C35.7073 189.506 35.74 189.291 35.74 189.086C35.74 188.582 35.5627 188.185 35.208 187.896C34.8533 187.607 34.3353 187.462 33.654 187.462C33.1313 187.462 32.66 187.551 32.24 187.728C31.82 187.896 31.456 188.162 31.148 188.526L30.196 187.7C30.5693 187.224 31.0687 186.86 31.694 186.608C32.3287 186.347 33.024 186.216 33.78 186.216C34.4613 186.216 35.054 186.328 35.558 186.552C36.062 186.767 36.4493 187.079 36.72 187.49C37 187.901 37.14 188.386 37.14 188.946C37.14 189.263 37.098 189.576 37.014 189.884C36.93 190.192 36.7713 190.519 36.538 190.864C36.3047 191.209 35.9687 191.597 35.53 192.026L31.974 195.456L31.638 194.91H37.56V196.128H30.518ZM42.4514 196.24C41.6861 196.24 41.0001 196.044 40.3934 195.652C39.7961 195.26 39.3201 194.691 38.9654 193.944C38.6201 193.197 38.4474 192.292 38.4474 191.228C38.4474 190.164 38.6201 189.259 38.9654 188.512C39.3201 187.765 39.7961 187.196 40.3934 186.804C41.0001 186.412 41.6861 186.216 42.4514 186.216C43.2074 186.216 43.8887 186.412 44.4954 186.804C45.1021 187.196 45.5781 187.765 45.9234 188.512C46.2687 189.259 46.4414 190.164 46.4414 191.228C46.4414 192.292 46.2687 193.197 45.9234 193.944C45.5781 194.691 45.1021 195.26 44.4954 195.652C43.8887 196.044 43.2074 196.24 42.4514 196.24ZM42.4514 194.994C42.9647 194.994 43.4127 194.854 43.7954 194.574C44.1874 194.294 44.4907 193.874 44.7054 193.314C44.9294 192.754 45.0414 192.059 45.0414 191.228C45.0414 190.397 44.9294 189.702 44.7054 189.142C44.4907 188.582 44.1874 188.162 43.7954 187.882C43.4127 187.602 42.9647 187.462 42.4514 187.462C41.9381 187.462 41.4854 187.602 41.0934 187.882C40.7014 188.162 40.3934 188.582 40.1694 189.142C39.9547 189.702 39.8474 190.397 39.8474 191.228C39.8474 192.059 39.9547 192.754 40.1694 193.314C40.3934 193.874 40.7014 194.294 41.0934 194.574C41.4854 194.854 41.9381 194.994 42.4514 194.994ZM47.3953 193.72V192.74L52.4073 186.328H53.9193L48.9493 192.74L48.2353 192.516H56.0613V193.72H47.3953ZM52.8413 196.128V193.72L52.8833 192.516V190.388H54.1993V196.128H52.8413ZM60.6545 196.24C59.8892 196.24 59.2032 196.044 58.5965 195.652C57.9992 195.26 57.5232 194.691 57.1685 193.944C56.8232 193.197 56.6505 192.292 56.6505 191.228C56.6505 190.164 56.8232 189.259 57.1685 188.512C57.5232 187.765 57.9992 187.196 58.5965 186.804C59.2032 186.412 59.8892 186.216 60.6545 186.216C61.4105 186.216 62.0918 186.412 62.6985 186.804C63.3052 187.196 63.7812 187.765 64.1265 188.512C64.4718 189.259 64.6445 190.164 64.6445 191.228C64.6445 192.292 64.4718 193.197 64.1265 193.944C63.7812 194.691 63.3052 195.26 62.6985 195.652C62.0918 196.044 61.4105 196.24 60.6545 196.24ZM60.6545 194.994C61.1678 194.994 61.6158 194.854 61.9985 194.574C62.3905 194.294 62.6938 193.874 62.9085 193.314C63.1325 192.754 63.2445 192.059 63.2445 191.228C63.2445 190.397 63.1325 189.702 62.9085 189.142C62.6938 188.582 62.3905 188.162 61.9985 187.882C61.6158 187.602 61.1678 187.462 60.6545 187.462C60.1412 187.462 59.6885 187.602 59.2965 187.882C58.9045 188.162 58.5965 188.582 58.3725 189.142C58.1578 189.702 58.0505 190.397 58.0505 191.228C58.0505 192.059 58.1578 192.754 58.3725 193.314C58.5965 193.874 58.9045 194.294 59.2965 194.574C59.6885 194.854 60.1412 194.994 60.6545 194.994ZM69.3084 192.88V190.402H72.1224V192.88H69.3084ZM78.3804 192.88H73.4664V190.402H77.3724V189.184H73.4664V187.252H77.6944V185.992H69.5884C69.7704 185.572 69.9664 185.11 70.1344 184.676L68.8184 184.326C68.1744 186.188 67.0544 187.966 65.7664 189.072C66.0884 189.268 66.6484 189.688 66.9004 189.912C67.6144 189.212 68.3144 188.288 68.9164 187.252H72.1224V189.184H68.0064V192.88H65.7524V194.14H72.1224V197.234H73.4664V194.14H78.3804V192.88Z" fill="#435CE7"/>
<rect opacity="0.14" x="779.994" y="240" width="420.006" height="59.7928" rx="7" fill="#10C469"/>
<rect x="780" y="240" width="419.997" height="60" rx="10" fill="#10C469"/>
<path d="M1134.08 265.328V267.148H1136.04V275.128H1138.3V265.328H1134.08ZM1143.96 275.296C1146.38 275.296 1148.16 273.462 1148.16 270.228C1148.16 266.994 1146.38 265.16 1143.96 265.16C1141.55 265.16 1139.76 266.994 1139.76 270.228C1139.76 273.462 1141.55 275.296 1143.96 275.296ZM1143.96 273.378C1142.84 273.378 1142.05 272.454 1142.05 270.228C1142.05 268.002 1142.84 267.078 1143.96 267.078C1145.09 267.078 1145.87 268.002 1145.87 270.228C1145.87 272.454 1145.09 273.378 1143.96 273.378ZM1153.21 275.296C1155.63 275.296 1157.41 273.462 1157.41 270.228C1157.41 266.994 1155.63 265.16 1153.21 265.16C1150.8 265.16 1149.01 266.994 1149.01 270.228C1149.01 273.462 1150.8 275.296 1153.21 275.296ZM1153.21 273.378C1152.09 273.378 1151.3 272.454 1151.3 270.228C1151.3 268.002 1152.09 267.078 1153.21 267.078C1154.34 267.078 1155.13 268.002 1155.13 270.228C1155.13 272.454 1154.34 273.378 1153.21 273.378ZM1160.53 270.62C1161.96 270.62 1162.95 269.584 1162.95 267.918C1162.95 266.252 1161.96 265.216 1160.53 265.216C1159.1 265.216 1158.09 266.266 1158.09 267.918C1158.09 269.57 1159.1 270.62 1160.53 270.62ZM1159.67 275.128H1161.34L1168.03 265.328H1166.37L1159.67 275.128ZM1160.53 269.472C1159.93 269.472 1159.51 268.954 1159.51 267.918C1159.51 266.882 1159.93 266.364 1160.53 266.364C1161.14 266.364 1161.55 266.868 1161.55 267.918C1161.55 268.968 1161.14 269.472 1160.53 269.472ZM1167.18 275.24C1168.61 275.24 1169.61 274.19 1169.61 272.538C1169.61 270.886 1168.61 269.836 1167.18 269.836C1165.76 269.836 1164.76 270.886 1164.76 272.538C1164.76 274.19 1165.76 275.24 1167.18 275.24ZM1167.18 274.092C1166.58 274.092 1166.16 273.588 1166.16 272.538C1166.16 271.488 1166.58 270.984 1167.18 270.984C1167.79 270.984 1168.2 271.502 1168.2 272.538C1168.2 273.574 1167.79 274.092 1167.18 274.092Z" fill="white"/>
<rect opacity="0.5" y="240" width="740" height="60" rx="10" fill="#D4DFFA"/>
<rect width="502" height="60" rx="10" transform="matrix(-1 0 0 1 740 240)" fill="#435CE7"/>
<path d="M684.834 269.006C685.562 268.558 685.982 267.872 685.982 266.99C685.982 265.268 684.442 264.19 682.188 264.19C679.962 264.19 678.422 265.268 678.422 266.99C678.422 267.872 678.828 268.558 679.556 269.006C678.618 269.482 678.072 270.266 678.072 271.316C678.072 273.164 679.71 274.326 682.188 274.326C684.68 274.326 686.332 273.164 686.332 271.316C686.332 270.266 685.786 269.482 684.834 269.006ZM682.188 265.856C683.112 265.856 683.728 266.318 683.728 267.088C683.728 267.83 683.126 268.292 682.188 268.292C681.264 268.292 680.676 267.83 680.676 267.088C680.676 266.318 681.278 265.856 682.188 265.856ZM682.188 272.66C681.068 272.66 680.368 272.114 680.368 271.246C680.368 270.378 681.068 269.846 682.188 269.846C683.322 269.846 684.036 270.378 684.036 271.246C684.036 272.114 683.322 272.66 682.188 272.66ZM690.228 272.31L692.482 270.182C693.854 268.908 694.12 268.04 694.12 267.088C694.12 265.31 692.664 264.19 690.48 264.19C688.716 264.19 687.344 264.904 686.588 266.01L688.24 267.074C688.716 266.416 689.43 266.094 690.27 266.094C691.306 266.094 691.838 266.542 691.838 267.312C691.838 267.788 691.684 268.292 690.816 269.118L687.036 272.688V274.158H694.442V272.31H690.228ZM697.532 269.65C698.96 269.65 699.954 268.614 699.954 266.948C699.954 265.282 698.96 264.246 697.532 264.246C696.104 264.246 695.096 265.296 695.096 266.948C695.096 268.6 696.104 269.65 697.532 269.65ZM696.678 274.158H698.344L705.036 264.358H703.37L696.678 274.158ZM697.532 268.502C696.93 268.502 696.51 267.984 696.51 266.948C696.51 265.912 696.93 265.394 697.532 265.394C698.148 265.394 698.554 265.898 698.554 266.948C698.554 267.998 698.148 268.502 697.532 268.502ZM704.182 274.27C705.61 274.27 706.618 273.22 706.618 271.568C706.618 269.916 705.61 268.866 704.182 268.866C702.768 268.866 701.76 269.916 701.76 271.568C701.76 273.22 702.768 274.27 704.182 274.27ZM704.182 273.122C703.58 273.122 703.16 272.618 703.16 271.568C703.16 270.518 703.58 270.014 704.182 270.014C704.798 270.014 705.204 270.532 705.204 271.568C705.204 272.604 704.798 273.122 704.182 273.122Z" fill="white"/>
<path d="M30.5175 276.128V275.176L34.5075 271.326C34.8622 270.99 35.1235 270.696 35.2915 270.444C35.4688 270.183 35.5855 269.945 35.6415 269.73C35.7068 269.506 35.7395 269.291 35.7395 269.086C35.7395 268.582 35.5622 268.185 35.2075 267.896C34.8528 267.607 34.3348 267.462 33.6535 267.462C33.1308 267.462 32.6595 267.551 32.2395 267.728C31.8195 267.896 31.4555 268.162 31.1475 268.526L30.1955 267.7C30.5688 267.224 31.0682 266.86 31.6935 266.608C32.3282 266.347 33.0235 266.216 33.7795 266.216C34.4608 266.216 35.0535 266.328 35.5575 266.552C36.0615 266.767 36.4488 267.079 36.7195 267.49C36.9995 267.901 37.1395 268.386 37.1395 268.946C37.1395 269.263 37.0975 269.576 37.0135 269.884C36.9295 270.192 36.7708 270.519 36.5375 270.864C36.3042 271.209 35.9682 271.597 35.5295 272.026L31.9735 275.456L31.6375 274.91H37.5595V276.128H30.5175ZM42.4509 276.24C41.6856 276.24 40.9996 276.044 40.3929 275.652C39.7956 275.26 39.3196 274.691 38.9649 273.944C38.6196 273.197 38.4469 272.292 38.4469 271.228C38.4469 270.164 38.6196 269.259 38.9649 268.512C39.3196 267.765 39.7956 267.196 40.3929 266.804C40.9996 266.412 41.6856 266.216 42.4509 266.216C43.2069 266.216 43.8882 266.412 44.4949 266.804C45.1016 267.196 45.5776 267.765 45.9229 268.512C46.2682 269.259 46.4409 270.164 46.4409 271.228C46.4409 272.292 46.2682 273.197 45.9229 273.944C45.5776 274.691 45.1016 275.26 44.4949 275.652C43.8882 276.044 43.2069 276.24 42.4509 276.24ZM42.4509 274.994C42.9642 274.994 43.4122 274.854 43.7949 274.574C44.1869 274.294 44.4902 273.874 44.7049 273.314C44.9289 272.754 45.0409 272.059 45.0409 271.228C45.0409 270.397 44.9289 269.702 44.7049 269.142C44.4902 268.582 44.1869 268.162 43.7949 267.882C43.4122 267.602 42.9642 267.462 42.4509 267.462C41.9376 267.462 41.4849 267.602 41.0929 267.882C40.7009 268.162 40.3929 268.582 40.1689 269.142C39.9542 269.702 39.8469 270.397 39.8469 271.228C39.8469 272.059 39.9542 272.754 40.1689 273.314C40.3929 273.874 40.7009 274.294 41.0929 274.574C41.4849 274.854 41.9376 274.994 42.4509 274.994ZM50.6988 276.24C50.0081 276.24 49.3361 276.133 48.6828 275.918C48.0388 275.703 47.5115 275.414 47.1008 275.05L47.7448 273.944C48.0715 274.252 48.4961 274.504 49.0188 274.7C49.5415 274.896 50.0968 274.994 50.6848 274.994C51.4315 274.994 52.0055 274.835 52.4068 274.518C52.8081 274.201 53.0088 273.776 53.0088 273.244C53.0088 272.88 52.9201 272.563 52.7428 272.292C52.5655 272.021 52.2575 271.816 51.8188 271.676C51.3895 271.527 50.7968 271.452 50.0408 271.452H47.8148L48.3328 266.328H53.8628V267.546H48.8508L49.5788 266.86L49.1728 270.906L48.4448 270.234H50.3348C51.3148 270.234 52.1035 270.36 52.7008 270.612C53.2981 270.864 53.7321 271.214 54.0028 271.662C54.2735 272.101 54.4088 272.609 54.4088 273.188C54.4088 273.748 54.2735 274.261 54.0028 274.728C53.7321 275.185 53.3215 275.554 52.7708 275.834C52.2295 276.105 51.5388 276.24 50.6988 276.24ZM59.3279 276.24C58.5625 276.24 57.8765 276.044 57.2699 275.652C56.6725 275.26 56.1965 274.691 55.8419 273.944C55.4965 273.197 55.3239 272.292 55.3239 271.228C55.3239 270.164 55.4965 269.259 55.8419 268.512C56.1965 267.765 56.6725 267.196 57.2699 266.804C57.8765 266.412 58.5625 266.216 59.3279 266.216C60.0839 266.216 60.7652 266.412 61.3719 266.804C61.9785 267.196 62.4545 267.765 62.7999 268.512C63.1452 269.259 63.3179 270.164 63.3179 271.228C63.3179 272.292 63.1452 273.197 62.7999 273.944C62.4545 274.691 61.9785 275.26 61.3719 275.652C60.7652 276.044 60.0839 276.24 59.3279 276.24ZM59.3279 274.994C59.8412 274.994 60.2892 274.854 60.6719 274.574C61.0639 274.294 61.3672 273.874 61.5819 273.314C61.8059 272.754 61.9179 272.059 61.9179 271.228C61.9179 270.397 61.8059 269.702 61.5819 269.142C61.3672 268.582 61.0639 268.162 60.6719 267.882C60.2892 267.602 59.8412 267.462 59.3279 267.462C58.8145 267.462 58.3619 267.602 57.9699 267.882C57.5779 268.162 57.2699 268.582 57.0459 269.142C56.8312 269.702 56.7239 270.397 56.7239 271.228C56.7239 272.059 56.8312 272.754 57.0459 273.314C57.2699 273.874 57.5779 274.294 57.9699 274.574C58.3619 274.854 58.8145 274.994 59.3279 274.994ZM67.9817 272.88V270.402H70.7957V272.88H67.9817ZM77.0537 272.88H72.1397V270.402H76.0457V269.184H72.1397V267.252H76.3677V265.992H68.2617C68.4437 265.572 68.6397 265.11 68.8077 264.676L67.4917 264.326C66.8477 266.188 65.7277 267.966 64.4397 269.072C64.7617 269.268 65.3217 269.688 65.5737 269.912C66.2877 269.212 66.9877 268.288 67.5897 267.252H70.7957V269.184H66.6797V272.88H64.4257V274.14H70.7957V277.234H72.1397V274.14H77.0537V272.88Z" fill="#435CE7"/>
<path d="M255.779 357.416V361.064H251.603V357.416H255.779ZM256.947 362.2V356.264H250.451V363.48H251.603V362.2H256.947ZM262.979 352.744H248.819V353.928H259.795V364.504C259.795 364.84 259.683 364.952 259.331 364.968C258.963 364.984 257.651 365 256.371 364.936C256.563 365.272 256.803 365.864 256.883 366.2C258.451 366.2 259.555 366.2 260.195 365.976C260.803 365.8 261.011 365.384 261.011 364.52V353.928H262.979V352.744ZM272.153 361.304V359.304H275.801V361.304H272.153ZM267.449 359.304H270.969V361.304H267.449V359.304ZM267.449 356.328H270.969V358.264H267.449V356.328ZM275.801 356.328V358.264H272.153V356.328H275.801ZM278.953 361.304H276.953V359.304H278.777V358.264H276.953V355.24H272.153V353.688H278.377V352.584H264.905V353.688H270.969V355.24H266.297V358.264H264.537V359.304H266.297V361.304H264.329V362.408H266.297V366.248H267.449V362.408H275.801V364.744C275.801 365.032 275.689 365.112 275.401 365.112C275.113 365.128 274.057 365.144 272.953 365.112C273.129 365.4 273.337 365.928 273.401 366.232C274.809 366.232 275.721 366.216 276.249 366.04C276.777 365.848 276.953 365.48 276.953 364.76V362.408H278.953V361.304ZM288.015 364.568V360.504H293.151V359.352H288.015V355.864H293.743V354.696H288.015V351.624H286.799V354.696H283.551C283.903 353.88 284.191 353.016 284.447 352.136L283.247 351.88C282.623 354.152 281.599 356.36 280.287 357.768C280.607 357.928 281.135 358.28 281.359 358.472C281.967 357.752 282.527 356.872 283.039 355.864H286.799V359.352H282.047V360.504H286.799V364.568H280.319V365.72H294.495V364.568H288.015ZM308.597 358.584C309.861 358.584 310.229 358.072 310.373 356.136C310.021 356.056 309.557 355.864 309.285 355.672C309.221 357.256 309.109 357.512 308.501 357.512H305.957C305.237 357.512 305.109 357.416 305.109 356.904V355.288C306.645 354.84 308.341 354.264 309.605 353.672L308.805 352.808C307.893 353.288 306.469 353.864 305.109 354.312V351.64H303.941V356.92C303.941 358.232 304.341 358.584 305.861 358.584H308.597ZM297.893 362.04V360.568H301.269V362.04H297.893ZM301.269 358.264V359.64H297.893V358.264H301.269ZM302.437 357.272H296.789V366.2H297.893V362.952H301.269V364.84C301.269 365.048 301.221 365.096 301.013 365.096C300.789 365.112 300.117 365.128 299.365 365.096C299.525 365.384 299.685 365.864 299.749 366.168C300.757 366.168 301.445 366.152 301.893 365.976C302.325 365.784 302.437 365.448 302.437 364.856V357.272ZM300.469 353.112C300.837 353.608 301.205 354.184 301.541 354.76L298.261 354.904C298.757 353.992 299.269 352.872 299.701 351.896L298.501 351.608C298.165 352.584 297.573 353.944 297.029 354.952C296.581 354.968 296.181 354.984 295.813 355L295.925 356.12C297.557 356.024 299.861 355.912 302.101 355.784C302.277 356.136 302.421 356.456 302.517 356.728L303.525 356.28C303.189 355.304 302.277 353.832 301.445 352.728L300.469 353.112ZM306.005 365.032C305.253 365.032 305.109 364.936 305.109 364.408V362.552C306.725 362.088 308.549 361.48 309.781 360.776L308.997 359.88C308.085 360.472 306.565 361.096 305.109 361.56V359.032H303.941V364.408C303.941 365.72 304.357 366.072 305.893 366.072H308.725C310.053 366.072 310.405 365.512 310.565 363.368C310.229 363.304 309.765 363.112 309.493 362.92C309.413 364.712 309.301 365.032 308.629 365.032H306.005ZM315.659 353.496C315.115 352.92 313.931 352.216 312.987 351.768L312.315 352.616C313.259 353.096 314.411 353.864 314.955 354.424L315.659 353.496ZM314.907 357.624C314.331 357.096 313.147 356.44 312.203 356.024L311.531 356.888C312.507 357.336 313.675 358.056 314.219 358.584L314.907 357.624ZM314.299 360.2C313.579 362.008 312.571 364.088 311.867 365.32L312.939 365.992C313.691 364.504 314.571 362.536 315.243 360.856L314.299 360.2ZM318.955 361.592C318.507 362.728 317.803 363.88 317.019 364.68C317.291 364.824 317.723 365.144 317.947 365.304C318.731 364.456 319.515 363.128 320.027 361.848L318.955 361.592ZM319.451 358.376H324.315V359.784H319.451V358.376ZM319.451 356.12H324.315V357.512H319.451V356.12ZM325.419 360.696V355.208H322.091C322.251 354.68 322.427 354.056 322.587 353.496L322.507 353.48H326.027V352.392H316.299V356.744C316.299 359.368 316.139 362.968 314.331 365.528C314.603 365.64 315.115 365.96 315.323 366.152C317.195 363.496 317.467 359.528 317.467 356.744V353.48H321.275C321.195 354.008 321.067 354.664 320.939 355.208H318.395V360.696H321.243V364.968C321.243 365.144 321.179 365.192 320.971 365.208C320.795 365.208 320.091 365.224 319.323 365.192C319.467 365.48 319.611 365.912 319.659 366.2C320.731 366.216 321.403 366.216 321.835 366.04C322.283 365.88 322.379 365.56 322.379 364.984V360.696H325.419ZM323.451 361.88C324.187 362.888 324.955 364.248 325.275 365.112L326.331 364.616C326.027 363.736 325.211 362.424 324.459 361.448L323.451 361.88ZM333.777 361.208L331.697 361.576V359.464H333.329V358.376H331.697V355.96H330.545V358.376H328.977C329.489 357.272 329.985 355.96 330.401 354.584H333.297V353.48H330.737C330.881 352.952 331.025 352.392 331.121 351.864L329.969 351.624C329.873 352.248 329.745 352.872 329.601 353.48H327.409V354.584H329.329C328.945 355.896 328.577 356.984 328.401 357.368C328.113 358.056 327.873 358.568 327.601 358.632C327.745 358.92 327.905 359.448 327.969 359.688C328.097 359.56 328.577 359.464 329.137 359.464H330.545V361.768C329.329 361.976 328.193 362.168 327.313 362.296L327.569 363.464L330.545 362.888V366.152H331.697V362.664L333.841 362.232L333.777 361.208ZM341.905 357.576V356.472H337.329C337.505 355.848 337.681 355.208 337.857 354.584H341.345V353.496H338.145C338.321 352.904 338.449 352.312 338.593 351.784L337.425 351.624C337.281 352.216 337.121 352.84 336.945 353.496H334.065V354.584H336.657C336.481 355.208 336.305 355.848 336.113 356.472H333.457V357.576H335.809C335.457 358.68 335.137 359.72 334.833 360.536H339.425C338.865 361.32 338.177 362.28 337.521 363.144C336.961 362.776 336.417 362.44 335.889 362.12L335.137 362.888C336.737 363.848 338.625 365.304 339.553 366.248L340.353 365.32C339.889 364.856 339.185 364.312 338.401 363.768C339.409 362.456 340.513 360.936 341.313 359.784L340.481 359.352L340.273 359.416H336.465C336.641 358.856 336.817 358.232 337.009 357.576H341.905ZM347.911 359.736L347.751 358.632L346.215 359.128V355.928H347.703V354.824H346.215V351.624H345.047V354.824H343.191V355.928H345.047V359.48C344.279 359.704 343.575 359.928 343.015 360.056L343.319 361.208C343.847 361.048 344.439 360.872 345.047 360.664V364.76C345.047 364.968 344.967 365.032 344.791 365.032C344.631 365.032 344.071 365.032 343.479 365.016C343.623 365.352 343.783 365.88 343.831 366.184C344.727 366.2 345.319 366.152 345.687 365.944C346.087 365.752 346.215 365.416 346.215 364.76V360.28L347.911 359.736ZM350.023 360.36V356.584H352.135V358.264C352.135 358.888 352.119 359.608 351.927 360.36H350.023ZM354.263 354.04C353.895 354.568 353.431 355.16 352.983 355.624H349.703C350.183 355.112 350.583 354.568 350.951 354.04H354.263ZM355.223 360.36H353.095C353.271 359.624 353.303 358.92 353.303 358.28V356.584H355.223V360.36ZM357.511 361.4V360.36H356.391V355.624H354.359C354.951 354.968 355.543 354.184 355.975 353.496L355.175 352.952L354.983 353.016H351.559C351.783 352.616 351.991 352.2 352.167 351.8L350.983 351.592C350.407 352.92 349.351 354.616 347.799 355.88C348.055 356.056 348.423 356.44 348.583 356.712C348.679 356.616 348.791 356.536 348.887 356.44V360.36H347.735V361.4H351.575C350.951 362.776 349.607 364.2 346.855 365.416C347.143 365.608 347.495 366.008 347.671 366.248C350.375 364.968 351.783 363.48 352.519 362.008C353.559 363.88 355.175 365.4 357.047 366.184C357.223 365.88 357.559 365.464 357.799 365.24C355.911 364.568 354.263 363.144 353.351 361.4H357.511ZM359.421 360.2H360.573V357.976H365.469V359.784H361.165V364.808H362.349V360.84H365.469V366.232H366.669V360.84H370.157V363.528C370.157 363.704 370.109 363.752 369.885 363.768C369.677 363.784 368.957 363.784 368.125 363.752C368.301 364.056 368.461 364.472 368.525 364.808C369.613 364.808 370.333 364.808 370.781 364.616C371.229 364.44 371.341 364.136 371.341 363.528V359.784H366.669V357.976H371.645V360.2H372.845V356.952H359.421V360.2ZM370.733 353.528V351.704H369.565V353.528H366.669V351.688H365.501V353.528H362.765V351.704H361.597V353.528H359.005V354.552H361.597V356.168H362.765V354.552H365.501V356.136H366.669V354.552H369.565V356.216H370.733V354.552H373.261V353.528H370.733ZM388.947 359.8V358.664H382.483V354.68H388.275V353.544H382.483V351.624H381.251V353.544H375.587V354.68H381.251V358.664H374.835V359.8H380.451C378.995 361.752 376.643 363.624 374.499 364.552C374.755 364.792 375.139 365.24 375.331 365.528C377.427 364.488 379.699 362.568 381.251 360.456V366.216H382.483V360.424C384.035 362.536 386.323 364.536 388.451 365.592C388.643 365.272 389.027 364.824 389.283 364.584C387.123 363.656 384.755 361.752 383.299 359.8H388.947ZM376.883 355.448C377.507 356.376 378.115 357.672 378.323 358.472L379.443 358.04C379.219 357.208 378.563 355.976 377.923 355.048L376.883 355.448ZM385.331 358.504C385.907 357.72 386.611 356.456 387.171 355.368L385.955 354.984C385.571 355.944 384.883 357.304 384.339 358.168L385.331 358.504ZM395.513 358.584H392.153V355.24H395.513V358.584ZM392.153 363.48V359.64H395.513V363.48H392.153ZM393.497 351.576C393.385 352.328 393.097 353.4 392.857 354.168H391.065V365.816H392.153V364.552H396.601V354.168H393.945C394.217 353.48 394.505 352.6 394.777 351.816L393.497 351.576ZM404.425 354.12H399.641C399.913 353.368 400.137 352.6 400.329 351.816L399.193 351.544C398.681 353.736 397.817 355.944 396.745 357.352C397.001 357.512 397.513 357.832 397.721 358.024C398.281 357.272 398.777 356.296 399.225 355.224H403.289C403.081 361.592 402.841 364.024 402.313 364.584C402.153 364.792 401.977 364.824 401.657 364.824C401.289 364.824 400.329 364.824 399.289 364.728C399.513 365.064 399.657 365.544 399.689 365.896C400.585 365.944 401.497 365.976 402.057 365.912C402.601 365.864 402.969 365.72 403.321 365.272C403.961 364.488 404.169 362.024 404.425 354.728V354.12ZM401.897 361.32C401.385 360.376 400.281 358.84 399.385 357.704L398.457 358.248C399.337 359.4 400.409 360.984 400.889 361.944L401.897 361.32ZM417.935 354.872H412.495V353.32H417.935V354.872ZM417.935 357.4H412.495V355.832H417.935V357.4ZM419.103 352.312H411.375V358.408H419.103V352.312ZM410.543 353.416C409.903 352.888 408.623 352.2 407.615 351.816L406.991 352.664C407.983 353.112 409.247 353.832 409.871 354.376L410.543 353.416ZM409.615 357.752C408.959 357.224 407.679 356.536 406.655 356.136L406.047 356.984C407.071 357.432 408.351 358.184 408.975 358.728L409.615 357.752ZM409.311 360.104C408.447 361.912 407.263 363.992 406.447 365.208L407.455 365.944C408.335 364.472 409.407 362.488 410.191 360.824L409.311 360.104ZM411.935 360.792H413.487V364.696H411.935V360.792ZM415.983 360.792V364.696H414.415V360.792H415.983ZM418.495 360.792V364.696H416.927V360.792H418.495ZM419.631 364.696V359.768H410.863V364.696H409.503V365.752H420.703V364.696H419.631ZM423.445 353.912H434.805V355.752H435.989V352.808H429.685V351.624H428.485V352.808H422.309V355.752H423.445V353.912ZM429.685 364.696V362.696H434.805V361.64H429.685V359.8C430.997 359.768 432.357 359.72 433.685 359.672C434.069 360.024 434.389 360.36 434.629 360.648L435.525 359.976C434.773 359.048 433.157 357.752 431.813 356.904L430.965 357.496C431.477 357.848 432.037 358.264 432.565 358.696C430.565 358.76 428.549 358.808 426.757 358.856C427.253 358.152 427.781 357.32 428.229 356.568H434.437V355.512H423.925V356.568H426.869C426.485 357.32 425.973 358.2 425.509 358.888C424.693 358.904 423.941 358.904 423.285 358.92L423.349 360.008C424.757 359.96 426.549 359.912 428.485 359.848V361.64H423.573V362.696H428.485V364.696H422.117V365.768H436.197V364.696H429.685ZM451.659 354.424V353.4H441.579C441.803 352.904 442.011 352.392 442.187 351.88L441.019 351.576C440.251 353.896 438.939 356.088 437.403 357.496C437.675 357.64 438.219 358.008 438.443 358.216C439.403 357.224 440.331 355.912 441.099 354.424H451.659ZM450.475 356.6V355.592H440.971V356.6H450.475ZM439.371 357.848V358.888H448.011C448.219 363 448.795 366.216 450.907 366.216C451.835 366.216 452.123 365.464 452.219 363.576C451.963 363.416 451.627 363.128 451.387 362.888C451.371 364.216 451.275 365.048 450.971 365.048C449.723 365.048 449.291 361.496 449.179 357.848H439.371ZM456.689 351.672C455.889 354.088 454.593 356.472 453.185 358.024C453.393 358.296 453.745 358.92 453.873 359.192C454.337 358.648 454.801 358.024 455.233 357.352V366.2H456.369V355.384C456.913 354.296 457.409 353.144 457.793 352.008L456.689 351.672ZM467.825 355.976V354.824H463.057V351.672H461.905V354.824H457.425V355.976H461.185C460.209 358.68 458.545 361.384 456.801 362.776C457.073 362.984 457.457 363.4 457.665 363.672C459.345 362.136 460.881 359.512 461.905 356.744V362.184H459.297V363.272H461.905V366.136H463.057V363.272H465.633V362.184H463.057V356.632C464.033 359.416 465.569 362.104 467.249 363.64C467.457 363.32 467.857 362.904 468.145 362.696C466.417 361.304 464.769 358.648 463.825 355.976H467.825ZM483.447 353.448C483.031 352.888 482.167 352.168 481.431 351.688L480.695 352.264C481.463 352.776 482.295 353.544 482.695 354.088L483.447 353.448ZM472.487 355.08C472.055 354.36 471.095 353.336 470.263 352.616L469.447 353.288C470.279 354.04 471.223 355.112 471.623 355.848L472.487 355.08ZM471.463 358.296C470.743 360.216 469.735 362.456 469.015 363.768L470.055 364.456C470.807 362.904 471.703 360.76 472.343 358.984L471.463 358.296ZM477.847 359.704V362.008H475.959V359.704H477.847ZM478.663 362.92V358.776H475.143V363.64H475.959V362.92H478.663ZM478.887 356.632H474.887V357.544H478.887V356.632ZM482.023 357.192C481.703 358.488 481.255 359.656 480.711 360.712C480.503 359.288 480.359 357.512 480.263 355.384H483.463V354.296H480.231C480.215 353.448 480.199 352.568 480.199 351.624H479.079C479.095 352.552 479.111 353.448 479.143 354.296H473.255V358.232C473.255 360.44 473.079 363.448 471.511 365.592C471.783 365.704 472.231 366.024 472.423 366.184C474.055 363.928 474.311 360.6 474.311 358.232V355.384H479.191C479.303 358.104 479.527 360.36 479.847 362.088C478.871 363.464 477.607 364.568 476.055 365.368C476.295 365.576 476.727 365.992 476.871 366.184C478.135 365.448 479.239 364.536 480.151 363.416C480.663 365.256 481.351 366.232 482.295 366.232C483.255 366.232 483.655 365.816 483.815 363.352C483.559 363.256 483.207 362.984 482.983 362.76C482.903 364.584 482.711 365.112 482.407 365.112C481.895 365.112 481.383 364.184 480.983 362.28C481.895 360.904 482.583 359.288 483.063 357.4L482.023 357.192ZM489.693 359.448L489.533 358.344C489.005 358.52 488.477 358.696 487.949 358.856V355.912H489.661V354.824H487.949V351.624H486.845V354.824H484.845V355.912H486.845V359.192C486.013 359.448 485.245 359.688 484.637 359.848L484.941 361L486.845 360.376V364.84C486.845 365.08 486.765 365.128 486.573 365.128C486.381 365.144 485.757 365.144 485.069 365.128C485.229 365.448 485.373 365.944 485.421 366.216C486.413 366.232 487.021 366.184 487.405 366.008C487.805 365.816 487.949 365.48 487.949 364.84V360.024L489.693 359.448ZM492.509 354.328H489.885V355.416H492.509V357.656H489.997V358.728H492.509C492.493 359.448 492.461 360.136 492.365 360.792C491.149 361.192 489.981 361.56 489.101 361.784L489.565 362.824C490.349 362.536 491.245 362.232 492.141 361.88C491.741 363.256 490.973 364.456 489.485 365.432C489.741 365.624 490.141 366.008 490.317 366.232C493.213 364.296 493.565 361.496 493.565 358.312V351.608H492.509V354.328ZM499.421 361.112H496.365V358.728H498.989V357.656H496.365V355.416H499.149V354.328H496.365V351.608H495.229V366.2H496.365V362.2H499.421V361.112Z" fill="#666666"/>
<path d="M942.653 357.416V361.064H938.477V357.416H942.653ZM943.821 362.2V356.264H937.325V363.48H938.477V362.2H943.821ZM949.853 352.744H935.693V353.928H946.669V364.504C946.669 364.84 946.557 364.952 946.205 364.968C945.837 364.984 944.525 365 943.245 364.936C943.437 365.272 943.677 365.864 943.757 366.2C945.325 366.2 946.429 366.2 947.069 365.976C947.677 365.8 947.885 365.384 947.885 364.52V353.928H949.853V352.744ZM959.027 361.304V359.304H962.675V361.304H959.027ZM954.323 359.304H957.843V361.304H954.323V359.304ZM954.323 356.328H957.843V358.264H954.323V356.328ZM962.675 356.328V358.264H959.027V356.328H962.675ZM965.827 361.304H963.827V359.304H965.651V358.264H963.827V355.24H959.027V353.688H965.251V352.584H951.779V353.688H957.843V355.24H953.171V358.264H951.411V359.304H953.171V361.304H951.203V362.408H953.171V366.248H954.323V362.408H962.675V364.744C962.675 365.032 962.563 365.112 962.275 365.112C961.987 365.128 960.931 365.144 959.827 365.112C960.003 365.4 960.211 365.928 960.275 366.232C961.683 366.232 962.595 366.216 963.123 366.04C963.651 365.848 963.827 365.48 963.827 364.76V362.408H965.827V361.304ZM974.889 364.568V360.504H980.025V359.352H974.889V355.864H980.617V354.696H974.889V351.624H973.673V354.696H970.425C970.777 353.88 971.065 353.016 971.321 352.136L970.121 351.88C969.497 354.152 968.473 356.36 967.161 357.768C967.481 357.928 968.009 358.28 968.233 358.472C968.841 357.752 969.401 356.872 969.913 355.864H973.673V359.352H968.921V360.504H973.673V364.568H967.193V365.72H981.369V364.568H974.889ZM995.471 358.584C996.735 358.584 997.103 358.072 997.247 356.136C996.895 356.056 996.431 355.864 996.159 355.672C996.095 357.256 995.983 357.512 995.375 357.512H992.831C992.111 357.512 991.983 357.416 991.983 356.904V355.288C993.519 354.84 995.215 354.264 996.479 353.672L995.679 352.808C994.767 353.288 993.343 353.864 991.983 354.312V351.64H990.815V356.92C990.815 358.232 991.215 358.584 992.735 358.584H995.471ZM984.767 362.04V360.568H988.143V362.04H984.767ZM988.143 358.264V359.64H984.767V358.264H988.143ZM989.311 357.272H983.663V366.2H984.767V362.952H988.143V364.84C988.143 365.048 988.095 365.096 987.887 365.096C987.663 365.112 986.991 365.128 986.239 365.096C986.399 365.384 986.559 365.864 986.623 366.168C987.631 366.168 988.319 366.152 988.767 365.976C989.199 365.784 989.311 365.448 989.311 364.856V357.272ZM987.343 353.112C987.711 353.608 988.079 354.184 988.415 354.76L985.135 354.904C985.631 353.992 986.143 352.872 986.575 351.896L985.375 351.608C985.039 352.584 984.447 353.944 983.903 354.952C983.455 354.968 983.055 354.984 982.687 355L982.799 356.12C984.431 356.024 986.735 355.912 988.975 355.784C989.151 356.136 989.295 356.456 989.391 356.728L990.399 356.28C990.063 355.304 989.151 353.832 988.319 352.728L987.343 353.112ZM992.879 365.032C992.127 365.032 991.983 364.936 991.983 364.408V362.552C993.599 362.088 995.423 361.48 996.655 360.776L995.871 359.88C994.959 360.472 993.439 361.096 991.983 361.56V359.032H990.815V364.408C990.815 365.72 991.231 366.072 992.767 366.072H995.599C996.927 366.072 997.279 365.512 997.439 363.368C997.103 363.304 996.639 363.112 996.367 362.92C996.287 364.712 996.175 365.032 995.503 365.032H992.879ZM1002.53 353.496C1001.99 352.92 1000.8 352.216 999.861 351.768L999.189 352.616C1000.13 353.096 1001.28 353.864 1001.83 354.424L1002.53 353.496ZM1001.78 357.624C1001.2 357.096 1000.02 356.44 999.077 356.024L998.405 356.888C999.381 357.336 1000.55 358.056 1001.09 358.584L1001.78 357.624ZM1001.17 360.2C1000.45 362.008 999.445 364.088 998.741 365.32L999.813 365.992C1000.56 364.504 1001.44 362.536 1002.12 360.856L1001.17 360.2ZM1005.83 361.592C1005.38 362.728 1004.68 363.88 1003.89 364.68C1004.16 364.824 1004.6 365.144 1004.82 365.304C1005.6 364.456 1006.39 363.128 1006.9 361.848L1005.83 361.592ZM1006.32 358.376H1011.19V359.784H1006.32V358.376ZM1006.32 356.12H1011.19V357.512H1006.32V356.12ZM1012.29 360.696V355.208H1008.96C1009.12 354.68 1009.3 354.056 1009.46 353.496L1009.38 353.48H1012.9V352.392H1003.17V356.744C1003.17 359.368 1003.01 362.968 1001.2 365.528C1001.48 365.64 1001.99 365.96 1002.2 366.152C1004.07 363.496 1004.34 359.528 1004.34 356.744V353.48H1008.15C1008.07 354.008 1007.94 354.664 1007.81 355.208H1005.27V360.696H1008.12V364.968C1008.12 365.144 1008.05 365.192 1007.84 365.208C1007.67 365.208 1006.96 365.224 1006.2 365.192C1006.34 365.48 1006.48 365.912 1006.53 366.2C1007.6 366.216 1008.28 366.216 1008.71 366.04C1009.16 365.88 1009.25 365.56 1009.25 364.984V360.696H1012.29ZM1010.32 361.88C1011.06 362.888 1011.83 364.248 1012.15 365.112L1013.2 364.616C1012.9 363.736 1012.08 362.424 1011.33 361.448L1010.32 361.88ZM1020.65 361.208L1018.57 361.576V359.464H1020.2V358.376H1018.57V355.96H1017.42V358.376H1015.85C1016.36 357.272 1016.86 355.96 1017.27 354.584H1020.17V353.48H1017.61C1017.75 352.952 1017.9 352.392 1017.99 351.864L1016.84 351.624C1016.75 352.248 1016.62 352.872 1016.47 353.48H1014.28V354.584H1016.2C1015.82 355.896 1015.45 356.984 1015.27 357.368C1014.99 358.056 1014.75 358.568 1014.47 358.632C1014.62 358.92 1014.78 359.448 1014.84 359.688C1014.97 359.56 1015.45 359.464 1016.01 359.464H1017.42V361.768C1016.2 361.976 1015.07 362.168 1014.19 362.296L1014.44 363.464L1017.42 362.888V366.152H1018.57V362.664L1020.71 362.232L1020.65 361.208ZM1028.78 357.576V356.472H1024.2C1024.38 355.848 1024.55 355.208 1024.73 354.584H1028.22V353.496H1025.02C1025.19 352.904 1025.32 352.312 1025.47 351.784L1024.3 351.624C1024.15 352.216 1023.99 352.84 1023.82 353.496H1020.94V354.584H1023.53C1023.35 355.208 1023.18 355.848 1022.99 356.472H1020.33V357.576H1022.68C1022.33 358.68 1022.01 359.72 1021.71 360.536H1026.3C1025.74 361.32 1025.05 362.28 1024.39 363.144C1023.83 362.776 1023.29 362.44 1022.76 362.12L1022.01 362.888C1023.61 363.848 1025.5 365.304 1026.43 366.248L1027.23 365.32C1026.76 364.856 1026.06 364.312 1025.27 363.768C1026.28 362.456 1027.39 360.936 1028.19 359.784L1027.35 359.352L1027.15 359.416H1023.34C1023.51 358.856 1023.69 358.232 1023.88 357.576H1028.78ZM1034.78 359.736L1034.62 358.632L1033.09 359.128V355.928H1034.58V354.824H1033.09V351.624H1031.92V354.824H1030.06V355.928H1031.92V359.48C1031.15 359.704 1030.45 359.928 1029.89 360.056L1030.19 361.208C1030.72 361.048 1031.31 360.872 1031.92 360.664V364.76C1031.92 364.968 1031.84 365.032 1031.66 365.032C1031.5 365.032 1030.94 365.032 1030.35 365.016C1030.5 365.352 1030.66 365.88 1030.7 366.184C1031.6 366.2 1032.19 366.152 1032.56 365.944C1032.96 365.752 1033.09 365.416 1033.09 364.76V360.28L1034.78 359.736ZM1036.9 360.36V356.584H1039.01V358.264C1039.01 358.888 1038.99 359.608 1038.8 360.36H1036.9ZM1041.14 354.04C1040.77 354.568 1040.3 355.16 1039.86 355.624H1036.58C1037.06 355.112 1037.46 354.568 1037.82 354.04H1041.14ZM1042.1 360.36H1039.97C1040.14 359.624 1040.18 358.92 1040.18 358.28V356.584H1042.1V360.36ZM1044.38 361.4V360.36H1043.26V355.624H1041.23C1041.82 354.968 1042.42 354.184 1042.85 353.496L1042.05 352.952L1041.86 353.016H1038.43C1038.66 352.616 1038.86 352.2 1039.04 351.8L1037.86 351.592C1037.28 352.92 1036.22 354.616 1034.67 355.88C1034.93 356.056 1035.3 356.44 1035.46 356.712C1035.55 356.616 1035.66 356.536 1035.76 356.44V360.36H1034.61V361.4H1038.45C1037.82 362.776 1036.48 364.2 1033.73 365.416C1034.02 365.608 1034.37 366.008 1034.54 366.248C1037.25 364.968 1038.66 363.48 1039.39 362.008C1040.43 363.88 1042.05 365.4 1043.92 366.184C1044.1 365.88 1044.43 365.464 1044.67 365.24C1042.78 364.568 1041.14 363.144 1040.22 361.4H1044.38Z" fill="#666666"/>
</svg>
