<svg width="1200" height="370" viewBox="0 0 1200 370" fill="none" xmlns="http://www.w3.org/2000/svg">
<mask id="path-1-inside-1_5304_2810" fill="white">
<path d="M0 0H740V330H0V0Z"/>
</mask>
<path d="M740 329H0V331H740V329Z" fill="#DDDDDD" mask="url(#path-1-inside-1_5304_2810)"/>
<mask id="path-3-inside-2_5304_2810" fill="white">
<path d="M780 0H1200V330H780V0Z"/>
</mask>
<path d="M1200 329H780V331H1200V329Z" fill="#DDDDDD" mask="url(#path-3-inside-2_5304_2810)"/>
<rect opacity="0.14" x="779.994" width="419.997" height="60" rx="10" fill="#10C469"/>
<rect x="915" width="285" height="60" rx="10" fill="#10C469"/>
<path d="M1145.12 35.2959C1144.23 35.2959 1143.45 35.1093 1142.79 34.7359C1142.13 34.3626 1141.63 33.8166 1141.27 33.0979C1140.92 32.3793 1140.74 31.4926 1140.74 30.4379C1140.74 29.3086 1140.95 28.3519 1141.37 27.5679C1141.8 26.7839 1142.39 26.1866 1143.14 25.7759C1143.89 25.3653 1144.76 25.1599 1145.74 25.1599C1146.26 25.1599 1146.76 25.2159 1147.24 25.3279C1147.71 25.4399 1148.12 25.6079 1148.47 25.8319L1147.63 27.4979C1147.36 27.3113 1147.07 27.1853 1146.76 27.1199C1146.45 27.0453 1146.13 27.0079 1145.8 27.0079C1144.95 27.0079 1144.27 27.2646 1143.78 27.7779C1143.28 28.2913 1143.04 29.0519 1143.04 30.0599C1143.04 30.2279 1143.04 30.4146 1143.04 30.6199C1143.05 30.8253 1143.07 31.0306 1143.12 31.2359L1142.49 30.6479C1142.67 30.2839 1142.9 29.9806 1143.18 29.7379C1143.46 29.4859 1143.79 29.2993 1144.17 29.1779C1144.56 29.0473 1144.99 28.9819 1145.46 28.9819C1146.09 28.9819 1146.66 29.1079 1147.17 29.3599C1147.67 29.6119 1148.07 29.9666 1148.37 30.4239C1148.68 30.8813 1148.83 31.4179 1148.83 32.0339C1148.83 32.6966 1148.67 33.2753 1148.33 33.7699C1148 34.2553 1147.56 34.6333 1147 34.9039C1146.45 35.1653 1145.82 35.2959 1145.12 35.2959ZM1145 33.6019C1145.31 33.6019 1145.59 33.5459 1145.84 33.4339C1146.09 33.3126 1146.29 33.1399 1146.43 32.9159C1146.57 32.6919 1146.64 32.4353 1146.64 32.1459C1146.64 31.6979 1146.48 31.3433 1146.17 31.0819C1145.87 30.8113 1145.47 30.6759 1144.97 30.6759C1144.63 30.6759 1144.34 30.7413 1144.09 30.8719C1143.84 30.9933 1143.63 31.1659 1143.49 31.3899C1143.35 31.6046 1143.28 31.8566 1143.28 32.1459C1143.28 32.4259 1143.35 32.6779 1143.49 32.9019C1143.63 33.1166 1143.82 33.2893 1144.07 33.4199C1144.33 33.5413 1144.63 33.6019 1145 33.6019ZM1153.47 35.2959C1152.64 35.2959 1151.93 35.1746 1151.31 34.9319C1150.69 34.6799 1150.21 34.3299 1149.87 33.8819C1149.52 33.4246 1149.35 32.8926 1149.35 32.2859C1149.35 31.6793 1149.52 31.1659 1149.85 30.7459C1150.2 30.3166 1150.68 29.9946 1151.3 29.7799C1151.91 29.5559 1152.63 29.4439 1153.47 29.4439C1154.31 29.4439 1155.03 29.5559 1155.65 29.7799C1156.27 29.9946 1156.76 30.3166 1157.09 30.7459C1157.44 31.1659 1157.61 31.6793 1157.61 32.2859C1157.61 32.8926 1157.44 33.4246 1157.09 33.8819C1156.75 34.3299 1156.26 34.6799 1155.64 34.9319C1155.02 35.1746 1154.3 35.2959 1153.47 35.2959ZM1153.47 33.6299C1154.03 33.6299 1154.48 33.5039 1154.81 33.2519C1155.15 32.9999 1155.31 32.6546 1155.31 32.2159C1155.31 31.7773 1155.15 31.4366 1154.81 31.1939C1154.48 30.9419 1154.03 30.8159 1153.47 30.8159C1152.91 30.8159 1152.46 30.9419 1152.14 31.1939C1151.81 31.4366 1151.65 31.7773 1151.65 32.2159C1151.65 32.6546 1151.81 32.9999 1152.14 33.2519C1152.46 33.5039 1152.91 33.6299 1153.47 33.6299ZM1153.47 30.5919C1152.71 30.5919 1152.05 30.4893 1151.48 30.2839C1150.92 30.0786 1150.48 29.7799 1150.16 29.3879C1149.85 28.9866 1149.7 28.5106 1149.7 27.9599C1149.7 27.3813 1149.86 26.8866 1150.18 26.4759C1150.49 26.0559 1150.94 25.7339 1151.51 25.5099C1152.07 25.2766 1152.73 25.1599 1153.47 25.1599C1154.22 25.1599 1154.88 25.2766 1155.44 25.5099C1156.01 25.7339 1156.45 26.0559 1156.77 26.4759C1157.1 26.8866 1157.26 27.3813 1157.26 27.9599C1157.26 28.5106 1157.1 28.9866 1156.78 29.3879C1156.48 29.7799 1156.04 30.0786 1155.47 30.2839C1154.9 30.4893 1154.23 30.5919 1153.47 30.5919ZM1153.47 29.2619C1153.94 29.2619 1154.31 29.1546 1154.59 28.9399C1154.87 28.7253 1155.01 28.4313 1155.01 28.0579C1155.01 27.6659 1154.86 27.3626 1154.57 27.1479C1154.29 26.9333 1153.92 26.8259 1153.47 26.8259C1153.02 26.8259 1152.65 26.9333 1152.37 27.1479C1152.09 27.3626 1151.95 27.6659 1151.95 28.0579C1151.95 28.4313 1152.09 28.7253 1152.36 28.9399C1152.63 29.1546 1153 29.2619 1153.47 29.2619ZM1159.67 35.1279L1166.37 25.3279H1168.03L1161.34 35.1279H1159.67ZM1160.53 30.6199C1160.05 30.6199 1159.63 30.5126 1159.27 30.2979C1158.9 30.0739 1158.62 29.7613 1158.4 29.3599C1158.2 28.9493 1158.09 28.4686 1158.09 27.9179C1158.09 27.3673 1158.2 26.8913 1158.4 26.4899C1158.62 26.0886 1158.9 25.7759 1159.27 25.5519C1159.63 25.3279 1160.05 25.2159 1160.53 25.2159C1161 25.2159 1161.42 25.3279 1161.79 25.5519C1162.15 25.7759 1162.44 26.0886 1162.64 26.4899C1162.85 26.8913 1162.95 27.3673 1162.95 27.9179C1162.95 28.4686 1162.85 28.9493 1162.64 29.3599C1162.44 29.7613 1162.15 30.0739 1161.79 30.2979C1161.42 30.5126 1161 30.6199 1160.53 30.6199ZM1160.53 29.4719C1160.84 29.4719 1161.08 29.3459 1161.27 29.0939C1161.46 28.8326 1161.55 28.4406 1161.55 27.9179C1161.55 27.3953 1161.46 27.0079 1161.27 26.7559C1161.08 26.4946 1160.84 26.3639 1160.53 26.3639C1160.23 26.3639 1159.98 26.4946 1159.79 26.7559C1159.6 27.0079 1159.51 27.3953 1159.51 27.9179C1159.51 28.4313 1159.6 28.8186 1159.79 29.0799C1159.98 29.3413 1160.23 29.4719 1160.53 29.4719ZM1167.18 35.2399C1166.71 35.2399 1166.29 35.1326 1165.92 34.9179C1165.55 34.6939 1165.27 34.3813 1165.06 33.9799C1164.86 33.5693 1164.76 33.0886 1164.76 32.5379C1164.76 31.9873 1164.86 31.5113 1165.06 31.1099C1165.27 30.7086 1165.55 30.3959 1165.92 30.1719C1166.29 29.9479 1166.71 29.8359 1167.18 29.8359C1167.66 29.8359 1168.09 29.9479 1168.45 30.1719C1168.82 30.3959 1169.1 30.7086 1169.31 31.1099C1169.51 31.5113 1169.61 31.9873 1169.61 32.5379C1169.61 33.0886 1169.51 33.5693 1169.31 33.9799C1169.1 34.3813 1168.82 34.6939 1168.45 34.9179C1168.09 35.1326 1167.66 35.2399 1167.18 35.2399ZM1167.18 34.0919C1167.49 34.0919 1167.73 33.9659 1167.92 33.7139C1168.11 33.4526 1168.2 33.0606 1168.2 32.5379C1168.2 32.0246 1168.11 31.6373 1167.92 31.3759C1167.73 31.1146 1167.49 30.9839 1167.18 30.9839C1166.88 30.9839 1166.63 31.1146 1166.44 31.3759C1166.25 31.6279 1166.16 32.0153 1166.16 32.5379C1166.16 33.0606 1166.25 33.4526 1166.44 33.7139C1166.63 33.9659 1166.88 34.0919 1167.18 34.0919Z" fill="white"/>
<rect opacity="0.5" width="740" height="60" rx="10" fill="#D4DFFA"/>
<rect width="326" height="60" rx="10" transform="matrix(-1 0 0 1 740 0)" fill="#435CE7"/>
<path d="M684.665 34.2989C683.983 34.2989 683.307 34.2102 682.635 34.0329C681.972 33.8462 681.403 33.5849 680.927 33.2489L681.823 31.5129C682.196 31.7835 682.625 31.9982 683.111 32.1569C683.605 32.3155 684.105 32.3949 684.609 32.3949C685.178 32.3949 685.626 32.2829 685.953 32.0589C686.279 31.8349 686.443 31.5222 686.443 31.1209C686.443 30.8689 686.377 30.6449 686.247 30.4489C686.116 30.2529 685.883 30.1035 685.547 30.0009C685.22 29.8982 684.758 29.8469 684.161 29.8469H681.655L682.159 24.3309L688.137 24.3309V26.1509L682.971 26.1509L684.147 25.1149L683.797 29.0489L682.621 28.0129L684.693 28.0129C685.663 28.0129 686.443 28.1482 687.031 28.4189C687.628 28.6802 688.062 29.0395 688.333 29.4969C688.603 29.9542 688.739 30.4722 688.739 31.0509C688.739 31.6295 688.594 32.1662 688.305 32.6609C688.015 33.1462 687.567 33.5429 686.961 33.8509C686.363 34.1495 685.598 34.2989 684.665 34.2989ZM693.469 34.2989C692.647 34.2989 691.929 34.1775 691.313 33.9349C690.697 33.6829 690.216 33.3329 689.871 32.8849C689.525 32.4275 689.353 31.8955 689.353 31.2889C689.353 30.6822 689.521 30.1689 689.857 29.7489C690.202 29.3195 690.683 28.9975 691.299 28.7829C691.915 28.5589 692.638 28.4469 693.469 28.4469C694.309 28.4469 695.037 28.5589 695.653 28.7829C696.278 28.9975 696.759 29.3195 697.095 29.7489C697.44 30.1689 697.613 30.6822 697.613 31.2889C697.613 31.8955 697.44 32.4275 697.095 32.8849C696.749 33.3329 696.264 33.6829 695.639 33.9349C695.023 34.1775 694.299 34.2989 693.469 34.2989ZM693.469 32.6329C694.038 32.6329 694.486 32.5069 694.813 32.2549C695.149 32.0029 695.317 31.6575 695.317 31.2189C695.317 30.7802 695.149 30.4395 694.813 30.1969C694.486 29.9449 694.038 29.8189 693.469 29.8189C692.909 29.8189 692.465 29.9449 692.139 30.1969C691.812 30.4395 691.649 30.7802 691.649 31.2189C691.649 31.6575 691.812 32.0029 692.139 32.2549C692.465 32.5069 692.909 32.6329 693.469 32.6329ZM693.469 29.5949C692.713 29.5949 692.05 29.4922 691.481 29.2869C690.921 29.0815 690.482 28.7829 690.165 28.3909C689.857 27.9895 689.703 27.5135 689.703 26.9629C689.703 26.3842 689.861 25.8895 690.179 25.4789C690.496 25.0589 690.939 24.7369 691.509 24.5129C692.078 24.2795 692.731 24.1629 693.469 24.1629C694.225 24.1629 694.883 24.2795 695.443 24.5129C696.012 24.7369 696.455 25.0589 696.773 25.4789C697.099 25.8895 697.263 26.3842 697.263 26.9629C697.263 27.5135 697.104 27.9895 696.787 28.3909C696.479 28.7829 696.04 29.0815 695.471 29.2869C694.901 29.4922 694.234 29.5949 693.469 29.5949ZM693.469 28.2649C693.945 28.2649 694.318 28.1575 694.589 27.9429C694.869 27.7282 695.009 27.4342 695.009 27.0609C695.009 26.6689 694.864 26.3655 694.575 26.1509C694.295 25.9362 693.926 25.8289 693.469 25.8289C693.021 25.8289 692.657 25.9362 692.377 26.1509C692.097 26.3655 691.957 26.6689 691.957 27.0609C691.957 27.4342 692.092 27.7282 692.363 27.9429C692.633 28.1575 693.002 28.2649 693.469 28.2649ZM699.678 34.1309L706.37 24.3309H708.036L701.344 34.1309H699.678ZM700.532 29.6229C700.056 29.6229 699.636 29.5155 699.272 29.3009C698.908 29.0769 698.619 28.7642 698.404 28.3629C698.199 27.9522 698.096 27.4715 698.096 26.9209C698.096 26.3702 698.199 25.8942 698.404 25.4929C698.619 25.0915 698.908 24.7789 699.272 24.5549C699.636 24.3309 700.056 24.2189 700.532 24.2189C701.008 24.2189 701.428 24.3309 701.792 24.5549C702.156 24.7789 702.441 25.0915 702.646 25.4929C702.852 25.8942 702.954 26.3702 702.954 26.9209C702.954 27.4715 702.852 27.9522 702.646 28.3629C702.441 28.7642 702.156 29.0769 701.792 29.3009C701.428 29.5155 701.008 29.6229 700.532 29.6229ZM700.532 28.4749C700.84 28.4749 701.088 28.3489 701.274 28.0969C701.461 27.8355 701.554 27.4435 701.554 26.9209C701.554 26.3982 701.461 26.0109 701.274 25.7589C701.088 25.4975 700.84 25.3669 700.532 25.3669C700.234 25.3669 699.986 25.4975 699.79 25.7589C699.604 26.0109 699.51 26.3982 699.51 26.9209C699.51 27.4342 699.604 27.8215 699.79 28.0829C699.986 28.3442 700.234 28.4749 700.532 28.4749ZM707.182 34.2429C706.716 34.2429 706.296 34.1355 705.922 33.9209C705.558 33.6969 705.274 33.3842 705.068 32.9829C704.863 32.5722 704.76 32.0915 704.76 31.5409C704.76 30.9902 704.863 30.5142 705.068 30.1129C705.274 29.7115 705.558 29.3989 705.922 29.1749C706.296 28.9509 706.716 28.8389 707.182 28.8389C707.668 28.8389 708.092 28.9509 708.456 29.1749C708.82 29.3989 709.105 29.7115 709.31 30.1129C709.516 30.5142 709.618 30.9902 709.618 31.5409C709.618 32.0915 709.516 32.5722 709.31 32.9829C709.105 33.3842 708.82 33.6969 708.456 33.9209C708.092 34.1355 707.668 34.2429 707.182 34.2429ZM707.182 33.0949C707.49 33.0949 707.738 32.9689 707.924 32.7169C708.111 32.4555 708.204 32.0635 708.204 31.5409C708.204 31.0275 708.111 30.6402 707.924 30.3789C707.738 30.1175 707.49 29.9869 707.182 29.9869C706.884 29.9869 706.636 30.1175 706.44 30.3789C706.254 30.6309 706.16 31.0182 706.16 31.5409C706.16 32.0635 706.254 32.4555 706.44 32.7169C706.636 32.9689 706.884 33.0949 707.182 33.0949Z" fill="white"/>
<path d="M30.5175 36.1279V35.1759L34.5075 31.3259C34.8622 30.9899 35.1235 30.6959 35.2915 30.4439C35.4688 30.1826 35.5855 29.9446 35.6415 29.7299C35.7068 29.5059 35.7395 29.2913 35.7395 29.0859C35.7395 28.5819 35.5622 28.1853 35.2075 27.8959C34.8528 27.6066 34.3348 27.4619 33.6535 27.4619C33.1308 27.4619 32.6595 27.5506 32.2395 27.7279C31.8195 27.8959 31.4555 28.1619 31.1475 28.5259L30.1955 27.6999C30.5688 27.2239 31.0682 26.8599 31.6935 26.6079C32.3282 26.3466 33.0235 26.2159 33.7795 26.2159C34.4608 26.2159 35.0535 26.3279 35.5575 26.5519C36.0615 26.7666 36.4488 27.0793 36.7195 27.4899C36.9995 27.9006 37.1395 28.3859 37.1395 28.9459C37.1395 29.2633 37.0975 29.5759 37.0135 29.8839C36.9295 30.1919 36.7708 30.5186 36.5375 30.8639C36.3042 31.2093 35.9682 31.5966 35.5295 32.0259L31.9735 35.4559L31.6375 34.9099H37.5595V36.1279H30.5175ZM42.4509 36.2399C41.6856 36.2399 40.9996 36.0439 40.3929 35.6519C39.7956 35.2599 39.3196 34.6906 38.9649 33.9439C38.6196 33.1973 38.4469 32.2919 38.4469 31.2279C38.4469 30.1639 38.6196 29.2586 38.9649 28.5119C39.3196 27.7653 39.7956 27.1959 40.3929 26.8039C40.9996 26.4119 41.6856 26.2159 42.4509 26.2159C43.2069 26.2159 43.8882 26.4119 44.4949 26.8039C45.1016 27.1959 45.5776 27.7653 45.9229 28.5119C46.2682 29.2586 46.4409 30.1639 46.4409 31.2279C46.4409 32.2919 46.2682 33.1973 45.9229 33.9439C45.5776 34.6906 45.1016 35.2599 44.4949 35.6519C43.8882 36.0439 43.2069 36.2399 42.4509 36.2399ZM42.4509 34.9939C42.9642 34.9939 43.4122 34.8539 43.7949 34.5739C44.1869 34.2939 44.4902 33.8739 44.7049 33.3139C44.9289 32.7539 45.0409 32.0586 45.0409 31.2279C45.0409 30.3973 44.9289 29.7019 44.7049 29.1419C44.4902 28.5819 44.1869 28.1619 43.7949 27.8819C43.4122 27.6019 42.9642 27.4619 42.4509 27.4619C41.9376 27.4619 41.4849 27.6019 41.0929 27.8819C40.7009 28.1619 40.3929 28.5819 40.1689 29.1419C39.9542 29.7019 39.8469 30.3973 39.8469 31.2279C39.8469 32.0586 39.9542 32.7539 40.1689 33.3139C40.3929 33.8739 40.7009 34.2939 41.0929 34.5739C41.4849 34.8539 41.9376 34.9939 42.4509 34.9939ZM47.3808 36.1279V35.1759L51.3708 31.3259C51.7255 30.9899 51.9868 30.6959 52.1548 30.4439C52.3321 30.1826 52.4488 29.9446 52.5048 29.7299C52.5701 29.5059 52.6028 29.2913 52.6028 29.0859C52.6028 28.5819 52.4255 28.1853 52.0708 27.8959C51.7161 27.6066 51.1981 27.4619 50.5168 27.4619C49.9941 27.4619 49.5228 27.5506 49.1028 27.7279C48.6828 27.8959 48.3188 28.1619 48.0108 28.5259L47.0588 27.6999C47.4321 27.2239 47.9315 26.8599 48.5568 26.6079C49.1915 26.3466 49.8868 26.2159 50.6428 26.2159C51.3241 26.2159 51.9168 26.3279 52.4208 26.5519C52.9248 26.7666 53.3121 27.0793 53.5828 27.4899C53.8628 27.9006 54.0028 28.3859 54.0028 28.9459C54.0028 29.2633 53.9608 29.5759 53.8768 29.8839C53.7928 30.1919 53.6341 30.5186 53.4008 30.8639C53.1675 31.2093 52.8315 31.5966 52.3928 32.0259L48.8368 35.4559L48.5008 34.9099H54.4228V36.1279H47.3808ZM58.4879 36.2399C57.7972 36.2399 57.1252 36.1326 56.4719 35.9179C55.8279 35.7033 55.3005 35.4139 54.8899 35.0499L55.5339 33.9439C55.8605 34.2519 56.2852 34.5039 56.8079 34.6999C57.3305 34.8959 57.8859 34.9939 58.4739 34.9939C59.2205 34.9939 59.7945 34.8353 60.1959 34.5179C60.5972 34.2006 60.7979 33.7759 60.7979 33.2439C60.7979 32.8799 60.7092 32.5626 60.5319 32.2919C60.3545 32.0213 60.0465 31.8159 59.6079 31.6759C59.1785 31.5266 58.5859 31.4519 57.8299 31.4519H55.6039L56.1219 26.3279H61.6519V27.5459L56.6399 27.5459L57.3679 26.8599L56.9619 30.9059L56.2339 30.2339H58.1239C59.1039 30.2339 59.8925 30.3599 60.4899 30.6119C61.0872 30.8639 61.5212 31.2139 61.7919 31.6619C62.0625 32.1006 62.1979 32.6093 62.1979 33.1879C62.1979 33.7479 62.0625 34.2613 61.7919 34.7279C61.5212 35.1853 61.1105 35.5539 60.5599 35.8339C60.0185 36.1046 59.3279 36.2399 58.4879 36.2399ZM62.7007 33.332H64.9019V29.4219H69.7417V26.9883H65.7222C65.1069 28.0957 64.4188 29.1165 63.6577 30.0508C63.4207 29.7956 63.1382 29.5404 62.8101 29.2852C64.1043 27.8268 65.075 26.1908 65.7222 24.377L66.8433 24.6914C66.6519 25.1426 66.4513 25.5801 66.2417 26.0039H75.6479V26.9883H70.8491V29.4219H75.4155V30.3789H70.8491V33.332H76.2632V34.3164H70.8491V38.0078H69.7417V34.3164H62.7007V33.332ZM65.9819 33.332H69.7417V30.3789H65.9819V33.332Z" fill="#435CE7"/>
<rect opacity="0.14" x="780" y="80" width="420" height="60" rx="10" fill="#10C469"/>
<rect x="880" y="80" width="320" height="60" rx="10" fill="#10C469"/>
<path d="M1143.26 115.128L1147.21 106.196L1147.8 107.176H1142.52L1143.53 106.112V108.772H1141.51V105.328H1149.36V106.798L1145.72 115.128H1143.26ZM1150.04 115.128V113.658L1153.82 110.088C1154.12 109.817 1154.34 109.575 1154.48 109.36C1154.62 109.145 1154.71 108.949 1154.76 108.772C1154.81 108.595 1154.84 108.431 1154.84 108.282C1154.84 107.89 1154.71 107.591 1154.44 107.386C1154.17 107.171 1153.79 107.064 1153.27 107.064C1152.86 107.064 1152.48 107.143 1152.13 107.302C1151.78 107.461 1151.49 107.708 1151.24 108.044L1149.59 106.98C1149.97 106.42 1150.49 105.977 1151.16 105.65C1151.83 105.323 1152.61 105.16 1153.48 105.16C1154.21 105.16 1154.85 105.281 1155.39 105.524C1155.94 105.757 1156.36 106.089 1156.66 106.518C1156.97 106.947 1157.12 107.461 1157.12 108.058C1157.12 108.375 1157.08 108.693 1157 109.01C1156.92 109.318 1156.76 109.645 1156.52 109.99C1156.29 110.335 1155.94 110.723 1155.49 111.152L1152.35 114.106L1151.92 113.28H1157.45V115.128H1150.04ZM1159.68 115.128L1166.37 105.328H1168.04L1161.35 115.128H1159.68ZM1160.54 110.62C1160.06 110.62 1159.64 110.513 1159.28 110.298C1158.91 110.074 1158.62 109.761 1158.41 109.36C1158.2 108.949 1158.1 108.469 1158.1 107.918C1158.1 107.367 1158.2 106.891 1158.41 106.49C1158.62 106.089 1158.91 105.776 1159.28 105.552C1159.64 105.328 1160.06 105.216 1160.54 105.216C1161.01 105.216 1161.43 105.328 1161.8 105.552C1162.16 105.776 1162.45 106.089 1162.65 106.49C1162.86 106.891 1162.96 107.367 1162.96 107.918C1162.96 108.469 1162.86 108.949 1162.65 109.36C1162.45 109.761 1162.16 110.074 1161.8 110.298C1161.43 110.513 1161.01 110.62 1160.54 110.62ZM1160.54 109.472C1160.84 109.472 1161.09 109.346 1161.28 109.094C1161.47 108.833 1161.56 108.441 1161.56 107.918C1161.56 107.395 1161.47 107.008 1161.28 106.756C1161.09 106.495 1160.84 106.364 1160.54 106.364C1160.24 106.364 1159.99 106.495 1159.79 106.756C1159.61 107.008 1159.51 107.395 1159.51 107.918C1159.51 108.431 1159.61 108.819 1159.79 109.08C1159.99 109.341 1160.24 109.472 1160.54 109.472ZM1167.19 115.24C1166.72 115.24 1166.3 115.133 1165.93 114.918C1165.56 114.694 1165.28 114.381 1165.07 113.98C1164.87 113.569 1164.76 113.089 1164.76 112.538C1164.76 111.987 1164.87 111.511 1165.07 111.11C1165.28 110.709 1165.56 110.396 1165.93 110.172C1166.3 109.948 1166.72 109.836 1167.19 109.836C1167.67 109.836 1168.1 109.948 1168.46 110.172C1168.82 110.396 1169.11 110.709 1169.31 111.11C1169.52 111.511 1169.62 111.987 1169.62 112.538C1169.62 113.089 1169.52 113.569 1169.31 113.98C1169.11 114.381 1168.82 114.694 1168.46 114.918C1168.1 115.133 1167.67 115.24 1167.19 115.24ZM1167.19 114.092C1167.49 114.092 1167.74 113.966 1167.93 113.714C1168.12 113.453 1168.21 113.061 1168.21 112.538C1168.21 112.025 1168.12 111.637 1167.93 111.376C1167.74 111.115 1167.49 110.984 1167.19 110.984C1166.89 110.984 1166.64 111.115 1166.44 111.376C1166.26 111.628 1166.16 112.015 1166.16 112.538C1166.16 113.061 1166.26 113.453 1166.44 113.714C1166.64 113.966 1166.89 114.092 1167.19 114.092Z" fill="white"/>
<rect opacity="0.5" y="80" width="740" height="60" rx="10" fill="#D4DFFA"/>
<rect width="403" height="60" rx="10" transform="matrix(-1 0 0 1 740 80)" fill="#435CE7"/>
<path d="M684.735 114.299C683.839 114.299 683.059 114.112 682.397 113.739C681.743 113.366 681.239 112.82 680.885 112.101C680.53 111.382 680.353 110.496 680.353 109.441C680.353 108.312 680.563 107.355 680.983 106.571C681.412 105.787 682 105.19 682.747 104.779C683.503 104.368 684.371 104.163 685.351 104.163C685.873 104.163 686.373 104.219 686.849 104.331C687.325 104.443 687.735 104.611 688.081 104.835L687.241 106.501C686.97 106.314 686.681 106.188 686.373 106.123C686.065 106.048 685.743 106.011 685.407 106.011C684.557 106.011 683.885 106.268 683.391 106.781C682.896 107.294 682.649 108.055 682.649 109.063C682.649 109.231 682.649 109.418 682.649 109.623C682.658 109.828 682.686 110.034 682.733 110.239L682.103 109.651C682.28 109.287 682.509 108.984 682.789 108.741C683.069 108.489 683.4 108.302 683.783 108.181C684.175 108.05 684.604 107.985 685.071 107.985C685.705 107.985 686.275 108.111 686.779 108.363C687.283 108.615 687.684 108.97 687.983 109.427C688.291 109.884 688.445 110.421 688.445 111.037C688.445 111.7 688.277 112.278 687.941 112.773C687.614 113.258 687.171 113.636 686.611 113.907C686.06 114.168 685.435 114.299 684.735 114.299ZM684.609 112.605C684.926 112.605 685.206 112.549 685.449 112.437C685.701 112.316 685.897 112.143 686.037 111.919C686.177 111.695 686.247 111.438 686.247 111.149C686.247 110.701 686.093 110.346 685.785 110.085C685.486 109.814 685.085 109.679 684.581 109.679C684.245 109.679 683.951 109.744 683.699 109.875C683.447 109.996 683.246 110.169 683.097 110.393C682.957 110.608 682.887 110.86 682.887 111.149C682.887 111.429 682.957 111.681 683.097 111.905C683.237 112.12 683.433 112.292 683.685 112.423C683.937 112.544 684.245 112.605 684.609 112.605ZM693.217 114.299C692.414 114.299 691.695 114.103 691.061 113.711C690.426 113.31 689.927 112.731 689.563 111.975C689.199 111.219 689.017 110.304 689.017 109.231C689.017 108.158 689.199 107.243 689.563 106.487C689.927 105.731 690.426 105.157 691.061 104.765C691.695 104.364 692.414 104.163 693.217 104.163C694.029 104.163 694.747 104.364 695.373 104.765C696.007 105.157 696.507 105.731 696.871 106.487C697.235 107.243 697.417 108.158 697.417 109.231C697.417 110.304 697.235 111.219 696.871 111.975C696.507 112.731 696.007 113.31 695.373 113.711C694.747 114.103 694.029 114.299 693.217 114.299ZM693.217 112.381C693.599 112.381 693.931 112.274 694.211 112.059C694.5 111.844 694.724 111.504 694.883 111.037C695.051 110.57 695.135 109.968 695.135 109.231C695.135 108.494 695.051 107.892 694.883 107.425C694.724 106.958 694.5 106.618 694.211 106.403C693.931 106.188 693.599 106.081 693.217 106.081C692.843 106.081 692.512 106.188 692.223 106.403C691.943 106.618 691.719 106.958 691.551 107.425C691.392 107.892 691.313 108.494 691.313 109.231C691.313 109.968 691.392 110.57 691.551 111.037C691.719 111.504 691.943 111.844 692.223 112.059C692.512 112.274 692.843 112.381 693.217 112.381ZM699.683 114.131L706.375 104.331H708.041L701.349 114.131H699.683ZM700.537 109.623C700.061 109.623 699.641 109.516 699.277 109.301C698.913 109.077 698.623 108.764 698.409 108.363C698.203 107.952 698.101 107.472 698.101 106.921C698.101 106.37 698.203 105.894 698.409 105.493C698.623 105.092 698.913 104.779 699.277 104.555C699.641 104.331 700.061 104.219 700.537 104.219C701.013 104.219 701.433 104.331 701.797 104.555C702.161 104.779 702.445 105.092 702.651 105.493C702.856 105.894 702.959 106.37 702.959 106.921C702.959 107.472 702.856 107.952 702.651 108.363C702.445 108.764 702.161 109.077 701.797 109.301C701.433 109.516 701.013 109.623 700.537 109.623ZM700.537 108.475C700.845 108.475 701.092 108.349 701.279 108.097C701.465 107.836 701.559 107.444 701.559 106.921C701.559 106.398 701.465 106.011 701.279 105.759C701.092 105.498 700.845 105.367 700.537 105.367C700.238 105.367 699.991 105.498 699.795 105.759C699.608 106.011 699.515 106.398 699.515 106.921C699.515 107.434 699.608 107.822 699.795 108.083C699.991 108.344 700.238 108.475 700.537 108.475ZM707.187 114.243C706.72 114.243 706.3 114.136 705.927 113.921C705.563 113.697 705.278 113.384 705.073 112.983C704.867 112.572 704.765 112.092 704.765 111.541C704.765 110.99 704.867 110.514 705.073 110.113C705.278 109.712 705.563 109.399 705.927 109.175C706.3 108.951 706.72 108.839 707.187 108.839C707.672 108.839 708.097 108.951 708.461 109.175C708.825 109.399 709.109 109.712 709.315 110.113C709.52 110.514 709.623 110.99 709.623 111.541C709.623 112.092 709.52 112.572 709.315 112.983C709.109 113.384 708.825 113.697 708.461 113.921C708.097 114.136 707.672 114.243 707.187 114.243ZM707.187 113.095C707.495 113.095 707.742 112.969 707.929 112.717C708.115 112.456 708.209 112.064 708.209 111.541C708.209 111.028 708.115 110.64 707.929 110.379C707.742 110.118 707.495 109.987 707.187 109.987C706.888 109.987 706.641 110.118 706.445 110.379C706.258 110.631 706.165 111.018 706.165 111.541C706.165 112.064 706.258 112.456 706.445 112.717C706.641 112.969 706.888 113.095 707.187 113.095Z" fill="white"/>
<path d="M30.518 116.128V115.176L34.508 111.326C34.8627 110.99 35.124 110.696 35.292 110.444C35.4693 110.183 35.586 109.945 35.642 109.73C35.7073 109.506 35.74 109.291 35.74 109.086C35.74 108.582 35.5627 108.185 35.208 107.896C34.8533 107.607 34.3353 107.462 33.654 107.462C33.1313 107.462 32.66 107.551 32.24 107.728C31.82 107.896 31.456 108.162 31.148 108.526L30.196 107.7C30.5693 107.224 31.0687 106.86 31.694 106.608C32.3287 106.347 33.024 106.216 33.78 106.216C34.4613 106.216 35.054 106.328 35.558 106.552C36.062 106.767 36.4493 107.079 36.72 107.49C37 107.901 37.14 108.386 37.14 108.946C37.14 109.263 37.098 109.576 37.014 109.884C36.93 110.192 36.7713 110.519 36.538 110.864C36.3047 111.209 35.9687 111.597 35.53 112.026L31.974 115.456L31.638 114.91H37.56V116.128H30.518ZM42.4514 116.24C41.6861 116.24 41.0001 116.044 40.3934 115.652C39.7961 115.26 39.3201 114.691 38.9654 113.944C38.6201 113.197 38.4474 112.292 38.4474 111.228C38.4474 110.164 38.6201 109.259 38.9654 108.512C39.3201 107.765 39.7961 107.196 40.3934 106.804C41.0001 106.412 41.6861 106.216 42.4514 106.216C43.2074 106.216 43.8887 106.412 44.4954 106.804C45.1021 107.196 45.5781 107.765 45.9234 108.512C46.2687 109.259 46.4414 110.164 46.4414 111.228C46.4414 112.292 46.2687 113.197 45.9234 113.944C45.5781 114.691 45.1021 115.26 44.4954 115.652C43.8887 116.044 43.2074 116.24 42.4514 116.24ZM42.4514 114.994C42.9647 114.994 43.4127 114.854 43.7954 114.574C44.1874 114.294 44.4907 113.874 44.7054 113.314C44.9294 112.754 45.0414 112.059 45.0414 111.228C45.0414 110.397 44.9294 109.702 44.7054 109.142C44.4907 108.582 44.1874 108.162 43.7954 107.882C43.4127 107.602 42.9647 107.462 42.4514 107.462C41.9381 107.462 41.4854 107.602 41.0934 107.882C40.7014 108.162 40.3934 108.582 40.1694 109.142C39.9547 109.702 39.8474 110.397 39.8474 111.228C39.8474 112.059 39.9547 112.754 40.1694 113.314C40.3934 113.874 40.7014 114.294 41.0934 114.574C41.4854 114.854 41.9381 114.994 42.4514 114.994ZM50.3946 116.24C49.7039 116.24 49.0319 116.133 48.3786 115.918C47.7346 115.703 47.2072 115.414 46.7966 115.05L47.4406 113.944C47.7672 114.252 48.1919 114.504 48.7146 114.7C49.2372 114.896 49.7972 114.994 50.3946 114.994C51.1226 114.994 51.6872 114.84 52.0886 114.532C52.4992 114.215 52.7046 113.79 52.7046 113.258C52.7046 112.745 52.5086 112.334 52.1166 112.026C51.7339 111.709 51.1226 111.55 50.2826 111.55H49.4986V110.57L52.4106 106.986L52.6066 107.546H47.2446V106.328H53.7126V107.28L50.8146 110.85L50.0866 110.416H50.5486C51.7339 110.416 52.6206 110.682 53.2086 111.214C53.8059 111.746 54.1046 112.423 54.1046 113.244C54.1046 113.795 53.9692 114.299 53.6986 114.756C53.4279 115.213 53.0172 115.577 52.4666 115.848C51.9252 116.109 51.2346 116.24 50.3946 116.24ZM59.1643 116.24C58.3989 116.24 57.7129 116.044 57.1063 115.652C56.5089 115.26 56.0329 114.691 55.6783 113.944C55.3329 113.197 55.1603 112.292 55.1603 111.228C55.1603 110.164 55.3329 109.259 55.6783 108.512C56.0329 107.765 56.5089 107.196 57.1063 106.804C57.7129 106.412 58.3989 106.216 59.1643 106.216C59.9203 106.216 60.6016 106.412 61.2083 106.804C61.8149 107.196 62.2909 107.765 62.6363 108.512C62.9816 109.259 63.1543 110.164 63.1543 111.228C63.1543 112.292 62.9816 113.197 62.6363 113.944C62.2909 114.691 61.8149 115.26 61.2083 115.652C60.6016 116.044 59.9203 116.24 59.1643 116.24ZM59.1643 114.994C59.6776 114.994 60.1256 114.854 60.5083 114.574C60.9003 114.294 61.2036 113.874 61.4183 113.314C61.6423 112.754 61.7543 112.059 61.7543 111.228C61.7543 110.397 61.6423 109.702 61.4183 109.142C61.2036 108.582 60.9003 108.162 60.5083 107.882C60.1256 107.602 59.6776 107.462 59.1643 107.462C58.6509 107.462 58.1983 107.602 57.8063 107.882C57.4143 108.162 57.1063 108.582 56.8823 109.142C56.6676 109.702 56.5603 110.397 56.5603 111.228C56.5603 112.059 56.6676 112.754 56.8823 113.314C57.1063 113.874 57.4143 114.294 57.8063 114.574C58.1983 114.854 58.6509 114.994 59.1643 114.994ZM63.8359 113.332H66.0371V109.422H70.877V106.988H66.8574C66.2422 108.096 65.554 109.117 64.793 110.051C64.556 109.796 64.2734 109.54 63.9453 109.285C65.2396 107.827 66.2103 106.191 66.8574 104.377L67.9785 104.691C67.7871 105.143 67.5866 105.58 67.377 106.004H76.7832V106.988H71.9844V109.422H76.5508V110.379H71.9844V113.332H77.3984V114.316H71.9844V118.008H70.877V114.316H63.8359V113.332ZM67.1172 113.332H70.877V110.379H67.1172V113.332Z" fill="#435CE7"/>
<rect opacity="0.14" x="780" y="160" width="420" height="60" rx="10" fill="#10C469"/>
<rect x="848" y="160" width="352" height="60" rx="10" fill="#10C469"/>
<path d="M1143.8 185.16C1141.72 185.16 1140.09 186.42 1140.09 188.422C1140.09 190.27 1141.57 191.474 1143.46 191.474C1144.48 191.474 1145.32 191.166 1145.9 190.592C1145.83 192.482 1144.76 193.448 1143.14 193.448C1142.47 193.448 1141.84 193.322 1141.3 192.958L1140.46 194.624C1141.15 195.058 1142.14 195.296 1143.18 195.296C1146.15 195.296 1148.18 193.406 1148.18 190.018C1148.18 186.854 1146.51 185.16 1143.8 185.16ZM1143.96 189.78C1142.96 189.78 1142.3 189.206 1142.3 188.31C1142.3 187.414 1142.97 186.854 1143.94 186.854C1145.01 186.854 1145.64 187.47 1145.64 188.31C1145.64 189.164 1144.96 189.78 1143.96 189.78ZM1153.22 195.296C1155.64 195.296 1157.42 193.462 1157.42 190.228C1157.42 186.994 1155.64 185.16 1153.22 185.16C1150.81 185.16 1149.02 186.994 1149.02 190.228C1149.02 193.462 1150.81 195.296 1153.22 195.296ZM1153.22 193.378C1152.1 193.378 1151.31 192.454 1151.31 190.228C1151.31 188.002 1152.1 187.078 1153.22 187.078C1154.35 187.078 1155.13 188.002 1155.13 190.228C1155.13 192.454 1154.35 193.378 1153.22 193.378ZM1160.54 190.62C1161.96 190.62 1162.96 189.584 1162.96 187.918C1162.96 186.252 1161.96 185.216 1160.54 185.216C1159.11 185.216 1158.1 186.266 1158.1 187.918C1158.1 189.57 1159.11 190.62 1160.54 190.62ZM1159.68 195.128H1161.35L1168.04 185.328H1166.37L1159.68 195.128ZM1160.54 189.472C1159.93 189.472 1159.51 188.954 1159.51 187.918C1159.51 186.882 1159.93 186.364 1160.54 186.364C1161.15 186.364 1161.56 186.868 1161.56 187.918C1161.56 188.968 1161.15 189.472 1160.54 189.472ZM1167.19 195.24C1168.61 195.24 1169.62 194.19 1169.62 192.538C1169.62 190.886 1168.61 189.836 1167.19 189.836C1165.77 189.836 1164.76 190.886 1164.76 192.538C1164.76 194.19 1165.77 195.24 1167.19 195.24ZM1167.19 194.092C1166.58 194.092 1166.16 193.588 1166.16 192.538C1166.16 191.488 1166.58 190.984 1167.19 190.984C1167.8 190.984 1168.21 191.502 1168.21 192.538C1168.21 193.574 1167.8 194.092 1167.19 194.092Z" fill="white"/>
<rect opacity="0.5" y="160" width="740" height="60" rx="10" fill="#D4DFFA"/>
<rect width="502" height="60" rx="10" transform="matrix(-1 0 0 1 740 160)" fill="#435CE7"/>
<path d="M685.438 194.299C684.617 194.299 683.898 194.178 683.282 193.935C682.666 193.683 682.185 193.333 681.84 192.885C681.495 192.428 681.322 191.896 681.322 191.289C681.322 190.682 681.49 190.169 681.826 189.749C682.171 189.32 682.652 188.998 683.268 188.783C683.884 188.559 684.607 188.447 685.438 188.447C686.278 188.447 687.006 188.559 687.622 188.783C688.247 188.998 688.728 189.32 689.064 189.749C689.409 190.169 689.582 190.682 689.582 191.289C689.582 191.896 689.409 192.428 689.064 192.885C688.719 193.333 688.233 193.683 687.608 193.935C686.992 194.178 686.269 194.299 685.438 194.299ZM685.438 192.633C686.007 192.633 686.455 192.507 686.782 192.255C687.118 192.003 687.286 191.658 687.286 191.219C687.286 190.78 687.118 190.44 686.782 190.197C686.455 189.945 686.007 189.819 685.438 189.819C684.878 189.819 684.435 189.945 684.108 190.197C683.781 190.44 683.618 190.78 683.618 191.219C683.618 191.658 683.781 192.003 684.108 192.255C684.435 192.507 684.878 192.633 685.438 192.633ZM685.438 189.595C684.682 189.595 684.019 189.492 683.45 189.287C682.89 189.082 682.451 188.783 682.134 188.391C681.826 187.99 681.672 187.514 681.672 186.963C681.672 186.384 681.831 185.89 682.148 185.479C682.465 185.059 682.909 184.737 683.478 184.513C684.047 184.28 684.701 184.163 685.438 184.163C686.194 184.163 686.852 184.28 687.412 184.513C687.981 184.737 688.425 185.059 688.742 185.479C689.069 185.89 689.232 186.384 689.232 186.963C689.232 187.514 689.073 187.99 688.756 188.391C688.448 188.783 688.009 189.082 687.44 189.287C686.871 189.492 686.203 189.595 685.438 189.595ZM685.438 188.265C685.914 188.265 686.287 188.158 686.558 187.943C686.838 187.728 686.978 187.434 686.978 187.061C686.978 186.669 686.833 186.366 686.544 186.151C686.264 185.936 685.895 185.829 685.438 185.829C684.99 185.829 684.626 185.936 684.346 186.151C684.066 186.366 683.926 186.669 683.926 187.061C683.926 187.434 684.061 187.728 684.332 187.943C684.603 188.158 684.971 188.265 685.438 188.265ZM693.548 194.299C692.867 194.299 692.19 194.21 691.518 194.033C690.846 193.846 690.277 193.585 689.81 193.249L690.692 191.513C691.066 191.784 691.5 191.998 691.994 192.157C692.489 192.316 692.988 192.395 693.492 192.395C694.062 192.395 694.51 192.283 694.836 192.059C695.163 191.835 695.326 191.527 695.326 191.135C695.326 190.762 695.182 190.468 694.892 190.253C694.603 190.038 694.136 189.931 693.492 189.931H692.456V188.433L695.186 185.339L695.438 186.151H690.3V184.331H697.16V185.801L694.444 188.895L693.296 188.237H693.954C695.158 188.237 696.068 188.508 696.684 189.049C697.3 189.59 697.608 190.286 697.608 191.135C697.608 191.686 697.464 192.204 697.174 192.689C696.885 193.165 696.442 193.552 695.844 193.851C695.247 194.15 694.482 194.299 693.548 194.299ZM699.683 194.131L706.375 184.331H708.041L701.349 194.131H699.683ZM700.537 189.623C700.061 189.623 699.641 189.516 699.277 189.301C698.913 189.077 698.623 188.764 698.409 188.363C698.203 187.952 698.101 187.472 698.101 186.921C698.101 186.37 698.203 185.894 698.409 185.493C698.623 185.092 698.913 184.779 699.277 184.555C699.641 184.331 700.061 184.219 700.537 184.219C701.013 184.219 701.433 184.331 701.797 184.555C702.161 184.779 702.445 185.092 702.651 185.493C702.856 185.894 702.959 186.37 702.959 186.921C702.959 187.472 702.856 187.952 702.651 188.363C702.445 188.764 702.161 189.077 701.797 189.301C701.433 189.516 701.013 189.623 700.537 189.623ZM700.537 188.475C700.845 188.475 701.092 188.349 701.279 188.097C701.465 187.836 701.559 187.444 701.559 186.921C701.559 186.398 701.465 186.011 701.279 185.759C701.092 185.498 700.845 185.367 700.537 185.367C700.238 185.367 699.991 185.498 699.795 185.759C699.608 186.011 699.515 186.398 699.515 186.921C699.515 187.434 699.608 187.822 699.795 188.083C699.991 188.344 700.238 188.475 700.537 188.475ZM707.187 194.243C706.72 194.243 706.3 194.136 705.927 193.921C705.563 193.697 705.278 193.384 705.073 192.983C704.867 192.572 704.765 192.092 704.765 191.541C704.765 190.99 704.867 190.514 705.073 190.113C705.278 189.712 705.563 189.399 705.927 189.175C706.3 188.951 706.72 188.839 707.187 188.839C707.672 188.839 708.097 188.951 708.461 189.175C708.825 189.399 709.109 189.712 709.315 190.113C709.52 190.514 709.623 190.99 709.623 191.541C709.623 192.092 709.52 192.572 709.315 192.983C709.109 193.384 708.825 193.697 708.461 193.921C708.097 194.136 707.672 194.243 707.187 194.243ZM707.187 193.095C707.495 193.095 707.742 192.969 707.929 192.717C708.115 192.456 708.209 192.064 708.209 191.541C708.209 191.028 708.115 190.64 707.929 190.379C707.742 190.118 707.495 189.987 707.187 189.987C706.888 189.987 706.641 190.118 706.445 190.379C706.258 190.631 706.165 191.018 706.165 191.541C706.165 192.064 706.258 192.456 706.445 192.717C706.641 192.969 706.888 193.095 707.187 193.095Z" fill="white"/>
<path d="M30.518 196.128V195.176L34.508 191.326C34.8627 190.99 35.124 190.696 35.292 190.444C35.4693 190.183 35.586 189.945 35.642 189.73C35.7073 189.506 35.74 189.291 35.74 189.086C35.74 188.582 35.5627 188.185 35.208 187.896C34.8533 187.607 34.3353 187.462 33.654 187.462C33.1313 187.462 32.66 187.551 32.24 187.728C31.82 187.896 31.456 188.162 31.148 188.526L30.196 187.7C30.5693 187.224 31.0687 186.86 31.694 186.608C32.3287 186.347 33.024 186.216 33.78 186.216C34.4613 186.216 35.054 186.328 35.558 186.552C36.062 186.767 36.4493 187.079 36.72 187.49C37 187.901 37.14 188.386 37.14 188.946C37.14 189.263 37.098 189.576 37.014 189.884C36.93 190.192 36.7713 190.519 36.538 190.864C36.3047 191.209 35.9687 191.597 35.53 192.026L31.974 195.456L31.638 194.91H37.56V196.128H30.518ZM42.4514 196.24C41.6861 196.24 41.0001 196.044 40.3934 195.652C39.7961 195.26 39.3201 194.691 38.9654 193.944C38.6201 193.197 38.4474 192.292 38.4474 191.228C38.4474 190.164 38.6201 189.259 38.9654 188.512C39.3201 187.765 39.7961 187.196 40.3934 186.804C41.0001 186.412 41.6861 186.216 42.4514 186.216C43.2074 186.216 43.8887 186.412 44.4954 186.804C45.1021 187.196 45.5781 187.765 45.9234 188.512C46.2687 189.259 46.4414 190.164 46.4414 191.228C46.4414 192.292 46.2687 193.197 45.9234 193.944C45.5781 194.691 45.1021 195.26 44.4954 195.652C43.8887 196.044 43.2074 196.24 42.4514 196.24ZM42.4514 194.994C42.9647 194.994 43.4127 194.854 43.7954 194.574C44.1874 194.294 44.4907 193.874 44.7054 193.314C44.9294 192.754 45.0414 192.059 45.0414 191.228C45.0414 190.397 44.9294 189.702 44.7054 189.142C44.4907 188.582 44.1874 188.162 43.7954 187.882C43.4127 187.602 42.9647 187.462 42.4514 187.462C41.9381 187.462 41.4854 187.602 41.0934 187.882C40.7014 188.162 40.3934 188.582 40.1694 189.142C39.9547 189.702 39.8474 190.397 39.8474 191.228C39.8474 192.059 39.9547 192.754 40.1694 193.314C40.3934 193.874 40.7014 194.294 41.0934 194.574C41.4854 194.854 41.9381 194.994 42.4514 194.994ZM47.3953 193.72V192.74L52.4073 186.328H53.9193L48.9493 192.74L48.2353 192.516H56.0613V193.72H47.3953ZM52.8413 196.128V193.72L52.8833 192.516V190.388H54.1993V196.128H52.8413ZM60.6545 196.24C59.8892 196.24 59.2032 196.044 58.5965 195.652C57.9992 195.26 57.5232 194.691 57.1685 193.944C56.8232 193.197 56.6505 192.292 56.6505 191.228C56.6505 190.164 56.8232 189.259 57.1685 188.512C57.5232 187.765 57.9992 187.196 58.5965 186.804C59.2032 186.412 59.8892 186.216 60.6545 186.216C61.4105 186.216 62.0918 186.412 62.6985 186.804C63.3052 187.196 63.7812 187.765 64.1265 188.512C64.4718 189.259 64.6445 190.164 64.6445 191.228C64.6445 192.292 64.4718 193.197 64.1265 193.944C63.7812 194.691 63.3052 195.26 62.6985 195.652C62.0918 196.044 61.4105 196.24 60.6545 196.24ZM60.6545 194.994C61.1678 194.994 61.6158 194.854 61.9985 194.574C62.3905 194.294 62.6938 193.874 62.9085 193.314C63.1325 192.754 63.2445 192.059 63.2445 191.228C63.2445 190.397 63.1325 189.702 62.9085 189.142C62.6938 188.582 62.3905 188.162 61.9985 187.882C61.6158 187.602 61.1678 187.462 60.6545 187.462C60.1412 187.462 59.6885 187.602 59.2965 187.882C58.9045 188.162 58.5965 188.582 58.3725 189.142C58.1578 189.702 58.0505 190.397 58.0505 191.228C58.0505 192.059 58.1578 192.754 58.3725 193.314C58.5965 193.874 58.9045 194.294 59.2965 194.574C59.6885 194.854 60.1412 194.994 60.6545 194.994ZM65.3262 193.332H67.5273V189.422H72.3672V186.988H68.3477C67.7324 188.096 67.0443 189.117 66.2832 190.051C66.0462 189.796 65.7637 189.54 65.4355 189.285C66.7298 187.827 67.7005 186.191 68.3477 184.377L69.4688 184.691C69.2773 185.143 69.0768 185.58 68.8672 186.004H78.2734V186.988H73.4746V189.422H78.041V190.379H73.4746V193.332H78.8887V194.316H73.4746V198.008H72.3672V194.316H65.3262V193.332ZM68.6074 193.332H72.3672V190.379H68.6074V193.332Z" fill="#435CE7"/>
<rect opacity="0.14" x="779.994" y="240" width="420.006" height="59.7928" rx="7" fill="#10C469"/>
<rect x="780" y="240" width="419.997" height="60" rx="10" fill="#10C469"/>
<path d="M1134.08 265.328V267.148H1136.04V275.128H1138.3V265.328H1134.08ZM1143.96 275.296C1146.38 275.296 1148.16 273.462 1148.16 270.228C1148.16 266.994 1146.38 265.16 1143.96 265.16C1141.55 265.16 1139.76 266.994 1139.76 270.228C1139.76 273.462 1141.55 275.296 1143.96 275.296ZM1143.96 273.378C1142.84 273.378 1142.05 272.454 1142.05 270.228C1142.05 268.002 1142.84 267.078 1143.96 267.078C1145.09 267.078 1145.87 268.002 1145.87 270.228C1145.87 272.454 1145.09 273.378 1143.96 273.378ZM1153.21 275.296C1155.63 275.296 1157.41 273.462 1157.41 270.228C1157.41 266.994 1155.63 265.16 1153.21 265.16C1150.8 265.16 1149.01 266.994 1149.01 270.228C1149.01 273.462 1150.8 275.296 1153.21 275.296ZM1153.21 273.378C1152.09 273.378 1151.3 272.454 1151.3 270.228C1151.3 268.002 1152.09 267.078 1153.21 267.078C1154.34 267.078 1155.13 268.002 1155.13 270.228C1155.13 272.454 1154.34 273.378 1153.21 273.378ZM1160.53 270.62C1161.96 270.62 1162.95 269.584 1162.95 267.918C1162.95 266.252 1161.96 265.216 1160.53 265.216C1159.1 265.216 1158.09 266.266 1158.09 267.918C1158.09 269.57 1159.1 270.62 1160.53 270.62ZM1159.67 275.128H1161.34L1168.03 265.328H1166.37L1159.67 275.128ZM1160.53 269.472C1159.93 269.472 1159.51 268.954 1159.51 267.918C1159.51 266.882 1159.93 266.364 1160.53 266.364C1161.14 266.364 1161.55 266.868 1161.55 267.918C1161.55 268.968 1161.14 269.472 1160.53 269.472ZM1167.18 275.24C1168.61 275.24 1169.61 274.19 1169.61 272.538C1169.61 270.886 1168.61 269.836 1167.18 269.836C1165.76 269.836 1164.76 270.886 1164.76 272.538C1164.76 274.19 1165.76 275.24 1167.18 275.24ZM1167.18 274.092C1166.58 274.092 1166.16 273.588 1166.16 272.538C1166.16 271.488 1166.58 270.984 1167.18 270.984C1167.79 270.984 1168.2 271.502 1168.2 272.538C1168.2 273.574 1167.79 274.092 1167.18 274.092Z" fill="white"/>
<rect opacity="0.5" y="240" width="740" height="60" rx="10" fill="#D4DFFA"/>
<rect width="740" height="60" rx="10" transform="matrix(-1 0 0 1 740 240)" fill="#435CE7"/>
<path d="M673.04 274.158V265.198L674.02 266.178H671.08V264.358H675.308V274.158H673.04ZM680.96 274.326C680.158 274.326 679.439 274.13 678.804 273.738C678.17 273.337 677.67 272.758 677.306 272.002C676.942 271.246 676.76 270.332 676.76 269.258C676.76 268.185 676.942 267.27 677.306 266.514C677.67 265.758 678.17 265.184 678.804 264.792C679.439 264.391 680.158 264.19 680.96 264.19C681.772 264.19 682.491 264.391 683.116 264.792C683.751 265.184 684.25 265.758 684.614 266.514C684.978 267.27 685.16 268.185 685.16 269.258C685.16 270.332 684.978 271.246 684.614 272.002C684.25 272.758 683.751 273.337 683.116 273.738C682.491 274.13 681.772 274.326 680.96 274.326ZM680.96 272.408C681.343 272.408 681.674 272.301 681.954 272.086C682.244 271.872 682.468 271.531 682.626 271.064C682.794 270.598 682.878 269.996 682.878 269.258C682.878 268.521 682.794 267.919 682.626 267.452C682.468 266.986 682.244 266.645 681.954 266.43C681.674 266.216 681.343 266.108 680.96 266.108C680.587 266.108 680.256 266.216 679.966 266.43C679.686 266.645 679.462 266.986 679.294 267.452C679.136 267.919 679.056 268.521 679.056 269.258C679.056 269.996 679.136 270.598 679.294 271.064C679.462 271.531 679.686 271.872 679.966 272.086C680.256 272.301 680.587 272.408 680.96 272.408ZM690.212 274.326C689.41 274.326 688.691 274.13 688.056 273.738C687.422 273.337 686.922 272.758 686.558 272.002C686.194 271.246 686.012 270.332 686.012 269.258C686.012 268.185 686.194 267.27 686.558 266.514C686.922 265.758 687.422 265.184 688.056 264.792C688.691 264.391 689.41 264.19 690.212 264.19C691.024 264.19 691.743 264.391 692.368 264.792C693.003 265.184 693.502 265.758 693.866 266.514C694.23 267.27 694.412 268.185 694.412 269.258C694.412 270.332 694.23 271.246 693.866 272.002C693.502 272.758 693.003 273.337 692.368 273.738C691.743 274.13 691.024 274.326 690.212 274.326ZM690.212 272.408C690.595 272.408 690.926 272.301 691.206 272.086C691.496 271.872 691.72 271.531 691.878 271.064C692.046 270.598 692.13 269.996 692.13 269.258C692.13 268.521 692.046 267.919 691.878 267.452C691.72 266.986 691.496 266.645 691.206 266.43C690.926 266.216 690.595 266.108 690.212 266.108C689.839 266.108 689.508 266.216 689.218 266.43C688.938 266.645 688.714 266.986 688.546 267.452C688.388 267.919 688.308 268.521 688.308 269.258C688.308 269.996 688.388 270.598 688.546 271.064C688.714 271.531 688.938 271.872 689.218 272.086C689.508 272.301 689.839 272.408 690.212 272.408ZM696.678 274.158L703.37 264.358H705.036L698.344 274.158H696.678ZM697.532 269.65C697.056 269.65 696.636 269.543 696.272 269.328C695.908 269.104 695.619 268.792 695.404 268.39C695.199 267.98 695.096 267.499 695.096 266.948C695.096 266.398 695.199 265.922 695.404 265.52C695.619 265.119 695.908 264.806 696.272 264.582C696.636 264.358 697.056 264.246 697.532 264.246C698.008 264.246 698.428 264.358 698.792 264.582C699.156 264.806 699.441 265.119 699.646 265.52C699.852 265.922 699.954 266.398 699.954 266.948C699.954 267.499 699.852 267.98 699.646 268.39C699.441 268.792 699.156 269.104 698.792 269.328C698.428 269.543 698.008 269.65 697.532 269.65ZM697.532 268.502C697.84 268.502 698.088 268.376 698.274 268.124C698.461 267.863 698.554 267.471 698.554 266.948C698.554 266.426 698.461 266.038 698.274 265.786C698.088 265.525 697.84 265.394 697.532 265.394C697.234 265.394 696.986 265.525 696.79 265.786C696.604 266.038 696.51 266.426 696.51 266.948C696.51 267.462 696.604 267.849 696.79 268.11C696.986 268.372 697.234 268.502 697.532 268.502ZM704.182 274.27C703.716 274.27 703.296 274.163 702.922 273.948C702.558 273.724 702.274 273.412 702.068 273.01C701.863 272.6 701.76 272.119 701.76 271.568C701.76 271.018 701.863 270.542 702.068 270.14C702.274 269.739 702.558 269.426 702.922 269.202C703.296 268.978 703.716 268.866 704.182 268.866C704.668 268.866 705.092 268.978 705.456 269.202C705.82 269.426 706.105 269.739 706.31 270.14C706.516 270.542 706.618 271.018 706.618 271.568C706.618 272.119 706.516 272.6 706.31 273.01C706.105 273.412 705.82 273.724 705.456 273.948C705.092 274.163 704.668 274.27 704.182 274.27ZM704.182 273.122C704.49 273.122 704.738 272.996 704.924 272.744C705.111 272.483 705.204 272.091 705.204 271.568C705.204 271.055 705.111 270.668 704.924 270.406C704.738 270.145 704.49 270.014 704.182 270.014C703.884 270.014 703.636 270.145 703.44 270.406C703.254 270.658 703.16 271.046 703.16 271.568C703.16 272.091 703.254 272.483 703.44 272.744C703.636 272.996 703.884 273.122 704.182 273.122Z" fill="white"/>
<path d="M30.5175 276.128V275.176L34.5075 271.326C34.8622 270.99 35.1235 270.696 35.2915 270.444C35.4688 270.183 35.5855 269.945 35.6415 269.73C35.7068 269.506 35.7395 269.291 35.7395 269.086C35.7395 268.582 35.5622 268.185 35.2075 267.896C34.8528 267.607 34.3348 267.462 33.6535 267.462C33.1308 267.462 32.6595 267.551 32.2395 267.728C31.8195 267.896 31.4555 268.162 31.1475 268.526L30.1955 267.7C30.5688 267.224 31.0682 266.86 31.6935 266.608C32.3282 266.347 33.0235 266.216 33.7795 266.216C34.4608 266.216 35.0535 266.328 35.5575 266.552C36.0615 266.767 36.4488 267.079 36.7195 267.49C36.9995 267.901 37.1395 268.386 37.1395 268.946C37.1395 269.263 37.0975 269.576 37.0135 269.884C36.9295 270.192 36.7708 270.519 36.5375 270.864C36.3042 271.209 35.9682 271.597 35.5295 272.026L31.9735 275.456L31.6375 274.91H37.5595V276.128H30.5175ZM42.4509 276.24C41.6856 276.24 40.9996 276.044 40.3929 275.652C39.7956 275.26 39.3196 274.691 38.9649 273.944C38.6196 273.197 38.4469 272.292 38.4469 271.228C38.4469 270.164 38.6196 269.259 38.9649 268.512C39.3196 267.765 39.7956 267.196 40.3929 266.804C40.9996 266.412 41.6856 266.216 42.4509 266.216C43.2069 266.216 43.8882 266.412 44.4949 266.804C45.1016 267.196 45.5776 267.765 45.9229 268.512C46.2682 269.259 46.4409 270.164 46.4409 271.228C46.4409 272.292 46.2682 273.197 45.9229 273.944C45.5776 274.691 45.1016 275.26 44.4949 275.652C43.8882 276.044 43.2069 276.24 42.4509 276.24ZM42.4509 274.994C42.9642 274.994 43.4122 274.854 43.7949 274.574C44.1869 274.294 44.4902 273.874 44.7049 273.314C44.9289 272.754 45.0409 272.059 45.0409 271.228C45.0409 270.397 44.9289 269.702 44.7049 269.142C44.4902 268.582 44.1869 268.162 43.7949 267.882C43.4122 267.602 42.9642 267.462 42.4509 267.462C41.9376 267.462 41.4849 267.602 41.0929 267.882C40.7009 268.162 40.3929 268.582 40.1689 269.142C39.9542 269.702 39.8469 270.397 39.8469 271.228C39.8469 272.059 39.9542 272.754 40.1689 273.314C40.3929 273.874 40.7009 274.294 41.0929 274.574C41.4849 274.854 41.9376 274.994 42.4509 274.994ZM50.6988 276.24C50.0081 276.24 49.3361 276.133 48.6828 275.918C48.0388 275.703 47.5115 275.414 47.1008 275.05L47.7448 273.944C48.0715 274.252 48.4961 274.504 49.0188 274.7C49.5415 274.896 50.0968 274.994 50.6848 274.994C51.4315 274.994 52.0055 274.835 52.4068 274.518C52.8081 274.201 53.0088 273.776 53.0088 273.244C53.0088 272.88 52.9201 272.563 52.7428 272.292C52.5655 272.021 52.2575 271.816 51.8188 271.676C51.3895 271.527 50.7968 271.452 50.0408 271.452H47.8148L48.3328 266.328H53.8628V267.546H48.8508L49.5788 266.86L49.1728 270.906L48.4448 270.234H50.3348C51.3148 270.234 52.1035 270.36 52.7008 270.612C53.2981 270.864 53.7321 271.214 54.0028 271.662C54.2735 272.101 54.4088 272.609 54.4088 273.188C54.4088 273.748 54.2735 274.261 54.0028 274.728C53.7321 275.185 53.3215 275.554 52.7708 275.834C52.2295 276.105 51.5388 276.24 50.6988 276.24ZM59.3279 276.24C58.5625 276.24 57.8765 276.044 57.2699 275.652C56.6725 275.26 56.1965 274.691 55.8419 273.944C55.4965 273.197 55.3239 272.292 55.3239 271.228C55.3239 270.164 55.4965 269.259 55.8419 268.512C56.1965 267.765 56.6725 267.196 57.2699 266.804C57.8765 266.412 58.5625 266.216 59.3279 266.216C60.0839 266.216 60.7652 266.412 61.3719 266.804C61.9785 267.196 62.4545 267.765 62.7999 268.512C63.1452 269.259 63.3179 270.164 63.3179 271.228C63.3179 272.292 63.1452 273.197 62.7999 273.944C62.4545 274.691 61.9785 275.26 61.3719 275.652C60.7652 276.044 60.0839 276.24 59.3279 276.24ZM59.3279 274.994C59.8412 274.994 60.2892 274.854 60.6719 274.574C61.0639 274.294 61.3672 273.874 61.5819 273.314C61.8059 272.754 61.9179 272.059 61.9179 271.228C61.9179 270.397 61.8059 269.702 61.5819 269.142C61.3672 268.582 61.0639 268.162 60.6719 267.882C60.2892 267.602 59.8412 267.462 59.3279 267.462C58.8145 267.462 58.3619 267.602 57.9699 267.882C57.5779 268.162 57.2699 268.582 57.0459 269.142C56.8312 269.702 56.7239 270.397 56.7239 271.228C56.7239 272.059 56.8312 272.754 57.0459 273.314C57.2699 273.874 57.5779 274.294 57.9699 274.574C58.3619 274.854 58.8145 274.994 59.3279 274.994ZM63.9995 273.332H66.2007V269.422H71.0405V266.988H67.021C66.4058 268.096 65.7176 269.117 64.9565 270.051C64.7196 269.796 64.437 269.54 64.1089 269.285C65.4032 267.827 66.3739 266.191 67.021 264.377L68.1421 264.691C67.9507 265.143 67.7502 265.58 67.5405 266.004H76.9468V266.988H72.1479V269.422H76.7144V270.379H72.1479V273.332H77.562V274.316H72.1479V278.008H71.0405V274.316H63.9995V273.332ZM67.2808 273.332H71.0405V270.379H67.2808V273.332Z" fill="white"/>
<path d="M249.906 355.477H256.797V361.648H251.141V362.758H249.906V355.477ZM248.172 351.977H263.609V353.164H261.016V363.742C261.016 365.148 260.333 365.857 258.969 365.867C257.99 365.867 257.036 365.862 256.109 365.852C256.057 365.372 255.974 364.898 255.859 364.43C257.036 364.513 257.932 364.555 258.547 364.555C259.318 364.555 259.703 364.138 259.703 363.305V353.164H248.172V351.977ZM255.562 356.586H251.141V360.539H255.562V356.586ZM267.188 366.008H265.953V361.633H263.969V360.555H265.953V354.445H271.016V352.695H264.469V351.617H278.797V352.695H272.234V354.445H277.328V360.555H279.375V361.633H277.328V364.102C277.328 365.247 276.786 365.826 275.703 365.836C275.036 365.846 274.182 365.846 273.141 365.836C273.078 365.482 273 365.086 272.906 364.648C273.76 364.711 274.5 364.742 275.125 364.742C275.76 364.763 276.078 364.492 276.078 363.93V361.633H267.188V366.008ZM272.234 360.555H276.078V358.508H272.234V360.555ZM267.188 360.555H271.016V358.508H267.188V360.555ZM276.078 355.461H272.234V357.492H276.078V355.461ZM267.188 357.492H271.016V355.461H267.188V357.492ZM279.688 363.961H286.938V359.977H281.406V358.773H286.938V355.164H282.812C282.12 356.414 281.323 357.544 280.422 358.555C280.203 358.211 279.922 357.846 279.578 357.461C281.047 355.815 282.208 353.805 283.062 351.43L284.344 351.773C284.068 352.534 283.763 353.263 283.43 353.961H286.938V350.648H288.281V353.961H294.25V355.164H288.281V358.773H293.812V359.977H288.281V363.961H295.094V365.133H279.688V363.961ZM297.5 365.898H296.281V356.68H302.625V364.07C302.625 365.195 302.104 365.758 301.062 365.758C300.604 365.768 300.016 365.773 299.297 365.773C299.245 365.451 299.167 365.055 299.062 364.586C299.719 364.638 300.245 364.664 300.641 364.664C301.151 364.664 301.406 364.398 301.406 363.867V362.57H297.5V365.898ZM304.141 358.367H305.359V360.945C306.839 360.393 308.385 359.669 310 358.773L310.703 359.852C309 360.747 307.219 361.542 305.359 362.234V363.586C305.359 364.242 305.615 364.57 306.125 364.57H308.422C308.953 364.57 309.26 364.315 309.344 363.805C309.417 363.346 309.479 362.664 309.531 361.758C309.927 361.914 310.333 362.06 310.75 362.195C310.667 363.112 310.578 363.805 310.484 364.273C310.349 365.19 309.698 365.648 308.531 365.648H305.922C304.734 365.648 304.141 365.039 304.141 363.82V358.367ZM304.172 350.742H305.391V353.422C306.823 352.854 308.245 352.169 309.656 351.367L310.359 352.445C308.734 353.268 307.078 354.021 305.391 354.703V355.602C305.391 356.299 305.667 356.648 306.219 356.648H308.203C308.859 356.648 309.229 356.378 309.312 355.836C309.385 355.388 309.448 354.737 309.5 353.883C309.896 354.039 310.302 354.19 310.719 354.336C310.635 355.169 310.547 355.846 310.453 356.367C310.297 357.273 309.594 357.727 308.344 357.727H306.062C304.802 357.727 304.172 357.102 304.172 355.852V350.742ZM301.281 352.07C302.229 353.299 303.052 354.482 303.75 355.617C303.354 355.888 302.995 356.128 302.672 356.336C302.469 355.977 302.253 355.609 302.023 355.234C299.477 355.422 297.438 355.591 295.906 355.742L295.406 354.43C295.865 354.18 296.37 353.711 296.922 353.023C297.495 352.273 298.057 351.435 298.609 350.508L299.844 350.961C298.979 352.211 298.068 353.393 297.109 354.508C298.672 354.409 300.091 354.307 301.367 354.203C301.039 353.708 300.688 353.201 300.312 352.68L301.281 352.07ZM297.5 361.633H301.406V360.117H297.5V361.633ZM301.406 357.68H297.5V359.18H301.406V357.68ZM318.203 354.648H320.234C320.458 354.06 320.677 353.445 320.891 352.805H316.938V357.305C316.938 361.398 316.135 364.331 314.531 366.102C314.281 365.779 313.979 365.456 313.625 365.133C315.062 363.529 315.781 360.924 315.781 357.32V351.742H326.625V352.805H322.242C321.956 353.43 321.661 354.044 321.359 354.648H325.484V361.055H324.359V360.648H322.344V364.32C322.344 365.435 321.802 365.992 320.719 365.992C320.365 365.992 319.911 365.987 319.359 365.977C319.307 365.664 319.234 365.305 319.141 364.898C319.661 364.94 320.115 364.961 320.5 364.961C320.979 364.961 321.219 364.711 321.219 364.211V360.648H319.328V361.055H318.203V354.648ZM312.953 359.305C313.328 359.544 313.698 359.721 314.062 359.836C313.635 361.607 313.156 363.633 312.625 365.914L311.422 365.508C312.026 363.372 312.536 361.305 312.953 359.305ZM319.328 359.617H324.359V358.133H319.328V359.617ZM324.359 355.68H319.328V357.133H324.359V355.68ZM326.594 364.602L325.609 365.352C324.87 364.237 324.068 363.154 323.203 362.102L324.109 361.461C325.057 362.565 325.885 363.612 326.594 364.602ZM316.781 364.742C317.667 363.794 318.453 362.727 319.141 361.539L320.141 362.148C319.349 363.409 318.536 364.513 317.703 365.461L316.781 364.742ZM311.875 354.945C312.688 355.529 313.604 356.227 314.625 357.039C314.26 357.477 313.964 357.815 313.734 358.055C312.734 357.169 311.854 356.43 311.094 355.836L311.875 354.945ZM312.547 350.93C313.37 351.544 314.219 352.247 315.094 353.039C314.729 353.393 314.417 353.711 314.156 353.992C313.25 353.096 312.448 352.362 311.75 351.789L312.547 350.93ZM334.438 362.539L335.141 361.602C336.005 362.143 336.859 362.69 337.703 363.242L340.125 360.43H334.734V359.352C334.932 358.721 335.13 358.049 335.328 357.336H333.547V356.273H335.625C335.797 355.617 335.971 354.93 336.148 354.211H334.281V353.148H336.406C336.589 352.383 336.771 351.586 336.953 350.758H338.156C337.979 351.576 337.797 352.372 337.609 353.148H341.812V354.211H337.359C337.182 354.919 337.008 355.607 336.836 356.273H342.375V357.336H336.547C336.354 358.034 336.161 358.711 335.969 359.367H341.641V360.477L338.672 363.875C339.292 364.286 339.906 364.701 340.516 365.117L339.703 366.148C338.016 364.888 336.26 363.685 334.438 362.539ZM328.484 358.242H330.391V355.164H331.547V358.242H333.656V359.305H331.547V361.414C332.333 361.305 333.146 361.19 333.984 361.07C333.943 361.435 333.906 361.81 333.875 362.195C333.094 362.31 332.318 362.424 331.547 362.539V366.102H330.391V362.711C329.255 362.883 328.125 363.055 327 363.227L326.828 362.023C327.953 361.888 329.141 361.737 330.391 361.57V359.305H327.188V358.258C327.734 357.096 328.25 355.742 328.734 354.195H327.016V353.133H329.055C329.284 352.346 329.505 351.513 329.719 350.633L331 350.883C330.766 351.648 330.529 352.398 330.289 353.133H333.656V354.195H329.938C329.469 355.591 328.984 356.94 328.484 358.242ZM347.016 360.242H348.375V356.016C348.12 355.812 347.818 355.581 347.469 355.32C348.844 353.893 349.938 352.326 350.75 350.617L352.016 350.836C351.766 351.336 351.5 351.82 351.219 352.289H355.938V353.336C355.542 353.831 354.927 354.56 354.094 355.523H356.891V360.242H358.156V361.32H353.305C354.133 363.128 355.724 364.273 358.078 364.758C357.693 365.216 357.38 365.638 357.141 366.023C354.995 365.305 353.477 364.008 352.586 362.133C352.008 363.747 350.271 365.086 347.375 366.148C347.146 365.773 346.854 365.393 346.5 365.008C349.5 364.122 351.221 362.893 351.664 361.32H347.016V360.242ZM342.594 358.992C343.214 358.81 343.87 358.604 344.562 358.375V354.758H342.734V353.695H344.562V350.789H345.75V353.695H347.516V354.758H345.75V357.961C346.271 357.779 346.812 357.581 347.375 357.367C347.385 357.878 347.396 358.289 347.406 358.602C347.312 358.633 346.76 358.836 345.75 359.211V364.242C345.75 365.305 345.271 365.857 344.312 365.898C343.854 365.919 343.339 365.924 342.766 365.914C342.703 365.477 342.635 365.044 342.562 364.617C343.135 364.68 343.615 364.711 344 364.711C344.375 364.711 344.562 364.492 344.562 364.055V359.641C344.042 359.833 343.443 360.055 342.766 360.305L342.594 358.992ZM355.781 356.602H353.156C353.156 357.924 353.122 359.138 353.055 360.242H355.781V356.602ZM349.484 360.242H351.922C352.016 359.721 352.057 358.508 352.047 356.602H349.484V360.242ZM354.5 353.367H350.539C350.023 354.128 349.469 354.846 348.875 355.523H352.75C353.458 354.674 354.042 353.956 354.5 353.367ZM361.875 364.758H360.656V359.102H365.516V357.648H366.766V359.102H371.641V363.148C371.641 364.107 371.115 364.586 370.062 364.586C369.688 364.586 369.005 364.581 368.016 364.57C367.964 364.237 367.885 363.846 367.781 363.398C368.729 363.461 369.365 363.492 369.688 363.492C370.177 363.492 370.422 363.273 370.422 362.836V360.195H366.766V366.102H365.516V360.195H361.875V364.758ZM358.438 352.664H361.656V350.758H362.828V352.664H365.516V350.758H366.688V352.664H369.391V350.758H370.562V352.664H373.781V353.758H370.562V355.477H369.391V353.758H366.688V355.477H365.516V353.758H362.828V355.477H361.656V353.758H358.438V352.664ZM358.969 356.102H373.297V358.945H372.078V357.195H360.188V358.945H358.969V356.102ZM389.688 363.648C389.344 364.086 389.052 364.482 388.812 364.836C386.094 363.607 383.979 362.036 382.469 360.125V366.102H381.281V360.039C379.76 361.82 377.635 363.482 374.906 365.023C374.688 364.711 374.406 364.352 374.062 363.945C376.781 362.581 379.057 360.997 380.891 359.195H374.328V358.102H381.281V353.992H375.25V352.898H381.281V350.648H382.469V352.898H388.625V353.992H382.469V358.102H389.438V359.195H382.789C384.503 361.102 386.802 362.586 389.688 363.648ZM384.016 357.086C384.974 356.065 385.719 355.18 386.25 354.43L387.328 355.258C386.547 356.185 385.745 357.055 384.922 357.867L384.016 357.086ZM376.562 355.227L377.469 354.492C378.24 355.253 378.969 356.065 379.656 356.93L378.625 357.789C378.094 357.06 377.406 356.206 376.562 355.227ZM390.516 353.289H392.094C392.479 352.341 392.797 351.477 393.047 350.695L394.359 351.07C394.031 351.867 393.714 352.607 393.406 353.289H396.531V365.727H395.281V364.508H391.766V365.836H390.516V353.289ZM396.766 356.492C397.745 354.94 398.573 353.008 399.25 350.695L400.562 351.023C400.297 351.81 400.026 352.549 399.75 353.242H404.781C404.656 358.596 404.552 361.966 404.469 363.352C404.396 364.987 403.536 365.805 401.891 365.805C400.943 365.805 399.979 365.773 399 365.711C398.938 365.19 398.854 364.727 398.75 364.32H398.797C399.839 364.466 400.792 364.539 401.656 364.539C402.604 364.539 403.115 364.039 403.188 363.039C403.302 361.487 403.385 358.612 403.438 354.414H399.25C398.797 355.419 398.328 356.305 397.844 357.07C397.562 356.872 397.203 356.68 396.766 356.492ZM391.766 363.336H395.281V359.383H391.766V363.336ZM395.281 354.461H391.766V358.258H395.281V354.461ZM398.141 357.555L399.094 356.852C400.25 358.216 401.172 359.398 401.859 360.398L400.703 361.211C399.964 360.003 399.109 358.784 398.141 357.555ZM408.703 364.273H410.234V359.18H420V364.273H421.156V365.398H408.703V364.273ZM410.828 351.492H419.391V358.305H418.234V357.617H411.984V358.32H410.828V351.492ZM411.984 356.555H418.234V355.07H411.984V356.555ZM418.234 352.555H411.984V354.039H418.234V352.555ZM407.562 359.477C407.99 359.643 408.417 359.799 408.844 359.945C408.406 361.758 407.927 363.768 407.406 365.977L406.031 365.57C406.615 363.716 407.125 361.685 407.562 359.477ZM418.812 360.273H417.109V364.273H418.812V360.273ZM414.266 364.273H415.953V360.273H414.266V364.273ZM411.422 364.273H413.109V360.273H411.422V364.273ZM406.375 354.945C407.156 355.497 408.073 356.206 409.125 357.07C408.74 357.508 408.438 357.846 408.219 358.086C407.042 357.034 406.167 356.289 405.594 355.852L406.375 354.945ZM406.969 350.898C407.76 351.523 408.656 352.284 409.656 353.18C409.302 353.544 408.995 353.867 408.734 354.148C407.609 353.055 406.755 352.258 406.172 351.758L406.969 350.898ZM421.453 364.367H428.5V362.539H422.891V361.461H428.5V359.656C427.401 359.703 426.339 359.753 425.312 359.805C424.792 359.836 424.271 359.904 423.75 360.008L423.219 358.711C423.615 358.555 424.036 358.331 424.484 358.039C425.219 357.534 425.893 357.023 426.508 356.508H423.672V355.43H434.703V356.508H428.344C427.51 357.185 426.552 357.904 425.469 358.664C427.729 358.586 429.984 358.503 432.234 358.414C431.901 358.112 431.552 357.805 431.188 357.492L432.047 356.711C433.359 357.742 434.5 358.711 435.469 359.617L434.453 360.57C434.125 360.221 433.773 359.862 433.398 359.492C432.148 359.523 430.938 359.562 429.766 359.609V361.461H435.391V362.539H429.766V364.367H436.828V365.445H421.453V364.367ZM422.016 352.742H428.859C428.568 352.18 428.24 351.622 427.875 351.07L428.984 350.539C429.37 351.112 429.745 351.721 430.109 352.367L429.336 352.742H436.297V355.57H435.047V353.82H423.266V355.57H422.016V352.742ZM438.719 358.602V357.508H449.812V359.148C449.812 361.648 450.094 363.414 450.656 364.445C450.906 364.831 451.099 364.789 451.234 364.32C451.38 363.581 451.484 362.664 451.547 361.57C451.922 361.706 452.297 361.815 452.672 361.898C452.641 362.701 452.531 363.581 452.344 364.539C452.104 365.56 451.62 366.07 450.891 366.07C450.318 366.07 449.865 365.732 449.531 365.055C448.885 363.805 448.562 361.857 448.562 359.211V358.602H438.719ZM437.094 356.93C438.594 355.055 439.714 352.951 440.453 350.617L441.719 350.992C441.547 351.482 441.367 351.956 441.18 352.414H451.844V353.508H440.695C439.841 355.326 438.807 356.94 437.594 358.352C437.406 357.758 437.24 357.284 437.094 356.93ZM440.469 354.977H450.656V356.039H440.469V354.977ZM468.5 362.055C468.146 362.482 467.839 362.867 467.578 363.211C465.495 361.607 463.964 358.893 462.984 355.07V361.664H465.281V362.789H462.984V366.055H461.828V362.789H459.531V361.664H461.828V355.07H461.789C460.82 358.669 459.224 361.466 457 363.461C456.76 363.159 456.484 362.831 456.172 362.477C458.182 360.638 459.688 358.169 460.688 355.07H457.016V353.945H461.828V350.758H462.984V353.945H467.969V355.07H463.992C464.987 358.31 466.49 360.638 468.5 362.055ZM452.766 358.258C454.276 356.049 455.401 353.534 456.141 350.711L457.328 351.055C456.922 352.383 456.464 353.63 455.953 354.797V366.039H454.797V357.148C454.328 357.997 453.828 358.794 453.297 359.539C453.141 359.112 452.964 358.685 452.766 358.258ZM476.891 365.211C478.052 364.263 479.07 363.128 479.945 361.805C479.534 360.159 479.299 357.664 479.242 354.32H474.047V358.305C474.047 361.492 473.307 364.065 471.828 366.023C471.443 365.617 471.125 365.331 470.875 365.164C472.26 363.414 472.953 361.107 472.953 358.242V353.258H479.219C479.208 352.419 479.203 351.602 479.203 350.805H480.344C480.344 351.596 480.346 352.414 480.352 353.258H484.125V354.32H480.359C480.38 356.836 480.529 358.852 480.805 360.367C481.523 359.029 482.12 357.529 482.594 355.867L483.719 356.258C483.016 358.43 482.169 360.333 481.18 361.969C481.445 362.906 481.75 363.622 482.094 364.117C482.427 364.523 482.656 364.44 482.781 363.867C482.896 363.253 482.995 362.503 483.078 361.617C483.568 361.794 483.953 361.924 484.234 362.008C484.089 363.112 483.927 364.023 483.75 364.742C483.521 365.565 483.146 365.971 482.625 365.961C482.177 365.971 481.755 365.716 481.359 365.195C480.969 364.612 480.638 363.951 480.367 363.211C479.617 364.258 478.797 365.174 477.906 365.961C477.583 365.68 477.245 365.43 476.891 365.211ZM475.016 358.133H478.547V362.727H476.047V363.695H475.016V358.133ZM468.703 363.961C469.349 362.221 470.01 360.06 470.688 357.477C471.083 357.664 471.469 357.831 471.844 357.977C471.375 359.654 470.75 361.789 469.969 364.383L468.703 363.961ZM468.984 352.648L469.953 351.977C470.682 352.82 471.411 353.721 472.141 354.68L471.062 355.461C470.208 354.232 469.516 353.294 468.984 352.648ZM477.516 361.758V359.102H476.047V361.758H477.516ZM474.734 355.711H478.594V356.711H474.734V355.711ZM481 351.398L481.797 350.773C482.318 351.294 482.812 351.815 483.281 352.336L482.391 353.039C481.964 352.497 481.5 351.951 481 351.398ZM495.062 350.727H496.281V353.602H499.594V354.789H496.281V357.477H499.219V358.664H496.281V361.383H499.859V362.57H496.281V366.102H495.062V350.727ZM488.734 361.383H491.969V358.664H489.5V357.477H491.969V354.789H489.531V353.602H491.969V350.727H493.188V366.102H491.969V362.57H488.734V361.383ZM484.453 353.586H486.312V350.711H487.5V353.586H489.047V354.68H487.5V357.594C488 357.339 488.49 357.081 488.969 356.82C489 357.268 489.042 357.685 489.094 358.07C488.583 358.331 488.052 358.604 487.5 358.891V364.336C487.5 365.398 486.932 365.935 485.797 365.945C485.484 365.956 485.057 365.956 484.516 365.945C484.474 365.529 484.406 365.096 484.312 364.648C484.885 364.69 485.333 364.711 485.656 364.711C486.094 364.711 486.312 364.471 486.312 363.992V359.508C485.729 359.81 485.125 360.128 484.5 360.461L484.344 359.086C485.016 358.789 485.672 358.487 486.312 358.18V354.68H484.453V353.586Z" fill="#666666"/>
<path d="M936.78 355.477H943.671V361.648H938.014V362.758H936.78V355.477ZM935.046 351.977H950.483V353.164H947.889V363.742C947.889 365.148 947.207 365.857 945.843 365.867C944.863 365.867 943.91 365.862 942.983 365.852C942.931 365.372 942.848 364.898 942.733 364.43C943.91 364.513 944.806 364.555 945.421 364.555C946.192 364.555 946.577 364.138 946.577 363.305V353.164H935.046V351.977ZM942.436 356.586H938.014V360.539H942.436V356.586ZM954.061 366.008H952.827V361.633H950.843V360.555H952.827V354.445H957.889V352.695H951.343V351.617H965.671V352.695H959.108V354.445H964.202V360.555H966.249V361.633H964.202V364.102C964.202 365.247 963.66 365.826 962.577 365.836C961.91 365.846 961.056 365.846 960.014 365.836C959.952 365.482 959.874 365.086 959.78 364.648C960.634 364.711 961.374 364.742 961.999 364.742C962.634 364.763 962.952 364.492 962.952 363.93V361.633H954.061V366.008ZM959.108 360.555H962.952V358.508H959.108V360.555ZM954.061 360.555H957.889V358.508H954.061V360.555ZM962.952 355.461H959.108V357.492H962.952V355.461ZM954.061 357.492H957.889V355.461H954.061V357.492ZM966.561 363.961H973.811V359.977H968.28V358.773H973.811V355.164H969.686C968.994 356.414 968.197 357.544 967.296 358.555C967.077 358.211 966.796 357.846 966.452 357.461C967.921 355.815 969.082 353.805 969.936 351.43L971.218 351.773C970.942 352.534 970.637 353.263 970.304 353.961H973.811V350.648H975.155V353.961H981.124V355.164H975.155V358.773H980.686V359.977H975.155V363.961H981.968V365.133H966.561V363.961ZM984.374 365.898H983.155V356.68H989.499V364.07C989.499 365.195 988.978 365.758 987.936 365.758C987.478 365.768 986.889 365.773 986.171 365.773C986.119 365.451 986.041 365.055 985.936 364.586C986.593 364.638 987.119 364.664 987.514 364.664C988.025 364.664 988.28 364.398 988.28 363.867V362.57H984.374V365.898ZM991.014 358.367H992.233V360.945C993.712 360.393 995.259 359.669 996.874 358.773L997.577 359.852C995.874 360.747 994.093 361.542 992.233 362.234V363.586C992.233 364.242 992.488 364.57 992.999 364.57H995.296C995.827 364.57 996.134 364.315 996.218 363.805C996.291 363.346 996.353 362.664 996.405 361.758C996.801 361.914 997.207 362.06 997.624 362.195C997.541 363.112 997.452 363.805 997.358 364.273C997.223 365.19 996.572 365.648 995.405 365.648H992.796C991.608 365.648 991.014 365.039 991.014 363.82V358.367ZM991.046 350.742H992.264V353.422C993.697 352.854 995.119 352.169 996.53 351.367L997.233 352.445C995.608 353.268 993.952 354.021 992.264 354.703V355.602C992.264 356.299 992.541 356.648 993.093 356.648H995.077C995.733 356.648 996.103 356.378 996.186 355.836C996.259 355.388 996.322 354.737 996.374 353.883C996.77 354.039 997.176 354.19 997.593 354.336C997.509 355.169 997.421 355.846 997.327 356.367C997.171 357.273 996.468 357.727 995.218 357.727H992.936C991.676 357.727 991.046 357.102 991.046 355.852V350.742ZM988.155 352.07C989.103 353.299 989.926 354.482 990.624 355.617C990.228 355.888 989.869 356.128 989.546 356.336C989.343 355.977 989.126 355.609 988.897 355.234C986.35 355.422 984.311 355.591 982.78 355.742L982.28 354.43C982.738 354.18 983.244 353.711 983.796 353.023C984.369 352.273 984.931 351.435 985.483 350.508L986.718 350.961C985.853 352.211 984.942 353.393 983.983 354.508C985.546 354.409 986.965 354.307 988.241 354.203C987.913 353.708 987.561 353.201 987.186 352.68L988.155 352.07ZM984.374 361.633H988.28V360.117H984.374V361.633ZM988.28 357.68H984.374V359.18H988.28V357.68ZM1005.08 354.648H1007.11C1007.33 354.06 1007.55 353.445 1007.76 352.805H1003.81V357.305C1003.81 361.398 1003.01 364.331 1001.41 366.102C1001.16 365.779 1000.85 365.456 1000.5 365.133C1001.94 363.529 1002.66 360.924 1002.66 357.32V351.742H1013.5V352.805H1009.12C1008.83 353.43 1008.54 354.044 1008.23 354.648H1012.36V361.055H1011.23V360.648H1009.22V364.32C1009.22 365.435 1008.68 365.992 1007.59 365.992C1007.24 365.992 1006.79 365.987 1006.23 365.977C1006.18 365.664 1006.11 365.305 1006.01 364.898C1006.54 364.94 1006.99 364.961 1007.37 364.961C1007.85 364.961 1008.09 364.711 1008.09 364.211V360.648H1006.2V361.055H1005.08V354.648ZM999.827 359.305C1000.2 359.544 1000.57 359.721 1000.94 359.836C1000.51 361.607 1000.03 363.633 999.499 365.914L998.296 365.508C998.9 363.372 999.41 361.305 999.827 359.305ZM1006.2 359.617H1011.23V358.133H1006.2V359.617ZM1011.23 355.68H1006.2V357.133H1011.23V355.68ZM1013.47 364.602L1012.48 365.352C1011.74 364.237 1010.94 363.154 1010.08 362.102L1010.98 361.461C1011.93 362.565 1012.76 363.612 1013.47 364.602ZM1003.66 364.742C1004.54 363.794 1005.33 362.727 1006.01 361.539L1007.01 362.148C1006.22 363.409 1005.41 364.513 1004.58 365.461L1003.66 364.742ZM998.749 354.945C999.561 355.529 1000.48 356.227 1001.5 357.039C1001.13 357.477 1000.84 357.815 1000.61 358.055C999.608 357.169 998.728 356.43 997.968 355.836L998.749 354.945ZM999.421 350.93C1000.24 351.544 1001.09 352.247 1001.97 353.039C1001.6 353.393 1001.29 353.711 1001.03 353.992C1000.12 353.096 999.322 352.362 998.624 351.789L999.421 350.93ZM1021.31 362.539L1022.01 361.602C1022.88 362.143 1023.73 362.69 1024.58 363.242L1027 360.43H1021.61V359.352C1021.81 358.721 1022 358.049 1022.2 357.336H1020.42V356.273H1022.5C1022.67 355.617 1022.85 354.93 1023.02 354.211H1021.16V353.148H1023.28C1023.46 352.383 1023.64 351.586 1023.83 350.758H1025.03C1024.85 351.576 1024.67 352.372 1024.48 353.148H1028.69V354.211H1024.23C1024.06 354.919 1023.88 355.607 1023.71 356.273H1029.25V357.336H1023.42C1023.23 358.034 1023.04 358.711 1022.84 359.367H1028.51V360.477L1025.55 363.875C1026.17 364.286 1026.78 364.701 1027.39 365.117L1026.58 366.148C1024.89 364.888 1023.13 363.685 1021.31 362.539ZM1015.36 358.242H1017.26V355.164H1018.42V358.242H1020.53V359.305H1018.42V361.414C1019.21 361.305 1020.02 361.19 1020.86 361.07C1020.82 361.435 1020.78 361.81 1020.75 362.195C1019.97 362.31 1019.19 362.424 1018.42 362.539V366.102H1017.26V362.711C1016.13 362.883 1015 363.055 1013.87 363.227L1013.7 362.023C1014.83 361.888 1016.01 361.737 1017.26 361.57V359.305H1014.06V358.258C1014.61 357.096 1015.12 355.742 1015.61 354.195H1013.89V353.133H1015.93C1016.16 352.346 1016.38 351.513 1016.59 350.633L1017.87 350.883C1017.64 351.648 1017.4 352.398 1017.16 353.133H1020.53V354.195H1016.81C1016.34 355.591 1015.86 356.94 1015.36 358.242ZM1033.89 360.242H1035.25V356.016C1034.99 355.812 1034.69 355.581 1034.34 355.32C1035.72 353.893 1036.81 352.326 1037.62 350.617L1038.89 350.836C1038.64 351.336 1038.37 351.82 1038.09 352.289H1042.81V353.336C1042.42 353.831 1041.8 354.56 1040.97 355.523H1043.76V360.242H1045.03V361.32H1040.18C1041.01 363.128 1042.6 364.273 1044.95 364.758C1044.57 365.216 1044.25 365.638 1044.01 366.023C1041.87 365.305 1040.35 364.008 1039.46 362.133C1038.88 363.747 1037.14 365.086 1034.25 366.148C1034.02 365.773 1033.73 365.393 1033.37 365.008C1036.37 364.122 1038.1 362.893 1038.54 361.32H1033.89V360.242ZM1029.47 358.992C1030.09 358.81 1030.74 358.604 1031.44 358.375V354.758H1029.61V353.695H1031.44V350.789H1032.62V353.695H1034.39V354.758H1032.62V357.961C1033.14 357.779 1033.69 357.581 1034.25 357.367C1034.26 357.878 1034.27 358.289 1034.28 358.602C1034.19 358.633 1033.63 358.836 1032.62 359.211V364.242C1032.62 365.305 1032.14 365.857 1031.19 365.898C1030.73 365.919 1030.21 365.924 1029.64 365.914C1029.58 365.477 1029.51 365.044 1029.44 364.617C1030.01 364.68 1030.49 364.711 1030.87 364.711C1031.25 364.711 1031.44 364.492 1031.44 364.055V359.641C1030.92 359.833 1030.32 360.055 1029.64 360.305L1029.47 358.992ZM1042.66 356.602H1040.03C1040.03 357.924 1040 359.138 1039.93 360.242H1042.66V356.602ZM1036.36 360.242H1038.8C1038.89 359.721 1038.93 358.508 1038.92 356.602H1036.36V360.242ZM1041.37 353.367H1037.41C1036.9 354.128 1036.34 354.846 1035.75 355.523H1039.62C1040.33 354.674 1040.92 353.956 1041.37 353.367Z" fill="#666666"/>
</svg>
