<svg width="328" height="226" viewBox="0 0 328 226" fill="none" xmlns="http://www.w3.org/2000/svg">
<mask id="path-1-inside-1_5305_2860" fill="white">
<path d="M1 20H210V192H1V20Z"/>
</mask>
<path d="M210 191H1V193H210V191Z" fill="#DDDDDD" mask="url(#path-1-inside-1_5305_2860)"/>
<mask id="path-3-inside-2_5305_2860" fill="white">
<path d="M216 20H328V192H216V20Z"/>
</mask>
<path d="M328 191H216V193H328V191Z" fill="#DDDDDD" mask="url(#path-3-inside-2_5305_2860)"/>
<rect opacity="0.14" x="215" width="112" height="34" rx="7" fill="#10C469"/>
<rect x="251" width="76" height="34" rx="7" fill="#10C469"/>
<path d="M293.755 21.144C292.987 21.144 292.319 20.984 291.751 20.664C291.191 20.344 290.759 19.876 290.455 19.26C290.151 18.644 289.999 17.884 289.999 16.98C289.999 16.012 290.179 15.192 290.539 14.52C290.907 13.848 291.411 13.336 292.051 12.984C292.699 12.632 293.443 12.456 294.283 12.456C294.731 12.456 295.159 12.504 295.567 12.6C295.975 12.696 296.327 12.84 296.623 13.032L295.903 14.46C295.671 14.3 295.423 14.192 295.159 14.136C294.895 14.072 294.619 14.04 294.331 14.04C293.603 14.04 293.027 14.26 292.603 14.7C292.179 15.14 291.967 15.792 291.967 16.656C291.967 16.8 291.967 16.96 291.967 17.136C291.975 17.312 291.999 17.488 292.039 17.664L291.499 17.16C291.651 16.848 291.847 16.588 292.087 16.38C292.327 16.164 292.611 16.004 292.939 15.9C293.275 15.788 293.643 15.732 294.043 15.732C294.587 15.732 295.075 15.84 295.507 16.056C295.939 16.272 296.283 16.576 296.539 16.968C296.803 17.36 296.935 17.82 296.935 18.348C296.935 18.916 296.791 19.412 296.503 19.836C296.223 20.252 295.843 20.576 295.363 20.808C294.891 21.032 294.355 21.144 293.755 21.144ZM293.647 19.692C293.919 19.692 294.159 19.644 294.367 19.548C294.583 19.444 294.751 19.296 294.871 19.104C294.991 18.912 295.051 18.692 295.051 18.444C295.051 18.06 294.919 17.756 294.655 17.532C294.399 17.3 294.055 17.184 293.623 17.184C293.335 17.184 293.083 17.24 292.867 17.352C292.651 17.456 292.479 17.604 292.351 17.796C292.231 17.98 292.171 18.196 292.171 18.444C292.171 18.684 292.231 18.9 292.351 19.092C292.471 19.276 292.639 19.424 292.855 19.536C293.071 19.64 293.335 19.692 293.647 19.692ZM300.87 21.144C300.166 21.144 299.55 21.04 299.022 20.832C298.494 20.616 298.082 20.316 297.786 19.932C297.49 19.54 297.342 19.084 297.342 18.564C297.342 18.044 297.486 17.604 297.774 17.244C298.07 16.876 298.482 16.6 299.01 16.416C299.538 16.224 300.158 16.128 300.87 16.128C301.59 16.128 302.214 16.224 302.742 16.416C303.278 16.6 303.69 16.876 303.978 17.244C304.274 17.604 304.422 18.044 304.422 18.564C304.422 19.084 304.274 19.54 303.978 19.932C303.682 20.316 303.266 20.616 302.73 20.832C302.202 21.04 301.582 21.144 300.87 21.144ZM300.87 19.716C301.358 19.716 301.742 19.608 302.022 19.392C302.31 19.176 302.454 18.88 302.454 18.504C302.454 18.128 302.31 17.836 302.022 17.628C301.742 17.412 301.358 17.304 300.87 17.304C300.39 17.304 300.01 17.412 299.73 17.628C299.45 17.836 299.31 18.128 299.31 18.504C299.31 18.88 299.45 19.176 299.73 19.392C300.01 19.608 300.39 19.716 300.87 19.716ZM300.87 17.112C300.222 17.112 299.654 17.024 299.166 16.848C298.686 16.672 298.31 16.416 298.038 16.08C297.774 15.736 297.642 15.328 297.642 14.856C297.642 14.36 297.778 13.936 298.05 13.584C298.322 13.224 298.702 12.948 299.19 12.756C299.678 12.556 300.238 12.456 300.87 12.456C301.518 12.456 302.082 12.556 302.562 12.756C303.05 12.948 303.43 13.224 303.702 13.584C303.982 13.936 304.122 14.36 304.122 14.856C304.122 15.328 303.986 15.736 303.714 16.08C303.45 16.416 303.074 16.672 302.586 16.848C302.098 17.024 301.526 17.112 300.87 17.112ZM300.87 15.972C301.278 15.972 301.598 15.88 301.83 15.696C302.07 15.512 302.19 15.26 302.19 14.94C302.19 14.604 302.066 14.344 301.818 14.16C301.578 13.976 301.262 13.884 300.87 13.884C300.486 13.884 300.174 13.976 299.934 14.16C299.694 14.344 299.574 14.604 299.574 14.94C299.574 15.26 299.69 15.512 299.922 15.696C300.154 15.88 300.47 15.972 300.87 15.972ZM306.157 21L311.893 12.6H313.321L307.585 21H306.157ZM306.889 17.136C306.481 17.136 306.121 17.044 305.809 16.86C305.497 16.668 305.249 16.4 305.065 16.056C304.889 15.704 304.801 15.292 304.801 14.82C304.801 14.348 304.889 13.94 305.065 13.596C305.249 13.252 305.497 12.984 305.809 12.792C306.121 12.6 306.481 12.504 306.889 12.504C307.297 12.504 307.657 12.6 307.969 12.792C308.281 12.984 308.525 13.252 308.701 13.596C308.877 13.94 308.965 14.348 308.965 14.82C308.965 15.292 308.877 15.704 308.701 16.056C308.525 16.4 308.281 16.668 307.969 16.86C307.657 17.044 307.297 17.136 306.889 17.136ZM306.889 16.152C307.153 16.152 307.365 16.044 307.525 15.828C307.685 15.604 307.765 15.268 307.765 14.82C307.765 14.372 307.685 14.04 307.525 13.824C307.365 13.6 307.153 13.488 306.889 13.488C306.633 13.488 306.421 13.6 306.253 13.824C306.093 14.04 306.013 14.372 306.013 14.82C306.013 15.26 306.093 15.592 306.253 15.816C306.421 16.04 306.633 16.152 306.889 16.152ZM312.589 21.096C312.189 21.096 311.829 21.004 311.509 20.82C311.197 20.628 310.953 20.36 310.777 20.016C310.601 19.664 310.513 19.252 310.513 18.78C310.513 18.308 310.601 17.9 310.777 17.556C310.953 17.212 311.197 16.944 311.509 16.752C311.829 16.56 312.189 16.464 312.589 16.464C313.005 16.464 313.369 16.56 313.681 16.752C313.993 16.944 314.237 17.212 314.413 17.556C314.589 17.9 314.677 18.308 314.677 18.78C314.677 19.252 314.589 19.664 314.413 20.016C314.237 20.36 313.993 20.628 313.681 20.82C313.369 21.004 313.005 21.096 312.589 21.096ZM312.589 20.112C312.853 20.112 313.065 20.004 313.225 19.788C313.385 19.564 313.465 19.228 313.465 18.78C313.465 18.34 313.385 18.008 313.225 17.784C313.065 17.56 312.853 17.448 312.589 17.448C312.333 17.448 312.121 17.56 311.953 17.784C311.793 18 311.713 18.332 311.713 18.78C311.713 19.228 311.793 19.564 311.953 19.788C312.121 20.004 312.333 20.112 312.589 20.112Z" fill="white"/>
<rect opacity="0.5" width="209" height="34" rx="7" fill="#D4DFFA"/>
<path d="M209 7C209 3.13401 205.866 0 202 0L124 0C120.134 0 117 3.13401 117 7V27C117 30.866 120.134 34 124 34L202 34C205.866 34 209 30.866 209 27V7Z" fill="#435CE7"/>
<path d="M175.359 21.144C174.775 21.144 174.195 21.068 173.619 20.916C173.051 20.756 172.563 20.532 172.155 20.244L172.923 18.756C173.243 18.988 173.611 19.172 174.027 19.308C174.451 19.444 174.879 19.512 175.311 19.512C175.799 19.512 176.183 19.416 176.463 19.224C176.743 19.032 176.883 18.764 176.883 18.42C176.883 18.204 176.827 18.012 176.715 17.844C176.603 17.676 176.403 17.548 176.115 17.46C175.835 17.372 175.439 17.328 174.927 17.328H172.779L173.211 12.6H178.335V14.16H173.907L174.915 13.272L174.615 16.644L173.607 15.756H175.383C176.215 15.756 176.883 15.872 177.387 16.104C177.899 16.328 178.271 16.636 178.503 17.028C178.735 17.42 178.851 17.864 178.851 18.36C178.851 18.856 178.727 19.316 178.479 19.74C178.231 20.156 177.847 20.496 177.327 20.76C176.815 21.016 176.159 21.144 175.359 21.144ZM182.87 21.144C182.166 21.144 181.55 21.04 181.022 20.832C180.494 20.616 180.082 20.316 179.786 19.932C179.49 19.54 179.342 19.084 179.342 18.564C179.342 18.044 179.486 17.604 179.774 17.244C180.07 16.876 180.482 16.6 181.01 16.416C181.538 16.224 182.158 16.128 182.87 16.128C183.59 16.128 184.214 16.224 184.742 16.416C185.278 16.6 185.69 16.876 185.978 17.244C186.274 17.604 186.422 18.044 186.422 18.564C186.422 19.084 186.274 19.54 185.978 19.932C185.682 20.316 185.266 20.616 184.73 20.832C184.202 21.04 183.582 21.144 182.87 21.144ZM182.87 19.716C183.358 19.716 183.742 19.608 184.022 19.392C184.31 19.176 184.454 18.88 184.454 18.504C184.454 18.128 184.31 17.836 184.022 17.628C183.742 17.412 183.358 17.304 182.87 17.304C182.39 17.304 182.01 17.412 181.73 17.628C181.45 17.836 181.31 18.128 181.31 18.504C181.31 18.88 181.45 19.176 181.73 19.392C182.01 19.608 182.39 19.716 182.87 19.716ZM182.87 17.112C182.222 17.112 181.654 17.024 181.166 16.848C180.686 16.672 180.31 16.416 180.038 16.08C179.774 15.736 179.642 15.328 179.642 14.856C179.642 14.36 179.778 13.936 180.05 13.584C180.322 13.224 180.702 12.948 181.19 12.756C181.678 12.556 182.238 12.456 182.87 12.456C183.518 12.456 184.082 12.556 184.562 12.756C185.05 12.948 185.43 13.224 185.702 13.584C185.982 13.936 186.122 14.36 186.122 14.856C186.122 15.328 185.986 15.736 185.714 16.08C185.45 16.416 185.074 16.672 184.586 16.848C184.098 17.024 183.526 17.112 182.87 17.112ZM182.87 15.972C183.278 15.972 183.598 15.88 183.83 15.696C184.07 15.512 184.19 15.26 184.19 14.94C184.19 14.604 184.066 14.344 183.818 14.16C183.578 13.976 183.262 13.884 182.87 13.884C182.486 13.884 182.174 13.976 181.934 14.16C181.694 14.344 181.574 14.604 181.574 14.94C181.574 15.26 181.69 15.512 181.922 15.696C182.154 15.88 182.47 15.972 182.87 15.972ZM188.157 21L193.893 12.6H195.321L189.585 21H188.157ZM188.889 17.136C188.481 17.136 188.121 17.044 187.809 16.86C187.497 16.668 187.249 16.4 187.065 16.056C186.889 15.704 186.801 15.292 186.801 14.82C186.801 14.348 186.889 13.94 187.065 13.596C187.249 13.252 187.497 12.984 187.809 12.792C188.121 12.6 188.481 12.504 188.889 12.504C189.297 12.504 189.657 12.6 189.969 12.792C190.281 12.984 190.525 13.252 190.701 13.596C190.877 13.94 190.965 14.348 190.965 14.82C190.965 15.292 190.877 15.704 190.701 16.056C190.525 16.4 190.281 16.668 189.969 16.86C189.657 17.044 189.297 17.136 188.889 17.136ZM188.889 16.152C189.153 16.152 189.365 16.044 189.525 15.828C189.685 15.604 189.765 15.268 189.765 14.82C189.765 14.372 189.685 14.04 189.525 13.824C189.365 13.6 189.153 13.488 188.889 13.488C188.633 13.488 188.421 13.6 188.253 13.824C188.093 14.04 188.013 14.372 188.013 14.82C188.013 15.26 188.093 15.592 188.253 15.816C188.421 16.04 188.633 16.152 188.889 16.152ZM194.589 21.096C194.189 21.096 193.829 21.004 193.509 20.82C193.197 20.628 192.953 20.36 192.777 20.016C192.601 19.664 192.513 19.252 192.513 18.78C192.513 18.308 192.601 17.9 192.777 17.556C192.953 17.212 193.197 16.944 193.509 16.752C193.829 16.56 194.189 16.464 194.589 16.464C195.005 16.464 195.369 16.56 195.681 16.752C195.993 16.944 196.237 17.212 196.413 17.556C196.589 17.9 196.677 18.308 196.677 18.78C196.677 19.252 196.589 19.664 196.413 20.016C196.237 20.36 195.993 20.628 195.681 20.82C195.369 21.004 195.005 21.096 194.589 21.096ZM194.589 20.112C194.853 20.112 195.065 20.004 195.225 19.788C195.385 19.564 195.465 19.228 195.465 18.78C195.465 18.34 195.385 18.008 195.225 17.784C195.065 17.56 194.853 17.448 194.589 17.448C194.333 17.448 194.121 17.56 193.953 17.784C193.793 18 193.713 18.332 193.713 18.78C193.713 19.228 193.793 19.564 193.953 19.788C194.121 20.004 194.333 20.112 194.589 20.112Z" fill="white"/>
<path d="M12.444 22V21.184L15.864 17.884C16.168 17.596 16.392 17.344 16.536 17.128C16.688 16.904 16.788 16.7 16.836 16.516C16.892 16.324 16.92 16.14 16.92 15.964C16.92 15.532 16.768 15.192 16.464 14.944C16.16 14.696 15.716 14.572 15.132 14.572C14.684 14.572 14.28 14.648 13.92 14.8C13.56 14.944 13.248 15.172 12.984 15.484L12.168 14.776C12.488 14.368 12.916 14.056 13.452 13.84C13.996 13.616 14.592 13.504 15.24 13.504C15.824 13.504 16.332 13.6 16.764 13.792C17.196 13.976 17.528 14.244 17.76 14.596C18 14.948 18.12 15.364 18.12 15.844C18.12 16.116 18.084 16.384 18.012 16.648C17.94 16.912 17.804 17.192 17.604 17.488C17.404 17.784 17.116 18.116 16.74 18.484L13.692 21.424L13.404 20.956H18.48V22H12.444ZM22.6369 22.096C21.9809 22.096 21.3929 21.928 20.8729 21.592C20.3609 21.256 19.9529 20.768 19.6489 20.128C19.3529 19.488 19.2049 18.712 19.2049 17.8C19.2049 16.888 19.3529 16.112 19.6489 15.472C19.9529 14.832 20.3609 14.344 20.8729 14.008C21.3929 13.672 21.9809 13.504 22.6369 13.504C23.2849 13.504 23.8689 13.672 24.3889 14.008C24.9089 14.344 25.3169 14.832 25.6129 15.472C25.9089 16.112 26.0569 16.888 26.0569 17.8C26.0569 18.712 25.9089 19.488 25.6129 20.128C25.3169 20.768 24.9089 21.256 24.3889 21.592C23.8689 21.928 23.2849 22.096 22.6369 22.096ZM22.6369 21.028C23.0769 21.028 23.4609 20.908 23.7889 20.668C24.1249 20.428 24.3849 20.068 24.5689 19.588C24.7609 19.108 24.8569 18.512 24.8569 17.8C24.8569 17.088 24.7609 16.492 24.5689 16.012C24.3849 15.532 24.1249 15.172 23.7889 14.932C23.4609 14.692 23.0769 14.572 22.6369 14.572C22.1969 14.572 21.8089 14.692 21.4729 14.932C21.1369 15.172 20.8729 15.532 20.6809 16.012C20.4969 16.492 20.4049 17.088 20.4049 17.8C20.4049 18.512 20.4969 19.108 20.6809 19.588C20.8729 20.068 21.1369 20.428 21.4729 20.668C21.8089 20.908 22.1969 21.028 22.6369 21.028ZM26.8268 22V21.184L30.2468 17.884C30.5508 17.596 30.7748 17.344 30.9188 17.128C31.0708 16.904 31.1708 16.7 31.2188 16.516C31.2748 16.324 31.3028 16.14 31.3028 15.964C31.3028 15.532 31.1508 15.192 30.8468 14.944C30.5428 14.696 30.0988 14.572 29.5148 14.572C29.0668 14.572 28.6628 14.648 28.3028 14.8C27.9428 14.944 27.6308 15.172 27.3668 15.484L26.5508 14.776C26.8708 14.368 27.2988 14.056 27.8348 13.84C28.3788 13.616 28.9748 13.504 29.6228 13.504C30.2068 13.504 30.7148 13.6 31.1468 13.792C31.5788 13.976 31.9108 14.244 32.1428 14.596C32.3828 14.948 32.5028 15.364 32.5028 15.844C32.5028 16.116 32.4668 16.384 32.3948 16.648C32.3228 16.912 32.1868 17.192 31.9868 17.488C31.7868 17.784 31.4988 18.116 31.1228 18.484L28.0748 21.424L27.7868 20.956H32.8628V22H26.8268ZM36.3114 22.096C35.7194 22.096 35.1434 22.004 34.5834 21.82C34.0314 21.636 33.5794 21.388 33.2274 21.076L33.7794 20.128C34.0594 20.392 34.4234 20.608 34.8714 20.776C35.3194 20.944 35.7954 21.028 36.2994 21.028C36.9394 21.028 37.4314 20.892 37.7754 20.62C38.1194 20.348 38.2914 19.984 38.2914 19.528C38.2914 19.216 38.2154 18.944 38.0634 18.712C37.9114 18.48 37.6474 18.304 37.2714 18.184C36.9034 18.056 36.3954 17.992 35.7474 17.992H33.8394L34.2834 13.6H39.0234V14.644H34.7274L35.3514 14.056L35.0034 17.524L34.3794 16.948H35.9994C36.8394 16.948 37.5154 17.056 38.0274 17.272C38.5394 17.488 38.9114 17.788 39.1434 18.172C39.3754 18.548 39.4914 18.984 39.4914 19.48C39.4914 19.96 39.3754 20.4 39.1434 20.8C38.9114 21.192 38.5594 21.508 38.0874 21.748C37.6234 21.98 37.0314 22.096 36.3114 22.096ZM43.3001 19.216V17.092H45.7121V19.216H43.3001ZM51.0761 19.216L46.8641 19.216V17.092H50.2121V16.048H46.8641V14.392H50.4881V13.312H43.5401C43.6961 12.952 43.8641 12.556 44.0081 12.184L42.8801 11.884C42.3281 13.48 41.3681 15.004 40.2641 15.952C40.5401 16.12 41.0201 16.48 41.2361 16.672C41.8481 16.072 42.4481 15.28 42.9641 14.392H45.7121V16.048H42.1841V19.216H40.2521V20.296H45.7121V22.948H46.8641V20.296L51.0761 20.296V19.216Z" fill="#435CE7"/>
<rect opacity="0.14" x="215" y="46" width="112" height="34" rx="7" fill="#10C469"/>
<rect x="242" y="46" width="85" height="34" rx="7" fill="#10C469"/>
<path d="M292.152 67L295.536 59.344L296.04 60.184H291.516L292.38 59.272V61.552H290.652V58.6H297.384V59.86L294.264 67H292.152ZM297.927 67V65.74L301.167 62.68C301.423 62.448 301.611 62.24 301.731 62.056C301.851 61.872 301.931 61.704 301.971 61.552C302.019 61.4 302.043 61.26 302.043 61.132C302.043 60.796 301.927 60.54 301.695 60.364C301.471 60.18 301.139 60.088 300.699 60.088C300.347 60.088 300.019 60.156 299.715 60.292C299.419 60.428 299.167 60.64 298.959 60.928L297.543 60.016C297.863 59.536 298.311 59.156 298.887 58.876C299.463 58.596 300.127 58.456 300.879 58.456C301.503 58.456 302.047 58.56 302.511 58.768C302.983 58.968 303.347 59.252 303.603 59.62C303.867 59.988 303.999 60.428 303.999 60.94C303.999 61.212 303.963 61.484 303.891 61.756C303.827 62.02 303.691 62.3 303.483 62.596C303.283 62.892 302.987 63.224 302.595 63.592L299.907 66.124L299.535 65.416H304.275V67H297.927ZM306.157 67L311.893 58.6H313.321L307.585 67H306.157ZM306.889 63.136C306.481 63.136 306.121 63.044 305.809 62.86C305.497 62.668 305.249 62.4 305.065 62.056C304.889 61.704 304.801 61.292 304.801 60.82C304.801 60.348 304.889 59.94 305.065 59.596C305.249 59.252 305.497 58.984 305.809 58.792C306.121 58.6 306.481 58.504 306.889 58.504C307.297 58.504 307.657 58.6 307.969 58.792C308.281 58.984 308.525 59.252 308.701 59.596C308.877 59.94 308.965 60.348 308.965 60.82C308.965 61.292 308.877 61.704 308.701 62.056C308.525 62.4 308.281 62.668 307.969 62.86C307.657 63.044 307.297 63.136 306.889 63.136ZM306.889 62.152C307.153 62.152 307.365 62.044 307.525 61.828C307.685 61.604 307.765 61.268 307.765 60.82C307.765 60.372 307.685 60.04 307.525 59.824C307.365 59.6 307.153 59.488 306.889 59.488C306.633 59.488 306.421 59.6 306.253 59.824C306.093 60.04 306.013 60.372 306.013 60.82C306.013 61.26 306.093 61.592 306.253 61.816C306.421 62.04 306.633 62.152 306.889 62.152ZM312.589 67.096C312.189 67.096 311.829 67.004 311.509 66.82C311.197 66.628 310.953 66.36 310.777 66.016C310.601 65.664 310.513 65.252 310.513 64.78C310.513 64.308 310.601 63.9 310.777 63.556C310.953 63.212 311.197 62.944 311.509 62.752C311.829 62.56 312.189 62.464 312.589 62.464C313.005 62.464 313.369 62.56 313.681 62.752C313.993 62.944 314.237 63.212 314.413 63.556C314.589 63.9 314.677 64.308 314.677 64.78C314.677 65.252 314.589 65.664 314.413 66.016C314.237 66.36 313.993 66.628 313.681 66.82C313.369 67.004 313.005 67.096 312.589 67.096ZM312.589 66.112C312.853 66.112 313.065 66.004 313.225 65.788C313.385 65.564 313.465 65.228 313.465 64.78C313.465 64.34 313.385 64.008 313.225 63.784C313.065 63.56 312.853 63.448 312.589 63.448C312.333 63.448 312.121 63.56 311.953 63.784C311.793 64 311.713 64.332 311.713 64.78C311.713 65.228 311.793 65.564 311.953 65.788C312.121 66.004 312.333 66.112 312.589 66.112Z" fill="white"/>
<rect opacity="0.5" y="46" width="209" height="34" rx="7" fill="#D4DFFA"/>
<path d="M209 53C209 49.134 205.866 46 202 46L102 46C98.134 46 95 49.134 95 53V73C95 76.866 98.134 80 102 80L202 80C205.866 80 209 76.866 209 73V53Z" fill="#435CE7"/>
<path d="M175.415 67.144C174.647 67.144 173.979 66.984 173.411 66.664C172.851 66.344 172.419 65.876 172.115 65.26C171.811 64.644 171.659 63.884 171.659 62.98C171.659 62.012 171.839 61.192 172.199 60.52C172.567 59.848 173.071 59.336 173.711 58.984C174.359 58.632 175.103 58.456 175.943 58.456C176.391 58.456 176.819 58.504 177.227 58.6C177.635 58.696 177.987 58.84 178.283 59.032L177.563 60.46C177.331 60.3 177.083 60.192 176.819 60.136C176.555 60.072 176.279 60.04 175.991 60.04C175.263 60.04 174.687 60.26 174.263 60.7C173.839 61.14 173.627 61.792 173.627 62.656C173.627 62.8 173.627 62.96 173.627 63.136C173.635 63.312 173.659 63.488 173.699 63.664L173.159 63.16C173.311 62.848 173.507 62.588 173.747 62.38C173.987 62.164 174.271 62.004 174.599 61.9C174.935 61.788 175.303 61.732 175.703 61.732C176.247 61.732 176.735 61.84 177.167 62.056C177.599 62.272 177.943 62.576 178.199 62.968C178.463 63.36 178.595 63.82 178.595 64.348C178.595 64.916 178.451 65.412 178.163 65.836C177.883 66.252 177.503 66.576 177.023 66.808C176.551 67.032 176.015 67.144 175.415 67.144ZM175.307 65.692C175.579 65.692 175.819 65.644 176.027 65.548C176.243 65.444 176.411 65.296 176.531 65.104C176.651 64.912 176.711 64.692 176.711 64.444C176.711 64.06 176.579 63.756 176.315 63.532C176.059 63.3 175.715 63.184 175.283 63.184C174.995 63.184 174.743 63.24 174.527 63.352C174.311 63.456 174.139 63.604 174.011 63.796C173.891 63.98 173.831 64.196 173.831 64.444C173.831 64.684 173.891 64.9 174.011 65.092C174.131 65.276 174.299 65.424 174.515 65.536C174.731 65.64 174.995 65.692 175.307 65.692ZM182.65 67.144C181.962 67.144 181.346 66.976 180.802 66.64C180.258 66.296 179.83 65.8 179.518 65.152C179.206 64.504 179.05 63.72 179.05 62.8C179.05 61.88 179.206 61.096 179.518 60.448C179.83 59.8 180.258 59.308 180.802 58.972C181.346 58.628 181.962 58.456 182.65 58.456C183.346 58.456 183.962 58.628 184.498 58.972C185.042 59.308 185.47 59.8 185.782 60.448C186.094 61.096 186.25 61.88 186.25 62.8C186.25 63.72 186.094 64.504 185.782 65.152C185.47 65.8 185.042 66.296 184.498 66.64C183.962 66.976 183.346 67.144 182.65 67.144ZM182.65 65.5C182.978 65.5 183.262 65.408 183.502 65.224C183.75 65.04 183.942 64.748 184.078 64.348C184.222 63.948 184.294 63.432 184.294 62.8C184.294 62.168 184.222 61.652 184.078 61.252C183.942 60.852 183.75 60.56 183.502 60.376C183.262 60.192 182.978 60.1 182.65 60.1C182.33 60.1 182.046 60.192 181.798 60.376C181.558 60.56 181.366 60.852 181.222 61.252C181.086 61.652 181.018 62.168 181.018 62.8C181.018 63.432 181.086 63.948 181.222 64.348C181.366 64.748 181.558 65.04 181.798 65.224C182.046 65.408 182.33 65.5 182.65 65.5ZM188.157 67L193.893 58.6H195.321L189.585 67H188.157ZM188.889 63.136C188.481 63.136 188.121 63.044 187.809 62.86C187.497 62.668 187.249 62.4 187.065 62.056C186.889 61.704 186.801 61.292 186.801 60.82C186.801 60.348 186.889 59.94 187.065 59.596C187.249 59.252 187.497 58.984 187.809 58.792C188.121 58.6 188.481 58.504 188.889 58.504C189.297 58.504 189.657 58.6 189.969 58.792C190.281 58.984 190.525 59.252 190.701 59.596C190.877 59.94 190.965 60.348 190.965 60.82C190.965 61.292 190.877 61.704 190.701 62.056C190.525 62.4 190.281 62.668 189.969 62.86C189.657 63.044 189.297 63.136 188.889 63.136ZM188.889 62.152C189.153 62.152 189.365 62.044 189.525 61.828C189.685 61.604 189.765 61.268 189.765 60.82C189.765 60.372 189.685 60.04 189.525 59.824C189.365 59.6 189.153 59.488 188.889 59.488C188.633 59.488 188.421 59.6 188.253 59.824C188.093 60.04 188.013 60.372 188.013 60.82C188.013 61.26 188.093 61.592 188.253 61.816C188.421 62.04 188.633 62.152 188.889 62.152ZM194.589 67.096C194.189 67.096 193.829 67.004 193.509 66.82C193.197 66.628 192.953 66.36 192.777 66.016C192.601 65.664 192.513 65.252 192.513 64.78C192.513 64.308 192.601 63.9 192.777 63.556C192.953 63.212 193.197 62.944 193.509 62.752C193.829 62.56 194.189 62.464 194.589 62.464C195.005 62.464 195.369 62.56 195.681 62.752C195.993 62.944 196.237 63.212 196.413 63.556C196.589 63.9 196.677 64.308 196.677 64.78C196.677 65.252 196.589 65.664 196.413 66.016C196.237 66.36 195.993 66.628 195.681 66.82C195.369 67.004 195.005 67.096 194.589 67.096ZM194.589 66.112C194.853 66.112 195.065 66.004 195.225 65.788C195.385 65.564 195.465 65.228 195.465 64.78C195.465 64.34 195.385 64.008 195.225 63.784C195.065 63.56 194.853 63.448 194.589 63.448C194.333 63.448 194.121 63.56 193.953 63.784C193.793 64 193.713 64.332 193.713 64.78C193.713 65.228 193.793 65.564 193.953 65.788C194.121 66.004 194.333 66.112 194.589 66.112Z" fill="white"/>
<path d="M12.444 68V67.184L15.864 63.884C16.168 63.596 16.392 63.344 16.536 63.128C16.688 62.904 16.788 62.7 16.836 62.516C16.892 62.324 16.92 62.14 16.92 61.964C16.92 61.532 16.768 61.192 16.464 60.944C16.16 60.696 15.716 60.572 15.132 60.572C14.684 60.572 14.28 60.648 13.92 60.8C13.56 60.944 13.248 61.172 12.984 61.484L12.168 60.776C12.488 60.368 12.916 60.056 13.452 59.84C13.996 59.616 14.592 59.504 15.24 59.504C15.824 59.504 16.332 59.6 16.764 59.792C17.196 59.976 17.528 60.244 17.76 60.596C18 60.948 18.12 61.364 18.12 61.844C18.12 62.116 18.084 62.384 18.012 62.648C17.94 62.912 17.804 63.192 17.604 63.488C17.404 63.784 17.116 64.116 16.74 64.484L13.692 67.424L13.404 66.956H18.48V68H12.444ZM22.6369 68.096C21.9809 68.096 21.3929 67.928 20.8729 67.592C20.3609 67.256 19.9529 66.768 19.6489 66.128C19.3529 65.488 19.2049 64.712 19.2049 63.8C19.2049 62.888 19.3529 62.112 19.6489 61.472C19.9529 60.832 20.3609 60.344 20.8729 60.008C21.3929 59.672 21.9809 59.504 22.6369 59.504C23.2849 59.504 23.8689 59.672 24.3889 60.008C24.9089 60.344 25.3169 60.832 25.6129 61.472C25.9089 62.112 26.0569 62.888 26.0569 63.8C26.0569 64.712 25.9089 65.488 25.6129 66.128C25.3169 66.768 24.9089 67.256 24.3889 67.592C23.8689 67.928 23.2849 68.096 22.6369 68.096ZM22.6369 67.028C23.0769 67.028 23.4609 66.908 23.7889 66.668C24.1249 66.428 24.3849 66.068 24.5689 65.588C24.7609 65.108 24.8569 64.512 24.8569 63.8C24.8569 63.088 24.7609 62.492 24.5689 62.012C24.3849 61.532 24.1249 61.172 23.7889 60.932C23.4609 60.692 23.0769 60.572 22.6369 60.572C22.1969 60.572 21.8089 60.692 21.4729 60.932C21.1369 61.172 20.8729 61.532 20.6809 62.012C20.4969 62.492 20.4049 63.088 20.4049 63.8C20.4049 64.512 20.4969 65.108 20.6809 65.588C20.8729 66.068 21.1369 66.428 21.4729 66.668C21.8089 66.908 22.1969 67.028 22.6369 67.028ZM29.4096 68.096C28.8176 68.096 28.2416 68.004 27.6816 67.82C27.1296 67.636 26.6776 67.388 26.3256 67.076L26.8776 66.128C27.1576 66.392 27.5216 66.608 27.9696 66.776C28.4176 66.944 28.8976 67.028 29.4096 67.028C30.0336 67.028 30.5176 66.896 30.8616 66.632C31.2136 66.36 31.3896 65.996 31.3896 65.54C31.3896 65.1 31.2216 64.748 30.8856 64.484C30.5576 64.212 30.0336 64.076 29.3136 64.076H28.6416V63.236L31.1376 60.164L31.3056 60.644H26.7096V59.6H32.2536V60.416L29.7696 63.476L29.1456 63.104H29.5416C30.5576 63.104 31.3176 63.332 31.8216 63.788C32.3336 64.244 32.5896 64.824 32.5896 65.528C32.5896 66 32.4736 66.432 32.2416 66.824C32.0096 67.216 31.6576 67.528 31.1856 67.76C30.7216 67.984 30.1296 68.096 29.4096 68.096ZM36.8908 68.096C36.2348 68.096 35.6468 67.928 35.1268 67.592C34.6148 67.256 34.2068 66.768 33.9028 66.128C33.6068 65.488 33.4588 64.712 33.4588 63.8C33.4588 62.888 33.6068 62.112 33.9028 61.472C34.2068 60.832 34.6148 60.344 35.1268 60.008C35.6468 59.672 36.2348 59.504 36.8908 59.504C37.5388 59.504 38.1228 59.672 38.6428 60.008C39.1628 60.344 39.5708 60.832 39.8668 61.472C40.1628 62.112 40.3108 62.888 40.3108 63.8C40.3108 64.712 40.1628 65.488 39.8668 66.128C39.5708 66.768 39.1628 67.256 38.6428 67.592C38.1228 67.928 37.5388 68.096 36.8908 68.096ZM36.8908 67.028C37.3308 67.028 37.7148 66.908 38.0428 66.668C38.3788 66.428 38.6388 66.068 38.8228 65.588C39.0148 65.108 39.1108 64.512 39.1108 63.8C39.1108 63.088 39.0148 62.492 38.8228 62.012C38.6388 61.532 38.3788 61.172 38.0428 60.932C37.7148 60.692 37.3308 60.572 36.8908 60.572C36.4508 60.572 36.0628 60.692 35.7268 60.932C35.3908 61.172 35.1268 61.532 34.9348 62.012C34.7508 62.492 34.6588 63.088 34.6588 63.8C34.6588 64.512 34.7508 65.108 34.9348 65.588C35.1268 66.068 35.3908 66.428 35.7268 66.668C36.0628 66.908 36.4508 67.028 36.8908 67.028ZM44.2727 65.216V63.092L46.6847 63.092V65.216H44.2727ZM52.0487 65.216H47.8367V63.092H51.1847V62.048H47.8367V60.392H51.4607V59.312H44.5127C44.6687 58.952 44.8367 58.556 44.9807 58.184L43.8527 57.884C43.3007 59.48 42.3407 61.004 41.2367 61.952C41.5127 62.12 41.9927 62.48 42.2087 62.672C42.8207 62.072 43.4207 61.28 43.9367 60.392H46.6847V62.048L43.1567 62.048V65.216H41.2247V66.296H46.6847V68.948H47.8367V66.296H52.0487V65.216Z" fill="#435CE7"/>
<rect opacity="0.14" x="215" y="92" width="112" height="34" rx="7" fill="#10C469"/>
<rect x="233" y="92" width="94" height="34" rx="7" fill="#10C469"/>
<path d="M292.611 104.456C290.835 104.456 289.431 105.536 289.431 107.252C289.431 108.836 290.703 109.868 292.323 109.868C293.199 109.868 293.919 109.604 294.411 109.112C294.351 110.732 293.439 111.56 292.047 111.56C291.471 111.56 290.931 111.452 290.475 111.14L289.755 112.568C290.343 112.94 291.195 113.144 292.083 113.144C294.627 113.144 296.367 111.524 296.367 108.62C296.367 105.908 294.939 104.456 292.611 104.456ZM292.755 108.416C291.891 108.416 291.327 107.924 291.327 107.156C291.327 106.388 291.903 105.908 292.731 105.908C293.655 105.908 294.195 106.436 294.195 107.156C294.195 107.888 293.607 108.416 292.755 108.416ZM300.65 113.144C302.726 113.144 304.25 111.572 304.25 108.8C304.25 106.028 302.726 104.456 300.65 104.456C298.586 104.456 297.05 106.028 297.05 108.8C297.05 111.572 298.586 113.144 300.65 113.144ZM300.65 111.5C299.69 111.5 299.018 110.708 299.018 108.8C299.018 106.892 299.69 106.1 300.65 106.1C301.622 106.1 302.294 106.892 302.294 108.8C302.294 110.708 301.622 111.5 300.65 111.5ZM306.889 109.136C308.113 109.136 308.965 108.248 308.965 106.82C308.965 105.392 308.113 104.504 306.889 104.504C305.665 104.504 304.801 105.404 304.801 106.82C304.801 108.236 305.665 109.136 306.889 109.136ZM306.157 113H307.585L313.321 104.6H311.893L306.157 113ZM306.889 108.152C306.373 108.152 306.013 107.708 306.013 106.82C306.013 105.932 306.373 105.488 306.889 105.488C307.417 105.488 307.765 105.92 307.765 106.82C307.765 107.72 307.417 108.152 306.889 108.152ZM312.589 113.096C313.813 113.096 314.677 112.196 314.677 110.78C314.677 109.364 313.813 108.464 312.589 108.464C311.377 108.464 310.513 109.364 310.513 110.78C310.513 112.196 311.377 113.096 312.589 113.096ZM312.589 112.112C312.073 112.112 311.713 111.68 311.713 110.78C311.713 109.88 312.073 109.448 312.589 109.448C313.117 109.448 313.465 109.892 313.465 110.78C313.465 111.668 313.117 112.112 312.589 112.112Z" fill="white"/>
<rect opacity="0.5" y="92" width="209" height="34" rx="7" fill="#D4DFFA"/>
<path d="M209 99C209 95.134 205.866 92 202 92L74 92C70.134 92 67 95.134 67 99V119C67 122.866 70.134 126 74 126L202 126C205.866 126 209 122.866 209 119V99Z" fill="#435CE7"/>
<path d="M176.018 113.144C175.314 113.144 174.698 113.04 174.17 112.832C173.642 112.616 173.23 112.316 172.934 111.932C172.638 111.54 172.49 111.084 172.49 110.564C172.49 110.044 172.634 109.604 172.922 109.244C173.218 108.876 173.63 108.6 174.158 108.416C174.686 108.224 175.306 108.128 176.018 108.128C176.738 108.128 177.362 108.224 177.89 108.416C178.426 108.6 178.838 108.876 179.126 109.244C179.422 109.604 179.57 110.044 179.57 110.564C179.57 111.084 179.422 111.54 179.126 111.932C178.83 112.316 178.414 112.616 177.878 112.832C177.35 113.04 176.73 113.144 176.018 113.144ZM176.018 111.716C176.506 111.716 176.89 111.608 177.17 111.392C177.458 111.176 177.602 110.88 177.602 110.504C177.602 110.128 177.458 109.836 177.17 109.628C176.89 109.412 176.506 109.304 176.018 109.304C175.538 109.304 175.158 109.412 174.878 109.628C174.598 109.836 174.458 110.128 174.458 110.504C174.458 110.88 174.598 111.176 174.878 111.392C175.158 111.608 175.538 111.716 176.018 111.716ZM176.018 109.112C175.37 109.112 174.802 109.024 174.314 108.848C173.834 108.672 173.458 108.416 173.186 108.08C172.922 107.736 172.79 107.328 172.79 106.856C172.79 106.36 172.926 105.936 173.198 105.584C173.47 105.224 173.85 104.948 174.338 104.756C174.826 104.556 175.386 104.456 176.018 104.456C176.666 104.456 177.23 104.556 177.71 104.756C178.198 104.948 178.578 105.224 178.85 105.584C179.13 105.936 179.27 106.36 179.27 106.856C179.27 107.328 179.134 107.736 178.862 108.08C178.598 108.416 178.222 108.672 177.734 108.848C177.246 109.024 176.674 109.112 176.018 109.112ZM176.018 107.972C176.426 107.972 176.746 107.88 176.978 107.696C177.218 107.512 177.338 107.26 177.338 106.94C177.338 106.604 177.214 106.344 176.966 106.16C176.726 105.976 176.41 105.884 176.018 105.884C175.634 105.884 175.322 105.976 175.082 106.16C174.842 106.344 174.722 106.604 174.722 106.94C174.722 107.26 174.838 107.512 175.07 107.696C175.302 107.88 175.618 107.972 176.018 107.972ZM182.934 113.144C182.35 113.144 181.77 113.068 181.194 112.916C180.618 112.756 180.13 112.532 179.73 112.244L180.486 110.756C180.806 110.988 181.178 111.172 181.602 111.308C182.026 111.444 182.454 111.512 182.886 111.512C183.374 111.512 183.758 111.416 184.038 111.224C184.318 111.032 184.458 110.768 184.458 110.432C184.458 110.112 184.334 109.86 184.086 109.676C183.838 109.492 183.438 109.4 182.886 109.4H181.998V108.116L184.338 105.464L184.554 106.16H180.15V104.6H186.03V105.86L183.702 108.512L182.718 107.948H183.282C184.314 107.948 185.094 108.18 185.622 108.644C186.15 109.108 186.414 109.704 186.414 110.432C186.414 110.904 186.29 111.348 186.042 111.764C185.794 112.172 185.414 112.504 184.902 112.76C184.39 113.016 183.734 113.144 182.934 113.144ZM188.157 113L193.893 104.6H195.321L189.585 113H188.157ZM188.889 109.136C188.481 109.136 188.121 109.044 187.809 108.86C187.497 108.668 187.249 108.4 187.065 108.056C186.889 107.704 186.801 107.292 186.801 106.82C186.801 106.348 186.889 105.94 187.065 105.596C187.249 105.252 187.497 104.984 187.809 104.792C188.121 104.6 188.481 104.504 188.889 104.504C189.297 104.504 189.657 104.6 189.969 104.792C190.281 104.984 190.525 105.252 190.701 105.596C190.877 105.94 190.965 106.348 190.965 106.82C190.965 107.292 190.877 107.704 190.701 108.056C190.525 108.4 190.281 108.668 189.969 108.86C189.657 109.044 189.297 109.136 188.889 109.136ZM188.889 108.152C189.153 108.152 189.365 108.044 189.525 107.828C189.685 107.604 189.765 107.268 189.765 106.82C189.765 106.372 189.685 106.04 189.525 105.824C189.365 105.6 189.153 105.488 188.889 105.488C188.633 105.488 188.421 105.6 188.253 105.824C188.093 106.04 188.013 106.372 188.013 106.82C188.013 107.26 188.093 107.592 188.253 107.816C188.421 108.04 188.633 108.152 188.889 108.152ZM194.589 113.096C194.189 113.096 193.829 113.004 193.509 112.82C193.197 112.628 192.953 112.36 192.777 112.016C192.601 111.664 192.513 111.252 192.513 110.78C192.513 110.308 192.601 109.9 192.777 109.556C192.953 109.212 193.197 108.944 193.509 108.752C193.829 108.56 194.189 108.464 194.589 108.464C195.005 108.464 195.369 108.56 195.681 108.752C195.993 108.944 196.237 109.212 196.413 109.556C196.589 109.9 196.677 110.308 196.677 110.78C196.677 111.252 196.589 111.664 196.413 112.016C196.237 112.36 195.993 112.628 195.681 112.82C195.369 113.004 195.005 113.096 194.589 113.096ZM194.589 112.112C194.853 112.112 195.065 112.004 195.225 111.788C195.385 111.564 195.465 111.228 195.465 110.78C195.465 110.34 195.385 110.008 195.225 109.784C195.065 109.56 194.853 109.448 194.589 109.448C194.333 109.448 194.121 109.56 193.953 109.784C193.793 110 193.713 110.332 193.713 110.78C193.713 111.228 193.793 111.564 193.953 111.788C194.121 112.004 194.333 112.112 194.589 112.112Z" fill="white"/>
<path d="M12.444 114V113.184L15.864 109.884C16.168 109.596 16.392 109.344 16.536 109.128C16.688 108.904 16.788 108.7 16.836 108.516C16.892 108.324 16.92 108.14 16.92 107.964C16.92 107.532 16.768 107.192 16.464 106.944C16.16 106.696 15.716 106.572 15.132 106.572C14.684 106.572 14.28 106.648 13.92 106.8C13.56 106.944 13.248 107.172 12.984 107.484L12.168 106.776C12.488 106.368 12.916 106.056 13.452 105.84C13.996 105.616 14.592 105.504 15.24 105.504C15.824 105.504 16.332 105.6 16.764 105.792C17.196 105.976 17.528 106.244 17.76 106.596C18 106.948 18.12 107.364 18.12 107.844C18.12 108.116 18.084 108.384 18.012 108.648C17.94 108.912 17.804 109.192 17.604 109.488C17.404 109.784 17.116 110.116 16.74 110.484L13.692 113.424L13.404 112.956H18.48V114H12.444ZM22.6369 114.096C21.9809 114.096 21.3929 113.928 20.8729 113.592C20.3609 113.256 19.9529 112.768 19.6489 112.128C19.3529 111.488 19.2049 110.712 19.2049 109.8C19.2049 108.888 19.3529 108.112 19.6489 107.472C19.9529 106.832 20.3609 106.344 20.8729 106.008C21.3929 105.672 21.9809 105.504 22.6369 105.504C23.2849 105.504 23.8689 105.672 24.3889 106.008C24.9089 106.344 25.3169 106.832 25.6129 107.472C25.9089 108.112 26.0569 108.888 26.0569 109.8C26.0569 110.712 25.9089 111.488 25.6129 112.128C25.3169 112.768 24.9089 113.256 24.3889 113.592C23.8689 113.928 23.2849 114.096 22.6369 114.096ZM22.6369 113.028C23.0769 113.028 23.4609 112.908 23.7889 112.668C24.1249 112.428 24.3849 112.068 24.5689 111.588C24.7609 111.108 24.8569 110.512 24.8569 109.8C24.8569 109.088 24.7609 108.492 24.5689 108.012C24.3849 107.532 24.1249 107.172 23.7889 106.932C23.4609 106.692 23.0769 106.572 22.6369 106.572C22.1969 106.572 21.8089 106.692 21.4729 106.932C21.1369 107.172 20.8729 107.532 20.6809 108.012C20.4969 108.492 20.4049 109.088 20.4049 109.8C20.4049 110.512 20.4969 111.108 20.6809 111.588C20.8729 112.068 21.1369 112.428 21.4729 112.668C21.8089 112.908 22.1969 113.028 22.6369 113.028ZM26.8388 111.936V111.096L31.1348 105.6H32.4308L28.1708 111.096L27.5588 110.904H34.2668V111.936H26.8388ZM31.5068 114V111.936L31.5428 110.904V109.08H32.6708V114H31.5068ZM38.1682 114.096C37.5122 114.096 36.9242 113.928 36.4042 113.592C35.8922 113.256 35.4842 112.768 35.1802 112.128C34.8842 111.488 34.7362 110.712 34.7362 109.8C34.7362 108.888 34.8842 108.112 35.1802 107.472C35.4842 106.832 35.8922 106.344 36.4042 106.008C36.9242 105.672 37.5122 105.504 38.1682 105.504C38.8162 105.504 39.4002 105.672 39.9202 106.008C40.4402 106.344 40.8482 106.832 41.1442 107.472C41.4402 108.112 41.5882 108.888 41.5882 109.8C41.5882 110.712 41.4402 111.488 41.1442 112.128C40.8482 112.768 40.4402 113.256 39.9202 113.592C39.4002 113.928 38.8162 114.096 38.1682 114.096ZM38.1682 113.028C38.6082 113.028 38.9922 112.908 39.3202 112.668C39.6562 112.428 39.9162 112.068 40.1002 111.588C40.2922 111.108 40.3882 110.512 40.3882 109.8C40.3882 109.088 40.2922 108.492 40.1002 108.012C39.9162 107.532 39.6562 107.172 39.3202 106.932C38.9922 106.692 38.6082 106.572 38.1682 106.572C37.7282 106.572 37.3402 106.692 37.0042 106.932C36.6682 107.172 36.4042 107.532 36.2122 108.012C36.0282 108.492 35.9362 109.088 35.9362 109.8C35.9362 110.512 36.0282 111.108 36.2122 111.588C36.4042 112.068 36.6682 112.428 37.0042 112.668C37.3402 112.908 37.7282 113.028 38.1682 113.028ZM45.5501 111.216V109.092H47.9621V111.216H45.5501ZM53.3261 111.216H49.1141V109.092H52.4621V108.048H49.1141V106.392H52.7381V105.312H45.7901C45.9461 104.952 46.1141 104.556 46.2581 104.184L45.1301 103.884C44.5781 105.48 43.6181 107.004 42.5141 107.952C42.7901 108.12 43.2701 108.48 43.4861 108.672C44.0981 108.072 44.6981 107.28 45.2141 106.392H47.9621V108.048H44.4341V111.216H42.5021V112.296H47.9621V114.948H49.1141V112.296H53.3261V111.216Z" fill="#435CE7"/>
<rect opacity="0.14" x="215" y="138" width="112" height="30" rx="7" fill="#10C469"/>
<rect x="215" y="138" width="112" height="34" rx="7" fill="#10C469"/>
<path d="M284.322 150.6V152.16H286.002V159H287.946V150.6H284.322ZM292.756 159.144C294.832 159.144 296.356 157.572 296.356 154.8C296.356 152.028 294.832 150.456 292.756 150.456C290.692 150.456 289.156 152.028 289.156 154.8C289.156 157.572 290.692 159.144 292.756 159.144ZM292.756 157.5C291.796 157.5 291.124 156.708 291.124 154.8C291.124 152.892 291.796 152.1 292.756 152.1C293.728 152.1 294.4 152.892 294.4 154.8C294.4 156.708 293.728 157.5 292.756 157.5ZM300.65 159.144C302.726 159.144 304.25 157.572 304.25 154.8C304.25 152.028 302.726 150.456 300.65 150.456C298.586 150.456 297.05 152.028 297.05 154.8C297.05 157.572 298.586 159.144 300.65 159.144ZM300.65 157.5C299.69 157.5 299.018 156.708 299.018 154.8C299.018 152.892 299.69 152.1 300.65 152.1C301.622 152.1 302.294 152.892 302.294 154.8C302.294 156.708 301.622 157.5 300.65 157.5ZM306.889 155.136C308.113 155.136 308.965 154.248 308.965 152.82C308.965 151.392 308.113 150.504 306.889 150.504C305.665 150.504 304.801 151.404 304.801 152.82C304.801 154.236 305.665 155.136 306.889 155.136ZM306.157 159H307.585L313.321 150.6H311.893L306.157 159ZM306.889 154.152C306.373 154.152 306.013 153.708 306.013 152.82C306.013 151.932 306.373 151.488 306.889 151.488C307.417 151.488 307.765 151.92 307.765 152.82C307.765 153.72 307.417 154.152 306.889 154.152ZM312.589 159.096C313.813 159.096 314.677 158.196 314.677 156.78C314.677 155.364 313.813 154.464 312.589 154.464C311.377 154.464 310.513 155.364 310.513 156.78C310.513 158.196 311.377 159.096 312.589 159.096ZM312.589 158.112C312.073 158.112 311.713 157.68 311.713 156.78C311.713 155.88 312.073 155.448 312.589 155.448C313.117 155.448 313.465 155.892 313.465 156.78C313.465 157.668 313.117 158.112 312.589 158.112Z" fill="white"/>
<rect opacity="0.5" y="138" width="209" height="34" rx="7" fill="#D4DFFA"/>
<path d="M209 145C209 141.134 205.866 138 202 138L7 138C3.134 138 0 141.134 0 145V165C0 168.866 3.134 172 7 172L202 172C205.866 172 209 168.866 209 165V145Z" fill="#435CE7"/>
<path d="M168.002 159V151.32L168.842 152.16H166.322V150.6H169.946V159H168.002ZM174.756 159.144C174.068 159.144 173.452 158.976 172.908 158.64C172.364 158.296 171.936 157.8 171.624 157.152C171.312 156.504 171.156 155.72 171.156 154.8C171.156 153.88 171.312 153.096 171.624 152.448C171.936 151.8 172.364 151.308 172.908 150.972C173.452 150.628 174.068 150.456 174.756 150.456C175.452 150.456 176.068 150.628 176.604 150.972C177.148 151.308 177.576 151.8 177.888 152.448C178.2 153.096 178.356 153.88 178.356 154.8C178.356 155.72 178.2 156.504 177.888 157.152C177.576 157.8 177.148 158.296 176.604 158.64C176.068 158.976 175.452 159.144 174.756 159.144ZM174.756 157.5C175.084 157.5 175.368 157.408 175.608 157.224C175.856 157.04 176.048 156.748 176.184 156.348C176.328 155.948 176.4 155.432 176.4 154.8C176.4 154.168 176.328 153.652 176.184 153.252C176.048 152.852 175.856 152.56 175.608 152.376C175.368 152.192 175.084 152.1 174.756 152.1C174.436 152.1 174.152 152.192 173.904 152.376C173.664 152.56 173.472 152.852 173.328 153.252C173.192 153.652 173.124 154.168 173.124 154.8C173.124 155.432 173.192 155.948 173.328 156.348C173.472 156.748 173.664 157.04 173.904 157.224C174.152 157.408 174.436 157.5 174.756 157.5ZM182.65 159.144C181.962 159.144 181.346 158.976 180.802 158.64C180.258 158.296 179.83 157.8 179.518 157.152C179.206 156.504 179.05 155.72 179.05 154.8C179.05 153.88 179.206 153.096 179.518 152.448C179.83 151.8 180.258 151.308 180.802 150.972C181.346 150.628 181.962 150.456 182.65 150.456C183.346 150.456 183.962 150.628 184.498 150.972C185.042 151.308 185.47 151.8 185.782 152.448C186.094 153.096 186.25 153.88 186.25 154.8C186.25 155.72 186.094 156.504 185.782 157.152C185.47 157.8 185.042 158.296 184.498 158.64C183.962 158.976 183.346 159.144 182.65 159.144ZM182.65 157.5C182.978 157.5 183.262 157.408 183.502 157.224C183.75 157.04 183.942 156.748 184.078 156.348C184.222 155.948 184.294 155.432 184.294 154.8C184.294 154.168 184.222 153.652 184.078 153.252C183.942 152.852 183.75 152.56 183.502 152.376C183.262 152.192 182.978 152.1 182.65 152.1C182.33 152.1 182.046 152.192 181.798 152.376C181.558 152.56 181.366 152.852 181.222 153.252C181.086 153.652 181.018 154.168 181.018 154.8C181.018 155.432 181.086 155.948 181.222 156.348C181.366 156.748 181.558 157.04 181.798 157.224C182.046 157.408 182.33 157.5 182.65 157.5ZM188.157 159L193.893 150.6H195.321L189.585 159H188.157ZM188.889 155.136C188.481 155.136 188.121 155.044 187.809 154.86C187.497 154.668 187.249 154.4 187.065 154.056C186.889 153.704 186.801 153.292 186.801 152.82C186.801 152.348 186.889 151.94 187.065 151.596C187.249 151.252 187.497 150.984 187.809 150.792C188.121 150.6 188.481 150.504 188.889 150.504C189.297 150.504 189.657 150.6 189.969 150.792C190.281 150.984 190.525 151.252 190.701 151.596C190.877 151.94 190.965 152.348 190.965 152.82C190.965 153.292 190.877 153.704 190.701 154.056C190.525 154.4 190.281 154.668 189.969 154.86C189.657 155.044 189.297 155.136 188.889 155.136ZM188.889 154.152C189.153 154.152 189.365 154.044 189.525 153.828C189.685 153.604 189.765 153.268 189.765 152.82C189.765 152.372 189.685 152.04 189.525 151.824C189.365 151.6 189.153 151.488 188.889 151.488C188.633 151.488 188.421 151.6 188.253 151.824C188.093 152.04 188.013 152.372 188.013 152.82C188.013 153.26 188.093 153.592 188.253 153.816C188.421 154.04 188.633 154.152 188.889 154.152ZM194.589 159.096C194.189 159.096 193.829 159.004 193.509 158.82C193.197 158.628 192.953 158.36 192.777 158.016C192.601 157.664 192.513 157.252 192.513 156.78C192.513 156.308 192.601 155.9 192.777 155.556C192.953 155.212 193.197 154.944 193.509 154.752C193.829 154.56 194.189 154.464 194.589 154.464C195.005 154.464 195.369 154.56 195.681 154.752C195.993 154.944 196.237 155.212 196.413 155.556C196.589 155.9 196.677 156.308 196.677 156.78C196.677 157.252 196.589 157.664 196.413 158.016C196.237 158.36 195.993 158.628 195.681 158.82C195.369 159.004 195.005 159.096 194.589 159.096ZM194.589 158.112C194.853 158.112 195.065 158.004 195.225 157.788C195.385 157.564 195.465 157.228 195.465 156.78C195.465 156.34 195.385 156.008 195.225 155.784C195.065 155.56 194.853 155.448 194.589 155.448C194.333 155.448 194.121 155.56 193.953 155.784C193.793 156 193.713 156.332 193.713 156.78C193.713 157.228 193.793 157.564 193.953 157.788C194.121 158.004 194.333 158.112 194.589 158.112Z" fill="white"/>
<path d="M12.444 160V159.184L15.864 155.884C16.168 155.596 16.392 155.344 16.536 155.128C16.688 154.904 16.788 154.7 16.836 154.516C16.892 154.324 16.92 154.14 16.92 153.964C16.92 153.532 16.768 153.192 16.464 152.944C16.16 152.696 15.716 152.572 15.132 152.572C14.684 152.572 14.28 152.648 13.92 152.8C13.56 152.944 13.248 153.172 12.984 153.484L12.168 152.776C12.488 152.368 12.916 152.056 13.452 151.84C13.996 151.616 14.592 151.504 15.24 151.504C15.824 151.504 16.332 151.6 16.764 151.792C17.196 151.976 17.528 152.244 17.76 152.596C18 152.948 18.12 153.364 18.12 153.844C18.12 154.116 18.084 154.384 18.012 154.648C17.94 154.912 17.804 155.192 17.604 155.488C17.404 155.784 17.116 156.116 16.74 156.484L13.692 159.424L13.404 158.956H18.48V160H12.444ZM22.6369 160.096C21.9809 160.096 21.3929 159.928 20.8729 159.592C20.3609 159.256 19.9529 158.768 19.6489 158.128C19.3529 157.488 19.2049 156.712 19.2049 155.8C19.2049 154.888 19.3529 154.112 19.6489 153.472C19.9529 152.832 20.3609 152.344 20.8729 152.008C21.3929 151.672 21.9809 151.504 22.6369 151.504C23.2849 151.504 23.8689 151.672 24.3889 152.008C24.9089 152.344 25.3169 152.832 25.6129 153.472C25.9089 154.112 26.0569 154.888 26.0569 155.8C26.0569 156.712 25.9089 157.488 25.6129 158.128C25.3169 158.768 24.9089 159.256 24.3889 159.592C23.8689 159.928 23.2849 160.096 22.6369 160.096ZM22.6369 159.028C23.0769 159.028 23.4609 158.908 23.7889 158.668C24.1249 158.428 24.3849 158.068 24.5689 157.588C24.7609 157.108 24.8569 156.512 24.8569 155.8C24.8569 155.088 24.7609 154.492 24.5689 154.012C24.3849 153.532 24.1249 153.172 23.7889 152.932C23.4609 152.692 23.0769 152.572 22.6369 152.572C22.1969 152.572 21.8089 152.692 21.4729 152.932C21.1369 153.172 20.8729 153.532 20.6809 154.012C20.4969 154.492 20.4049 155.088 20.4049 155.8C20.4049 156.512 20.4969 157.108 20.6809 157.588C20.8729 158.068 21.1369 158.428 21.4729 158.668C21.8089 158.908 22.1969 159.028 22.6369 159.028ZM29.6708 160.096C29.0788 160.096 28.5028 160.004 27.9428 159.82C27.3908 159.636 26.9388 159.388 26.5868 159.076L27.1388 158.128C27.4188 158.392 27.7828 158.608 28.2308 158.776C28.6788 158.944 29.1548 159.028 29.6588 159.028C30.2988 159.028 30.7908 158.892 31.1348 158.62C31.4788 158.348 31.6508 157.984 31.6508 157.528C31.6508 157.216 31.5748 156.944 31.4228 156.712C31.2708 156.48 31.0068 156.304 30.6308 156.184C30.2628 156.056 29.7548 155.992 29.1068 155.992H27.1988L27.6428 151.6H32.3828V152.644H28.0868L28.7108 152.056L28.3628 155.524L27.7388 154.948H29.3588C30.1988 154.948 30.8748 155.056 31.3868 155.272C31.8988 155.488 32.2708 155.788 32.5028 156.172C32.7348 156.548 32.8508 156.984 32.8508 157.48C32.8508 157.96 32.7348 158.4 32.5028 158.8C32.2708 159.192 31.9188 159.508 31.4468 159.748C30.9828 159.98 30.3908 160.096 29.6708 160.096ZM37.0314 160.096C36.3754 160.096 35.7874 159.928 35.2674 159.592C34.7554 159.256 34.3474 158.768 34.0434 158.128C33.7474 157.488 33.5994 156.712 33.5994 155.8C33.5994 154.888 33.7474 154.112 34.0434 153.472C34.3474 152.832 34.7554 152.344 35.2674 152.008C35.7874 151.672 36.3754 151.504 37.0314 151.504C37.6794 151.504 38.2634 151.672 38.7834 152.008C39.3034 152.344 39.7114 152.832 40.0074 153.472C40.3034 154.112 40.4514 154.888 40.4514 155.8C40.4514 156.712 40.3034 157.488 40.0074 158.128C39.7114 158.768 39.3034 159.256 38.7834 159.592C38.2634 159.928 37.6794 160.096 37.0314 160.096ZM37.0314 159.028C37.4714 159.028 37.8554 158.908 38.1834 158.668C38.5194 158.428 38.7794 158.068 38.9634 157.588C39.1554 157.108 39.2514 156.512 39.2514 155.8C39.2514 155.088 39.1554 154.492 38.9634 154.012C38.7794 153.532 38.5194 153.172 38.1834 152.932C37.8554 152.692 37.4714 152.572 37.0314 152.572C36.5914 152.572 36.2034 152.692 35.8674 152.932C35.5314 153.172 35.2674 153.532 35.0754 154.012C34.8914 154.492 34.7994 155.088 34.7994 155.8C34.7994 156.512 34.8914 157.108 35.0754 157.588C35.2674 158.068 35.5314 158.428 35.8674 158.668C36.2034 158.908 36.5914 159.028 37.0314 159.028ZM44.4133 157.216V155.092H46.8253V157.216H44.4133ZM52.1893 157.216H47.9773V155.092H51.3253V154.048H47.9773V152.392H51.6013V151.312H44.6533C44.8093 150.952 44.9773 150.556 45.1213 150.184L43.9933 149.884C43.4413 151.48 42.4813 153.004 41.3773 153.952C41.6533 154.12 42.1333 154.48 42.3493 154.672C42.9613 154.072 43.5613 153.28 44.0773 152.392H46.8253V154.048H43.2973V157.216H41.3653V158.296H46.8253V160.948H47.9773V158.296H52.1893V157.216Z" fill="white"/>
<path d="M4.52539 217.075H10.124V222.089H5.52832V222.991H4.52539V217.075ZM3.11621 214.231H15.6592V215.196H13.5518V223.791C13.5518 224.933 12.9974 225.509 11.8887 225.517C11.0931 225.517 10.3187 225.513 9.56543 225.504C9.52311 225.115 9.4554 224.73 9.3623 224.349C10.3187 224.417 11.0465 224.451 11.5459 224.451C12.1722 224.451 12.4854 224.112 12.4854 223.435V215.196H3.11621V214.231ZM9.12109 217.976H5.52832V221.188H9.12109V217.976ZM18.5195 225.631H17.5166V222.077H15.9043V221.201H17.5166V216.237H21.6299V214.815H16.3105V213.939H27.9521V214.815H22.6201V216.237H26.7588V221.201H28.4219V222.077H26.7588V224.083C26.7588 225.014 26.3187 225.483 25.4385 225.492C24.8968 225.5 24.2028 225.5 23.3564 225.492C23.3057 225.204 23.2422 224.882 23.166 224.527C23.86 224.578 24.4609 224.603 24.9688 224.603C25.485 224.62 25.7432 224.4 25.7432 223.943V222.077H18.5195V225.631ZM22.6201 221.201H25.7432V219.538H22.6201V221.201ZM18.5195 221.201H21.6299V219.538H18.5195V221.201ZM25.7432 217.062H22.6201V218.712H25.7432V217.062ZM18.5195 218.712H21.6299V217.062H18.5195V218.712ZM28.6289 223.968H34.5195V220.731H30.0254V219.753H34.5195V216.821H31.168C30.6051 217.836 29.9577 218.755 29.2256 219.576C29.0479 219.296 28.8193 219 28.54 218.687C29.7334 217.35 30.6771 215.716 31.3711 213.787L32.4121 214.066C32.1878 214.684 31.9403 215.276 31.6694 215.843H34.5195V213.152H35.6113V215.843H40.4609V216.821H35.6113V219.753H40.1055V220.731H35.6113V223.968H41.1465V224.92H28.6289V223.968ZM43.0547 225.542H42.0645V218.052H47.2188V224.057C47.2188 224.971 46.7956 225.428 45.9492 225.428C45.5768 225.437 45.0986 225.441 44.5146 225.441C44.4723 225.179 44.4089 224.857 44.3242 224.476C44.8574 224.518 45.2848 224.54 45.6064 224.54C46.0212 224.54 46.2285 224.324 46.2285 223.892V222.838H43.0547V225.542ZM48.4502 219.423H49.4404V221.518C50.6423 221.069 51.8991 220.481 53.2109 219.753L53.7822 220.629C52.3984 221.357 50.9512 222.003 49.4404 222.565V223.664C49.4404 224.197 49.6478 224.463 50.0625 224.463H51.9287C52.3604 224.463 52.61 224.256 52.6777 223.841C52.737 223.469 52.7878 222.915 52.8301 222.178C53.1517 222.305 53.4818 222.424 53.8203 222.534C53.7526 223.278 53.6807 223.841 53.6045 224.222C53.4945 224.967 52.9655 225.339 52.0176 225.339H49.8975C48.9326 225.339 48.4502 224.844 48.4502 223.854V219.423ZM48.4756 213.228H49.4658V215.405C50.6296 214.944 51.7848 214.388 52.9316 213.736L53.5029 214.612C52.1826 215.28 50.8369 215.892 49.4658 216.446V217.176C49.4658 217.743 49.6901 218.027 50.1387 218.027H51.751C52.2842 218.027 52.5846 217.807 52.6523 217.367C52.7116 217.003 52.7624 216.474 52.8047 215.78C53.1263 215.907 53.4564 216.029 53.7949 216.148C53.7272 216.825 53.6553 217.375 53.5791 217.798C53.4521 218.535 52.8809 218.903 51.8652 218.903H50.0117C48.9876 218.903 48.4756 218.395 48.4756 217.379V213.228ZM46.127 214.307C46.8971 215.306 47.5658 216.266 48.1328 217.189C47.8112 217.409 47.5192 217.604 47.2568 217.773C47.0918 217.481 46.9162 217.183 46.73 216.878C44.6606 217.03 43.0039 217.168 41.7598 217.291L41.3535 216.224C41.7259 216.021 42.1364 215.64 42.585 215.082C43.0505 214.472 43.5075 213.791 43.9561 213.038L44.959 213.406C44.2565 214.421 43.516 215.382 42.7373 216.288C44.0068 216.207 45.16 216.125 46.1968 216.04C45.9302 215.638 45.6445 215.225 45.3398 214.802L46.127 214.307ZM43.0547 222.077H46.2285V220.845H43.0547V222.077ZM46.2285 218.865H43.0547V220.083H46.2285V218.865ZM59.8291 216.402H61.4795C61.6615 215.924 61.8392 215.424 62.0127 214.904H58.8008V218.56C58.8008 221.886 58.1491 224.269 56.8457 225.708C56.6426 225.445 56.3971 225.183 56.1094 224.92C57.2773 223.617 57.8613 221.501 57.8613 218.573V214.041H66.6719V214.904H63.1108C62.8781 215.412 62.639 215.911 62.3936 216.402H65.7451V221.607H64.8311V221.277H63.1934V224.26C63.1934 225.166 62.7533 225.619 61.873 225.619C61.5853 225.619 61.2171 225.614 60.7686 225.606C60.7262 225.352 60.667 225.06 60.5908 224.73C61.014 224.764 61.3822 224.781 61.6953 224.781C62.0846 224.781 62.2793 224.578 62.2793 224.171V221.277H60.7432V221.607H59.8291V216.402ZM55.5635 220.185C55.8682 220.38 56.1686 220.524 56.4648 220.617C56.1178 222.056 55.7285 223.702 55.2969 225.555L54.3193 225.225C54.8102 223.49 55.2249 221.81 55.5635 220.185ZM60.7432 220.439H64.8311V219.233H60.7432V220.439ZM64.8311 217.24H60.7432V218.42H64.8311V217.24ZM66.6465 224.489L65.8467 225.098C65.2458 224.193 64.5941 223.312 63.8916 222.458L64.6279 221.937C65.3981 222.834 66.071 223.685 66.6465 224.489ZM58.6738 224.603C59.3932 223.833 60.0322 222.965 60.5908 222L61.4033 222.496C60.7601 223.52 60.0999 224.417 59.4229 225.187L58.6738 224.603ZM54.6875 216.643C55.3477 217.117 56.0924 217.684 56.9219 218.344C56.6257 218.7 56.3844 218.975 56.1982 219.169C55.3857 218.45 54.6706 217.849 54.0527 217.367L54.6875 216.643ZM55.2334 213.38C55.902 213.88 56.5918 214.451 57.3027 215.094C57.0065 215.382 56.7526 215.64 56.541 215.869C55.8047 215.141 55.153 214.544 54.5859 214.079L55.2334 213.38ZM72.9727 222.813L73.5439 222.051C74.2464 222.491 74.9404 222.936 75.626 223.384L77.5938 221.099H73.2139V220.223C73.3747 219.711 73.5355 219.165 73.6963 218.585H72.249V217.722H73.9375C74.0771 217.189 74.2189 216.63 74.3628 216.046H72.8457V215.183H74.5723C74.7204 214.561 74.8685 213.914 75.0166 213.241H75.9941C75.8503 213.905 75.7021 214.553 75.5498 215.183H78.9648V216.046H75.3467C75.2028 216.622 75.061 217.181 74.9214 217.722H79.4219V218.585H74.6865C74.5299 219.153 74.3734 219.703 74.2168 220.236H78.8252V221.137L76.4131 223.898C76.9167 224.233 77.416 224.569 77.9111 224.908L77.251 225.746C75.8799 224.722 74.4538 223.744 72.9727 222.813ZM68.1357 219.322H69.6846V216.821H70.624V219.322H72.3379V220.185H70.624V221.899C71.263 221.81 71.9232 221.717 72.6045 221.62C72.5706 221.916 72.541 222.221 72.5156 222.534C71.8809 222.627 71.2503 222.72 70.624 222.813V225.708H69.6846V222.953C68.762 223.092 67.8438 223.232 66.9297 223.372L66.79 222.394C67.7041 222.284 68.6689 222.161 69.6846 222.026V220.185H67.082V219.334C67.5264 218.391 67.9453 217.291 68.3389 216.034H66.9424V215.17H68.5991C68.7853 214.531 68.9652 213.854 69.1387 213.139L70.1797 213.342C69.9893 213.964 69.7967 214.574 69.6021 215.17H72.3379V216.034H69.3164C68.9355 217.168 68.542 218.264 68.1357 219.322ZM83.1455 220.947H84.25V217.513C84.0426 217.348 83.7972 217.159 83.5137 216.948C84.6309 215.788 85.5195 214.514 86.1797 213.126L87.208 213.304C87.0049 213.71 86.7891 214.104 86.5605 214.485H90.3945V215.335C90.0729 215.737 89.5736 216.33 88.8965 217.113H91.1689V220.947H92.1973V221.823H88.2554C88.9282 223.291 90.221 224.222 92.1338 224.616C91.8206 224.988 91.5667 225.331 91.3721 225.644C89.6286 225.06 88.395 224.006 87.6714 222.483C87.2017 223.795 85.7904 224.882 83.4375 225.746C83.2513 225.441 83.0143 225.132 82.7266 224.819C85.1641 224.099 86.5627 223.101 86.9224 221.823H83.1455V220.947ZM79.5527 219.931C80.0563 219.783 80.5895 219.616 81.1523 219.43V216.491H79.667V215.627H81.1523V213.266H82.1172V215.627H83.5518V216.491H82.1172V219.093C82.5404 218.945 82.9805 218.784 83.4375 218.611C83.446 219.026 83.4544 219.36 83.4629 219.614C83.3867 219.639 82.9382 219.804 82.1172 220.109V224.197C82.1172 225.06 81.7279 225.509 80.9492 225.542C80.5768 225.559 80.1579 225.564 79.6924 225.555C79.6416 225.2 79.5866 224.848 79.5273 224.501C79.9928 224.552 80.3822 224.578 80.6953 224.578C81 224.578 81.1523 224.4 81.1523 224.044V220.458C80.7292 220.615 80.2425 220.794 79.6924 220.998L79.5527 219.931ZM90.2676 217.989H88.1348C88.1348 219.064 88.1073 220.05 88.0522 220.947H90.2676V217.989ZM85.1514 220.947H87.1318C87.208 220.524 87.2419 219.538 87.2334 217.989H85.1514V220.947ZM89.2266 215.361H86.0083C85.5894 215.979 85.1387 216.563 84.6562 217.113H87.8047C88.3802 216.423 88.8542 215.839 89.2266 215.361ZM95.1719 224.616H94.1816V220.02H98.1299V218.839H99.1455V220.02H103.106V223.308C103.106 224.087 102.679 224.476 101.824 224.476C101.52 224.476 100.965 224.472 100.161 224.463C100.119 224.193 100.055 223.875 99.9707 223.511C100.741 223.562 101.257 223.587 101.52 223.587C101.917 223.587 102.116 223.41 102.116 223.054V220.909H99.1455V225.708H98.1299V220.909H95.1719V224.616ZM92.3789 214.79H94.9941V213.241H95.9463V214.79H98.1299V213.241H99.082V214.79H101.278V213.241H102.23V214.79H104.846V215.678H102.23V217.075H101.278V215.678H99.082V217.075H98.1299V215.678H95.9463V217.075H94.9941V215.678H92.3789V214.79ZM92.8105 217.583H104.452V219.893H103.462V218.471H93.8008V219.893H92.8105V217.583ZM117.723 223.714C117.443 224.07 117.206 224.391 117.012 224.679C114.803 223.681 113.085 222.405 111.857 220.852V225.708H110.893V220.782C109.657 222.229 107.93 223.579 105.713 224.832C105.535 224.578 105.307 224.286 105.027 223.956C107.236 222.847 109.086 221.56 110.575 220.096H105.243V219.208H110.893V215.869H105.992V214.98H110.893V213.152H111.857V214.98H116.859V215.869H111.857V219.208H117.52V220.096H112.118C113.51 221.645 115.378 222.851 117.723 223.714ZM113.114 218.382C113.893 217.553 114.498 216.833 114.93 216.224L115.806 216.897C115.171 217.65 114.519 218.357 113.851 219.017L113.114 218.382ZM107.059 216.872L107.795 216.275C108.421 216.893 109.014 217.553 109.572 218.255L108.734 218.954C108.303 218.361 107.744 217.667 107.059 216.872ZM118.349 215.297H119.631C119.944 214.527 120.202 213.825 120.405 213.19L121.472 213.495C121.205 214.142 120.947 214.743 120.697 215.297H123.236V225.403H122.221V224.413H119.364V225.492H118.349V215.297ZM123.427 217.9C124.222 216.639 124.895 215.069 125.445 213.19L126.512 213.457C126.296 214.096 126.076 214.696 125.852 215.259H129.939C129.838 219.61 129.753 222.347 129.686 223.473C129.626 224.802 128.928 225.466 127.591 225.466C126.821 225.466 126.038 225.441 125.242 225.39C125.191 224.967 125.124 224.59 125.039 224.26H125.077C125.924 224.379 126.698 224.438 127.4 224.438C128.171 224.438 128.585 224.032 128.645 223.219C128.738 221.958 128.805 219.622 128.848 216.211H125.445C125.077 217.028 124.696 217.748 124.303 218.37C124.074 218.209 123.782 218.052 123.427 217.9ZM119.364 223.46H122.221V220.249H119.364V223.46ZM122.221 216.25H119.364V219.334H122.221V216.25ZM124.544 218.763L125.318 218.192C126.258 219.301 127.007 220.261 127.565 221.074L126.626 221.734C126.025 220.752 125.331 219.762 124.544 218.763ZM133.079 224.222H134.323V220.083H142.258V224.222H143.197V225.136H133.079V224.222ZM134.806 213.837H141.763V219.373H140.823V218.814H135.745V219.385H134.806V213.837ZM135.745 217.951H140.823V216.745H135.745V217.951ZM140.823 214.701H135.745V215.907H140.823V214.701ZM132.152 220.325C132.499 220.46 132.846 220.587 133.193 220.706C132.838 222.178 132.449 223.812 132.025 225.606L130.908 225.276C131.382 223.769 131.797 222.119 132.152 220.325ZM141.293 220.972H139.909V224.222H141.293V220.972ZM137.599 224.222H138.97V220.972H137.599V224.222ZM135.288 224.222H136.659V220.972H135.288V224.222ZM131.188 216.643C131.822 217.092 132.567 217.667 133.422 218.37C133.109 218.725 132.863 219 132.686 219.195C131.729 218.34 131.018 217.735 130.553 217.379L131.188 216.643ZM131.67 213.355C132.313 213.863 133.041 214.481 133.854 215.208C133.566 215.505 133.316 215.767 133.104 215.996C132.19 215.107 131.496 214.459 131.022 214.053L131.67 213.355ZM143.392 224.298H149.117V222.813H144.56V221.937H149.117V220.471C148.224 220.509 147.361 220.549 146.527 220.591C146.104 220.617 145.681 220.672 145.258 220.756L144.826 219.703C145.148 219.576 145.491 219.394 145.854 219.157C146.451 218.746 146.999 218.332 147.499 217.913H145.194V217.037H154.157V217.913H148.99C148.313 218.463 147.535 219.047 146.654 219.665C148.491 219.601 150.323 219.533 152.151 219.461C151.881 219.216 151.597 218.966 151.301 218.712L151.999 218.078C153.065 218.916 153.992 219.703 154.779 220.439L153.954 221.213C153.688 220.93 153.402 220.638 153.097 220.337C152.082 220.363 151.098 220.395 150.146 220.433V221.937H154.716V222.813H150.146V224.298H155.884V225.174H143.392V224.298ZM143.849 214.853H149.409C149.172 214.396 148.906 213.943 148.609 213.495L149.511 213.063C149.824 213.528 150.129 214.024 150.425 214.548L149.796 214.853H155.452V217.151H154.437V215.729H144.864V217.151H143.849V214.853ZM157.373 219.614V218.725H166.387V220.058C166.387 222.089 166.615 223.524 167.072 224.362C167.275 224.675 167.432 224.641 167.542 224.26C167.66 223.659 167.745 222.915 167.796 222.026C168.101 222.136 168.405 222.225 168.71 222.292C168.685 222.944 168.596 223.659 168.443 224.438C168.249 225.267 167.855 225.682 167.263 225.682C166.797 225.682 166.429 225.407 166.158 224.857C165.633 223.841 165.371 222.259 165.371 220.109V219.614H157.373ZM156.053 218.255C157.271 216.732 158.181 215.022 158.782 213.126L159.811 213.431C159.671 213.829 159.525 214.214 159.373 214.586H168.037V215.475H158.979C158.285 216.952 157.445 218.264 156.459 219.411C156.307 218.928 156.171 218.543 156.053 218.255ZM158.795 216.668H167.072V217.532H158.795V216.668ZM181.523 222.419C181.236 222.766 180.986 223.08 180.774 223.359C179.082 222.056 177.838 219.851 177.042 216.745V222.102H178.908V223.016H177.042V225.669H176.103V223.016H174.236V222.102H176.103V216.745H176.071C175.284 219.669 173.987 221.941 172.18 223.562C171.985 223.317 171.761 223.05 171.507 222.762C173.14 221.268 174.363 219.263 175.176 216.745H172.192V215.831H176.103V213.241H177.042V215.831H181.092V216.745H177.861C178.669 219.377 179.89 221.268 181.523 222.419ZM168.739 219.334C169.966 217.54 170.881 215.496 171.481 213.203L172.446 213.482C172.116 214.561 171.744 215.575 171.329 216.522V225.657H170.39V218.433C170.009 219.123 169.603 219.77 169.171 220.375C169.044 220.028 168.9 219.681 168.739 219.334ZM188.294 224.984C189.238 224.214 190.065 223.291 190.776 222.216C190.442 220.879 190.251 218.852 190.205 216.135H185.983V219.373C185.983 221.962 185.382 224.053 184.181 225.644C183.868 225.314 183.609 225.081 183.406 224.946C184.532 223.524 185.095 221.649 185.095 219.322V215.272H190.186C190.177 214.591 190.173 213.926 190.173 213.279H191.1C191.1 213.922 191.102 214.586 191.106 215.272H194.172V216.135H191.112C191.129 218.179 191.25 219.817 191.474 221.048C192.058 219.961 192.543 218.742 192.928 217.392L193.842 217.709C193.271 219.474 192.583 221.021 191.779 222.35C191.995 223.111 192.242 223.693 192.521 224.095C192.792 224.425 192.979 224.358 193.08 223.892C193.173 223.393 193.254 222.783 193.321 222.064C193.719 222.208 194.032 222.314 194.261 222.381C194.142 223.278 194.011 224.019 193.867 224.603C193.681 225.272 193.376 225.602 192.953 225.593C192.589 225.602 192.246 225.394 191.925 224.971C191.607 224.497 191.339 223.96 191.119 223.359C190.509 224.209 189.843 224.954 189.119 225.593C188.857 225.365 188.582 225.162 188.294 224.984ZM186.771 219.233H189.64V222.965H187.608V223.752H186.771V219.233ZM181.642 223.968C182.166 222.555 182.704 220.799 183.254 218.7C183.576 218.852 183.889 218.987 184.193 219.106C183.812 220.469 183.305 222.204 182.67 224.311L181.642 223.968ZM181.87 214.777L182.657 214.231C183.25 214.917 183.842 215.649 184.435 216.427L183.559 217.062C182.865 216.063 182.302 215.302 181.87 214.777ZM188.802 222.178V220.02H187.608V222.178H188.802ZM186.542 217.265H189.678V218.078H186.542V217.265ZM191.633 213.761L192.28 213.253C192.703 213.677 193.105 214.1 193.486 214.523L192.763 215.094C192.416 214.654 192.039 214.21 191.633 213.761ZM203.012 213.215H204.002V215.551H206.693V216.516H204.002V218.7H206.389V219.665H204.002V221.874H206.909V222.838H204.002V225.708H203.012V213.215ZM197.87 221.874H200.498V219.665H198.492V218.7H200.498V216.516H198.518V215.551H200.498V213.215H201.488V225.708H200.498V222.838H197.87V221.874ZM194.392 215.539H195.902V213.203H196.867V215.539H198.124V216.427H196.867V218.795C197.273 218.588 197.671 218.378 198.061 218.167C198.086 218.53 198.12 218.869 198.162 219.182C197.747 219.394 197.316 219.616 196.867 219.849V224.273C196.867 225.136 196.406 225.572 195.483 225.581C195.229 225.589 194.882 225.589 194.442 225.581C194.409 225.242 194.354 224.891 194.277 224.527C194.743 224.561 195.107 224.578 195.369 224.578C195.725 224.578 195.902 224.383 195.902 223.994V220.35C195.428 220.596 194.938 220.854 194.43 221.125L194.303 220.007C194.849 219.766 195.382 219.521 195.902 219.271V216.427H194.392V215.539Z" fill="#666666"/>
<path d="M228.9 217.075H234.499V222.089H229.903V222.991H228.9V217.075ZM227.491 214.231H240.034V215.196H237.927V223.791C237.927 224.933 237.372 225.509 236.264 225.517C235.468 225.517 234.694 225.513 233.94 225.504C233.898 225.115 233.83 224.73 233.737 224.349C234.694 224.417 235.422 224.451 235.921 224.451C236.547 224.451 236.86 224.112 236.86 223.435V215.196H227.491V214.231ZM233.496 217.976H229.903V221.188H233.496V217.976ZM242.895 225.631H241.892V222.077H240.279V221.201H241.892V216.237H246.005V214.815H240.686V213.939H252.327V214.815H246.995V216.237H251.134V221.201H252.797V222.077H251.134V224.083C251.134 225.014 250.694 225.483 249.813 225.492C249.272 225.5 248.578 225.5 247.731 225.492C247.681 225.204 247.617 224.882 247.541 224.527C248.235 224.578 248.836 224.603 249.344 224.603C249.86 224.62 250.118 224.4 250.118 223.943V222.077H242.895V225.631ZM246.995 221.201H250.118V219.538H246.995V221.201ZM242.895 221.201H246.005V219.538H242.895V221.201ZM250.118 217.062H246.995V218.712H250.118V217.062ZM242.895 218.712H246.005V217.062H242.895V218.712ZM253.004 223.968H258.895V220.731H254.4V219.753H258.895V216.821H255.543C254.98 217.836 254.333 218.755 253.601 219.576C253.423 219.296 253.194 219 252.915 218.687C254.108 217.35 255.052 215.716 255.746 213.787L256.787 214.066C256.563 214.684 256.315 215.276 256.044 215.843H258.895V213.152H259.986V215.843H264.836V216.821H259.986V219.753H264.48V220.731H259.986V223.968H265.521V224.92H253.004V223.968ZM267.43 225.542H266.439V218.052H271.594V224.057C271.594 224.971 271.171 225.428 270.324 225.428C269.952 225.437 269.474 225.441 268.89 225.441C268.847 225.179 268.784 224.857 268.699 224.476C269.232 224.518 269.66 224.54 269.981 224.54C270.396 224.54 270.604 224.324 270.604 223.892V222.838H267.43V225.542ZM272.825 219.423H273.815V221.518C275.017 221.069 276.274 220.481 277.586 219.753L278.157 220.629C276.773 221.357 275.326 222.003 273.815 222.565V223.664C273.815 224.197 274.023 224.463 274.438 224.463H276.304C276.735 224.463 276.985 224.256 277.053 223.841C277.112 223.469 277.163 222.915 277.205 222.178C277.527 222.305 277.857 222.424 278.195 222.534C278.128 223.278 278.056 223.841 277.979 224.222C277.869 224.967 277.34 225.339 276.393 225.339H274.272C273.308 225.339 272.825 224.844 272.825 223.854V219.423ZM272.851 213.228H273.841V215.405C275.005 214.944 276.16 214.388 277.307 213.736L277.878 214.612C276.558 215.28 275.212 215.892 273.841 216.446V217.176C273.841 217.743 274.065 218.027 274.514 218.027H276.126C276.659 218.027 276.96 217.807 277.027 217.367C277.087 217.003 277.137 216.474 277.18 215.78C277.501 215.907 277.831 216.029 278.17 216.148C278.102 216.825 278.03 217.375 277.954 217.798C277.827 218.535 277.256 218.903 276.24 218.903H274.387C273.363 218.903 272.851 218.395 272.851 217.379V213.228ZM270.502 214.307C271.272 215.306 271.941 216.266 272.508 217.189C272.186 217.409 271.894 217.604 271.632 217.773C271.467 217.481 271.291 217.183 271.105 216.878C269.036 217.03 267.379 217.168 266.135 217.291L265.729 216.224C266.101 216.021 266.511 215.64 266.96 215.082C267.425 214.472 267.882 213.791 268.331 213.038L269.334 213.406C268.632 214.421 267.891 215.382 267.112 216.288C268.382 216.207 269.535 216.125 270.572 216.04C270.305 215.638 270.02 215.225 269.715 214.802L270.502 214.307ZM267.43 222.077H270.604V220.845H267.43V222.077ZM270.604 218.865H267.43V220.083H270.604V218.865ZM284.204 216.402H285.854C286.036 215.924 286.214 215.424 286.388 214.904H283.176V218.56C283.176 221.886 282.524 224.269 281.221 225.708C281.018 225.445 280.772 225.183 280.484 224.92C281.652 223.617 282.236 221.501 282.236 218.573V214.041H291.047V214.904H287.486C287.253 215.412 287.014 215.911 286.769 216.402H290.12V221.607H289.206V221.277H287.568V224.26C287.568 225.166 287.128 225.619 286.248 225.619C285.96 225.619 285.592 225.614 285.144 225.606C285.101 225.352 285.042 225.06 284.966 224.73C285.389 224.764 285.757 224.781 286.07 224.781C286.46 224.781 286.654 224.578 286.654 224.171V221.277H285.118V221.607H284.204V216.402ZM279.938 220.185C280.243 220.38 280.544 220.524 280.84 220.617C280.493 222.056 280.104 223.702 279.672 225.555L278.694 225.225C279.185 223.49 279.6 221.81 279.938 220.185ZM285.118 220.439H289.206V219.233H285.118V220.439ZM289.206 217.24H285.118V218.42H289.206V217.24ZM291.021 224.489L290.222 225.098C289.621 224.193 288.969 223.312 288.267 222.458L289.003 221.937C289.773 222.834 290.446 223.685 291.021 224.489ZM283.049 224.603C283.768 223.833 284.407 222.965 284.966 222L285.778 222.496C285.135 223.52 284.475 224.417 283.798 225.187L283.049 224.603ZM279.062 216.643C279.723 217.117 280.467 217.684 281.297 218.344C281.001 218.7 280.759 218.975 280.573 219.169C279.761 218.45 279.046 217.849 278.428 217.367L279.062 216.643ZM279.608 213.38C280.277 213.88 280.967 214.451 281.678 215.094C281.382 215.382 281.128 215.64 280.916 215.869C280.18 215.141 279.528 214.544 278.961 214.079L279.608 213.38ZM297.348 222.813L297.919 222.051C298.621 222.491 299.315 222.936 300.001 223.384L301.969 221.099H297.589V220.223C297.75 219.711 297.91 219.165 298.071 218.585H296.624V217.722H298.312C298.452 217.189 298.594 216.63 298.738 216.046H297.221V215.183H298.947C299.095 214.561 299.243 213.914 299.392 213.241H300.369C300.225 213.905 300.077 214.553 299.925 215.183H303.34V216.046H299.722C299.578 216.622 299.436 217.181 299.296 217.722H303.797V218.585H299.062C298.905 219.153 298.748 219.703 298.592 220.236H303.2V221.137L300.788 223.898C301.292 224.233 301.791 224.569 302.286 224.908L301.626 225.746C300.255 224.722 298.829 223.744 297.348 222.813ZM292.511 219.322H294.06V216.821H294.999V219.322H296.713V220.185H294.999V221.899C295.638 221.81 296.298 221.717 296.979 221.62C296.946 221.916 296.916 222.221 296.891 222.534C296.256 222.627 295.625 222.72 294.999 222.813V225.708H294.06V222.953C293.137 223.092 292.219 223.232 291.305 223.372L291.165 222.394C292.079 222.284 293.044 222.161 294.06 222.026V220.185H291.457V219.334C291.901 218.391 292.32 217.291 292.714 216.034H291.317V215.17H292.974C293.16 214.531 293.34 213.854 293.514 213.139L294.555 213.342C294.364 213.964 294.172 214.574 293.977 215.17H296.713V216.034H293.691C293.311 217.168 292.917 218.264 292.511 219.322ZM307.521 220.947H308.625V217.513C308.418 217.348 308.172 217.159 307.889 216.948C309.006 215.788 309.895 214.514 310.555 213.126L311.583 213.304C311.38 213.71 311.164 214.104 310.936 214.485H314.77V215.335C314.448 215.737 313.949 216.33 313.271 217.113H315.544V220.947H316.572V221.823H312.63C313.303 223.291 314.596 224.222 316.509 224.616C316.196 224.988 315.942 225.331 315.747 225.644C314.004 225.06 312.77 224.006 312.046 222.483C311.577 223.795 310.165 224.882 307.812 225.746C307.626 225.441 307.389 225.132 307.102 224.819C309.539 224.099 310.938 223.101 311.297 221.823H307.521V220.947ZM303.928 219.931C304.431 219.783 304.965 219.616 305.527 219.43V216.491H304.042V215.627H305.527V213.266H306.492V215.627H307.927V216.491H306.492V219.093C306.915 218.945 307.355 218.784 307.812 218.611C307.821 219.026 307.829 219.36 307.838 219.614C307.762 219.639 307.313 219.804 306.492 220.109V224.197C306.492 225.06 306.103 225.509 305.324 225.542C304.952 225.559 304.533 225.564 304.067 225.555C304.017 225.2 303.962 224.848 303.902 224.501C304.368 224.552 304.757 224.578 305.07 224.578C305.375 224.578 305.527 224.4 305.527 224.044V220.458C305.104 220.615 304.618 220.794 304.067 220.998L303.928 219.931ZM314.643 217.989H312.51C312.51 219.064 312.482 220.05 312.427 220.947H314.643V217.989ZM309.526 220.947H311.507C311.583 220.524 311.617 219.538 311.608 217.989H309.526V220.947ZM313.602 215.361H310.383C309.964 215.979 309.514 216.563 309.031 217.113H312.18C312.755 216.423 313.229 215.839 313.602 215.361Z" fill="#666666"/>
</svg>
