<svg width="1201" height="153" viewBox="0 0 1201 153" fill="none" xmlns="http://www.w3.org/2000/svg">
<path d="M1037 75.0001L106 75" stroke="#7094F0" stroke-linecap="round" stroke-linejoin="round" stroke-dasharray="2 4"/>
<path d="M1039.14 74.2474L1033.66 69.4512C1033.01 68.8854 1032 69.3446 1032 70.2038L1032 79.7962C1032 80.6554 1033.01 81.1146 1033.66 80.5488L1039.14 75.7526C1039.6 75.3542 1039.6 74.6458 1039.14 74.2474Z" fill="#7094F0"/>
<rect x="1048" width="153" height="153" rx="10" fill="#435CE7"/>
<path d="M1099.91 51.584H1103.13V50.224L1095.03 50.224V51.584H1098.25V52.96C1098.25 55.44 1096.76 58.128 1094.52 59.168L1095.46 60.48C1097.16 59.664 1098.45 57.952 1099.09 55.936C1099.77 57.808 1101.06 59.376 1102.74 60.112L1103.65 58.816C1101.4 57.856 1099.91 55.36 1099.91 52.96V51.584ZM1104.81 48.784V63.232H1106.47V48.784H1104.81ZM1121.35 53.376C1118.46 52.992 1116.41 51.392 1116.41 49.568V49.024H1114.71V49.568C1114.71 51.36 1112.62 52.992 1109.77 53.376L1110.38 54.656C1112.71 54.304 1114.63 53.2 1115.55 51.664C1116.47 53.216 1118.41 54.288 1120.73 54.656L1121.35 53.376ZM1110.49 59.824H1118.86V63.248H1120.51V58.496H1110.49V59.824ZM1116.38 55.92V53.872H1114.73V55.92H1109.03V57.248H1122.14V55.92H1116.38ZM1127.57 50.304V51.648H1132.62C1132.29 54.976 1130.38 57.52 1126.85 59.328L1127.76 60.592C1132.48 58.208 1134.27 54.496 1134.27 50.304H1127.57ZM1140.24 54.48H1138.05V48.768H1136.4V63.216H1138.05V55.856H1140.24V54.48ZM1152.92 52.624H1144.69V49.056H1143.04V53.952H1152.92V52.624ZM1147.83 61.92C1145.72 61.92 1144.53 61.424 1144.53 60.544C1144.53 59.632 1145.72 59.168 1147.83 59.168C1149.94 59.168 1151.14 59.632 1151.14 60.544C1151.14 61.424 1149.94 61.92 1147.83 61.92ZM1147.83 57.872C1144.74 57.872 1142.85 58.848 1142.85 60.544C1142.85 62.224 1144.74 63.2 1147.83 63.2C1150.93 63.2 1152.8 62.224 1152.8 60.544C1152.8 58.848 1150.93 57.872 1147.83 57.872ZM1141.33 55.408V56.752L1154.4 56.752V55.408L1141.33 55.408ZM1099.34 74.608V76.272H1095.84V77.616H1099.34V79.28H1100.99V70.784H1099.34V73.264H1096.36C1096.44 72.816 1096.49 72.336 1096.49 71.824H1089.93V73.152H1094.73C1094.44 75.408 1092.57 77.184 1089.18 78.128L1089.84 79.44C1092.96 78.528 1095.08 76.912 1095.98 74.608H1099.34ZM1096.25 83.872C1094.3 83.872 1093.07 83.312 1093.07 82.304C1093.07 81.312 1094.3 80.752 1096.25 80.752C1098.22 80.752 1099.45 81.312 1099.45 82.304C1099.45 83.312 1098.22 83.872 1096.25 83.872ZM1096.25 79.456C1093.32 79.456 1091.44 80.544 1091.44 82.304C1091.44 84.08 1093.32 85.168 1096.25 85.168C1099.18 85.168 1101.08 84.08 1101.08 82.304C1101.08 80.544 1099.18 79.456 1096.25 79.456ZM1105.25 75.088C1105.25 73.824 1106.18 72.992 1107.46 72.992C1108.7 72.992 1109.63 73.824 1109.63 75.088C1109.63 76.336 1108.7 77.168 1107.46 77.168C1106.18 77.168 1105.25 76.336 1105.25 75.088ZM1113.81 74.112V76.064H1111.06C1111.15 75.76 1111.2 75.44 1111.2 75.088C1111.2 74.736 1111.15 74.416 1111.07 74.112H1113.81ZM1113.81 77.392V79.296H1115.46V70.768H1113.81V72.768H1110.32C1109.65 72.048 1108.64 71.6 1107.46 71.6C1105.3 71.6 1103.68 73.04 1103.68 75.088C1103.68 77.12 1105.3 78.56 1107.46 78.56C1108.62 78.56 1109.65 78.128 1110.32 77.392H1113.81ZM1110.64 83.936C1108.59 83.936 1107.39 83.408 1107.39 82.416C1107.39 81.456 1108.59 80.912 1110.64 80.912C1112.7 80.912 1113.89 81.456 1113.89 82.416C1113.89 83.408 1112.7 83.936 1110.64 83.936ZM1110.64 79.616C1107.63 79.616 1105.78 80.656 1105.78 82.416C1105.78 84.192 1107.63 85.232 1110.64 85.232C1113.65 85.232 1115.52 84.192 1115.52 82.416C1115.52 80.656 1113.65 79.616 1110.64 79.616ZM1123.01 71.984H1121.36V74.352C1121.36 77.024 1119.96 79.76 1117.7 80.864L1118.71 82.192C1120.36 81.344 1121.57 79.664 1122.2 77.664C1122.82 79.552 1123.97 81.12 1125.52 81.92L1126.53 80.608C1124.36 79.536 1123.01 76.928 1123.01 74.352V71.984ZM1131.4 76.512H1129.14V70.784H1127.49V85.232H1129.14V77.872H1131.4V76.512ZM1142.25 75.936H1135.64V72.864H1142.25V75.936ZM1143.88 71.552H1134.01V77.264H1143.88V71.552ZM1145.51 79.04H1132.41V80.368H1138.09V85.232H1139.74V80.368H1145.51V79.04ZM1159.98 77.856V76.528H1158.03C1158.35 74.88 1158.35 73.632 1158.35 72.544V71.44H1148.53V72.768H1156.73C1156.73 73.808 1156.7 74.976 1156.38 76.528H1146.89V77.856H1152.59V80.224H1148.22V81.552H1156.77V85.232H1158.41V80.224H1154.25V77.856H1159.98ZM1074.28 95.248H1081.16V99.536H1074.28V95.248ZM1078.55 104.112V100.848H1082.77V93.936H1072.66V100.848H1076.9V104.112H1071.21V105.456H1084.29V104.112H1078.55ZM1088.16 94.192H1086.52V103.584H1087.76C1090 103.584 1092.33 103.408 1094.81 102.896L1094.64 101.52C1092.36 101.984 1090.2 102.16 1088.16 102.176V94.192ZM1095.96 92.784V107.232H1097.61V92.784H1095.96ZM1102.43 99.408H1106.9V98.096H1102.43V95.392H1107.49V94.032H1100.78V103.872H1101.92C1104.54 103.872 1106.35 103.808 1108.42 103.44L1108.27 102.112C1106.38 102.432 1104.74 102.512 1102.43 102.528V99.408ZM1110.48 92.752V98.064H1107.71V99.424H1110.48V107.248H1112.14V92.752H1110.48ZM1126.52 92.784H1124.87V101.632H1126.52V92.784ZM1123.36 99.088C1121.27 99.44 1119.46 99.52 1116.98 99.52V97.84H1121.92V93.664H1115.32V94.992H1120.31V96.592H1115.35V100.864H1116.56C1119.33 100.864 1121.28 100.8 1123.56 100.432L1123.36 99.088ZM1121.72 105.936C1119.65 105.936 1118.47 105.456 1118.47 104.576C1118.47 103.68 1119.65 103.2 1121.72 103.2C1123.8 103.2 1124.96 103.68 1124.96 104.576C1124.96 105.456 1123.8 105.936 1121.72 105.936ZM1121.72 101.904C1118.68 101.904 1116.84 102.896 1116.84 104.576C1116.84 106.256 1118.68 107.248 1121.72 107.248C1124.76 107.248 1126.61 106.256 1126.61 104.576C1126.61 102.896 1124.76 101.904 1121.72 101.904ZM1144.33 92.768H1142.67V101.024H1144.33V92.768ZM1138.41 98.368H1134.78V94.992H1138.41V98.368ZM1140.01 93.68H1133.16V99.68H1140.01V93.68ZM1144.6 103.184V101.92H1140.46V100.624H1138.78V101.92H1134.63V103.184H1138.78C1138.65 104.416 1136.78 105.68 1134.07 105.952L1134.62 107.2C1136.92 106.928 1138.75 106.016 1139.63 104.752C1140.51 106 1142.3 106.928 1144.59 107.2L1145.13 105.952C1142.46 105.664 1140.6 104.368 1140.47 103.184H1144.6ZM1162.14 92.8H1160.49V103.312H1162.14V92.8ZM1159.15 100.08C1156.93 99.36 1155.61 97.6 1155.61 95.76V95.232H1158.7V93.904H1150.8V95.232H1153.93V95.76C1153.93 97.712 1152.64 99.584 1150.35 100.352L1151.21 101.632C1152.94 101.056 1154.16 99.824 1154.8 98.288C1155.44 99.712 1156.65 100.832 1158.32 101.376L1159.15 100.08ZM1154.37 105.616V102.352H1152.7V106.96L1162.56 106.96V105.616L1154.37 105.616ZM1172.98 98.944C1171.23 99.312 1169.68 99.392 1166.95 99.408V95.312H1171.73V93.968H1165.3V100.768H1166.47C1169.57 100.768 1171.27 100.672 1173.14 100.272L1172.98 98.944ZM1168.5 102.176H1166.83V106.96H1176.56V105.616H1168.5V102.176ZM1175.99 96.912V92.768H1174.34V103.232H1175.99V98.272H1178.03V96.912H1175.99Z" fill="white"/>
<rect width="153" height="153" rx="10" fill="#F6F7FE"/>
<path d="M30.757 50.304V51.648H35.909C35.621 54.976 33.829 57.52 30.037 59.344L30.917 60.656C35.877 58.256 37.605 54.608 37.605 50.304H30.757ZM40.213 48.784V63.232H41.861V48.784H40.213ZM56.7458 50.368H51.7538V48.736H50.1058V50.368H45.0498V51.68H56.7458V50.368ZM54.0258 54.832C54.0258 55.616 52.9538 56.048 50.9378 56.048C48.9218 56.048 47.8338 55.616 47.8338 54.832C47.8338 54.048 48.9218 53.632 50.9378 53.632C52.9538 53.632 54.0258 54.048 54.0258 54.832ZM46.1218 54.832C46.1218 56.4 47.9298 57.28 50.9378 57.28C53.9458 57.28 55.7538 56.4 55.7538 54.832C55.7538 53.264 53.9458 52.384 50.9378 52.384C47.9298 52.384 46.1218 53.264 46.1218 54.832ZM57.4978 58.144H44.3938V59.472H50.1058V63.248H51.7538V59.472H57.4978V58.144ZM66.9263 50.768C68.1903 50.768 69.0703 51.424 69.0703 52.432C69.0703 53.456 68.1903 54.112 66.9263 54.112C65.6783 54.112 64.7823 53.456 64.7823 52.432C64.7823 51.424 65.6783 50.768 66.9263 50.768ZM66.9263 55.472C69.0863 55.472 70.6543 54.224 70.6543 52.432C70.6543 50.656 69.0863 49.408 66.9263 49.408C64.7663 49.408 63.1983 50.656 63.1983 52.432C63.1983 54.224 64.7663 55.472 66.9263 55.472ZM71.5823 56.016C68.4623 56.48 64.8303 56.528 62.2223 56.528L62.4143 57.888C63.5343 57.888 64.8143 57.872 66.1743 57.824V62.8L67.8223 62.8V57.728C69.1023 57.632 70.4303 57.488 71.6943 57.232L71.5823 56.016ZM72.5263 48.784V63.248L74.1743 63.248V48.784H72.5263ZM77.507 50.304V51.648H82.659C82.371 54.976 80.579 57.52 76.787 59.344L77.667 60.656C82.627 58.256 84.355 54.608 84.355 50.304H77.507ZM86.963 48.784V63.232H88.611V48.784H86.963ZM102.135 54.976C102.488 53.104 102.488 51.68 102.488 50.704V49.872H95.2235V51.216H100.872C100.856 52.112 100.808 53.248 100.52 54.8L102.135 54.976ZM103.336 55.696C101.911 55.92 100.36 56.016 98.8555 56.08V53.168H97.2235V56.128C96.1995 56.16 95.2075 56.16 94.3435 56.16L94.5195 57.504C97.0315 57.504 100.44 57.424 103.448 56.896L103.336 55.696ZM98.1835 58.672H96.5195V62.96H106.344V61.616H98.1835V58.672ZM105.88 53.36V48.784H104.216V59.632H105.88V54.72H107.8V53.36H105.88ZM119.292 59.44H120.94V48.8H119.292V51.104H116.7V52.448H119.292V54.352H116.7V55.68H119.292V59.44ZM116.492 55.872C114.828 56.16 113.436 56.224 111.164 56.24V54.208L115.788 54.208V49.792H109.5V51.12H114.14V52.944H109.532V57.584H110.604C113.276 57.584 114.828 57.52 116.668 57.2L116.492 55.872ZM113.116 61.568V58.64H111.452V62.912H121.34V61.568H113.116ZM62.6839 74.656V76.016H65.3079V81.36H66.9559V70.8H65.3079V74.656H62.6839ZM63.5799 78.032C61.4199 77.28 60.1879 75.472 60.1879 73.696V73.2H63.1959V71.872H55.4679V73.2H58.5239V73.696C58.5239 75.648 57.2119 77.552 54.9719 78.336L55.8199 79.632C57.5319 79.04 58.7479 77.776 59.3879 76.208C59.9959 77.632 61.1639 78.768 62.7639 79.312L63.5799 78.032ZM59.2439 83.616V80.448H57.5959V84.96H67.3239V83.616H59.2439ZM74.5126 71.984H72.8646V74.352C72.8646 77.024 71.4566 79.76 69.2006 80.864L70.2086 82.192C71.8566 81.344 73.0726 79.664 73.6966 77.664C74.3206 79.552 75.4726 81.12 77.0246 81.92L78.0326 80.608C75.8566 79.536 74.5126 76.928 74.5126 74.352V71.984ZM82.8966 76.512H80.6406V70.784H78.9926V85.232H80.6406V77.872H82.8966V76.512ZM92.5174 77.632C90.3574 76.88 89.1254 75.072 89.1254 73.28V73.008H92.1334V71.68H84.4054V73.008H87.4614V73.296C87.4614 75.248 86.1494 77.152 83.9094 77.92L84.7574 79.216C86.4694 78.624 87.6854 77.376 88.3254 75.824C88.9494 77.216 90.1014 78.352 91.7014 78.912L92.5174 77.632ZM86.1494 81.456H94.2454V85.232H95.8934V80.128H86.1494V81.456ZM94.2454 70.768V74.4H91.7174V75.76H94.2454V79.408H95.8934V70.768H94.2454ZM56.3056 92.768V107.264H57.9696V92.768H56.3056ZM50.2736 93.84C48.1296 93.84 46.5616 95.824 46.5616 98.928C46.5616 102.064 48.1296 104.032 50.2736 104.032C52.4336 104.032 54.0016 102.064 54.0016 98.928C54.0016 95.824 52.4336 93.84 50.2736 93.84ZM50.2736 95.328C51.5376 95.328 52.4176 96.688 52.4176 98.928C52.4176 101.2 51.5376 102.56 50.2736 102.56C49.0256 102.56 48.1456 101.2 48.1456 98.928C48.1456 96.688 49.0256 95.328 50.2736 95.328ZM73.0304 98.176C70.1344 97.744 67.9584 95.904 67.9584 94.016V93.264H66.2144V94.016C66.2144 95.936 64.0704 97.744 61.1584 98.176L61.7984 99.52C64.1984 99.12 66.1664 97.888 67.0944 96.192C68.0384 97.872 69.9904 99.12 72.3904 99.52L73.0304 98.176ZM73.6384 100.912H60.5344V102.256H63.7344V107.328H65.3824V102.256H68.8384V107.328H70.4704V102.256H73.6384V100.912ZM81.5629 95.568H83.5309V102.304C82.8749 102.336 82.2029 102.368 81.5629 102.384V95.568ZM85.1309 95.568H86.5389V94.24H78.5549V95.568H79.9629V102.416C79.3389 102.416 78.7309 102.416 78.1869 102.416L78.3629 103.776C80.8749 103.776 84.2189 103.728 87.2109 103.232L87.1149 102.016C86.4749 102.096 85.8029 102.16 85.1309 102.224V95.568ZM91.8029 98.432H89.5469V92.784H87.8989V107.248H89.5469V99.792H91.8029V98.432ZM94.6236 97.088C94.6236 95.824 95.5676 95.008 96.8476 95.008C98.1436 95.008 99.0876 95.824 99.0876 97.088C99.0876 98.352 98.1436 99.168 96.8476 99.168C95.5676 99.168 94.6236 98.352 94.6236 97.088ZM100.704 97.088C100.704 95.04 99.0556 93.616 96.8476 93.616C94.6556 93.616 93.0076 95.04 93.0076 97.088C93.0076 99.136 94.6556 100.56 96.8476 100.56C99.0556 100.56 100.704 99.136 100.704 97.088ZM94.6076 103.28H102.464V107.264H104.112V101.952H94.6076V103.28ZM106.16 96.352H104.112V92.784H102.464V101.264H104.112V97.712H106.16V96.352Z" fill="#435CE7"/>
<rect x="173" width="153" height="153" rx="10" fill="#F6F7FE"/>
<path d="M197.366 55.424H202.406V50.064H195.67V51.408H200.742V54.096H195.702V59.824H196.934C199.478 59.824 201.638 59.744 204.118 59.312L203.942 57.968C201.654 58.336 199.654 58.448 197.366 58.464V55.424ZM205.142 48.752V63.264H206.806V48.752H205.142ZM221.883 55.84C219.035 55.328 216.715 53.104 216.715 50.8V49.712H214.971V50.8C214.971 53.088 212.651 55.312 209.803 55.84L210.507 57.2C212.859 56.72 214.891 55.216 215.835 53.232C216.779 55.216 218.811 56.72 221.163 57.2L221.883 55.84ZM209.355 60.016V61.376H222.443V60.016H209.355ZM224.944 54.48L225.152 55.824L233.68 55.392C233.6 56.448 233.44 57.584 233.136 58.88L234.768 59.024C235.408 55.984 235.408 54 235.408 51.904V50.16L225.344 50.16V51.488L233.792 51.488V51.904C233.792 52.64 233.792 53.376 233.76 54.144L224.944 54.48ZM223.824 60V61.36L236.88 61.36V60L223.824 60ZM237.669 64.88H238.949L243.397 49.232H242.117L237.669 64.88ZM245.093 50.304V51.648H250.245C249.957 54.976 248.165 57.52 244.373 59.344L245.253 60.656C250.213 58.256 251.941 54.608 251.941 50.304H245.093ZM254.549 48.784V63.232H256.197V48.784H254.549ZM267.85 50.464H264.314V48.8H262.666V50.464H259.114V51.792H267.85V50.464ZM261.53 55.184C261.53 54.304 262.33 53.76 263.498 53.76C264.65 53.76 265.45 54.304 265.45 55.184C265.45 56.08 264.65 56.624 263.498 56.624C262.33 56.624 261.53 56.08 261.53 55.184ZM264.314 57.824C265.946 57.568 267.018 56.592 267.018 55.184C267.018 53.568 265.578 52.496 263.498 52.496C261.402 52.496 259.962 53.568 259.962 55.184C259.962 56.576 261.034 57.568 262.666 57.824V59.232C261.306 59.28 259.978 59.28 258.826 59.28L259.034 60.64C261.658 60.64 265.082 60.592 268.266 60.048L268.154 58.848C266.922 59.024 265.61 59.104 264.314 59.184V57.824ZM268.97 48.768V63.232H270.634V48.768H268.97ZM281.262 56.976C281.822 57.104 282.446 57.168 283.086 57.168C283.726 57.168 284.35 57.104 284.91 56.96V60.112H281.262V56.976ZM283.086 50.912C285.262 50.912 286.782 51.872 286.782 53.392C286.782 54.928 285.262 55.888 283.086 55.888C280.894 55.888 279.374 54.928 279.374 53.392C279.374 51.872 280.894 50.912 283.086 50.912ZM286.558 60.112V56.352C287.71 55.696 288.398 54.672 288.398 53.392C288.398 51.088 286.158 49.616 283.086 49.616C279.998 49.616 277.774 51.088 277.774 53.392C277.774 54.672 278.462 55.712 279.614 56.352V60.112H276.558V61.456H289.646V60.112H286.558ZM302.931 48.784H301.283V59.28H302.931V48.784ZM292.915 53.36C292.915 52.032 293.859 51.168 295.139 51.168C296.403 51.168 297.363 52.032 297.363 53.36C297.363 54.672 296.403 55.552 295.139 55.552C293.859 55.552 292.915 54.672 292.915 53.36ZM298.963 53.36C298.963 51.248 297.315 49.744 295.139 49.744C292.963 49.744 291.299 51.248 291.299 53.36C291.299 55.456 292.963 56.976 295.139 56.976C297.315 56.976 298.963 55.456 298.963 53.36ZM295.155 61.616V58.224H293.491V62.96H303.347V61.616H295.155ZM234.16 82.144V78.736H238.432V77.408H230.064V73.2H238.304V71.872H228.416V78.736H232.512V82.144H226.816V83.504H239.904V82.144H234.16ZM242.373 76.544C244.933 76.368 246.885 75.664 247.797 74.448C248.709 75.664 250.693 76.368 253.253 76.544L253.701 75.312C250.885 75.152 249.093 74.352 248.773 73.216H253.045V71.984H248.629V70.72H246.981V71.984H242.581V73.216H246.837C246.517 74.352 244.741 75.152 241.893 75.312L242.373 76.544ZM254.341 78.304V77.072H241.301V78.304H246.981V79.424H242.821V80.64H251.093V81.648H242.853V85.104H253.125V83.872H244.485V82.784H252.709V79.424H248.629V78.304H254.341ZM271.001 70.768H269.337V79.024H271.001V70.768ZM265.081 76.368H261.449V72.992H265.081V76.368ZM266.681 71.68H259.833V77.68H266.681V71.68ZM271.273 81.184V79.92H267.129V78.624H265.449V79.92H261.305V81.184H265.449C265.321 82.416 263.449 83.68 260.745 83.952L261.289 85.2C263.593 84.928 265.417 84.016 266.297 82.752C267.177 84 268.969 84.928 271.257 85.2L271.801 83.952C269.129 83.664 267.273 82.368 267.145 81.184H271.273ZM223.014 97.088C223.014 95.824 223.942 94.992 225.222 94.992C226.47 94.992 227.398 95.824 227.398 97.088C227.398 98.336 226.47 99.168 225.222 99.168C223.942 99.168 223.014 98.336 223.014 97.088ZM231.574 96.112V98.064H228.822C228.918 97.76 228.966 97.44 228.966 97.088C228.966 96.736 228.918 96.416 228.838 96.112H231.574ZM231.574 99.392V101.296H233.222V92.768H231.574V94.768H228.086C227.414 94.048 226.406 93.6 225.222 93.6C223.062 93.6 221.446 95.04 221.446 97.088C221.446 99.12 223.062 100.56 225.222 100.56C226.39 100.56 227.414 100.128 228.086 99.392H231.574ZM228.406 105.936C226.358 105.936 225.158 105.408 225.158 104.416C225.158 103.456 226.358 102.912 228.406 102.912C230.47 102.912 231.654 103.456 231.654 104.416C231.654 105.408 230.47 105.936 228.406 105.936ZM228.406 101.616C225.398 101.616 223.542 102.656 223.542 104.416C223.542 106.192 225.398 107.232 228.406 107.232C231.414 107.232 233.286 106.192 233.286 104.416C233.286 102.656 231.414 101.616 228.406 101.616ZM244.266 94.304H240.826V92.672H239.178V94.304H235.738V95.616H244.266V94.304ZM238.074 98.8C238.074 97.952 238.842 97.44 239.994 97.44C241.146 97.44 241.93 97.952 241.93 98.8C241.93 99.632 241.146 100.144 239.994 100.144C238.842 100.144 238.074 99.632 238.074 98.8ZM243.498 98.8C243.498 97.232 242.09 96.224 239.994 96.224C237.914 96.224 236.49 97.232 236.49 98.8C236.49 100.352 237.914 101.36 239.994 101.36C242.09 101.36 243.498 100.352 243.498 98.8ZM242.394 105.968C240.41 105.968 239.258 105.536 239.258 104.688C239.258 103.856 240.41 103.424 242.394 103.424C244.378 103.424 245.53 103.856 245.53 104.688C245.53 105.536 244.378 105.968 242.394 105.968ZM242.394 102.16C239.45 102.16 237.626 103.104 237.626 104.688C237.626 106.288 239.45 107.232 242.394 107.232C245.338 107.232 247.162 106.288 247.162 104.688C247.162 103.104 245.338 102.16 242.394 102.16ZM249.002 96.464V95.104H247.002V92.784H245.354V102.032H247.002V99.568H249.002V98.208H247.002V96.464H249.002ZM260.511 101.664H262.159V92.784H260.511V95.248H258.415V96.576H260.511V97.888H258.415V99.216H260.511V101.664ZM253.471 95.152H255.311V99.504C254.687 99.536 254.079 99.552 253.471 99.568V95.152ZM258.527 99.248C257.999 99.312 257.455 99.376 256.895 99.392V95.152H258.191V93.808H250.575V95.152H251.887V99.6C251.295 99.6 250.719 99.6 250.191 99.6L250.383 100.96C252.703 100.96 255.903 100.912 258.623 100.448L258.527 99.248ZM257.343 105.968C255.279 105.968 254.127 105.472 254.127 104.592C254.127 103.68 255.279 103.2 257.343 103.2C259.407 103.2 260.575 103.68 260.575 104.592C260.575 105.472 259.407 105.968 257.343 105.968ZM257.343 101.92C254.319 101.92 252.479 102.896 252.479 104.592C252.479 106.256 254.319 107.232 257.343 107.232C260.367 107.232 262.223 106.256 262.223 104.592C262.223 102.896 260.367 101.92 257.343 101.92ZM265.364 94.304V95.648H270.42C270.084 98.976 268.18 101.52 264.644 103.328L265.556 104.592C270.276 102.208 272.068 98.496 272.068 94.304H265.364ZM278.036 98.48H275.844V92.768H274.196V107.216H275.844V99.856H278.036V98.48Z" fill="#435CE7"/>
<rect x="346" width="153" height="153" rx="10" fill="#F6F7FE"/>
<path d="M384.125 50.64C386.189 50.64 387.549 51.344 387.549 52.512C387.549 53.696 386.189 54.4 384.125 54.4C382.045 54.4 380.685 53.696 380.685 52.512C380.685 51.344 382.045 50.64 384.125 50.64ZM384.125 55.728C387.165 55.728 389.245 54.48 389.245 52.512C389.245 50.56 387.165 49.312 384.125 49.312C381.069 49.312 378.989 50.56 378.989 52.512C378.989 54.48 381.069 55.728 384.125 55.728ZM390.701 56.96H377.597V58.32H383.277V63.232H384.925V58.32H390.701V56.96ZM402.402 59.536H404.05V48.784H402.402V52.032H399.474V53.392H402.402V59.536ZM400.61 55.984C398.45 55.2 397.234 53.328 397.234 51.376V49.664H395.554V51.344C395.554 53.488 394.306 55.52 392.05 56.32L392.93 57.6C394.594 56.96 395.794 55.68 396.434 54.064C397.042 55.52 398.178 56.688 399.73 57.264L400.61 55.984ZM396.306 61.616V58.4H394.642V62.96H404.386V61.616H396.306ZM418.886 53.664C416.054 53.264 413.926 51.52 413.926 49.744V49.152H412.23V49.744C412.23 51.568 410.118 53.296 407.27 53.696L407.91 55.008C410.246 54.64 412.166 53.456 413.078 51.856C414.006 53.44 415.942 54.608 418.262 54.96L418.886 53.664ZM409.782 58.752H408.134V62.96L418.182 62.96V61.616L409.782 61.616V58.752ZM406.534 56.032V57.36L412.39 57.36V60.064H414.038V57.36H419.638V56.032L406.534 56.032ZM425.723 50.768C426.987 50.768 427.867 51.424 427.867 52.432C427.867 53.456 426.987 54.112 425.723 54.112C424.475 54.112 423.579 53.456 423.579 52.432C423.579 51.424 424.475 50.768 425.723 50.768ZM425.723 55.472C427.883 55.472 429.451 54.224 429.451 52.432C429.451 50.656 427.883 49.408 425.723 49.408C423.563 49.408 421.995 50.656 421.995 52.432C421.995 54.224 423.563 55.472 425.723 55.472ZM430.379 56.016C427.259 56.48 423.627 56.528 421.019 56.528L421.211 57.888C422.331 57.888 423.611 57.872 424.971 57.824V62.8H426.619V57.728C427.899 57.632 429.227 57.488 430.491 57.232L430.379 56.016ZM431.323 48.784V63.248H432.971V48.784H431.323ZM447.408 55.536C445.264 54.784 444.032 52.976 444.032 51.184V50.944H447.04V49.616H439.312V50.944H442.368V51.184C442.368 53.152 441.056 55.056 438.816 55.84L439.664 57.136C441.376 56.544 442.592 55.28 443.232 53.728C443.84 55.136 445.008 56.256 446.608 56.816L447.408 55.536ZM442.928 59.152H449.184V61.744H442.928V59.152ZM441.312 63.056L450.8 63.056V57.84H441.312V63.056ZM449.152 48.768V52.288H446.592V53.632H449.152V57.184H450.8V48.768H449.152ZM454.164 49.648V50.992H458.948C458.66 53.216 456.708 54.96 453.396 55.856L454.068 57.168C458.244 55.984 460.724 53.392 460.724 49.648H454.164ZM457.476 58.864H463.652V61.728H457.476V58.864ZM455.86 63.056H465.268V57.552L455.86 57.552V63.056ZM463.62 48.768V52.368L460.756 52.368V53.728L463.62 53.728V56.96H465.268V48.768L463.62 48.768ZM390.415 70.768H388.751V79.024H390.415V70.768ZM384.495 76.368H380.863V72.992H384.495V76.368ZM386.095 71.68H379.247V77.68H386.095V71.68ZM390.687 81.184V79.92H386.543V78.624H384.863V79.92H380.719V81.184H384.863C384.735 82.416 382.863 83.68 380.159 83.952L380.703 85.2C383.007 84.928 384.831 84.016 385.711 82.752C386.591 84 388.383 84.928 390.671 85.2L391.215 83.952C388.543 83.664 386.687 82.368 386.559 81.184H390.687ZM398.42 73.84H402.148V72.496H396.804V81.792H397.764C399.796 81.792 401.284 81.728 403.028 81.392L402.884 80.032C401.396 80.336 400.084 80.416 398.42 80.432V73.84ZM407.076 70.768V76.48H405.364V71.072H403.812V84.512H405.364V77.824H407.076V85.216H408.644V70.768H407.076ZM410.777 77.68V79.008H423.849V77.68H410.777ZM417.289 80.016C414.185 80.016 412.313 80.976 412.313 82.64C412.313 84.304 414.185 85.248 417.289 85.248C420.409 85.248 422.265 84.304 422.265 82.64C422.265 80.976 420.409 80.016 417.289 80.016ZM417.289 81.296C419.401 81.296 420.601 81.76 420.601 82.64C420.601 83.52 419.401 83.984 417.289 83.984C415.177 83.984 413.993 83.52 413.993 82.64C413.993 81.76 415.177 81.296 417.289 81.296ZM417.321 71.12C414.169 71.12 412.169 72.176 412.169 73.92C412.169 75.648 414.169 76.704 417.321 76.704C420.457 76.704 422.473 75.648 422.473 73.92C422.473 72.176 420.457 71.12 417.321 71.12ZM417.321 72.416C419.465 72.416 420.761 72.96 420.761 73.92C420.761 74.864 419.465 75.408 417.321 75.408C415.177 75.408 413.865 74.864 413.865 73.92C413.865 72.96 415.177 72.416 417.321 72.416ZM436.301 74.656V76.016H438.925V81.36H440.573V70.8H438.925V74.656H436.301ZM437.197 78.032C435.037 77.28 433.805 75.472 433.805 73.696V73.2H436.813V71.872H429.085V73.2H432.141V73.696C432.141 75.648 430.829 77.552 428.589 78.336L429.437 79.632C431.149 79.04 432.365 77.776 433.005 76.208C433.613 77.632 434.781 78.768 436.381 79.312L437.197 78.032ZM432.861 83.616V80.448H431.213V84.96H440.941V83.616H432.861ZM451.474 77.104C449.49 77.472 447.746 77.552 445.266 77.568V75.808L450.178 75.808V71.6L443.618 71.6V72.928H448.546V74.56H443.65V78.912H444.818C447.586 78.912 449.474 78.832 451.65 78.448L451.474 77.104ZM444.85 81.616H452.706V85.248H454.354V80.288H444.85V81.616ZM456.386 74.304V72.96H454.354V70.816H452.706V79.568H454.354V77.36H456.386V76H454.354V74.304H456.386ZM460.262 86.88H461.542L465.99 71.232H464.71L460.262 86.88ZM387.845 92.784H386.181V100.192H387.845V92.784ZM384.725 98.576C382.501 97.888 381.205 96.128 381.205 94.256V93.168H379.525V94.256C379.525 96.208 378.229 98.08 375.941 98.832L376.757 100.144C378.501 99.552 379.733 98.352 380.389 96.8C381.045 98.224 382.261 99.328 383.925 99.872L384.725 98.576ZM380.021 105.808V104.544H387.845V100.88H378.373V102.16H386.213V103.344H378.405V107.104H388.277V105.808H380.021ZM399.562 97.904H401.066V101.888H402.634V92.768H401.066V96.544H399.562V93.04H398.026V101.408H399.562V97.904ZM397.53 94.4H394.746V92.912H393.13V94.4H390.33V95.696H397.53V94.4ZM392.33 98.816C392.33 98.032 392.97 97.52 393.946 97.52C394.906 97.52 395.578 98.032 395.578 98.816C395.578 99.6 394.906 100.112 393.946 100.112C392.97 100.112 392.33 99.6 392.33 98.816ZM397.05 98.816C397.05 97.328 395.77 96.32 393.946 96.32C392.138 96.32 390.858 97.328 390.858 98.816C390.858 100.32 392.138 101.312 393.946 101.312C395.77 101.312 397.05 100.32 397.05 98.816ZM397.834 105.984C395.77 105.984 394.586 105.52 394.586 104.656C394.586 103.792 395.77 103.344 397.834 103.344C399.914 103.344 401.066 103.792 401.066 104.656C401.066 105.52 399.914 105.984 397.834 105.984ZM397.834 102.096C394.778 102.096 392.938 103.024 392.938 104.656C392.938 106.288 394.778 107.232 397.834 107.232C400.89 107.232 402.714 106.288 402.714 104.656C402.714 103.024 400.89 102.096 397.834 102.096ZM416.078 96.688H414.254C414.366 96.016 414.414 95.296 414.414 94.56H408.83V95.888H412.782C412.542 98.848 411.102 101.2 408.126 103.008L409.07 104.176C411.774 102.56 413.294 100.464 413.966 98.032H416.078V100.32H413.71V101.664H416.078V106.528H417.614V93.136H416.078V96.688ZM418.99 92.784V107.232H420.574V92.784H418.99ZM431.667 94H428.275V92.672H426.611V94H423.219V95.2H431.667V94ZM425.523 97.792C425.523 97.152 426.275 96.768 427.443 96.768C428.627 96.768 429.379 97.152 429.379 97.792C429.379 98.464 428.627 98.848 427.443 98.848C426.275 98.848 425.523 98.464 425.523 97.792ZM431.923 100.432C430.755 100.592 429.523 100.688 428.275 100.752V99.92C429.907 99.728 430.947 98.944 430.947 97.792C430.947 96.48 429.555 95.648 427.443 95.648C425.347 95.648 423.955 96.48 423.955 97.792C423.955 98.944 424.979 99.728 426.611 99.92V100.816C425.251 100.864 423.923 100.864 422.771 100.864L422.979 102.144C425.555 102.144 428.931 102.096 432.051 101.568L431.923 100.432ZM424.803 104.448H432.947V107.248H434.595V103.136H424.803V104.448ZM432.947 92.8V102.528H434.595V92.8H432.947ZM453 98.112C450.088 97.696 447.911 95.888 447.911 94.016V93.248H446.168V94.016C446.168 95.92 444.024 97.696 441.08 98.112L441.72 99.44C444.12 99.056 446.12 97.856 447.048 96.176C447.992 97.84 449.96 99.056 452.36 99.44L453 98.112ZM453.56 100.8H440.504V102.144H446.168V107.248H447.816V102.144H453.56V100.8ZM463.724 98.72C461.628 99.072 459.82 99.152 457.34 99.152V97.552H462.284V93.456H455.676V94.8H460.668V96.304H455.708V100.496H456.924C459.692 100.496 461.644 100.432 463.916 100.064L463.724 98.72ZM465.244 105.728L459.052 105.728V104.224L465.244 104.224V105.728ZM465.244 102.928L459.052 102.928V101.44H457.404V107.056L466.876 107.056V101.44H465.244V102.928ZM465.228 92.784V100.768H466.876V92.784H465.228Z" fill="#435CE7"/>
<rect x="519" width="153" height="153" rx="10" fill="#F5F5F5"/>
<path d="M557.613 51.584H560.829V50.224H552.733V51.584H555.949V52.96C555.949 55.44 554.461 58.128 552.221 59.168L553.165 60.48C554.861 59.664 556.157 57.952 556.797 55.936C557.469 57.808 558.765 59.376 560.445 60.112L561.357 58.816C559.101 57.856 557.613 55.36 557.613 52.96V51.584ZM562.509 48.784V63.232H564.173V48.784H562.509ZM579.058 53.376C576.162 52.992 574.114 51.392 574.114 49.568V49.024H572.418V49.568C572.418 51.36 570.322 52.992 567.474 53.376L568.082 54.656C570.418 54.304 572.338 53.2 573.25 51.664C574.178 53.216 576.114 54.288 578.434 54.656L579.058 53.376ZM568.194 59.824H576.562V63.248H578.21V58.496H568.194V59.824ZM574.082 55.92V53.872H572.434V55.92H566.738V57.248H579.842V55.92H574.082ZM581.926 50.304V51.648L586.982 51.648C586.646 54.976 584.742 57.52 581.206 59.328L582.118 60.592C586.838 58.208 588.63 54.496 588.63 50.304L581.926 50.304ZM594.598 54.48H592.406V48.768H590.758V63.216H592.406V55.856H594.598V54.48ZM607.275 52.624H599.051V49.056H597.403V53.952H607.275V52.624ZM602.187 61.92C600.075 61.92 598.891 61.424 598.891 60.544C598.891 59.632 600.075 59.168 602.187 59.168C604.299 59.168 605.499 59.632 605.499 60.544C605.499 61.424 604.299 61.92 602.187 61.92ZM602.187 57.872C599.099 57.872 597.211 58.848 597.211 60.544C597.211 62.224 599.099 63.2 602.187 63.2C605.291 63.2 607.163 62.224 607.163 60.544C607.163 58.848 605.291 57.872 602.187 57.872ZM595.691 55.408V56.752H608.763V55.408H595.691ZM620.48 52.608V54.272H616.976V55.616H620.48V57.28H622.128V48.784H620.48V51.264H617.504C617.584 50.816 617.632 50.336 617.632 49.824H611.072V51.152H615.872C615.584 53.408 613.712 55.184 610.32 56.128L610.976 57.44C614.096 56.528 616.224 54.912 617.12 52.608H620.48ZM617.392 61.872C615.44 61.872 614.208 61.312 614.208 60.304C614.208 59.312 615.44 58.752 617.392 58.752C619.36 58.752 620.592 59.312 620.592 60.304C620.592 61.312 619.36 61.872 617.392 61.872ZM617.392 57.456C614.464 57.456 612.576 58.544 612.576 60.304C612.576 62.08 614.464 63.168 617.392 63.168C620.32 63.168 622.224 62.08 622.224 60.304C622.224 58.544 620.32 57.456 617.392 57.456ZM626.389 53.088C626.389 51.824 627.317 50.992 628.597 50.992C629.845 50.992 630.773 51.824 630.773 53.088C630.773 54.336 629.845 55.168 628.597 55.168C627.317 55.168 626.389 54.336 626.389 53.088ZM634.949 52.112V54.064H632.197C632.293 53.76 632.341 53.44 632.341 53.088C632.341 52.736 632.293 52.416 632.213 52.112H634.949ZM634.949 55.392V57.296H636.597V48.768H634.949V50.768H631.461C630.789 50.048 629.781 49.6 628.597 49.6C626.437 49.6 624.821 51.04 624.821 53.088C624.821 55.12 626.437 56.56 628.597 56.56C629.765 56.56 630.789 56.128 631.461 55.392L634.949 55.392ZM631.781 61.936C629.733 61.936 628.533 61.408 628.533 60.416C628.533 59.456 629.733 58.912 631.781 58.912C633.845 58.912 635.029 59.456 635.029 60.416C635.029 61.408 633.845 61.936 631.781 61.936ZM631.781 57.616C628.773 57.616 626.917 58.656 626.917 60.416C626.917 62.192 628.773 63.232 631.781 63.232C634.789 63.232 636.661 62.192 636.661 60.416C636.661 58.656 634.789 57.616 631.781 57.616ZM582.036 72.128H578.916V70.64H577.268V72.128H574.02V73.44H582.036V72.128ZM576.308 76.64C576.308 75.792 577.028 75.264 578.084 75.264C579.156 75.264 579.876 75.792 579.876 76.64C579.876 77.488 579.156 78.016 578.084 78.016C577.028 78.016 576.308 77.488 576.308 76.64ZM581.412 76.64C581.412 75.072 580.052 74.032 578.084 74.032C576.132 74.032 574.772 75.072 574.772 76.64C574.772 78.208 576.132 79.248 578.084 79.248C580.052 79.248 581.412 78.208 581.412 76.64ZM584.324 83.76H578.1V82.496H584.324V83.76ZM584.324 81.248H578.1V79.936H576.468V85.056H585.956V79.936H584.324V81.248ZM584.308 70.768V74.016H582.132V75.36H584.308V76.848H582.1V78.192H584.308V79.36H585.956V70.768H584.308ZM593.113 71.792C590.857 71.792 589.193 73.216 589.193 75.264C589.193 77.312 590.857 78.736 593.113 78.736C595.369 78.736 597.049 77.312 597.049 75.264C597.049 73.216 595.369 71.792 593.113 71.792ZM593.113 73.2C594.457 73.2 595.433 74 595.433 75.264C595.433 76.512 594.457 77.328 593.113 77.328C591.785 77.328 590.809 76.512 590.809 75.264C590.809 74 591.785 73.2 593.113 73.2ZM598.681 70.768V85.248H600.345V70.768H598.681ZM588.729 82.192C591.289 82.192 594.745 82.16 597.929 81.552L597.817 80.352C594.713 80.816 591.113 80.832 588.521 80.832L588.729 82.192ZM612.029 72.464H608.493V70.816H606.845V72.464H603.293V73.792H612.029V72.464ZM605.709 77.184C605.709 76.304 606.509 75.76 607.677 75.76C608.829 75.76 609.629 76.304 609.629 77.184C609.629 78.08 608.829 78.624 607.677 78.624C606.509 78.624 605.709 78.08 605.709 77.184ZM608.493 79.824C610.125 79.568 611.197 78.592 611.197 77.184C611.197 75.568 609.757 74.496 607.677 74.496C605.581 74.496 604.141 75.568 604.141 77.184C604.141 78.576 605.213 79.568 606.845 79.824V81.232C605.485 81.28 604.157 81.28 603.005 81.28L603.213 82.64C605.837 82.64 609.261 82.592 612.445 82.048L612.333 80.848C611.101 81.024 609.789 81.104 608.493 81.184V79.824ZM613.149 70.768V85.232H614.813V70.768H613.149ZM584.326 97.504H591.174V99.872H584.326V97.504ZM588.566 104.112V101.2H592.806V93.744H591.174V96.176H584.326V93.744H582.694V101.2H586.918V104.112H581.222V105.472H594.31V104.112H588.566ZM605.675 95.552C605.675 97.28 605.675 99.328 605.115 102.16L606.779 102.336C607.339 99.344 607.339 97.344 607.339 95.552V94.128H597.051V95.472H605.675V95.552ZM602.219 103.984V98.896H600.555V103.984H595.691V105.344H608.747V103.984H602.219Z" fill="#666666"/>
<rect x="692" width="153" height="153" rx="10" fill="#F5F5F5"/>
<path d="M730.613 51.584H733.829V50.224H725.733V51.584H728.949V52.96C728.949 55.44 727.461 58.128 725.221 59.168L726.165 60.48C727.861 59.664 729.157 57.952 729.797 55.936C730.469 57.808 731.765 59.376 733.445 60.112L734.357 58.816C732.101 57.856 730.613 55.36 730.613 52.96V51.584ZM735.509 48.784V63.232H737.173V48.784H735.509ZM752.058 53.376C749.162 52.992 747.114 51.392 747.114 49.568V49.024H745.418V49.568C745.418 51.36 743.322 52.992 740.474 53.376L741.082 54.656C743.418 54.304 745.338 53.2 746.25 51.664C747.178 53.216 749.114 54.288 751.434 54.656L752.058 53.376ZM741.194 59.824H749.562V63.248H751.21V58.496H741.194V59.824ZM747.082 55.92V53.872H745.434V55.92H739.738V57.248H752.842V55.92H747.082ZM754.926 50.304V51.648L759.982 51.648C759.646 54.976 757.742 57.52 754.206 59.328L755.118 60.592C759.838 58.208 761.63 54.496 761.63 50.304L754.926 50.304ZM767.598 54.48H765.406V48.768H763.758V63.216H765.406V55.856H767.598V54.48ZM780.275 52.624H772.051V49.056H770.403V53.952H780.275V52.624ZM775.187 61.92C773.075 61.92 771.891 61.424 771.891 60.544C771.891 59.632 773.075 59.168 775.187 59.168C777.299 59.168 778.499 59.632 778.499 60.544C778.499 61.424 777.299 61.92 775.187 61.92ZM775.187 57.872C772.099 57.872 770.211 58.848 770.211 60.544C770.211 62.224 772.099 63.2 775.187 63.2C778.291 63.2 780.163 62.224 780.163 60.544C780.163 58.848 778.291 57.872 775.187 57.872ZM768.691 55.408V56.752H781.763V55.408H768.691ZM793.48 52.608V54.272H789.976V55.616H793.48V57.28H795.128V48.784H793.48V51.264H790.504C790.584 50.816 790.632 50.336 790.632 49.824H784.072V51.152H788.872C788.584 53.408 786.712 55.184 783.32 56.128L783.976 57.44C787.096 56.528 789.224 54.912 790.12 52.608H793.48ZM790.392 61.872C788.44 61.872 787.208 61.312 787.208 60.304C787.208 59.312 788.44 58.752 790.392 58.752C792.36 58.752 793.592 59.312 793.592 60.304C793.592 61.312 792.36 61.872 790.392 61.872ZM790.392 57.456C787.464 57.456 785.576 58.544 785.576 60.304C785.576 62.08 787.464 63.168 790.392 63.168C793.32 63.168 795.224 62.08 795.224 60.304C795.224 58.544 793.32 57.456 790.392 57.456ZM799.389 53.088C799.389 51.824 800.317 50.992 801.597 50.992C802.845 50.992 803.773 51.824 803.773 53.088C803.773 54.336 802.845 55.168 801.597 55.168C800.317 55.168 799.389 54.336 799.389 53.088ZM807.949 52.112V54.064H805.197C805.293 53.76 805.341 53.44 805.341 53.088C805.341 52.736 805.293 52.416 805.213 52.112H807.949ZM807.949 55.392V57.296H809.597V48.768H807.949V50.768H804.461C803.789 50.048 802.781 49.6 801.597 49.6C799.437 49.6 797.821 51.04 797.821 53.088C797.821 55.12 799.437 56.56 801.597 56.56C802.765 56.56 803.789 56.128 804.461 55.392L807.949 55.392ZM804.781 61.936C802.733 61.936 801.533 61.408 801.533 60.416C801.533 59.456 802.733 58.912 804.781 58.912C806.845 58.912 808.029 59.456 808.029 60.416C808.029 61.408 806.845 61.936 804.781 61.936ZM804.781 57.616C801.773 57.616 799.917 58.656 799.917 60.416C799.917 62.192 801.773 63.232 804.781 63.232C807.789 63.232 809.661 62.192 809.661 60.416C809.661 58.656 807.789 57.616 804.781 57.616ZM751.692 72.768C752.956 72.768 753.836 73.424 753.836 74.432C753.836 75.456 752.956 76.112 751.692 76.112C750.444 76.112 749.548 75.456 749.548 74.432C749.548 73.424 750.444 72.768 751.692 72.768ZM751.692 77.472C753.852 77.472 755.42 76.224 755.42 74.432C755.42 72.656 753.852 71.408 751.692 71.408C749.532 71.408 747.964 72.656 747.964 74.432C747.964 76.224 749.532 77.472 751.692 77.472ZM756.348 78.016C753.228 78.48 749.596 78.528 746.988 78.528L747.18 79.888C748.3 79.888 749.58 79.872 750.94 79.824V84.8H752.588V79.728C753.868 79.632 755.196 79.488 756.46 79.232L756.348 78.016ZM757.292 70.784V85.248H758.94V70.784H757.292ZM768.945 79.264V80.416H771.777V81.76H773.425V70.768H771.777V79.264H768.945ZM766.065 72.544C767.249 72.544 768.065 73.056 768.065 73.872C768.065 74.688 767.249 75.2 766.065 75.2C764.865 75.2 764.049 74.688 764.049 73.872C764.049 73.056 764.865 72.544 766.065 72.544ZM766.065 76.416C768.177 76.416 769.633 75.408 769.633 73.872C769.633 72.336 768.177 71.328 766.065 71.328C763.937 71.328 762.481 72.336 762.481 73.872C762.481 75.408 763.937 76.416 766.065 76.416ZM765.409 81.296H767.057V78.512C768.289 78.432 769.553 78.304 770.769 78.096L770.641 76.912C767.585 77.296 764.033 77.328 761.377 77.344L761.585 78.688C762.737 78.688 764.033 78.672 765.409 78.608V81.296ZM764.977 83.616V80.688H763.329V84.96H773.761V83.616H764.977ZM785.029 72.464H781.493V70.816H779.845V72.464H776.293V73.792H785.029V72.464ZM778.709 77.184C778.709 76.304 779.509 75.76 780.677 75.76C781.829 75.76 782.629 76.304 782.629 77.184C782.629 78.08 781.829 78.624 780.677 78.624C779.509 78.624 778.709 78.08 778.709 77.184ZM781.493 79.824C783.125 79.568 784.197 78.592 784.197 77.184C784.197 75.568 782.757 74.496 780.677 74.496C778.581 74.496 777.141 75.568 777.141 77.184C777.141 78.576 778.213 79.568 779.845 79.824V81.232C778.485 81.28 777.157 81.28 776.005 81.28L776.213 82.64C778.837 82.64 782.261 82.592 785.445 82.048L785.333 80.848C784.101 81.024 782.789 81.104 781.493 81.184V79.824ZM786.149 70.768V85.232H787.813V70.768H786.149ZM757.326 97.504H764.174V99.872H757.326V97.504ZM761.566 104.112V101.2H765.806V93.744H764.174V96.176H757.326V93.744H755.694V101.2H759.918V104.112H754.222V105.472H767.31V104.112H761.566ZM778.675 95.552C778.675 97.28 778.675 99.328 778.115 102.16L779.779 102.336C780.339 99.344 780.339 97.344 780.339 95.552V94.128H770.051V95.472H778.675V95.552ZM775.219 103.984V98.896H773.555V103.984H768.691V105.344H781.747V103.984H775.219Z" fill="#666666"/>
<rect x="865" width="153" height="153" rx="10" fill="#F6F7FE"/>
<path d="M928.022 59.608V55.992H933.638V54.632L928.022 54.632V51.192L934.326 51.192V49.8L926.422 49.8V61H934.55V59.608H928.022ZM940.155 61.128C943.115 61.128 944.491 59.656 944.491 57.944C944.491 53.832 937.707 55.544 937.707 52.808C937.707 51.832 938.523 51.032 940.427 51.032C941.419 51.032 942.523 51.32 943.499 51.944L944.027 50.664C943.099 50.024 941.739 49.672 940.427 49.672C937.483 49.672 936.139 51.144 936.139 52.872C936.139 57.032 942.923 55.304 942.923 58.04C942.923 59.016 942.091 59.768 940.155 59.768C938.715 59.768 937.291 59.224 936.459 58.472L935.867 59.72C936.763 60.552 938.443 61.128 940.155 61.128ZM954.338 58.984C953.538 59.496 952.658 59.704 951.714 59.704C949.138 59.704 947.266 57.864 947.266 55.4C947.266 52.904 949.138 51.096 951.73 51.096C952.994 51.096 954.05 51.496 954.978 52.392L955.97 51.4C954.946 50.264 953.442 49.672 951.666 49.672C948.194 49.672 945.666 52.088 945.666 55.4C945.666 58.712 948.194 61.128 951.634 61.128C953.202 61.128 954.754 60.648 955.874 59.704V55.336H954.338V58.984ZM922.757 71.8L919.669 80.952L916.581 71.8H915.109L911.957 80.904L908.933 71.8H907.285L911.029 83H912.741L915.797 74.056L918.853 83H920.533L924.277 71.8H922.757ZM928.752 83.096C931.296 83.096 933.152 81.288 933.152 78.76C933.152 76.232 931.296 74.44 928.752 74.44C926.208 74.44 924.336 76.232 924.336 78.76C924.336 81.288 926.208 83.096 928.752 83.096ZM928.752 81.752C927.12 81.752 925.888 80.568 925.888 78.76C925.888 76.952 927.12 75.784 928.752 75.784C930.384 75.784 931.6 76.952 931.6 78.76C931.6 80.568 930.384 81.752 928.752 81.752ZM936.498 75.944V74.52H935.026V83H936.562V78.776C936.562 76.92 937.586 75.912 939.234 75.912C939.346 75.912 939.458 75.912 939.586 75.928V74.44C938.098 74.44 937.042 74.952 936.498 75.944ZM947.709 83H949.597L945.677 78.024L949.245 74.52H947.389L942.765 78.744V71.128H941.229V83H942.765V80.68L944.525 79.048L947.709 83ZM951.497 72.888C952.105 72.888 952.537 72.44 952.537 71.864C952.537 71.32 952.089 70.888 951.497 70.888C950.905 70.888 950.457 71.336 950.457 71.896C950.457 72.456 950.905 72.888 951.497 72.888ZM950.729 83H952.265V74.52H950.729V83ZM959.476 74.44C958.132 74.44 957.044 74.936 956.42 75.8V74.52H954.948V83H956.484V78.632C956.484 76.792 957.54 75.816 959.172 75.816C960.628 75.816 961.46 76.632 961.46 78.296V83H962.996V78.12C962.996 75.624 961.54 74.44 959.476 74.44ZM972.292 74.52V75.832C971.572 74.904 970.42 74.44 969.156 74.44C966.708 74.44 964.852 76.088 964.852 78.536C964.852 80.984 966.708 82.648 969.156 82.648C970.372 82.648 971.476 82.216 972.212 81.336V82.008C972.212 83.928 971.3 84.856 969.3 84.856C968.052 84.856 966.82 84.424 966.036 83.752L965.3 84.936C966.228 85.768 967.796 86.2 969.348 86.2C972.228 86.2 973.748 84.84 973.748 81.848V74.52H972.292ZM969.332 81.304C967.62 81.304 966.404 80.168 966.404 78.536C966.404 76.888 967.62 75.784 969.332 75.784C971.028 75.784 972.244 76.888 972.244 78.536C972.244 80.168 971.028 81.304 969.332 81.304ZM909.487 102.984C908.687 103.496 907.807 103.704 906.863 103.704C904.287 103.704 902.415 101.864 902.415 99.4C902.415 96.904 904.287 95.096 906.879 95.096C908.143 95.096 909.199 95.496 910.127 96.392L911.119 95.4C910.095 94.264 908.591 93.672 906.815 93.672C903.343 93.672 900.815 96.088 900.815 99.4C900.815 102.712 903.343 105.128 906.783 105.128C908.351 105.128 909.903 104.648 911.023 103.704V99.336H909.487V102.984ZM915.084 97.944V96.52H913.612V105H915.148V100.776C915.148 98.92 916.172 97.912 917.82 97.912C917.932 97.912 918.044 97.912 918.172 97.928V96.44C916.684 96.44 915.628 96.952 915.084 97.944ZM923.369 105.096C925.913 105.096 927.769 103.288 927.769 100.76C927.769 98.232 925.913 96.44 923.369 96.44C920.825 96.44 918.953 98.232 918.953 100.76C918.953 103.288 920.825 105.096 923.369 105.096ZM923.369 103.752C921.737 103.752 920.505 102.568 920.505 100.76C920.505 98.952 921.737 97.784 923.369 97.784C925.001 97.784 926.217 98.952 926.217 100.76C926.217 102.568 925.001 103.752 923.369 103.752ZM936.012 96.52V100.904C936.012 102.728 934.988 103.72 933.388 103.72C931.932 103.72 931.1 102.888 931.1 101.224V96.52H929.564V101.4C929.564 103.896 931.02 105.096 933.212 105.096C934.412 105.096 935.468 104.6 936.092 103.72V105H937.548V96.52H936.012ZM944.718 96.44C943.47 96.44 942.382 96.92 941.694 97.864V96.52H940.222V108.104H941.758V103.72C942.462 104.632 943.518 105.096 944.718 105.096C947.198 105.096 949.006 103.368 949.006 100.76C949.006 98.168 947.198 96.44 944.718 96.44ZM944.59 103.752C942.974 103.752 941.742 102.568 941.742 100.76C941.742 98.968 942.974 97.784 944.59 97.784C946.222 97.784 947.454 98.968 947.454 100.76C947.454 102.568 946.222 103.752 944.59 103.752ZM965.486 91.784H963.822V99.192H965.486V91.784ZM962.366 97.576C960.142 96.888 958.846 95.128 958.846 93.256V92.168H957.166V93.256C957.166 95.208 955.87 97.08 953.582 97.832L954.398 99.144C956.142 98.552 957.374 97.352 958.03 95.8C958.686 97.224 959.902 98.328 961.566 98.872L962.366 97.576ZM957.662 104.808V103.544H965.486V99.88H956.014V101.16H963.854V102.344H956.046V106.104H965.918V104.808H957.662ZM977.202 96.904H978.706V100.888H980.274V91.768H978.706V95.544H977.202V92.04H975.666V100.408H977.202V96.904ZM975.17 93.4H972.386V91.912H970.77V93.4H967.97V94.696H975.17V93.4ZM969.97 97.816C969.97 97.032 970.61 96.52 971.586 96.52C972.546 96.52 973.218 97.032 973.218 97.816C973.218 98.6 972.546 99.112 971.586 99.112C970.61 99.112 969.97 98.6 969.97 97.816ZM974.69 97.816C974.69 96.328 973.41 95.32 971.586 95.32C969.778 95.32 968.498 96.328 968.498 97.816C968.498 99.32 969.778 100.312 971.586 100.312C973.41 100.312 974.69 99.32 974.69 97.816ZM975.474 104.984C973.41 104.984 972.226 104.52 972.226 103.656C972.226 102.792 973.41 102.344 975.474 102.344C977.554 102.344 978.706 102.792 978.706 103.656C978.706 104.52 977.554 104.984 975.474 104.984ZM975.474 101.096C972.418 101.096 970.578 102.024 970.578 103.656C970.578 105.288 972.418 106.232 975.474 106.232C978.53 106.232 980.354 105.288 980.354 103.656C980.354 102.024 978.53 101.096 975.474 101.096Z" fill="#435CE7"/>
</svg>
