<svg width="1201" height="153" viewBox="0 0 1201 153" fill="none" xmlns="http://www.w3.org/2000/svg">
<path d="M1037 75.0001L106 75" stroke="#7094F0" stroke-linecap="round" stroke-linejoin="round" stroke-dasharray="2 4"/>
<path d="M1039.14 74.2474L1033.66 69.4512C1033.01 68.8854 1032 69.3446 1032 70.2038L1032 79.7962C1032 80.6554 1033.01 81.1146 1033.66 80.5488L1039.14 75.7526C1039.6 75.3542 1039.6 74.6458 1039.14 74.2474Z" fill="#7094F0"/>
<rect x="1048" width="153" height="153" rx="10" fill="#435CE7"/>
<path d="M1067.3 65.672V68.872H1063.62V65.672H1067.3ZM1068.78 70.28V64.264H1062.18V71.528H1063.62V70.28H1068.78ZM1074.82 60.68H1060.62V62.168H1071.37V72.248C1071.37 72.584 1071.26 72.68 1070.9 72.696C1070.52 72.696 1069.19 72.712 1067.98 72.648C1068.22 73.08 1068.52 73.816 1068.6 74.248C1070.2 74.248 1071.32 74.232 1072.01 73.96C1072.68 73.736 1072.92 73.24 1072.92 72.28V62.168H1074.82V60.68ZM1080.91 66.408L1079.49 66.84V64.072H1081.02V62.696H1079.49V59.608L1078.11 59.608V62.696H1076.17V64.072H1078.11V67.224C1077.29 67.464 1076.54 67.672 1075.95 67.832L1076.29 69.272L1078.11 68.696V72.552C1078.11 72.776 1078.03 72.84 1077.84 72.84C1077.66 72.84 1077.05 72.84 1076.43 72.824C1076.61 73.208 1076.78 73.848 1076.83 74.2C1077.84 74.216 1078.48 74.152 1078.91 73.928C1079.33 73.688 1079.49 73.304 1079.49 72.552V68.28L1081.1 67.768L1080.91 66.408ZM1082.46 69.832C1083.15 70.696 1083.89 71.88 1084.17 72.648L1085.44 71.896C1085.1 71.128 1084.32 69.992 1083.63 69.176L1082.46 69.832ZM1090.8 65.976V64.616H1086.77V62.888H1090.05V61.528H1086.77V59.64H1085.34V61.528H1082.01V62.888H1085.34V64.616H1081.26V65.976H1087.41V67.528H1081.44V68.888H1087.41V72.568C1087.41 72.792 1087.34 72.856 1087.1 72.872C1086.86 72.888 1086.03 72.888 1085.21 72.84C1085.41 73.24 1085.6 73.848 1085.66 74.264C1086.81 74.264 1087.61 74.248 1088.14 74.024C1088.65 73.8 1088.81 73.4 1088.81 72.6V68.888H1090.7V67.528H1088.81V65.976H1090.8ZM1105.14 66.776C1105.52 65.976 1105.91 64.728 1106.23 63.624L1105.28 63.4L1105.04 63.448H1102.45V62.2H1105.36V60.952H1102.45V59.592H1101V60.952H1098.21V62.2H1101V63.448H1097.64V64.712H1104.58C1104.4 65.368 1104.18 66.024 1103.99 66.504L1105.14 66.776ZM1101.32 66.472C1100.9 66.056 1100.05 65.512 1099.36 65.144L1098.72 65.88C1099.4 66.264 1100.23 66.84 1100.64 67.272L1101.32 66.472ZM1100.28 67.96C1099.83 67.528 1098.95 66.92 1098.24 66.552L1097.56 67.288C1098.28 67.688 1099.14 68.344 1099.57 68.792L1100.28 67.96ZM1094.42 68.056C1095.46 66.728 1096.45 65.128 1097.28 63.592L1096.15 62.888C1095.89 63.496 1095.57 64.088 1095.25 64.648L1093.62 64.792C1094.53 63.464 1095.43 61.8 1096.07 60.2L1094.79 59.608C1094.18 61.48 1093.06 63.544 1092.72 64.056C1092.37 64.584 1092.1 64.952 1091.81 65.032C1091.97 65.384 1092.18 66.024 1092.24 66.312C1092.48 66.184 1092.85 66.104 1094.48 65.912C1093.89 66.824 1093.36 67.576 1093.11 67.864C1092.63 68.456 1092.28 68.84 1091.94 68.92C1092.08 69.256 1092.29 69.864 1092.36 70.136C1092.71 69.896 1093.25 69.704 1096.92 68.696C1096.87 68.424 1096.84 67.848 1096.85 67.464L1094.42 68.056ZM1096.82 70.168C1095.01 70.824 1093.14 71.496 1091.91 71.896L1092.24 73.272C1093.62 72.728 1095.4 72.056 1097.08 71.368L1096.82 70.168ZM1106.15 70.12V68.84H1102.63C1102.74 68.232 1102.77 67.64 1102.77 67.08V65.256H1101.41V67.032C1101.41 67.608 1101.38 68.216 1101.22 68.84H1097.3V70.12H1100.76C1100.16 71.24 1099.03 72.328 1096.96 73.192C1097.24 73.464 1097.67 73.976 1097.84 74.296C1100.45 73.16 1101.72 71.64 1102.29 70.12H1106.15ZM1102.16 71.368C1103.38 72.216 1104.85 73.464 1105.54 74.296L1106.5 73.368C1105.78 72.552 1104.26 71.368 1103.06 70.552L1102.16 71.368ZM1122.44 66.056C1121.61 65.528 1120.14 64.792 1118.79 64.216C1119.87 63.272 1120.76 62.152 1121.37 60.872L1120.33 60.328L1120.04 60.392H1113.75V61.736H1119.08C1117.66 63.672 1115.13 65.208 1112.68 65.976C1113 66.296 1113.39 66.872 1113.59 67.24C1114.99 66.728 1116.39 66.04 1117.64 65.144C1119.05 65.8 1120.71 66.648 1121.56 67.24L1122.44 66.056ZM1110.27 68.136C1111.47 66.808 1112.63 65.256 1113.61 63.672L1112.33 62.84C1112.03 63.4 1111.69 63.976 1111.32 64.52L1109.45 64.696C1110.36 63.384 1111.29 61.768 1111.96 60.2L1110.55 59.544C1109.95 61.4 1108.78 63.432 1108.41 63.928C1108.06 64.472 1107.79 64.824 1107.47 64.904C1107.64 65.288 1107.9 66.008 1107.95 66.312C1108.2 66.184 1108.62 66.088 1110.38 65.848C1109.74 66.744 1109.16 67.416 1108.86 67.72C1108.35 68.28 1107.96 68.648 1107.58 68.728C1107.75 69.128 1107.99 69.832 1108.06 70.136C1108.46 69.912 1109.05 69.736 1113.05 68.952C1113.03 68.648 1113.03 68.04 1113.08 67.656L1110.27 68.136ZM1112.97 70.664C1111 71.144 1108.95 71.64 1107.63 71.912L1107.9 73.384C1109.39 72.984 1111.31 72.472 1113.13 71.976L1112.97 70.664ZM1118.39 69H1121.53V67.656L1113.88 67.656V69L1116.91 69V72.472L1112.92 72.472V73.864L1122.31 73.864V72.472H1118.39V69ZM1134.78 70.904V72.536H1126.8V70.904H1134.78ZM1125.39 74.296H1126.8V73.752H1134.78V74.264H1136.27V69.624H1125.39V74.296ZM1133.5 67.768H1127.97V66.552H1133.5V67.768ZM1126.58 65.528V68.792H1134.96V65.528H1126.58ZM1124.14 66.68H1125.5V64.68H1135.97V66.68H1137.39V63.512L1124.14 63.512V66.68ZM1134.27 60.808V59.592H1132.8V60.808H1128.54V59.592H1127.07V60.808H1123.73V62.152H1127.07V63.112H1128.54V62.152H1132.8V63.112L1134.27 63.112V62.152H1137.71V60.808L1134.27 60.808ZM1150.55 70.776H1147.14V69.784H1150.55V70.776ZM1147.14 67.704H1150.55V68.616H1147.14V67.704ZM1142.63 64.712V63.752H1145.64V64.712H1142.63ZM1150.29 63.752V64.712H1147.14V63.752H1150.29ZM1153.72 68.616H1152.05V66.648H1147.14V65.704H1151.8V62.76H1147.14V61.944H1153.38V60.744H1147.14V59.576H1145.64V60.744H1139.57V61.944H1145.64V62.76H1141.21V65.704H1145.64V66.648H1140.79V67.704H1145.64V68.616H1139.24V69.784H1145.64V70.776H1140.65V71.896H1145.64V72.744C1145.64 73.016 1145.54 73.096 1145.25 73.112C1145 73.128 1144.04 73.128 1143.16 73.096C1143.37 73.416 1143.59 73.96 1143.67 74.296C1145.01 74.296 1145.85 74.28 1146.39 74.088C1146.93 73.88 1147.14 73.544 1147.14 72.728V71.896H1150.55V72.584H1152.05V69.784H1153.72V68.616ZM1162.4 68.408C1162.52 67.992 1162.62 67.528 1162.7 67.048L1161.15 66.92C1161.08 67.464 1160.99 67.96 1160.86 68.408H1156.22V69.688H1160.36C1159.44 71.496 1157.74 72.488 1155.15 73C1155.42 73.288 1155.85 73.912 1156 74.248C1159 73.464 1160.92 72.168 1161.96 69.688H1166.56C1166.28 71.512 1166 72.408 1165.63 72.696C1165.45 72.84 1165.26 72.856 1164.91 72.856C1164.49 72.856 1163.42 72.84 1162.4 72.744C1162.65 73.112 1162.86 73.656 1162.88 74.04C1163.85 74.104 1164.83 74.104 1165.36 74.072C1166.01 74.04 1166.41 73.944 1166.81 73.592C1167.39 73.08 1167.74 71.848 1168.11 69.016C1168.14 68.824 1168.19 68.408 1168.19 68.408H1162.4ZM1159.66 62.424H1165.8C1164.89 63.256 1163.68 63.928 1162.28 64.488C1161.1 63.992 1160.14 63.368 1159.48 62.6L1159.66 62.424ZM1167.28 61.096L1167.02 61.16H1160.81C1161.15 60.744 1161.45 60.312 1161.71 59.88L1160.19 59.576C1159.37 60.936 1157.84 62.472 1155.6 63.576C1155.9 63.8 1156.32 64.36 1156.49 64.696C1157.24 64.312 1157.92 63.864 1158.51 63.4C1159.12 64.04 1159.8 64.584 1160.6 65.048C1158.83 65.544 1156.91 65.88 1155 66.056C1155.23 66.392 1155.47 66.984 1155.58 67.352C1157.87 67.08 1160.2 66.616 1162.28 65.848C1164.11 66.568 1166.3 66.968 1168.73 67.16C1168.91 66.776 1169.24 66.168 1169.56 65.848C1167.56 65.736 1165.69 65.496 1164.09 65.08C1165.8 64.232 1167.24 63.112 1168.19 61.704L1167.28 61.096ZM1179.63 69.464V71.304H1176.26V69.464H1179.63ZM1181.03 72.504V68.28H1174.88V73.432H1176.26V72.504H1181.03ZM1181.97 61.624V63.368H1173.84V61.624H1181.97ZM1173.81 65.848C1173.83 65.432 1173.84 65.032 1173.84 64.648H1183.46V60.36H1172.37V64.184C1172.37 66.744 1172.21 70.36 1170.43 72.904C1170.75 73.08 1171.38 73.56 1171.63 73.848C1172.93 71.992 1173.49 69.464 1173.71 67.16H1183.06C1182.91 70.904 1182.72 72.328 1182.42 72.664C1182.27 72.84 1182.13 72.904 1181.86 72.888C1181.55 72.904 1180.87 72.888 1180.11 72.808C1180.35 73.208 1180.51 73.8 1180.53 74.216C1181.36 74.248 1182.15 74.248 1182.59 74.184C1183.07 74.136 1183.43 74.008 1183.75 73.608C1184.21 73.032 1184.39 71.24 1184.58 66.504C1184.59 66.296 1184.59 65.848 1184.59 65.848H1173.81ZM1098.4 85.112V83.768H1093.9C1094.11 83.16 1094.3 82.552 1094.46 81.896L1093.02 81.624C1092.48 83.912 1091.5 86.088 1090.21 87.464C1090.54 87.672 1091.15 88.104 1091.41 88.36C1092.14 87.496 1092.82 86.376 1093.36 85.112H1098.4ZM1093.44 86.696C1094.51 87.496 1095.82 88.648 1096.42 89.384L1097.62 88.504C1096.96 87.752 1095.65 86.664 1094.59 85.928L1093.44 86.696ZM1089.82 81.624H1088.35V89.24H1089.82V81.624ZM1086.69 82.152H1085.25V88.76H1086.69V82.152ZM1087.25 91.32H1089.07V94.52H1087.25V91.32ZM1092.27 91.32V94.52H1090.43V91.32H1092.27ZM1095.5 91.32V94.52H1093.63V91.32H1095.5ZM1096.96 94.52V90.072H1085.86V94.52H1084.13V95.864H1098.58V94.52H1096.96ZM1110.02 84.36V87.272C1110.02 88.504 1110.31 88.888 1111.56 88.888H1112.93C1113.86 88.888 1114.21 88.456 1114.36 86.856C1113.97 86.76 1113.43 86.568 1113.16 86.36C1113.11 87.496 1113.05 87.672 1112.76 87.672H1111.77C1111.45 87.672 1111.4 87.624 1111.4 87.272V84.36H1112.93V85.864H1114.29V83.112H1110.13V81.56H1108.69V83.112H1104.76V85.944H1106.05V84.36H1107.43C1107.35 86.552 1107 87.672 1104.66 88.28C1104.93 88.536 1105.27 89.016 1105.38 89.336C1108.15 88.552 1108.66 87.048 1108.79 84.36H1110.02ZM1104.71 89.368L1104.45 88.04L1103.01 88.536V86.056H1104.53V84.68H1103.01V81.592H1101.65V84.68H1099.8V86.056H1101.65V89C1100.87 89.272 1100.15 89.496 1099.57 89.672L1099.93 91.112L1101.65 90.488V94.616C1101.65 94.84 1101.57 94.888 1101.37 94.888C1101.19 94.904 1100.6 94.904 1099.96 94.888C1100.15 95.272 1100.33 95.912 1100.36 96.264C1101.38 96.264 1102.01 96.216 1102.44 95.992C1102.87 95.752 1103.01 95.352 1103.01 94.616V89.992L1104.71 89.368ZM1110.13 94.456V91.416H1113.64V90.072H1105.35V91.416H1108.66V94.456H1104.37V95.816H1114.42V94.456H1110.13ZM1126.99 88.296C1126.4 89.928 1125.45 91.24 1124.27 92.28C1122.97 91.208 1122.03 89.864 1121.37 88.296L1126.99 88.296ZM1124.72 83.848C1124.57 84.792 1124.4 85.896 1124.19 86.888L1120.35 86.888C1120.46 85.864 1120.54 84.84 1120.59 83.848L1124.72 83.848ZM1127.9 86.808L1127.61 86.888H1125.77C1126.04 85.464 1126.32 83.816 1126.46 82.472L1125.32 82.328L1125.05 82.392L1116.3 82.392V83.848H1119C1118.88 87.816 1118.4 92.568 1115.39 95.016C1115.74 95.224 1116.32 95.72 1116.59 96.008C1118.64 94.296 1119.61 91.528 1120.11 88.616C1120.81 90.44 1121.77 91.976 1123.04 93.192C1121.77 93.992 1120.32 94.552 1118.76 94.888C1119.07 95.208 1119.42 95.816 1119.6 96.216C1121.31 95.768 1122.88 95.112 1124.24 94.2C1125.6 95.16 1127.23 95.848 1129.23 96.264C1129.45 95.832 1129.88 95.16 1130.24 94.808C1128.4 94.504 1126.83 93.944 1125.53 93.176C1127.08 91.736 1128.27 89.816 1128.89 87.24L1127.9 86.808ZM1136.05 84.04C1135.52 83.4 1134.42 82.456 1133.55 81.816L1132.61 82.776C1133.49 83.48 1134.56 84.472 1135.04 85.144L1136.05 84.04ZM1135.06 93.016V86.504H1131.35V87.928H1133.62V93.016C1133.62 93.928 1133.04 94.6 1132.67 94.904C1132.95 95.112 1133.43 95.592 1133.6 95.896C1133.87 95.544 1134.34 95.176 1137.23 93.08C1137.09 92.792 1136.9 92.232 1136.8 91.816L1135.06 93.016ZM1144.13 90.408C1142.8 92.76 1140.11 94.248 1136.8 94.984C1137.12 95.336 1137.49 95.88 1137.68 96.264C1141.17 95.32 1143.95 93.64 1145.47 90.936L1144.13 90.408ZM1141.07 86.04C1140.21 87.08 1138.64 88.12 1137.3 88.712C1137.65 89 1138.02 89.416 1138.24 89.72C1139.65 88.984 1141.23 87.816 1142.24 86.536L1141.07 86.04ZM1142.56 88.136C1141.47 89.688 1139.41 91.08 1137.46 91.848C1137.79 92.152 1138.18 92.616 1138.4 92.968C1140.48 92.008 1142.53 90.472 1143.81 88.664L1142.56 88.136ZM1140.72 81.528C1139.83 83.512 1138.02 85.384 1135.81 86.552C1136.13 86.808 1136.59 87.336 1136.8 87.624C1138.53 86.648 1139.97 85.32 1141.06 83.752C1142.24 85.24 1143.83 86.648 1145.25 87.48C1145.49 87.096 1145.95 86.552 1146.32 86.264C1144.69 85.496 1142.87 84.024 1141.76 82.584C1141.87 82.376 1141.99 82.168 1142.08 81.944L1140.72 81.528ZM1153.66 82.68C1153.46 83.512 1153.1 84.712 1152.78 85.48L1153.64 85.768C1153.99 85.064 1154.46 83.928 1154.82 82.984L1153.66 82.68ZM1151 85.416C1150.94 84.68 1150.68 83.544 1150.31 82.696L1149.37 83C1149.7 83.864 1149.96 85 1150.01 85.752L1151 85.416ZM1151.37 92.936H1152.62V89.32C1153.11 89.88 1153.66 90.552 1153.91 90.92L1154.71 89.896C1154.39 89.576 1153.1 88.36 1152.62 87.976V87.512H1154.71V86.264H1152.62V81.72H1151.37V86.264H1149.24V87.512H1151.24C1150.7 88.808 1149.8 90.184 1148.94 90.968C1149.14 91.304 1149.42 91.832 1149.53 92.184C1150.2 91.576 1150.84 90.584 1151.37 89.528V92.936ZM1161.77 86.856H1156.73V84.312C1158.39 83.976 1160.26 83.48 1161.59 82.888L1160.39 81.8C1159.43 82.296 1157.82 82.808 1156.28 83.176L1155.32 82.872V88.408C1155.32 89.976 1155.22 91.8 1154.5 93.448V93.288H1148.89V82.136H1147.59V95.752H1148.89V94.568H1153.88C1153.7 94.824 1153.5 95.08 1153.27 95.32C1153.64 95.512 1154.17 96.024 1154.34 96.344C1156.44 94.12 1156.73 90.792 1156.73 88.424V88.232H1158.73V96.248H1160.15V88.232H1161.77V86.856Z" fill="white"/>
<rect width="153" height="153" rx="10" fill="#F6F7FE"/>
<path d="M39.156 51.856H49.844V53.92H51.3V50.624H48.532C48.964 50.224 49.476 49.68 49.972 49.104L48.452 48.624C48.132 49.12 47.588 49.856 47.14 50.32L47.924 50.624H45.204V48.592H43.716V50.624H40.996L41.764 50.272C41.524 49.808 41.028 49.104 40.564 48.608L39.268 49.12C39.62 49.552 40.036 50.16 40.276 50.624H37.764V53.92H39.156V51.856ZM41.476 53.616H47.492V54.688H41.476V53.616ZM48.964 55.632V52.672H40.1V55.632L48.964 55.632ZM51.508 60.048H45.204V59.168H50.692V58.128H45.204V57.248C46.932 57.136 48.532 56.96 49.812 56.752L48.884 55.856C46.612 56.24 42.404 56.432 38.916 56.448C39.028 56.72 39.172 57.152 39.188 57.424C40.628 57.424 42.196 57.408 43.732 57.328V58.128L38.42 58.128V59.168L43.732 59.168V60.048L37.508 60.048V61.088L43.732 61.088V61.84C43.732 62.064 43.636 62.144 43.348 62.144C43.092 62.16 42.02 62.176 41.044 62.128C41.22 62.464 41.444 62.928 41.54 63.296C42.916 63.296 43.828 63.28 44.42 63.104C44.996 62.928 45.204 62.624 45.204 61.888V61.088H51.508V60.048ZM57.642 55.264L56.186 55.696V53.056H57.786V51.68H56.186V48.592H54.826V51.68H52.97V53.056H54.826V56.096C54.042 56.32 53.322 56.528 52.746 56.672L53.082 58.112C53.61 57.936 54.202 57.76 54.826 57.568V61.616C54.826 61.84 54.746 61.888 54.538 61.888C54.362 61.904 53.77 61.904 53.13 61.888C53.322 62.272 53.498 62.912 53.53 63.264C54.554 63.264 55.178 63.216 55.61 62.992C56.042 62.752 56.186 62.352 56.186 61.616V57.152C56.73 56.976 57.29 56.8 57.834 56.624L57.642 55.264ZM65.69 50.464V51.888H59.706V50.464H65.69ZM63.898 61.648V60.304H66.81V59.184H63.898V57.904L66.074 57.792C66.266 58.032 66.426 58.256 66.554 58.464L67.546 57.888C67.066 57.168 66.058 56.112 65.21 55.36L64.266 55.872C64.57 56.144 64.89 56.448 65.194 56.768L62.154 56.864C62.442 56.368 62.746 55.808 63.034 55.248H67.37V54.064H59.706V53.952V53.104H67.114V49.232H58.346V53.952C58.346 56.448 58.234 59.888 56.73 62.288C57.034 62.448 57.61 62.88 57.85 63.136C59.226 60.944 59.594 57.792 59.69 55.248H61.61C61.402 55.808 61.146 56.4 60.89 56.896L59.642 56.928L59.77 58.096L62.586 57.968V59.184H59.786V60.304H62.586V61.648H59.002V62.816H67.626V61.648H63.898ZM82.8 51.52V50.256H72.992C73.184 49.824 73.36 49.376 73.52 48.928L72.032 48.544C71.28 50.8 69.952 52.976 68.4 54.32C68.784 54.528 69.44 54.976 69.744 55.216C70.688 54.272 71.6 52.976 72.368 51.52H82.8ZM81.552 53.744V52.528H72.16V53.744H81.552ZM70.496 54.832V56.112H78.912C79.088 60.112 79.664 63.248 81.888 63.248C82.96 63.248 83.28 62.448 83.392 60.544C83.072 60.352 82.672 59.984 82.368 59.648C82.352 60.96 82.272 61.776 81.984 61.776C80.848 61.776 80.432 58.416 80.368 54.832H70.496ZM87.366 48.656C86.63 51.056 85.382 53.424 84.038 54.976C84.294 55.344 84.662 56.176 84.79 56.544C85.238 56.016 85.686 55.408 86.102 54.736V63.248H87.51V52.144C87.99 51.136 88.406 50.08 88.742 49.04L87.366 48.656ZM89.926 50.432H88.63V60.704H89.926V50.432ZM99.19 59.104V57.824H95.35V57.76V56.08H98.694V54.848H93.046C93.206 54.464 93.35 54.08 93.478 53.68L92.918 53.552H98.854V52.288H97.238V49.312H91.366V50.544H95.862V52.288H90.374V53.552H92.086C91.67 54.8 91.014 56.032 90.214 56.864C90.55 57.04 91.11 57.424 91.366 57.632C91.75 57.216 92.118 56.672 92.454 56.08H93.894V57.744V57.824H90.39V59.104H93.718C93.398 60.208 92.47 61.392 89.894 62.24C90.23 62.496 90.646 62.992 90.854 63.296C92.982 62.48 94.134 61.424 94.742 60.352C95.334 61.504 96.406 62.672 98.502 63.28C98.678 62.928 99.046 62.352 99.366 62.08C96.902 61.456 95.974 60.208 95.558 59.104H99.19ZM108.556 50.848C108.316 51.344 108.012 51.872 107.724 52.32H103.788C104.188 51.84 104.556 51.344 104.876 50.848H108.556ZM114.508 53.664V52.32H109.436C109.9 51.632 110.348 50.88 110.668 50.224L109.596 49.536L109.356 49.6H105.628C105.772 49.344 105.916 49.072 106.044 48.816L104.396 48.528C103.644 50.24 102.204 52.24 100.044 53.728C100.412 53.952 100.908 54.48 101.148 54.832C101.516 54.56 101.868 54.272 102.188 53.984V55.36C102.188 57.456 101.964 60.304 100.044 62.304C100.364 62.496 100.94 63.024 101.196 63.312C103.26 61.12 103.66 57.728 103.66 55.376V53.664H114.508ZM107.98 61.776C106.764 61.776 106.54 61.648 106.54 60.928V56.304H110.972C110.892 57.712 110.764 58.32 110.588 58.496C110.444 58.64 110.316 58.656 110.06 58.656C109.804 58.656 109.148 58.64 108.444 58.576C108.668 58.944 108.796 59.472 108.828 59.888C109.612 59.92 110.364 59.92 110.764 59.872C111.196 59.824 111.532 59.712 111.804 59.408C112.172 59.008 112.332 57.984 112.476 55.568C112.492 55.376 112.508 55.024 112.508 55.024H105.1V60.944C105.1 62.704 105.756 63.136 107.916 63.136H112.14C114.124 63.136 114.604 62.464 114.844 60.016C114.428 59.92 113.804 59.696 113.436 59.456C113.34 61.44 113.164 61.776 112.06 61.776H107.98ZM43.652 79.2C43.332 78.8 41.876 77.12 41.3 76.544V75.328H43.524V73.92H41.3V70.576H39.876V73.92H37.364V75.328H39.684C39.156 77.392 38.084 79.712 36.98 81.04C37.22 81.376 37.572 81.984 37.732 82.4C38.532 81.392 39.284 79.808 39.876 78.128V85.248H41.3V78.224C41.86 78.992 42.484 79.872 42.772 80.416L43.652 79.2ZM50.196 83.728C50.1 83.728 50.02 83.696 49.956 83.632C49.892 83.552 49.86 83.296 49.86 82.816V71.488H44.388V76.576C44.388 78.992 44.196 82.128 42.068 84.288C42.404 84.48 42.98 84.976 43.22 85.248C45.508 82.928 45.844 79.232 45.844 76.576V72.896H48.404V82.784C48.404 84.16 48.5 84.464 48.788 84.736C49.028 84.992 49.444 85.088 49.78 85.088H50.612C50.964 85.088 51.268 85.024 51.524 84.848C51.764 84.672 51.908 84.384 51.988 83.92C52.068 83.488 52.132 82.352 52.132 81.472C51.78 81.344 51.332 81.12 51.044 80.848C51.044 81.872 51.012 82.672 50.98 83.024C50.964 83.392 50.916 83.52 50.852 83.616C50.772 83.696 50.676 83.728 50.564 83.728H50.196ZM56.986 75.328H59.13V73.92H56.986V70.576H55.562V73.92H53.114V75.328H55.37C54.858 77.376 53.818 79.728 52.746 81.04C52.97 81.376 53.322 81.984 53.482 82.4C54.25 81.408 54.986 79.84 55.562 78.192V85.248H56.986V78.24C57.53 79.008 58.122 79.888 58.394 80.416L59.29 79.216C58.97 78.8 57.546 77.12 56.986 76.544V75.328ZM61.21 82.832V80.384H65.562V82.832H61.21ZM65.562 72.88V75.232H61.21V72.88H65.562ZM61.21 76.592H65.562V79.024H61.21V76.592ZM59.786 71.472V85.136H61.21V84.192H65.562V85.056H67.05V71.472H59.786ZM82.944 79.376V77.904L76.928 77.904C76.944 77.712 76.944 77.536 76.944 77.36V75.36L82.096 75.36V73.888H79.152C79.696 73.072 80.32 72.064 80.816 71.152L79.216 70.608C78.832 71.616 78.112 72.928 77.504 73.888H73.392L74.416 73.328C74.112 72.576 73.424 71.488 72.752 70.688L71.504 71.312C72.096 72.08 72.72 73.136 73.024 73.888H70.128V75.36H75.232V77.328C75.232 77.504 75.232 77.696 75.216 77.904H69.12V79.376H74.912C74.352 80.976 72.8 82.624 68.72 83.92C69.136 84.272 69.616 84.896 69.824 85.248C73.696 83.952 75.504 82.272 76.32 80.544C77.648 82.8 79.616 84.384 82.352 85.168C82.592 84.704 83.056 84.048 83.408 83.696C80.56 83.04 78.496 81.504 77.28 79.376H82.944ZM86.486 82.304V78.768H89.462V82.304H86.486ZM89.462 74.432V77.472H86.486V74.432H89.462ZM93.99 73.056C94.246 72.352 94.454 71.616 94.646 70.88L93.206 70.544C92.726 72.656 91.878 74.784 90.822 76.16V73.136H88.262C88.518 72.464 88.822 71.616 89.094 70.816L87.478 70.544C87.382 71.312 87.142 72.368 86.918 73.136H85.126V84.832H86.486V83.616H90.822V76.272C91.19 76.48 91.75 76.88 91.99 77.104C92.502 76.368 92.998 75.44 93.446 74.416H97.222C97.014 80.448 96.806 82.864 96.294 83.392C96.118 83.616 95.942 83.664 95.622 83.664C95.222 83.664 94.294 83.648 93.27 83.568C93.542 83.984 93.718 84.608 93.75 85.008C94.662 85.056 95.606 85.072 96.166 85.008C96.774 84.928 97.158 84.784 97.558 84.256C98.198 83.456 98.39 80.976 98.614 73.76C98.63 73.568 98.63 73.056 98.63 73.056H93.99ZM96.038 80.272C95.558 79.328 94.47 77.808 93.622 76.704L92.454 77.36C93.302 78.512 94.342 80.08 94.79 81.056L96.038 80.272ZM107.484 72.416C108.62 73.84 110.156 75.264 111.804 76.368H103.116C104.732 75.232 106.332 73.808 107.484 72.416ZM108.236 81.152H112.588V79.856H108.236V77.68H111.9V76.432C112.572 76.88 113.276 77.28 113.964 77.6C114.188 77.184 114.668 76.56 114.972 76.256C112.38 75.232 109.708 73.152 108.284 71.024H103.18V72.416H105.724C104.172 74.032 101.98 75.616 100.076 76.448C100.412 76.768 100.796 77.28 101.004 77.664C101.676 77.312 102.38 76.88 103.084 76.384V77.68H106.668V79.856H102.364V81.152H106.668V83.504H100.796V84.848H114.3V83.504H108.236V81.152ZM41.78 93.248V94.704H46.74C47.716 96.72 49.156 98.736 50.676 100.032C50.996 99.696 51.636 99.2 52.036 98.96C50.356 97.696 48.692 95.408 47.796 93.248H41.78ZM40.564 94.96C39.94 96.448 38.612 98.224 37.156 99.296C37.524 99.536 38.068 100.016 38.372 100.336C39.924 99.152 41.332 97.2 42.196 95.424L40.564 94.96ZM46.34 101.824C47.044 102.672 47.796 103.664 48.452 104.656C46.244 104.736 43.988 104.832 41.972 104.896C42.964 103.088 44.084 100.704 44.916 98.656L43.172 98.24C42.532 100.304 41.348 103.024 40.308 104.96L38.02 105.024L38.196 106.576C41.012 106.464 45.332 106.256 49.364 106.064C49.652 106.544 49.892 106.976 50.068 107.36L51.556 106.56C50.788 105.072 49.204 102.848 47.716 101.168L46.34 101.824ZM60.81 100.512V103.12H56.17V100.512H60.81ZM62.266 104.416V99.232H54.73V105.584H56.17V104.416H62.266ZM63.258 96.432H53.802V97.744H63.258V96.432ZM66.506 93.568H53.674V94.992H64.986V105.2C64.986 105.504 64.89 105.584 64.586 105.6C64.282 105.616 63.21 105.616 62.186 105.568C62.394 106 62.634 106.752 62.698 107.184C64.122 107.2 65.114 107.168 65.722 106.896C66.314 106.656 66.506 106.16 66.506 105.216V93.568ZM69.584 100.112C69.968 98.928 70.256 97.072 70.336 95.76L69.264 95.6C69.152 96.896 68.848 98.656 68.464 99.728L69.584 100.112ZM79.328 105.312V101.68H82.432V100.288H79.328V97.28H82.784V95.872H79.328V92.64H77.84V95.872H76.16C76.352 95.12 76.528 94.336 76.64 93.536L75.184 93.296C74.976 94.8 74.624 96.304 74.128 97.552C73.936 96.88 73.488 95.904 73.088 95.152L72.144 95.536V92.576H70.656V107.248H72.144V95.776C72.544 96.624 72.96 97.648 73.104 98.288L74 97.856C73.824 98.272 73.616 98.64 73.408 98.96C73.776 99.104 74.432 99.44 74.736 99.648C75.104 98.992 75.456 98.176 75.76 97.28H77.84V100.288H74.592V101.68H77.84V105.312H73.392V106.72H83.2V105.312H79.328ZM85.174 107.264H86.646V96.24H85.174V107.264ZM85.334 93.456C86.118 94.304 87.19 95.456 87.686 96.144L88.838 95.328C88.294 94.656 87.19 93.536 86.39 92.752L85.334 93.456ZM93.11 98.752V101.984L90.198 101.984V98.752L93.11 98.752ZM94.566 103.328V97.408L88.854 97.408V104.304H90.198V103.328L94.566 103.328ZM98.326 93.424L89.398 93.424V94.8L96.838 94.8V105.328C96.838 105.616 96.742 105.696 96.47 105.712C96.214 105.728 95.222 105.728 94.326 105.696C94.534 106.08 94.758 106.752 94.822 107.152C96.15 107.168 97.03 107.136 97.574 106.896C98.134 106.656 98.326 106.224 98.326 105.344V93.424ZM114.764 104.544C114.14 103.92 112.908 102.96 111.98 102.32L111.132 103.104C112.092 103.808 113.292 104.816 113.884 105.456L114.764 104.544ZM110.476 97.632C110.38 101.6 110.124 103.504 106.812 104.512C107.068 104.736 107.388 105.216 107.516 105.488C111.164 104.32 111.596 102.016 111.708 97.632H110.476ZM108.044 95.824V102.48H109.276V96.928H112.78V102.416H114.06V95.824H111.132C111.324 95.424 111.532 94.944 111.724 94.464H114.748V93.28H107.468V94.464H110.268C110.124 94.928 109.964 95.44 109.804 95.824H108.044ZM105.356 95.264H102.508V94.256H105.356V95.264ZM105.356 97.264H102.508V96.256H105.356V97.264ZM106.748 93.216H101.18V98.304H106.748V93.216ZM104.7 103.12H107.18V102H104.7V100.496H107.5V99.36H100.332V100.496H103.436V104.496C103.02 104.16 102.7 103.712 102.428 103.136C102.492 102.544 102.54 101.936 102.572 101.28L101.356 101.184C101.292 103.424 101.02 105.328 100.028 106.544C100.316 106.688 100.876 107.056 101.068 107.248C101.612 106.544 101.948 105.664 102.188 104.656C103.532 106.592 105.692 106.928 108.892 106.928H114.396C114.476 106.56 114.684 106 114.892 105.696C113.82 105.728 109.756 105.728 108.908 105.728C107.228 105.728 105.82 105.648 104.7 105.248V103.12Z" fill="#435CE7"/>
<rect x="173" width="153" height="153" rx="10" fill="#F6F7FE"/>
<path d="M200.117 51.856L210.805 51.856V53.92H212.261V50.624H209.493C209.925 50.224 210.437 49.68 210.933 49.104L209.413 48.624C209.093 49.12 208.549 49.856 208.101 50.32L208.885 50.624H206.165V48.592H204.677V50.624H201.957L202.725 50.272C202.485 49.808 201.989 49.104 201.525 48.608L200.229 49.12C200.581 49.552 200.997 50.16 201.237 50.624H198.725V53.92H200.117V51.856ZM202.437 53.616L208.453 53.616V54.688L202.437 54.688V53.616ZM209.925 55.632V52.672L201.061 52.672V55.632H209.925ZM212.469 60.048L206.165 60.048V59.168L211.653 59.168V58.128L206.165 58.128V57.248C207.893 57.136 209.493 56.96 210.773 56.752L209.845 55.856C207.573 56.24 203.365 56.432 199.877 56.448C199.989 56.72 200.133 57.152 200.149 57.424C201.589 57.424 203.157 57.408 204.693 57.328V58.128H199.381V59.168H204.693V60.048H198.469V61.088H204.693V61.84C204.693 62.064 204.597 62.144 204.309 62.144C204.053 62.16 202.981 62.176 202.005 62.128C202.181 62.464 202.405 62.928 202.501 63.296C203.877 63.296 204.789 63.28 205.381 63.104C205.957 62.928 206.165 62.624 206.165 61.888V61.088L212.469 61.088V60.048ZM218.603 55.264L217.147 55.696V53.056H218.747V51.68H217.147V48.592H215.787V51.68H213.931V53.056H215.787V56.096C215.003 56.32 214.283 56.528 213.707 56.672L214.043 58.112C214.571 57.936 215.163 57.76 215.787 57.568V61.616C215.787 61.84 215.707 61.888 215.499 61.888C215.323 61.904 214.731 61.904 214.091 61.888C214.283 62.272 214.459 62.912 214.491 63.264C215.515 63.264 216.139 63.216 216.571 62.992C217.003 62.752 217.147 62.352 217.147 61.616V57.152C217.691 56.976 218.251 56.8 218.795 56.624L218.603 55.264ZM226.651 50.464V51.888H220.667V50.464H226.651ZM224.859 61.648V60.304H227.771V59.184H224.859V57.904L227.035 57.792C227.227 58.032 227.387 58.256 227.515 58.464L228.507 57.888C228.027 57.168 227.019 56.112 226.171 55.36L225.227 55.872C225.531 56.144 225.851 56.448 226.155 56.768L223.115 56.864C223.403 56.368 223.707 55.808 223.995 55.248H228.331V54.064H220.667V53.952V53.104H228.075V49.232H219.307V53.952C219.307 56.448 219.195 59.888 217.691 62.288C217.995 62.448 218.571 62.88 218.811 63.136C220.187 60.944 220.555 57.792 220.651 55.248H222.571C222.363 55.808 222.107 56.4 221.851 56.896L220.603 56.928L220.731 58.096L223.547 57.968V59.184H220.747V60.304H223.547V61.648H219.963V62.816H228.587V61.648H224.859ZM238.529 51.728C238.145 52.88 237.649 54.08 237.057 55.184C236.273 54.176 235.457 53.2 234.721 52.32L233.489 52.944C234.401 54.032 235.377 55.28 236.273 56.512C235.265 58.08 234.097 59.44 232.849 60.32C233.201 60.576 233.681 61.104 233.953 61.456C235.121 60.528 236.225 59.264 237.169 57.792C238.033 59.04 238.785 60.24 239.249 61.168L240.625 60.368C240.017 59.28 239.057 57.872 237.985 56.416C238.721 55.056 239.345 53.584 239.825 52.08L238.529 51.728ZM231.473 49.248V53.856C231.473 56.368 231.329 59.888 229.601 62.304C229.937 62.48 230.577 63.008 230.849 63.312C232.705 60.704 233.009 56.56 233.009 53.856V50.688H240.833C240.849 58.928 240.881 63.104 243.121 63.104C244.049 63.104 244.353 62.352 244.497 60.272C244.209 60.032 243.809 59.536 243.569 59.168C243.537 60.432 243.425 61.536 243.233 61.536C242.241 61.536 242.257 56.944 242.321 49.248H231.473ZM252.311 54.72H257.799V53.456H252.647C253.527 52.608 254.359 51.648 255.063 50.608C256.295 52.128 258.055 53.76 259.607 54.784C259.767 54.384 260.071 53.76 260.343 53.408C258.743 52.512 256.887 50.88 255.799 49.44C255.895 49.264 255.975 49.088 256.071 48.912L254.775 48.448C253.751 50.56 251.927 52.512 250.039 53.712C250.295 53.984 250.743 54.608 250.903 54.912C251.383 54.56 251.847 54.192 252.311 53.776V54.72ZM256.247 59.488C256.151 58.48 255.879 56.944 255.575 55.744L254.423 55.904C254.679 57.104 254.967 58.656 255.031 59.696L256.247 59.488ZM253.575 59.856C253.431 58.816 253.015 57.264 252.567 56.064L251.415 56.368C251.831 57.584 252.231 59.152 252.359 60.176L253.575 59.856ZM249.767 49.168L249.559 49.216H246.039V63.216H247.351V50.56H249.047C248.759 51.616 248.359 52.96 247.959 54C248.999 55.2 249.239 56.272 249.239 57.088C249.239 57.568 249.159 57.968 248.935 58.128C248.807 58.224 248.663 58.256 248.471 58.272C248.247 58.288 247.975 58.272 247.655 58.256C247.863 58.608 247.975 59.184 247.991 59.536C248.359 59.552 248.743 59.552 249.047 59.52C249.383 59.456 249.671 59.36 249.895 59.2C250.359 58.848 250.567 58.176 250.567 57.232C250.567 56.272 250.311 55.136 249.271 53.84C249.751 52.608 250.295 51.024 250.743 49.712L249.767 49.168ZM258.183 55.76C257.671 57.424 256.711 59.728 255.927 61.232L250.663 61.232V62.544L259.911 62.544V61.232H257.143C257.943 59.792 258.839 57.76 259.495 56.064L258.183 55.76ZM260.653 64.88H261.933L266.381 49.232H265.101L260.653 64.88ZM273.597 57.2C273.277 56.8 271.821 55.12 271.245 54.544V53.328H273.469V51.92H271.245V48.576H269.821V51.92H267.309V53.328H269.629C269.101 55.392 268.029 57.712 266.925 59.04C267.165 59.376 267.517 59.984 267.677 60.4C268.477 59.392 269.229 57.808 269.821 56.128V63.248H271.245V56.224C271.805 56.992 272.429 57.872 272.717 58.416L273.597 57.2ZM280.141 61.728C280.045 61.728 279.965 61.696 279.901 61.632C279.837 61.552 279.805 61.296 279.805 60.816V49.488H274.333V54.576C274.333 56.992 274.141 60.128 272.013 62.288C272.349 62.48 272.925 62.976 273.165 63.248C275.453 60.928 275.789 57.232 275.789 54.576V50.896H278.349V60.784C278.349 62.16 278.445 62.464 278.733 62.736C278.973 62.992 279.389 63.088 279.725 63.088H280.557C280.909 63.088 281.213 63.024 281.469 62.848C281.709 62.672 281.853 62.384 281.933 61.92C282.013 61.488 282.077 60.352 282.077 59.472C281.725 59.344 281.277 59.12 280.989 58.848C280.989 59.872 280.957 60.672 280.925 61.024C280.909 61.392 280.861 61.52 280.797 61.616C280.717 61.696 280.621 61.728 280.509 61.728H280.141ZM286.739 53.424C288.163 52.352 289.379 51.152 290.147 50.032C290.995 51.2 292.307 52.4 293.747 53.424H286.739ZM286.435 54.8H293.923V53.552C294.851 54.208 295.827 54.768 296.755 55.216C297.011 54.768 297.347 54.24 297.699 53.872C295.203 52.896 292.547 50.944 290.851 48.592H289.315C288.115 50.544 285.507 52.848 282.771 54.096C283.091 54.416 283.491 54.976 283.651 55.312C284.611 54.848 285.555 54.272 286.435 53.648V54.8ZM283.683 57.856H287.651C287.267 58.928 286.691 60.208 286.163 61.2L283.795 61.28L283.987 62.736C286.707 62.624 290.771 62.448 294.579 62.256C294.867 62.64 295.107 62.992 295.283 63.296L296.643 62.448C295.907 61.264 294.387 59.568 292.931 58.336L291.651 59.024C292.275 59.584 292.915 60.256 293.507 60.928C291.555 61.008 289.571 61.088 287.795 61.152C288.371 60.128 288.963 58.928 289.491 57.856H296.819V56.464H283.683V57.856ZM220.76 76.912V75.568H216.856C216.92 74.848 216.952 74.064 216.984 73.248H215.592C215.56 74.08 215.528 74.848 215.48 75.568H211.896V76.912H215.304C214.92 78.992 214.024 80.464 211.656 81.376C211.96 81.648 212.36 82.16 212.52 82.512C214.712 81.616 215.816 80.256 216.376 78.432C217.048 80.368 218.184 81.728 220.024 82.48C220.216 82.096 220.632 81.552 220.936 81.264C218.904 80.576 217.752 79.04 217.176 76.912H220.76ZM211.144 83.136V72.704H221.496V83.136H211.144ZM209.656 71.28V85.248H211.144V84.56H221.496V85.248H223.048V71.28H209.656ZM228.59 81.888C227.71 82.704 226.19 83.488 224.814 84.016C225.15 84.256 225.694 84.752 225.95 85.024C227.294 84.4 228.91 83.424 229.982 82.4L228.59 81.888ZM239.326 81.328C238.526 80.448 236.862 79.296 235.55 78.528L234.51 79.296C234.99 79.584 235.502 79.936 235.998 80.288C234.286 80.32 232.574 80.352 230.942 80.368C232.398 79.52 233.966 78.448 235.214 77.472L233.886 76.752C233.022 77.536 231.79 78.464 230.558 79.28C230.222 79.04 229.838 78.8 229.438 78.544C230.174 78.032 231.054 77.328 231.838 76.656H239.086V75.504H232.782V74.656H237.502V73.552H232.782V72.704H238.382V71.6H232.782V70.56H231.294V71.6H225.95V72.704H231.294V73.552H226.814V74.656H231.294V75.504H225.102V76.656H229.902C229.438 77.12 228.894 77.584 228.398 77.952C228.078 77.792 227.758 77.632 227.47 77.488L226.494 78.32C227.422 78.784 228.542 79.456 229.342 80.048C229.134 80.176 228.926 80.288 228.718 80.4C227.374 80.416 226.158 80.432 225.15 80.432L225.246 81.664C226.894 81.632 229.006 81.6 231.31 81.536V85.232H232.782V81.504C234.302 81.472 235.87 81.424 237.39 81.376C237.71 81.664 237.998 81.936 238.206 82.176L239.326 81.328ZM234.094 82.64C235.406 83.264 237.054 84.256 237.854 84.928L239.006 84.08C238.142 83.376 236.462 82.432 235.198 81.872L234.094 82.64ZM250.98 70.512C250.628 71.376 249.956 72.576 249.428 73.344L250.708 73.808C251.3 73.12 252.02 72.016 252.66 71.008L250.98 70.512ZM245.796 78.384V78.112V75.216L249.86 75.216V78.384L245.796 78.384ZM254.996 78.384H251.38V75.216H254.5V73.808L245.028 73.808L246.244 73.296C245.94 72.512 245.236 71.392 244.596 70.56L243.284 71.072C243.892 71.92 244.532 73.056 244.804 73.808H241.252V75.216H244.292V78.08V78.384H240.708V79.808H244.18C243.908 81.456 243.092 83.056 240.708 84.24C241.044 84.496 241.524 85.04 241.732 85.392C244.548 83.952 245.444 81.888 245.7 79.808H249.86V85.248H251.38V79.808H254.996V78.384ZM264.65 74.816H266.922V77.392H264.618C264.634 77.024 264.65 76.672 264.65 76.336V74.816ZM266.922 78.816V82.656H268.394V78.816H270.65V77.392H268.394V74.816H270.346V73.392H268.394V70.96H266.922V73.392H264.65V70.96H263.178V73.392H261.05V74.816H263.178V76.32C263.178 76.672 263.178 77.024 263.146 77.392H260.938V78.816H262.954C262.714 79.904 262.186 80.928 261.146 81.744C261.466 81.952 262.042 82.512 262.25 82.816C263.562 81.776 264.186 80.304 264.442 78.816H266.922ZM260.362 73.456C259.85 72.752 258.746 71.664 257.882 70.896L256.81 71.728C257.69 72.528 258.762 73.68 259.242 74.4L260.362 73.456ZM259.914 76.32H256.426V77.696H258.458V81.952C257.77 82.256 256.97 82.912 256.186 83.744L257.178 85.12C257.882 84.096 258.634 83.12 259.13 83.12C259.498 83.12 260.01 83.632 260.698 84.048C261.834 84.704 263.162 84.896 265.13 84.896C266.698 84.896 269.45 84.8 270.554 84.72C270.586 84.304 270.826 83.584 271.002 83.168C269.434 83.376 266.97 83.504 265.194 83.504C263.418 83.504 262.01 83.408 260.97 82.784C260.506 82.512 260.202 82.256 259.914 82.08V76.32ZM286.128 71.504H278.368V72.928H286.128V71.504ZM275.552 70.56C274.768 71.712 273.232 73.136 271.904 74C272.176 74.288 272.576 74.864 272.752 75.2C274.224 74.16 275.888 72.576 276.976 71.152L275.552 70.56ZM276.176 73.984C275.104 75.792 273.376 77.616 271.744 78.784C272.048 79.072 272.576 79.728 272.768 80.048C273.28 79.632 273.824 79.136 274.352 78.608V85.296H275.84V76.96C276.496 76.16 277.088 75.328 277.584 74.512L276.176 73.984ZM286.576 75.872H277.696V77.296H282.752V83.44C282.752 83.664 282.656 83.744 282.352 83.744C282.064 83.76 280.992 83.76 279.968 83.728C280.176 84.16 280.384 84.784 280.448 85.216C281.936 85.216 282.88 85.2 283.472 84.976C284.08 84.736 284.272 84.304 284.272 83.456V77.296H286.576V75.872ZM231.187 92.848C230.323 94.048 228.707 95.312 227.347 96.048C227.731 96.32 228.163 96.768 228.419 97.088C229.907 96.208 231.523 94.848 232.595 93.408L231.187 92.848ZM231.555 97.232C230.627 98.496 228.883 99.824 227.411 100.592C227.795 100.864 228.243 101.312 228.483 101.632C230.067 100.72 231.779 99.296 232.947 97.808L231.555 97.232ZM220.995 95.696H225.427V96.528H220.995V95.696ZM220.995 94.032H225.427V94.848H220.995V94.032ZM227.715 98.256H223.859V97.408H226.803V93.136H219.667V97.408H222.483V98.256H218.611V99.424H227.715V98.256ZM220.195 103.824C219.843 104.672 219.203 105.504 218.483 106.096C218.803 106.256 219.331 106.608 219.571 106.832C220.259 106.176 221.011 105.136 221.475 104.144L220.195 103.824ZM221.075 101.232H225.331V102.48H221.075V101.232ZM226.675 103.488V100.224H219.795V103.488H222.483V105.888C222.483 106.064 222.435 106.096 222.259 106.096C222.051 106.128 221.443 106.112 220.771 106.096C220.963 106.4 221.219 106.896 221.315 107.248C222.195 107.248 222.803 107.248 223.267 107.04C223.731 106.864 223.859 106.544 223.859 105.92V103.488H226.675ZM231.939 101.632C230.995 103.376 229.203 104.864 227.299 105.808C226.931 105.216 226.275 104.416 225.747 103.84L224.643 104.384C225.235 105.072 225.955 106.016 226.259 106.624L227.011 106.224C227.331 106.528 227.667 106.944 227.843 107.248C230.147 106.128 232.163 104.352 233.379 102.16L231.939 101.632ZM237.705 95.408V101.712H236.137V95.408H237.705ZM238.937 94.032H234.825V104.56H236.137V103.088H238.937V94.032ZM245.033 99.136V102.4H243.529V99.136H245.033ZM246.041 103.472V98.064H242.505V104.352H243.529V103.472H246.041ZM248.569 95.216H244.137C244.473 94.512 244.825 93.664 245.145 92.88L243.417 92.544C243.225 93.328 242.921 94.384 242.585 95.216H239.977V107.168H241.401V96.496H247.129V105.632C247.129 105.84 247.065 105.904 246.857 105.92C246.665 105.92 246.009 105.936 245.385 105.888C245.545 106.256 245.753 106.864 245.817 107.232C246.825 107.248 247.497 107.216 247.961 106.976C248.425 106.768 248.569 106.368 248.569 105.648V95.216ZM254.255 95.376C253.743 94.704 252.639 93.696 251.807 92.992L250.879 93.888C251.711 94.656 252.767 95.728 253.263 96.416L254.255 95.376ZM253.519 103.968V97.504H250.111V98.928H252.143V104.416C252.143 105.104 251.711 105.536 251.407 105.744C251.647 106.032 251.967 106.624 252.095 106.976C252.335 106.64 252.767 106.272 255.423 104.16C255.263 103.856 255.007 103.28 254.879 102.912L253.519 103.968ZM264.735 100.384L260.447 100.384V94.768L264.063 94.768V93.344L255.135 93.344V94.768H258.943V100.384H254.719V101.792H258.943V107.248H260.447V101.792L264.735 101.792V100.384ZM255.583 95.84C255.983 97.04 256.319 98.624 256.415 99.68L257.743 99.312C257.631 98.304 257.279 96.736 256.831 95.52L255.583 95.84ZM262.703 99.744C263.103 98.752 263.567 97.184 263.967 95.84L262.495 95.504C262.319 96.704 261.887 98.384 261.535 99.424L262.703 99.744ZM269.269 92.64C268.405 94.976 266.981 97.312 265.477 98.8C265.717 99.152 266.149 99.952 266.293 100.304C266.741 99.84 267.189 99.296 267.621 98.704V107.232H269.029V96.528C269.653 95.424 270.229 94.24 270.661 93.072L269.269 92.64ZM278.021 105.168H272.677V101.824H278.021V105.168ZM280.469 97.392V95.952H276.085V92.56H274.549V95.952H270.373V97.392H274.549V100.416H271.205V107.248H272.677V106.576H278.021V107.184H279.541V100.416H276.085V97.392H280.469Z" fill="#435CE7"/>
<rect x="347" width="153" height="153" rx="10" fill="#F6F7FE"/>
<path d="M381.633 53.456C382.513 52.624 383.345 51.68 384.065 50.656C384.865 51.616 385.857 52.592 386.897 53.456H381.633ZM381.441 54.72H386.913V53.472C387.505 53.968 388.113 54.4 388.705 54.784C388.849 54.4 389.169 53.76 389.441 53.408C387.825 52.528 385.921 50.944 384.801 49.504C384.897 49.312 385.009 49.12 385.105 48.912L383.825 48.448C382.737 50.592 380.833 52.576 378.865 53.776C379.137 54.064 379.569 54.688 379.745 54.992C380.305 54.592 380.897 54.128 381.441 53.632V54.72ZM385.185 59.504C385.073 58.48 384.817 56.96 384.497 55.76L383.345 55.92C383.601 57.104 383.889 58.672 383.969 59.696L385.185 59.504ZM382.449 59.856C382.305 58.816 381.889 57.264 381.441 56.08L380.289 56.368C380.705 57.584 381.105 59.152 381.249 60.176L382.449 59.856ZM379.857 56.304C379.617 55.84 378.481 54.064 378.081 53.504V52.912H379.553V51.52H378.081V48.592L376.721 48.592V51.52H374.753V52.912H376.609C376.193 54.864 375.393 57.168 374.529 58.4C374.753 58.784 375.089 59.44 375.233 59.888C375.777 59.024 376.305 57.712 376.721 56.304V63.248H378.081V55.36C378.433 56.08 378.817 56.848 378.993 57.312L379.857 56.304ZM387.233 55.76C386.737 57.424 385.777 59.728 384.977 61.232L379.489 61.232V62.544L388.897 62.544V61.232H386.193C386.993 59.792 387.889 57.76 388.545 56.08L387.233 55.76ZM390.887 62.784H404.583V61.456H390.887V62.784ZM400.615 57.488H394.663V56.416H400.615V57.488ZM400.615 59.568H394.663V58.48H400.615V59.568ZM393.191 55.392V60.608H402.151V55.392H393.191ZM404.759 51.792V50.496H398.391V48.576H396.919V50.496H390.663V51.792H395.399C394.103 53.168 392.151 54.4 390.295 55.008C390.599 55.312 391.031 55.856 391.239 56.208C393.351 55.36 395.511 53.824 396.919 52.016V54.912H398.391V52.016C399.847 53.776 402.007 55.296 404.119 56.08C404.327 55.712 404.791 55.152 405.095 54.88C403.191 54.272 401.207 53.136 399.879 51.792H404.759ZM420.141 51.104C419.661 50.464 418.637 49.568 417.789 48.96L416.781 49.712C417.613 50.368 418.621 51.328 419.069 51.952L420.141 51.104ZM409.613 48.672C408.781 51.072 407.389 53.472 405.933 55.024C406.205 55.376 406.621 56.176 406.765 56.496C407.245 55.968 407.725 55.36 408.173 54.688V63.264H409.613V52.256C410.141 51.216 410.621 50.16 411.005 49.088L409.613 48.672ZM417.053 61.52C416.509 61.52 416.413 61.408 416.413 60.864V54.832H415.645C415.693 54.448 415.725 54.08 415.741 53.696H420.541V52.288H415.821C415.853 51.136 415.869 49.968 415.869 48.768H414.397C414.397 49.984 414.397 51.152 414.349 52.288H410.541V53.696H414.285C414.029 57.36 413.165 60.352 410.045 62.144C410.429 62.432 410.893 62.928 411.117 63.296C413.117 62.08 414.269 60.384 414.941 58.352V60.88C414.941 62.432 415.325 62.896 416.845 62.896H418.941C420.301 62.896 420.685 62.192 420.829 59.68C420.445 59.568 419.821 59.328 419.501 59.072C419.437 61.152 419.341 61.52 418.829 61.52H417.053ZM432.595 61.616C432.051 61.616 431.955 61.536 431.955 61.04V56.72H436.227V55.28H429.971V52.336L435.043 52.336V50.912L429.971 50.912V48.576H428.467V50.912H425.971C426.179 50.32 426.355 49.728 426.515 49.184L424.995 48.896C424.643 50.512 423.859 52.656 422.787 53.968C423.155 54.112 423.747 54.432 424.099 54.672C424.595 54.016 425.027 53.2 425.411 52.336H428.467V55.28L422.227 55.28V56.72H426.195C425.923 59.104 425.267 61.04 421.987 62.048C422.323 62.368 422.739 62.96 422.915 63.36C426.547 62.032 427.411 59.68 427.763 56.72L430.451 56.72V61.04C430.451 62.544 430.835 63.024 432.419 63.024H434.499C435.859 63.024 436.259 62.368 436.403 59.92C436.019 59.808 435.379 59.568 435.059 59.312C434.995 61.296 434.899 61.616 434.371 61.616H432.595ZM438.345 55.776C438.345 58.272 438.233 60.512 437.417 62.352C437.737 62.544 438.217 62.976 438.441 63.264C439.481 61.184 439.593 58.64 439.593 55.776V49.168H438.345V55.776ZM440.569 61.04H441.705V50.304H440.569V61.04ZM442.697 62.8H443.993V49.104H442.697V62.8ZM448.745 59.552C448.969 58.832 449.033 58.096 449.033 57.408V54.336H447.657V57.408C447.657 58.944 447.305 61.072 444.105 62.304C444.441 62.56 444.841 63.04 445.033 63.312C446.841 62.56 447.849 61.552 448.393 60.48C449.401 61.36 450.569 62.496 451.129 63.232L452.185 62.336C451.513 61.504 450.105 60.256 449.001 59.376L448.745 59.552ZM444.681 49.248V50.528H447.545C447.433 50.992 447.289 51.52 447.145 51.968H445.065V59.568H446.393V53.296H450.281V59.52H451.673V51.968H448.553C448.729 51.536 448.921 51.024 449.113 50.528H452.201V49.248H444.681ZM466.559 56.64H464.207L464.287 56.56C463.967 56.368 463.583 56.144 463.135 55.92C464.399 55.2 465.631 54.224 466.543 53.312L465.567 52.56L465.231 52.64H457.407V53.84H463.935C463.327 54.368 462.575 54.912 461.855 55.312C461.071 54.96 460.255 54.608 459.551 54.336L458.655 55.2C459.631 55.6 460.783 56.128 461.775 56.64H456.575V57.904H461.247V61.632C461.247 61.856 461.167 61.92 460.863 61.936C460.559 61.952 459.471 61.952 458.399 61.904C458.591 62.304 458.815 62.864 458.879 63.28C460.303 63.28 461.279 63.296 461.903 63.072C462.575 62.864 462.735 62.48 462.735 61.664V57.904H465.647C465.151 58.656 464.591 59.408 464.095 59.936L465.279 60.528C466.111 59.648 467.071 58.272 467.887 57.008L466.799 56.56L466.559 56.64ZM461.951 50.288V48.576H460.399V50.288H454.639V54.64C454.639 56.96 454.527 60.208 453.231 62.48C453.551 62.64 454.207 63.056 454.463 63.312C455.855 60.88 456.095 57.152 456.095 54.656V51.664H467.887V50.288H461.951ZM378.238 77.296C377.646 78.928 376.702 80.24 375.518 81.28C374.222 80.208 373.278 78.864 372.622 77.296H378.238ZM375.966 72.848C375.822 73.792 375.646 74.896 375.438 75.888H371.598C371.71 74.864 371.79 73.84 371.838 72.848H375.966ZM379.15 75.808L378.862 75.888H377.022C377.294 74.464 377.566 72.816 377.71 71.472L376.574 71.328L376.302 71.392H367.55V72.848H370.254C370.126 76.816 369.646 81.568 366.638 84.016C366.99 84.224 367.566 84.72 367.838 85.008C369.886 83.296 370.862 80.528 371.358 77.616C372.062 79.44 373.022 80.976 374.286 82.192C373.022 82.992 371.566 83.552 370.014 83.888C370.318 84.208 370.67 84.816 370.846 85.216C372.558 84.768 374.126 84.112 375.486 83.2C376.846 84.16 378.478 84.848 380.478 85.264C380.702 84.832 381.134 84.16 381.486 83.808C379.646 83.504 378.078 82.944 376.782 82.176C378.334 80.736 379.518 78.816 380.142 76.24L379.15 75.808ZM383.764 75.6C384.02 75.2 384.26 74.688 384.468 74.144H386.34V75.6H383.764ZM387.748 74.144H390.804V72.8H387.748V70.672H386.34V72.8H384.948C385.092 72.288 385.236 71.744 385.364 71.216L383.972 70.928C383.668 72.448 383.14 74.032 382.436 75.088C382.788 75.216 383.38 75.424 383.684 75.6H382.58V76.96H386.34V78.384H383.268V83.984H384.596V79.712H386.34V85.248H387.748V79.712H389.604V82.56C389.604 82.72 389.556 82.768 389.396 82.768C389.236 82.784 388.756 82.784 388.18 82.768C388.372 83.12 388.548 83.664 388.58 84.032C389.412 84.048 390.02 84.032 390.436 83.808C390.852 83.584 390.948 83.2 390.948 82.592V78.384H387.748V76.96H391.428V75.6H387.748V74.144ZM393.78 71.984H392.404V80.832H393.78V71.984ZM395.22 70.8V83.376C395.22 83.632 395.14 83.712 394.884 83.712C394.612 83.728 393.748 83.728 392.852 83.696C393.06 84.128 393.268 84.816 393.332 85.216C394.532 85.216 395.428 85.184 395.94 84.928C396.468 84.672 396.66 84.256 396.66 83.36V70.8H395.22ZM400.362 73.712H410.746V75.984H412.266V72.304H406.346V70.592H404.762V72.304H398.906V75.984H400.362V73.712ZM406.33 80.56H410.906V79.168H406.33V76.816H410.106V75.392H401.098V76.816H404.794V83.024C403.642 82.544 402.746 81.696 402.186 80.208C402.346 79.552 402.474 78.848 402.57 78.112L401.034 77.968C400.698 80.768 399.882 83.008 398.122 84.32C398.49 84.56 399.114 85.072 399.354 85.344C400.346 84.496 401.082 83.376 401.61 82.016C403.066 84.528 405.37 85.056 408.506 85.056H412.314C412.378 84.624 412.634 83.904 412.874 83.552C411.962 83.584 409.274 83.584 408.586 83.584C407.786 83.584 407.034 83.536 406.33 83.44V80.56ZM428.4 73.936V72.528H423.136C422.928 71.92 422.56 71.104 422.208 70.432L420.736 70.8C420.992 71.328 421.248 71.968 421.456 72.528L415.248 72.528V76.832C415.248 79.088 415.136 82.304 413.936 84.544C414.288 84.688 414.96 85.12 415.232 85.392C416.544 82.976 416.752 79.296 416.752 76.832V73.936L428.4 73.936ZM423.6 80.288C423.36 78.816 422.768 76.624 422.224 74.896L420.864 75.248C421.376 76.976 421.952 79.232 422.16 80.704L423.6 80.288ZM420.656 81.056C420.304 79.584 419.552 77.392 418.848 75.68L417.552 76.176C418.192 77.904 418.96 80.16 419.264 81.648L420.656 81.056ZM424.448 83.152C425.872 80.752 427.04 77.952 427.792 75.36L426.224 74.816C425.616 77.52 424.432 80.736 422.896 83.152H416.768V84.56H428.592V83.152H424.448ZM435.558 72.544L435.302 72.608H430.246V74.016H434.902C434.678 75.52 434.358 76.912 433.894 78.176C433.094 77.376 432.262 76.592 431.462 75.904L430.438 76.848C431.382 77.68 432.374 78.672 433.286 79.68C432.39 81.616 431.206 83.104 429.782 84.032C430.15 84.304 430.598 84.88 430.838 85.232C432.246 84.192 433.446 82.784 434.374 80.944C435.03 81.776 435.59 82.576 435.958 83.264L437.126 82.16C436.678 81.344 435.926 80.384 435.062 79.392C435.766 77.568 436.262 75.376 436.534 72.832L435.558 72.544ZM439.926 80.64C439.67 79.68 438.918 78.256 438.166 77.184L436.95 77.76C437.686 78.864 438.39 80.336 438.63 81.28L439.926 80.64ZM444.39 74.272H442.582V70.592H441.11V74.272H436.822V75.712H441.11V83.328C441.11 83.616 440.998 83.696 440.726 83.696C440.454 83.712 439.59 83.712 438.63 83.68C438.838 84.112 439.062 84.832 439.126 85.264C440.454 85.264 441.318 85.2 441.862 84.944C442.374 84.688 442.582 84.24 442.582 83.328V75.712H444.39V74.272ZM459.66 73.44C459.356 72.832 458.636 71.888 458.044 71.184L457.02 71.744C457.596 72.464 458.284 73.472 458.588 74.112L459.66 73.44ZM447.484 82.72V79.008H451.436V82.72H447.484ZM449.916 77.68V74.832H453.1V73.52H449.916V70.72H448.492V77.68H446.172V84.976H447.484V84.064H451.436V84.896H452.812V77.68H449.916ZM458.732 76.528C458.348 77.728 457.756 78.896 457.052 79.984C456.86 78.944 456.684 77.728 456.54 76.384L460.108 75.872L459.916 74.592L456.428 75.104C456.348 73.712 456.268 72.224 456.236 70.688H454.86C454.908 72.32 454.988 73.84 455.1 75.28L452.972 75.584L453.18 76.88L455.196 76.592C455.372 78.448 455.612 80.096 455.948 81.424C455.036 82.48 453.98 83.344 452.812 83.904C453.212 84.176 453.66 84.608 453.9 84.96C454.796 84.432 455.644 83.744 456.412 82.928C456.972 84.384 457.724 85.232 458.716 85.28C459.356 85.296 460.012 84.64 460.38 82.096C460.14 81.952 459.564 81.568 459.308 81.28C459.212 82.768 459.004 83.568 458.7 83.568C458.22 83.536 457.82 82.848 457.468 81.696C458.492 80.32 459.324 78.736 459.852 77.152L458.732 76.528ZM469.17 79.424C470.05 78.928 470.898 78.336 471.682 77.664C472.402 78.32 473.234 78.928 474.13 79.424H469.17ZM469.65 83.376V80.736H473.57V83.376H469.65ZM467.186 75.456C467.442 75.696 467.714 75.952 467.858 76.128C468.322 75.728 468.802 75.264 469.234 74.736C469.634 75.376 470.13 76.048 470.706 76.688C469.634 77.6 468.418 78.336 467.186 78.848V75.456ZM464.946 80.752V77.216H466.018V80.752H464.946ZM462.946 77.216H463.986V80.752H462.946V77.216ZM463.986 72.8V75.968H462.946V72.8H463.986ZM466.018 75.968H464.946V72.8H466.018V75.968ZM473.346 73.456C472.914 74.288 472.338 75.056 471.666 75.76C471.01 75.088 470.466 74.352 470.066 73.664L470.21 73.456H473.346ZM474.322 72.144L474.066 72.208H470.962C471.186 71.792 471.394 71.36 471.57 70.928L470.178 70.528C469.538 72.144 468.434 73.68 467.186 74.736V71.504H461.826V83.408H462.946V82.032H467.186V79.488C467.362 79.712 467.538 79.968 467.65 80.176C467.842 80.096 468.05 80 468.242 79.904V85.2H469.65V84.688H473.57V85.184H475.01V79.856C475.122 79.904 475.234 79.952 475.346 80C475.554 79.616 476.002 79.024 476.306 78.752C474.93 78.288 473.698 77.552 472.674 76.704C473.778 75.552 474.69 74.192 475.282 72.624L474.322 72.144ZM388.575 108.88H389.855L394.303 93.232H393.023L388.575 108.88ZM397.263 95.632H407.439V97.648H408.991V94.24H403.167V92.56H401.551V94.24H395.791V97.648H397.263V95.632ZM401.439 97.936C400.959 97.392 399.919 96.688 399.071 96.224L398.191 97.2C399.039 97.696 400.047 98.464 400.495 99.008L401.439 97.936ZM396.607 99.632C397.471 100.112 398.527 100.864 399.023 101.408L399.935 100.304C399.407 99.76 398.335 99.056 397.471 98.64L396.607 99.632ZM409.279 101.76H403.263C403.663 100.256 403.775 98.464 403.839 96.368H402.271C402.207 98.56 402.143 100.336 401.647 101.76H395.551V103.024H401.023C400.143 104.368 398.543 105.328 395.695 105.936C396.015 106.256 396.383 106.832 396.527 107.232C399.647 106.496 401.407 105.344 402.415 103.728C404.623 104.784 406.751 106.112 408.015 107.248L409.007 106.112C407.823 105.136 405.935 104 403.935 103.024H409.279V101.76ZM420.613 105.936C419.765 105.936 419.637 105.824 419.637 105.2V101.024L420.853 100.448V104.48H422.117V99.856L423.509 99.2C423.509 100.944 423.493 102.112 423.461 102.304C423.413 102.528 423.333 102.576 423.173 102.576C423.045 102.576 422.725 102.576 422.469 102.56C422.613 102.848 422.725 103.328 422.757 103.68C423.141 103.696 423.653 103.68 424.005 103.552C424.421 103.408 424.677 103.136 424.709 102.576C424.773 102.128 424.773 100.288 424.773 98.016L424.837 97.808L423.925 97.472L423.669 97.648L423.541 97.744L422.117 98.4V96.576H420.853V98.992L419.637 99.552V97.76H418.405C418.757 97.248 419.093 96.688 419.381 96.064H425.317V94.704H419.941C420.149 94.112 420.325 93.488 420.485 92.864L419.013 92.56C418.709 93.936 418.213 95.248 417.573 96.304V95.088H414.933V92.592H413.509V95.088H410.853V96.464H412.501C412.437 100.288 412.261 104.048 410.661 106.24C411.045 106.464 411.509 106.912 411.749 107.248C413.077 105.44 413.573 102.768 413.781 99.808H415.397C415.333 103.936 415.237 105.424 414.997 105.744C414.869 105.936 414.725 105.984 414.517 105.968C414.277 105.968 413.765 105.968 413.173 105.92C413.381 106.272 413.525 106.848 413.557 107.248C414.197 107.264 414.821 107.264 415.221 107.2C415.637 107.152 415.925 107.024 416.181 106.624C416.597 106.08 416.677 104.256 416.773 99.072C416.789 98.88 416.789 98.448 416.789 98.448H413.861C413.877 97.792 413.893 97.136 413.909 96.464H417.477C417.237 96.848 416.981 97.184 416.693 97.488C417.013 97.728 417.589 98.272 417.813 98.528C417.989 98.336 418.149 98.128 418.309 97.904V100.176L416.933 100.816L417.477 102.048L418.309 101.648V105.184C418.309 106.784 418.757 107.2 420.485 107.2H423.509C424.933 107.2 425.349 106.64 425.525 104.704C425.141 104.624 424.613 104.4 424.293 104.176C424.213 105.648 424.085 105.936 423.413 105.936H420.613ZM431.531 95.168C430.987 94.496 429.819 93.504 428.923 92.8L427.979 93.76C428.859 94.512 429.995 95.584 430.523 96.256L431.531 95.168ZM430.571 104.016V97.504H426.635V98.976H429.051V104.272C429.051 104.976 428.571 105.472 428.235 105.664C428.507 106 428.875 106.656 429.003 107.056C429.275 106.704 429.771 106.32 432.843 104.096C432.715 103.808 432.475 103.184 432.379 102.752L430.571 104.016ZM441.195 97.728H437.323V92.64H435.739V97.728L431.803 97.728V99.264L435.739 99.264V107.264H437.323V99.264H441.195V97.728ZM449.793 94.976C449.313 94.352 448.321 93.456 447.505 92.832L446.497 93.632C447.313 94.288 448.289 95.264 448.737 95.888L449.793 94.976ZM451.073 97.584L450.929 96.176L446.049 96.72C445.921 95.408 445.841 94.032 445.857 92.592H444.337C444.353 94.048 444.433 95.504 444.577 96.896L442.209 97.168L442.369 98.576L444.737 98.304C444.977 100.08 445.313 101.728 445.761 103.088C444.721 104.176 443.537 105.072 442.241 105.76C442.545 106.048 443.073 106.624 443.265 106.928C444.353 106.272 445.377 105.488 446.305 104.576C447.057 106.192 447.969 107.184 449.089 107.184C450.321 107.184 450.833 106.496 451.073 103.92C450.705 103.776 450.161 103.456 449.841 103.12C449.745 104.976 449.569 105.696 449.201 105.696C448.609 105.696 447.969 104.816 447.425 103.36C448.561 102.048 449.489 100.496 450.209 98.816L448.817 98.384C448.321 99.6 447.681 100.72 446.929 101.728C446.641 100.672 446.385 99.472 446.225 98.128L451.073 97.584ZM453.185 94.288H451.761V103.008H453.185V94.288ZM454.801 92.736V105.44C454.801 105.728 454.689 105.808 454.401 105.808C454.145 105.824 453.217 105.824 452.273 105.792C452.465 106.208 452.705 106.864 452.769 107.264C454.129 107.264 454.977 107.216 455.521 106.976C456.049 106.736 456.241 106.32 456.241 105.44V92.736H454.801Z" fill="#435CE7"/>
<rect x="520" width="153" height="153" rx="10" fill="#F5F5F5"/>
<path d="M564.1 65.672V68.872H560.42V65.672H564.1ZM565.572 70.28V64.264H558.98V71.528H560.42V70.28H565.572ZM571.62 60.68H557.412V62.168H568.164V72.248C568.164 72.584 568.052 72.68 567.7 72.696C567.316 72.696 565.988 72.712 564.772 72.648C565.012 73.08 565.316 73.816 565.396 74.248C566.996 74.248 568.116 74.232 568.804 73.96C569.476 73.736 569.716 73.24 569.716 72.28V62.168H571.62V60.68ZM577.706 66.408L576.282 66.84V64.072H577.818V62.696H576.282V59.608H574.906V62.696H572.97V64.072H574.906V67.224C574.09 67.464 573.338 67.672 572.746 67.832L573.082 69.272L574.906 68.696V72.552C574.906 72.776 574.826 72.84 574.634 72.84C574.458 72.84 573.85 72.84 573.226 72.824C573.402 73.208 573.578 73.848 573.626 74.2C574.634 74.216 575.274 74.152 575.706 73.928C576.122 73.688 576.282 73.304 576.282 72.552V68.28L577.898 67.768L577.706 66.408ZM579.258 69.832C579.946 70.696 580.682 71.88 580.97 72.648L582.234 71.896C581.898 71.128 581.114 69.992 580.426 69.176L579.258 69.832ZM587.594 65.976V64.616H583.562V62.888L586.842 62.888V61.528L583.562 61.528V59.64L582.138 59.64V61.528H578.81V62.888H582.138V64.616H578.058V65.976H584.202V67.528H578.234V68.888H584.202V72.568C584.202 72.792 584.138 72.856 583.898 72.872C583.658 72.888 582.826 72.888 582.01 72.84C582.202 73.24 582.394 73.848 582.458 74.264C583.61 74.264 584.41 74.248 584.938 74.024C585.45 73.8 585.61 73.4 585.61 72.6V68.888H587.498V67.528H585.61V65.976H587.594ZM601.936 66.776C602.32 65.976 602.704 64.728 603.024 63.624L602.08 63.4L601.84 63.448H599.248V62.2H602.16V60.952H599.248V59.592H597.792V60.952H595.008V62.2H597.792V63.448H594.432V64.712H601.376C601.2 65.368 600.976 66.024 600.784 66.504L601.936 66.776ZM598.112 66.472C597.696 66.056 596.848 65.512 596.16 65.144L595.52 65.88C596.192 66.264 597.024 66.84 597.44 67.272L598.112 66.472ZM597.072 67.96C596.624 67.528 595.744 66.92 595.04 66.552L594.352 67.288C595.072 67.688 595.936 68.344 596.368 68.792L597.072 67.96ZM591.216 68.056C592.256 66.728 593.248 65.128 594.08 63.592L592.944 62.888C592.688 63.496 592.368 64.088 592.048 64.648L590.416 64.792C591.328 63.464 592.224 61.8 592.864 60.2L591.584 59.608C590.976 61.48 589.856 63.544 589.52 64.056C589.168 64.584 588.896 64.952 588.608 65.032C588.768 65.384 588.976 66.024 589.04 66.312C589.28 66.184 589.648 66.104 591.28 65.912C590.688 66.824 590.16 67.576 589.904 67.864C589.424 68.456 589.072 68.84 588.736 68.92C588.88 69.256 589.088 69.864 589.152 70.136C589.504 69.896 590.048 69.704 593.712 68.696C593.664 68.424 593.632 67.848 593.648 67.464L591.216 68.056ZM593.616 70.168C591.808 70.824 589.936 71.496 588.704 71.896L589.04 73.272C590.416 72.728 592.192 72.056 593.872 71.368L593.616 70.168ZM602.944 70.12V68.84H599.424C599.536 68.232 599.568 67.64 599.568 67.08V65.256H598.208V67.032C598.208 67.608 598.176 68.216 598.016 68.84H594.096V70.12H597.552C596.96 71.24 595.824 72.328 593.76 73.192C594.032 73.464 594.464 73.976 594.64 74.296C597.248 73.16 598.512 71.64 599.088 70.12H602.944ZM598.96 71.368C600.176 72.216 601.648 73.464 602.336 74.296L603.296 73.368C602.576 72.552 601.056 71.368 599.856 70.552L598.96 71.368ZM619.238 66.056C618.406 65.528 616.934 64.792 615.59 64.216C616.662 63.272 617.558 62.152 618.166 60.872L617.126 60.328L616.838 60.392H610.55V61.736H615.878C614.454 63.672 611.926 65.208 609.478 65.976C609.798 66.296 610.182 66.872 610.39 67.24C611.782 66.728 613.19 66.04 614.438 65.144C615.846 65.8 617.51 66.648 618.358 67.24L619.238 66.056ZM607.062 68.136C608.262 66.808 609.43 65.256 610.406 63.672L609.126 62.84C608.822 63.4 608.486 63.976 608.118 64.52L606.246 64.696C607.158 63.384 608.086 61.768 608.758 60.2L607.35 59.544C606.742 61.4 605.574 63.432 605.206 63.928C604.854 64.472 604.582 64.824 604.262 64.904C604.438 65.288 604.694 66.008 604.742 66.312C604.998 66.184 605.414 66.088 607.174 65.848C606.534 66.744 605.958 67.416 605.654 67.72C605.142 68.28 604.758 68.648 604.374 68.728C604.55 69.128 604.79 69.832 604.854 70.136C605.254 69.912 605.846 69.736 609.846 68.952C609.83 68.648 609.83 68.04 609.878 67.656L607.062 68.136ZM609.766 70.664C607.798 71.144 605.75 71.64 604.422 71.912L604.694 73.384C606.182 72.984 608.102 72.472 609.926 71.976L609.766 70.664ZM615.19 69H618.326V67.656H610.678V69H613.702V72.472H609.718V73.864H619.11V72.472H615.19V69ZM631.58 70.904V72.536H623.596V70.904H631.58ZM622.188 74.296H623.596V73.752H631.58V74.264H633.068V69.624H622.188V74.296ZM630.3 67.768H624.764V66.552H630.3V67.768ZM623.372 65.528V68.792H631.756V65.528H623.372ZM620.94 66.68H622.3V64.68H632.764V66.68H634.188V63.512H620.94V66.68ZM631.068 60.808V59.592H629.596V60.808H625.34V59.592H623.868V60.808H620.524V62.152H623.868V63.112H625.34V62.152H629.596V63.112H631.068V62.152H634.508V60.808H631.068ZM562.02 86.68V85.304H560.388V81.592H558.964V85.304H557.284V86.68H558.964V96.264H560.388V86.68H562.02ZM562.516 87.416C562.26 88.888 561.748 90.344 561.06 91.32C561.38 91.496 561.94 91.88 562.196 92.072C562.916 91 563.508 89.336 563.86 87.688L562.516 87.416ZM572.052 91.976C571.876 90.856 571.396 88.92 570.948 87.448L569.764 87.688C569.78 86.952 569.812 86.152 569.828 85.272V84.568H566.516V81.72H565.108V84.568H562.452V86.008H565.092C564.98 88.984 564.324 92.568 560.996 95.256C561.364 95.48 561.892 95.96 562.148 96.296C565.716 93.304 566.388 89.32 566.5 86.008H568.388C568.26 91.816 568.1 93.992 567.716 94.472C567.556 94.68 567.396 94.728 567.108 94.728C566.772 94.728 566.004 94.712 565.14 94.648C565.396 95.048 565.556 95.656 565.588 96.072C566.42 96.104 567.252 96.12 567.764 96.056C568.292 95.976 568.66 95.832 568.98 95.336C569.46 94.712 569.62 92.84 569.764 87.864C570.196 89.352 570.596 91.208 570.74 92.312L572.052 91.976ZM583.61 85.176C583.37 84.28 582.714 82.872 582.074 81.8L580.826 82.312C581.418 83.416 582.042 84.856 582.266 85.768L583.61 85.176ZM577.034 84.44C576.65 83.752 575.738 82.728 575.05 81.976L573.978 82.744C574.682 83.528 575.514 84.6 575.914 85.32L577.034 84.44ZM576.554 93.064V86.504H573.034V87.928H575.114V93.144C575.114 94.008 574.682 94.584 574.362 94.856C574.618 95.064 574.97 95.496 575.162 95.816L575.178 95.896L575.194 95.88L575.21 95.912V95.848C575.466 95.528 576.026 95.096 578.778 93.112C578.634 92.824 578.426 92.232 578.33 91.848L576.554 93.064ZM585.434 82.52C584.938 85.736 584.138 88.68 582.474 91.048C580.922 88.904 579.994 86.12 579.418 82.904L578.026 83.112C578.714 86.856 579.738 89.928 581.482 92.28C580.426 93.432 579.082 94.392 577.386 95.128C577.69 95.4 578.106 95.944 578.314 96.264C579.994 95.496 581.322 94.536 582.426 93.4C583.546 94.584 584.922 95.528 586.634 96.216C586.874 95.832 587.322 95.224 587.674 94.92C585.962 94.312 584.57 93.384 583.434 92.2C585.37 89.608 586.298 86.36 586.922 82.744L585.434 82.52ZM592.544 86.424C593.968 85.352 595.184 84.152 595.952 83.032C596.8 84.2 598.112 85.4 599.552 86.424H592.544ZM592.24 87.8H599.728V86.552C600.656 87.208 601.632 87.768 602.56 88.216C602.816 87.768 603.152 87.24 603.504 86.872C601.008 85.896 598.352 83.944 596.656 81.592H595.12C593.92 83.544 591.312 85.848 588.576 87.096C588.896 87.416 589.296 87.976 589.456 88.312C590.416 87.848 591.36 87.272 592.24 86.648V87.8ZM589.488 90.856H593.456C593.072 91.928 592.496 93.208 591.968 94.2L589.6 94.28L589.792 95.736C592.512 95.624 596.576 95.448 600.384 95.256C600.672 95.64 600.912 95.992 601.088 96.296L602.448 95.448C601.712 94.264 600.192 92.568 598.736 91.336L597.456 92.024C598.08 92.584 598.72 93.256 599.312 93.928C597.36 94.008 595.376 94.088 593.6 94.152C594.176 93.128 594.768 91.928 595.296 90.856H602.624V89.464H589.488V90.856ZM609.814 88.392C609.286 88.552 608.726 88.68 608.182 88.824V86.136H609.862V84.696H608.182V81.592H606.662V84.696H604.534V86.136H606.662V89.24C605.782 89.448 604.966 89.656 604.31 89.816L604.662 91.336C605.27 91.176 605.942 91 606.662 90.792V94.504C606.662 94.776 606.582 94.856 606.31 94.856C606.086 94.872 605.27 94.872 604.438 94.84C604.662 95.24 604.838 95.88 604.902 96.264C606.182 96.264 606.966 96.232 607.478 95.992C607.99 95.768 608.182 95.352 608.182 94.52V90.344L610.006 89.832L609.814 88.392ZM611.926 88.936H612.246C612.806 90.536 613.558 91.992 614.534 93.24C613.798 93.992 612.934 94.664 611.926 95.16V88.936ZM616.886 88.936C616.566 90.072 616.102 91.112 615.446 92.056C614.71 91.128 614.102 90.072 613.67 88.936H616.886ZM617.67 87.544L617.398 87.592H611.926V83.512H616.614C616.55 84.728 616.454 85.272 616.278 85.448C616.134 85.576 615.974 85.592 615.638 85.592C615.318 85.592 614.342 85.576 613.35 85.496C613.574 85.848 613.734 86.36 613.75 86.728C614.774 86.776 615.75 86.792 616.278 86.76C616.822 86.728 617.222 86.616 617.558 86.28C617.926 85.896 618.07 84.952 618.15 82.712C618.166 82.52 618.182 82.136 618.182 82.136H610.454V96.232H611.926V95.256C612.246 95.56 612.63 95.976 612.838 96.312C613.846 95.784 614.71 95.112 615.478 94.328C616.262 95.112 617.142 95.752 618.134 96.248C618.374 95.832 618.822 95.256 619.174 94.968C618.166 94.552 617.254 93.928 616.454 93.16C617.526 91.656 618.246 89.848 618.614 87.848L617.67 87.544ZM631.228 91.496V94.136H623.948V91.496H631.228ZM622.444 96.36H623.948V95.512H631.228V96.328H632.78V90.12H622.444V96.36ZM628.668 87.336V85.128H633.404V83.768H628.668V81.592H627.1V83.768L624.124 83.768C624.38 83.208 624.62 82.616 624.828 82.04L623.34 81.688C622.764 83.432 621.756 85.224 620.604 86.312C620.972 86.504 621.644 86.904 621.964 87.112C622.444 86.568 622.924 85.896 623.388 85.128L627.1 85.128V87.336L620.54 87.336V88.728L634.508 88.728V87.336H628.668Z" fill="#666666"/>
<rect x="693" width="153" height="153" rx="10" fill="#F5F5F5"/>
<path d="M737.1 65.672V68.872H733.42V65.672H737.1ZM738.572 70.28V64.264H731.98V71.528H733.42V70.28H738.572ZM744.62 60.68H730.412V62.168H741.164V72.248C741.164 72.584 741.052 72.68 740.7 72.696C740.316 72.696 738.988 72.712 737.772 72.648C738.012 73.08 738.316 73.816 738.396 74.248C739.996 74.248 741.116 74.232 741.804 73.96C742.476 73.736 742.716 73.24 742.716 72.28V62.168H744.62V60.68ZM750.706 66.408L749.282 66.84V64.072H750.818V62.696H749.282V59.608H747.906V62.696H745.97V64.072H747.906V67.224C747.09 67.464 746.338 67.672 745.746 67.832L746.082 69.272L747.906 68.696V72.552C747.906 72.776 747.826 72.84 747.634 72.84C747.458 72.84 746.85 72.84 746.226 72.824C746.402 73.208 746.578 73.848 746.626 74.2C747.634 74.216 748.274 74.152 748.706 73.928C749.122 73.688 749.282 73.304 749.282 72.552V68.28L750.898 67.768L750.706 66.408ZM752.258 69.832C752.946 70.696 753.682 71.88 753.97 72.648L755.234 71.896C754.898 71.128 754.114 69.992 753.426 69.176L752.258 69.832ZM760.594 65.976V64.616H756.562V62.888L759.842 62.888V61.528L756.562 61.528V59.64L755.138 59.64V61.528H751.81V62.888H755.138V64.616H751.058V65.976H757.202V67.528H751.234V68.888H757.202V72.568C757.202 72.792 757.138 72.856 756.898 72.872C756.658 72.888 755.826 72.888 755.01 72.84C755.202 73.24 755.394 73.848 755.458 74.264C756.61 74.264 757.41 74.248 757.938 74.024C758.45 73.8 758.61 73.4 758.61 72.6V68.888H760.498V67.528H758.61V65.976H760.594ZM774.936 66.776C775.32 65.976 775.704 64.728 776.024 63.624L775.08 63.4L774.84 63.448H772.248V62.2H775.16V60.952H772.248V59.592H770.792V60.952H768.008V62.2H770.792V63.448H767.432V64.712H774.376C774.2 65.368 773.976 66.024 773.784 66.504L774.936 66.776ZM771.112 66.472C770.696 66.056 769.848 65.512 769.16 65.144L768.52 65.88C769.192 66.264 770.024 66.84 770.44 67.272L771.112 66.472ZM770.072 67.96C769.624 67.528 768.744 66.92 768.04 66.552L767.352 67.288C768.072 67.688 768.936 68.344 769.368 68.792L770.072 67.96ZM764.216 68.056C765.256 66.728 766.248 65.128 767.08 63.592L765.944 62.888C765.688 63.496 765.368 64.088 765.048 64.648L763.416 64.792C764.328 63.464 765.224 61.8 765.864 60.2L764.584 59.608C763.976 61.48 762.856 63.544 762.52 64.056C762.168 64.584 761.896 64.952 761.608 65.032C761.768 65.384 761.976 66.024 762.04 66.312C762.28 66.184 762.648 66.104 764.28 65.912C763.688 66.824 763.16 67.576 762.904 67.864C762.424 68.456 762.072 68.84 761.736 68.92C761.88 69.256 762.088 69.864 762.152 70.136C762.504 69.896 763.048 69.704 766.712 68.696C766.664 68.424 766.632 67.848 766.648 67.464L764.216 68.056ZM766.616 70.168C764.808 70.824 762.936 71.496 761.704 71.896L762.04 73.272C763.416 72.728 765.192 72.056 766.872 71.368L766.616 70.168ZM775.944 70.12V68.84H772.424C772.536 68.232 772.568 67.64 772.568 67.08V65.256H771.208V67.032C771.208 67.608 771.176 68.216 771.016 68.84H767.096V70.12H770.552C769.96 71.24 768.824 72.328 766.76 73.192C767.032 73.464 767.464 73.976 767.64 74.296C770.248 73.16 771.512 71.64 772.088 70.12H775.944ZM771.96 71.368C773.176 72.216 774.648 73.464 775.336 74.296L776.296 73.368C775.576 72.552 774.056 71.368 772.856 70.552L771.96 71.368ZM792.238 66.056C791.406 65.528 789.934 64.792 788.59 64.216C789.662 63.272 790.558 62.152 791.166 60.872L790.126 60.328L789.838 60.392H783.55V61.736H788.878C787.454 63.672 784.926 65.208 782.478 65.976C782.798 66.296 783.182 66.872 783.39 67.24C784.782 66.728 786.19 66.04 787.438 65.144C788.846 65.8 790.51 66.648 791.358 67.24L792.238 66.056ZM780.062 68.136C781.262 66.808 782.43 65.256 783.406 63.672L782.126 62.84C781.822 63.4 781.486 63.976 781.118 64.52L779.246 64.696C780.158 63.384 781.086 61.768 781.758 60.2L780.35 59.544C779.742 61.4 778.574 63.432 778.206 63.928C777.854 64.472 777.582 64.824 777.262 64.904C777.438 65.288 777.694 66.008 777.742 66.312C777.998 66.184 778.414 66.088 780.174 65.848C779.534 66.744 778.958 67.416 778.654 67.72C778.142 68.28 777.758 68.648 777.374 68.728C777.55 69.128 777.79 69.832 777.854 70.136C778.254 69.912 778.846 69.736 782.846 68.952C782.83 68.648 782.83 68.04 782.878 67.656L780.062 68.136ZM782.766 70.664C780.798 71.144 778.75 71.64 777.422 71.912L777.694 73.384C779.182 72.984 781.102 72.472 782.926 71.976L782.766 70.664ZM788.19 69H791.326V67.656H783.678V69H786.702V72.472H782.718V73.864H792.11V72.472H788.19V69ZM804.58 70.904V72.536H796.596V70.904H804.58ZM795.188 74.296H796.596V73.752H804.58V74.264H806.068V69.624H795.188V74.296ZM803.3 67.768H797.764V66.552H803.3V67.768ZM796.372 65.528V68.792H804.756V65.528H796.372ZM793.94 66.68H795.3V64.68H805.764V66.68H807.188V63.512H793.94V66.68ZM804.068 60.808V59.592H802.596V60.808H798.34V59.592H796.868V60.808H793.524V62.152H796.868V63.112H798.34V62.152H802.596V63.112H804.068V62.152H807.508V60.808H804.068ZM739.772 91.384C739.34 92.12 738.78 92.712 738.076 93.192C737.004 92.936 735.884 92.68 734.78 92.456C735.036 92.104 735.276 91.752 735.516 91.384H739.772ZM738.204 89V86.232C739.676 87.704 741.852 88.904 743.916 89.528C744.14 89.144 744.556 88.6 744.876 88.296C743.084 87.88 741.18 87.032 739.836 86.008H744.492V84.792H738.204V83.32C739.98 83.16 741.66 82.936 743.004 82.648L741.9 81.592C739.548 82.104 735.212 82.408 731.596 82.488C731.708 82.776 731.868 83.32 731.9 83.624C733.436 83.608 735.1 83.544 736.732 83.432V84.792H730.476V86.008H735.132C733.804 87.096 731.9 87.992 730.076 88.456C730.38 88.728 730.796 89.256 730.988 89.624C733.068 88.984 735.26 87.736 736.732 86.232V88.856L735.644 88.552C735.356 89.048 735.004 89.592 734.636 90.152H730.3V91.384H733.804C733.276 92.152 732.748 92.888 732.316 93.464L733.724 93.928L733.996 93.56C734.764 93.72 735.516 93.896 736.252 94.072C734.764 94.584 732.876 94.84 730.524 94.968C730.78 95.304 731.004 95.848 731.116 96.264C734.22 96.008 736.604 95.544 738.364 94.616C740.3 95.16 742.028 95.72 743.324 96.264L744.22 95.032C743.052 94.584 741.5 94.104 739.788 93.64C740.476 93.032 741.036 92.28 741.436 91.384H744.716V90.152H736.332C736.588 89.752 736.844 89.368 737.068 89H738.204ZM749.81 83.544H756.722V85.08H749.81V83.544ZM748.258 82.264V86.36H758.37V82.264H748.258ZM752.354 89.88V91.304C752.354 92.488 751.906 94.088 746.29 95.144C746.658 95.464 747.106 96.04 747.298 96.376C753.138 95.048 753.97 93.016 753.97 91.336V89.88H752.354ZM753.746 94.056C755.634 94.696 758.21 95.688 759.506 96.36L760.274 95.08C758.898 94.44 756.29 93.512 754.482 92.952L753.746 94.056ZM747.65 87.624V93.432H749.202V89H757.426V93.288H759.026V87.624H747.65ZM765.544 86.424C766.968 85.352 768.184 84.152 768.952 83.032C769.8 84.2 771.112 85.4 772.552 86.424H765.544ZM765.24 87.8H772.728V86.552C773.656 87.208 774.632 87.768 775.56 88.216C775.816 87.768 776.152 87.24 776.504 86.872C774.008 85.896 771.352 83.944 769.656 81.592H768.12C766.92 83.544 764.312 85.848 761.576 87.096C761.896 87.416 762.296 87.976 762.456 88.312C763.416 87.848 764.36 87.272 765.24 86.648V87.8ZM762.488 90.856H766.456C766.072 91.928 765.496 93.208 764.968 94.2L762.6 94.28L762.792 95.736C765.512 95.624 769.576 95.448 773.384 95.256C773.672 95.64 773.912 95.992 774.088 96.296L775.448 95.448C774.712 94.264 773.192 92.568 771.736 91.336L770.456 92.024C771.08 92.584 771.72 93.256 772.312 93.928C770.36 94.008 768.376 94.088 766.6 94.152C767.176 93.128 767.768 91.928 768.296 90.856H775.624V89.464H762.488V90.856ZM782.814 88.392C782.286 88.552 781.726 88.68 781.182 88.824V86.136H782.862V84.696H781.182V81.592H779.662V84.696H777.534V86.136H779.662V89.24C778.782 89.448 777.966 89.656 777.31 89.816L777.662 91.336C778.27 91.176 778.942 91 779.662 90.792V94.504C779.662 94.776 779.582 94.856 779.31 94.856C779.086 94.872 778.27 94.872 777.438 94.84C777.662 95.24 777.838 95.88 777.902 96.264C779.182 96.264 779.966 96.232 780.478 95.992C780.99 95.768 781.182 95.352 781.182 94.52V90.344L783.006 89.832L782.814 88.392ZM784.926 88.936H785.246C785.806 90.536 786.558 91.992 787.534 93.24C786.798 93.992 785.934 94.664 784.926 95.16V88.936ZM789.886 88.936C789.566 90.072 789.102 91.112 788.446 92.056C787.71 91.128 787.102 90.072 786.67 88.936H789.886ZM790.67 87.544L790.398 87.592H784.926V83.512H789.614C789.55 84.728 789.454 85.272 789.278 85.448C789.134 85.576 788.974 85.592 788.638 85.592C788.318 85.592 787.342 85.576 786.35 85.496C786.574 85.848 786.734 86.36 786.75 86.728C787.774 86.776 788.75 86.792 789.278 86.76C789.822 86.728 790.222 86.616 790.558 86.28C790.926 85.896 791.07 84.952 791.15 82.712C791.166 82.52 791.182 82.136 791.182 82.136H783.454V96.232H784.926V95.256C785.246 95.56 785.63 95.976 785.838 96.312C786.846 95.784 787.71 95.112 788.478 94.328C789.262 95.112 790.142 95.752 791.134 96.248C791.374 95.832 791.822 95.256 792.174 94.968C791.166 94.552 790.254 93.928 789.454 93.16C790.526 91.656 791.246 89.848 791.614 87.848L790.67 87.544ZM804.228 91.496V94.136H796.948V91.496H804.228ZM795.444 96.36H796.948V95.512H804.228V96.328H805.78V90.12H795.444V96.36ZM801.668 87.336V85.128H806.404V83.768H801.668V81.592H800.1V83.768L797.124 83.768C797.38 83.208 797.62 82.616 797.828 82.04L796.34 81.688C795.764 83.432 794.756 85.224 793.604 86.312C793.972 86.504 794.644 86.904 794.964 87.112C795.444 86.568 795.924 85.896 796.388 85.128L800.1 85.128V87.336L793.54 87.336V88.728L807.508 88.728V87.336H801.668Z" fill="#666666"/>
<rect x="866" width="153" height="153" rx="10" fill="#F6F7FE"/>
<path d="M912.888 51.632H923.064V53.648H924.616V50.24H918.792V48.56H917.176V50.24H911.416V53.648H912.888V51.632ZM917.064 53.936C916.584 53.392 915.544 52.688 914.696 52.224L913.816 53.2C914.664 53.696 915.672 54.464 916.12 55.008L917.064 53.936ZM912.232 55.632C913.096 56.112 914.152 56.864 914.648 57.408L915.56 56.304C915.032 55.76 913.96 55.056 913.096 54.64L912.232 55.632ZM924.904 57.76H918.888C919.288 56.256 919.4 54.464 919.464 52.368H917.896C917.832 54.56 917.768 56.336 917.272 57.76H911.176V59.024H916.648C915.768 60.368 914.168 61.328 911.32 61.936C911.64 62.256 912.008 62.832 912.152 63.232C915.272 62.496 917.032 61.344 918.04 59.728C920.248 60.784 922.376 62.112 923.64 63.248L924.632 62.112C923.448 61.136 921.56 60 919.56 59.024H924.904V57.76ZM936.238 61.936C935.39 61.936 935.262 61.824 935.262 61.2V57.024L936.478 56.448V60.48H937.742V55.856L939.134 55.2C939.134 56.944 939.118 58.112 939.086 58.304C939.038 58.528 938.958 58.576 938.798 58.576C938.67 58.576 938.35 58.576 938.094 58.56C938.238 58.848 938.35 59.328 938.382 59.68C938.766 59.696 939.278 59.68 939.63 59.552C940.046 59.408 940.302 59.136 940.334 58.576C940.398 58.128 940.398 56.288 940.398 54.016L940.462 53.808L939.55 53.472L939.294 53.648L939.166 53.744L937.742 54.4V52.576H936.478V54.992L935.262 55.552V53.76L934.03 53.76C934.382 53.248 934.718 52.688 935.006 52.064H940.942V50.704H935.566C935.774 50.112 935.95 49.488 936.11 48.864L934.638 48.56C934.334 49.936 933.838 51.248 933.198 52.304V51.088H930.558V48.592H929.134V51.088H926.478V52.464H928.126C928.062 56.288 927.886 60.048 926.286 62.24C926.67 62.464 927.134 62.912 927.374 63.248C928.702 61.44 929.198 58.768 929.406 55.808H931.022C930.958 59.936 930.862 61.424 930.622 61.744C930.494 61.936 930.35 61.984 930.142 61.968C929.902 61.968 929.39 61.968 928.798 61.92C929.006 62.272 929.15 62.848 929.182 63.248C929.822 63.264 930.446 63.264 930.846 63.2C931.262 63.152 931.55 63.024 931.806 62.624C932.222 62.08 932.302 60.256 932.398 55.072C932.414 54.88 932.414 54.448 932.414 54.448H929.486C929.502 53.792 929.518 53.136 929.534 52.464H933.102C932.862 52.848 932.606 53.184 932.318 53.488C932.638 53.728 933.214 54.272 933.438 54.528C933.614 54.336 933.774 54.128 933.934 53.904V56.176L932.558 56.816L933.102 58.048L933.934 57.648V61.184C933.934 62.784 934.382 63.2 936.11 63.2H939.134C940.558 63.2 940.974 62.64 941.15 60.704C940.766 60.624 940.238 60.4 939.918 60.176C939.838 61.648 939.71 61.936 939.038 61.936L936.238 61.936ZM944.628 55.632H950.388V56.992H944.628V55.632ZM944.772 60.608H951.3V62H943.172V50.8H951.076V52.192H944.772V60.608ZM956.905 62.128C956.052 62.128 955.236 62 954.457 61.744C953.678 61.4773 953.065 61.136 952.617 60.72L953.209 59.472C953.636 59.8453 954.18 60.1547 954.841 60.4C955.502 60.6453 956.19 60.768 956.905 60.768C957.556 60.768 958.084 60.6933 958.489 60.544C958.894 60.3947 959.193 60.192 959.385 59.936C959.577 59.6693 959.673 59.3707 959.673 59.04C959.673 58.656 959.545 58.3467 959.289 58.112C959.044 57.8773 958.718 57.6907 958.313 57.552C957.918 57.4027 957.481 57.2747 957.001 57.168C956.521 57.0613 956.036 56.9387 955.545 56.8C955.065 56.6507 954.622 56.464 954.217 56.24C953.822 56.016 953.502 55.7173 953.257 55.344C953.012 54.96 952.889 54.4693 952.889 53.872C952.889 53.296 953.038 52.768 953.337 52.288C953.646 51.7973 954.116 51.408 954.745 51.12C955.385 50.8213 956.196 50.672 957.177 50.672C957.828 50.672 958.473 50.7573 959.113 50.928C959.753 51.0987 960.308 51.344 960.777 51.664L960.249 52.944C959.769 52.624 959.262 52.3947 958.729 52.256C958.196 52.1067 957.678 52.032 957.177 52.032C956.548 52.032 956.03 52.112 955.625 52.272C955.22 52.432 954.921 52.6453 954.729 52.912C954.548 53.1787 954.457 53.4773 954.457 53.808C954.457 54.2027 954.58 54.5173 954.825 54.752C955.081 54.9867 955.406 55.1733 955.801 55.312C956.206 55.4507 956.649 55.5787 957.129 55.696C957.609 55.8027 958.089 55.9253 958.569 56.064C959.06 56.2027 959.502 56.384 959.897 56.608C960.302 56.832 960.628 57.1307 960.873 57.504C961.118 57.8773 961.241 58.3573 961.241 58.944C961.241 59.5093 961.086 60.0373 960.777 60.528C960.468 61.008 959.988 61.3973 959.337 61.696C958.697 61.984 957.886 62.128 956.905 62.128ZM968.384 62.128C967.52 62.128 966.726 61.9893 966 61.712C965.275 61.424 964.646 61.024 964.112 60.512C963.579 59.9893 963.163 59.3813 962.864 58.688C962.566 57.9947 962.416 57.232 962.416 56.4C962.416 55.568 962.566 54.8053 962.864 54.112C963.163 53.4187 963.579 52.816 964.112 52.304C964.656 51.7813 965.291 51.3813 966.016 51.104C966.742 50.816 967.542 50.672 968.416 50.672C969.302 50.672 970.112 50.816 970.848 51.104C971.584 51.392 972.208 51.824 972.72 52.4L971.728 53.392C971.27 52.944 970.768 52.6187 970.224 52.416C969.691 52.2027 969.11 52.096 968.48 52.096C967.84 52.096 967.243 52.2027 966.688 52.416C966.144 52.6293 965.67 52.928 965.264 53.312C964.87 53.696 964.56 54.1547 964.336 54.688C964.123 55.2107 964.016 55.7813 964.016 56.4C964.016 57.008 964.123 57.5787 964.336 58.112C964.56 58.6347 964.87 59.0933 965.264 59.488C965.67 59.872 966.144 60.1707 966.688 60.384C967.232 60.5973 967.824 60.704 968.464 60.704C969.062 60.704 969.632 60.6133 970.176 60.432C970.731 60.24 971.243 59.9253 971.712 59.488L972.624 60.704C972.07 61.1733 971.419 61.5307 970.672 61.776C969.936 62.0107 969.174 62.128 968.384 62.128ZM971.088 60.496V56.336H972.624V60.704L971.088 60.496ZM911.998 84L908.254 72.8H909.902L913.342 83.136H912.51L916.078 72.8H917.55L921.038 83.136H920.238L923.726 72.8H925.246L921.502 84H919.822L916.558 74.416H916.99L913.71 84H911.998ZM929.721 84.096C928.867 84.096 928.11 83.9093 927.449 83.536C926.787 83.1627 926.265 82.6507 925.881 82C925.497 81.3387 925.305 80.592 925.305 79.76C925.305 78.9173 925.497 78.1707 925.881 77.52C926.265 76.8693 926.787 76.3627 927.449 76C928.11 75.6267 928.867 75.44 929.721 75.44C930.563 75.44 931.315 75.6267 931.977 76C932.649 76.3627 933.171 76.8693 933.545 77.52C933.929 78.16 934.121 78.9067 934.121 79.76C934.121 80.6027 933.929 81.3493 933.545 82C933.171 82.6507 932.649 83.1627 931.977 83.536C931.315 83.9093 930.563 84.096 929.721 84.096ZM929.721 82.752C930.265 82.752 930.75 82.6293 931.177 82.384C931.614 82.1387 931.955 81.792 932.201 81.344C932.446 80.8853 932.569 80.3573 932.569 79.76C932.569 79.152 932.446 78.6293 932.201 78.192C931.955 77.744 931.614 77.3973 931.177 77.152C930.75 76.9067 930.265 76.784 929.721 76.784C929.177 76.784 928.691 76.9067 928.265 77.152C927.838 77.3973 927.497 77.744 927.241 78.192C926.985 78.6293 926.857 79.152 926.857 79.76C926.857 80.3573 926.985 80.8853 927.241 81.344C927.497 81.792 927.838 82.1387 928.265 82.384C928.691 82.6293 929.177 82.752 929.721 82.752ZM935.995 84V75.52H937.467V77.824L937.323 77.248C937.558 76.6613 937.952 76.2133 938.507 75.904C939.062 75.5947 939.744 75.44 940.555 75.44V76.928C940.491 76.9173 940.427 76.912 940.363 76.912C940.31 76.912 940.256 76.912 940.203 76.912C939.382 76.912 938.731 77.1573 938.251 77.648C937.771 78.1387 937.531 78.848 937.531 79.776V84H935.995ZM943.446 81.952L943.478 79.984L948.358 75.52H950.214L946.47 79.2L945.638 79.904L943.446 81.952ZM942.198 84V72.128H943.734V84H942.198ZM948.678 84L945.35 79.872L946.342 78.64L950.566 84H948.678ZM951.808 84V75.52H953.344V84H951.808ZM952.576 73.888C952.277 73.888 952.026 73.792 951.824 73.6C951.632 73.408 951.536 73.1733 951.536 72.896C951.536 72.608 951.632 72.368 951.824 72.176C952.026 71.984 952.277 71.888 952.576 71.888C952.874 71.888 953.12 71.984 953.312 72.176C953.514 72.3573 953.616 72.5867 953.616 72.864C953.616 73.152 953.52 73.3973 953.328 73.6C953.136 73.792 952.885 73.888 952.576 73.888ZM960.554 75.44C961.248 75.44 961.856 75.5733 962.378 75.84C962.912 76.1067 963.328 76.512 963.626 77.056C963.925 77.6 964.074 78.288 964.074 79.12V84H962.538V79.296C962.538 78.4747 962.336 77.856 961.93 77.44C961.536 77.024 960.976 76.816 960.25 76.816C959.706 76.816 959.232 76.9227 958.826 77.136C958.421 77.3493 958.106 77.664 957.882 78.08C957.669 78.496 957.562 79.0133 957.562 79.632V84H956.026V75.52H957.498V77.808L957.258 77.2C957.536 76.6453 957.962 76.2133 958.538 75.904C959.114 75.5947 959.786 75.44 960.554 75.44ZM970.379 87.2C969.6 87.2 968.843 87.088 968.107 86.864C967.382 86.6507 966.79 86.3413 966.331 85.936L967.067 84.752C967.462 85.0933 967.947 85.36 968.523 85.552C969.099 85.7547 969.702 85.856 970.331 85.856C971.334 85.856 972.07 85.6213 972.539 85.152C973.008 84.6827 973.243 83.968 973.243 83.008V81.216L973.403 79.536L973.323 77.84V75.52H974.779V82.848C974.779 84.3413 974.406 85.44 973.659 86.144C972.912 86.848 971.819 87.2 970.379 87.2ZM970.187 83.648C969.366 83.648 968.63 83.4773 967.979 83.136C967.339 82.784 966.827 82.2987 966.443 81.68C966.07 81.0613 965.883 80.3467 965.883 79.536C965.883 78.7147 966.07 78 966.443 77.392C966.827 76.7733 967.339 76.2933 967.979 75.952C968.63 75.6107 969.366 75.44 970.187 75.44C970.912 75.44 971.574 75.5893 972.171 75.888C972.768 76.176 973.243 76.624 973.595 77.232C973.958 77.84 974.139 78.608 974.139 79.536C974.139 80.4533 973.958 81.216 973.595 81.824C973.243 82.432 972.768 82.8907 972.171 83.2C971.574 83.4987 970.912 83.648 970.187 83.648ZM970.363 82.304C970.928 82.304 971.43 82.1867 971.867 81.952C972.304 81.7173 972.646 81.392 972.891 80.976C973.147 80.56 973.275 80.08 973.275 79.536C973.275 78.992 973.147 78.512 972.891 78.096C972.646 77.68 972.304 77.36 971.867 77.136C971.43 76.9013 970.928 76.784 970.363 76.784C969.798 76.784 969.291 76.9013 968.843 77.136C968.406 77.36 968.059 77.68 967.803 78.096C967.558 78.512 967.435 78.992 967.435 79.536C967.435 80.08 967.558 80.56 967.803 80.976C968.059 81.392 968.406 81.7173 968.843 81.952C969.291 82.1867 969.798 82.304 970.363 82.304ZM923.924 106.128C923.06 106.128 922.265 105.989 921.54 105.712C920.814 105.424 920.185 105.024 919.652 104.512C919.118 103.989 918.702 103.381 918.404 102.688C918.105 101.995 917.956 101.232 917.956 100.4C917.956 99.568 918.105 98.8053 918.404 98.112C918.702 97.4187 919.118 96.816 919.652 96.304C920.196 95.7813 920.83 95.3813 921.556 95.104C922.281 94.816 923.081 94.672 923.956 94.672C924.841 94.672 925.652 94.816 926.388 95.104C927.124 95.392 927.748 95.824 928.26 96.4L927.268 97.392C926.809 96.944 926.308 96.6187 925.764 96.416C925.23 96.2027 924.649 96.096 924.02 96.096C923.38 96.096 922.782 96.2027 922.228 96.416C921.684 96.6293 921.209 96.928 920.804 97.312C920.409 97.696 920.1 98.1547 919.876 98.688C919.662 99.2107 919.556 99.7813 919.556 100.4C919.556 101.008 919.662 101.579 919.876 102.112C920.1 102.635 920.409 103.093 920.804 103.488C921.209 103.872 921.684 104.171 922.228 104.384C922.772 104.597 923.364 104.704 924.004 104.704C924.601 104.704 925.172 104.613 925.716 104.432C926.27 104.24 926.782 103.925 927.252 103.488L928.164 104.704C927.609 105.173 926.958 105.531 926.212 105.776C925.476 106.011 924.713 106.128 923.924 106.128ZM926.628 104.496V100.336H928.164V104.704L926.628 104.496ZM930.753 106V97.52H932.225V99.824L932.081 99.248C932.316 98.6613 932.71 98.2133 933.265 97.904C933.82 97.5947 934.502 97.44 935.313 97.44V98.928C935.249 98.9173 935.185 98.912 935.121 98.912C935.068 98.912 935.014 98.912 934.961 98.912C934.14 98.912 933.489 99.1573 933.009 99.648C932.529 100.139 932.289 100.848 932.289 101.776V106H930.753ZM940.51 106.096C939.657 106.096 938.899 105.909 938.238 105.536C937.577 105.163 937.054 104.651 936.67 104C936.286 103.339 936.094 102.592 936.094 101.76C936.094 100.917 936.286 100.171 936.67 99.52C937.054 98.8693 937.577 98.3627 938.238 98C938.899 97.6267 939.657 97.44 940.51 97.44C941.353 97.44 942.105 97.6267 942.766 98C943.438 98.3627 943.961 98.8693 944.334 99.52C944.718 100.16 944.91 100.907 944.91 101.76C944.91 102.603 944.718 103.349 944.334 104C943.961 104.651 943.438 105.163 942.766 105.536C942.105 105.909 941.353 106.096 940.51 106.096ZM940.51 104.752C941.054 104.752 941.539 104.629 941.966 104.384C942.403 104.139 942.745 103.792 942.99 103.344C943.235 102.885 943.358 102.357 943.358 101.76C943.358 101.152 943.235 100.629 942.99 100.192C942.745 99.744 942.403 99.3973 941.966 99.152C941.539 98.9067 941.054 98.784 940.51 98.784C939.966 98.784 939.481 98.9067 939.054 99.152C938.627 99.3973 938.286 99.744 938.03 100.192C937.774 100.629 937.646 101.152 937.646 101.76C937.646 102.357 937.774 102.885 938.03 103.344C938.286 103.792 938.627 104.139 939.054 104.384C939.481 104.629 939.966 104.752 940.51 104.752ZM950.352 106.096C949.627 106.096 948.987 105.963 948.432 105.696C947.888 105.429 947.461 105.024 947.152 104.48C946.853 103.925 946.704 103.232 946.704 102.4V97.52H948.24V102.224C948.24 103.056 948.437 103.68 948.832 104.096C949.237 104.512 949.803 104.72 950.528 104.72C951.061 104.72 951.525 104.613 951.92 104.4C952.315 104.176 952.619 103.856 952.832 103.44C953.045 103.013 953.152 102.501 953.152 101.904V97.52H954.688V106H953.232V103.712L953.472 104.32C953.195 104.885 952.779 105.323 952.224 105.632C951.669 105.941 951.045 106.096 950.352 106.096ZM961.858 106.096C961.154 106.096 960.509 105.936 959.922 105.616C959.346 105.285 958.882 104.8 958.53 104.16C958.189 103.52 958.018 102.72 958.018 101.76C958.018 100.8 958.184 100 958.514 99.36C958.856 98.72 959.314 98.24 959.89 97.92C960.477 97.6 961.133 97.44 961.858 97.44C962.69 97.44 963.426 97.6213 964.066 97.984C964.706 98.3467 965.213 98.8533 965.586 99.504C965.96 100.144 966.146 100.896 966.146 101.76C966.146 102.624 965.96 103.381 965.586 104.032C965.213 104.683 964.706 105.189 964.066 105.552C963.426 105.915 962.69 106.096 961.858 106.096ZM957.362 109.104V97.52H958.834V99.808L958.738 101.776L958.898 103.744V109.104H957.362ZM961.73 104.752C962.274 104.752 962.76 104.629 963.186 104.384C963.624 104.139 963.965 103.792 964.21 103.344C964.466 102.885 964.594 102.357 964.594 101.76C964.594 101.152 964.466 100.629 964.21 100.192C963.965 99.744 963.624 99.3973 963.186 99.152C962.76 98.9067 962.274 98.784 961.73 98.784C961.197 98.784 960.712 98.9067 960.274 99.152C959.848 99.3973 959.506 99.744 959.25 100.192C959.005 100.629 958.882 101.152 958.882 101.76C958.882 102.357 959.005 102.885 959.25 103.344C959.506 103.792 959.848 104.139 960.274 104.384C960.712 104.629 961.197 104.752 961.73 104.752Z" fill="#435CE7"/>
</svg>
