<svg width="1200" height="420" viewBox="0 0 1200 420" fill="none" xmlns="http://www.w3.org/2000/svg">
<rect width="1200" height="420" rx="20" fill="#F6F7FE"/>
<path opacity="0.7" d="M526.5 100H477C473.134 100 470 103.134 470 107V187" stroke="#7094F0" stroke-linecap="round" stroke-dasharray="2 4"/>
<path opacity="0.7" d="M674 320L723 320C726.866 320 730 316.866 730 313L730 233" stroke="#7094F0" stroke-linecap="round" stroke-dasharray="2 4"/>
<path opacity="0.7" d="M470 283L470 312C470 315.866 473.134 319 477 319L557 319" stroke="#7094F0" stroke-linecap="round" stroke-dasharray="2 4"/>
<path opacity="0.7" d="M730 137.5L730 107C730 103.134 726.866 100 723 100L643 100" stroke="#7094F0" stroke-linecap="round" stroke-dasharray="2 4"/>
<path d="M469.232 280.922L466.367 284.36C465.824 285.011 466.287 286 467.135 286H472.865C473.713 286 474.176 285.011 473.633 284.36L470.768 280.922C470.368 280.442 469.632 280.442 469.232 280.922Z" fill="#7094F0"/>
<path d="M730.768 139.078L733.633 135.64C734.176 134.989 733.713 134 732.865 134L727.135 134C726.287 134 725.824 134.989 726.367 135.64L729.232 139.078C729.632 139.558 730.368 139.558 730.768 139.078Z" fill="#7094F0"/>
<path d="M529.078 99.2318L525.64 96.3668C524.989 95.824 524 96.2872 524 97.135L524 102.865C524 103.713 524.989 104.176 525.64 103.633L529.078 100.768C529.558 100.368 529.558 99.6316 529.078 99.2318Z" fill="#7094F0"/>
<path d="M670.922 320.768L674.36 323.633C675.011 324.176 676 323.713 676 322.865L676 317.135C676 316.287 675.011 315.824 674.36 316.367L670.922 319.232C670.442 319.632 670.442 320.368 670.922 320.768Z" fill="#7094F0"/>
<circle cx="600" cy="100" r="59.5" fill="white" stroke="#435CE7"/>
<path d="M577.943 96.728C577.559 97.88 577.063 99.08 576.471 100.184C575.687 99.176 574.871 98.2 574.135 97.32L572.903 97.944C573.815 99.032 574.791 100.28 575.687 101.512C574.679 103.08 573.511 104.44 572.263 105.32C572.615 105.576 573.095 106.104 573.367 106.456C574.535 105.528 575.639 104.264 576.583 102.792C577.447 104.04 578.199 105.24 578.663 106.168L580.039 105.368C579.431 104.28 578.471 102.872 577.399 101.416C578.135 100.056 578.759 98.584 579.239 97.08L577.943 96.728ZM570.887 94.248V98.856C570.887 101.368 570.743 104.888 569.015 107.304C569.351 107.48 569.991 108.008 570.263 108.312C572.119 105.704 572.423 101.56 572.423 98.856V95.688H580.247C580.263 103.928 580.295 108.104 582.535 108.104C583.463 108.104 583.767 107.352 583.911 105.272C583.623 105.032 583.223 104.536 582.983 104.168C582.951 105.432 582.839 106.536 582.647 106.536C581.655 106.536 581.671 101.944 581.735 94.248H570.887ZM591.725 99.72H597.213V98.456H592.061C592.941 97.608 593.773 96.648 594.477 95.608C595.709 97.128 597.469 98.76 599.021 99.784C599.181 99.384 599.485 98.76 599.757 98.408C598.157 97.512 596.301 95.88 595.213 94.44C595.309 94.264 595.389 94.088 595.485 93.912L594.189 93.448C593.165 95.56 591.341 97.512 589.453 98.712C589.709 98.984 590.157 99.608 590.317 99.912C590.797 99.56 591.261 99.192 591.725 98.776V99.72ZM595.661 104.488C595.565 103.48 595.293 101.944 594.989 100.744L593.837 100.904C594.093 102.104 594.381 103.656 594.445 104.696L595.661 104.488ZM592.989 104.856C592.845 103.816 592.429 102.264 591.981 101.064L590.829 101.368C591.245 102.584 591.645 104.152 591.773 105.176L592.989 104.856ZM589.181 94.168L588.973 94.216H585.453V108.216H586.765V95.56H588.461C588.173 96.616 587.773 97.96 587.373 99C588.413 100.2 588.653 101.272 588.653 102.088C588.653 102.568 588.573 102.968 588.349 103.128C588.221 103.224 588.077 103.256 587.885 103.272C587.661 103.288 587.389 103.272 587.069 103.256C587.277 103.608 587.389 104.184 587.405 104.536C587.773 104.552 588.157 104.552 588.461 104.52C588.797 104.456 589.085 104.36 589.309 104.2C589.773 103.848 589.981 103.176 589.981 102.232C589.981 101.272 589.725 100.136 588.685 98.84C589.165 97.608 589.709 96.024 590.157 94.712L589.181 94.168ZM597.597 100.76C597.085 102.424 596.125 104.728 595.341 106.232H590.077V107.544H599.325V106.232H596.557C597.357 104.792 598.253 102.76 598.909 101.064L597.597 100.76ZM601.059 107.784H614.755V106.456H601.059V107.784ZM610.787 102.488H604.835V101.416H610.787V102.488ZM610.787 104.568H604.835V103.48H610.787V104.568ZM603.363 100.392V105.608H612.323V100.392H603.363ZM614.931 96.792V95.496H608.563V93.576H607.091V95.496H600.835V96.792H605.571C604.275 98.168 602.323 99.4 600.467 100.008C600.771 100.312 601.203 100.856 601.411 101.208C603.523 100.36 605.683 98.824 607.091 97.016V99.912H608.563V97.016C610.019 98.776 612.179 100.296 614.291 101.08C614.499 100.712 614.963 100.152 615.267 99.88C613.363 99.272 611.379 98.136 610.051 96.792H614.931ZM620.873 95.864V98.552H618.297V95.864H620.873ZM618.297 102.68V99.88H620.873V102.68H618.297ZM622.249 104.056V94.504H616.921V105.496H618.297V104.056H622.249ZM624.937 101.864C625.001 101.192 625.017 100.536 625.017 99.928V99.4H629.017V101.864H624.937ZM629.017 95.608V98.04H625.017V95.608H629.017ZM630.489 94.232H623.561V99.912C623.561 102.36 623.289 105.352 620.617 107.352C620.937 107.56 621.513 108.072 621.721 108.376C623.529 107.016 624.361 105.112 624.729 103.224H629.017V106.424C629.017 106.696 628.905 106.792 628.633 106.808C628.345 106.808 627.369 106.824 626.409 106.792C626.633 107.176 626.873 107.832 626.953 108.232C628.297 108.232 629.177 108.2 629.737 107.96C630.281 107.72 630.489 107.272 630.489 106.44V94.232Z" fill="#435CE7"/>
<circle cx="600" cy="320" r="59.5" fill="white" stroke="#435CE7"/>
<path d="M577.943 316.728C577.559 317.88 577.063 319.08 576.471 320.184C575.687 319.176 574.871 318.2 574.135 317.32L572.903 317.944C573.815 319.032 574.791 320.28 575.687 321.512C574.679 323.08 573.511 324.44 572.263 325.32C572.615 325.576 573.095 326.104 573.367 326.456C574.535 325.528 575.639 324.264 576.583 322.792C577.447 324.04 578.199 325.24 578.663 326.168L580.039 325.368C579.431 324.28 578.471 322.872 577.399 321.416C578.135 320.056 578.759 318.584 579.239 317.08L577.943 316.728ZM570.887 314.248V318.856C570.887 321.368 570.743 324.888 569.015 327.304C569.351 327.48 569.991 328.008 570.263 328.312C572.119 325.704 572.423 321.56 572.423 318.856V315.688H580.247C580.263 323.928 580.295 328.104 582.535 328.104C583.463 328.104 583.767 327.352 583.911 325.272C583.623 325.032 583.223 324.536 582.983 324.168C582.951 325.432 582.839 326.536 582.647 326.536C581.655 326.536 581.671 321.944 581.735 314.248H570.887ZM591.725 319.72H597.213V318.456H592.061C592.941 317.608 593.773 316.648 594.477 315.608C595.709 317.128 597.469 318.76 599.021 319.784C599.181 319.384 599.485 318.76 599.757 318.408C598.157 317.512 596.301 315.88 595.213 314.44C595.309 314.264 595.389 314.088 595.485 313.912L594.189 313.448C593.165 315.56 591.341 317.512 589.453 318.712C589.709 318.984 590.157 319.608 590.317 319.912C590.797 319.56 591.261 319.192 591.725 318.776V319.72ZM595.661 324.488C595.565 323.48 595.293 321.944 594.989 320.744L593.837 320.904C594.093 322.104 594.381 323.656 594.445 324.696L595.661 324.488ZM592.989 324.856C592.845 323.816 592.429 322.264 591.981 321.064L590.829 321.368C591.245 322.584 591.645 324.152 591.773 325.176L592.989 324.856ZM589.181 314.168L588.973 314.216H585.453V328.216H586.765V315.56H588.461C588.173 316.616 587.773 317.96 587.373 319C588.413 320.2 588.653 321.272 588.653 322.088C588.653 322.568 588.573 322.968 588.349 323.128C588.221 323.224 588.077 323.256 587.885 323.272C587.661 323.288 587.389 323.272 587.069 323.256C587.277 323.608 587.389 324.184 587.405 324.536C587.773 324.552 588.157 324.552 588.461 324.52C588.797 324.456 589.085 324.36 589.309 324.2C589.773 323.848 589.981 323.176 589.981 322.232C589.981 321.272 589.725 320.136 588.685 318.84C589.165 317.608 589.709 316.024 590.157 314.712L589.181 314.168ZM597.597 320.76C597.085 322.424 596.125 324.728 595.341 326.232H590.077V327.544H599.325V326.232H596.557C597.357 324.792 598.253 322.76 598.909 321.064L597.597 320.76ZM614.947 316.936V315.528H609.683C609.475 314.92 609.107 314.104 608.755 313.432L607.283 313.8C607.539 314.328 607.795 314.968 608.003 315.528H601.795V319.832C601.795 322.088 601.683 325.304 600.483 327.544C600.835 327.688 601.507 328.12 601.779 328.392C603.091 325.976 603.299 322.296 603.299 319.832V316.936H614.947ZM610.147 323.288C609.907 321.816 609.315 319.624 608.771 317.896L607.411 318.248C607.923 319.976 608.499 322.232 608.707 323.704L610.147 323.288ZM607.203 324.056C606.851 322.584 606.099 320.392 605.395 318.68L604.099 319.176C604.739 320.904 605.507 323.16 605.811 324.648L607.203 324.056ZM610.995 326.152C612.419 323.752 613.587 320.952 614.339 318.36L612.771 317.816C612.163 320.52 610.979 323.736 609.443 326.152H603.315V327.56H615.139V326.152H610.995ZM622.105 315.544L621.849 315.608H616.793V317.016H621.449C621.225 318.52 620.905 319.912 620.441 321.176C619.641 320.376 618.809 319.592 618.009 318.904L616.985 319.848C617.929 320.68 618.921 321.672 619.833 322.68C618.937 324.616 617.753 326.104 616.329 327.032C616.697 327.304 617.145 327.88 617.385 328.232C618.793 327.192 619.993 325.784 620.921 323.944C621.577 324.776 622.137 325.576 622.505 326.264L623.673 325.16C623.225 324.344 622.473 323.384 621.609 322.392C622.313 320.568 622.809 318.376 623.081 315.832L622.105 315.544ZM626.473 323.64C626.217 322.68 625.465 321.256 624.713 320.184L623.497 320.76C624.233 321.864 624.937 323.336 625.177 324.28L626.473 323.64ZM630.937 317.272H629.129V313.592H627.657V317.272H623.369V318.712H627.657V326.328C627.657 326.616 627.545 326.696 627.273 326.696C627.001 326.712 626.137 326.712 625.177 326.68C625.385 327.112 625.609 327.832 625.673 328.264C627.001 328.264 627.865 328.2 628.409 327.944C628.921 327.688 629.129 327.24 629.129 326.328V318.712H630.937V317.272Z" fill="#435CE7"/>
<circle cx="470" cy="210" r="59.5" fill="white" stroke="#435CE7"/>
<path d="M446.943 195.728C446.559 196.88 446.063 198.08 445.471 199.184C444.687 198.176 443.871 197.2 443.135 196.32L441.903 196.944C442.815 198.032 443.791 199.28 444.687 200.512C443.679 202.08 442.511 203.44 441.263 204.32C441.615 204.576 442.095 205.104 442.367 205.456C443.535 204.528 444.639 203.264 445.583 201.792C446.447 203.04 447.199 204.24 447.663 205.168L449.039 204.368C448.431 203.28 447.471 201.872 446.399 200.416C447.135 199.056 447.759 197.584 448.239 196.08L446.943 195.728ZM439.887 193.248V197.856C439.887 200.368 439.743 203.888 438.015 206.304C438.351 206.48 438.991 207.008 439.263 207.312C441.119 204.704 441.423 200.56 441.423 197.856V194.688H449.247C449.263 202.928 449.295 207.104 451.535 207.104C452.463 207.104 452.767 206.352 452.911 204.272C452.623 204.032 452.223 203.536 451.983 203.168C451.951 204.432 451.839 205.536 451.647 205.536C450.655 205.536 450.671 200.944 450.735 193.248H439.887ZM460.725 198.72H466.213V197.456H461.061C461.941 196.608 462.773 195.648 463.477 194.608C464.709 196.128 466.469 197.76 468.021 198.784C468.181 198.384 468.485 197.76 468.757 197.408C467.157 196.512 465.301 194.88 464.213 193.44C464.309 193.264 464.389 193.088 464.485 192.912L463.189 192.448C462.165 194.56 460.341 196.512 458.453 197.712C458.709 197.984 459.157 198.608 459.317 198.912C459.797 198.56 460.261 198.192 460.725 197.776V198.72ZM464.661 203.488C464.565 202.48 464.293 200.944 463.989 199.744L462.837 199.904C463.093 201.104 463.381 202.656 463.445 203.696L464.661 203.488ZM461.989 203.856C461.845 202.816 461.429 201.264 460.981 200.064L459.829 200.368C460.245 201.584 460.645 203.152 460.773 204.176L461.989 203.856ZM458.181 193.168L457.973 193.216H454.453V207.216H455.765V194.56H457.461C457.173 195.616 456.773 196.96 456.373 198C457.413 199.2 457.653 200.272 457.653 201.088C457.653 201.568 457.573 201.968 457.349 202.128C457.221 202.224 457.077 202.256 456.885 202.272C456.661 202.288 456.389 202.272 456.069 202.256C456.277 202.608 456.389 203.184 456.405 203.536C456.773 203.552 457.157 203.552 457.461 203.52C457.797 203.456 458.085 203.36 458.309 203.2C458.773 202.848 458.981 202.176 458.981 201.232C458.981 200.272 458.725 199.136 457.685 197.84C458.165 196.608 458.709 195.024 459.157 193.712L458.181 193.168ZM466.597 199.76C466.085 201.424 465.125 203.728 464.341 205.232H459.077V206.544H468.325V205.232H465.557C466.357 203.792 467.253 201.76 467.909 200.064L466.597 199.76ZM478.139 197.952C478.203 197.152 478.219 196.336 478.251 195.488H476.715C476.699 196.336 476.667 197.152 476.619 197.952H473.019V199.36H476.507C476.187 202.224 475.275 204.624 472.331 206.08C472.683 206.352 473.131 206.816 473.307 207.184C476.571 205.472 477.627 202.672 478.011 199.36H481.739C481.531 203.312 481.307 204.944 480.891 205.344C480.699 205.52 480.523 205.568 480.219 205.552C479.835 205.552 478.891 205.552 477.915 205.472C478.203 205.888 478.395 206.512 478.427 206.944C479.371 206.992 480.315 207.008 480.843 206.944C481.419 206.896 481.819 206.752 482.171 206.304C482.763 205.648 483.003 203.712 483.259 198.624C483.275 198.432 483.291 197.952 483.291 197.952H478.139ZM483.979 193.296H470.667V198.592C470.667 200.96 470.571 204.16 469.435 206.416C469.803 206.576 470.475 206.976 470.763 207.232C471.995 204.816 472.171 201.136 472.171 198.592V194.688H483.979V193.296ZM488.033 196.416H491.873V199.072H488.033V196.416ZM497.249 196.416V199.072H493.409V196.416H497.249ZM498.785 200.496V194.992H493.409V192.64H491.873V194.992H486.577V200.496H491.841C491.761 201.6 491.489 202.624 490.721 203.504C489.905 202.832 489.185 201.984 488.625 200.88L487.265 201.376C487.889 202.672 488.641 203.68 489.569 204.464C488.593 205.088 487.233 205.584 485.313 205.968C485.633 206.304 486.033 206.944 486.193 207.296C488.305 206.8 489.809 206.144 490.865 205.376C493.009 206.576 495.809 206.992 499.377 207.184C499.489 206.672 499.793 206.016 500.065 205.648C496.625 205.552 494.001 205.264 492.033 204.304C492.945 203.184 493.281 201.872 493.377 200.496H498.785ZM465.173 226.384V227.648H458.213V226.384H465.173ZM464.069 222.096V223.232H458.213V222.096H464.069ZM458.213 224.336H465.557V220.992H456.805V229.28H458.213V228.784H465.173V229.248H466.661V225.264H458.213V224.336ZM468.405 215.728H463.349C463.509 215.44 463.669 215.136 463.797 214.832L462.357 214.48C462.037 215.296 461.525 216.08 460.901 216.736V215.728H457.013C457.173 215.44 457.317 215.136 457.445 214.848L456.053 214.48C455.557 215.712 454.677 216.944 453.733 217.744C454.085 217.936 454.661 218.32 454.949 218.56C455.397 218.128 455.861 217.568 456.277 216.944H456.773C457.077 217.488 457.397 218.112 457.525 218.528L458.853 218.128C458.741 217.808 458.517 217.376 458.277 216.944H460.693C460.453 217.168 460.197 217.392 459.941 217.568C460.085 217.632 460.261 217.728 460.453 217.824H460.373V218.992H454.437V222.048H455.829V220.16H466.501V222.048H467.957V218.992H461.797V217.824H461.765C462.037 217.552 462.293 217.264 462.533 216.944H463.669C464.085 217.488 464.517 218.128 464.677 218.56L466.069 218.144C465.909 217.792 465.605 217.36 465.301 216.944H468.405V215.728ZM474.587 224.592C474.043 224.784 473.467 224.96 472.923 225.136V221.52H474.443V220.144H472.923V216.96H474.699V215.584H469.611V216.96H471.499V220.144H469.771V221.52H471.499V225.584C470.731 225.824 470.027 226.016 469.451 226.176L469.803 227.696C471.243 227.232 473.099 226.608 474.843 226L474.587 224.592ZM476.747 219.472H478.843V221.232H476.747V219.472ZM476.747 216.56H478.843V218.288H476.747V216.56ZM482.155 218.288H480.107V216.56H482.155V218.288ZM482.155 221.232H480.107V219.472H482.155V221.232ZM480.235 227.392V225.488H483.787V224.144H480.235V222.496H483.579V215.296H475.387V222.496H478.715V224.144H475.243V225.488H478.715V227.392H474.075V228.752H484.299V227.392H480.235Z" fill="#435CE7"/>
<circle cx="730" cy="210" r="59.5" fill="white" stroke="#435CE7"/>
<path d="M707.943 206.728C707.559 207.88 707.063 209.08 706.471 210.184C705.687 209.176 704.871 208.2 704.135 207.32L702.903 207.944C703.815 209.032 704.791 210.28 705.687 211.512C704.679 213.08 703.511 214.44 702.263 215.32C702.615 215.576 703.095 216.104 703.367 216.456C704.535 215.528 705.639 214.264 706.583 212.792C707.447 214.04 708.199 215.24 708.663 216.168L710.039 215.368C709.431 214.28 708.471 212.872 707.399 211.416C708.135 210.056 708.759 208.584 709.239 207.08L707.943 206.728ZM700.887 204.248V208.856C700.887 211.368 700.743 214.888 699.015 217.304C699.351 217.48 699.991 218.008 700.263 218.312C702.119 215.704 702.423 211.56 702.423 208.856V205.688H710.247C710.263 213.928 710.295 218.104 712.535 218.104C713.463 218.104 713.767 217.352 713.911 215.272C713.623 215.032 713.223 214.536 712.983 214.168C712.951 215.432 712.839 216.536 712.647 216.536C711.655 216.536 711.671 211.944 711.735 204.248H700.887ZM721.725 209.72H727.213V208.456H722.061C722.941 207.608 723.773 206.648 724.477 205.608C725.709 207.128 727.469 208.76 729.021 209.784C729.181 209.384 729.485 208.76 729.757 208.408C728.157 207.512 726.301 205.88 725.213 204.44C725.309 204.264 725.389 204.088 725.485 203.912L724.189 203.448C723.165 205.56 721.341 207.512 719.453 208.712C719.709 208.984 720.157 209.608 720.317 209.912C720.797 209.56 721.261 209.192 721.725 208.776V209.72ZM725.661 214.488C725.565 213.48 725.293 211.944 724.989 210.744L723.837 210.904C724.093 212.104 724.381 213.656 724.445 214.696L725.661 214.488ZM722.989 214.856C722.845 213.816 722.429 212.264 721.981 211.064L720.829 211.368C721.245 212.584 721.645 214.152 721.773 215.176L722.989 214.856ZM719.181 204.168L718.973 204.216H715.453V218.216H716.765V205.56H718.461C718.173 206.616 717.773 207.96 717.373 209C718.413 210.2 718.653 211.272 718.653 212.088C718.653 212.568 718.573 212.968 718.349 213.128C718.221 213.224 718.077 213.256 717.885 213.272C717.661 213.288 717.389 213.272 717.069 213.256C717.277 213.608 717.389 214.184 717.405 214.536C717.773 214.552 718.157 214.552 718.461 214.52C718.797 214.456 719.085 214.36 719.309 214.2C719.773 213.848 719.981 213.176 719.981 212.232C719.981 211.272 719.725 210.136 718.685 208.84C719.165 207.608 719.709 206.024 720.157 204.712L719.181 204.168ZM727.597 210.76C727.085 212.424 726.125 214.728 725.341 216.232H720.077V217.544H729.325V216.232H726.557C727.357 214.792 728.253 212.76 728.909 211.064L727.597 210.76ZM734.755 206.376C734.243 205.704 733.139 204.696 732.307 203.992L731.379 204.888C732.211 205.656 733.267 206.728 733.763 207.416L734.755 206.376ZM734.019 214.968V208.504H730.611V209.928H732.643V215.416C732.643 216.104 732.211 216.536 731.907 216.744C732.147 217.032 732.467 217.624 732.595 217.976C732.835 217.64 733.267 217.272 735.923 215.16C735.763 214.856 735.507 214.28 735.379 213.912L734.019 214.968ZM745.235 211.384H740.947V205.768H744.563V204.344H735.635V205.768H739.443V211.384H735.219V212.792H739.443V218.248H740.947V212.792H745.235V211.384ZM736.083 206.84C736.483 208.04 736.819 209.624 736.915 210.68L738.243 210.312C738.131 209.304 737.779 207.736 737.331 206.52L736.083 206.84ZM743.203 210.744C743.603 209.752 744.067 208.184 744.467 206.84L742.995 206.504C742.819 207.704 742.387 209.384 742.035 210.424L743.203 210.744ZM749.769 203.64C748.905 205.976 747.481 208.312 745.977 209.8C746.217 210.152 746.649 210.952 746.793 211.304C747.241 210.84 747.689 210.296 748.121 209.704V218.232H749.529V207.528C750.153 206.424 750.729 205.24 751.161 204.072L749.769 203.64ZM758.521 216.168H753.177V212.824H758.521V216.168ZM760.969 208.392V206.952H756.585V203.56H755.049V206.952H750.873V208.392H755.049V211.416H751.705V218.248H753.177V217.576H758.521V218.184H760.041V211.416H756.585V208.392H760.969Z" fill="#435CE7"/>
</svg>
