<svg width="327" height="352" viewBox="0 0 327 352" fill="none" xmlns="http://www.w3.org/2000/svg">
<rect x="0.000244141" width="327" height="352" rx="14" fill="#F6F7FE"/>
<path opacity="0.7" d="M106.241 66.0005H73.0001C69.1341 66.0005 66.0001 69.1345 66.0001 73.0005V153" stroke="#7094F0" stroke-linecap="round" stroke-dasharray="2 4"/>
<path opacity="0.7" d="M220.759 286L254 286C257.866 286 261 282.866 261 279L261 199" stroke="#7094F0" stroke-linecap="round" stroke-dasharray="2 4"/>
<path opacity="0.7" d="M153 286L73.0002 286C69.1343 286 66.0002 282.866 66.0002 279L66.0002 245L66.0002 239.5L66.0002 235.5" stroke="#7094F0" stroke-linecap="round" stroke-dasharray="2 4"/>
<path opacity="0.7" d="M174 66L254 66C257.866 66 261 69.134 261 73L261 107L261 112.5L261 119" stroke="#7094F0" stroke-linecap="round" stroke-dasharray="2 4"/>
<path d="M65.232 231.922L62.3671 235.36C61.8243 236.011 62.2874 237 63.1353 237H68.8652C69.713 237 70.1762 236.011 69.6334 235.36L66.7685 231.922C66.3687 231.442 65.6318 231.442 65.232 231.922Z" fill="#7094F0"/>
<path d="M261.768 120.078L264.633 116.64C265.176 115.989 264.713 115 263.865 115L258.135 115C257.287 115 256.824 115.989 257.367 116.64L260.232 120.078C260.632 120.558 261.369 120.558 261.768 120.078Z" fill="#7094F0"/>
<path d="M108.078 65.2318L104.64 62.3668C103.989 61.824 103 62.2872 103 63.135L103 68.865C103 69.7128 103.989 70.176 104.64 69.6332L108.078 66.7682C108.558 66.3684 108.558 65.6316 108.078 65.2318Z" fill="#7094F0"/>
<path d="M219.922 286.768L223.36 289.633C224.011 290.176 225 289.713 225 288.865L225 283.135C225 282.287 224.011 281.824 223.36 282.367L219.922 285.232C219.442 285.632 219.442 286.368 219.922 286.768Z" fill="#7094F0"/>
<circle cx="164" cy="66" r="49.5" fill="white" stroke="#435CE7"/>
<circle cx="164" cy="286" r="49.5" fill="white" stroke="#435CE7"/>
<circle cx="66.0002" cy="176" r="49.5" fill="white" stroke="#435CE7"/>
<circle cx="261" cy="176" r="49.5" fill="white" stroke="#435CE7"/>
<path d="M144.747 63.012C144.411 64.02 143.977 65.07 143.459 66.036C142.773 65.154 142.059 64.3 141.415 63.53L140.337 64.076C141.135 65.028 141.989 66.12 142.773 67.198C141.891 68.57 140.869 69.76 139.777 70.53C140.085 70.754 140.505 71.216 140.743 71.524C141.765 70.712 142.731 69.606 143.557 68.318C144.313 69.41 144.971 70.46 145.377 71.272L146.581 70.572C146.049 69.62 145.209 68.388 144.271 67.114C144.915 65.924 145.461 64.636 145.881 63.32L144.747 63.012ZM138.573 60.842V64.874C138.573 67.072 138.447 70.152 136.935 72.266C137.229 72.42 137.789 72.882 138.027 73.148C139.651 70.866 139.917 67.24 139.917 64.874V62.102H146.763C146.777 69.312 146.805 72.966 148.765 72.966C149.577 72.966 149.843 72.308 149.969 70.488C149.717 70.278 149.367 69.844 149.157 69.522C149.129 70.628 149.031 71.594 148.863 71.594C147.995 71.594 148.009 67.576 148.065 60.842H138.573ZM156.775 65.63H161.577V64.524H157.069C157.839 63.782 158.567 62.942 159.183 62.032C160.261 63.362 161.801 64.79 163.159 65.686C163.299 65.336 163.565 64.79 163.803 64.482C162.403 63.698 160.779 62.27 159.827 61.01C159.911 60.856 159.981 60.702 160.065 60.548L158.931 60.142C158.035 61.99 156.439 63.698 154.787 64.748C155.011 64.986 155.403 65.532 155.543 65.798C155.963 65.49 156.369 65.168 156.775 64.804V65.63ZM160.219 69.802C160.135 68.92 159.897 67.576 159.631 66.526L158.623 66.666C158.847 67.716 159.099 69.074 159.155 69.984L160.219 69.802ZM157.881 70.124C157.755 69.214 157.391 67.856 156.999 66.806L155.991 67.072C156.355 68.136 156.705 69.508 156.817 70.404L157.881 70.124ZM154.549 60.772L154.367 60.814H151.287V73.064H152.435V61.99H153.919C153.667 62.914 153.317 64.09 152.967 65C153.877 66.05 154.087 66.988 154.087 67.702C154.087 68.122 154.017 68.472 153.821 68.612C153.709 68.696 153.583 68.724 153.415 68.738C153.219 68.752 152.981 68.738 152.701 68.724C152.883 69.032 152.981 69.536 152.995 69.844C153.317 69.858 153.653 69.858 153.919 69.83C154.213 69.774 154.465 69.69 154.661 69.55C155.067 69.242 155.249 68.654 155.249 67.828C155.249 66.988 155.025 65.994 154.115 64.86C154.535 63.782 155.011 62.396 155.403 61.248L154.549 60.772ZM161.913 66.54C161.465 67.996 160.625 70.012 159.939 71.328H155.333V72.476H163.425V71.328H161.003C161.703 70.068 162.487 68.29 163.061 66.806L161.913 66.54ZM164.911 72.686H176.895V71.524H164.911V72.686ZM173.423 68.052H168.215V67.114H173.423V68.052ZM173.423 69.872H168.215V68.92H173.423V69.872ZM166.927 66.218V70.782H174.767V66.218H166.927ZM177.049 63.068V61.934H171.477V60.254H170.189V61.934H164.715V63.068H168.859C167.725 64.272 166.017 65.35 164.393 65.882C164.659 66.148 165.037 66.624 165.219 66.932C167.067 66.19 168.957 64.846 170.189 63.264V65.798H171.477V63.264C172.751 64.804 174.641 66.134 176.489 66.82C176.671 66.498 177.077 66.008 177.343 65.77C175.677 65.238 173.941 64.244 172.779 63.068H177.049ZM182.217 62.256V64.608H179.963V62.256H182.217ZM179.963 68.22V65.77H182.217V68.22H179.963ZM183.421 69.424V61.066H178.759V70.684H179.963V69.424H183.421ZM185.773 67.506C185.829 66.918 185.843 66.344 185.843 65.812V65.35H189.343V67.506H185.773ZM189.343 62.032V64.16H185.843V62.032H189.343ZM190.631 60.828H184.569V65.798C184.569 67.94 184.331 70.558 181.993 72.308C182.273 72.49 182.777 72.938 182.959 73.204C184.541 72.014 185.269 70.348 185.591 68.696H189.343V71.496C189.343 71.734 189.245 71.818 189.007 71.832C188.755 71.832 187.901 71.846 187.061 71.818C187.257 72.154 187.467 72.728 187.537 73.078C188.713 73.078 189.483 73.05 189.973 72.84C190.449 72.63 190.631 72.238 190.631 71.51V60.828Z" fill="#435CE7"/>
<path d="M143.747 283.012C143.411 284.02 142.977 285.07 142.459 286.036C141.773 285.154 141.059 284.3 140.415 283.53L139.337 284.076C140.135 285.028 140.989 286.12 141.773 287.198C140.891 288.57 139.869 289.76 138.777 290.53C139.085 290.754 139.505 291.216 139.743 291.524C140.765 290.712 141.731 289.606 142.557 288.318C143.313 289.41 143.971 290.46 144.377 291.272L145.581 290.572C145.049 289.62 144.209 288.388 143.271 287.114C143.915 285.924 144.461 284.636 144.881 283.32L143.747 283.012ZM137.573 280.842V284.874C137.573 287.072 137.447 290.152 135.935 292.266C136.229 292.42 136.789 292.882 137.027 293.148C138.651 290.866 138.917 287.24 138.917 284.874V282.102H145.763C145.777 289.312 145.805 292.966 147.765 292.966C148.577 292.966 148.843 292.308 148.969 290.488C148.717 290.278 148.367 289.844 148.157 289.522C148.129 290.628 148.031 291.594 147.863 291.594C146.995 291.594 147.009 287.576 147.065 280.842H137.573ZM155.775 285.63H160.577V284.524H156.069C156.839 283.782 157.567 282.942 158.183 282.032C159.261 283.362 160.801 284.79 162.159 285.686C162.299 285.336 162.565 284.79 162.803 284.482C161.403 283.698 159.779 282.27 158.827 281.01C158.911 280.856 158.981 280.702 159.065 280.548L157.931 280.142C157.035 281.99 155.439 283.698 153.787 284.748C154.011 284.986 154.403 285.532 154.543 285.798C154.963 285.49 155.369 285.168 155.775 284.804V285.63ZM159.219 289.802C159.135 288.92 158.897 287.576 158.631 286.526L157.623 286.666C157.847 287.716 158.099 289.074 158.155 289.984L159.219 289.802ZM156.881 290.124C156.755 289.214 156.391 287.856 155.999 286.806L154.991 287.072C155.355 288.136 155.705 289.508 155.817 290.404L156.881 290.124ZM153.549 280.772L153.367 280.814H150.287V293.064H151.435V281.99H152.919C152.667 282.914 152.317 284.09 151.967 285C152.877 286.05 153.087 286.988 153.087 287.702C153.087 288.122 153.017 288.472 152.821 288.612C152.709 288.696 152.583 288.724 152.415 288.738C152.219 288.752 151.981 288.738 151.701 288.724C151.883 289.032 151.981 289.536 151.995 289.844C152.317 289.858 152.653 289.858 152.919 289.83C153.213 289.774 153.465 289.69 153.661 289.55C154.067 289.242 154.249 288.654 154.249 287.828C154.249 286.988 154.025 285.994 153.115 284.86C153.535 283.782 154.011 282.396 154.403 281.248L153.549 280.772ZM160.913 286.54C160.465 287.996 159.625 290.012 158.939 291.328H154.333V292.476H162.425V291.328H160.003C160.703 290.068 161.487 288.29 162.061 286.806L160.913 286.54ZM176.063 283.194V281.962H171.457C171.275 281.43 170.953 280.716 170.645 280.128L169.357 280.45C169.581 280.912 169.805 281.472 169.987 281.962H164.555V285.728C164.555 287.702 164.457 290.516 163.407 292.476C163.715 292.602 164.303 292.98 164.541 293.218C165.689 291.104 165.871 287.884 165.871 285.728V283.194H176.063ZM171.863 288.752C171.653 287.464 171.135 285.546 170.659 284.034L169.469 284.342C169.917 285.854 170.421 287.828 170.603 289.116L171.863 288.752ZM169.287 289.424C168.979 288.136 168.321 286.218 167.705 284.72L166.571 285.154C167.131 286.666 167.803 288.64 168.069 289.942L169.287 289.424ZM172.605 291.258C173.851 289.158 174.873 286.708 175.531 284.44L174.159 283.964C173.627 286.33 172.591 289.144 171.247 291.258H165.885V292.49H176.231V291.258H172.605ZM182.295 281.976L182.071 282.032H177.647V283.264H181.721C181.525 284.58 181.245 285.798 180.839 286.904C180.139 286.204 179.411 285.518 178.711 284.916L177.815 285.742C178.641 286.47 179.509 287.338 180.307 288.22C179.523 289.914 178.487 291.216 177.241 292.028C177.563 292.266 177.955 292.77 178.165 293.078C179.397 292.168 180.447 290.936 181.259 289.326C181.833 290.054 182.323 290.754 182.645 291.356L183.667 290.39C183.275 289.676 182.617 288.836 181.861 287.968C182.477 286.372 182.911 284.454 183.149 282.228L182.295 281.976ZM186.117 289.06C185.893 288.22 185.235 286.974 184.577 286.036L183.513 286.54C184.157 287.506 184.773 288.794 184.983 289.62L186.117 289.06ZM190.023 283.488H188.441V280.268H187.153V283.488H183.401V284.748H187.153V291.412C187.153 291.664 187.055 291.734 186.817 291.734C186.579 291.748 185.823 291.748 184.983 291.72C185.165 292.098 185.361 292.728 185.417 293.106C186.579 293.106 187.335 293.05 187.811 292.826C188.259 292.602 188.441 292.21 188.441 291.412V284.748H190.023V283.488Z" fill="#435CE7"/>
<path d="M46.7472 163.012C46.4112 164.02 45.9772 165.07 45.4592 166.036C44.7732 165.154 44.0592 164.3 43.4152 163.53L42.3372 164.076C43.1352 165.028 43.9892 166.12 44.7732 167.198C43.8912 168.57 42.8692 169.76 41.7772 170.53C42.0852 170.754 42.5052 171.216 42.7432 171.524C43.7652 170.712 44.7312 169.606 45.5572 168.318C46.3132 169.41 46.9712 170.46 47.3772 171.272L48.5812 170.572C48.0492 169.62 47.2092 168.388 46.2712 167.114C46.9152 165.924 47.4612 164.636 47.8812 163.32L46.7472 163.012ZM40.5732 160.842V164.874C40.5732 167.072 40.4472 170.152 38.9352 172.266C39.2292 172.42 39.7892 172.882 40.0272 173.148C41.6512 170.866 41.9172 167.24 41.9172 164.874V162.102H48.7632C48.7772 169.312 48.8052 172.966 50.7652 172.966C51.5772 172.966 51.8432 172.308 51.9692 170.488C51.7172 170.278 51.3672 169.844 51.1572 169.522C51.1292 170.628 51.0312 171.594 50.8632 171.594C49.9952 171.594 50.0092 167.576 50.0652 160.842H40.5732ZM58.7752 165.63H63.5772V164.524H59.0692C59.8392 163.782 60.5672 162.942 61.1832 162.032C62.2612 163.362 63.8012 164.79 65.1592 165.686C65.2992 165.336 65.5652 164.79 65.8032 164.482C64.4032 163.698 62.7792 162.27 61.8272 161.01C61.9112 160.856 61.9812 160.702 62.0652 160.548L60.9312 160.142C60.0352 161.99 58.4392 163.698 56.7872 164.748C57.0112 164.986 57.4032 165.532 57.5432 165.798C57.9632 165.49 58.3692 165.168 58.7752 164.804V165.63ZM62.2192 169.802C62.1352 168.92 61.8972 167.576 61.6312 166.526L60.6232 166.666C60.8472 167.716 61.0992 169.074 61.1552 169.984L62.2192 169.802ZM59.8812 170.124C59.7552 169.214 59.3912 167.856 58.9992 166.806L57.9912 167.072C58.3552 168.136 58.7052 169.508 58.8172 170.404L59.8812 170.124ZM56.5492 160.772L56.3672 160.814H53.2872V173.064H54.4352V161.99H55.9192C55.6672 162.914 55.3172 164.09 54.9672 165C55.8772 166.05 56.0872 166.988 56.0872 167.702C56.0872 168.122 56.0172 168.472 55.8212 168.612C55.7092 168.696 55.5832 168.724 55.4152 168.738C55.2192 168.752 54.9812 168.738 54.7012 168.724C54.8832 169.032 54.9812 169.536 54.9952 169.844C55.3172 169.858 55.6532 169.858 55.9192 169.83C56.2132 169.774 56.4652 169.69 56.6612 169.55C57.0672 169.242 57.2492 168.654 57.2492 167.828C57.2492 166.988 57.0252 165.994 56.1152 164.86C56.5352 163.782 57.0112 162.396 57.4032 161.248L56.5492 160.772ZM63.9132 166.54C63.4652 167.996 62.6252 170.012 61.9392 171.328H57.3332V172.476H65.4252V171.328H63.0032C63.7032 170.068 64.4872 168.29 65.0612 166.806L63.9132 166.54ZM73.9812 164.958C74.0372 164.258 74.0512 163.544 74.0792 162.802H72.7352C72.7212 163.544 72.6932 164.258 72.6512 164.958H69.5012V166.19H72.5532C72.2732 168.696 71.4752 170.796 68.8992 172.07C69.2072 172.308 69.5992 172.714 69.7532 173.036C72.6092 171.538 73.5332 169.088 73.8692 166.19H77.1312C76.9492 169.648 76.7532 171.076 76.3892 171.426C76.2212 171.58 76.0672 171.622 75.8012 171.608C75.4652 171.608 74.6392 171.608 73.7852 171.538C74.0372 171.902 74.2052 172.448 74.2332 172.826C75.0592 172.868 75.8852 172.882 76.3472 172.826C76.8512 172.784 77.2012 172.658 77.5092 172.266C78.0272 171.692 78.2372 169.998 78.4612 165.546C78.4752 165.378 78.4892 164.958 78.4892 164.958H73.9812ZM79.0912 160.884H67.4432V165.518C67.4432 167.59 67.3592 170.39 66.3652 172.364C66.6872 172.504 67.2752 172.854 67.5272 173.078C68.6052 170.964 68.7592 167.744 68.7592 165.518V162.102H79.0912V160.884ZM82.6072 163.614H85.9672V165.938H82.6072V163.614ZM90.6712 163.614V165.938H87.3112V163.614H90.6712ZM92.0152 167.184V162.368H87.3112V160.31H85.9672V162.368H81.3332V167.184H85.9392C85.8692 168.15 85.6312 169.046 84.9592 169.816C84.2452 169.228 83.6152 168.486 83.1252 167.52L81.9352 167.954C82.4812 169.088 83.1392 169.97 83.9512 170.656C83.0972 171.202 81.9072 171.636 80.2272 171.972C80.5072 172.266 80.8572 172.826 80.9972 173.134C82.8452 172.7 84.1612 172.126 85.0852 171.454C86.9612 172.504 89.4112 172.868 92.5332 173.036C92.6312 172.588 92.8972 172.014 93.1352 171.692C90.1252 171.608 87.8292 171.356 86.1072 170.516C86.9052 169.536 87.1992 168.388 87.2832 167.184H92.0152ZM62.6672 190.586V191.692H56.5772V190.586H62.6672ZM61.7012 186.834V187.828H56.5772V186.834H61.7012ZM56.5772 188.794H63.0032V185.868H55.3452V193.12H56.5772V192.686H62.6672V193.092H63.9692V189.606H56.5772V188.794ZM65.4952 181.262H61.0712C61.2112 181.01 61.3512 180.744 61.4632 180.478L60.2032 180.17C59.9232 180.884 59.4752 181.57 58.9292 182.144V181.262H55.5272C55.6672 181.01 55.7932 180.744 55.9052 180.492L54.6872 180.17C54.2532 181.248 53.4832 182.326 52.6572 183.026C52.9652 183.194 53.4692 183.53 53.7212 183.74C54.1132 183.362 54.5192 182.872 54.8832 182.326H55.3172C55.5832 182.802 55.8632 183.348 55.9752 183.712L57.1372 183.362C57.0392 183.082 56.8432 182.704 56.6332 182.326H58.7472C58.5372 182.522 58.3132 182.718 58.0892 182.872C58.2152 182.928 58.3692 183.012 58.5372 183.096H58.4672V184.118H53.2732V186.792H54.4912V185.14H63.8292V186.792H65.1032V184.118H59.7132V183.096H59.6852C59.9232 182.858 60.1472 182.606 60.3572 182.326H61.3512C61.7152 182.802 62.0932 183.362 62.2332 183.74L63.4512 183.376C63.3112 183.068 63.0452 182.69 62.7792 182.326H65.4952V181.262ZM70.8732 189.018C70.3972 189.186 69.8932 189.34 69.4172 189.494V186.33H70.7472V185.126H69.4172V182.34H70.9712V181.136H66.5192V182.34H68.1712V185.126H66.6592V186.33H68.1712V189.886C67.4992 190.096 66.8832 190.264 66.3792 190.404L66.6872 191.734C67.9472 191.328 69.5712 190.782 71.0972 190.25L70.8732 189.018ZM72.7632 184.538H74.5972V186.078H72.7632V184.538ZM72.7632 181.99H74.5972V183.502H72.7632V181.99ZM77.4952 183.502H75.7032V181.99H77.4952V183.502ZM77.4952 186.078H75.7032V184.538H77.4952V186.078ZM75.8152 191.468V189.802H78.9232V188.626H75.8152V187.184H78.7412V180.884H71.5732V187.184H74.4852V188.626H71.4472V189.802H74.4852V191.468H70.4252V192.658H79.3712V191.468H75.8152Z" fill="#435CE7"/>
<path d="M241.747 173.012C241.411 174.02 240.977 175.07 240.459 176.036C239.773 175.154 239.059 174.3 238.415 173.53L237.337 174.076C238.135 175.028 238.989 176.12 239.773 177.198C238.891 178.57 237.869 179.76 236.777 180.53C237.085 180.754 237.505 181.216 237.743 181.524C238.765 180.712 239.731 179.606 240.557 178.318C241.313 179.41 241.971 180.46 242.377 181.272L243.581 180.572C243.049 179.62 242.209 178.388 241.271 177.114C241.915 175.924 242.461 174.636 242.881 173.32L241.747 173.012ZM235.573 170.842V174.874C235.573 177.072 235.447 180.152 233.935 182.266C234.229 182.42 234.789 182.882 235.027 183.148C236.651 180.866 236.917 177.24 236.917 174.874V172.102H243.763C243.777 179.312 243.805 182.966 245.765 182.966C246.577 182.966 246.843 182.308 246.969 180.488C246.717 180.278 246.367 179.844 246.157 179.522C246.129 180.628 246.031 181.594 245.863 181.594C244.995 181.594 245.009 177.576 245.065 170.842H235.573ZM253.775 175.63H258.577V174.524H254.069C254.839 173.782 255.567 172.942 256.183 172.032C257.261 173.362 258.801 174.79 260.159 175.686C260.299 175.336 260.565 174.79 260.803 174.482C259.403 173.698 257.779 172.27 256.827 171.01C256.911 170.856 256.981 170.702 257.065 170.548L255.931 170.142C255.035 171.99 253.439 173.698 251.787 174.748C252.011 174.986 252.403 175.532 252.543 175.798C252.963 175.49 253.369 175.168 253.775 174.804V175.63ZM257.219 179.802C257.135 178.92 256.897 177.576 256.631 176.526L255.623 176.666C255.847 177.716 256.099 179.074 256.155 179.984L257.219 179.802ZM254.881 180.124C254.755 179.214 254.391 177.856 253.999 176.806L252.991 177.072C253.355 178.136 253.705 179.508 253.817 180.404L254.881 180.124ZM251.549 170.772L251.367 170.814H248.287V183.064H249.435V171.99H250.919C250.667 172.914 250.317 174.09 249.967 175C250.877 176.05 251.087 176.988 251.087 177.702C251.087 178.122 251.017 178.472 250.821 178.612C250.709 178.696 250.583 178.724 250.415 178.738C250.219 178.752 249.981 178.738 249.701 178.724C249.883 179.032 249.981 179.536 249.995 179.844C250.317 179.858 250.653 179.858 250.919 179.83C251.213 179.774 251.465 179.69 251.661 179.55C252.067 179.242 252.249 178.654 252.249 177.828C252.249 176.988 252.025 175.994 251.115 174.86C251.535 173.782 252.011 172.396 252.403 171.248L251.549 170.772ZM258.913 176.54C258.465 177.996 257.625 180.012 256.939 181.328H252.333V182.476H260.425V181.328H258.003C258.703 180.068 259.487 178.29 260.061 176.806L258.913 176.54ZM265.145 172.704C264.697 172.116 263.731 171.234 263.003 170.618L262.191 171.402C262.919 172.074 263.843 173.012 264.277 173.614L265.145 172.704ZM264.501 180.222V174.566H261.519V175.812H263.297V180.614C263.297 181.216 262.919 181.594 262.653 181.776C262.863 182.028 263.143 182.546 263.255 182.854C263.465 182.56 263.843 182.238 266.167 180.39C266.027 180.124 265.803 179.62 265.691 179.298L264.501 180.222ZM274.315 177.086H270.563V172.172H273.727V170.926H265.915V172.172H269.247V177.086H265.551V178.318H269.247V183.092H270.563V178.318H274.315V177.086ZM266.307 173.11C266.657 174.16 266.951 175.546 267.035 176.47L268.197 176.148C268.099 175.266 267.791 173.894 267.399 172.83L266.307 173.11ZM272.537 176.526C272.887 175.658 273.293 174.286 273.643 173.11L272.355 172.816C272.201 173.866 271.823 175.336 271.515 176.246L272.537 176.526ZM278.251 170.31C277.495 172.354 276.249 174.398 274.933 175.7C275.143 176.008 275.521 176.708 275.647 177.016C276.039 176.61 276.431 176.134 276.809 175.616V183.078H278.041V173.712C278.587 172.746 279.091 171.71 279.469 170.688L278.251 170.31ZM285.909 181.272H281.233V178.346H285.909V181.272ZM288.051 174.468V173.208H284.215V170.24H282.871V173.208H279.217V174.468H282.871V177.114H279.945V183.092H281.233V182.504H285.909V183.036H287.239V177.114H284.215V174.468H288.051Z" fill="#435CE7"/>
</svg>
