<svg width="1200" height="420" viewBox="0 0 1200 420" fill="none" xmlns="http://www.w3.org/2000/svg">
<rect width="1200" height="420" rx="20" fill="#F6F7FE"/>
<path opacity="0.7" d="M526.5 100H477C473.134 100 470 103.134 470 107V187" stroke="#7094F0" stroke-linecap="round" stroke-dasharray="2 4"/>
<path opacity="0.7" d="M674 320L723 320C726.866 320 730 316.866 730 313L730 233" stroke="#7094F0" stroke-linecap="round" stroke-dasharray="2 4"/>
<path opacity="0.7" d="M470 283L470 312C470 315.866 473.134 319 477 319L557 319" stroke="#7094F0" stroke-linecap="round" stroke-dasharray="2 4"/>
<path opacity="0.7" d="M730 137.5L730 107C730 103.134 726.866 100 723 100L643 100" stroke="#7094F0" stroke-linecap="round" stroke-dasharray="2 4"/>
<path d="M469.232 280.922L466.367 284.36C465.824 285.011 466.287 286 467.135 286H472.865C473.713 286 474.176 285.011 473.633 284.36L470.768 280.922C470.368 280.442 469.632 280.442 469.232 280.922Z" fill="#7094F0"/>
<path d="M730.768 139.078L733.633 135.64C734.176 134.989 733.713 134 732.865 134L727.135 134C726.287 134 725.824 134.989 726.367 135.64L729.232 139.078C729.632 139.558 730.368 139.558 730.768 139.078Z" fill="#7094F0"/>
<path d="M529.078 99.2318L525.64 96.3668C524.989 95.824 524 96.2872 524 97.135L524 102.865C524 103.713 524.989 104.176 525.64 103.633L529.078 100.768C529.558 100.368 529.558 99.6316 529.078 99.2318Z" fill="#7094F0"/>
<path d="M670.922 320.768L674.36 323.633C675.011 324.176 676 323.713 676 322.865L676 317.135C676 316.287 675.011 315.824 674.36 316.367L670.922 319.232C670.442 319.632 670.442 320.368 670.922 320.768Z" fill="#7094F0"/>
<circle cx="600" cy="100" r="59.5" fill="white" stroke="#435CE7"/>
<path d="M565.327 100.424H570.367V95.064H563.631V96.408H568.703V99.096H563.663V104.824H564.895C567.439 104.824 569.599 104.744 572.079 104.312L571.903 102.968C569.615 103.336 567.615 103.448 565.327 103.464V100.424ZM573.103 93.752V108.264H574.767V93.752H573.103ZM589.844 100.84C586.996 100.328 584.676 98.104 584.676 95.8V94.712H582.932V95.8C582.932 98.088 580.612 100.312 577.764 100.84L578.468 102.2C580.82 101.72 582.852 100.216 583.796 98.232C584.74 100.216 586.772 101.72 589.124 102.2L589.844 100.84ZM577.316 105.016V106.376H590.404V105.016H577.316ZM592.905 99.48L593.113 100.824L601.641 100.392C601.561 101.448 601.401 102.584 601.097 103.88L602.729 104.024C603.369 100.984 603.369 99 603.369 96.904V95.16H593.305V96.488H601.753V96.904C601.753 97.64 601.753 98.376 601.721 99.144L592.905 99.48ZM591.785 105V106.36H604.841V105H591.785ZM622.669 100.904H620.509C620.925 98.584 620.925 96.92 620.925 95.656V94.648H611.197V95.992H619.293C619.293 97.208 619.261 98.792 618.845 100.904H609.597V102.264H612.781V108.248H614.413V102.264H617.741V108.248H619.389V102.264H622.669V100.904ZM629.778 100.056H626.306V96.168H629.778V100.056ZM634.386 97.352V98.872H631.378V97.352H634.386ZM631.378 100.216H634.386V102.296H636.034V93.784H634.386V96.008H631.378V94.856H624.69V101.368H631.378V100.216ZM631.218 106.952C629.17 106.952 628.002 106.424 628.002 105.464C628.002 104.52 629.17 103.992 631.218 103.992C633.266 103.992 634.45 104.52 634.45 105.464C634.45 106.424 633.266 106.952 631.218 106.952ZM631.218 102.696C628.21 102.696 626.354 103.72 626.354 105.464C626.354 107.208 628.21 108.232 631.218 108.232C634.242 108.232 636.098 107.208 636.098 105.464C636.098 103.72 634.242 102.696 631.218 102.696Z" fill="#435CE7"/>
<circle cx="600" cy="320" r="59.5" fill="white" stroke="#435CE7"/>
<path d="M565.327 320.424H570.367V315.064H563.631V316.408H568.703V319.096H563.663V324.824H564.895C567.439 324.824 569.599 324.744 572.079 324.312L571.903 322.968C569.615 323.336 567.615 323.448 565.327 323.464V320.424ZM573.103 313.752V328.264H574.767V313.752H573.103ZM589.844 320.84C586.996 320.328 584.676 318.104 584.676 315.8V314.712H582.932V315.8C582.932 318.088 580.612 320.312 577.764 320.84L578.468 322.2C580.82 321.72 582.852 320.216 583.796 318.232C584.74 320.216 586.772 321.72 589.124 322.2L589.844 320.84ZM577.316 325.016V326.376H590.404V325.016H577.316ZM592.905 319.48L593.113 320.824L601.641 320.392C601.561 321.448 601.401 322.584 601.097 323.88L602.729 324.024C603.369 320.984 603.369 319 603.369 316.904V315.16H593.305V316.488H601.753V316.904C601.753 317.64 601.753 318.376 601.721 319.144L592.905 319.48ZM591.785 325V326.36H604.841V325H591.785ZM611.693 316.84H615.421V315.496H610.077V324.792H611.037C613.069 324.792 614.557 324.728 616.301 324.392L616.157 323.032C614.669 323.336 613.357 323.416 611.693 323.432V316.84ZM620.349 313.768V319.48H618.637V314.072H617.085V327.512H618.637V320.824H620.349V328.216H621.917V313.768H620.349ZM624.05 320.68V322.008H637.122V320.68H624.05ZM630.562 323.016C627.458 323.016 625.586 323.976 625.586 325.64C625.586 327.304 627.458 328.248 630.562 328.248C633.682 328.248 635.538 327.304 635.538 325.64C635.538 323.976 633.682 323.016 630.562 323.016ZM630.562 324.296C632.674 324.296 633.874 324.76 633.874 325.64C633.874 326.52 632.674 326.984 630.562 326.984C628.45 326.984 627.266 326.52 627.266 325.64C627.266 324.76 628.45 324.296 630.562 324.296ZM630.594 314.12C627.442 314.12 625.442 315.176 625.442 316.92C625.442 318.648 627.442 319.704 630.594 319.704C633.73 319.704 635.746 318.648 635.746 316.92C635.746 315.176 633.73 314.12 630.594 314.12ZM630.594 315.416C632.738 315.416 634.034 315.96 634.034 316.92C634.034 317.864 632.738 318.408 630.594 318.408C628.45 318.408 627.138 317.864 627.138 316.92C627.138 315.96 628.45 315.416 630.594 315.416Z" fill="#435CE7"/>
<circle cx="470" cy="210" r="59.5" fill="white" stroke="#435CE7"/>
<path d="M434.327 199.424H439.367V194.064H432.631V195.408H437.703V198.096H432.663V203.824H433.895C436.439 203.824 438.599 203.744 441.079 203.312L440.903 201.968C438.615 202.336 436.615 202.448 434.327 202.464V199.424ZM442.103 192.752V207.264H443.767V192.752H442.103ZM458.844 199.84C455.996 199.328 453.676 197.104 453.676 194.8V193.712H451.932V194.8C451.932 197.088 449.612 199.312 446.764 199.84L447.468 201.2C449.82 200.72 451.852 199.216 452.796 197.232C453.74 199.216 455.772 200.72 458.124 201.2L458.844 199.84ZM446.316 204.016V205.376H459.404V204.016H446.316ZM461.905 198.48L462.113 199.824L470.641 199.392C470.561 200.448 470.401 201.584 470.097 202.88L471.729 203.024C472.369 199.984 472.369 198 472.369 195.904V194.16H462.305V195.488H470.753V195.904C470.753 196.64 470.753 197.376 470.721 198.144L461.905 198.48ZM460.785 204V205.36H473.841V204H460.785ZM488.821 192.768V207.264H490.485V192.768H488.821ZM482.789 193.84C480.645 193.84 479.077 195.824 479.077 198.928C479.077 202.064 480.645 204.032 482.789 204.032C484.949 204.032 486.517 202.064 486.517 198.928C486.517 195.824 484.949 193.84 482.789 193.84ZM482.789 195.328C484.053 195.328 484.933 196.688 484.933 198.928C484.933 201.2 484.053 202.56 482.789 202.56C481.541 202.56 480.661 201.2 480.661 198.928C480.661 196.688 481.541 195.328 482.789 195.328ZM500.57 199.472C499.002 199.744 497.674 199.808 495.258 199.808V197.936H499.882V193.616H493.61V194.944H498.25V196.672H493.642V201.152H494.698C497.53 201.152 499.002 201.104 500.746 200.8L500.57 199.472ZM495.258 203.744H503.386V207.264H505.034V202.4H495.258V203.744ZM503.386 192.784V194.864H500.794V196.192H503.386V197.888H500.794V199.216H503.386V201.68H505.034V192.784H503.386ZM462.979 220.976C463.331 219.104 463.331 217.68 463.331 216.704V215.872H456.067V217.216H461.715C461.699 218.112 461.651 219.248 461.363 220.8L462.979 220.976ZM464.179 221.696C462.755 221.92 461.203 222.016 459.699 222.08V219.168H458.067V222.128C457.043 222.16 456.051 222.16 455.187 222.16L455.363 223.504C457.875 223.504 461.283 223.424 464.291 222.896L464.179 221.696ZM459.027 224.672H457.363V228.96H467.187V227.616H459.027V224.672ZM466.723 219.36V214.784H465.059V225.632H466.723V220.72H468.643V219.36H466.723ZM472.296 221.424H477.336V216.064H470.6V217.408H475.672V220.096H470.632V225.824H471.864C474.408 225.824 476.568 225.744 479.048 225.312L478.872 223.968C476.584 224.336 474.584 224.448 472.296 224.464V221.424ZM480.072 214.752V229.264H481.736V214.752H480.072Z" fill="#435CE7"/>
<circle cx="730" cy="210" r="59.5" fill="white" stroke="#435CE7"/>
<path d="M695.327 210.424H700.367V205.064H693.631V206.408H698.703V209.096H693.663V214.824H694.895C697.439 214.824 699.599 214.744 702.079 214.312L701.903 212.968C699.615 213.336 697.615 213.448 695.327 213.464V210.424ZM703.103 203.752V218.264H704.767V203.752H703.103ZM719.844 210.84C716.996 210.328 714.676 208.104 714.676 205.8V204.712H712.932V205.8C712.932 208.088 710.612 210.312 707.764 210.84L708.468 212.2C710.82 211.72 712.852 210.216 713.796 208.232C714.74 210.216 716.772 211.72 719.124 212.2L719.844 210.84ZM707.316 215.016V216.376H720.404V215.016H707.316ZM722.905 209.48L723.113 210.824L731.641 210.392C731.561 211.448 731.401 212.584 731.097 213.88L732.729 214.024C733.369 210.984 733.369 209 733.369 206.904V205.16H723.305V206.488H731.753V206.904C731.753 207.64 731.753 208.376 731.721 209.144L722.905 209.48ZM721.785 215V216.36H734.841V215H721.785ZM749.917 212.664H751.565V203.784H749.917V206.248H747.821V207.576H749.917V208.888H747.821V210.216H749.917V212.664ZM742.877 206.152H744.717V210.504C744.093 210.536 743.485 210.552 742.877 210.568V206.152ZM747.933 210.248C747.405 210.312 746.861 210.376 746.301 210.392V206.152H747.597V204.808H739.981V206.152H741.293V210.6C740.701 210.6 740.125 210.6 739.597 210.6L739.789 211.96C742.109 211.96 745.309 211.912 748.029 211.448L747.933 210.248ZM746.749 216.968C744.685 216.968 743.533 216.472 743.533 215.592C743.533 214.68 744.685 214.2 746.749 214.2C748.813 214.2 749.981 214.68 749.981 215.592C749.981 216.472 748.813 216.968 746.749 216.968ZM746.749 212.92C743.725 212.92 741.885 213.896 741.885 215.592C741.885 217.256 743.725 218.232 746.749 218.232C749.773 218.232 751.629 217.256 751.629 215.592C751.629 213.896 749.773 212.92 746.749 212.92ZM754.77 205.304V206.648H759.826C759.49 209.976 757.586 212.52 754.05 214.328L754.962 215.592C759.682 213.208 761.474 209.496 761.474 205.304H754.77ZM767.442 209.48H765.25V203.768H763.602V218.216H765.25V210.856H767.442V209.48Z" fill="#435CE7"/>
</svg>
