<svg width="327" height="466" viewBox="0 0 327 466" fill="none" xmlns="http://www.w3.org/2000/svg">
<path d="M164 402V41" stroke="#7094F0" stroke-linecap="round" stroke-linejoin="round" stroke-dasharray="2 4"/>
<path d="M164.768 405.078L167.633 401.64C168.176 400.989 167.713 400 166.865 400L161.135 400C160.287 400 159.824 400.989 160.367 401.64L163.232 405.078C163.632 405.558 164.368 405.558 164.768 405.078Z" fill="#7094F0"/>
<rect y="416" width="327" height="50" rx="7" fill="#435CE7"/>
<path d="M64.378 437.886H67.192V436.696H60.108V437.886H62.922V439.09C62.922 441.26 61.62 443.612 59.66 444.522L60.486 445.67C61.97 444.956 63.104 443.458 63.664 441.694C64.252 443.332 65.386 444.704 66.856 445.348L67.654 444.214C65.68 443.374 64.378 441.19 64.378 439.09V437.886ZM68.662 435.436V448.078H70.118V435.436H68.662ZM83.1109 439.454C80.5769 439.118 78.7849 437.718 78.7849 436.122V435.646H77.3009V436.122C77.3009 437.69 75.4669 439.118 72.9749 439.454L73.5069 440.574C75.5509 440.266 77.2309 439.3 78.0289 437.956C78.8409 439.314 80.5349 440.252 82.5649 440.574L83.1109 439.454ZM73.6049 445.096H80.9269V448.092H82.3689V443.934H73.6049V445.096ZM78.7569 441.68V439.874H77.3149V441.68H72.3309V442.842H83.7969V441.68H78.7569ZM85.5898 436.766V437.942H90.0138C89.7198 440.854 88.0538 443.08 84.9598 444.662L85.7578 445.768C89.8878 443.682 91.4558 440.434 91.4558 436.766H85.5898ZM96.6778 440.42H94.7598V435.422H93.3178V448.064H94.7598V441.624H96.6778V440.42ZM107.739 438.796H100.543V435.674H99.1007V439.958H107.739V438.796ZM103.287 446.93C101.439 446.93 100.403 446.496 100.403 445.726C100.403 444.928 101.439 444.522 103.287 444.522C105.135 444.522 106.185 444.928 106.185 445.726C106.185 446.496 105.135 446.93 103.287 446.93ZM103.287 443.388C100.585 443.388 98.9327 444.242 98.9327 445.726C98.9327 447.196 100.585 448.05 103.287 448.05C106.003 448.05 107.641 447.196 107.641 445.726C107.641 444.242 106.003 443.388 103.287 443.388ZM97.6027 441.232V442.408H109.041V441.232H97.6027ZM119.262 438.782V440.238H116.196V441.414H119.262V442.87H120.704V435.436H119.262V437.606H116.658C116.728 437.214 116.77 436.794 116.77 436.346H111.03V437.508H115.23C114.978 439.482 113.34 441.036 110.372 441.862L110.946 443.01C113.676 442.212 115.538 440.798 116.322 438.782H119.262ZM116.56 446.888C114.852 446.888 113.774 446.398 113.774 445.516C113.774 444.648 114.852 444.158 116.56 444.158C118.282 444.158 119.36 444.648 119.36 445.516C119.36 446.398 118.282 446.888 116.56 446.888ZM116.56 443.024C113.998 443.024 112.346 443.976 112.346 445.516C112.346 447.07 113.998 448.022 116.56 448.022C119.122 448.022 120.788 447.07 120.788 445.516C120.788 443.976 119.122 443.024 116.56 443.024ZM124.4 439.202C124.4 438.096 125.212 437.368 126.332 437.368C127.424 437.368 128.236 438.096 128.236 439.202C128.236 440.294 127.424 441.022 126.332 441.022C125.212 441.022 124.4 440.294 124.4 439.202ZM131.89 438.348V440.056H129.482C129.566 439.79 129.608 439.51 129.608 439.202C129.608 438.894 129.566 438.614 129.496 438.348H131.89ZM131.89 441.218V442.884H133.332V435.422H131.89V437.172H128.838C128.25 436.542 127.368 436.15 126.332 436.15C124.442 436.15 123.028 437.41 123.028 439.202C123.028 440.98 124.442 442.24 126.332 442.24C127.354 442.24 128.25 441.862 128.838 441.218H131.89ZM129.118 446.944C127.326 446.944 126.276 446.482 126.276 445.614C126.276 444.774 127.326 444.298 129.118 444.298C130.924 444.298 131.96 444.774 131.96 445.614C131.96 446.482 130.924 446.944 129.118 446.944ZM129.118 443.164C126.486 443.164 124.862 444.074 124.862 445.614C124.862 447.168 126.486 448.078 129.118 448.078C131.75 448.078 133.388 447.168 133.388 445.614C133.388 444.074 131.75 443.164 129.118 443.164ZM139.913 436.486H138.471V438.558C138.471 440.896 137.239 443.29 135.265 444.256L136.147 445.418C137.589 444.676 138.653 443.206 139.199 441.456C139.745 443.108 140.753 444.48 142.111 445.18L142.993 444.032C141.089 443.094 139.913 440.812 139.913 438.558V436.486ZM147.249 440.448H145.275V435.436H143.833V448.078H145.275V441.638H147.249V440.448ZM156.714 439.944H150.932V437.256H156.714V439.944ZM158.142 436.108H149.504V441.106H158.142V436.108ZM159.57 442.66H148.104V443.822H153.074V448.078H154.516V443.822H159.57V442.66ZM172.199 441.624V440.462H170.491C170.771 439.02 170.771 437.928 170.771 436.976V436.01H162.175V437.172H169.357C169.357 438.082 169.329 439.104 169.049 440.462H160.747V441.624H165.731V443.696H161.909V444.858H169.385V448.078H170.827V443.696H167.187V441.624H172.199ZM178.959 437.592H184.979V441.344H178.959V437.592ZM182.697 445.348V442.492H186.393V436.444H177.545V442.492H181.255V445.348H176.271V446.524H187.723V445.348H182.697ZM191.07 436.668H189.642V444.886H190.72C192.68 444.886 194.724 444.732 196.894 444.284L196.74 443.08C194.752 443.486 192.862 443.64 191.07 443.654V436.668ZM197.902 435.436V448.078H199.344V435.436H197.902ZM203.53 441.232H207.436V440.084H203.53V437.718H207.954V436.528H202.088V445.138H203.082C205.378 445.138 206.96 445.082 208.766 444.76L208.64 443.598C206.988 443.878 205.546 443.948 203.53 443.962V441.232ZM210.572 435.408V440.056H208.15V441.246H210.572V448.092H212.028V435.408H210.572ZM224.573 435.436H223.131V443.178H224.573V435.436ZM221.815 440.952C219.981 441.26 218.399 441.33 216.229 441.33V439.86H220.555V436.206H214.773V437.368H219.141V438.768H214.801V442.506H215.865C218.287 442.506 219.995 442.45 221.983 442.128L221.815 440.952ZM220.373 446.944C218.567 446.944 217.531 446.524 217.531 445.754C217.531 444.97 218.567 444.55 220.373 444.55C222.193 444.55 223.215 444.97 223.215 445.754C223.215 446.524 222.193 446.944 220.373 446.944ZM220.373 443.416C217.713 443.416 216.103 444.284 216.103 445.754C216.103 447.224 217.713 448.092 220.373 448.092C223.033 448.092 224.657 447.224 224.657 445.754C224.657 444.284 223.033 443.416 220.373 443.416ZM240.097 435.422H238.641V442.646H240.097V435.422ZM234.917 440.322H231.739V437.368H234.917V440.322ZM236.317 436.22H230.325V441.47H236.317V436.22ZM240.335 444.536V443.43H236.709V442.296H235.239V443.43H231.613V444.536H235.239C235.127 445.614 233.489 446.72 231.123 446.958L231.599 448.05C233.615 447.812 235.211 447.014 235.981 445.908C236.751 447 238.319 447.812 240.321 448.05L240.797 446.958C238.459 446.706 236.835 445.572 236.723 444.536H240.335ZM255.62 435.45H254.178V444.648H255.62V435.45ZM253.002 441.82C251.056 441.19 249.908 439.65 249.908 438.04V437.578H252.61V436.416H245.694V437.578H248.438V438.04C248.438 439.748 247.304 441.386 245.302 442.058L246.058 443.178C247.57 442.674 248.634 441.596 249.194 440.252C249.754 441.498 250.818 442.478 252.274 442.954L253.002 441.82ZM248.816 446.664V443.808H247.36V447.84H255.984V446.664H248.816ZM265.071 440.826C263.545 441.148 262.187 441.218 259.793 441.232V437.648H263.979V436.472H258.351V442.422H259.373C262.089 442.422 263.573 442.338 265.211 441.988L265.071 440.826ZM261.151 443.654H259.695V447.84H268.207V446.664H261.151V443.654ZM267.703 439.048V435.422H266.261V444.578H267.703V440.238H269.495V439.048H267.703Z" fill="white"/>
<rect width="327" height="50" rx="7" fill="#F6F7FE"/>
<path d="M75.4788 20.766V21.942H79.9868C79.7348 24.854 78.1668 27.08 74.8488 28.676L75.6188 29.824C79.9588 27.724 81.4708 24.532 81.4708 20.766H75.4788ZM83.7528 19.436V32.078H85.1948V19.436H83.7528ZM98.1877 20.822H93.8197V19.394H92.3777V20.822L87.9537 20.822V21.97L98.1877 21.97V20.822ZM95.8077 24.728C95.8077 25.414 94.8697 25.792 93.1057 25.792C91.3417 25.792 90.3897 25.414 90.3897 24.728C90.3897 24.042 91.3417 23.678 93.1057 23.678C94.8697 23.678 95.8077 24.042 95.8077 24.728ZM88.8917 24.728C88.8917 26.1 90.4737 26.87 93.1057 26.87C95.7377 26.87 97.3197 26.1 97.3197 24.728C97.3197 23.356 95.7377 22.586 93.1057 22.586C90.4737 22.586 88.8917 23.356 88.8917 24.728ZM98.8457 27.626L87.3797 27.626V28.788H92.3777V32.092H93.8197V28.788L98.8457 28.788V27.626ZM107.033 21.172C108.139 21.172 108.909 21.746 108.909 22.628C108.909 23.524 108.139 24.098 107.033 24.098C105.941 24.098 105.157 23.524 105.157 22.628C105.157 21.746 105.941 21.172 107.033 21.172ZM107.033 25.288C108.923 25.288 110.295 24.196 110.295 22.628C110.295 21.074 108.923 19.982 107.033 19.982C105.143 19.982 103.771 21.074 103.771 22.628C103.771 24.196 105.143 25.288 107.033 25.288ZM111.107 25.764C108.377 26.17 105.199 26.212 102.917 26.212L103.085 27.402C104.065 27.402 105.185 27.388 106.375 27.346V31.7H107.817V27.262C108.937 27.178 110.099 27.052 111.205 26.828L111.107 25.764ZM111.933 19.436V32.092H113.375V19.436H111.933ZM116.26 20.766V21.942L120.768 21.942C120.516 24.854 118.948 27.08 115.63 28.676L116.4 29.824C120.74 27.724 122.252 24.532 122.252 20.766L116.26 20.766ZM124.534 19.436V32.078H125.976V19.436H124.534ZM137.747 24.854C138.055 23.216 138.055 21.97 138.055 21.116V20.388H131.699V21.564H136.641C136.627 22.348 136.585 23.342 136.333 24.7L137.747 24.854ZM138.797 25.484C137.551 25.68 136.193 25.764 134.877 25.82V23.272H133.449V25.862C132.553 25.89 131.685 25.89 130.929 25.89L131.083 27.066C133.281 27.066 136.263 26.996 138.895 26.534L138.797 25.484ZM134.289 28.088H132.833V31.84H141.429V30.664H134.289V28.088ZM141.023 23.44V19.436H139.567V28.928H141.023V24.63H142.703V23.44H141.023ZM152.728 28.76H154.17V19.45H152.728V21.466L150.46 21.466V22.642L152.728 22.642V24.308L150.46 24.308V25.47L152.728 25.47V28.76ZM150.278 25.638C148.822 25.89 147.604 25.946 145.616 25.96V24.182H149.662V20.318H144.16V21.48H148.22V23.076H144.188V27.136H145.126C147.464 27.136 148.822 27.08 150.432 26.8L150.278 25.638ZM147.324 30.622V28.06H145.868V31.798H154.52V30.622H147.324ZM165.956 22.824V24.014H168.252V28.69H169.694V19.45H168.252V22.824H165.956ZM166.74 25.778C164.85 25.12 163.772 23.538 163.772 21.984V21.55H166.404V20.388H159.642V21.55H162.316V21.984C162.316 23.692 161.168 25.358 159.208 26.044L159.95 27.178C161.448 26.66 162.512 25.554 163.072 24.182C163.604 25.428 164.626 26.422 166.026 26.898L166.74 25.778ZM162.946 30.664V27.892H161.504V31.84H170.016V30.664H162.946ZM176.275 20.486H174.833V22.558C174.833 24.896 173.601 27.29 171.627 28.256L172.509 29.418C173.951 28.676 175.015 27.206 175.561 25.456C176.107 27.108 177.115 28.48 178.473 29.18L179.355 28.032C177.451 27.094 176.275 24.812 176.275 22.558V20.486ZM183.611 24.448H181.637V19.436H180.195V32.078H181.637V25.638H183.611V24.448ZM191.998 25.428C190.108 24.77 189.03 23.188 189.03 21.62V21.382H191.662V20.22H184.9V21.382H187.574V21.634C187.574 23.342 186.426 25.008 184.466 25.68L185.208 26.814C186.706 26.296 187.77 25.204 188.33 23.846C188.876 25.064 189.884 26.058 191.284 26.548L191.998 25.428ZM186.426 28.774H193.51V32.078H194.952V27.612H186.426V28.774ZM193.51 19.422V22.6H191.298V23.79H193.51V26.982H194.952V19.422H193.51ZM208.949 19.422V32.106H210.405V19.422L208.949 19.422ZM203.671 20.36C201.795 20.36 200.423 22.096 200.423 24.812C200.423 27.556 201.795 29.278 203.671 29.278C205.561 29.278 206.933 27.556 206.933 24.812C206.933 22.096 205.561 20.36 203.671 20.36ZM203.671 21.662C204.777 21.662 205.547 22.852 205.547 24.812C205.547 26.8 204.777 27.99 203.671 27.99C202.579 27.99 201.809 26.8 201.809 24.812C201.809 22.852 202.579 21.662 203.671 21.662ZM223.552 24.154C221.018 23.776 219.114 22.166 219.114 20.514V19.856H217.588V20.514C217.588 22.194 215.712 23.776 213.164 24.154L213.724 25.33C215.824 24.98 217.546 23.902 218.358 22.418C219.184 23.888 220.892 24.98 222.992 25.33L223.552 24.154ZM224.084 26.548L212.618 26.548V27.724H215.418V32.162H216.86V27.724H219.884V32.162H221.312V27.724H224.084V26.548ZM230.955 21.872H232.677V27.766C232.103 27.794 231.515 27.822 230.955 27.836V21.872ZM234.077 21.872H235.309V20.71H228.323V21.872H229.555V27.864C229.009 27.864 228.477 27.864 228.001 27.864L228.155 29.054C230.353 29.054 233.279 29.012 235.897 28.578L235.813 27.514C235.253 27.584 234.665 27.64 234.077 27.696V21.872ZM239.915 24.378H237.941V19.436L236.499 19.436V32.092H237.941V25.568H239.915V24.378ZM242.352 23.202C242.352 22.096 243.178 21.382 244.298 21.382C245.432 21.382 246.258 22.096 246.258 23.202C246.258 24.308 245.432 25.022 244.298 25.022C243.178 25.022 242.352 24.308 242.352 23.202ZM247.672 23.202C247.672 21.41 246.23 20.164 244.298 20.164C242.38 20.164 240.938 21.41 240.938 23.202C240.938 24.994 242.38 26.24 244.298 26.24C246.23 26.24 247.672 24.994 247.672 23.202ZM242.338 28.62H249.212V32.106H250.654V27.458H242.338V28.62ZM252.446 22.558H250.654V19.436H249.212V26.856H250.654V23.748H252.446V22.558Z" fill="#435CE7"/>
<rect y="66" width="327" height="50" rx="7" fill="#F6F7FE"/>
<path d="M68.9651 91.246H73.3751V86.556H67.4811V87.732H71.9191V90.084H67.5091V95.096H68.5871C70.8131 95.096 72.7031 95.026 74.8731 94.648L74.7191 93.472C72.7171 93.794 70.9671 93.892 68.9651 93.906V91.246ZM75.7691 85.408V98.106H77.2251V85.408H75.7691ZM90.386 91.61C87.894 91.162 85.864 89.216 85.864 87.2V86.248H84.338V87.2C84.338 89.202 82.308 91.148 79.816 91.61L80.432 92.8C82.49 92.38 84.268 91.064 85.094 89.328C85.92 91.064 87.698 92.38 89.756 92.8L90.386 91.61ZM79.424 95.264V96.454H90.876V95.264H79.424ZM93.0329 90.42L93.2149 91.596L100.677 91.218C100.607 92.142 100.467 93.136 100.201 94.27L101.629 94.396C102.189 91.736 102.189 90 102.189 88.166V86.64H93.3829V87.802H100.775V88.166C100.775 88.81 100.775 89.454 100.747 90.126L93.0329 90.42ZM92.0529 95.25V96.44H103.477V95.25H92.0529ZM104.136 99.52H105.256L109.148 85.828H108.028L104.136 99.52ZM110.601 86.766V87.942H115.109C114.857 90.854 113.289 93.08 109.971 94.676L110.741 95.824C115.081 93.724 116.593 90.532 116.593 86.766H110.601ZM118.875 85.436V98.078H120.317V85.436H118.875ZM130.482 86.906L127.388 86.906V85.45L125.946 85.45V86.906H122.838V88.068L130.482 88.068V86.906ZM124.952 91.036C124.952 90.266 125.652 89.79 126.674 89.79C127.682 89.79 128.382 90.266 128.382 91.036C128.382 91.82 127.682 92.296 126.674 92.296C125.652 92.296 124.952 91.82 124.952 91.036ZM127.388 93.346C128.816 93.122 129.754 92.268 129.754 91.036C129.754 89.622 128.494 88.684 126.674 88.684C124.84 88.684 123.58 89.622 123.58 91.036C123.58 92.254 124.518 93.122 125.946 93.346V94.578C124.756 94.62 123.594 94.62 122.586 94.62L122.768 95.81C125.064 95.81 128.06 95.768 130.846 95.292L130.748 94.242C129.67 94.396 128.522 94.466 127.388 94.536V93.346ZM131.462 85.422V98.078H132.918V85.422H131.462ZM142.155 92.604C142.645 92.716 143.191 92.772 143.751 92.772C144.311 92.772 144.857 92.716 145.347 92.59V95.348H142.155V92.604ZM143.751 87.298C145.655 87.298 146.985 88.138 146.985 89.468C146.985 90.812 145.655 91.652 143.751 91.652C141.833 91.652 140.503 90.812 140.503 89.468C140.503 88.138 141.833 87.298 143.751 87.298ZM146.789 95.348V92.058C147.797 91.484 148.399 90.588 148.399 89.468C148.399 87.452 146.439 86.164 143.751 86.164C141.049 86.164 139.103 87.452 139.103 89.468C139.103 90.588 139.705 91.498 140.713 92.058V95.348H138.039V96.524H149.491V95.348H146.789ZM161.084 85.436H159.642V94.62H161.084V85.436ZM152.32 89.44C152.32 88.278 153.146 87.522 154.266 87.522C155.372 87.522 156.212 88.278 156.212 89.44C156.212 90.588 155.372 91.358 154.266 91.358C153.146 91.358 152.32 90.588 152.32 89.44ZM157.612 89.44C157.612 87.592 156.17 86.276 154.266 86.276C152.362 86.276 150.906 87.592 150.906 89.44C150.906 91.274 152.362 92.604 154.266 92.604C156.17 92.604 157.612 91.274 157.612 89.44ZM154.28 96.664V93.696H152.824V97.84H161.448V96.664H154.28ZM172.618 95.376V92.394H176.356V91.232H169.034V87.55H176.244V86.388H167.592V92.394H171.176V95.376H166.192V96.566H177.644V95.376H172.618ZM179.772 90.476C182.012 90.322 183.72 89.706 184.518 88.642C185.316 89.706 187.052 90.322 189.292 90.476L189.684 89.398C187.22 89.258 185.652 88.558 185.372 87.564H189.11V86.486H185.246V85.38H183.804V86.486H179.954V87.564H183.678C183.398 88.558 181.844 89.258 179.352 89.398L179.772 90.476ZM190.244 92.016V90.938H178.834V92.016H183.804V92.996H180.164V94.06H187.402V94.942H180.192V97.966H189.18V96.888H181.62V95.936H188.816V92.996H185.246V92.016H190.244ZM204.76 85.422H203.304V92.646H204.76V85.422ZM199.58 90.322H196.402V87.368H199.58V90.322ZM200.98 86.22H194.988V91.47H200.98V86.22ZM204.998 94.536V93.43H201.372V92.296H199.902V93.43H196.276V94.536H199.902C199.79 95.614 198.152 96.72 195.786 96.958L196.262 98.05C198.278 97.812 199.874 97.014 200.644 95.908C201.414 97 202.982 97.812 204.984 98.05L205.46 96.958C203.122 96.706 201.498 95.572 201.386 94.536H204.998ZM211.407 89.202C211.407 88.096 212.219 87.368 213.339 87.368C214.431 87.368 215.243 88.096 215.243 89.202C215.243 90.294 214.431 91.022 213.339 91.022C212.219 91.022 211.407 90.294 211.407 89.202ZM218.897 88.348V90.056H216.489C216.573 89.79 216.615 89.51 216.615 89.202C216.615 88.894 216.573 88.614 216.503 88.348H218.897ZM218.897 91.218V92.884H220.339V85.422H218.897V87.172H215.845C215.257 86.542 214.375 86.15 213.339 86.15C211.449 86.15 210.035 87.41 210.035 89.202C210.035 90.98 211.449 92.24 213.339 92.24C214.361 92.24 215.257 91.862 215.845 91.218H218.897ZM216.125 96.944C214.333 96.944 213.283 96.482 213.283 95.614C213.283 94.774 214.333 94.298 216.125 94.298C217.931 94.298 218.967 94.774 218.967 95.614C218.967 96.482 217.931 96.944 216.125 96.944ZM216.125 93.164C213.493 93.164 211.869 94.074 211.869 95.614C211.869 97.168 213.493 98.078 216.125 98.078C218.757 98.078 220.395 97.168 220.395 95.614C220.395 94.074 218.757 93.164 216.125 93.164ZM229.972 86.766H226.962V85.338H225.52V86.766H222.51V87.914H229.972V86.766ZM224.554 90.7C224.554 89.958 225.226 89.51 226.234 89.51C227.242 89.51 227.928 89.958 227.928 90.7C227.928 91.428 227.242 91.876 226.234 91.876C225.226 91.876 224.554 91.428 224.554 90.7ZM229.3 90.7C229.3 89.328 228.068 88.446 226.234 88.446C224.414 88.446 223.168 89.328 223.168 90.7C223.168 92.058 224.414 92.94 226.234 92.94C228.068 92.94 229.3 92.058 229.3 90.7ZM228.334 96.972C226.598 96.972 225.59 96.594 225.59 95.852C225.59 95.124 226.598 94.746 228.334 94.746C230.07 94.746 231.078 95.124 231.078 95.852C231.078 96.594 230.07 96.972 228.334 96.972ZM228.334 93.64C225.758 93.64 224.162 94.466 224.162 95.852C224.162 97.252 225.758 98.078 228.334 98.078C230.91 98.078 232.506 97.252 232.506 95.852C232.506 94.466 230.91 93.64 228.334 93.64ZM234.116 88.656V87.466H232.366V85.436H230.924V93.528H232.366V91.372H234.116V90.182H232.366V88.656H234.116ZM244.155 93.206H245.597V85.436L244.155 85.436V87.592L242.321 87.592V88.754H244.155V89.902H242.321V91.064H244.155V93.206ZM237.995 87.508H239.605V91.316C239.059 91.344 238.527 91.358 237.995 91.372V87.508ZM242.419 91.092C241.957 91.148 241.481 91.204 240.991 91.218V87.508H242.125V86.332H235.461V87.508H236.609V91.4C236.091 91.4 235.587 91.4 235.125 91.4L235.293 92.59C237.323 92.59 240.123 92.548 242.503 92.142L242.419 91.092ZM241.383 96.972C239.577 96.972 238.569 96.538 238.569 95.768C238.569 94.97 239.577 94.55 241.383 94.55C243.189 94.55 244.211 94.97 244.211 95.768C244.211 96.538 243.189 96.972 241.383 96.972ZM241.383 93.43C238.737 93.43 237.127 94.284 237.127 95.768C237.127 97.224 238.737 98.078 241.383 98.078C244.029 98.078 245.653 97.224 245.653 95.768C245.653 94.284 244.029 93.43 241.383 93.43ZM248.37 86.766V87.942H252.794C252.5 90.854 250.834 93.08 247.74 94.662L248.538 95.768C252.668 93.682 254.236 90.434 254.236 86.766H248.37ZM259.458 90.42H257.54V85.422H256.098V98.064H257.54V91.624H259.458V90.42Z" fill="#435CE7"/>
<rect y="132" width="327" height="50" rx="7" fill="#F6F7FE"/>
<path d="M48.7606 153.06C50.5666 153.06 51.7566 153.676 51.7566 154.698C51.7566 155.734 50.5666 156.35 48.7606 156.35C46.9406 156.35 45.7506 155.734 45.7506 154.698C45.7506 153.676 46.9406 153.06 48.7606 153.06ZM48.7606 157.512C51.4206 157.512 53.2406 156.42 53.2406 154.698C53.2406 152.99 51.4206 151.898 48.7606 151.898C46.0866 151.898 44.2666 152.99 44.2666 154.698C44.2666 156.42 46.0866 157.512 48.7606 157.512ZM54.5146 158.59H43.0486V159.78H48.0186V164.078H49.4606V159.78H54.5146V158.59ZM64.7215 160.844H66.1635V151.436H64.7215V154.278H62.1595V155.468H64.7215V160.844ZM63.1535 157.736C61.2635 157.05 60.1995 155.412 60.1995 153.704V152.206H58.7295V153.676C58.7295 155.552 57.6375 157.33 55.6635 158.03L56.4335 159.15C57.8895 158.59 58.9395 157.47 59.4995 156.056C60.0315 157.33 61.0255 158.352 62.3835 158.856L63.1535 157.736ZM59.3875 162.664V159.85H57.9315V163.84H66.4575V162.664H59.3875ZM79.1144 155.706C76.6364 155.356 74.7744 153.83 74.7744 152.276V151.758H73.2904V152.276C73.2904 153.872 71.4424 155.384 68.9504 155.734L69.5104 156.882C71.5544 156.56 73.2344 155.524 74.0324 154.124C74.8444 155.51 76.5384 156.532 78.5684 156.84L79.1144 155.706ZM71.1484 160.158H69.7064V163.84H78.4984V162.664H71.1484V160.158ZM68.3064 157.778V158.94H73.4304V161.306H74.8724V158.94H79.7724V157.778H68.3064ZM85.0654 153.172C86.1714 153.172 86.9414 153.746 86.9414 154.628C86.9414 155.524 86.1714 156.098 85.0654 156.098C83.9734 156.098 83.1894 155.524 83.1894 154.628C83.1894 153.746 83.9734 153.172 85.0654 153.172ZM85.0654 157.288C86.9554 157.288 88.3274 156.196 88.3274 154.628C88.3274 153.074 86.9554 151.982 85.0654 151.982C83.1754 151.982 81.8034 153.074 81.8034 154.628C81.8034 156.196 83.1754 157.288 85.0654 157.288ZM89.1394 157.764C86.4094 158.17 83.2314 158.212 80.9494 158.212L81.1174 159.402C82.0974 159.402 83.2174 159.388 84.4074 159.346V163.7H85.8494V159.262C86.9694 159.178 88.1314 159.052 89.2374 158.828L89.1394 157.764ZM89.9654 151.436V164.092H91.4074V151.436H89.9654ZM103.977 157.344C102.101 156.686 101.023 155.104 101.023 153.536V153.326H103.655V152.164H96.8928V153.326H99.5668V153.536C99.5668 155.258 98.4188 156.924 96.4588 157.61L97.2008 158.744C98.6988 158.226 99.7628 157.12 100.323 155.762C100.855 156.994 101.877 157.974 103.277 158.464L103.977 157.344ZM100.057 160.508H105.531V162.776H100.057V160.508ZM98.6428 163.924H106.945V159.36H98.6428V163.924ZM105.503 151.422V154.502H103.263V155.678H105.503V158.786H106.945V151.422H105.503ZM109.858 152.192V153.368H114.044C113.792 155.314 112.084 156.84 109.186 157.624L109.774 158.772C113.428 157.736 115.598 155.468 115.598 152.192H109.858ZM112.756 160.256H118.16V162.762H112.756V160.256ZM111.342 163.924H119.574V159.108H111.342V163.924ZM118.132 151.422V154.572H115.626V155.762H118.132V158.59H119.574V151.422H118.132ZM135.041 151.422H133.585V158.646H135.041V151.422ZM129.861 156.322H126.683V153.368H129.861V156.322ZM131.261 152.22H125.269V157.47H131.261V152.22ZM135.279 160.536V159.43H131.653V158.296H130.183V159.43H126.557V160.536H130.183C130.071 161.614 128.433 162.72 126.067 162.958L126.543 164.05C128.559 163.812 130.155 163.014 130.925 161.908C131.695 163 133.263 163.812 135.265 164.05L135.741 162.958C133.403 162.706 131.779 161.572 131.667 160.536H135.279ZM141.983 154.11H145.245V152.934H140.569V161.068H141.409C143.187 161.068 144.489 161.012 146.015 160.718L145.889 159.528C144.587 159.794 143.439 159.864 141.983 159.878V154.11ZM149.557 151.422V156.42H148.059V151.688H146.701V163.448H148.059V157.596H149.557V164.064H150.929V151.422H149.557ZM152.763 157.47V158.632H164.201V157.47H152.763ZM158.461 159.514C155.745 159.514 154.107 160.354 154.107 161.81C154.107 163.266 155.745 164.092 158.461 164.092C161.191 164.092 162.815 163.266 162.815 161.81C162.815 160.354 161.191 159.514 158.461 159.514ZM158.461 160.634C160.309 160.634 161.359 161.04 161.359 161.81C161.359 162.58 160.309 162.986 158.461 162.986C156.613 162.986 155.577 162.58 155.577 161.81C155.577 161.04 156.613 160.634 158.461 160.634ZM158.489 151.73C155.731 151.73 153.981 152.654 153.981 154.18C153.981 155.692 155.731 156.616 158.489 156.616C161.233 156.616 162.997 155.692 162.997 154.18C162.997 152.654 161.233 151.73 158.489 151.73ZM158.489 152.864C160.365 152.864 161.499 153.34 161.499 154.18C161.499 155.006 160.365 155.482 158.489 155.482C156.613 155.482 155.465 155.006 155.465 154.18C155.465 153.34 156.613 152.864 158.489 152.864ZM175.035 154.824V156.014H177.331V160.69H178.773V151.45H177.331V154.824H175.035ZM175.819 157.778C173.929 157.12 172.851 155.538 172.851 153.984V153.55H175.483V152.388H168.721V153.55H171.395V153.984C171.395 155.692 170.247 157.358 168.287 158.044L169.029 159.178C170.527 158.66 171.591 157.554 172.151 156.182C172.683 157.428 173.705 158.422 175.105 158.898L175.819 157.778ZM172.025 162.664V159.892H170.583V163.84H179.095V162.664H172.025ZM188.28 156.966C186.544 157.288 185.018 157.358 182.848 157.372V155.832H187.146V152.15H181.406V153.312H185.718V154.74H181.434V158.548H182.456C184.878 158.548 186.53 158.478 188.434 158.142L188.28 156.966ZM182.484 160.914H189.358V164.092H190.8V159.752H182.484V160.914ZM192.578 154.516V153.34H190.8V151.464H189.358V159.122H190.8V157.19H192.578V156H190.8V154.516H192.578ZM195.907 165.52H197.027L200.919 151.828H199.799L195.907 165.52ZM214.969 151.436H213.513V157.918H214.969V151.436ZM212.239 156.504C210.293 155.902 209.159 154.362 209.159 152.724V151.772H207.689V152.724C207.689 154.432 206.555 156.07 204.553 156.728L205.267 157.876C206.793 157.358 207.871 156.308 208.445 154.95C209.019 156.196 210.083 157.162 211.539 157.638L212.239 156.504ZM208.123 162.832V161.726H214.969V158.52H206.681V159.64H213.541V160.676H206.709V163.966H215.347V162.832H208.123ZM225.19 155.916H226.506V159.402H227.878V151.422H226.506V154.726H225.19V151.66H223.846V158.982H225.19V155.916ZM223.412 152.85H220.976V151.548H219.562V152.85H217.112V153.984H223.412V152.85ZM218.862 156.714C218.862 156.028 219.422 155.58 220.276 155.58C221.116 155.58 221.704 156.028 221.704 156.714C221.704 157.4 221.116 157.848 220.276 157.848C219.422 157.848 218.862 157.4 218.862 156.714ZM222.992 156.714C222.992 155.412 221.872 154.53 220.276 154.53C218.694 154.53 217.574 155.412 217.574 156.714C217.574 158.03 218.694 158.898 220.276 158.898C221.872 158.898 222.992 158.03 222.992 156.714ZM223.678 162.986C221.872 162.986 220.836 162.58 220.836 161.824C220.836 161.068 221.872 160.676 223.678 160.676C225.498 160.676 226.506 161.068 226.506 161.824C226.506 162.58 225.498 162.986 223.678 162.986ZM223.678 159.584C221.004 159.584 219.394 160.396 219.394 161.824C219.394 163.252 221.004 164.078 223.678 164.078C226.352 164.078 227.948 163.252 227.948 161.824C227.948 160.396 226.352 159.584 223.678 159.584ZM239.579 154.852H237.983C238.081 154.264 238.123 153.634 238.123 152.99H233.237V154.152H236.695C236.485 156.742 235.225 158.8 232.621 160.382L233.447 161.404C235.813 159.99 237.143 158.156 237.731 156.028H239.579V158.03H237.507V159.206H239.579V163.462H240.923V151.744H239.579V154.852ZM242.127 151.436V164.078H243.513V151.436H242.127ZM253.188 152.5H250.22V151.338H248.764V152.5H245.796V153.55H253.188V152.5ZM247.812 155.818C247.812 155.258 248.47 154.922 249.492 154.922C250.528 154.922 251.186 155.258 251.186 155.818C251.186 156.406 250.528 156.742 249.492 156.742C248.47 156.742 247.812 156.406 247.812 155.818ZM253.412 158.128C252.39 158.268 251.312 158.352 250.22 158.408V157.68C251.648 157.512 252.558 156.826 252.558 155.818C252.558 154.67 251.34 153.942 249.492 153.942C247.658 153.942 246.44 154.67 246.44 155.818C246.44 156.826 247.336 157.512 248.764 157.68V158.464C247.574 158.506 246.412 158.506 245.404 158.506L245.586 159.626C247.84 159.626 250.794 159.584 253.524 159.122L253.412 158.128ZM247.182 161.642H254.308V164.092H255.75V160.494H247.182V161.642ZM254.308 151.45V159.962H255.75V151.45H254.308ZM271.792 156.098C269.244 155.734 267.34 154.152 267.34 152.514V151.842H265.814V152.514C265.814 154.18 263.938 155.734 261.362 156.098L261.922 157.26C264.022 156.924 265.772 155.874 266.584 154.404C267.41 155.86 269.132 156.924 271.232 157.26L271.792 156.098ZM272.282 158.45H260.858V159.626H265.814V164.092H267.256V159.626H272.282V158.45ZM281.144 156.63C279.31 156.938 277.728 157.008 275.558 157.008V155.608H279.884V152.024H274.102V153.2H278.47V154.516H274.13V158.184H275.194C277.616 158.184 279.324 158.128 281.312 157.806L281.144 156.63ZM282.474 162.762H277.056V161.446H282.474V162.762ZM282.474 160.312H277.056V159.01H275.614V163.924H283.902V159.01H282.474V160.312ZM282.46 151.436V158.422H283.902V151.436H282.46Z" fill="#435CE7"/>
<rect y="198" width="327" height="50" rx="7" fill="#F5F5F5"/>
<path d="M98.8448 219.886H101.659V218.696H94.5748V219.886H97.3888V221.09C97.3888 223.26 96.0868 225.612 94.1268 226.522L94.9528 227.67C96.4368 226.956 97.5708 225.458 98.1308 223.694C98.7188 225.332 99.8528 226.704 101.323 227.348L102.121 226.214C100.147 225.374 98.8448 223.19 98.8448 221.09V219.886ZM103.129 217.436V230.078H104.585V217.436H103.129ZM117.578 221.454C115.044 221.118 113.252 219.718 113.252 218.122V217.646H111.768V218.122C111.768 219.69 109.934 221.118 107.442 221.454L107.974 222.574C110.018 222.266 111.698 221.3 112.496 219.956C113.308 221.314 115.002 222.252 117.032 222.574L117.578 221.454ZM108.072 227.096H115.394V230.092H116.836V225.934H108.072V227.096ZM113.224 223.68V221.888H111.782V223.68H106.798V224.842H118.264V223.68H113.224ZM120.057 218.766V219.942H124.481C124.187 222.854 122.521 225.08 119.427 226.662L120.225 227.768C124.355 225.682 125.923 222.434 125.923 218.766H120.057ZM131.145 222.42H129.227V217.422H127.785V230.064H129.227V223.624H131.145V222.42ZM142.205 220.796H135.009V217.674H133.567V221.958H142.205V220.796ZM137.753 228.93C135.905 228.93 134.869 228.496 134.869 227.726C134.869 226.928 135.905 226.522 137.753 226.522C139.601 226.522 140.651 226.928 140.651 227.726C140.651 228.496 139.601 228.93 137.753 228.93ZM137.753 225.388C135.051 225.388 133.399 226.242 133.399 227.726C133.399 229.196 135.051 230.05 137.753 230.05C140.469 230.05 142.107 229.196 142.107 227.726C142.107 226.242 140.469 225.388 137.753 225.388ZM132.069 223.232V224.408H143.507V223.232H132.069ZM153.728 220.782V222.238H150.662V223.414H153.728V224.87H155.17V217.436H153.728V219.606H151.124C151.194 219.214 151.236 218.794 151.236 218.346H145.496V219.508H149.696C149.444 221.482 147.806 223.036 144.838 223.862L145.412 225.01C148.142 224.212 150.004 222.798 150.788 220.782H153.728ZM151.026 228.888C149.318 228.888 148.24 228.398 148.24 227.516C148.24 226.648 149.318 226.158 151.026 226.158C152.748 226.158 153.826 226.648 153.826 227.516C153.826 228.398 152.748 228.888 151.026 228.888ZM151.026 225.024C148.464 225.024 146.812 225.976 146.812 227.516C146.812 229.07 148.464 230.022 151.026 230.022C153.588 230.022 155.254 229.07 155.254 227.516C155.254 225.976 153.588 225.024 151.026 225.024ZM158.867 221.202C158.867 220.096 159.679 219.368 160.799 219.368C161.891 219.368 162.703 220.096 162.703 221.202C162.703 222.294 161.891 223.022 160.799 223.022C159.679 223.022 158.867 222.294 158.867 221.202ZM166.357 220.348V222.056H163.949C164.033 221.79 164.075 221.51 164.075 221.202C164.075 220.894 164.033 220.614 163.963 220.348H166.357ZM166.357 223.218V224.884H167.799V217.422H166.357V219.172H163.305C162.717 218.542 161.835 218.15 160.799 218.15C158.909 218.15 157.495 219.41 157.495 221.202C157.495 222.98 158.909 224.24 160.799 224.24C161.821 224.24 162.717 223.862 163.305 223.218H166.357ZM163.585 228.944C161.793 228.944 160.743 228.482 160.743 227.614C160.743 226.774 161.793 226.298 163.585 226.298C165.391 226.298 166.427 226.774 166.427 227.614C166.427 228.482 165.391 228.944 163.585 228.944ZM163.585 225.164C160.953 225.164 159.329 226.074 159.329 227.614C159.329 229.168 160.953 230.078 163.585 230.078C166.217 230.078 167.855 229.168 167.855 227.614C167.855 226.074 166.217 225.164 163.585 225.164ZM176.998 218.612H174.268V217.31H172.826V218.612H169.984V219.76H176.998V218.612ZM171.986 222.56C171.986 221.818 172.616 221.356 173.54 221.356C174.478 221.356 175.108 221.818 175.108 222.56C175.108 223.302 174.478 223.764 173.54 223.764C172.616 223.764 171.986 223.302 171.986 222.56ZM176.452 222.56C176.452 221.188 175.262 220.278 173.54 220.278C171.832 220.278 170.642 221.188 170.642 222.56C170.642 223.932 171.832 224.842 173.54 224.842C175.262 224.842 176.452 223.932 176.452 222.56ZM179 228.79H173.554V227.684H179V228.79ZM179 226.592H173.554V225.444H172.126V229.924H180.428V225.444H179V226.592ZM178.986 217.422V220.264H177.082V221.44H178.986V222.742H177.054V223.918H178.986V224.94H180.428V217.422H178.986ZM186.659 218.318C184.685 218.318 183.229 219.564 183.229 221.356C183.229 223.148 184.685 224.394 186.659 224.394C188.633 224.394 190.103 223.148 190.103 221.356C190.103 219.564 188.633 218.318 186.659 218.318ZM186.659 219.55C187.835 219.55 188.689 220.25 188.689 221.356C188.689 222.448 187.835 223.162 186.659 223.162C185.497 223.162 184.643 222.448 184.643 221.356C184.643 220.25 185.497 219.55 186.659 219.55ZM191.531 217.422V230.092H192.987V217.422H191.531ZM182.823 227.418C185.063 227.418 188.087 227.39 190.873 226.858L190.775 225.808C188.059 226.214 184.909 226.228 182.641 226.228L182.823 227.418ZM203.18 218.906H200.086V217.464H198.644V218.906H195.536V220.068H203.18V218.906ZM197.65 223.036C197.65 222.266 198.35 221.79 199.372 221.79C200.38 221.79 201.08 222.266 201.08 223.036C201.08 223.82 200.38 224.296 199.372 224.296C198.35 224.296 197.65 223.82 197.65 223.036ZM200.086 225.346C201.514 225.122 202.452 224.268 202.452 223.036C202.452 221.622 201.192 220.684 199.372 220.684C197.538 220.684 196.278 221.622 196.278 223.036C196.278 224.254 197.216 225.122 198.644 225.346V226.578C197.454 226.62 196.292 226.62 195.284 226.62L195.466 227.81C197.762 227.81 200.758 227.768 203.544 227.292L203.446 226.242C202.368 226.396 201.22 226.466 200.086 226.536V225.346ZM204.16 217.422V230.078H205.616V217.422H204.16ZM213.453 221.566L219.445 221.566V223.638L213.453 223.638V221.566ZM217.163 227.348V224.8L220.873 224.8V218.276H219.445V220.404L213.453 220.404V218.276H212.025V224.8H215.721V227.348H210.737V228.538L222.189 228.538V227.348L217.163 227.348ZM232.102 219.858C232.102 221.37 232.102 223.162 231.612 225.64L233.068 225.794C233.558 223.176 233.558 221.426 233.558 219.858V218.612H224.556V219.788H232.102V219.858ZM229.078 227.236V222.784H227.622V227.236H223.366V228.426H234.79V227.236H229.078Z" fill="#666666"/>
<rect y="264" width="327" height="50" rx="7" fill="#F5F5F5"/>
<path d="M97.8448 285.886H100.659V284.696H93.5748V285.886H96.3888V287.09C96.3888 289.26 95.0868 291.612 93.1268 292.522L93.9528 293.67C95.4368 292.956 96.5708 291.458 97.1308 289.694C97.7188 291.332 98.8528 292.704 100.323 293.348L101.121 292.214C99.1468 291.374 97.8448 289.19 97.8448 287.09V285.886ZM102.129 283.436V296.078H103.585V283.436H102.129ZM116.578 287.454C114.044 287.118 112.252 285.718 112.252 284.122V283.646H110.768V284.122C110.768 285.69 108.934 287.118 106.442 287.454L106.974 288.574C109.018 288.266 110.698 287.3 111.496 285.956C112.308 287.314 114.002 288.252 116.032 288.574L116.578 287.454ZM107.072 293.096H114.394V296.092H115.836V291.934H107.072V293.096ZM112.224 289.68V287.874H110.782V289.68H105.798V290.842H117.264V289.68H112.224ZM119.057 284.766V285.942H123.481C123.187 288.854 121.521 291.08 118.427 292.662L119.225 293.768C123.355 291.682 124.923 288.434 124.923 284.766H119.057ZM130.145 288.42H128.227V283.422H126.785V296.064H128.227V289.624H130.145V288.42ZM141.205 286.796H134.009V283.674H132.567V287.958H141.205V286.796ZM136.753 294.93C134.905 294.93 133.869 294.496 133.869 293.726C133.869 292.928 134.905 292.522 136.753 292.522C138.601 292.522 139.651 292.928 139.651 293.726C139.651 294.496 138.601 294.93 136.753 294.93ZM136.753 291.388C134.051 291.388 132.399 292.242 132.399 293.726C132.399 295.196 134.051 296.05 136.753 296.05C139.469 296.05 141.107 295.196 141.107 293.726C141.107 292.242 139.469 291.388 136.753 291.388ZM131.069 289.232V290.408H142.507V289.232H131.069ZM152.728 286.782V288.238H149.662V289.414H152.728V290.87H154.17V283.436H152.728V285.606H150.124C150.194 285.214 150.236 284.794 150.236 284.346H144.496V285.508H148.696C148.444 287.482 146.806 289.036 143.838 289.862L144.412 291.01C147.142 290.212 149.004 288.798 149.788 286.782H152.728ZM150.026 294.888C148.318 294.888 147.24 294.398 147.24 293.516C147.24 292.648 148.318 292.158 150.026 292.158C151.748 292.158 152.826 292.648 152.826 293.516C152.826 294.398 151.748 294.888 150.026 294.888ZM150.026 291.024C147.464 291.024 145.812 291.976 145.812 293.516C145.812 295.07 147.464 296.022 150.026 296.022C152.588 296.022 154.254 295.07 154.254 293.516C154.254 291.976 152.588 291.024 150.026 291.024ZM157.867 287.202C157.867 286.096 158.679 285.368 159.799 285.368C160.891 285.368 161.703 286.096 161.703 287.202C161.703 288.294 160.891 289.022 159.799 289.022C158.679 289.022 157.867 288.294 157.867 287.202ZM165.357 286.348V288.056H162.949C163.033 287.79 163.075 287.51 163.075 287.202C163.075 286.894 163.033 286.614 162.963 286.348H165.357ZM165.357 289.218V290.884H166.799V283.422H165.357V285.172H162.305C161.717 284.542 160.835 284.15 159.799 284.15C157.909 284.15 156.495 285.41 156.495 287.202C156.495 288.98 157.909 290.24 159.799 290.24C160.821 290.24 161.717 289.862 162.305 289.218H165.357ZM162.585 294.944C160.793 294.944 159.743 294.482 159.743 293.614C159.743 292.774 160.793 292.298 162.585 292.298C164.391 292.298 165.427 292.774 165.427 293.614C165.427 294.482 164.391 294.944 162.585 294.944ZM162.585 291.164C159.953 291.164 158.329 292.074 158.329 293.614C158.329 295.168 159.953 296.078 162.585 296.078C165.217 296.078 166.855 295.168 166.855 293.614C166.855 292.074 165.217 291.164 162.585 291.164ZM173.072 285.172C174.178 285.172 174.948 285.746 174.948 286.628C174.948 287.524 174.178 288.098 173.072 288.098C171.98 288.098 171.196 287.524 171.196 286.628C171.196 285.746 171.98 285.172 173.072 285.172ZM173.072 289.288C174.962 289.288 176.334 288.196 176.334 286.628C176.334 285.074 174.962 283.982 173.072 283.982C171.182 283.982 169.81 285.074 169.81 286.628C169.81 288.196 171.182 289.288 173.072 289.288ZM177.146 289.764C174.416 290.17 171.238 290.212 168.956 290.212L169.124 291.402C170.104 291.402 171.224 291.388 172.414 291.346V295.7H173.856V291.262C174.976 291.178 176.138 291.052 177.244 290.828L177.146 289.764ZM177.972 283.436V296.092H179.414V283.436H177.972ZM188.137 290.856V291.864H190.615V293.04H192.057V283.422H190.615V290.856H188.137ZM185.617 284.976C186.653 284.976 187.367 285.424 187.367 286.138C187.367 286.852 186.653 287.3 185.617 287.3C184.567 287.3 183.853 286.852 183.853 286.138C183.853 285.424 184.567 284.976 185.617 284.976ZM185.617 288.364C187.465 288.364 188.739 287.482 188.739 286.138C188.739 284.794 187.465 283.912 185.617 283.912C183.755 283.912 182.481 284.794 182.481 286.138C182.481 287.482 183.755 288.364 185.617 288.364ZM185.043 292.634H186.485V290.198C187.563 290.142 188.669 290.016 189.733 289.834L189.621 288.798C186.947 289.134 183.839 289.162 181.515 289.176L181.697 290.352C182.691 290.352 183.839 290.338 185.043 290.282V292.634ZM184.665 294.664V292.102H183.223V295.84H192.351V294.664H184.665ZM202.18 284.906H199.086V283.45H197.644V284.906H194.536V286.068H202.18V284.906ZM196.65 289.036C196.65 288.266 197.35 287.79 198.372 287.79C199.38 287.79 200.08 288.266 200.08 289.036C200.08 289.82 199.38 290.296 198.372 290.296C197.35 290.296 196.65 289.82 196.65 289.036ZM199.086 291.346C200.514 291.122 201.452 290.268 201.452 289.036C201.452 287.622 200.192 286.684 198.372 286.684C196.538 286.684 195.278 287.622 195.278 289.036C195.278 290.254 196.216 291.122 197.644 291.346V292.578C196.454 292.62 195.292 292.62 194.284 292.62L194.466 293.81C196.762 293.81 199.758 293.768 202.544 293.292L202.446 292.242C201.368 292.396 200.22 292.466 199.086 292.536V291.346ZM203.16 283.422V296.078H204.616V283.422H203.16ZM212.453 287.566H218.445V289.638H212.453V287.566ZM216.163 293.348V290.8H219.873V284.276H218.445V286.404H212.453V284.276H211.025V290.8H214.721V293.348H209.737V294.538H221.189V293.348H216.163ZM231.102 285.858C231.102 287.37 231.102 289.162 230.612 291.64L232.068 291.794C232.558 289.176 232.558 287.426 232.558 285.858V284.612H223.556V285.788H231.102V285.858ZM228.078 293.236V288.784H226.622V293.236H222.366V294.426H233.79V293.236H228.078Z" fill="#666666"/>
<rect y="330" width="327" height="50" rx="7" fill="#F6F7FE"/>
<path d="M84.3368 359.782V356.618H89.2508V355.428H84.3368V352.418H89.8528V351.2H82.9368V361H90.0488V359.782H84.3368ZM94.9217 361.112C97.5117 361.112 98.7157 359.824 98.7157 358.326C98.7157 354.728 92.7797 356.226 92.7797 353.832C92.7797 352.978 93.4937 352.278 95.1597 352.278C96.0277 352.278 96.9937 352.53 97.8477 353.076L98.3097 351.956C97.4977 351.396 96.3077 351.088 95.1597 351.088C92.5837 351.088 91.4077 352.376 91.4077 353.888C91.4077 357.528 97.3437 356.016 97.3437 358.41C97.3437 359.264 96.6157 359.922 94.9217 359.922C93.6617 359.922 92.4157 359.446 91.6877 358.788L91.1697 359.88C91.9537 360.608 93.4237 361.112 94.9217 361.112ZM107.301 359.236C106.601 359.684 105.831 359.866 105.005 359.866C102.751 359.866 101.113 358.256 101.113 356.1C101.113 353.916 102.751 352.334 105.019 352.334C106.125 352.334 107.049 352.684 107.861 353.468L108.729 352.6C107.833 351.606 106.517 351.088 104.963 351.088C101.925 351.088 99.713 353.202 99.713 356.1C99.713 358.998 101.925 361.112 104.935 361.112C106.307 361.112 107.665 360.692 108.645 359.866V356.044H107.301V359.236ZM127.101 351.2L124.399 359.208L121.697 351.2H120.409L117.651 359.166L115.005 351.2H113.563L116.839 361H118.337L121.011 353.174L123.685 361H125.155L128.431 351.2H127.101ZM132.315 361.084C134.541 361.084 136.165 359.502 136.165 357.29C136.165 355.078 134.541 353.51 132.315 353.51C130.089 353.51 128.451 355.078 128.451 357.29C128.451 359.502 130.089 361.084 132.315 361.084ZM132.315 359.908C130.887 359.908 129.809 358.872 129.809 357.29C129.809 355.708 130.887 354.686 132.315 354.686C133.743 354.686 134.807 355.708 134.807 357.29C134.807 358.872 133.743 359.908 132.315 359.908ZM139.062 354.826V353.58H137.774V361H139.118V357.304C139.118 355.68 140.014 354.798 141.456 354.798C141.554 354.798 141.652 354.798 141.764 354.812V353.51C140.462 353.51 139.538 353.958 139.062 354.826ZM148.84 361H150.492L147.062 356.646L150.184 353.58H148.56L144.514 357.276V350.612H143.17V361H144.514V358.97L146.054 357.542L148.84 361ZM152.124 352.152C152.656 352.152 153.034 351.76 153.034 351.256C153.034 350.78 152.642 350.402 152.124 350.402C151.606 350.402 151.214 350.794 151.214 351.284C151.214 351.774 151.606 352.152 152.124 352.152ZM151.452 361H152.796V353.58H151.452V361ZM159.074 353.51C157.898 353.51 156.946 353.944 156.4 354.7V353.58H155.112V361H156.456V357.178C156.456 355.568 157.38 354.714 158.808 354.714C160.082 354.714 160.81 355.428 160.81 356.884V361H162.154V356.73C162.154 354.546 160.88 353.51 159.074 353.51ZM170.256 353.58V354.728C169.626 353.916 168.618 353.51 167.512 353.51C165.37 353.51 163.746 354.952 163.746 357.094C163.746 359.236 165.37 360.692 167.512 360.692C168.576 360.692 169.542 360.314 170.186 359.544V360.132C170.186 361.812 169.388 362.624 167.638 362.624C166.546 362.624 165.468 362.246 164.782 361.658L164.138 362.694C164.95 363.422 166.322 363.8 167.68 363.8C170.2 363.8 171.53 362.61 171.53 359.992V353.58H170.256ZM167.666 359.516C166.168 359.516 165.104 358.522 165.104 357.094C165.104 355.652 166.168 354.686 167.666 354.686C169.15 354.686 170.214 355.652 170.214 357.094C170.214 358.522 169.15 359.516 167.666 359.516ZM184.344 359.236C183.644 359.684 182.874 359.866 182.048 359.866C179.794 359.866 178.156 358.256 178.156 356.1C178.156 353.916 179.794 352.334 182.062 352.334C183.168 352.334 184.092 352.684 184.904 353.468L185.772 352.6C184.876 351.606 183.56 351.088 182.006 351.088C178.968 351.088 176.756 353.202 176.756 356.1C176.756 358.998 178.968 361.112 181.978 361.112C183.35 361.112 184.708 360.692 185.688 359.866V356.044H184.344V359.236ZM189.21 354.826V353.58H187.922V361H189.266V357.304C189.266 355.68 190.162 354.798 191.604 354.798C191.702 354.798 191.8 354.798 191.912 354.812V353.51C190.61 353.51 189.686 353.958 189.21 354.826ZM196.429 361.084C198.655 361.084 200.279 359.502 200.279 357.29C200.279 355.078 198.655 353.51 196.429 353.51C194.203 353.51 192.565 355.078 192.565 357.29C192.565 359.502 194.203 361.084 196.429 361.084ZM196.429 359.908C195.001 359.908 193.923 358.872 193.923 357.29C193.923 355.708 195.001 354.686 196.429 354.686C197.857 354.686 198.921 355.708 198.921 357.29C198.921 358.872 197.857 359.908 196.429 359.908ZM207.459 353.58V357.416C207.459 359.012 206.563 359.88 205.163 359.88C203.889 359.88 203.161 359.152 203.161 357.696V353.58H201.817V357.85C201.817 360.034 203.091 361.084 205.009 361.084C206.059 361.084 206.983 360.65 207.529 359.88V361H208.803V353.58H207.459ZM215.046 353.51C213.954 353.51 213.002 353.93 212.4 354.756V353.58H211.112V363.716H212.456V359.88C213.072 360.678 213.996 361.084 215.046 361.084C217.216 361.084 218.798 359.572 218.798 357.29C218.798 355.022 217.216 353.51 215.046 353.51ZM214.934 359.908C213.52 359.908 212.442 358.872 212.442 357.29C212.442 355.722 213.52 354.686 214.934 354.686C216.362 354.686 217.44 355.722 217.44 357.29C217.44 358.872 216.362 359.908 214.934 359.908ZM233.155 349.436H231.699V355.918H233.155V349.436ZM230.425 354.504C228.479 353.902 227.345 352.362 227.345 350.724V349.772H225.875V350.724C225.875 352.432 224.741 354.07 222.739 354.728L223.453 355.876C224.979 355.358 226.057 354.308 226.631 352.95C227.205 354.196 228.269 355.162 229.725 355.638L230.425 354.504ZM226.309 360.832V359.726H233.155V356.52H224.867V357.64H231.727V358.676H224.895V361.966H233.533V360.832H226.309ZM243.376 353.916H244.692V357.402H246.064V349.422H244.692V352.726H243.376V349.66H242.032V356.982H243.376V353.916ZM241.598 350.85H239.162V349.548H237.748V350.85H235.298V351.984H241.598V350.85ZM237.048 354.714C237.048 354.028 237.608 353.58 238.462 353.58C239.302 353.58 239.89 354.028 239.89 354.714C239.89 355.4 239.302 355.848 238.462 355.848C237.608 355.848 237.048 355.4 237.048 354.714ZM241.178 354.714C241.178 353.412 240.058 352.53 238.462 352.53C236.88 352.53 235.76 353.412 235.76 354.714C235.76 356.03 236.88 356.898 238.462 356.898C240.058 356.898 241.178 356.03 241.178 354.714ZM241.864 360.986C240.058 360.986 239.022 360.58 239.022 359.824C239.022 359.068 240.058 358.676 241.864 358.676C243.684 358.676 244.692 359.068 244.692 359.824C244.692 360.58 243.684 360.986 241.864 360.986ZM241.864 357.584C239.19 357.584 237.58 358.396 237.58 359.824C237.58 361.252 239.19 362.078 241.864 362.078C244.538 362.078 246.134 361.252 246.134 359.824C246.134 358.396 244.538 357.584 241.864 357.584Z" fill="#435CE7"/>
</svg>
