<svg width="327" height="466" viewBox="0 0 327 466" fill="none" xmlns="http://www.w3.org/2000/svg">
<path d="M164 402V41" stroke="#7094F0" stroke-linecap="round" stroke-linejoin="round" stroke-dasharray="2 4"/>
<path d="M164.768 405.078L167.633 401.64C168.176 400.989 167.713 400 166.865 400L161.135 400C160.287 400 159.824 400.989 160.367 401.64L163.232 405.078C163.632 405.558 164.368 405.558 164.768 405.078Z" fill="#7094F0"/>
<rect y="416" width="327" height="50" rx="7" fill="#435CE7"/>
<path d="M81.65 440.588V443.388H78.43V440.588H81.65ZM82.938 444.62V439.356H77.17V445.712H78.43V444.62H82.938ZM88.23 436.22H75.798V437.522H85.206V446.342C85.206 446.636 85.108 446.72 84.8 446.734C84.464 446.734 83.302 446.748 82.238 446.692C82.448 447.07 82.714 447.714 82.784 448.092C84.184 448.092 85.164 448.078 85.766 447.84C86.354 447.644 86.564 447.21 86.564 446.37V437.522H88.23V436.22ZM93.524 441.232L92.278 441.61V439.188H93.622V437.984H92.278V435.282H91.074V437.984H89.38V439.188H91.074V441.946C90.36 442.156 89.702 442.338 89.184 442.478L89.478 443.738L91.074 443.234V446.608C91.074 446.804 91.004 446.86 90.836 446.86C90.682 446.86 90.15 446.86 89.604 446.846C89.758 447.182 89.912 447.742 89.954 448.05C90.836 448.064 91.396 448.008 91.774 447.812C92.138 447.602 92.278 447.266 92.278 446.608V442.87L93.692 442.422L93.524 441.232ZM94.882 444.228C95.484 444.984 96.128 446.02 96.38 446.692L97.486 446.034C97.192 445.362 96.506 444.368 95.904 443.654L94.882 444.228ZM102.176 440.854V439.664H98.648V438.152H101.518V436.962H98.648V435.31H97.402V436.962H94.49V438.152H97.402V439.664H93.832V440.854H99.208V442.212H93.986V443.402H99.208V446.622C99.208 446.818 99.152 446.874 98.942 446.888C98.732 446.902 98.004 446.902 97.29 446.86C97.458 447.21 97.626 447.742 97.682 448.106C98.69 448.106 99.39 448.092 99.852 447.896C100.3 447.7 100.44 447.35 100.44 446.65V443.402H102.092V442.212H100.44V440.854H102.176ZM114.694 441.554C115.03 440.854 115.366 439.762 115.646 438.796L114.82 438.6L114.61 438.642H112.342V437.55H114.89V436.458H112.342V435.268H111.068V436.458H108.632V437.55H111.068V438.642H108.128V439.748H114.204C114.05 440.322 113.854 440.896 113.686 441.316L114.694 441.554ZM111.348 441.288C110.984 440.924 110.242 440.448 109.64 440.126L109.08 440.77C109.668 441.106 110.396 441.61 110.76 441.988L111.348 441.288ZM110.438 442.59C110.046 442.212 109.276 441.68 108.66 441.358L108.058 442.002C108.688 442.352 109.444 442.926 109.822 443.318L110.438 442.59ZM105.314 442.674C106.224 441.512 107.092 440.112 107.82 438.768L106.826 438.152C106.602 438.684 106.322 439.202 106.042 439.692L104.614 439.818C105.412 438.656 106.196 437.2 106.756 435.8L105.636 435.282C105.104 436.92 104.124 438.726 103.83 439.174C103.522 439.636 103.284 439.958 103.032 440.028C103.172 440.336 103.354 440.896 103.41 441.148C103.62 441.036 103.942 440.966 105.37 440.798C104.852 441.596 104.39 442.254 104.166 442.506C103.746 443.024 103.438 443.36 103.144 443.43C103.27 443.724 103.452 444.256 103.508 444.494C103.816 444.284 104.292 444.116 107.498 443.234C107.456 442.996 107.428 442.492 107.442 442.156L105.314 442.674ZM107.414 444.522C105.832 445.096 104.194 445.684 103.116 446.034L103.41 447.238C104.614 446.762 106.168 446.174 107.638 445.572L107.414 444.522ZM115.576 444.48V443.36H112.496C112.594 442.828 112.622 442.31 112.622 441.82V440.224H111.432V441.778C111.432 442.282 111.404 442.814 111.264 443.36H107.834V444.48H110.858C110.34 445.46 109.346 446.412 107.54 447.168C107.778 447.406 108.156 447.854 108.31 448.134C110.592 447.14 111.698 445.81 112.202 444.48H115.576ZM112.09 445.572C113.154 446.314 114.442 447.406 115.044 448.134L115.884 447.322C115.254 446.608 113.924 445.572 112.874 444.858L112.09 445.572ZM129.802 440.924C129.074 440.462 127.786 439.818 126.61 439.314C127.548 438.488 128.332 437.508 128.864 436.388L127.954 435.912L127.702 435.968H122.2V437.144H126.862C125.616 438.838 123.404 440.182 121.262 440.854C121.542 441.134 121.878 441.638 122.06 441.96C123.278 441.512 124.51 440.91 125.602 440.126C126.834 440.7 128.29 441.442 129.032 441.96L129.802 440.924ZM119.148 442.744C120.198 441.582 121.22 440.224 122.074 438.838L120.954 438.11C120.688 438.6 120.394 439.104 120.072 439.58L118.434 439.734C119.232 438.586 120.044 437.172 120.632 435.8L119.4 435.226C118.868 436.85 117.846 438.628 117.524 439.062C117.216 439.538 116.978 439.846 116.698 439.916C116.852 440.252 117.076 440.882 117.118 441.148C117.342 441.036 117.706 440.952 119.246 440.742C118.686 441.526 118.182 442.114 117.916 442.38C117.468 442.87 117.132 443.192 116.796 443.262C116.95 443.612 117.16 444.228 117.216 444.494C117.566 444.298 118.084 444.144 121.584 443.458C121.57 443.192 121.57 442.66 121.612 442.324L119.148 442.744ZM121.514 444.956C119.792 445.376 118 445.81 116.838 446.048L117.076 447.336C118.378 446.986 120.058 446.538 121.654 446.104L121.514 444.956ZM126.26 443.5H129.004V442.324H122.312V443.5H124.958V446.538H121.472V447.756H129.69V446.538H126.26V443.5ZM140.57 445.166V446.594H133.584V445.166H140.57ZM132.352 448.134H133.584V447.658H140.57V448.106H141.872V444.046H132.352V448.134ZM139.45 442.422H134.606V441.358H139.45V442.422ZM133.388 440.462V443.318H140.724V440.462H133.388ZM131.26 441.47H132.45V439.72H141.606V441.47H142.852V438.698H131.26V441.47ZM140.122 436.332V435.268H138.834V436.332H135.11V435.268H133.822V436.332H130.896V437.508H133.822V438.348H135.11V437.508H138.834V438.348H140.122V437.508H143.132V436.332H140.122ZM154.334 445.054H151.352V444.186H154.334V445.054ZM151.352 442.366H154.334V443.164H151.352V442.366ZM147.404 439.748V438.908H150.036V439.748H147.404ZM154.11 438.908V439.748H151.352V438.908H154.11ZM157.106 443.164H155.65V441.442H151.352V440.616H155.426V438.04H151.352V437.326H156.812V436.276H151.352V435.254H150.036V436.276H144.73V437.326H150.036V438.04H146.158V440.616H150.036V441.442H145.794V442.366H150.036V443.164H144.436V444.186H150.036V445.054H145.668V446.034H150.036V446.776C150.036 447.014 149.952 447.084 149.7 447.098C149.476 447.112 148.636 447.112 147.866 447.084C148.048 447.364 148.244 447.84 148.314 448.134C149.49 448.134 150.218 448.12 150.694 447.952C151.17 447.77 151.352 447.476 151.352 446.762V446.034H154.334V446.636H155.65V444.186H157.106V443.164ZM164.668 442.982C164.78 442.618 164.864 442.212 164.934 441.792L163.576 441.68C163.52 442.156 163.436 442.59 163.324 442.982H159.264V444.102H162.89C162.078 445.684 160.594 446.552 158.326 447C158.564 447.252 158.942 447.798 159.068 448.092C161.7 447.406 163.38 446.272 164.29 444.102H168.308C168.07 445.698 167.818 446.482 167.496 446.734C167.342 446.86 167.174 446.874 166.866 446.874C166.502 446.874 165.564 446.86 164.668 446.776C164.892 447.098 165.074 447.574 165.088 447.91C165.942 447.966 166.796 447.966 167.258 447.938C167.832 447.91 168.182 447.826 168.532 447.518C169.036 447.07 169.344 445.992 169.666 443.514C169.694 443.346 169.736 442.982 169.736 442.982H164.668ZM162.274 437.746H167.65C166.852 438.474 165.788 439.062 164.57 439.552C163.534 439.118 162.694 438.572 162.12 437.9L162.274 437.746ZM168.938 436.584L168.714 436.64H163.282C163.576 436.276 163.842 435.898 164.066 435.52L162.736 435.254C162.022 436.444 160.678 437.788 158.718 438.754C158.984 438.95 159.348 439.44 159.502 439.734C160.16 439.398 160.748 439.006 161.266 438.6C161.798 439.16 162.4 439.636 163.1 440.042C161.546 440.476 159.866 440.77 158.2 440.924C158.396 441.218 158.606 441.736 158.704 442.058C160.706 441.82 162.75 441.414 164.57 440.742C166.166 441.372 168.084 441.722 170.212 441.89C170.366 441.554 170.66 441.022 170.94 440.742C169.19 440.644 167.552 440.434 166.152 440.07C167.65 439.328 168.91 438.348 169.736 437.116L168.938 436.584ZM179.72 443.906V445.516H176.766V443.906H179.72ZM180.938 446.566V442.87H175.562V447.378H176.766V446.566H180.938ZM181.764 437.046V438.572H174.652V437.046H181.764ZM174.624 440.742C174.638 440.378 174.652 440.028 174.652 439.692H183.066V435.94H173.364V439.286C173.364 441.526 173.224 444.69 171.67 446.916C171.95 447.07 172.496 447.49 172.72 447.742C173.854 446.118 174.344 443.906 174.54 441.89H182.716C182.59 445.166 182.422 446.412 182.156 446.706C182.03 446.86 181.904 446.916 181.666 446.902C181.4 446.916 180.798 446.902 180.14 446.832C180.35 447.182 180.49 447.7 180.504 448.064C181.232 448.092 181.918 448.092 182.31 448.036C182.73 447.994 183.038 447.882 183.318 447.532C183.724 447.028 183.878 445.46 184.046 441.316C184.06 441.134 184.06 440.742 184.06 440.742H174.624ZM198.188 438.348V437.172H194.254C194.436 436.64 194.604 436.108 194.744 435.534L193.484 435.296C193.008 437.298 192.154 439.202 191.02 440.406C191.314 440.588 191.846 440.966 192.07 441.19C192.714 440.434 193.302 439.454 193.778 438.348H198.188ZM193.848 439.734C194.786 440.434 195.934 441.442 196.452 442.086L197.502 441.316C196.928 440.658 195.78 439.706 194.856 439.062L193.848 439.734ZM190.684 435.296H189.396V441.96H190.684V435.296ZM187.94 435.758H186.68V441.54H187.94V435.758ZM188.43 443.78H190.026V446.58H188.43V443.78ZM192.826 443.78V446.58H191.216V443.78H192.826ZM195.654 443.78V446.58H194.016V443.78H195.654ZM196.928 446.58V442.688H187.212V446.58H185.7V447.756H198.342V446.58H196.928ZM208.326 437.69V440.238C208.326 441.316 208.578 441.652 209.67 441.652H210.874C211.686 441.652 211.994 441.274 212.12 439.874C211.784 439.79 211.308 439.622 211.07 439.44C211.028 440.434 210.972 440.588 210.72 440.588H209.852C209.572 440.588 209.53 440.546 209.53 440.238V437.69H210.874V439.006H212.064V436.598H208.424V435.24H207.164V436.598H203.72V439.076H204.854V437.69H206.058C205.988 439.608 205.68 440.588 203.636 441.12C203.874 441.344 204.168 441.764 204.266 442.044C206.688 441.358 207.136 440.042 207.248 437.69H208.326ZM203.678 442.072L203.454 440.91L202.194 441.344V439.174H203.524V437.97H202.194V435.268H201.004V437.97H199.38V439.174H201.004V441.75C200.318 441.988 199.688 442.184 199.184 442.338L199.492 443.598L201.004 443.052V446.664C201.004 446.86 200.934 446.902 200.752 446.902C200.598 446.916 200.08 446.916 199.52 446.902C199.688 447.238 199.842 447.798 199.87 448.106C200.766 448.106 201.312 448.064 201.69 447.868C202.068 447.658 202.194 447.308 202.194 446.664V442.618L203.678 442.072ZM208.424 446.524V443.864H211.49V442.688H204.238V443.864H207.136V446.524H203.384V447.714H212.176V446.524H208.424ZM223.14 441.134C222.622 442.562 221.796 443.71 220.76 444.62C219.626 443.682 218.8 442.506 218.226 441.134H223.14ZM221.152 437.242C221.026 438.068 220.872 439.034 220.69 439.902H217.33C217.428 439.006 217.498 438.11 217.54 437.242H221.152ZM223.938 439.832L223.686 439.902H222.076C222.314 438.656 222.552 437.214 222.678 436.038L221.684 435.912L221.446 435.968H213.788V437.242H216.154C216.042 440.714 215.622 444.872 212.99 447.014C213.298 447.196 213.802 447.63 214.04 447.882C215.832 446.384 216.686 443.962 217.12 441.414C217.736 443.01 218.576 444.354 219.682 445.418C218.576 446.118 217.302 446.608 215.944 446.902C216.21 447.182 216.518 447.714 216.672 448.064C218.17 447.672 219.542 447.098 220.732 446.3C221.922 447.14 223.35 447.742 225.1 448.106C225.296 447.728 225.674 447.14 225.982 446.832C224.372 446.566 223 446.076 221.866 445.404C223.224 444.144 224.26 442.464 224.806 440.21L223.938 439.832ZM231.038 437.41C230.576 436.85 229.61 436.024 228.854 435.464L228.028 436.304C228.798 436.92 229.736 437.788 230.156 438.376L231.038 437.41ZM230.17 445.264V439.566H226.922V440.812H228.91V445.264C228.91 446.062 228.406 446.65 228.084 446.916C228.322 447.098 228.742 447.518 228.896 447.784C229.134 447.476 229.54 447.154 232.074 445.32C231.948 445.068 231.78 444.578 231.696 444.214L230.17 445.264ZM238.108 442.982C236.946 445.04 234.594 446.342 231.696 446.986C231.976 447.294 232.298 447.77 232.466 448.106C235.518 447.28 237.954 445.81 239.284 443.444L238.108 442.982ZM235.434 439.16C234.678 440.07 233.306 440.98 232.13 441.498C232.438 441.75 232.76 442.114 232.956 442.38C234.188 441.736 235.574 440.714 236.456 439.594L235.434 439.16ZM236.736 440.994C235.784 442.352 233.978 443.57 232.27 444.242C232.564 444.508 232.9 444.914 233.096 445.222C234.916 444.382 236.708 443.038 237.828 441.456L236.736 440.994ZM235.126 435.212C234.342 436.948 232.76 438.586 230.828 439.608C231.108 439.832 231.514 440.294 231.696 440.546C233.208 439.692 234.468 438.53 235.42 437.158C236.456 438.46 237.842 439.692 239.088 440.42C239.298 440.084 239.704 439.608 240.026 439.356C238.598 438.684 237.002 437.396 236.036 436.136C236.134 435.954 236.232 435.772 236.316 435.576L235.126 435.212ZM246.412 436.22C246.244 436.948 245.922 437.998 245.642 438.67L246.398 438.922C246.706 438.306 247.112 437.312 247.434 436.486L246.412 436.22ZM244.088 438.614C244.032 437.97 243.808 436.976 243.486 436.234L242.66 436.5C242.954 437.256 243.178 438.25 243.22 438.908L244.088 438.614ZM244.41 445.194H245.502V442.03C245.936 442.52 246.412 443.108 246.636 443.43L247.336 442.534C247.056 442.254 245.922 441.19 245.502 440.854V440.448H247.336V439.356H245.502V435.38H244.41V439.356H242.548V440.448H244.298C243.822 441.582 243.038 442.786 242.282 443.472C242.464 443.766 242.702 444.228 242.8 444.536C243.388 444.004 243.948 443.136 244.41 442.212V445.194ZM253.51 439.874H249.1V437.648C250.556 437.354 252.194 436.92 253.356 436.402L252.306 435.45C251.466 435.884 250.052 436.332 248.708 436.654L247.868 436.388V441.232C247.868 442.604 247.784 444.2 247.154 445.642V445.502H242.24V435.744H241.106V447.658H242.24V446.622H246.608C246.454 446.846 246.272 447.07 246.076 447.28C246.398 447.448 246.86 447.896 247.014 448.176C248.848 446.23 249.1 443.318 249.1 441.246V441.078H250.85V448.092H252.096V441.078H253.51V439.874Z" fill="white"/>
<rect width="327" height="50" rx="7" fill="#F6F7FE"/>
<path d="M62.574 22.124H71.926V23.93H73.2V21.046H70.778C71.156 20.696 71.604 20.22 72.038 19.716L70.708 19.296C70.428 19.73 69.952 20.374 69.56 20.78L70.246 21.046H67.866V19.268H66.564V21.046H64.184L64.856 20.738C64.646 20.332 64.212 19.716 63.806 19.282L62.672 19.73C62.98 20.108 63.344 20.64 63.554 21.046H61.356V23.93H62.574V22.124ZM64.604 23.664H69.868V24.602H64.604V23.664ZM71.156 25.428V22.838H63.4V25.428H71.156ZM73.382 29.292H67.866V28.522H72.668V27.612H67.866V26.842C69.378 26.744 70.778 26.59 71.898 26.408L71.086 25.624C69.098 25.96 65.416 26.128 62.364 26.142C62.462 26.38 62.588 26.758 62.602 26.996C63.862 26.996 65.234 26.982 66.578 26.912V27.612H61.93V28.522H66.578V29.292H61.132V30.202H66.578V30.86C66.578 31.056 66.494 31.126 66.242 31.126C66.018 31.14 65.08 31.154 64.226 31.112C64.38 31.406 64.576 31.812 64.66 32.134C65.864 32.134 66.662 32.12 67.18 31.966C67.684 31.812 67.866 31.546 67.866 30.902V30.202H73.382V29.292ZM78.718 25.106L77.444 25.484V23.174L78.844 23.174V21.97H77.444V19.268H76.254V21.97H74.63V23.174H76.254V25.834C75.568 26.03 74.938 26.212 74.434 26.338L74.728 27.598C75.19 27.444 75.708 27.29 76.254 27.122V30.664C76.254 30.86 76.184 30.902 76.002 30.902C75.848 30.916 75.33 30.916 74.77 30.902C74.938 31.238 75.092 31.798 75.12 32.106C76.016 32.106 76.562 32.064 76.94 31.868C77.318 31.658 77.444 31.308 77.444 30.664V26.758C77.92 26.604 78.41 26.45 78.886 26.296L78.718 25.106ZM85.76 20.906V22.152H80.524V20.906H85.76ZM84.192 30.692V29.516H86.74V28.536H84.192V27.416L86.096 27.318C86.264 27.528 86.404 27.724 86.516 27.906L87.384 27.402C86.964 26.772 86.082 25.848 85.34 25.19L84.514 25.638C84.78 25.876 85.06 26.142 85.326 26.422L82.666 26.506C82.918 26.072 83.184 25.582 83.436 25.092H87.23V24.056H80.524V23.958V23.216H87.006V19.828H79.334V23.958C79.334 26.142 79.236 29.152 77.92 31.252C78.186 31.392 78.69 31.77 78.9 31.994C80.104 30.076 80.426 27.318 80.51 25.092H82.19C82.008 25.582 81.784 26.1 81.56 26.534L80.468 26.562L80.58 27.584L83.044 27.472V28.536L80.594 28.536V29.516L83.044 29.516V30.692L79.908 30.692V31.714L87.454 31.714V30.692H84.192ZM100.7 21.83V20.724H92.118C92.286 20.346 92.44 19.954 92.58 19.562L91.278 19.226C90.62 21.2 89.458 23.104 88.1 24.28C88.436 24.462 89.01 24.854 89.276 25.064C90.102 24.238 90.9 23.104 91.572 21.83H100.7ZM99.608 23.776V22.712H91.39V23.776H99.608ZM89.934 24.728V25.848H97.298C97.452 29.348 97.956 32.092 99.902 32.092C100.84 32.092 101.12 31.392 101.218 29.726C100.938 29.558 100.588 29.236 100.322 28.942C100.308 30.09 100.238 30.804 99.986 30.804C98.992 30.804 98.628 27.864 98.572 24.728H89.934ZM104.664 19.324C104.02 21.424 102.928 23.496 101.752 24.854C101.976 25.176 102.298 25.904 102.41 26.226C102.802 25.764 103.194 25.232 103.558 24.644V32.092H104.79V22.376C105.21 21.494 105.574 20.57 105.868 19.66L104.664 19.324ZM106.904 20.878H105.77V29.866H106.904V20.878ZM115.01 28.466V27.346H111.65V27.29V25.82H114.576V24.742H109.634C109.774 24.406 109.9 24.07 110.012 23.72L109.522 23.608H114.716V22.502H113.302V19.898H108.164V20.976H112.098V22.502H107.296V23.608H108.794C108.43 24.7 107.856 25.778 107.156 26.506C107.45 26.66 107.94 26.996 108.164 27.178C108.5 26.814 108.822 26.338 109.116 25.82H110.376V27.276V27.346H107.31V28.466H110.222C109.942 29.432 109.13 30.468 106.876 31.21C107.17 31.434 107.534 31.868 107.716 32.134C109.578 31.42 110.586 30.496 111.118 29.558C111.636 30.566 112.574 31.588 114.408 32.12C114.562 31.812 114.884 31.308 115.164 31.07C113.008 30.524 112.196 29.432 111.832 28.466H115.01ZM123.174 21.242C122.964 21.676 122.698 22.138 122.446 22.53H119.002C119.352 22.11 119.674 21.676 119.954 21.242H123.174ZM128.382 23.706V22.53H123.944C124.35 21.928 124.742 21.27 125.022 20.696L124.084 20.094L123.874 20.15H120.612C120.738 19.926 120.864 19.688 120.976 19.464L119.534 19.212C118.876 20.71 117.616 22.46 115.726 23.762C116.048 23.958 116.482 24.42 116.692 24.728C117.014 24.49 117.322 24.238 117.602 23.986V25.19C117.602 27.024 117.406 29.516 115.726 31.266C116.006 31.434 116.51 31.896 116.734 32.148C118.54 30.23 118.89 27.262 118.89 25.204V23.706H128.382ZM122.67 30.804C121.606 30.804 121.41 30.692 121.41 30.062V26.016H125.288C125.218 27.248 125.106 27.78 124.952 27.934C124.826 28.06 124.714 28.074 124.49 28.074C124.266 28.074 123.692 28.06 123.076 28.004C123.272 28.326 123.384 28.788 123.412 29.152C124.098 29.18 124.756 29.18 125.106 29.138C125.484 29.096 125.778 28.998 126.016 28.732C126.338 28.382 126.478 27.486 126.604 25.372C126.618 25.204 126.632 24.896 126.632 24.896H120.15V30.076C120.15 31.616 120.724 31.994 122.614 31.994H126.31C128.046 31.994 128.466 31.406 128.676 29.264C128.312 29.18 127.766 28.984 127.444 28.774C127.36 30.51 127.206 30.804 126.24 30.804H122.67ZM135.258 26.8C134.978 26.45 133.704 24.98 133.2 24.476V23.412H135.146V22.18H133.2V19.254H131.954V22.18H129.756V23.412H131.786C131.324 25.218 130.386 27.248 129.42 28.41C129.63 28.704 129.938 29.236 130.078 29.6C130.778 28.718 131.436 27.332 131.954 25.862V32.092H133.2V25.946C133.69 26.618 134.236 27.388 134.488 27.864L135.258 26.8ZM140.984 30.762C140.9 30.762 140.83 30.734 140.774 30.678C140.718 30.608 140.69 30.384 140.69 29.964V20.052L135.902 20.052V24.504C135.902 26.618 135.734 29.362 133.872 31.252C134.166 31.42 134.67 31.854 134.88 32.092C136.882 30.062 137.176 26.828 137.176 24.504V21.284H139.416V29.936C139.416 31.14 139.5 31.406 139.752 31.644C139.962 31.868 140.326 31.952 140.62 31.952H141.348C141.656 31.952 141.922 31.896 142.146 31.742C142.356 31.588 142.482 31.336 142.552 30.93C142.622 30.552 142.678 29.558 142.678 28.788C142.37 28.676 141.978 28.48 141.726 28.242C141.726 29.138 141.698 29.838 141.67 30.146C141.656 30.468 141.614 30.58 141.558 30.664C141.488 30.734 141.404 30.762 141.306 30.762H140.984ZM146.894 23.412H148.77V22.18H146.894V19.254H145.648V22.18H143.506V23.412H145.48C145.032 25.204 144.122 27.262 143.184 28.41C143.38 28.704 143.688 29.236 143.828 29.6C144.5 28.732 145.144 27.36 145.648 25.918V32.092H146.894V25.96C147.37 26.632 147.888 27.402 148.126 27.864L148.91 26.814C148.63 26.45 147.384 24.98 146.894 24.476V23.412ZM150.59 29.978V27.836H154.398V29.978H150.59ZM154.398 21.27V23.328H150.59V21.27H154.398ZM150.59 24.518H154.398V26.646H150.59V24.518ZM149.344 20.038V31.994H150.59V31.168H154.398V31.924H155.7V20.038H149.344ZM169.576 26.954V25.666H164.312C164.326 25.498 164.326 25.344 164.326 25.19V23.44H168.834V22.152H166.258C166.734 21.438 167.28 20.556 167.714 19.758L166.314 19.282C165.978 20.164 165.348 21.312 164.816 22.152H161.218L162.114 21.662C161.848 21.004 161.246 20.052 160.658 19.352L159.566 19.898C160.084 20.57 160.63 21.494 160.896 22.152L158.362 22.152V23.44L162.828 23.44V25.162C162.828 25.316 162.828 25.484 162.814 25.666L157.48 25.666V26.954H162.548C162.058 28.354 160.7 29.796 157.13 30.93C157.494 31.238 157.914 31.784 158.096 32.092C161.484 30.958 163.066 29.488 163.78 27.976C164.942 29.95 166.664 31.336 169.058 32.022C169.268 31.616 169.674 31.042 169.982 30.734C167.49 30.16 165.684 28.816 164.62 26.954H169.576ZM172.644 29.516V26.422H175.248V29.516H172.644ZM175.248 22.628V25.288H172.644V22.628H175.248ZM179.21 21.424C179.434 20.808 179.616 20.164 179.784 19.52L178.524 19.226C178.104 21.074 177.362 22.936 176.438 24.14V21.494H174.198C174.422 20.906 174.688 20.164 174.926 19.464L173.512 19.226C173.428 19.898 173.218 20.822 173.022 21.494H171.454V31.728H172.644V30.664H176.438V24.238C176.76 24.42 177.25 24.77 177.46 24.966C177.908 24.322 178.342 23.51 178.734 22.614H182.038C181.856 27.892 181.674 30.006 181.226 30.468C181.072 30.664 180.918 30.706 180.638 30.706C180.288 30.706 179.476 30.692 178.58 30.622C178.818 30.986 178.972 31.532 179 31.882C179.798 31.924 180.624 31.938 181.114 31.882C181.646 31.812 181.982 31.686 182.332 31.224C182.892 30.524 183.06 28.354 183.256 22.04C183.27 21.872 183.27 21.424 183.27 21.424H179.21ZM181.002 27.738C180.582 26.912 179.63 25.582 178.888 24.616L177.866 25.19C178.608 26.198 179.518 27.57 179.91 28.424L181.002 27.738ZM190.986 20.864C191.98 22.11 193.324 23.356 194.766 24.322H187.164C188.578 23.328 189.978 22.082 190.986 20.864ZM191.644 28.508H195.452V27.374H191.644V25.47H194.85V24.378C195.438 24.77 196.054 25.12 196.656 25.4C196.852 25.036 197.272 24.49 197.538 24.224C195.27 23.328 192.932 21.508 191.686 19.646H187.22V20.864H189.446C188.088 22.278 186.17 23.664 184.504 24.392C184.798 24.672 185.134 25.12 185.316 25.456C185.904 25.148 186.52 24.77 187.136 24.336V25.47H190.272V27.374H186.506V28.508H190.272V30.566H185.134V31.742H196.95V30.566H191.644V28.508ZM202.37 19.842V21.116H206.71C207.564 22.88 208.824 24.644 210.154 25.778C210.434 25.484 210.994 25.05 211.344 24.84C209.874 23.734 208.418 21.732 207.634 19.842H202.37ZM201.306 21.34C200.76 22.642 199.598 24.196 198.324 25.134C198.646 25.344 199.122 25.764 199.388 26.044C200.746 25.008 201.978 23.3 202.734 21.746L201.306 21.34ZM206.36 27.346C206.976 28.088 207.634 28.956 208.208 29.824C206.276 29.894 204.302 29.978 202.538 30.034C203.406 28.452 204.386 26.366 205.114 24.574L203.588 24.21C203.028 26.016 201.992 28.396 201.082 30.09L199.08 30.146L199.234 31.504C201.698 31.406 205.478 31.224 209.006 31.056C209.258 31.476 209.468 31.854 209.622 32.19L210.924 31.49C210.252 30.188 208.866 28.242 207.564 26.772L206.36 27.346ZM218.99 26.198V28.48L214.93 28.48V26.198L218.99 26.198ZM220.264 29.614V25.078H213.67V30.636H214.93V29.614L220.264 29.614ZM221.132 22.628L212.858 22.628V23.776L221.132 23.776V22.628ZM223.974 20.122L212.746 20.122V21.368L222.644 21.368V30.3C222.644 30.566 222.56 30.636 222.294 30.65C222.028 30.664 221.09 30.664 220.194 30.622C220.376 31 220.586 31.658 220.642 32.036C221.888 32.05 222.756 32.022 223.288 31.784C223.806 31.574 223.974 31.14 223.974 30.314V20.122ZM226.636 25.848C226.972 24.812 227.224 23.188 227.294 22.04L226.356 21.9C226.258 23.034 225.992 24.574 225.656 25.512L226.636 25.848ZM235.162 30.398V27.22H237.878V26.002H235.162V23.37H238.186V22.138H235.162V19.31H233.86V22.138H232.39C232.558 21.48 232.712 20.794 232.81 20.094L231.536 19.884C231.354 21.2 231.046 22.516 230.612 23.608C230.444 23.02 230.052 22.166 229.702 21.508L228.876 21.844V19.254H227.574V32.092H228.876V22.054C229.226 22.796 229.59 23.692 229.716 24.252L230.5 23.874C230.346 24.238 230.164 24.56 229.982 24.84C230.304 24.966 230.878 25.26 231.144 25.442C231.466 24.868 231.774 24.154 232.04 23.37H233.86V26.002H231.018V27.22H233.86V30.398H229.968V31.63H238.55V30.398H235.162ZM240.246 32.106H241.534V22.46H240.246V32.106ZM240.386 20.024C241.072 20.766 242.01 21.774 242.444 22.376L243.452 21.662C242.976 21.074 242.01 20.094 241.31 19.408L240.386 20.024ZM247.19 24.658V27.486H244.642V24.658H247.19ZM248.464 28.662V23.482H243.466V29.516H244.642V28.662H248.464ZM251.754 19.996H243.942V21.2H250.452V30.412C250.452 30.664 250.368 30.734 250.13 30.748C249.906 30.762 249.038 30.762 248.254 30.734C248.436 31.07 248.632 31.658 248.688 32.008C249.85 32.022 250.62 31.994 251.096 31.784C251.586 31.574 251.754 31.196 251.754 30.426V19.996ZM266.106 29.726C265.56 29.18 264.482 28.34 263.67 27.78L262.928 28.466C263.768 29.082 264.818 29.964 265.336 30.524L266.106 29.726ZM262.354 23.678C262.27 27.15 262.046 28.816 259.148 29.698C259.372 29.894 259.652 30.314 259.764 30.552C262.956 29.53 263.334 27.514 263.432 23.678H262.354ZM260.226 22.096V27.92H261.304V23.062H264.37V27.864H265.49V22.096H262.928C263.096 21.746 263.278 21.326 263.446 20.906H266.092V19.87H259.722V20.906H262.172C262.046 21.312 261.906 21.76 261.766 22.096H260.226ZM257.874 21.606L255.382 21.606V20.724L257.874 20.724V21.606ZM257.874 23.356H255.382V22.474H257.874V23.356ZM259.092 19.814L254.22 19.814V24.266L259.092 24.266V19.814ZM257.3 28.48H259.47V27.5H257.3V26.184H259.75V25.19L253.478 25.19V26.184H256.194V29.684C255.83 29.39 255.55 28.998 255.312 28.494C255.368 27.976 255.41 27.444 255.438 26.87L254.374 26.786C254.318 28.746 254.08 30.412 253.212 31.476C253.464 31.602 253.954 31.924 254.122 32.092C254.598 31.476 254.892 30.706 255.102 29.824C256.278 31.518 258.168 31.812 260.968 31.812L265.784 31.812C265.854 31.49 266.036 31 266.218 30.734C265.28 30.762 261.724 30.762 260.982 30.762C259.512 30.762 258.28 30.692 257.3 30.342V28.48Z" fill="#435CE7"/>
<rect y="66" width="327" height="50" rx="7" fill="#F6F7FE"/>
<path d="M59.4715 88.124H68.8235V89.93H70.0975V87.046H67.6755C68.0535 86.696 68.5015 86.22 68.9355 85.716L67.6055 85.296C67.3255 85.73 66.8495 86.374 66.4575 86.78L67.1435 87.046H64.7635V85.268H63.4615V87.046H61.0815L61.7535 86.738C61.5435 86.332 61.1095 85.716 60.7035 85.282L59.5695 85.73C59.8775 86.108 60.2415 86.64 60.4515 87.046H58.2535V89.93H59.4715V88.124ZM61.5015 89.664H66.7655V90.602H61.5015V89.664ZM68.0535 91.428V88.838H60.2975V91.428H68.0535ZM70.2795 95.292H64.7635V94.522H69.5655V93.612H64.7635V92.842C66.2755 92.744 67.6755 92.59 68.7955 92.408L67.9835 91.624C65.9955 91.96 62.3135 92.128 59.2615 92.142C59.3595 92.38 59.4855 92.758 59.4995 92.996C60.7595 92.996 62.1315 92.982 63.4755 92.912V93.612H58.8275V94.522H63.4755V95.292H58.0295V96.202H63.4755V96.86C63.4755 97.056 63.3915 97.126 63.1395 97.126C62.9155 97.14 61.9775 97.154 61.1235 97.112C61.2775 97.406 61.4735 97.812 61.5575 98.134C62.7615 98.134 63.5595 98.12 64.0775 97.966C64.5815 97.812 64.7635 97.546 64.7635 96.902V96.202H70.2795V95.292ZM75.6155 91.106L74.3415 91.484V89.174H75.7415V87.97H74.3415V85.268H73.1515V87.97H71.5275V89.174H73.1515V91.834C72.4655 92.03 71.8355 92.212 71.3315 92.338L71.6255 93.598C72.0875 93.444 72.6055 93.29 73.1515 93.122V96.664C73.1515 96.86 73.0815 96.902 72.8995 96.902C72.7455 96.916 72.2275 96.916 71.6675 96.902C71.8355 97.238 71.9895 97.798 72.0175 98.106C72.9135 98.106 73.4595 98.064 73.8375 97.868C74.2155 97.658 74.3415 97.308 74.3415 96.664V92.758C74.8175 92.604 75.3075 92.45 75.7835 92.296L75.6155 91.106ZM82.6575 86.906V88.152H77.4215V86.906H82.6575ZM81.0895 96.692V95.516H83.6375V94.536H81.0895V93.416L82.9935 93.318C83.1615 93.528 83.3015 93.724 83.4135 93.906L84.2815 93.402C83.8615 92.772 82.9795 91.848 82.2375 91.19L81.4115 91.638C81.6775 91.876 81.9575 92.142 82.2235 92.422L79.5635 92.506C79.8155 92.072 80.0815 91.582 80.3335 91.092H84.1275V90.056H77.4215V89.958V89.216H83.9035V85.828H76.2315V89.958C76.2315 92.142 76.1335 95.152 74.8175 97.252C75.0835 97.392 75.5875 97.77 75.7975 97.994C77.0015 96.076 77.3235 93.318 77.4075 91.092H79.0875C78.9055 91.582 78.6815 92.1 78.4575 92.534L77.3655 92.562L77.4775 93.584L79.9415 93.472V94.536H77.4915V95.516H79.9415V96.692H76.8055V97.714H84.3515V96.692H81.0895ZM93.0195 88.012C92.6835 89.02 92.2495 90.07 91.7315 91.036C91.0455 90.154 90.3315 89.3 89.6875 88.53L88.6095 89.076C89.4075 90.028 90.2615 91.12 91.0455 92.198C90.1635 93.57 89.1415 94.76 88.0495 95.53C88.3575 95.754 88.7775 96.216 89.0155 96.524C90.0375 95.712 91.0035 94.606 91.8295 93.318C92.5855 94.41 93.2435 95.46 93.6495 96.272L94.8535 95.572C94.3215 94.62 93.4815 93.388 92.5435 92.114C93.1875 90.924 93.7335 89.636 94.1535 88.32L93.0195 88.012ZM86.8455 85.842V89.874C86.8455 92.072 86.7195 95.152 85.2075 97.266C85.5015 97.42 86.0615 97.882 86.2995 98.148C87.9235 95.866 88.1895 92.24 88.1895 89.874V87.102H95.0355C95.0495 94.312 95.0775 97.966 97.0375 97.966C97.8495 97.966 98.1155 97.308 98.2415 95.488C97.9895 95.278 97.6395 94.844 97.4295 94.522C97.4015 95.628 97.3035 96.594 97.1355 96.594C96.2675 96.594 96.2815 92.576 96.3375 85.842H86.8455ZM105.047 90.63H109.849V89.524H105.341C106.111 88.782 106.839 87.942 107.455 87.032C108.533 88.362 110.073 89.79 111.431 90.686C111.571 90.336 111.837 89.79 112.075 89.482C110.675 88.698 109.051 87.27 108.099 86.01C108.183 85.856 108.253 85.702 108.337 85.548L107.203 85.142C106.307 86.99 104.711 88.698 103.059 89.748C103.283 89.986 103.675 90.532 103.815 90.798C104.235 90.49 104.641 90.168 105.047 89.804V90.63ZM108.491 94.802C108.407 93.92 108.169 92.576 107.903 91.526L106.895 91.666C107.119 92.716 107.371 94.074 107.427 94.984L108.491 94.802ZM106.153 95.124C106.027 94.214 105.663 92.856 105.271 91.806L104.263 92.072C104.627 93.136 104.977 94.508 105.089 95.404L106.153 95.124ZM102.821 85.772L102.639 85.814H99.5595V98.064H100.707V86.99H102.191C101.939 87.914 101.589 89.09 101.239 90C102.149 91.05 102.359 91.988 102.359 92.702C102.359 93.122 102.289 93.472 102.093 93.612C101.981 93.696 101.855 93.724 101.687 93.738C101.491 93.752 101.253 93.738 100.973 93.724C101.155 94.032 101.253 94.536 101.267 94.844C101.589 94.858 101.925 94.858 102.191 94.83C102.485 94.774 102.737 94.69 102.933 94.55C103.339 94.242 103.521 93.654 103.521 92.828C103.521 91.988 103.297 90.994 102.387 89.86C102.807 88.782 103.283 87.396 103.675 86.248L102.821 85.772ZM110.185 91.54C109.737 92.996 108.897 95.012 108.211 96.328H103.605V97.476H111.697V96.328H109.275C109.975 95.068 110.759 93.29 111.333 91.806L110.185 91.54ZM112.315 99.52H113.435L117.327 85.828H116.207L112.315 99.52ZM123.611 92.8C123.331 92.45 122.057 90.98 121.553 90.476V89.412H123.499V88.18H121.553V85.254H120.307V88.18H118.109V89.412H120.139C119.677 91.218 118.739 93.248 117.773 94.41C117.983 94.704 118.291 95.236 118.431 95.6C119.131 94.718 119.789 93.332 120.307 91.862V98.092H121.553V91.946C122.043 92.618 122.589 93.388 122.841 93.864L123.611 92.8ZM129.337 96.762C129.253 96.762 129.183 96.734 129.127 96.678C129.071 96.608 129.043 96.384 129.043 95.964V86.052H124.255V90.504C124.255 92.618 124.087 95.362 122.225 97.252C122.519 97.42 123.023 97.854 123.233 98.092C125.235 96.062 125.529 92.828 125.529 90.504V87.284H127.769V95.936C127.769 97.14 127.853 97.406 128.105 97.644C128.315 97.868 128.679 97.952 128.973 97.952H129.701C130.009 97.952 130.275 97.896 130.499 97.742C130.709 97.588 130.835 97.336 130.905 96.93C130.975 96.552 131.031 95.558 131.031 94.788C130.723 94.676 130.331 94.48 130.079 94.242C130.079 95.138 130.051 95.838 130.023 96.146C130.009 96.468 129.967 96.58 129.911 96.664C129.841 96.734 129.757 96.762 129.659 96.762H129.337ZM135.079 89.496C136.325 88.558 137.389 87.508 138.061 86.528C138.803 87.55 139.951 88.6 141.211 89.496H135.079ZM134.813 90.7H141.365V89.608C142.177 90.182 143.031 90.672 143.843 91.064C144.067 90.672 144.361 90.21 144.669 89.888C142.485 89.034 140.161 87.326 138.677 85.268H137.333C136.283 86.976 134.001 88.992 131.607 90.084C131.887 90.364 132.237 90.854 132.377 91.148C133.217 90.742 134.043 90.238 134.813 89.692V90.7ZM132.405 93.374H135.877C135.541 94.312 135.037 95.432 134.575 96.3L132.503 96.37L132.671 97.644C135.051 97.546 138.607 97.392 141.939 97.224C142.191 97.56 142.401 97.868 142.555 98.134L143.745 97.392C143.101 96.356 141.771 94.872 140.497 93.794L139.377 94.396C139.923 94.886 140.483 95.474 141.001 96.062C139.293 96.132 137.557 96.202 136.003 96.258C136.507 95.362 137.025 94.312 137.487 93.374H143.899V92.156H132.405V93.374ZM155.731 90.798V89.622H152.315C152.371 88.992 152.399 88.306 152.427 87.592H151.209C151.181 88.32 151.153 88.992 151.111 89.622H147.975V90.798H150.957C150.621 92.618 149.837 93.906 147.765 94.704C148.031 94.942 148.381 95.39 148.521 95.698C150.439 94.914 151.405 93.724 151.895 92.128C152.483 93.822 153.477 95.012 155.087 95.67C155.255 95.334 155.619 94.858 155.885 94.606C154.107 94.004 153.099 92.66 152.595 90.798H155.731ZM147.317 96.244V87.116H156.375V96.244H147.317ZM146.015 85.87V98.092H147.317V97.49H156.375V98.092H157.733V85.87H146.015ZM162.551 95.152C161.781 95.866 160.451 96.552 159.247 97.014C159.541 97.224 160.017 97.658 160.241 97.896C161.417 97.35 162.831 96.496 163.769 95.6L162.551 95.152ZM171.945 94.662C171.245 93.892 169.789 92.884 168.641 92.212L167.731 92.884C168.151 93.136 168.599 93.444 169.033 93.752C167.535 93.78 166.037 93.808 164.609 93.822C165.883 93.08 167.255 92.142 168.347 91.288L167.185 90.658C166.429 91.344 165.351 92.156 164.273 92.87C163.979 92.66 163.643 92.45 163.293 92.226C163.937 91.778 164.707 91.162 165.393 90.574H171.735V89.566H166.219V88.824H170.349V87.858H166.219V87.116H171.119V86.15H166.219V85.24H164.917V86.15H160.241V87.116H164.917V87.858H160.997V88.824H164.917V89.566H159.499V90.574H163.699C163.293 90.98 162.817 91.386 162.383 91.708C162.103 91.568 161.823 91.428 161.571 91.302L160.717 92.03C161.529 92.436 162.509 93.024 163.209 93.542C163.027 93.654 162.845 93.752 162.663 93.85C161.487 93.864 160.423 93.878 159.541 93.878L159.625 94.956C161.067 94.928 162.915 94.9 164.931 94.844V98.078H166.219V94.816C167.549 94.788 168.921 94.746 170.251 94.704C170.531 94.956 170.783 95.194 170.965 95.404L171.945 94.662ZM167.367 95.81C168.515 96.356 169.957 97.224 170.657 97.812L171.665 97.07C170.909 96.454 169.439 95.628 168.333 95.138L167.367 95.81ZM182.111 85.198C181.803 85.954 181.215 87.004 180.753 87.676L181.873 88.082C182.391 87.48 183.021 86.514 183.581 85.632L182.111 85.198ZM177.575 92.086V91.848V89.314H181.131V92.086H177.575ZM185.625 92.086H182.461V89.314H185.191V88.082H176.903L177.967 87.634C177.701 86.948 177.085 85.968 176.525 85.24L175.377 85.688C175.909 86.43 176.469 87.424 176.707 88.082H173.599V89.314H176.259V91.82V92.086H173.123V93.332H176.161C175.923 94.774 175.209 96.174 173.123 97.21C173.417 97.434 173.837 97.91 174.019 98.218C176.483 96.958 177.267 95.152 177.491 93.332H181.131V98.092H182.461V93.332H185.625V92.086ZM194.041 88.964H196.029V91.218H194.013C194.027 90.896 194.041 90.588 194.041 90.294V88.964ZM196.029 92.464V95.824H197.317V92.464H199.291V91.218H197.317V88.964H199.025V87.718H197.317V85.59H196.029V87.718H194.041V85.59H192.753V87.718H190.891V88.964H192.753V90.28C192.753 90.588 192.753 90.896 192.725 91.218H190.793V92.464H192.557C192.347 93.416 191.885 94.312 190.975 95.026C191.255 95.208 191.759 95.698 191.941 95.964C193.089 95.054 193.635 93.766 193.859 92.464H196.029ZM190.289 87.774C189.841 87.158 188.875 86.206 188.119 85.534L187.181 86.262C187.951 86.962 188.889 87.97 189.309 88.6L190.289 87.774ZM189.897 90.28H186.845V91.484H188.623V95.208C188.021 95.474 187.321 96.048 186.635 96.776L187.503 97.98C188.119 97.084 188.777 96.23 189.211 96.23C189.533 96.23 189.981 96.678 190.583 97.042C191.577 97.616 192.739 97.784 194.461 97.784C195.833 97.784 198.241 97.7 199.207 97.63C199.235 97.266 199.445 96.636 199.599 96.272C198.227 96.454 196.071 96.566 194.517 96.566C192.963 96.566 191.731 96.482 190.821 95.936C190.415 95.698 190.149 95.474 189.897 95.32V90.28ZM212.803 86.066H206.013V87.312H212.803V86.066ZM203.549 85.24C202.863 86.248 201.519 87.494 200.357 88.25C200.595 88.502 200.945 89.006 201.099 89.3C202.387 88.39 203.843 87.004 204.795 85.758L203.549 85.24ZM204.095 88.236C203.157 89.818 201.645 91.414 200.217 92.436C200.483 92.688 200.945 93.262 201.113 93.542C201.561 93.178 202.037 92.744 202.499 92.282V98.134H203.801V90.84C204.375 90.14 204.893 89.412 205.327 88.698L204.095 88.236ZM213.195 89.888H205.425V91.134H209.849V96.51C209.849 96.706 209.765 96.776 209.499 96.776C209.247 96.79 208.309 96.79 207.413 96.762C207.595 97.14 207.777 97.686 207.833 98.064C209.135 98.064 209.961 98.05 210.479 97.854C211.011 97.644 211.179 97.266 211.179 96.524V91.134H213.195V89.888ZM225.251 85.492C224.495 86.542 223.081 87.648 221.891 88.292C222.227 88.53 222.605 88.922 222.829 89.202C224.131 88.432 225.545 87.242 226.483 85.982L225.251 85.492ZM225.573 89.328C224.761 90.434 223.235 91.596 221.947 92.268C222.283 92.506 222.675 92.898 222.885 93.178C224.271 92.38 225.769 91.134 226.791 89.832L225.573 89.328ZM216.333 87.984H220.211V88.712H216.333V87.984ZM216.333 86.528H220.211V87.242H216.333V86.528ZM222.213 90.224H218.839V89.482H221.415V85.744H215.171V89.482H217.635V90.224H214.247V91.246H222.213V90.224ZM215.633 95.096C215.325 95.838 214.765 96.566 214.135 97.084C214.415 97.224 214.877 97.532 215.087 97.728C215.689 97.154 216.347 96.244 216.753 95.376L215.633 95.096ZM216.403 92.828H220.127V93.92H216.403V92.828ZM221.303 94.802V91.946H215.283V94.802H217.635V96.902C217.635 97.056 217.593 97.084 217.439 97.084C217.257 97.112 216.725 97.098 216.137 97.084C216.305 97.35 216.529 97.784 216.613 98.092C217.383 98.092 217.915 98.092 218.321 97.91C218.727 97.756 218.839 97.476 218.839 96.93V94.802H221.303ZM225.909 93.178C225.083 94.704 223.515 96.006 221.849 96.832C221.527 96.314 220.953 95.614 220.491 95.11L219.525 95.586C220.043 96.188 220.673 97.014 220.939 97.546L221.597 97.196C221.877 97.462 222.171 97.826 222.325 98.092C224.341 97.112 226.105 95.558 227.169 93.64L225.909 93.178ZM230.923 87.732V93.248H229.551V87.732H230.923ZM232.001 86.528H228.403V95.74L229.551 95.74V94.452H232.001V86.528ZM237.335 90.994V93.85H236.019V90.994H237.335ZM238.217 94.788V90.056H235.123V95.558H236.019V94.788H238.217ZM240.429 87.564H236.551C236.845 86.948 237.153 86.206 237.433 85.52L235.921 85.226C235.753 85.912 235.487 86.836 235.193 87.564L232.911 87.564V98.022H234.157V88.684H239.169V96.678C239.169 96.86 239.113 96.916 238.931 96.93C238.763 96.93 238.189 96.944 237.643 96.902C237.783 97.224 237.965 97.756 238.021 98.078C238.903 98.092 239.491 98.064 239.897 97.854C240.303 97.672 240.429 97.322 240.429 96.692V87.564ZM245.373 87.704C244.925 87.116 243.959 86.234 243.231 85.618L242.419 86.402C243.147 87.074 244.071 88.012 244.505 88.614L245.373 87.704ZM244.729 95.222V89.566H241.747V90.812H243.525V95.614C243.525 96.216 243.147 96.594 242.881 96.776C243.091 97.028 243.371 97.546 243.483 97.854C243.693 97.56 244.071 97.238 246.395 95.39C246.255 95.124 246.031 94.62 245.919 94.298L244.729 95.222ZM254.543 92.086H250.791V87.172H253.955V85.926H246.143V87.172H249.475V92.086H245.779V93.318H249.475V98.092H250.791V93.318H254.543V92.086ZM246.535 88.11C246.885 89.16 247.179 90.546 247.263 91.47L248.425 91.148C248.327 90.266 248.019 88.894 247.627 87.83L246.535 88.11ZM252.765 91.526C253.115 90.658 253.521 89.286 253.871 88.11L252.583 87.816C252.429 88.866 252.051 90.336 251.743 91.246L252.765 91.526ZM258.479 85.31C257.723 87.354 256.477 89.398 255.161 90.7C255.371 91.008 255.749 91.708 255.875 92.016C256.267 91.61 256.659 91.134 257.037 90.616V98.078H258.269V88.712C258.815 87.746 259.319 86.71 259.697 85.688L258.479 85.31ZM266.137 96.272H261.461V93.346H266.137V96.272ZM268.279 89.468V88.208H264.443V85.24H263.099V88.208H259.445V89.468H263.099V92.114H260.173V98.092H261.461V97.504H266.137V98.036H267.467V92.114H264.443V89.468H268.279Z" fill="#435CE7"/>
<rect y="132" width="327" height="50" rx="7" fill="#F6F7FE"/>
<path d="M51.1175 155.524C51.8875 154.796 52.6155 153.97 53.2455 153.074C53.9455 153.914 54.8135 154.768 55.7235 155.524H51.1175ZM50.9495 156.63H55.7375V155.538C56.2555 155.972 56.7875 156.35 57.3055 156.686C57.4315 156.35 57.7115 155.79 57.9495 155.482C56.5355 154.712 54.8695 153.326 53.8895 152.066C53.9735 151.898 54.0715 151.73 54.1555 151.548L53.0355 151.142C52.0835 153.018 50.4175 154.754 48.6955 155.804C48.9335 156.056 49.3115 156.602 49.4655 156.868C49.9555 156.518 50.4735 156.112 50.9495 155.678V156.63ZM54.2255 160.816C54.1275 159.92 53.9035 158.59 53.6235 157.54L52.6155 157.68C52.8395 158.716 53.0915 160.088 53.1615 160.984L54.2255 160.816ZM51.8315 161.124C51.7055 160.214 51.3415 158.856 50.9495 157.82L49.9415 158.072C50.3055 159.136 50.6555 160.508 50.7815 161.404L51.8315 161.124ZM49.5635 158.016C49.3535 157.61 48.3595 156.056 48.0095 155.566V155.048H49.2975V153.83H48.0095V151.268H46.8195V153.83H45.0975V155.048H46.7215C46.3575 156.756 45.6575 158.772 44.9015 159.85C45.0975 160.186 45.3915 160.76 45.5175 161.152C45.9935 160.396 46.4555 159.248 46.8195 158.016V164.092H48.0095V157.19C48.3175 157.82 48.6535 158.492 48.8075 158.898L49.5635 158.016ZM56.0175 157.54C55.5835 158.996 54.7435 161.012 54.0435 162.328H49.2415V163.476H57.4735V162.328H55.1075C55.8075 161.068 56.5915 159.29 57.1655 157.82L56.0175 157.54ZM59.1835 163.686H71.1675V162.524H59.1835V163.686ZM67.6955 159.052H62.4875V158.114H67.6955V159.052ZM67.6955 160.872H62.4875V159.92H67.6955V160.872ZM61.1995 157.218V161.782H69.0395V157.218H61.1995ZM71.3215 154.068V152.934H65.7495V151.254H64.4615V152.934H58.9875V154.068H63.1315C61.9975 155.272 60.2895 156.35 58.6655 156.882C58.9315 157.148 59.3095 157.624 59.4915 157.932C61.3395 157.19 63.2295 155.846 64.4615 154.264V156.798H65.7495V154.264C67.0235 155.804 68.9135 157.134 70.7615 157.82C70.9435 157.498 71.3495 157.008 71.6155 156.77C69.9495 156.238 68.2135 155.244 67.0515 154.068H71.3215ZM84.7495 153.466C84.3295 152.906 83.4335 152.122 82.6915 151.59L81.8095 152.248C82.5375 152.822 83.4195 153.662 83.8115 154.208L84.7495 153.466ZM75.5375 151.338C74.8095 153.438 73.5915 155.538 72.3175 156.896C72.5555 157.204 72.9195 157.904 73.0455 158.184C73.4655 157.722 73.8855 157.19 74.2775 156.602V164.106H75.5375V154.474C75.9995 153.564 76.4195 152.64 76.7555 151.702L75.5375 151.338ZM82.0475 162.58C81.5715 162.58 81.4875 162.482 81.4875 162.006V156.728H80.8155C80.8575 156.392 80.8855 156.07 80.8995 155.734H85.0995V154.502H80.9695C80.9975 153.494 81.0115 152.472 81.0115 151.422H79.7235C79.7235 152.486 79.7235 153.508 79.6815 154.502H76.3495V155.734H79.6255C79.4015 158.94 78.6455 161.558 75.9155 163.126C76.2515 163.378 76.6575 163.812 76.8535 164.134C78.6035 163.07 79.6115 161.586 80.1995 159.808V162.02C80.1995 163.378 80.5355 163.784 81.8655 163.784H83.6995C84.8895 163.784 85.2255 163.168 85.3515 160.97C85.0155 160.872 84.4695 160.662 84.1895 160.438C84.1335 162.258 84.0495 162.58 83.6015 162.58H82.0475ZM95.6155 162.664C95.1395 162.664 95.0555 162.594 95.0555 162.16V158.38H98.7935V157.12H93.3195V154.544H97.7575V153.298H93.3195V151.254H92.0035V153.298H89.8195C90.0015 152.78 90.1555 152.262 90.2955 151.786L88.9655 151.534C88.6575 152.948 87.9715 154.824 87.0335 155.972C87.3555 156.098 87.8735 156.378 88.1815 156.588C88.6155 156.014 88.9935 155.3 89.3295 154.544H92.0035V157.12H86.5435V158.38H90.0155C89.7775 160.466 89.2035 162.16 86.3335 163.042C86.6275 163.322 86.9915 163.84 87.1455 164.19C90.3235 163.028 91.0795 160.97 91.3875 158.38H93.7395V162.16C93.7395 163.476 94.0755 163.896 95.4615 163.896H97.2815C98.4715 163.896 98.8215 163.322 98.9475 161.18C98.6115 161.082 98.0515 160.872 97.7715 160.648C97.7155 162.384 97.6315 162.664 97.1695 162.664H95.6155ZM100.615 157.554C100.615 159.738 100.517 161.698 99.8035 163.308C100.083 163.476 100.503 163.854 100.699 164.106C101.609 162.286 101.707 160.06 101.707 157.554V151.772H100.615V157.554ZM102.561 162.16H103.555V152.766H102.561V162.16ZM104.423 163.7H105.557V151.716H104.423V163.7ZM109.715 160.858C109.911 160.228 109.967 159.584 109.967 158.982V156.294H108.763V158.982C108.763 160.326 108.455 162.188 105.655 163.266C105.949 163.49 106.299 163.91 106.467 164.148C108.049 163.49 108.931 162.608 109.407 161.67C110.289 162.44 111.311 163.434 111.801 164.078L112.725 163.294C112.137 162.566 110.905 161.474 109.939 160.704L109.715 160.858ZM106.159 151.842V152.962H108.665C108.567 153.368 108.441 153.83 108.315 154.222H106.495V160.872H107.657V155.384H111.059V160.83H112.277V154.222H109.547C109.701 153.844 109.869 153.396 110.037 152.962H112.739V151.842H106.159ZM125.271 158.31H123.213L123.283 158.24C123.003 158.072 122.667 157.876 122.275 157.68C123.381 157.05 124.459 156.196 125.257 155.398L124.403 154.74L124.109 154.81H117.263V155.86H122.975C122.443 156.322 121.785 156.798 121.155 157.148C120.469 156.84 119.755 156.532 119.139 156.294L118.355 157.05C119.209 157.4 120.217 157.862 121.085 158.31H116.535V159.416H120.623V162.678C120.623 162.874 120.553 162.93 120.287 162.944C120.021 162.958 119.069 162.958 118.131 162.916C118.299 163.266 118.495 163.756 118.551 164.12C119.797 164.12 120.651 164.134 121.197 163.938C121.785 163.756 121.925 163.42 121.925 162.706V159.416H124.473C124.039 160.074 123.549 160.732 123.115 161.194L124.151 161.712C124.879 160.942 125.719 159.738 126.433 158.632L125.481 158.24L125.271 158.31ZM121.239 152.752V151.254H119.881V152.752H114.841V156.56C114.841 158.59 114.743 161.432 113.609 163.42C113.889 163.56 114.463 163.924 114.687 164.148C115.905 162.02 116.115 158.758 116.115 156.574V153.956H126.433V152.752H121.239ZM137.537 157.134C137.019 158.562 136.193 159.71 135.157 160.62C134.023 159.682 133.197 158.506 132.623 157.134H137.537ZM135.549 153.242C135.423 154.068 135.269 155.034 135.087 155.902H131.727C131.825 155.006 131.895 154.11 131.937 153.242H135.549ZM138.335 155.832L138.083 155.902H136.473C136.711 154.656 136.949 153.214 137.075 152.038L136.081 151.912L135.843 151.968H128.185V153.242H130.551C130.439 156.714 130.019 160.872 127.387 163.014C127.695 163.196 128.199 163.63 128.437 163.882C130.229 162.384 131.083 159.962 131.517 157.414C132.133 159.01 132.973 160.354 134.079 161.418C132.973 162.118 131.699 162.608 130.341 162.902C130.607 163.182 130.915 163.714 131.069 164.064C132.567 163.672 133.939 163.098 135.129 162.3C136.319 163.14 137.747 163.742 139.497 164.106C139.693 163.728 140.071 163.14 140.379 162.832C138.769 162.566 137.397 162.076 136.263 161.404C137.621 160.144 138.657 158.464 139.203 156.21L138.335 155.832ZM142.341 155.65C142.565 155.3 142.775 154.852 142.957 154.376H144.595V155.65H142.341ZM145.827 154.376H148.501V153.2H145.827V151.338H144.595V153.2H143.377C143.503 152.752 143.629 152.276 143.741 151.814L142.523 151.562C142.257 152.892 141.795 154.278 141.179 155.202C141.487 155.314 142.005 155.496 142.271 155.65H141.305V156.84H144.595V158.086H141.907V162.986H143.069V159.248H144.595V164.092H145.827V159.248H147.451V161.74C147.451 161.88 147.409 161.922 147.269 161.922C147.129 161.936 146.709 161.936 146.205 161.922C146.373 162.23 146.527 162.706 146.555 163.028C147.283 163.042 147.815 163.028 148.179 162.832C148.543 162.636 148.627 162.3 148.627 161.768V158.086H145.827V156.84H149.047V155.65H145.827V154.376ZM151.105 152.486H149.901V160.228H151.105V152.486ZM152.365 151.45V162.454C152.365 162.678 152.295 162.748 152.071 162.748C151.833 162.762 151.077 162.762 150.293 162.734C150.475 163.112 150.657 163.714 150.713 164.064C151.763 164.064 152.547 164.036 152.995 163.812C153.457 163.588 153.625 163.224 153.625 162.44V151.45H152.365ZM156.833 153.998L165.919 153.998V155.986H167.249V152.766L162.069 152.766V151.268H160.683V152.766H155.559V155.986H156.833V153.998ZM162.055 159.99H166.059V158.772H162.055V156.714H165.359V155.468H157.477V156.714H160.711V162.146C159.703 161.726 158.919 160.984 158.429 159.682C158.569 159.108 158.681 158.492 158.765 157.848L157.421 157.722C157.127 160.172 156.413 162.132 154.873 163.28C155.195 163.49 155.741 163.938 155.951 164.176C156.819 163.434 157.463 162.454 157.925 161.264C159.199 163.462 161.215 163.924 163.959 163.924H167.291C167.347 163.546 167.571 162.916 167.781 162.608C166.983 162.636 164.631 162.636 164.029 162.636C163.329 162.636 162.671 162.594 162.055 162.51V159.99ZM181.335 154.194V152.962H176.729C176.547 152.43 176.225 151.716 175.917 151.128L174.629 151.45C174.853 151.912 175.077 152.472 175.259 152.962H169.827V156.728C169.827 158.702 169.729 161.516 168.679 163.476C168.987 163.602 169.575 163.98 169.813 164.218C170.961 162.104 171.143 158.884 171.143 156.728V154.194H181.335ZM177.135 159.752C176.925 158.464 176.407 156.546 175.931 155.034L174.741 155.342C175.189 156.854 175.693 158.828 175.875 160.116L177.135 159.752ZM174.559 160.424C174.251 159.136 173.593 157.218 172.977 155.72L171.843 156.154C172.403 157.666 173.075 159.64 173.341 160.942L174.559 160.424ZM177.877 162.258C179.123 160.158 180.145 157.708 180.803 155.44L179.431 154.964C178.899 157.33 177.863 160.144 176.519 162.258H171.157V163.49H181.503V162.258H177.877ZM187.567 152.976L187.343 153.032H182.919V154.264H186.993C186.797 155.58 186.517 156.798 186.111 157.904C185.411 157.204 184.683 156.518 183.983 155.916L183.087 156.742C183.913 157.47 184.781 158.338 185.579 159.22C184.795 160.914 183.759 162.216 182.513 163.028C182.835 163.266 183.227 163.77 183.437 164.078C184.669 163.168 185.719 161.936 186.531 160.326C187.105 161.054 187.595 161.754 187.917 162.356L188.939 161.39C188.547 160.676 187.889 159.836 187.133 158.968C187.749 157.372 188.183 155.454 188.421 153.228L187.567 152.976ZM191.389 160.06C191.165 159.22 190.507 157.974 189.849 157.036L188.785 157.54C189.429 158.506 190.045 159.794 190.255 160.62L191.389 160.06ZM195.295 154.488H193.713V151.268H192.425V154.488H188.673V155.748H192.425V162.412C192.425 162.664 192.327 162.734 192.089 162.734C191.851 162.748 191.095 162.748 190.255 162.72C190.437 163.098 190.633 163.728 190.689 164.106C191.851 164.106 192.607 164.05 193.083 163.826C193.531 163.602 193.713 163.21 193.713 162.412V155.748H195.295V154.488ZM208.625 153.76C208.359 153.228 207.729 152.402 207.211 151.786L206.315 152.276C206.819 152.906 207.421 153.788 207.687 154.348L208.625 153.76ZM197.971 161.88V158.632H201.429V161.88H197.971ZM200.099 157.47V154.978H202.885V153.83H200.099V151.38H198.853V157.47H196.823V163.854H197.971V163.056H201.429V163.784H202.633V157.47H200.099ZM207.813 156.462C207.477 157.512 206.959 158.534 206.343 159.486C206.175 158.576 206.021 157.512 205.895 156.336L209.017 155.888L208.849 154.768L205.797 155.216C205.727 153.998 205.657 152.696 205.629 151.352H204.425C204.467 152.78 204.537 154.11 204.635 155.37L202.773 155.636L202.955 156.77L204.719 156.518C204.873 158.142 205.083 159.584 205.377 160.746C204.579 161.67 203.655 162.426 202.633 162.916C202.983 163.154 203.375 163.532 203.585 163.84C204.369 163.378 205.111 162.776 205.783 162.062C206.273 163.336 206.931 164.078 207.799 164.12C208.359 164.134 208.933 163.56 209.255 161.334C209.045 161.208 208.541 160.872 208.317 160.62C208.233 161.922 208.051 162.622 207.785 162.622C207.365 162.594 207.015 161.992 206.707 160.984C207.603 159.78 208.331 158.394 208.793 157.008L207.813 156.462ZM216.915 158.996C217.685 158.562 218.427 158.044 219.113 157.456C219.743 158.03 220.471 158.562 221.255 158.996H216.915ZM217.335 162.454V160.144H220.765V162.454H217.335ZM215.179 155.524C215.403 155.734 215.641 155.958 215.767 156.112C216.173 155.762 216.593 155.356 216.971 154.894C217.321 155.454 217.755 156.042 218.259 156.602C217.321 157.4 216.257 158.044 215.179 158.492V155.524ZM213.219 160.158V157.064H214.157V160.158H213.219ZM211.469 157.064H212.379V160.158H211.469V157.064ZM212.379 153.2V155.972H211.469V153.2H212.379ZM214.157 155.972H213.219V153.2H214.157V155.972ZM220.569 153.774C220.191 154.502 219.687 155.174 219.099 155.79C218.525 155.202 218.049 154.558 217.699 153.956L217.825 153.774H220.569ZM221.423 152.626L221.199 152.682H218.483C218.679 152.318 218.861 151.94 219.015 151.562L217.797 151.212C217.237 152.626 216.271 153.97 215.179 154.894V152.066H210.489V162.482H211.469V161.278H215.179V159.052C215.333 159.248 215.487 159.472 215.585 159.654C215.753 159.584 215.935 159.5 216.103 159.416V164.05H217.335V163.602H220.765V164.036H222.025V159.374C222.123 159.416 222.221 159.458 222.319 159.5C222.501 159.164 222.893 158.646 223.159 158.408C221.955 158.002 220.877 157.358 219.981 156.616C220.947 155.608 221.745 154.418 222.263 153.046L221.423 152.626ZM223.315 165.52H224.435L228.327 151.828H227.207L223.315 165.52ZM230.887 153.928H239.791V155.692H241.149V152.71H236.053V151.24H234.639V152.71H229.599V155.692H230.887V153.928ZM234.541 155.944C234.121 155.468 233.211 154.852 232.469 154.446L231.699 155.3C232.441 155.734 233.323 156.406 233.715 156.882L234.541 155.944ZM230.313 157.428C231.069 157.848 231.993 158.506 232.427 158.982L233.225 158.016C232.763 157.54 231.825 156.924 231.069 156.56L230.313 157.428ZM241.401 159.29H236.137C236.487 157.974 236.585 156.406 236.641 154.572H235.269C235.213 156.49 235.157 158.044 234.723 159.29H229.389V160.396H234.177C233.407 161.572 232.007 162.412 229.515 162.944C229.795 163.224 230.117 163.728 230.243 164.078C232.973 163.434 234.513 162.426 235.395 161.012C237.327 161.936 239.189 163.098 240.295 164.092L241.163 163.098C240.127 162.244 238.475 161.25 236.725 160.396H241.401V159.29ZM251.287 162.944C250.545 162.944 250.433 162.846 250.433 162.3V158.646L251.497 158.142V161.67H252.603V157.624L253.821 157.05C253.821 158.576 253.807 159.598 253.779 159.766C253.737 159.962 253.667 160.004 253.527 160.004C253.415 160.004 253.135 160.004 252.911 159.99C253.037 160.242 253.135 160.662 253.163 160.97C253.499 160.984 253.947 160.97 254.255 160.858C254.619 160.732 254.843 160.494 254.871 160.004C254.927 159.612 254.927 158.002 254.927 156.014L254.983 155.832L254.185 155.538L253.961 155.692L253.849 155.776L252.603 156.35V154.754H251.497V156.868L250.433 157.358V155.79H249.355C249.663 155.342 249.957 154.852 250.209 154.306H255.403V153.116H250.699C250.881 152.598 251.035 152.052 251.175 151.506L249.887 151.24C249.621 152.444 249.187 153.592 248.627 154.516V153.452H246.317V151.268H245.071V153.452H242.747V154.656H244.189C244.133 158.002 243.979 161.292 242.579 163.21C242.915 163.406 243.321 163.798 243.531 164.092C244.693 162.51 245.127 160.172 245.309 157.582H246.723C246.667 161.194 246.583 162.496 246.373 162.776C246.261 162.944 246.135 162.986 245.953 162.972C245.743 162.972 245.295 162.972 244.777 162.93C244.959 163.238 245.085 163.742 245.113 164.092C245.673 164.106 246.219 164.106 246.569 164.05C246.933 164.008 247.185 163.896 247.409 163.546C247.773 163.07 247.843 161.474 247.927 156.938C247.941 156.77 247.941 156.392 247.941 156.392H245.379C245.393 155.818 245.407 155.244 245.421 154.656H248.543C248.333 154.992 248.109 155.286 247.857 155.552C248.137 155.762 248.641 156.238 248.837 156.462C248.991 156.294 249.131 156.112 249.271 155.916V157.904L248.067 158.464L248.543 159.542L249.271 159.192V162.286C249.271 163.686 249.663 164.05 251.175 164.05H253.821C255.067 164.05 255.431 163.56 255.585 161.866C255.249 161.796 254.787 161.6 254.507 161.404C254.437 162.692 254.325 162.944 253.737 162.944H251.287ZM260.809 153.522C260.333 152.934 259.311 152.066 258.527 151.45L257.701 152.29C258.471 152.948 259.465 153.886 259.927 154.474L260.809 153.522ZM259.969 161.264V155.566H256.525V156.854H258.639V161.488C258.639 162.104 258.219 162.538 257.925 162.706C258.163 163 258.485 163.574 258.597 163.924C258.835 163.616 259.269 163.28 261.957 161.334C261.845 161.082 261.635 160.536 261.551 160.158L259.969 161.264ZM269.265 155.762H265.877V151.31H264.491V155.762H261.047V157.106H264.491V164.106H265.877V157.106H269.265V155.762ZM276.757 153.354C276.337 152.808 275.469 152.024 274.755 151.478L273.873 152.178C274.587 152.752 275.441 153.606 275.833 154.152L276.757 153.354ZM277.877 155.636L277.751 154.404L273.481 154.88C273.369 153.732 273.299 152.528 273.313 151.268H271.983C271.997 152.542 272.067 153.816 272.193 155.034L270.121 155.272L270.261 156.504L272.333 156.266C272.543 157.82 272.837 159.262 273.229 160.452C272.319 161.404 271.283 162.188 270.149 162.79C270.415 163.042 270.877 163.546 271.045 163.812C271.997 163.238 272.893 162.552 273.705 161.754C274.363 163.168 275.161 164.036 276.141 164.036C277.219 164.036 277.667 163.434 277.877 161.18C277.555 161.054 277.079 160.774 276.799 160.48C276.715 162.104 276.561 162.734 276.239 162.734C275.721 162.734 275.161 161.964 274.685 160.69C275.679 159.542 276.491 158.184 277.121 156.714L275.903 156.336C275.469 157.4 274.909 158.38 274.251 159.262C273.999 158.338 273.775 157.288 273.635 156.112L277.877 155.636ZM279.725 152.752H278.479V160.382H279.725V152.752ZM281.139 151.394V162.51C281.139 162.762 281.041 162.832 280.789 162.832C280.565 162.846 279.753 162.846 278.927 162.818C279.095 163.182 279.305 163.756 279.361 164.106C280.551 164.106 281.293 164.064 281.769 163.854C282.231 163.644 282.399 163.28 282.399 162.51V151.394H281.139Z" fill="#435CE7"/>
<rect y="198" width="327" height="50" rx="7" fill="#F5F5F5"/>
<path d="M101.775 222.588V225.388H98.555V222.588H101.775ZM103.063 226.62V221.356H97.295V227.712H98.555V226.62H103.063ZM108.355 218.22H95.923V219.522H105.331V228.342C105.331 228.636 105.233 228.72 104.925 228.734C104.589 228.734 103.427 228.748 102.363 228.692C102.573 229.07 102.839 229.714 102.909 230.092C104.309 230.092 105.289 230.078 105.891 229.84C106.479 229.644 106.689 229.21 106.689 228.37V219.522H108.355V218.22ZM113.649 223.232L112.403 223.61V221.188H113.747V219.984H112.403V217.282H111.199V219.984H109.505V221.188H111.199V223.946C110.485 224.156 109.827 224.338 109.309 224.478L109.603 225.738L111.199 225.234V228.608C111.199 228.804 111.129 228.86 110.961 228.86C110.807 228.86 110.275 228.86 109.729 228.846C109.883 229.182 110.037 229.742 110.079 230.05C110.961 230.064 111.521 230.008 111.899 229.812C112.263 229.602 112.403 229.266 112.403 228.608V224.87L113.817 224.422L113.649 223.232ZM115.007 226.228C115.609 226.984 116.253 228.02 116.505 228.692L117.611 228.034C117.317 227.362 116.631 226.368 116.029 225.654L115.007 226.228ZM122.301 222.854V221.664H118.773V220.152H121.643V218.962H118.773V217.31H117.527V218.962H114.615V220.152H117.527V221.664H113.957V222.854H119.333V224.212H114.111V225.402H119.333V228.622C119.333 228.818 119.277 228.874 119.067 228.888C118.857 228.902 118.129 228.902 117.415 228.86C117.583 229.21 117.751 229.742 117.807 230.106C118.815 230.106 119.515 230.092 119.977 229.896C120.425 229.7 120.565 229.35 120.565 228.65V225.402H122.217V224.212H120.565V222.854H122.301ZM134.819 223.554C135.155 222.854 135.491 221.762 135.771 220.796L134.945 220.6L134.735 220.642H132.467V219.55H135.015V218.458H132.467V217.268H131.193V218.458H128.757V219.55H131.193V220.642H128.253V221.748H134.329C134.175 222.322 133.979 222.896 133.811 223.316L134.819 223.554ZM131.473 223.288C131.109 222.924 130.367 222.448 129.765 222.126L129.205 222.77C129.793 223.106 130.521 223.61 130.885 223.988L131.473 223.288ZM130.563 224.59C130.171 224.212 129.401 223.68 128.785 223.358L128.183 224.002C128.813 224.352 129.569 224.926 129.947 225.318L130.563 224.59ZM125.439 224.674C126.349 223.512 127.217 222.112 127.945 220.768L126.951 220.152C126.727 220.684 126.447 221.202 126.167 221.692L124.739 221.818C125.537 220.656 126.321 219.2 126.881 217.8L125.761 217.282C125.229 218.92 124.249 220.726 123.955 221.174C123.647 221.636 123.409 221.958 123.157 222.028C123.297 222.336 123.479 222.896 123.535 223.148C123.745 223.036 124.067 222.966 125.495 222.798C124.977 223.596 124.515 224.254 124.291 224.506C123.871 225.024 123.563 225.36 123.269 225.43C123.395 225.724 123.577 226.256 123.633 226.494C123.941 226.284 124.417 226.116 127.623 225.234C127.581 224.996 127.553 224.492 127.567 224.156L125.439 224.674ZM127.539 226.522C125.957 227.096 124.319 227.684 123.241 228.034L123.535 229.238C124.739 228.762 126.293 228.174 127.763 227.572L127.539 226.522ZM135.701 226.48V225.36H132.621C132.719 224.828 132.747 224.31 132.747 223.82V222.224H131.557V223.778C131.557 224.282 131.529 224.814 131.389 225.36H127.959V226.48H130.983C130.465 227.46 129.471 228.412 127.665 229.168C127.903 229.406 128.281 229.854 128.435 230.134C130.717 229.14 131.823 227.81 132.327 226.48H135.701ZM132.215 227.572C133.279 228.314 134.567 229.406 135.169 230.134L136.009 229.322C135.379 228.608 134.049 227.572 132.999 226.858L132.215 227.572ZM149.927 222.924C149.199 222.462 147.911 221.818 146.735 221.314C147.673 220.488 148.457 219.508 148.989 218.388L148.079 217.912L147.827 217.968H142.325V219.144H146.987C145.741 220.838 143.529 222.182 141.387 222.854C141.667 223.134 142.003 223.638 142.185 223.96C143.403 223.512 144.635 222.91 145.727 222.126C146.959 222.7 148.415 223.442 149.157 223.96L149.927 222.924ZM139.273 224.744C140.323 223.582 141.345 222.224 142.199 220.838L141.079 220.11C140.813 220.6 140.519 221.104 140.197 221.58L138.559 221.734C139.357 220.586 140.169 219.172 140.757 217.8L139.525 217.226C138.993 218.85 137.971 220.628 137.649 221.062C137.341 221.538 137.103 221.846 136.823 221.916C136.977 222.252 137.201 222.882 137.243 223.148C137.467 223.036 137.831 222.952 139.371 222.742C138.811 223.526 138.307 224.114 138.041 224.38C137.593 224.87 137.257 225.192 136.921 225.262C137.075 225.612 137.285 226.228 137.341 226.494C137.691 226.298 138.209 226.144 141.709 225.458C141.695 225.192 141.695 224.66 141.737 224.324L139.273 224.744ZM141.639 226.956C139.917 227.376 138.125 227.81 136.963 228.048L137.201 229.336C138.503 228.986 140.183 228.538 141.779 228.104L141.639 226.956ZM146.385 225.5H149.129V224.324H142.437V225.5H145.083V228.538H141.597V229.756H149.815V228.538H146.385V225.5ZM160.695 227.166V228.594H153.709V227.166H160.695ZM152.477 230.134H153.709V229.658H160.695V230.106H161.997V226.046H152.477V230.134ZM159.575 224.422H154.731V223.358H159.575V224.422ZM153.513 222.462V225.318H160.849V222.462H153.513ZM151.385 223.47H152.575V221.72H161.731V223.47H162.977V220.698H151.385V223.47ZM160.247 218.332V217.268H158.959V218.332H155.235V217.268H153.947V218.332H151.021V219.508H153.947V220.348H155.235V219.508H158.959V220.348H160.247V219.508H163.257V218.332H160.247ZM168.705 221.72V220.516H167.277V217.268H166.031V220.516H164.561V221.72H166.031V230.106H167.277V221.72H168.705ZM169.139 222.364C168.915 223.652 168.467 224.926 167.865 225.78C168.145 225.934 168.635 226.27 168.859 226.438C169.489 225.5 170.007 224.044 170.315 222.602L169.139 222.364ZM177.483 226.354C177.329 225.374 176.909 223.68 176.517 222.392L175.481 222.602C175.495 221.958 175.523 221.258 175.537 220.488V219.872H172.639V217.38H171.407V219.872H169.083V221.132H171.393C171.295 223.736 170.721 226.872 167.809 229.224C168.131 229.42 168.593 229.84 168.817 230.134C171.939 227.516 172.527 224.03 172.625 221.132H174.277C174.165 226.214 174.025 228.118 173.689 228.538C173.549 228.72 173.409 228.762 173.157 228.762C172.863 228.762 172.191 228.748 171.435 228.692C171.659 229.042 171.799 229.574 171.827 229.938C172.555 229.966 173.283 229.98 173.731 229.924C174.193 229.854 174.515 229.728 174.795 229.294C175.215 228.748 175.355 227.11 175.481 222.756C175.859 224.058 176.209 225.682 176.335 226.648L177.483 226.354ZM187.565 220.404C187.355 219.62 186.781 218.388 186.221 217.45L185.129 217.898C185.647 218.864 186.193 220.124 186.389 220.922L187.565 220.404ZM181.811 219.76C181.475 219.158 180.677 218.262 180.075 217.604L179.137 218.276C179.753 218.962 180.481 219.9 180.831 220.53L181.811 219.76ZM181.391 227.306V221.566H178.311V222.812H180.131V227.376C180.131 228.132 179.753 228.636 179.473 228.874C179.697 229.056 180.005 229.434 180.173 229.714L180.187 229.784L180.201 229.77L180.215 229.798V229.742C180.439 229.462 180.929 229.084 183.337 227.348C183.211 227.096 183.029 226.578 182.945 226.242L181.391 227.306ZM189.161 218.08C188.727 220.894 188.027 223.47 186.571 225.542C185.213 223.666 184.401 221.23 183.897 218.416L182.679 218.598C183.281 221.874 184.177 224.562 185.703 226.62C184.779 227.628 183.603 228.468 182.119 229.112C182.385 229.35 182.749 229.826 182.931 230.106C184.401 229.434 185.563 228.594 186.529 227.6C187.509 228.636 188.713 229.462 190.211 230.064C190.421 229.728 190.813 229.196 191.121 228.93C189.623 228.398 188.405 227.586 187.411 226.55C189.105 224.282 189.917 221.44 190.463 218.276L189.161 218.08ZM195.351 221.496C196.597 220.558 197.661 219.508 198.333 218.528C199.075 219.55 200.223 220.6 201.483 221.496H195.351ZM195.085 222.7H201.637V221.608C202.449 222.182 203.303 222.672 204.115 223.064C204.339 222.672 204.633 222.21 204.941 221.888C202.757 221.034 200.433 219.326 198.949 217.268H197.605C196.555 218.976 194.273 220.992 191.879 222.084C192.159 222.364 192.509 222.854 192.649 223.148C193.489 222.742 194.315 222.238 195.085 221.692V222.7ZM192.677 225.374H196.149C195.813 226.312 195.309 227.432 194.847 228.3L192.775 228.37L192.943 229.644C195.323 229.546 198.879 229.392 202.211 229.224C202.463 229.56 202.673 229.868 202.827 230.134L204.017 229.392C203.373 228.356 202.043 226.872 200.769 225.794L199.649 226.396C200.195 226.886 200.755 227.474 201.273 228.062C199.565 228.132 197.829 228.202 196.275 228.258C196.779 227.362 197.297 226.312 197.759 225.374H204.171V224.156H192.677V225.374ZM210.431 223.218C209.969 223.358 209.479 223.47 209.003 223.596V221.244H210.473V219.984H209.003V217.268H207.673V219.984H205.811V221.244H207.673V223.96C206.903 224.142 206.189 224.324 205.615 224.464L205.923 225.794C206.455 225.654 207.043 225.5 207.673 225.318V228.566C207.673 228.804 207.603 228.874 207.365 228.874C207.169 228.888 206.455 228.888 205.727 228.86C205.923 229.21 206.077 229.77 206.133 230.106C207.253 230.106 207.939 230.078 208.387 229.868C208.835 229.672 209.003 229.308 209.003 228.58V224.926L210.599 224.478L210.431 223.218ZM212.279 223.694H212.559C213.049 225.094 213.707 226.368 214.561 227.46C213.917 228.118 213.161 228.706 212.279 229.14V223.694ZM216.619 223.694C216.339 224.688 215.933 225.598 215.359 226.424C214.715 225.612 214.183 224.688 213.805 223.694H216.619ZM217.305 222.476L217.067 222.518H212.279V218.948H216.381C216.325 220.012 216.241 220.488 216.087 220.642C215.961 220.754 215.821 220.768 215.527 220.768C215.247 220.768 214.393 220.754 213.525 220.684C213.721 220.992 213.861 221.44 213.875 221.762C214.771 221.804 215.625 221.818 216.087 221.79C216.563 221.762 216.913 221.664 217.207 221.37C217.529 221.034 217.655 220.208 217.725 218.248C217.739 218.08 217.753 217.744 217.753 217.744L210.991 217.744V230.078H212.279V229.224C212.559 229.49 212.895 229.854 213.077 230.148C213.959 229.686 214.715 229.098 215.387 228.412C216.073 229.098 216.843 229.658 217.711 230.092C217.921 229.728 218.313 229.224 218.621 228.972C217.739 228.608 216.941 228.062 216.241 227.39C217.179 226.074 217.809 224.492 218.131 222.742L217.305 222.476ZM229.137 225.934V228.244H222.767V225.934H229.137ZM221.451 230.19L222.767 230.19V229.448H229.137V230.162H230.495V224.73L221.451 224.73V230.19ZM226.897 222.294V220.362H231.041V219.172H226.897V217.268H225.525V219.172H222.921C223.145 218.682 223.355 218.164 223.537 217.66L222.235 217.352C221.731 218.878 220.849 220.446 219.841 221.398C220.163 221.566 220.751 221.916 221.031 222.098C221.451 221.622 221.871 221.034 222.277 220.362H225.525V222.294H219.785V223.512H232.007V222.294H226.897Z" fill="#666666"/>
<rect y="264" width="327" height="50" rx="7" fill="#F5F5F5"/>
<path d="M100.775 288.588V291.388H97.555V288.588H100.775ZM102.063 292.62V287.356H96.295V293.712H97.555V292.62H102.063ZM107.355 284.22H94.923V285.522H104.331V294.342C104.331 294.636 104.233 294.72 103.925 294.734C103.589 294.734 102.427 294.748 101.363 294.692C101.573 295.07 101.839 295.714 101.909 296.092C103.309 296.092 104.289 296.078 104.891 295.84C105.479 295.644 105.689 295.21 105.689 294.37V285.522H107.355V284.22ZM112.649 289.232L111.403 289.61V287.188H112.747V285.984H111.403V283.282H110.199V285.984H108.505V287.188H110.199V289.946C109.485 290.156 108.827 290.338 108.309 290.478L108.603 291.738L110.199 291.234V294.608C110.199 294.804 110.129 294.86 109.961 294.86C109.807 294.86 109.275 294.86 108.729 294.846C108.883 295.182 109.037 295.742 109.079 296.05C109.961 296.064 110.521 296.008 110.899 295.812C111.263 295.602 111.403 295.266 111.403 294.608V290.87L112.817 290.422L112.649 289.232ZM114.007 292.228C114.609 292.984 115.253 294.02 115.505 294.692L116.611 294.034C116.317 293.362 115.631 292.368 115.029 291.654L114.007 292.228ZM121.301 288.854V287.664H117.773V286.152H120.643V284.962H117.773V283.31H116.527V284.962H113.615V286.152H116.527V287.664H112.957V288.854H118.333V290.212H113.111V291.402H118.333V294.622C118.333 294.818 118.277 294.874 118.067 294.888C117.857 294.902 117.129 294.902 116.415 294.86C116.583 295.21 116.751 295.742 116.807 296.106C117.815 296.106 118.515 296.092 118.977 295.896C119.425 295.7 119.565 295.35 119.565 294.65V291.402H121.217V290.212H119.565V288.854H121.301ZM133.819 289.554C134.155 288.854 134.491 287.762 134.771 286.796L133.945 286.6L133.735 286.642H131.467V285.55H134.015V284.458H131.467V283.268H130.193V284.458H127.757V285.55H130.193V286.642H127.253V287.748H133.329C133.175 288.322 132.979 288.896 132.811 289.316L133.819 289.554ZM130.473 289.288C130.109 288.924 129.367 288.448 128.765 288.126L128.205 288.77C128.793 289.106 129.521 289.61 129.885 289.988L130.473 289.288ZM129.563 290.59C129.171 290.212 128.401 289.68 127.785 289.358L127.183 290.002C127.813 290.352 128.569 290.926 128.947 291.318L129.563 290.59ZM124.439 290.674C125.349 289.512 126.217 288.112 126.945 286.768L125.951 286.152C125.727 286.684 125.447 287.202 125.167 287.692L123.739 287.818C124.537 286.656 125.321 285.2 125.881 283.8L124.761 283.282C124.229 284.92 123.249 286.726 122.955 287.174C122.647 287.636 122.409 287.958 122.157 288.028C122.297 288.336 122.479 288.896 122.535 289.148C122.745 289.036 123.067 288.966 124.495 288.798C123.977 289.596 123.515 290.254 123.291 290.506C122.871 291.024 122.563 291.36 122.269 291.43C122.395 291.724 122.577 292.256 122.633 292.494C122.941 292.284 123.417 292.116 126.623 291.234C126.581 290.996 126.553 290.492 126.567 290.156L124.439 290.674ZM126.539 292.522C124.957 293.096 123.319 293.684 122.241 294.034L122.535 295.238C123.739 294.762 125.293 294.174 126.763 293.572L126.539 292.522ZM134.701 292.48V291.36H131.621C131.719 290.828 131.747 290.31 131.747 289.82V288.224H130.557V289.778C130.557 290.282 130.529 290.814 130.389 291.36H126.959V292.48H129.983C129.465 293.46 128.471 294.412 126.665 295.168C126.903 295.406 127.281 295.854 127.435 296.134C129.717 295.14 130.823 293.81 131.327 292.48H134.701ZM131.215 293.572C132.279 294.314 133.567 295.406 134.169 296.134L135.009 295.322C134.379 294.608 133.049 293.572 131.999 292.858L131.215 293.572ZM148.927 288.924C148.199 288.462 146.911 287.818 145.735 287.314C146.673 286.488 147.457 285.508 147.989 284.388L147.079 283.912L146.827 283.968H141.325V285.144H145.987C144.741 286.838 142.529 288.182 140.387 288.854C140.667 289.134 141.003 289.638 141.185 289.96C142.403 289.512 143.635 288.91 144.727 288.126C145.959 288.7 147.415 289.442 148.157 289.96L148.927 288.924ZM138.273 290.744C139.323 289.582 140.345 288.224 141.199 286.838L140.079 286.11C139.813 286.6 139.519 287.104 139.197 287.58L137.559 287.734C138.357 286.586 139.169 285.172 139.757 283.8L138.525 283.226C137.993 284.85 136.971 286.628 136.649 287.062C136.341 287.538 136.103 287.846 135.823 287.916C135.977 288.252 136.201 288.882 136.243 289.148C136.467 289.036 136.831 288.952 138.371 288.742C137.811 289.526 137.307 290.114 137.041 290.38C136.593 290.87 136.257 291.192 135.921 291.262C136.075 291.612 136.285 292.228 136.341 292.494C136.691 292.298 137.209 292.144 140.709 291.458C140.695 291.192 140.695 290.66 140.737 290.324L138.273 290.744ZM140.639 292.956C138.917 293.376 137.125 293.81 135.963 294.048L136.201 295.336C137.503 294.986 139.183 294.538 140.779 294.104L140.639 292.956ZM145.385 291.5H148.129V290.324H141.437V291.5H144.083V294.538H140.597V295.756H148.815V294.538H145.385V291.5ZM159.695 293.166V294.594H152.709V293.166H159.695ZM151.477 296.134H152.709V295.658H159.695V296.106H160.997V292.046H151.477V296.134ZM158.575 290.422H153.731V289.358H158.575V290.422ZM152.513 288.462V291.318H159.849V288.462H152.513ZM150.385 289.47H151.575V287.72H160.731V289.47H161.977V286.698H150.385V289.47ZM159.247 284.332V283.268H157.959V284.332H154.235V283.268H152.947V284.332H150.021V285.508H152.947V286.348H154.235V285.508H157.959V286.348H159.247V285.508H162.257V284.332H159.247ZM171.863 291.836C171.485 292.48 170.995 292.998 170.379 293.418C169.441 293.194 168.461 292.97 167.495 292.774C167.719 292.466 167.929 292.158 168.139 291.836H171.863ZM170.491 289.75V287.328C171.779 288.616 173.683 289.666 175.489 290.212C175.685 289.876 176.049 289.4 176.329 289.134C174.761 288.77 173.095 288.028 171.919 287.132H175.993V286.068H170.491V284.78C172.045 284.64 173.515 284.444 174.691 284.192L173.725 283.268C171.667 283.716 167.873 283.982 164.709 284.052C164.807 284.304 164.947 284.78 164.975 285.046C166.319 285.032 167.775 284.976 169.203 284.878V286.068H163.729V287.132H167.803C166.641 288.084 164.975 288.868 163.379 289.274C163.645 289.512 164.009 289.974 164.177 290.296C165.997 289.736 167.915 288.644 169.203 287.328V289.624L168.251 289.358C167.999 289.792 167.691 290.268 167.369 290.758H163.575V291.836H166.641C166.179 292.508 165.717 293.152 165.339 293.656L166.571 294.062L166.809 293.74C167.481 293.88 168.139 294.034 168.783 294.188C167.481 294.636 165.829 294.86 163.771 294.972C163.995 295.266 164.191 295.742 164.289 296.106C167.005 295.882 169.091 295.476 170.631 294.664C172.325 295.14 173.837 295.63 174.971 296.106L175.755 295.028C174.733 294.636 173.375 294.216 171.877 293.81C172.479 293.278 172.969 292.62 173.319 291.836H176.189V290.758H168.853C169.077 290.408 169.301 290.072 169.497 289.75H170.491ZM180.615 284.976H186.663V286.32H180.615V284.976ZM179.257 283.856V287.44H188.105V283.856H179.257ZM182.841 290.52V291.766C182.841 292.802 182.449 294.202 177.535 295.126C177.857 295.406 178.249 295.91 178.417 296.204C183.527 295.042 184.255 293.264 184.255 291.794V290.52H182.841ZM184.059 294.174C185.711 294.734 187.965 295.602 189.099 296.19L189.771 295.07C188.567 294.51 186.285 293.698 184.703 293.208L184.059 294.174ZM178.725 288.546V293.628H180.083V289.75H187.279V293.502H188.679V288.546H178.725ZM194.351 287.496C195.597 286.558 196.661 285.508 197.333 284.528C198.075 285.55 199.223 286.6 200.483 287.496H194.351ZM194.085 288.7H200.637V287.608C201.449 288.182 202.303 288.672 203.115 289.064C203.339 288.672 203.633 288.21 203.941 287.888C201.757 287.034 199.433 285.326 197.949 283.268H196.605C195.555 284.976 193.273 286.992 190.879 288.084C191.159 288.364 191.509 288.854 191.649 289.148C192.489 288.742 193.315 288.238 194.085 287.692V288.7ZM191.677 291.374H195.149C194.813 292.312 194.309 293.432 193.847 294.3L191.775 294.37L191.943 295.644C194.323 295.546 197.879 295.392 201.211 295.224C201.463 295.56 201.673 295.868 201.827 296.134L203.017 295.392C202.373 294.356 201.043 292.872 199.769 291.794L198.649 292.396C199.195 292.886 199.755 293.474 200.273 294.062C198.565 294.132 196.829 294.202 195.275 294.258C195.779 293.362 196.297 292.312 196.759 291.374H203.171V290.156H191.677V291.374ZM209.431 289.218C208.969 289.358 208.479 289.47 208.003 289.596V287.244H209.473V285.984H208.003V283.268H206.673V285.984H204.811V287.244H206.673V289.96C205.903 290.142 205.189 290.324 204.615 290.464L204.923 291.794C205.455 291.654 206.043 291.5 206.673 291.318V294.566C206.673 294.804 206.603 294.874 206.365 294.874C206.169 294.888 205.455 294.888 204.727 294.86C204.923 295.21 205.077 295.77 205.133 296.106C206.253 296.106 206.939 296.078 207.387 295.868C207.835 295.672 208.003 295.308 208.003 294.58V290.926L209.599 290.478L209.431 289.218ZM211.279 289.694H211.559C212.049 291.094 212.707 292.368 213.561 293.46C212.917 294.118 212.161 294.706 211.279 295.14V289.694ZM215.619 289.694C215.339 290.688 214.933 291.598 214.359 292.424C213.715 291.612 213.183 290.688 212.805 289.694H215.619ZM216.305 288.476L216.067 288.518H211.279V284.948H215.381C215.325 286.012 215.241 286.488 215.087 286.642C214.961 286.754 214.821 286.768 214.527 286.768C214.247 286.768 213.393 286.754 212.525 286.684C212.721 286.992 212.861 287.44 212.875 287.762C213.771 287.804 214.625 287.818 215.087 287.79C215.563 287.762 215.913 287.664 216.207 287.37C216.529 287.034 216.655 286.208 216.725 284.248C216.739 284.08 216.753 283.744 216.753 283.744H209.991V296.078H211.279V295.224C211.559 295.49 211.895 295.854 212.077 296.148C212.959 295.686 213.715 295.098 214.387 294.412C215.073 295.098 215.843 295.658 216.711 296.092C216.921 295.728 217.313 295.224 217.621 294.972C216.739 294.608 215.941 294.062 215.241 293.39C216.179 292.074 216.809 290.492 217.131 288.742L216.305 288.476ZM228.137 291.934V294.244H221.767V291.934H228.137ZM220.451 296.19H221.767V295.448H228.137V296.162H229.495V290.73H220.451V296.19ZM225.897 288.294V286.362H230.041V285.172H225.897V283.268H224.525V285.172H221.921C222.145 284.682 222.355 284.164 222.537 283.66L221.235 283.352C220.731 284.878 219.849 286.446 218.841 287.398C219.163 287.566 219.751 287.916 220.031 288.098C220.451 287.622 220.871 287.034 221.277 286.362H224.525V288.294H218.785V289.512H231.007V288.294H225.897Z" fill="#666666"/>
<rect y="330" width="327" height="50" rx="7" fill="#F6F7FE"/>
<path d="M83.7996 351.928H92.7036V353.692H94.0616V350.71H88.9656V349.24H87.5516V350.71H82.5116V353.692H83.7996V351.928ZM87.4536 353.944C87.0336 353.468 86.1236 352.852 85.3816 352.446L84.6116 353.3C85.3536 353.734 86.2356 354.406 86.6276 354.882L87.4536 353.944ZM83.2256 355.428C83.9816 355.848 84.9056 356.506 85.3396 356.982L86.1376 356.016C85.6756 355.54 84.7376 354.924 83.9816 354.56L83.2256 355.428ZM94.3136 357.29H89.0496C89.3996 355.974 89.4976 354.406 89.5536 352.572H88.1816C88.1256 354.49 88.0696 356.044 87.6356 357.29H82.3016V358.396H87.0896C86.3196 359.572 84.9196 360.412 82.4276 360.944C82.7076 361.224 83.0296 361.728 83.1556 362.078C85.8856 361.434 87.4256 360.426 88.3076 359.012C90.2396 359.936 92.1016 361.098 93.2076 362.092L94.0756 361.098C93.0396 360.244 91.3876 359.25 89.6376 358.396H94.3136V357.29ZM104.2 360.944C103.458 360.944 103.346 360.846 103.346 360.3V356.646L104.41 356.142V359.67H105.516V355.624L106.734 355.05C106.734 356.576 106.72 357.598 106.692 357.766C106.65 357.962 106.58 358.004 106.44 358.004C106.328 358.004 106.048 358.004 105.824 357.99C105.95 358.242 106.048 358.662 106.076 358.97C106.412 358.984 106.86 358.97 107.168 358.858C107.532 358.732 107.756 358.494 107.784 358.004C107.84 357.612 107.84 356.002 107.84 354.014L107.896 353.832L107.098 353.538L106.874 353.692L106.762 353.776L105.516 354.35V352.754H104.41V354.868L103.346 355.358V353.79H102.268C102.576 353.342 102.87 352.852 103.122 352.306H108.316V351.116H103.612C103.794 350.598 103.948 350.052 104.088 349.506L102.8 349.24C102.534 350.444 102.1 351.592 101.54 352.516V351.452H99.2296V349.268H97.9836V351.452H95.6596V352.656H97.1016C97.0456 356.002 96.8916 359.292 95.4916 361.21C95.8276 361.406 96.2336 361.798 96.4436 362.092C97.6056 360.51 98.0396 358.172 98.2216 355.582H99.6356C99.5796 359.194 99.4956 360.496 99.2856 360.776C99.1736 360.944 99.0476 360.986 98.8656 360.972C98.6556 360.972 98.2076 360.972 97.6896 360.93C97.8716 361.238 97.9976 361.742 98.0256 362.092C98.5856 362.106 99.1316 362.106 99.4816 362.05C99.8456 362.008 100.098 361.896 100.322 361.546C100.686 361.07 100.756 359.474 100.84 354.938C100.854 354.77 100.854 354.392 100.854 354.392H98.2916C98.3056 353.818 98.3196 353.244 98.3336 352.656H101.456C101.246 352.992 101.022 353.286 100.77 353.552C101.05 353.762 101.554 354.238 101.75 354.462C101.904 354.294 102.044 354.112 102.184 353.916V355.904L100.98 356.464L101.456 357.542L102.184 357.192V360.286C102.184 361.686 102.576 362.05 104.088 362.05H106.734C107.98 362.05 108.344 361.56 108.498 359.866C108.162 359.796 107.7 359.6 107.42 359.404C107.35 360.692 107.238 360.944 106.65 360.944H104.2ZM111.51 355.428H116.55V356.618H111.51V355.428ZM111.636 359.782H117.348V361H110.236V351.2H117.152V352.418H111.636V359.782ZM122.221 361.112C121.474 361.112 120.76 361 120.079 360.776C119.397 360.543 118.861 360.244 118.469 359.88L118.987 358.788C119.36 359.115 119.836 359.385 120.415 359.6C120.993 359.815 121.595 359.922 122.221 359.922C122.79 359.922 123.252 359.857 123.607 359.726C123.961 359.595 124.223 359.418 124.391 359.194C124.559 358.961 124.643 358.699 124.643 358.41C124.643 358.074 124.531 357.803 124.307 357.598C124.092 357.393 123.807 357.229 123.453 357.108C123.107 356.977 122.725 356.865 122.305 356.772C121.885 356.679 121.46 356.571 121.031 356.45C120.611 356.319 120.223 356.156 119.869 355.96C119.523 355.764 119.243 355.503 119.029 355.176C118.814 354.84 118.707 354.411 118.707 353.888C118.707 353.384 118.837 352.922 119.099 352.502C119.369 352.073 119.78 351.732 120.331 351.48C120.891 351.219 121.6 351.088 122.459 351.088C123.028 351.088 123.593 351.163 124.153 351.312C124.713 351.461 125.198 351.676 125.609 351.956L125.147 353.076C124.727 352.796 124.283 352.595 123.817 352.474C123.35 352.343 122.897 352.278 122.459 352.278C121.908 352.278 121.455 352.348 121.101 352.488C120.746 352.628 120.485 352.815 120.317 353.048C120.158 353.281 120.079 353.543 120.079 353.832C120.079 354.177 120.186 354.453 120.401 354.658C120.625 354.863 120.909 355.027 121.255 355.148C121.609 355.269 121.997 355.381 122.417 355.484C122.837 355.577 123.257 355.685 123.677 355.806C124.106 355.927 124.493 356.086 124.839 356.282C125.193 356.478 125.478 356.739 125.693 357.066C125.907 357.393 126.015 357.813 126.015 358.326C126.015 358.821 125.879 359.283 125.609 359.712C125.338 360.132 124.918 360.473 124.349 360.734C123.789 360.986 123.079 361.112 122.221 361.112ZM132.234 361.112C131.478 361.112 130.783 360.991 130.148 360.748C129.513 360.496 128.963 360.146 128.496 359.698C128.029 359.241 127.665 358.709 127.404 358.102C127.143 357.495 127.012 356.828 127.012 356.1C127.012 355.372 127.143 354.705 127.404 354.098C127.665 353.491 128.029 352.964 128.496 352.516C128.972 352.059 129.527 351.709 130.162 351.466C130.797 351.214 131.497 351.088 132.262 351.088C133.037 351.088 133.746 351.214 134.39 351.466C135.034 351.718 135.58 352.096 136.028 352.6L135.16 353.468C134.759 353.076 134.32 352.791 133.844 352.614C133.377 352.427 132.869 352.334 132.318 352.334C131.758 352.334 131.235 352.427 130.75 352.614C130.274 352.801 129.859 353.062 129.504 353.398C129.159 353.734 128.888 354.135 128.692 354.602C128.505 355.059 128.412 355.559 128.412 356.1C128.412 356.632 128.505 357.131 128.692 357.598C128.888 358.055 129.159 358.457 129.504 358.802C129.859 359.138 130.274 359.399 130.75 359.586C131.226 359.773 131.744 359.866 132.304 359.866C132.827 359.866 133.326 359.787 133.802 359.628C134.287 359.46 134.735 359.185 135.146 358.802L135.944 359.866C135.459 360.277 134.889 360.589 134.236 360.804C133.592 361.009 132.925 361.112 132.234 361.112ZM134.6 359.684V356.044H135.944V359.866L134.6 359.684ZM144.138 361L140.862 351.2H142.304L145.314 360.244H144.586L147.708 351.2H148.996L152.048 360.244H151.348L154.4 351.2H155.73L152.454 361H150.984L148.128 352.614H148.506L145.636 361H144.138ZM159.614 361.084C158.867 361.084 158.205 360.921 157.626 360.594C157.047 360.267 156.59 359.819 156.254 359.25C155.918 358.671 155.75 358.018 155.75 357.29C155.75 356.553 155.918 355.899 156.254 355.33C156.59 354.761 157.047 354.317 157.626 354C158.205 353.673 158.867 353.51 159.614 353.51C160.351 353.51 161.009 353.673 161.588 354C162.176 354.317 162.633 354.761 162.96 355.33C163.296 355.89 163.464 356.543 163.464 357.29C163.464 358.027 163.296 358.681 162.96 359.25C162.633 359.819 162.176 360.267 161.588 360.594C161.009 360.921 160.351 361.084 159.614 361.084ZM159.614 359.908C160.09 359.908 160.515 359.801 160.888 359.586C161.271 359.371 161.569 359.068 161.784 358.676C161.999 358.275 162.106 357.813 162.106 357.29C162.106 356.758 161.999 356.301 161.784 355.918C161.569 355.526 161.271 355.223 160.888 355.008C160.515 354.793 160.09 354.686 159.614 354.686C159.138 354.686 158.713 354.793 158.34 355.008C157.967 355.223 157.668 355.526 157.444 355.918C157.22 356.301 157.108 356.758 157.108 357.29C157.108 357.813 157.22 358.275 157.444 358.676C157.668 359.068 157.967 359.371 158.34 359.586C158.713 359.801 159.138 359.908 159.614 359.908ZM165.073 361V353.58H166.361V355.596L166.235 355.092C166.44 354.579 166.785 354.187 167.271 353.916C167.756 353.645 168.353 353.51 169.063 353.51V354.812C169.007 354.803 168.951 354.798 168.895 354.798C168.848 354.798 168.801 354.798 168.755 354.798C168.036 354.798 167.467 355.013 167.047 355.442C166.627 355.871 166.417 356.492 166.417 357.304V361H165.073ZM171.561 359.208L171.589 357.486L175.859 353.58H177.483L174.207 356.8L173.479 357.416L171.561 359.208ZM170.469 361V350.612H171.813V361H170.469ZM176.139 361L173.227 357.388L174.095 356.31L177.791 361H176.139ZM178.846 361V353.58H180.19V361H178.846ZM179.518 352.152C179.257 352.152 179.038 352.068 178.86 351.9C178.692 351.732 178.608 351.527 178.608 351.284C178.608 351.032 178.692 350.822 178.86 350.654C179.038 350.486 179.257 350.402 179.518 350.402C179.78 350.402 179.994 350.486 180.162 350.654C180.34 350.813 180.428 351.013 180.428 351.256C180.428 351.508 180.344 351.723 180.176 351.9C180.008 352.068 179.789 352.152 179.518 352.152ZM186.468 353.51C187.075 353.51 187.607 353.627 188.064 353.86C188.531 354.093 188.895 354.448 189.156 354.924C189.418 355.4 189.548 356.002 189.548 356.73V361H188.204V356.884C188.204 356.165 188.027 355.624 187.672 355.26C187.327 354.896 186.837 354.714 186.202 354.714C185.726 354.714 185.311 354.807 184.956 354.994C184.602 355.181 184.326 355.456 184.13 355.82C183.944 356.184 183.85 356.637 183.85 357.178V361H182.506V353.58H183.794V355.582L183.584 355.05C183.827 354.565 184.2 354.187 184.704 353.916C185.208 353.645 185.796 353.51 186.468 353.51ZM195.034 363.8C194.352 363.8 193.69 363.702 193.046 363.506C192.411 363.319 191.893 363.049 191.492 362.694L192.136 361.658C192.481 361.957 192.906 362.19 193.41 362.358C193.914 362.535 194.441 362.624 194.992 362.624C195.869 362.624 196.513 362.419 196.924 362.008C197.334 361.597 197.54 360.972 197.54 360.132V358.564L197.68 357.094L197.61 355.61V353.58H198.884V359.992C198.884 361.299 198.557 362.26 197.904 362.876C197.25 363.492 196.294 363.8 195.034 363.8ZM194.866 360.692C194.147 360.692 193.503 360.543 192.934 360.244C192.374 359.936 191.926 359.511 191.59 358.97C191.263 358.429 191.1 357.803 191.1 357.094C191.1 356.375 191.263 355.75 191.59 355.218C191.926 354.677 192.374 354.257 192.934 353.958C193.503 353.659 194.147 353.51 194.866 353.51C195.5 353.51 196.079 353.641 196.602 353.902C197.124 354.154 197.54 354.546 197.848 355.078C198.165 355.61 198.324 356.282 198.324 357.094C198.324 357.897 198.165 358.564 197.848 359.096C197.54 359.628 197.124 360.029 196.602 360.3C196.079 360.561 195.5 360.692 194.866 360.692ZM195.02 359.516C195.514 359.516 195.953 359.413 196.336 359.208C196.718 359.003 197.017 358.718 197.232 358.354C197.456 357.99 197.568 357.57 197.568 357.094C197.568 356.618 197.456 356.198 197.232 355.834C197.017 355.47 196.718 355.19 196.336 354.994C195.953 354.789 195.514 354.686 195.02 354.686C194.525 354.686 194.082 354.789 193.69 354.994C193.307 355.19 193.004 355.47 192.78 355.834C192.565 356.198 192.458 356.618 192.458 357.094C192.458 357.57 192.565 357.99 192.78 358.354C193.004 358.718 193.307 359.003 193.69 359.208C194.082 359.413 194.525 359.516 195.02 359.516ZM209.332 361.112C208.576 361.112 207.88 360.991 207.246 360.748C206.611 360.496 206.06 360.146 205.594 359.698C205.127 359.241 204.763 358.709 204.502 358.102C204.24 357.495 204.11 356.828 204.11 356.1C204.11 355.372 204.24 354.705 204.502 354.098C204.763 353.491 205.127 352.964 205.594 352.516C206.07 352.059 206.625 351.709 207.26 351.466C207.894 351.214 208.594 351.088 209.36 351.088C210.134 351.088 210.844 351.214 211.488 351.466C212.132 351.718 212.678 352.096 213.126 352.6L212.258 353.468C211.856 353.076 211.418 352.791 210.942 352.614C210.475 352.427 209.966 352.334 209.416 352.334C208.856 352.334 208.333 352.427 207.848 352.614C207.372 352.801 206.956 353.062 206.602 353.398C206.256 353.734 205.986 354.135 205.79 354.602C205.603 355.059 205.51 355.559 205.51 356.1C205.51 356.632 205.603 357.131 205.79 357.598C205.986 358.055 206.256 358.457 206.602 358.802C206.956 359.138 207.372 359.399 207.848 359.586C208.324 359.773 208.842 359.866 209.402 359.866C209.924 359.866 210.424 359.787 210.9 359.628C211.385 359.46 211.833 359.185 212.244 358.802L213.042 359.866C212.556 360.277 211.987 360.589 211.334 360.804C210.69 361.009 210.022 361.112 209.332 361.112ZM211.698 359.684V356.044H213.042V359.866L211.698 359.684ZM215.276 361V353.58H216.564V355.596L216.438 355.092C216.643 354.579 216.989 354.187 217.474 353.916C217.959 353.645 218.557 353.51 219.266 353.51V354.812C219.21 354.803 219.154 354.798 219.098 354.798C219.051 354.798 219.005 354.798 218.958 354.798C218.239 354.798 217.67 355.013 217.25 355.442C216.83 355.871 216.62 356.492 216.62 357.304V361H215.276ZM223.782 361.084C223.035 361.084 222.373 360.921 221.794 360.594C221.215 360.267 220.758 359.819 220.422 359.25C220.086 358.671 219.918 358.018 219.918 357.29C219.918 356.553 220.086 355.899 220.422 355.33C220.758 354.761 221.215 354.317 221.794 354C222.373 353.673 223.035 353.51 223.782 353.51C224.519 353.51 225.177 353.673 225.756 354C226.344 354.317 226.801 354.761 227.128 355.33C227.464 355.89 227.632 356.543 227.632 357.29C227.632 358.027 227.464 358.681 227.128 359.25C226.801 359.819 226.344 360.267 225.756 360.594C225.177 360.921 224.519 361.084 223.782 361.084ZM223.782 359.908C224.258 359.908 224.683 359.801 225.056 359.586C225.439 359.371 225.737 359.068 225.952 358.676C226.167 358.275 226.274 357.813 226.274 357.29C226.274 356.758 226.167 356.301 225.952 355.918C225.737 355.526 225.439 355.223 225.056 355.008C224.683 354.793 224.258 354.686 223.782 354.686C223.306 354.686 222.881 354.793 222.508 355.008C222.135 355.223 221.836 355.526 221.612 355.918C221.388 356.301 221.276 356.758 221.276 357.29C221.276 357.813 221.388 358.275 221.612 358.676C221.836 359.068 222.135 359.371 222.508 359.586C222.881 359.801 223.306 359.908 223.782 359.908ZM232.363 361.084C231.728 361.084 231.168 360.967 230.683 360.734C230.207 360.501 229.833 360.146 229.563 359.67C229.301 359.185 229.171 358.578 229.171 357.85V353.58H230.515V357.696C230.515 358.424 230.687 358.97 231.033 359.334C231.387 359.698 231.882 359.88 232.517 359.88C232.983 359.88 233.389 359.787 233.735 359.6C234.08 359.404 234.346 359.124 234.533 358.76C234.719 358.387 234.813 357.939 234.813 357.416V353.58H236.157V361H234.883V358.998L235.093 359.53C234.85 360.025 234.486 360.407 234.001 360.678C233.515 360.949 232.969 361.084 232.363 361.084ZM242.399 361.084C241.783 361.084 241.219 360.944 240.705 360.664C240.201 360.375 239.795 359.95 239.487 359.39C239.189 358.83 239.039 358.13 239.039 357.29C239.039 356.45 239.184 355.75 239.473 355.19C239.772 354.63 240.173 354.21 240.677 353.93C241.191 353.65 241.765 353.51 242.399 353.51C243.127 353.51 243.771 353.669 244.331 353.986C244.891 354.303 245.335 354.747 245.661 355.316C245.988 355.876 246.151 356.534 246.151 357.29C246.151 358.046 245.988 358.709 245.661 359.278C245.335 359.847 244.891 360.291 244.331 360.608C243.771 360.925 243.127 361.084 242.399 361.084ZM238.465 363.716V353.58H239.753V355.582L239.669 357.304L239.809 359.026V363.716H238.465ZM242.287 359.908C242.763 359.908 243.188 359.801 243.561 359.586C243.944 359.371 244.243 359.068 244.457 358.676C244.681 358.275 244.793 357.813 244.793 357.29C244.793 356.758 244.681 356.301 244.457 355.918C244.243 355.526 243.944 355.223 243.561 355.008C243.188 354.793 242.763 354.686 242.287 354.686C241.821 354.686 241.396 354.793 241.013 355.008C240.64 355.223 240.341 355.526 240.117 355.918C239.903 356.301 239.795 356.758 239.795 357.29C239.795 357.813 239.903 358.275 240.117 358.676C240.341 359.068 240.64 359.371 241.013 359.586C241.396 359.801 241.821 359.908 242.287 359.908Z" fill="#435CE7"/>
</svg>
