<svg width="1200" height="668" viewBox="0 0 1200 668" fill="none" xmlns="http://www.w3.org/2000/svg">
<path d="M600 574L600 282" stroke="#7094F0" stroke-linecap="round" stroke-linejoin="round" stroke-dasharray="2 4"/>
<path d="M600 193L600 127" stroke="#7094F0" stroke-linecap="round" stroke-linejoin="round" stroke-dasharray="2 4"/>
<path d="M600.768 164.078L603.633 160.64C604.176 159.989 603.713 159 602.865 159L597.135 159C596.287 159 595.824 159.989 596.367 160.64L599.232 164.078C599.632 164.558 600.368 164.558 600.768 164.078Z" fill="#7094F0"/>
<path d="M599.232 126.922L596.367 130.36C595.824 131.011 596.287 132 597.135 132H602.865C603.713 132 604.176 131.011 603.633 130.36L600.768 126.922C600.368 126.442 599.632 126.442 599.232 126.922Z" fill="#7094F0"/>
<path d="M740 618L740 538" stroke="#7094F0" stroke-linecap="round" stroke-linejoin="round" stroke-dasharray="2 4"/>
<path d="M460 618L460 538" stroke="#7094F0" stroke-linecap="round" stroke-linejoin="round" stroke-dasharray="2 4"/>
<path d="M460 538H740" stroke="#7094F0" stroke-linecap="round" stroke-linejoin="round" stroke-dasharray="2 4"/>
<path d="M600 332H855" stroke="#7094F0" stroke-linecap="round" stroke-linejoin="round" stroke-dasharray="2 4"/>
<rect x="435" width="330" height="126" rx="10" fill="#F6F7FE"/>
<rect x="455" y="56" width="290" height="50" rx="10" fill="#435CE7"/>
<path d="M543.975 80.672V83.872H540.295V80.672H543.975ZM545.447 85.28V79.264H538.855V86.528H540.295V85.28H545.447ZM551.495 75.68H537.287V77.168H548.039V87.248C548.039 87.584 547.927 87.68 547.575 87.696C547.191 87.696 545.863 87.712 544.647 87.648C544.887 88.08 545.191 88.816 545.271 89.248C546.871 89.248 547.991 89.232 548.679 88.96C549.351 88.736 549.591 88.24 549.591 87.28V77.168H551.495V75.68ZM557.581 81.408L556.157 81.84V79.072H557.693V77.696H556.157V74.608H554.781V77.696H552.845V79.072H554.781V82.224C553.965 82.464 553.213 82.672 552.621 82.832L552.957 84.272L554.781 83.696V87.552C554.781 87.776 554.701 87.84 554.509 87.84C554.333 87.84 553.725 87.84 553.101 87.824C553.277 88.208 553.453 88.848 553.501 89.2C554.509 89.216 555.149 89.152 555.581 88.928C555.997 88.688 556.157 88.304 556.157 87.552V83.28L557.773 82.768L557.581 81.408ZM559.133 84.832C559.821 85.696 560.557 86.88 560.845 87.648L562.109 86.896C561.773 86.128 560.989 84.992 560.301 84.176L559.133 84.832ZM567.469 80.976V79.616H563.437V77.888H566.717V76.528H563.437V74.64H562.013V76.528H558.685V77.888H562.013V79.616H557.933V80.976H564.077V82.528H558.109V83.888H564.077V87.568C564.077 87.792 564.013 87.856 563.773 87.872C563.533 87.888 562.701 87.888 561.885 87.84C562.077 88.24 562.269 88.848 562.333 89.264C563.485 89.264 564.285 89.248 564.813 89.024C565.325 88.8 565.485 88.4 565.485 87.6V83.888H567.373V82.528H565.485V80.976H567.469ZM581.811 81.776C582.195 80.976 582.579 79.728 582.899 78.624L581.955 78.4L581.715 78.448H579.123V77.2H582.035V75.952H579.123V74.592H577.667V75.952H574.883V77.2H577.667V78.448H574.307V79.712H581.251C581.075 80.368 580.851 81.024 580.659 81.504L581.811 81.776ZM577.987 81.472C577.571 81.056 576.723 80.512 576.035 80.144L575.395 80.88C576.067 81.264 576.899 81.84 577.315 82.272L577.987 81.472ZM576.947 82.96C576.499 82.528 575.619 81.92 574.915 81.552L574.227 82.288C574.947 82.688 575.811 83.344 576.243 83.792L576.947 82.96ZM571.091 83.056C572.131 81.728 573.123 80.128 573.955 78.592L572.819 77.888C572.563 78.496 572.243 79.088 571.923 79.648L570.291 79.792C571.203 78.464 572.099 76.8 572.739 75.2L571.459 74.608C570.851 76.48 569.731 78.544 569.395 79.056C569.043 79.584 568.771 79.952 568.483 80.032C568.643 80.384 568.851 81.024 568.915 81.312C569.155 81.184 569.523 81.104 571.155 80.912C570.563 81.824 570.035 82.576 569.779 82.864C569.299 83.456 568.947 83.84 568.611 83.92C568.755 84.256 568.963 84.864 569.027 85.136C569.379 84.896 569.923 84.704 573.587 83.696C573.539 83.424 573.507 82.848 573.523 82.464L571.091 83.056ZM573.491 85.168C571.683 85.824 569.811 86.496 568.579 86.896L568.915 88.272C570.291 87.728 572.067 87.056 573.747 86.368L573.491 85.168ZM582.819 85.12V83.84H579.299C579.411 83.232 579.443 82.64 579.443 82.08V80.256H578.083V82.032C578.083 82.608 578.051 83.216 577.891 83.84H573.971V85.12H577.427C576.835 86.24 575.699 87.328 573.635 88.192C573.907 88.464 574.339 88.976 574.515 89.296C577.123 88.16 578.387 86.64 578.963 85.12H582.819ZM578.835 86.368C580.051 87.216 581.523 88.464 582.211 89.296L583.171 88.368C582.451 87.552 580.931 86.368 579.731 85.552L578.835 86.368ZM599.113 81.056C598.281 80.528 596.809 79.792 595.465 79.216C596.537 78.272 597.433 77.152 598.041 75.872L597.001 75.328L596.713 75.392H590.425V76.736H595.753C594.329 78.672 591.801 80.208 589.353 80.976C589.673 81.296 590.057 81.872 590.265 82.24C591.657 81.728 593.065 81.04 594.313 80.144C595.721 80.8 597.385 81.648 598.233 82.24L599.113 81.056ZM586.937 83.136C588.137 81.808 589.305 80.256 590.281 78.672L589.001 77.84C588.697 78.4 588.361 78.976 587.993 79.52L586.121 79.696C587.033 78.384 587.961 76.768 588.633 75.2L587.225 74.544C586.617 76.4 585.449 78.432 585.081 78.928C584.729 79.472 584.457 79.824 584.137 79.904C584.313 80.288 584.569 81.008 584.617 81.312C584.873 81.184 585.289 81.088 587.049 80.848C586.409 81.744 585.833 82.416 585.529 82.72C585.017 83.28 584.633 83.648 584.249 83.728C584.425 84.128 584.665 84.832 584.729 85.136C585.129 84.912 585.721 84.736 589.721 83.952C589.705 83.648 589.705 83.04 589.753 82.656L586.937 83.136ZM589.641 85.664C587.673 86.144 585.625 86.64 584.297 86.912L584.569 88.384C586.057 87.984 587.977 87.472 589.801 86.976L589.641 85.664ZM595.065 84H598.201V82.656H590.553V84H593.577V87.472H589.593V88.864H598.985V87.472H595.065V84ZM611.455 85.904V87.536H603.471V85.904H611.455ZM602.063 89.296H603.471V88.752H611.455V89.264H612.943V84.624H602.063V89.296ZM610.175 82.768H604.639V81.552H610.175V82.768ZM603.247 80.528V83.792H611.631V80.528H603.247ZM600.815 81.68H602.175V79.68H612.639V81.68H614.063V78.512H600.815V81.68ZM610.943 75.808V74.592H609.471V75.808H605.215V74.592H603.743V75.808H600.399V77.152H603.743V78.112H605.215V77.152H609.471V78.112H610.943V77.152H614.383V75.808H610.943ZM625.397 84.384C624.965 85.12 624.405 85.712 623.701 86.192C622.629 85.936 621.509 85.68 620.405 85.456C620.661 85.104 620.901 84.752 621.141 84.384H625.397ZM623.829 82V79.232C625.301 80.704 627.477 81.904 629.541 82.528C629.765 82.144 630.181 81.6 630.501 81.296C628.709 80.88 626.805 80.032 625.461 79.008H630.117V77.792H623.829V76.32C625.605 76.16 627.285 75.936 628.629 75.648L627.525 74.592C625.173 75.104 620.837 75.408 617.221 75.488C617.333 75.776 617.493 76.32 617.525 76.624C619.061 76.608 620.725 76.544 622.357 76.432V77.792H616.101V79.008H620.757C619.429 80.096 617.525 80.992 615.701 81.456C616.005 81.728 616.421 82.256 616.613 82.624C618.693 81.984 620.885 80.736 622.357 79.232V81.856L621.269 81.552C620.981 82.048 620.629 82.592 620.261 83.152H615.925V84.384H619.429C618.901 85.152 618.373 85.888 617.941 86.464L619.349 86.928L619.621 86.56C620.389 86.72 621.141 86.896 621.877 87.072C620.389 87.584 618.501 87.84 616.149 87.968C616.405 88.304 616.629 88.848 616.741 89.264C619.845 89.008 622.229 88.544 623.989 87.616C625.925 88.16 627.653 88.72 628.949 89.264L629.845 88.032C628.677 87.584 627.125 87.104 625.413 86.64C626.101 86.032 626.661 85.28 627.061 84.384H630.341V83.152H621.957C622.213 82.752 622.469 82.368 622.693 82H623.829ZM635.435 76.544H642.347V78.08H635.435V76.544ZM633.883 75.264V79.36H643.995V75.264H633.883ZM637.979 82.88V84.304C637.979 85.488 637.531 87.088 631.915 88.144C632.283 88.464 632.731 89.04 632.923 89.376C638.763 88.048 639.595 86.016 639.595 84.336V82.88H637.979ZM639.371 87.056C641.259 87.696 643.835 88.688 645.131 89.36L645.899 88.08C644.523 87.44 641.915 86.512 640.107 85.952L639.371 87.056ZM633.275 80.624V86.432H634.827V82H643.051V86.288H644.651V80.624H633.275ZM651.169 79.424C652.593 78.352 653.809 77.152 654.577 76.032C655.425 77.2 656.737 78.4 658.177 79.424H651.169ZM650.865 80.8H658.353V79.552C659.281 80.208 660.257 80.768 661.185 81.216C661.441 80.768 661.777 80.24 662.129 79.872C659.633 78.896 656.977 76.944 655.281 74.592H653.745C652.545 76.544 649.937 78.848 647.201 80.096C647.521 80.416 647.921 80.976 648.081 81.312C649.041 80.848 649.985 80.272 650.865 79.648V80.8ZM648.113 83.856H652.081C651.697 84.928 651.121 86.208 650.593 87.2L648.225 87.28L648.417 88.736C651.137 88.624 655.201 88.448 659.009 88.256C659.297 88.64 659.537 88.992 659.713 89.296L661.073 88.448C660.337 87.264 658.817 85.568 657.361 84.336L656.081 85.024C656.705 85.584 657.345 86.256 657.937 86.928C655.985 87.008 654.001 87.088 652.225 87.152C652.801 86.128 653.393 84.928 653.921 83.856H661.249V82.464H648.113V83.856Z" fill="white"/>
<path d="M581.962 31.592C581.418 31.784 580.842 31.96 580.298 32.136V28.52H581.818V27.144H580.298V23.96H582.074V22.584H576.986V23.96H578.874V27.144H577.146V28.52H578.874V32.584C578.106 32.824 577.402 33.016 576.826 33.176L577.178 34.696C578.618 34.232 580.474 33.608 582.218 33L581.962 31.592ZM584.122 26.472H586.218V28.232H584.122V26.472ZM584.122 23.56H586.218V25.288H584.122V23.56ZM589.53 25.288H587.482V23.56H589.53V25.288ZM589.53 28.232H587.482V26.472H589.53V28.232ZM587.61 34.392V32.488H591.162V31.144H587.61V29.496H590.954V22.296H582.762V29.496H586.09V31.144H582.618V32.488H586.09V34.392H581.45V35.752H591.674V34.392H587.61ZM604.096 32.776H600.688V31.784H604.096V32.776ZM600.688 29.704H604.096V30.616H600.688V29.704ZM596.176 26.712V25.752H599.184V26.712H596.176ZM603.84 25.752V26.712H600.688V25.752H603.84ZM607.264 30.616H605.6V28.648H600.688V27.704H605.344V24.76H600.688V23.944H606.928V22.744H600.688V21.576H599.184V22.744H593.12V23.944H599.184V24.76H594.752V27.704H599.184V28.648H594.336V29.704H599.184V30.616H592.784V31.784H599.184V32.776H594.192V33.896H599.184V34.744C599.184 35.016 599.088 35.096 598.8 35.112C598.544 35.128 597.584 35.128 596.704 35.096C596.912 35.416 597.136 35.96 597.216 36.296C598.56 36.296 599.392 36.28 599.936 36.088C600.48 35.88 600.688 35.544 600.688 34.728V33.896H604.096V34.584H605.6V31.784H607.264V30.616ZM612.294 26.424C613.718 25.352 614.934 24.152 615.702 23.032C616.55 24.2 617.862 25.4 619.302 26.424H612.294ZM611.99 27.8H619.478V26.552C620.406 27.208 621.382 27.768 622.31 28.216C622.566 27.768 622.902 27.24 623.254 26.872C620.758 25.896 618.102 23.944 616.406 21.592H614.87C613.67 23.544 611.062 25.848 608.326 27.096C608.646 27.416 609.046 27.976 609.206 28.312C610.166 27.848 611.11 27.272 611.99 26.648V27.8ZM609.238 30.856H613.206C612.822 31.928 612.246 33.208 611.718 34.2L609.35 34.28L609.542 35.736C612.262 35.624 616.326 35.448 620.134 35.256C620.422 35.64 620.662 35.992 620.838 36.296L622.198 35.448C621.462 34.264 619.942 32.568 618.486 31.336L617.206 32.024C617.83 32.584 618.47 33.256 619.062 33.928C617.11 34.008 615.126 34.088 613.35 34.152C613.926 33.128 614.518 31.928 615.046 30.856H622.374V29.464H609.238V30.856Z" fill="#222222"/>
<rect x="435" y="166" width="330" height="126" rx="10" fill="#F6F7FE"/>
<rect x="455" y="222" width="290" height="50" rx="10" fill="#435CE7"/>
<path d="M543.975 246.672V249.872H540.295V246.672H543.975ZM545.447 251.28V245.264H538.855V252.528H540.295V251.28H545.447ZM551.495 241.68H537.287V243.168H548.039V253.248C548.039 253.584 547.927 253.68 547.575 253.696C547.191 253.696 545.863 253.712 544.647 253.648C544.887 254.08 545.191 254.816 545.271 255.248C546.871 255.248 547.991 255.232 548.679 254.96C549.351 254.736 549.591 254.24 549.591 253.28V243.168H551.495V241.68ZM557.581 247.408L556.157 247.84V245.072H557.693V243.696H556.157V240.608H554.781V243.696H552.845V245.072H554.781V248.224C553.965 248.464 553.213 248.672 552.621 248.832L552.957 250.272L554.781 249.696V253.552C554.781 253.776 554.701 253.84 554.509 253.84C554.333 253.84 553.725 253.84 553.101 253.824C553.277 254.208 553.453 254.848 553.501 255.2C554.509 255.216 555.149 255.152 555.581 254.928C555.997 254.688 556.157 254.304 556.157 253.552V249.28L557.773 248.768L557.581 247.408ZM559.133 250.832C559.821 251.696 560.557 252.88 560.845 253.648L562.109 252.896C561.773 252.128 560.989 250.992 560.301 250.176L559.133 250.832ZM567.469 246.976V245.616H563.437V243.888H566.717V242.528H563.437V240.64H562.013V242.528H558.685V243.888H562.013V245.616H557.933V246.976H564.077V248.528H558.109V249.888H564.077V253.568C564.077 253.792 564.013 253.856 563.773 253.872C563.533 253.888 562.701 253.888 561.885 253.84C562.077 254.24 562.269 254.848 562.333 255.264C563.485 255.264 564.285 255.248 564.813 255.024C565.325 254.8 565.485 254.4 565.485 253.6V249.888H567.373V248.528H565.485V246.976H567.469ZM581.811 247.776C582.195 246.976 582.579 245.728 582.899 244.624L581.955 244.4L581.715 244.448H579.123V243.2H582.035V241.952H579.123V240.592H577.667V241.952H574.883V243.2H577.667V244.448H574.307V245.712H581.251C581.075 246.368 580.851 247.024 580.659 247.504L581.811 247.776ZM577.987 247.472C577.571 247.056 576.723 246.512 576.035 246.144L575.395 246.88C576.067 247.264 576.899 247.84 577.315 248.272L577.987 247.472ZM576.947 248.96C576.499 248.528 575.619 247.92 574.915 247.552L574.227 248.288C574.947 248.688 575.811 249.344 576.243 249.792L576.947 248.96ZM571.091 249.056C572.131 247.728 573.123 246.128 573.955 244.592L572.819 243.888C572.563 244.496 572.243 245.088 571.923 245.648L570.291 245.792C571.203 244.464 572.099 242.8 572.739 241.2L571.459 240.608C570.851 242.48 569.731 244.544 569.395 245.056C569.043 245.584 568.771 245.952 568.483 246.032C568.643 246.384 568.851 247.024 568.915 247.312C569.155 247.184 569.523 247.104 571.155 246.912C570.563 247.824 570.035 248.576 569.779 248.864C569.299 249.456 568.947 249.84 568.611 249.92C568.755 250.256 568.963 250.864 569.027 251.136C569.379 250.896 569.923 250.704 573.587 249.696C573.539 249.424 573.507 248.848 573.523 248.464L571.091 249.056ZM573.491 251.168C571.683 251.824 569.811 252.496 568.579 252.896L568.915 254.272C570.291 253.728 572.067 253.056 573.747 252.368L573.491 251.168ZM582.819 251.12V249.84H579.299C579.411 249.232 579.443 248.64 579.443 248.08V246.256H578.083V248.032C578.083 248.608 578.051 249.216 577.891 249.84H573.971V251.12H577.427C576.835 252.24 575.699 253.328 573.635 254.192C573.907 254.464 574.339 254.976 574.515 255.296C577.123 254.16 578.387 252.64 578.963 251.12H582.819ZM578.835 252.368C580.051 253.216 581.523 254.464 582.211 255.296L583.171 254.368C582.451 253.552 580.931 252.368 579.731 251.552L578.835 252.368ZM599.113 247.056C598.281 246.528 596.809 245.792 595.465 245.216C596.537 244.272 597.433 243.152 598.041 241.872L597.001 241.328L596.713 241.392H590.425V242.736H595.753C594.329 244.672 591.801 246.208 589.353 246.976C589.673 247.296 590.057 247.872 590.265 248.24C591.657 247.728 593.065 247.04 594.313 246.144C595.721 246.8 597.385 247.648 598.233 248.24L599.113 247.056ZM586.937 249.136C588.137 247.808 589.305 246.256 590.281 244.672L589.001 243.84C588.697 244.4 588.361 244.976 587.993 245.52L586.121 245.696C587.033 244.384 587.961 242.768 588.633 241.2L587.225 240.544C586.617 242.4 585.449 244.432 585.081 244.928C584.729 245.472 584.457 245.824 584.137 245.904C584.313 246.288 584.569 247.008 584.617 247.312C584.873 247.184 585.289 247.088 587.049 246.848C586.409 247.744 585.833 248.416 585.529 248.72C585.017 249.28 584.633 249.648 584.249 249.728C584.425 250.128 584.665 250.832 584.729 251.136C585.129 250.912 585.721 250.736 589.721 249.952C589.705 249.648 589.705 249.04 589.753 248.656L586.937 249.136ZM589.641 251.664C587.673 252.144 585.625 252.64 584.297 252.912L584.569 254.384C586.057 253.984 587.977 253.472 589.801 252.976L589.641 251.664ZM595.065 250H598.201V248.656H590.553V250H593.577V253.472H589.593V254.864H598.985V253.472H595.065V250ZM611.455 251.904V253.536H603.471V251.904H611.455ZM602.063 255.296H603.471V254.752H611.455V255.264H612.943V250.624H602.063V255.296ZM610.175 248.768H604.639V247.552H610.175V248.768ZM603.247 246.528V249.792H611.631V246.528H603.247ZM600.815 247.68H602.175V245.68H612.639V247.68H614.063V244.512H600.815V247.68ZM610.943 241.808V240.592H609.471V241.808H605.215V240.592H603.743V241.808H600.399V243.152H603.743V244.112H605.215V243.152H609.471V244.112H610.943V243.152H614.383V241.808H610.943ZM620.645 245.68V244.304H619.013V240.592H617.589V244.304H615.909V245.68H617.589V255.264H619.013V245.68H620.645ZM621.141 246.416C620.885 247.888 620.373 249.344 619.685 250.32C620.005 250.496 620.565 250.88 620.821 251.072C621.541 250 622.133 248.336 622.485 246.688L621.141 246.416ZM630.677 250.976C630.501 249.856 630.021 247.92 629.573 246.448L628.389 246.688C628.405 245.952 628.437 245.152 628.453 244.272V243.568H625.141V240.72H623.733V243.568H621.077V245.008H623.717C623.605 247.984 622.949 251.568 619.621 254.256C619.989 254.48 620.517 254.96 620.773 255.296C624.341 252.304 625.013 248.32 625.125 245.008H627.013C626.885 250.816 626.725 252.992 626.341 253.472C626.181 253.68 626.021 253.728 625.733 253.728C625.397 253.728 624.629 253.712 623.765 253.648C624.021 254.048 624.181 254.656 624.213 255.072C625.045 255.104 625.877 255.12 626.389 255.056C626.917 254.976 627.285 254.832 627.605 254.336C628.085 253.712 628.245 251.84 628.389 246.864C628.821 248.352 629.221 250.208 629.365 251.312L630.677 250.976ZM642.235 244.176C641.995 243.28 641.339 241.872 640.699 240.8L639.451 241.312C640.043 242.416 640.667 243.856 640.891 244.768L642.235 244.176ZM635.659 243.44C635.275 242.752 634.363 241.728 633.675 240.976L632.603 241.744C633.307 242.528 634.139 243.6 634.539 244.32L635.659 243.44ZM635.179 252.064V245.504H631.659V246.928H633.739V252.144C633.739 253.008 633.307 253.584 632.987 253.856C633.243 254.064 633.595 254.496 633.787 254.816L633.803 254.896L633.819 254.88L633.835 254.912V254.848C634.091 254.528 634.651 254.096 637.403 252.112C637.259 251.824 637.051 251.232 636.955 250.848L635.179 252.064ZM644.059 241.52C643.563 244.736 642.763 247.68 641.099 250.048C639.547 247.904 638.619 245.12 638.043 241.904L636.651 242.112C637.339 245.856 638.363 248.928 640.107 251.28C639.051 252.432 637.707 253.392 636.011 254.128C636.315 254.4 636.731 254.944 636.939 255.264C638.619 254.496 639.947 253.536 641.051 252.4C642.171 253.584 643.547 254.528 645.259 255.216C645.499 254.832 645.947 254.224 646.299 253.92C644.587 253.312 643.195 252.384 642.059 251.2C643.995 248.608 644.923 245.36 645.547 241.744L644.059 241.52ZM651.169 245.424C652.593 244.352 653.809 243.152 654.577 242.032C655.425 243.2 656.737 244.4 658.177 245.424H651.169ZM650.865 246.8H658.353V245.552C659.281 246.208 660.257 246.768 661.185 247.216C661.441 246.768 661.777 246.24 662.129 245.872C659.633 244.896 656.977 242.944 655.281 240.592H653.745C652.545 242.544 649.937 244.848 647.201 246.096C647.521 246.416 647.921 246.976 648.081 247.312C649.041 246.848 649.985 246.272 650.865 245.648V246.8ZM648.113 249.856H652.081C651.697 250.928 651.121 252.208 650.593 253.2L648.225 253.28L648.417 254.736C651.137 254.624 655.201 254.448 659.009 254.256C659.297 254.64 659.537 254.992 659.713 255.296L661.073 254.448C660.337 253.264 658.817 251.568 657.361 250.336L656.081 251.024C656.705 251.584 657.345 252.256 657.937 252.928C655.985 253.008 654.001 253.088 652.225 253.152C652.801 252.128 653.393 250.928 653.921 249.856H661.249V248.464H648.113V249.856Z" fill="white"/>
<path d="M588.298 199.384V200.648H581.338V199.384H588.298ZM587.194 195.096V196.232H581.338V195.096H587.194ZM581.338 197.336H588.682V193.992H579.93V202.28H581.338V201.784H588.298V202.248H589.786V198.264H581.338V197.336ZM591.53 188.728H586.474C586.634 188.44 586.794 188.136 586.922 187.832L585.482 187.48C585.162 188.296 584.65 189.08 584.026 189.736V188.728H580.138C580.298 188.44 580.442 188.136 580.57 187.848L579.178 187.48C578.682 188.712 577.802 189.944 576.858 190.744C577.21 190.936 577.786 191.32 578.074 191.56C578.522 191.128 578.986 190.568 579.402 189.944H579.898C580.202 190.488 580.522 191.112 580.65 191.528L581.978 191.128C581.866 190.808 581.642 190.376 581.402 189.944H583.818C583.578 190.168 583.322 190.392 583.066 190.568C583.21 190.632 583.386 190.728 583.578 190.824H583.498V191.992H577.562V195.048H578.954V193.16H589.626V195.048H591.082V191.992H584.922V190.824H584.89C585.162 190.552 585.418 190.264 585.658 189.944H586.794C587.21 190.488 587.642 191.128 587.802 191.56L589.194 191.144C589.034 190.792 588.73 190.36 588.426 189.944H591.53V188.728ZM597.712 197.592C597.168 197.784 596.592 197.96 596.048 198.136V194.52H597.568V193.144H596.048V189.96H597.824V188.584H592.736V189.96H594.624V193.144H592.896V194.52H594.624V198.584C593.856 198.824 593.152 199.016 592.576 199.176L592.928 200.696C594.368 200.232 596.224 199.608 597.968 199L597.712 197.592ZM599.872 192.472H601.968V194.232H599.872V192.472ZM599.872 189.56H601.968V191.288H599.872V189.56ZM605.28 191.288H603.232V189.56H605.28V191.288ZM605.28 194.232H603.232V192.472H605.28V194.232ZM603.36 200.392V198.488H606.912V197.144H603.36V195.496H606.704V188.296H598.512V195.496H601.84V197.144H598.368V198.488H601.84V200.392H597.2V201.752H607.424V200.392H603.36ZM620.47 189.576V191.24H611.318V189.576H620.47ZM621.958 192.504V188.312H609.814V192.968C609.814 195.464 609.702 199 608.262 201.464C608.63 201.608 609.318 201.992 609.59 202.216C611.094 199.624 611.318 195.656 611.318 192.952V192.504H621.958ZM621.686 195.016V193.72H612.694V195.016H621.686ZM622.774 197.752V196.44H611.718V197.752H614.486C613.894 198.824 613.19 199.752 612.918 200.04C612.598 200.424 612.294 200.68 612.022 200.744C612.214 201.128 612.454 201.8 612.55 202.088C613.094 201.896 613.894 201.816 620.39 201.352C620.63 201.752 620.822 202.12 620.966 202.424L622.358 201.752C621.846 200.808 620.79 199.192 619.958 197.992L618.646 198.536C618.982 199.032 619.334 199.608 619.702 200.184L614.294 200.488C615.014 199.704 615.734 198.728 616.342 197.752H622.774Z" fill="#222222"/>
<rect x="435" y="372" width="330" height="126" rx="10" fill="#F6F7FE"/>
<rect x="455" y="428" width="290" height="50" rx="10" fill="#283895"/>
<path d="M560.23 453.632H565.99V454.992H560.23V453.632ZM560.374 458.608H566.902V460H558.774V448.8H566.678V450.192H560.374V458.608ZM572.507 460.128C571.653 460.128 570.837 460 570.059 459.744C569.28 459.477 568.667 459.136 568.219 458.72L568.811 457.472C569.237 457.845 569.781 458.155 570.443 458.4C571.104 458.645 571.792 458.768 572.507 458.768C573.157 458.768 573.685 458.693 574.091 458.544C574.496 458.395 574.795 458.192 574.987 457.936C575.179 457.669 575.275 457.371 575.275 457.04C575.275 456.656 575.147 456.347 574.891 456.112C574.645 455.877 574.32 455.691 573.915 455.552C573.52 455.403 573.083 455.275 572.603 455.168C572.123 455.061 571.637 454.939 571.147 454.8C570.667 454.651 570.224 454.464 569.819 454.24C569.424 454.016 569.104 453.717 568.859 453.344C568.613 452.96 568.491 452.469 568.491 451.872C568.491 451.296 568.64 450.768 568.939 450.288C569.248 449.797 569.717 449.408 570.347 449.12C570.987 448.821 571.797 448.672 572.779 448.672C573.429 448.672 574.075 448.757 574.715 448.928C575.355 449.099 575.909 449.344 576.378 449.664L575.851 450.944C575.371 450.624 574.864 450.395 574.331 450.256C573.797 450.107 573.28 450.032 572.779 450.032C572.149 450.032 571.632 450.112 571.227 450.272C570.821 450.432 570.523 450.645 570.331 450.912C570.149 451.179 570.059 451.477 570.059 451.808C570.059 452.203 570.181 452.517 570.427 452.752C570.683 452.987 571.008 453.173 571.403 453.312C571.808 453.451 572.251 453.579 572.731 453.696C573.211 453.803 573.691 453.925 574.171 454.064C574.661 454.203 575.104 454.384 575.499 454.608C575.904 454.832 576.229 455.131 576.475 455.504C576.72 455.877 576.843 456.357 576.843 456.944C576.843 457.509 576.688 458.037 576.378 458.528C576.069 459.008 575.589 459.397 574.939 459.696C574.299 459.984 573.488 460.128 572.507 460.128ZM583.986 460.128C583.122 460.128 582.327 459.989 581.602 459.712C580.877 459.424 580.247 459.024 579.714 458.512C579.181 457.989 578.765 457.381 578.466 456.688C578.167 455.995 578.018 455.232 578.018 454.4C578.018 453.568 578.167 452.805 578.466 452.112C578.765 451.419 579.181 450.816 579.714 450.304C580.258 449.781 580.893 449.381 581.618 449.104C582.343 448.816 583.143 448.672 584.018 448.672C584.903 448.672 585.714 448.816 586.45 449.104C587.186 449.392 587.81 449.824 588.322 450.4L587.33 451.392C586.871 450.944 586.37 450.619 585.826 450.416C585.293 450.203 584.711 450.096 584.082 450.096C583.442 450.096 582.845 450.203 582.29 450.416C581.746 450.629 581.271 450.928 580.866 451.312C580.471 451.696 580.162 452.155 579.938 452.688C579.725 453.211 579.618 453.781 579.618 454.4C579.618 455.008 579.725 455.579 579.938 456.112C580.162 456.635 580.471 457.093 580.866 457.488C581.271 457.872 581.746 458.171 582.29 458.384C582.834 458.597 583.426 458.704 584.066 458.704C584.663 458.704 585.234 458.613 585.778 458.432C586.333 458.24 586.845 457.925 587.314 457.488L588.226 458.704C587.671 459.173 587.021 459.531 586.274 459.776C585.538 460.011 584.775 460.128 583.986 460.128ZM586.69 458.496V454.336H588.226V458.704L586.69 458.496ZM602.19 458.608V449.84H607.758V448.304H595.118V449.84H600.526V458.608H594.27V460.096H608.59V458.608H602.19ZM613.54 446.64C612.676 448.976 611.252 451.312 609.732 452.816C609.988 453.152 610.42 453.984 610.564 454.352C611.012 453.888 611.46 453.36 611.876 452.784V461.232H613.38V450.432C613.988 449.36 614.532 448.208 614.964 447.088L613.54 446.64ZM624.532 450.624V449.2H618.1C618.404 448.528 618.676 447.824 618.932 447.136L617.508 446.752C616.74 449.056 615.46 451.36 614.052 452.832C614.388 453.056 614.964 453.584 615.204 453.84C615.972 452.992 616.708 451.872 617.38 450.624H618.276V461.248H619.796V457.536H624.372V456.144H619.796V454.016H624.148V452.656H619.796V450.624H624.532ZM628.234 455.264C629.45 453.92 630.634 452.272 631.642 450.624L630.49 449.904C630.186 450.464 629.834 451.04 629.482 451.584L627.498 451.76C628.458 450.432 629.402 448.784 630.122 447.184L628.778 446.56C628.122 448.448 626.938 450.48 626.57 450.992C626.202 451.52 625.93 451.872 625.61 451.952C625.77 452.336 625.994 453.024 626.074 453.296C626.33 453.184 626.714 453.088 628.602 452.848C627.93 453.792 627.322 454.528 627.018 454.832C626.506 455.408 626.106 455.792 625.754 455.856C625.914 456.224 626.122 456.864 626.186 457.136C626.554 456.928 627.162 456.768 631.402 455.92C631.37 455.632 631.386 455.072 631.418 454.704L628.234 455.264ZM631.226 457.648C629.194 458.128 627.114 458.608 625.754 458.896L626.01 460.304C627.514 459.92 629.498 459.408 631.37 458.896L631.226 457.648ZM633.994 456.784H637.418V459.6H633.994V456.784ZM637.418 448.72V451.392H633.994V448.72H637.418ZM633.994 452.72H637.418V455.472H633.994V452.72ZM638.89 459.6V447.376H632.586V459.6H631.066V460.944H640.218V459.6H638.89Z" fill="white"/>
<path d="M585.034 405.608V396.84H590.602V395.304H577.962V396.84H583.37V405.608H577.114V407.096H591.434V405.608H585.034ZM596.384 393.64C595.52 395.976 594.096 398.312 592.576 399.816C592.832 400.152 593.264 400.984 593.408 401.352C593.856 400.888 594.304 400.36 594.72 399.784V408.232H596.224V397.432C596.832 396.36 597.376 395.208 597.808 394.088L596.384 393.64ZM607.376 397.624V396.2H600.944C601.248 395.528 601.52 394.824 601.776 394.136L600.352 393.752C599.584 396.056 598.304 398.36 596.896 399.832C597.232 400.056 597.808 400.584 598.048 400.84C598.816 399.992 599.552 398.872 600.224 397.624H601.12V408.248H602.64V404.536H607.216V403.144H602.64V401.016H606.992V399.656H602.64V397.624H607.376ZM611.078 402.264C612.294 400.92 613.478 399.272 614.486 397.624L613.334 396.904C613.03 397.464 612.678 398.04 612.326 398.584L610.342 398.76C611.302 397.432 612.246 395.784 612.966 394.184L611.622 393.56C610.966 395.448 609.782 397.48 609.414 397.992C609.046 398.52 608.774 398.872 608.454 398.952C608.614 399.336 608.838 400.024 608.918 400.296C609.174 400.184 609.558 400.088 611.446 399.848C610.774 400.792 610.166 401.528 609.862 401.832C609.35 402.408 608.95 402.792 608.598 402.856C608.758 403.224 608.966 403.864 609.03 404.136C609.398 403.928 610.006 403.768 614.246 402.92C614.214 402.632 614.23 402.072 614.262 401.704L611.078 402.264ZM614.07 404.648C612.038 405.128 609.958 405.608 608.598 405.896L608.854 407.304C610.358 406.92 612.342 406.408 614.214 405.896L614.07 404.648ZM616.838 403.784H620.262V406.6H616.838V403.784ZM620.262 395.72V398.392H616.838V395.72H620.262ZM616.838 399.72H620.262V402.472H616.838V399.72ZM621.734 406.6V394.376H615.43V406.6H613.91V407.944H623.062V406.6H621.734Z" fill="#222222"/>
<rect x="825" y="302" width="180" height="60" rx="10" fill="#435CE7"/>
<path d="M858.975 331.672V334.872H855.295V331.672H858.975ZM860.447 336.28V330.264H853.855V337.528H855.295V336.28H860.447ZM866.495 326.68H852.287V328.168H863.039V338.248C863.039 338.584 862.927 338.68 862.575 338.696C862.191 338.696 860.863 338.712 859.647 338.648C859.887 339.08 860.191 339.816 860.271 340.248C861.871 340.248 862.991 340.232 863.679 339.96C864.351 339.736 864.591 339.24 864.591 338.28V328.168H866.495V326.68ZM872.581 332.408L871.157 332.84V330.072H872.693V328.696H871.157V325.608H869.781V328.696H867.845V330.072H869.781V333.224C868.965 333.464 868.213 333.672 867.621 333.832L867.957 335.272L869.781 334.696V338.552C869.781 338.776 869.701 338.84 869.509 338.84C869.333 338.84 868.725 338.84 868.101 338.824C868.277 339.208 868.453 339.848 868.501 340.2C869.509 340.216 870.149 340.152 870.581 339.928C870.997 339.688 871.157 339.304 871.157 338.552V334.28L872.773 333.768L872.581 332.408ZM874.133 335.832C874.821 336.696 875.557 337.88 875.845 338.648L877.109 337.896C876.773 337.128 875.989 335.992 875.301 335.176L874.133 335.832ZM882.469 331.976V330.616H878.437V328.888H881.717V327.528H878.437V325.64H877.013V327.528H873.685V328.888H877.013V330.616H872.933V331.976H879.077V333.528H873.109V334.888H879.077V338.568C879.077 338.792 879.013 338.856 878.773 338.872C878.533 338.888 877.701 338.888 876.885 338.84C877.077 339.24 877.269 339.848 877.333 340.264C878.485 340.264 879.285 340.248 879.813 340.024C880.325 339.8 880.485 339.4 880.485 338.6V334.888H882.373V333.528H880.485V331.976H882.469ZM896.811 332.776C897.195 331.976 897.579 330.728 897.899 329.624L896.955 329.4L896.715 329.448H894.123V328.2H897.035V326.952H894.123V325.592H892.667V326.952H889.883V328.2H892.667V329.448H889.307V330.712H896.251C896.075 331.368 895.851 332.024 895.659 332.504L896.811 332.776ZM892.987 332.472C892.571 332.056 891.723 331.512 891.035 331.144L890.395 331.88C891.067 332.264 891.899 332.84 892.315 333.272L892.987 332.472ZM891.947 333.96C891.499 333.528 890.619 332.92 889.915 332.552L889.227 333.288C889.947 333.688 890.811 334.344 891.243 334.792L891.947 333.96ZM886.091 334.056C887.131 332.728 888.123 331.128 888.955 329.592L887.819 328.888C887.563 329.496 887.243 330.088 886.923 330.648L885.291 330.792C886.203 329.464 887.099 327.8 887.739 326.2L886.459 325.608C885.851 327.48 884.731 329.544 884.395 330.056C884.043 330.584 883.771 330.952 883.483 331.032C883.643 331.384 883.851 332.024 883.915 332.312C884.155 332.184 884.523 332.104 886.155 331.912C885.563 332.824 885.035 333.576 884.779 333.864C884.299 334.456 883.947 334.84 883.611 334.92C883.755 335.256 883.963 335.864 884.027 336.136C884.379 335.896 884.923 335.704 888.587 334.696C888.539 334.424 888.507 333.848 888.523 333.464L886.091 334.056ZM888.491 336.168C886.683 336.824 884.811 337.496 883.579 337.896L883.915 339.272C885.291 338.728 887.067 338.056 888.747 337.368L888.491 336.168ZM897.819 336.12V334.84H894.299C894.411 334.232 894.443 333.64 894.443 333.08V331.256H893.083V333.032C893.083 333.608 893.051 334.216 892.891 334.84H888.971V336.12H892.427C891.835 337.24 890.699 338.328 888.635 339.192C888.907 339.464 889.339 339.976 889.515 340.296C892.123 339.16 893.387 337.64 893.963 336.12H897.819ZM893.835 337.368C895.051 338.216 896.523 339.464 897.211 340.296L898.171 339.368C897.451 338.552 895.931 337.368 894.731 336.552L893.835 337.368ZM914.113 332.056C913.281 331.528 911.809 330.792 910.465 330.216C911.537 329.272 912.433 328.152 913.041 326.872L912.001 326.328L911.713 326.392H905.425V327.736H910.753C909.329 329.672 906.801 331.208 904.353 331.976C904.673 332.296 905.057 332.872 905.265 333.24C906.657 332.728 908.065 332.04 909.313 331.144C910.721 331.8 912.385 332.648 913.233 333.24L914.113 332.056ZM901.937 334.136C903.137 332.808 904.305 331.256 905.281 329.672L904.001 328.84C903.697 329.4 903.361 329.976 902.993 330.52L901.121 330.696C902.033 329.384 902.961 327.768 903.633 326.2L902.225 325.544C901.617 327.4 900.449 329.432 900.081 329.928C899.729 330.472 899.457 330.824 899.137 330.904C899.313 331.288 899.569 332.008 899.617 332.312C899.873 332.184 900.289 332.088 902.049 331.848C901.409 332.744 900.833 333.416 900.529 333.72C900.017 334.28 899.633 334.648 899.249 334.728C899.425 335.128 899.665 335.832 899.729 336.136C900.129 335.912 900.721 335.736 904.721 334.952C904.705 334.648 904.705 334.04 904.753 333.656L901.937 334.136ZM904.641 336.664C902.673 337.144 900.625 337.64 899.297 337.912L899.569 339.384C901.057 338.984 902.977 338.472 904.801 337.976L904.641 336.664ZM910.065 335H913.201V333.656H905.553V335H908.577V338.472H904.593V339.864H913.985V338.472H910.065V335ZM926.455 336.904V338.536H918.471V336.904H926.455ZM917.063 340.296H918.471V339.752H926.455V340.264H927.943V335.624H917.063V340.296ZM925.175 333.768H919.639V332.552H925.175V333.768ZM918.247 331.528V334.792H926.631V331.528H918.247ZM915.815 332.68H917.175V330.68H927.639V332.68H929.063V329.512H915.815V332.68ZM925.943 326.808V325.592H924.471V326.808H920.215V325.592H918.743V326.808H915.399V328.152H918.743V329.112H920.215V328.152H924.471V329.112H925.943V328.152H929.383V326.808H925.943ZM942.221 336.776H938.813V335.784H942.221V336.776ZM938.813 333.704H942.221V334.616H938.813V333.704ZM934.301 330.712V329.752H937.309V330.712H934.301ZM941.965 329.752V330.712H938.813V329.752H941.965ZM945.389 334.616H943.725V332.648H938.813V331.704H943.469V328.76H938.813V327.944H945.053V326.744H938.813V325.576H937.309V326.744H931.245V327.944H937.309V328.76H932.877V331.704H937.309V332.648H932.461V333.704H937.309V334.616H930.909V335.784H937.309V336.776H932.317V337.896H937.309V338.744C937.309 339.016 937.213 339.096 936.925 339.112C936.669 339.128 935.709 339.128 934.829 339.096C935.037 339.416 935.261 339.96 935.341 340.296C936.685 340.296 937.517 340.28 938.061 340.088C938.605 339.88 938.813 339.544 938.813 338.728V337.896H942.221V338.584H943.725V335.784H945.389V334.616ZM954.067 334.408C954.195 333.992 954.291 333.528 954.371 333.048L952.819 332.92C952.755 333.464 952.659 333.96 952.531 334.408H947.891V335.688H952.035C951.107 337.496 949.411 338.488 946.819 339C947.091 339.288 947.523 339.912 947.667 340.248C950.675 339.464 952.595 338.168 953.635 335.688H958.227C957.955 337.512 957.667 338.408 957.299 338.696C957.123 338.84 956.931 338.856 956.579 338.856C956.163 338.856 955.091 338.84 954.067 338.744C954.323 339.112 954.531 339.656 954.547 340.04C955.523 340.104 956.499 340.104 957.027 340.072C957.683 340.04 958.083 339.944 958.483 339.592C959.059 339.08 959.411 337.848 959.779 335.016C959.811 334.824 959.859 334.408 959.859 334.408H954.067ZM951.331 328.424H957.475C956.563 329.256 955.347 329.928 953.955 330.488C952.771 329.992 951.811 329.368 951.155 328.6L951.331 328.424ZM958.947 327.096L958.691 327.16H952.483C952.819 326.744 953.123 326.312 953.379 325.88L951.859 325.576C951.043 326.936 949.507 328.472 947.267 329.576C947.571 329.8 947.987 330.36 948.163 330.696C948.915 330.312 949.587 329.864 950.179 329.4C950.787 330.04 951.475 330.584 952.275 331.048C950.499 331.544 948.579 331.88 946.675 332.056C946.899 332.392 947.139 332.984 947.251 333.352C949.539 333.08 951.875 332.616 953.955 331.848C955.779 332.568 957.971 332.968 960.403 333.16C960.579 332.776 960.915 332.168 961.235 331.848C959.235 331.736 957.363 331.496 955.763 331.08C957.475 330.232 958.915 329.112 959.859 327.704L958.947 327.096ZM971.305 335.464V337.304H967.929V335.464H971.305ZM972.697 338.504V334.28H966.553V339.432H967.929V338.504H972.697ZM973.641 327.624V329.368H965.513V327.624H973.641ZM965.481 331.848C965.497 331.432 965.513 331.032 965.513 330.648H975.129V326.36H964.041V330.184C964.041 332.744 963.881 336.36 962.105 338.904C962.425 339.08 963.049 339.56 963.305 339.848C964.601 337.992 965.161 335.464 965.385 333.16H974.729C974.585 336.904 974.393 338.328 974.089 338.664C973.945 338.84 973.801 338.904 973.529 338.888C973.225 338.904 972.537 338.888 971.785 338.808C972.025 339.208 972.185 339.8 972.201 340.216C973.033 340.248 973.817 340.248 974.265 340.184C974.745 340.136 975.097 340.008 975.417 339.608C975.881 339.032 976.057 337.24 976.249 332.504C976.265 332.296 976.265 331.848 976.265 331.848H965.481Z" fill="white"/>
<rect x="680" y="578" width="120" height="90" rx="10" fill="#F6F7FE"/>
<rect x="540" y="578" width="120" height="90" rx="10" fill="#F6F7FE"/>
<rect x="400" y="578" width="120" height="90" rx="10" fill="#F6F7FE"/>
<path d="M719.087 624.256H712.831V622.864H719.087V624.256ZM712.831 626.896V625.504H719.087V626.896H712.831ZM722.383 619.968V618.576H714.431C714.639 618.032 714.815 617.472 714.991 616.928L713.471 616.576C713.295 617.232 713.071 617.904 712.799 618.576H708.415V619.968H712.191C711.183 621.936 709.791 623.776 707.983 624.992C708.287 625.264 708.735 625.824 708.959 626.144C709.855 625.52 710.655 624.768 711.359 623.936V631.264H712.831V628.144H719.087V629.52C719.087 629.76 719.007 629.84 718.735 629.84C718.463 629.856 717.503 629.856 716.559 629.808C716.751 630.208 716.975 630.848 717.023 631.248C718.351 631.248 719.247 631.248 719.807 631.008C720.383 630.784 720.543 630.336 720.543 629.536V621.568H713.007C713.295 621.056 713.583 620.512 713.839 619.968H722.383ZM738.069 625.376V623.904H732.053C732.069 623.712 732.069 623.536 732.069 623.36V621.36H737.221V619.888H734.277C734.821 619.072 735.445 618.064 735.941 617.152L734.341 616.608C733.957 617.616 733.237 618.928 732.629 619.888H728.517L729.541 619.328C729.237 618.576 728.549 617.488 727.877 616.688L726.629 617.312C727.221 618.08 727.845 619.136 728.149 619.888H725.253V621.36H730.357V623.328C730.357 623.504 730.357 623.696 730.341 623.904H724.245V625.376H730.037C729.477 626.976 727.925 628.624 723.845 629.92C724.261 630.272 724.741 630.896 724.949 631.248C728.821 629.952 730.629 628.272 731.445 626.544C732.773 628.8 734.741 630.384 737.477 631.168C737.717 630.704 738.181 630.048 738.533 629.696C735.685 629.04 733.621 627.504 732.405 625.376H738.069ZM747.547 618.24H744.459V616.656H743.019V618.24H739.947V619.536H747.547V618.24ZM745.707 622.56C746.027 621.904 746.379 620.912 746.731 620.016L745.323 619.696C745.147 620.448 744.811 621.568 744.523 622.256L745.707 622.56ZM742.843 622.224C742.747 621.568 742.491 620.528 742.139 619.776L740.907 620.048C741.211 620.816 741.467 621.856 741.531 622.528L742.843 622.224ZM745.499 626.528V629.104H741.947V626.528H745.499ZM740.571 631.264H741.947V630.4H745.499V631.2H746.955V625.216H740.571V631.264ZM739.563 623.984H747.755V622.624H739.563V623.984ZM753.163 617.44L752.923 617.504H748.331V631.264H749.787V618.896H752.331C751.883 620.144 751.259 621.824 750.683 623.072C752.155 624.4 752.571 625.568 752.571 626.496C752.571 627.072 752.459 627.488 752.139 627.68C751.963 627.792 751.755 627.84 751.499 627.856C751.211 627.872 750.827 627.856 750.411 627.824C750.651 628.24 750.795 628.864 750.811 629.296C751.259 629.296 751.755 629.312 752.123 629.264C752.539 629.2 752.891 629.088 753.195 628.88C753.771 628.496 754.011 627.744 754.011 626.672C754.011 625.584 753.659 624.336 752.187 622.88C752.875 621.488 753.643 619.648 754.267 618.128L753.163 617.44ZM756.097 631.264H757.601V619.904H756.097V631.264ZM756.609 617.28C757.409 618.208 758.401 619.504 758.865 620.304L760.065 619.424C759.601 618.64 758.561 617.424 757.761 616.528L756.609 617.28ZM769.233 617.136H760.433V618.56H767.729V629.44C767.729 629.76 767.617 629.856 767.313 629.856C766.993 629.888 765.873 629.888 764.801 629.84C765.025 630.208 765.265 630.864 765.329 631.248C766.817 631.264 767.809 631.232 768.417 630.992C769.009 630.768 769.233 630.336 769.233 629.456V617.136Z" fill="#283895"/>
<path d="M572.271 618.352C571.711 617.792 570.527 617.12 569.599 616.704L568.751 617.776C569.695 618.24 570.831 618.992 571.375 619.536L572.271 618.352ZM571.503 622.496C570.927 621.984 569.759 621.344 568.815 620.944L567.983 622.048C568.927 622.464 570.095 623.184 570.623 623.712L571.503 622.496ZM569.695 631.056C570.447 629.536 571.295 627.632 571.951 625.936L570.767 625.104C570.047 626.944 569.055 628.992 568.367 630.24L569.695 631.056ZM578.127 627.76L578.847 627.088C578.431 626.608 577.615 625.984 576.911 625.568H579.983C579.951 626.448 579.887 627.184 579.839 627.76H578.127ZM576.671 625.568L575.951 626.192C576.639 626.624 577.455 627.264 577.919 627.76H574.655C574.735 627.072 574.831 626.32 574.911 625.568H576.671ZM576.911 622.288L576.191 622.96C576.799 623.328 577.535 623.856 577.983 624.288H575.039C575.119 623.616 575.183 622.944 575.247 622.288H576.911ZM580.111 622.288C580.095 623.024 580.079 623.68 580.047 624.288H578.351L578.959 623.68C578.559 623.232 577.727 622.672 577.039 622.288H580.111ZM582.815 625.568V624.288H581.407C581.439 623.52 581.471 622.672 581.503 621.728C581.519 621.552 581.519 621.072 581.519 621.072H574.095C574.319 620.672 574.527 620.256 574.735 619.824H582.591V618.48H575.295C575.487 617.952 575.663 617.424 575.823 616.88L574.367 616.544C573.855 618.544 572.927 620.512 571.759 621.76C572.095 621.968 572.703 622.448 572.943 622.72C573.311 622.304 573.663 621.792 573.983 621.248C573.919 622.192 573.807 623.232 573.695 624.288H571.951V625.568H573.551C573.359 627.104 573.151 628.576 572.959 629.664L574.367 629.792C574.399 629.536 574.447 629.28 574.495 628.992H579.679C579.599 629.424 579.503 629.68 579.407 629.808C579.247 630.016 579.103 630.064 578.847 630.048C578.527 630.048 577.839 630.048 577.087 629.984C577.295 630.304 577.439 630.864 577.455 631.216C578.223 631.248 579.007 631.264 579.471 631.2C579.967 631.152 580.319 631.024 580.607 630.576C580.815 630.32 580.959 629.856 581.087 628.992H582.639V627.76H581.215C581.263 627.152 581.311 626.432 581.359 625.568H582.815ZM590.373 620.352C590.101 621.808 589.701 623.12 589.189 624.272C588.469 623.664 587.445 622.96 586.517 622.4C586.901 621.776 587.269 621.088 587.589 620.352H590.373ZM595.317 616.592H593.781V622.368C593.237 621.712 592.773 621.04 592.405 620.368L591.829 620.592C591.909 620.16 591.989 619.696 592.069 619.232L591.077 618.896L590.805 618.944H588.165C588.421 618.272 588.629 617.584 588.821 616.864L587.349 616.56C586.629 619.424 585.317 622.064 583.557 623.664C583.909 623.888 584.533 624.384 584.805 624.64C585.125 624.304 585.445 623.936 585.749 623.536C586.741 624.176 587.813 624.96 588.501 625.616C587.333 627.632 585.797 629.088 583.957 630.048C584.325 630.256 584.901 630.816 585.157 631.152C588.085 629.488 590.405 626.384 591.589 621.6C592.213 622.608 592.949 623.6 593.781 624.48V631.216H595.317V625.936C596.101 626.592 596.933 627.168 597.781 627.6C598.005 627.184 598.501 626.608 598.837 626.32C597.621 625.776 596.405 624.944 595.317 623.968V616.592ZM604.283 618.288C603.595 617.728 602.267 617.04 601.195 616.656L600.379 617.76C601.451 618.192 602.779 618.944 603.419 619.504L604.283 618.288ZM603.403 622.432C602.699 621.936 601.339 621.312 600.267 620.96L599.499 622.112C600.587 622.48 601.931 623.184 602.587 623.696L603.403 622.432ZM602.843 625.024C601.979 626.848 600.827 628.864 600.011 630.096L601.291 631.04C602.187 629.552 603.195 627.664 603.963 625.984L602.843 625.024ZM614.363 630.496C613.851 629.2 612.571 627.296 611.371 625.904L610.091 626.576C610.603 627.2 611.115 627.92 611.579 628.656C609.915 628.752 608.235 628.848 606.731 628.928C607.387 627.616 608.091 625.968 608.635 624.512H614.059V623.104H609.659V620.448H613.307V619.04H609.659V616.576H608.123V619.04H604.635V620.448H608.123V623.104H603.835V624.512H606.859C606.427 625.952 605.771 627.712 605.131 629.008L603.851 629.072L604.059 630.576C606.235 630.416 609.371 630.208 612.363 629.968C612.619 630.448 612.827 630.896 612.971 631.28L614.363 630.496ZM621.585 617.008C621.473 619.12 621.569 626.544 615.169 629.952C615.649 630.272 616.129 630.736 616.401 631.12C620.113 628.992 621.793 625.536 622.561 622.48C623.393 625.568 625.169 629.232 629.041 631.104C629.281 630.704 629.713 630.208 630.177 629.856C624.193 627.104 623.361 619.92 623.217 617.792C623.249 617.504 623.249 617.232 623.265 617.008H621.585Z" fill="#283895"/>
<path d="M449.706 620.128C449.114 621.968 448.026 624.304 447.178 625.76L448.41 626.4C449.274 624.896 450.314 622.688 451.066 620.784L449.706 620.128ZM441.066 625.744C440.65 624.304 439.69 621.904 438.89 620.08L437.53 620.512C438.314 622.352 439.21 624.816 439.578 626.288L441.066 625.744ZM446.986 629.008V616.8H445.466V629.008H443.05V616.784H441.53V629.008H437.226V630.48H451.29V629.008H446.986ZM460.192 625.408C460.32 624.992 460.416 624.528 460.496 624.048L458.944 623.92C458.88 624.464 458.784 624.96 458.656 625.408H454.016V626.688H458.16C457.232 628.496 455.536 629.488 452.944 630C453.216 630.288 453.648 630.912 453.792 631.248C456.8 630.464 458.72 629.168 459.76 626.688H464.352C464.08 628.512 463.792 629.408 463.424 629.696C463.248 629.84 463.056 629.856 462.704 629.856C462.288 629.856 461.216 629.84 460.192 629.744C460.448 630.112 460.656 630.656 460.672 631.04C461.648 631.104 462.624 631.104 463.152 631.072C463.808 631.04 464.208 630.944 464.608 630.592C465.184 630.08 465.536 628.848 465.904 626.016C465.936 625.824 465.984 625.408 465.984 625.408H460.192ZM457.456 619.424H463.6C462.688 620.256 461.472 620.928 460.08 621.488C458.896 620.992 457.936 620.368 457.28 619.6L457.456 619.424ZM465.072 618.096L464.816 618.16H458.608C458.944 617.744 459.248 617.312 459.504 616.88L457.984 616.576C457.168 617.936 455.632 619.472 453.392 620.576C453.696 620.8 454.112 621.36 454.288 621.696C455.04 621.312 455.712 620.864 456.304 620.4C456.912 621.04 457.6 621.584 458.4 622.048C456.624 622.544 454.704 622.88 452.8 623.056C453.024 623.392 453.264 623.984 453.376 624.352C455.664 624.08 458 623.616 460.08 622.848C461.904 623.568 464.096 623.968 466.528 624.16C466.704 623.776 467.04 623.168 467.36 622.848C465.36 622.736 463.488 622.496 461.888 622.08C463.6 621.232 465.04 620.112 465.984 618.704L465.072 618.096ZM476.422 618.24H473.334V616.656H471.894V618.24H468.822V619.536H476.422V618.24ZM474.582 622.56C474.902 621.904 475.254 620.912 475.606 620.016L474.198 619.696C474.022 620.448 473.686 621.568 473.398 622.256L474.582 622.56ZM471.718 622.224C471.622 621.568 471.366 620.528 471.014 619.776L469.782 620.048C470.086 620.816 470.342 621.856 470.406 622.528L471.718 622.224ZM474.374 626.528V629.104H470.822V626.528H474.374ZM469.446 631.264H470.822V630.4H474.374V631.2H475.83V625.216H469.446V631.264ZM468.438 623.984H476.63V622.624H468.438V623.984ZM482.038 617.44L481.798 617.504H477.206V631.264H478.662V618.896H481.206C480.758 620.144 480.134 621.824 479.558 623.072C481.03 624.4 481.446 625.568 481.446 626.496C481.446 627.072 481.334 627.488 481.014 627.68C480.838 627.792 480.63 627.84 480.374 627.856C480.086 627.872 479.702 627.856 479.286 627.824C479.526 628.24 479.67 628.864 479.686 629.296C480.134 629.296 480.63 629.312 480.998 629.264C481.414 629.2 481.766 629.088 482.07 628.88C482.646 628.496 482.886 627.744 482.886 626.672C482.886 625.584 482.534 624.336 481.062 622.88C481.75 621.488 482.518 619.648 483.142 618.128L482.038 617.44Z" fill="#283895"/>
</svg>
