<svg width="327" height="562" viewBox="0 0 327 562" fill="none" xmlns="http://www.w3.org/2000/svg">
<path d="M164 474L164 214" stroke="#7094F0" stroke-linecap="round" stroke-linejoin="round" stroke-dasharray="2 4"/>
<path d="M164 150L164 84" stroke="#7094F0" stroke-linecap="round" stroke-linejoin="round" stroke-dasharray="2 4"/>
<path d="M164.768 122.078L167.633 118.64C168.176 117.989 167.713 117 166.865 117L161.135 117C160.287 117 159.824 117.989 160.367 118.64L163.232 122.078C163.631 122.558 164.368 122.558 164.768 122.078Z" fill="#7094F0"/>
<path d="M163.232 94.9219L160.367 98.3598C159.824 99.0111 160.287 100 161.135 100H166.865C167.713 100 168.176 99.0111 167.633 98.3598L164.768 94.9219C164.368 94.4421 163.631 94.4421 163.232 94.9219Z" fill="#7094F0"/>
<path d="M282.043 522L282.043 442" stroke="#7094F0" stroke-linecap="round" stroke-linejoin="round" stroke-dasharray="2 4"/>
<path d="M45.0427 522L45.0427 442" stroke="#7094F0" stroke-linecap="round" stroke-linejoin="round" stroke-dasharray="2 4"/>
<path d="M45.0412 442H282.041" stroke="#7094F0" stroke-linecap="round" stroke-linejoin="round" stroke-dasharray="2 4"/>
<path d="M164 268L283 268" stroke="#7094F0" stroke-linecap="round" stroke-linejoin="round" stroke-dasharray="2 4"/>
<rect x="44" width="240" height="94" rx="7" fill="#F6F7FE"/>
<rect x="54" y="44" width="220" height="40" rx="7" fill="#435CE7"/>
<path d="M116.025 63.588V66.388H112.805V63.588H116.025ZM117.313 67.62V62.356H111.545V68.712H112.805V67.62H117.313ZM122.605 59.22H110.173V60.522H119.581V69.342C119.581 69.636 119.483 69.72 119.175 69.734C118.839 69.734 117.677 69.748 116.613 69.692C116.823 70.07 117.089 70.714 117.159 71.092C118.559 71.092 119.539 71.078 120.141 70.84C120.729 70.644 120.939 70.21 120.939 69.37V60.522H122.605V59.22ZM127.899 64.232L126.653 64.61V62.188H127.997V60.984H126.653V58.282H125.449V60.984H123.755V62.188H125.449V64.946C124.735 65.156 124.077 65.338 123.559 65.478L123.853 66.738L125.449 66.234V69.608C125.449 69.804 125.379 69.86 125.211 69.86C125.057 69.86 124.525 69.86 123.979 69.846C124.133 70.182 124.287 70.742 124.329 71.05C125.211 71.064 125.771 71.008 126.149 70.812C126.513 70.602 126.653 70.266 126.653 69.608V65.87L128.067 65.422L127.899 64.232ZM129.257 67.228C129.859 67.984 130.503 69.02 130.755 69.692L131.861 69.034C131.567 68.362 130.881 67.368 130.279 66.654L129.257 67.228ZM136.551 63.854V62.664H133.023V61.152H135.893V59.962H133.023V58.31H131.777V59.962H128.865V61.152H131.777V62.664H128.207V63.854H133.583V65.212H128.361V66.402H133.583V69.622C133.583 69.818 133.527 69.874 133.317 69.888C133.107 69.902 132.379 69.902 131.665 69.86C131.833 70.21 132.001 70.742 132.057 71.106C133.065 71.106 133.765 71.092 134.227 70.896C134.675 70.7 134.815 70.35 134.815 69.65V66.402H136.467V65.212H134.815V63.854H136.551ZM149.069 64.554C149.405 63.854 149.741 62.762 150.021 61.796L149.195 61.6L148.985 61.642H146.717V60.55H149.265V59.458H146.717V58.268H145.443V59.458H143.007V60.55H145.443V61.642H142.503V62.748H148.579C148.425 63.322 148.229 63.896 148.061 64.316L149.069 64.554ZM145.723 64.288C145.359 63.924 144.617 63.448 144.015 63.126L143.455 63.77C144.043 64.106 144.771 64.61 145.135 64.988L145.723 64.288ZM144.813 65.59C144.421 65.212 143.651 64.68 143.035 64.358L142.433 65.002C143.063 65.352 143.819 65.926 144.197 66.318L144.813 65.59ZM139.689 65.674C140.599 64.512 141.467 63.112 142.195 61.768L141.201 61.152C140.977 61.684 140.697 62.202 140.417 62.692L138.989 62.818C139.787 61.656 140.571 60.2 141.131 58.8L140.011 58.282C139.479 59.92 138.499 61.726 138.205 62.174C137.897 62.636 137.659 62.958 137.407 63.028C137.547 63.336 137.729 63.896 137.785 64.148C137.995 64.036 138.317 63.966 139.745 63.798C139.227 64.596 138.765 65.254 138.541 65.506C138.121 66.024 137.813 66.36 137.519 66.43C137.645 66.724 137.827 67.256 137.883 67.494C138.191 67.284 138.667 67.116 141.873 66.234C141.831 65.996 141.803 65.492 141.817 65.156L139.689 65.674ZM141.789 67.522C140.207 68.096 138.569 68.684 137.491 69.034L137.785 70.238C138.989 69.762 140.543 69.174 142.013 68.572L141.789 67.522ZM149.951 67.48V66.36H146.871C146.969 65.828 146.997 65.31 146.997 64.82V63.224H145.807V64.778C145.807 65.282 145.779 65.814 145.639 66.36H142.209V67.48H145.233C144.715 68.46 143.721 69.412 141.915 70.168C142.153 70.406 142.531 70.854 142.685 71.134C144.967 70.14 146.073 68.81 146.577 67.48H149.951ZM146.465 68.572C147.529 69.314 148.817 70.406 149.419 71.134L150.259 70.322C149.629 69.608 148.299 68.572 147.249 67.858L146.465 68.572ZM164.177 63.924C163.449 63.462 162.161 62.818 160.985 62.314C161.923 61.488 162.707 60.508 163.239 59.388L162.329 58.912L162.077 58.968H156.575V60.144H161.237C159.991 61.838 157.779 63.182 155.637 63.854C155.917 64.134 156.253 64.638 156.435 64.96C157.653 64.512 158.885 63.91 159.977 63.126C161.209 63.7 162.665 64.442 163.407 64.96L164.177 63.924ZM153.523 65.744C154.573 64.582 155.595 63.224 156.449 61.838L155.329 61.11C155.063 61.6 154.769 62.104 154.447 62.58L152.809 62.734C153.607 61.586 154.419 60.172 155.007 58.8L153.775 58.226C153.243 59.85 152.221 61.628 151.899 62.062C151.591 62.538 151.353 62.846 151.073 62.916C151.227 63.252 151.451 63.882 151.493 64.148C151.717 64.036 152.081 63.952 153.621 63.742C153.061 64.526 152.557 65.114 152.291 65.38C151.843 65.87 151.507 66.192 151.171 66.262C151.325 66.612 151.535 67.228 151.591 67.494C151.941 67.298 152.459 67.144 155.959 66.458C155.945 66.192 155.945 65.66 155.987 65.324L153.523 65.744ZM155.889 67.956C154.167 68.376 152.375 68.81 151.213 69.048L151.451 70.336C152.753 69.986 154.433 69.538 156.029 69.104L155.889 67.956ZM160.635 66.5H163.379V65.324H156.687V66.5H159.333V69.538H155.847V70.756H164.065V69.538H160.635V66.5ZM174.945 68.166V69.594H167.959V68.166H174.945ZM166.727 71.134H167.959V70.658H174.945V71.106H176.247V67.046H166.727V71.134ZM173.825 65.422H168.981V64.358H173.825V65.422ZM167.763 63.462V66.318H175.099V63.462H167.763ZM165.635 64.47H166.825V62.72H175.981V64.47H177.227V61.698H165.635V64.47ZM174.497 59.332V58.268H173.209V59.332H169.485V58.268H168.197V59.332H165.271V60.508H168.197V61.348H169.485V60.508H173.209V61.348H174.497V60.508H177.507V59.332H174.497ZM187.113 66.836C186.735 67.48 186.245 67.998 185.629 68.418C184.691 68.194 183.711 67.97 182.745 67.774C182.969 67.466 183.179 67.158 183.389 66.836H187.113ZM185.741 64.75V62.328C187.029 63.616 188.933 64.666 190.739 65.212C190.935 64.876 191.299 64.4 191.579 64.134C190.011 63.77 188.345 63.028 187.169 62.132H191.243V61.068H185.741V59.78C187.295 59.64 188.765 59.444 189.941 59.192L188.975 58.268C186.917 58.716 183.123 58.982 179.959 59.052C180.057 59.304 180.197 59.78 180.225 60.046C181.569 60.032 183.025 59.976 184.453 59.878V61.068H178.979V62.132H183.053C181.891 63.084 180.225 63.868 178.629 64.274C178.895 64.512 179.259 64.974 179.427 65.296C181.247 64.736 183.165 63.644 184.453 62.328V64.624L183.501 64.358C183.249 64.792 182.941 65.268 182.619 65.758H178.825V66.836H181.891C181.429 67.508 180.967 68.152 180.589 68.656L181.821 69.062L182.059 68.74C182.731 68.88 183.389 69.034 184.033 69.188C182.731 69.636 181.079 69.86 179.021 69.972C179.245 70.266 179.441 70.742 179.539 71.106C182.255 70.882 184.341 70.476 185.881 69.664C187.575 70.14 189.087 70.63 190.221 71.106L191.005 70.028C189.983 69.636 188.625 69.216 187.127 68.81C187.729 68.278 188.219 67.62 188.569 66.836H191.439V65.758H184.103C184.327 65.408 184.551 65.072 184.747 64.75H185.741ZM195.865 59.976H201.913V61.32H195.865V59.976ZM194.507 58.856V62.44H203.355V58.856H194.507ZM198.091 65.52V66.766C198.091 67.802 197.699 69.202 192.785 70.126C193.107 70.406 193.499 70.91 193.667 71.204C198.777 70.042 199.505 68.264 199.505 66.794V65.52H198.091ZM199.309 69.174C200.961 69.734 203.215 70.602 204.349 71.19L205.021 70.07C203.817 69.51 201.535 68.698 199.953 68.208L199.309 69.174ZM193.975 63.546V68.628H195.333V64.75H202.529V68.502H203.929V63.546H193.975ZM209.601 62.496C210.847 61.558 211.911 60.508 212.583 59.528C213.325 60.55 214.473 61.6 215.733 62.496H209.601ZM209.335 63.7H215.887V62.608C216.699 63.182 217.553 63.672 218.365 64.064C218.589 63.672 218.883 63.21 219.191 62.888C217.007 62.034 214.683 60.326 213.199 58.268H211.855C210.805 59.976 208.523 61.992 206.129 63.084C206.409 63.364 206.759 63.854 206.899 64.148C207.739 63.742 208.565 63.238 209.335 62.692V63.7ZM206.927 66.374H210.399C210.063 67.312 209.559 68.432 209.097 69.3L207.025 69.37L207.193 70.644C209.573 70.546 213.129 70.392 216.461 70.224C216.713 70.56 216.923 70.868 217.077 71.134L218.267 70.392C217.623 69.356 216.293 67.872 215.019 66.794L213.899 67.396C214.445 67.886 215.005 68.474 215.523 69.062C213.815 69.132 212.079 69.202 210.525 69.258C211.029 68.362 211.547 67.312 212.009 66.374H218.421V65.156H206.927V66.374Z" fill="white"/>
<path d="M148.248 26.018C147.772 26.186 147.268 26.34 146.792 26.494V23.33H148.122V22.126H146.792V19.34H148.346V18.136H143.894V19.34H145.546V22.126H144.034V23.33H145.546V26.886C144.874 27.096 144.258 27.264 143.754 27.404L144.062 28.734C145.322 28.328 146.946 27.782 148.472 27.25L148.248 26.018ZM150.138 21.538H151.972V23.078H150.138V21.538ZM150.138 18.99H151.972V20.502H150.138V18.99ZM154.87 20.502H153.078V18.99H154.87V20.502ZM154.87 23.078H153.078V21.538H154.87V23.078ZM153.19 28.468V26.802H156.298V25.626H153.19V24.184H156.116V17.884H148.948V24.184H151.86V25.626H148.822V26.802H151.86V28.468H147.8V29.658H156.746V28.468H153.19ZM167.584 27.054H164.602V26.186H167.584V27.054ZM164.602 24.366H167.584V25.164H164.602V24.366ZM160.654 21.748V20.908H163.286V21.748H160.654ZM167.36 20.908V21.748H164.602V20.908H167.36ZM170.356 25.164H168.9V23.442H164.602V22.616H168.676V20.04H164.602V19.326H170.062V18.276H164.602V17.254H163.286V18.276H157.98V19.326H163.286V20.04H159.408V22.616H163.286V23.442H159.044V24.366H163.286V25.164H157.686V26.186H163.286V27.054H158.918V28.034H163.286V28.776C163.286 29.014 163.202 29.084 162.95 29.098C162.726 29.112 161.886 29.112 161.116 29.084C161.298 29.364 161.494 29.84 161.564 30.134C162.74 30.134 163.468 30.12 163.944 29.952C164.42 29.77 164.602 29.476 164.602 28.762V28.034H167.584V28.636H168.9V26.186H170.356V25.164ZM174.726 21.496C175.972 20.558 177.036 19.508 177.708 18.528C178.45 19.55 179.598 20.6 180.858 21.496H174.726ZM174.46 22.7H181.012V21.608C181.824 22.182 182.678 22.672 183.49 23.064C183.714 22.672 184.008 22.21 184.316 21.888C182.132 21.034 179.808 19.326 178.324 17.268H176.98C175.93 18.976 173.648 20.992 171.254 22.084C171.534 22.364 171.884 22.854 172.024 23.148C172.864 22.742 173.69 22.238 174.46 21.692V22.7ZM172.052 25.374H175.524C175.188 26.312 174.684 27.432 174.222 28.3L172.15 28.37L172.318 29.644C174.698 29.546 178.254 29.392 181.586 29.224C181.838 29.56 182.048 29.868 182.202 30.134L183.392 29.392C182.748 28.356 181.418 26.872 180.144 25.794L179.024 26.396C179.57 26.886 180.13 27.474 180.648 28.062C178.94 28.132 177.204 28.202 175.65 28.258C176.154 27.362 176.672 26.312 177.134 25.374H183.546V24.156H172.052V25.374Z" fill="#222222"/>
<rect x="44" y="124" width="240" height="94" rx="7" fill="#F6F7FE"/>
<rect x="54" y="168" width="220" height="40" rx="7" fill="#435CE7"/>
<path d="M116.025 187.588V190.388H112.805V187.588H116.025ZM117.313 191.62V186.356H111.545V192.712H112.805V191.62H117.313ZM122.605 183.22H110.173V184.522H119.581V193.342C119.581 193.636 119.483 193.72 119.175 193.734C118.839 193.734 117.677 193.748 116.613 193.692C116.823 194.07 117.089 194.714 117.159 195.092C118.559 195.092 119.539 195.078 120.141 194.84C120.729 194.644 120.939 194.21 120.939 193.37V184.522H122.605V183.22ZM127.899 188.232L126.653 188.61V186.188H127.997V184.984H126.653V182.282H125.449V184.984H123.755V186.188H125.449V188.946C124.735 189.156 124.077 189.338 123.559 189.478L123.853 190.738L125.449 190.234V193.608C125.449 193.804 125.379 193.86 125.211 193.86C125.057 193.86 124.525 193.86 123.979 193.846C124.133 194.182 124.287 194.742 124.329 195.05C125.211 195.064 125.771 195.008 126.149 194.812C126.513 194.602 126.653 194.266 126.653 193.608V189.87L128.067 189.422L127.899 188.232ZM129.257 191.228C129.859 191.984 130.503 193.02 130.755 193.692L131.861 193.034C131.567 192.362 130.881 191.368 130.279 190.654L129.257 191.228ZM136.551 187.854V186.664H133.023V185.152H135.893V183.962H133.023V182.31H131.777V183.962H128.865V185.152H131.777V186.664H128.207V187.854H133.583V189.212H128.361V190.402H133.583V193.622C133.583 193.818 133.527 193.874 133.317 193.888C133.107 193.902 132.379 193.902 131.665 193.86C131.833 194.21 132.001 194.742 132.057 195.106C133.065 195.106 133.765 195.092 134.227 194.896C134.675 194.7 134.815 194.35 134.815 193.65V190.402H136.467V189.212H134.815V187.854H136.551ZM149.069 188.554C149.405 187.854 149.741 186.762 150.021 185.796L149.195 185.6L148.985 185.642H146.717V184.55H149.265V183.458H146.717V182.268H145.443V183.458H143.007V184.55H145.443V185.642H142.503V186.748H148.579C148.425 187.322 148.229 187.896 148.061 188.316L149.069 188.554ZM145.723 188.288C145.359 187.924 144.617 187.448 144.015 187.126L143.455 187.77C144.043 188.106 144.771 188.61 145.135 188.988L145.723 188.288ZM144.813 189.59C144.421 189.212 143.651 188.68 143.035 188.358L142.433 189.002C143.063 189.352 143.819 189.926 144.197 190.318L144.813 189.59ZM139.689 189.674C140.599 188.512 141.467 187.112 142.195 185.768L141.201 185.152C140.977 185.684 140.697 186.202 140.417 186.692L138.989 186.818C139.787 185.656 140.571 184.2 141.131 182.8L140.011 182.282C139.479 183.92 138.499 185.726 138.205 186.174C137.897 186.636 137.659 186.958 137.407 187.028C137.547 187.336 137.729 187.896 137.785 188.148C137.995 188.036 138.317 187.966 139.745 187.798C139.227 188.596 138.765 189.254 138.541 189.506C138.121 190.024 137.813 190.36 137.519 190.43C137.645 190.724 137.827 191.256 137.883 191.494C138.191 191.284 138.667 191.116 141.873 190.234C141.831 189.996 141.803 189.492 141.817 189.156L139.689 189.674ZM141.789 191.522C140.207 192.096 138.569 192.684 137.491 193.034L137.785 194.238C138.989 193.762 140.543 193.174 142.013 192.572L141.789 191.522ZM149.951 191.48V190.36H146.871C146.969 189.828 146.997 189.31 146.997 188.82V187.224H145.807V188.778C145.807 189.282 145.779 189.814 145.639 190.36H142.209V191.48H145.233C144.715 192.46 143.721 193.412 141.915 194.168C142.153 194.406 142.531 194.854 142.685 195.134C144.967 194.14 146.073 192.81 146.577 191.48H149.951ZM146.465 192.572C147.529 193.314 148.817 194.406 149.419 195.134L150.259 194.322C149.629 193.608 148.299 192.572 147.249 191.858L146.465 192.572ZM164.177 187.924C163.449 187.462 162.161 186.818 160.985 186.314C161.923 185.488 162.707 184.508 163.239 183.388L162.329 182.912L162.077 182.968H156.575V184.144H161.237C159.991 185.838 157.779 187.182 155.637 187.854C155.917 188.134 156.253 188.638 156.435 188.96C157.653 188.512 158.885 187.91 159.977 187.126C161.209 187.7 162.665 188.442 163.407 188.96L164.177 187.924ZM153.523 189.744C154.573 188.582 155.595 187.224 156.449 185.838L155.329 185.11C155.063 185.6 154.769 186.104 154.447 186.58L152.809 186.734C153.607 185.586 154.419 184.172 155.007 182.8L153.775 182.226C153.243 183.85 152.221 185.628 151.899 186.062C151.591 186.538 151.353 186.846 151.073 186.916C151.227 187.252 151.451 187.882 151.493 188.148C151.717 188.036 152.081 187.952 153.621 187.742C153.061 188.526 152.557 189.114 152.291 189.38C151.843 189.87 151.507 190.192 151.171 190.262C151.325 190.612 151.535 191.228 151.591 191.494C151.941 191.298 152.459 191.144 155.959 190.458C155.945 190.192 155.945 189.66 155.987 189.324L153.523 189.744ZM155.889 191.956C154.167 192.376 152.375 192.81 151.213 193.048L151.451 194.336C152.753 193.986 154.433 193.538 156.029 193.104L155.889 191.956ZM160.635 190.5H163.379V189.324H156.687V190.5H159.333V193.538H155.847V194.756H164.065V193.538H160.635V190.5ZM174.945 192.166V193.594H167.959V192.166H174.945ZM166.727 195.134H167.959V194.658H174.945V195.106H176.247V191.046H166.727V195.134ZM173.825 189.422H168.981V188.358H173.825V189.422ZM167.763 187.462V190.318H175.099V187.462H167.763ZM165.635 188.47H166.825V186.72H175.981V188.47H177.227V185.698H165.635V188.47ZM174.497 183.332V182.268H173.209V183.332H169.485V182.268H168.197V183.332H165.271V184.508H168.197V185.348H169.485V184.508H173.209V185.348H174.497V184.508H177.507V183.332H174.497ZM182.955 186.72V185.516H181.527V182.268H180.281V185.516H178.811V186.72H180.281V195.106H181.527V186.72H182.955ZM183.389 187.364C183.165 188.652 182.717 189.926 182.115 190.78C182.395 190.934 182.885 191.27 183.109 191.438C183.739 190.5 184.257 189.044 184.565 187.602L183.389 187.364ZM191.733 191.354C191.579 190.374 191.159 188.68 190.767 187.392L189.731 187.602C189.745 186.958 189.773 186.258 189.787 185.488V184.872H186.889V182.38H185.657V184.872H183.333V186.132H185.643C185.545 188.736 184.971 191.872 182.059 194.224C182.381 194.42 182.843 194.84 183.067 195.134C186.189 192.516 186.777 189.03 186.875 186.132H188.527C188.415 191.214 188.275 193.118 187.939 193.538C187.799 193.72 187.659 193.762 187.407 193.762C187.113 193.762 186.441 193.748 185.685 193.692C185.909 194.042 186.049 194.574 186.077 194.938C186.805 194.966 187.533 194.98 187.981 194.924C188.443 194.854 188.765 194.728 189.045 194.294C189.465 193.748 189.605 192.11 189.731 187.756C190.109 189.058 190.459 190.682 190.585 191.648L191.733 191.354ZM201.815 185.404C201.605 184.62 201.031 183.388 200.471 182.45L199.379 182.898C199.897 183.864 200.443 185.124 200.639 185.922L201.815 185.404ZM196.061 184.76C195.725 184.158 194.927 183.262 194.325 182.604L193.387 183.276C194.003 183.962 194.731 184.9 195.081 185.53L196.061 184.76ZM195.641 192.306V186.566H192.561V187.812H194.381V192.376C194.381 193.132 194.003 193.636 193.723 193.874C193.947 194.056 194.255 194.434 194.423 194.714L194.437 194.784L194.451 194.77L194.465 194.798V194.742C194.689 194.462 195.179 194.084 197.587 192.348C197.461 192.096 197.279 191.578 197.195 191.242L195.641 192.306ZM203.411 183.08C202.977 185.894 202.277 188.47 200.821 190.542C199.463 188.666 198.651 186.23 198.147 183.416L196.929 183.598C197.531 186.874 198.427 189.562 199.953 191.62C199.029 192.628 197.853 193.468 196.369 194.112C196.635 194.35 196.999 194.826 197.181 195.106C198.651 194.434 199.813 193.594 200.779 192.6C201.759 193.636 202.963 194.462 204.461 195.064C204.671 194.728 205.063 194.196 205.371 193.93C203.873 193.398 202.655 192.586 201.661 191.55C203.355 189.282 204.167 186.44 204.713 183.276L203.411 183.08ZM209.601 186.496C210.847 185.558 211.911 184.508 212.583 183.528C213.325 184.55 214.473 185.6 215.733 186.496H209.601ZM209.335 187.7H215.887V186.608C216.699 187.182 217.553 187.672 218.365 188.064C218.589 187.672 218.883 187.21 219.191 186.888C217.007 186.034 214.683 184.326 213.199 182.268H211.855C210.805 183.976 208.523 185.992 206.129 187.084C206.409 187.364 206.759 187.854 206.899 188.148C207.739 187.742 208.565 187.238 209.335 186.692V187.7ZM206.927 190.374H210.399C210.063 191.312 209.559 192.432 209.097 193.3L207.025 193.37L207.193 194.644C209.573 194.546 213.129 194.392 216.461 194.224C216.713 194.56 216.923 194.868 217.077 195.134L218.267 194.392C217.623 193.356 216.293 191.872 215.019 190.794L213.899 191.396C214.445 191.886 215.005 192.474 215.523 193.062C213.815 193.132 212.079 193.202 210.525 193.258C211.029 192.362 211.547 191.312 212.009 190.374H218.421V189.156H206.927V190.374Z" fill="white"/>
<path d="M153.792 151.586V152.692H147.702V151.586H153.792ZM152.826 147.834V148.828H147.702V147.834H152.826ZM147.702 149.794H154.128V146.868H146.47V154.12H147.702V153.686H153.792V154.092H155.094V150.606H147.702V149.794ZM156.62 142.262H152.196C152.336 142.01 152.476 141.744 152.588 141.478L151.328 141.17C151.048 141.884 150.6 142.57 150.054 143.144V142.262H146.652C146.792 142.01 146.918 141.744 147.03 141.492L145.812 141.17C145.378 142.248 144.608 143.326 143.782 144.026C144.09 144.194 144.594 144.53 144.846 144.74C145.238 144.362 145.644 143.872 146.008 143.326H146.442C146.708 143.802 146.988 144.348 147.1 144.712L148.262 144.362C148.164 144.082 147.968 143.704 147.758 143.326H149.872C149.662 143.522 149.438 143.718 149.214 143.872C149.34 143.928 149.494 144.012 149.662 144.096H149.592V145.118H144.398V147.792H145.616V146.14H154.954V147.792H156.228V145.118H150.838V144.096H150.81C151.048 143.858 151.272 143.606 151.482 143.326H152.476C152.84 143.802 153.218 144.362 153.358 144.74L154.576 144.376C154.436 144.068 154.17 143.69 153.904 143.326H156.62V142.262ZM161.998 150.018C161.522 150.186 161.018 150.34 160.542 150.494V147.33H161.872V146.126H160.542V143.34H162.096V142.136H157.644V143.34H159.296V146.126H157.784V147.33H159.296V150.886C158.624 151.096 158.008 151.264 157.504 151.404L157.812 152.734C159.072 152.328 160.696 151.782 162.222 151.25L161.998 150.018ZM163.888 145.538H165.722V147.078H163.888V145.538ZM163.888 142.99H165.722V144.502H163.888V142.99ZM168.62 144.502H166.828V142.99H168.62V144.502ZM168.62 147.078H166.828V145.538H168.62V147.078ZM166.94 152.468V150.802H170.048V149.626H166.94V148.184H169.866V141.884H162.698V148.184H165.61V149.626H162.572V150.802H165.61V152.468H161.55V153.658H170.496V152.468H166.94ZM181.88 143.004V144.46H173.872V143.004H181.88ZM183.182 145.566V141.898H172.556V145.972C172.556 148.156 172.458 151.25 171.198 153.406C171.52 153.532 172.122 153.868 172.36 154.064C173.676 151.796 173.872 148.324 173.872 145.958V145.566H183.182ZM182.944 147.764V146.63H175.076V147.764H182.944ZM183.896 150.158V149.01H174.222V150.158H176.644C176.126 151.096 175.51 151.908 175.272 152.16C174.992 152.496 174.726 152.72 174.488 152.776C174.656 153.112 174.866 153.7 174.95 153.952C175.426 153.784 176.126 153.714 181.81 153.308C182.02 153.658 182.188 153.98 182.314 154.246L183.532 153.658C183.084 152.832 182.16 151.418 181.432 150.368L180.284 150.844C180.578 151.278 180.886 151.782 181.208 152.286L176.476 152.552C177.106 151.866 177.736 151.012 178.268 150.158H183.896Z" fill="#222222"/>
<rect x="44" y="318" width="240" height="94" rx="7" fill="#F6F7FE"/>
<rect x="54" y="362" width="220" height="40" rx="7" fill="#283895"/>
<path d="M130.17 382.428H135.21V383.618H130.17V382.428ZM130.296 386.782H136.008V388H128.896V378.2H135.812V379.418H130.296V386.782ZM140.881 388.112C140.134 388.112 139.42 388 138.739 387.776C138.057 387.543 137.521 387.244 137.129 386.88L137.647 385.788C138.02 386.115 138.496 386.385 139.075 386.6C139.653 386.815 140.255 386.922 140.881 386.922C141.45 386.922 141.912 386.857 142.267 386.726C142.621 386.595 142.883 386.418 143.051 386.194C143.219 385.961 143.303 385.699 143.303 385.41C143.303 385.074 143.191 384.803 142.967 384.598C142.752 384.393 142.467 384.229 142.113 384.108C141.767 383.977 141.385 383.865 140.965 383.772C140.545 383.679 140.12 383.571 139.691 383.45C139.271 383.319 138.883 383.156 138.529 382.96C138.183 382.764 137.903 382.503 137.689 382.176C137.474 381.84 137.367 381.411 137.367 380.888C137.367 380.384 137.497 379.922 137.759 379.502C138.029 379.073 138.44 378.732 138.991 378.48C139.551 378.219 140.26 378.088 141.119 378.088C141.688 378.088 142.253 378.163 142.813 378.312C143.373 378.461 143.858 378.676 144.269 378.956L143.807 380.076C143.387 379.796 142.943 379.595 142.477 379.474C142.01 379.343 141.557 379.278 141.119 379.278C140.568 379.278 140.115 379.348 139.761 379.488C139.406 379.628 139.145 379.815 138.977 380.048C138.818 380.281 138.739 380.543 138.739 380.832C138.739 381.177 138.846 381.453 139.061 381.658C139.285 381.863 139.569 382.027 139.915 382.148C140.269 382.269 140.657 382.381 141.077 382.484C141.497 382.577 141.917 382.685 142.337 382.806C142.766 382.927 143.153 383.086 143.499 383.282C143.853 383.478 144.138 383.739 144.353 384.066C144.567 384.393 144.675 384.813 144.675 385.326C144.675 385.821 144.539 386.283 144.269 386.712C143.998 387.132 143.578 387.473 143.009 387.734C142.449 387.986 141.739 388.112 140.881 388.112ZM150.894 388.112C150.138 388.112 149.443 387.991 148.808 387.748C148.173 387.496 147.623 387.146 147.156 386.698C146.689 386.241 146.325 385.709 146.064 385.102C145.803 384.495 145.672 383.828 145.672 383.1C145.672 382.372 145.803 381.705 146.064 381.098C146.325 380.491 146.689 379.964 147.156 379.516C147.632 379.059 148.187 378.709 148.822 378.466C149.457 378.214 150.157 378.088 150.922 378.088C151.697 378.088 152.406 378.214 153.05 378.466C153.694 378.718 154.24 379.096 154.688 379.6L153.82 380.468C153.419 380.076 152.98 379.791 152.504 379.614C152.037 379.427 151.529 379.334 150.978 379.334C150.418 379.334 149.895 379.427 149.41 379.614C148.934 379.801 148.519 380.062 148.164 380.398C147.819 380.734 147.548 381.135 147.352 381.602C147.165 382.059 147.072 382.559 147.072 383.1C147.072 383.632 147.165 384.131 147.352 384.598C147.548 385.055 147.819 385.457 148.164 385.802C148.519 386.138 148.934 386.399 149.41 386.586C149.886 386.773 150.404 386.866 150.964 386.866C151.487 386.866 151.986 386.787 152.462 386.628C152.947 386.46 153.395 386.185 153.806 385.802L154.604 386.866C154.119 387.277 153.549 387.589 152.896 387.804C152.252 388.009 151.585 388.112 150.894 388.112ZM153.26 386.684V383.044H154.604V386.866L153.26 386.684ZM166.76 386.782V379.11H171.632V377.766H160.572V379.11H165.304V386.782H159.83V388.084H172.36V386.782H166.76ZM176.66 376.31C175.904 378.354 174.658 380.398 173.328 381.714C173.552 382.008 173.93 382.736 174.056 383.058C174.448 382.652 174.84 382.19 175.204 381.686V389.078H176.52V379.628C177.052 378.69 177.528 377.682 177.906 376.702L176.66 376.31ZM186.278 379.796V378.55H180.65C180.916 377.962 181.154 377.346 181.378 376.744L180.132 376.408C179.46 378.424 178.34 380.44 177.108 381.728C177.402 381.924 177.906 382.386 178.116 382.61C178.788 381.868 179.432 380.888 180.02 379.796H180.804V389.092H182.134V385.844H186.138V384.626H182.134V382.764H185.942V381.574H182.134V379.796H186.278ZM189.486 383.856C190.55 382.68 191.586 381.238 192.468 379.796L191.46 379.166C191.194 379.656 190.886 380.16 190.578 380.636L188.842 380.79C189.682 379.628 190.508 378.186 191.138 376.786L189.962 376.24C189.388 377.892 188.352 379.67 188.03 380.118C187.708 380.58 187.47 380.888 187.19 380.958C187.33 381.294 187.526 381.896 187.596 382.134C187.82 382.036 188.156 381.952 189.808 381.742C189.22 382.568 188.688 383.212 188.422 383.478C187.974 383.982 187.624 384.318 187.316 384.374C187.456 384.696 187.638 385.256 187.694 385.494C188.016 385.312 188.548 385.172 192.258 384.43C192.23 384.178 192.244 383.688 192.272 383.366L189.486 383.856ZM192.104 385.942C190.326 386.362 188.506 386.782 187.316 387.034L187.54 388.266C188.856 387.93 190.592 387.482 192.23 387.034L192.104 385.942ZM194.526 385.186H197.522V387.65H194.526V385.186ZM197.522 378.13V380.468H194.526V378.13H197.522ZM194.526 381.63H197.522V384.038H194.526V381.63ZM198.81 387.65V376.954H193.294V387.65H191.964V388.826H199.972V387.65H198.81Z" fill="white"/>
<path d="M150.936 345.782V338.11H155.808V336.766H144.748V338.11H149.48V345.782H144.006V347.084H156.536V345.782H150.936ZM160.836 335.31C160.08 337.354 158.834 339.398 157.504 340.714C157.728 341.008 158.106 341.736 158.232 342.058C158.624 341.652 159.016 341.19 159.38 340.686V348.078H160.696V338.628C161.228 337.69 161.704 336.682 162.082 335.702L160.836 335.31ZM170.454 338.796V337.55H164.826C165.092 336.962 165.33 336.346 165.554 335.744L164.308 335.408C163.636 337.424 162.516 339.44 161.284 340.728C161.578 340.924 162.082 341.386 162.292 341.61C162.964 340.868 163.608 339.888 164.196 338.796H164.98V348.092H166.31V344.844H170.314V343.626H166.31V341.764H170.118V340.574H166.31V338.796H170.454ZM173.662 342.856C174.726 341.68 175.762 340.238 176.644 338.796L175.636 338.166C175.37 338.656 175.062 339.16 174.754 339.636L173.018 339.79C173.858 338.628 174.684 337.186 175.314 335.786L174.138 335.24C173.564 336.892 172.528 338.67 172.206 339.118C171.884 339.58 171.646 339.888 171.366 339.958C171.506 340.294 171.702 340.896 171.772 341.134C171.996 341.036 172.332 340.952 173.984 340.742C173.396 341.568 172.864 342.212 172.598 342.478C172.15 342.982 171.8 343.318 171.492 343.374C171.632 343.696 171.814 344.256 171.87 344.494C172.192 344.312 172.724 344.172 176.434 343.43C176.406 343.178 176.42 342.688 176.448 342.366L173.662 342.856ZM176.28 344.942C174.502 345.362 172.682 345.782 171.492 346.034L171.716 347.266C173.032 346.93 174.768 346.482 176.406 346.034L176.28 344.942ZM178.702 344.186H181.698V346.65H178.702V344.186ZM181.698 337.13V339.468H178.702V337.13H181.698ZM178.702 340.63H181.698V343.038H178.702V340.63ZM182.986 346.65V335.954H177.47V346.65H176.14V347.826H184.148V346.65H182.986Z" fill="#222222"/>
<rect x="187" y="248" width="140" height="40" rx="7" fill="#435CE7"/>
<path d="M209.025 267.588V270.388H205.805V267.588H209.025ZM210.313 271.62V266.356H204.545V272.712H205.805V271.62H210.313ZM215.605 263.22H203.173V264.522H212.581V273.342C212.581 273.636 212.483 273.72 212.175 273.734C211.839 273.734 210.677 273.748 209.613 273.692C209.823 274.07 210.089 274.714 210.159 275.092C211.559 275.092 212.539 275.078 213.141 274.84C213.729 274.644 213.939 274.21 213.939 273.37V264.522H215.605V263.22ZM220.899 268.232L219.653 268.61V266.188H220.997V264.984H219.653V262.282H218.449V264.984H216.755V266.188H218.449V268.946C217.735 269.156 217.077 269.338 216.559 269.478L216.853 270.738L218.449 270.234V273.608C218.449 273.804 218.379 273.86 218.211 273.86C218.057 273.86 217.525 273.86 216.979 273.846C217.133 274.182 217.287 274.742 217.329 275.05C218.211 275.064 218.771 275.008 219.149 274.812C219.513 274.602 219.653 274.266 219.653 273.608V269.87L221.067 269.422L220.899 268.232ZM222.257 271.228C222.859 271.984 223.503 273.02 223.755 273.692L224.861 273.034C224.567 272.362 223.881 271.368 223.279 270.654L222.257 271.228ZM229.551 267.854V266.664H226.023V265.152H228.893V263.962H226.023V262.31H224.777V263.962H221.865V265.152H224.777V266.664H221.207V267.854H226.583V269.212H221.361V270.402H226.583V273.622C226.583 273.818 226.527 273.874 226.317 273.888C226.107 273.902 225.379 273.902 224.665 273.86C224.833 274.21 225.001 274.742 225.057 275.106C226.065 275.106 226.765 275.092 227.227 274.896C227.675 274.7 227.815 274.35 227.815 273.65V270.402H229.467V269.212H227.815V267.854H229.551ZM242.069 268.554C242.405 267.854 242.741 266.762 243.021 265.796L242.195 265.6L241.985 265.642H239.717V264.55H242.265V263.458H239.717V262.268H238.443V263.458H236.007V264.55H238.443V265.642H235.503V266.748H241.579C241.425 267.322 241.229 267.896 241.061 268.316L242.069 268.554ZM238.723 268.288C238.359 267.924 237.617 267.448 237.015 267.126L236.455 267.77C237.043 268.106 237.771 268.61 238.135 268.988L238.723 268.288ZM237.813 269.59C237.421 269.212 236.651 268.68 236.035 268.358L235.433 269.002C236.063 269.352 236.819 269.926 237.197 270.318L237.813 269.59ZM232.689 269.674C233.599 268.512 234.467 267.112 235.195 265.768L234.201 265.152C233.977 265.684 233.697 266.202 233.417 266.692L231.989 266.818C232.787 265.656 233.571 264.2 234.131 262.8L233.011 262.282C232.479 263.92 231.499 265.726 231.205 266.174C230.897 266.636 230.659 266.958 230.407 267.028C230.547 267.336 230.729 267.896 230.785 268.148C230.995 268.036 231.317 267.966 232.745 267.798C232.227 268.596 231.765 269.254 231.541 269.506C231.121 270.024 230.813 270.36 230.519 270.43C230.645 270.724 230.827 271.256 230.883 271.494C231.191 271.284 231.667 271.116 234.873 270.234C234.831 269.996 234.803 269.492 234.817 269.156L232.689 269.674ZM234.789 271.522C233.207 272.096 231.569 272.684 230.491 273.034L230.785 274.238C231.989 273.762 233.543 273.174 235.013 272.572L234.789 271.522ZM242.951 271.48V270.36H239.871C239.969 269.828 239.997 269.31 239.997 268.82V267.224H238.807V268.778C238.807 269.282 238.779 269.814 238.639 270.36H235.209V271.48H238.233C237.715 272.46 236.721 273.412 234.915 274.168C235.153 274.406 235.531 274.854 235.685 275.134C237.967 274.14 239.073 272.81 239.577 271.48H242.951ZM239.465 272.572C240.529 273.314 241.817 274.406 242.419 275.134L243.259 274.322C242.629 273.608 241.299 272.572 240.249 271.858L239.465 272.572ZM257.177 267.924C256.449 267.462 255.161 266.818 253.985 266.314C254.923 265.488 255.707 264.508 256.239 263.388L255.329 262.912L255.077 262.968H249.575V264.144H254.237C252.991 265.838 250.779 267.182 248.637 267.854C248.917 268.134 249.253 268.638 249.435 268.96C250.653 268.512 251.885 267.91 252.977 267.126C254.209 267.7 255.665 268.442 256.407 268.96L257.177 267.924ZM246.523 269.744C247.573 268.582 248.595 267.224 249.449 265.838L248.329 265.11C248.063 265.6 247.769 266.104 247.447 266.58L245.809 266.734C246.607 265.586 247.419 264.172 248.007 262.8L246.775 262.226C246.243 263.85 245.221 265.628 244.899 266.062C244.591 266.538 244.353 266.846 244.073 266.916C244.227 267.252 244.451 267.882 244.493 268.148C244.717 268.036 245.081 267.952 246.621 267.742C246.061 268.526 245.557 269.114 245.291 269.38C244.843 269.87 244.507 270.192 244.171 270.262C244.325 270.612 244.535 271.228 244.591 271.494C244.941 271.298 245.459 271.144 248.959 270.458C248.945 270.192 248.945 269.66 248.987 269.324L246.523 269.744ZM248.889 271.956C247.167 272.376 245.375 272.81 244.213 273.048L244.451 274.336C245.753 273.986 247.433 273.538 249.029 273.104L248.889 271.956ZM253.635 270.5H256.379V269.324H249.687V270.5H252.333V273.538H248.847V274.756H257.065V273.538H253.635V270.5ZM267.945 272.166V273.594H260.959V272.166H267.945ZM259.727 275.134H260.959V274.658H267.945V275.106H269.247V271.046H259.727V275.134ZM266.825 269.422H261.981V268.358H266.825V269.422ZM260.763 267.462V270.318H268.099V267.462H260.763ZM258.635 268.47H259.825V266.72H268.981V268.47H270.227V265.698H258.635V268.47ZM267.497 263.332V262.268H266.209V263.332H262.485V262.268H261.197V263.332H258.271V264.508H261.197V265.348H262.485V264.508H266.209V265.348H267.497V264.508H270.507V263.332H267.497ZM281.709 272.054H278.727V271.186H281.709V272.054ZM278.727 269.366H281.709V270.164H278.727V269.366ZM274.779 266.748V265.908H277.411V266.748H274.779ZM281.485 265.908V266.748H278.727V265.908H281.485ZM284.481 270.164H283.025V268.442H278.727V267.616H282.801V265.04H278.727V264.326H284.187V263.276H278.727V262.254H277.411V263.276H272.105V264.326H277.411V265.04H273.533V267.616H277.411V268.442H273.169V269.366H277.411V270.164H271.811V271.186H277.411V272.054H273.043V273.034H277.411V273.776C277.411 274.014 277.327 274.084 277.075 274.098C276.851 274.112 276.011 274.112 275.241 274.084C275.423 274.364 275.619 274.84 275.689 275.134C276.865 275.134 277.593 275.12 278.069 274.952C278.545 274.77 278.727 274.476 278.727 273.762V273.034H281.709V273.636H283.025V271.186H284.481V270.164ZM292.043 269.982C292.155 269.618 292.239 269.212 292.309 268.792L290.951 268.68C290.895 269.156 290.811 269.59 290.699 269.982H286.639V271.102H290.265C289.453 272.684 287.969 273.552 285.701 274C285.939 274.252 286.317 274.798 286.443 275.092C289.075 274.406 290.755 273.272 291.665 271.102H295.683C295.445 272.698 295.193 273.482 294.871 273.734C294.717 273.86 294.549 273.874 294.241 273.874C293.877 273.874 292.939 273.86 292.043 273.776C292.267 274.098 292.449 274.574 292.463 274.91C293.317 274.966 294.171 274.966 294.633 274.938C295.207 274.91 295.557 274.826 295.907 274.518C296.411 274.07 296.719 272.992 297.041 270.514C297.069 270.346 297.111 269.982 297.111 269.982H292.043ZM289.649 264.746H295.025C294.227 265.474 293.163 266.062 291.945 266.552C290.909 266.118 290.069 265.572 289.495 264.9L289.649 264.746ZM296.313 263.584L296.089 263.64H290.657C290.951 263.276 291.217 262.898 291.441 262.52L290.111 262.254C289.397 263.444 288.053 264.788 286.093 265.754C286.359 265.95 286.723 266.44 286.877 266.734C287.535 266.398 288.123 266.006 288.641 265.6C289.173 266.16 289.775 266.636 290.475 267.042C288.921 267.476 287.241 267.77 285.575 267.924C285.771 268.218 285.981 268.736 286.079 269.058C288.081 268.82 290.125 268.414 291.945 267.742C293.541 268.372 295.459 268.722 297.587 268.89C297.741 268.554 298.035 268.022 298.315 267.742C296.565 267.644 294.927 267.434 293.527 267.07C295.025 266.328 296.285 265.348 297.111 264.116L296.313 263.584ZM307.095 270.906V272.516H304.141V270.906H307.095ZM308.313 273.566V269.87H302.937V274.378H304.141V273.566H308.313ZM309.139 264.046V265.572H302.027V264.046H309.139ZM301.999 267.742C302.013 267.378 302.027 267.028 302.027 266.692H310.441V262.94H300.739V266.286C300.739 268.526 300.599 271.69 299.045 273.916C299.325 274.07 299.871 274.49 300.095 274.742C301.229 273.118 301.719 270.906 301.915 268.89H310.091C309.965 272.166 309.797 273.412 309.531 273.706C309.405 273.86 309.279 273.916 309.041 273.902C308.775 273.916 308.173 273.902 307.515 273.832C307.725 274.182 307.865 274.7 307.879 275.064C308.607 275.092 309.293 275.092 309.685 275.036C310.105 274.994 310.413 274.882 310.693 274.532C311.099 274.028 311.253 272.46 311.421 268.316C311.435 268.134 311.435 267.742 311.435 267.742H301.999Z" fill="white"/>
<rect x="237" y="472" width="90" height="90" rx="7" fill="#F6F7FE"/>
<rect x="118" y="472" width="90" height="90" rx="7" fill="#F6F7FE"/>
<rect y="472" width="90" height="90" rx="7" fill="#F6F7FE"/>
<path d="M263.623 517.974H258.149V516.756H263.623V517.974ZM258.149 520.284V519.066H263.623V520.284H258.149ZM266.507 514.222V513.004H259.549C259.731 512.528 259.885 512.038 260.039 511.562L258.709 511.254C258.555 511.828 258.359 512.416 258.121 513.004H254.285V514.222H257.589C256.707 515.944 255.489 517.554 253.907 518.618C254.173 518.856 254.565 519.346 254.761 519.626C255.545 519.08 256.245 518.422 256.861 517.694V524.106H258.149V521.376H263.623V522.58C263.623 522.79 263.553 522.86 263.315 522.86C263.077 522.874 262.237 522.874 261.411 522.832C261.579 523.182 261.775 523.742 261.817 524.092C262.979 524.092 263.763 524.092 264.253 523.882C264.757 523.686 264.897 523.294 264.897 522.594V515.622H258.303C258.555 515.174 258.807 514.698 259.031 514.222H266.507ZM280.201 518.954V517.666H274.937C274.951 517.498 274.951 517.344 274.951 517.19V515.44H279.459V514.152H276.883C277.359 513.438 277.905 512.556 278.339 511.758L276.939 511.282C276.603 512.164 275.973 513.312 275.441 514.152H271.843L272.739 513.662C272.473 513.004 271.871 512.052 271.283 511.352L270.191 511.898C270.709 512.57 271.255 513.494 271.521 514.152H268.987V515.44H273.453V517.162C273.453 517.316 273.453 517.484 273.439 517.666H268.105V518.954H273.173C272.683 520.354 271.325 521.796 267.755 522.93C268.119 523.238 268.539 523.784 268.721 524.092C272.109 522.958 273.691 521.488 274.405 519.976C275.567 521.95 277.289 523.336 279.683 524.022C279.893 523.616 280.299 523.042 280.607 522.734C278.115 522.16 276.309 520.816 275.245 518.954H280.201ZM288.463 512.71H285.761V511.324H284.501V512.71H281.813V513.844H288.463V512.71ZM286.853 516.49C287.133 515.916 287.441 515.048 287.749 514.264L286.517 513.984C286.363 514.642 286.069 515.622 285.817 516.224L286.853 516.49ZM284.347 516.196C284.263 515.622 284.039 514.712 283.731 514.054L282.653 514.292C282.919 514.964 283.143 515.874 283.199 516.462L284.347 516.196ZM286.671 519.962V522.216H283.563V519.962H286.671ZM282.359 524.106H283.563V523.35H286.671V524.05H287.945V518.814H282.359V524.106ZM281.477 517.736H288.645V516.546H281.477V517.736ZM293.377 512.01L293.167 512.066H289.149V524.106H290.423V513.284H292.649C292.257 514.376 291.711 515.846 291.207 516.938C292.495 518.1 292.859 519.122 292.859 519.934C292.859 520.438 292.761 520.802 292.481 520.97C292.327 521.068 292.145 521.11 291.921 521.124C291.669 521.138 291.333 521.124 290.969 521.096C291.179 521.46 291.305 522.006 291.319 522.384C291.711 522.384 292.145 522.398 292.467 522.356C292.831 522.3 293.139 522.202 293.405 522.02C293.909 521.684 294.119 521.026 294.119 520.088C294.119 519.136 293.811 518.044 292.523 516.77C293.125 515.552 293.797 513.942 294.343 512.612L293.377 512.01ZM295.913 524.106H297.229V514.166H295.913V524.106ZM296.361 511.87C297.061 512.682 297.929 513.816 298.335 514.516L299.385 513.746C298.979 513.06 298.069 511.996 297.369 511.212L296.361 511.87ZM307.407 511.744H299.707V512.99H306.091V522.51C306.091 522.79 305.993 522.874 305.727 522.874C305.447 522.902 304.467 522.902 303.529 522.86C303.725 523.182 303.935 523.756 303.991 524.092C305.293 524.106 306.161 524.078 306.693 523.868C307.211 523.672 307.407 523.294 307.407 522.524V511.744Z" fill="#283895"/>
<path d="M138.659 512.808C138.169 512.318 137.133 511.73 136.321 511.366L135.579 512.304C136.405 512.71 137.399 513.368 137.875 513.844L138.659 512.808ZM137.987 516.434C137.483 515.986 136.461 515.426 135.635 515.076L134.907 516.042C135.733 516.406 136.755 517.036 137.217 517.498L137.987 516.434ZM136.405 523.924C137.063 522.594 137.805 520.928 138.379 519.444L137.343 518.716C136.713 520.326 135.845 522.118 135.243 523.21L136.405 523.924ZM143.783 521.04L144.413 520.452C144.049 520.032 143.335 519.486 142.719 519.122H145.407C145.379 519.892 145.323 520.536 145.281 521.04H143.783ZM142.509 519.122L141.879 519.668C142.481 520.046 143.195 520.606 143.601 521.04H140.745C140.815 520.438 140.899 519.78 140.969 519.122H142.509ZM142.719 516.252L142.089 516.84C142.621 517.162 143.265 517.624 143.657 518.002H141.081C141.151 517.414 141.207 516.826 141.263 516.252H142.719ZM145.519 516.252C145.505 516.896 145.491 517.47 145.463 518.002H143.979L144.511 517.47C144.161 517.078 143.433 516.588 142.831 516.252H145.519ZM147.885 519.122V518.002H146.653C146.681 517.33 146.709 516.588 146.737 515.762C146.751 515.608 146.751 515.188 146.751 515.188H140.255C140.451 514.838 140.633 514.474 140.815 514.096H147.689V512.92H141.305C141.473 512.458 141.627 511.996 141.767 511.52L140.493 511.226C140.045 512.976 139.233 514.698 138.211 515.79C138.505 515.972 139.037 516.392 139.247 516.63C139.569 516.266 139.877 515.818 140.157 515.342C140.101 516.168 140.003 517.078 139.905 518.002H138.379V519.122H139.779C139.611 520.466 139.429 521.754 139.261 522.706L140.493 522.818C140.521 522.594 140.563 522.37 140.605 522.118H145.141C145.071 522.496 144.987 522.72 144.903 522.832C144.763 523.014 144.637 523.056 144.413 523.042C144.133 523.042 143.531 523.042 142.873 522.986C143.055 523.266 143.181 523.756 143.195 524.064C143.867 524.092 144.553 524.106 144.959 524.05C145.393 524.008 145.701 523.896 145.953 523.504C146.135 523.28 146.261 522.874 146.373 522.118H147.731V521.04H146.485C146.527 520.508 146.569 519.878 146.611 519.122H147.885ZM154.467 514.558C154.229 515.832 153.879 516.98 153.431 517.988C152.801 517.456 151.905 516.84 151.093 516.35C151.429 515.804 151.751 515.202 152.031 514.558H154.467ZM158.793 511.268H157.449V516.322C156.973 515.748 156.567 515.16 156.245 514.572L155.741 514.768C155.811 514.39 155.881 513.984 155.951 513.578L155.083 513.284L154.845 513.326H152.535C152.759 512.738 152.941 512.136 153.109 511.506L151.821 511.24C151.191 513.746 150.043 516.056 148.503 517.456C148.811 517.652 149.357 518.086 149.595 518.31C149.875 518.016 150.155 517.694 150.421 517.344C151.289 517.904 152.227 518.59 152.829 519.164C151.807 520.928 150.463 522.202 148.853 523.042C149.175 523.224 149.679 523.714 149.903 524.008C152.465 522.552 154.495 519.836 155.531 515.65C156.077 516.532 156.721 517.4 157.449 518.17V524.064H158.793V519.444C159.479 520.018 160.207 520.522 160.949 520.9C161.145 520.536 161.579 520.032 161.873 519.78C160.809 519.304 159.745 518.576 158.793 517.722V511.268ZM166.607 512.752C166.005 512.262 164.843 511.66 163.905 511.324L163.191 512.29C164.129 512.668 165.291 513.326 165.851 513.816L166.607 512.752ZM165.837 516.378C165.221 515.944 164.031 515.398 163.093 515.09L162.421 516.098C163.373 516.42 164.549 517.036 165.123 517.484L165.837 516.378ZM165.347 518.646C164.591 520.242 163.583 522.006 162.869 523.084L163.989 523.91C164.773 522.608 165.655 520.956 166.327 519.486L165.347 518.646ZM175.427 523.434C174.979 522.3 173.859 520.634 172.809 519.416L171.689 520.004C172.137 520.55 172.585 521.18 172.991 521.824C171.535 521.908 170.065 521.992 168.749 522.062C169.323 520.914 169.939 519.472 170.415 518.198H175.161V516.966H171.311V514.642H174.503V513.41H171.311V511.254H169.967V513.41H166.915V514.642H169.967V516.966H166.215V518.198H168.861C168.483 519.458 167.909 520.998 167.349 522.132L166.229 522.188L166.411 523.504C168.315 523.364 171.059 523.182 173.677 522.972C173.901 523.392 174.083 523.784 174.209 524.12L175.427 523.434ZM181.715 511.632C181.617 513.48 181.701 519.976 176.101 522.958C176.521 523.238 176.941 523.644 177.179 523.98C180.427 522.118 181.897 519.094 182.569 516.42C183.297 519.122 184.851 522.328 188.239 523.966C188.449 523.616 188.827 523.182 189.233 522.874C183.997 520.466 183.269 514.18 183.143 512.318C183.171 512.066 183.171 511.828 183.185 511.632H181.715Z" fill="#283895"/>
<path d="M35.024 514.362C34.506 515.972 33.554 518.016 32.812 519.29L33.89 519.85C34.646 518.534 35.556 516.602 36.214 514.936L35.024 514.362ZM27.464 519.276C27.1 518.016 26.26 515.916 25.56 514.32L24.37 514.698C25.056 516.308 25.84 518.464 26.162 519.752L27.464 519.276ZM32.644 522.132V511.45H31.314V522.132H29.2V511.436H27.87V522.132H24.104V523.42H36.41V522.132H32.644ZM44.168 518.982C44.28 518.618 44.364 518.212 44.434 517.792L43.076 517.68C43.02 518.156 42.936 518.59 42.824 518.982H38.764V520.102H42.39C41.578 521.684 40.094 522.552 37.826 523C38.064 523.252 38.442 523.798 38.568 524.092C41.2 523.406 42.88 522.272 43.79 520.102H47.808C47.57 521.698 47.318 522.482 46.996 522.734C46.842 522.86 46.674 522.874 46.366 522.874C46.002 522.874 45.064 522.86 44.168 522.776C44.392 523.098 44.574 523.574 44.588 523.91C45.442 523.966 46.296 523.966 46.758 523.938C47.332 523.91 47.682 523.826 48.032 523.518C48.536 523.07 48.844 521.992 49.166 519.514C49.194 519.346 49.236 518.982 49.236 518.982H44.168ZM41.774 513.746H47.15C46.352 514.474 45.288 515.062 44.07 515.552C43.034 515.118 42.194 514.572 41.62 513.9L41.774 513.746ZM48.438 512.584L48.214 512.64H42.782C43.076 512.276 43.342 511.898 43.566 511.52L42.236 511.254C41.522 512.444 40.178 513.788 38.218 514.754C38.484 514.95 38.848 515.44 39.002 515.734C39.66 515.398 40.248 515.006 40.766 514.6C41.298 515.16 41.9 515.636 42.6 516.042C41.046 516.476 39.366 516.77 37.7 516.924C37.896 517.218 38.106 517.736 38.204 518.058C40.206 517.82 42.25 517.414 44.07 516.742C45.666 517.372 47.584 517.722 49.712 517.89C49.866 517.554 50.16 517.022 50.44 516.742C48.69 516.644 47.052 516.434 45.652 516.07C47.15 515.328 48.41 514.348 49.236 513.116L48.438 512.584ZM58.338 512.71H55.636V511.324H54.376V512.71H51.688V513.844H58.338V512.71ZM56.728 516.49C57.008 515.916 57.316 515.048 57.624 514.264L56.392 513.984C56.238 514.642 55.944 515.622 55.692 516.224L56.728 516.49ZM54.222 516.196C54.138 515.622 53.914 514.712 53.606 514.054L52.528 514.292C52.794 514.964 53.018 515.874 53.074 516.462L54.222 516.196ZM56.546 519.962V522.216H53.438V519.962H56.546ZM52.234 524.106H53.438V523.35H56.546V524.05H57.82V518.814H52.234V524.106ZM51.352 517.736H58.52V516.546H51.352V517.736ZM63.252 512.01L63.042 512.066H59.024V524.106H60.298V513.284H62.524C62.132 514.376 61.586 515.846 61.082 516.938C62.37 518.1 62.734 519.122 62.734 519.934C62.734 520.438 62.636 520.802 62.356 520.97C62.202 521.068 62.02 521.11 61.796 521.124C61.544 521.138 61.208 521.124 60.844 521.096C61.054 521.46 61.18 522.006 61.194 522.384C61.586 522.384 62.02 522.398 62.342 522.356C62.706 522.3 63.014 522.202 63.28 522.02C63.784 521.684 63.994 521.026 63.994 520.088C63.994 519.136 63.686 518.044 62.398 516.77C63 515.552 63.672 513.942 64.218 512.612L63.252 512.01Z" fill="#283895"/>
</svg>
