<svg width="916" height="850" viewBox="0 0 916 850" fill="none" xmlns="http://www.w3.org/2000/svg">
<rect y="1" width="328" height="848" fill="#D9D9D9"/>
<path d="M0 1H916V849H0V1Z" fill="white"/>
<path d="M190 849L190 1" stroke="#DDDDDD" stroke-linecap="round" stroke-linejoin="round" stroke-dasharray="2 4"/>
<path d="M530 833L530 1" stroke="#DDDDDD" stroke-linecap="round" stroke-linejoin="round" stroke-dasharray="2 4"/>
<path d="M300 177L300 111" stroke="#7094F0" stroke-linecap="round" stroke-linejoin="round" stroke-dasharray="2 4"/>
<path d="M300.768 180.078L303.633 176.64C304.176 175.989 303.713 175 302.865 175L297.135 175C296.287 175 295.824 175.989 296.367 176.64L299.232 180.078C299.632 180.558 300.368 180.558 300.768 180.078Z" fill="#7094F0"/>
<path d="M300 396L300 330" stroke="#7094F0" stroke-linecap="round" stroke-linejoin="round" stroke-dasharray="2 4"/>
<path d="M300 486L300 420" stroke="#7094F0" stroke-linecap="round" stroke-linejoin="round" stroke-dasharray="2 4"/>
<path d="M300.769 400.078L303.634 396.64C304.176 395.989 303.713 395 302.865 395L297.136 395C296.288 395 295.825 395.989 296.367 396.64L299.232 400.078C299.632 400.558 300.369 400.558 300.769 400.078Z" fill="#7094F0"/>
<path d="M300.769 490.078L303.634 486.64C304.176 485.989 303.713 485 302.865 485L297.136 485C296.288 485 295.825 485.989 296.367 486.64L299.232 490.078C299.632 490.558 300.369 490.558 300.769 490.078Z" fill="#7094F0"/>
<path d="M380.001 106L545.001 106" stroke="#7094F0" stroke-linecap="round" stroke-linejoin="round" stroke-dasharray="2 4"/>
<rect x="220" y="81" width="160" height="50" rx="7" fill="#435CE7"/>
<rect x="560" y="81" width="332" height="50" rx="7" fill="#283895"/>
<path d="M612.975 155.656H610.863V163.08H612.975V155.656ZM609.791 161.256C607.407 160.552 606.351 158.84 606.351 157.096V155.992H604.207V157.096C604.207 158.888 603.135 160.744 600.687 161.496L601.711 163.144C603.439 162.616 604.639 161.496 605.311 160.104C605.967 161.384 607.103 162.408 608.783 162.904L609.791 161.256ZM605.279 168.632V167.72H612.991V163.736H603.167V165.352H610.895V166.216H603.183V170.264H613.359V168.632H605.279ZM620.643 156.776H618.515V158.92C618.515 161.656 617.395 164.472 614.915 165.64L616.179 167.352C617.843 166.536 618.947 164.984 619.587 163.112C620.195 164.872 621.235 166.296 622.771 167.08L624.051 165.416C621.683 164.248 620.643 161.576 620.643 158.92V156.776ZM628.899 161.304H626.755V155.64H624.643V170.376H626.755V163.064H628.899V161.304ZM644.065 155.624V170.408H646.177V155.624H644.065ZM634.689 156.808V166.968H641.953V156.808H639.857V160.376H636.785V156.808H634.689ZM636.785 162.024H639.857V165.288H636.785V162.024ZM650.934 159.048H654.31V157.336H648.854V167.064H649.878C651.766 167.064 653.334 167 655.126 166.664L654.966 164.952C653.558 165.208 652.31 165.288 650.934 165.32V159.048ZM659.078 155.624V161.304H657.75V155.912H655.782V169.688H657.75V163H659.078V170.376H661.078V155.624H659.078ZM671.595 162.168C669.275 161.448 668.283 159.72 668.283 157.944V156.44H666.139V157.768C666.139 159.768 665.147 161.736 662.683 162.552L663.787 164.216C665.467 163.624 666.603 162.488 667.243 161.048C667.867 162.296 668.939 163.288 670.491 163.8L671.595 162.168ZM669.691 168.744C667.803 168.744 666.795 168.36 666.795 167.528C666.795 166.712 667.803 166.328 669.691 166.328C671.563 166.328 672.571 166.712 672.571 167.528C672.571 168.36 671.563 168.744 669.691 168.744ZM669.691 164.696C666.619 164.696 664.699 165.752 664.699 167.528C664.699 169.32 666.619 170.376 669.691 170.376C672.747 170.376 674.667 169.32 674.667 167.528C674.667 165.752 672.747 164.696 669.691 164.696ZM674.507 159.064V155.656H672.395V164.36H674.507V160.808H676.459V159.064H674.507Z" fill="#222222"/>
<path d="M602.656 185.648H606.704V184.576H601.36V193.648H602.304C604.448 193.648 605.904 193.584 607.616 193.216L607.504 192.128C605.936 192.464 604.576 192.544 602.656 192.56V185.648ZM611.776 182.832V188.592H609.744V183.152H608.512V196.464H609.744V189.664H611.776V197.184H613.04V182.832H611.776ZM616.165 184.384V185.44H621.557C621.285 188.848 619.365 191.6 615.509 193.44L616.213 194.512C620.981 192.176 622.885 188.528 622.885 184.384H616.165ZM625.781 182.832V197.184H627.093V182.832H625.781ZM640.298 195.936H633.722V194.08H640.298V195.936ZM640.298 193.056H633.722V191.248H632.426V196.992H641.61V191.248H640.298V193.056ZM633.706 189.056C632.282 189.056 631.258 188.128 631.258 186.816C631.258 185.504 632.282 184.592 633.706 184.592C635.13 184.592 636.154 185.504 636.154 186.816C636.154 188.128 635.13 189.056 633.706 189.056ZM640.282 182.848V186.256H637.354C637.082 184.592 635.642 183.504 633.706 183.504C631.562 183.504 630.01 184.848 630.01 186.816C630.01 188.8 631.562 190.144 633.706 190.144C635.674 190.144 637.114 189.024 637.37 187.328H640.282V190.544H641.61V182.848H640.282ZM644.606 199.04C646.046 198.432 646.942 197.232 646.942 195.696C646.942 194.624 646.478 193.968 645.71 193.968C645.118 193.968 644.606 194.368 644.606 194.992C644.606 195.664 645.118 196.016 645.678 196.016C645.742 196.016 645.79 196.016 645.854 196C645.838 196.976 645.246 197.744 644.254 198.176L644.606 199.04ZM659.322 188.96C659.69 187.072 659.69 185.648 659.69 184.704V183.952H652.554V185.024H658.41C658.41 185.936 658.362 187.168 658.026 188.816L659.322 188.96ZM660.682 189.824C659.226 190.032 657.594 190.144 656.026 190.208V187.152H654.73V190.256C653.642 190.272 652.602 190.288 651.69 190.288L651.818 191.36C654.362 191.36 657.802 191.28 660.778 190.784L660.682 189.824ZM655.194 192.656H653.882V196.864H663.418V195.792H655.194V192.656ZM662.954 187.504V182.832H661.642V193.648H662.954V188.592H665.018V187.504H662.954ZM674.318 186.832H672.19C672.318 186.112 672.382 185.392 672.382 184.656H666.878V185.728H671.086C670.862 188.736 669.326 191.312 666.238 193.152L667.006 194.08C669.726 192.464 671.278 190.304 671.95 187.888H674.318V190.416H671.726V191.488H674.318V196.448H675.566V183.216H674.318V186.832ZM677.198 182.832V197.168H678.446V182.832H677.198ZM685.539 184.08H684.243V186.656C684.243 189.264 682.611 192.016 680.547 193.072L681.331 194.128C682.947 193.264 684.275 191.472 684.899 189.376C685.555 191.344 686.851 193.024 688.371 193.84L689.187 192.8C687.171 191.792 685.539 189.184 685.539 186.656V184.08ZM694.131 188.656H691.763V182.848H690.451V197.184H691.763V189.744H694.131V188.656ZM695.544 199.04C696.984 198.432 697.88 197.232 697.88 195.696C697.88 194.624 697.416 193.968 696.648 193.968C696.056 193.968 695.544 194.368 695.544 194.992C695.544 195.664 696.056 196.016 696.616 196.016C696.68 196.016 696.728 196.016 696.792 196C696.776 196.976 696.184 197.744 695.192 198.176L695.544 199.04ZM609.136 215.584C607.072 214.88 605.664 213.088 605.664 211.152V209.568H604.352V211.04C604.352 213.232 602.96 215.184 600.784 215.968L601.472 217.008C603.152 216.368 604.432 215.056 605.024 213.376C605.664 214.848 606.896 216.032 608.448 216.608L609.136 215.584ZM607.424 222.144C605.296 222.144 604 221.552 604 220.56C604 219.552 605.296 218.96 607.424 218.96C609.536 218.96 610.832 219.552 610.832 220.56C610.832 221.552 609.536 222.144 607.424 222.144ZM607.424 217.936C604.496 217.936 602.688 218.88 602.688 220.56C602.688 222.224 604.496 223.168 607.424 223.168C610.336 223.168 612.144 222.224 612.144 220.56C612.144 218.88 610.336 217.936 607.424 217.936ZM611.984 212.544V208.848H610.672V217.536H611.984V213.632H614.112V212.544H611.984ZM620.133 210.08H618.837V212.656C618.837 215.264 617.205 218.016 615.141 219.072L615.925 220.128C617.541 219.264 618.869 217.472 619.493 215.376C620.149 217.344 621.445 219.024 622.965 219.84L623.781 218.8C621.765 217.792 620.133 215.184 620.133 212.656V210.08ZM628.725 214.656H626.357V208.848H625.045V223.184H626.357V215.744H628.725V214.656ZM629.114 224.864H630.186L634.97 209.312H633.914L629.114 224.864ZM637.609 211.648H641.657V210.576H636.313V219.648H637.257C639.401 219.648 640.857 219.584 642.569 219.216L642.457 218.128C640.889 218.464 639.529 218.544 637.609 218.56V211.648ZM646.729 208.832V214.592H644.697V209.152H643.465V222.464H644.697V215.664H646.729V223.184H647.993V208.832H646.729ZM652.414 215.296H657.71V210.16H651.054V211.232H656.382V214.224H651.102V219.728H652.286C654.75 219.728 656.926 219.632 659.518 219.2L659.39 218.128C656.878 218.528 654.766 218.64 652.414 218.64V215.296ZM660.734 208.816V223.2H662.046V208.816H660.734ZM673.203 215.744C671.123 215.008 669.715 213.216 669.715 211.344V210.816H672.867V209.744H665.203V210.816H668.403V211.36C668.403 213.392 666.915 215.296 664.787 216.064L665.475 217.088C667.155 216.48 668.467 215.168 669.091 213.52C669.715 214.992 670.947 216.192 672.547 216.768L673.203 215.744ZM668.515 218.976H675.283V221.936H668.515V218.976ZM667.235 222.992H676.563V217.936H667.235V222.992ZM675.235 208.832V212.432H672.403V213.52H675.235V217.232H676.563V208.832H675.235ZM683.384 210.384V211.44H688.776C688.504 214.848 686.584 217.6 682.728 219.44L683.432 220.512C688.2 218.176 690.104 214.528 690.104 210.384H683.384ZM693 208.832V223.184H694.312V208.832H693ZM707.5 217.328H708.828V208.848H707.5V211.888H704.38V212.96H707.5V217.328ZM705.42 215.632C703.324 214.896 701.932 213.12 701.932 211.072V209.648H700.62V211.12C700.62 213.312 699.196 215.232 696.988 216.016L697.676 217.088C699.404 216.432 700.7 215.136 701.308 213.44C701.932 214.928 703.148 216.064 704.716 216.656L705.42 215.632ZM704.092 222.128C701.932 222.128 700.62 221.504 700.62 220.464C700.62 219.408 701.932 218.784 704.092 218.784C706.252 218.784 707.564 219.408 707.564 220.464C707.564 221.504 706.252 222.128 704.092 222.128ZM704.092 217.76C701.148 217.76 699.308 218.736 699.308 220.464C699.308 222.176 701.148 223.168 704.092 223.168C707.036 223.168 708.86 222.176 708.86 220.464C708.86 218.736 707.036 217.76 704.092 217.76ZM719.729 213.36H716.161V210.352H719.729V213.36ZM714.849 213.36H712.737V214.416H723.153V213.36H721.041V210.352H723.217V209.296H712.689V210.352H714.849V213.36ZM721.585 221.936H714.353V219.552H721.585V221.936ZM724.449 216.832V215.776H711.473V216.832H717.313V218.512H713.073V222.992H722.865V218.512H718.625V216.832H724.449ZM739.766 216.256H741.094V208.848H739.766V211.44H736.646V212.512H739.766V216.256ZM737.654 214.928C735.59 214.24 734.134 212.496 734.134 210.624V209.296H732.838V210.624C732.838 212.704 731.414 214.512 729.254 215.248L729.942 216.288C731.622 215.664 732.918 214.416 733.526 212.8C734.15 214.256 735.398 215.392 736.982 215.952L737.654 214.928ZM733.174 221.952V220.416H741.094V216.976H731.846V218.016H739.798V219.424H731.878V222.992H741.638V221.952H733.174ZM754.171 208.832V223.2H755.483V208.832H754.171ZM744.555 210.048V219.728H751.307V210.048H750.011V213.84H745.851V210.048H744.555ZM745.851 214.88H750.011V218.656H745.851V214.88ZM768.719 221.936H762.143V220.08H768.719V221.936ZM768.719 219.056H762.143V217.248H760.847V222.992H770.031V217.248H768.719V219.056ZM762.127 215.056C760.703 215.056 759.679 214.128 759.679 212.816C759.679 211.504 760.703 210.592 762.127 210.592C763.551 210.592 764.575 211.504 764.575 212.816C764.575 214.128 763.551 215.056 762.127 215.056ZM768.703 208.848V212.256H765.775C765.503 210.592 764.063 209.504 762.127 209.504C759.983 209.504 758.431 210.848 758.431 212.816C758.431 214.8 759.983 216.144 762.127 216.144C764.095 216.144 765.535 215.024 765.791 213.328H768.703V216.544H770.031V208.848H768.703ZM776.852 212.56H779.508V211.472H776.868V209.344H775.604V211.472H772.948V212.56H775.604V213.248C775.604 215.6 774.5 218.112 772.564 219.264L773.332 220.24C774.74 219.392 775.748 217.792 776.244 215.968C776.772 217.696 777.796 219.152 779.188 219.936L779.94 218.944C778.004 217.904 776.852 215.536 776.852 213.248V212.56ZM780.724 214.496H778.532V215.584H780.724V222.432H781.972V209.168H780.724V214.496ZM783.604 208.832V223.168H784.868V208.832H783.604ZM787.497 225.04C788.937 224.432 789.833 223.232 789.833 221.696C789.833 220.624 789.369 219.968 788.601 219.968C788.009 219.968 787.497 220.368 787.497 220.992C787.497 221.664 788.009 222.016 788.569 222.016C788.633 222.016 788.681 222.016 788.745 222C788.729 222.976 788.137 223.744 787.145 224.176L787.497 225.04ZM608.368 243.312V244.288H611.28V245.76H612.592V234.832H611.28V243.312H608.368ZM605.44 236.384C606.8 236.384 607.728 236.992 607.728 237.904C607.728 238.832 606.8 239.44 605.44 239.44C604.08 239.44 603.152 238.832 603.152 237.904C603.152 236.992 604.08 236.384 605.44 236.384ZM605.44 240.416C607.536 240.416 608.976 239.44 608.976 237.904C608.976 236.4 607.536 235.408 605.44 235.408C603.344 235.408 601.904 236.4 601.904 237.904C601.904 239.44 603.344 240.416 605.44 240.416ZM604.928 245.248H606.24V242.416C607.536 242.336 608.864 242.192 610.128 242L610.016 241.056C606.976 241.44 603.424 241.472 600.768 241.472L600.944 242.56C602.128 242.56 603.504 242.544 604.928 242.48V245.248ZM604.128 247.792V244.688H602.816V248.864H612.96V247.792H604.128ZM620.245 243.616H623.525V246.336H620.245V243.616ZM624.821 246.336V243.616H627.061V242.544H618.229V240.24H626.725V235.888H616.901V236.96H625.445V239.184H616.933V243.616H618.949V246.336H615.301V247.408H628.341V246.336H624.821ZM640.314 241.488C638.458 240.768 637.386 239.152 637.386 237.552V235.664H636.122V237.552C636.122 239.168 635.002 241.024 633.13 241.856L633.834 242.864C635.226 242.256 636.25 241.04 636.762 239.696C637.274 240.912 638.25 241.936 639.594 242.464L640.314 241.488ZM637.082 245.008H643.946V247.936H637.082V245.008ZM635.802 248.992H645.226V243.968H635.802V248.992ZM643.962 234.848V238.432H642.138V235.104H640.89V243.04H642.138V239.504H643.962V243.248H645.226V234.848H643.962ZM655.838 239.024H652.27V236.288H655.838V239.024ZM650.958 239.024H648.83V240.032H659.262V239.024H657.15V236.288H659.31V235.28H648.782V236.288H650.958V239.024ZM650.462 246.688H658.894V243.536H649.134V244.512H657.598V245.744H649.182V249.024H659.326V248.032H650.462V246.688ZM647.566 241.232V242.272H660.558V241.232H647.566ZM678.371 241.936H676.243C676.643 239.872 676.643 238.352 676.643 237.008V235.76H667.011V236.816H675.363V237.008C675.363 238.352 675.363 239.872 674.915 241.936H665.395V243.008H671.187V249.2H672.515V243.008H678.371V241.936ZM681.592 237.536H684.6V244.288H681.592V237.536ZM680.36 245.328H685.816V236.496H680.36V245.328ZM690.792 234.832V240.512H688.856V235.152H687.624V248.464H688.856V241.584H690.792V249.168H692.04V234.832H690.792Z" fill="#666666"/>
<rect x="560" y="301" width="332" height="50" rx="7" fill="#283895"/>
<rect y="81" width="160" height="72" rx="7" fill="#7094F0"/>
<path d="M277.486 100.952H275.822V103.336C275.822 106.04 274.414 108.824 272.158 109.928L273.198 111.24C274.846 110.392 276.03 108.712 276.67 106.664C277.294 108.6 278.462 110.184 280.094 111L281.07 109.672C278.862 108.648 277.486 106.024 277.486 103.336V100.952ZM282.59 99.752V104.504H279.502V105.848H282.59V114.248H284.254V99.752H282.59ZM292.434 106.584H288.962V102.296H292.434V106.584ZM297.042 103.544V105.304H294.034V103.544H297.042ZM294.034 106.632H297.042V110.328H298.69V99.784H297.042V102.2H294.034V100.984H287.346V107.896H294.034V106.632ZM290.946 112.616V109.368H289.282V113.96H299.026V112.616H290.946ZM311.511 108.664H313.159V99.784H311.511V102.248H309.415V103.576H311.511V104.888H309.415V106.216H311.511V108.664ZM304.471 102.152H306.311V106.504C305.687 106.536 305.079 106.552 304.471 106.568V102.152ZM309.527 106.248C308.999 106.312 308.455 106.376 307.895 106.392V102.152H309.191V100.808H301.575V102.152H302.887V106.6C302.295 106.6 301.719 106.6 301.191 106.6L301.383 107.96C303.703 107.96 306.903 107.912 309.623 107.448L309.527 106.248ZM308.343 112.968C306.279 112.968 305.127 112.472 305.127 111.592C305.127 110.68 306.279 110.2 308.343 110.2C310.407 110.2 311.575 110.68 311.575 111.592C311.575 112.472 310.407 112.968 308.343 112.968ZM308.343 108.92C305.319 108.92 303.479 109.896 303.479 111.592C303.479 113.256 305.319 114.232 308.343 114.232C311.367 114.232 313.223 113.256 313.223 111.592C313.223 109.896 311.367 108.92 308.343 108.92ZM316.364 101.304V102.648H321.42C321.084 105.976 319.18 108.52 315.644 110.328L316.556 111.592C321.276 109.208 323.068 105.496 323.068 101.304H316.364ZM329.036 105.48H326.844V99.768H325.196V114.216H326.844V106.856H329.036V105.48Z" fill="white"/>
<path d="M709.822 104.008H701.518V101.608H709.726V100.28H699.886V105.336H709.822V104.008ZM704.75 112.952C702.638 112.952 701.454 112.488 701.454 111.592C701.454 110.712 702.638 110.232 704.75 110.232C706.862 110.232 708.062 110.712 708.062 111.592C708.062 112.488 706.862 112.952 704.75 112.952ZM704.75 108.968C701.661 108.968 699.774 109.928 699.774 111.592C699.774 113.272 701.661 114.232 704.75 114.232C707.854 114.232 709.726 113.272 709.726 111.592C709.726 109.928 707.854 108.968 704.75 108.968ZM698.27 106.536V107.896H711.326V106.536H698.27ZM714.178 111.272H722.594V114.152H724.242V109.944H714.178V111.272ZM720.082 107.64V106.328H724.45V105.064H716.002V103.784H724.162V100.12H714.354V101.384H722.53V102.6H714.386V106.328H718.434V107.64H712.706V108.968H725.81V107.64H720.082ZM728.407 105.688C730.951 105.416 732.935 104.392 733.719 102.904C734.487 104.392 736.471 105.416 739.015 105.688L739.607 104.408C736.919 104.136 735.063 103.016 734.839 101.736H739.063V100.408H728.391V101.736H732.583C732.343 103.016 730.503 104.136 727.831 104.408L728.407 105.688ZM733.687 112.968C731.559 112.968 730.391 112.552 730.391 111.704C730.391 110.872 731.559 110.44 733.687 110.44C735.815 110.44 736.999 110.872 736.999 111.704C736.999 112.552 735.815 112.968 733.687 112.968ZM733.687 109.176C730.583 109.176 728.711 110.088 728.711 111.704C728.711 113.32 730.583 114.232 733.687 114.232C736.807 114.232 738.663 113.32 738.663 111.704C738.663 110.088 736.807 109.176 733.687 109.176ZM734.519 106.856V104.92H732.871V106.856H727.175V108.184H740.247V106.856H734.519ZM746.796 108.68H749.756V111.176H746.796V108.68ZM751.388 111.176V108.68H753.516V107.352H744.86V105.352H753.196V100.792H743.212V102.12H751.564V104.04H743.244V108.68H745.164V111.176H741.66V112.536H754.748V111.176H751.388Z" fill="white"/>
<path d="M709.822 324.008H701.518V321.608H709.726V320.28H699.886V325.336H709.822V324.008ZM704.75 332.952C702.638 332.952 701.454 332.488 701.454 331.592C701.454 330.712 702.638 330.232 704.75 330.232C706.862 330.232 708.062 330.712 708.062 331.592C708.062 332.488 706.862 332.952 704.75 332.952ZM704.75 328.968C701.661 328.968 699.774 329.928 699.774 331.592C699.774 333.272 701.661 334.232 704.75 334.232C707.854 334.232 709.726 333.272 709.726 331.592C709.726 329.928 707.854 328.968 704.75 328.968ZM698.27 326.536V327.896H711.326V326.536H698.27ZM714.178 331.272H722.594V334.152H724.242V329.944H714.178V331.272ZM720.082 327.64V326.328H724.45V325.064H716.002V323.784H724.162V320.12H714.354V321.384H722.53V322.6H714.386V326.328H718.434V327.64H712.706V328.968H725.81V327.64H720.082ZM728.407 325.688C730.951 325.416 732.935 324.392 733.719 322.904C734.487 324.392 736.471 325.416 739.015 325.688L739.607 324.408C736.919 324.136 735.063 323.016 734.839 321.736H739.063V320.408H728.391V321.736H732.583C732.343 323.016 730.503 324.136 727.831 324.408L728.407 325.688ZM733.687 332.968C731.559 332.968 730.391 332.552 730.391 331.704C730.391 330.872 731.559 330.44 733.687 330.44C735.815 330.44 736.999 330.872 736.999 331.704C736.999 332.552 735.815 332.968 733.687 332.968ZM733.687 329.176C730.583 329.176 728.711 330.088 728.711 331.704C728.711 333.32 730.583 334.232 733.687 334.232C736.807 334.232 738.663 333.32 738.663 331.704C738.663 330.088 736.807 329.176 733.687 329.176ZM734.519 326.856V324.92H732.871V326.856H727.175V328.184H740.247V326.856H734.519ZM746.796 328.68H749.756V331.176H746.796V328.68ZM751.388 331.176V328.68H753.516V327.352H744.86V325.352H753.196V320.792H743.212V322.12H751.564V324.04H743.244V328.68H745.164V331.176H741.66V332.536H754.748V331.176H751.388Z" fill="white"/>
<path d="M24.0563 113.128C23.1923 113.128 22.3976 112.989 21.6723 112.712C20.947 112.424 20.3176 112.024 19.7843 111.512C19.251 110.989 18.835 110.381 18.5363 109.688C18.2376 108.995 18.0883 108.232 18.0883 107.4C18.0883 106.568 18.2376 105.805 18.5363 105.112C18.835 104.419 19.251 103.816 19.7843 103.304C20.3283 102.781 20.963 102.381 21.6883 102.104C22.4136 101.816 23.2136 101.672 24.0883 101.672C24.9736 101.672 25.7843 101.816 26.5203 102.104C27.2563 102.392 27.8803 102.824 28.3923 103.4L27.4003 104.392C26.9416 103.944 26.4403 103.619 25.8963 103.416C25.363 103.203 24.7816 103.096 24.1523 103.096C23.5123 103.096 22.915 103.203 22.3603 103.416C21.8163 103.629 21.3416 103.928 20.9363 104.312C20.5416 104.696 20.2323 105.155 20.0083 105.688C19.795 106.211 19.6883 106.781 19.6883 107.4C19.6883 108.008 19.795 108.579 20.0083 109.112C20.2323 109.635 20.5416 110.093 20.9363 110.488C21.3416 110.872 21.8163 111.171 22.3603 111.384C22.9043 111.597 23.4963 111.704 24.1363 111.704C24.7336 111.704 25.3043 111.613 25.8483 111.432C26.403 111.24 26.915 110.925 27.3843 110.488L28.2963 111.704C27.7416 112.173 27.091 112.531 26.3443 112.776C25.6083 113.011 24.8456 113.128 24.0563 113.128ZM26.7603 111.496V107.336H28.2963V111.704L26.7603 111.496ZM30.3417 109.272V107.944H34.6457V109.272H30.3417ZM39.9831 113.128C39.1297 113.128 38.3137 113 37.5351 112.744C36.7564 112.477 36.1431 112.136 35.6951 111.72L36.2871 110.472C36.7137 110.845 37.2577 111.155 37.9191 111.4C38.5804 111.645 39.2684 111.768 39.9831 111.768C40.6337 111.768 41.1617 111.693 41.5671 111.544C41.9724 111.395 42.2711 111.192 42.4631 110.936C42.6551 110.669 42.7511 110.371 42.7511 110.04C42.7511 109.656 42.6231 109.347 42.3671 109.112C42.1217 108.877 41.7964 108.691 41.3911 108.552C40.9964 108.403 40.5591 108.275 40.0791 108.168C39.5991 108.061 39.1137 107.939 38.6231 107.8C38.1431 107.651 37.7004 107.464 37.2951 107.24C36.9004 107.016 36.5804 106.717 36.3351 106.344C36.0897 105.96 35.9671 105.469 35.9671 104.872C35.9671 104.296 36.1164 103.768 36.4151 103.288C36.7244 102.797 37.1937 102.408 37.8231 102.12C38.4631 101.821 39.2737 101.672 40.2551 101.672C40.9057 101.672 41.5511 101.757 42.1911 101.928C42.8311 102.099 43.3857 102.344 43.8551 102.664L43.3271 103.944C42.8471 103.624 42.3404 103.395 41.8071 103.256C41.2737 103.107 40.7564 103.032 40.2551 103.032C39.6257 103.032 39.1084 103.112 38.7031 103.272C38.2977 103.432 37.9991 103.645 37.8071 103.912C37.6257 104.179 37.5351 104.477 37.5351 104.808C37.5351 105.203 37.6577 105.517 37.9031 105.752C38.1591 105.987 38.4844 106.173 38.8791 106.312C39.2844 106.451 39.7271 106.579 40.2071 106.696C40.6871 106.803 41.1671 106.925 41.6471 107.064C42.1377 107.203 42.5804 107.384 42.9751 107.608C43.3804 107.832 43.7057 108.131 43.9511 108.504C44.1964 108.877 44.3191 109.357 44.3191 109.944C44.3191 110.509 44.1644 111.037 43.8551 111.528C43.5457 112.008 43.0657 112.397 42.4151 112.696C41.7751 112.984 40.9644 113.128 39.9831 113.128ZM46.4066 113V101.8H50.7746C51.7559 101.8 52.5932 101.955 53.2866 102.264C53.9799 102.573 54.5132 103.021 54.8866 103.608C55.2599 104.195 55.4466 104.893 55.4466 105.704C55.4466 106.515 55.2599 107.213 54.8866 107.8C54.5132 108.376 53.9799 108.819 53.2866 109.128C52.5932 109.437 51.7559 109.592 50.7746 109.592H47.2866L48.0066 108.856V113H46.4066ZM53.8946 113L51.0466 108.936H52.7586L55.6386 113H53.8946ZM48.0066 109.016L47.2866 108.232H50.7266C51.7506 108.232 52.5239 108.013 53.0466 107.576C53.5799 107.128 53.8466 106.504 53.8466 105.704C53.8466 104.904 53.5799 104.285 53.0466 103.848C52.5239 103.411 51.7506 103.192 50.7266 103.192H47.2866L48.0066 102.392V109.016ZM57.7816 113V101.8H59.0936L64.1176 110.264H63.4136L68.3736 101.8H69.6856L69.7016 113H68.1656L68.1496 104.216H68.5176L64.1016 111.64H63.3656L58.9176 104.216H59.3176V113H57.7816ZM86.6106 104.008H78.3066V101.608H86.5146V100.28H76.6746V105.336H86.6106V104.008ZM81.5386 112.952C79.4266 112.952 78.2426 112.488 78.2426 111.592C78.2426 110.712 79.4266 110.232 81.5386 110.232C83.6506 110.232 84.8506 110.712 84.8506 111.592C84.8506 112.488 83.6506 112.952 81.5386 112.952ZM81.5386 108.968C78.4506 108.968 76.5626 109.928 76.5626 111.592C76.5626 113.272 78.4506 114.232 81.5386 114.232C84.6426 114.232 86.5146 113.272 86.5146 111.592C86.5146 109.928 84.6426 108.968 81.5386 108.968ZM75.0586 106.536V107.896H88.1146V106.536H75.0586ZM90.9673 111.272H99.3833V114.152H101.031V109.944H90.9673V111.272ZM96.8713 107.64V106.328H101.239V105.064H92.7913V103.784H100.951V100.12H91.1433V101.384H99.3193V102.6H91.1753V106.328H95.2233V107.64H89.4953V108.968H102.599V107.64H96.8713ZM106.7 115.88H107.98L112.428 100.216H111.148L106.7 115.88ZM125.212 99.8H123.564V110.36H125.212V99.8ZM122.06 106.776C119.836 106.008 118.572 104.072 118.572 102.024V100.584H116.892V102.024C116.892 104.136 115.628 106.2 113.356 107.032L114.204 108.36C115.9 107.72 117.1 106.408 117.756 104.792C118.38 106.296 119.564 107.48 121.212 108.088L122.06 106.776ZM117.436 112.616V109.368H115.772V113.96H125.628V112.616H117.436ZM135.489 103.768V105.128H138.097V108.52H139.745V99.768H138.097V103.768H135.489ZM136.385 106.696C134.177 106.072 132.865 104.504 132.865 102.856V102.728H135.905V101.416H132.881V99.72H131.217V101.416H128.177V102.728H131.217V102.856C131.217 104.664 129.969 106.376 127.745 107.064L128.545 108.344C130.241 107.816 131.457 106.68 132.097 105.24C132.753 106.504 133.969 107.512 135.617 107.976L136.385 106.696ZM134.929 112.952C132.881 112.952 131.713 112.44 131.713 111.528C131.713 110.616 132.881 110.12 134.929 110.12C136.993 110.12 138.161 110.616 138.161 111.528C138.161 112.44 136.993 112.952 134.929 112.952ZM134.929 108.84C131.905 108.84 130.065 109.832 130.065 111.528C130.065 113.224 131.905 114.232 134.929 114.232C137.953 114.232 139.809 113.224 139.809 111.528C139.809 109.832 137.953 108.84 134.929 108.84ZM55.7655 131.16H53.2695V124.68H55.7655V131.16ZM59.1255 127.144H57.3015V123.368H51.7335V132.472H57.3015V128.488H59.1255V135.544H60.6615V122.056H59.1255V127.144ZM62.0215 121.784V136.216H63.5895V121.784H62.0215ZM66.4263 123.304V124.648H71.4823C71.1463 127.976 69.2423 130.52 65.7063 132.328L66.6183 133.592C71.3383 131.208 73.1302 127.496 73.1302 123.304H66.4263ZM79.0983 127.48H76.9063V121.768H75.2583V136.216H76.9063V128.856H79.0983V127.48ZM92.719 128.84C89.871 128.328 87.551 126.104 87.551 123.8V122.712H85.807V123.8C85.807 126.088 83.487 128.312 80.639 128.84L81.343 130.2C83.695 129.72 85.727 128.216 86.671 126.232C87.615 128.216 89.647 129.72 91.999 130.2L92.719 128.84ZM80.191 133.016V134.376H93.279V133.016H80.191ZM102.548 129.816H104.1V122.024H102.548V125.16H100.82V126.504H102.548V129.816ZM101.316 127.784C99.8918 128.04 98.6758 128.104 96.8518 128.12V126.6H100.18V125.32H96.8518V123.928H100.724V122.6H95.2678V129.448H96.2118C98.4518 129.448 99.8278 129.4 101.476 129.08L101.316 127.784ZM105.268 134.728H98.8998V133.24H105.268V134.728ZM105.268 131.944H98.8998V130.536H97.2678V136.056H106.884V130.536H105.268V131.944ZM105.316 121.768V129.944H106.884V121.768H105.316Z" fill="white"/>
<path d="M269.766 149.16H266.326V147.656H264.678V149.16H261.238V150.488H269.766V149.16ZM263.574 153.56C263.574 152.744 264.342 152.248 265.494 152.248C266.646 152.248 267.43 152.744 267.43 153.56C267.43 154.392 266.646 154.888 265.494 154.888C264.342 154.888 263.574 154.392 263.574 153.56ZM268.998 153.56C268.998 152.04 267.59 151.016 265.494 151.016C263.414 151.016 261.99 152.04 261.99 153.56C261.99 155.096 263.414 156.12 265.494 156.12C267.59 156.12 268.998 155.096 268.998 153.56ZM270.87 160.744H264.902V159.416H270.87V160.744ZM270.87 158.136H264.902V156.808H263.27V162.056H272.502V156.808H270.87V158.136ZM274.55 151.384H272.502V147.784H270.854V156.216H272.502V152.744H274.55V151.384ZM277.915 158.328H286.011V162.2H287.659V157.016H277.915V158.328ZM286.011 147.768V150.248H283.131C283.243 149.784 283.291 149.256 283.291 148.728H276.635V150.056H281.531C281.227 152.28 279.227 154.072 275.867 154.968L276.507 156.28C279.595 155.448 281.771 153.832 282.731 151.576H286.011V153.304H282.507V154.648H286.011V156.392H287.659V147.768H286.011Z" fill="#7094F0"/>
<path d="M300 286L300 220" stroke="#7094F0" stroke-linecap="round" stroke-linejoin="round" stroke-dasharray="2 4"/>
<path d="M300.768 290.078L303.633 286.64C304.176 285.989 303.713 285 302.865 285L297.135 285C296.287 285 295.824 285.989 296.367 286.64L299.232 290.078C299.632 290.558 300.368 290.558 300.768 290.078Z" fill="#7094F0"/>
<path d="M269.752 258.8H268.168L264.568 264.704L260.984 258.8H259.272L263.72 266.096V270H265.304V266.128L269.752 258.8ZM272.538 268.608V264.992H278.154V263.632H272.538V260.192H278.842V258.8H270.938V270H279.066V268.608H272.538ZM284.671 270.128C287.631 270.128 289.007 268.656 289.007 266.944C289.007 262.832 282.223 264.544 282.223 261.808C282.223 260.832 283.039 260.032 284.943 260.032C285.935 260.032 287.039 260.32 288.015 260.944L288.543 259.664C287.615 259.024 286.255 258.672 284.943 258.672C281.999 258.672 280.655 260.144 280.655 261.872C280.655 266.032 287.439 264.304 287.439 267.04C287.439 268.016 286.607 268.768 284.671 268.768C283.231 268.768 281.807 268.224 280.975 267.472L280.383 268.72C281.279 269.552 282.959 270.128 284.671 270.128Z" fill="#7094F0"/>
<path d="M300 784L300 718" stroke="#7094F0" stroke-linecap="round" stroke-linejoin="round" stroke-dasharray="2 4"/>
<path d="M300.768 788.078L303.633 784.64C304.176 783.989 303.713 783 302.865 783L297.135 783C296.287 783 295.824 783.989 296.367 784.64L299.232 788.078C299.632 788.558 300.368 788.558 300.768 788.078Z" fill="#7094F0"/>
<path d="M255 598L255 576" stroke="#7094F0" stroke-linecap="round" stroke-linejoin="round" stroke-dasharray="2 4"/>
<path d="M281 576L281 548" stroke="#7094F0" stroke-linecap="round" stroke-linejoin="round" stroke-dasharray="2 4"/>
<path d="M255 576H281" stroke="#7094F0" stroke-linecap="round" stroke-linejoin="round" stroke-dasharray="2 4"/>
<path d="M255.768 600.078L258.633 596.64C259.176 595.989 258.713 595 257.865 595L252.135 595C251.287 595 250.824 595.989 251.367 596.64L254.232 600.078C254.632 600.558 255.368 600.558 255.768 600.078Z" fill="#7094F0"/>
<path d="M281 696L281 681" stroke="#7094F0" stroke-linecap="round" stroke-linejoin="round" stroke-dasharray="2 4"/>
<path d="M416 436L416 216" stroke="#7094F0" stroke-linecap="round" stroke-linejoin="round" stroke-dasharray="2 4"/>
<path d="M255 681L255 661" stroke="#7094F0" stroke-linecap="round" stroke-linejoin="round" stroke-dasharray="2 4"/>
<path d="M281 681H255" stroke="#7094F0" stroke-linecap="round" stroke-linejoin="round" stroke-dasharray="2 4"/>
<path d="M416 216H381" stroke="#7094F0" stroke-linecap="round" stroke-linejoin="round" stroke-dasharray="2 4"/>
<path d="M416 436H396" stroke="#7094F0" stroke-linecap="round" stroke-linejoin="round" stroke-dasharray="2 4"/>
<path d="M406 636H335" stroke="#7094F0" stroke-linecap="round" stroke-linejoin="round" stroke-dasharray="2 4"/>
<path d="M220 824H175" stroke="#7094F0" stroke-linecap="round" stroke-linejoin="round" stroke-dasharray="2 4"/>
<path d="M280.232 698.078L277.367 694.64C276.824 693.989 277.287 693 278.135 693L283.865 693C284.713 693 285.176 693.989 284.633 694.64L281.768 698.078C281.368 698.558 280.632 698.558 280.232 698.078Z" fill="#7094F0"/>
<path d="M391.922 435.232L395.36 432.367C396.011 431.824 397 432.287 397 433.135L397 438.865C397 439.713 396.011 440.176 395.36 439.633L391.922 436.768C391.442 436.368 391.442 435.632 391.922 435.232Z" fill="#7094F0"/>
<path d="M330.922 635.232L334.36 632.367C335.011 631.824 336 632.287 336 633.135L336 638.865C336 639.713 335.011 640.176 334.36 639.633L330.922 636.768C330.442 636.368 330.442 635.632 330.922 635.232Z" fill="#7094F0"/>
<path d="M170.922 823.232L174.36 820.367C175.011 819.824 176 820.287 176 821.135L176 826.865C176 827.713 175.011 828.176 174.36 827.633L170.922 824.768C170.442 824.368 170.442 823.632 170.922 823.232Z" fill="#7094F0"/>
<path d="M549.078 106.768L545.64 109.633C544.989 110.176 544 109.713 544 108.865L544 103.135C544 102.287 544.989 101.824 545.64 102.367L549.078 105.232C549.558 105.632 549.558 106.368 549.078 106.768Z" fill="#7094F0"/>
<path d="M301.591 570.776C301.591 572.648 301.591 574.776 301.031 577.624L302.695 577.8C303.239 574.744 303.239 572.712 303.239 570.776V569.224H293.239V570.552H301.591V570.776ZM291.847 578.856V580.216H304.919V578.856H291.847ZM316.124 570.36H307.964V573.912H318.044V572.648H309.58V571.544H317.756V568.056H307.932V569.288H316.124V570.36ZM316.14 580.792H309.612V579.576H316.14V580.792ZM316.14 578.36H309.612V576.968H307.98V582.056H317.772V576.968H316.14V578.36ZM306.284 574.856V576.168H312.012V577.704H313.66V576.168H319.404V574.856H306.284ZM329.265 574.584C327.057 573.88 325.857 572.2 325.857 570.408V570.136H328.881V568.808H321.121V570.136H324.193V570.424C324.193 572.392 322.929 574.248 320.657 575.032L321.489 576.328C323.217 575.736 324.433 574.504 325.073 572.968C325.697 574.312 326.849 575.352 328.465 575.864L329.265 574.584ZM327.409 580.936C325.393 580.936 324.225 580.424 324.225 579.496C324.225 578.552 325.393 578.056 327.409 578.056C329.425 578.056 330.593 578.552 330.593 579.496C330.593 580.424 329.425 580.936 327.409 580.936ZM327.409 576.76C324.433 576.76 322.593 577.768 322.593 579.496C322.593 581.208 324.433 582.232 327.409 582.232C330.385 582.232 332.225 581.208 332.225 579.496C332.225 577.768 330.385 576.76 327.409 576.76ZM332.065 571.304V567.784H330.417V576.424H332.065V572.664H334.113V571.304H332.065ZM350.933 572.296C348.085 571.912 345.973 570.264 345.973 568.568V568.024H344.277V568.568C344.277 570.296 342.181 571.912 339.301 572.296L339.909 573.576C342.261 573.224 344.197 572.12 345.125 570.584C346.053 572.12 347.989 573.224 350.325 573.576L350.933 572.296ZM345.093 580.984C342.981 580.984 341.797 580.52 341.797 579.656C341.797 578.776 342.981 578.328 345.093 578.328C347.205 578.328 348.405 578.776 348.405 579.656C348.405 580.52 347.205 580.984 345.093 580.984ZM345.093 577.064C341.989 577.064 340.117 577.992 340.117 579.656C340.117 581.304 341.989 582.248 345.093 582.248C348.213 582.248 350.069 581.304 350.069 579.656C350.069 577.992 348.213 577.064 345.093 577.064ZM338.581 574.568V575.896H351.653V574.568H338.581ZM364.97 567.784H363.322V578.28H364.97V567.784ZM354.954 572.36C354.954 571.032 355.898 570.168 357.178 570.168C358.442 570.168 359.402 571.032 359.402 572.36C359.402 573.672 358.442 574.552 357.178 574.552C355.898 574.552 354.954 573.672 354.954 572.36ZM361.002 572.36C361.002 570.248 359.354 568.744 357.178 568.744C355.002 568.744 353.338 570.248 353.338 572.36C353.338 574.456 355.002 575.976 357.178 575.976C359.354 575.976 361.002 574.456 361.002 572.36ZM357.194 580.616V577.224H355.53V581.96H365.386V580.616H357.194Z" fill="#7094F0"/>
<path d="M400.56 511.776C400.56 513.648 400.56 515.776 400 518.624L401.664 518.8C402.208 515.744 402.208 513.712 402.208 511.776V510.224H392.208V511.552H400.56V511.776ZM390.816 519.856V521.216H403.888V519.856H390.816ZM415.093 511.36H406.933V514.912H417.013V513.648H408.549V512.544H416.725V509.056H406.901V510.288H415.093V511.36ZM415.109 521.792H408.581V520.576H415.109V521.792ZM415.109 519.36H408.581V517.968H406.949V523.056H416.741V517.968H415.109V519.36ZM405.253 515.856V517.168H410.981V518.704H412.629V517.168H418.373V515.856H405.253ZM428.234 515.584C426.026 514.88 424.826 513.2 424.826 511.408V511.136H427.85V509.808H420.09V511.136H423.161V511.424C423.161 513.392 421.898 515.248 419.626 516.032L420.458 517.328C422.186 516.736 423.402 515.504 424.042 513.968C424.666 515.312 425.818 516.352 427.434 516.864L428.234 515.584ZM426.378 521.936C424.362 521.936 423.194 521.424 423.194 520.496C423.194 519.552 424.362 519.056 426.378 519.056C428.394 519.056 429.562 519.552 429.562 520.496C429.562 521.424 428.394 521.936 426.378 521.936ZM426.378 517.76C423.402 517.76 421.562 518.768 421.562 520.496C421.562 522.208 423.402 523.232 426.378 523.232C429.354 523.232 431.194 522.208 431.194 520.496C431.194 518.768 429.354 517.76 426.378 517.76ZM431.034 512.304V508.784H429.386V517.424H431.034V513.664H433.082V512.304H431.034ZM403.152 535.296C400.304 534.912 398.192 533.264 398.192 531.568V531.024H396.496V531.568C396.496 533.296 394.4 534.912 391.52 535.296L392.128 536.576C394.48 536.224 396.416 535.12 397.344 533.584C398.272 535.12 400.208 536.224 402.544 536.576L403.152 535.296ZM397.312 543.984C395.2 543.984 394.016 543.52 394.016 542.656C394.016 541.776 395.2 541.328 397.312 541.328C399.424 541.328 400.624 541.776 400.624 542.656C400.624 543.52 399.424 543.984 397.312 543.984ZM397.312 540.064C394.208 540.064 392.336 540.992 392.336 542.656C392.336 544.304 394.208 545.248 397.312 545.248C400.432 545.248 402.288 544.304 402.288 542.656C402.288 540.992 400.432 540.064 397.312 540.064ZM390.8 537.568V538.896H403.872V537.568H390.8ZM417.189 530.784H415.541V541.28H417.189V530.784ZM407.173 535.36C407.173 534.032 408.117 533.168 409.397 533.168C410.661 533.168 411.621 534.032 411.621 535.36C411.621 536.672 410.661 537.552 409.397 537.552C408.117 537.552 407.173 536.672 407.173 535.36ZM413.221 535.36C413.221 533.248 411.573 531.744 409.397 531.744C407.221 531.744 405.557 533.248 405.557 535.36C405.557 537.456 407.221 538.976 409.397 538.976C411.573 538.976 413.221 537.456 413.221 535.36ZM409.413 543.616V540.224H407.749V544.96H417.605V543.616H409.413Z" fill="#7094F0"/>
<path d="M386.022 366.912C384.102 367.232 382.454 367.296 379.67 367.296V365.728H384.534V364.432H379.67V362.944H384.95V361.616H378.038V368.608H379.238C382.342 368.608 384.118 368.56 386.182 368.224L386.022 366.912ZM381.286 371.376H387.51V373.744H381.286V371.376ZM379.67 375.056H389.126V370.064H379.67V375.056ZM387.478 360.784V369.392H389.126V360.784H387.478ZM400.171 367.584C397.963 366.88 396.763 365.2 396.763 363.408V363.136H399.787V361.808H392.027V363.136H395.099V363.424C395.099 365.392 393.835 367.248 391.563 368.032L392.395 369.328C394.123 368.736 395.339 367.504 395.979 365.968C396.603 367.312 397.755 368.352 399.371 368.864L400.171 367.584ZM398.315 373.936C396.299 373.936 395.131 373.424 395.131 372.496C395.131 371.552 396.299 371.056 398.315 371.056C400.331 371.056 401.499 371.552 401.499 372.496C401.499 373.424 400.331 373.936 398.315 373.936ZM398.315 369.76C395.339 369.76 393.499 370.768 393.499 372.496C393.499 374.208 395.339 375.232 398.315 375.232C401.291 375.232 403.131 374.208 403.131 372.496C403.131 370.768 401.291 369.76 398.315 369.76ZM402.971 364.304V360.784H401.323V369.424H402.971V365.664H405.019V364.304H402.971ZM389.558 387.296C386.71 386.912 384.598 385.264 384.598 383.568V383.024H382.902V383.568C382.902 385.296 380.806 386.912 377.926 387.296L378.534 388.576C380.886 388.224 382.822 387.12 383.75 385.584C384.678 387.12 386.614 388.224 388.95 388.576L389.558 387.296ZM383.718 395.984C381.606 395.984 380.422 395.52 380.422 394.656C380.422 393.776 381.606 393.328 383.718 393.328C385.83 393.328 387.03 393.776 387.03 394.656C387.03 395.52 385.83 395.984 383.718 395.984ZM383.718 392.064C380.614 392.064 378.742 392.992 378.742 394.656C378.742 396.304 380.614 397.248 383.718 397.248C386.838 397.248 388.694 396.304 388.694 394.656C388.694 392.992 386.838 392.064 383.718 392.064ZM377.206 389.568V390.896H390.278V389.568H377.206ZM403.595 382.784H401.947V393.28H403.595V382.784ZM393.579 387.36C393.579 386.032 394.523 385.168 395.803 385.168C397.067 385.168 398.027 386.032 398.027 387.36C398.027 388.672 397.067 389.552 395.803 389.552C394.523 389.552 393.579 388.672 393.579 387.36ZM399.627 387.36C399.627 385.248 397.979 383.744 395.803 383.744C393.627 383.744 391.963 385.248 391.963 387.36C391.963 389.456 393.627 390.976 395.803 390.976C397.979 390.976 399.627 389.456 399.627 387.36ZM395.819 395.616V392.224H394.155V396.96H404.011V395.616H395.819Z" fill="#7094F0"/>
<path d="M399.126 192.8V201.152L392.406 192.8H391.094V204H392.694V195.648L399.414 204H400.726V192.8H399.126ZM408.884 204.128C412.292 204.128 414.82 201.696 414.82 198.4C414.82 195.104 412.292 192.672 408.884 192.672C405.444 192.672 402.916 195.12 402.916 198.4C402.916 201.68 405.444 204.128 408.884 204.128ZM408.884 202.704C406.372 202.704 404.516 200.88 404.516 198.4C404.516 195.92 406.372 194.096 408.884 194.096C411.364 194.096 413.22 195.92 413.22 198.4C413.22 200.88 411.364 202.704 408.884 202.704Z" fill="#283895"/>
<path d="M269.766 369.16H266.326V367.656H264.678V369.16H261.238V370.488H269.766V369.16ZM263.574 373.56C263.574 372.744 264.342 372.248 265.494 372.248C266.646 372.248 267.43 372.744 267.43 373.56C267.43 374.392 266.646 374.888 265.494 374.888C264.342 374.888 263.574 374.392 263.574 373.56ZM268.998 373.56C268.998 372.04 267.59 371.016 265.494 371.016C263.414 371.016 261.99 372.04 261.99 373.56C261.99 375.096 263.414 376.12 265.494 376.12C267.59 376.12 268.998 375.096 268.998 373.56ZM270.87 380.744H264.902V379.416H270.87V380.744ZM270.87 378.136H264.902V376.808H263.27V382.056H272.502V376.808H270.87V378.136ZM274.55 371.384H272.502V367.784H270.854V376.216H272.502V372.744H274.55V371.384ZM277.915 378.328H286.011V382.2H287.659V377.016H277.915V378.328ZM286.011 367.768V370.248H283.131C283.243 369.784 283.291 369.256 283.291 368.728H276.635V370.056H281.531C281.227 372.28 279.227 374.072 275.867 374.968L276.507 376.28C279.595 375.448 281.771 373.832 282.731 371.576H286.011V373.304H282.507V374.648H286.011V376.392H287.659V367.768H286.011Z" fill="#7094F0"/>
<path d="M466.732 85.56H460.3V84.408H466.732V85.56ZM468.364 81.992H466.732V83.192H460.3V81.992H458.668V86.808H468.364V81.992ZM470.06 89.112V87.8H456.956V89.112H462.668V90.296H458.508V91.528H466.796V92.552H458.556V96.104H468.828V94.84H460.188V93.704H468.412V90.296H464.332V89.112H470.06ZM480.001 83.16H476.561V81.656H474.913V83.16H471.473V84.488H480.001V83.16ZM473.809 87.56C473.809 86.744 474.577 86.248 475.729 86.248C476.881 86.248 477.665 86.744 477.665 87.56C477.665 88.392 476.881 88.888 475.729 88.888C474.577 88.888 473.809 88.392 473.809 87.56ZM479.233 87.56C479.233 86.04 477.825 85.016 475.729 85.016C473.649 85.016 472.225 86.04 472.225 87.56C472.225 89.096 473.649 90.12 475.729 90.12C477.825 90.12 479.233 89.096 479.233 87.56ZM481.105 94.744H475.137V93.416H481.105V94.744ZM481.105 92.136H475.137V90.808H473.505V96.056H482.737V90.808H481.105V92.136ZM484.785 85.384H482.737V81.784H481.089V90.216H482.737V86.744H484.785V85.384ZM488.149 92.328H496.245V96.2H497.893V91.016H488.149V92.328ZM496.245 81.768V84.248H493.365C493.477 83.784 493.525 83.256 493.525 82.728H486.869V84.056H491.765C491.461 86.28 489.461 88.072 486.101 88.968L486.741 90.28C489.829 89.448 492.005 87.832 492.965 85.576H496.245V87.304H492.741V88.648H496.245V90.392H497.893V81.768H496.245Z" fill="#283895"/>
<path d="M466.732 305.56H460.3V304.408H466.732V305.56ZM468.364 301.992H466.732V303.192H460.3V301.992H458.668V306.808H468.364V301.992ZM470.06 309.112V307.8H456.956V309.112H462.668V310.296H458.508V311.528H466.796V312.552H458.556V316.104H468.828V314.84H460.188V313.704H468.412V310.296H464.332V309.112H470.06ZM480.001 303.16H476.561V301.656H474.913V303.16H471.473V304.488H480.001V303.16ZM473.809 307.56C473.809 306.744 474.577 306.248 475.729 306.248C476.881 306.248 477.665 306.744 477.665 307.56C477.665 308.392 476.881 308.888 475.729 308.888C474.577 308.888 473.809 308.392 473.809 307.56ZM479.233 307.56C479.233 306.04 477.825 305.016 475.729 305.016C473.649 305.016 472.225 306.04 472.225 307.56C472.225 309.096 473.649 310.12 475.729 310.12C477.825 310.12 479.233 309.096 479.233 307.56ZM481.105 314.744H475.137V313.416H481.105V314.744ZM481.105 312.136H475.137V310.808H473.505V316.056H482.737V310.808H481.105V312.136ZM484.785 305.384H482.737V301.784H481.089V310.216H482.737V306.744H484.785V305.384ZM488.149 312.328H496.245V316.2H497.893V311.016H488.149V312.328ZM496.245 301.768V304.248H493.365C493.477 303.784 493.525 303.256 493.525 302.728H486.869V304.056H491.765C491.461 306.28 489.461 308.072 486.101 308.968L486.741 310.28C489.829 309.448 492.005 307.832 492.965 305.576H496.245V307.304H492.741V308.648H496.245V310.392H497.893V301.768H496.245Z" fill="#283895"/>
<rect x="220" y="191" width="160" height="50" rx="7" fill="#435CE7"/>
<rect x="220" y="301" width="160" height="50" rx="7" fill="#435CE7"/>
<path d="M284.158 210.784H282.494V218.192H284.158V210.784ZM281.038 216.576C278.814 215.888 277.518 214.128 277.518 212.256V211.168H275.838V212.256C275.838 214.208 274.542 216.08 272.254 216.832L273.07 218.144C274.814 217.552 276.046 216.352 276.702 214.8C277.358 216.224 278.574 217.328 280.238 217.872L281.038 216.576ZM276.334 223.808V222.544H284.158V218.88H274.686V220.16H282.526V221.344H274.718V225.104H284.59V223.808H276.334ZM291.778 211.984H290.13V214.352C290.13 217.024 288.722 219.76 286.466 220.864L287.474 222.192C289.122 221.344 290.338 219.664 290.962 217.664C291.586 219.552 292.738 221.12 294.29 221.92L295.298 220.608C293.122 219.536 291.778 216.928 291.778 214.352V211.984ZM300.162 216.512H297.906V210.784H296.258V225.232H297.906V217.872H300.162V216.512ZM303.287 213.84H307.015V212.496H301.671V221.792H302.631C304.663 221.792 306.151 221.728 307.895 221.392L307.751 220.032C306.263 220.336 304.951 220.416 303.287 220.432V213.84ZM311.943 210.768V216.48H310.231V211.072H308.679V224.512H310.231V217.824H311.943V225.216H313.511V210.768H311.943ZM324.06 217.392C321.916 216.688 320.684 214.928 320.684 213.072V211.52H319.02V212.944C319.02 215.024 317.788 216.992 315.516 217.776L316.396 219.088C318.06 218.48 319.244 217.232 319.884 215.664C320.492 217.024 321.644 218.128 323.196 218.688L324.06 217.392ZM322.284 223.936C320.268 223.936 319.1 223.44 319.1 222.512C319.1 221.616 320.268 221.104 322.284 221.104C324.3 221.104 325.468 221.616 325.468 222.512C325.468 223.44 324.3 223.936 322.284 223.936ZM322.284 219.808C319.308 219.808 317.468 220.816 317.468 222.512C317.468 224.224 319.308 225.232 322.284 225.232C325.276 225.232 327.1 224.224 327.1 222.512C327.1 220.816 325.276 219.808 322.284 219.808ZM326.94 214.352V210.768H325.292V219.456H326.94V215.712H328.988V214.352H326.94Z" fill="white"/>
<path d="M284.158 320.784H282.494V328.192H284.158V320.784ZM281.038 326.576C278.814 325.888 277.518 324.128 277.518 322.256V321.168H275.838V322.256C275.838 324.208 274.542 326.08 272.254 326.832L273.07 328.144C274.814 327.552 276.046 326.352 276.702 324.8C277.358 326.224 278.574 327.328 280.238 327.872L281.038 326.576ZM276.334 333.808V332.544H284.158V328.88H274.686V330.16H282.526V331.344H274.718V335.104H284.59V333.808H276.334ZM291.778 321.984H290.13V324.352C290.13 327.024 288.722 329.76 286.466 330.864L287.474 332.192C289.122 331.344 290.338 329.664 290.962 327.664C291.586 329.552 292.738 331.12 294.29 331.92L295.298 330.608C293.122 329.536 291.778 326.928 291.778 324.352V321.984ZM300.162 326.512H297.906V320.784H296.258V335.232H297.906V327.872H300.162V326.512ZM311.511 329.664H313.159V320.784H311.511V323.248H309.415V324.576H311.511V325.888H309.415V327.216H311.511V329.664ZM304.471 323.152H306.311V327.504C305.687 327.536 305.079 327.552 304.471 327.568V323.152ZM309.527 327.248C308.999 327.312 308.455 327.376 307.895 327.392V323.152H309.191V321.808H301.575V323.152H302.887V327.6C302.295 327.6 301.719 327.6 301.191 327.6L301.383 328.96C303.703 328.96 306.903 328.912 309.623 328.448L309.527 327.248ZM308.343 333.968C306.279 333.968 305.127 333.472 305.127 332.592C305.127 331.68 306.279 331.2 308.343 331.2C310.407 331.2 311.575 331.68 311.575 332.592C311.575 333.472 310.407 333.968 308.343 333.968ZM308.343 329.92C305.319 329.92 303.479 330.896 303.479 332.592C303.479 334.256 305.319 335.232 308.343 335.232C311.367 335.232 313.223 334.256 313.223 332.592C313.223 330.896 311.367 329.92 308.343 329.92ZM316.364 322.304V323.648H321.42C321.084 326.976 319.18 329.52 315.644 331.328L316.556 332.592C321.276 330.208 323.068 326.496 323.068 322.304H316.364ZM329.036 326.48H326.844V320.768H325.196V335.216H326.844V327.856H329.036V326.48Z" fill="white"/>
<rect x="220" y="411" width="160" height="50" rx="7" fill="#F6F7FE"/>
<rect x="220" y="501" width="160" height="50" rx="7" fill="#F6F7FE"/>
<rect x="220" y="709" width="160" height="50" rx="7" fill="#F6F7FE"/>
<rect x="120" y="611" width="200" height="50" rx="7" fill="#F6F7FE"/>
<rect y="1" width="160" height="50" rx="7" fill="#F5F5F5"/>
<rect x="220" y="1" width="280" height="50" rx="7" fill="#F5F5F5"/>
<rect x="560" y="1" width="332" height="50" rx="7" fill="#F5F5F5"/>
<path d="M55.4535 22.568H57.4215V29.304C56.7655 29.336 56.0935 29.368 55.4535 29.384V22.568ZM59.0215 22.568H60.4295V21.24H52.4455V22.568H53.8535V29.416C53.2295 29.416 52.6215 29.416 52.0775 29.416L52.2535 30.776C54.7655 30.776 58.1095 30.728 61.1015 30.232L61.0055 29.016C60.3655 29.096 59.6935 29.16 59.0215 29.224V22.568ZM65.6935 25.432H63.4375V19.784H61.7895V34.248H63.4375V26.792H65.6935V25.432ZM78.3543 27.416H70.0182V25.432H77.9223V24.136H70.0182V22.28H78.2423V20.952H68.3383V28.744H78.3543V27.416ZM66.7223 31.112V32.456H79.8263V31.112H66.7223ZM83.591 21.368H81.959V30.808H83.111C85.335 30.808 87.447 30.664 89.751 30.216L89.559 28.856C87.527 29.256 85.591 29.416 83.591 29.432V21.368ZM91.543 19.784V24.424H87.351V25.768H91.543V34.264H93.191V19.784H91.543ZM100.716 20.984H99.0677V23.352C99.0677 26.024 97.6598 28.76 95.4038 29.864L96.4118 31.192C98.0598 30.344 99.2758 28.664 99.8998 26.664C100.524 28.552 101.676 30.12 103.228 30.92L104.236 29.608C102.06 28.536 100.716 25.928 100.716 23.352V20.984ZM109.1 25.512H106.844V19.784H105.196V34.232H106.844V26.872H109.1V25.512Z" fill="#222222"/>
<path d="M338.091 26.84H336.075C336.443 24.792 336.443 23.288 336.443 21.928V20.664H326.587V21.992H334.827C334.827 23.32 334.827 24.824 334.411 26.84H325.019V28.2H330.667V34.232H332.331V28.2H338.091V26.84ZM341.504 22.68H344V29.16H341.504V22.68ZM339.968 30.472H345.536V21.368H339.968V30.472ZM350.256 19.784V25.416H348.608V20.056H347.056V33.544H348.608V26.76H350.256V34.216H351.824V19.784H350.256ZM362.229 25.448C360.485 25.816 358.933 25.896 356.197 25.912V22.04H360.949V20.712H354.549V27.256H355.717C358.821 27.256 360.517 27.176 362.389 26.776L362.229 25.448ZM357.637 29.944H363.621V32.728H357.637V29.944ZM356.005 34.056H365.237V28.648H356.005V34.056ZM367.285 23.192H365.237V19.768H363.589V27.928H365.237V24.552H367.285V23.192ZM376.713 25.48C374.953 25.864 373.401 25.944 370.633 25.96V22.168H375.417V20.824H368.985V27.304H370.153C373.289 27.304 375.001 27.208 376.889 26.824L376.713 25.48ZM375.049 32.904C373.049 32.904 371.865 32.36 371.865 31.384C371.865 30.408 373.049 29.88 375.049 29.88C377.049 29.88 378.233 30.408 378.233 31.384C378.233 32.36 377.049 32.904 375.049 32.904ZM375.049 28.552C372.089 28.552 370.233 29.624 370.233 31.384C370.233 33.16 372.089 34.248 375.049 34.248C378.009 34.248 379.865 33.16 379.865 31.384C379.865 29.624 378.009 28.552 375.049 28.552ZM379.737 23.384V19.784H378.057V28.264H379.737V24.744H381.753V23.384H379.737ZM387.95 22.584H391.006V21.224H383.15V22.584H386.302V23.976C386.302 26.376 384.83 29.112 382.622 30.168L383.566 31.48C385.23 30.664 386.51 28.936 387.15 26.92C387.806 28.744 389.038 30.344 390.654 31.112L391.566 29.816C389.374 28.776 387.95 26.216 387.95 23.976V22.584ZM396.334 25.48H394.078V19.784H392.43V34.232H394.078V26.84H396.334V25.48Z" fill="#222222"/>
<path d="M713.038 21.304V22.648H718.19C717.902 25.976 716.11 28.52 712.318 30.344L713.198 31.656C718.158 29.256 719.886 25.608 719.886 21.304H713.038ZM722.494 19.784V34.232H724.142V19.784H722.494ZM728.931 26.408H733.763V25.08H728.931V22.392H734.035V21.032H727.283V30.856H728.451C731.043 30.856 732.963 30.776 735.187 30.424L735.027 29.08C732.995 29.416 731.235 29.496 728.931 29.512V26.408ZM740.131 25.448H737.875V19.768H736.227V34.248H737.875V26.808H740.131V25.448Z" fill="#222222"/>
<path d="M283.822 433.008H275.518V430.608H283.726V429.28H273.886V434.336H283.822V433.008ZM278.75 441.952C276.638 441.952 275.454 441.488 275.454 440.592C275.454 439.712 276.638 439.232 278.75 439.232C280.862 439.232 282.062 439.712 282.062 440.592C282.062 441.488 280.862 441.952 278.75 441.952ZM278.75 437.968C275.661 437.968 273.774 438.928 273.774 440.592C273.774 442.272 275.661 443.232 278.75 443.232C281.854 443.232 283.726 442.272 283.726 440.592C283.726 438.928 281.854 437.968 278.75 437.968ZM272.27 435.536V436.896H285.326V435.536H272.27ZM288.178 440.272H296.594V443.152H298.242V438.944H288.178V440.272ZM294.082 436.64V435.328H298.45V434.064H290.002V432.784H298.162V429.12H288.354V430.384H296.53V431.6H288.386V435.328H292.434V436.64H286.706V437.968H299.81V436.64H294.082ZM309.367 433.184H306.039V430.528H309.367V433.184ZM304.391 433.184H302.423V434.512H312.967V433.184H311.015V430.528H313.047V429.2H302.343V430.528H304.391V433.184ZM311.047 441.744H304.375V439.776H311.047V441.744ZM314.247 436.992V435.664H301.175V436.992H306.887V438.464H302.743V443.056H312.663V438.464H308.535V436.992H314.247ZM320.316 429.792C318.06 429.792 316.396 431.216 316.396 433.264C316.396 435.312 318.06 436.736 320.316 436.736C322.572 436.736 324.252 435.312 324.252 433.264C324.252 431.216 322.572 429.792 320.316 429.792ZM320.316 431.2C321.66 431.2 322.636 432 322.636 433.264C322.636 434.512 321.66 435.328 320.316 435.328C318.988 435.328 318.012 434.512 318.012 433.264C318.012 432 318.988 431.2 320.316 431.2ZM325.884 428.768V443.248H327.548V428.768H325.884ZM315.932 440.192C318.492 440.192 321.948 440.16 325.132 439.552L325.02 438.352C321.916 438.816 318.316 438.832 315.724 438.832L315.932 440.192Z" fill="#283895"/>
<path d="M257.217 523.92L257.441 525.312L265.969 524.848C265.889 525.792 265.729 526.848 265.473 528.048L267.105 528.24C267.745 525.184 267.729 523.184 267.729 521.424V520.096H257.633V521.424H266.097C266.097 522.08 266.097 522.8 266.065 523.584L257.217 523.92ZM262.641 530.064V526.432H260.977V530.064H256.097V531.424H269.169V530.064H262.641ZM282.198 525.6H273.83V521.392H282.086V520.048H272.182V526.928H282.198V525.6ZM270.582 530.016V531.376H283.686V530.016H270.582ZM289.386 522.704H291.914V521.36H289.386V519.28H287.818V521.36H285.274V522.704H287.818V523.2C287.818 525.488 286.842 527.952 284.874 529.12L285.818 530.352C287.194 529.552 288.106 528.096 288.618 526.416C289.146 527.968 290.074 529.296 291.434 530.016L292.346 528.784C290.362 527.728 289.386 525.44 289.386 523.2V522.704ZM295.882 518.784V524.48H294.298V519.056H292.746V532.56H294.298V525.84H295.882V533.232H297.45V518.784H295.882ZM305.215 525.776H301.807V523.424H305.215V525.776ZM306.831 524.096H309.839V529.488H311.487V518.784H309.839V522.752H306.831V519.744H305.215V522.128H301.807V519.744H300.175V527.12H306.831V524.096ZM303.743 531.616V528.432H302.079V532.96H311.823V531.616H303.743ZM325.508 523.184H322.18V520.528H325.508V523.184ZM320.532 523.184H318.564V524.512H329.108V523.184H327.156V520.528H329.188V519.2H318.484V520.528H320.532V523.184ZM327.188 531.744H320.516V529.776H327.188V531.744ZM330.388 526.992V525.664H317.316V526.992H323.028V528.464H318.884V533.056H328.804V528.464H324.676V526.992H330.388ZM336.456 519.792C334.2 519.792 332.536 521.216 332.536 523.264C332.536 525.312 334.2 526.736 336.456 526.736C338.712 526.736 340.392 525.312 340.392 523.264C340.392 521.216 338.712 519.792 336.456 519.792ZM336.456 521.2C337.8 521.2 338.776 522 338.776 523.264C338.776 524.512 337.8 525.328 336.456 525.328C335.128 525.328 334.152 524.512 334.152 523.264C334.152 522 335.128 521.2 336.456 521.2ZM342.024 518.768V533.248H343.688V518.768H342.024ZM332.072 530.192C334.632 530.192 338.088 530.16 341.272 529.552L341.16 528.352C338.056 528.816 334.456 528.832 331.864 528.832L332.072 530.192Z" fill="#283895"/>
<path d="M259.118 740.128C260.862 740.128 262.366 739.52 263.39 738.368L262.35 737.36C261.486 738.272 260.43 738.704 259.198 738.704C256.67 738.704 254.798 736.88 254.798 734.4C254.798 731.92 256.67 730.096 259.198 730.096C260.43 730.096 261.486 730.512 262.35 731.424L263.39 730.416C262.366 729.264 260.862 728.672 259.134 728.672C255.726 728.672 253.198 731.088 253.198 734.4C253.198 737.712 255.726 740.128 259.118 740.128ZM268.471 740.096C271.015 740.096 272.871 738.288 272.871 735.76C272.871 733.232 271.015 731.44 268.471 731.44C265.927 731.44 264.055 733.232 264.055 735.76C264.055 738.288 265.927 740.096 268.471 740.096ZM268.471 738.752C266.839 738.752 265.607 737.568 265.607 735.76C265.607 733.952 266.839 732.784 268.471 732.784C270.103 732.784 271.319 733.952 271.319 735.76C271.319 737.568 270.103 738.752 268.471 738.752ZM279.273 731.44C277.929 731.44 276.841 731.936 276.217 732.8V731.52H274.745V740H276.281V735.632C276.281 733.792 277.337 732.816 278.969 732.816C280.425 732.816 281.257 733.632 281.257 735.296V740H282.793V735.12C282.793 732.624 281.337 731.44 279.273 731.44ZM289.674 738.4C289.354 738.656 288.922 738.8 288.474 738.8C287.626 738.8 287.146 738.288 287.146 737.376V732.784H289.578V731.52H287.146V729.664H285.61V731.52H284.17V732.784H285.61V737.44C285.61 739.152 286.586 740.096 288.298 740.096C288.986 740.096 289.69 739.904 290.154 739.504L289.674 738.4ZM294.849 731.44C293.489 731.44 292.225 731.824 291.345 732.528L291.985 733.68C292.641 733.12 293.665 732.768 294.673 732.768C296.193 732.768 296.945 733.52 296.945 734.816V735.12H294.513C291.985 735.12 291.105 736.24 291.105 737.6C291.105 739.072 292.321 740.096 294.241 740.096C295.569 740.096 296.513 739.648 297.025 738.88V740H298.481V734.88C298.481 732.56 297.169 731.44 294.849 731.44ZM294.497 738.912C293.329 738.912 292.625 738.384 292.625 737.536C292.625 736.816 293.057 736.224 294.577 736.224H296.945V737.408C296.561 738.384 295.649 738.912 294.497 738.912ZM304.816 740.096C306.336 740.096 307.6 739.456 308.272 738.272L307.104 737.536C306.56 738.368 305.728 738.752 304.8 738.752C303.136 738.752 301.888 737.6 301.888 735.76C301.888 733.952 303.136 732.784 304.8 732.784C305.728 732.784 306.56 733.168 307.104 734L308.272 733.248C307.6 732.064 306.336 731.44 304.816 731.44C302.208 731.44 300.336 733.232 300.336 735.76C300.336 738.288 302.208 740.096 304.816 740.096ZM314.408 738.4C314.088 738.656 313.656 738.8 313.208 738.8C312.36 738.8 311.88 738.288 311.88 737.376V732.784H314.312V731.52H311.88V729.664H310.344V731.52H308.904V732.784H310.344V737.44C310.344 739.152 311.32 740.096 313.032 740.096C313.72 740.096 314.424 739.904 314.888 739.504L314.408 738.4ZM328.335 731.84H329.855V735.664H331.423V726.8H329.855V730.496H328.335V727.056H326.783V735.2H328.335V731.84ZM326.447 733.408C324.575 732.672 323.631 731.088 323.631 729.488V727.664H322.031V729.488C322.031 731.136 321.055 732.944 319.119 733.824L319.983 735.088C321.375 734.48 322.319 733.36 322.847 732.032C323.391 733.184 324.287 734.144 325.567 734.64L326.447 733.408ZM326.607 739.968C324.575 739.968 323.359 739.472 323.359 738.592C323.359 737.696 324.575 737.2 326.607 737.2C328.639 737.2 329.855 737.696 329.855 738.592C329.855 739.472 328.639 739.968 326.607 739.968ZM326.607 735.936C323.599 735.936 321.711 736.928 321.711 738.592C321.711 740.24 323.599 741.232 326.607 741.232C329.615 741.232 331.503 740.24 331.503 738.592C331.503 736.928 329.615 735.936 326.607 735.936ZM343.988 735.296H345.636V726.768H343.988V729.664H341.06V731.008H343.988V735.296ZM342.244 733.424C340.052 732.704 338.852 730.896 338.852 728.896V727.552H337.188V728.976C337.188 731.088 335.924 733.04 333.604 733.824L334.468 735.152C336.212 734.528 337.428 733.264 338.068 731.664C338.692 733.072 339.812 734.16 341.364 734.72L342.244 733.424ZM340.82 739.936C338.772 739.936 337.604 739.408 337.604 738.464C337.604 737.52 338.772 736.992 340.82 736.992C342.868 736.992 344.052 737.52 344.052 738.464C344.052 739.408 342.868 739.936 340.82 739.936ZM340.82 735.696C337.812 735.696 335.956 736.72 335.956 738.464C335.956 740.208 337.812 741.232 340.82 741.232C343.844 741.232 345.7 740.208 345.7 738.464C345.7 736.72 343.844 735.696 340.82 735.696Z" fill="#283895"/>
<path d="M167.52 632.656V634.016H170.144V639.36H171.792V628.8H170.144V632.656H167.52ZM168.416 636.032C166.256 635.28 165.024 633.472 165.024 631.696V631.2H168.032V629.872H160.304V631.2H163.36V631.696C163.36 633.648 162.048 635.552 159.808 636.336L160.656 637.632C162.368 637.04 163.584 635.776 164.224 634.208C164.832 635.632 166 636.768 167.6 637.312L168.416 636.032ZM164.08 641.616V638.448H162.432V642.96H172.16V641.616H164.08ZM179.349 631.584H182.405V630.224H174.549V631.584H177.701V632.976C177.701 635.376 176.229 638.112 174.021 639.168L174.965 640.48C176.629 639.664 177.909 637.936 178.549 635.92C179.205 637.744 180.437 639.344 182.053 640.112L182.965 638.816C180.773 637.776 179.349 635.216 179.349 632.976V631.584ZM187.733 634.48H185.477V628.784H183.829V643.232H185.477V635.84H187.733V634.48ZM196.617 632.688H194.793C194.905 632.016 194.953 631.296 194.953 630.56H189.369V631.888H193.321C193.081 634.848 191.641 637.2 188.665 639.008L189.609 640.176C192.313 638.56 193.833 636.464 194.505 634.032H196.617V636.32H194.249V637.664H196.617V642.528H198.153V629.136H196.617V632.688ZM199.529 628.784V643.232H201.113V628.784H199.529ZM205.022 633.088C205.022 631.824 205.966 631.008 207.246 631.008C208.542 631.008 209.486 631.824 209.486 633.088C209.486 634.352 208.542 635.168 207.246 635.168C205.966 635.168 205.022 634.352 205.022 633.088ZM211.102 633.088C211.102 631.04 209.454 629.616 207.246 629.616C205.054 629.616 203.406 631.04 203.406 633.088C203.406 635.136 205.054 636.56 207.246 636.56C209.454 636.56 211.102 635.136 211.102 633.088ZM205.006 639.312H212.862V643.248H214.51V637.984H205.006V639.312ZM216.51 632.208V630.848H214.51V628.784H212.862V637.344H214.51V635.312H216.51V633.952H214.51V632.208H216.51ZM222.035 632.688H224.515V631.328H222.035V629.28H220.467V631.328H217.971V632.688H220.467V633.2C220.467 635.504 219.507 637.968 217.523 639.136L218.467 640.384C219.843 639.584 220.755 638.128 221.267 636.432C221.795 638 222.723 639.328 224.083 640.064L224.995 638.832C223.011 637.76 222.035 635.456 222.035 633.2V632.688ZM225.539 634.384H223.587V635.728H225.539V642.528H227.091V629.072H225.539V634.384ZM228.451 628.784V643.232H230.019V628.784H228.451ZM242.488 632.032V633.52H238.952V634.8H242.488V636.112H244.136V628.784H242.488V630.752H239.496C239.576 630.336 239.608 629.888 239.608 629.424H233.144V630.752H237.784C237.56 632.768 235.784 634.352 232.36 635.088L232.936 636.432C236.12 635.712 238.248 634.24 239.144 632.032H242.488ZM236.408 641.776V640.448H244.136V636.704H234.728V638.016H242.488V639.216H234.76V643.104H244.536V641.776H236.408ZM246.012 644.88H247.292L251.74 629.232H250.46L246.012 644.88ZM260.797 633.184H257.469V630.528H260.797V633.184ZM255.821 633.184H253.853V634.512H264.397V633.184H262.445V630.528H264.477V629.2H253.773V630.528H255.821V633.184ZM262.477 641.744H255.805V639.776H262.477V641.744ZM265.677 636.992V635.664H252.605V636.992H258.317V638.464H254.173V643.056H264.093V638.464H259.965V636.992H265.677ZM271.745 629.792C269.489 629.792 267.825 631.216 267.825 633.264C267.825 635.312 269.489 636.736 271.745 636.736C274.001 636.736 275.681 635.312 275.681 633.264C275.681 631.216 274.001 629.792 271.745 629.792ZM271.745 631.2C273.089 631.2 274.065 632 274.065 633.264C274.065 634.512 273.089 635.328 271.745 635.328C270.417 635.328 269.441 634.512 269.441 633.264C269.441 632 270.417 631.2 271.745 631.2ZM277.313 628.768V643.248H278.977V628.768H277.313ZM267.361 640.192C269.921 640.192 273.377 640.16 276.561 639.552L276.449 638.352C273.345 638.816 269.745 638.832 267.153 638.832L267.361 640.192Z" fill="#283895"/>
<path d="M380 326H545" stroke="#7094F0" stroke-linecap="round" stroke-linejoin="round" stroke-dasharray="2 4"/>
<path d="M549.078 326.768L545.64 329.633C544.989 330.176 544 329.713 544 328.865L544 323.135C544 322.287 544.989 321.824 545.64 322.367L549.078 325.232C549.558 325.632 549.558 326.368 549.078 326.768Z" fill="#7094F0"/>
<rect x="444.5" y="371.5" width="447" height="477" rx="13.5" fill="white" stroke="#DDDDDD" stroke-dasharray="2 4"/>
<path d="M648.732 669.56H642.3V668.408H648.732V669.56ZM650.364 665.992H648.732V667.192H642.3V665.992H640.668V670.808H650.364V665.992ZM652.06 673.112V671.8H638.956V673.112H644.668V674.296H640.508V675.528H648.796V676.552H640.556V680.104H650.828V678.84H642.188V677.704H650.412V674.296H646.332V673.112H652.06ZM662.001 667.16H658.561V665.656H656.913V667.16H653.473V668.488H662.001V667.16ZM655.809 671.56C655.809 670.744 656.577 670.248 657.729 670.248C658.881 670.248 659.665 670.744 659.665 671.56C659.665 672.392 658.881 672.888 657.729 672.888C656.577 672.888 655.809 672.392 655.809 671.56ZM661.233 671.56C661.233 670.04 659.825 669.016 657.729 669.016C655.649 669.016 654.225 670.04 654.225 671.56C654.225 673.096 655.649 674.12 657.729 674.12C659.825 674.12 661.233 673.096 661.233 671.56ZM663.105 678.744H657.137V677.416H663.105V678.744ZM663.105 676.136H657.137V674.808H655.505V680.056H664.737V674.808H663.105V676.136ZM666.785 669.384H664.737V665.784H663.089V674.216H664.737V670.744H666.785V669.384ZM670.149 676.328H678.245V680.2H679.893V675.016H670.149V676.328ZM678.245 665.768V668.248H675.365C675.477 667.784 675.525 667.256 675.525 666.728H668.869V668.056H673.765C673.461 670.28 671.461 672.072 668.101 672.968L668.741 674.28C671.829 673.448 674.005 671.832 674.965 669.576H678.245V671.304H674.741V672.648H678.245V674.392H679.893V665.768H678.245Z" fill="#283895"/>
<path d="M612 690L695 690" stroke="#7094F0" stroke-linecap="round" stroke-linejoin="round" stroke-dasharray="2 4"/>
<path d="M697.078 690.768L693.64 693.633C692.989 694.176 692 693.713 692 692.865L692 687.135C692 686.287 692.989 685.824 693.64 686.367L697.078 689.232C697.558 689.632 697.558 690.368 697.078 690.768Z" fill="#7094F0"/>
<path d="M548 470L548 404" stroke="#7094F0" stroke-linecap="round" stroke-linejoin="round" stroke-dasharray="2 4"/>
<path d="M788 650L788 584" stroke="#7094F0" stroke-linecap="round" stroke-linejoin="round" stroke-dasharray="2 4"/>
<path d="M548 760L548 694" stroke="#7094F0" stroke-linecap="round" stroke-linejoin="round" stroke-dasharray="2 4"/>
<path d="M548 650L548 580" stroke="#7094F0" stroke-linecap="round" stroke-linejoin="round" stroke-dasharray="2 4"/>
<path d="M788 545L788 510" stroke="#7094F0" stroke-linecap="round" stroke-linejoin="round" stroke-dasharray="2 4"/>
<path d="M548 580L723 580" stroke="#7094F0" stroke-linecap="round" stroke-linejoin="round" stroke-dasharray="2 4"/>
<path d="M788 510H628" stroke="#7094F0" stroke-linecap="round" stroke-linejoin="round" stroke-dasharray="2 4"/>
<path d="M477 800H406" stroke="#7094F0" stroke-linecap="round" stroke-linejoin="round" stroke-dasharray="2 4"/>
<path d="M406 799L406 636" stroke="#7094F0" stroke-linecap="round" stroke-linejoin="round" stroke-dasharray="2 4"/>
<path d="M788.768 654.078L791.633 650.64C792.176 649.989 791.713 649 790.865 649L785.135 649C784.287 649 783.824 649.989 784.367 650.64L787.232 654.078C787.632 654.558 788.368 654.558 788.768 654.078Z" fill="#7094F0"/>
<path d="M548.768 764.078L551.633 760.64C552.176 759.989 551.713 759 550.865 759L545.135 759C544.287 759 543.824 759.989 544.367 760.64L547.232 764.078C547.632 764.558 548.368 764.558 548.768 764.078Z" fill="#7094F0"/>
<path d="M548.768 654.078L551.633 650.64C552.176 649.989 551.713 649 550.865 649L545.135 649C544.287 649 543.824 649.989 544.367 650.64L547.232 654.078C547.632 654.558 548.368 654.558 548.768 654.078Z" fill="#7094F0"/>
<path d="M787.232 549.078L784.367 545.64C783.824 544.989 784.287 544 785.135 544L790.865 544C791.713 544 792.176 544.989 791.633 545.64L788.768 549.078C788.368 549.558 787.632 549.558 787.232 549.078Z" fill="#7094F0"/>
<path d="M808.732 625.56H802.3V624.408H808.732V625.56ZM810.364 621.992H808.732V623.192H802.3V621.992H800.668V626.808H810.364V621.992ZM812.06 629.112V627.8H798.956V629.112H804.668V630.296H800.508V631.528H808.796V632.552H800.556V636.104H810.828V634.84H802.188V633.704H810.412V630.296H806.332V629.112H812.06ZM822.001 623.16H818.561V621.656H816.913V623.16H813.473V624.488H822.001V623.16ZM815.809 627.56C815.809 626.744 816.577 626.248 817.729 626.248C818.881 626.248 819.665 626.744 819.665 627.56C819.665 628.392 818.881 628.888 817.729 628.888C816.577 628.888 815.809 628.392 815.809 627.56ZM821.233 627.56C821.233 626.04 819.825 625.016 817.729 625.016C815.649 625.016 814.225 626.04 814.225 627.56C814.225 629.096 815.649 630.12 817.729 630.12C819.825 630.12 821.233 629.096 821.233 627.56ZM823.105 634.744H817.137V633.416H823.105V634.744ZM823.105 632.136H817.137V630.808H815.505V636.056H824.737V630.808H823.105V632.136ZM826.785 625.384H824.737V621.784H823.089V630.216H824.737V626.744H826.785V625.384ZM830.149 632.328H838.245V636.2H839.893V631.016H830.149V632.328ZM838.245 621.768V624.248H835.365C835.477 623.784 835.525 623.256 835.525 622.728H828.869V624.056H833.765C833.461 626.28 831.461 628.072 828.101 628.968L828.741 630.28C831.829 629.448 834.005 627.832 834.965 625.576H838.245V627.304H834.741V628.648H838.245V630.392H839.893V621.768H838.245Z" fill="#283895"/>
<path d="M548.768 474.078L551.633 470.64C552.176 469.989 551.713 469 550.865 469L545.135 469C544.287 469 543.824 469.989 544.367 470.64L547.232 474.078C547.632 474.558 548.368 474.558 548.768 474.078Z" fill="#7094F0"/>
<rect x="468" y="395" width="160" height="50" rx="7" fill="#F6F7FE"/>
<path d="M507.118 426.128C508.862 426.128 510.366 425.52 511.39 424.368L510.35 423.36C509.486 424.272 508.43 424.704 507.198 424.704C504.67 424.704 502.798 422.88 502.798 420.4C502.798 417.92 504.67 416.096 507.198 416.096C508.43 416.096 509.486 416.512 510.35 417.424L511.39 416.416C510.366 415.264 508.862 414.672 507.134 414.672C503.726 414.672 501.198 417.088 501.198 420.4C501.198 423.712 503.726 426.128 507.118 426.128ZM516.471 426.096C519.015 426.096 520.871 424.288 520.871 421.76C520.871 419.232 519.015 417.44 516.471 417.44C513.927 417.44 512.055 419.232 512.055 421.76C512.055 424.288 513.927 426.096 516.471 426.096ZM516.471 424.752C514.839 424.752 513.607 423.568 513.607 421.76C513.607 419.952 514.839 418.784 516.471 418.784C518.103 418.784 519.319 419.952 519.319 421.76C519.319 423.568 518.103 424.752 516.471 424.752ZM527.273 417.44C525.929 417.44 524.841 417.936 524.217 418.8V417.52H522.745V426H524.281V421.632C524.281 419.792 525.337 418.816 526.969 418.816C528.425 418.816 529.257 419.632 529.257 421.296V426H530.793V421.12C530.793 418.624 529.337 417.44 527.273 417.44ZM537.674 424.4C537.354 424.656 536.922 424.8 536.474 424.8C535.626 424.8 535.146 424.288 535.146 423.376V418.784H537.578V417.52H535.146V415.664H533.61V417.52H532.17V418.784H533.61V423.44C533.61 425.152 534.586 426.096 536.298 426.096C536.986 426.096 537.69 425.904 538.154 425.504L537.674 424.4ZM542.849 417.44C541.489 417.44 540.225 417.824 539.345 418.528L539.985 419.68C540.641 419.12 541.665 418.768 542.673 418.768C544.193 418.768 544.945 419.52 544.945 420.816V421.12H542.513C539.985 421.12 539.105 422.24 539.105 423.6C539.105 425.072 540.321 426.096 542.241 426.096C543.569 426.096 544.513 425.648 545.025 424.88V426H546.481V420.88C546.481 418.56 545.169 417.44 542.849 417.44ZM542.497 424.912C541.329 424.912 540.625 424.384 540.625 423.536C540.625 422.816 541.057 422.224 542.577 422.224H544.945V423.408C544.561 424.384 543.649 424.912 542.497 424.912ZM552.816 426.096C554.336 426.096 555.6 425.456 556.272 424.272L555.104 423.536C554.56 424.368 553.728 424.752 552.8 424.752C551.136 424.752 549.888 423.6 549.888 421.76C549.888 419.952 551.136 418.784 552.8 418.784C553.728 418.784 554.56 419.168 555.104 420L556.272 419.248C555.6 418.064 554.336 417.44 552.816 417.44C550.208 417.44 548.336 419.232 548.336 421.76C548.336 424.288 550.208 426.096 552.816 426.096ZM562.408 424.4C562.088 424.656 561.656 424.8 561.208 424.8C560.36 424.8 559.88 424.288 559.88 423.376V418.784H562.312V417.52H559.88V415.664H558.344V417.52H556.904V418.784H558.344V423.44C558.344 425.152 559.32 426.096 561.032 426.096C561.72 426.096 562.424 425.904 562.888 425.504L562.408 424.4ZM576.335 417.84H577.855V421.664H579.423V412.8H577.855V416.496H576.335V413.056H574.783V421.2H576.335V417.84ZM574.447 419.408C572.575 418.672 571.631 417.088 571.631 415.488V413.664H570.031V415.488C570.031 417.136 569.055 418.944 567.119 419.824L567.983 421.088C569.375 420.48 570.319 419.36 570.847 418.032C571.391 419.184 572.287 420.144 573.567 420.64L574.447 419.408ZM574.607 425.968C572.575 425.968 571.359 425.472 571.359 424.592C571.359 423.696 572.575 423.2 574.607 423.2C576.639 423.2 577.855 423.696 577.855 424.592C577.855 425.472 576.639 425.968 574.607 425.968ZM574.607 421.936C571.599 421.936 569.711 422.928 569.711 424.592C569.711 426.24 571.599 427.232 574.607 427.232C577.615 427.232 579.503 426.24 579.503 424.592C579.503 422.928 577.615 421.936 574.607 421.936ZM591.988 421.296H593.636V412.768H591.988V415.664H589.06V417.008H591.988V421.296ZM590.244 419.424C588.052 418.704 586.852 416.896 586.852 414.896V413.552H585.188V414.976C585.188 417.088 583.924 419.04 581.604 419.824L582.468 421.152C584.212 420.528 585.428 419.264 586.068 417.664C586.692 419.072 587.812 420.16 589.364 420.72L590.244 419.424ZM588.82 425.936C586.772 425.936 585.604 425.408 585.604 424.464C585.604 423.52 586.772 422.992 588.82 422.992C590.868 422.992 592.052 423.52 592.052 424.464C592.052 425.408 590.868 425.936 588.82 425.936ZM588.82 421.696C585.812 421.696 583.956 422.72 583.956 424.464C583.956 426.208 585.812 427.232 588.82 427.232C591.844 427.232 593.7 426.208 593.7 424.464C593.7 422.72 591.844 421.696 588.82 421.696Z" fill="#283895"/>
<rect x="468" y="485" width="160" height="50" rx="7" fill="#F6F7FE"/>
<rect x="708" y="555" width="160" height="50" rx="7" fill="#435CE7"/>
<rect x="708" y="665" width="160" height="50" rx="7" fill="#283895"/>
<path d="M527.556 509.312C525.684 508.576 524.74 506.976 524.74 505.392V503.6H523.14V505.376C523.14 507.008 522.164 508.848 520.228 509.696L521.092 510.976C522.484 510.368 523.428 509.248 523.956 507.936C524.484 509.104 525.396 510.032 526.676 510.56L527.556 509.312ZM524.548 513.216H530.932V515.744H524.548V513.216ZM522.916 517.056H532.532V511.904H522.916V517.056ZM530.964 502.8V506.304H529.444V503.04H527.892V511.04H529.444V507.648H530.964V511.232H532.532V502.8H530.964ZM542.953 506.8H539.625V504.464H542.953V506.8ZM537.977 506.8H536.009V508.048H546.553V506.8H544.601V504.464H546.633V503.2H535.929V504.464H537.977V506.8ZM537.977 514.784H546.201V511.424H536.313V512.64H544.585V513.648H536.345V517.104H546.617V515.872H537.977V514.784ZM534.761 509.056V510.368H547.849V509.056H534.761ZM557.821 504.8H553.453V516H555.053V512.608H557.821C560.733 512.608 562.493 511.136 562.493 508.704C562.493 506.272 560.733 504.8 557.821 504.8ZM557.773 511.216H555.053V506.192H557.773C559.821 506.192 560.893 507.104 560.893 508.704C560.893 510.304 559.821 511.216 557.773 511.216ZM569.806 516.128C573.214 516.128 575.742 513.696 575.742 510.4C575.742 507.104 573.214 504.672 569.806 504.672C566.366 504.672 563.838 507.12 563.838 510.4C563.838 513.68 566.366 516.128 569.806 516.128ZM569.806 514.704C567.294 514.704 565.438 512.88 565.438 510.4C565.438 507.92 567.294 506.096 569.806 506.096C572.286 506.096 574.142 507.92 574.142 510.4C574.142 512.88 572.286 514.704 569.806 514.704Z" fill="#283895"/>
<path d="M765.408 579.312C763.536 578.576 762.592 576.976 762.592 575.392V573.6H760.992V575.376C760.992 577.008 760.016 578.848 758.08 579.696L758.944 580.976C760.336 580.368 761.28 579.248 761.808 577.936C762.336 579.104 763.248 580.032 764.528 580.56L765.408 579.312ZM762.4 583.216H768.784V585.744H762.4V583.216ZM760.768 587.056H770.384V581.904H760.768V587.056ZM768.816 572.8V576.304H767.296V573.04H765.744V581.04H767.296V577.648H768.816V581.232H770.384V572.8H768.816ZM780.805 576.8H777.477V574.464H780.805V576.8ZM775.829 576.8H773.861V578.048H784.405V576.8H782.453V574.464H784.485V573.2H773.781V574.464H775.829V576.8ZM775.829 584.784H784.053V581.424H774.164V582.64H782.437V583.648H774.197V587.104H784.469V585.872H775.829V584.784ZM772.613 579.056V580.368H785.701V579.056H772.613ZM795.369 584.4C795.049 584.656 794.617 584.8 794.169 584.8C793.321 584.8 792.841 584.288 792.841 583.376V578.784H795.273V577.52H792.841V575.664H791.305V577.52H789.865V578.784H791.305V583.44C791.305 585.152 792.281 586.096 793.993 586.096C794.681 586.096 795.385 585.904 795.849 585.504L795.369 584.4ZM804.839 581.808C804.839 579.2 803.095 577.44 800.647 577.44C798.199 577.44 796.391 579.248 796.391 581.76C796.391 584.288 798.215 586.096 800.951 586.096C802.359 586.096 803.527 585.616 804.295 584.72L803.447 583.728C802.823 584.416 801.991 584.752 800.999 584.752C799.319 584.752 798.119 583.76 797.927 582.272H804.807C804.823 582.128 804.839 581.936 804.839 581.808ZM800.647 578.736C802.135 578.736 803.207 579.744 803.367 581.168H797.927C798.087 579.728 799.175 578.736 800.647 578.736ZM809.154 586.096C811.41 586.096 812.818 585.12 812.818 583.584C812.818 580.288 807.442 581.92 807.442 579.92C807.442 579.248 808.098 578.752 809.442 578.752C810.274 578.752 811.122 578.928 811.89 579.424L812.546 578.208C811.81 577.728 810.562 577.44 809.458 577.44C807.282 577.44 805.922 578.464 805.922 579.984C805.922 583.36 811.282 581.712 811.282 583.616C811.282 584.336 810.69 584.768 809.266 584.768C808.162 584.768 807.01 584.4 806.29 583.888L805.65 585.104C806.354 585.664 807.746 586.096 809.154 586.096ZM818.775 584.4C818.455 584.656 818.023 584.8 817.575 584.8C816.727 584.8 816.247 584.288 816.247 583.376V578.784H818.679V577.52H816.247V575.664H814.711V577.52H813.271V578.784H814.711V583.44C814.711 585.152 815.687 586.096 817.399 586.096C818.087 586.096 818.791 585.904 819.255 585.504L818.775 584.4Z" fill="white"/>
<path d="M771.822 687.008H763.518V684.608H771.726V683.28H761.886V688.336H771.822V687.008ZM766.75 695.952C764.638 695.952 763.454 695.488 763.454 694.592C763.454 693.712 764.638 693.232 766.75 693.232C768.862 693.232 770.062 693.712 770.062 694.592C770.062 695.488 768.862 695.952 766.75 695.952ZM766.75 691.968C763.661 691.968 761.774 692.928 761.774 694.592C761.774 696.272 763.661 697.232 766.75 697.232C769.854 697.232 771.726 696.272 771.726 694.592C771.726 692.928 769.854 691.968 766.75 691.968ZM760.27 689.536V690.896H773.326V689.536H760.27ZM776.178 694.272H784.594V697.152H786.242V692.944H776.178V694.272ZM782.082 690.64V689.328H786.45V688.064H778.002V686.784H786.162V683.12H776.354V684.384H784.53V685.6H776.386V689.328H780.434V690.64H774.706V691.968H787.81V690.64H782.082ZM790.455 690C792.167 689.616 793.367 688.752 793.991 687.6C794.631 688.64 795.799 689.44 797.447 689.792L798.103 688.512C796.023 688.08 794.807 686.944 794.791 685.632H797.815V684.336H794.791V682.816H793.127V684.336H790.119V685.632H793.143C793.127 687.024 791.895 688.272 789.783 688.736L790.455 690ZM798.567 690.384C795.463 690.816 791.879 690.848 789.191 690.848L789.399 692.208C790.535 692.208 791.799 692.192 793.143 692.144V696.816H794.791V692.048C796.071 691.984 797.399 691.824 798.663 691.6L798.567 690.384ZM799.495 682.784V697.248H801.143V682.784H799.495ZM816.188 689.616C813.34 689.136 811.02 686.992 811.02 684.752V683.664H809.276V684.752C809.276 686.976 806.956 689.136 804.092 689.616L804.796 690.992C807.148 690.528 809.196 689.088 810.156 687.168C811.084 689.088 813.132 690.528 815.5 690.992L816.188 689.616ZM810.956 694.08V690.704H809.308V694.08H803.66V695.44H816.748V694.08H810.956Z" fill="white"/>
<rect x="468" y="665" width="160" height="50" rx="7" fill="#435CE7"/>
<rect x="468" y="775" width="160" height="50" rx="7" fill="#F6F7FE"/>
<path d="M532.158 682.784H530.494V690.192H532.158V682.784ZM529.038 688.576C526.814 687.888 525.518 686.128 525.518 684.256V683.168H523.838V684.256C523.838 686.208 522.542 688.08 520.254 688.832L521.07 690.144C522.814 689.552 524.046 688.352 524.702 686.8C525.358 688.224 526.574 689.328 528.238 689.872L529.038 688.576ZM524.334 695.808V694.544H532.158V690.88H522.686V692.16H530.526V693.344H522.718V697.104H532.59V695.808H524.334ZM539.778 683.984H538.13V686.352C538.13 689.024 536.722 691.76 534.466 692.864L535.474 694.192C537.122 693.344 538.338 691.664 538.962 689.664C539.586 691.552 540.738 693.12 542.29 693.92L543.298 692.608C541.122 691.536 539.778 688.928 539.778 686.352V683.984ZM548.162 688.512H545.906V682.784H544.258V697.232H545.906V689.872H548.162V688.512ZM559.511 691.664H561.159V682.784H559.511V685.248H557.415V686.576H559.511V687.888H557.415V689.216H559.511V691.664ZM552.471 685.152H554.311V689.504C553.687 689.536 553.079 689.552 552.471 689.568V685.152ZM557.527 689.248C556.999 689.312 556.455 689.376 555.895 689.392V685.152H557.191V683.808H549.575V685.152H550.887V689.6C550.295 689.6 549.719 689.6 549.191 689.6L549.383 690.96C551.703 690.96 554.903 690.912 557.623 690.448L557.527 689.248ZM556.343 695.968C554.279 695.968 553.127 695.472 553.127 694.592C553.127 693.68 554.279 693.2 556.343 693.2C558.407 693.2 559.575 693.68 559.575 694.592C559.575 695.472 558.407 695.968 556.343 695.968ZM556.343 691.92C553.319 691.92 551.479 692.896 551.479 694.592C551.479 696.256 553.319 697.232 556.343 697.232C559.367 697.232 561.223 696.256 561.223 694.592C561.223 692.896 559.367 691.92 556.343 691.92ZM564.364 684.304V685.648H569.42C569.084 688.976 567.18 691.52 563.644 693.328L564.556 694.592C569.276 692.208 571.068 688.496 571.068 684.304H564.364ZM577.036 688.48H574.844V682.768H573.196V697.216H574.844V689.856H577.036V688.48Z" fill="white"/>
<path d="M501.048 792.784H499.384V800.192H501.048V792.784ZM497.928 798.576C495.704 797.888 494.408 796.128 494.408 794.256V793.168H492.728V794.256C492.728 796.208 491.432 798.08 489.144 798.832L489.96 800.144C491.704 799.552 492.936 798.352 493.592 796.8C494.248 798.224 495.464 799.328 497.128 799.872L497.928 798.576ZM493.224 805.808V804.544H501.048V800.88H491.576V802.16H499.416V803.344H491.608V807.104H501.48V805.808H493.224ZM508.669 793.984H507.021V796.352C507.021 799.024 505.613 801.76 503.357 802.864L504.365 804.192C506.013 803.344 507.229 801.664 507.853 799.664C508.477 801.552 509.629 803.12 511.181 803.92L512.189 802.608C510.013 801.536 508.669 798.928 508.669 796.352V793.984ZM517.053 798.512H514.797V792.784H513.149V807.232H514.797V799.872H517.053V798.512ZM528.402 801.664H530.05V792.784H528.402V795.248H526.306V796.576H528.402V797.888H526.306V799.216H528.402V801.664ZM521.362 795.152H523.202V799.504C522.578 799.536 521.97 799.552 521.362 799.568V795.152ZM526.418 799.248C525.89 799.312 525.346 799.376 524.786 799.392V795.152H526.082V793.808H518.466V795.152H519.778V799.6C519.186 799.6 518.61 799.6 518.082 799.6L518.274 800.96C520.594 800.96 523.794 800.912 526.514 800.448L526.418 799.248ZM525.234 805.968C523.17 805.968 522.018 805.472 522.018 804.592C522.018 803.68 523.17 803.2 525.234 803.2C527.298 803.2 528.466 803.68 528.466 804.592C528.466 805.472 527.298 805.968 525.234 805.968ZM525.234 801.92C522.21 801.92 520.37 802.896 520.37 804.592C520.37 806.256 522.21 807.232 525.234 807.232C528.258 807.232 530.114 806.256 530.114 804.592C530.114 802.896 528.258 801.92 525.234 801.92ZM533.254 794.304V795.648H538.31C537.974 798.976 536.07 801.52 532.534 803.328L533.446 804.592C538.166 802.208 539.958 798.496 539.958 794.304H533.254ZM545.926 798.48H543.734V792.768H542.086V807.216H543.734V799.856H545.926V798.48ZM560.683 796.032V797.52H557.147V798.8H560.683V800.112H562.331V792.784H560.683V794.752H557.691C557.771 794.336 557.803 793.888 557.803 793.424H551.339V794.752H555.979C555.755 796.768 553.979 798.352 550.555 799.088L551.131 800.432C554.315 799.712 556.443 798.24 557.339 796.032H560.683ZM554.603 805.776V804.448H562.331V800.704H552.923V802.016H560.683V803.216H552.955V807.104H562.731V805.776H554.603ZM572.4 800.912C572.8 798.352 572.8 796.528 572.8 795.264V794.304H565.456V795.632H571.184C571.184 796.848 571.152 798.528 570.784 800.768L572.4 800.912ZM569.168 798.448H567.552V802.8C566.544 802.816 565.568 802.832 564.688 802.832L564.864 804.192C567.392 804.192 570.704 804.128 573.68 803.632L573.6 802.416C572.192 802.608 570.672 802.688 569.168 802.752V798.448ZM578.16 798.72H576.032V792.784H574.368V807.232H576.032V800.112H578.16V798.72ZM582.404 797.504H589.252V799.872H582.404V797.504ZM586.644 804.112V801.2H590.884V793.744H589.252V796.176H582.404V793.744H580.772V801.2H584.996V804.112H579.3V805.472H592.388V804.112H586.644ZM603.753 795.552C603.753 797.28 603.753 799.328 603.193 802.16L604.857 802.336C605.417 799.344 605.417 797.344 605.417 795.552V794.128H595.129V795.472H603.753V795.552ZM600.297 803.984V798.896H598.633V803.984H593.769V805.344H606.825V803.984H600.297Z" fill="#283895"/>
<path d="M783.245 413.184L784.397 412.672C783.021 410.384 782.381 407.68 782.381 404.992C782.381 402.32 783.021 399.616 784.397 397.312L783.245 396.816C781.757 399.232 780.877 401.84 780.877 404.992C780.877 408.176 781.757 410.752 783.245 413.184ZM792.955 403.312C791.083 402.576 790.139 400.976 790.139 399.392V397.6H788.539V399.376C788.539 401.008 787.563 402.848 785.627 403.696L786.491 404.976C787.883 404.368 788.827 403.248 789.355 401.936C789.883 403.104 790.795 404.032 792.075 404.56L792.955 403.312ZM789.947 407.216H796.331V409.744H789.947V407.216ZM788.315 411.056H797.931V405.904H788.315V411.056ZM796.363 396.8V400.304H794.843V397.04H793.291V405.04H794.843V401.648H796.363V405.232H797.931V396.8H796.363ZM808.351 400.8H805.023V398.464H808.351V400.8ZM803.375 400.8H801.407V402.048H811.951V400.8H809.999V398.464H812.031V397.2H801.327V398.464H803.375V400.8ZM803.375 408.784H811.599V405.424H801.711V406.64H809.983V407.648H801.743V411.104H812.015V409.872H803.375V408.784ZM800.159 403.056V404.368H813.247V403.056H800.159ZM827.716 403.84H825.7C826.068 401.792 826.068 400.288 826.068 398.928V397.664H816.212V398.992H824.452C824.452 400.32 824.452 401.824 824.036 403.84H814.644V405.2H820.292V411.232H821.956V405.2H827.716V403.84ZM831.129 399.68H833.625V406.16H831.129V399.68ZM829.593 407.472H835.161V398.368H829.593V407.472ZM839.881 396.784V402.416H838.233V397.056H836.681V410.544H838.233V403.76H839.881V411.216H841.449V396.784H839.881ZM850.621 398.928V402.144H848.701V398.928H850.621ZM848.701 406.832V403.456H850.621V406.832H848.701ZM852.029 397.584H847.325V409.504H848.701V408.16H852.029V397.584ZM853.181 406.752C853.949 407.584 854.781 408.72 855.117 409.488L856.381 408.72C856.029 407.952 855.149 406.864 854.381 406.064L853.181 406.752ZM861.485 402.752V401.44H857.597V399.68H860.893V398.384H857.597V396.56H856.109V398.384H852.909V399.68H856.109V401.44H852.301V402.752H858.173V404.352H852.349V405.664H858.173V409.568C858.173 409.792 858.093 409.856 857.837 409.872C857.597 409.872 856.717 409.872 855.821 409.84C856.029 410.256 856.237 410.832 856.301 411.232C857.549 411.232 858.365 411.216 858.925 410.992C859.453 410.768 859.629 410.368 859.629 409.6V405.664H861.341V404.352H859.629V402.752H861.485ZM863.747 413.184C865.251 410.752 866.131 408.176 866.131 404.992C866.131 401.84 865.251 399.232 863.747 396.816L862.595 397.312C863.971 399.616 864.611 402.32 864.611 404.992C864.611 407.68 863.971 410.384 862.595 412.672L863.747 413.184Z" fill="#666666"/>
<path d="M517.766 749.16H514.326V747.656H512.678V749.16H509.238V750.488H517.766V749.16ZM511.574 753.56C511.574 752.744 512.342 752.248 513.494 752.248C514.646 752.248 515.43 752.744 515.43 753.56C515.43 754.392 514.646 754.888 513.494 754.888C512.342 754.888 511.574 754.392 511.574 753.56ZM516.998 753.56C516.998 752.04 515.59 751.016 513.494 751.016C511.414 751.016 509.99 752.04 509.99 753.56C509.99 755.096 511.414 756.12 513.494 756.12C515.59 756.12 516.998 755.096 516.998 753.56ZM518.87 760.744H512.902V759.416H518.87V760.744ZM518.87 758.136H512.902V756.808H511.27V762.056H520.502V756.808H518.87V758.136ZM522.55 751.384H520.502V747.784H518.854V756.216H520.502V752.744H522.55V751.384ZM525.915 758.328H534.011V762.2H535.659V757.016H525.915V758.328ZM534.011 747.768V750.248H531.131C531.243 749.784 531.291 749.256 531.291 748.728H524.635V750.056H529.531C529.227 752.28 527.227 754.072 523.867 754.968L524.507 756.28C527.595 755.448 529.771 753.832 530.731 751.576H534.011V753.304H530.507V754.648H534.011V756.392H535.659V747.768H534.011Z" fill="#7094F0"/>
<path d="M517.766 639.16H514.326V637.656H512.678V639.16H509.238V640.488H517.766V639.16ZM511.574 643.56C511.574 642.744 512.342 642.248 513.494 642.248C514.646 642.248 515.43 642.744 515.43 643.56C515.43 644.392 514.646 644.888 513.494 644.888C512.342 644.888 511.574 644.392 511.574 643.56ZM516.998 643.56C516.998 642.04 515.59 641.016 513.494 641.016C511.414 641.016 509.99 642.04 509.99 643.56C509.99 645.096 511.414 646.12 513.494 646.12C515.59 646.12 516.998 645.096 516.998 643.56ZM518.87 650.744H512.902V649.416H518.87V650.744ZM518.87 648.136H512.902V646.808H511.27V652.056H520.502V646.808H518.87V648.136ZM522.55 641.384H520.502V637.784H518.854V646.216H520.502V642.744H522.55V641.384ZM525.915 648.328H534.011V652.2H535.659V647.016H525.915V648.328ZM534.011 637.768V640.248H531.131C531.243 639.784 531.291 639.256 531.291 638.728H524.635V640.056H529.531C529.227 642.28 527.227 644.072 523.867 644.968L524.507 646.28C527.595 645.448 529.771 643.832 530.731 641.576H534.011V643.304H530.507V644.648H534.011V646.392H535.659V637.768H534.011Z" fill="#7094F0"/>
<rect x="220" y="799" width="160" height="50" rx="7" fill="#F6F7FE"/>
<path d="M274.1 821.056C274.1 819.808 275.044 818.992 276.324 818.992C277.62 818.992 278.564 819.808 278.564 821.056C278.564 822.32 277.62 823.12 276.324 823.12C275.044 823.12 274.1 822.32 274.1 821.056ZM280.18 821.056C280.18 819.024 278.532 817.616 276.324 817.616C274.132 817.616 272.484 819.024 272.484 821.056C272.484 823.088 274.132 824.512 276.324 824.512C278.532 824.512 280.18 823.088 280.18 821.056ZM278.932 829.92C276.916 829.92 275.748 829.408 275.748 828.464C275.748 827.504 276.916 826.992 278.932 826.992C280.948 826.992 282.116 827.504 282.116 828.464C282.116 829.408 280.948 829.92 278.932 829.92ZM278.932 825.68C275.972 825.68 274.116 826.72 274.116 828.464C274.116 830.192 275.972 831.232 278.932 831.232C281.908 831.232 283.748 830.192 283.748 828.464C283.748 826.72 281.908 825.68 278.932 825.68ZM285.588 820.112V818.752H283.588V816.768H281.94V825.28H283.588V823.232H285.588V821.872H283.588V820.112H285.588ZM295.289 823.856C293.097 823.104 291.849 821.28 291.849 819.36V817.664H290.185V819.344C290.185 821.456 288.953 823.408 286.633 824.192L287.529 825.472C289.225 824.864 290.425 823.632 291.049 822.048C291.689 823.456 292.857 824.608 294.457 825.168L295.289 823.856ZM290.585 826.4H288.937V830.96H298.633V829.616H290.585V826.4ZM298.057 821.104V816.768H296.409V827.424H298.057V822.464H300.105V821.104H298.057ZM309.821 818.8H305.453V830H307.053V826.608H309.821C312.733 826.608 314.493 825.136 314.493 822.704C314.493 820.272 312.733 818.8 309.821 818.8ZM309.773 825.216H307.053V820.192H309.773C311.821 820.192 312.893 821.104 312.893 822.704C312.893 824.304 311.821 825.216 309.773 825.216ZM321.806 830.128C325.214 830.128 327.742 827.696 327.742 824.4C327.742 821.104 325.214 818.672 321.806 818.672C318.366 818.672 315.838 821.12 315.838 824.4C315.838 827.68 318.366 830.128 321.806 830.128ZM321.806 828.704C319.294 828.704 317.438 826.88 317.438 824.4C317.438 821.92 319.294 820.096 321.806 820.096C324.286 820.096 326.142 821.92 326.142 824.4C326.142 826.88 324.286 828.704 321.806 828.704Z" fill="#283895"/>
<rect y="799" width="160" height="50" rx="7" fill="#F6F7FE"/>
<path d="M74.0917 829L71.4357 825.24C73.0037 824.68 73.8997 823.432 73.8997 821.704C73.8997 819.272 72.1397 817.8 69.2277 817.8H64.8597V829H66.4597V825.592H69.2277C69.4677 825.592 69.7077 825.576 69.9317 825.56L72.3477 829H74.0917ZM69.1797 824.232H66.4597V819.192H69.1797C71.2277 819.192 72.2997 820.104 72.2997 821.704C72.2997 823.304 71.2277 824.232 69.1797 824.232ZM78.3024 829H79.8864V819.192H83.7264V817.8H74.4624V819.192H78.3024V829ZM90.1188 829.128C93.5268 829.128 96.0548 826.696 96.0548 823.4C96.0548 820.104 93.5268 817.672 90.1188 817.672C86.6788 817.672 84.1508 820.12 84.1508 823.4C84.1508 826.68 86.6788 829.128 90.1188 829.128ZM90.1188 827.704C87.6068 827.704 85.7508 825.88 85.7508 823.4C85.7508 820.92 87.6068 819.096 90.1188 819.096C92.5988 819.096 94.4548 820.92 94.4548 823.4C94.4548 825.88 92.5988 827.704 90.1188 827.704Z" fill="#283895"/>
</svg>
