<svg width="1200" height="549" viewBox="0 0 1200 549" fill="none" xmlns="http://www.w3.org/2000/svg">
<rect width="1200" height="549" fill="white" fill-opacity="0.5"/>
<path d="M80 30H1145V519H80V30Z" fill="white"/>
<path d="M270 519L270 30" stroke="#DDDDDD" stroke-linecap="round" stroke-linejoin="round" stroke-dasharray="2 4"/>
<path d="M490 519L490 30" stroke="#DDDDDD" stroke-linecap="round" stroke-linejoin="round" stroke-dasharray="2 4"/>
<path d="M710 519L710 30" stroke="#DDDDDD" stroke-linecap="round" stroke-linejoin="round" stroke-dasharray="2 4"/>
<path d="M930 519L930 30" stroke="#DDDDDD" stroke-linecap="round" stroke-linejoin="round" stroke-dasharray="2 4"/>
<path d="M459.999 134H504.999" stroke="#7094F0" stroke-linecap="round" stroke-linejoin="round" stroke-dasharray="2 4"/>
<path d="M508.932 134.8L503.599 138.8C502.94 139.294 501.999 138.824 501.999 138L501.999 130C501.999 129.176 502.94 128.706 503.599 129.2L508.932 133.2C509.466 133.6 509.466 134.4 508.932 134.8Z" fill="#7094F0"/>
<rect x="80" y="110" width="160" height="50" rx="10" fill="#F6F7FE"/>
<path d="M147.573 137.078V138.446H143.649C143.757 137.996 143.865 137.528 143.973 137.078H147.573ZM149.211 134.18H153.261V135.674H149.211V134.18ZM149.211 138.446V137.078H154.917V132.776H141.813V134.18H147.573V135.674H142.605C142.317 137.132 141.849 138.968 141.471 140.174L143.127 140.408L143.289 139.868H146.205C144.639 141.164 142.371 142.28 140.301 142.856C140.661 143.162 141.129 143.774 141.381 144.17C143.559 143.432 145.917 142.1 147.573 140.516V144.404H149.211V139.868H154.161C154.017 141.2 153.855 141.812 153.621 142.046C153.459 142.172 153.279 142.19 152.991 142.19C152.667 142.208 151.875 142.19 151.047 142.1C151.299 142.514 151.497 143.162 151.515 143.63C152.433 143.684 153.297 143.666 153.765 143.63C154.287 143.594 154.665 143.468 155.007 143.108C155.457 142.64 155.691 141.542 155.907 139.094C155.925 138.878 155.943 138.446 155.943 138.446H149.211ZM150.903 129.356C151.101 128.978 151.281 128.582 151.443 128.186L149.841 127.79C149.463 128.816 148.887 129.824 148.167 130.652V129.356H143.775C143.955 128.978 144.135 128.582 144.297 128.204L142.713 127.79C142.137 129.338 141.111 130.922 139.995 131.93C140.373 132.146 141.039 132.596 141.363 132.83C141.921 132.272 142.497 131.516 143.019 130.688H143.505C143.865 131.39 144.225 132.2 144.351 132.74L145.791 132.146C145.683 131.75 145.449 131.21 145.161 130.688H148.131C147.789 131.102 147.393 131.48 146.997 131.786C147.393 131.984 148.059 132.452 148.365 132.722C148.977 132.182 149.571 131.48 150.111 130.688H151.137C151.659 131.372 152.163 132.182 152.379 132.74L153.837 132.164C153.657 131.75 153.315 131.21 152.937 130.688H156.501V129.356H150.903ZM160.157 143V131.12L160.931 131.966H157.313V130.4H161.939V143H160.157ZM168.495 134.81V136.16H176.973V134.81H173.445V133.316H176.577V132.002H173.445V130.616H171.861V132.002H168.891V133.316H171.861V134.81H168.495ZM174.615 138.752V140.894H170.781V138.752H174.615ZM176.163 142.208V137.456H169.269V143.216H170.781V142.208H176.163ZM179.511 128.762H166.155V134.72C166.155 137.384 165.975 140.948 164.175 143.45C164.553 143.648 165.255 144.206 165.543 144.53C167.505 141.812 167.811 137.636 167.811 134.72V130.328H177.837V142.442C177.837 142.748 177.729 142.856 177.405 142.874C177.099 142.874 176.001 142.892 174.975 142.856C175.191 143.252 175.443 143.99 175.497 144.404C177.081 144.404 178.053 144.386 178.665 144.116C179.277 143.864 179.511 143.396 179.511 142.442V128.762Z" fill="#283895"/>
<rect x="80" y="180" width="160" height="50" rx="10" fill="#F6F7FE"/>
<path d="M145.236 207.078V208.446H141.312C141.42 207.996 141.528 207.528 141.636 207.078H145.236ZM146.874 204.18H150.924V205.674H146.874V204.18ZM146.874 208.446V207.078H152.58V202.776H139.476V204.18H145.236V205.674H140.268C139.98 207.132 139.512 208.968 139.134 210.174L140.79 210.408L140.952 209.868H143.868C142.302 211.164 140.034 212.28 137.964 212.856C138.324 213.162 138.792 213.774 139.044 214.17C141.222 213.432 143.58 212.1 145.236 210.516V214.404H146.874V209.868H151.824C151.68 211.2 151.518 211.812 151.284 212.046C151.122 212.172 150.942 212.19 150.654 212.19C150.33 212.208 149.538 212.19 148.71 212.1C148.962 212.514 149.16 213.162 149.178 213.63C150.096 213.684 150.96 213.666 151.428 213.63C151.95 213.594 152.328 213.468 152.67 213.108C153.12 212.64 153.354 211.542 153.57 209.094C153.588 208.878 153.606 208.446 153.606 208.446H146.874ZM148.566 199.356C148.764 198.978 148.944 198.582 149.106 198.186L147.504 197.79C147.126 198.816 146.55 199.824 145.83 200.652V199.356H141.438C141.618 198.978 141.798 198.582 141.96 198.204L140.376 197.79C139.8 199.338 138.774 200.922 137.658 201.93C138.036 202.146 138.702 202.596 139.026 202.83C139.584 202.272 140.16 201.516 140.682 200.688H141.168C141.528 201.39 141.888 202.2 142.014 202.74L143.454 202.146C143.346 201.75 143.112 201.21 142.824 200.688H145.794C145.452 201.102 145.056 201.48 144.66 201.786C145.056 201.984 145.722 202.452 146.028 202.722C146.64 202.182 147.234 201.48 147.774 200.688H148.8C149.322 201.372 149.826 202.182 150.042 202.74L151.5 202.164C151.32 201.75 150.978 201.21 150.6 200.688H154.164V199.356H148.566ZM155.498 213V211.776L160.628 206.826C161.084 206.394 161.42 206.016 161.636 205.692C161.864 205.356 162.014 205.05 162.086 204.774C162.17 204.486 162.212 204.21 162.212 203.946C162.212 203.298 161.984 202.788 161.528 202.416C161.072 202.044 160.406 201.858 159.53 201.858C158.858 201.858 158.252 201.972 157.712 202.2C157.172 202.416 156.704 202.758 156.308 203.226L155.084 202.164C155.564 201.552 156.206 201.084 157.01 200.76C157.826 200.424 158.72 200.256 159.692 200.256C160.568 200.256 161.33 200.4 161.978 200.688C162.626 200.964 163.124 201.366 163.472 201.894C163.832 202.422 164.012 203.046 164.012 203.766C164.012 204.174 163.958 204.576 163.85 204.972C163.742 205.368 163.538 205.788 163.238 206.232C162.938 206.676 162.506 207.174 161.942 207.726L157.37 212.136L156.938 211.434H164.552V213H155.498ZM169.832 204.81V206.16H178.31V204.81H174.782V203.316H177.914V202.002H174.782V200.616H173.198V202.002H170.228V203.316H173.198V204.81H169.832ZM175.952 208.752V210.894H172.118V208.752H175.952ZM177.5 212.208V207.456H170.606V213.216H172.118V212.208H177.5ZM180.848 198.762H167.492V204.72C167.492 207.384 167.312 210.948 165.512 213.45C165.89 213.648 166.592 214.206 166.88 214.53C168.842 211.812 169.148 207.636 169.148 204.72V200.328H179.174V212.442C179.174 212.748 179.066 212.856 178.742 212.874C178.436 212.874 177.338 212.892 176.312 212.856C176.528 213.252 176.78 213.99 176.834 214.404C178.418 214.404 179.39 214.386 180.002 214.116C180.614 213.864 180.848 213.396 180.848 212.442V198.762Z" fill="#283895"/>
<rect x="80" y="30" width="160" height="50" rx="10" fill="#F5F5F5"/>
<path d="M155.914 54.81V56.16H164.392V54.81H160.864V53.316H163.996V52.002H160.864V50.616H159.28V52.002H156.31V53.316H159.28V54.81H155.914ZM162.034 58.752V60.894H158.2V58.752H162.034ZM163.582 62.208V57.456H156.688V63.216H158.2V62.208H163.582ZM166.93 48.762H153.574V54.72C153.574 57.384 153.394 60.948 151.594 63.45C151.972 63.648 152.674 64.206 152.962 64.53C154.924 61.812 155.23 57.636 155.23 54.72V50.328H165.256V62.442C165.256 62.748 165.148 62.856 164.824 62.874C164.518 62.874 163.42 62.892 162.394 62.856C162.61 63.252 162.862 63.99 162.916 64.404C164.5 64.404 165.472 64.386 166.084 64.116C166.696 63.864 166.93 63.396 166.93 62.442V48.762Z" fill="#222222"/>
<rect x="300" y="180" width="160" height="50" rx="10" fill="#435CE7"/>
<path d="M350.459 200.274C349.631 199.662 347.993 198.906 346.733 198.456L345.887 199.608C347.165 200.094 348.785 200.94 349.577 201.552L350.459 200.274ZM350.495 202.344C348.587 202.974 346.625 203.586 345.329 203.964L345.815 205.494C347.237 204.99 349.073 204.396 350.783 203.784L350.495 202.344ZM359.387 211.074V206.304H347.579V211.218H349.235V207.816H357.677V211.074H359.387ZM352.673 208.302C352.169 210.948 350.909 212.406 345.257 213.072C345.509 213.414 345.869 214.062 345.995 214.44C352.097 213.594 353.717 211.704 354.329 208.302H352.673ZM353.591 211.776C355.769 212.478 358.721 213.594 360.197 214.368L361.205 213C359.657 212.262 356.651 211.2 354.545 210.606L353.591 211.776ZM358.955 200.76C358.739 201.3 358.487 201.84 358.271 202.218L359.747 202.614C360.179 201.894 360.701 200.76 361.097 199.734L359.873 199.428L359.621 199.482H353.987C354.185 199.05 354.365 198.636 354.527 198.204L352.943 197.988C352.511 199.248 351.611 200.706 350.189 201.786C350.549 202.002 351.107 202.47 351.341 202.848C352.133 202.2 352.745 201.498 353.249 200.76H355.049C354.527 202.488 353.429 204.036 350.333 204.9C350.639 205.17 351.053 205.746 351.215 206.106C353.645 205.35 355.013 204.216 355.859 202.848C356.939 204.288 358.523 205.386 360.467 205.944C360.683 205.548 361.097 204.936 361.457 204.648C359.225 204.162 357.407 203.028 356.471 201.498C356.561 201.246 356.633 201.012 356.705 200.76H358.955ZM374.995 201.228C374.401 200.562 373.159 199.662 372.151 199.05L371.305 200.184C372.331 200.832 373.555 201.804 374.113 202.506L374.995 201.228ZM374.239 205.512C373.591 204.882 372.277 204.036 371.233 203.478L370.441 204.684C371.503 205.26 372.781 206.196 373.393 206.844L374.239 205.512ZM368.839 198.942C368.623 200.166 368.137 201.948 367.759 203.046L368.821 203.37C369.289 202.344 369.829 200.67 370.297 199.266L368.839 198.942ZM365.239 203.028C365.113 201.948 364.735 200.274 364.249 199.014L363.061 199.32C363.493 200.598 363.889 202.29 363.961 203.37L365.239 203.028ZM367.345 205.44H370.153V203.874H367.345V197.988H365.779V203.874H362.989V205.44H365.275C364.681 207.276 363.655 209.418 362.683 210.606C362.953 211.056 363.349 211.794 363.493 212.28C364.339 211.146 365.167 209.31 365.779 207.51V214.404H367.345V207.528C367.939 208.482 368.623 209.616 368.929 210.264L369.991 208.95C369.613 208.41 367.885 206.214 367.345 205.638V205.44ZM379.495 209.058L379.261 207.528L377.263 207.87V197.916H375.697V208.158L370.099 209.166L370.369 210.714L375.697 209.742V214.422H377.263V209.454L379.495 209.058ZM381.477 199.41C382.539 200.076 383.853 201.03 384.519 201.714L385.599 200.454C384.933 199.806 383.565 198.906 382.521 198.312L381.477 199.41ZM380.595 204.306C381.675 204.9 383.061 205.8 383.727 206.448L384.753 205.134C384.051 204.522 382.647 203.694 381.585 203.154L380.595 204.306ZM380.973 212.982L382.413 214.098C383.421 212.442 384.537 210.408 385.419 208.572L384.159 207.474C383.169 209.472 381.873 211.65 380.973 212.982ZM396.669 198.924H386.067V213.576H397.029V211.92H387.795V200.562H396.669V198.924ZM402.683 202.992H410.585V205.782H402.683V202.992ZM412.457 207.348V201.426H409.739C410.297 200.562 410.891 199.536 411.431 198.6L409.703 197.898C409.271 198.978 408.551 200.364 407.903 201.426H404.393L405.437 200.922C405.131 200.076 404.339 198.852 403.565 197.952L402.143 198.618C402.809 199.464 403.475 200.598 403.817 201.426H400.883V207.348H412.457ZM409.415 210.066C408.767 209.274 407.453 208.104 406.283 207.348L405.095 208.284C406.229 209.058 407.543 210.3 408.191 211.146L409.415 210.066ZM399.947 213.468C400.721 212.352 401.297 210.624 401.567 209.13L399.983 208.842C399.677 210.246 399.101 211.83 398.399 212.748L399.947 213.468ZM405.707 212.73C404.591 212.73 404.393 212.64 404.393 212.082V208.572H402.629V212.1C402.629 213.774 403.205 214.242 405.563 214.242H409.325C411.125 214.242 411.665 213.72 411.881 211.596C411.395 211.506 410.693 211.254 410.297 211.002C410.207 212.478 410.063 212.73 409.217 212.73H405.707ZM411.125 209.13C412.151 210.372 413.177 212.046 413.555 213.162L414.923 212.316C414.545 211.2 413.465 209.598 412.421 208.392L411.125 209.13Z" fill="white"/>
<rect x="300" y="320" width="160" height="50" rx="10" fill="#435CE7"/>
<path d="M345.311 353.54C347.129 353.144 349.559 352.64 351.845 352.136L351.701 350.588C349.271 351.056 346.733 351.56 345.041 351.83L345.311 353.54ZM347.237 343.568C348.245 342.164 349.253 340.382 350.009 338.672L348.299 337.97C347.615 340.004 346.355 342.164 345.959 342.704C345.581 343.262 345.257 343.658 344.915 343.748C345.131 344.198 345.383 345.026 345.491 345.386C345.779 345.26 346.229 345.152 348.191 344.918C347.471 345.908 346.823 346.682 346.499 346.988C345.923 347.654 345.509 348.05 345.077 348.14C345.257 348.59 345.545 349.418 345.617 349.76C346.067 349.508 346.805 349.346 351.719 348.464C351.647 348.104 351.611 347.438 351.611 346.988L348.047 347.564C349.415 346.052 350.729 344.27 351.845 342.47L350.351 341.534C350.009 342.182 349.613 342.812 349.235 343.406L347.237 343.568ZM358.919 348.95V352.118H354.311V348.95H358.919ZM352.673 354.404H354.311V353.63H358.919V354.332H360.611V347.438H352.673V354.404ZM361.349 341.822V340.202H357.461V337.898H355.715V340.202H351.773V341.822H355.715V344.234H352.223V345.818H361.007V344.234H357.461V341.822H361.349ZM366.733 344.576V343.01H370.261V344.576H366.733ZM366.733 340.166H370.261V341.696H366.733V340.166ZM375.571 341.696H372.025V340.166H375.571V341.696ZM375.571 344.576H372.025V343.01H375.571V344.576ZM379.009 348.86V347.33H372.025V345.998H377.371V338.762H365.005V345.998H370.261V347.33H363.259V348.86H368.965C367.399 350.408 365.005 351.794 362.791 352.496C363.151 352.838 363.673 353.486 363.907 353.882C366.175 353.036 368.569 351.488 370.261 349.67V354.422H372.025V349.58C373.753 351.344 376.165 352.928 378.361 353.792C378.631 353.36 379.135 352.73 379.513 352.37C377.335 351.686 374.941 350.336 373.321 348.86H379.009ZM393.429 351.182V352.604H385.599V351.182H393.429ZM392.187 346.358V347.636H385.599V346.358H392.187ZM385.599 348.878H393.861V345.116H384.015V354.44H385.599V353.882H393.429V354.404H395.103V349.922H385.599V348.878ZM397.065 339.194H391.377C391.557 338.87 391.737 338.528 391.881 338.186L390.261 337.79C389.901 338.708 389.325 339.59 388.623 340.328V339.194H384.249C384.429 338.87 384.591 338.528 384.735 338.204L383.169 337.79C382.611 339.176 381.621 340.562 380.559 341.462C380.955 341.678 381.603 342.11 381.927 342.38C382.431 341.894 382.953 341.264 383.421 340.562H383.979C384.321 341.174 384.681 341.876 384.825 342.344L386.319 341.894C386.193 341.534 385.941 341.048 385.671 340.562H388.389C388.119 340.814 387.831 341.066 387.543 341.264C387.705 341.336 387.903 341.444 388.119 341.552H388.029V342.866H381.351V346.304H382.917V344.18H394.923V346.304H396.561V342.866H389.631V341.552H389.595C389.901 341.246 390.189 340.922 390.459 340.562H391.737C392.205 341.174 392.691 341.894 392.871 342.38L394.437 341.912C394.257 341.516 393.915 341.03 393.573 340.562H397.065V339.194ZM404.051 349.166C403.439 349.382 402.791 349.58 402.179 349.778V345.71H403.889V344.162H402.179V340.58H404.177V339.032H398.453V340.58H400.577V344.162H398.633V345.71H400.577V350.282C399.713 350.552 398.921 350.768 398.273 350.948L398.669 352.658C400.289 352.136 402.377 351.434 404.339 350.75L404.051 349.166ZM406.481 343.406H408.839V345.386H406.481V343.406ZM406.481 340.13H408.839V342.074H406.481V340.13ZM412.565 342.074H410.261V340.13H412.565V342.074ZM412.565 345.386H410.261V343.406H412.565V345.386ZM410.405 352.316V350.174H414.401V348.662H410.405V346.808H414.167V338.708H404.951V346.808H408.695V348.662H404.789V350.174H408.695V352.316H403.475V353.846H414.977V352.316H410.405Z" fill="white"/>
<rect x="300" y="469" width="160" height="50" rx="10" fill="#F6F7FE"/>
<path d="M345.311 502.54C347.129 502.144 349.559 501.64 351.845 501.136L351.701 499.588C349.271 500.056 346.733 500.56 345.041 500.83L345.311 502.54ZM347.237 492.568C348.245 491.164 349.253 489.382 350.009 487.672L348.299 486.97C347.615 489.004 346.355 491.164 345.959 491.704C345.581 492.262 345.257 492.658 344.915 492.748C345.131 493.198 345.383 494.026 345.491 494.386C345.779 494.26 346.229 494.152 348.191 493.918C347.471 494.908 346.823 495.682 346.499 495.988C345.923 496.654 345.509 497.05 345.077 497.14C345.257 497.59 345.545 498.418 345.617 498.76C346.067 498.508 346.805 498.346 351.719 497.464C351.647 497.104 351.611 496.438 351.611 495.988L348.047 496.564C349.415 495.052 350.729 493.27 351.845 491.47L350.351 490.534C350.009 491.182 349.613 491.812 349.235 492.406L347.237 492.568ZM358.919 497.95V501.118H354.311V497.95H358.919ZM352.673 503.404H354.311V502.63H358.919V503.332H360.611V496.438H352.673V503.404ZM361.349 490.822V489.202H357.461V486.898H355.715V489.202H351.773V490.822H355.715V493.234H352.223V494.818H361.007V493.234H357.461V490.822H361.349ZM366.733 493.576V492.01H370.261V493.576H366.733ZM366.733 489.166H370.261V490.696H366.733V489.166ZM375.571 490.696H372.025V489.166H375.571V490.696ZM375.571 493.576H372.025V492.01H375.571V493.576ZM379.009 497.86V496.33H372.025V494.998H377.371V487.762H365.005V494.998H370.261V496.33H363.259V497.86H368.965C367.399 499.408 365.005 500.794 362.791 501.496C363.151 501.838 363.673 502.486 363.907 502.882C366.175 502.036 368.569 500.488 370.261 498.67V503.422H372.025V498.58C373.753 500.344 376.165 501.928 378.361 502.792C378.631 502.36 379.135 501.73 379.513 501.37C377.335 500.686 374.941 499.336 373.321 497.86H379.009ZM393.429 500.182V501.604H385.599V500.182H393.429ZM392.187 495.358V496.636H385.599V495.358H392.187ZM385.599 497.878H393.861V494.116H384.015V503.44H385.599V502.882H393.429V503.404H395.103V498.922H385.599V497.878ZM397.065 488.194H391.377C391.557 487.87 391.737 487.528 391.881 487.186L390.261 486.79C389.901 487.708 389.325 488.59 388.623 489.328V488.194H384.249C384.429 487.87 384.591 487.528 384.735 487.204L383.169 486.79C382.611 488.176 381.621 489.562 380.559 490.462C380.955 490.678 381.603 491.11 381.927 491.38C382.431 490.894 382.953 490.264 383.421 489.562H383.979C384.321 490.174 384.681 490.876 384.825 491.344L386.319 490.894C386.193 490.534 385.941 490.048 385.671 489.562H388.389C388.119 489.814 387.831 490.066 387.543 490.264C387.705 490.336 387.903 490.444 388.119 490.552H388.029V491.866H381.351V495.304H382.917V493.18H394.923V495.304H396.561V491.866H389.631V490.552H389.595C389.901 490.246 390.189 489.922 390.459 489.562H391.737C392.205 490.174 392.691 490.894 392.871 491.38L394.437 490.912C394.257 490.516 393.915 490.03 393.573 489.562H397.065V488.194ZM404.051 498.166C403.439 498.382 402.791 498.58 402.179 498.778V494.71H403.889V493.162H402.179V489.58H404.177V488.032H398.453V489.58H400.577V493.162H398.633V494.71H400.577V499.282C399.713 499.552 398.921 499.768 398.273 499.948L398.669 501.658C400.289 501.136 402.377 500.434 404.339 499.75L404.051 498.166ZM406.481 492.406H408.839V494.386H406.481V492.406ZM406.481 489.13H408.839V491.074H406.481V489.13ZM412.565 491.074H410.261V489.13H412.565V491.074ZM412.565 494.386H410.261V492.406H412.565V494.386ZM410.405 501.316V499.174H414.401V497.662H410.405V495.808H414.167V487.708H404.951V495.808H408.695V497.662H404.789V499.174H408.695V501.316H403.475V502.846H414.977V501.316H410.405Z" fill="#283895"/>
<rect x="300" y="110" width="160" height="50" rx="10" fill="#7094F0"/>
<path d="M349.487 133.352C351.089 132.146 352.457 130.796 353.321 129.536C354.275 130.85 355.751 132.2 357.371 133.352H349.487ZM349.145 134.9H357.569V133.496C358.613 134.234 359.711 134.864 360.755 135.368C361.043 134.864 361.421 134.27 361.817 133.856C359.009 132.758 356.021 130.562 354.113 127.916H352.385C351.035 130.112 348.101 132.704 345.023 134.108C345.383 134.468 345.833 135.098 346.013 135.476C347.093 134.954 348.155 134.306 349.145 133.604V134.9ZM346.049 138.338H350.513C350.081 139.544 349.433 140.984 348.839 142.1L346.175 142.19L346.391 143.828C349.451 143.702 354.023 143.504 358.307 143.288C358.631 143.72 358.901 144.116 359.099 144.458L360.629 143.504C359.801 142.172 358.091 140.264 356.453 138.878L355.013 139.652C355.715 140.282 356.435 141.038 357.101 141.794C354.905 141.884 352.673 141.974 350.675 142.046C351.323 140.894 351.989 139.544 352.583 138.338H360.827V136.772H346.049V138.338ZM374.905 131.948C374.635 130.94 373.897 129.356 373.177 128.15L371.773 128.726C372.439 129.968 373.141 131.588 373.393 132.614L374.905 131.948ZM367.507 131.12C367.075 130.346 366.049 129.194 365.275 128.348L364.069 129.212C364.861 130.094 365.797 131.3 366.247 132.11L367.507 131.12ZM366.967 140.822V133.442H363.007V135.044H365.347V140.912C365.347 141.884 364.861 142.532 364.501 142.838C364.789 143.072 365.185 143.558 365.401 143.918L365.419 144.008L365.437 143.99L365.455 144.026V143.954C365.743 143.594 366.373 143.108 369.469 140.876C369.307 140.552 369.073 139.886 368.965 139.454L366.967 140.822ZM376.957 128.96C376.399 132.578 375.499 135.89 373.627 138.554C371.881 136.142 370.837 133.01 370.189 129.392L368.623 129.626C369.397 133.838 370.549 137.294 372.511 139.94C371.323 141.236 369.811 142.316 367.903 143.144C368.245 143.45 368.713 144.062 368.947 144.422C370.837 143.558 372.331 142.478 373.573 141.2C374.833 142.532 376.381 143.594 378.307 144.368C378.577 143.936 379.081 143.252 379.477 142.91C377.551 142.226 375.985 141.182 374.707 139.85C376.885 136.934 377.929 133.28 378.631 129.212L376.957 128.96ZM390.585 133.604V134.918H387.993V133.604H390.585ZM394.779 134.918H392.097V133.604H394.779V134.918ZM392.097 137.492V136.142H394.779V137.492H392.097ZM387.993 137.492V136.142H390.585V137.492H387.993ZM387.993 138.752H390.585V141.524H392.097V138.752H394.779V140.012C394.779 140.228 394.707 140.3 394.509 140.3C394.293 140.3 393.609 140.318 392.853 140.282C393.051 140.66 393.249 141.218 393.303 141.632C394.455 141.632 395.211 141.614 395.715 141.398C396.237 141.164 396.363 140.786 396.363 140.03V132.362H394.149C393.807 132.164 393.393 131.948 392.925 131.732C394.185 131.048 395.427 130.148 396.363 129.284L395.355 128.474L395.013 128.564H386.499V129.878H393.465C392.871 130.31 392.169 130.742 391.485 131.084C390.693 130.742 389.865 130.418 389.163 130.166L388.083 131.066C389.001 131.426 390.081 131.894 391.053 132.362H386.427V141.578H387.993V138.752ZM385.311 130.184C384.753 129.5 383.511 128.636 382.503 128.078L381.387 129.086C382.395 129.698 383.601 130.616 384.123 131.3L385.311 130.184ZM384.789 133.694C384.159 133.028 382.899 132.182 381.855 131.678L380.775 132.722C381.819 133.298 383.079 134.198 383.637 134.864L384.789 133.694ZM384.429 136.106H380.703V137.654H382.827V140.822C382.071 141.488 381.225 142.136 380.487 142.64L381.333 144.278C382.215 143.504 382.989 142.784 383.745 142.046C384.897 143.432 386.481 144.026 388.767 144.116C390.837 144.17 394.617 144.152 396.687 144.062C396.759 143.576 397.011 142.82 397.227 142.424C394.941 142.604 390.819 142.64 388.767 142.55C386.751 142.478 385.257 141.92 384.429 140.66V136.106ZM406.859 136.61V135.026H403.673C403.673 134.846 403.673 134.666 403.673 134.504V131.804H406.355V130.238H401.441C401.621 129.59 401.783 128.906 401.927 128.222L400.325 127.916C399.911 130.022 399.209 132.128 398.183 133.442C398.579 133.676 399.245 134.126 399.551 134.414C400.037 133.694 400.505 132.794 400.883 131.804H401.981V134.486V135.026H398.453V136.61H401.873C401.603 138.86 400.775 141.308 398.237 143.108C398.579 143.36 399.191 144.026 399.425 144.386C401.333 143 402.395 141.2 402.989 139.346C403.943 140.444 405.149 141.992 405.743 142.892L406.895 141.452C406.373 140.858 404.303 138.518 403.403 137.636C403.475 137.294 403.511 136.952 403.565 136.61H406.859ZM409.001 140.984V131.03H412.277V140.984H409.001ZM407.381 129.446V143.9H409.001V142.55H412.277V143.702H413.969V129.446H407.381Z" fill="white"/>
<rect x="300" y="30" width="160" height="50" rx="10" fill="#F5F5F5"/>
<path d="M360.395 48.852H351.359V50.418H360.395V48.852ZM350.315 59.13L350.567 60.804C352.925 60.588 356.273 60.282 359.513 59.958C359.765 60.462 359.963 60.912 360.107 61.326L361.583 60.57C361.025 59.076 359.621 56.934 358.289 55.314L356.939 55.98C357.551 56.736 358.163 57.636 358.703 58.5C356.939 58.644 355.157 58.788 353.573 58.914C354.221 57.6 354.905 55.944 355.499 54.486H361.655V52.938H350.207V54.486H353.555C353.123 55.962 352.475 57.744 351.899 59.022L350.315 59.13ZM350.081 50.202C349.451 49.5 348.191 48.618 347.147 48.078L346.031 49.104C347.075 49.716 348.317 50.652 348.875 51.336L350.081 50.202ZM349.487 53.676C348.839 52.992 347.507 52.146 346.427 51.624L345.329 52.722C346.427 53.28 347.723 54.18 348.335 54.864L349.487 53.676ZM349.109 56.106H345.275V57.654H347.489V60.732C346.661 61.398 345.761 62.064 344.987 62.568L345.833 64.242C346.751 63.468 347.597 62.748 348.389 62.01C349.523 63.396 351.107 63.99 353.393 64.098C355.445 64.17 359.135 64.134 361.187 64.026C361.277 63.522 361.529 62.748 361.727 62.37C359.477 62.532 355.409 62.568 353.393 62.496C351.395 62.424 349.937 61.848 349.109 60.606V56.106ZM375.715 60.642V62.478H366.733V60.642H375.715ZM365.149 64.458H366.733V63.846H375.715V64.422H377.389V59.202H365.149V64.458ZM374.275 57.114H368.047V55.746H374.275V57.114ZM366.481 54.594V58.266H375.913V54.594H366.481ZM363.745 55.89H365.275V53.64H377.047V55.89H378.649V52.326H363.745V55.89ZM375.139 49.284V47.916H373.483V49.284H368.695V47.916H367.039V49.284H363.277V50.796H367.039V51.876H368.695V50.796H373.483V51.876H375.139V50.796H379.009V49.284H375.139ZM389.631 49.77H386.157V47.988H384.537V49.77H381.081V51.228H389.631V49.77ZM387.561 54.63C387.921 53.892 388.317 52.776 388.713 51.768L387.129 51.408C386.931 52.254 386.553 53.514 386.229 54.288L387.561 54.63ZM384.339 54.252C384.231 53.514 383.943 52.344 383.547 51.498L382.161 51.804C382.503 52.668 382.791 53.838 382.863 54.594L384.339 54.252ZM387.327 59.094V61.992H383.331V59.094H387.327ZM381.783 64.422H383.331V63.45H387.327V64.35H388.965V57.618H381.783V64.422ZM380.649 56.232H389.865V54.702H380.649V56.232ZM395.949 48.87L395.679 48.942H390.513V64.422H392.151V50.508H395.013C394.509 51.912 393.807 53.802 393.159 55.206C394.815 56.7 395.283 58.014 395.283 59.058C395.283 59.706 395.157 60.174 394.797 60.39C394.599 60.516 394.365 60.57 394.077 60.588C393.753 60.606 393.321 60.588 392.853 60.552C393.123 61.02 393.285 61.722 393.303 62.208C393.807 62.208 394.365 62.226 394.779 62.172C395.247 62.1 395.643 61.974 395.985 61.74C396.633 61.308 396.903 60.462 396.903 59.256C396.903 58.032 396.507 56.628 394.851 54.99C395.625 53.424 396.489 51.354 397.191 49.644L395.949 48.87ZM399.281 64.422H400.973V51.642H399.281V64.422ZM399.857 48.69C400.757 49.734 401.873 51.192 402.395 52.092L403.745 51.102C403.223 50.22 402.053 48.852 401.153 47.844L399.857 48.69ZM414.059 48.528H404.159V50.13H412.367V62.37C412.367 62.73 412.241 62.838 411.899 62.838C411.539 62.874 410.279 62.874 409.073 62.82C409.325 63.234 409.595 63.972 409.667 64.404C411.341 64.422 412.457 64.386 413.141 64.116C413.807 63.864 414.059 63.378 414.059 62.388V48.528Z" fill="#222222"/>
<rect x="740" y="250" width="160" height="50" rx="10" fill="#435CE7"/>
<path d="M797.731 278.446V282.172H789.253V278.446H797.731ZM787.561 284.44H789.253V283.702H797.731V284.404H799.513V276.916H787.561V284.44ZM786.265 268.996V270.544H791.341C790.711 272.686 789.397 274.81 785.095 275.908C785.455 276.268 785.887 276.934 786.067 277.348C790.873 275.98 792.457 273.352 793.195 270.544H798.253C798.037 273.064 797.803 274.144 797.443 274.486C797.245 274.648 797.047 274.666 796.705 274.666C796.291 274.666 795.265 274.666 794.203 274.558C794.491 275.008 794.671 275.656 794.707 276.106C795.805 276.16 796.867 276.16 797.425 276.124C798.037 276.07 798.487 275.926 798.883 275.53C799.459 274.954 799.729 273.406 800.017 269.698C800.035 269.464 800.053 268.996 800.053 268.996H786.265ZM808.983 275.386C808.983 275.152 808.983 274.936 808.983 274.72V270.598H813.591V275.386H808.983ZM819.189 275.386H815.337V270.598H818.631V269.014H803.727V270.598H807.273V274.72C807.273 274.936 807.273 275.152 807.273 275.386H803.115V276.988H807.147C806.859 279.256 805.923 281.524 803.097 283.252C803.511 283.522 804.159 284.116 804.447 284.494C807.651 282.478 808.605 279.742 808.875 276.988H813.591V284.44H815.337V276.988H819.189V275.386ZM824.987 273.352C826.589 272.146 827.957 270.796 828.821 269.536C829.775 270.85 831.251 272.2 832.871 273.352H824.987ZM824.645 274.9H833.069V273.496C834.113 274.234 835.211 274.864 836.255 275.368C836.543 274.864 836.921 274.27 837.317 273.856C834.509 272.758 831.521 270.562 829.613 267.916H827.885C826.535 270.112 823.601 272.704 820.523 274.108C820.883 274.468 821.333 275.098 821.513 275.476C822.593 274.954 823.655 274.306 824.645 273.604V274.9ZM821.549 278.338H826.013C825.581 279.544 824.933 280.984 824.339 282.1L821.675 282.19L821.891 283.828C824.951 283.702 829.523 283.504 833.807 283.288C834.131 283.72 834.401 284.116 834.599 284.458L836.129 283.504C835.301 282.172 833.591 280.264 831.953 278.878L830.513 279.652C831.215 280.282 831.935 281.038 832.601 281.794C830.405 281.884 828.173 281.974 826.175 282.046C826.823 280.894 827.489 279.544 828.083 278.338H836.327V276.772H821.549V278.338ZM850.405 271.948C850.135 270.94 849.397 269.356 848.677 268.15L847.273 268.726C847.939 269.968 848.641 271.588 848.893 272.614L850.405 271.948ZM843.007 271.12C842.575 270.346 841.549 269.194 840.775 268.348L839.569 269.212C840.361 270.094 841.297 271.3 841.747 272.11L843.007 271.12ZM842.467 280.822V273.442H838.507V275.044H840.847V280.912C840.847 281.884 840.361 282.532 840.001 282.838C840.289 283.072 840.685 283.558 840.901 283.918L840.919 284.008L840.937 283.99L840.955 284.026V283.954C841.243 283.594 841.873 283.108 844.969 280.876C844.807 280.552 844.573 279.886 844.465 279.454L842.467 280.822ZM852.457 268.96C851.899 272.578 850.999 275.89 849.127 278.554C847.381 276.142 846.337 273.01 845.689 269.392L844.123 269.626C844.897 273.838 846.049 277.294 848.011 279.94C846.823 281.236 845.311 282.316 843.403 283.144C843.745 283.45 844.213 284.062 844.447 284.422C846.337 283.558 847.831 282.478 849.073 281.2C850.333 282.532 851.881 283.594 853.807 284.368C854.077 283.936 854.581 283.252 854.977 282.91C853.051 282.226 851.485 281.182 850.207 279.85C852.385 276.934 853.429 273.28 854.131 269.212L852.457 268.96Z" fill="white"/>
<path d="M815.109 383.789C818.361 382.632 821.913 382.632 825.165 383.789L900.034 410.426C904.466 412.003 904.465 418.271 900.034 419.848L823.489 447.082C821.321 447.853 818.953 447.853 816.785 447.082L740.24 419.848C735.808 418.271 735.808 412.003 740.24 410.426L815.109 383.789Z" fill="#283895"/>
<path d="M809.109 415.566C808.515 415.746 807.885 415.89 807.273 416.052V413.028H809.163V411.408H807.273V407.916H805.563V411.408H803.169V413.028H805.563V416.52C804.573 416.754 803.655 416.988 802.917 417.168L803.313 418.878C803.997 418.698 804.753 418.5 805.563 418.266V422.442C805.563 422.748 805.473 422.838 805.167 422.838C804.915 422.856 803.997 422.856 803.061 422.82C803.313 423.27 803.511 423.99 803.583 424.422C805.023 424.422 805.905 424.386 806.481 424.116C807.057 423.864 807.273 423.396 807.273 422.46V417.762L809.325 417.186L809.109 415.566ZM811.485 416.178H811.845C812.475 417.978 813.321 419.616 814.419 421.02C813.591 421.866 812.619 422.622 811.485 423.18V416.178ZM817.065 416.178C816.705 417.456 816.183 418.626 815.445 419.688C814.617 418.644 813.933 417.456 813.447 416.178H817.065ZM817.947 414.612L817.641 414.666H811.485V410.076H816.759C816.687 411.444 816.579 412.056 816.381 412.254C816.219 412.398 816.039 412.416 815.661 412.416C815.301 412.416 814.203 412.398 813.087 412.308C813.339 412.704 813.519 413.28 813.537 413.694C814.689 413.748 815.787 413.766 816.381 413.73C816.993 413.694 817.443 413.568 817.821 413.19C818.235 412.758 818.397 411.696 818.487 409.176C818.505 408.96 818.523 408.528 818.523 408.528H809.829V424.386H811.485V423.288C811.845 423.63 812.277 424.098 812.511 424.476C813.645 423.882 814.617 423.126 815.481 422.244C816.363 423.126 817.353 423.846 818.469 424.404C818.739 423.936 819.243 423.288 819.639 422.964C818.505 422.496 817.479 421.794 816.579 420.93C817.785 419.238 818.595 417.204 819.009 414.954L817.947 414.612ZM833.231 419.058V422.028H825.041V419.058H833.231ZM823.349 424.53H825.041V423.576H833.231V424.494H834.977V417.51H823.349V424.53ZM830.351 414.378V411.894H835.679V410.364H830.351V407.916H828.587V410.364H825.239C825.527 409.734 825.797 409.068 826.031 408.42L824.357 408.024C823.709 409.986 822.575 412.002 821.279 413.226C821.693 413.442 822.449 413.892 822.809 414.126C823.349 413.514 823.889 412.758 824.411 411.894H828.587V414.378H821.207V415.944H836.921V414.378H830.351Z" fill="white"/>
<rect x="740" y="30" width="160" height="50" rx="10" fill="#F5F5F5"/>
<path d="M789.77 54.936V56.628H785.846V54.936H789.77ZM785.846 59.76V58.05H789.77V59.76H785.846ZM780.176 59.76V58.05H784.118V59.76H780.176ZM784.118 54.936V56.628H780.176V54.936H784.118ZM785.846 51.84H784.118V53.478H778.556V62.136H780.176V61.218H784.118V64.386H785.846V61.218H789.77V62.064H791.444V53.478H785.846V51.84ZM786.17 49.716L786.296 49.68C786.098 49.176 785.684 48.348 785.36 47.718L783.614 48.204C783.848 48.654 784.1 49.248 784.298 49.716H777.494V52.812H779.15V51.3H790.778V52.812H792.488V49.716H786.17ZM806.53 51.948C806.26 50.94 805.522 49.356 804.802 48.15L803.398 48.726C804.064 49.968 804.766 51.588 805.018 52.614L806.53 51.948ZM799.132 51.12C798.7 50.346 797.674 49.194 796.9 48.348L795.694 49.212C796.486 50.094 797.422 51.3 797.872 52.11L799.132 51.12ZM798.592 60.822V53.442H794.632V55.044H796.972V60.912C796.972 61.884 796.486 62.532 796.126 62.838C796.414 63.072 796.81 63.558 797.026 63.918L797.044 64.008L797.062 63.99L797.08 64.026V63.954C797.368 63.594 797.998 63.108 801.094 60.876C800.932 60.552 800.698 59.886 800.59 59.454L798.592 60.822ZM808.582 48.96C808.024 52.578 807.124 55.89 805.252 58.554C803.506 56.142 802.462 53.01 801.814 49.392L800.248 49.626C801.022 53.838 802.174 57.294 804.136 59.94C802.948 61.236 801.436 62.316 799.528 63.144C799.87 63.45 800.338 64.062 800.572 64.422C802.462 63.558 803.956 62.478 805.198 61.2C806.458 62.532 808.006 63.594 809.932 64.368C810.202 63.936 810.706 63.252 811.102 62.91C809.176 62.226 807.61 61.182 806.332 59.85C808.51 56.934 809.554 53.28 810.256 49.212L808.582 48.96ZM823.056 58.932C822.57 59.76 821.94 60.426 821.148 60.966C819.942 60.678 818.682 60.39 817.44 60.138C817.728 59.742 817.998 59.346 818.268 58.932H823.056ZM821.292 56.25V53.136C822.948 54.792 825.396 56.142 827.718 56.844C827.97 56.412 828.438 55.8 828.798 55.458C826.782 54.99 824.64 54.036 823.128 52.884H828.366V51.516H821.292V49.86C823.29 49.68 825.18 49.428 826.692 49.104L825.45 47.916C822.804 48.492 817.926 48.834 813.858 48.924C813.984 49.248 814.164 49.86 814.2 50.202C815.928 50.184 817.8 50.112 819.636 49.986V51.516H812.598V52.884H817.836C816.342 54.108 814.2 55.116 812.148 55.638C812.49 55.944 812.958 56.538 813.174 56.952C815.514 56.232 817.98 54.828 819.636 53.136V56.088L818.412 55.746C818.088 56.304 817.692 56.916 817.278 57.546H812.4V58.932H816.342C815.748 59.796 815.154 60.624 814.668 61.272L816.252 61.794L816.558 61.38C817.422 61.56 818.268 61.758 819.096 61.956C817.422 62.532 815.298 62.82 812.652 62.964C812.94 63.342 813.192 63.954 813.318 64.422C816.81 64.134 819.492 63.612 821.472 62.568C823.65 63.18 825.594 63.81 827.052 64.422L828.06 63.036C826.746 62.532 825 61.992 823.074 61.47C823.848 60.786 824.478 59.94 824.928 58.932H828.618V57.546H819.186C819.474 57.096 819.762 56.664 820.014 56.25H821.292ZM834.38 50.112H842.156V51.84H834.38V50.112ZM832.634 48.672V53.28H844.01V48.672H832.634ZM837.242 57.24V58.842C837.242 60.174 836.738 61.974 830.42 63.162C830.834 63.522 831.338 64.17 831.554 64.548C838.124 63.054 839.06 60.768 839.06 58.878V57.24H837.242ZM838.808 61.938C840.932 62.658 843.83 63.774 845.288 64.53L846.152 63.09C844.604 62.37 841.67 61.326 839.636 60.696L838.808 61.938ZM831.95 54.702V61.236H833.696V56.25H842.948V61.074H844.748V54.702H831.95ZM852.112 53.352C853.714 52.146 855.082 50.796 855.946 49.536C856.9 50.85 858.376 52.2 859.996 53.352H852.112ZM851.77 54.9H860.194V53.496C861.238 54.234 862.336 54.864 863.38 55.368C863.668 54.864 864.046 54.27 864.442 53.856C861.634 52.758 858.646 50.562 856.738 47.916H855.01C853.66 50.112 850.726 52.704 847.648 54.108C848.008 54.468 848.458 55.098 848.638 55.476C849.718 54.954 850.78 54.306 851.77 53.604V54.9ZM848.674 58.338H853.138C852.706 59.544 852.058 60.984 851.464 62.1L848.8 62.19L849.016 63.828C852.076 63.702 856.648 63.504 860.932 63.288C861.256 63.72 861.526 64.116 861.724 64.458L863.254 63.504C862.426 62.172 860.716 60.264 859.078 58.878L857.638 59.652C858.34 60.282 859.06 61.038 859.726 61.794C857.53 61.884 855.298 61.974 853.3 62.046C853.948 60.894 854.614 59.544 855.208 58.338H863.452V56.772H848.674V58.338Z" fill="#222222"/>
<rect x="960" y="469" width="160" height="50" rx="10" fill="#F6F7FE"/>
<path d="M1005.31 502.54C1007.13 502.144 1009.56 501.64 1011.85 501.136L1011.7 499.588C1009.27 500.056 1006.73 500.56 1005.04 500.83L1005.31 502.54ZM1007.24 492.568C1008.25 491.164 1009.25 489.382 1010.01 487.672L1008.3 486.97C1007.62 489.004 1006.36 491.164 1005.96 491.704C1005.58 492.262 1005.26 492.658 1004.92 492.748C1005.13 493.198 1005.38 494.026 1005.49 494.386C1005.78 494.26 1006.23 494.152 1008.19 493.918C1007.47 494.908 1006.82 495.682 1006.5 495.988C1005.92 496.654 1005.51 497.05 1005.08 497.14C1005.26 497.59 1005.55 498.418 1005.62 498.76C1006.07 498.508 1006.81 498.346 1011.72 497.464C1011.65 497.104 1011.61 496.438 1011.61 495.988L1008.05 496.564C1009.42 495.052 1010.73 493.27 1011.85 491.47L1010.35 490.534C1010.01 491.182 1009.61 491.812 1009.24 492.406L1007.24 492.568ZM1018.92 497.95V501.118H1014.31V497.95H1018.92ZM1012.67 503.404H1014.31V502.63H1018.92V503.332H1020.61V496.438H1012.67V503.404ZM1021.35 490.822V489.202H1017.46V486.898H1015.72V489.202H1011.77V490.822H1015.72V493.234H1012.22V494.818H1021.01V493.234H1017.46V490.822H1021.35ZM1026.73 493.576V492.01H1030.26V493.576H1026.73ZM1026.73 489.166H1030.26V490.696H1026.73V489.166ZM1035.57 490.696H1032.03V489.166H1035.57V490.696ZM1035.57 493.576H1032.03V492.01H1035.57V493.576ZM1039.01 497.86V496.33H1032.03V494.998H1037.37V487.762H1025.01V494.998H1030.26V496.33H1023.26V497.86H1028.97C1027.4 499.408 1025.01 500.794 1022.79 501.496C1023.15 501.838 1023.67 502.486 1023.91 502.882C1026.18 502.036 1028.57 500.488 1030.26 498.67V503.422H1032.03V498.58C1033.75 500.344 1036.17 501.928 1038.36 502.792C1038.63 502.36 1039.14 501.73 1039.51 501.37C1037.34 500.686 1034.94 499.336 1033.32 497.86H1039.01ZM1053.43 500.182V501.604H1045.6V500.182H1053.43ZM1052.19 495.358V496.636H1045.6V495.358H1052.19ZM1045.6 497.878H1053.86V494.116H1044.02V503.44H1045.6V502.882H1053.43V503.404H1055.1V498.922H1045.6V497.878ZM1057.07 488.194H1051.38C1051.56 487.87 1051.74 487.528 1051.88 487.186L1050.26 486.79C1049.9 487.708 1049.33 488.59 1048.62 489.328V488.194H1044.25C1044.43 487.87 1044.59 487.528 1044.74 487.204L1043.17 486.79C1042.61 488.176 1041.62 489.562 1040.56 490.462C1040.96 490.678 1041.6 491.11 1041.93 491.38C1042.43 490.894 1042.95 490.264 1043.42 489.562H1043.98C1044.32 490.174 1044.68 490.876 1044.83 491.344L1046.32 490.894C1046.19 490.534 1045.94 490.048 1045.67 489.562H1048.39C1048.12 489.814 1047.83 490.066 1047.54 490.264C1047.71 490.336 1047.9 490.444 1048.12 490.552H1048.03V491.866H1041.35V495.304H1042.92V493.18H1054.92V495.304H1056.56V491.866H1049.63V490.552H1049.6C1049.9 490.246 1050.19 489.922 1050.46 489.562H1051.74C1052.21 490.174 1052.69 490.894 1052.87 491.38L1054.44 490.912C1054.26 490.516 1053.92 490.03 1053.57 489.562H1057.07V488.194ZM1064.05 498.166C1063.44 498.382 1062.79 498.58 1062.18 498.778V494.71H1063.89V493.162H1062.18V489.58H1064.18V488.032H1058.45V489.58H1060.58V493.162H1058.63V494.71H1060.58V499.282C1059.71 499.552 1058.92 499.768 1058.27 499.948L1058.67 501.658C1060.29 501.136 1062.38 500.434 1064.34 499.75L1064.05 498.166ZM1066.48 492.406H1068.84V494.386H1066.48V492.406ZM1066.48 489.13H1068.84V491.074H1066.48V489.13ZM1072.57 491.074H1070.26V489.13H1072.57V491.074ZM1072.57 494.386H1070.26V492.406H1072.57V494.386ZM1070.41 501.316V499.174H1074.4V497.662H1070.41V495.808H1074.17V487.708H1064.95V495.808H1068.7V497.662H1064.79V499.174H1068.7V501.316H1063.48V502.846H1074.98V501.316H1070.41Z" fill="#283895"/>
<rect x="960" y="30" width="160" height="50" rx="10" fill="#F5F5F5"/>
<path d="M1026.86 60.498H1023.02V59.382H1026.86V60.498ZM1023.02 57.042H1026.86V58.068H1023.02V57.042ZM1017.95 53.676V52.596H1021.33V53.676H1017.95ZM1026.57 52.596V53.676H1023.02V52.596H1026.57ZM1030.42 58.068H1028.55V55.854H1023.02V54.792H1028.26V51.48H1023.02V50.562H1030.04V49.212H1023.02V47.898H1021.33V49.212H1014.51V50.562H1021.33V51.48H1016.35V54.792H1021.33V55.854H1015.88V57.042H1021.33V58.068H1014.13V59.382H1021.33V60.498H1015.72V61.758H1021.33V62.712C1021.33 63.018 1021.22 63.108 1020.9 63.126C1020.61 63.144 1019.53 63.144 1018.54 63.108C1018.78 63.468 1019.03 64.08 1019.12 64.458C1020.63 64.458 1021.57 64.44 1022.18 64.224C1022.79 63.99 1023.02 63.612 1023.02 62.694V61.758H1026.86V62.532H1028.55V59.382H1030.42V58.068ZM1040.22 57.834C1040.36 57.366 1040.47 56.844 1040.56 56.304L1038.81 56.16C1038.74 56.772 1038.63 57.33 1038.49 57.834H1033.27V59.274H1037.93C1036.89 61.308 1034.98 62.424 1032.06 63C1032.37 63.324 1032.85 64.026 1033.02 64.404C1036.4 63.522 1038.56 62.064 1039.73 59.274H1044.9C1044.59 61.326 1044.27 62.334 1043.85 62.658C1043.65 62.82 1043.44 62.838 1043.04 62.838C1042.57 62.838 1041.37 62.82 1040.22 62.712C1040.5 63.126 1040.74 63.738 1040.76 64.17C1041.85 64.242 1042.95 64.242 1043.55 64.206C1044.28 64.17 1044.73 64.062 1045.18 63.666C1045.83 63.09 1046.23 61.704 1046.64 58.518C1046.68 58.302 1046.73 57.834 1046.73 57.834H1040.22ZM1037.14 51.102H1044.05C1043.02 52.038 1041.66 52.794 1040.09 53.424C1038.76 52.866 1037.68 52.164 1036.94 51.3L1037.14 51.102ZM1045.71 49.608L1045.42 49.68H1038.43C1038.81 49.212 1039.15 48.726 1039.44 48.24L1037.73 47.898C1036.81 49.428 1035.09 51.156 1032.57 52.398C1032.91 52.65 1033.38 53.28 1033.57 53.658C1034.42 53.226 1035.18 52.722 1035.84 52.2C1036.53 52.92 1037.3 53.532 1038.2 54.054C1036.2 54.612 1034.04 54.99 1031.9 55.188C1032.15 55.566 1032.42 56.232 1032.55 56.646C1035.12 56.34 1037.75 55.818 1040.09 54.954C1042.14 55.764 1044.61 56.214 1047.34 56.43C1047.54 55.998 1047.92 55.314 1048.28 54.954C1046.03 54.828 1043.92 54.558 1042.12 54.09C1044.05 53.136 1045.67 51.876 1046.73 50.292L1045.71 49.608ZM1059.64 59.022V61.092H1055.84V59.022H1059.64ZM1061.21 62.442V57.69H1054.29V63.486H1055.84V62.442H1061.21ZM1062.27 50.202V52.164H1053.12V50.202H1062.27ZM1053.09 54.954C1053.11 54.486 1053.12 54.036 1053.12 53.604H1063.94V48.78H1051.47V53.082C1051.47 55.962 1051.29 60.03 1049.29 62.892C1049.65 63.09 1050.35 63.63 1050.64 63.954C1052.1 61.866 1052.73 59.022 1052.98 56.43H1063.49C1063.33 60.642 1063.11 62.244 1062.77 62.622C1062.61 62.82 1062.45 62.892 1062.14 62.874C1061.8 62.892 1061.03 62.874 1060.18 62.784C1060.45 63.234 1060.63 63.9 1060.65 64.368C1061.58 64.404 1062.47 64.404 1062.97 64.332C1063.51 64.278 1063.91 64.134 1064.27 63.684C1064.79 63.036 1064.99 61.02 1065.2 55.692C1065.22 55.458 1065.22 54.954 1065.22 54.954H1053.09Z" fill="#222222"/>
<path d="M601.005 205L601.005 160" stroke="#7094F0" stroke-linecap="round" stroke-linejoin="round" stroke-dasharray="2 4"/>
<path d="M601 206L472 206" stroke="#7094F0" stroke-linecap="round" stroke-linejoin="round" stroke-dasharray="2 4"/>
<path d="M471.067 205.2L476.4 201.2C477.059 200.706 478 201.176 478 202L478 210C478 210.824 477.059 211.294 476.4 210.8L471.067 206.8C470.533 206.4 470.533 205.6 471.067 205.2Z" fill="#7094F0"/>
<path d="M821.005 345L821.005 300" stroke="#7094F0" stroke-linecap="round" stroke-linejoin="round" stroke-dasharray="2 4"/>
<path d="M821 346L476 346" stroke="#7094F0" stroke-linecap="round" stroke-linejoin="round" stroke-dasharray="2 4"/>
<path d="M471.067 345.2L476.4 341.2C477.059 340.706 478 341.176 478 342L478 350C478 350.824 477.059 351.294 476.4 350.8L471.067 346.8C470.533 346.4 470.533 345.6 471.067 345.2Z" fill="#7094F0"/>
<path d="M821.005 494L821.005 449" stroke="#7094F0" stroke-linecap="round" stroke-linejoin="round" stroke-dasharray="2 4"/>
<path d="M947 495L476 495" stroke="#7094F0" stroke-linecap="round" stroke-linejoin="round" stroke-dasharray="2 4"/>
<path d="M471.067 494.2L476.4 490.2C477.059 489.706 478 490.176 478 491L478 499C478 499.824 477.059 500.294 476.4 499.8L471.067 495.8C470.533 495.4 470.533 494.6 471.067 494.2Z" fill="#7094F0"/>
<path d="M948.933 495.8L943.6 499.8C942.941 500.294 942 499.824 942 499L942 491C942 490.176 942.941 489.706 943.6 490.2L948.933 494.2C949.467 494.6 949.467 495.4 948.933 495.8Z" fill="#7094F0"/>
<path d="M838.892 474.128C837.762 474.128 836.743 473.883 835.836 473.392C834.93 472.891 834.215 472.203 833.692 471.328C833.18 470.453 832.924 469.477 832.924 468.4C832.924 467.323 833.18 466.347 833.692 465.472C834.215 464.597 834.93 463.915 835.836 463.424C836.743 462.923 837.762 462.672 838.892 462.672C840.012 462.672 841.026 462.923 841.932 463.424C842.839 463.915 843.548 464.597 844.06 465.472C844.572 466.336 844.828 467.312 844.828 468.4C844.828 469.488 844.572 470.469 844.06 471.344C843.548 472.208 842.839 472.891 841.932 473.392C841.026 473.883 840.012 474.128 838.892 474.128ZM838.892 472.704C839.714 472.704 840.45 472.517 841.1 472.144C841.762 471.771 842.279 471.259 842.652 470.608C843.036 469.947 843.228 469.211 843.228 468.4C843.228 467.589 843.036 466.859 842.652 466.208C842.279 465.547 841.762 465.029 841.1 464.656C840.45 464.283 839.714 464.096 838.892 464.096C838.071 464.096 837.324 464.283 836.652 464.656C835.991 465.029 835.468 465.547 835.084 466.208C834.711 466.859 834.524 467.589 834.524 468.4C834.524 469.211 834.711 469.947 835.084 470.608C835.468 471.259 835.991 471.771 836.652 472.144C837.324 472.517 838.071 472.704 838.892 472.704ZM850.672 469.024L848.624 471.104V474H847.024V462.8H848.624V469.056L854.704 462.8H856.528L851.744 467.84L856.832 474H854.96L850.672 469.024Z" fill="#7094F0"/>
<path d="M380 275L380 230" stroke="#7094F0" stroke-linecap="round" stroke-linejoin="round" stroke-dasharray="2 4"/>
<path d="M729 275L380 275" stroke="#7094F0" stroke-linecap="round" stroke-linejoin="round" stroke-dasharray="2 4"/>
<path d="M728.933 275.8L723.6 279.8C722.941 280.294 722 279.824 722 279L722 271C722 270.176 722.941 269.706 723.6 270.2L728.933 274.2C729.467 274.6 729.467 275.4 728.933 275.8Z" fill="#7094F0"/>
<path d="M380 415L380 370" stroke="#7094F0" stroke-linecap="round" stroke-linejoin="round" stroke-dasharray="2 4"/>
<path d="M729 415L380 415" stroke="#7094F0" stroke-linecap="round" stroke-linejoin="round" stroke-dasharray="2 4"/>
<path d="M728.933 415.8L723.6 419.8C722.941 420.294 722 419.824 722 419L722 411C722 410.176 722.941 409.706 723.6 410.2L728.933 414.2C729.467 414.6 729.467 415.4 728.933 415.8Z" fill="#7094F0"/>
<rect x="520" y="30" width="160" height="50" rx="10" fill="#F5F5F5"/>
<path d="M580.739 51.088C580.083 51.904 579.219 52.64 578.243 53.264C577.651 52.768 576.627 52.128 575.683 51.648C575.971 51.472 576.259 51.28 576.515 51.088H580.739ZM581.955 49.776L581.715 49.84H578.035C578.355 49.536 578.659 49.216 578.947 48.896L577.299 48.528C576.227 49.856 574.179 51.296 571.363 52.24C571.683 52.48 572.147 52.992 572.355 53.344C573.107 53.04 573.795 52.72 574.435 52.384C575.315 52.848 576.307 53.472 576.947 54.016C575.187 54.912 573.187 55.552 571.235 55.888C571.491 56.192 571.795 56.784 571.923 57.168C576.275 56.24 580.883 54.096 582.915 50.352L581.955 49.776ZM583.059 56.752C582.419 57.808 581.523 58.672 580.467 59.376C579.811 58.768 578.691 58.032 577.715 57.488C578.115 57.248 578.483 57.008 578.851 56.752H583.059ZM584.163 55.408L583.907 55.472H580.435C580.835 55.104 581.187 54.736 581.523 54.352L579.875 53.968C578.643 55.488 576.291 57.072 572.979 58.096C573.283 58.352 573.715 58.912 573.875 59.248C574.771 58.928 575.603 58.576 576.371 58.208C577.331 58.736 578.435 59.52 579.123 60.144C577.187 61.104 574.883 61.648 572.467 61.92C572.723 62.256 573.011 62.88 573.107 63.28C578.403 62.528 583.187 60.592 585.155 55.936L584.163 55.408ZM598.425 48.592C596.505 49.152 593.129 49.568 590.089 49.76L589.305 49.568C588.729 51.264 587.689 52.912 586.489 53.952C586.857 54.176 587.497 54.64 587.785 54.912C588.745 53.936 589.673 52.544 590.361 51.04C593.545 50.848 597.193 50.448 599.705 49.728L598.425 48.592ZM596.969 50.848C598.041 52.048 599.257 53.68 599.785 54.704L601.145 53.952C600.569 52.896 599.289 51.328 598.249 50.192L596.969 50.848ZM595.033 53.744C594.809 52.992 594.249 51.808 593.721 50.912L592.377 51.344C592.873 52.272 593.401 53.504 593.577 54.272L595.033 53.744ZM601.049 57.568V56.112H594.681V54.512H593.113V56.112H586.889V57.568H591.833C590.473 59.2 588.425 60.768 586.537 61.6C586.889 61.904 587.385 62.496 587.625 62.88C589.561 61.856 591.641 60.128 593.113 58.224V63.216H594.681V58.176C596.153 60.096 598.249 61.856 600.233 62.864C600.489 62.448 600.985 61.84 601.369 61.52C599.385 60.72 597.321 59.2 595.961 57.568H601.049ZM606.255 51.92H605.087V56.08C605.087 58.048 604.911 60.768 602.319 62.32C602.575 62.544 602.975 62.944 603.135 63.2C605.887 61.36 606.255 58.384 606.255 56.096V51.92ZM605.839 60.16C606.623 61.056 607.567 62.256 608.031 63.008L609.055 62.208C608.591 61.488 607.583 60.304 606.831 59.472L605.839 60.16ZM614.639 59.456C614.431 58.48 613.903 56.864 613.391 55.632L612.351 55.968C612.575 56.544 612.799 57.2 612.991 57.84L610.783 58.272C611.391 56.976 611.967 55.376 612.351 53.888L610.991 53.52C610.687 55.28 609.967 57.248 609.727 57.744C609.503 58.288 609.295 58.624 609.039 58.688C609.199 59.04 609.407 59.68 609.487 59.952C609.791 59.776 610.287 59.6 613.311 58.96C613.407 59.312 613.455 59.6 613.503 59.872L614.639 59.456ZM611.407 51.024C611.663 50.336 611.887 49.616 612.079 48.896L610.655 48.576C610.191 50.544 609.391 52.512 608.367 53.776V49.488H602.943V59.12H604.095V50.816H607.183V59.056H608.367V53.872C608.703 54.112 609.263 54.544 609.503 54.768C609.983 54.112 610.447 53.296 610.847 52.384H615.183C615.039 58.64 614.847 61.04 614.415 61.536C614.239 61.776 614.079 61.824 613.823 61.808C613.471 61.808 612.751 61.808 611.935 61.744C612.191 62.16 612.351 62.8 612.383 63.232C613.167 63.264 613.951 63.28 614.463 63.2C614.991 63.12 615.343 62.96 615.695 62.464C616.271 61.68 616.431 59.168 616.623 51.76C616.639 51.552 616.639 51.024 616.639 51.024H611.407ZM624.181 62.128C623.317 62.128 622.523 61.9893 621.797 61.712C621.072 61.424 620.443 61.024 619.909 60.512C619.376 59.9893 618.96 59.3813 618.661 58.688C618.363 57.9947 618.213 57.232 618.213 56.4C618.213 55.568 618.363 54.8053 618.661 54.112C618.96 53.4187 619.376 52.816 619.909 52.304C620.453 51.7813 621.088 51.3813 621.813 51.104C622.539 50.816 623.339 50.672 624.213 50.672C625.099 50.672 625.909 50.816 626.645 51.104C627.381 51.392 628.005 51.824 628.517 52.4L627.525 53.392C627.067 52.944 626.565 52.6187 626.021 52.416C625.488 52.2027 624.907 52.096 624.277 52.096C623.637 52.096 623.04 52.2027 622.485 52.416C621.941 52.6293 621.467 52.928 621.061 53.312C620.667 53.696 620.357 54.1547 620.133 54.688C619.92 55.2107 619.813 55.7813 619.813 56.4C619.813 57.008 619.92 57.5787 620.133 58.112C620.357 58.6347 620.667 59.0933 621.061 59.488C621.467 59.872 621.941 60.1707 622.485 60.384C623.029 60.5973 623.621 60.704 624.261 60.704C624.859 60.704 625.429 60.6133 625.973 60.432C626.528 60.24 627.04 59.9253 627.509 59.488L628.421 60.704C627.867 61.1733 627.216 61.5307 626.469 61.776C625.733 62.0107 624.971 62.128 624.181 62.128ZM626.885 60.496V56.336H628.421V60.704L626.885 60.496Z" fill="#222222"/>
<rect x="520" y="110" width="160" height="50" rx="10" fill="#7094F0"/>
<path d="M570.459 130.274C569.631 129.662 567.993 128.906 566.733 128.456L565.887 129.608C567.165 130.094 568.785 130.94 569.577 131.552L570.459 130.274ZM570.495 132.344C568.587 132.974 566.625 133.586 565.329 133.964L565.815 135.494C567.237 134.99 569.073 134.396 570.783 133.784L570.495 132.344ZM579.387 141.074V136.304H567.579V141.218H569.235V137.816H577.677V141.074H579.387ZM572.673 138.302C572.169 140.948 570.909 142.406 565.257 143.072C565.509 143.414 565.869 144.062 565.995 144.44C572.097 143.594 573.717 141.704 574.329 138.302H572.673ZM573.591 141.776C575.769 142.478 578.721 143.594 580.197 144.368L581.205 143C579.657 142.262 576.651 141.2 574.545 140.606L573.591 141.776ZM578.955 130.76C578.739 131.3 578.487 131.84 578.271 132.218L579.747 132.614C580.179 131.894 580.701 130.76 581.097 129.734L579.873 129.428L579.621 129.482H573.987C574.185 129.05 574.365 128.636 574.527 128.204L572.943 127.988C572.511 129.248 571.611 130.706 570.189 131.786C570.549 132.002 571.107 132.47 571.341 132.848C572.133 132.2 572.745 131.498 573.249 130.76H575.049C574.527 132.488 573.429 134.036 570.333 134.9C570.639 135.17 571.053 135.746 571.215 136.106C573.645 135.35 575.013 134.216 575.859 132.848C576.939 134.288 578.523 135.386 580.467 135.944C580.683 135.548 581.097 134.936 581.457 134.648C579.225 134.162 577.407 133.028 576.471 131.498C576.561 131.246 576.633 131.012 576.705 130.76H578.955ZM594.995 131.228C594.401 130.562 593.159 129.662 592.151 129.05L591.305 130.184C592.331 130.832 593.555 131.804 594.113 132.506L594.995 131.228ZM594.239 135.512C593.591 134.882 592.277 134.036 591.233 133.478L590.441 134.684C591.503 135.26 592.781 136.196 593.393 136.844L594.239 135.512ZM588.839 128.942C588.623 130.166 588.137 131.948 587.759 133.046L588.821 133.37C589.289 132.344 589.829 130.67 590.297 129.266L588.839 128.942ZM585.239 133.028C585.113 131.948 584.735 130.274 584.249 129.014L583.061 129.32C583.493 130.598 583.889 132.29 583.961 133.37L585.239 133.028ZM587.345 135.44H590.153V133.874H587.345V127.988H585.779V133.874H582.989V135.44H585.275C584.681 137.276 583.655 139.418 582.683 140.606C582.953 141.056 583.349 141.794 583.493 142.28C584.339 141.146 585.167 139.31 585.779 137.51V144.404H587.345V137.528C587.939 138.482 588.623 139.616 588.929 140.264L589.991 138.95C589.613 138.41 587.885 136.214 587.345 135.638V135.44ZM599.495 139.058L599.261 137.528L597.263 137.87V127.916H595.697V138.158L590.099 139.166L590.369 140.714L595.697 139.742V144.422H597.263V139.454L599.495 139.058ZM603.295 137.618C604.483 136.052 605.617 134.162 606.535 132.326L605.221 131.552C604.933 132.218 604.591 132.92 604.231 133.568L602.557 133.73C603.529 132.182 604.483 130.256 605.149 128.42L603.583 127.862C602.989 130.004 601.855 132.308 601.495 132.902C601.135 133.496 600.865 133.892 600.523 133.982C600.703 134.396 600.955 135.152 601.045 135.476C601.297 135.35 601.711 135.224 603.403 135.008C602.791 136.034 602.215 136.826 601.963 137.168C601.441 137.834 601.081 138.266 600.685 138.356C600.847 138.752 601.099 139.472 601.153 139.778C601.531 139.544 602.125 139.346 606.031 138.428C605.959 138.086 605.905 137.492 605.923 137.078L603.295 137.618ZM605.815 139.832C603.871 140.624 601.909 141.398 600.595 141.83L600.991 143.378C602.467 142.73 604.357 141.938 606.139 141.164L605.815 139.832ZM614.275 139.166V136.862H615.337V139.166H614.275ZM612.169 139.166V136.862H613.195V139.166H612.169ZM609.901 139.166V136.862H611.089V139.166H609.901ZM614.851 131.156V132.812H608.785V131.156H614.851ZM615.337 135.494V135.512H608.749C608.767 135.044 608.785 134.612 608.785 134.18H616.399V129.77H613.123C612.907 129.176 612.583 128.384 612.223 127.772L610.639 128.24C610.873 128.69 611.107 129.266 611.287 129.77H607.255V133.64C607.255 136.394 607.093 140.372 605.437 143.216C605.779 143.378 606.463 143.864 606.715 144.152C607.813 142.298 608.335 139.832 608.587 137.564V144.26H609.901V140.48H611.089V143.864H612.169V140.48H613.195V143.828H614.275V140.48H615.337V142.892C615.337 143.018 615.301 143.054 615.175 143.072C615.067 143.072 614.779 143.072 614.455 143.054C614.617 143.396 614.761 143.918 614.815 144.278C615.427 144.278 615.859 144.26 616.201 144.044C616.561 143.828 616.633 143.468 616.633 142.91V135.494H615.337ZM619.803 133.55C620.091 133.1 620.361 132.524 620.595 131.912H622.701V133.55H619.803ZM624.285 131.912H627.723V130.4H624.285V128.006H622.701V130.4H621.135C621.297 129.824 621.459 129.212 621.603 128.618L620.037 128.294C619.695 130.004 619.101 131.786 618.309 132.974C618.705 133.118 619.371 133.352 619.713 133.55H618.471V135.08H622.701V136.682H619.245V142.982H620.739V138.176H622.701V144.404H624.285V138.176H626.373V141.38C626.373 141.56 626.319 141.614 626.139 141.614C625.959 141.632 625.419 141.632 624.771 141.614C624.987 142.01 625.185 142.622 625.221 143.036C626.157 143.054 626.841 143.036 627.309 142.784C627.777 142.532 627.885 142.1 627.885 141.416V136.682H624.285V135.08H628.425V133.55H624.285V131.912ZM631.071 129.482H629.523V139.436H631.071V129.482ZM632.691 128.15V142.298C632.691 142.586 632.601 142.676 632.313 142.676C632.007 142.694 631.035 142.694 630.027 142.658C630.261 143.144 630.495 143.918 630.567 144.368C631.917 144.368 632.925 144.332 633.501 144.044C634.095 143.756 634.311 143.288 634.311 142.28V128.15H632.691Z" fill="white"/>
</svg>
