<svg width="588" height="480" viewBox="0 0 588 480" fill="none" xmlns="http://www.w3.org/2000/svg">
<rect x="68" width="250" height="188" rx="10" fill="#F6F7FE"/>
<path d="M68 10C68 4.47715 72.4772 0 78 0L308 0C313.523 0 318 4.47715 318 10V74L68 74L68 10Z" fill="#435CE7"/>
<path d="M142.918 134.936H140.854V130.264H142.918V134.936ZM143.974 136.008V129.224H140.95C141.27 128.072 141.526 126.84 141.718 125.56H144.534V124.488H138.582V125.56H140.566C140.15 128.344 139.478 130.936 138.262 132.616C138.486 132.856 138.87 133.384 138.998 133.64C139.302 133.224 139.558 132.76 139.814 132.264V137.352H140.854V136.008H143.974ZM149.318 133.256V131.384H151.398V133.256H149.318ZM146.294 131.384H148.278V133.256H146.246C146.278 132.776 146.294 132.296 146.294 131.864V131.384ZM149.446 125.944C149.158 126.536 148.79 127.176 148.47 127.672H146.134C146.502 127.128 146.854 126.552 147.158 125.944H149.446ZM149.318 128.68H151.398V130.424H149.318V128.68ZM146.294 128.68H148.278V130.424H146.294V128.68ZM152.518 127.672H149.654C150.134 126.984 150.646 126.136 150.982 125.4L150.214 124.888L150.054 124.936H147.638C147.782 124.6 147.91 124.248 148.038 123.896L146.934 123.608C146.31 125.48 145.238 127.304 143.99 128.488C144.262 128.648 144.678 129.064 144.87 129.272C144.982 129.16 145.078 129.048 145.19 128.92V131.864C145.19 133.64 145.014 135.912 143.478 137.496C143.718 137.64 144.166 138.04 144.326 138.264C145.398 137.16 145.894 135.704 146.118 134.28H151.398V136.856C151.398 137.08 151.318 137.144 151.094 137.16C150.87 137.16 150.086 137.16 149.27 137.128C149.446 137.432 149.606 137.944 149.638 138.248C150.758 138.248 151.494 138.232 151.942 138.04C152.39 137.864 152.518 137.512 152.518 136.856V127.672ZM157.948 123.656C157.036 126.072 155.5 128.44 153.916 129.96C154.124 130.232 154.46 130.856 154.588 131.112C155.164 130.52 155.756 129.832 156.3 129.064V138.184H157.436V127.32C158.06 126.28 158.604 125.144 159.068 123.992L157.948 123.656ZM160.716 125.432H166.652V128.36H160.716V125.432ZM168.716 132.488V131.4H164.236V129.416H167.836V124.36H159.596V129.416H163.052V131.4H158.412V132.488H162.364C161.292 134.184 159.596 135.768 157.948 136.584C158.22 136.808 158.572 137.24 158.78 137.528C160.332 136.632 161.932 135.032 163.052 133.272V138.232H164.236V133.224C165.308 134.968 166.844 136.632 168.284 137.56C168.492 137.256 168.876 136.824 169.132 136.616C167.596 135.784 165.98 134.168 164.924 132.488H168.716ZM173.586 123.656C172.69 126.072 171.218 128.472 169.65 129.992C169.858 130.28 170.194 130.888 170.322 131.16C170.866 130.6 171.41 129.944 171.906 129.224V138.2H173.074V127.432C173.698 126.328 174.258 125.16 174.706 124.008L173.586 123.656ZM176.994 134.136C176.322 135.368 175.218 136.616 174.13 137.448C174.402 137.592 174.866 137.976 175.074 138.184C176.146 137.272 177.33 135.88 178.13 134.488L176.994 134.136ZM180.61 134.712C181.666 135.768 182.85 137.256 183.378 138.248L184.386 137.592C183.826 136.648 182.642 135.224 181.538 134.184L180.61 134.712ZM177.826 128.168H180.946V132.072H177.826V128.168ZM182.098 132.072V128.168H184.37V127.016H182.098V123.784H180.946V127.016H177.826V123.8H176.674V127.016H174.61V128.168H176.674V132.072H174.226V133.24H184.562V132.072H182.098ZM200.024 126.792V125.656H194.68C194.472 125.096 194.04 124.184 193.64 123.496L192.488 123.784C192.792 124.36 193.128 125.096 193.336 125.656H186.984V130.008C186.984 132.264 186.872 135.416 185.656 137.688C185.912 137.8 186.472 138.136 186.664 138.344C187.96 135.96 188.168 132.408 188.168 130.008V126.792H200.024ZM195.144 133.416C194.904 131.928 194.312 129.704 193.768 127.992L192.696 128.28C193.224 130.008 193.8 132.264 194.024 133.736L195.144 133.416ZM192.072 134.184C191.736 132.712 190.968 130.488 190.264 128.76L189.24 129.176C189.896 130.888 190.664 133.16 190.968 134.632L192.072 134.184ZM195.912 136.344C197.368 133.88 198.552 130.984 199.32 128.344L198.072 127.896C197.448 130.632 196.232 133.88 194.696 136.344H188.376V137.48H200.232V136.344H195.912ZM212.542 125.656C212.254 126.168 211.886 126.744 211.518 127.192H207.95C208.446 126.712 208.894 126.184 209.278 125.656H212.542ZM207.566 128.2H213.742V129.528H207.774V130.456H213.742V131.848H207.342V132.84H214.814V127.192H212.734C213.23 126.552 213.71 125.8 214.062 125.128L213.326 124.648L213.15 124.696H209.902C210.078 124.376 210.254 124.056 210.398 123.736L209.294 123.544C208.782 124.712 207.79 126.12 206.35 127.176C206.59 127.32 206.926 127.688 207.086 127.928C207.246 127.8 207.406 127.688 207.566 127.544V128.2ZM212.686 135.064C212.334 134.52 211.598 133.688 211.006 133.096L210.174 133.56C210.766 134.184 211.486 135.048 211.822 135.592L212.686 135.064ZM206.91 132.184C206.638 131.768 205.47 130.168 205.054 129.656V129.288H206.878V128.168H205.054V125.32C205.71 125.144 206.334 124.936 206.846 124.696L206.11 123.736C205.102 124.232 203.358 124.696 201.87 124.984C201.998 125.256 202.158 125.656 202.222 125.928C202.766 125.832 203.358 125.72 203.934 125.592V128.168H201.694V129.288H203.758C203.214 131.096 202.238 133.16 201.342 134.296C201.55 134.6 201.854 135.112 201.966 135.448C202.686 134.488 203.374 133.016 203.934 131.48V138.248H205.054V131.08C205.47 131.816 205.966 132.712 206.158 133.176L206.91 132.184ZM206.734 137.448C207.23 136.584 207.726 135.288 208.11 134.408L207.182 133.992C206.846 134.856 206.302 136.136 205.774 136.92L206.734 137.448ZM210.398 137.016C209.79 137.016 209.694 136.952 209.694 136.584V133.992H208.606V136.584C208.606 137.672 208.942 137.976 210.286 137.976H212.542C213.614 137.976 213.934 137.544 214.046 135.816C213.742 135.736 213.31 135.592 213.07 135.416C213.022 136.824 212.926 137.016 212.43 137.016H210.398ZM213.662 134.168C214.222 135.144 214.846 136.504 215.102 137.32L216.078 136.936C215.822 136.136 215.182 134.84 214.59 133.864L213.662 134.168ZM219.028 126.568H229.924V128.904H231.14V125.448H225.092V123.624H223.86V125.448H217.86V128.904H219.028V126.568ZM225.092 133.368H229.828V132.264H225.092V129.608H229.172V128.488H219.908V129.608H223.876V136.312C222.564 135.816 221.54 134.904 220.932 133.224C221.092 132.552 221.22 131.848 221.316 131.096L220.1 130.984C219.748 133.848 218.884 136.12 217.108 137.496C217.396 137.672 217.892 138.088 218.084 138.296C219.124 137.384 219.908 136.2 220.468 134.728C221.924 137.432 224.308 138.008 227.62 138.008H231.332C231.38 137.656 231.588 137.096 231.78 136.808C231.012 136.824 228.26 136.824 227.684 136.824C226.756 136.824 225.876 136.776 225.092 136.632V133.368ZM233.674 131.048C234.09 129.88 234.394 128.072 234.474 126.76L233.578 126.632C233.466 127.928 233.178 129.672 232.746 130.728L233.674 131.048ZM235.05 138.216H236.234V123.608H235.05V138.216ZM236.346 126.552C236.794 127.432 237.274 128.584 237.45 129.272L238.346 128.84C238.154 128.168 237.658 127.032 237.178 126.168L236.346 126.552ZM243.37 136.536V132.536H246.634V131.432H243.37V128.12H246.986V126.984H243.37V123.672H242.186V126.984H240.186C240.41 126.2 240.602 125.368 240.762 124.536L239.61 124.344C239.242 126.52 238.602 128.664 237.674 130.056C237.962 130.184 238.49 130.44 238.73 130.6C239.162 129.912 239.53 129.08 239.85 128.12H242.186V131.432H238.794V132.536H242.186V136.536H237.61V137.672H247.37V136.536H243.37Z" fill="#666666"/>
<path d="M125.977 44V32.8H131.001C132.292 32.8 133.284 33.0613 133.977 33.584C134.67 34.096 135.017 34.8 135.017 35.696C135.017 36.304 134.878 36.816 134.601 37.232C134.334 37.648 133.972 37.968 133.513 38.192C133.054 38.416 132.558 38.528 132.025 38.528L132.313 38.048C132.953 38.048 133.518 38.16 134.009 38.384C134.5 38.608 134.889 38.9387 135.177 39.376C135.465 39.8027 135.609 40.336 135.609 40.976C135.609 41.936 135.246 42.6827 134.521 43.216C133.806 43.7387 132.74 44 131.321 44H125.977ZM127.577 42.704H131.257C132.142 42.704 132.82 42.5547 133.289 42.256C133.758 41.9573 133.993 41.488 133.993 40.848C133.993 40.1973 133.758 39.7227 133.289 39.424C132.82 39.1253 132.142 38.976 131.257 38.976H127.433V37.68H130.857C131.668 37.68 132.297 37.5307 132.745 37.232C133.193 36.9333 133.417 36.4853 133.417 35.888C133.417 35.2907 133.193 34.8427 132.745 34.544C132.297 34.2453 131.668 34.096 130.857 34.096H127.577V42.704ZM141.244 44.096C140.391 44.096 139.634 43.9093 138.972 43.536C138.311 43.1627 137.788 42.6507 137.404 42C137.02 41.3387 136.828 40.592 136.828 39.76C136.828 38.9173 137.02 38.1707 137.404 37.52C137.788 36.8693 138.311 36.3627 138.972 36C139.634 35.6267 140.391 35.44 141.244 35.44C142.087 35.44 142.839 35.6267 143.5 36C144.172 36.3627 144.695 36.8693 145.068 37.52C145.452 38.16 145.644 38.9067 145.644 39.76C145.644 40.6027 145.452 41.3493 145.068 42C144.695 42.6507 144.172 43.1627 143.5 43.536C142.839 43.9093 142.087 44.096 141.244 44.096ZM141.244 42.752C141.788 42.752 142.274 42.6293 142.7 42.384C143.138 42.1387 143.479 41.792 143.724 41.344C143.97 40.8853 144.092 40.3573 144.092 39.76C144.092 39.152 143.97 38.6293 143.724 38.192C143.479 37.744 143.138 37.3973 142.7 37.152C142.274 36.9067 141.788 36.784 141.244 36.784C140.7 36.784 140.215 36.9067 139.788 37.152C139.362 37.3973 139.02 37.744 138.764 38.192C138.508 38.6293 138.38 39.152 138.38 39.76C138.38 40.3573 138.508 40.8853 138.764 41.344C139.02 41.792 139.362 42.1387 139.788 42.384C140.215 42.6293 140.7 42.752 141.244 42.752ZM150.431 44.096C149.577 44.096 148.916 43.8667 148.447 43.408C147.977 42.9493 147.743 42.2933 147.743 41.44V33.664H149.279V41.376C149.279 41.8347 149.391 42.1867 149.615 42.432C149.849 42.6773 150.18 42.8 150.607 42.8C151.087 42.8 151.487 42.6667 151.807 42.4L152.287 43.504C152.052 43.7067 151.769 43.856 151.439 43.952C151.119 44.048 150.783 44.096 150.431 44.096ZM146.303 36.784V35.52H151.711V36.784H146.303ZM156.602 44.096C155.749 44.096 155.088 43.8667 154.618 43.408C154.149 42.9493 153.914 42.2933 153.914 41.44V33.664H155.45V41.376C155.45 41.8347 155.562 42.1867 155.786 42.432C156.021 42.6773 156.352 42.8 156.778 42.8C157.258 42.8 157.658 42.6667 157.978 42.4L158.458 43.504C158.224 43.7067 157.941 43.856 157.61 43.952C157.29 44.048 156.954 44.096 156.602 44.096ZM152.474 36.784V35.52H157.882V36.784H152.474ZM160.065 44V32.128H161.601V44H160.065ZM168.06 44.096C167.153 44.096 166.353 43.9093 165.66 43.536C164.977 43.1627 164.444 42.6507 164.06 42C163.687 41.3493 163.5 40.6027 163.5 39.76C163.5 38.9173 163.681 38.1707 164.044 37.52C164.417 36.8693 164.924 36.3627 165.564 36C166.215 35.6267 166.945 35.44 167.756 35.44C168.577 35.44 169.303 35.6213 169.932 35.984C170.561 36.3467 171.052 36.8587 171.404 37.52C171.767 38.1707 171.948 38.9333 171.948 39.808C171.948 39.872 171.943 39.9467 171.932 40.032C171.932 40.1173 171.927 40.1973 171.916 40.272H164.7V39.168H171.116L170.492 39.552C170.503 39.008 170.391 38.5227 170.156 38.096C169.921 37.6693 169.596 37.3387 169.18 37.104C168.775 36.8587 168.3 36.736 167.756 36.736C167.223 36.736 166.748 36.8587 166.332 37.104C165.916 37.3387 165.591 37.6747 165.356 38.112C165.121 38.5387 165.004 39.0293 165.004 39.584V39.84C165.004 40.4053 165.132 40.912 165.388 41.36C165.655 41.7973 166.023 42.1387 166.492 42.384C166.961 42.6293 167.5 42.752 168.108 42.752C168.609 42.752 169.063 42.6667 169.468 42.496C169.884 42.3253 170.247 42.0693 170.556 41.728L171.404 42.72C171.02 43.168 170.54 43.5093 169.964 43.744C169.399 43.9787 168.764 44.096 168.06 44.096ZM173.443 40.272V38.944H177.747V40.272H173.443ZM180.086 44V32.8H181.398L188.806 42H188.118V32.8H189.718V44H188.406L180.998 34.8H181.686V44H180.086ZM196.373 44.096C195.466 44.096 194.666 43.9093 193.973 43.536C193.29 43.1627 192.757 42.6507 192.373 42C191.999 41.3493 191.813 40.6027 191.813 39.76C191.813 38.9173 191.994 38.1707 192.357 37.52C192.73 36.8693 193.237 36.3627 193.877 36C194.527 35.6267 195.258 35.44 196.069 35.44C196.89 35.44 197.615 35.6213 198.245 35.984C198.874 36.3467 199.365 36.8587 199.717 37.52C200.079 38.1707 200.261 38.9333 200.261 39.808C200.261 39.872 200.255 39.9467 200.245 40.032C200.245 40.1173 200.239 40.1973 200.229 40.272H193.013V39.168H199.429L198.805 39.552C198.815 39.008 198.703 38.5227 198.469 38.096C198.234 37.6693 197.909 37.3387 197.493 37.104C197.087 36.8587 196.613 36.736 196.069 36.736C195.535 36.736 195.061 36.8587 194.645 37.104C194.229 37.3387 193.903 37.6747 193.669 38.112C193.434 38.5387 193.317 39.0293 193.317 39.584V39.84C193.317 40.4053 193.445 40.912 193.701 41.36C193.967 41.7973 194.335 42.1387 194.805 42.384C195.274 42.6293 195.813 42.752 196.421 42.752C196.922 42.752 197.375 42.6667 197.781 42.496C198.197 42.3253 198.559 42.0693 198.869 41.728L199.717 42.72C199.333 43.168 198.853 43.5093 198.277 43.744C197.711 43.9787 197.077 44.096 196.373 44.096ZM205.84 44.096C204.976 44.096 204.202 43.9093 203.52 43.536C202.848 43.1627 202.32 42.6507 201.936 42C201.552 41.3493 201.36 40.6027 201.36 39.76C201.36 38.9173 201.552 38.1707 201.936 37.52C202.32 36.8693 202.848 36.3627 203.52 36C204.202 35.6267 204.976 35.44 205.84 35.44C206.608 35.44 207.29 35.5947 207.888 35.904C208.496 36.2027 208.965 36.6507 209.296 37.248L208.128 38C207.85 37.584 207.509 37.28 207.104 37.088C206.709 36.8853 206.282 36.784 205.824 36.784C205.269 36.784 204.773 36.9067 204.336 37.152C203.898 37.3973 203.552 37.744 203.296 38.192C203.04 38.6293 202.912 39.152 202.912 39.76C202.912 40.368 203.04 40.896 203.296 41.344C203.552 41.792 203.898 42.1387 204.336 42.384C204.773 42.6293 205.269 42.752 205.824 42.752C206.282 42.752 206.709 42.656 207.104 42.464C207.509 42.2613 207.85 41.952 208.128 41.536L209.296 42.272C208.965 42.8587 208.496 43.312 207.888 43.632C207.29 43.9413 206.608 44.096 205.84 44.096ZM212.173 41.952L212.205 39.984L217.085 35.52H218.941L215.197 39.2L214.365 39.904L212.173 41.952ZM210.925 44V32.128H212.461V44H210.925ZM217.405 44L214.077 39.872L215.069 38.64L219.293 44H217.405ZM222.87 47.184L224.022 46.672C222.646 44.384 222.006 41.68 222.006 38.992C222.006 36.32 222.646 33.616 224.022 31.312L222.87 30.816C221.382 33.232 220.502 35.84 220.502 38.992C220.502 42.176 221.382 44.752 222.87 47.184ZM230.676 30.592C230.468 31.424 230.02 32.624 229.668 33.36L230.756 33.712C231.156 33.024 231.668 31.92 232.1 30.944L230.676 30.592ZM228.196 33.296C228.068 32.544 227.652 31.456 227.204 30.64L226.036 30.992C226.468 31.84 226.852 32.976 226.996 33.712L228.196 33.296ZM228.068 37.92V35.056H229.748V37.92H228.068ZM232.644 39.264V37.92H231.076V35.056H232.468V33.728H225.444V35.056H226.74V37.92H225.156V39.264H226.708C226.628 41.072 226.308 42.88 225.092 44.416C225.428 44.608 225.94 45.04 226.18 45.312C227.588 43.552 227.956 41.392 228.052 39.264H229.748V45.232H231.076V39.264H232.644ZM234.868 34.784C234.916 34.08 234.948 33.392 234.98 32.736H239.636V31.392H232.308V32.736H233.636C233.508 36.208 233.188 40.592 232.868 43.408C232.468 43.472 232.084 43.52 231.748 43.568L232.132 44.896C233.588 44.624 235.492 44.256 237.3 43.904L237.22 42.704C236.228 42.88 235.204 43.04 234.276 43.2C234.468 41.264 234.644 38.64 234.804 36.064H237.188C237.22 41.04 237.332 45.264 239.044 45.264C239.956 45.264 240.196 44.432 240.292 42.336C240.036 42.144 239.7 41.824 239.444 41.504C239.428 42.912 239.364 43.872 239.172 43.872C238.484 43.872 238.484 39.168 238.5 34.784H234.868ZM236.964 40.992C236.804 40.032 236.292 38.576 235.732 37.456L234.772 37.744C235.284 38.848 235.796 40.352 235.94 41.312L236.964 40.992ZM248.346 34.064V41.536H249.722V35.392H253.626V41.488H255.066V34.064H251.866C252.074 33.632 252.282 33.12 252.506 32.624H255.546V31.264H247.802V32.624H250.89C250.762 33.104 250.602 33.616 250.426 34.064H248.346ZM247.978 36.32C247.434 35.872 246.442 35.216 245.546 34.704C246.298 33.84 246.922 32.896 247.37 31.824L246.378 31.312L246.106 31.376H241.45V32.72H245.29C244.25 34.32 242.522 35.76 240.826 36.56C241.13 36.816 241.578 37.328 241.802 37.648C242.762 37.12 243.722 36.464 244.602 35.664C245.514 36.224 246.49 36.928 247.018 37.408L247.978 36.32ZM247.658 41.968C246.874 42.144 246.074 42.32 245.29 42.48V39.6H247.482V38.288H241.482V39.6H243.85V42.784C242.81 43.008 241.882 43.184 241.146 43.328L241.514 44.72C243.226 44.32 245.594 43.76 247.786 43.2L247.658 41.968ZM252.394 36.256H250.986V39.344C250.986 40.928 250.698 43.024 247.226 44.272C247.53 44.544 247.962 45.008 248.138 45.328C251.754 43.792 252.394 41.344 252.394 39.36V36.256ZM251.93 42.592C252.922 43.392 254.186 44.56 254.762 45.296L255.722 44.256C255.114 43.536 253.818 42.448 252.81 41.68L251.93 42.592ZM257.904 47.184C259.408 44.752 260.288 42.176 260.288 38.992C260.288 35.84 259.408 33.232 257.904 30.816L256.752 31.312C258.128 33.616 258.768 36.32 258.768 38.992C258.768 41.68 258.128 44.384 256.752 46.672L257.904 47.184Z" fill="white"/>
<rect x="68" y="208" width="250" height="199" rx="10" fill="#F6F7FE"/>
<path d="M68 218C68 212.477 72.4772 208 78 208L308 208C313.523 208 318 212.477 318 218V282L68 282L68 218Z" fill="#435CE7"/>
<path d="M158.233 321.656C156.361 322.2 152.889 322.616 149.849 322.824L149.129 322.648C148.505 324.312 147.433 325.976 146.233 327.032C146.521 327.208 147.033 327.576 147.241 327.784C148.265 326.808 149.225 325.368 149.929 323.832C153.145 323.624 156.841 323.24 159.289 322.552L158.233 321.656ZM156.777 323.656C157.881 324.872 159.129 326.568 159.673 327.608L160.745 327.016C160.169 325.944 158.873 324.312 157.769 323.144L156.777 323.656ZM154.585 326.744C154.345 325.976 153.753 324.744 153.193 323.832L152.121 324.184C152.649 325.096 153.225 326.376 153.433 327.144L154.585 326.744ZM160.713 330.36V329.208H154.185V327.528H152.969V329.208H146.585V330.36H151.881C150.473 332.168 148.249 333.912 146.265 334.808C146.553 335.048 146.953 335.512 147.129 335.816C149.177 334.744 151.449 332.856 152.969 330.792V336.184H154.185V330.76C155.689 332.824 157.977 334.744 160.105 335.8C160.297 335.464 160.697 335 161.001 334.744C158.921 333.864 156.665 332.168 155.257 330.36H160.713ZM163.647 323.64H166.991V332.136H167.967V322.568H162.703V332.184H163.647V323.64ZM165.839 324.904H164.863V329.064C164.863 331.048 164.687 333.832 162.031 335.448C162.255 335.64 162.559 335.96 162.703 336.184C165.487 334.296 165.839 331.32 165.839 329.064V324.904ZM165.567 333.128C166.351 333.976 167.295 335.192 167.743 335.944L168.575 335.288C168.127 334.568 167.151 333.384 166.383 332.552L165.567 333.128ZM174.287 332.456C174.063 331.512 173.487 329.864 172.927 328.616L172.079 328.872C172.351 329.496 172.607 330.216 172.847 330.904L170.239 331.416C170.847 330.072 171.439 328.376 171.855 326.776L170.751 326.456C170.431 328.296 169.695 330.296 169.455 330.808C169.215 331.352 169.023 331.704 168.783 331.768C168.927 332.056 169.071 332.568 169.135 332.808C169.439 332.632 169.903 332.488 173.135 331.816C173.247 332.2 173.311 332.536 173.375 332.824L174.287 332.456ZM170.895 324.136C171.167 323.4 171.423 322.632 171.631 321.864L170.495 321.608C169.983 323.656 169.119 325.672 168.047 326.984C168.319 327.128 168.783 327.512 168.991 327.704C169.503 327.032 169.999 326.168 170.447 325.224H175.071C174.879 331.848 174.671 334.28 174.223 334.808C174.047 335.032 173.903 335.08 173.631 335.08C173.295 335.08 172.543 335.08 171.695 335C171.903 335.336 172.031 335.832 172.047 336.184C172.831 336.232 173.615 336.248 174.079 336.2C174.591 336.12 174.911 335.992 175.247 335.544C175.823 334.776 175.999 332.296 176.223 324.744C176.239 324.6 176.239 324.136 176.239 324.136H170.895ZM190.741 325.304C190.117 327.064 188.965 329.368 188.085 330.808L189.061 331.336C189.973 329.864 191.045 327.656 191.813 325.832L190.741 325.304ZM181.845 330.76C181.413 329.368 180.437 327.032 179.589 325.256L178.485 325.592C179.317 327.4 180.277 329.8 180.661 331.208L181.845 330.76ZM187.669 334.216V321.832H186.485V334.216H183.781V321.816H182.597V334.216H178.149V335.384H192.133V334.216H187.669ZM200.939 330.488C201.051 330.04 201.163 329.528 201.243 329L200.011 328.904C199.947 329.48 199.835 330.008 199.707 330.488H194.939V331.528H199.339C198.427 333.576 196.651 334.648 193.835 335.192C194.059 335.432 194.363 335.928 194.491 336.2C197.627 335.448 199.595 334.104 200.603 331.528H205.451C205.179 333.624 204.859 334.6 204.491 334.904C204.315 335.032 204.123 335.048 203.803 335.048C203.403 335.048 202.395 335.032 201.387 334.936C201.595 335.24 201.739 335.672 201.755 335.992C202.699 336.056 203.659 336.056 204.123 336.04C204.715 336.008 205.067 335.928 205.419 335.608C205.963 335.112 206.331 333.912 206.667 331.016C206.715 330.856 206.731 330.488 206.731 330.488H200.939ZM198.299 324.28H204.763C203.819 325.224 202.507 325.992 201.003 326.6C199.771 326.072 198.763 325.384 198.059 324.504L198.299 324.28ZM205.883 323.192L205.675 323.256H199.227C199.611 322.792 199.947 322.312 200.251 321.848L199.003 321.592C198.187 322.984 196.603 324.632 194.363 325.768C194.619 325.96 194.939 326.376 195.099 326.648C195.915 326.184 196.651 325.704 197.291 325.176C197.947 325.928 198.747 326.552 199.675 327.064C197.787 327.672 195.691 328.056 193.659 328.248C193.851 328.52 194.059 328.984 194.139 329.288C196.459 329 198.859 328.52 200.987 327.688C202.843 328.456 205.067 328.888 207.515 329.096C207.659 328.76 207.931 328.296 208.171 328.024C206.043 327.896 204.059 327.608 202.395 327.096C204.155 326.232 205.643 325.128 206.603 323.688L205.883 323.192ZM219.713 326.712C220.801 327.96 221.953 329.464 222.513 330.424L223.553 329.784C222.849 328.648 221.345 326.856 220.113 325.56L219.713 325.768V321.64H218.465V333.336H219.713V326.712ZM215.457 325.24C215.153 327.48 214.609 329.304 213.841 330.808C213.201 329.72 212.657 328.344 212.257 326.584C212.417 326.152 212.561 325.688 212.689 325.24H215.457ZM216.001 324.088L215.777 324.136H212.977C213.153 323.432 213.313 322.712 213.425 321.992L212.193 321.672C211.761 324.792 210.785 327.8 209.521 329.464C209.825 329.608 210.257 329.928 210.481 330.12C210.897 329.56 211.281 328.904 211.633 328.152C212.049 329.672 212.593 330.904 213.201 331.88C212.161 333.448 210.833 334.552 209.249 335.32C209.537 335.496 210.001 335.976 210.209 336.232C211.665 335.48 212.929 334.408 213.969 332.936C215.889 335.24 218.465 335.736 221.185 335.736H223.521C223.585 335.4 223.809 334.808 224.001 334.504C223.377 334.52 221.729 334.52 221.249 334.52C218.801 334.52 216.417 334.088 214.609 331.896C215.681 329.976 216.433 327.496 216.785 324.328L216.001 324.088ZM230.023 331.784L228.279 332.36V328.408H229.895V327.288H228.279V323.816H230.119V322.696H225.159V323.816H227.143V327.288H225.319V328.408H227.143V332.712C226.327 332.984 225.591 333.208 224.999 333.384L225.271 334.584C226.695 334.12 228.519 333.496 230.231 332.92L230.023 331.784ZM231.991 326.376H234.423V328.424H231.991V326.376ZM231.991 323.384H234.423V325.4H231.991V323.384ZM237.895 325.4H235.447V323.384H237.895V325.4ZM237.895 328.424H235.447V326.376H237.895V328.424ZM235.543 334.616V332.424H239.271V331.336H235.543V329.464H239.031V322.344H230.903V329.464H234.343V331.336H230.711V332.424H234.343V334.616H229.479V335.704H239.783V334.616H235.543ZM151.321 345.768H147.865V343.672H146.713V345.768H143.369V346.856H151.321V345.768ZM150.809 349.816C150.489 349.128 149.721 348.104 149.033 347.368L148.137 347.864C148.809 348.632 149.545 349.688 149.865 350.392L150.809 349.816ZM145.305 347.384C144.825 348.536 144.073 349.704 143.225 350.504C143.497 350.664 143.945 351 144.153 351.192C145.001 350.312 145.865 348.984 146.409 347.672L145.305 347.384ZM150.217 355.864C149.785 355.16 149.081 354.312 148.281 353.464C148.745 352.552 149.129 351.576 149.449 350.52L148.281 350.248C148.041 351.064 147.753 351.848 147.401 352.584C146.777 351.96 146.105 351.368 145.481 350.84L144.617 351.528C145.337 352.152 146.121 352.888 146.841 353.64C145.945 355.16 144.761 356.424 143.353 357.32C143.625 357.544 144.057 358.008 144.233 358.232C145.577 357.272 146.729 356.04 147.657 354.536C148.329 355.304 148.905 356.056 149.273 356.664L150.217 355.864ZM153.001 347.688H155.721C155.433 349.688 155.001 351.4 154.313 352.824C153.689 351.352 153.241 349.656 152.953 347.848L153.001 347.688ZM157.929 347.688V346.568H153.321C153.561 345.672 153.753 344.744 153.929 343.784L152.761 343.608C152.313 346.392 151.529 349.096 150.249 350.824C150.537 351 151.001 351.416 151.193 351.64C151.577 351.08 151.929 350.44 152.249 349.736C152.601 351.32 153.049 352.76 153.641 354.024C152.729 355.4 151.513 356.456 149.849 357.24C150.073 357.464 150.409 357.992 150.537 358.248C152.105 357.448 153.305 356.424 154.249 355.16C155.017 356.456 155.977 357.512 157.193 358.232C157.353 357.928 157.721 357.48 158.009 357.256C156.729 356.568 155.721 355.48 154.937 354.088C155.913 352.376 156.521 350.28 156.905 347.688H157.929ZM173.487 352.376C172.655 351.72 171.055 350.776 169.839 350.184L169.007 350.856C170.255 351.496 171.839 352.456 172.607 353.128L173.487 352.376ZM171.775 346.936C171.167 347.56 170.095 348.424 169.311 348.952L170.159 349.464C170.975 348.952 172.015 348.216 172.815 347.48L171.775 346.936ZM163.711 347.88L163.119 348.584C163.887 349.08 164.815 349.752 165.439 350.296C164.991 350.776 164.543 351.224 164.127 351.624C163.695 351.64 163.279 351.656 162.927 351.672L163.087 352.68C164.623 352.568 166.655 352.44 168.687 352.296C168.879 352.616 169.039 352.936 169.151 353.192L170.063 352.712C169.711 351.896 168.831 350.712 168.047 349.832L167.183 350.216C167.503 350.584 167.823 351 168.127 351.432L165.375 351.576C166.527 350.472 167.775 349.08 168.719 347.896L167.775 347.448C167.327 348.088 166.735 348.824 166.095 349.56C165.759 349.272 165.327 348.952 164.879 348.632C165.391 348.072 165.983 347.336 166.479 346.648L166.063 346.488H173.023V345.416H166.911V343.624H165.727V345.416H159.759V346.488H165.311C165.007 347 164.575 347.64 164.159 348.168L163.711 347.88ZM163.119 348.872C162.575 348.36 161.455 347.624 160.575 347.16L159.775 347.816C160.671 348.328 161.775 349.08 162.287 349.592L163.119 348.872ZM163.231 350.36C161.743 350.984 160.239 351.624 159.215 351.992L159.807 352.952C160.879 352.488 162.191 351.848 163.455 351.256L163.231 350.36ZM166.911 352.68H165.727V353.912H159.279V355.016H165.727V358.264H166.911V355.016H173.471V353.912H166.911V352.68ZM179.157 343.864C178.101 346.376 176.341 348.792 174.517 350.312C174.741 350.6 175.109 351.224 175.237 351.512C175.941 350.872 176.645 350.104 177.317 349.256V358.184H178.517V347.576C179.205 346.52 179.813 345.384 180.293 344.248L179.157 343.864ZM184.277 356.712C183.445 356.712 183.301 356.536 183.301 355.704V351.208C185.301 349.896 187.269 348.344 188.725 346.888L187.621 346.296C186.581 347.464 184.981 348.728 183.301 349.848V343.816H182.101V350.6C181.365 351.048 180.629 351.448 179.925 351.8C180.133 352.04 180.437 352.52 180.597 352.792C181.093 352.536 181.589 352.248 182.101 351.944V355.672C182.101 357.384 182.581 357.848 184.181 357.848H187.301C188.805 357.848 189.173 357.048 189.333 354.744C188.981 354.648 188.501 354.44 188.213 354.216C188.101 356.216 187.989 356.712 187.221 356.712H184.277ZM190.043 359.864H191.115L195.899 344.312H194.843L190.043 359.864ZM199.723 356.232V353.864H208.251V356.232H199.723ZM208.251 350.424V352.744H199.723V350.424H208.251ZM208.251 346.92V349.304H199.723V346.92H208.251ZM203.739 345.784C204.011 345.176 204.299 344.456 204.539 343.768L203.179 343.592C203.051 344.216 202.795 345.08 202.555 345.784H198.539V358.248H199.723V357.352H208.251V358.168H209.483V345.784H203.739ZM219.265 344.92H213.121V345.992H219.265V344.92ZM219.825 355.592C219.521 354.472 218.817 352.6 218.193 351.176L217.217 351.448C217.537 352.2 217.857 353.064 218.145 353.88L214.353 354.68C214.977 353.24 215.569 351.48 215.985 349.8H219.537V348.712H212.545V349.8H214.753C214.353 351.656 213.681 353.528 213.457 354.056C213.201 354.648 212.993 355.08 212.737 355.144C212.865 355.448 213.057 356.008 213.105 356.248C213.105 356.232 213.105 356.216 213.121 356.2V356.264C213.489 356.04 214.065 355.864 218.481 354.888C218.593 355.272 218.689 355.64 218.769 355.928L219.825 355.592ZM223.185 347.288C223.217 346.168 223.233 345.016 223.233 343.88H222.065C222.065 345.016 222.065 346.168 222.017 347.288H219.745V348.424H221.969C221.777 352.056 221.137 355.368 218.977 357.352C219.281 357.528 219.697 357.928 219.905 358.216C222.241 355.976 222.913 352.36 223.137 348.424H225.521C225.345 354.088 225.121 356.184 224.705 356.648C224.545 356.856 224.369 356.904 224.097 356.888C223.745 356.888 222.913 356.888 222.017 356.808C222.225 357.144 222.353 357.624 222.385 357.976C223.233 358.024 224.097 358.04 224.593 357.992C225.105 357.928 225.409 357.8 225.745 357.384C226.289 356.68 226.481 354.424 226.689 347.88C226.689 347.72 226.705 347.288 226.705 347.288H223.185ZM232.423 343.864C231.367 346.376 229.607 348.792 227.783 350.312C228.007 350.6 228.375 351.224 228.503 351.512C229.207 350.872 229.911 350.104 230.583 349.256V358.184H231.783V347.576C232.471 346.52 233.079 345.384 233.559 344.248L232.423 343.864ZM237.543 356.712C236.711 356.712 236.567 356.536 236.567 355.704V351.208C238.567 349.896 240.535 348.344 241.991 346.888L240.887 346.296C239.847 347.464 238.247 348.728 236.567 349.848V343.816H235.367V350.6C234.631 351.048 233.895 351.448 233.191 351.8C233.399 352.04 233.703 352.52 233.863 352.792C234.359 352.536 234.855 352.248 235.367 351.944V355.672C235.367 357.384 235.847 357.848 237.447 357.848H240.567C242.071 357.848 242.439 357.048 242.599 354.744C242.247 354.648 241.767 354.44 241.479 354.216C241.367 356.216 241.255 356.712 240.487 356.712H237.543Z" fill="#666666"/>
<path d="M142.047 252V240.8H146.415C147.397 240.8 148.234 240.955 148.927 241.264C149.621 241.573 150.154 242.021 150.527 242.608C150.901 243.195 151.087 243.893 151.087 244.704C151.087 245.515 150.901 246.213 150.527 246.8C150.154 247.376 149.621 247.819 148.927 248.128C148.234 248.437 147.397 248.592 146.415 248.592H142.927L143.647 247.856V252H142.047ZM149.535 252L146.687 247.936H148.399L151.279 252H149.535ZM143.647 248.016L142.927 247.232H146.367C147.391 247.232 148.165 247.013 148.687 246.576C149.221 246.128 149.487 245.504 149.487 244.704C149.487 243.904 149.221 243.285 148.687 242.848C148.165 242.411 147.391 242.192 146.367 242.192H142.927L143.647 241.392V248.016ZM156.83 252.096C155.977 252.096 155.22 251.909 154.558 251.536C153.897 251.163 153.374 250.651 152.99 250C152.606 249.339 152.414 248.592 152.414 247.76C152.414 246.917 152.606 246.171 152.99 245.52C153.374 244.869 153.897 244.363 154.558 244C155.22 243.627 155.977 243.44 156.83 243.44C157.673 243.44 158.425 243.627 159.086 244C159.758 244.363 160.281 244.869 160.654 245.52C161.038 246.16 161.23 246.907 161.23 247.76C161.23 248.603 161.038 249.349 160.654 250C160.281 250.651 159.758 251.163 159.086 251.536C158.425 251.909 157.673 252.096 156.83 252.096ZM156.83 250.752C157.374 250.752 157.86 250.629 158.286 250.384C158.724 250.139 159.065 249.792 159.31 249.344C159.556 248.885 159.678 248.357 159.678 247.76C159.678 247.152 159.556 246.629 159.31 246.192C159.065 245.744 158.724 245.397 158.286 245.152C157.86 244.907 157.374 244.784 156.83 244.784C156.286 244.784 155.801 244.907 155.374 245.152C154.948 245.397 154.606 245.744 154.35 246.192C154.094 246.629 153.966 247.152 153.966 247.76C153.966 248.357 154.094 248.885 154.35 249.344C154.606 249.792 154.948 250.139 155.374 250.384C155.801 250.629 156.286 250.752 156.83 250.752ZM166.672 252.096C165.947 252.096 165.307 251.963 164.752 251.696C164.208 251.429 163.782 251.024 163.472 250.48C163.174 249.925 163.024 249.232 163.024 248.4V243.52H164.56V248.224C164.56 249.056 164.758 249.68 165.152 250.096C165.558 250.512 166.123 250.72 166.848 250.72C167.382 250.72 167.846 250.613 168.24 250.4C168.635 250.176 168.939 249.856 169.152 249.44C169.366 249.013 169.472 248.501 169.472 247.904V243.52H171.008V252H169.552V249.712L169.792 250.32C169.515 250.885 169.099 251.323 168.544 251.632C167.99 251.941 167.366 252.096 166.672 252.096ZM176.595 252.096C175.741 252.096 175.08 251.867 174.611 251.408C174.141 250.949 173.907 250.293 173.907 249.44V241.664H175.443V249.376C175.443 249.835 175.555 250.187 175.779 250.432C176.013 250.677 176.344 250.8 176.771 250.8C177.251 250.8 177.651 250.667 177.971 250.4L178.451 251.504C178.216 251.707 177.933 251.856 177.603 251.952C177.283 252.048 176.947 252.096 176.595 252.096ZM172.467 244.784V243.52H177.875V244.784H172.467ZM180.058 252V243.52H181.594V252H180.058ZM180.826 241.888C180.527 241.888 180.276 241.792 180.074 241.6C179.882 241.408 179.786 241.173 179.786 240.896C179.786 240.608 179.882 240.368 180.074 240.176C180.276 239.984 180.527 239.888 180.826 239.888C181.124 239.888 181.37 239.984 181.562 240.176C181.764 240.357 181.866 240.587 181.866 240.864C181.866 241.152 181.77 241.397 181.578 241.6C181.386 241.792 181.135 241.888 180.826 241.888ZM188.804 243.44C189.498 243.44 190.106 243.573 190.628 243.84C191.162 244.107 191.578 244.512 191.876 245.056C192.175 245.6 192.324 246.288 192.324 247.12V252H190.788V247.296C190.788 246.475 190.586 245.856 190.18 245.44C189.786 245.024 189.226 244.816 188.5 244.816C187.956 244.816 187.482 244.923 187.076 245.136C186.671 245.349 186.356 245.664 186.132 246.08C185.919 246.496 185.812 247.013 185.812 247.632V252H184.276V243.52H185.748V245.808L185.508 245.2C185.786 244.645 186.212 244.213 186.788 243.904C187.364 243.595 188.036 243.44 188.804 243.44ZM198.693 252.096C197.786 252.096 196.986 251.909 196.293 251.536C195.61 251.163 195.077 250.651 194.693 250C194.32 249.349 194.133 248.603 194.133 247.76C194.133 246.917 194.314 246.171 194.677 245.52C195.05 244.869 195.557 244.363 196.197 244C196.848 243.627 197.578 243.44 198.389 243.44C199.21 243.44 199.936 243.621 200.565 243.984C201.194 244.347 201.685 244.859 202.037 245.52C202.4 246.171 202.581 246.933 202.581 247.808C202.581 247.872 202.576 247.947 202.565 248.032C202.565 248.117 202.56 248.197 202.549 248.272H195.333V247.168H201.749L201.125 247.552C201.136 247.008 201.024 246.523 200.789 246.096C200.554 245.669 200.229 245.339 199.813 245.104C199.408 244.859 198.933 244.736 198.389 244.736C197.856 244.736 197.381 244.859 196.965 245.104C196.549 245.339 196.224 245.675 195.989 246.112C195.754 246.539 195.637 247.029 195.637 247.584V247.84C195.637 248.405 195.765 248.912 196.021 249.36C196.288 249.797 196.656 250.139 197.125 250.384C197.594 250.629 198.133 250.752 198.741 250.752C199.242 250.752 199.696 250.667 200.101 250.496C200.517 250.325 200.88 250.069 201.189 249.728L202.037 250.72C201.653 251.168 201.173 251.509 200.597 251.744C200.032 251.979 199.397 252.096 198.693 252.096ZM206.8 255.184L207.952 254.672C206.576 252.384 205.936 249.68 205.936 246.992C205.936 244.32 206.576 241.616 207.952 239.312L206.8 238.816C205.312 241.232 204.432 243.84 204.432 246.992C204.432 250.176 205.312 252.752 206.8 255.184ZM209.197 244.944V246.576H223.757V244.944H209.197ZM234.067 240.48H236.179V242.752C236.179 243.664 236.275 243.952 236.515 244.176C236.739 244.416 237.139 244.496 237.459 244.496H238.275C238.531 244.496 238.851 244.448 239.043 244.352C239.283 244.24 239.459 244.048 239.555 243.776C239.635 243.52 239.699 242.832 239.731 242.224C239.379 242.112 238.899 241.872 238.659 241.648C238.643 242.256 238.627 242.736 238.595 242.944C238.563 243.152 238.499 243.248 238.435 243.296C238.387 243.328 238.275 243.344 238.163 243.344H237.811C237.715 243.344 237.635 243.328 237.587 243.28C237.523 243.232 237.523 243.056 237.523 242.784V239.184H232.739V241.248C232.739 242.24 232.595 243.44 231.443 244.32C231.747 244.48 232.291 244.944 232.515 245.184C233.811 244.144 234.067 242.56 234.067 241.28V240.48ZM227.491 242.816C227.875 243.456 228.195 244.336 228.291 244.912L229.267 244.496C229.155 243.936 228.803 243.072 228.403 242.448L227.491 242.816ZM227.091 245.552V241.936H229.699V245.28L227.091 245.552ZM231.651 246.24L231.635 245.088L230.931 245.152V240.752H228.691C228.915 240.192 229.187 239.504 229.443 238.864L227.843 238.56C227.747 239.2 227.523 240.064 227.315 240.752H225.907V245.664L224.771 245.776L224.915 246.992L225.907 246.88C225.891 248.736 225.747 250.976 224.755 252.576C225.059 252.72 225.571 253.04 225.779 253.248C226.899 251.52 227.075 248.8 227.091 246.752L229.699 246.464V251.84C229.699 252.016 229.635 252.08 229.443 252.08C229.283 252.096 228.723 252.096 228.131 252.08C228.307 252.384 228.483 252.944 228.531 253.264C229.427 253.264 230.003 253.232 230.403 253.04C230.803 252.832 230.931 252.464 230.931 251.84V246.32L231.651 246.24ZM228.771 247.04H227.875V250.72H228.771V247.04ZM237.059 246.736C236.659 247.776 236.099 248.704 235.395 249.472C234.691 248.672 234.131 247.76 233.763 246.736H237.059ZM237.939 245.344L237.683 245.408H232.003V246.736H233.603L232.547 246.976C233.011 248.272 233.635 249.408 234.419 250.368C233.475 251.12 232.371 251.68 231.187 252.032C231.475 252.32 231.827 252.912 232.003 253.28C233.267 252.832 234.419 252.224 235.427 251.392C236.387 252.224 237.523 252.848 238.867 253.248C239.059 252.88 239.475 252.304 239.763 252.032C238.467 251.712 237.347 251.168 236.435 250.448C237.539 249.216 238.387 247.648 238.851 245.68L237.939 245.344ZM241.833 255.184C243.337 252.752 244.217 250.176 244.217 246.992C244.217 243.84 243.337 241.232 241.833 238.816L240.681 239.312C242.057 241.616 242.697 244.32 242.697 246.992C242.697 249.68 242.057 252.384 240.681 254.672L241.833 255.184Z" fill="white"/>
<rect x="338" width="250" height="188" rx="10" fill="#F6F7FE"/>
<path d="M338 10C338 4.47715 342.477 0 348 0L578 0C583.523 0 588 4.47715 588 10V74L338 74V10Z" fill="#435CE7"/>
<path d="M446.079 126.552C445.759 125.928 445.039 124.952 444.399 124.248L443.583 124.712C444.191 125.432 444.895 126.44 445.215 127.096L446.079 126.552ZM438.175 135.944H433.807V131.88H438.175V135.944ZM436.303 127.768H439.615V126.712H436.303V123.704H435.167V130.792H432.735V137.928H433.807V137.032H438.175V137.848H439.279V130.792H436.303V127.768ZM445.439 129.512C445.007 130.84 444.351 132.152 443.535 133.32C443.295 132.184 443.103 130.808 442.943 129.272L446.623 128.744L446.463 127.72L442.847 128.248C442.735 126.824 442.655 125.288 442.623 123.704H441.503C441.567 125.352 441.647 126.936 441.759 128.408L439.503 128.744L439.663 129.752L441.855 129.448C442.047 131.368 442.303 133.08 442.655 134.456C441.695 135.56 440.591 136.472 439.407 137.048C439.711 137.256 440.079 137.624 440.271 137.896C441.247 137.336 442.175 136.568 443.023 135.672C443.567 137.256 444.335 138.184 445.343 138.232C445.967 138.248 446.543 137.56 446.879 135.096C446.671 134.984 446.223 134.712 446.015 134.472C445.887 136.04 445.663 136.904 445.327 136.888C444.767 136.856 444.255 136.04 443.871 134.664C444.927 133.256 445.791 131.64 446.351 130.008L445.439 129.512ZM455.477 132.408C456.453 131.88 457.397 131.224 458.261 130.44C459.061 131.192 459.973 131.864 460.981 132.408H455.477ZM455.957 136.536V133.464H460.389V136.536H455.957ZM453.669 128.44C453.893 128.632 454.133 128.872 454.277 129.016C454.805 128.568 455.333 128.04 455.829 127.432C456.261 128.168 456.821 128.936 457.493 129.672C456.325 130.696 454.981 131.512 453.669 132.056V128.44ZM451.413 133.864V130.056H452.709V133.864H451.413ZM449.317 130.056H450.597V133.864H449.317V130.056ZM450.597 125.576V129.048H449.317V125.576H450.597ZM452.709 129.048H451.413V125.576H452.709V129.048ZM460.181 126.312C459.701 127.256 459.029 128.136 458.261 128.936C457.525 128.168 456.917 127.352 456.485 126.568L456.661 126.312H460.181ZM460.965 125.256L460.757 125.32H457.285C457.541 124.856 457.781 124.36 457.989 123.864L456.869 123.56C456.181 125.272 455.013 126.856 453.669 127.944V124.552H448.405V136.328H449.317V134.92H453.669V132.488C453.829 132.68 453.989 132.92 454.069 133.096C454.325 132.984 454.581 132.872 454.837 132.744V138.136H455.957V137.592H460.389V138.104H461.541V132.696C461.717 132.776 461.877 132.856 462.053 132.92C462.229 132.6 462.565 132.152 462.821 131.912C461.381 131.4 460.117 130.6 459.061 129.688C460.181 128.536 461.125 127.176 461.733 125.64L460.965 125.256ZM474.555 132.936V136.504H467.211V132.936H474.555ZM466.043 138.232H467.211V137.576H474.555V138.232H475.771V131.864H466.043V138.232ZM466.875 128.808V129.864H474.891V128.808H466.875ZM470.171 123.656C468.923 125.704 466.251 128.136 463.467 129.544C463.739 129.8 464.059 130.216 464.203 130.488C466.939 129.032 469.531 126.76 470.843 124.808C472.331 126.856 475.131 129.096 477.611 130.392C477.819 130.056 478.107 129.64 478.395 129.368C475.883 128.232 473.067 126.008 471.371 123.656H470.171ZM483.217 123.672C482.321 126.104 480.849 128.488 479.265 130.024C479.489 130.28 479.841 130.936 479.953 131.208C480.497 130.648 481.041 130.008 481.537 129.304V138.2H482.721V127.464C483.345 126.36 483.921 125.192 484.353 124.04L483.217 123.672ZM493.953 127.416V126.28H487.297C487.617 125.576 487.921 124.856 488.177 124.12L487.041 123.816C486.257 126.152 484.961 128.456 483.521 129.944C483.793 130.136 484.257 130.536 484.449 130.744C485.249 129.848 486.033 128.696 486.721 127.416H487.825V138.216H489.025V134.344H493.809V133.224H489.025V130.808H493.585V129.704H489.025V127.416H493.953Z" fill="#666666"/>
<path d="M421.001 44.128C420.147 44.128 419.358 43.9893 418.633 43.712C417.918 43.424 417.294 43.024 416.761 42.512C416.238 41.9893 415.827 41.3813 415.529 40.688C415.23 39.9947 415.081 39.232 415.081 38.4C415.081 37.568 415.23 36.8053 415.529 36.112C415.827 35.4187 416.243 34.816 416.777 34.304C417.31 33.7813 417.934 33.3813 418.649 33.104C419.374 32.816 420.163 32.672 421.017 32.672C421.881 32.672 422.675 32.8213 423.401 33.12C424.137 33.408 424.761 33.84 425.273 34.416L424.233 35.424C423.806 34.976 423.326 34.6453 422.793 34.432C422.259 34.208 421.689 34.096 421.081 34.096C420.451 34.096 419.865 34.2027 419.321 34.416C418.787 34.6293 418.323 34.928 417.929 35.312C417.534 35.696 417.225 36.1547 417.001 36.688C416.787 37.2107 416.681 37.7813 416.681 38.4C416.681 39.0187 416.787 39.5947 417.001 40.128C417.225 40.6507 417.534 41.104 417.929 41.488C418.323 41.872 418.787 42.1707 419.321 42.384C419.865 42.5973 420.451 42.704 421.081 42.704C421.689 42.704 422.259 42.5973 422.793 42.384C423.326 42.16 423.806 41.8187 424.233 41.36L425.273 42.368C424.761 42.944 424.137 43.3813 423.401 43.68C422.675 43.9787 421.875 44.128 421.001 44.128ZM427.081 44V35.52H428.553V37.824L428.409 37.248C428.644 36.6613 429.038 36.2133 429.593 35.904C430.148 35.5947 430.83 35.44 431.641 35.44V36.928C431.577 36.9173 431.513 36.912 431.449 36.912C431.396 36.912 431.342 36.912 431.289 36.912C430.468 36.912 429.817 37.1573 429.337 37.648C428.857 38.1387 428.617 38.848 428.617 39.776V44H427.081ZM433.284 44V35.52H434.82V44H433.284ZM434.052 33.888C433.753 33.888 433.503 33.792 433.3 33.6C433.108 33.408 433.012 33.1733 433.012 32.896C433.012 32.608 433.108 32.368 433.3 32.176C433.503 31.984 433.753 31.888 434.052 31.888C434.351 31.888 434.596 31.984 434.788 32.176C434.991 32.3573 435.092 32.5867 435.092 32.864C435.092 33.152 434.996 33.3973 434.804 33.6C434.612 33.792 434.361 33.888 434.052 33.888ZM440.415 44.096C439.562 44.096 438.9 43.8667 438.431 43.408C437.962 42.9493 437.727 42.2933 437.727 41.44V33.664H439.263V41.376C439.263 41.8347 439.375 42.1867 439.599 42.432C439.834 42.6773 440.164 42.8 440.591 42.8C441.071 42.8 441.471 42.6667 441.791 42.4L442.271 43.504C442.036 43.7067 441.754 43.856 441.423 43.952C441.103 44.048 440.767 44.096 440.415 44.096ZM436.287 36.784V35.52H441.695V36.784H436.287ZM443.878 44V35.52H445.414V44H443.878ZM444.646 33.888C444.347 33.888 444.097 33.792 443.894 33.6C443.702 33.408 443.606 33.1733 443.606 32.896C443.606 32.608 443.702 32.368 443.894 32.176C444.097 31.984 444.347 31.888 444.646 31.888C444.945 31.888 445.19 31.984 445.382 32.176C445.585 32.3573 445.686 32.5867 445.686 32.864C445.686 33.152 445.59 33.3973 445.398 33.6C445.206 33.792 444.955 33.888 444.646 33.888ZM451.793 44.096C450.929 44.096 450.155 43.9093 449.473 43.536C448.801 43.1627 448.273 42.6507 447.889 42C447.505 41.3493 447.313 40.6027 447.313 39.76C447.313 38.9173 447.505 38.1707 447.889 37.52C448.273 36.8693 448.801 36.3627 449.473 36C450.155 35.6267 450.929 35.44 451.793 35.44C452.561 35.44 453.243 35.5947 453.841 35.904C454.449 36.2027 454.918 36.6507 455.249 37.248L454.081 38C453.803 37.584 453.462 37.28 453.057 37.088C452.662 36.8853 452.235 36.784 451.777 36.784C451.222 36.784 450.726 36.9067 450.289 37.152C449.851 37.3973 449.505 37.744 449.249 38.192C448.993 38.6293 448.865 39.152 448.865 39.76C448.865 40.368 448.993 40.896 449.249 41.344C449.505 41.792 449.851 42.1387 450.289 42.384C450.726 42.6293 451.222 42.752 451.777 42.752C452.235 42.752 452.662 42.656 453.057 42.464C453.462 42.2613 453.803 41.952 454.081 41.536L455.249 42.272C454.918 42.8587 454.449 43.312 453.841 43.632C453.243 43.9413 452.561 44.096 451.793 44.096ZM462.251 44V42.208L462.171 41.872V38.816C462.171 38.1653 461.979 37.664 461.595 37.312C461.222 36.9493 460.657 36.768 459.899 36.768C459.398 36.768 458.907 36.8533 458.427 37.024C457.947 37.184 457.542 37.4027 457.211 37.68L456.571 36.528C457.009 36.176 457.531 35.9093 458.139 35.728C458.758 35.536 459.403 35.44 460.075 35.44C461.238 35.44 462.134 35.7227 462.763 36.288C463.393 36.8533 463.707 37.7173 463.707 38.88V44H462.251ZM459.467 44.096C458.838 44.096 458.283 43.9893 457.803 43.776C457.334 43.5627 456.971 43.2693 456.715 42.896C456.459 42.512 456.331 42.08 456.331 41.6C456.331 41.1413 456.438 40.7253 456.651 40.352C456.875 39.9787 457.233 39.68 457.723 39.456C458.225 39.232 458.897 39.12 459.739 39.12H462.427V40.224H459.803C459.035 40.224 458.518 40.352 458.251 40.608C457.985 40.864 457.851 41.1733 457.851 41.536C457.851 41.952 458.017 42.288 458.347 42.544C458.678 42.7893 459.137 42.912 459.723 42.912C460.299 42.912 460.801 42.784 461.227 42.528C461.665 42.272 461.979 41.8987 462.171 41.408L462.475 42.464C462.273 42.9653 461.915 43.3653 461.403 43.664C460.891 43.952 460.246 44.096 459.467 44.096ZM466.3 44V32.128H467.836V44H466.3ZM472.855 47.184L474.007 46.672C472.631 44.384 471.991 41.68 471.991 38.992C471.991 36.32 472.631 33.616 474.007 31.312L472.855 30.816C471.367 33.232 470.487 35.84 470.487 38.992C470.487 42.176 471.367 44.752 472.855 47.184ZM489.332 33.44C489.028 32.832 488.308 31.888 487.716 31.184L486.692 31.744C487.268 32.464 487.956 33.472 488.26 34.112L489.332 33.44ZM477.156 42.72V39.008H481.108V42.72H477.156ZM479.588 37.68V34.832H482.772V33.52H479.588V30.72H478.164V37.68H475.844V44.976H477.156V44.064H481.108V44.896H482.484V37.68H479.588ZM488.404 36.528C488.02 37.728 487.428 38.896 486.724 39.984C486.532 38.944 486.356 37.728 486.212 36.384L489.78 35.872L489.588 34.592L486.1 35.104C486.02 33.712 485.94 32.224 485.908 30.688H484.532C484.58 32.32 484.66 33.84 484.772 35.28L482.644 35.584L482.852 36.88L484.868 36.592C485.044 38.448 485.284 40.096 485.62 41.424C484.708 42.48 483.652 43.344 482.484 43.904C482.884 44.176 483.332 44.608 483.572 44.96C484.468 44.432 485.316 43.744 486.084 42.928C486.644 44.384 487.396 45.232 488.388 45.28C489.028 45.296 489.684 44.64 490.052 42.096C489.812 41.952 489.236 41.568 488.98 41.28C488.884 42.768 488.676 43.568 488.372 43.568C487.892 43.536 487.492 42.848 487.14 41.696C488.164 40.32 488.996 38.736 489.524 37.152L488.404 36.528ZM498.842 39.424C499.722 38.928 500.57 38.336 501.354 37.664C502.074 38.32 502.906 38.928 503.802 39.424H498.842ZM499.322 43.376V40.736H503.242V43.376H499.322ZM496.858 35.456C497.114 35.696 497.386 35.952 497.53 36.128C497.994 35.728 498.474 35.264 498.906 34.736C499.306 35.376 499.802 36.048 500.378 36.688C499.306 37.6 498.09 38.336 496.858 38.848V35.456ZM494.618 40.752V37.216H495.69V40.752H494.618ZM492.618 37.216H493.658V40.752H492.618V37.216ZM493.658 32.8V35.968H492.618V32.8H493.658ZM495.69 35.968H494.618V32.8H495.69V35.968ZM503.018 33.456C502.586 34.288 502.01 35.056 501.338 35.76C500.682 35.088 500.138 34.352 499.738 33.664L499.882 33.456H503.018ZM503.994 32.144L503.738 32.208H500.634C500.858 31.792 501.066 31.36 501.242 30.928L499.85 30.528C499.21 32.144 498.106 33.68 496.858 34.736V31.504H491.498V43.408H492.618V42.032H496.858V39.488C497.034 39.712 497.21 39.968 497.322 40.176C497.514 40.096 497.722 40 497.914 39.904V45.2H499.322V44.688H503.242V45.184H504.682V39.856C504.794 39.904 504.906 39.952 505.018 40C505.226 39.616 505.674 39.024 505.978 38.752C504.602 38.288 503.37 37.552 502.346 36.704C503.45 35.552 504.362 34.192 504.954 32.624L503.994 32.144ZM507.888 47.184C509.392 44.752 510.272 42.176 510.272 38.992C510.272 35.84 509.392 33.232 507.888 30.816L506.736 31.312C508.112 33.616 508.752 36.32 508.752 38.992C508.752 41.68 508.112 44.384 506.736 46.672L507.888 47.184Z" fill="white"/>
<rect x="338" y="208" width="250" height="199" rx="10" fill="#F6F7FE"/>
<path d="M338 218C338 212.477 342.477 208 348 208L578 208C583.523 208 588 212.477 588 218V282H338V218Z" fill="#435CE7"/>
<path d="M425.257 326.52V327.928H422.569V326.52H425.257ZM429.113 327.928H426.329V326.52H429.113V327.928ZM426.329 330.264V328.808H429.113V330.264H426.329ZM422.569 330.264V328.808H425.257V330.264H422.569ZM422.569 331.176H425.257V333.768H426.329V331.176H429.113V332.632C429.113 332.84 429.049 332.904 428.841 332.904C428.649 332.904 427.961 332.92 427.209 332.888C427.353 333.16 427.497 333.576 427.545 333.864C428.617 333.864 429.289 333.848 429.705 333.688C430.121 333.512 430.249 333.224 430.249 332.648V325.608H428.233C427.881 325.416 427.465 325.192 427.001 324.968C428.185 324.376 429.385 323.576 430.233 322.776L429.497 322.216L429.273 322.28H421.465V323.224H428.137C427.497 323.688 426.713 324.152 425.945 324.488C425.193 324.168 424.409 323.848 423.721 323.608L422.969 324.28C423.929 324.632 425.065 325.144 426.009 325.608H421.449V333.832H422.569V331.176ZM420.313 323.688C419.817 323.08 418.713 322.296 417.785 321.816L417.001 322.536C417.929 323.048 419.001 323.864 419.481 324.472L420.313 323.688ZM419.865 326.84C419.321 326.248 418.169 325.48 417.209 325.032L416.457 325.768C417.417 326.28 418.537 327.08 419.065 327.672L419.865 326.84ZM419.497 329H416.377V330.104H418.377V333.144C417.657 333.8 416.889 334.472 416.217 334.952L416.841 336.088C417.609 335.4 418.329 334.728 419.017 334.04C420.041 335.288 421.513 335.848 423.625 335.928C425.417 335.992 428.825 335.96 430.601 335.896C430.665 335.544 430.841 335.016 431.001 334.744C429.081 334.872 425.385 334.904 423.609 334.84C421.721 334.76 420.281 334.232 419.497 333.048V329ZM442.879 331.928C442.879 332.2 442.767 332.296 442.447 332.312C442.127 332.312 441.007 332.312 439.855 332.28C440.031 332.616 440.223 333.144 440.271 333.48C441.775 333.48 442.751 333.448 443.295 333.256C443.855 333.08 444.063 332.728 444.063 331.928V325.608H446.271V324.472H444.063V321.672H442.879V324.472H436.735V325.608H442.879V331.928ZM437.487 327.384C438.303 328.376 439.263 329.768 439.711 330.6L440.719 329.992C440.255 329.16 439.231 327.848 438.431 326.872L437.487 327.384ZM436.031 324.696C435.551 323.944 434.495 322.84 433.615 322.04L432.703 322.648C433.583 323.464 434.607 324.632 435.055 325.384L436.031 324.696ZM435.599 327.576H432.239V328.696H434.431V332.856C433.727 333.128 432.879 333.832 432.031 334.744L432.863 335.864C433.679 334.776 434.447 333.832 434.975 333.832C435.327 333.832 435.855 334.36 436.511 334.776C437.615 335.48 438.943 335.656 440.911 335.656C442.447 335.656 445.247 335.576 446.383 335.496C446.399 335.128 446.591 334.536 446.751 334.216C445.199 334.376 442.815 334.52 440.943 334.52C439.183 334.52 437.807 334.392 436.783 333.752C436.239 333.416 435.903 333.128 435.599 332.936V327.576ZM453.829 329.768L453.669 328.712L451.813 329.288V326.024H453.461V324.872H451.813V321.624H450.709V324.872H449.477C449.589 324.168 449.701 323.432 449.781 322.712L448.741 322.536C448.549 324.488 448.245 326.504 447.637 327.864C447.893 327.96 448.341 328.248 448.549 328.392C448.837 327.736 449.061 326.92 449.253 326.024H450.709V329.592C449.589 329.944 448.565 330.216 447.749 330.44L448.069 331.576C448.853 331.336 449.765 331.048 450.709 330.76V336.232H451.813V330.408L453.829 329.768ZM461.157 324.28V324.296H456.037C456.325 323.512 456.565 322.68 456.757 321.832L455.669 321.608C455.141 324.024 454.181 326.328 452.869 327.752C453.109 327.912 453.589 328.248 453.781 328.44C454.469 327.624 455.077 326.568 455.605 325.4H456.981C456.245 327.96 454.821 330.632 453.125 331.96C453.461 332.136 453.845 332.408 454.069 332.648C455.813 331.128 457.285 328.136 458.005 325.4H459.317C458.485 329.416 456.757 333.352 454.133 335.24C454.485 335.416 454.901 335.704 455.125 335.96C457.781 333.848 459.541 329.592 460.341 325.4H461.109C460.789 331.736 460.437 334.104 459.925 334.664C459.749 334.872 459.589 334.936 459.333 334.936C459.013 334.936 458.373 334.92 457.653 334.856C457.861 335.176 457.973 335.672 457.989 336.024C458.693 336.072 459.381 336.088 459.813 336.024C460.293 335.976 460.613 335.832 460.917 335.416C461.557 334.616 461.909 332.136 462.261 324.888C462.277 324.744 462.277 324.296 462.277 324.296L461.157 324.28ZM474.811 323.704H466.891V322.84H474.811V323.704ZM474.811 325.272H466.891V324.392H474.811V325.272ZM475.979 322.12H465.755V325.992H475.979V322.12ZM478.011 326.648H463.771V327.56H478.011V326.648ZM466.571 331.528V330.616H470.283V331.528H466.571ZM466.571 329.016H470.283V329.912H466.571V329.016ZM475.291 329.912H471.419V329.016H475.291V329.912ZM475.291 331.528H471.419V330.616H475.291V331.528ZM471.419 334.904V333.976H476.795V333.144H471.419V332.264H476.459V328.28H465.467V332.264H470.283V333.144H465.003V333.976H470.283V334.904H463.675V335.832H478.091V334.904H471.419ZM481.025 325.112H482.721V326.456H481.025V325.112ZM485.521 325.112V326.456H483.793V325.112H485.521ZM491.617 324.36C491.329 325.304 490.897 326.088 490.337 326.76C489.681 326.024 489.201 325.208 488.865 324.408L488.897 324.36H491.617ZM482.721 329.992H483.793V328.056C484.561 328.488 485.601 329.096 486.065 329.416L486.641 328.632C486.193 328.376 484.529 327.544 483.889 327.24H486.529V325.72C486.785 325.928 487.137 326.296 487.281 326.488C487.633 326.152 487.969 325.768 488.273 325.336C488.609 326.056 489.057 326.792 489.633 327.464C488.769 328.216 487.681 328.776 486.385 329.16C486.625 329.368 486.977 329.816 487.089 330.04C488.353 329.576 489.457 329 490.353 328.232C491.169 329 492.161 329.656 493.377 330.104C493.537 329.816 493.841 329.384 494.065 329.16C492.865 328.792 491.873 328.2 491.073 327.512C491.841 326.664 492.401 325.624 492.769 324.36H493.793V323.4H489.393C489.617 322.904 489.809 322.392 489.969 321.864L488.881 321.624C488.449 323.192 487.617 324.648 486.529 325.624V324.328H483.793V323.512H486.913V322.648H483.793V321.608H482.721V322.648H479.585V323.512H482.721V324.328H480.049V327.24H482.257C481.473 328.024 480.289 328.84 479.313 329.24C479.553 329.416 479.873 329.768 480.017 329.992C480.881 329.56 481.921 328.76 482.721 327.944V329.992ZM487.185 333.56H491.777V332.632H487.185V331.4H492.817V330.424H480.513V331.4H486.033V334.872H483.185V332.12H482.065V334.872H479.441V335.864H493.857V334.872H487.185V333.56ZM506.055 330.936V334.504H498.711V330.936H506.055ZM497.543 336.232H498.711V335.576H506.055V336.232H507.271V329.864H497.543V336.232ZM498.375 326.808V327.864H506.391V326.808H498.375ZM501.671 321.656C500.423 323.704 497.751 326.136 494.967 327.544C495.239 327.8 495.559 328.216 495.703 328.488C498.439 327.032 501.031 324.76 502.343 322.808C503.831 324.856 506.631 327.096 509.111 328.392C509.319 328.056 509.607 327.64 509.895 327.368C507.383 326.232 504.567 324.008 502.871 321.656H501.671ZM420.425 347.272H421.609V345.976H425.753V347.192H426.905V345.976H430.633V344.888H426.905V343.624H425.737V344.888H421.609V343.624H420.425V344.888H416.681V345.976H420.425V347.272ZM426.937 348.184C427.769 348.744 428.697 349.576 429.129 350.168L429.961 349.512C429.529 348.92 428.569 348.12 427.737 347.576L426.937 348.184ZM420.841 347.592C420.521 347.976 420.089 348.36 419.609 348.76C419.193 348.264 418.633 347.8 417.945 347.352L417.177 347.96C417.833 348.408 418.377 348.872 418.761 349.368C418.009 349.864 417.177 350.312 416.329 350.68C416.569 350.888 416.889 351.224 417.049 351.464C417.817 351.096 418.601 350.68 419.337 350.184C419.593 350.664 419.785 351.144 419.897 351.656C419.113 352.744 417.593 353.944 416.297 354.472C416.569 354.712 416.873 355.096 417.017 355.384C418.041 354.824 419.193 353.896 420.057 352.936C420.073 353.176 420.073 353.4 420.073 353.608C420.073 355.208 419.929 356.36 419.561 356.824C419.433 356.984 419.289 357.064 419.049 357.08C418.713 357.128 418.105 357.128 417.385 357.08C417.593 357.384 417.737 357.8 417.753 358.136C418.409 358.168 418.985 358.168 419.513 358.056C419.865 358.008 420.153 357.848 420.361 357.608C421.001 356.872 421.177 355.48 421.177 353.656C421.177 352.248 421.033 350.872 420.233 349.56C420.825 349.112 421.385 348.632 421.817 348.136L420.841 347.592ZM430.649 351.512V350.392H426.457C426.457 350.2 426.457 350.024 426.457 349.848V347.512H425.337V349.832C425.337 350.024 425.337 350.2 425.321 350.392H421.609V351.512H425.225C424.953 353.48 424.073 355.72 421.177 357.496C421.465 357.688 421.833 358.008 422.041 358.264C424.425 356.776 425.545 354.968 426.041 353.176C426.857 355.464 428.153 357.224 430.041 358.216C430.217 357.896 430.569 357.464 430.825 357.24C428.633 356.28 427.289 354.184 426.585 351.512H430.649ZM437.679 347.848H434.559V345.72H437.679V347.848ZM434.559 352.216H437.679V354.184C436.607 354.344 435.535 354.504 434.559 354.632V352.216ZM437.679 351.128H434.559V348.904H437.679V351.128ZM439.951 345.72V344.616H432.191V345.72H433.439V354.792C432.863 354.872 432.335 354.936 431.887 354.984L432.095 356.184C433.615 355.928 435.663 355.624 437.679 355.288V358.184H438.831V345.72H439.951ZM445.487 345.752L445.263 345.8H439.551V346.968H444.943C444.575 349.32 443.887 351.32 442.959 352.952C442.047 351.256 441.407 349.24 440.991 347.032L439.855 347.24C440.383 349.864 441.135 352.184 442.239 354.072C441.279 355.384 440.143 356.376 438.879 357.032C439.135 357.256 439.487 357.688 439.663 357.992C440.879 357.288 441.983 356.344 442.927 355.144C443.791 356.344 444.847 357.32 446.111 358.04C446.303 357.736 446.687 357.288 446.959 357.064C445.631 356.392 444.543 355.368 443.663 354.088C444.943 352.056 445.839 349.4 446.255 345.976L445.487 345.752ZM451.397 343.672C450.485 346.104 449.013 348.488 447.445 350.024C447.669 350.28 447.989 350.904 448.117 351.176C448.677 350.6 449.221 349.944 449.733 349.208V358.184H450.853V347.464C451.493 346.36 452.053 345.192 452.501 344.008L451.397 343.672ZM454.293 351.688C454.293 353.288 454.117 355.848 451.733 357.544C452.037 357.752 452.389 358.104 452.581 358.344C455.141 356.392 455.445 353.592 455.445 351.72V349.432H454.293V351.688ZM458.693 358.088H459.877V349.416H458.693V358.088ZM456.293 343.912C455.381 345.848 453.365 348.152 451.301 349.464C451.541 349.736 451.829 350.168 451.973 350.456C454.021 349.08 455.925 346.92 456.933 345.112C458.037 346.968 460.101 349.096 462.005 350.376C462.197 350.04 462.469 349.608 462.709 349.32C460.805 348.2 458.693 346.04 457.445 343.912H456.293ZM471.067 352.392C471.979 351.896 472.875 351.288 473.675 350.584C474.459 351.272 475.355 351.896 476.379 352.392H471.067ZM471.371 356.488V353.416H475.835V356.488H471.371ZM472.059 346.36H475.547C475.083 347.368 474.427 348.28 473.659 349.08C472.891 348.312 472.299 347.464 471.867 346.648L472.059 346.36ZM476.299 345.272L476.091 345.32H472.667C472.907 344.856 473.131 344.392 473.323 343.912L472.171 343.592C471.547 345.224 470.523 346.776 469.339 347.912V347.032H467.275V343.608H466.139V347.032H463.755V348.136H466.011C465.499 350.328 464.443 352.824 463.387 354.168C463.595 354.44 463.883 354.904 464.011 355.224C464.795 354.168 465.563 352.44 466.139 350.648V358.2H467.275V350.216C467.771 350.904 468.331 351.752 468.587 352.216L469.291 351.288C468.987 350.888 467.723 349.352 467.275 348.84V348.136H469.099C468.971 348.248 468.827 348.36 468.699 348.472C468.971 348.648 469.435 349.048 469.643 349.272C470.187 348.792 470.715 348.216 471.211 347.576C471.643 348.328 472.203 349.096 472.875 349.816C471.531 350.968 469.947 351.832 468.347 352.344C468.587 352.568 468.891 353 469.019 353.304C469.451 353.144 469.867 352.984 470.283 352.776V358.232H471.371V357.528H475.835V358.168H476.955V352.664C477.195 352.76 477.451 352.856 477.707 352.952C477.867 352.648 478.203 352.184 478.443 351.944C476.875 351.48 475.547 350.712 474.459 349.816C475.563 348.664 476.475 347.272 477.035 345.624L476.299 345.272ZM484.833 351.56L484.673 350.456L482.817 351.016V347.928H484.657V346.84H482.817V343.624H481.649V346.84H479.377V347.928H481.649V351.352C480.705 351.624 479.841 351.864 479.153 352.04L479.473 353.192L481.649 352.536V356.824C481.649 357.064 481.569 357.128 481.361 357.128C481.153 357.144 480.497 357.144 479.777 357.128C479.937 357.416 480.081 357.912 480.129 358.2C481.201 358.216 481.841 358.184 482.257 358.008C482.657 357.816 482.817 357.48 482.817 356.824V352.184L484.833 351.56ZM493.953 348.984H486.961V346.056C489.137 345.752 491.649 345.32 493.329 344.728L492.449 343.8C491.137 344.264 488.945 344.712 486.929 345.032L485.777 344.824V349.912C485.777 352.248 485.569 355.176 483.633 357.288C483.921 357.448 484.353 357.864 484.513 358.12C486.625 355.832 486.945 352.568 486.961 350.12H490.113V358.2H491.281V350.12H493.953V348.984ZM500.551 350.696L498.631 351.256V347.656H500.567V346.536H498.631V343.624H497.447V346.536H495.143V347.656H497.447V351.592C496.503 351.864 495.639 352.104 494.951 352.28L495.255 353.432C495.911 353.256 496.663 353.016 497.447 352.776V356.792C497.447 357.032 497.351 357.096 497.143 357.096C496.951 357.112 496.263 357.112 495.543 357.096C495.719 357.416 495.895 357.912 495.943 358.216C496.999 358.232 497.655 358.2 498.055 357.992C498.487 357.8 498.631 357.496 498.631 356.792V352.424C499.319 352.216 500.023 351.992 500.711 351.768L500.551 350.696ZM502.583 355.128V346.088H507.447V355.128H502.583ZM501.415 344.952V357.752H502.583V356.264H507.447V357.64H508.663V344.952H501.415Z" fill="#666666"/>
<path d="M407.485 252V240.8H409.085V250.608H415.149V252H407.485ZM420.177 252.096C419.271 252.096 418.471 251.909 417.777 251.536C417.095 251.163 416.561 250.651 416.177 250C415.804 249.349 415.617 248.603 415.617 247.76C415.617 246.917 415.799 246.171 416.161 245.52C416.535 244.869 417.041 244.363 417.681 244C418.332 243.627 419.063 243.44 419.873 243.44C420.695 243.44 421.42 243.621 422.049 243.984C422.679 244.347 423.169 244.859 423.521 245.52C423.884 246.171 424.065 246.933 424.065 247.808C424.065 247.872 424.06 247.947 424.049 248.032C424.049 248.117 424.044 248.197 424.033 248.272H416.817V247.168H423.233L422.609 247.552C422.62 247.008 422.508 246.523 422.273 246.096C422.039 245.669 421.713 245.339 421.297 245.104C420.892 244.859 420.417 244.736 419.873 244.736C419.34 244.736 418.865 244.859 418.449 245.104C418.033 245.339 417.708 245.675 417.473 246.112C417.239 246.539 417.121 247.029 417.121 247.584V247.84C417.121 248.405 417.249 248.912 417.505 249.36C417.772 249.797 418.14 250.139 418.609 250.384C419.079 250.629 419.617 250.752 420.225 250.752C420.727 250.752 421.18 250.667 421.585 250.496C422.001 250.325 422.364 250.069 422.673 249.728L423.521 250.72C423.137 251.168 422.657 251.509 422.081 251.744C421.516 251.979 420.881 252.096 420.177 252.096ZM428.016 252L424.304 243.52H425.904L429.2 251.2H428.432L431.792 243.52H433.296L429.584 252H428.016ZM438.021 252.096C437.114 252.096 436.314 251.909 435.621 251.536C434.938 251.163 434.405 250.651 434.021 250C433.648 249.349 433.461 248.603 433.461 247.76C433.461 246.917 433.642 246.171 434.005 245.52C434.378 244.869 434.885 244.363 435.525 244C436.176 243.627 436.906 243.44 437.717 243.44C438.538 243.44 439.264 243.621 439.893 243.984C440.522 244.347 441.013 244.859 441.365 245.52C441.728 246.171 441.909 246.933 441.909 247.808C441.909 247.872 441.904 247.947 441.893 248.032C441.893 248.117 441.888 248.197 441.877 248.272H434.661V247.168H441.077L440.453 247.552C440.464 247.008 440.352 246.523 440.117 246.096C439.882 245.669 439.557 245.339 439.141 245.104C438.736 244.859 438.261 244.736 437.717 244.736C437.184 244.736 436.709 244.859 436.293 245.104C435.877 245.339 435.552 245.675 435.317 246.112C435.082 246.539 434.965 247.029 434.965 247.584V247.84C434.965 248.405 435.093 248.912 435.349 249.36C435.616 249.797 435.984 250.139 436.453 250.384C436.922 250.629 437.461 250.752 438.069 250.752C438.57 250.752 439.024 250.667 439.429 250.496C439.845 250.325 440.208 250.069 440.517 249.728L441.365 250.72C440.981 251.168 440.501 251.509 439.925 251.744C439.36 251.979 438.725 252.096 438.021 252.096ZM443.792 252V243.52H445.264V245.824L445.12 245.248C445.355 244.661 445.749 244.213 446.304 243.904C446.859 243.595 447.541 243.44 448.352 243.44V244.928C448.288 244.917 448.224 244.912 448.16 244.912C448.107 244.912 448.053 244.912 448 244.912C447.179 244.912 446.528 245.157 446.048 245.648C445.568 246.139 445.328 246.848 445.328 247.776V252H443.792ZM454.634 252V250.208L454.554 249.872V246.816C454.554 246.165 454.362 245.664 453.978 245.312C453.605 244.949 453.039 244.768 452.282 244.768C451.781 244.768 451.29 244.853 450.81 245.024C450.33 245.184 449.925 245.403 449.594 245.68L448.954 244.528C449.391 244.176 449.914 243.909 450.522 243.728C451.141 243.536 451.786 243.44 452.458 243.44C453.621 243.44 454.517 243.723 455.146 244.288C455.775 244.853 456.09 245.717 456.09 246.88V252H454.634ZM451.85 252.096C451.221 252.096 450.666 251.989 450.186 251.776C449.717 251.563 449.354 251.269 449.098 250.896C448.842 250.512 448.714 250.08 448.714 249.6C448.714 249.141 448.821 248.725 449.034 248.352C449.258 247.979 449.615 247.68 450.106 247.456C450.607 247.232 451.279 247.12 452.122 247.12H454.81V248.224H452.186C451.418 248.224 450.901 248.352 450.634 248.608C450.367 248.864 450.234 249.173 450.234 249.536C450.234 249.952 450.399 250.288 450.73 250.544C451.061 250.789 451.519 250.912 452.106 250.912C452.682 250.912 453.183 250.784 453.61 250.528C454.047 250.272 454.362 249.899 454.554 249.408L454.858 250.464C454.655 250.965 454.298 251.365 453.786 251.664C453.274 251.952 452.629 252.096 451.85 252.096ZM462.395 255.2C461.616 255.2 460.859 255.088 460.123 254.864C459.397 254.651 458.805 254.341 458.347 253.936L459.083 252.752C459.477 253.093 459.963 253.36 460.539 253.552C461.115 253.755 461.717 253.856 462.347 253.856C463.349 253.856 464.085 253.621 464.555 253.152C465.024 252.683 465.259 251.968 465.259 251.008V249.216L465.419 247.536L465.339 245.84V243.52H466.795V250.848C466.795 252.341 466.421 253.44 465.675 254.144C464.928 254.848 463.835 255.2 462.395 255.2ZM462.203 251.648C461.381 251.648 460.645 251.477 459.995 251.136C459.355 250.784 458.843 250.299 458.459 249.68C458.085 249.061 457.899 248.347 457.899 247.536C457.899 246.715 458.085 246 458.459 245.392C458.843 244.773 459.355 244.293 459.995 243.952C460.645 243.611 461.381 243.44 462.203 243.44C462.928 243.44 463.589 243.589 464.187 243.888C464.784 244.176 465.259 244.624 465.611 245.232C465.973 245.84 466.155 246.608 466.155 247.536C466.155 248.453 465.973 249.216 465.611 249.824C465.259 250.432 464.784 250.891 464.187 251.2C463.589 251.499 462.928 251.648 462.203 251.648ZM462.379 250.304C462.944 250.304 463.445 250.187 463.883 249.952C464.32 249.717 464.661 249.392 464.907 248.976C465.163 248.56 465.291 248.08 465.291 247.536C465.291 246.992 465.163 246.512 464.907 246.096C464.661 245.68 464.32 245.36 463.883 245.136C463.445 244.901 462.944 244.784 462.379 244.784C461.813 244.784 461.307 244.901 460.859 245.136C460.421 245.36 460.075 245.68 459.819 246.096C459.573 246.512 459.451 246.992 459.451 247.536C459.451 248.08 459.573 248.56 459.819 248.976C460.075 249.392 460.421 249.717 460.859 249.952C461.307 250.187 461.813 250.304 462.379 250.304ZM473.255 252.096C472.349 252.096 471.549 251.909 470.855 251.536C470.173 251.163 469.639 250.651 469.255 250C468.882 249.349 468.695 248.603 468.695 247.76C468.695 246.917 468.877 246.171 469.239 245.52C469.613 244.869 470.119 244.363 470.759 244C471.41 243.627 472.141 243.44 472.951 243.44C473.773 243.44 474.498 243.621 475.127 243.984C475.757 244.347 476.247 244.859 476.599 245.52C476.962 246.171 477.143 246.933 477.143 247.808C477.143 247.872 477.138 247.947 477.127 248.032C477.127 248.117 477.122 248.197 477.111 248.272H469.895V247.168H476.311L475.687 247.552C475.698 247.008 475.586 246.523 475.351 246.096C475.117 245.669 474.791 245.339 474.375 245.104C473.97 244.859 473.495 244.736 472.951 244.736C472.418 244.736 471.943 244.859 471.527 245.104C471.111 245.339 470.786 245.675 470.551 246.112C470.317 246.539 470.199 247.029 470.199 247.584V247.84C470.199 248.405 470.327 248.912 470.583 249.36C470.85 249.797 471.218 250.139 471.687 250.384C472.157 250.629 472.695 250.752 473.303 250.752C473.805 250.752 474.258 250.667 474.663 250.496C475.079 250.325 475.442 250.069 475.751 249.728L476.599 250.72C476.215 251.168 475.735 251.509 475.159 251.744C474.594 251.979 473.959 252.096 473.255 252.096ZM481.362 255.184L482.514 254.672C481.138 252.384 480.498 249.68 480.498 246.992C480.498 244.32 481.138 241.616 482.514 239.312L481.362 238.816C479.874 241.232 478.994 243.84 478.994 246.992C478.994 250.176 479.874 252.752 481.362 255.184ZM495.712 240.896C495.552 241.376 495.344 241.952 495.152 242.368L495.472 242.448H493.552L493.808 242.384C493.76 241.984 493.584 241.392 493.36 240.896H495.712ZM498.304 242.448H496.416C496.624 242.016 496.88 241.472 497.12 240.928L496.976 240.896H498.048V239.728H495.168V238.608H493.76V239.728H491.248V240.896H492.304L492.096 240.944C492.288 241.408 492.48 241.984 492.56 242.448H491.056V243.632H498.304V242.448ZM488.432 240.896C488.304 241.376 488.096 241.968 487.936 242.384L488.208 242.448H486.32L486.608 242.384C486.544 241.984 486.384 241.392 486.16 240.896H488.432ZM490.688 242.448H489.168C489.344 242.032 489.536 241.504 489.76 240.96L489.472 240.896H490.576V239.728H488V238.608H486.656V239.728H484.064V240.896H485.216L484.96 240.944C485.136 241.392 485.312 241.984 485.376 242.448H483.744V243.632H490.688V242.448ZM485.744 245.504H488.784V247.2H485.744V245.504ZM490.624 250.144C490.08 250.336 489.552 250.528 489.04 250.704V248.352H490.144V244.384H484.432V248.352H485.392C485.28 250.128 484.944 251.424 483.44 252.192C483.728 252.4 484.128 252.944 484.288 253.264C486.08 252.24 486.528 250.592 486.672 248.352H487.712V251.152L487.248 251.296L487.632 252.608C488.624 252.24 489.776 251.792 490.864 251.36L490.624 250.144ZM492.928 245.488H496.112V247.232H492.928V245.488ZM496.416 251.712C496.288 251.712 496.176 251.68 496.112 251.616C496.064 251.568 496.032 251.488 496.032 251.392V248.368H497.552V244.368H491.568V248.368H492.4C492.256 250.272 491.808 251.488 489.744 252.16C490.016 252.4 490.4 252.944 490.544 253.264C492.944 252.352 493.552 250.784 493.728 248.368H494.704V251.472C494.704 252.272 494.768 252.528 495.04 252.784C495.296 253.008 495.696 253.088 496.064 253.088H496.976C497.296 253.088 497.648 253.04 497.856 252.896C498.112 252.752 498.288 252.56 498.384 252.24C498.464 251.936 498.544 251.168 498.576 250.416C498.208 250.304 497.696 250 497.456 249.792C497.456 250.48 497.424 251.072 497.392 251.328C497.36 251.472 497.296 251.568 497.216 251.632C497.136 251.68 496.992 251.712 496.864 251.712H496.416ZM511.078 238.64C509.158 239.072 505.99 239.424 503.062 239.632L501.718 239.312C501.286 240.784 500.502 242.256 499.59 243.216C499.958 243.408 500.598 243.824 500.886 244.08C501.574 243.264 502.262 242.112 502.774 240.88C505.958 240.704 509.654 240.352 512.262 239.792L511.078 238.64ZM510.758 248.464H507.414V246.928H510.758V248.464ZM507.414 244.24H510.758V245.648H507.414V244.24ZM514.054 245.648H512.262V243.552C512.31 243.632 512.358 243.728 512.406 243.808L513.702 243.104C513.238 242.224 512.134 240.944 511.206 240.032L509.99 240.656C510.646 241.344 511.366 242.208 511.894 242.96H506.422L507.59 242.656C507.494 242.096 507.158 241.28 506.822 240.64L505.494 240.976C505.782 241.584 506.086 242.432 506.166 242.96H501.734V244.24H505.894V245.648H499.494V246.928H505.894V248.464H501.35V249.744H505.894V251.504C505.894 251.776 505.782 251.856 505.494 251.872C505.174 251.872 504.07 251.888 502.998 251.84C503.222 252.24 503.462 252.88 503.558 253.296C504.982 253.296 505.958 253.264 506.566 253.04C507.206 252.832 507.414 252.4 507.414 251.536V249.744H510.758V250.48H512.262V246.928H514.054V245.648ZM516.396 255.184C517.9 252.752 518.78 250.176 518.78 246.992C518.78 243.84 517.9 241.232 516.396 238.816L515.244 239.312C516.62 241.616 517.26 244.32 517.26 246.992C517.26 249.68 516.62 252.384 515.244 254.672L516.396 255.184Z" fill="white"/>
<path d="M29.9786 2.4V8.016H22.0946V2.4H20.7626V15H22.0946V9.186H29.9786V15H31.2926V2.4H29.9786ZM35.5331 3.462C36.0731 3.462 36.4691 3.048 36.4691 2.526C36.4691 2.04 36.0551 1.644 35.5331 1.644C35.0111 1.644 34.5971 2.058 34.5971 2.544C34.5971 3.048 35.0111 3.462 35.5331 3.462ZM34.8851 15H36.1631V5.532H34.8851V15ZM47.0111 5.532V7.35C46.2191 6.108 44.8511 5.46 43.2671 5.46C40.5671 5.46 38.5151 7.314 38.5151 10.032C38.5151 12.75 40.5671 14.64 43.2671 14.64C44.8151 14.64 46.1651 14.01 46.9571 12.804V14.01C46.9571 16.35 45.8591 17.448 43.4651 17.448C42.0071 17.448 40.6391 16.962 39.7391 16.152L39.0911 17.124C40.0811 18.06 41.7731 18.582 43.5011 18.582C46.6331 18.582 48.2351 17.106 48.2351 13.848V5.532H47.0111ZM43.3931 13.506C41.3051 13.506 39.8111 12.084 39.8111 10.032C39.8111 7.98 41.3051 6.576 43.3931 6.576C45.4811 6.576 46.9931 7.98 46.9931 10.032C46.9931 12.084 45.4811 13.506 43.3931 13.506ZM56.383 5.46C54.781 5.46 53.539 6.09 52.837 7.188V1.644H51.559V15H52.837V10.032C52.837 7.872 54.115 6.612 56.149 6.612C57.949 6.612 58.993 7.638 58.993 9.636V15H60.271V9.51C60.271 6.792 58.687 5.46 56.383 5.46Z" fill="#666666"/>
<path d="M24.052 440H32.44V438.848H25.384V427.4H24.052V440ZM37.861 440.09C40.633 440.09 42.667 438.074 42.667 435.266C42.667 432.458 40.633 430.46 37.861 430.46C35.089 430.46 33.037 432.458 33.037 435.266C33.037 438.074 35.089 440.09 37.861 440.09ZM37.861 438.956C35.845 438.956 34.333 437.48 34.333 435.266C34.333 433.052 35.845 431.576 37.861 431.576C39.877 431.576 41.371 433.052 41.371 435.266C41.371 437.48 39.877 438.956 37.861 438.956ZM57.4885 430.532L54.4825 438.578L51.4585 430.532H50.3605L47.3185 438.578L44.3485 430.532H43.1245L46.6885 440H47.8945L50.8825 432.242L53.8705 440H55.0765L58.6585 430.532H57.4885Z" fill="#666666"/>
<path d="M39.2474 54.8601L34.4512 60.3415C33.8854 60.9881 34.3446 62 35.2038 62H44.7962C45.6554 62 46.1146 60.9881 45.5488 60.3415L40.7526 54.8601C40.3542 54.4048 39.6458 54.4048 39.2474 54.8601Z" fill="#888888"/>
<line x1="39.5" y1="58" x2="39.5" y2="426" stroke="#888888"/>
<path d="M586.141 434.248L580.668 429.453C580.022 428.887 579.009 429.346 579.009 430.205L579.009 439.795C579.009 440.654 580.022 441.113 580.668 440.547L586.141 435.752C586.596 435.354 586.596 434.646 586.141 434.248Z" fill="#888888"/>
<line x1="579" y1="435.5" x2="68" y2="435.5" stroke="#888888"/>
<path d="M15.138 157.894C14.472 159.964 13.248 162.592 12.294 164.23L13.68 164.95C14.652 163.258 15.822 160.774 16.668 158.632L15.138 157.894ZM5.418 164.212C4.95 162.592 3.87 159.892 2.97 157.84L1.44 158.326C2.322 160.396 3.33 163.168 3.744 164.824L5.418 164.212ZM12.078 167.884L12.078 154.15H10.368L10.368 167.884H7.65L7.65 154.132H5.94L5.94 167.884H1.098L1.098 169.54H16.92V167.884H12.078ZM9.216 184.834C9.36 184.366 9.468 183.844 9.558 183.304L7.812 183.16C7.74 183.772 7.632 184.33 7.488 184.834H2.268V186.274H6.93C5.886 188.308 3.978 189.424 1.062 190C1.368 190.324 1.854 191.026 2.016 191.404C5.4 190.522 7.56 189.064 8.73 186.274H13.896C13.59 188.326 13.266 189.334 12.852 189.658C12.654 189.82 12.438 189.838 12.042 189.838C11.574 189.838 10.368 189.82 9.216 189.712C9.504 190.126 9.738 190.738 9.756 191.17C10.854 191.242 11.952 191.242 12.546 191.206C13.284 191.17 13.734 191.062 14.184 190.666C14.832 190.09 15.228 188.704 15.642 185.518C15.678 185.302 15.732 184.834 15.732 184.834H9.216ZM6.138 178.102H13.05C12.024 179.038 10.656 179.794 9.09 180.424C7.758 179.866 6.678 179.164 5.94 178.3L6.138 178.102ZM14.706 176.608L14.418 176.68H7.434C7.812 176.212 8.154 175.726 8.442 175.24L6.732 174.898C5.814 176.428 4.086 178.156 1.566 179.398C1.908 179.65 2.376 180.28 2.574 180.658C3.42 180.226 4.176 179.722 4.842 179.2C5.526 179.92 6.3 180.532 7.2 181.054C5.202 181.612 3.042 181.99 0.9 182.188C1.152 182.566 1.422 183.232 1.548 183.646C4.122 183.34 6.75 182.818 9.09 181.954C11.142 182.764 13.608 183.214 16.344 183.43C16.542 182.998 16.92 182.314 17.28 181.954C15.03 181.828 12.924 181.558 11.124 181.09C13.05 180.136 14.67 178.876 15.732 177.292L14.706 176.608ZM4.518 205.744V204.646H8.082V205.744H4.518ZM4.518 202.468H8.082V203.584H4.518V202.468ZM13.536 202.468V203.584H9.756V202.468H13.536ZM13.536 205.744H9.756V204.646H13.536V205.744ZM9.756 210.532V209.254H15.912V207.94H9.756V206.914H15.246L15.246 201.316H9.756V200.398H16.938V199.066H9.756V197.878C11.79 197.734 13.716 197.536 15.264 197.266L14.418 195.952C11.52 196.456 6.57 196.78 2.43 196.888C2.556 197.23 2.754 197.806 2.772 198.202C4.446 198.166 6.282 198.112 8.082 198.004V199.066H1.08L1.08 200.398H8.082V201.316H2.88L2.88 206.914H8.082V207.94H2.322L2.322 209.254H8.082V210.532H0.99L0.99 211.882H17.064V210.532H9.756ZM11.79 227.95C11.268 228.832 10.602 229.516 9.72 230.074C8.478 229.768 7.182 229.48 5.904 229.228C6.192 228.814 6.498 228.382 6.804 227.95H11.79ZM3.69 221.722H6.048V223.81H3.69L3.69 221.722ZM7.65 219.076H10.152V220.372H7.65V219.076ZM14.364 221.722L14.364 223.81H11.736L11.736 221.722H14.364ZM7.65 223.81V221.722H10.152L10.152 223.81H7.65ZM17.136 227.95V226.582H7.722C8.028 226.114 8.316 225.664 8.586 225.232L8.316 225.16H16.02V220.372H11.736V219.076H16.686V217.6H1.26L1.26 219.076H6.048V220.372H2.124L2.124 225.16H6.714C6.444 225.61 6.12 226.096 5.796 226.582H0.882L0.882 227.95H4.86C4.248 228.832 3.636 229.66 3.132 230.308L4.734 230.83L5.022 230.434C5.904 230.632 6.768 230.812 7.614 231.028C5.922 231.568 3.798 231.838 1.17 231.964C1.44 232.324 1.692 232.936 1.8 233.422C5.31 233.152 7.992 232.648 10.008 231.64C12.186 232.234 14.112 232.882 15.57 233.476L16.56 232.108C15.264 231.622 13.554 231.082 11.664 230.578C12.492 229.876 13.158 229.012 13.662 227.95H17.136ZM1.782 246.376C2.214 245.044 2.538 242.956 2.628 241.48L1.422 241.3C1.296 242.758 0.954 244.738 0.522 245.944L1.782 246.376ZM12.744 252.226V248.14H16.236V246.574H12.744L12.744 243.19H16.632V241.606H12.744V237.97H11.07V241.606H9.18C9.396 240.76 9.594 239.878 9.72 238.978L8.082 238.708C7.848 240.4 7.452 242.092 6.894 243.496C6.678 242.74 6.174 241.642 5.724 240.796L4.662 241.228V237.898H2.988L2.988 254.404H4.662L4.662 241.498C5.112 242.452 5.58 243.604 5.742 244.324L6.75 243.838C6.552 244.306 6.318 244.72 6.084 245.08C6.498 245.242 7.236 245.62 7.578 245.854C7.992 245.116 8.388 244.198 8.73 243.19H11.07L11.07 246.574H7.416V248.14H11.07V252.226H6.066V253.81H17.1V252.226H12.744Z" fill="#666666"/>
<path d="M267.88 462.66H266.566V467.34C266.566 469.554 266.368 472.614 263.452 474.36C263.74 474.612 264.19 475.062 264.37 475.35C267.466 473.28 267.88 469.932 267.88 467.358V462.66ZM267.412 471.93C268.294 472.938 269.356 474.288 269.878 475.134L271.03 474.234C270.508 473.424 269.374 472.092 268.528 471.156L267.412 471.93ZM277.312 471.138C277.078 470.04 276.484 468.222 275.908 466.836L274.738 467.214C274.99 467.862 275.242 468.6 275.458 469.32L272.974 469.806C273.658 468.348 274.306 466.548 274.738 464.874L273.208 464.46C272.866 466.44 272.056 468.654 271.786 469.212C271.534 469.824 271.3 470.202 271.012 470.274C271.192 470.67 271.426 471.39 271.516 471.696C271.858 471.498 272.416 471.3 275.818 470.58C275.926 470.976 275.98 471.3 276.034 471.606L277.312 471.138ZM273.676 461.652C273.964 460.878 274.216 460.068 274.432 459.258L272.83 458.898C272.308 461.112 271.408 463.326 270.256 464.748V459.924H264.154V470.76H265.45V461.418H268.924V470.688H270.256V464.856C270.634 465.126 271.264 465.612 271.534 465.864C272.074 465.126 272.596 464.208 273.046 463.182H277.924C277.762 470.22 277.546 472.92 277.06 473.478C276.862 473.748 276.682 473.802 276.394 473.784C275.998 473.784 275.188 473.784 274.27 473.712C274.558 474.18 274.738 474.9 274.774 475.386C275.656 475.422 276.538 475.44 277.114 475.35C277.708 475.26 278.104 475.08 278.5 474.522C279.148 473.64 279.328 470.814 279.544 462.48C279.562 462.246 279.562 461.652 279.562 461.652H273.676ZM295.044 464.604C295.818 463.524 296.682 461.868 297.348 460.374L296.124 459.87L295.836 459.96H295.53V459.978H282.498V461.544H294.99C294.576 462.426 294.108 463.29 293.676 463.938L295.044 464.604ZM288.834 464.244C288.042 463.65 286.458 462.858 285.27 462.372L284.37 463.488C285.576 464.028 287.124 464.91 287.88 465.522L288.834 464.244ZM286.71 466.71C285.954 466.116 284.442 465.378 283.29 464.946L282.372 466.044C283.542 466.548 285.036 467.358 285.774 467.934L286.71 466.71ZM289.986 472.02C292.326 473.01 294.756 474.36 296.196 475.404L297.276 474.09C295.764 473.082 293.208 471.786 290.85 470.832L289.986 472.02ZM289.662 462.462C289.608 464.82 289.554 466.782 289.158 468.384H281.76V469.932H288.6C287.592 471.966 285.576 473.262 281.418 474.036C281.742 474.396 282.156 475.026 282.282 475.458C287.178 474.468 289.356 472.668 290.382 469.932H297.348V468.384H290.832C291.192 466.71 291.282 464.748 291.336 462.462H289.662ZM303.452 464.28C305 463.056 306.314 461.724 307.178 460.5C308.114 461.76 309.518 463.092 311.084 464.28H303.452ZM308.042 469.338H313.91V467.898H308.042V465.756H311.696V464.73C312.65 465.414 313.622 466.026 314.576 466.512C314.864 466.026 315.26 465.45 315.656 465.018C312.866 463.812 309.86 461.49 307.952 458.862H306.242C304.892 461.076 301.958 463.722 298.898 465.234C299.258 465.576 299.744 466.206 299.942 466.584C300.914 466.062 301.85 465.468 302.75 464.82V465.756H306.278V467.898H300.536V469.338H306.278V473.424H299.672V474.882H314.846V473.424H308.042V469.338ZM301.85 470.148C302.534 471.138 303.218 472.488 303.434 473.352L304.892 472.704C304.64 471.84 303.92 470.562 303.218 469.608L301.85 470.148ZM310.472 473.352C311.138 472.542 311.948 471.318 312.65 470.184L311.048 469.59C310.616 470.58 309.842 471.948 309.23 472.794L310.472 473.352ZM325.504 463.11V471.498H326.908V464.424H331.084V471.444H332.524V463.11H329.23C329.446 462.606 329.662 461.994 329.896 461.4H333.136V459.942H325.27V461.4H328.402C328.222 461.958 327.988 462.606 327.79 463.11H325.504ZM318.502 461.994H323.452V463.506H324.964V460.644H322.156C321.94 460.14 321.58 459.474 321.292 458.97L319.744 459.312C319.96 459.708 320.176 460.194 320.374 460.644H317.044V463.506H318.502V461.994ZM322.498 471.12V473.424H319.744V471.12H322.498ZM325.198 468.618C324.514 468.186 323.506 467.646 322.444 467.07C323.29 466.242 323.992 465.288 324.478 464.19L323.596 463.578L323.308 463.632H320.716C320.914 463.326 321.076 463.02 321.22 462.714L319.744 462.426C319.204 463.56 318.178 464.91 316.666 465.882C316.954 466.08 317.404 466.602 317.62 466.944C318.502 466.314 319.204 465.63 319.798 464.91H322.39C322.03 465.432 321.58 465.936 321.076 466.368C320.59 466.134 320.14 465.9 319.708 465.702L318.628 466.692C318.988 466.89 319.384 467.088 319.798 467.304C318.844 467.898 317.8 468.384 316.72 468.69C316.936 469.014 317.242 469.788 317.332 470.22C317.656 470.13 317.944 470.004 318.268 469.86V475.26H319.744V474.756H322.498V475.26H324.028V469.806H318.394C319.42 469.374 320.374 468.78 321.274 468.114C322.354 468.708 323.38 469.32 324.028 469.77L325.198 468.618ZM328.33 465.27C328.258 470.616 328.06 472.974 324.154 474.324C324.442 474.594 324.838 475.134 325 475.512C329.302 473.946 329.68 471.084 329.77 465.27H328.33ZM329.248 472.614C330.364 473.442 331.84 474.648 332.56 475.404L333.46 474.216C332.74 473.496 331.228 472.362 330.13 471.57L329.248 472.614ZM338.268 468.744V467.646H341.832V468.744H338.268ZM338.268 465.468H341.832V466.584H338.268V465.468ZM347.286 465.468V466.584H343.506V465.468H347.286ZM347.286 468.744H343.506V467.646H347.286V468.744ZM343.506 473.532V472.254H349.662V470.94H343.506V469.914H348.996V464.316H343.506V463.398H350.688V462.066H343.506V460.878C345.54 460.734 347.466 460.536 349.014 460.266L348.168 458.952C345.27 459.456 340.32 459.78 336.18 459.888C336.306 460.23 336.504 460.806 336.522 461.202C338.196 461.166 340.032 461.112 341.832 461.004V462.066H334.83V463.398H341.832V464.316H336.63V469.914H341.832V470.94H336.072V472.254H341.832V473.532H334.74V474.882H350.814V473.532H343.506ZM363.29 469.95C362.768 470.832 362.102 471.516 361.22 472.074C359.978 471.768 358.682 471.48 357.404 471.228C357.692 470.814 357.998 470.382 358.304 469.95H363.29ZM355.19 463.722H357.548V465.81H355.19V463.722ZM359.15 461.076H361.652V462.372H359.15V461.076ZM365.864 463.722V465.81H363.236V463.722H365.864ZM359.15 465.81V463.722H361.652V465.81H359.15ZM368.636 469.95V468.582H359.222C359.528 468.114 359.816 467.664 360.086 467.232L359.816 467.16H367.52V462.372H363.236V461.076H368.186V459.6H352.76V461.076H357.548V462.372H353.624V467.16H358.214C357.944 467.61 357.62 468.096 357.296 468.582H352.382V469.95H356.36C355.748 470.832 355.136 471.66 354.632 472.308L356.234 472.83L356.522 472.434C357.404 472.632 358.268 472.812 359.114 473.028C357.422 473.568 355.298 473.838 352.67 473.964C352.94 474.324 353.192 474.936 353.3 475.422C356.81 475.152 359.492 474.648 361.508 473.64C363.686 474.234 365.612 474.882 367.07 475.476L368.06 474.108C366.764 473.622 365.054 473.082 363.164 472.578C363.992 471.876 364.658 471.012 365.162 469.95H368.636ZM373.03 462.084H386.206V460.59H379.654V458.898H377.908V460.59H371.428V465.666C371.428 468.276 371.302 471.93 369.844 474.486C370.204 474.648 370.906 475.134 371.212 475.404C372.778 472.668 373.03 468.492 373.03 465.666V462.084ZM381.688 465.252V466.836H377.8V465.252H381.688ZM383.326 468.132V465.252H386.08V463.884H383.326V462.516H381.688V463.884H377.8V462.516H376.216V463.884H373.552V465.252H376.216V468.132H383.326ZM382.57 470.418C381.886 471.21 380.968 471.84 379.906 472.362C378.826 471.84 377.944 471.192 377.296 470.418H382.57ZM383.974 469.014L383.668 469.068H373.75V470.418H376.504L375.694 470.724C376.36 471.624 377.188 472.398 378.178 473.046C376.612 473.55 374.848 473.856 373.03 474.036C373.3 474.378 373.606 475.026 373.732 475.44C375.928 475.17 378.034 474.72 379.852 473.964C381.508 474.702 383.434 475.188 385.558 475.458C385.756 475.026 386.188 474.36 386.53 474.018C384.748 473.838 383.092 473.532 381.652 473.064C383.074 472.2 384.244 471.066 385 469.572L383.974 469.014Z" fill="#666666"/>
</svg>
