<svg width="1200" height="549" viewBox="0 0 1200 549" fill="none" xmlns="http://www.w3.org/2000/svg">
<rect width="1200" height="549" fill="white" fill-opacity="0.5"/>
<path d="M80 30H1145V519H80V30Z" fill="white"/>
<path d="M270 519L270 30" stroke="#DDDDDD" stroke-linecap="round" stroke-linejoin="round" stroke-dasharray="2 4"/>
<path d="M490 519L490 30" stroke="#DDDDDD" stroke-linecap="round" stroke-linejoin="round" stroke-dasharray="2 4"/>
<path d="M710 519L710 30" stroke="#DDDDDD" stroke-linecap="round" stroke-linejoin="round" stroke-dasharray="2 4"/>
<path d="M930 519L930 30" stroke="#DDDDDD" stroke-linecap="round" stroke-linejoin="round" stroke-dasharray="2 4"/>
<path d="M459.999 134H504.999" stroke="#7094F0" stroke-linecap="round" stroke-linejoin="round" stroke-dasharray="2 4"/>
<path d="M508.932 134.8L503.599 138.8C502.94 139.294 501.999 138.824 501.999 138L501.999 130C501.999 129.176 502.94 128.706 503.599 129.2L508.932 133.2C509.466 133.6 509.466 134.4 508.932 134.8Z" fill="#7094F0"/>
<rect x="80" y="110" width="160" height="50" rx="10" fill="#F6F7FE"/>
<path d="M139.233 130.4V131.966H142.077V143H143.859V130.4H139.233ZM151.438 136.088C154.12 135.692 156.316 134.36 157.306 132.56C158.296 134.36 160.51 135.692 163.192 136.088L163.858 134.63C160.762 134.216 158.476 132.434 158.368 130.544H163.282V129.05H151.312V130.544H156.262C156.154 132.434 153.868 134.216 150.772 134.63L151.438 136.088ZM164.668 137.276H149.962V138.77H156.334V144.404H158.188V138.77H164.65L164.668 137.276ZM171.887 132.362H175.325V130.868H171.887V128.456H170.033V130.868H166.541V132.362H170.033V133.298C170.033 135.962 168.521 138.698 166.037 139.886L167.063 141.308C168.917 140.444 170.267 138.662 170.987 136.556C171.653 138.518 172.949 140.174 174.695 141.02L175.721 139.598C173.309 138.428 171.887 135.782 171.887 133.298V132.362ZM181.391 134.648H178.853V128.114H176.999V144.386H178.853V136.178H181.391V134.648Z" fill="#283895"/>
<rect x="80" y="180" width="160" height="50" rx="10" fill="#F6F7FE"/>
<path d="M140.51 211.434L144.362 207.726C146.072 206.088 146.432 204.99 146.432 203.766C146.432 201.606 144.74 200.256 142.112 200.256C140.15 200.256 138.476 200.958 137.504 202.164L138.728 203.226C139.502 202.29 140.6 201.858 141.95 201.858C143.714 201.858 144.632 202.65 144.632 203.946C144.632 204.738 144.38 205.53 143.048 206.826L137.918 211.776V213H146.972V211.434H140.51ZM153.275 206.088C155.957 205.692 158.153 204.36 159.143 202.56C160.133 204.36 162.347 205.692 165.029 206.088L165.695 204.63C162.599 204.216 160.313 202.434 160.205 200.544H165.119V199.05H153.149V200.544H158.099C157.991 202.434 155.705 204.216 152.609 204.63L153.275 206.088ZM166.505 207.276H151.799V208.77H158.171V214.404H160.025V208.77H166.487L166.505 207.276ZM173.723 202.362H177.161V200.868H173.723V198.456H171.869V200.868H168.377V202.362H171.869V203.298C171.869 205.962 170.357 208.698 167.873 209.886L168.899 211.308C170.753 210.444 172.103 208.662 172.823 206.556C173.489 208.518 174.785 210.174 176.531 211.02L177.557 209.598C175.145 208.428 173.723 205.782 173.723 203.298V202.362ZM183.227 204.648H180.689V198.114H178.835V214.386H180.689V206.178H183.227V204.648Z" fill="#283895"/>
<rect x="80" y="30" width="160" height="50" rx="10" fill="#F5F5F5"/>
<path d="M146.46 56.088C149.142 55.692 151.338 54.36 152.328 52.56C153.318 54.36 155.532 55.692 158.214 56.088L158.88 54.63C155.784 54.216 153.498 52.434 153.39 50.544H158.304V49.05H146.334V50.544H151.284C151.176 52.434 148.89 54.216 145.794 54.63L146.46 56.088ZM159.69 57.276H144.984V58.77H151.356V64.404H153.21V58.77H159.672L159.69 57.276ZM166.909 52.362H170.347V50.868H166.909V48.456H165.055V50.868H161.563V52.362H165.055V53.298C165.055 55.962 163.543 58.698 161.059 59.886L162.085 61.308C163.939 60.444 165.289 58.662 166.009 56.556C166.675 58.518 167.971 60.174 169.717 61.02L170.743 59.598C168.331 58.428 166.909 55.782 166.909 53.298V52.362ZM176.413 54.648H173.875V48.114H172.021V64.386H173.875V56.178H176.413V54.648Z" fill="#222222"/>
<rect x="300" y="180" width="160" height="50" rx="10" fill="#435CE7"/>
<path d="M353.864 201.282H357.302V199.752H348.464V201.282H352.01V202.848C352.01 205.548 350.354 208.626 347.87 209.814L348.932 211.29C350.804 210.372 352.244 208.428 352.964 206.16C353.702 208.212 355.088 210.012 356.906 210.876L357.932 209.418C355.466 208.248 353.864 205.368 353.864 202.848V201.282ZM363.296 204.54H360.758V198.132H358.904V214.386H360.758V206.07H363.296V204.54ZM370.262 208.14H373.592V210.948H370.262V208.14ZM375.428 210.948V208.14H377.822V206.646H368.084V204.396H377.462V199.266H366.23V200.76H375.626V202.92H366.266V208.14H368.426V210.948H364.484V212.478H379.208V210.948H375.428ZM382.215 206.25C384.141 205.818 385.491 204.846 386.193 203.55C386.913 204.72 388.227 205.62 390.081 206.016L390.819 204.576C388.479 204.09 387.111 202.812 387.093 201.336H390.495V199.878H387.093V198.168H385.221V199.878H381.837V201.336H385.239C385.221 202.902 383.835 204.306 381.459 204.828L382.215 206.25ZM391.341 206.682C387.849 207.168 383.817 207.204 380.793 207.204L381.027 208.734C382.305 208.734 383.727 208.716 385.239 208.662V213.918H387.093V208.554C388.533 208.482 390.027 208.302 391.449 208.05L391.341 206.682ZM392.385 198.132V214.404H394.239V198.132H392.385ZM406.714 199.68H402.844V197.988H400.99V199.68H397.12V201.174H406.714V199.68ZM399.748 204.63C399.748 203.712 400.612 203.154 401.908 203.154C403.204 203.154 404.086 203.712 404.086 204.63C404.086 205.566 403.204 206.124 401.908 206.124C400.612 206.124 399.748 205.566 399.748 204.63ZM405.85 204.63C405.85 202.92 404.266 201.768 401.908 201.768C399.568 201.768 397.966 202.92 397.966 204.63C397.966 206.358 399.568 207.51 401.908 207.51C404.266 207.51 405.85 206.358 405.85 204.63ZM407.956 212.712H401.242V211.218H407.956V212.712ZM407.956 209.778H401.242V208.284H399.406V214.188H409.792V208.284H407.956V209.778ZM412.096 202.182H409.792V198.132H407.938V207.618H409.792V203.712H412.096V202.182Z" fill="white"/>
<rect x="300" y="320" width="160" height="50" rx="10" fill="#435CE7"/>
<path d="M359.786 341.786V343.46H355.808V344.9H359.786V346.376H361.64V338.132H359.786V340.346H356.42C356.51 339.878 356.546 339.374 356.546 338.852H349.274V340.346H354.494C354.242 342.614 352.244 344.396 348.392 345.224L349.04 346.736C352.622 345.926 355.016 344.27 356.024 341.786H359.786ZM352.946 352.748V351.254H361.64V347.042H351.056V348.518H359.786V349.868H351.092V354.242H362.09V352.748H352.946ZM372.998 347.276C373.448 344.396 373.448 342.344 373.448 340.922V339.842H365.186V341.336H371.63C371.63 342.704 371.594 344.594 371.18 347.114L372.998 347.276ZM369.362 344.504H367.544V349.4C366.41 349.418 365.312 349.436 364.322 349.436L364.52 350.966C367.364 350.966 371.09 350.894 374.438 350.336L374.348 348.986C372.764 349.184 371.054 349.292 369.362 349.364V344.504ZM379.478 344.81H377.084V338.132H375.212V354.386H377.084V346.376H379.478V344.81ZM389.379 345.098C389.775 342.992 389.775 341.39 389.775 340.292V339.356H381.603V340.868H387.957C387.939 341.876 387.885 343.154 387.561 344.9L389.379 345.098ZM390.729 345.908C389.127 346.16 387.381 346.268 385.689 346.34V343.064H383.853V346.394C382.701 346.43 381.585 346.43 380.613 346.43L380.811 347.942C383.637 347.942 387.471 347.852 390.855 347.258L390.729 345.908ZM384.933 349.256H383.061V354.08H394.113V352.568H384.933V349.256ZM393.591 343.28V338.132H391.719V350.336H393.591V344.81H395.751V343.28H393.591ZM399.892 345.602H405.562V339.572H397.984V341.084H403.69V344.108H398.02V350.552H399.406C402.268 350.552 404.698 350.462 407.488 349.976L407.29 348.464C404.716 348.878 402.466 349.004 399.892 349.022V345.602ZM408.64 338.096V354.422H410.512V338.096H408.64Z" fill="white"/>
<rect x="300" y="469" width="160" height="50" rx="10" fill="#F6F7FE"/>
<path d="M359.786 490.786V492.46H355.808V493.9H359.786V495.376H361.64V487.132H359.786V489.346H356.42C356.51 488.878 356.546 488.374 356.546 487.852H349.274V489.346H354.494C354.242 491.614 352.244 493.396 348.392 494.224L349.04 495.736C352.622 494.926 355.016 493.27 356.024 490.786H359.786ZM352.946 501.748V500.254H361.64V496.042H351.056V497.518H359.786V498.868H351.092V503.242H362.09V501.748H352.946ZM372.998 496.276C373.448 493.396 373.448 491.344 373.448 489.922V488.842H365.186V490.336H371.63C371.63 491.704 371.594 493.594 371.18 496.114L372.998 496.276ZM369.362 493.504H367.544V498.4C366.41 498.418 365.312 498.436 364.322 498.436L364.52 499.966C367.364 499.966 371.09 499.894 374.438 499.336L374.348 497.986C372.764 498.184 371.054 498.292 369.362 498.364V493.504ZM379.478 493.81H377.084V487.132H375.212V503.386H377.084V495.376H379.478V493.81ZM389.379 494.098C389.775 491.992 389.775 490.39 389.775 489.292V488.356H381.603V489.868H387.957C387.939 490.876 387.885 492.154 387.561 493.9L389.379 494.098ZM390.729 494.908C389.127 495.16 387.381 495.268 385.689 495.34V492.064H383.853V495.394C382.701 495.43 381.585 495.43 380.613 495.43L380.811 496.942C383.637 496.942 387.471 496.852 390.855 496.258L390.729 494.908ZM384.933 498.256H383.061V503.08H394.113V501.568H384.933V498.256ZM393.591 492.28V487.132H391.719V499.336H393.591V493.81H395.751V492.28H393.591ZM399.892 494.602H405.562V488.572H397.984V490.084H403.69V493.108H398.02V499.552H399.406C402.268 499.552 404.698 499.462 407.488 498.976L407.29 497.464C404.716 497.878 402.466 498.004 399.892 498.022V494.602ZM408.64 487.096V503.422H410.512V487.096H408.64Z" fill="#283895"/>
<rect x="300" y="110" width="160" height="50" rx="10" fill="#7094F0"/>
<path d="M358.418 130.022H354.44V128.168H352.586V130.022H348.59V131.516H358.418V130.022ZM351.308 135.332C351.308 134.342 352.208 133.73 353.522 133.73C354.818 133.73 355.718 134.342 355.718 135.332C355.718 136.34 354.818 136.952 353.522 136.952C352.208 136.952 351.308 136.34 351.308 135.332ZM354.44 138.302C356.276 138.014 357.482 136.916 357.482 135.332C357.482 133.514 355.862 132.308 353.522 132.308C351.164 132.308 349.544 133.514 349.544 135.332C349.544 136.898 350.75 138.014 352.586 138.302V139.886C351.056 139.94 349.562 139.94 348.266 139.94L348.5 141.47C351.452 141.47 355.304 141.416 358.886 140.804L358.76 139.454C357.374 139.652 355.898 139.742 354.44 139.832V138.302ZM359.678 128.114V144.386H361.55V128.114H359.678ZM369.722 129.266C367.184 129.266 365.312 130.868 365.312 133.172C365.312 135.476 367.184 137.078 369.722 137.078C372.26 137.078 374.15 135.476 374.15 133.172C374.15 130.868 372.26 129.266 369.722 129.266ZM369.722 130.85C371.234 130.85 372.332 131.75 372.332 133.172C372.332 134.576 371.234 135.494 369.722 135.494C368.228 135.494 367.13 134.576 367.13 133.172C367.13 131.75 368.228 130.85 369.722 130.85ZM375.986 128.114V144.404H377.858V128.114H375.986ZM364.79 140.966C367.67 140.966 371.558 140.93 375.14 140.246L375.014 138.896C371.522 139.418 367.472 139.436 364.556 139.436L364.79 140.966ZM393.213 134.594C393.663 132.92 393.663 131.57 393.663 130.274V128.906H382.503V130.4H391.827C391.827 131.624 391.809 132.794 391.395 134.396L393.213 134.594ZM388.083 142.964C385.671 142.964 384.195 142.37 384.195 141.344C384.195 140.336 385.671 139.742 388.083 139.742C390.477 139.742 391.917 140.336 391.917 141.344C391.917 142.37 390.477 142.964 388.083 142.964ZM388.083 138.32C384.573 138.32 382.359 139.472 382.359 141.344C382.359 143.234 384.573 144.386 388.083 144.386C391.539 144.386 393.771 143.234 393.771 141.344C393.771 139.472 391.539 138.32 388.083 138.32ZM388.443 135.566V132.578H386.571V135.566H380.811V137.06H395.463V135.566H388.443ZM403.096 131.282H406.714V129.752H397.606V131.282H401.224V132.83C401.224 135.62 399.55 138.644 397.03 139.814L398.092 141.29C400 140.372 401.458 138.446 402.178 136.178C402.934 138.284 404.392 140.048 406.282 140.876L407.308 139.418C404.77 138.338 403.096 135.53 403.096 132.83V131.282ZM408.604 128.132V144.386H410.476V128.132H408.604Z" fill="white"/>
<rect x="300" y="30" width="160" height="50" rx="10" fill="#F5F5F5"/>
<path d="M355.52 49.986C357.806 49.986 359.3 50.652 359.3 51.804C359.3 52.956 357.806 53.622 355.52 53.622C353.216 53.622 351.722 52.956 351.722 51.804C351.722 50.652 353.216 49.986 355.52 49.986ZM355.52 55.116C358.994 55.116 361.28 53.838 361.28 51.804C361.28 49.77 358.994 48.492 355.52 48.492C352.028 48.492 349.76 49.77 349.76 51.804C349.76 53.838 352.028 55.116 355.52 55.116ZM351.848 59.274H349.976V64.08H361.28V62.568H351.848V59.274ZM348.158 56.214V57.726H354.71V60.804H356.6V57.726H362.9V56.214H348.158ZM366.464 52.974C366.464 51.552 367.508 50.616 368.948 50.616C370.352 50.616 371.396 51.552 371.396 52.974C371.396 54.378 370.352 55.314 368.948 55.314C367.508 55.314 366.464 54.378 366.464 52.974ZM376.094 51.876V54.072H372.998C373.106 53.73 373.16 53.37 373.16 52.974C373.16 52.578 373.106 52.218 373.016 51.876H376.094ZM376.094 55.566V57.708H377.948V48.114H376.094V50.364H372.17C371.414 49.554 370.28 49.05 368.948 49.05C366.518 49.05 364.7 50.67 364.7 52.974C364.7 55.26 366.518 56.88 368.948 56.88C370.262 56.88 371.414 56.394 372.17 55.566H376.094ZM372.53 62.928C370.226 62.928 368.876 62.334 368.876 61.218C368.876 60.138 370.226 59.526 372.53 59.526C374.852 59.526 376.184 60.138 376.184 61.218C376.184 62.334 374.852 62.928 372.53 62.928ZM372.53 58.068C369.146 58.068 367.058 59.238 367.058 61.218C367.058 63.216 369.146 64.386 372.53 64.386C375.914 64.386 378.02 63.216 378.02 61.218C378.02 59.238 375.914 58.068 372.53 58.068ZM391.845 54.378H384.411V52.308H391.845V54.378ZM393.699 48.762H391.845V50.814H384.411V48.762H382.557V55.872H393.699V48.762ZM395.517 57.636H380.775V59.13H387.165V64.404H389.019V59.13H395.517V57.636ZM402.988 49.446H401.116V52.128C401.116 55.17 399.532 58.302 396.994 59.544L398.164 61.02C400.018 60.066 401.35 58.176 402.07 55.872C402.772 58.05 404.086 59.832 405.922 60.75L407.02 59.256C404.536 58.104 402.988 55.152 402.988 52.128V49.446ZM408.73 48.096V53.442H405.256V54.954H408.73V64.404H410.602V48.096H408.73Z" fill="#222222"/>
<rect x="740" y="250" width="160" height="50" rx="10" fill="#435CE7"/>
<path d="M798.418 270.022H794.44V268.168H792.586V270.022H788.59V271.516H798.418V270.022ZM791.308 275.332C791.308 274.342 792.208 273.73 793.522 273.73C794.818 273.73 795.718 274.342 795.718 275.332C795.718 276.34 794.818 276.952 793.522 276.952C792.208 276.952 791.308 276.34 791.308 275.332ZM794.44 278.302C796.276 278.014 797.482 276.916 797.482 275.332C797.482 273.514 795.862 272.308 793.522 272.308C791.164 272.308 789.544 273.514 789.544 275.332C789.544 276.898 790.75 278.014 792.586 278.302V279.886C791.056 279.94 789.562 279.94 788.266 279.94L788.5 281.47C791.452 281.47 795.304 281.416 798.886 280.804L798.76 279.454C797.374 279.652 795.898 279.742 794.44 279.832V278.302ZM799.678 268.114V284.386H801.55V268.114H799.678ZM809.722 269.266C807.184 269.266 805.312 270.868 805.312 273.172C805.312 275.476 807.184 277.078 809.722 277.078C812.26 277.078 814.15 275.476 814.15 273.172C814.15 270.868 812.26 269.266 809.722 269.266ZM809.722 270.85C811.234 270.85 812.332 271.75 812.332 273.172C812.332 274.576 811.234 275.494 809.722 275.494C808.228 275.494 807.13 274.576 807.13 273.172C807.13 271.75 808.228 270.85 809.722 270.85ZM815.986 268.114V284.404H817.858V268.114H815.986ZM804.79 280.966C807.67 280.966 811.558 280.93 815.14 280.246L815.014 278.896C811.522 279.418 807.472 279.436 804.556 279.436L804.79 280.966ZM834.185 268.132H832.313V276.466H834.185V268.132ZM830.675 274.648C828.173 273.874 826.715 271.894 826.715 269.788V268.564H824.825V269.788C824.825 271.984 823.367 274.09 820.793 274.936L821.711 276.412C823.673 275.746 825.059 274.396 825.797 272.65C826.535 274.252 827.903 275.494 829.775 276.106L830.675 274.648ZM825.383 282.784V281.362H834.185V277.24H823.529V278.68H832.349V280.012H823.565V284.242H834.671V282.784H825.383ZM843.096 269.482H841.242V272.146C841.242 275.278 839.55 278.392 836.958 279.562L838.056 281.11C840.018 280.156 841.458 278.23 842.196 275.872C842.934 278.068 844.356 279.868 846.228 280.75L847.308 279.274C844.752 278.122 843.096 275.134 843.096 272.146V269.482ZM848.604 268.114V284.422H850.476V268.114H848.604Z" fill="white"/>
<path d="M815.109 383.789C818.361 382.632 821.913 382.632 825.165 383.789L900.034 410.426C904.466 412.003 904.465 418.271 900.034 419.848L823.489 447.082C821.321 447.853 818.953 447.853 816.785 447.082L740.24 419.848C735.808 418.271 735.808 412.003 740.24 410.426L815.109 383.789Z" fill="#283895"/>
<path d="M808.639 413.442H816.343V416.106H808.639V413.442ZM813.409 420.876V417.6H818.179V409.212H816.343V411.948H808.639V409.212H806.803V417.6H811.555V420.876H805.147V422.406H819.871V420.876H813.409ZM832.687 411.246C832.687 413.19 832.687 415.494 832.057 418.68L833.929 418.878C834.559 415.512 834.559 413.262 834.559 411.246V409.644H822.985V411.156H832.687V411.246ZM828.799 420.732V415.008H826.927V420.732H821.455V422.262H836.143V420.732H828.799Z" fill="white"/>
<rect x="740" y="30" width="160" height="50" rx="10" fill="#F5F5F5"/>
<path d="M789.904 55.26C787.402 54.468 785.944 52.47 785.944 50.328V48.762H784.054V50.328C784.054 52.542 782.596 54.684 780.04 55.548L780.94 57.006C782.884 56.34 784.288 54.954 785.026 53.208C785.746 54.846 787.132 56.088 789.004 56.7L789.904 55.26ZM784.594 59.688H791.596V62.712H784.594V59.688ZM782.776 64.188H793.414V58.212H782.776V64.188ZM791.56 48.15V57.366H793.414V48.15H791.56ZM801.568 49.266C799.03 49.266 797.158 50.868 797.158 53.172C797.158 55.476 799.03 57.078 801.568 57.078C804.106 57.078 805.996 55.476 805.996 53.172C805.996 50.868 804.106 49.266 801.568 49.266ZM801.568 50.85C803.08 50.85 804.178 51.75 804.178 53.172C804.178 54.576 803.08 55.494 801.568 55.494C800.074 55.494 798.976 54.576 798.976 53.172C798.976 51.75 800.074 50.85 801.568 50.85ZM807.832 48.114V64.404H809.704V48.114H807.832ZM796.636 60.966C799.516 60.966 803.404 60.93 806.986 60.246L806.86 58.896C803.368 59.418 799.318 59.436 796.402 59.436L796.636 60.966ZM817.931 50.364C819.353 50.364 820.343 51.102 820.343 52.236C820.343 53.388 819.353 54.126 817.931 54.126C816.527 54.126 815.519 53.388 815.519 52.236C815.519 51.102 816.527 50.364 817.931 50.364ZM817.931 55.656C820.361 55.656 822.125 54.252 822.125 52.236C822.125 50.238 820.361 48.834 817.931 48.834C815.501 48.834 813.737 50.238 813.737 52.236C813.737 54.252 815.501 55.656 817.931 55.656ZM823.169 56.268C819.659 56.79 815.573 56.844 812.639 56.844L812.855 58.374C814.115 58.374 815.555 58.356 817.085 58.302V63.9H818.939V58.194C820.379 58.086 821.873 57.924 823.295 57.636L823.169 56.268ZM824.231 48.132V64.404H826.085V48.132H824.231ZM837.371 57.672V58.968H840.557V60.48H842.411V48.114H840.557V57.672H837.371ZM834.131 50.112C835.463 50.112 836.381 50.688 836.381 51.606C836.381 52.524 835.463 53.1 834.131 53.1C832.781 53.1 831.863 52.524 831.863 51.606C831.863 50.688 832.781 50.112 834.131 50.112ZM834.131 54.468C836.507 54.468 838.145 53.334 838.145 51.606C838.145 49.878 836.507 48.744 834.131 48.744C831.737 48.744 830.099 49.878 830.099 51.606C830.099 53.334 831.737 54.468 834.131 54.468ZM833.393 59.958H835.247V56.826C836.633 56.736 838.055 56.592 839.423 56.358L839.279 55.026C835.841 55.458 831.845 55.494 828.857 55.512L829.091 57.024C830.387 57.024 831.845 57.006 833.393 56.934V59.958ZM832.907 62.568V59.274H831.053V64.08H842.789V62.568H832.907ZM855.498 50.022H851.52V48.168H849.666V50.022H845.67V51.516H855.498V50.022ZM848.388 55.332C848.388 54.342 849.288 53.73 850.602 53.73C851.898 53.73 852.798 54.342 852.798 55.332C852.798 56.34 851.898 56.952 850.602 56.952C849.288 56.952 848.388 56.34 848.388 55.332ZM851.52 58.302C853.356 58.014 854.562 56.916 854.562 55.332C854.562 53.514 852.942 52.308 850.602 52.308C848.244 52.308 846.624 53.514 846.624 55.332C846.624 56.898 847.83 58.014 849.666 58.302V59.886C848.136 59.94 846.642 59.94 845.346 59.94L845.58 61.47C848.532 61.47 852.384 61.416 855.966 60.804L855.84 59.454C854.454 59.652 852.978 59.742 851.52 59.832V58.302ZM856.758 48.114V64.386H858.63V48.114H856.758Z" fill="#222222"/>
<rect x="960" y="469" width="160" height="50" rx="10" fill="#F6F7FE"/>
<path d="M1019.79 490.786V492.46H1015.81V493.9H1019.79V495.376H1021.64V487.132H1019.79V489.346H1016.42C1016.51 488.878 1016.55 488.374 1016.55 487.852H1009.27V489.346H1014.49C1014.24 491.614 1012.24 493.396 1008.39 494.224L1009.04 495.736C1012.62 494.926 1015.02 493.27 1016.02 490.786H1019.79ZM1012.95 501.748V500.254H1021.64V496.042H1011.06V497.518H1019.79V498.868H1011.09V503.242H1022.09V501.748H1012.95ZM1033 496.276C1033.45 493.396 1033.45 491.344 1033.45 489.922V488.842H1025.19V490.336H1031.63C1031.63 491.704 1031.59 493.594 1031.18 496.114L1033 496.276ZM1029.36 493.504H1027.54V498.4C1026.41 498.418 1025.31 498.436 1024.32 498.436L1024.52 499.966C1027.36 499.966 1031.09 499.894 1034.44 499.336L1034.35 497.986C1032.76 498.184 1031.05 498.292 1029.36 498.364V493.504ZM1039.48 493.81H1037.08V487.132H1035.21V503.386H1037.08V495.376H1039.48V493.81ZM1049.38 494.098C1049.78 491.992 1049.78 490.39 1049.78 489.292V488.356H1041.6V489.868H1047.96C1047.94 490.876 1047.89 492.154 1047.56 493.9L1049.38 494.098ZM1050.73 494.908C1049.13 495.16 1047.38 495.268 1045.69 495.34V492.064H1043.85V495.394C1042.7 495.43 1041.59 495.43 1040.61 495.43L1040.81 496.942C1043.64 496.942 1047.47 496.852 1050.86 496.258L1050.73 494.908ZM1044.93 498.256H1043.06V503.08H1054.11V501.568H1044.93V498.256ZM1053.59 492.28V487.132H1051.72V499.336H1053.59V493.81H1055.75V492.28H1053.59ZM1059.89 494.602H1065.56V488.572H1057.98V490.084H1063.69V493.108H1058.02V499.552H1059.41C1062.27 499.552 1064.7 499.462 1067.49 498.976L1067.29 497.464C1064.72 497.878 1062.47 498.004 1059.89 498.022V494.602ZM1068.64 487.096V503.422H1070.51V487.096H1068.64Z" fill="#283895"/>
<rect x="960" y="30" width="160" height="50" rx="10" fill="#F5F5F5"/>
<path d="M1022.02 49.482H1020.16V52.146C1020.16 55.152 1018.58 58.23 1016.04 59.472L1017.18 60.966C1019.03 60.012 1020.4 58.122 1021.1 55.872C1021.8 57.996 1023.1 59.76 1024.84 60.66L1025.98 59.184C1023.53 57.978 1022.02 55.044 1022.02 52.146V49.482ZM1031.45 54.576H1028.91V48.132H1027.06V64.386H1028.91V56.106H1031.45V54.576ZM1043.69 53.928H1036.26V50.472H1043.69V53.928ZM1045.53 48.996H1034.42V55.422H1045.53V48.996ZM1047.36 57.42H1032.62V58.914H1039.01V64.386H1040.86V58.914H1047.36V57.42ZM1063.67 56.088V54.594H1061.48C1061.84 52.74 1061.84 51.336 1061.84 50.112V48.87H1050.78V50.364H1060.02C1060.02 51.534 1059.98 52.848 1059.62 54.594H1048.95V56.088H1055.36V58.752H1050.44V60.246H1060.05V64.386H1061.91V58.752H1057.23V56.088H1063.67Z" fill="#222222"/>
<path d="M601.005 205L601.005 160" stroke="#7094F0" stroke-linecap="round" stroke-linejoin="round" stroke-dasharray="2 4"/>
<path d="M601 206L472 206" stroke="#7094F0" stroke-linecap="round" stroke-linejoin="round" stroke-dasharray="2 4"/>
<path d="M471.067 205.2L476.4 201.2C477.059 200.706 478 201.176 478 202L478 210C478 210.824 477.059 211.294 476.4 210.8L471.067 206.8C470.533 206.4 470.533 205.6 471.067 205.2Z" fill="#7094F0"/>
<path d="M821.005 345L821.005 300" stroke="#7094F0" stroke-linecap="round" stroke-linejoin="round" stroke-dasharray="2 4"/>
<path d="M821 346L476 346" stroke="#7094F0" stroke-linecap="round" stroke-linejoin="round" stroke-dasharray="2 4"/>
<path d="M471.067 345.2L476.4 341.2C477.059 340.706 478 341.176 478 342L478 350C478 350.824 477.059 351.294 476.4 350.8L471.067 346.8C470.533 346.4 470.533 345.6 471.067 345.2Z" fill="#7094F0"/>
<path d="M821.005 494L821.005 449" stroke="#7094F0" stroke-linecap="round" stroke-linejoin="round" stroke-dasharray="2 4"/>
<path d="M947 495L476 495" stroke="#7094F0" stroke-linecap="round" stroke-linejoin="round" stroke-dasharray="2 4"/>
<path d="M471.067 494.2L476.4 490.2C477.059 489.706 478 490.176 478 491L478 499C478 499.824 477.059 500.294 476.4 499.8L471.067 495.8C470.533 495.4 470.533 494.6 471.067 494.2Z" fill="#7094F0"/>
<path d="M948.933 495.8L943.6 499.8C942.941 500.294 942 499.824 942 499L942 491C942 490.176 942.941 489.706 943.6 490.2L948.933 494.2C949.467 494.6 949.467 495.4 948.933 495.8Z" fill="#7094F0"/>
<path d="M838.892 474.128C837.762 474.128 836.743 473.883 835.836 473.392C834.93 472.891 834.215 472.203 833.692 471.328C833.18 470.453 832.924 469.477 832.924 468.4C832.924 467.323 833.18 466.347 833.692 465.472C834.215 464.597 834.93 463.915 835.836 463.424C836.743 462.923 837.762 462.672 838.892 462.672C840.012 462.672 841.026 462.923 841.932 463.424C842.839 463.915 843.548 464.597 844.06 465.472C844.572 466.336 844.828 467.312 844.828 468.4C844.828 469.488 844.572 470.469 844.06 471.344C843.548 472.208 842.839 472.891 841.932 473.392C841.026 473.883 840.012 474.128 838.892 474.128ZM838.892 472.704C839.714 472.704 840.45 472.517 841.1 472.144C841.762 471.771 842.279 471.259 842.652 470.608C843.036 469.947 843.228 469.211 843.228 468.4C843.228 467.589 843.036 466.859 842.652 466.208C842.279 465.547 841.762 465.029 841.1 464.656C840.45 464.283 839.714 464.096 838.892 464.096C838.071 464.096 837.324 464.283 836.652 464.656C835.991 465.029 835.468 465.547 835.084 466.208C834.711 466.859 834.524 467.589 834.524 468.4C834.524 469.211 834.711 469.947 835.084 470.608C835.468 471.259 835.991 471.771 836.652 472.144C837.324 472.517 838.071 472.704 838.892 472.704ZM850.672 469.024L848.624 471.104V474H847.024V462.8H848.624V469.056L854.704 462.8H856.528L851.744 467.84L856.832 474H854.96L850.672 469.024Z" fill="#7094F0"/>
<path d="M380 275L380 230" stroke="#7094F0" stroke-linecap="round" stroke-linejoin="round" stroke-dasharray="2 4"/>
<path d="M729 275L380 275" stroke="#7094F0" stroke-linecap="round" stroke-linejoin="round" stroke-dasharray="2 4"/>
<path d="M728.933 275.8L723.6 279.8C722.941 280.294 722 279.824 722 279L722 271C722 270.176 722.941 269.706 723.6 270.2L728.933 274.2C729.467 274.6 729.467 275.4 728.933 275.8Z" fill="#7094F0"/>
<path d="M380 415L380 370" stroke="#7094F0" stroke-linecap="round" stroke-linejoin="round" stroke-dasharray="2 4"/>
<path d="M729 415L380 415" stroke="#7094F0" stroke-linecap="round" stroke-linejoin="round" stroke-dasharray="2 4"/>
<path d="M728.933 415.8L723.6 419.8C722.941 420.294 722 419.824 722 419L722 411C722 410.176 722.941 409.706 723.6 410.2L728.933 414.2C729.467 414.6 729.467 415.4 728.933 415.8Z" fill="#7094F0"/>
<rect x="520" y="30" width="160" height="50" rx="10" fill="#F5F5F5"/>
<path d="M582.021 51.088C581.365 51.904 580.501 52.64 579.525 53.264C578.933 52.768 577.909 52.128 576.965 51.648C577.253 51.472 577.541 51.28 577.797 51.088H582.021ZM583.237 49.776L582.997 49.84H579.317C579.637 49.536 579.941 49.216 580.229 48.896L578.581 48.528C577.509 49.856 575.461 51.296 572.645 52.24C572.965 52.48 573.429 52.992 573.637 53.344C574.389 53.04 575.077 52.72 575.717 52.384C576.597 52.848 577.589 53.472 578.229 54.016C576.469 54.912 574.469 55.552 572.517 55.888C572.773 56.192 573.077 56.784 573.205 57.168C577.557 56.24 582.165 54.096 584.197 50.352L583.237 49.776ZM584.341 56.752C583.701 57.808 582.805 58.672 581.749 59.376C581.093 58.768 579.973 58.032 578.997 57.488C579.397 57.248 579.765 57.008 580.133 56.752H584.341ZM585.445 55.408L585.189 55.472H581.717C582.117 55.104 582.469 54.736 582.805 54.352L581.157 53.968C579.925 55.488 577.573 57.072 574.261 58.096C574.565 58.352 574.997 58.912 575.157 59.248C576.053 58.928 576.885 58.576 577.653 58.208C578.613 58.736 579.717 59.52 580.405 60.144C578.469 61.104 576.165 61.648 573.749 61.92C574.005 62.256 574.293 62.88 574.389 63.28C579.685 62.528 584.469 60.592 586.437 55.936L585.445 55.408ZM601.115 55.84H599.099C599.467 53.792 599.467 52.288 599.467 50.928V49.664H589.611V50.992H597.851C597.851 52.32 597.851 53.824 597.435 55.84H588.043V57.2H593.691V63.232H595.355V57.2H601.115V55.84ZM604.527 51.68H607.023V58.16H604.527V51.68ZM602.991 59.472H608.559V50.368H602.991V59.472ZM613.279 48.784V54.416H611.631V49.056H610.079V62.544H611.631V55.76H613.279V63.216H614.847V48.784H613.279ZM625.604 56.336H627.14V60.704C626.585 61.1627 625.94 61.5147 625.204 61.76C624.468 62.0053 623.7 62.128 622.9 62.128C621.769 62.128 620.751 61.8827 619.844 61.392C618.937 60.8907 618.223 60.208 617.7 59.344C617.188 58.4693 616.932 57.488 616.932 56.4C616.932 55.312 617.188 54.3307 617.7 53.456C618.223 52.5813 618.937 51.8987 619.844 51.408C620.761 50.9173 621.791 50.672 622.932 50.672C623.828 50.672 624.639 50.8213 625.364 51.12C626.1 51.408 626.724 51.8347 627.236 52.4L626.244 53.392C625.348 52.528 624.265 52.096 622.996 52.096C622.143 52.096 621.375 52.2827 620.692 52.656C620.02 53.0187 619.492 53.5307 619.108 54.192C618.724 54.8427 618.532 55.5787 618.532 56.4C618.532 57.2107 618.724 57.9467 619.108 58.608C619.492 59.2587 620.02 59.7707 620.692 60.144C621.375 60.5173 622.137 60.704 622.98 60.704C623.983 60.704 624.857 60.464 625.604 59.984V56.336Z" fill="#222222"/>
<rect x="520" y="110" width="160" height="50" rx="10" fill="#7094F0"/>
<path d="M573.864 131.282H577.302V129.752H568.464V131.282H572.01V132.848C572.01 135.548 570.354 138.626 567.87 139.814L568.932 141.29C570.804 140.372 572.244 138.428 572.964 136.16C573.702 138.212 575.088 140.012 576.906 140.876L577.932 139.418C575.466 138.248 573.864 135.368 573.864 132.848V131.282ZM583.296 134.54H580.758V128.132H578.904V144.386H580.758V136.07H583.296V134.54ZM590.262 138.14H593.592V140.948H590.262V138.14ZM595.428 140.948V138.14H597.822V136.646H588.084V134.396H597.462V129.266H586.23V130.76H595.626V132.92H586.266V138.14H588.426V140.948H584.484V142.478H599.208V140.948H595.428ZM610.351 135.854C607.867 135.026 606.499 133.028 606.499 130.976V130.688H609.901V129.176H601.171V130.688H604.627V130.976C604.627 133.208 603.205 135.278 600.631 136.142L601.603 137.6C603.511 136.934 604.861 135.602 605.581 133.892C606.283 135.44 607.579 136.682 609.397 137.276L610.351 135.854ZM602.791 140.21H611.629V144.386H613.483V138.716H602.791V140.21ZM615.787 132.272H613.483V128.114H611.629V137.924H613.483V133.802H615.787V132.272ZM628.712 137.708H630.566V128.114H628.712V131.372H625.418V132.884H628.712V137.708ZM626.75 135.602C624.284 134.792 622.934 132.758 622.934 130.508V128.996H621.062V130.598C621.062 132.974 619.64 135.17 617.03 136.052L618.002 137.546C619.964 136.844 621.332 135.422 622.052 133.622C622.754 135.206 624.014 136.43 625.76 137.06L626.75 135.602ZM625.148 142.928C622.844 142.928 621.53 142.334 621.53 141.272C621.53 140.21 622.844 139.616 625.148 139.616C627.452 139.616 628.784 140.21 628.784 141.272C628.784 142.334 627.452 142.928 625.148 142.928ZM625.148 138.158C621.764 138.158 619.676 139.31 619.676 141.272C619.676 143.234 621.764 144.386 625.148 144.386C628.55 144.386 630.638 143.234 630.638 141.272C630.638 139.31 628.55 138.158 625.148 138.158Z" fill="white"/>
</svg>
