<svg width="327" height="314" viewBox="0 0 327 314" fill="none" xmlns="http://www.w3.org/2000/svg">
<rect x="51" width="122" height="130" rx="7" fill="#F6F7FE"/>
<path d="M51 7C51 3.13401 54.134 0 58 0L166 0C169.866 0 173 3.13401 173 7V54L51 54L51 7Z" fill="#435CE7"/>
<path d="M68.272 95.194H66.466V91.106H68.272V95.194ZM69.196 96.132V90.196H66.55C66.83 89.188 67.054 88.11 67.222 86.99H69.686V86.052H64.478V86.99H66.214C65.85 89.426 65.262 91.694 64.198 93.164C64.394 93.374 64.73 93.836 64.842 94.06C65.108 93.696 65.332 93.29 65.556 92.856V97.308H66.466V96.132H69.196ZM73.872 93.724V92.086H75.692V93.724H73.872ZM71.226 92.086H72.962V93.724H71.184C71.212 93.304 71.226 92.884 71.226 92.506V92.086ZM73.984 87.326C73.732 87.844 73.41 88.404 73.13 88.838H71.086C71.408 88.362 71.716 87.858 71.982 87.326H73.984ZM73.872 89.72H75.692V91.246H73.872V89.72ZM71.226 89.72H72.962V91.246H71.226V89.72ZM76.672 88.838H74.166C74.586 88.236 75.034 87.494 75.328 86.85L74.656 86.402L74.516 86.444H72.402C72.528 86.15 72.64 85.842 72.752 85.534L71.786 85.282C71.24 86.92 70.302 88.516 69.21 89.552C69.448 89.692 69.812 90.056 69.98 90.238C70.078 90.14 70.162 90.042 70.26 89.93V92.506C70.26 94.06 70.106 96.048 68.762 97.434C68.972 97.56 69.364 97.91 69.504 98.106C70.442 97.14 70.876 95.866 71.072 94.62H75.692V96.874C75.692 97.07 75.622 97.126 75.426 97.14C75.23 97.14 74.544 97.14 73.83 97.112C73.984 97.378 74.124 97.826 74.152 98.092C75.132 98.092 75.776 98.078 76.168 97.91C76.56 97.756 76.672 97.448 76.672 96.874V88.838ZM81.392 85.324C80.594 87.438 79.25 89.51 77.864 90.84C78.046 91.078 78.34 91.624 78.452 91.848C78.956 91.33 79.474 90.728 79.95 90.056V98.036H80.944V88.53C81.49 87.62 81.966 86.626 82.372 85.618L81.392 85.324ZM83.814 86.878H89.008V89.44H83.814V86.878ZM90.814 93.052V92.1H86.894V90.364H90.044V85.94H82.834V90.364H85.858V92.1H81.798V93.052H85.256C84.318 94.536 82.834 95.922 81.392 96.636C81.63 96.832 81.938 97.21 82.12 97.462C83.478 96.678 84.878 95.278 85.858 93.738V98.078H86.894V93.696C87.832 95.222 89.176 96.678 90.436 97.49C90.618 97.224 90.954 96.846 91.178 96.664C89.834 95.936 88.42 94.522 87.496 93.052H90.814ZM95.044 85.324C94.26 87.438 92.972 89.538 91.6 90.868C91.782 91.12 92.076 91.652 92.188 91.89C92.664 91.4 93.14 90.826 93.574 90.196V98.05H94.596V88.628C95.142 87.662 95.632 86.64 96.024 85.632L95.044 85.324ZM98.026 94.494C97.438 95.572 96.472 96.664 95.52 97.392C95.758 97.518 96.164 97.854 96.346 98.036C97.284 97.238 98.32 96.02 99.02 94.802L98.026 94.494ZM101.19 94.998C102.114 95.922 103.15 97.224 103.612 98.092L104.494 97.518C104.004 96.692 102.968 95.446 102.002 94.536L101.19 94.998ZM98.754 89.272H101.484V92.688H98.754V89.272ZM102.492 92.688V89.272H104.48V88.264H102.492V85.436H101.484V88.264H98.754V85.45H97.746V88.264H95.94V89.272H97.746V92.688H95.604V93.71H104.648V92.688H102.492ZM118.146 88.068V87.074H113.47C113.288 86.584 112.91 85.786 112.56 85.184L111.552 85.436C111.818 85.94 112.112 86.584 112.294 87.074H106.736V90.882C106.736 92.856 106.638 95.614 105.574 97.602C105.798 97.7 106.288 97.994 106.456 98.176C107.59 96.09 107.772 92.982 107.772 90.882V88.068H118.146ZM113.876 93.864C113.666 92.562 113.148 90.616 112.672 89.118L111.734 89.37C112.196 90.882 112.7 92.856 112.896 94.144L113.876 93.864ZM111.188 94.536C110.894 93.248 110.222 91.302 109.606 89.79L108.71 90.154C109.284 91.652 109.956 93.64 110.222 94.928L111.188 94.536ZM114.548 96.426C115.822 94.27 116.858 91.736 117.53 89.426L116.438 89.034C115.892 91.428 114.828 94.27 113.484 96.426H107.954V97.42H118.328V96.426H114.548ZM129.068 87.074C128.816 87.522 128.494 88.026 128.172 88.418H125.05C125.484 87.998 125.876 87.536 126.212 87.074H129.068ZM124.714 89.3H130.118V90.462H124.896V91.274H130.118V92.492H124.518V93.36H131.056V88.418H129.236C129.67 87.858 130.09 87.2 130.398 86.612L129.754 86.192L129.6 86.234H126.758C126.912 85.954 127.066 85.674 127.192 85.394L126.226 85.226C125.778 86.248 124.91 87.48 123.65 88.404C123.86 88.53 124.154 88.852 124.294 89.062C124.434 88.95 124.574 88.852 124.714 88.726V89.3ZM129.194 95.306C128.886 94.83 128.242 94.102 127.724 93.584L126.996 93.99C127.514 94.536 128.144 95.292 128.438 95.768L129.194 95.306ZM124.14 92.786C123.902 92.422 122.88 91.022 122.516 90.574V90.252H124.112V89.272H122.516V86.78C123.09 86.626 123.636 86.444 124.084 86.234L123.44 85.394C122.558 85.828 121.032 86.234 119.73 86.486C119.842 86.724 119.982 87.074 120.038 87.312C120.514 87.228 121.032 87.13 121.536 87.018V89.272H119.576V90.252H121.382C120.906 91.834 120.052 93.64 119.268 94.634C119.45 94.9 119.716 95.348 119.814 95.642C120.444 94.802 121.046 93.514 121.536 92.17V98.092H122.516V91.82C122.88 92.464 123.314 93.248 123.482 93.654L124.14 92.786ZM123.986 97.392C124.42 96.636 124.854 95.502 125.19 94.732L124.378 94.368C124.084 95.124 123.608 96.244 123.146 96.93L123.986 97.392ZM127.192 97.014C126.66 97.014 126.576 96.958 126.576 96.636V94.368H125.624V96.636C125.624 97.588 125.918 97.854 127.094 97.854H129.068C130.006 97.854 130.286 97.476 130.384 95.964C130.118 95.894 129.74 95.768 129.53 95.614C129.488 96.846 129.404 97.014 128.97 97.014H127.192ZM130.048 94.522C130.538 95.376 131.084 96.566 131.308 97.28L132.162 96.944C131.938 96.244 131.378 95.11 130.86 94.256L130.048 94.522ZM134.712 87.872H144.246V89.916H145.31V86.892H140.018V85.296H138.94V86.892H133.69V89.916H134.712V87.872ZM140.018 93.822H144.162V92.856H140.018V90.532H143.588V89.552H135.482V90.532H138.954V96.398C137.806 95.964 136.91 95.166 136.378 93.696C136.518 93.108 136.63 92.492 136.714 91.834L135.65 91.736C135.342 94.242 134.586 96.23 133.032 97.434C133.284 97.588 133.718 97.952 133.886 98.134C134.796 97.336 135.482 96.3 135.972 95.012C137.246 97.378 139.332 97.882 142.23 97.882H145.478C145.52 97.574 145.702 97.084 145.87 96.832C145.198 96.846 142.79 96.846 142.286 96.846C141.474 96.846 140.704 96.804 140.018 96.678V93.822ZM147.496 91.792C147.86 90.77 148.126 89.188 148.196 88.04L147.412 87.928C147.314 89.062 147.062 90.588 146.684 91.512L147.496 91.792ZM148.7 98.064H149.736V85.282H148.7V98.064ZM149.834 87.858C150.226 88.628 150.646 89.636 150.8 90.238L151.584 89.86C151.416 89.272 150.982 88.278 150.562 87.522L149.834 87.858ZM155.98 96.594V93.094H158.836V92.128H155.98V89.23H159.144V88.236H155.98V85.338H154.944V88.236H153.194C153.39 87.55 153.558 86.822 153.698 86.094L152.69 85.926C152.368 87.83 151.808 89.706 150.996 90.924C151.248 91.036 151.71 91.26 151.92 91.4C152.298 90.798 152.62 90.07 152.9 89.23H154.944V92.128H151.976V93.094H154.944V96.594H150.94V97.588H159.48V96.594H155.98Z" fill="#666666"/>
<path d="M72.0501 22V12.2H76.4461C77.5754 12.2 78.4434 12.4287 79.0501 12.886C79.6567 13.334 79.9601 13.95 79.9601 14.734C79.9601 15.266 79.8387 15.714 79.5961 16.078C79.3627 16.442 79.0454 16.722 78.6441 16.918C78.2427 17.114 77.8087 17.212 77.3421 17.212L77.5941 16.792C78.1541 16.792 78.6487 16.89 79.0781 17.086C79.5074 17.282 79.8481 17.5713 80.1001 17.954C80.3521 18.3273 80.4781 18.794 80.4781 19.354C80.4781 20.194 80.1607 20.8473 79.5261 21.314C78.9007 21.7713 77.9674 22 76.7261 22H72.0501ZM73.4501 20.866H76.6701C77.4447 20.866 78.0374 20.7353 78.4481 20.474C78.8587 20.2127 79.0641 19.802 79.0641 19.242C79.0641 18.6727 78.8587 18.2573 78.4481 17.996C78.0374 17.7347 77.4447 17.604 76.6701 17.604H73.3241V16.47H76.3201C77.0294 16.47 77.5801 16.3393 77.9721 16.078C78.3641 15.8167 78.5601 15.4247 78.5601 14.902C78.5601 14.3793 78.3641 13.9873 77.9721 13.726C77.5801 13.4647 77.0294 13.334 76.3201 13.334H73.4501V20.866ZM85.3778 22.084C84.6311 22.084 83.9684 21.9207 83.3898 21.594C82.8111 21.2673 82.3538 20.8193 82.0178 20.25C81.6818 19.6713 81.5138 19.018 81.5138 18.29C81.5138 17.5527 81.6818 16.8993 82.0178 16.33C82.3538 15.7607 82.8111 15.3173 83.3898 15C83.9684 14.6733 84.6311 14.51 85.3778 14.51C86.1151 14.51 86.7731 14.6733 87.3518 15C87.9398 15.3173 88.3971 15.7607 88.7238 16.33C89.0598 16.89 89.2278 17.5433 89.2278 18.29C89.2278 19.0273 89.0598 19.6807 88.7238 20.25C88.3971 20.8193 87.9398 21.2673 87.3518 21.594C86.7731 21.9207 86.1151 22.084 85.3778 22.084ZM85.3778 20.908C85.8538 20.908 86.2784 20.8007 86.6518 20.586C87.0344 20.3713 87.3331 20.068 87.5478 19.676C87.7624 19.2747 87.8698 18.8127 87.8698 18.29C87.8698 17.758 87.7624 17.3007 87.5478 16.918C87.3331 16.526 87.0344 16.2227 86.6518 16.008C86.2784 15.7933 85.8538 15.686 85.3778 15.686C84.9018 15.686 84.4771 15.7933 84.1038 16.008C83.7304 16.2227 83.4318 16.526 83.2078 16.918C82.9838 17.3007 82.8718 17.758 82.8718 18.29C82.8718 18.8127 82.9838 19.2747 83.2078 19.676C83.4318 20.068 83.7304 20.3713 84.1038 20.586C84.4771 20.8007 84.9018 20.908 85.3778 20.908ZM93.3845 22.084C92.6378 22.084 92.0592 21.8833 91.6485 21.482C91.2378 21.0807 91.0325 20.5067 91.0325 19.76V12.956H92.3765V19.704C92.3765 20.1053 92.4745 20.4133 92.6705 20.628C92.8758 20.8427 93.1652 20.95 93.5385 20.95C93.9585 20.95 94.3085 20.8333 94.5885 20.6L95.0085 21.566C94.8032 21.7433 94.5558 21.874 94.2665 21.958C93.9865 22.042 93.6925 22.084 93.3845 22.084ZM89.7725 15.686V14.58H94.5045V15.686H89.7725ZM98.7536 22.084C98.007 22.084 97.4283 21.8833 97.0176 21.482C96.607 21.0807 96.4016 20.5067 96.4016 19.76V12.956H97.7456V19.704C97.7456 20.1053 97.8436 20.4133 98.0396 20.628C98.245 20.8427 98.5343 20.95 98.9076 20.95C99.3276 20.95 99.6776 20.8333 99.9576 20.6L100.378 21.566C100.172 21.7433 99.925 21.874 99.6356 21.958C99.3556 22.042 99.0616 22.084 98.7536 22.084ZM95.1416 15.686V14.58H99.8736V15.686H95.1416ZM101.753 22V11.612H103.097V22H101.753ZM108.717 22.084C107.923 22.084 107.223 21.9207 106.617 21.594C106.019 21.2673 105.553 20.8193 105.217 20.25C104.89 19.6807 104.727 19.0273 104.727 18.29C104.727 17.5527 104.885 16.8993 105.203 16.33C105.529 15.7607 105.973 15.3173 106.533 15C107.102 14.6733 107.741 14.51 108.451 14.51C109.169 14.51 109.804 14.6687 110.355 14.986C110.905 15.3033 111.335 15.7513 111.643 16.33C111.96 16.8993 112.119 17.5667 112.119 18.332C112.119 18.388 112.114 18.4533 112.105 18.528C112.105 18.6027 112.1 18.6727 112.091 18.738H105.777V17.772H111.391L110.845 18.108C110.854 17.632 110.756 17.2073 110.551 16.834C110.345 16.4607 110.061 16.1713 109.697 15.966C109.342 15.7513 108.927 15.644 108.451 15.644C107.984 15.644 107.569 15.7513 107.205 15.966C106.841 16.1713 106.556 16.4653 106.351 16.848C106.145 17.2213 106.043 17.6507 106.043 18.136V18.36C106.043 18.8547 106.155 19.298 106.379 19.69C106.612 20.0727 106.934 20.3713 107.345 20.586C107.755 20.8007 108.227 20.908 108.759 20.908C109.197 20.908 109.594 20.8333 109.949 20.684C110.313 20.5347 110.63 20.3107 110.901 20.012L111.643 20.88C111.307 21.272 110.887 21.5707 110.383 21.776C109.888 21.9813 109.333 22.084 108.717 22.084ZM113.396 18.738V17.576H117.162V18.738H113.396ZM119.177 22V12.2H120.325L126.807 20.25H126.205V12.2H127.605V22H126.457L119.975 13.95H120.577V22H119.177ZM133.396 22.084C132.603 22.084 131.903 21.9207 131.296 21.594C130.699 21.2673 130.232 20.8193 129.896 20.25C129.57 19.6807 129.406 19.0273 129.406 18.29C129.406 17.5527 129.565 16.8993 129.882 16.33C130.209 15.7607 130.652 15.3173 131.212 15C131.782 14.6733 132.421 14.51 133.13 14.51C133.849 14.51 134.484 14.6687 135.034 14.986C135.585 15.3033 136.014 15.7513 136.322 16.33C136.64 16.8993 136.798 17.5667 136.798 18.332C136.798 18.388 136.794 18.4533 136.784 18.528C136.784 18.6027 136.78 18.6727 136.77 18.738H130.456V17.772H136.07L135.524 18.108C135.534 17.632 135.436 17.2073 135.23 16.834C135.025 16.4607 134.74 16.1713 134.376 15.966C134.022 15.7513 133.606 15.644 133.13 15.644C132.664 15.644 132.248 15.7513 131.884 15.966C131.52 16.1713 131.236 16.4653 131.03 16.848C130.825 17.2213 130.722 17.6507 130.722 18.136V18.36C130.722 18.8547 130.834 19.298 131.058 19.69C131.292 20.0727 131.614 20.3713 132.024 20.586C132.435 20.8007 132.906 20.908 133.438 20.908C133.877 20.908 134.274 20.8333 134.628 20.684C134.992 20.5347 135.31 20.3107 135.58 20.012L136.322 20.88C135.986 21.272 135.566 21.5707 135.062 21.776C134.568 21.9813 134.012 22.084 133.396 22.084ZM141.649 22.084C140.893 22.084 140.216 21.9207 139.619 21.594C139.031 21.2673 138.569 20.8193 138.233 20.25C137.897 19.6807 137.729 19.0273 137.729 18.29C137.729 17.5527 137.897 16.8993 138.233 16.33C138.569 15.7607 139.031 15.3173 139.619 15C140.216 14.6733 140.893 14.51 141.649 14.51C142.321 14.51 142.918 14.6453 143.441 14.916C143.973 15.1773 144.383 15.5693 144.673 16.092L143.651 16.75C143.408 16.386 143.109 16.12 142.755 15.952C142.409 15.7747 142.036 15.686 141.635 15.686C141.149 15.686 140.715 15.7933 140.333 16.008C139.95 16.2227 139.647 16.526 139.423 16.918C139.199 17.3007 139.087 17.758 139.087 18.29C139.087 18.822 139.199 19.284 139.423 19.676C139.647 20.068 139.95 20.3713 140.333 20.586C140.715 20.8007 141.149 20.908 141.635 20.908C142.036 20.908 142.409 20.824 142.755 20.656C143.109 20.4787 143.408 20.208 143.651 19.844L144.673 20.488C144.383 21.0013 143.973 21.398 143.441 21.678C142.918 21.9487 142.321 22.084 141.649 22.084ZM147.159 20.208L147.187 18.486L151.457 14.58H153.081L149.805 17.8L149.077 18.416L147.159 20.208ZM146.067 22V11.612H147.411V22H146.067ZM151.737 22L148.825 18.388L149.693 17.31L153.389 22H151.737ZM96.7164 44.786L97.7244 44.338C96.5204 42.336 95.9604 39.97 95.9604 37.618C95.9604 35.28 96.5204 32.914 97.7244 30.898L96.7164 30.464C95.4144 32.578 94.6444 34.86 94.6444 37.618C94.6444 40.404 95.4144 42.658 96.7164 44.786ZM103.515 30.268C103.333 30.996 102.941 32.046 102.633 32.69L103.585 32.998C103.935 32.396 104.383 31.43 104.761 30.576L103.515 30.268ZM101.345 32.634C101.233 31.976 100.869 31.024 100.477 30.31L99.455 30.618C99.833 31.36 100.169 32.354 100.295 32.998L101.345 32.634ZM101.233 36.68V34.174H102.703V36.68H101.233ZM105.237 37.856V36.68H103.865V34.174H105.083V33.012H98.937V34.174H100.071V36.68H98.685V37.856H100.043C99.973 39.438 99.693 41.02 98.629 42.364C98.923 42.532 99.371 42.91 99.581 43.148C100.813 41.608 101.135 39.718 101.219 37.856H102.703V43.078H103.865V37.856H105.237ZM107.183 33.936C107.225 33.32 107.253 32.718 107.281 32.144H111.355V30.968H104.943V32.144H106.105C105.993 35.182 105.713 39.018 105.433 41.482C105.083 41.538 104.747 41.58 104.453 41.622L104.789 42.784C106.063 42.546 107.729 42.224 109.311 41.916L109.241 40.866C108.373 41.02 107.477 41.16 106.665 41.3C106.833 39.606 106.987 37.31 107.127 35.056H109.213C109.241 39.41 109.339 43.106 110.837 43.106C111.635 43.106 111.845 42.378 111.929 40.544C111.705 40.376 111.411 40.096 111.187 39.816C111.173 41.048 111.117 41.888 110.949 41.888C110.347 41.888 110.347 37.772 110.361 33.936H107.183ZM109.017 39.368C108.877 38.528 108.429 37.254 107.939 36.274L107.099 36.526C107.547 37.492 107.995 38.808 108.121 39.648L109.017 39.368ZM118.945 33.306V39.844H120.149V34.468H123.565V39.802H124.825V33.306H122.039C122.207 32.928 122.389 32.48 122.585 32.046H125.245V30.856H118.469V32.046H121.185C121.059 32.466 120.919 32.914 120.779 33.306H118.945ZM118.623 35.28C118.147 34.888 117.279 34.314 116.495 33.866C117.153 33.11 117.699 32.284 118.091 31.346L117.223 30.898L116.985 30.954H112.911V32.13H116.271C115.361 33.53 113.849 34.79 112.365 35.49C112.631 35.714 113.023 36.162 113.219 36.442C114.059 35.98 114.899 35.406 115.669 34.706C116.467 35.196 117.321 35.798 117.783 36.232L118.623 35.28ZM118.343 40.222C117.657 40.376 116.957 40.53 116.271 40.67V38.15H118.189V37.002H112.939V38.15H115.011V40.936C114.101 41.132 113.289 41.286 112.645 41.412L112.953 42.63C114.465 42.28 116.537 41.79 118.455 41.3L118.343 40.222ZM122.487 35.224H121.255V37.926C121.255 39.312 121.003 41.146 117.965 42.238C118.231 42.476 118.609 42.882 118.763 43.162C121.927 41.818 122.487 39.69 122.487 37.94V35.224ZM122.081 40.768C122.949 41.468 124.055 42.49 124.559 43.134L125.399 42.224C124.867 41.594 123.733 40.642 122.851 39.97L122.081 40.768ZM127.277 44.786C128.593 42.658 129.363 40.404 129.363 37.618C129.363 34.86 128.593 32.578 127.277 30.464L126.269 30.898C127.473 32.914 128.033 35.28 128.033 37.618C128.033 39.97 127.473 42.336 126.269 44.338L127.277 44.786Z" fill="white"/>
<rect x="51" y="140" width="122" height="130" rx="7" fill="#F6F7FE"/>
<path d="M51 147C51 143.134 54.134 140 58 140L166 140C169.866 140 173 143.134 173 147V194L51 194L51 147Z" fill="#435CE7"/>
<path d="M81.657 215.324C80.019 215.8 76.981 216.164 74.321 216.346L73.691 216.192C73.145 217.648 72.207 219.104 71.157 220.028C71.409 220.182 71.857 220.504 72.039 220.686C72.935 219.832 73.775 218.572 74.391 217.228C77.205 217.046 80.439 216.71 82.581 216.108L81.657 215.324ZM80.383 217.074C81.349 218.138 82.441 219.622 82.917 220.532L83.855 220.014C83.351 219.076 82.217 217.648 81.251 216.626L80.383 217.074ZM78.465 219.776C78.255 219.104 77.737 218.026 77.247 217.228L76.309 217.536C76.771 218.334 77.275 219.454 77.457 220.126L78.465 219.776ZM83.827 222.94V221.932H78.115V220.462H77.051V221.932H71.465V222.94H76.099C74.867 224.522 72.921 226.048 71.185 226.832C71.437 227.042 71.787 227.448 71.941 227.714C73.733 226.776 75.721 225.124 77.051 223.318V228.036H78.115V223.29C79.431 225.096 81.433 226.776 83.295 227.7C83.463 227.406 83.813 227 84.079 226.776C82.259 226.006 80.285 224.522 79.053 222.94H83.827ZM86.363 217.06H89.289V224.494H90.143V216.122H85.537V224.536H86.363V217.06ZM88.281 218.166H87.427V221.806C87.427 223.542 87.273 225.978 84.949 227.392C85.145 227.56 85.411 227.84 85.537 228.036C87.973 226.384 88.281 223.78 88.281 221.806V218.166ZM88.043 225.362C88.729 226.104 89.555 227.168 89.947 227.826L90.675 227.252C90.283 226.622 89.429 225.586 88.757 224.858L88.043 225.362ZM95.673 224.774C95.477 223.948 94.973 222.506 94.483 221.414L93.741 221.638C93.979 222.184 94.203 222.814 94.413 223.416L92.131 223.864C92.663 222.688 93.181 221.204 93.545 219.804L92.579 219.524C92.299 221.134 91.655 222.884 91.445 223.332C91.235 223.808 91.067 224.116 90.857 224.172C90.983 224.424 91.109 224.872 91.165 225.082C91.431 224.928 91.837 224.802 94.665 224.214C94.763 224.55 94.819 224.844 94.875 225.096L95.673 224.774ZM92.705 217.494C92.943 216.85 93.167 216.178 93.349 215.506L92.355 215.282C91.907 217.074 91.151 218.838 90.213 219.986C90.451 220.112 90.857 220.448 91.039 220.616C91.487 220.028 91.921 219.272 92.313 218.446H96.359C96.191 224.242 96.009 226.37 95.617 226.832C95.463 227.028 95.337 227.07 95.099 227.07C94.805 227.07 94.147 227.07 93.405 227C93.587 227.294 93.699 227.728 93.713 228.036C94.399 228.078 95.085 228.092 95.491 228.05C95.939 227.98 96.219 227.868 96.513 227.476C97.017 226.804 97.171 224.634 97.367 218.026C97.381 217.9 97.381 217.494 97.381 217.494H92.705ZM110.039 218.516C109.493 220.056 108.485 222.072 107.715 223.332L108.569 223.794C109.367 222.506 110.305 220.574 110.977 218.978L110.039 218.516ZM102.255 223.29C101.877 222.072 101.023 220.028 100.281 218.474L99.315 218.768C100.043 220.35 100.883 222.45 101.219 223.682L102.255 223.29ZM107.351 226.314V215.478H106.315V226.314H103.949V215.464H102.913V226.314H99.021V227.336H111.257V226.314H107.351ZM118.931 223.052C119.029 222.66 119.127 222.212 119.197 221.75L118.119 221.666C118.063 222.17 117.965 222.632 117.853 223.052H113.681V223.962H117.531C116.733 225.754 115.179 226.692 112.715 227.168C112.911 227.378 113.177 227.812 113.289 228.05C116.033 227.392 117.755 226.216 118.637 223.962H122.879C122.641 225.796 122.361 226.65 122.039 226.916C121.885 227.028 121.717 227.042 121.437 227.042C121.087 227.042 120.205 227.028 119.323 226.944C119.505 227.21 119.631 227.588 119.645 227.868C120.471 227.924 121.311 227.924 121.717 227.91C122.235 227.882 122.543 227.812 122.851 227.532C123.327 227.098 123.649 226.048 123.943 223.514C123.985 223.374 123.999 223.052 123.999 223.052H118.931ZM116.621 217.62H122.277C121.451 218.446 120.303 219.118 118.987 219.65C117.909 219.188 117.027 218.586 116.411 217.816L116.621 217.62ZM123.257 216.668L123.075 216.724H117.433C117.769 216.318 118.063 215.898 118.329 215.492L117.237 215.268C116.523 216.486 115.137 217.928 113.177 218.922C113.401 219.09 113.681 219.454 113.821 219.692C114.535 219.286 115.179 218.866 115.739 218.404C116.313 219.062 117.013 219.608 117.825 220.056C116.173 220.588 114.339 220.924 112.561 221.092C112.729 221.33 112.911 221.736 112.981 222.002C115.011 221.75 117.111 221.33 118.973 220.602C120.597 221.274 122.543 221.652 124.685 221.834C124.811 221.54 125.049 221.134 125.259 220.896C123.397 220.784 121.661 220.532 120.205 220.084C121.745 219.328 123.047 218.362 123.887 217.102L123.257 216.668ZM135.327 219.748C136.279 220.84 137.287 222.156 137.777 222.996L138.687 222.436C138.071 221.442 136.755 219.874 135.677 218.74L135.327 218.922V215.31H134.235V225.544H135.327V219.748ZM131.603 218.46C131.337 220.42 130.861 222.016 130.189 223.332C129.629 222.38 129.153 221.176 128.803 219.636C128.943 219.258 129.069 218.852 129.181 218.46H131.603ZM132.079 217.452L131.883 217.494H129.433C129.587 216.878 129.727 216.248 129.825 215.618L128.747 215.338C128.369 218.068 127.515 220.7 126.409 222.156C126.675 222.282 127.053 222.562 127.249 222.73C127.613 222.24 127.949 221.666 128.257 221.008C128.621 222.338 129.097 223.416 129.629 224.27C128.719 225.642 127.557 226.608 126.171 227.28C126.423 227.434 126.829 227.854 127.011 228.078C128.285 227.42 129.391 226.482 130.301 225.194C131.981 227.21 134.235 227.644 136.615 227.644H138.659C138.715 227.35 138.911 226.832 139.079 226.566C138.533 226.58 137.091 226.58 136.671 226.58C134.529 226.58 132.443 226.202 130.861 224.284C131.799 222.604 132.457 220.434 132.765 217.662L132.079 217.452ZM144.317 224.186L142.791 224.69V221.232H144.205V220.252H142.791V217.214H144.401V216.234H140.061V217.214H141.797V220.252H140.201V221.232H141.797V224.998C141.083 225.236 140.439 225.432 139.921 225.586L140.159 226.636C141.405 226.23 143.001 225.684 144.499 225.18L144.317 224.186ZM146.039 219.454H148.167V221.246H146.039V219.454ZM146.039 216.836H148.167V218.6H146.039V216.836ZM151.205 218.6H149.063V216.836H151.205V218.6ZM151.205 221.246H149.063V219.454H151.205V221.246ZM149.147 226.664V224.746H152.409V223.794H149.147V222.156H152.199V215.926H145.087V222.156H148.097V223.794H144.919V224.746H148.097V226.664H143.841V227.616H152.857V226.664H149.147ZM75.6248 237.172H72.6008V235.338H71.5928V237.172H68.6668V238.124H75.6248V237.172ZM75.1768 240.714C74.8968 240.112 74.2248 239.216 73.6228 238.572L72.8388 239.006C73.4268 239.678 74.0708 240.602 74.3508 241.218L75.1768 240.714ZM70.3608 238.586C69.9408 239.594 69.2828 240.616 68.5408 241.316C68.7788 241.456 69.1708 241.75 69.3528 241.918C70.0948 241.148 70.8508 239.986 71.3268 238.838L70.3608 238.586ZM74.6588 246.006C74.2808 245.39 73.6648 244.648 72.9648 243.906C73.3708 243.108 73.7068 242.254 73.9868 241.33L72.9648 241.092C72.7548 241.806 72.5028 242.492 72.1948 243.136C71.6488 242.59 71.0608 242.072 70.5148 241.61L69.7588 242.212C70.3888 242.758 71.0748 243.402 71.7048 244.06C70.9208 245.39 69.8848 246.496 68.6528 247.28C68.8908 247.476 69.2688 247.882 69.4228 248.078C70.5988 247.238 71.6068 246.16 72.4188 244.844C73.0068 245.516 73.5108 246.174 73.8328 246.706L74.6588 246.006ZM77.0948 238.852H79.4748C79.2228 240.602 78.8448 242.1 78.2428 243.346C77.6968 242.058 77.3048 240.574 77.0528 238.992L77.0948 238.852ZM81.4068 238.852V237.872H77.3748C77.5848 237.088 77.7528 236.276 77.9068 235.436L76.8848 235.282C76.4928 237.718 75.8068 240.084 74.6868 241.596C74.9388 241.75 75.3448 242.114 75.5128 242.31C75.8488 241.82 76.1568 241.26 76.4368 240.644C76.7448 242.03 77.1368 243.29 77.6548 244.396C76.8568 245.6 75.7928 246.524 74.3368 247.21C74.5328 247.406 74.8268 247.868 74.9388 248.092C76.3108 247.392 77.3608 246.496 78.1868 245.39C78.8588 246.524 79.6988 247.448 80.7628 248.078C80.9028 247.812 81.2248 247.42 81.4768 247.224C80.3568 246.622 79.4748 245.67 78.7888 244.452C79.6428 242.954 80.1748 241.12 80.5108 238.852H81.4068ZM94.9888 242.954C94.2608 242.38 92.8608 241.554 91.7968 241.036L91.0688 241.624C92.1608 242.184 93.5468 243.024 94.2188 243.612L94.9888 242.954ZM93.4908 238.194C92.9588 238.74 92.0208 239.496 91.3348 239.958L92.0768 240.406C92.7908 239.958 93.7008 239.314 94.4008 238.67L93.4908 238.194ZM86.4348 239.02L85.9168 239.636C86.5888 240.07 87.4008 240.658 87.9468 241.134C87.5548 241.554 87.1628 241.946 86.7988 242.296C86.4208 242.31 86.0568 242.324 85.7488 242.338L85.8888 243.22C87.2328 243.122 89.0108 243.01 90.7888 242.884C90.9568 243.164 91.0968 243.444 91.1948 243.668L91.9928 243.248C91.6848 242.534 90.9148 241.498 90.2288 240.728L89.4728 241.064C89.7528 241.386 90.0328 241.75 90.2988 242.128L87.8908 242.254C88.8988 241.288 89.9908 240.07 90.8168 239.034L89.9908 238.642C89.5988 239.202 89.0808 239.846 88.5208 240.49C88.2268 240.238 87.8488 239.958 87.4568 239.678C87.9048 239.188 88.4228 238.544 88.8568 237.942L88.4928 237.802H94.5828V236.864H89.2348V235.296H88.1988V236.864H82.9768V237.802H87.8348C87.5688 238.25 87.1908 238.81 86.8268 239.272L86.4348 239.02ZM85.9168 239.888C85.4408 239.44 84.4608 238.796 83.6908 238.39L82.9908 238.964C83.7748 239.412 84.7408 240.07 85.1888 240.518L85.9168 239.888ZM86.0148 241.19C84.7128 241.736 83.3968 242.296 82.5008 242.618L83.0188 243.458C83.9568 243.052 85.1048 242.492 86.2108 241.974L86.0148 241.19ZM89.2348 243.22H88.1988V244.298H82.5568V245.264H88.1988V248.106H89.2348V245.264H94.9748V244.298H89.2348V243.22ZM99.9188 235.506C98.9948 237.704 97.4548 239.818 95.8588 241.148C96.0548 241.4 96.3768 241.946 96.4888 242.198C97.1048 241.638 97.7208 240.966 98.3088 240.224V248.036H99.3588V238.754C99.9608 237.83 100.493 236.836 100.913 235.842L99.9188 235.506ZM104.399 246.748C103.671 246.748 103.545 246.594 103.545 245.866V241.932C105.295 240.784 107.017 239.426 108.291 238.152L107.325 237.634C106.415 238.656 105.015 239.762 103.545 240.742V235.464H102.495V241.4C101.851 241.792 101.207 242.142 100.591 242.45C100.773 242.66 101.039 243.08 101.179 243.318C101.613 243.094 102.047 242.842 102.495 242.576V245.838C102.495 247.336 102.915 247.742 104.315 247.742H107.045C108.361 247.742 108.683 247.042 108.823 245.026C108.515 244.942 108.095 244.76 107.843 244.564C107.745 246.314 107.647 246.748 106.975 246.748H104.399ZM109.413 249.506H110.351L114.537 235.898H113.613L109.413 249.506ZM117.851 246.328V244.256H125.313V246.328H117.851ZM125.313 241.246V243.276H117.851V241.246H125.313ZM125.313 238.18V240.266H117.851V238.18H125.313ZM121.365 237.186C121.603 236.654 121.855 236.024 122.065 235.422L120.875 235.268C120.763 235.814 120.539 236.57 120.329 237.186H116.815V248.092H117.851V247.308H125.313V248.022H126.391V237.186H121.365ZM134.919 236.43H129.543V237.368H134.919V236.43ZM135.409 245.768C135.143 244.788 134.527 243.15 133.981 241.904L133.127 242.142C133.407 242.8 133.687 243.556 133.939 244.27L130.621 244.97C131.167 243.71 131.685 242.17 132.049 240.7H135.157V239.748H129.039V240.7H130.971C130.621 242.324 130.033 243.962 129.837 244.424C129.613 244.942 129.431 245.32 129.207 245.376C129.319 245.642 129.487 246.132 129.529 246.342C129.529 246.328 129.529 246.314 129.543 246.3V246.356C129.865 246.16 130.369 246.006 134.233 245.152C134.331 245.488 134.415 245.81 134.485 246.062L135.409 245.768ZM138.349 238.502C138.377 237.522 138.391 236.514 138.391 235.52H137.369C137.369 236.514 137.369 237.522 137.327 238.502H135.339V239.496H137.285C137.117 242.674 136.557 245.572 134.667 247.308C134.933 247.462 135.297 247.812 135.479 248.064C137.523 246.104 138.111 242.94 138.307 239.496H140.393C140.239 244.452 140.043 246.286 139.679 246.692C139.539 246.874 139.385 246.916 139.147 246.902C138.839 246.902 138.111 246.902 137.327 246.832C137.509 247.126 137.621 247.546 137.649 247.854C138.391 247.896 139.147 247.91 139.581 247.868C140.029 247.812 140.295 247.7 140.589 247.336C141.065 246.72 141.233 244.746 141.415 239.02C141.415 238.88 141.429 238.502 141.429 238.502H138.349ZM146.401 235.506C145.477 237.704 143.937 239.818 142.341 241.148C142.537 241.4 142.859 241.946 142.971 242.198C143.587 241.638 144.203 240.966 144.791 240.224V248.036H145.841V238.754C146.443 237.83 146.975 236.836 147.395 235.842L146.401 235.506ZM150.881 246.748C150.153 246.748 150.027 246.594 150.027 245.866V241.932C151.777 240.784 153.499 239.426 154.773 238.152L153.807 237.634C152.897 238.656 151.497 239.762 150.027 240.742V235.464H148.977V241.4C148.333 241.792 147.689 242.142 147.073 242.45C147.255 242.66 147.521 243.08 147.661 243.318C148.095 243.094 148.529 242.842 148.977 242.576V245.838C148.977 247.336 149.397 247.742 150.797 247.742H153.527C154.843 247.742 155.165 247.042 155.305 245.026C154.997 244.942 154.577 244.76 154.325 244.564C154.227 246.314 154.129 246.748 153.457 246.748H150.881Z" fill="#666666"/>
<path d="M86.0491 162V152.2H89.8711C90.7298 152.2 91.4624 152.335 92.0691 152.606C92.6758 152.877 93.1424 153.269 93.4691 153.782C93.7958 154.295 93.9591 154.907 93.9591 155.616C93.9591 156.325 93.7958 156.937 93.4691 157.45C93.1424 157.954 92.6758 158.341 92.0691 158.612C91.4624 158.883 90.7298 159.018 89.8711 159.018H86.8191L87.4491 158.374V162H86.0491ZM92.6011 162L90.1091 158.444H91.6071L94.1271 162H92.6011ZM87.4491 158.514L86.8191 157.828H89.8291C90.7251 157.828 91.4018 157.637 91.8591 157.254C92.3258 156.862 92.5591 156.316 92.5591 155.616C92.5591 154.916 92.3258 154.375 91.8591 153.992C91.4018 153.609 90.7251 153.418 89.8291 153.418H86.8191L87.4491 152.718V158.514ZM98.953 162.084C98.2063 162.084 97.5436 161.921 96.965 161.594C96.3863 161.267 95.929 160.819 95.593 160.25C95.257 159.671 95.089 159.018 95.089 158.29C95.089 157.553 95.257 156.899 95.593 156.33C95.929 155.761 96.3863 155.317 96.965 155C97.5436 154.673 98.2063 154.51 98.953 154.51C99.6903 154.51 100.348 154.673 100.927 155C101.515 155.317 101.972 155.761 102.299 156.33C102.635 156.89 102.803 157.543 102.803 158.29C102.803 159.027 102.635 159.681 102.299 160.25C101.972 160.819 101.515 161.267 100.927 161.594C100.348 161.921 99.6903 162.084 98.953 162.084ZM98.953 160.908C99.429 160.908 99.8536 160.801 100.227 160.586C100.61 160.371 100.908 160.068 101.123 159.676C101.338 159.275 101.445 158.813 101.445 158.29C101.445 157.758 101.338 157.301 101.123 156.918C100.908 156.526 100.61 156.223 100.227 156.008C99.8536 155.793 99.429 155.686 98.953 155.686C98.477 155.686 98.0523 155.793 97.679 156.008C97.3056 156.223 97.007 156.526 96.783 156.918C96.559 157.301 96.447 157.758 96.447 158.29C96.447 158.813 96.559 159.275 96.783 159.676C97.007 160.068 97.3056 160.371 97.679 160.586C98.0523 160.801 98.477 160.908 98.953 160.908ZM107.534 162.084C106.899 162.084 106.339 161.967 105.854 161.734C105.378 161.501 105.004 161.146 104.734 160.67C104.472 160.185 104.342 159.578 104.342 158.85V154.58H105.686V158.696C105.686 159.424 105.858 159.97 106.204 160.334C106.558 160.698 107.053 160.88 107.688 160.88C108.154 160.88 108.56 160.787 108.906 160.6C109.251 160.404 109.517 160.124 109.704 159.76C109.89 159.387 109.984 158.939 109.984 158.416V154.58H111.328V162H110.054V159.998L110.264 160.53C110.021 161.025 109.657 161.407 109.172 161.678C108.686 161.949 108.14 162.084 107.534 162.084ZM116.184 162.084C115.438 162.084 114.859 161.883 114.448 161.482C114.038 161.081 113.832 160.507 113.832 159.76V152.956H115.176V159.704C115.176 160.105 115.274 160.413 115.47 160.628C115.676 160.843 115.965 160.95 116.338 160.95C116.758 160.95 117.108 160.833 117.388 160.6L117.808 161.566C117.603 161.743 117.356 161.874 117.066 161.958C116.786 162.042 116.492 162.084 116.184 162.084ZM112.572 155.686V154.58H117.304V155.686H112.572ZM119.183 162V154.58H120.527V162H119.183ZM119.855 153.152C119.594 153.152 119.375 153.068 119.197 152.9C119.029 152.732 118.945 152.527 118.945 152.284C118.945 152.032 119.029 151.822 119.197 151.654C119.375 151.486 119.594 151.402 119.855 151.402C120.117 151.402 120.331 151.486 120.499 151.654C120.677 151.813 120.765 152.013 120.765 152.256C120.765 152.508 120.681 152.723 120.513 152.9C120.345 153.068 120.126 153.152 119.855 153.152ZM126.805 154.51C127.412 154.51 127.944 154.627 128.401 154.86C128.868 155.093 129.232 155.448 129.493 155.924C129.755 156.4 129.885 157.002 129.885 157.73V162H128.541V157.884C128.541 157.165 128.364 156.624 128.009 156.26C127.664 155.896 127.174 155.714 126.539 155.714C126.063 155.714 125.648 155.807 125.293 155.994C124.939 156.181 124.663 156.456 124.467 156.82C124.281 157.184 124.187 157.637 124.187 158.178V162H122.843V154.58H124.131V156.582L123.921 156.05C124.164 155.565 124.537 155.187 125.041 154.916C125.545 154.645 126.133 154.51 126.805 154.51ZM135.427 162.084C134.633 162.084 133.933 161.921 133.327 161.594C132.729 161.267 132.263 160.819 131.927 160.25C131.6 159.681 131.437 159.027 131.437 158.29C131.437 157.553 131.595 156.899 131.913 156.33C132.239 155.761 132.683 155.317 133.243 155C133.812 154.673 134.451 154.51 135.161 154.51C135.879 154.51 136.514 154.669 137.065 154.986C137.615 155.303 138.045 155.751 138.353 156.33C138.67 156.899 138.829 157.567 138.829 158.332C138.829 158.388 138.824 158.453 138.815 158.528C138.815 158.603 138.81 158.673 138.801 158.738H132.487V157.772H138.101L137.555 158.108C137.564 157.632 137.466 157.207 137.261 156.834C137.055 156.461 136.771 156.171 136.407 155.966C136.052 155.751 135.637 155.644 135.161 155.644C134.694 155.644 134.279 155.751 133.915 155.966C133.551 156.171 133.266 156.465 133.061 156.848C132.855 157.221 132.753 157.651 132.753 158.136V158.36C132.753 158.855 132.865 159.298 133.089 159.69C133.322 160.073 133.644 160.371 134.055 160.586C134.465 160.801 134.937 160.908 135.469 160.908C135.907 160.908 136.304 160.833 136.659 160.684C137.023 160.535 137.34 160.311 137.611 160.012L138.353 160.88C138.017 161.272 137.597 161.571 137.093 161.776C136.598 161.981 136.043 162.084 135.427 162.084ZM96.7164 184.786L97.7244 184.338C96.5204 182.336 95.9604 179.97 95.9604 177.618C95.9604 175.28 96.5204 172.914 97.7244 170.898L96.7164 170.464C95.4144 172.578 94.6444 174.86 94.6444 177.618C94.6444 180.404 95.4144 182.658 96.7164 184.786ZM98.783 175.826V177.254H111.523V175.826H98.783ZM120.513 171.92H122.361V173.908C122.361 174.706 122.445 174.958 122.655 175.154C122.851 175.364 123.201 175.434 123.481 175.434H124.195C124.419 175.434 124.699 175.392 124.867 175.308C125.077 175.21 125.231 175.042 125.315 174.804C125.385 174.58 125.441 173.978 125.469 173.446C125.161 173.348 124.741 173.138 124.531 172.942C124.517 173.474 124.503 173.894 124.475 174.076C124.447 174.258 124.391 174.342 124.335 174.384C124.293 174.412 124.195 174.426 124.097 174.426H123.789C123.705 174.426 123.635 174.412 123.593 174.37C123.537 174.328 123.537 174.174 123.537 173.936V170.786H119.351V172.592C119.351 173.46 119.225 174.51 118.217 175.28C118.483 175.42 118.959 175.826 119.155 176.036C120.289 175.126 120.513 173.74 120.513 172.62V171.92ZM114.759 173.964C115.095 174.524 115.375 175.294 115.459 175.798L116.313 175.434C116.215 174.944 115.907 174.188 115.557 173.642L114.759 173.964ZM114.409 176.358V173.194H116.691V176.12L114.409 176.358ZM118.399 176.96L118.385 175.952L117.769 176.008V172.158H115.809C116.005 171.668 116.243 171.066 116.467 170.506L115.067 170.24C114.983 170.8 114.787 171.556 114.605 172.158H113.373V176.456L112.379 176.554L112.505 177.618L113.373 177.52C113.359 179.144 113.233 181.104 112.365 182.504C112.631 182.63 113.079 182.91 113.261 183.092C114.241 181.58 114.395 179.2 114.409 177.408L116.691 177.156V181.86C116.691 182.014 116.635 182.07 116.467 182.07C116.327 182.084 115.837 182.084 115.319 182.07C115.473 182.336 115.627 182.826 115.669 183.106C116.453 183.106 116.957 183.078 117.307 182.91C117.657 182.728 117.769 182.406 117.769 181.86V177.03L118.399 176.96ZM115.879 177.66H115.095V180.88H115.879V177.66ZM123.131 177.394C122.781 178.304 122.291 179.116 121.675 179.788C121.059 179.088 120.569 178.29 120.247 177.394H123.131ZM123.901 176.176L123.677 176.232H118.707V177.394H120.107L119.183 177.604C119.589 178.738 120.135 179.732 120.821 180.572C119.995 181.23 119.029 181.72 117.993 182.028C118.245 182.28 118.553 182.798 118.707 183.12C119.813 182.728 120.821 182.196 121.703 181.468C122.543 182.196 123.537 182.742 124.713 183.092C124.881 182.77 125.245 182.266 125.497 182.028C124.363 181.748 123.383 181.272 122.585 180.642C123.551 179.564 124.293 178.192 124.699 176.47L123.901 176.176ZM127.277 184.786C128.593 182.658 129.363 180.404 129.363 177.618C129.363 174.86 128.593 172.578 127.277 170.464L126.269 170.898C127.473 172.914 128.033 175.28 128.033 177.618C128.033 179.97 127.473 182.336 126.269 184.338L127.277 184.786Z" fill="white"/>
<rect x="183" width="122" height="130" rx="7" fill="#F6F7FE"/>
<path d="M183 7C183 3.13401 186.134 0 190 0L298 0C301.866 0 305 3.13401 305 7V54L183 54V7Z" fill="#435CE7"/>
<path d="M229.241 87.858C228.961 87.312 228.331 86.458 227.771 85.842L227.057 86.248C227.589 86.878 228.205 87.76 228.485 88.334L229.241 87.858ZM222.325 96.076H218.503V92.52H222.325V96.076ZM220.687 88.922H223.585V87.998H220.687V85.366H219.693V91.568H217.565V97.812H218.503V97.028H222.325V97.742H223.291V91.568H220.687V88.922ZM228.681 90.448C228.303 91.61 227.729 92.758 227.015 93.78C226.805 92.786 226.637 91.582 226.497 90.238L229.717 89.776L229.577 88.88L226.413 89.342C226.315 88.096 226.245 86.752 226.217 85.366H225.237C225.293 86.808 225.363 88.194 225.461 89.482L223.487 89.776L223.627 90.658L225.545 90.392C225.713 92.072 225.937 93.57 226.245 94.774C225.405 95.74 224.439 96.538 223.403 97.042C223.669 97.224 223.991 97.546 224.159 97.784C225.013 97.294 225.825 96.622 226.567 95.838C227.043 97.224 227.715 98.036 228.597 98.078C229.143 98.092 229.647 97.49 229.941 95.334C229.759 95.236 229.367 94.998 229.185 94.788C229.073 96.16 228.877 96.916 228.583 96.902C228.093 96.874 227.645 96.16 227.309 94.956C228.233 93.724 228.989 92.31 229.479 90.882L228.681 90.448ZM237.433 92.982C238.287 92.52 239.113 91.946 239.869 91.26C240.569 91.918 241.367 92.506 242.249 92.982H237.433ZM237.853 96.594V93.906H241.731V96.594H237.853ZM235.851 89.51C236.047 89.678 236.257 89.888 236.383 90.014C236.845 89.622 237.307 89.16 237.741 88.628C238.119 89.272 238.609 89.944 239.197 90.588C238.175 91.484 236.999 92.198 235.851 92.674V89.51ZM233.877 94.256V90.924H235.011V94.256H233.877ZM232.043 90.924H233.163V94.256H232.043V90.924ZM233.163 87.004V90.042H232.043V87.004H233.163ZM235.011 90.042H233.877V87.004H235.011V90.042ZM241.549 87.648C241.129 88.474 240.541 89.244 239.869 89.944C239.225 89.272 238.693 88.558 238.315 87.872L238.469 87.648H241.549ZM242.235 86.724L242.053 86.78H239.015C239.239 86.374 239.449 85.94 239.631 85.506L238.651 85.24C238.049 86.738 237.027 88.124 235.851 89.076V86.108H231.245V96.412H232.043V95.18H235.851V93.052C235.991 93.22 236.131 93.43 236.201 93.584C236.425 93.486 236.649 93.388 236.873 93.276V97.994H237.853V97.518H241.731V97.966H242.739V93.234C242.893 93.304 243.033 93.374 243.187 93.43C243.341 93.15 243.635 92.758 243.859 92.548C242.599 92.1 241.493 91.4 240.569 90.602C241.549 89.594 242.375 88.404 242.907 87.06L242.235 86.724ZM254.095 93.444V96.566H247.669V93.444H254.095ZM246.647 98.078H247.669V97.504H254.095V98.078H255.159V92.506H246.647V98.078ZM247.375 89.832V90.756H254.389V89.832H247.375ZM250.259 85.324C249.167 87.116 246.829 89.244 244.393 90.476C244.631 90.7 244.911 91.064 245.037 91.302C247.431 90.028 249.699 88.04 250.847 86.332C252.149 88.124 254.599 90.084 256.769 91.218C256.951 90.924 257.203 90.56 257.455 90.322C255.257 89.328 252.793 87.382 251.309 85.324H250.259ZM261.643 85.338C260.859 87.466 259.571 89.552 258.185 90.896C258.381 91.12 258.689 91.694 258.787 91.932C259.263 91.442 259.739 90.882 260.173 90.266V98.05H261.209V88.656C261.755 87.69 262.259 86.668 262.637 85.66L261.643 85.338ZM271.037 88.614V87.62H265.213C265.493 87.004 265.759 86.374 265.983 85.73L264.989 85.464C264.303 87.508 263.169 89.524 261.909 90.826C262.147 90.994 262.553 91.344 262.721 91.526C263.421 90.742 264.107 89.734 264.709 88.614H265.675V98.064H266.725V94.676H270.911V93.696H266.725V91.582H270.715V90.616H266.725V88.614H271.037Z" fill="#666666"/>
<path d="M225.899 22.112C225.152 22.112 224.462 21.9907 223.827 21.748C223.202 21.496 222.656 21.146 222.189 20.698C221.732 20.2407 221.372 19.7087 221.111 19.102C220.85 18.4953 220.719 17.828 220.719 17.1C220.719 16.372 220.85 15.7047 221.111 15.098C221.372 14.4913 221.736 13.964 222.203 13.516C222.67 13.0587 223.216 12.7087 223.841 12.466C224.476 12.214 225.166 12.088 225.913 12.088C226.669 12.088 227.364 12.2187 227.999 12.48C228.643 12.732 229.189 13.11 229.637 13.614L228.727 14.496C228.354 14.104 227.934 13.8147 227.467 13.628C227 13.432 226.501 13.334 225.969 13.334C225.418 13.334 224.905 13.4273 224.429 13.614C223.962 13.8007 223.556 14.062 223.211 14.398C222.866 14.734 222.595 15.1353 222.399 15.602C222.212 16.0593 222.119 16.5587 222.119 17.1C222.119 17.6413 222.212 18.1453 222.399 18.612C222.595 19.0693 222.866 19.466 223.211 19.802C223.556 20.138 223.962 20.3993 224.429 20.586C224.905 20.7727 225.418 20.866 225.969 20.866C226.501 20.866 227 20.7727 227.467 20.586C227.934 20.39 228.354 20.0913 228.727 19.69L229.637 20.572C229.189 21.076 228.643 21.4587 227.999 21.72C227.364 21.9813 226.664 22.112 225.899 22.112ZM231.188 22V14.58H232.476V16.596L232.35 16.092C232.555 15.5787 232.901 15.1867 233.386 14.916C233.871 14.6453 234.469 14.51 235.178 14.51V15.812C235.122 15.8027 235.066 15.798 235.01 15.798C234.963 15.798 234.917 15.798 234.87 15.798C234.151 15.798 233.582 16.0127 233.162 16.442C232.742 16.8713 232.532 17.492 232.532 18.304V22H231.188ZM236.585 22V14.58H237.929V22H236.585ZM237.257 13.152C236.995 13.152 236.776 13.068 236.599 12.9C236.431 12.732 236.347 12.5267 236.347 12.284C236.347 12.032 236.431 11.822 236.599 11.654C236.776 11.486 236.995 11.402 237.257 11.402C237.518 11.402 237.733 11.486 237.901 11.654C238.078 11.8127 238.167 12.0133 238.167 12.256C238.167 12.508 238.083 12.7227 237.915 12.9C237.747 13.068 237.527 13.152 237.257 13.152ZM242.793 22.084C242.046 22.084 241.467 21.8833 241.057 21.482C240.646 21.0807 240.441 20.5067 240.441 19.76V12.956H241.785V19.704C241.785 20.1053 241.883 20.4133 242.079 20.628C242.284 20.8427 242.573 20.95 242.947 20.95C243.367 20.95 243.717 20.8333 243.997 20.6L244.417 21.566C244.211 21.7433 243.964 21.874 243.675 21.958C243.395 22.042 243.101 22.084 242.793 22.084ZM239.181 15.686V14.58H243.913V15.686H239.181ZM245.792 22V14.58H247.136V22H245.792ZM246.464 13.152C246.202 13.152 245.983 13.068 245.806 12.9C245.638 12.732 245.554 12.5267 245.554 12.284C245.554 12.032 245.638 11.822 245.806 11.654C245.983 11.486 246.202 11.402 246.464 11.402C246.725 11.402 246.94 11.486 247.108 11.654C247.285 11.8127 247.374 12.0133 247.374 12.256C247.374 12.508 247.29 12.7227 247.122 12.9C246.954 13.068 246.734 13.152 246.464 13.152ZM252.686 22.084C251.93 22.084 251.253 21.9207 250.656 21.594C250.068 21.2673 249.606 20.8193 249.27 20.25C248.934 19.6807 248.766 19.0273 248.766 18.29C248.766 17.5527 248.934 16.8993 249.27 16.33C249.606 15.7607 250.068 15.3173 250.656 15C251.253 14.6733 251.93 14.51 252.686 14.51C253.358 14.51 253.955 14.6453 254.478 14.916C255.01 15.1773 255.42 15.5693 255.71 16.092L254.688 16.75C254.445 16.386 254.146 16.12 253.792 15.952C253.446 15.7747 253.073 15.686 252.672 15.686C252.186 15.686 251.752 15.7933 251.37 16.008C250.987 16.2227 250.684 16.526 250.46 16.918C250.236 17.3007 250.124 17.758 250.124 18.29C250.124 18.822 250.236 19.284 250.46 19.676C250.684 20.068 250.987 20.3713 251.37 20.586C251.752 20.8007 252.186 20.908 252.672 20.908C253.073 20.908 253.446 20.824 253.792 20.656C254.146 20.4787 254.445 20.208 254.688 19.844L255.71 20.488C255.42 21.0013 255.01 21.398 254.478 21.678C253.955 21.9487 253.358 22.084 252.686 22.084ZM261.806 22V20.432L261.736 20.138V17.464C261.736 16.8947 261.568 16.456 261.232 16.148C260.905 15.8307 260.41 15.672 259.748 15.672C259.309 15.672 258.88 15.7467 258.46 15.896C258.04 16.036 257.685 16.2273 257.396 16.47L256.836 15.462C257.218 15.154 257.676 14.9207 258.208 14.762C258.749 14.594 259.314 14.51 259.902 14.51C260.919 14.51 261.703 14.7573 262.254 15.252C262.804 15.7467 263.08 16.5027 263.08 17.52V22H261.806ZM259.37 22.084C258.819 22.084 258.334 21.9907 257.914 21.804C257.503 21.6173 257.186 21.3607 256.962 21.034C256.738 20.698 256.626 20.32 256.626 19.9C256.626 19.4987 256.719 19.1347 256.906 18.808C257.102 18.4813 257.414 18.22 257.844 18.024C258.282 17.828 258.87 17.73 259.608 17.73H261.96V18.696H259.664C258.992 18.696 258.539 18.808 258.306 19.032C258.072 19.256 257.956 19.5267 257.956 19.844C257.956 20.208 258.1 20.502 258.39 20.726C258.679 20.9407 259.08 21.048 259.594 21.048C260.098 21.048 260.536 20.936 260.91 20.712C261.292 20.488 261.568 20.1613 261.736 19.732L262.002 20.656C261.824 21.0947 261.512 21.4447 261.064 21.706C260.616 21.958 260.051 22.084 259.37 22.084ZM265.317 22V11.612H266.661V22H265.317ZM228.716 44.786L229.724 44.338C228.52 42.336 227.96 39.97 227.96 37.618C227.96 35.28 228.52 32.914 229.724 30.898L228.716 30.464C227.414 32.578 226.644 34.86 226.644 37.618C226.644 40.404 227.414 42.658 228.716 44.786ZM243.103 32.76C242.837 32.228 242.207 31.402 241.689 30.786L240.793 31.276C241.297 31.906 241.899 32.788 242.165 33.348L243.103 32.76ZM232.449 40.88V37.632H235.907V40.88H232.449ZM234.577 36.47V33.978H237.363V32.83H234.577V30.38H233.331V36.47H231.301V42.854H232.449V42.056H235.907V42.784H237.111V36.47H234.577ZM242.291 35.462C241.955 36.512 241.437 37.534 240.821 38.486C240.653 37.576 240.499 36.512 240.373 35.336L243.495 34.888L243.327 33.768L240.275 34.216C240.205 32.998 240.135 31.696 240.107 30.352H238.903C238.945 31.78 239.015 33.11 239.113 34.37L237.251 34.636L237.433 35.77L239.197 35.518C239.351 37.142 239.561 38.584 239.855 39.746C239.057 40.67 238.133 41.426 237.111 41.916C237.461 42.154 237.853 42.532 238.063 42.84C238.847 42.378 239.589 41.776 240.261 41.062C240.751 42.336 241.409 43.078 242.277 43.12C242.837 43.134 243.411 42.56 243.733 40.334C243.523 40.208 243.019 39.872 242.795 39.62C242.711 40.922 242.529 41.622 242.263 41.622C241.843 41.594 241.493 40.992 241.185 39.984C242.081 38.78 242.809 37.394 243.271 36.008L242.291 35.462ZM251.393 37.996C252.163 37.562 252.905 37.044 253.591 36.456C254.221 37.03 254.949 37.562 255.733 37.996H251.393ZM251.813 41.454V39.144H255.243V41.454H251.813ZM249.657 34.524C249.881 34.734 250.119 34.958 250.245 35.112C250.651 34.762 251.071 34.356 251.449 33.894C251.799 34.454 252.233 35.042 252.737 35.602C251.799 36.4 250.735 37.044 249.657 37.492V34.524ZM247.697 39.158V36.064H248.635V39.158H247.697ZM245.947 36.064H246.857V39.158H245.947V36.064ZM246.857 32.2V34.972H245.947V32.2H246.857ZM248.635 34.972H247.697V32.2H248.635V34.972ZM255.047 32.774C254.669 33.502 254.165 34.174 253.577 34.79C253.003 34.202 252.527 33.558 252.177 32.956L252.303 32.774H255.047ZM255.901 31.626L255.677 31.682H252.961C253.157 31.318 253.339 30.94 253.493 30.562L252.275 30.212C251.715 31.626 250.749 32.97 249.657 33.894V31.066H244.967V41.482H245.947V40.278H249.657V38.052C249.811 38.248 249.965 38.472 250.063 38.654C250.231 38.584 250.413 38.5 250.581 38.416V43.05H251.813V42.602H255.243V43.036H256.503V38.374C256.601 38.416 256.699 38.458 256.797 38.5C256.979 38.164 257.371 37.646 257.637 37.408C256.433 37.002 255.355 36.358 254.459 35.616C255.425 34.608 256.223 33.418 256.741 32.046L255.901 31.626ZM259.277 44.786C260.593 42.658 261.363 40.404 261.363 37.618C261.363 34.86 260.593 32.578 259.277 30.464L258.269 30.898C259.473 32.914 260.033 35.28 260.033 37.618C260.033 39.97 259.473 42.336 258.269 44.338L259.277 44.786Z" fill="white"/>
<rect x="183" y="140" width="122" height="130" rx="7" fill="#F6F7FE"/>
<path d="M183 147C183 143.134 186.134 140 190 140L298 140C301.866 140 305 143.134 305 147V194L183 194V147Z" fill="#435CE7"/>
<path d="M211.053 219.58V220.812H208.701V219.58H211.053ZM214.427 220.812H211.991V219.58H214.427V220.812ZM211.991 222.856V221.582H214.427V222.856H211.991ZM208.701 222.856V221.582H211.053V222.856H208.701ZM208.701 223.654H211.053V225.922H211.991V223.654H214.427V224.928C214.427 225.11 214.371 225.166 214.189 225.166C214.021 225.166 213.419 225.18 212.761 225.152C212.887 225.39 213.013 225.754 213.055 226.006C213.993 226.006 214.581 225.992 214.945 225.852C215.309 225.698 215.421 225.446 215.421 224.942V218.782H213.657C213.349 218.614 212.985 218.418 212.579 218.222C213.615 217.704 214.665 217.004 215.407 216.304L214.763 215.814L214.567 215.87H207.735V216.696H213.573C213.013 217.102 212.327 217.508 211.655 217.802C210.997 217.522 210.311 217.242 209.709 217.032L209.051 217.62C209.891 217.928 210.885 218.376 211.711 218.782H207.721V225.978H208.701V223.654ZM206.727 217.102C206.293 216.57 205.327 215.884 204.515 215.464L203.829 216.094C204.641 216.542 205.579 217.256 205.999 217.788L206.727 217.102ZM206.335 219.86C205.859 219.342 204.851 218.67 204.011 218.278L203.353 218.922C204.193 219.37 205.173 220.07 205.635 220.588L206.335 219.86ZM206.013 221.75H203.283V222.716H205.033V225.376C204.403 225.95 203.731 226.538 203.143 226.958L203.689 227.952C204.361 227.35 204.991 226.762 205.593 226.16C206.489 227.252 207.777 227.742 209.625 227.812C211.193 227.868 214.175 227.84 215.729 227.784C215.785 227.476 215.939 227.014 216.079 226.776C214.399 226.888 211.165 226.916 209.611 226.86C207.959 226.79 206.699 226.328 206.013 225.292V221.75ZM226.441 224.312C226.441 224.55 226.343 224.634 226.063 224.648C225.783 224.648 224.803 224.648 223.795 224.62C223.949 224.914 224.117 225.376 224.159 225.67C225.475 225.67 226.329 225.642 226.805 225.474C227.295 225.32 227.477 225.012 227.477 224.312V218.782H229.409V217.788H227.477V215.338H226.441V217.788H221.065V218.782H226.441V224.312ZM221.723 220.336C222.437 221.204 223.277 222.422 223.669 223.15L224.551 222.618C224.145 221.89 223.249 220.742 222.549 219.888L221.723 220.336ZM220.449 217.984C220.029 217.326 219.105 216.36 218.335 215.66L217.537 216.192C218.307 216.906 219.203 217.928 219.595 218.586L220.449 217.984ZM220.071 220.504H217.131V221.484H219.049V225.124C218.433 225.362 217.691 225.978 216.949 226.776L217.677 227.756C218.391 226.804 219.063 225.978 219.525 225.978C219.833 225.978 220.295 226.44 220.869 226.804C221.835 227.42 222.997 227.574 224.719 227.574C226.063 227.574 228.513 227.504 229.507 227.434C229.521 227.112 229.689 226.594 229.829 226.314C228.471 226.454 226.385 226.58 224.747 226.58C223.207 226.58 222.003 226.468 221.107 225.908C220.631 225.614 220.337 225.362 220.071 225.194V220.504ZM235.991 222.422L235.851 221.498L234.227 222.002V219.146H235.669V218.138H234.227V215.296H233.261V218.138H232.183C232.281 217.522 232.379 216.878 232.449 216.248L231.539 216.094C231.371 217.802 231.105 219.566 230.573 220.756C230.797 220.84 231.189 221.092 231.371 221.218C231.623 220.644 231.819 219.93 231.987 219.146H233.261V222.268C232.281 222.576 231.385 222.814 230.671 223.01L230.951 224.004C231.637 223.794 232.435 223.542 233.261 223.29V228.078H234.227V222.982L235.991 222.422ZM242.403 217.62V217.634H237.923C238.175 216.948 238.385 216.22 238.553 215.478L237.601 215.282C237.139 217.396 236.299 219.412 235.151 220.658C235.361 220.798 235.781 221.092 235.949 221.26C236.551 220.546 237.083 219.622 237.545 218.6H238.749C238.105 220.84 236.859 223.178 235.375 224.34C235.669 224.494 236.005 224.732 236.201 224.942C237.727 223.612 239.015 220.994 239.645 218.6H240.793C240.065 222.114 238.553 225.558 236.257 227.21C236.565 227.364 236.929 227.616 237.125 227.84C239.449 225.992 240.989 222.268 241.689 218.6H242.361C242.081 224.144 241.773 226.216 241.325 226.706C241.171 226.888 241.031 226.944 240.807 226.944C240.527 226.944 239.967 226.93 239.337 226.874C239.519 227.154 239.617 227.588 239.631 227.896C240.247 227.938 240.849 227.952 241.227 227.896C241.647 227.854 241.927 227.728 242.193 227.364C242.753 226.664 243.061 224.494 243.369 218.152C243.383 218.026 243.383 217.634 243.383 217.634L242.403 217.62ZM254.319 217.116H247.389V216.36H254.319V217.116ZM254.319 218.488H247.389V217.718H254.319V218.488ZM255.341 215.73H246.395V219.118H255.341V215.73ZM257.119 219.692H244.659V220.49H257.119V219.692ZM247.109 223.962V223.164H250.357V223.962H247.109ZM247.109 221.764H250.357V222.548H247.109V221.764ZM254.739 222.548H251.351V221.764H254.739V222.548ZM254.739 223.962H251.351V223.164H254.739V223.962ZM251.351 226.916V226.104H256.055V225.376H251.351V224.606H255.761V221.12H246.143V224.606H250.357V225.376H245.737V226.104H250.357V226.916H244.575V227.728H257.189V226.916H251.351ZM259.725 218.348H261.209V219.524H259.725V218.348ZM263.659 218.348V219.524H262.147V218.348H263.659ZM268.993 217.69C268.741 218.516 268.363 219.202 267.873 219.79C267.299 219.146 266.879 218.432 266.585 217.732L266.613 217.69H268.993ZM261.209 222.618H262.147V220.924C262.819 221.302 263.729 221.834 264.135 222.114L264.639 221.428C264.247 221.204 262.791 220.476 262.231 220.21H264.541V218.88C264.765 219.062 265.073 219.384 265.199 219.552C265.507 219.258 265.801 218.922 266.067 218.544C266.361 219.174 266.753 219.818 267.257 220.406C266.501 221.064 265.549 221.554 264.415 221.89C264.625 222.072 264.933 222.464 265.031 222.66C266.137 222.254 267.103 221.75 267.887 221.078C268.601 221.75 269.469 222.324 270.533 222.716C270.673 222.464 270.939 222.086 271.135 221.89C270.085 221.568 269.217 221.05 268.517 220.448C269.189 219.706 269.679 218.796 270.001 217.69H270.897V216.85H267.047C267.243 216.416 267.411 215.968 267.551 215.506L266.599 215.296C266.221 216.668 265.493 217.942 264.541 218.796V217.662H262.147V216.948H264.877V216.192H262.147V215.282H261.209V216.192H258.465V216.948H261.209V217.662H258.871V220.21H260.803C260.117 220.896 259.081 221.61 258.227 221.96C258.437 222.114 258.717 222.422 258.843 222.618C259.599 222.24 260.509 221.54 261.209 220.826V222.618ZM265.115 225.74H269.133V224.928H265.115V223.85H270.043V222.996H259.277V223.85H264.107V226.888H261.615V224.48H260.635V226.888H258.339V227.756H270.953V226.888H265.115V225.74ZM281.595 223.444V226.566H275.169V223.444H281.595ZM274.147 228.078H275.169V227.504H281.595V228.078H282.659V222.506H274.147V228.078ZM274.875 219.832V220.756H281.889V219.832H274.875ZM277.759 215.324C276.667 217.116 274.329 219.244 271.893 220.476C272.131 220.7 272.411 221.064 272.537 221.302C274.931 220.028 277.199 218.04 278.347 216.332C279.649 218.124 282.099 220.084 284.269 221.218C284.451 220.924 284.703 220.56 284.955 220.322C282.757 219.328 280.293 217.382 278.809 215.324H277.759ZM206.825 238.488H207.861V237.354H211.487V238.418H212.495V237.354H215.757V236.402H212.495V235.296H211.473V236.402H207.861V235.296H206.825V236.402H203.549V237.354H206.825V238.488ZM212.523 239.286C213.251 239.776 214.063 240.504 214.441 241.022L215.169 240.448C214.791 239.93 213.951 239.23 213.223 238.754L212.523 239.286ZM207.189 238.768C206.909 239.104 206.531 239.44 206.111 239.79C205.747 239.356 205.257 238.95 204.655 238.558L203.983 239.09C204.557 239.482 205.033 239.888 205.369 240.322C204.711 240.756 203.983 241.148 203.241 241.47C203.451 241.652 203.731 241.946 203.871 242.156C204.543 241.834 205.229 241.47 205.873 241.036C206.097 241.456 206.265 241.876 206.363 242.324C205.677 243.276 204.347 244.326 203.213 244.788C203.451 244.998 203.717 245.334 203.843 245.586C204.739 245.096 205.747 244.284 206.503 243.444C206.517 243.654 206.517 243.85 206.517 244.032C206.517 245.432 206.391 246.44 206.069 246.846C205.957 246.986 205.831 247.056 205.621 247.07C205.327 247.112 204.795 247.112 204.165 247.07C204.347 247.336 204.473 247.7 204.487 247.994C205.061 248.022 205.565 248.022 206.027 247.924C206.335 247.882 206.587 247.742 206.769 247.532C207.329 246.888 207.483 245.67 207.483 244.074C207.483 242.842 207.357 241.638 206.657 240.49C207.175 240.098 207.665 239.678 208.043 239.244L207.189 238.768ZM215.771 242.198V241.218H212.103C212.103 241.05 212.103 240.896 212.103 240.742V238.698H211.123V240.728C211.123 240.896 211.123 241.05 211.109 241.218H207.861V242.198H211.025C210.787 243.92 210.017 245.88 207.483 247.434C207.735 247.602 208.057 247.882 208.239 248.106C210.325 246.804 211.305 245.222 211.739 243.654C212.453 245.656 213.587 247.196 215.239 248.064C215.393 247.784 215.701 247.406 215.925 247.21C214.007 246.37 212.831 244.536 212.215 242.198H215.771ZM221.891 238.992H219.161V237.13H221.891V238.992ZM219.161 242.814H221.891V244.536C220.953 244.676 220.015 244.816 219.161 244.928V242.814ZM221.891 241.862H219.161V239.916H221.891V241.862ZM223.879 237.13V236.164H217.089V237.13H218.181V245.068C217.677 245.138 217.215 245.194 216.823 245.236L217.005 246.286C218.335 246.062 220.127 245.796 221.891 245.502V248.036H222.899V237.13H223.879ZM228.723 237.158L228.527 237.2H223.529V238.222H228.247C227.925 240.28 227.323 242.03 226.511 243.458C225.713 241.974 225.153 240.21 224.789 238.278L223.795 238.46C224.257 240.756 224.915 242.786 225.881 244.438C225.041 245.586 224.047 246.454 222.941 247.028C223.165 247.224 223.473 247.602 223.627 247.868C224.691 247.252 225.657 246.426 226.483 245.376C227.239 246.426 228.163 247.28 229.269 247.91C229.437 247.644 229.773 247.252 230.011 247.056C228.849 246.468 227.897 245.572 227.127 244.452C228.247 242.674 229.031 240.35 229.395 237.354L228.723 237.158ZM233.863 235.338C233.065 237.466 231.777 239.552 230.405 240.896C230.601 241.12 230.881 241.666 230.993 241.904C231.483 241.4 231.959 240.826 232.407 240.182V248.036H233.387V238.656C233.947 237.69 234.437 236.668 234.829 235.632L233.863 235.338ZM236.397 242.352C236.397 243.752 236.243 245.992 234.157 247.476C234.423 247.658 234.731 247.966 234.899 248.176C237.139 246.468 237.405 244.018 237.405 242.38V240.378H236.397V242.352ZM240.247 247.952H241.283V240.364H240.247V247.952ZM238.147 235.548C237.349 237.242 235.585 239.258 233.779 240.406C233.989 240.644 234.241 241.022 234.367 241.274C236.159 240.07 237.825 238.18 238.707 236.598C239.673 238.222 241.479 240.084 243.145 241.204C243.313 240.91 243.551 240.532 243.761 240.28C242.095 239.3 240.247 237.41 239.155 235.548H238.147ZM251.043 242.968C251.841 242.534 252.625 242.002 253.325 241.386C254.011 241.988 254.795 242.534 255.691 242.968H251.043ZM251.309 246.552V243.864H255.215V246.552H251.309ZM251.911 237.69H254.963C254.557 238.572 253.983 239.37 253.311 240.07C252.639 239.398 252.121 238.656 251.743 237.942L251.911 237.69ZM255.621 236.738L255.439 236.78H252.443C252.653 236.374 252.849 235.968 253.017 235.548L252.009 235.268C251.463 236.696 250.567 238.054 249.531 239.048V238.278H247.725V235.282H246.731V238.278H244.645V239.244H246.619C246.171 241.162 245.247 243.346 244.323 244.522C244.505 244.76 244.757 245.166 244.869 245.446C245.555 244.522 246.227 243.01 246.731 241.442V248.05H247.725V241.064C248.159 241.666 248.649 242.408 248.873 242.814L249.489 242.002C249.223 241.652 248.117 240.308 247.725 239.86V239.244H249.321C249.209 239.342 249.083 239.44 248.971 239.538C249.209 239.692 249.615 240.042 249.797 240.238C250.273 239.818 250.735 239.314 251.169 238.754C251.547 239.412 252.037 240.084 252.625 240.714C251.449 241.722 250.063 242.478 248.663 242.926C248.873 243.122 249.139 243.5 249.251 243.766C249.629 243.626 249.993 243.486 250.357 243.304V248.078H251.309V247.462H255.215V248.022H256.195V243.206C256.405 243.29 256.629 243.374 256.853 243.458C256.993 243.192 257.287 242.786 257.497 242.576C256.125 242.17 254.963 241.498 254.011 240.714C254.977 239.706 255.775 238.488 256.265 237.046L255.621 236.738ZM263.057 242.24L262.917 241.274L261.293 241.764V239.062H262.903V238.11H261.293V235.296H260.271V238.11H258.283V239.062H260.271V242.058C259.445 242.296 258.689 242.506 258.087 242.66L258.367 243.668L260.271 243.094V246.846C260.271 247.056 260.201 247.112 260.019 247.112C259.837 247.126 259.263 247.126 258.633 247.112C258.773 247.364 258.899 247.798 258.941 248.05C259.879 248.064 260.439 248.036 260.803 247.882C261.153 247.714 261.293 247.42 261.293 246.846V242.786L263.057 242.24ZM271.037 239.986H264.919V237.424C266.823 237.158 269.021 236.78 270.491 236.262L269.721 235.45C268.573 235.856 266.655 236.248 264.891 236.528L263.883 236.346V240.798C263.883 242.842 263.701 245.404 262.007 247.252C262.259 247.392 262.637 247.756 262.777 247.98C264.625 245.978 264.905 243.122 264.919 240.98H267.677V248.05H268.699V240.98H271.037V239.986ZM276.779 241.484L275.099 241.974V238.824H276.793V237.844H275.099V235.296H274.063V237.844H272.047V238.824H274.063V242.268C273.237 242.506 272.481 242.716 271.879 242.87L272.145 243.878C272.719 243.724 273.377 243.514 274.063 243.304V246.818C274.063 247.028 273.979 247.084 273.797 247.084C273.629 247.098 273.027 247.098 272.397 247.084C272.551 247.364 272.705 247.798 272.747 248.064C273.671 248.078 274.245 248.05 274.595 247.868C274.973 247.7 275.099 247.434 275.099 246.818V242.996C275.701 242.814 276.317 242.618 276.919 242.422L276.779 241.484ZM278.557 245.362V237.452H282.813V245.362H278.557ZM277.535 236.458V247.658H278.557V246.356H282.813V247.56H283.877V236.458H277.535Z" fill="#666666"/>
<path d="M214.073 162V152.2H215.473V160.782H220.779V162H214.073ZM225.147 162.084C224.354 162.084 223.654 161.921 223.047 161.594C222.45 161.267 221.983 160.819 221.647 160.25C221.321 159.681 221.157 159.027 221.157 158.29C221.157 157.553 221.316 156.899 221.633 156.33C221.96 155.761 222.403 155.317 222.963 155C223.533 154.673 224.172 154.51 224.881 154.51C225.6 154.51 226.235 154.669 226.785 154.986C227.336 155.303 227.765 155.751 228.073 156.33C228.391 156.899 228.549 157.567 228.549 158.332C228.549 158.388 228.545 158.453 228.535 158.528C228.535 158.603 228.531 158.673 228.521 158.738H222.207V157.772H227.821L227.275 158.108C227.285 157.632 227.187 157.207 226.981 156.834C226.776 156.461 226.491 156.171 226.127 155.966C225.773 155.751 225.357 155.644 224.881 155.644C224.415 155.644 223.999 155.751 223.635 155.966C223.271 156.171 222.987 156.465 222.781 156.848C222.576 157.221 222.473 157.651 222.473 158.136V158.36C222.473 158.855 222.585 159.298 222.809 159.69C223.043 160.073 223.365 160.371 223.775 160.586C224.186 160.801 224.657 160.908 225.189 160.908C225.628 160.908 226.025 160.833 226.379 160.684C226.743 160.535 227.061 160.311 227.331 160.012L228.073 160.88C227.737 161.272 227.317 161.571 226.813 161.776C226.319 161.981 225.763 162.084 225.147 162.084ZM231.975 162L228.727 154.58H230.127L233.011 161.3H232.339L235.279 154.58H236.595L233.347 162H231.975ZM240.698 162.084C239.905 162.084 239.205 161.921 238.598 161.594C238.001 161.267 237.534 160.819 237.198 160.25C236.871 159.681 236.708 159.027 236.708 158.29C236.708 157.553 236.867 156.899 237.184 156.33C237.511 155.761 237.954 155.317 238.514 155C239.083 154.673 239.723 154.51 240.432 154.51C241.151 154.51 241.785 154.669 242.336 154.986C242.887 155.303 243.316 155.751 243.624 156.33C243.941 156.899 244.1 157.567 244.1 158.332C244.1 158.388 244.095 158.453 244.086 158.528C244.086 158.603 244.081 158.673 244.072 158.738H237.758V157.772H243.372L242.826 158.108C242.835 157.632 242.737 157.207 242.532 156.834C242.327 156.461 242.042 156.171 241.678 155.966C241.323 155.751 240.908 155.644 240.432 155.644C239.965 155.644 239.55 155.751 239.186 155.966C238.822 156.171 238.537 156.465 238.332 156.848C238.127 157.221 238.024 157.651 238.024 158.136V158.36C238.024 158.855 238.136 159.298 238.36 159.69C238.593 160.073 238.915 160.371 239.326 160.586C239.737 160.801 240.208 160.908 240.74 160.908C241.179 160.908 241.575 160.833 241.93 160.684C242.294 160.535 242.611 160.311 242.882 160.012L243.624 160.88C243.288 161.272 242.868 161.571 242.364 161.776C241.869 161.981 241.314 162.084 240.698 162.084ZM245.716 162V154.58H247.004V156.596L246.878 156.092C247.084 155.579 247.429 155.187 247.914 154.916C248.4 154.645 248.997 154.51 249.706 154.51V155.812C249.65 155.803 249.594 155.798 249.538 155.798C249.492 155.798 249.445 155.798 249.398 155.798C248.68 155.798 248.11 156.013 247.69 156.442C247.27 156.871 247.06 157.492 247.06 158.304V162H245.716ZM255.172 162V160.432L255.102 160.138V157.464C255.102 156.895 254.934 156.456 254.598 156.148C254.271 155.831 253.777 155.672 253.114 155.672C252.675 155.672 252.246 155.747 251.826 155.896C251.406 156.036 251.051 156.227 250.762 156.47L250.202 155.462C250.585 155.154 251.042 154.921 251.574 154.762C252.115 154.594 252.68 154.51 253.268 154.51C254.285 154.51 255.069 154.757 255.62 155.252C256.171 155.747 256.446 156.503 256.446 157.52V162H255.172ZM252.736 162.084C252.185 162.084 251.7 161.991 251.28 161.804C250.869 161.617 250.552 161.361 250.328 161.034C250.104 160.698 249.992 160.32 249.992 159.9C249.992 159.499 250.085 159.135 250.272 158.808C250.468 158.481 250.781 158.22 251.21 158.024C251.649 157.828 252.237 157.73 252.974 157.73H255.326V158.696H253.03C252.358 158.696 251.905 158.808 251.672 159.032C251.439 159.256 251.322 159.527 251.322 159.844C251.322 160.208 251.467 160.502 251.756 160.726C252.045 160.941 252.447 161.048 252.96 161.048C253.464 161.048 253.903 160.936 254.276 160.712C254.659 160.488 254.934 160.161 255.102 159.732L255.368 160.656C255.191 161.095 254.878 161.445 254.43 161.706C253.982 161.958 253.417 162.084 252.736 162.084ZM261.931 164.8C261.25 164.8 260.587 164.702 259.943 164.506C259.309 164.319 258.791 164.049 258.389 163.694L259.033 162.658C259.379 162.957 259.803 163.19 260.307 163.358C260.811 163.535 261.339 163.624 261.889 163.624C262.767 163.624 263.411 163.419 263.821 163.008C264.232 162.597 264.437 161.972 264.437 161.132V159.564L264.577 158.094L264.507 156.61V154.58H265.781V160.992C265.781 162.299 265.455 163.26 264.801 163.876C264.148 164.492 263.191 164.8 261.931 164.8ZM261.763 161.692C261.045 161.692 260.401 161.543 259.831 161.244C259.271 160.936 258.823 160.511 258.487 159.97C258.161 159.429 257.997 158.803 257.997 158.094C257.997 157.375 258.161 156.75 258.487 156.218C258.823 155.677 259.271 155.257 259.831 154.958C260.401 154.659 261.045 154.51 261.763 154.51C262.398 154.51 262.977 154.641 263.499 154.902C264.022 155.154 264.437 155.546 264.745 156.078C265.063 156.61 265.221 157.282 265.221 158.094C265.221 158.897 265.063 159.564 264.745 160.096C264.437 160.628 264.022 161.029 263.499 161.3C262.977 161.561 262.398 161.692 261.763 161.692ZM261.917 160.516C262.412 160.516 262.851 160.413 263.233 160.208C263.616 160.003 263.915 159.718 264.129 159.354C264.353 158.99 264.465 158.57 264.465 158.094C264.465 157.618 264.353 157.198 264.129 156.834C263.915 156.47 263.616 156.19 263.233 155.994C262.851 155.789 262.412 155.686 261.917 155.686C261.423 155.686 260.979 155.789 260.587 155.994C260.205 156.19 259.901 156.47 259.677 156.834C259.463 157.198 259.355 157.618 259.355 158.094C259.355 158.57 259.463 158.99 259.677 159.354C259.901 159.718 260.205 160.003 260.587 160.208C260.979 160.413 261.423 160.516 261.917 160.516ZM271.403 162.084C270.61 162.084 269.91 161.921 269.303 161.594C268.706 161.267 268.239 160.819 267.903 160.25C267.577 159.681 267.413 159.027 267.413 158.29C267.413 157.553 267.572 156.899 267.889 156.33C268.216 155.761 268.659 155.317 269.219 155C269.789 154.673 270.428 154.51 271.137 154.51C271.856 154.51 272.491 154.669 273.041 154.986C273.592 155.303 274.021 155.751 274.329 156.33C274.647 156.899 274.805 157.567 274.805 158.332C274.805 158.388 274.801 158.453 274.791 158.528C274.791 158.603 274.787 158.673 274.777 158.738H268.463V157.772H274.077L273.531 158.108C273.541 157.632 273.443 157.207 273.237 156.834C273.032 156.461 272.747 156.171 272.383 155.966C272.029 155.751 271.613 155.644 271.137 155.644C270.671 155.644 270.255 155.751 269.891 155.966C269.527 156.171 269.243 156.465 269.037 156.848C268.832 157.221 268.729 157.651 268.729 158.136V158.36C268.729 158.855 268.841 159.298 269.065 159.69C269.299 160.073 269.621 160.371 270.031 160.586C270.442 160.801 270.913 160.908 271.445 160.908C271.884 160.908 272.281 160.833 272.635 160.684C272.999 160.535 273.317 160.311 273.587 160.012L274.329 160.88C273.993 161.272 273.573 161.571 273.069 161.776C272.575 161.981 272.019 162.084 271.403 162.084ZM228.716 184.786L229.724 184.338C228.52 182.336 227.96 179.97 227.96 177.618C227.96 175.28 228.52 172.914 229.724 170.898L228.716 170.464C227.414 172.578 226.644 174.86 226.644 177.618C226.644 180.404 227.414 182.658 228.716 184.786ZM241.241 172.284C241.101 172.704 240.919 173.208 240.751 173.572L241.031 173.642H239.351L239.575 173.586C239.533 173.236 239.379 172.718 239.183 172.284H241.241ZM243.509 173.642H241.857C242.039 173.264 242.263 172.788 242.473 172.312L242.347 172.284H243.285V171.262H240.765V170.282H239.533V171.262H237.335V172.284H238.259L238.077 172.326C238.245 172.732 238.413 173.236 238.483 173.642H237.167V174.678H243.509V173.642ZM234.871 172.284C234.759 172.704 234.577 173.222 234.437 173.586L234.675 173.642H233.023L233.275 173.586C233.219 173.236 233.079 172.718 232.883 172.284H234.871ZM236.845 173.642H235.515C235.669 173.278 235.837 172.816 236.033 172.34L235.781 172.284H236.747V171.262H234.493V170.282H233.317V171.262H231.049V172.284H232.057L231.833 172.326C231.987 172.718 232.141 173.236 232.197 173.642H230.769V174.678H236.845V173.642ZM232.519 176.316H235.179V177.8H232.519V176.316ZM236.789 180.376C236.313 180.544 235.851 180.712 235.403 180.866V178.808H236.369V175.336H231.371V178.808H232.211C232.113 180.362 231.819 181.496 230.503 182.168C230.755 182.35 231.105 182.826 231.245 183.106C232.813 182.21 233.205 180.768 233.331 178.808H234.241V181.258L233.835 181.384L234.171 182.532C235.039 182.21 236.047 181.818 236.999 181.44L236.789 180.376ZM238.805 176.302H241.591V177.828H238.805V176.302ZM241.857 181.748C241.745 181.748 241.647 181.72 241.591 181.664C241.549 181.622 241.521 181.552 241.521 181.468V178.822H242.851V175.322H237.615V178.822H238.343C238.217 180.488 237.825 181.552 236.019 182.14C236.257 182.35 236.593 182.826 236.719 183.106C238.819 182.308 239.351 180.936 239.505 178.822H240.359V181.538C240.359 182.238 240.415 182.462 240.653 182.686C240.877 182.882 241.227 182.952 241.549 182.952H242.347C242.627 182.952 242.935 182.91 243.117 182.784C243.341 182.658 243.495 182.49 243.579 182.21C243.649 181.944 243.719 181.272 243.747 180.614C243.425 180.516 242.977 180.25 242.767 180.068C242.767 180.67 242.739 181.188 242.711 181.412C242.683 181.538 242.627 181.622 242.557 181.678C242.487 181.72 242.361 181.748 242.249 181.748H241.857ZM254.655 170.31C252.975 170.688 250.203 170.996 247.641 171.178L246.465 170.898C246.087 172.186 245.401 173.474 244.603 174.314C244.925 174.482 245.485 174.846 245.737 175.07C246.339 174.356 246.941 173.348 247.389 172.27C250.175 172.116 253.409 171.808 255.691 171.318L254.655 170.31ZM254.375 178.906H251.449V177.562H254.375V178.906ZM251.449 175.21H254.375V176.442H251.449V175.21ZM257.259 176.442H255.691V174.608C255.733 174.678 255.775 174.762 255.817 174.832L256.951 174.216C256.545 173.446 255.579 172.326 254.767 171.528L253.703 172.074C254.277 172.676 254.907 173.432 255.369 174.09H250.581L251.603 173.824C251.519 173.334 251.225 172.62 250.931 172.06L249.769 172.354C250.021 172.886 250.287 173.628 250.357 174.09H246.479V175.21H250.119V176.442H244.519V177.562H250.119V178.906H246.143V180.026H250.119V181.566C250.119 181.804 250.021 181.874 249.769 181.888C249.489 181.888 248.523 181.902 247.585 181.86C247.781 182.21 247.991 182.77 248.075 183.134C249.321 183.134 250.175 183.106 250.707 182.91C251.267 182.728 251.449 182.35 251.449 181.594V180.026H254.375V180.67H255.691V177.562H257.259V176.442ZM259.277 184.786C260.593 182.658 261.363 180.404 261.363 177.618C261.363 174.86 260.593 172.578 259.277 170.464L258.269 170.898C259.473 172.914 260.033 175.28 260.033 177.618C260.033 179.97 259.473 182.336 258.269 184.338L259.277 184.786Z" fill="white"/>
<path d="M17.0286 2.2V6.568H10.8966V2.2H9.86065V12H10.8966V7.478H17.0286V12H18.0506V2.2H17.0286ZM21.2933 3.026C21.7133 3.026 22.0213 2.704 22.0213 2.298C22.0213 1.92 21.6993 1.612 21.2933 1.612C20.8873 1.612 20.5653 1.934 20.5653 2.312C20.5653 2.704 20.8873 3.026 21.2933 3.026ZM20.7893 12H21.7833V4.636H20.7893V12ZM30.1651 4.636V6.05C29.5491 5.084 28.4851 4.58 27.2531 4.58C25.1531 4.58 23.5571 6.022 23.5571 8.136C23.5571 10.25 25.1531 11.72 27.2531 11.72C28.4571 11.72 29.5071 11.23 30.1231 10.292V11.23C30.1231 13.05 29.2691 13.904 27.4071 13.904C26.2731 13.904 25.2091 13.526 24.5091 12.896L24.0051 13.652C24.7751 14.38 26.0911 14.786 27.4351 14.786C29.8711 14.786 31.1171 13.638 31.1171 11.104V4.636H30.1651ZM27.3511 10.838C25.7271 10.838 24.5651 9.732 24.5651 8.136C24.5651 6.54 25.7271 5.448 27.3511 5.448C28.9751 5.448 30.1511 6.54 30.1511 8.136C30.1511 9.732 28.9751 10.838 27.3511 10.838ZM37.3987 4.58C36.1527 4.58 35.1867 5.07 34.6407 5.924V1.612H33.6467V12H34.6407V8.136C34.6407 6.456 35.6347 5.476 37.2167 5.476C38.6167 5.476 39.4287 6.274 39.4287 7.828V12H40.4227V7.73C40.4227 5.616 39.1907 4.58 37.3987 4.58Z" fill="#666666"/>
<path d="M12.596 292H19.12V291.104H13.632V282.2H12.596V292ZM23.2808 292.07C25.4368 292.07 27.0188 290.502 27.0188 288.318C27.0188 286.134 25.4368 284.58 23.2808 284.58C21.1248 284.58 19.5288 286.134 19.5288 288.318C19.5288 290.502 21.1248 292.07 23.2808 292.07ZM23.2808 291.188C21.7128 291.188 20.5368 290.04 20.5368 288.318C20.5368 286.596 21.7128 285.448 23.2808 285.448C24.8488 285.448 26.0108 286.596 26.0108 288.318C26.0108 290.04 24.8488 291.188 23.2808 291.188ZM38.491 284.636L36.153 290.894L33.801 284.636H32.947L30.581 290.894L28.271 284.636H27.319L30.091 292H31.029L33.353 285.966L35.677 292H36.615L39.401 284.636H38.491Z" fill="#666666"/>
<path d="M24.2318 30.9219L21.3668 34.3598C20.824 35.0111 21.2872 36 22.135 36H27.865C28.7128 36 29.176 35.0111 28.6332 34.3598L25.7682 30.9219C25.3684 30.4421 24.6316 30.4421 24.2318 30.9219Z" fill="#888888"/>
<line x1="25.5" y1="32" x2="25.5" y2="270" stroke="#888888"/>
<path d="M305.078 286.232L301.64 283.367C300.989 282.824 300 283.287 300 284.135L300 289.865C300 290.713 300.989 291.176 301.64 290.633L305.078 287.768C305.558 287.368 305.558 286.632 305.078 286.232Z" fill="#888888"/>
<line x1="300" y1="287.5" x2="52" y2="287.5" stroke="#888888"/>
<path d="M13.456 94.128C12.864 95.968 11.776 98.304 10.928 99.76L12.16 100.4C13.024 98.896 14.064 96.688 14.816 94.784L13.456 94.128ZM4.816 99.744C4.4 98.304 3.44 95.904 2.64 94.08L1.28 94.512C2.064 96.352 2.96 98.816 3.328 100.288L4.816 99.744ZM10.736 103.008L10.736 90.8H9.216L9.216 103.008H6.8L6.8 90.784H5.28L5.28 103.008H0.976L0.976 104.48H15.04V103.008H10.736ZM8.192 118.408C8.32 117.992 8.416 117.528 8.496 117.048L6.944 116.92C6.88 117.464 6.784 117.96 6.656 118.408H2.016V119.688H6.16C5.232 121.496 3.536 122.488 0.944 123C1.216 123.288 1.648 123.912 1.792 124.248C4.8 123.464 6.72 122.168 7.76 119.688H12.352C12.08 121.512 11.792 122.408 11.424 122.696C11.248 122.84 11.056 122.856 10.704 122.856C10.288 122.856 9.216 122.84 8.192 122.744C8.448 123.112 8.656 123.656 8.672 124.04C9.648 124.104 10.624 124.104 11.152 124.072C11.808 124.04 12.208 123.944 12.608 123.592C13.184 123.08 13.536 121.848 13.904 119.016C13.936 118.824 13.984 118.408 13.984 118.408H8.192ZM5.456 112.424H11.6C10.688 113.256 9.472 113.928 8.08 114.488C6.896 113.992 5.936 113.368 5.28 112.6L5.456 112.424ZM13.072 111.096L12.816 111.16H6.608C6.944 110.744 7.248 110.312 7.504 109.88L5.984 109.576C5.168 110.936 3.632 112.472 1.392 113.576C1.696 113.8 2.112 114.36 2.288 114.696C3.04 114.312 3.712 113.864 4.304 113.4C4.912 114.04 5.6 114.584 6.4 115.048C4.624 115.544 2.704 115.88 0.8 116.056C1.024 116.392 1.264 116.984 1.376 117.352C3.664 117.08 6 116.616 8.08 115.848C9.904 116.568 12.096 116.968 14.528 117.16C14.704 116.776 15.04 116.168 15.36 115.848C13.36 115.736 11.488 115.496 9.888 115.08C11.6 114.232 13.04 113.112 13.984 111.704L13.072 111.096ZM4.016 137.328V136.352H7.184V137.328H4.016ZM4.016 134.416H7.184V135.408H4.016V134.416ZM12.032 134.416V135.408H8.672V134.416H12.032ZM12.032 137.328H8.672V136.352H12.032V137.328ZM8.672 141.584V140.448H14.144V139.28H8.672L8.672 138.368H13.552V133.392H8.672V132.576H15.056V131.392H8.672V130.336C10.48 130.208 12.192 130.032 13.568 129.792L12.816 128.624C10.24 129.072 5.84 129.36 2.16 129.456C2.272 129.76 2.448 130.272 2.464 130.624C3.952 130.592 5.584 130.544 7.184 130.448V131.392H0.96L0.96 132.576H7.184V133.392H2.56L2.56 138.368H7.184V139.28H2.064L2.064 140.448H7.184L7.184 141.584H0.88L0.88 142.784H15.168V141.584H8.672ZM10.48 157.4C10.016 158.184 9.424 158.792 8.64 159.288C7.536 159.016 6.384 158.76 5.248 158.536C5.504 158.168 5.776 157.784 6.048 157.4H10.48ZM3.28 151.864H5.376L5.376 153.72H3.28V151.864ZM6.8 149.512H9.024L9.024 150.664H6.8V149.512ZM12.768 151.864V153.72H10.432V151.864H12.768ZM6.8 153.72L6.8 151.864H9.024V153.72H6.8ZM15.232 157.4V156.184H6.864C7.136 155.768 7.392 155.368 7.632 154.984L7.392 154.92H14.24V150.664H10.432L10.432 149.512H14.832V148.2H1.12L1.12 149.512H5.376V150.664H1.888L1.888 154.92H5.968C5.728 155.32 5.44 155.752 5.152 156.184H0.784L0.784 157.4H4.32C3.776 158.184 3.232 158.92 2.784 159.496L4.208 159.96L4.464 159.608C5.248 159.784 6.016 159.944 6.768 160.136C5.264 160.616 3.376 160.856 1.04 160.968C1.28 161.288 1.504 161.832 1.6 162.264C4.72 162.024 7.104 161.576 8.896 160.68C10.832 161.208 12.544 161.784 13.84 162.312L14.72 161.096C13.568 160.664 12.048 160.184 10.368 159.736C11.104 159.112 11.696 158.344 12.144 157.4H15.232ZM1.584 174.112C1.968 172.928 2.256 171.072 2.336 169.76L1.264 169.6C1.152 170.896 0.848 172.656 0.464 173.728L1.584 174.112ZM11.328 179.312V175.68H14.432V174.288H11.328L11.328 171.28H14.784V169.872H11.328V166.64H9.84V169.872H8.16C8.352 169.12 8.528 168.336 8.64 167.536L7.184 167.296C6.976 168.8 6.624 170.304 6.128 171.552C5.936 170.88 5.488 169.904 5.088 169.152L4.144 169.536L4.144 166.576H2.656L2.656 181.248H4.144L4.144 169.776C4.544 170.624 4.96 171.648 5.104 172.288L6 171.856C5.824 172.272 5.616 172.64 5.408 172.96C5.776 173.104 6.432 173.44 6.736 173.648C7.104 172.992 7.456 172.176 7.76 171.28H9.84L9.84 174.288H6.592L6.592 175.68H9.84V179.312H5.392L5.392 180.72H15.2V179.312H11.328Z" fill="#666666"/>
<path d="M127.81 301.92H126.642V306.08C126.642 308.048 126.466 310.768 123.874 312.32C124.13 312.544 124.53 312.944 124.69 313.2C127.442 311.36 127.81 308.384 127.81 306.096V301.92ZM127.394 310.16C128.178 311.056 129.122 312.256 129.586 313.008L130.61 312.208C130.146 311.488 129.138 310.304 128.386 309.472L127.394 310.16ZM136.194 309.456C135.986 308.48 135.458 306.864 134.946 305.632L133.906 305.968C134.13 306.544 134.354 307.2 134.546 307.84L132.338 308.272C132.946 306.976 133.522 305.376 133.906 303.888L132.546 303.52C132.242 305.28 131.522 307.248 131.282 307.744C131.058 308.288 130.85 308.624 130.594 308.688C130.754 309.04 130.962 309.68 131.042 309.952C131.346 309.776 131.842 309.6 134.866 308.96C134.962 309.312 135.01 309.6 135.058 309.872L136.194 309.456ZM132.962 301.024C133.218 300.336 133.442 299.616 133.634 298.896L132.21 298.576C131.746 300.544 130.946 302.512 129.922 303.776V299.488H124.498V309.12H125.65V300.816H128.738V309.056H129.922V303.872C130.258 304.112 130.818 304.544 131.058 304.768C131.538 304.112 132.002 303.296 132.402 302.384H136.738C136.594 308.64 136.402 311.04 135.97 311.536C135.794 311.776 135.634 311.824 135.378 311.808C135.026 311.808 134.306 311.808 133.49 311.744C133.746 312.16 133.906 312.8 133.938 313.232C134.722 313.264 135.506 313.28 136.018 313.2C136.546 313.12 136.898 312.96 137.25 312.464C137.826 311.68 137.986 309.168 138.178 301.76C138.194 301.552 138.194 301.024 138.194 301.024H132.962ZM151.928 303.648C152.616 302.688 153.384 301.216 153.976 299.888L152.888 299.44L152.632 299.52H152.36V299.536H140.776V300.928H151.88C151.512 301.712 151.096 302.48 150.712 303.056L151.928 303.648ZM146.408 303.328C145.704 302.8 144.296 302.096 143.24 301.664L142.44 302.656C143.512 303.136 144.888 303.92 145.56 304.464L146.408 303.328ZM144.52 305.52C143.848 304.992 142.504 304.336 141.48 303.952L140.664 304.928C141.704 305.376 143.032 306.096 143.688 306.608L144.52 305.52ZM147.432 310.24C149.512 311.12 151.672 312.32 152.952 313.248L153.912 312.08C152.568 311.184 150.296 310.032 148.2 309.184L147.432 310.24ZM147.144 301.744C147.096 303.84 147.048 305.584 146.696 307.008H140.12V308.384H146.2C145.304 310.192 143.512 311.344 139.816 312.032C140.104 312.352 140.472 312.912 140.584 313.296C144.936 312.416 146.872 310.816 147.784 308.384H153.976V307.008H148.184C148.504 305.52 148.584 303.776 148.632 301.744H147.144ZM159.374 303.36C160.75 302.272 161.918 301.088 162.686 300C163.518 301.12 164.766 302.304 166.158 303.36H159.374ZM163.454 307.856H168.67V306.576H163.454V304.672H166.702V303.76C167.55 304.368 168.414 304.912 169.262 305.344C169.518 304.912 169.87 304.4 170.222 304.016C167.742 302.944 165.07 300.88 163.374 298.544H161.854C160.654 300.512 158.046 302.864 155.326 304.208C155.646 304.512 156.078 305.072 156.254 305.408C157.118 304.944 157.95 304.416 158.75 303.84V304.672H161.886V306.576H156.782V307.856H161.886V311.488H156.014V312.784H169.502V311.488H163.454V307.856ZM157.95 308.576C158.558 309.456 159.166 310.656 159.358 311.424L160.654 310.848C160.43 310.08 159.79 308.944 159.166 308.096L157.95 308.576ZM165.614 311.424C166.206 310.704 166.926 309.616 167.55 308.608L166.126 308.08C165.742 308.96 165.054 310.176 164.51 310.928L165.614 311.424ZM178.948 302.32V309.776H180.196V303.488H183.908V309.728H185.188V302.32H182.26C182.452 301.872 182.644 301.328 182.852 300.8H185.732V299.504H178.74V300.8H181.524C181.364 301.296 181.156 301.872 180.98 302.32H178.948ZM172.724 301.328H177.124V302.672H178.468V300.128H175.972C175.78 299.68 175.46 299.088 175.204 298.64L173.828 298.944C174.02 299.296 174.212 299.728 174.388 300.128H171.428V302.672H172.724V301.328ZM176.276 309.44V311.488H173.828V309.44H176.276ZM178.676 307.216C178.068 306.832 177.172 306.352 176.228 305.84C176.98 305.104 177.604 304.256 178.036 303.28L177.252 302.736L176.996 302.784H174.692C174.868 302.512 175.012 302.24 175.14 301.968L173.828 301.712C173.348 302.72 172.436 303.92 171.092 304.784C171.348 304.96 171.748 305.424 171.94 305.728C172.724 305.168 173.348 304.56 173.876 303.92H176.18C175.86 304.384 175.46 304.832 175.012 305.216C174.58 305.008 174.18 304.8 173.796 304.624L172.836 305.504C173.156 305.68 173.508 305.856 173.876 306.048C173.028 306.576 172.1 307.008 171.14 307.28C171.332 307.568 171.604 308.256 171.684 308.64C171.972 308.56 172.228 308.448 172.516 308.32V313.12H173.828V312.672H176.276V313.12H177.636V308.272H172.628C173.54 307.888 174.388 307.36 175.188 306.768C176.148 307.296 177.06 307.84 177.636 308.24L178.676 307.216ZM181.46 304.24C181.396 308.992 181.22 311.088 177.748 312.288C178.004 312.528 178.356 313.008 178.5 313.344C182.324 311.952 182.66 309.408 182.74 304.24H181.46ZM182.276 310.768C183.268 311.504 184.58 312.576 185.22 313.248L186.02 312.192C185.38 311.552 184.036 310.544 183.06 309.84L182.276 310.768ZM190.266 307.328V306.352H193.434V307.328H190.266ZM190.266 304.416H193.434V305.408H190.266V304.416ZM198.282 304.416V305.408H194.922V304.416H198.282ZM198.282 307.328H194.922V306.352H198.282V307.328ZM194.922 311.584V310.448H200.394V309.28H194.922V308.368H199.802V303.392H194.922V302.576H201.306V301.392H194.922V300.336C196.73 300.208 198.442 300.032 199.818 299.792L199.066 298.624C196.49 299.072 192.09 299.36 188.41 299.456C188.522 299.76 188.698 300.272 188.714 300.624C190.202 300.592 191.834 300.544 193.434 300.448V301.392H187.21V302.576H193.434V303.392H188.81V308.368H193.434V309.28H188.314V310.448H193.434V311.584H187.13V312.784H201.418V311.584H194.922ZM212.48 308.4C212.016 309.184 211.424 309.792 210.64 310.288C209.536 310.016 208.384 309.76 207.248 309.536C207.504 309.168 207.776 308.784 208.048 308.4H212.48ZM205.28 302.864H207.376V304.72H205.28V302.864ZM208.8 300.512H211.024V301.664H208.8V300.512ZM214.768 302.864V304.72H212.432V302.864H214.768ZM208.8 304.72V302.864H211.024V304.72H208.8ZM217.232 308.4V307.184H208.864C209.136 306.768 209.392 306.368 209.632 305.984L209.392 305.92H216.24V301.664H212.432V300.512H216.832V299.2H203.12V300.512H207.376V301.664H203.888V305.92H207.968C207.728 306.32 207.44 306.752 207.152 307.184H202.784V308.4H206.32C205.776 309.184 205.232 309.92 204.784 310.496L206.208 310.96L206.464 310.608C207.248 310.784 208.016 310.944 208.768 311.136C207.264 311.616 205.376 311.856 203.04 311.968C203.28 312.288 203.504 312.832 203.6 313.264C206.72 313.024 209.104 312.576 210.896 311.68C212.832 312.208 214.544 312.784 215.84 313.312L216.72 312.096C215.568 311.664 214.048 311.184 212.368 310.736C213.104 310.112 213.696 309.344 214.144 308.4H217.232ZM221.11 301.408H232.822V300.08H226.998V298.576H225.446V300.08H219.686V304.592C219.686 306.912 219.574 310.16 218.278 312.432C218.598 312.576 219.222 313.008 219.494 313.248C220.886 310.816 221.11 307.104 221.11 304.592V301.408ZM228.806 304.224V305.632H225.35V304.224H228.806ZM230.262 306.784V304.224H232.71V303.008H230.262V301.792H228.806V303.008H225.35V301.792H223.942V303.008H221.574V304.224H223.942V306.784H230.262ZM229.59 308.816C228.982 309.52 228.166 310.08 227.222 310.544C226.262 310.08 225.478 309.504 224.902 308.816H229.59ZM230.838 307.568L230.566 307.616H221.75V308.816H224.198L223.478 309.088C224.07 309.888 224.806 310.576 225.686 311.152C224.294 311.6 222.726 311.872 221.11 312.032C221.35 312.336 221.622 312.912 221.734 313.28C223.686 313.04 225.558 312.64 227.174 311.968C228.646 312.624 230.358 313.056 232.246 313.296C232.422 312.912 232.806 312.32 233.11 312.016C231.526 311.856 230.054 311.584 228.774 311.168C230.038 310.4 231.078 309.392 231.75 308.064L230.838 307.568Z" fill="#666666"/>
</svg>
