<svg width="1200" height="979" viewBox="0 0 1200 979" fill="none" xmlns="http://www.w3.org/2000/svg">
<rect width="1200" height="979" fill="white" fill-opacity="0.5"/>
<path d="M319.999 944.655L320 30" stroke="#DDDDDD" stroke-linecap="round" stroke-linejoin="round" stroke-dasharray="2 4"/>
<path d="M699.999 927.397L700 30" stroke="#DDDDDD" stroke-linecap="round" stroke-linejoin="round" stroke-dasharray="2 4"/>
<path d="M446 219.834L446 148.646" stroke="#7094F0" stroke-linecap="round" stroke-linejoin="round" stroke-dasharray="2 4"/>
<path d="M446.8 223.933L450.8 218.6C451.294 217.941 450.824 217 450 217L442 217C441.175 217 440.705 217.941 441.2 218.6L445.2 223.933C445.6 224.467 446.4 224.467 446.8 223.933Z" fill="#7094F0"/>
<path d="M446 455L446 384" stroke="#7094F0" stroke-linecap="round" stroke-linejoin="round" stroke-dasharray="2 4"/>
<path d="M446 553.122L446 481.935" stroke="#7094F0" stroke-linecap="round" stroke-linejoin="round" stroke-dasharray="2 4"/>
<path d="M446.8 460.375L450.8 455.041C451.294 454.382 450.824 453.441 450 453.441L442 453.441C441.175 453.441 440.705 454.382 441.2 455.041L445.2 460.375C445.6 460.908 446.4 460.908 446.8 460.375Z" fill="#7094F0"/>
<path d="M446.8 557.933L450.8 552.6C451.294 551.941 450.824 551 450 551L442 551C441.175 551 440.705 551.941 441.2 552.6L445.2 557.933C445.6 558.467 446.4 558.467 446.8 557.933Z" fill="#7094F0"/>
<path d="M502.999 143H721.999" stroke="#7094F0" stroke-linecap="round" stroke-linejoin="round" stroke-dasharray="2 4"/>
<rect x="740" y="116" width="360" height="54" rx="10" fill="#283895"/>
<path d="M799.975 196.656H797.863V204.08H799.975V196.656ZM796.791 202.256C794.407 201.552 793.351 199.84 793.351 198.096V196.992H791.207V198.096C791.207 199.888 790.135 201.744 787.687 202.496L788.711 204.144C790.439 203.616 791.639 202.496 792.311 201.104C792.967 202.384 794.103 203.408 795.783 203.904L796.791 202.256ZM792.279 209.632V208.72H799.991V204.736H790.167V206.352H797.895V207.216H790.183V211.264H800.359V209.632H792.279ZM807.643 197.776H805.515V199.92C805.515 202.656 804.395 205.472 801.915 206.64L803.179 208.352C804.843 207.536 805.947 205.984 806.587 204.112C807.195 205.872 808.235 207.296 809.771 208.08L811.051 206.416C808.683 205.248 807.643 202.576 807.643 199.92V197.776ZM815.899 202.304H813.755V196.64H811.643V211.376H813.755V204.064H815.899V202.304ZM831.065 196.624V211.408H833.177V196.624H831.065ZM821.689 197.808V207.968H828.953V197.808H826.857V201.376H823.785V197.808H821.689ZM823.785 203.024H826.857V206.288H823.785V203.024ZM837.934 200.048H841.31V198.336H835.854V208.064H836.878C838.766 208.064 840.334 208 842.126 207.664L841.966 205.952C840.558 206.208 839.31 206.288 837.934 206.32V200.048ZM846.078 196.624V202.304H844.75V196.912H842.782V210.688H844.75V204H846.078V211.376H848.078V196.624H846.078ZM858.595 203.168C856.275 202.448 855.283 200.72 855.283 198.944V197.44H853.139V198.768C853.139 200.768 852.147 202.736 849.683 203.552L850.787 205.216C852.467 204.624 853.603 203.488 854.243 202.048C854.867 203.296 855.939 204.288 857.491 204.8L858.595 203.168ZM856.691 209.744C854.803 209.744 853.795 209.36 853.795 208.528C853.795 207.712 854.803 207.328 856.691 207.328C858.563 207.328 859.571 207.712 859.571 208.528C859.571 209.36 858.563 209.744 856.691 209.744ZM856.691 205.696C853.619 205.696 851.699 206.752 851.699 208.528C851.699 210.32 853.619 211.376 856.691 211.376C859.747 211.376 861.667 210.32 861.667 208.528C861.667 206.752 859.747 205.696 856.691 205.696ZM861.507 200.064V196.656H859.395V205.36H861.507V201.808H863.459V200.064H861.507Z" fill="#222222"/>
<path d="M786.656 228.648H790.704V227.576H785.36V236.648H786.304C788.448 236.648 789.904 236.584 791.616 236.216L791.504 235.128C789.936 235.464 788.576 235.544 786.656 235.56V228.648ZM795.776 225.832V231.592H793.744V226.152H792.512V239.464H793.744V232.664H795.776V240.184H797.04V225.832H795.776ZM800.165 227.384V228.44H805.557C805.285 231.848 803.365 234.6 799.509 236.44L800.213 237.512C804.981 235.176 806.885 231.528 806.885 227.384H800.165ZM809.781 225.832V240.184H811.093V225.832H809.781ZM824.298 238.936H817.722V237.08H824.298V238.936ZM824.298 236.056H817.722V234.232H816.426V239.992H825.61V234.232H824.298V236.056ZM817.706 232.056C816.282 232.056 815.258 231.128 815.258 229.816C815.258 228.504 816.282 227.592 817.706 227.592C819.13 227.592 820.154 228.504 820.154 229.816C820.154 231.128 819.13 232.056 817.706 232.056ZM824.282 225.848V229.256H821.354C821.082 227.592 819.642 226.504 817.706 226.504C815.562 226.504 814.01 227.848 814.01 229.816C814.01 231.8 815.562 233.144 817.706 233.144C819.674 233.144 821.114 232.024 821.37 230.328H824.282V233.544H825.61V225.848H824.282ZM828.606 242.04C830.046 241.432 830.942 240.232 830.942 238.696C830.942 237.624 830.478 236.968 829.71 236.968C829.118 236.968 828.606 237.368 828.606 237.992C828.606 238.664 829.118 239.016 829.678 239.016C829.742 239.016 829.79 239.016 829.854 239C829.854 239.944 829.262 240.728 828.254 241.176L828.606 242.04ZM843.322 231.96C843.69 230.072 843.69 228.648 843.69 227.704V226.952H836.554V228.024H842.41C842.41 228.936 842.362 230.168 842.026 231.816L843.322 231.96ZM844.682 232.824C843.226 233.016 841.594 233.144 840.026 233.208V230.152H838.73V233.256C837.642 233.272 836.602 233.288 835.69 233.288L835.818 234.36C838.362 234.36 841.802 234.28 844.778 233.784L844.682 232.824ZM839.194 235.656H837.882V239.864H847.418V238.792H839.194V235.656ZM846.954 230.504V225.832H845.642V236.648H846.954V231.592H849.002V230.504H846.954ZM858.318 229.832H856.19C856.318 229.112 856.382 228.392 856.382 227.656H850.878V228.728H855.086C854.862 231.736 853.326 234.312 850.238 236.152L851.006 237.08C853.726 235.464 855.278 233.304 855.95 230.888H858.318V233.416H855.726V234.488H858.318V239.448H859.566V226.216H858.318V229.832ZM861.198 225.832V240.168H862.446V225.832H861.198ZM869.539 227.08H868.243V229.656C868.243 232.264 866.611 235.016 864.547 236.072L865.331 237.128C866.947 236.264 868.275 234.472 868.899 232.376C869.555 234.344 870.851 236.024 872.371 236.84L873.187 235.8C871.171 234.792 869.539 232.184 869.539 229.656V227.08ZM878.131 231.656H875.763V225.848H874.451V240.184H875.763V232.744H878.131V231.656ZM879.544 242.04C880.984 241.432 881.88 240.232 881.88 238.696C881.88 237.624 881.416 236.968 880.648 236.968C880.056 236.968 879.544 237.368 879.544 237.992C879.544 238.664 880.056 239.016 880.616 239.016C880.68 239.016 880.728 239.016 880.792 239C880.792 239.944 880.2 240.728 879.192 241.176L879.544 242.04ZM793.136 258.584C791.072 257.88 789.664 256.088 789.664 254.152V252.568H788.352V254.04C788.352 256.232 786.96 258.184 784.784 258.968L785.472 260.008C787.152 259.368 788.432 258.056 789.024 256.376C789.664 257.848 790.896 259.032 792.448 259.608L793.136 258.584ZM791.424 265.144C789.296 265.144 788 264.552 788 263.56C788 262.552 789.296 261.96 791.424 261.96C793.536 261.96 794.832 262.552 794.832 263.56C794.832 264.552 793.536 265.144 791.424 265.144ZM791.424 260.936C788.496 260.936 786.688 261.88 786.688 263.56C786.688 265.224 788.496 266.168 791.424 266.168C794.336 266.168 796.144 265.224 796.144 263.56C796.144 261.88 794.336 260.936 791.424 260.936ZM795.984 255.544V251.848H794.672V260.536H795.984V256.632H798.112V255.544H795.984ZM804.133 253.08H802.837V255.656C802.837 258.264 801.205 261.016 799.141 262.072L799.925 263.128C801.541 262.264 802.869 260.472 803.493 258.376C804.149 260.344 805.445 262.024 806.965 262.84L807.781 261.8C805.765 260.792 804.133 258.184 804.133 255.656V253.08ZM812.725 257.656H810.357V251.848H809.045V266.184H810.357V258.744H812.725V257.656ZM813.114 267.864H814.186L818.97 252.296H817.914L813.114 267.864ZM821.609 254.648H825.657V253.576H820.313V262.648H821.257C823.401 262.648 824.857 262.584 826.569 262.216L826.457 261.128C824.889 261.464 823.529 261.544 821.609 261.56V254.648ZM830.729 251.832V257.592H828.697V252.152H827.465V265.464H828.697V258.664H830.729V266.184H831.993V251.832H830.729ZM836.414 258.28H841.71V253.16H835.054V254.232H840.382V257.224H835.102V262.728H836.286C838.75 262.728 840.926 262.632 843.518 262.2L843.39 261.128C840.878 261.528 838.766 261.64 836.414 261.64V258.28ZM844.734 251.816V266.2H846.046V251.816H844.734ZM857.203 258.744C855.123 258.008 853.715 256.216 853.715 254.344V253.816H856.867V252.744H849.203V253.816H852.403V254.36C852.403 256.392 850.915 258.296 848.787 259.064L849.475 260.088C851.155 259.48 852.467 258.168 853.091 256.52C853.715 257.992 854.947 259.192 856.547 259.768L857.203 258.744ZM852.515 261.976H859.283V264.936H852.515V261.976ZM851.235 265.992H860.563V260.936H851.235V265.992ZM859.235 251.832V255.432H856.403V256.52H859.235V260.232H860.563V251.832H859.235ZM863.805 253.384V254.44H869.197C868.925 257.848 867.005 260.6 863.149 262.44L863.853 263.512C868.621 261.176 870.525 257.528 870.525 253.384H863.805ZM873.421 251.832V266.184H874.733V251.832H873.421ZM887.922 260.328H889.25V251.848H887.922V254.888H884.802V255.96H887.922V260.328ZM885.842 258.632C883.746 257.896 882.354 256.12 882.354 254.072V252.648H881.042V254.12C881.042 256.312 879.618 258.232 877.41 259.016L878.098 260.088C879.826 259.432 881.122 258.136 881.73 256.44C882.354 257.928 883.57 259.064 885.138 259.656L885.842 258.632ZM884.514 265.128C882.354 265.128 881.042 264.504 881.042 263.464C881.042 262.408 882.354 261.784 884.514 261.784C886.674 261.784 887.986 262.408 887.986 263.464C887.986 264.504 886.674 265.128 884.514 265.128ZM884.514 260.76C881.57 260.76 879.73 261.736 879.73 263.464C879.73 265.176 881.57 266.168 884.514 266.168C887.458 266.168 889.298 265.176 889.298 263.464C889.298 261.736 887.458 260.76 884.514 260.76ZM900.151 256.36H896.583V253.352H900.151V256.36ZM895.271 256.36H893.159V257.416H903.575V256.36H901.463V253.352H903.639V252.296H893.111V253.352H895.271V256.36ZM902.007 264.936H894.775V262.552H902.007V264.936ZM904.871 259.832V258.776H891.895V259.832H897.735V261.512H893.495V265.992H903.287V261.512H899.047V259.832H904.871ZM920.188 259.256H921.516V251.848H920.188V254.44H917.068V255.512H920.188V259.256ZM918.076 257.928C916.012 257.24 914.556 255.496 914.556 253.624V252.296H913.26V253.624C913.26 255.704 911.836 257.512 909.676 258.248L910.364 259.288C912.044 258.664 913.34 257.416 913.948 255.8C914.572 257.256 915.82 258.392 917.404 258.952L918.076 257.928ZM913.596 264.952V263.416H921.516V259.976H912.268V261.016H920.22V262.424H912.3V265.992H922.06V264.952H913.596ZM934.593 251.832V266.2H935.905V251.832H934.593ZM924.977 253.048V262.728H931.729V253.048H930.433V256.84H926.273V253.048H924.977ZM926.273 257.88H930.433V261.656H926.273V257.88ZM949.141 264.936H942.565V263.08H949.141V264.936ZM949.141 262.056H942.565V260.232H941.269V265.992H950.453V260.232H949.141V262.056ZM942.549 258.056C941.125 258.056 940.101 257.128 940.101 255.816C940.101 254.504 941.125 253.592 942.549 253.592C943.973 253.592 944.997 254.504 944.997 255.816C944.997 257.128 943.973 258.056 942.549 258.056ZM949.125 251.848V255.256H946.197C945.925 253.592 944.485 252.504 942.549 252.504C940.405 252.504 938.853 253.848 938.853 255.816C938.853 257.8 940.405 259.144 942.549 259.144C944.517 259.144 945.957 258.024 946.213 256.328H949.125V259.544H950.453V251.848H949.125ZM957.274 255.56H959.93V254.472H957.29V252.344H956.026V254.472H953.37V255.56H956.026V256.248C956.026 258.6 954.922 261.112 952.986 262.264L953.754 263.24C955.162 262.392 956.17 260.792 956.666 258.968C957.194 260.696 958.218 262.152 959.61 262.936L960.362 261.944C958.426 260.904 957.274 258.536 957.274 256.248V255.56ZM961.146 257.496H958.954V258.584H961.146V265.432H962.394V252.168H961.146V257.496ZM964.026 251.832V266.168H965.29V251.832H964.026ZM967.919 268.04C969.359 267.432 970.255 266.232 970.255 264.696C970.255 263.624 969.791 262.968 969.023 262.968C968.431 262.968 967.919 263.368 967.919 263.992C967.919 264.664 968.431 265.016 968.991 265.016C969.055 265.016 969.103 265.016 969.167 265C969.167 265.944 968.575 266.728 967.567 267.176L967.919 268.04ZM792.368 286.312V287.288H795.28V288.76H796.592V277.832H795.28V286.312H792.368ZM789.44 279.384C790.8 279.384 791.728 279.992 791.728 280.904C791.728 281.832 790.8 282.44 789.44 282.44C788.08 282.44 787.152 281.832 787.152 280.904C787.152 279.992 788.08 279.384 789.44 279.384ZM789.44 283.416C791.536 283.416 792.976 282.44 792.976 280.904C792.976 279.4 791.536 278.408 789.44 278.408C787.344 278.408 785.904 279.4 785.904 280.904C785.904 282.44 787.344 283.416 789.44 283.416ZM788.928 288.248H790.24V285.416C791.536 285.336 792.864 285.192 794.128 285L794.016 284.056C790.976 284.44 787.424 284.472 784.768 284.472L784.944 285.56C786.128 285.56 787.504 285.544 788.928 285.48V288.248ZM788.128 290.792V287.688H786.816V291.864H796.96V290.792H788.128ZM804.245 286.616H807.525V289.336H804.245V286.616ZM808.821 289.336V286.616H811.061V285.544H802.229V283.24H810.725V278.888H800.901V279.96H809.445V282.184H800.933V286.616H802.949V289.336H799.301V290.408H812.341V289.336H808.821ZM824.314 284.488C822.458 283.768 821.386 282.152 821.386 280.552V278.664H820.122V280.552C820.122 282.168 819.002 284.024 817.13 284.856L817.834 285.864C819.226 285.256 820.25 284.04 820.762 282.696C821.274 283.912 822.25 284.936 823.594 285.464L824.314 284.488ZM821.082 288.008H827.946V290.936H821.082V288.008ZM819.802 291.992H829.226V286.968H819.802V291.992ZM827.962 277.848V281.432H826.138V278.104H824.89V286.04H826.138V282.504H827.962V286.248H829.226V277.848H827.962ZM839.838 282.024H836.27V279.288H839.838V282.024ZM834.958 282.024H832.83V283.032H843.262V282.024H841.15V279.288H843.31V278.28H832.782V279.288H834.958V282.024ZM834.462 289.688H842.894V286.536H833.134V287.512H841.598V288.744H833.182V292.024H843.326V291.032H834.462V289.688ZM831.566 284.232V285.272H844.558V284.232H831.566ZM862.371 284.936H860.243C860.643 282.872 860.643 281.352 860.643 280.008V278.76H851.011V279.816H859.363V280.008C859.363 281.352 859.363 282.872 858.915 284.936H849.395V286.008H855.187V292.2H856.515V286.008H862.371V284.936ZM865.592 280.536H868.6V287.288H865.592V280.536ZM864.36 288.328H869.816V279.496H864.36V288.328ZM874.792 277.832V283.512H872.856V278.152H871.624V291.464H872.856V284.584H874.792V292.168H876.04V277.832H874.792Z" fill="#666666"/>
<rect x="740" y="353" width="360" height="54" rx="10" fill="#283895"/>
<rect x="100" y="116" width="180" height="78" rx="10" fill="#7094F0"/>
<rect x="360" y="116" width="170" height="54" rx="10" fill="#435CE7"/>
<path d="M421.062 137.446H419.19V140.128C419.19 143.17 417.606 146.302 415.068 147.544L416.238 149.02C418.092 148.066 419.424 146.176 420.144 143.872C420.846 146.05 422.16 147.832 423.996 148.75L425.094 147.256C422.61 146.104 421.062 143.152 421.062 140.128V137.446ZM426.804 136.096V141.442H423.33V142.954H426.804V152.404H428.676V136.096H426.804ZM437.91 143.782H434.004V138.958H437.91V143.782ZM443.094 140.362V142.342H439.71V140.362H443.094ZM439.71 143.836H443.094V147.994H444.948V136.132H443.094V138.85H439.71V137.482H432.186V145.258H439.71V143.836ZM436.236 150.568V146.914H434.364V152.08H445.326V150.568H436.236ZM459.403 146.122H461.257V136.132H459.403V138.904H457.045V140.398H459.403V141.874H457.045V143.368H459.403V146.122ZM451.483 138.796H453.553V143.692C452.851 143.728 452.167 143.746 451.483 143.764V138.796ZM457.171 143.404C456.577 143.476 455.965 143.53 455.335 143.566V138.796H456.793V137.284H448.225V138.796H449.701V143.8C449.035 143.8 448.387 143.8 447.793 143.8L448.009 145.33C450.619 145.33 454.219 145.276 457.279 144.754L457.171 143.404ZM455.839 150.964C453.517 150.964 452.221 150.406 452.221 149.416C452.221 148.39 453.517 147.85 455.839 147.85C458.161 147.85 459.475 148.39 459.475 149.416C459.475 150.406 458.161 150.964 455.839 150.964ZM455.839 146.41C452.437 146.41 450.367 147.508 450.367 149.416C450.367 151.288 452.437 152.386 455.839 152.386C459.241 152.386 461.329 151.288 461.329 149.416C461.329 147.508 459.241 146.41 455.839 146.41ZM464.894 137.842V139.354H470.582C470.204 143.098 468.062 145.96 464.084 147.994L465.11 149.416C470.42 146.734 472.436 142.558 472.436 137.842H464.894ZM479.15 142.54H476.684V136.114H474.83V152.368H476.684V144.088H479.15V142.54Z" fill="white"/>
<path d="M901.19 141.509H891.848V138.809H901.082V137.315H890.012V143.003H901.19V141.509ZM895.484 151.571C893.108 151.571 891.776 151.049 891.776 150.041C891.776 149.051 893.108 148.511 895.484 148.511C897.86 148.511 899.21 149.051 899.21 150.041C899.21 151.049 897.86 151.571 895.484 151.571ZM895.484 147.089C892.01 147.089 889.886 148.169 889.886 150.041C889.886 151.931 892.01 153.011 895.484 153.011C898.976 153.011 901.082 151.931 901.082 150.041C901.082 148.169 898.976 147.089 895.484 147.089ZM888.194 144.353V145.883H902.882V144.353H888.194ZM906.122 149.681H915.59V152.921H917.444V148.187H906.122V149.681ZM912.764 145.595V144.119H917.678V142.697H908.174V141.257H917.354V137.135H906.32V138.557H915.518V139.925H906.356V144.119H910.91V145.595H904.466V147.089H919.208V145.595H912.764ZM922.161 143.399C925.023 143.093 927.255 141.941 928.137 140.267C929.001 141.941 931.233 143.093 934.095 143.399L934.761 141.959C931.737 141.653 929.649 140.393 929.397 138.953H934.149V137.459H922.143V138.953H926.859C926.589 140.393 924.519 141.653 921.513 141.959L922.161 143.399ZM928.101 151.589C925.707 151.589 924.393 151.121 924.393 150.167C924.393 149.231 925.707 148.745 928.101 148.745C930.495 148.745 931.827 149.231 931.827 150.167C931.827 151.121 930.495 151.589 928.101 151.589ZM928.101 147.323C924.609 147.323 922.503 148.349 922.503 150.167C922.503 151.985 924.609 153.011 928.101 153.011C931.611 153.011 933.699 151.985 933.699 150.167C933.699 148.349 931.611 147.323 928.101 147.323ZM929.037 144.713V142.535H927.183V144.713H920.775V146.207H935.481V144.713H929.037ZM942.88 146.765H946.21V149.573H942.88V146.765ZM948.046 149.573V146.765H950.44V145.271H940.702V143.021H950.08V137.891H938.848V139.385H948.244V141.545H938.884V146.765H941.044V149.573H937.102V151.103H951.826V149.573H948.046Z" fill="white"/>
<path d="M900.762 378.801H891.42V376.101H900.654V374.607H889.584V380.295H900.762V378.801ZM895.056 388.863C892.68 388.863 891.348 388.341 891.348 387.333C891.348 386.343 892.68 385.803 895.056 385.803C897.432 385.803 898.782 386.343 898.782 387.333C898.782 388.341 897.432 388.863 895.056 388.863ZM895.056 384.381C891.582 384.381 889.458 385.461 889.458 387.333C889.458 389.223 891.582 390.303 895.056 390.303C898.548 390.303 900.654 389.223 900.654 387.333C900.654 385.461 898.548 384.381 895.056 384.381ZM887.766 381.645V383.175H902.454V381.645H887.766ZM905.695 386.973H915.163V390.213H917.017V385.479H905.695V386.973ZM912.337 382.887V381.411H917.251V379.989H907.747V378.549H916.927V374.427H905.893V375.849H915.091V377.217H905.929V381.411H910.483V382.887H904.039V384.381H918.781V382.887H912.337ZM921.733 380.691C924.595 380.385 926.827 379.233 927.709 377.559C928.573 379.233 930.805 380.385 933.667 380.691L934.333 379.251C931.309 378.945 929.221 377.685 928.969 376.245H933.721V374.751H921.715V376.245H926.431C926.161 377.685 924.091 378.945 921.085 379.251L921.733 380.691ZM927.673 388.881C925.279 388.881 923.965 388.413 923.965 387.459C923.965 386.523 925.279 386.037 927.673 386.037C930.067 386.037 931.399 386.523 931.399 387.459C931.399 388.413 930.067 388.881 927.673 388.881ZM927.673 384.615C924.181 384.615 922.075 385.641 922.075 387.459C922.075 389.277 924.181 390.303 927.673 390.303C931.183 390.303 933.271 389.277 933.271 387.459C933.271 385.641 931.183 384.615 927.673 384.615ZM928.609 382.005V379.827H926.755V382.005H920.347V383.499H935.053V382.005H928.609ZM942.452 384.057H945.782V386.865H942.452V384.057ZM947.618 386.865V384.057H950.012V382.563H940.274V380.313H949.652V375.183H938.42V376.677H947.816V378.837H938.456V384.057H940.616V386.865H936.674V388.395H951.398V386.865H947.618Z" fill="white"/>
<path d="M127.938 151.144C126.966 151.144 126.072 150.988 125.256 150.676C124.44 150.352 123.732 149.902 123.132 149.326C122.532 148.738 122.064 148.054 121.728 147.274C121.392 146.494 121.224 145.636 121.224 144.7C121.224 143.764 121.392 142.906 121.728 142.126C122.064 141.346 122.532 140.668 123.132 140.092C123.744 139.504 124.458 139.054 125.274 138.742C126.09 138.418 126.99 138.256 127.974 138.256C128.97 138.256 129.882 138.418 130.71 138.742C131.538 139.066 132.24 139.552 132.816 140.2L131.7 141.316C131.184 140.812 130.62 140.446 130.008 140.218C129.408 139.978 128.754 139.858 128.046 139.858C127.326 139.858 126.654 139.978 126.03 140.218C125.418 140.458 124.884 140.794 124.428 141.226C123.984 141.658 123.636 142.174 123.384 142.774C123.144 143.362 123.024 144.004 123.024 144.7C123.024 145.384 123.144 146.026 123.384 146.626C123.636 147.214 123.984 147.73 124.428 148.174C124.884 148.606 125.418 148.942 126.03 149.182C126.642 149.422 127.308 149.542 128.028 149.542C128.7 149.542 129.342 149.44 129.954 149.236C130.578 149.02 131.154 148.666 131.682 148.174L132.708 149.542C132.084 150.07 131.352 150.472 130.512 150.748C129.684 151.012 128.826 151.144 127.938 151.144ZM130.98 149.308V144.628H132.708V149.542L130.98 149.308ZM135.041 146.806V145.312H139.883V146.806H135.041ZM145.918 151.144C144.958 151.144 144.04 151 143.164 150.712C142.288 150.412 141.598 150.028 141.094 149.56L141.76 148.156C142.24 148.576 142.852 148.924 143.596 149.2C144.34 149.476 145.114 149.614 145.918 149.614C146.65 149.614 147.244 149.53 147.7 149.362C148.156 149.194 148.492 148.966 148.708 148.678C148.924 148.378 149.032 148.042 149.032 147.67C149.032 147.238 148.888 146.89 148.6 146.626C148.324 146.362 147.958 146.152 147.502 145.996C147.058 145.828 146.566 145.684 146.026 145.564C145.486 145.444 144.94 145.306 144.388 145.15C143.848 144.982 143.35 144.772 142.894 144.52C142.45 144.268 142.09 143.932 141.814 143.512C141.538 143.08 141.4 142.528 141.4 141.856C141.4 141.208 141.568 140.614 141.904 140.074C142.252 139.522 142.78 139.084 143.488 138.76C144.208 138.424 145.12 138.256 146.224 138.256C146.956 138.256 147.682 138.352 148.402 138.544C149.122 138.736 149.746 139.012 150.274 139.372L149.68 140.812C149.14 140.452 148.57 140.194 147.97 140.038C147.37 139.87 146.788 139.786 146.224 139.786C145.516 139.786 144.934 139.876 144.478 140.056C144.022 140.236 143.686 140.476 143.47 140.776C143.266 141.076 143.164 141.412 143.164 141.784C143.164 142.228 143.302 142.582 143.578 142.846C143.866 143.11 144.232 143.32 144.676 143.476C145.132 143.632 145.63 143.776 146.17 143.908C146.71 144.028 147.25 144.166 147.79 144.322C148.342 144.478 148.84 144.682 149.284 144.934C149.74 145.186 150.106 145.522 150.382 145.942C150.658 146.362 150.796 146.902 150.796 147.562C150.796 148.198 150.622 148.792 150.274 149.344C149.926 149.884 149.386 150.322 148.654 150.658C147.934 150.982 147.022 151.144 145.918 151.144ZM153.176 151V138.4H158.09C159.194 138.4 160.136 138.574 160.916 138.922C161.696 139.27 162.296 139.774 162.716 140.434C163.136 141.094 163.346 141.88 163.346 142.792C163.346 143.704 163.136 144.49 162.716 145.15C162.296 145.798 161.696 146.296 160.916 146.644C160.136 146.992 159.194 147.166 158.09 147.166H154.166L154.976 146.338V151H153.176ZM161.6 151L158.396 146.428H160.322L163.562 151H161.6ZM154.976 146.518L154.166 145.636H158.036C159.188 145.636 160.058 145.39 160.646 144.898C161.246 144.394 161.546 143.692 161.546 142.792C161.546 141.892 161.246 141.196 160.646 140.704C160.058 140.212 159.188 139.966 158.036 139.966H154.166L154.976 139.066V146.518ZM166.004 151V138.4H167.48L173.132 147.922H172.34L177.92 138.4H179.396L179.414 151H177.686L177.668 141.118H178.082L173.114 149.47H172.286L167.282 141.118H167.732V151H166.004ZM198.531 140.884H189.189V138.184H198.423V136.69H187.353V142.378H198.531V140.884ZM192.825 150.946C190.449 150.946 189.117 150.424 189.117 149.416C189.117 148.426 190.449 147.886 192.825 147.886C195.201 147.886 196.551 148.426 196.551 149.416C196.551 150.424 195.201 150.946 192.825 150.946ZM192.825 146.464C189.351 146.464 187.227 147.544 187.227 149.416C187.227 151.306 189.351 152.386 192.825 152.386C196.317 152.386 198.423 151.306 198.423 149.416C198.423 147.544 196.317 146.464 192.825 146.464ZM185.535 143.728V145.258H200.223V143.728H185.535ZM203.463 149.056H212.931V152.296H214.785V147.562H203.463V149.056ZM210.105 144.97V143.494H215.019V142.072H205.515V140.632H214.695V136.51H203.661V137.932H212.859V139.3H203.697V143.494H208.251V144.97H201.807V146.464H216.549V144.97H210.105ZM221.225 154.24H222.665L227.669 136.618H226.229L221.225 154.24ZM242.082 136.15H240.228V148.03H242.082V136.15ZM238.536 143.998C236.034 143.134 234.612 140.956 234.612 138.652V137.032H232.722V138.652C232.722 141.028 231.3 143.35 228.744 144.286L229.698 145.78C231.606 145.06 232.956 143.584 233.694 141.766C234.396 143.458 235.728 144.79 237.582 145.474L238.536 143.998ZM233.334 150.568V146.914H231.462V152.08H242.55V150.568H233.334ZM253.675 140.614V142.144H256.609V145.96H258.463V136.114H256.609V140.614H253.675ZM254.683 143.908C252.199 143.206 250.723 141.442 250.723 139.588V139.444H254.143V137.968H250.741V136.06H248.869V137.968H245.449V139.444H248.869V139.588C248.869 141.622 247.465 143.548 244.963 144.322L245.863 145.762C247.771 145.168 249.139 143.89 249.859 142.27C250.597 143.692 251.965 144.826 253.819 145.348L254.683 143.908ZM253.045 150.946C250.741 150.946 249.427 150.37 249.427 149.344C249.427 148.318 250.741 147.76 253.045 147.76C255.367 147.76 256.681 148.318 256.681 149.344C256.681 150.37 255.367 150.946 253.045 150.946ZM253.045 146.32C249.643 146.32 247.573 147.436 247.573 149.344C247.573 151.252 249.643 152.386 253.045 152.386C256.447 152.386 258.535 151.252 258.535 149.344C258.535 147.436 256.447 146.32 253.045 146.32ZM163.752 170.68H160.944V163.39H163.752V170.68ZM167.532 166.162H165.48V161.914H159.216V172.156H165.48V167.674H167.532V175.612H169.26V160.438H167.532V166.162ZM170.79 160.132V176.368H172.554V160.132H170.79ZM175.776 161.842V163.354H181.464C181.086 167.098 178.944 169.96 174.966 171.994L175.992 173.416C181.302 170.734 183.318 166.558 183.318 161.842H175.776ZM190.032 166.54H187.566V160.114H185.712V176.368H187.566V168.088H190.032V166.54ZM205.387 168.07C202.183 167.494 199.573 164.992 199.573 162.4V161.176H197.611V162.4C197.611 164.974 195.001 167.476 191.797 168.07L192.589 169.6C195.235 169.06 197.521 167.368 198.583 165.136C199.645 167.368 201.931 169.06 204.577 169.6L205.387 168.07ZM191.293 172.768V174.298H206.017V172.768H191.293ZM216.476 169.168H218.222V160.402H216.476V163.93H214.532V165.442H216.476V169.168ZM215.09 166.882C213.488 167.17 212.12 167.242 210.068 167.26V165.55H213.812V164.11H210.068V162.544H214.424V161.05H208.286V168.754H209.348C211.868 168.754 213.416 168.7 215.27 168.34L215.09 166.882ZM219.536 174.694H212.372V173.02H219.536V174.694ZM219.536 171.562H212.372V169.978H210.536V176.188H221.354V169.978H219.536V171.562ZM219.59 160.114V169.312H221.354V160.114H219.59Z" fill="white"/>
<path d="M414.945 189.558H411.505V188.054H409.857V189.558H406.417V190.886H414.945V189.558ZM408.753 193.958C408.753 193.142 409.521 192.646 410.673 192.646C411.825 192.646 412.609 193.142 412.609 193.958C412.609 194.79 411.825 195.286 410.673 195.286C409.521 195.286 408.753 194.79 408.753 193.958ZM414.177 193.958C414.177 192.438 412.769 191.414 410.673 191.414C408.593 191.414 407.169 192.438 407.169 193.958C407.169 195.494 408.593 196.518 410.673 196.518C412.769 196.518 414.177 195.494 414.177 193.958ZM416.049 201.142H410.081V199.814H416.049V201.142ZM416.049 198.534H410.081V197.206H408.449V202.454H417.681V197.206H416.049V198.534ZM419.729 191.782H417.681V188.182H416.033V196.614H417.681V193.142H419.729V191.782ZM423.094 198.726H431.19V202.598H432.838V197.414H423.094V198.726ZM431.19 188.166V190.646H428.31C428.422 190.182 428.47 189.654 428.47 189.126H421.814V190.454H426.71C426.406 192.678 424.406 194.47 421.046 195.366L421.686 196.678C424.774 195.846 426.95 194.23 427.91 191.974H431.19V193.702H427.686V195.046H431.19V196.79H432.838V188.166H431.19Z" fill="#7094F0"/>
<path d="M446 337.188L446 266" stroke="#7094F0" stroke-linecap="round" stroke-linejoin="round" stroke-dasharray="2 4"/>
<path d="M446.8 342.933L450.8 337.6C451.294 336.941 450.824 336 450 336L442 336C441.175 336 440.705 336.941 441.2 337.6L445.2 342.933C445.6 343.467 446.4 343.467 446.8 342.933Z" fill="#7094F0"/>
<path d="M415.97 307.844H414.386L410.786 313.748L407.202 307.844H405.49L409.938 315.14V319.044H411.522V315.172L415.97 307.844ZM418.756 317.652V314.036H424.372V312.676H418.756V309.236H425.06V307.844H417.156V319.044H425.284V317.652H418.756ZM430.888 319.172C433.848 319.172 435.224 317.7 435.224 315.988C435.224 311.876 428.44 313.588 428.44 310.852C428.44 309.876 429.256 309.076 431.16 309.076C432.152 309.076 433.256 309.364 434.232 309.988L434.76 308.708C433.832 308.068 432.472 307.716 431.16 307.716C428.216 307.716 426.872 309.188 426.872 310.916C426.872 315.076 433.656 313.348 433.656 316.084C433.656 317.06 432.824 317.812 430.888 317.812C429.448 317.812 428.024 317.268 427.192 316.516L426.6 317.764C427.496 318.596 429.176 319.172 430.888 319.172Z" fill="#7094F0"/>
<path d="M446 874.546L446 803.358" stroke="#7094F0" stroke-linecap="round" stroke-linejoin="round" stroke-dasharray="2 4"/>
<path d="M446.8 883.933L450.8 878.6C451.294 877.941 450.824 877 450 877L442 877C441.176 877 440.706 877.941 441.2 878.6L445.2 883.933C445.6 884.467 446.4 884.467 446.8 883.933Z" fill="#7094F0"/>
<path d="M356 673.926L356 650.196" stroke="#7094F0" stroke-linecap="round" stroke-linejoin="round" stroke-dasharray="2 4"/>
<path d="M396.086 650.196L396.086 619.995" stroke="#7094F0" stroke-linecap="round" stroke-linejoin="round" stroke-dasharray="2 4"/>
<path d="M356 650L396 650" stroke="#7094F0" stroke-linecap="round" stroke-linejoin="round" stroke-dasharray="2 4"/>
<path d="M356.8 675.933L360.8 670.6C361.294 669.941 360.824 669 360 669L352 669C351.176 669 350.706 669.941 351.2 670.6L355.2 675.933C355.6 676.467 356.4 676.467 356.8 675.933Z" fill="#7094F0"/>
<path d="M397.999 779.629L397.999 763.45" stroke="#7094F0" stroke-linecap="round" stroke-linejoin="round" stroke-dasharray="2 4"/>
<path d="M578.698 499.192L578.698 261.899" stroke="#7094F0" stroke-linecap="round" stroke-linejoin="round" stroke-dasharray="2 4"/>
<path d="M368.044 763.45L368.044 741.878" stroke="#7094F0" stroke-linecap="round" stroke-linejoin="round" stroke-dasharray="2 4"/>
<path d="M396.088 763.45H368.044" stroke="#7094F0" stroke-linecap="round" stroke-linejoin="round" stroke-dasharray="2 4"/>
<path d="M578.699 261.899H540.948" stroke="#7094F0" stroke-linecap="round" stroke-linejoin="round" stroke-dasharray="2 4"/>
<path d="M579 499L546 499" stroke="#7094F0" stroke-linecap="round" stroke-linejoin="round" stroke-dasharray="2 4"/>
<path d="M568 716L456 716" stroke="#7094F0" stroke-linecap="round" stroke-linejoin="round" stroke-dasharray="2 4"/>
<path d="M368 922L294 922" stroke="#7094F0" stroke-linecap="round" stroke-linejoin="round" stroke-dasharray="2 4"/>
<path d="M397.2 781.933L393.2 776.6C392.706 775.941 393.176 775 394 775L402 775C402.824 775 403.294 775.941 402.8 776.6L398.8 781.933C398.4 782.467 397.6 782.467 397.2 781.933Z" fill="#7094F0"/>
<path d="M541.067 498.2L546.4 494.2C547.059 493.706 548 494.176 548 495L548 503C548 503.824 547.059 504.294 546.4 503.8L541.067 499.8C540.533 499.4 540.533 498.6 541.067 498.2Z" fill="#7094F0"/>
<path d="M449.067 715.199L454.4 711.199C455.059 710.705 456 711.175 456 711.999L456 719.999C456 720.823 455.059 721.293 454.4 720.799L449.067 716.799C448.533 716.399 448.533 715.599 449.067 715.199Z" fill="#7094F0"/>
<path d="M291.067 921.2L296.4 917.2C297.059 916.706 298 917.176 298 918L298 926C298 926.824 297.059 927.294 296.4 926.8L291.067 922.8C290.533 922.4 290.533 921.6 291.067 921.2Z" fill="#7094F0"/>
<path d="M728.933 142.8L723.6 146.8C722.941 147.294 722 146.824 722 146L722 138C722 137.176 722.941 136.706 723.6 137.2L728.933 141.2C729.467 141.6 729.467 142.4 728.933 142.8Z" fill="#7094F0"/>
<path d="M419.591 643.776C419.591 645.648 419.591 647.776 419.031 650.624L420.695 650.8C421.239 647.744 421.239 645.712 421.239 643.776V642.224H411.239V643.552H419.591V643.776ZM409.847 651.856V653.216H422.919V651.856H409.847ZM434.124 643.36H425.98V646.912H436.044V645.648H427.596V644.544H435.756V641.056H425.948V642.288H434.124V643.36ZM434.14 653.792H427.628V652.576H434.14V653.792ZM434.14 651.36H427.628V649.968H425.996V655.056H435.772V649.968H434.14V651.36ZM424.3 647.856V649.168H430.012V650.704H431.66V649.168H437.404V647.856H424.3ZM447.265 647.584C445.057 646.88 443.857 645.2 443.857 643.408V643.136H446.881V641.808H439.121V643.136H442.193V643.424C442.193 645.392 440.929 647.248 438.657 648.032L439.489 649.328C441.217 648.736 442.433 647.504 443.073 645.968C443.697 647.312 444.849 648.352 446.465 648.864L447.265 647.584ZM445.409 653.936C443.393 653.936 442.225 653.424 442.225 652.496C442.225 651.552 443.393 651.056 445.409 651.056C447.425 651.056 448.593 651.552 448.593 652.496C448.593 653.424 447.425 653.936 445.409 653.936ZM445.409 649.76C442.433 649.76 440.593 650.768 440.593 652.496C440.593 654.208 442.433 655.232 445.409 655.232C448.385 655.232 450.225 654.208 450.225 652.496C450.225 650.768 448.385 649.76 445.409 649.76ZM450.065 644.304V640.784H448.417V649.424H450.065V645.664H452.113V644.304H450.065ZM468.933 645.296C466.085 644.912 463.973 643.264 463.973 641.568V641.024H462.277V641.568C462.277 643.296 460.181 644.912 457.301 645.296L457.909 646.576C460.261 646.224 462.197 645.12 463.125 643.584C464.053 645.12 465.989 646.224 468.325 646.576L468.933 645.296ZM463.093 653.984C460.981 653.984 459.797 653.52 459.797 652.656C459.797 651.776 460.981 651.328 463.093 651.328C465.205 651.328 466.405 651.776 466.405 652.656C466.405 653.52 465.205 653.984 463.093 653.984ZM463.093 650.064C459.989 650.064 458.117 650.992 458.117 652.656C458.117 654.304 459.989 655.248 463.093 655.248C466.213 655.248 468.069 654.304 468.069 652.656C468.069 650.992 466.213 650.064 463.093 650.064ZM456.581 647.568V648.896H469.653V647.568H456.581ZM482.97 640.784H481.322V651.28H482.97V640.784ZM472.954 645.36C472.954 644.032 473.898 643.168 475.178 643.168C476.442 643.168 477.402 644.032 477.402 645.36C477.402 646.672 476.442 647.552 475.178 647.552C473.898 647.552 472.954 646.672 472.954 645.36ZM479.002 645.36C479.002 643.248 477.354 641.744 475.178 641.744C473.002 641.744 471.338 643.248 471.338 645.36C471.338 647.456 473.002 648.976 475.178 648.976C477.354 648.976 479.002 647.456 479.002 645.36ZM475.194 653.616V650.224H473.53V654.96H483.386V653.616H475.194Z" fill="#7094F0"/>
<path d="M552.559 583.549C552.559 585.421 552.559 587.549 551.999 590.397L553.663 590.573C554.207 587.517 554.207 585.485 554.207 583.549V581.997H544.207V583.325H552.559V583.549ZM542.815 591.629V592.989H555.887V591.629H542.815ZM567.092 583.133H558.948V586.685H569.012V585.421H560.564V584.317H568.724V580.829H558.916V582.061H567.092V583.133ZM567.108 593.565H560.596V592.349H567.108V593.565ZM567.108 591.133H560.596V589.741H558.964V594.829H568.74V589.741H567.108V591.133ZM557.268 587.629V588.941H562.98V590.477H564.628V588.941H570.372V587.629H557.268ZM580.233 587.357C578.025 586.653 576.825 584.973 576.825 583.181V582.909H579.849V581.581H572.089V582.909H575.161V583.197C575.161 585.165 573.897 587.021 571.625 587.805L572.457 589.101C574.185 588.509 575.401 587.277 576.041 585.741C576.665 587.085 577.817 588.125 579.433 588.637L580.233 587.357ZM578.377 593.709C576.361 593.709 575.193 593.197 575.193 592.269C575.193 591.325 576.361 590.829 578.377 590.829C580.393 590.829 581.561 591.325 581.561 592.269C581.561 593.197 580.393 593.709 578.377 593.709ZM578.377 589.533C575.401 589.533 573.561 590.541 573.561 592.269C573.561 593.981 575.401 595.005 578.377 595.005C581.353 595.005 583.193 593.981 583.193 592.269C583.193 590.541 581.353 589.533 578.377 589.533ZM583.033 584.077V580.557H581.385V589.197H583.033V585.437H585.081V584.077H583.033ZM555.151 607.069C552.303 606.685 550.191 605.037 550.191 603.341V602.797H548.495V603.341C548.495 605.069 546.399 606.685 543.519 607.069L544.127 608.349C546.479 607.997 548.415 606.893 549.343 605.357C550.271 606.893 552.207 607.997 554.543 608.349L555.151 607.069ZM549.311 615.757C547.199 615.757 546.015 615.293 546.015 614.429C546.015 613.549 547.199 613.101 549.311 613.101C551.423 613.101 552.623 613.549 552.623 614.429C552.623 615.293 551.423 615.757 549.311 615.757ZM549.311 611.837C546.207 611.837 544.335 612.765 544.335 614.429C544.335 616.077 546.207 617.021 549.311 617.021C552.431 617.021 554.287 616.077 554.287 614.429C554.287 612.765 552.431 611.837 549.311 611.837ZM542.799 609.341V610.669H555.871V609.341H542.799ZM569.188 602.557H567.54V613.053H569.188V602.557ZM559.172 607.133C559.172 605.805 560.116 604.941 561.396 604.941C562.66 604.941 563.62 605.805 563.62 607.133C563.62 608.445 562.66 609.325 561.396 609.325C560.116 609.325 559.172 608.445 559.172 607.133ZM565.22 607.133C565.22 605.021 563.572 603.517 561.396 603.517C559.22 603.517 557.556 605.021 557.556 607.133C557.556 609.229 559.22 610.749 561.396 610.749C563.572 610.749 565.22 609.229 565.22 607.133ZM561.412 615.389V611.997H559.748V616.733H569.604V615.389H561.412Z" fill="#7094F0"/>
<path d="M539.201 424.052C537.281 424.372 535.633 424.436 532.849 424.436V422.868H537.713V421.572H532.849V420.084H538.129V418.756H531.217V425.748H532.417C535.521 425.748 537.297 425.7 539.361 425.364L539.201 424.052ZM534.465 428.516H540.689V430.884H534.465V428.516ZM532.849 432.196H542.305V427.204H532.849V432.196ZM540.657 417.924V426.532H542.305V417.924H540.657ZM553.35 424.724C551.142 424.02 549.942 422.34 549.942 420.548V420.276H552.966V418.948H545.206V420.276H548.278V420.564C548.278 422.532 547.014 424.388 544.742 425.172L545.574 426.468C547.302 425.876 548.518 424.644 549.158 423.108C549.782 424.452 550.934 425.492 552.55 426.004L553.35 424.724ZM551.494 431.076C549.478 431.076 548.31 430.564 548.31 429.636C548.31 428.692 549.478 428.196 551.494 428.196C553.51 428.196 554.678 428.692 554.678 429.636C554.678 430.564 553.51 431.076 551.494 431.076ZM551.494 426.9C548.518 426.9 546.678 427.908 546.678 429.636C546.678 431.348 548.518 432.372 551.494 432.372C554.47 432.372 556.31 431.348 556.31 429.636C556.31 427.908 554.47 426.9 551.494 426.9ZM556.15 421.444V417.924H554.502V426.564H556.15V422.804H558.198V421.444H556.15ZM542.737 444.436C539.889 444.052 537.777 442.404 537.777 440.708V440.164H536.081V440.708C536.081 442.436 533.985 444.052 531.105 444.436L531.713 445.716C534.065 445.364 536.001 444.26 536.929 442.724C537.857 444.26 539.793 445.364 542.129 445.716L542.737 444.436ZM536.897 453.124C534.785 453.124 533.601 452.66 533.601 451.796C533.601 450.916 534.785 450.468 536.897 450.468C539.009 450.468 540.209 450.916 540.209 451.796C540.209 452.66 539.009 453.124 536.897 453.124ZM536.897 449.204C533.793 449.204 531.921 450.132 531.921 451.796C531.921 453.444 533.793 454.388 536.897 454.388C540.017 454.388 541.873 453.444 541.873 451.796C541.873 450.132 540.017 449.204 536.897 449.204ZM530.385 446.708V448.036H543.457V446.708H530.385ZM556.774 439.924H555.126V450.42H556.774V439.924ZM546.758 444.5C546.758 443.172 547.702 442.308 548.982 442.308C550.246 442.308 551.206 443.172 551.206 444.5C551.206 445.812 550.246 446.692 548.982 446.692C547.702 446.692 546.758 445.812 546.758 444.5ZM552.806 444.5C552.806 442.388 551.158 440.884 548.982 440.884C546.806 440.884 545.142 442.388 545.142 444.5C545.142 446.596 546.806 448.116 548.982 448.116C551.158 448.116 552.806 446.596 552.806 444.5ZM548.998 452.756V449.364H547.334V454.1H557.19V452.756H548.998Z" fill="#7094F0"/>
<path d="M560.763 236.656V245.008L554.043 236.656H552.731V247.856H554.331V239.504L561.051 247.856H562.363V236.656H560.763ZM570.522 247.984C573.93 247.984 576.458 245.552 576.458 242.256C576.458 238.96 573.93 236.528 570.522 236.528C567.082 236.528 564.554 238.976 564.554 242.256C564.554 245.536 567.082 247.984 570.522 247.984ZM570.522 246.56C568.01 246.56 566.154 244.736 566.154 242.256C566.154 239.776 568.01 237.952 570.522 237.952C573.002 237.952 574.858 239.776 574.858 242.256C574.858 244.736 573.002 246.56 570.522 246.56Z" fill="#283895"/>
<path d="M414.945 426.849H411.505V425.345H409.857V426.849H406.417V428.177H414.945V426.849ZM408.753 431.249C408.753 430.433 409.521 429.937 410.673 429.937C411.825 429.937 412.609 430.433 412.609 431.249C412.609 432.081 411.825 432.577 410.673 432.577C409.521 432.577 408.753 432.081 408.753 431.249ZM414.177 431.249C414.177 429.729 412.769 428.705 410.673 428.705C408.593 428.705 407.169 429.729 407.169 431.249C407.169 432.785 408.593 433.809 410.673 433.809C412.769 433.809 414.177 432.785 414.177 431.249ZM416.049 438.433H410.081V437.105H416.049V438.433ZM416.049 435.825H410.081V434.497H408.449V439.745H417.681V434.497H416.049V435.825ZM419.729 429.073H417.681V425.473H416.033V433.905H417.681V430.433H419.729V429.073ZM423.094 436.017H431.19V439.889H432.838V434.705H423.094V436.017ZM431.19 425.457V427.937H428.31C428.422 427.473 428.47 426.945 428.47 426.417H421.814V427.745H426.71C426.406 429.969 424.406 431.761 421.046 432.657L421.686 433.969C424.774 433.137 426.95 431.521 427.91 429.265H431.19V430.993H427.686V432.337H431.19V434.081H432.838V425.457H431.19Z" fill="#7094F0"/>
<path d="M619.461 120.77H613.029V119.618H619.461V120.77ZM621.093 117.202H619.461V118.402H613.029V117.202H611.397V122.018H621.093V117.202ZM622.789 124.322V123.01H609.685V124.322H615.397V125.506H611.237V126.738H619.525V127.762H611.285V131.314H621.557V130.05H612.917V128.914H621.141V125.506H617.061V124.322H622.789ZM632.73 118.37H629.29V116.866H627.642V118.37H624.202V119.698H632.73V118.37ZM626.538 122.77C626.538 121.954 627.306 121.458 628.458 121.458C629.61 121.458 630.394 121.954 630.394 122.77C630.394 123.602 629.61 124.098 628.458 124.098C627.306 124.098 626.538 123.602 626.538 122.77ZM631.962 122.77C631.962 121.25 630.554 120.226 628.458 120.226C626.378 120.226 624.954 121.25 624.954 122.77C624.954 124.306 626.378 125.33 628.458 125.33C630.554 125.33 631.962 124.306 631.962 122.77ZM633.834 129.954H627.866V128.626H633.834V129.954ZM633.834 127.346H627.866V126.018H626.234V131.266H635.466V126.018H633.834V127.346ZM637.514 120.594H635.466V116.994H633.818V125.426H635.466V121.954H637.514V120.594ZM640.879 127.538H648.975V131.41H650.623V126.226H640.879V127.538ZM648.975 116.978V119.458H646.095C646.207 118.994 646.255 118.466 646.255 117.938H639.599V119.266H644.495C644.191 121.49 642.191 123.282 638.831 124.178L639.471 125.49C642.559 124.658 644.735 123.042 645.695 120.786H648.975V122.514H645.471V123.858H648.975V125.602H650.623V116.978H648.975Z" fill="#283895"/>
<path d="M617.305 358.062H610.873V356.91H617.305V358.062ZM618.937 354.494H617.305V355.694H610.873V354.494H609.241V359.31H618.937V354.494ZM620.633 361.614V360.302H607.529V361.614H613.241V362.798H609.081V364.03H617.369V365.054H609.129V368.606H619.401V367.342H610.761V366.206H618.985V362.798H614.905V361.614H620.633ZM630.574 355.662H627.134V354.158H625.486V355.662H622.046V356.99H630.574V355.662ZM624.382 360.062C624.382 359.246 625.15 358.75 626.302 358.75C627.454 358.75 628.238 359.246 628.238 360.062C628.238 360.894 627.454 361.39 626.302 361.39C625.15 361.39 624.382 360.894 624.382 360.062ZM629.806 360.062C629.806 358.542 628.398 357.518 626.302 357.518C624.222 357.518 622.798 358.542 622.798 360.062C622.798 361.598 624.222 362.622 626.302 362.622C628.398 362.622 629.806 361.598 629.806 360.062ZM631.678 367.246H625.71V365.918H631.678V367.246ZM631.678 364.638H625.71V363.31H624.078V368.558H633.31V363.31H631.678V364.638ZM635.358 357.886H633.31V354.286H631.662V362.718H633.31V359.246H635.358V357.886ZM638.722 364.83H646.818V368.702H648.466V363.518H638.722V364.83ZM646.818 354.27V356.75H643.938C644.05 356.286 644.098 355.758 644.098 355.23H637.442V356.558H642.338C642.034 358.782 640.034 360.574 636.674 361.47L637.314 362.782C640.402 361.95 642.578 360.334 643.538 358.078H646.818V359.806H643.314V361.15H646.818V362.894H648.466V354.27H646.818Z" fill="#283895"/>
<rect x="360" y="235" width="170" height="54" rx="10" fill="#435CE7"/>
<path d="M428.568 255.132H426.696V263.466H428.568V255.132ZM425.058 261.648C422.556 260.874 421.098 258.894 421.098 256.788V255.564H419.208V256.788C419.208 258.984 417.75 261.09 415.176 261.936L416.094 263.412C418.056 262.746 419.442 261.396 420.18 259.65C420.918 261.252 422.286 262.494 424.158 263.106L425.058 261.648ZM419.766 269.784V268.362H428.568V264.24H417.912V265.68H426.732V267.012H417.948V271.242H429.054V269.784H419.766ZM437.172 256.482H435.318V259.146C435.318 262.152 433.734 265.23 431.196 266.472L432.33 267.966C434.184 267.012 435.552 265.122 436.254 262.872C436.956 264.996 438.252 266.76 439.998 267.66L441.132 266.184C438.684 264.978 437.172 262.044 437.172 259.146V256.482ZM446.604 261.576H444.066V255.132H442.212V271.386H444.066V263.106H446.604V261.576ZM450.151 258.57H454.345V257.058H448.333V267.516H449.413C451.699 267.516 453.373 267.444 455.335 267.066L455.173 265.536C453.499 265.878 452.023 265.968 450.151 265.986V258.57ZM459.889 255.114V261.54H457.963V255.456H456.217V270.576H457.963V263.052H459.889V271.368H461.653V255.114H459.889ZM473.552 262.566C471.14 261.774 469.754 259.794 469.754 257.706V255.96H467.882V257.562C467.882 259.902 466.496 262.116 463.94 262.998L464.93 264.474C466.802 263.79 468.134 262.386 468.854 260.622C469.538 262.152 470.834 263.394 472.58 264.024L473.552 262.566ZM471.554 269.928C469.286 269.928 467.972 269.37 467.972 268.326C467.972 267.318 469.286 266.742 471.554 266.742C473.822 266.742 475.136 267.318 475.136 268.326C475.136 269.37 473.822 269.928 471.554 269.928ZM471.554 265.284C468.206 265.284 466.136 266.418 466.136 268.326C466.136 270.252 468.206 271.386 471.554 271.386C474.92 271.386 476.972 270.252 476.972 268.326C476.972 266.418 474.92 265.284 471.554 265.284ZM476.792 259.146V255.114H474.938V264.888H476.792V260.676H479.096V259.146H476.792Z" fill="white"/>
<rect x="360" y="354" width="170" height="54" rx="10" fill="#435CE7"/>
<path d="M428.568 374.132H426.696V382.466H428.568V374.132ZM425.058 380.648C422.556 379.874 421.098 377.894 421.098 375.788V374.564H419.208V375.788C419.208 377.984 417.75 380.09 415.176 380.936L416.094 382.412C418.056 381.746 419.442 380.396 420.18 378.65C420.918 380.252 422.286 381.494 424.158 382.106L425.058 380.648ZM419.766 388.784V387.362H428.568V383.24H417.912V384.68H426.732V386.012H417.948V390.242H429.054V388.784H419.766ZM437.172 375.482H435.318V378.146C435.318 381.152 433.734 384.23 431.196 385.472L432.33 386.966C434.184 386.012 435.552 384.122 436.254 381.872C436.956 383.996 438.252 385.76 439.998 386.66L441.132 385.184C438.684 383.978 437.172 381.044 437.172 378.146V375.482ZM446.604 380.576H444.066V374.132H442.212V390.386H444.066V382.106H446.604V380.576ZM459.403 384.122H461.257V374.132H459.403V376.904H457.045V378.398H459.403V379.874H457.045V381.368H459.403V384.122ZM451.483 376.796H453.553V381.692C452.851 381.728 452.167 381.746 451.483 381.764V376.796ZM457.171 381.404C456.577 381.476 455.965 381.53 455.335 381.566V376.796H456.793V375.284H448.225V376.796H449.701V381.8C449.035 381.8 448.387 381.8 447.793 381.8L448.009 383.33C450.619 383.33 454.219 383.276 457.279 382.754L457.171 381.404ZM455.839 388.964C453.517 388.964 452.221 388.406 452.221 387.416C452.221 386.39 453.517 385.85 455.839 385.85C458.161 385.85 459.475 386.39 459.475 387.416C459.475 388.406 458.161 388.964 455.839 388.964ZM455.839 384.41C452.437 384.41 450.367 385.508 450.367 387.416C450.367 389.288 452.437 390.386 455.839 390.386C459.241 390.386 461.329 389.288 461.329 387.416C461.329 385.508 459.241 384.41 455.839 384.41ZM464.894 375.842V377.354H470.582C470.204 381.098 468.062 383.96 464.084 385.994L465.11 387.416C470.42 384.734 472.436 380.558 472.436 375.842H464.894ZM479.15 380.54H476.684V374.114H474.83V390.368H476.684V382.088H479.15V380.54Z" fill="white"/>
<rect x="360" y="472" width="170" height="54" rx="10" fill="#F6F7FE"/>
<rect x="100" y="30" width="180" height="54" rx="10" fill="#F5F5F5"/>
<rect x="360" y="30" width="300" height="54" rx="10" fill="#F5F5F5"/>
<rect x="740" y="30" width="360" height="54" rx="10" fill="#F5F5F5"/>
<path d="M161.777 53.2639H163.991V60.8599C163.253 60.8959 162.497 60.9319 161.777 60.9499V53.2639ZM165.791 53.2639H167.375V51.7699H158.393V53.2639H159.977V60.9679C159.275 60.9679 158.591 60.9679 157.979 60.9679L158.177 62.4979C161.003 62.4979 164.765 62.4439 168.131 61.8859L168.023 60.5179C167.303 60.6079 166.547 60.6799 165.791 60.7519V53.2639ZM173.297 56.4859H170.759V50.1319H168.905V66.4039H170.759V58.0159H173.297V56.4859ZM187.571 58.7179H178.193V56.4859H187.085V55.0279H178.193V52.9399H187.445V51.4459H176.303V60.2119H187.571V58.7179ZM174.485 62.8759V64.3879H189.227V62.8759H174.485ZM193.494 51.9139H191.658V62.5339H192.954C195.456 62.5339 197.832 62.3719 200.424 61.8679L200.208 60.3379C197.922 60.7879 195.744 60.9679 193.494 60.9859V51.9139ZM202.44 50.1319V55.3519H197.724V56.8639H202.44V66.4219H204.294V50.1319H202.44ZM212.791 51.4819H210.937V54.1459C210.937 57.1519 209.353 60.2299 206.815 61.4719L207.949 62.9659C209.803 62.0119 211.171 60.1219 211.873 57.8719C212.575 59.9959 213.871 61.7599 215.617 62.6599L216.751 61.1839C214.303 59.9779 212.791 57.0439 212.791 54.1459V51.4819ZM222.223 56.5759H219.685V50.1319H217.831V66.3859H219.685V58.1059H222.223V56.5759Z" fill="#222222"/>
<path d="M484.728 58.0699H482.46C482.874 55.7659 482.874 54.0739 482.874 52.5439V51.1219H471.786V52.6159H481.056C481.056 54.1099 481.056 55.8019 480.588 58.0699H470.022V59.5999H476.376V66.3859H478.248V59.5999H484.728V58.0699ZM488.599 53.3899H491.407V60.6799H488.599V53.3899ZM486.871 62.1559H493.135V51.9139H486.871V62.1559ZM498.445 50.1319V56.4679H496.591V50.4379H494.845V65.6119H496.591V57.9799H498.445V66.3679H500.209V50.1319H498.445ZM511.945 56.5039C509.983 56.9179 508.237 57.0079 505.159 57.0259V52.6699H510.505V51.1759H503.305V58.5379H504.619C508.111 58.5379 510.019 58.4479 512.125 57.9979L511.945 56.5039ZM506.779 61.5619H513.511V64.6939H506.779V61.5619ZM504.943 66.1879H515.329V60.1039H504.943V66.1879ZM517.633 53.9659H515.329V50.1139H513.475V59.2939H515.329V55.4959H517.633V53.9659ZM528.272 56.5399C526.292 56.9719 524.546 57.0619 521.432 57.0799V52.8139H526.814V51.3019H519.578V58.5919H520.892C524.42 58.5919 526.346 58.4839 528.47 58.0519L528.272 56.5399ZM526.4 64.8919C524.15 64.8919 522.818 64.2799 522.818 63.1819C522.818 62.0839 524.15 61.4899 526.4 61.4899C528.65 61.4899 529.982 62.0839 529.982 63.1819C529.982 64.2799 528.65 64.8919 526.4 64.8919ZM526.4 59.9959C523.07 59.9959 520.982 61.2019 520.982 63.1819C520.982 65.1799 523.07 66.4039 526.4 66.4039C529.73 66.4039 531.818 65.1799 531.818 63.1819C531.818 61.2019 529.73 59.9959 526.4 59.9959ZM531.674 54.1819V50.1319H529.784V59.6719H531.674V55.7119H533.942V54.1819H531.674ZM540.944 53.2819H544.382V51.7519H535.544V53.2819H539.09V54.8479C539.09 57.5479 537.434 60.6259 534.95 61.8139L536.012 63.2899C537.884 62.3719 539.324 60.4279 540.044 58.1599C540.782 60.2119 542.168 62.0119 543.986 62.8759L545.012 61.4179C542.546 60.2479 540.944 57.3679 540.944 54.8479V53.2819ZM550.376 56.5399H547.838V50.1319H545.984V66.3859H547.838V58.0699H550.376V56.5399Z" fill="#222222"/>
<path d="M905.902 52.1784V53.6904H911.698C911.374 57.4344 909.358 60.2964 905.092 62.3484L906.082 63.8244C911.662 61.1244 913.606 57.0204 913.606 52.1784H905.902ZM916.54 50.4684V66.7224H918.394V50.4684H916.54ZM923.813 57.9204H929.249V56.4264H923.813V53.4024H929.555V51.8724H921.959V62.9244H923.273C926.189 62.9244 928.349 62.8344 930.851 62.4384L930.671 60.9264C928.385 61.3044 926.405 61.3944 923.813 61.4124V57.9204ZM936.413 56.8404H933.875V50.4504H932.021V66.7404H933.875V58.3704H936.413V56.8404Z" fill="#222222"/>
<path d="M427.19 496.884H417.848V494.184H427.082V492.69H416.012V498.378H427.19V496.884ZM421.484 506.946C419.108 506.946 417.776 506.424 417.776 505.416C417.776 504.426 419.108 503.886 421.484 503.886C423.86 503.886 425.21 504.426 425.21 505.416C425.21 506.424 423.86 506.946 421.484 506.946ZM421.484 502.464C418.01 502.464 415.886 503.544 415.886 505.416C415.886 507.306 418.01 508.386 421.484 508.386C424.976 508.386 427.082 507.306 427.082 505.416C427.082 503.544 424.976 502.464 421.484 502.464ZM414.194 499.728V501.258H428.882V499.728H414.194ZM432.123 505.056H441.591V508.296H443.445V503.562H432.123V505.056ZM438.765 500.97V499.494H443.679V498.072H434.175V496.632H443.355V492.51H432.321V493.932H441.519V495.3H432.357V499.494H436.911V500.97H430.467V502.464H445.209V500.97H438.765ZM455.991 497.082H452.247V494.094H455.991V497.082ZM450.393 497.082H448.179V498.576H460.041V497.082H457.845V494.094H460.131V492.6H448.089V494.094H450.393V497.082ZM457.881 506.712H450.375V504.498H457.881V506.712ZM461.481 501.366V499.872H446.775V501.366H453.201V503.022H448.539V508.188H459.699V503.022H455.055V501.366H461.481ZM468.34 493.266C465.802 493.266 463.93 494.868 463.93 497.172C463.93 499.476 465.802 501.078 468.34 501.078C470.878 501.078 472.768 499.476 472.768 497.172C472.768 494.868 470.878 493.266 468.34 493.266ZM468.34 494.85C469.852 494.85 470.95 495.75 470.95 497.172C470.95 498.576 469.852 499.494 468.34 499.494C466.846 499.494 465.748 498.576 465.748 497.172C465.748 495.75 466.846 494.85 468.34 494.85ZM474.604 492.114V508.404H476.476V492.114H474.604ZM463.408 504.966C466.288 504.966 470.176 504.93 473.758 504.246L473.632 502.896C470.14 503.418 466.09 503.436 463.174 503.436L463.408 504.966Z" fill="#283895"/>
<rect x="360" y="569" width="170" height="54" rx="10" fill="#F6F7FE"/>
<path d="M397.213 594.91L397.465 596.476L407.059 595.954C406.969 597.016 406.789 598.204 406.501 599.554L408.337 599.77C409.057 596.332 409.039 594.082 409.039 592.102V590.608H397.681V592.102H407.203C407.203 592.84 407.203 593.65 407.167 594.532L397.213 594.91ZM403.315 601.822V597.736H401.443V601.822H395.953V603.352H410.659V601.822H403.315ZM425.347 596.8H415.933V592.066H425.221V590.554H414.079V598.294H425.347V596.8ZM412.279 601.768V603.298H427.021V601.768H412.279ZM433.466 593.542H436.31V592.03H433.466V589.69H431.702V592.03H428.84V593.542H431.702V594.1C431.702 596.674 430.604 599.446 428.39 600.76L429.452 602.146C431 601.246 432.026 599.608 432.602 597.718C433.196 599.464 434.24 600.958 435.77 601.768L436.796 600.382C434.564 599.194 433.466 596.62 433.466 594.1V593.542ZM440.774 589.132V595.54H438.992V589.438H437.246V604.63H438.992V597.07H440.774V605.386H442.538V589.132H440.774ZM451.305 596.998H447.471V594.352H451.305V596.998ZM453.123 595.108H456.507V601.174H458.361V589.132H456.507V593.596H453.123V590.212H451.305V592.894H447.471V590.212H445.635V598.51H453.123V595.108ZM449.649 603.568V599.986H447.777V605.08H458.739V603.568H449.649ZM474.196 594.082H470.452V591.094H474.196V594.082ZM468.598 594.082H466.384V595.576H478.246V594.082H476.05V591.094H478.336V589.6H466.294V591.094H468.598V594.082ZM476.086 603.712H468.58V601.498H476.086V603.712ZM479.686 598.366V596.872H464.98V598.366H471.406V600.022H466.744V605.188H477.904V600.022H473.26V598.366H479.686ZM486.545 590.266C484.007 590.266 482.135 591.868 482.135 594.172C482.135 596.476 484.007 598.078 486.545 598.078C489.083 598.078 490.973 596.476 490.973 594.172C490.973 591.868 489.083 590.266 486.545 590.266ZM486.545 591.85C488.057 591.85 489.155 592.75 489.155 594.172C489.155 595.576 488.057 596.494 486.545 596.494C485.051 596.494 483.953 595.576 483.953 594.172C483.953 592.75 485.051 591.85 486.545 591.85ZM492.809 589.114V605.404H494.681V589.114H492.809ZM481.613 601.966C484.493 601.966 488.381 601.93 491.963 601.246L491.837 599.896C488.345 600.418 484.295 600.436 481.379 600.436L481.613 601.966Z" fill="#283895"/>
<rect x="360" y="793" width="170" height="54" rx="10" fill="#F6F7FE"/>
<path d="M399.867 828.052C401.829 828.052 403.521 827.368 404.673 826.072L403.503 824.938C402.531 825.964 401.343 826.45 399.957 826.45C397.113 826.45 395.007 824.398 395.007 821.608C395.007 818.818 397.113 816.766 399.957 816.766C401.343 816.766 402.531 817.234 403.503 818.26L404.673 817.126C403.521 815.83 401.829 815.164 399.885 815.164C396.051 815.164 393.207 817.882 393.207 821.608C393.207 825.334 396.051 828.052 399.867 828.052ZM410.42 828.016C413.282 828.016 415.37 825.982 415.37 823.138C415.37 820.294 413.282 818.278 410.42 818.278C407.558 818.278 405.452 820.294 405.452 823.138C405.452 825.982 407.558 828.016 410.42 828.016ZM410.42 826.504C408.584 826.504 407.198 825.172 407.198 823.138C407.198 821.104 408.584 819.79 410.42 819.79C412.256 819.79 413.624 821.104 413.624 823.138C413.624 825.172 412.256 826.504 410.42 826.504ZM422.604 818.278C421.092 818.278 419.868 818.836 419.166 819.808V818.368H417.51V827.908H419.238V822.994C419.238 820.924 420.426 819.826 422.262 819.826C423.9 819.826 424.836 820.744 424.836 822.616V827.908H426.564V822.418C426.564 819.61 424.926 818.278 422.604 818.278ZM434.336 826.108C433.976 826.396 433.49 826.558 432.986 826.558C432.032 826.558 431.492 825.982 431.492 824.956V819.79H434.228V818.368H431.492V816.28H429.764V818.368H428.144V819.79H429.764V825.028C429.764 826.954 430.862 828.016 432.788 828.016C433.562 828.016 434.354 827.8 434.876 827.35L434.336 826.108ZM440.189 818.278C438.659 818.278 437.237 818.71 436.247 819.502L436.967 820.798C437.705 820.168 438.857 819.772 439.991 819.772C441.701 819.772 442.547 820.618 442.547 822.076V822.418H439.811C436.967 822.418 435.977 823.678 435.977 825.208C435.977 826.864 437.345 828.016 439.505 828.016C440.999 828.016 442.061 827.512 442.637 826.648V827.908H444.275V822.148C444.275 819.538 442.799 818.278 440.189 818.278ZM439.793 826.684C438.479 826.684 437.687 826.09 437.687 825.136C437.687 824.326 438.173 823.66 439.883 823.66H442.547V824.992C442.115 826.09 441.089 826.684 439.793 826.684ZM451.434 828.016C453.144 828.016 454.566 827.296 455.322 825.964L454.008 825.136C453.396 826.072 452.46 826.504 451.416 826.504C449.544 826.504 448.14 825.208 448.14 823.138C448.14 821.104 449.544 819.79 451.416 819.79C452.46 819.79 453.396 820.222 454.008 821.158L455.322 820.312C454.566 818.98 453.144 818.278 451.434 818.278C448.5 818.278 446.394 820.294 446.394 823.138C446.394 825.982 448.5 828.016 451.434 828.016ZM462.256 826.108C461.896 826.396 461.41 826.558 460.906 826.558C459.952 826.558 459.412 825.982 459.412 824.956V819.79H462.148V818.368H459.412V816.28H457.684V818.368H456.064V819.79H457.684V825.028C457.684 826.954 458.782 828.016 460.708 828.016C461.482 828.016 462.274 827.8 462.796 827.35L462.256 826.108ZM477.986 818.728H479.696V823.03H481.46V813.058H479.696V817.216H477.986V813.346H476.24V822.508H477.986V818.728ZM475.862 820.492C473.756 819.664 472.694 817.882 472.694 816.082V814.03H470.894V816.082C470.894 817.936 469.796 819.97 467.618 820.96L468.59 822.382C470.156 821.698 471.218 820.438 471.812 818.944C472.424 820.24 473.432 821.32 474.872 821.878L475.862 820.492ZM476.042 827.872C473.756 827.872 472.388 827.314 472.388 826.324C472.388 825.316 473.756 824.758 476.042 824.758C478.328 824.758 479.696 825.316 479.696 826.324C479.696 827.314 478.328 827.872 476.042 827.872ZM476.042 823.336C472.658 823.336 470.534 824.452 470.534 826.324C470.534 828.178 472.658 829.294 476.042 829.294C479.426 829.294 481.55 828.178 481.55 826.324C481.55 824.452 479.426 823.336 476.042 823.336ZM495.627 822.616H497.481V813.022H495.627V816.28H492.333V817.792H495.627V822.616ZM493.665 820.51C491.199 819.7 489.849 817.666 489.849 815.416V813.904H487.977V815.506C487.977 817.882 486.555 820.078 483.945 820.96L484.917 822.454C486.879 821.752 488.247 820.33 488.967 818.53C489.669 820.114 490.929 821.338 492.675 821.968L493.665 820.51ZM492.063 827.836C489.759 827.836 488.445 827.242 488.445 826.18C488.445 825.118 489.759 824.524 492.063 824.524C494.367 824.524 495.699 825.118 495.699 826.18C495.699 827.242 494.367 827.836 492.063 827.836ZM492.063 823.066C488.679 823.066 486.591 824.218 486.591 826.18C486.591 828.142 488.679 829.294 492.063 829.294C495.465 829.294 497.553 828.142 497.553 826.18C497.553 824.218 495.465 823.066 492.063 823.066Z" fill="#283895"/>
<rect x="222" y="687" width="216" height="54" rx="10" fill="#F6F7FE"/>
<path d="M270.835 711.488V713.018H273.787V719.03H275.641V707.15H273.787V711.488H270.835ZM271.843 715.286C269.413 714.44 268.027 712.406 268.027 710.408V709.85H271.411V708.356H262.717V709.85H266.155V710.408C266.155 712.604 264.679 714.746 262.159 715.628L263.113 717.086C265.039 716.42 266.407 714.998 267.127 713.234C267.811 714.836 269.125 716.114 270.925 716.726L271.843 715.286ZM266.965 721.568V718.004H265.111V723.08H276.055V721.568H266.965ZM284.173 710.282H287.611V708.752H278.773V710.282H282.319V711.848C282.319 714.548 280.663 717.626 278.179 718.814L279.241 720.29C281.113 719.372 282.553 717.428 283.273 715.16C284.011 717.212 285.397 719.012 287.215 719.876L288.241 718.418C285.775 717.248 284.173 714.368 284.173 711.848V710.282ZM293.605 713.54H291.067V707.132H289.213V723.386H291.067V715.07H293.605V713.54ZM303.632 711.524H301.58C301.706 710.768 301.76 709.958 301.76 709.13H295.478V710.624H299.924C299.654 713.954 298.034 716.6 294.686 718.634L295.748 719.948C298.79 718.13 300.5 715.772 301.256 713.036H303.632V715.61H300.968V717.122H303.632V722.594H305.36V707.528H303.632V711.524ZM306.908 707.132V723.386H308.69V707.132H306.908ZM313.119 711.974C313.119 710.552 314.181 709.634 315.621 709.634C317.079 709.634 318.141 710.552 318.141 711.974C318.141 713.396 317.079 714.314 315.621 714.314C314.181 714.314 313.119 713.396 313.119 711.974ZM319.959 711.974C319.959 709.67 318.105 708.068 315.621 708.068C313.155 708.068 311.301 709.67 311.301 711.974C311.301 714.278 313.155 715.88 315.621 715.88C318.105 715.88 319.959 714.278 319.959 711.974ZM313.101 718.976H321.939V723.404H323.793V717.482H313.101V718.976ZM326.043 710.984V709.454H323.793V707.132H321.939V716.762H323.793V714.476H326.043V712.946H323.793V710.984H326.043ZM332.289 711.524H335.079V709.994H332.289V707.69H330.525V709.994H327.717V711.524H330.525V712.1C330.525 714.692 329.445 717.464 327.213 718.778L328.275 720.182C329.823 719.282 330.849 717.644 331.425 715.736C332.019 717.5 333.063 718.994 334.593 719.822L335.619 718.436C333.387 717.23 332.289 714.638 332.289 712.1V711.524ZM336.231 713.432H334.035V714.944H336.231V722.594H337.977V707.456H336.231V713.432ZM339.507 707.132V723.386H341.271V707.132H339.507ZM355.33 710.786V712.46H351.352V713.9H355.33V715.376H357.184V707.132H355.33V709.346H351.964C352.054 708.878 352.09 708.374 352.09 707.852H344.818V709.346H350.038C349.786 711.614 347.788 713.396 343.936 714.224L344.584 715.736C348.166 714.926 350.56 713.27 351.568 710.786H355.33ZM348.49 721.748V720.254H357.184V716.042H346.6V717.518H355.33V718.868H346.636V723.242H357.634V721.748H348.49ZM359.326 725.24H360.766L365.77 707.618H364.33L359.326 725.24ZM375.99 712.082H372.246V709.094H375.99V712.082ZM370.392 712.082H368.178V713.576H380.04V712.082H377.844V709.094H380.13V707.6H368.088V709.094H370.392V712.082ZM377.88 721.712H370.374V719.498H377.88V721.712ZM381.48 716.366V714.872H366.774V716.366H373.2V718.022H368.538V723.188H379.698V718.022H375.054V716.366H381.48ZM388.339 708.266C385.801 708.266 383.929 709.868 383.929 712.172C383.929 714.476 385.801 716.078 388.339 716.078C390.877 716.078 392.767 714.476 392.767 712.172C392.767 709.868 390.877 708.266 388.339 708.266ZM388.339 709.85C389.851 709.85 390.949 710.75 390.949 712.172C390.949 713.576 389.851 714.494 388.339 714.494C386.845 714.494 385.747 713.576 385.747 712.172C385.747 710.75 386.845 709.85 388.339 709.85ZM394.603 707.114V723.404H396.475V707.114H394.603ZM383.407 719.966C386.287 719.966 390.175 719.93 393.757 719.246L393.631 717.896C390.139 718.418 386.089 718.436 383.173 718.436L383.407 719.966Z" fill="#283895"/>
<path d="M533 380H720" stroke="#7094F0" stroke-linecap="round" stroke-linejoin="round" stroke-dasharray="2 4"/>
<path d="M728.933 380.8L723.6 384.8C722.941 385.294 722 384.824 722 384L722 376C722 375.176 722.941 374.706 723.6 375.2L728.933 379.2C729.467 379.6 729.467 380.4 728.933 380.8Z" fill="#7094F0"/>
<rect x="603.5" y="431.5" width="496" height="517" rx="13.5" fill="white" stroke="#DDDDDD" stroke-dasharray="2 4"/>
<path d="M822.461 750.673H816.029V749.521H822.461V750.673ZM824.093 747.105H822.461V748.305H816.029V747.105H814.397V751.921H824.093V747.105ZM825.789 754.225V752.913H812.685V754.225H818.397V755.409H814.237V756.641H822.525V757.665H814.285V761.217H824.557V759.953H815.917V758.817H824.141V755.409H820.061V754.225H825.789ZM835.729 748.273H832.289V746.769H830.641V748.273H827.201V749.601H835.729V748.273ZM829.537 752.673C829.537 751.857 830.305 751.361 831.457 751.361C832.609 751.361 833.393 751.857 833.393 752.673C833.393 753.505 832.609 754.001 831.457 754.001C830.305 754.001 829.537 753.505 829.537 752.673ZM834.961 752.673C834.961 751.153 833.553 750.129 831.457 750.129C829.377 750.129 827.953 751.153 827.953 752.673C827.953 754.209 829.377 755.233 831.457 755.233C833.553 755.233 834.961 754.209 834.961 752.673ZM836.833 759.857H830.865V758.529H836.833V759.857ZM836.833 757.249H830.865V755.921H829.233V761.169H838.465V755.921H836.833V757.249ZM840.513 750.497H838.465V746.897H836.817V755.329H838.465V751.857H840.513V750.497ZM843.878 757.441H851.974V761.313H853.622V756.129H843.878V757.441ZM851.974 746.881V749.361H849.094C849.206 748.897 849.254 748.369 849.254 747.841H842.598V749.169H847.494C847.19 751.393 845.19 753.185 841.83 754.081L842.47 755.393C845.558 754.561 847.734 752.945 848.694 750.689H851.974V752.417H848.47V753.761H851.974V755.505H853.622V746.881H851.974Z" fill="#283895"/>
<path d="M753 773H870" stroke="#7094F0" stroke-linecap="round" stroke-linejoin="round" stroke-dasharray="2 4"/>
<path d="M876.933 773.8L871.6 777.8C870.94 778.294 870 777.824 870 777L870 769C870 768.176 870.94 767.706 871.6 768.2L876.933 772.2C877.466 772.6 877.466 773.4 876.933 773.8Z" fill="#7094F0"/>
<path d="M715 535.865L715 464.677" stroke="#7094F0" stroke-linecap="round" stroke-linejoin="round" stroke-dasharray="2 4"/>
<path d="M715 848.659L715 777.472" stroke="#7094F0" stroke-linecap="round" stroke-linejoin="round" stroke-dasharray="2 4"/>
<path d="M715 730.013L715 654.511" stroke="#7094F0" stroke-linecap="round" stroke-linejoin="round" stroke-dasharray="2 4"/>
<path d="M716 654H910" stroke="#7094F0" stroke-linecap="round" stroke-linejoin="round" stroke-dasharray="2 4"/>
<path d="M978 579H770" stroke="#7094F0" stroke-linecap="round" stroke-linejoin="round" stroke-dasharray="2 4"/>
<path d="M644.494 891.804H567.914" stroke="#7094F0" stroke-linecap="round" stroke-linejoin="round" stroke-dasharray="2 4"/>
<path d="M568 891L568 716" stroke="#7094F0" stroke-linecap="round" stroke-linejoin="round" stroke-dasharray="2 4"/>
<path d="M986 730.013L986 658.825" stroke="#7094F0" stroke-linecap="round" stroke-linejoin="round" stroke-dasharray="2 4"/>
<path d="M986.8 734.933L990.8 729.6C991.294 728.941 990.824 728 990 728L982 728C981.176 728 980.706 728.941 981.2 729.6L985.2 734.933C985.6 735.467 986.4 735.467 986.8 734.933Z" fill="#7094F0"/>
<path d="M716.375 853.131L719.633 849.221C720.175 848.57 719.712 847.581 718.864 847.581L712.349 847.581C711.501 847.581 711.038 848.57 711.58 849.221L714.838 853.131C715.238 853.611 715.975 853.611 716.375 853.131Z" fill="#7094F0"/>
<path d="M715.8 734.34L719.8 729.006C720.294 728.347 719.824 727.406 719 727.406L711 727.406C710.175 727.406 709.705 728.347 710.2 729.006L714.2 734.34C714.6 734.873 715.4 734.873 715.8 734.34Z" fill="#7094F0"/>
<path d="M986 616L986 579" stroke="#7094F0" stroke-linecap="round" stroke-linejoin="round" stroke-dasharray="2 4"/>
<path d="M985.2 615.933L981.2 610.6C980.706 609.941 981.176 609 982 609L990 609C990.824 609 991.294 609.941 990.8 610.6L986.8 615.933C986.4 616.467 985.6 616.467 985.2 615.933Z" fill="#7094F0"/>
<path d="M1005.73 703.56H999.3V702.408H1005.73V703.56ZM1007.36 699.992H1005.73V701.192H999.3V699.992H997.668V704.808H1007.36V699.992ZM1009.06 707.112V705.8H995.956V707.112H1001.67V708.296H997.508V709.528H1005.8V710.552H997.556V714.104H1007.83V712.84H999.188V711.704H1007.41V708.296H1003.33V707.112H1009.06ZM1019 701.16H1015.56V699.656H1013.91V701.16H1010.47V702.488H1019V701.16ZM1012.81 705.56C1012.81 704.744 1013.58 704.248 1014.73 704.248C1015.88 704.248 1016.66 704.744 1016.66 705.56C1016.66 706.392 1015.88 706.888 1014.73 706.888C1013.58 706.888 1012.81 706.392 1012.81 705.56ZM1018.23 705.56C1018.23 704.04 1016.82 703.016 1014.73 703.016C1012.65 703.016 1011.22 704.04 1011.22 705.56C1011.22 707.096 1012.65 708.12 1014.73 708.12C1016.82 708.12 1018.23 707.096 1018.23 705.56ZM1020.1 712.744H1014.14V711.416H1020.1V712.744ZM1020.1 710.136H1014.14V708.808H1012.5V714.056H1021.74V708.808H1020.1V710.136ZM1023.78 703.384H1021.74V699.784H1020.09V708.216H1021.74V704.744H1023.78V703.384ZM1027.15 710.328H1035.25V714.2H1036.89V709.016H1027.15V710.328ZM1035.25 699.768V702.248H1032.37C1032.48 701.784 1032.53 701.256 1032.53 700.728H1025.87V702.056H1030.77C1030.46 704.28 1028.46 706.072 1025.1 706.968L1025.74 708.28C1028.83 707.448 1031.01 705.832 1031.97 703.576H1035.25V705.304H1031.74V706.648H1035.25V708.392H1036.89V699.768H1035.25Z" fill="#283895"/>
<path d="M716.375 540.336L719.633 536.426C720.175 535.775 719.712 534.786 718.864 534.786L712.349 534.786C711.501 534.786 711.038 535.775 711.58 536.426L714.838 540.336C715.238 540.816 715.975 540.816 716.375 540.336Z" fill="#7094F0"/>
<rect x="630" y="455" width="170" height="54" rx="10" fill="#F6F7FE"/>
<path d="M669.169 489.372C671.131 489.372 672.823 488.688 673.975 487.392L672.805 486.258C671.833 487.284 670.645 487.77 669.259 487.77C666.415 487.77 664.309 485.718 664.309 482.928C664.309 480.138 666.415 478.086 669.259 478.086C670.645 478.086 671.833 478.554 672.805 479.58L673.975 478.446C672.823 477.15 671.131 476.484 669.187 476.484C665.353 476.484 662.509 479.202 662.509 482.928C662.509 486.654 665.353 489.372 669.169 489.372ZM679.723 489.336C682.585 489.336 684.673 487.302 684.673 484.458C684.673 481.614 682.585 479.598 679.723 479.598C676.861 479.598 674.755 481.614 674.755 484.458C674.755 487.302 676.861 489.336 679.723 489.336ZM679.723 487.824C677.887 487.824 676.501 486.492 676.501 484.458C676.501 482.424 677.887 481.11 679.723 481.11C681.559 481.11 682.927 482.424 682.927 484.458C682.927 486.492 681.559 487.824 679.723 487.824ZM691.906 479.598C690.394 479.598 689.17 480.156 688.468 481.128V479.688H686.812V489.228H688.54V484.314C688.54 482.244 689.728 481.146 691.564 481.146C693.202 481.146 694.138 482.064 694.138 483.936V489.228H695.866V483.738C695.866 480.93 694.228 479.598 691.906 479.598ZM703.638 487.428C703.278 487.716 702.792 487.878 702.288 487.878C701.334 487.878 700.794 487.302 700.794 486.276V481.11H703.53V479.688H700.794V477.6H699.066V479.688H697.446V481.11H699.066V486.348C699.066 488.274 700.164 489.336 702.09 489.336C702.864 489.336 703.656 489.12 704.178 488.67L703.638 487.428ZM709.491 479.598C707.961 479.598 706.539 480.03 705.549 480.822L706.269 482.118C707.007 481.488 708.159 481.092 709.293 481.092C711.003 481.092 711.849 481.938 711.849 483.396V483.738H709.113C706.269 483.738 705.279 484.998 705.279 486.528C705.279 488.184 706.647 489.336 708.807 489.336C710.301 489.336 711.363 488.832 711.939 487.968V489.228H713.577V483.468C713.577 480.858 712.101 479.598 709.491 479.598ZM709.095 488.004C707.781 488.004 706.989 487.41 706.989 486.456C706.989 485.646 707.475 484.98 709.185 484.98H711.849V486.312C711.417 487.41 710.391 488.004 709.095 488.004ZM720.736 489.336C722.446 489.336 723.868 488.616 724.624 487.284L723.31 486.456C722.698 487.392 721.762 487.824 720.718 487.824C718.846 487.824 717.442 486.528 717.442 484.458C717.442 482.424 718.846 481.11 720.718 481.11C721.762 481.11 722.698 481.542 723.31 482.478L724.624 481.632C723.868 480.3 722.446 479.598 720.736 479.598C717.802 479.598 715.696 481.614 715.696 484.458C715.696 487.302 717.802 489.336 720.736 489.336ZM731.558 487.428C731.198 487.716 730.712 487.878 730.208 487.878C729.254 487.878 728.714 487.302 728.714 486.276V481.11H731.45V479.688H728.714V477.6H726.986V479.688H725.366V481.11H726.986V486.348C726.986 488.274 728.084 489.336 730.01 489.336C730.784 489.336 731.576 489.12 732.098 488.67L731.558 487.428ZM747.288 480.048H748.998V484.35H750.762V474.378H748.998V478.536H747.288V474.666H745.542V483.828H747.288V480.048ZM745.164 481.812C743.058 480.984 741.996 479.202 741.996 477.402V475.35H740.196V477.402C740.196 479.256 739.098 481.29 736.92 482.28L737.892 483.702C739.458 483.018 740.52 481.758 741.114 480.264C741.726 481.56 742.734 482.64 744.174 483.198L745.164 481.812ZM745.344 489.192C743.058 489.192 741.69 488.634 741.69 487.644C741.69 486.636 743.058 486.078 745.344 486.078C747.63 486.078 748.998 486.636 748.998 487.644C748.998 488.634 747.63 489.192 745.344 489.192ZM745.344 484.656C741.96 484.656 739.836 485.772 739.836 487.644C739.836 489.498 741.96 490.614 745.344 490.614C748.728 490.614 750.852 489.498 750.852 487.644C750.852 485.772 748.728 484.656 745.344 484.656ZM764.929 483.936H766.783V474.342H764.929V477.6H761.635V479.112H764.929V483.936ZM762.967 481.83C760.501 481.02 759.151 478.986 759.151 476.736V475.224H757.279V476.826C757.279 479.202 755.857 481.398 753.247 482.28L754.219 483.774C756.181 483.072 757.549 481.65 758.269 479.85C758.971 481.434 760.231 482.658 761.977 483.288L762.967 481.83ZM761.365 489.156C759.061 489.156 757.747 488.562 757.747 487.5C757.747 486.438 759.061 485.844 761.365 485.844C763.669 485.844 765.001 486.438 765.001 487.5C765.001 488.562 763.669 489.156 761.365 489.156ZM761.365 484.386C757.981 484.386 755.893 485.538 755.893 487.5C755.893 489.462 757.981 490.614 761.365 490.614C764.767 490.614 766.855 489.462 766.855 487.5C766.855 485.538 764.767 484.386 761.365 484.386Z" fill="#283895"/>
<rect x="630" y="552.044" width="170" height="54" rx="10" fill="#F6F7FE"/>
<path d="M691.438 578.778C689.332 577.95 688.27 576.15 688.27 574.368V572.352H686.47V574.35C686.47 576.186 685.372 578.256 683.194 579.21L684.166 580.65C685.732 579.966 686.794 578.706 687.388 577.23C687.982 578.544 689.008 579.588 690.448 580.182L691.438 578.778ZM688.054 583.17H695.236V586.014H688.054V583.17ZM686.218 587.49H697.036V581.694H686.218V587.49ZM695.272 571.452V575.394H693.562V571.722H691.816V580.722H693.562V576.906H695.272V580.938H697.036V571.452H695.272ZM708.79 575.952H705.046V573.324H708.79V575.952ZM703.192 575.952H700.978V577.356H712.84V575.952H710.644V573.324H712.93V571.902H700.888V573.324H703.192V575.952ZM703.192 584.934H712.444V581.154H701.32V582.522H710.626V583.656H701.356V587.544H712.912V586.158H703.192V584.934ZM699.574 578.49V579.966H714.298V578.49H699.574ZM725.58 573.702H720.666V586.302H722.466V582.486H725.58C728.856 582.486 730.836 580.83 730.836 578.094C730.836 575.358 728.856 573.702 725.58 573.702ZM725.526 580.92H722.466V575.268H725.526C727.83 575.268 729.036 576.294 729.036 578.094C729.036 579.894 727.83 580.92 725.526 580.92ZM739.094 586.446C742.928 586.446 745.772 583.71 745.772 580.002C745.772 576.294 742.928 573.558 739.094 573.558C735.224 573.558 732.38 576.312 732.38 580.002C732.38 583.692 735.224 586.446 739.094 586.446ZM739.094 584.844C736.268 584.844 734.18 582.792 734.18 580.002C734.18 577.212 736.268 575.16 739.094 575.16C741.884 575.16 743.972 577.212 743.972 580.002C743.972 582.792 741.884 584.844 739.094 584.844Z" fill="#283895"/>
<rect x="901" y="627" width="170" height="54" rx="10" fill="#435CE7"/>
<path d="M960.427 654.476C958.321 653.648 957.259 651.848 957.259 650.066V648.05H955.459V650.048C955.459 651.884 954.361 653.954 952.183 654.908L953.155 656.348C954.721 655.664 955.783 654.404 956.377 652.928C956.971 654.242 957.997 655.286 959.437 655.88L960.427 654.476ZM957.043 658.868H964.225V661.712H957.043V658.868ZM955.207 663.188H966.025V657.392H955.207V663.188ZM964.261 647.15V651.092H962.551V647.42H960.805V656.42H962.551V652.604H964.261V656.636H966.025V647.15H964.261ZM977.78 651.65H974.036V649.022H977.78V651.65ZM972.182 651.65H969.968V653.054H981.83V651.65H979.634V649.022H981.92V647.6H969.878V649.022H972.182V651.65ZM972.182 660.632H981.434V656.852H970.31V658.22H979.616V659.354H970.346V663.242H981.902V661.856H972.182V660.632ZM968.564 654.188V655.664H983.288V654.188H968.564ZM994.228 660.2C993.868 660.488 993.382 660.65 992.878 660.65C991.924 660.65 991.384 660.074 991.384 659.048V653.882H994.12V652.46H991.384V650.372H989.656V652.46H988.036V653.882H989.656V659.12C989.656 661.046 990.754 662.108 992.68 662.108C993.454 662.108 994.246 661.892 994.768 661.442L994.228 660.2ZM1004.91 657.284C1004.91 654.35 1002.95 652.37 1000.2 652.37C997.442 652.37 995.408 654.404 995.408 657.23C995.408 660.074 997.46 662.108 1000.54 662.108C1002.12 662.108 1003.44 661.568 1004.3 660.56L1003.35 659.444C1002.64 660.218 1001.71 660.596 1000.59 660.596C998.702 660.596 997.352 659.48 997.136 657.806H1004.88C1004.89 657.644 1004.91 657.428 1004.91 657.284ZM1000.2 653.828C1001.87 653.828 1003.08 654.962 1003.26 656.564H997.136C997.316 654.944 998.54 653.828 1000.2 653.828ZM1009.8 662.108C1012.34 662.108 1013.92 661.01 1013.92 659.282C1013.92 655.574 1007.87 657.41 1007.87 655.16C1007.87 654.404 1008.61 653.846 1010.12 653.846C1011.06 653.846 1012.01 654.044 1012.88 654.602L1013.61 653.234C1012.79 652.694 1011.38 652.37 1010.14 652.37C1007.69 652.37 1006.16 653.522 1006.16 655.232C1006.16 659.03 1012.19 657.176 1012.19 659.318C1012.19 660.128 1011.53 660.614 1009.92 660.614C1008.68 660.614 1007.39 660.2 1006.58 659.624L1005.86 660.992C1006.65 661.622 1008.21 662.108 1009.8 662.108ZM1020.65 660.2C1020.29 660.488 1019.81 660.65 1019.3 660.65C1018.35 660.65 1017.81 660.074 1017.81 659.048V653.882H1020.55V652.46H1017.81V650.372H1016.08V652.46H1014.46V653.882H1016.08V659.12C1016.08 661.046 1017.18 662.108 1019.11 662.108C1019.88 662.108 1020.67 661.892 1021.19 661.442L1020.65 660.2Z" fill="white"/>
<rect x="901" y="746" width="170" height="54" rx="10" fill="#283895"/>
<path d="M967.19 770.884H957.848V768.184H967.082V766.69H956.012V772.378H967.19V770.884ZM961.484 780.946C959.108 780.946 957.776 780.424 957.776 779.416C957.776 778.426 959.108 777.886 961.484 777.886C963.86 777.886 965.21 778.426 965.21 779.416C965.21 780.424 963.86 780.946 961.484 780.946ZM961.484 776.464C958.01 776.464 955.886 777.544 955.886 779.416C955.886 781.306 958.01 782.386 961.484 782.386C964.976 782.386 967.082 781.306 967.082 779.416C967.082 777.544 964.976 776.464 961.484 776.464ZM954.194 773.728V775.258H968.882V773.728H954.194ZM972.122 779.056H981.59V782.296H983.444V777.562H972.122V779.056ZM978.764 774.97V773.494H983.678V772.072H974.174V770.632H983.354V766.51H972.32V767.932H981.518V769.3H972.356V773.494H976.91V774.97H970.466V776.464H985.208V774.97H978.764ZM988.215 774.25C990.141 773.818 991.491 772.846 992.193 771.55C992.913 772.72 994.227 773.62 996.081 774.016L996.819 772.576C994.479 772.09 993.111 770.812 993.093 769.336H996.495V767.878H993.093V766.168H991.221V767.878H987.837V769.336H991.239C991.221 770.902 989.835 772.306 987.459 772.828L988.215 774.25ZM997.341 774.682C993.849 775.168 989.817 775.204 986.793 775.204L987.027 776.734C988.305 776.734 989.727 776.716 991.239 776.662V781.918H993.093V776.554C994.533 776.482 996.027 776.302 997.449 776.05L997.341 774.682ZM998.385 766.132V782.404H1000.24V766.132H998.385ZM1017.2 773.818C1013.99 773.278 1011.38 770.866 1011.38 768.346V767.122H1009.42V768.346C1009.42 770.848 1006.81 773.278 1003.59 773.818L1004.38 775.366C1007.03 774.844 1009.33 773.224 1010.41 771.064C1011.45 773.224 1013.76 774.844 1016.42 775.366L1017.2 773.818ZM1011.31 778.84V775.042H1009.46V778.84H1003.1V780.37H1017.83V778.84H1011.31Z" fill="white"/>
<rect x="629.999" y="746.192" width="170" height="54" rx="10" fill="#435CE7"/>
<rect x="629.999" y="865" width="170" height="54" rx="10" fill="#F6F7FE"/>
<path d="M697.364 765.582H695.492V773.916H697.364V765.582ZM693.854 772.098C691.352 771.324 689.894 769.344 689.894 767.238V766.014H688.004V767.238C688.004 769.434 686.546 771.54 683.972 772.386L684.89 773.862C686.852 773.196 688.238 771.846 688.976 770.1C689.714 771.702 691.082 772.944 692.954 773.556L693.854 772.098ZM688.562 780.234V778.812H697.364V774.69H686.708V776.13H695.528V777.462H686.744V781.692H697.85V780.234H688.562ZM705.968 766.932H704.114V769.596C704.114 772.602 702.53 775.68 699.992 776.922L701.126 778.416C702.98 777.462 704.348 775.572 705.05 773.322C705.752 775.446 707.048 777.21 708.794 778.11L709.928 776.634C707.48 775.428 705.968 772.494 705.968 769.596V766.932ZM715.4 772.026H712.862V765.582H711.008V781.836H712.862V773.556H715.4V772.026ZM728.199 775.572H730.053V765.582H728.199V768.354H725.841V769.848H728.199V771.324H725.841V772.818H728.199V775.572ZM720.279 768.246H722.349V773.142C721.647 773.178 720.963 773.196 720.279 773.214V768.246ZM725.967 772.854C725.373 772.926 724.761 772.98 724.131 773.016V768.246H725.589V766.734H717.021V768.246H718.497V773.25C717.831 773.25 717.183 773.25 716.589 773.25L716.805 774.78C719.415 774.78 723.015 774.726 726.075 774.204L725.967 772.854ZM724.635 780.414C722.313 780.414 721.017 779.856 721.017 778.866C721.017 777.84 722.313 777.3 724.635 777.3C726.957 777.3 728.271 777.84 728.271 778.866C728.271 779.856 726.957 780.414 724.635 780.414ZM724.635 775.86C721.233 775.86 719.163 776.958 719.163 778.866C719.163 780.738 721.233 781.836 724.635 781.836C728.037 781.836 730.125 780.738 730.125 778.866C730.125 776.958 728.037 775.86 724.635 775.86ZM733.689 767.292V768.804H739.377C738.999 772.548 736.857 775.41 732.879 777.444L733.905 778.866C739.215 776.184 741.231 772.008 741.231 767.292H733.689ZM747.945 771.99H745.479V765.564H743.625V781.818H745.479V773.538H747.945V771.99Z" fill="white"/>
<path d="M661.553 884.228H659.681V892.562H661.553V884.228ZM658.043 890.744C655.541 889.97 654.083 887.99 654.083 885.884V884.66H652.193V885.884C652.193 888.08 650.735 890.186 648.161 891.032L649.079 892.508C651.041 891.842 652.427 890.492 653.165 888.746C653.903 890.348 655.271 891.59 657.143 892.202L658.043 890.744ZM652.751 898.88V897.458H661.553V893.336H650.897V894.776H659.717V896.108H650.933V900.338H662.039V898.88H652.751ZM670.158 885.578H668.304V888.242C668.304 891.248 666.72 894.326 664.182 895.568L665.316 897.062C667.17 896.108 668.538 894.218 669.24 891.968C669.942 894.092 671.238 895.856 672.984 896.756L674.118 895.28C671.67 894.074 670.158 891.14 670.158 888.242V885.578ZM679.59 890.672H677.052V884.228H675.198V900.482H677.052V892.202H679.59V890.672ZM692.388 894.218H694.242V884.228H692.388V887H690.03V888.494H692.388V889.97H690.03V891.464H692.388V894.218ZM684.468 886.892H686.538V891.788C685.836 891.824 685.152 891.842 684.468 891.86V886.892ZM690.156 891.5C689.562 891.572 688.95 891.626 688.32 891.662V886.892H689.778V885.38H681.21V886.892H682.686V891.896C682.02 891.896 681.372 891.896 680.778 891.896L680.994 893.426C683.604 893.426 687.204 893.372 690.264 892.85L690.156 891.5ZM688.824 899.06C686.502 899.06 685.206 898.502 685.206 897.512C685.206 896.486 686.502 895.946 688.824 895.946C691.146 895.946 692.46 896.486 692.46 897.512C692.46 898.502 691.146 899.06 688.824 899.06ZM688.824 894.506C685.422 894.506 683.352 895.604 683.352 897.512C683.352 899.384 685.422 900.482 688.824 900.482C692.226 900.482 694.314 899.384 694.314 897.512C694.314 895.604 692.226 894.506 688.824 894.506ZM697.879 885.938V887.45H703.567C703.189 891.194 701.047 894.056 697.069 896.09L698.095 897.512C703.405 894.83 705.421 890.654 705.421 885.938H697.879ZM712.135 890.636H709.669V884.21H707.815V900.464H709.669V892.184H712.135V890.636ZM728.799 887.882V889.556H724.821V890.996H728.799V892.472H730.653V884.228H728.799V886.442H725.433C725.523 885.974 725.559 885.47 725.559 884.948H718.287V886.442H723.507C723.255 888.71 721.257 890.492 717.405 891.32L718.053 892.832C721.635 892.022 724.029 890.366 725.037 887.882H728.799ZM721.959 898.844V897.35H730.653V893.138H720.069V894.614H728.799V895.964H720.105V900.338H731.103V898.844H721.959ZM742.011 893.372C742.461 890.492 742.461 888.44 742.461 887.018V885.938H734.199V887.432H740.643C740.643 888.8 740.607 890.69 740.193 893.21L742.011 893.372ZM738.375 890.6H736.557V895.496C735.423 895.514 734.325 895.532 733.335 895.532L733.533 897.062C736.377 897.062 740.103 896.99 743.451 896.432L743.361 895.082C741.777 895.28 740.067 895.388 738.375 895.46V890.6ZM748.491 890.906H746.097V884.228H744.225V900.482H746.097V892.472H748.491V890.906ZM753.298 889.538H761.002V892.202H753.298V889.538ZM758.068 896.972V893.696H762.838V885.308H761.002V888.044H753.298V885.308H751.462V893.696H756.214V896.972H749.806V898.502H764.53V896.972H758.068ZM777.346 887.342C777.346 889.286 777.346 891.59 776.716 894.776L778.588 894.974C779.218 891.608 779.218 889.358 779.218 887.342V885.74H767.644V887.252H777.346V887.342ZM773.458 896.828V891.104H771.586V896.828H766.114V898.358H780.802V896.828H773.458Z" fill="#283895"/>
<path d="M986.243 477.184L987.395 476.672C986.019 474.384 985.379 471.68 985.379 468.992C985.379 466.32 986.019 463.616 987.395 461.312L986.243 460.816C984.755 463.232 983.875 465.84 983.875 468.992C983.875 472.176 984.755 474.752 986.243 477.184ZM995.953 467.312C994.081 466.576 993.137 464.976 993.137 463.392V461.6H991.537V463.376C991.537 465.008 990.561 466.848 988.625 467.696L989.489 468.976C990.881 468.368 991.825 467.248 992.353 465.936C992.881 467.104 993.793 468.032 995.073 468.56L995.953 467.312ZM992.945 471.216H999.329V473.744H992.945V471.216ZM991.313 475.056H1000.93V469.904H991.313V475.056ZM999.361 460.8V464.304H997.841V461.04H996.289V469.04H997.841V465.648H999.361V469.232H1000.93V460.8H999.361ZM1011.35 464.8H1008.02V462.464H1011.35V464.8ZM1006.37 464.8H1004.41V466.048H1014.95V464.8H1013V462.464H1015.03V461.2H1004.33V462.464H1006.37V464.8ZM1006.37 472.784H1014.6V469.424H1004.71V470.64H1012.98V471.648H1004.74V475.104H1015.01V473.872H1006.37V472.784ZM1003.16 467.056V468.368H1016.25V467.056H1003.16ZM1030.71 467.84H1028.7C1029.07 465.792 1029.07 464.288 1029.07 462.928V461.664H1019.21V462.992H1027.45C1027.45 464.32 1027.45 465.824 1027.03 467.84H1017.64V469.2H1023.29V475.232H1024.95V469.2H1030.71V467.84ZM1034.13 463.68H1036.62V470.16H1034.13V463.68ZM1032.59 471.472H1038.16V462.368H1032.59V471.472ZM1042.88 460.784V466.416H1041.23V461.056H1039.68V474.544H1041.23V467.76H1042.88V475.216H1044.45V460.784H1042.88ZM1053.62 462.928V466.144H1051.7V462.928H1053.62ZM1051.7 470.832V467.456H1053.62V470.832H1051.7ZM1055.03 461.584H1050.32V473.504H1051.7V472.16H1055.03V461.584ZM1056.18 470.752C1056.95 471.584 1057.78 472.72 1058.12 473.488L1059.38 472.72C1059.03 471.952 1058.15 470.864 1057.38 470.064L1056.18 470.752ZM1064.48 466.752V465.44H1060.6V463.68H1063.89V462.384H1060.6V460.56H1059.11V462.384H1055.91V463.68H1059.11V465.44H1055.3V466.752H1061.17V468.352H1055.35V469.664H1061.17V473.568C1061.17 473.792 1061.09 473.856 1060.84 473.872C1060.6 473.872 1059.72 473.872 1058.82 473.84C1059.03 474.256 1059.24 474.832 1059.3 475.232C1060.55 475.232 1061.36 475.216 1061.92 474.992C1062.45 474.768 1062.63 474.368 1062.63 473.6V469.664H1064.34V468.352H1062.63V466.752H1064.48ZM1066.75 477.184C1068.25 474.752 1069.13 472.176 1069.13 468.992C1069.13 465.84 1068.25 463.232 1066.75 460.816L1065.59 461.312C1066.97 463.616 1067.61 466.32 1067.61 468.992C1067.61 471.68 1066.97 474.384 1065.59 476.672L1066.75 477.184Z" fill="#666666"/>
<path d="M674.945 819.16H671.505V817.656H669.857V819.16H666.417V820.488H674.945V819.16ZM668.753 823.56C668.753 822.744 669.521 822.248 670.673 822.248C671.825 822.248 672.609 822.744 672.609 823.56C672.609 824.392 671.825 824.888 670.673 824.888C669.521 824.888 668.753 824.392 668.753 823.56ZM674.177 823.56C674.177 822.04 672.769 821.016 670.673 821.016C668.593 821.016 667.169 822.04 667.169 823.56C667.169 825.096 668.593 826.12 670.673 826.12C672.769 826.12 674.177 825.096 674.177 823.56ZM676.049 830.744H670.081V829.416H676.049V830.744ZM676.049 828.136H670.081V826.808H668.449V832.056H677.681V826.808H676.049V828.136ZM679.729 821.384H677.681V817.784H676.033V826.216H677.681V822.744H679.729V821.384ZM683.094 828.328H691.19V832.2H692.838V827.016H683.094V828.328ZM691.19 817.768V820.248H688.31C688.422 819.784 688.47 819.256 688.47 818.728H681.814V820.056H686.71C686.406 822.28 684.406 824.072 681.046 824.968L681.686 826.28C684.774 825.448 686.95 823.832 687.91 821.576H691.19V823.304H687.686V824.648H691.19V826.392H692.838V817.768H691.19Z" fill="#7094F0"/>
<path d="M672.945 686.16H669.505V684.656H667.857V686.16H664.417V687.488H672.945V686.16ZM666.753 690.56C666.753 689.744 667.521 689.248 668.673 689.248C669.825 689.248 670.609 689.744 670.609 690.56C670.609 691.392 669.825 691.888 668.673 691.888C667.521 691.888 666.753 691.392 666.753 690.56ZM672.177 690.56C672.177 689.04 670.769 688.016 668.673 688.016C666.593 688.016 665.169 689.04 665.169 690.56C665.169 692.096 666.593 693.12 668.673 693.12C670.769 693.12 672.177 692.096 672.177 690.56ZM674.049 697.744H668.081V696.416H674.049V697.744ZM674.049 695.136H668.081V693.808H666.449V699.056H675.681V693.808H674.049V695.136ZM677.729 688.384H675.681V684.784H674.033V693.216H675.681V689.744H677.729V688.384ZM681.094 695.328H689.19V699.2H690.838V694.016H681.094V695.328ZM689.19 684.768V687.248H686.31C686.422 686.784 686.47 686.256 686.47 685.728H679.814V687.056H684.71C684.406 689.28 682.406 691.072 679.046 691.968L679.686 693.28C682.774 692.448 684.95 690.832 685.91 688.576H689.19V690.304H685.686V691.648H689.19V693.392H690.838V684.768H689.19Z" fill="#7094F0"/>
<rect x="360" y="895" width="170" height="54" rx="10" fill="#F6F7FE"/>
<path d="M417.3 919.938C417.3 918.534 418.362 917.616 419.802 917.616C421.26 917.616 422.322 918.534 422.322 919.938C422.322 921.36 421.26 922.26 419.802 922.26C418.362 922.26 417.3 921.36 417.3 919.938ZM424.14 919.938C424.14 917.652 422.286 916.068 419.802 916.068C417.336 916.068 415.482 917.652 415.482 919.938C415.482 922.224 417.336 923.826 419.802 923.826C422.286 923.826 424.14 922.224 424.14 919.938ZM422.736 929.91C420.468 929.91 419.154 929.334 419.154 928.272C419.154 927.192 420.468 926.616 422.736 926.616C425.004 926.616 426.318 927.192 426.318 928.272C426.318 929.334 425.004 929.91 422.736 929.91ZM422.736 925.14C419.406 925.14 417.318 926.31 417.318 928.272C417.318 930.216 419.406 931.386 422.736 931.386C426.084 931.386 428.154 930.216 428.154 928.272C428.154 926.31 426.084 925.14 422.736 925.14ZM430.224 918.876V917.346H427.974V915.114H426.12V924.69H427.974V922.386H430.224V920.856H427.974V918.876H430.224ZM441.169 923.088C438.703 922.242 437.299 920.19 437.299 918.03V916.122H435.427V918.012C435.427 920.388 434.041 922.584 431.431 923.466L432.439 924.906C434.347 924.222 435.697 922.836 436.399 921.054C437.119 922.638 438.433 923.934 440.233 924.564L441.169 923.088ZM435.877 925.95H434.023V931.08H444.931V929.568H435.877V925.95ZM444.283 919.992V915.114H442.429V927.102H444.283V921.522H446.587V919.992H444.283ZM457.58 917.4H452.666V930H454.466V926.184H457.58C460.856 926.184 462.836 924.528 462.836 921.792C462.836 919.056 460.856 917.4 457.58 917.4ZM457.526 924.618H454.466V918.966H457.526C459.83 918.966 461.036 919.992 461.036 921.792C461.036 923.592 459.83 924.618 457.526 924.618ZM471.095 930.144C474.929 930.144 477.773 927.408 477.773 923.7C477.773 919.992 474.929 917.256 471.095 917.256C467.225 917.256 464.381 920.01 464.381 923.7C464.381 927.39 467.225 930.144 471.095 930.144ZM471.095 928.542C468.269 928.542 466.181 926.49 466.181 923.7C466.181 920.91 468.269 918.858 471.095 918.858C473.885 918.858 475.973 920.91 475.973 923.7C475.973 926.49 473.885 928.542 471.095 928.542Z" fill="#283895"/>
<rect x="100" y="895" width="180" height="54" rx="10" fill="#F6F7FE"/>
<path d="M183.322 928L180.334 923.77C182.098 923.14 183.106 921.736 183.106 919.792C183.106 917.056 181.126 915.4 177.85 915.4H172.936V928H174.736V924.166H177.85C178.12 924.166 178.39 924.148 178.642 924.13L181.36 928H183.322ZM177.796 922.636H174.736V916.966H177.796C180.1 916.966 181.306 917.992 181.306 919.792C181.306 921.592 180.1 922.636 177.796 922.636ZM188.09 928H189.872V916.966H194.192V915.4H183.77V916.966H188.09V928ZM201.415 928.144C205.249 928.144 208.093 925.408 208.093 921.7C208.093 917.992 205.249 915.256 201.415 915.256C197.545 915.256 194.701 918.01 194.701 921.7C194.701 925.39 197.545 928.144 201.415 928.144ZM201.415 926.542C198.589 926.542 196.501 924.49 196.501 921.7C196.501 918.91 198.589 916.858 201.415 916.858C204.205 916.858 206.293 918.91 206.293 921.7C206.293 924.49 204.205 926.542 201.415 926.542Z" fill="#283895"/>
</svg>
