<svg width="1065" height="491" viewBox="0 0 1065 491" fill="none" xmlns="http://www.w3.org/2000/svg">
<path d="M0 1H1065V490H0V1Z" fill="white"/>
<path d="M190 490L190 1" stroke="#DDDDDD" stroke-linecap="round" stroke-linejoin="round" stroke-dasharray="2 4"/>
<path d="M410 490L410 1" stroke="#DDDDDD" stroke-linecap="round" stroke-linejoin="round" stroke-dasharray="2 4"/>
<path d="M630 490L630 1" stroke="#DDDDDD" stroke-linecap="round" stroke-linejoin="round" stroke-dasharray="2 4"/>
<path d="M850 490L850 1" stroke="#DDDDDD" stroke-linecap="round" stroke-linejoin="round" stroke-dasharray="2 4"/>
<path d="M380 106H425" stroke="#7094F0" stroke-linecap="round" stroke-linejoin="round" stroke-dasharray="2 4"/>
<path d="M429.077 106.768L425.639 109.633C424.988 110.176 423.999 109.713 423.999 108.865L423.999 103.135C423.999 102.287 424.988 101.824 425.639 102.367L429.077 105.232C429.557 105.632 429.557 106.368 429.077 106.768Z" fill="#7094F0"/>
<rect y="81" width="160" height="50" rx="7" fill="#F6F7FE"/>
<path d="M68.5371 107.736V108.952H65.0491C65.1451 108.552 65.2411 108.136 65.3371 107.736H68.5371ZM69.9931 105.16H73.5931V106.488H69.9931V105.16ZM69.9931 108.952V107.736H75.0651V103.912H63.4171V105.16H68.5371V106.488H64.1211C63.8651 107.784 63.4491 109.416 63.1131 110.488L64.5851 110.696L64.7291 110.216H67.3211C65.9291 111.368 63.9131 112.36 62.0731 112.872C62.3931 113.144 62.8091 113.688 63.0331 114.04C64.9691 113.384 67.0651 112.2 68.5371 110.792V114.248H69.9931V110.216H74.3931C74.2651 111.4 74.1211 111.944 73.9131 112.152C73.7691 112.264 73.6091 112.28 73.3531 112.28C73.0651 112.296 72.3611 112.28 71.6251 112.2C71.8491 112.568 72.0251 113.144 72.0411 113.56C72.8571 113.608 73.6251 113.592 74.0411 113.56C74.5051 113.528 74.8411 113.416 75.1451 113.096C75.5451 112.68 75.7531 111.704 75.9451 109.528C75.9611 109.336 75.9771 108.952 75.9771 108.952H69.9931ZM71.4971 100.872C71.6731 100.536 71.8331 100.184 71.9771 99.832L70.5531 99.48C70.2171 100.392 69.7051 101.288 69.0651 102.024V100.872H65.1611C65.3211 100.536 65.4811 100.184 65.6251 99.848L64.2171 99.48C63.7051 100.856 62.7931 102.264 61.8011 103.16C62.1371 103.352 62.7291 103.752 63.0171 103.96C63.5131 103.464 64.0251 102.792 64.4891 102.056H64.9211C65.2411 102.68 65.5611 103.4 65.6731 103.88L66.9531 103.352C66.8571 103 66.6491 102.52 66.3931 102.056H69.0331C68.7291 102.424 68.3771 102.76 68.0251 103.032C68.3771 103.208 68.9691 103.624 69.2411 103.864C69.7851 103.384 70.3131 102.76 70.7931 102.056H71.7051C72.1691 102.664 72.6171 103.384 72.8091 103.88L74.1051 103.368C73.9451 103 73.6411 102.52 73.3051 102.056H76.4731V100.872H71.4971ZM79.6951 113V102.44L80.3831 103.192H77.1671V101.8H81.2791V113H79.6951ZM87.0789 105.72V106.92H94.6149V105.72H91.4789V104.392H94.2629V103.224H91.4789V101.992H90.0709V103.224H87.4309V104.392H90.0709V105.72H87.0789ZM92.5189 109.224V111.128H89.1109V109.224H92.5189ZM93.8949 112.296V108.072H87.7669V113.192H89.1109V112.296H93.8949ZM96.8709 100.344H84.9989V105.64C84.9989 108.008 84.8389 111.176 83.2389 113.4C83.5749 113.576 84.1989 114.072 84.4549 114.36C86.1989 111.944 86.4709 108.232 86.4709 105.64V101.736H95.3829V112.504C95.3829 112.776 95.2869 112.872 94.9989 112.888C94.7269 112.888 93.7509 112.904 92.8389 112.872C93.0309 113.224 93.2549 113.88 93.3029 114.248C94.7109 114.248 95.5749 114.232 96.1189 113.992C96.6629 113.768 96.8709 113.352 96.8709 112.504V100.344Z" fill="#283895"/>
<rect y="151" width="160" height="50" rx="7" fill="#F6F7FE"/>
<path d="M67.4043 177.736V178.952H63.9163C64.0123 178.552 64.1083 178.136 64.2043 177.736H67.4043ZM68.8603 175.16H72.4603V176.488H68.8603V175.16ZM68.8603 178.952V177.736H73.9323V173.912H62.2843V175.16H67.4043V176.488H62.9883C62.7323 177.784 62.3163 179.416 61.9803 180.488L63.4523 180.696L63.5963 180.216H66.1883C64.7963 181.368 62.7803 182.36 60.9403 182.872C61.2603 183.144 61.6763 183.688 61.9003 184.04C63.8363 183.384 65.9323 182.2 67.4043 180.792V184.248H68.8603V180.216H73.2603C73.1323 181.4 72.9883 181.944 72.7803 182.152C72.6363 182.264 72.4763 182.28 72.2203 182.28C71.9323 182.296 71.2283 182.28 70.4923 182.2C70.7163 182.568 70.8923 183.144 70.9083 183.56C71.7243 183.608 72.4923 183.592 72.9083 183.56C73.3723 183.528 73.7083 183.416 74.0123 183.096C74.4123 182.68 74.6203 181.704 74.8123 179.528C74.8283 179.336 74.8443 178.952 74.8443 178.952H68.8603ZM70.3643 170.872C70.5403 170.536 70.7003 170.184 70.8443 169.832L69.4203 169.48C69.0843 170.392 68.5723 171.288 67.9323 172.024V170.872H64.0283C64.1883 170.536 64.3483 170.184 64.4923 169.848L63.0843 169.48C62.5723 170.856 61.6603 172.264 60.6683 173.16C61.0043 173.352 61.5963 173.752 61.8843 173.96C62.3803 173.464 62.8923 172.792 63.3563 172.056H63.7883C64.1083 172.68 64.4283 173.4 64.5403 173.88L65.8203 173.352C65.7243 173 65.5163 172.52 65.2603 172.056H67.9003C67.5963 172.424 67.2443 172.76 66.8923 173.032C67.2443 173.208 67.8363 173.624 68.1083 173.864C68.6523 173.384 69.1803 172.76 69.6603 172.056H70.5723C71.0363 172.664 71.4843 173.384 71.6763 173.88L72.9723 173.368C72.8123 173 72.5083 172.52 72.1723 172.056H75.3403V170.872H70.3643ZM76.4983 183V181.912L81.0583 177.512C81.4636 177.128 81.7623 176.792 81.9543 176.504C82.1569 176.205 82.2903 175.933 82.3543 175.688C82.4289 175.432 82.4663 175.187 82.4663 174.952C82.4663 174.376 82.2636 173.923 81.8583 173.592C81.4529 173.261 80.8609 173.096 80.0823 173.096C79.4849 173.096 78.9463 173.197 78.4663 173.4C77.9863 173.592 77.5703 173.896 77.2183 174.312L76.1303 173.368C76.5569 172.824 77.1276 172.408 77.8423 172.12C78.5676 171.821 79.3623 171.672 80.2263 171.672C81.0049 171.672 81.6823 171.8 82.2583 172.056C82.8343 172.301 83.2769 172.659 83.5863 173.128C83.9063 173.597 84.0663 174.152 84.0663 174.792C84.0663 175.155 84.0183 175.512 83.9223 175.864C83.8263 176.216 83.6449 176.589 83.3783 176.984C83.1116 177.379 82.7276 177.821 82.2263 178.312L78.1623 182.232L77.7783 181.608H84.5463V183H76.4983ZM89.2118 175.72V176.92H96.7478V175.72H93.6118V174.392H96.3958V173.224H93.6118V171.992H92.2038V173.224H89.5638V174.392H92.2038V175.72H89.2118ZM94.6518 179.224V181.128H91.2438V179.224H94.6518ZM96.0278 182.296V178.072H89.8998V183.192H91.2438V182.296H96.0278ZM99.0038 170.344H87.1318V175.64C87.1318 178.008 86.9718 181.176 85.3717 183.4C85.7078 183.576 86.3318 184.072 86.5878 184.36C88.3318 181.944 88.6038 178.232 88.6038 175.64V171.736H97.5158V182.504C97.5158 182.776 97.4198 182.872 97.1318 182.888C96.8598 182.888 95.8838 182.904 94.9718 182.872C95.1638 183.224 95.3878 183.88 95.4358 184.248C96.8438 184.248 97.7078 184.232 98.2518 183.992C98.7958 183.768 99.0038 183.352 99.0038 182.504V170.344Z" fill="#283895"/>
<rect y="1" width="160" height="50" rx="7" fill="#F5F5F5"/>
<path d="M76.368 25.72V26.92H83.904V25.72H80.768V24.392H83.552V23.224H80.768V21.992H79.36V23.224H76.72V24.392H79.36V25.72H76.368ZM81.808 29.224V31.128H78.4V29.224H81.808ZM83.184 32.296V28.072H77.056V33.192H78.4V32.296H83.184ZM86.16 20.344H74.288V25.64C74.288 28.008 74.128 31.176 72.528 33.4C72.864 33.576 73.488 34.072 73.744 34.36C75.488 31.944 75.76 28.232 75.76 25.64V21.736H84.672V32.504C84.672 32.776 84.576 32.872 84.288 32.888C84.016 32.888 83.04 32.904 82.128 32.872C82.32 33.224 82.544 33.88 82.592 34.248C84 34.248 84.864 34.232 85.408 33.992C85.952 33.768 86.16 33.352 86.16 32.504V20.344Z" fill="#222222"/>
<rect x="220" y="151" width="160" height="50" rx="7" fill="#435CE7"/>
<path d="M273.783 171.688C273.047 171.144 271.591 170.472 270.471 170.072L269.719 171.096C270.855 171.528 272.295 172.28 272.999 172.824L273.783 171.688ZM273.815 173.528C272.119 174.088 270.375 174.632 269.223 174.968L269.655 176.328C270.919 175.88 272.551 175.352 274.071 174.808L273.815 173.528ZM281.719 181.288V177.048H271.223V181.416H272.695V178.392H280.199V181.288H281.719ZM275.751 178.824C275.303 181.176 274.183 182.472 269.159 183.064C269.383 183.368 269.703 183.944 269.815 184.28C275.239 183.528 276.679 181.848 277.223 178.824H275.751ZM276.567 181.912C278.503 182.536 281.127 183.528 282.439 184.216L283.335 183C281.959 182.344 279.287 181.4 277.415 180.872L276.567 181.912ZM281.335 172.12C281.143 172.6 280.919 173.08 280.727 173.416L282.039 173.768C282.423 173.128 282.887 172.12 283.239 171.208L282.151 170.936L281.927 170.984H276.919C277.095 170.6 277.255 170.232 277.399 169.848L275.991 169.656C275.607 170.776 274.807 172.072 273.543 173.032C273.863 173.224 274.359 173.64 274.567 173.976C275.271 173.4 275.815 172.776 276.263 172.12H277.863C277.399 173.656 276.423 175.032 273.671 175.8C273.943 176.04 274.311 176.552 274.455 176.872C276.615 176.2 277.831 175.192 278.583 173.976C279.543 175.256 280.951 176.232 282.679 176.728C282.871 176.376 283.239 175.832 283.559 175.576C281.575 175.144 279.959 174.136 279.127 172.776C279.207 172.552 279.271 172.344 279.335 172.12H281.335ZM295.565 172.536C295.037 171.944 293.933 171.144 293.037 170.6L292.285 171.608C293.197 172.184 294.285 173.048 294.781 173.672L295.565 172.536ZM294.893 176.344C294.317 175.784 293.149 175.032 292.221 174.536L291.517 175.608C292.461 176.12 293.597 176.952 294.141 177.528L294.893 176.344ZM290.093 170.504C289.901 171.592 289.469 173.176 289.133 174.152L290.077 174.44C290.493 173.528 290.973 172.04 291.389 170.792L290.093 170.504ZM286.893 174.136C286.781 173.176 286.445 171.688 286.013 170.568L284.957 170.84C285.341 171.976 285.693 173.48 285.757 174.44L286.893 174.136ZM288.765 176.28H291.261V174.888H288.765V169.656H287.373V174.888H284.893V176.28H286.925C286.397 177.912 285.485 179.816 284.621 180.872C284.861 181.272 285.213 181.928 285.341 182.36C286.093 181.352 286.829 179.72 287.373 178.12V184.248H288.765V178.136C289.293 178.984 289.901 179.992 290.173 180.568L291.117 179.4C290.781 178.92 289.245 176.968 288.765 176.456V176.28ZM299.565 179.496L299.357 178.136L297.581 178.44V169.592H296.189V178.696L291.213 179.592L291.453 180.968L296.189 180.104V184.264H297.581V179.848L299.565 179.496ZM301.299 170.92C302.243 171.512 303.411 172.36 304.003 172.968L304.963 171.848C304.371 171.272 303.155 170.472 302.227 169.944L301.299 170.92ZM300.515 175.272C301.475 175.8 302.707 176.6 303.299 177.176L304.211 176.008C303.587 175.464 302.339 174.728 301.395 174.248L300.515 175.272ZM300.851 182.984L302.131 183.976C303.027 182.504 304.019 180.696 304.803 179.064L303.683 178.088C302.803 179.864 301.651 181.8 300.851 182.984ZM314.803 170.488H305.379V183.512H315.123V182.04H306.915V171.944H314.803V170.488ZM320.121 174.104H327.145V176.584H320.121V174.104ZM328.809 177.976V172.712H326.393C326.889 171.944 327.417 171.032 327.897 170.2L326.361 169.576C325.977 170.536 325.337 171.768 324.761 172.712H321.641L322.569 172.264C322.297 171.512 321.593 170.424 320.905 169.624L319.641 170.216C320.233 170.968 320.825 171.976 321.129 172.712H318.521V177.976H328.809ZM326.105 180.392C325.529 179.688 324.361 178.648 323.321 177.976L322.265 178.808C323.273 179.496 324.441 180.6 325.017 181.352L326.105 180.392ZM317.689 183.416C318.377 182.424 318.889 180.888 319.129 179.56L317.721 179.304C317.449 180.552 316.937 181.96 316.313 182.776L317.689 183.416ZM322.809 182.76C321.817 182.76 321.641 182.68 321.641 182.184V179.064H320.073V182.2C320.073 183.688 320.585 184.104 322.681 184.104H326.025C327.625 184.104 328.105 183.64 328.297 181.752C327.865 181.672 327.241 181.448 326.889 181.224C326.809 182.536 326.681 182.76 325.929 182.76H322.809ZM327.625 179.56C328.537 180.664 329.449 182.152 329.785 183.144L331.001 182.392C330.665 181.4 329.705 179.976 328.777 178.904L327.625 179.56Z" fill="white"/>
<rect x="220" y="291" width="160" height="50" rx="7" fill="#435CE7"/>
<path d="M269.207 323.48C270.823 323.128 272.983 322.68 275.015 322.232L274.887 320.856C272.727 321.272 270.471 321.72 268.967 321.96L269.207 323.48ZM270.919 314.616C271.815 313.368 272.711 311.784 273.383 310.264L271.863 309.64C271.255 311.448 270.135 313.368 269.783 313.848C269.447 314.344 269.159 314.696 268.855 314.776C269.047 315.176 269.271 315.912 269.367 316.232C269.623 316.12 270.023 316.024 271.767 315.816C271.127 316.696 270.551 317.384 270.263 317.656C269.751 318.248 269.383 318.6 268.999 318.68C269.159 319.08 269.415 319.816 269.479 320.12C269.879 319.896 270.535 319.752 274.903 318.968C274.839 318.648 274.807 318.056 274.807 317.656L271.639 318.168C272.855 316.824 274.023 315.24 275.015 313.64L273.687 312.808C273.383 313.384 273.031 313.944 272.695 314.472L270.919 314.616ZM281.303 319.4V322.216H277.207V319.4H281.303ZM275.751 324.248H277.207V323.56H281.303V324.184H282.807V318.056H275.751V324.248ZM283.463 313.064V311.624H280.007V309.576H278.455V311.624H274.951V313.064H278.455V315.208H275.351V316.616H283.159V315.208H280.007V313.064H283.463ZM288.221 315.512V314.12H291.357V315.512H288.221ZM288.221 311.592H291.357V312.952H288.221V311.592ZM296.077 312.952H292.925V311.592H296.077V312.952ZM296.077 315.512H292.925V314.12H296.077V315.512ZM299.133 319.32V317.96H292.925V316.776H297.677V310.344H286.685V316.776H291.357V317.96H285.133V319.32H290.205C288.813 320.696 286.685 321.928 284.717 322.552C285.037 322.856 285.501 323.432 285.709 323.784C287.725 323.032 289.853 321.656 291.357 320.04V324.264H292.925V319.96C294.461 321.528 296.605 322.936 298.557 323.704C298.797 323.32 299.245 322.76 299.581 322.44C297.645 321.832 295.517 320.632 294.077 319.32H299.133ZM311.923 321.384V322.648H304.963V321.384H311.923ZM310.819 317.096V318.232H304.963V317.096H310.819ZM304.963 319.336H312.307V315.992H303.555V324.28H304.963V323.784H311.923V324.248H313.411V320.264H304.963V319.336ZM315.155 310.728H310.099C310.259 310.44 310.419 310.136 310.547 309.832L309.107 309.48C308.787 310.296 308.275 311.08 307.651 311.736V310.728H303.763C303.923 310.44 304.067 310.136 304.195 309.848L302.803 309.48C302.307 310.712 301.427 311.944 300.483 312.744C300.835 312.936 301.411 313.32 301.699 313.56C302.147 313.128 302.611 312.568 303.027 311.944H303.523C303.827 312.488 304.147 313.112 304.275 313.528L305.603 313.128C305.491 312.808 305.267 312.376 305.027 311.944H307.443C307.203 312.168 306.947 312.392 306.691 312.568C306.835 312.632 307.011 312.728 307.203 312.824H307.123V313.992H301.187V317.048H302.579V315.16H313.251V317.048H314.707V313.992H308.547V312.824H308.515C308.787 312.552 309.043 312.264 309.283 311.944H310.419C310.835 312.488 311.267 313.128 311.427 313.56L312.819 313.144C312.659 312.792 312.355 312.36 312.051 311.944H315.155V310.728ZM321.337 319.592C320.793 319.784 320.217 319.96 319.673 320.136V316.52H321.193V315.144H319.673V311.96H321.449V310.584H316.361V311.96H318.249V315.144H316.521V316.52H318.249V320.584C317.481 320.824 316.777 321.016 316.201 321.176L316.553 322.696C317.993 322.232 319.849 321.608 321.593 321L321.337 319.592ZM323.497 314.472H325.593V316.232H323.497V314.472ZM323.497 311.56H325.593V313.288H323.497V311.56ZM328.905 313.288H326.857V311.56H328.905V313.288ZM328.905 316.232H326.857V314.472H328.905V316.232ZM326.985 322.392V320.488H330.537V319.144H326.985V317.496H330.329V310.296H322.137V317.496H325.465V319.144H321.993V320.488H325.465V322.392H320.825V323.752H331.049V322.392H326.985Z" fill="white"/>
<rect x="220" y="440" width="160" height="50" rx="7" fill="#F6F7FE"/>
<path d="M269.207 472.48C270.823 472.128 272.983 471.68 275.015 471.232L274.887 469.856C272.727 470.272 270.471 470.72 268.967 470.96L269.207 472.48ZM270.919 463.616C271.815 462.368 272.711 460.784 273.383 459.264L271.863 458.64C271.255 460.448 270.135 462.368 269.783 462.848C269.447 463.344 269.159 463.696 268.855 463.776C269.047 464.176 269.271 464.912 269.367 465.232C269.623 465.12 270.023 465.024 271.767 464.816C271.127 465.696 270.551 466.384 270.263 466.656C269.751 467.248 269.383 467.6 268.999 467.68C269.159 468.08 269.415 468.816 269.479 469.12C269.879 468.896 270.535 468.752 274.903 467.968C274.839 467.648 274.807 467.056 274.807 466.656L271.639 467.168C272.855 465.824 274.023 464.24 275.015 462.64L273.687 461.808C273.383 462.384 273.031 462.944 272.695 463.472L270.919 463.616ZM281.303 468.4V471.216H277.207V468.4H281.303ZM275.751 473.248H277.207V472.56H281.303V473.184H282.807V467.056H275.751V473.248ZM283.463 462.064V460.624H280.007V458.576H278.455V460.624H274.951V462.064H278.455V464.208H275.351V465.616H283.159V464.208H280.007V462.064H283.463ZM288.221 464.512V463.12H291.357V464.512H288.221ZM288.221 460.592H291.357V461.952H288.221V460.592ZM296.077 461.952H292.925V460.592H296.077V461.952ZM296.077 464.512H292.925V463.12H296.077V464.512ZM299.133 468.32V466.96H292.925V465.776H297.677V459.344H286.685V465.776H291.357V466.96H285.133V468.32H290.205C288.813 469.696 286.685 470.928 284.717 471.552C285.037 471.856 285.501 472.432 285.709 472.784C287.725 472.032 289.853 470.656 291.357 469.04V473.264H292.925V468.96C294.461 470.528 296.605 471.936 298.557 472.704C298.797 472.32 299.245 471.76 299.581 471.44C297.645 470.832 295.517 469.632 294.077 468.32H299.133ZM311.923 470.384V471.648H304.963V470.384H311.923ZM310.819 466.096V467.232H304.963V466.096H310.819ZM304.963 468.336H312.307V464.992H303.555V473.28H304.963V472.784H311.923V473.248H313.411V469.264H304.963V468.336ZM315.155 459.728H310.099C310.259 459.44 310.419 459.136 310.547 458.832L309.107 458.48C308.787 459.296 308.275 460.08 307.651 460.736V459.728H303.763C303.923 459.44 304.067 459.136 304.195 458.848L302.803 458.48C302.307 459.712 301.427 460.944 300.483 461.744C300.835 461.936 301.411 462.32 301.699 462.56C302.147 462.128 302.611 461.568 303.027 460.944H303.523C303.827 461.488 304.147 462.112 304.275 462.528L305.603 462.128C305.491 461.808 305.267 461.376 305.027 460.944H307.443C307.203 461.168 306.947 461.392 306.691 461.568C306.835 461.632 307.011 461.728 307.203 461.824H307.123V462.992H301.187V466.048H302.579V464.16H313.251V466.048H314.707V462.992H308.547V461.824H308.515C308.787 461.552 309.043 461.264 309.283 460.944H310.419C310.835 461.488 311.267 462.128 311.427 462.56L312.819 462.144C312.659 461.792 312.355 461.36 312.051 460.944H315.155V459.728ZM321.337 468.592C320.793 468.784 320.217 468.96 319.673 469.136V465.52H321.193V464.144H319.673V460.96H321.449V459.584H316.361V460.96H318.249V464.144H316.521V465.52H318.249V469.584C317.481 469.824 316.777 470.016 316.201 470.176L316.553 471.696C317.993 471.232 319.849 470.608 321.593 470L321.337 468.592ZM323.497 463.472H325.593V465.232H323.497V463.472ZM323.497 460.56H325.593V462.288H323.497V460.56ZM328.905 462.288H326.857V460.56H328.905V462.288ZM328.905 465.232H326.857V463.472H328.905V465.232ZM326.985 471.392V469.488H330.537V468.144H326.985V466.496H330.329V459.296H322.137V466.496H325.465V468.144H321.993V469.488H325.465V471.392H320.825V472.752H331.049V471.392H326.985Z" fill="#283895"/>
<rect x="220" y="81" width="160" height="50" rx="7" fill="#7094F0"/>
<path d="M272.919 104.424C274.343 103.352 275.559 102.152 276.327 101.032C277.175 102.2 278.487 103.4 279.927 104.424H272.919ZM272.615 105.8H280.103V104.552C281.031 105.208 282.007 105.768 282.935 106.216C283.191 105.768 283.527 105.24 283.879 104.872C281.383 103.896 278.727 101.944 277.031 99.592H275.495C274.295 101.544 271.687 103.848 268.951 105.096C269.271 105.416 269.671 105.976 269.831 106.312C270.791 105.848 271.735 105.272 272.615 104.648V105.8ZM269.863 108.856H273.831C273.447 109.928 272.871 111.208 272.343 112.2L269.975 112.28L270.167 113.736C272.887 113.624 276.951 113.448 280.759 113.256C281.047 113.64 281.287 113.992 281.463 114.296L282.823 113.448C282.087 112.264 280.567 110.568 279.111 109.336L277.831 110.024C278.455 110.584 279.095 111.256 279.687 111.928C277.735 112.008 275.751 112.088 273.975 112.152C274.551 111.128 275.143 109.928 275.671 108.856H282.999V107.464H269.863V108.856ZM295.485 103.176C295.245 102.28 294.589 100.872 293.949 99.8L292.701 100.312C293.293 101.416 293.917 102.856 294.141 103.768L295.485 103.176ZM288.909 102.44C288.525 101.752 287.613 100.728 286.925 99.976L285.853 100.744C286.557 101.528 287.389 102.6 287.789 103.32L288.909 102.44ZM288.429 111.064V104.504H284.909V105.928H286.989V111.144C286.989 112.008 286.557 112.584 286.237 112.856C286.493 113.064 286.845 113.496 287.037 113.816L287.053 113.896L287.069 113.88L287.085 113.912V113.848C287.341 113.528 287.901 113.096 290.653 111.112C290.509 110.824 290.301 110.232 290.205 109.848L288.429 111.064ZM297.309 100.52C296.813 103.736 296.013 106.68 294.349 109.048C292.797 106.904 291.869 104.12 291.293 100.904L289.901 101.112C290.589 104.856 291.613 107.928 293.357 110.28C292.301 111.432 290.957 112.392 289.261 113.128C289.565 113.4 289.981 113.944 290.189 114.264C291.869 113.496 293.197 112.536 294.301 111.4C295.421 112.584 296.797 113.528 298.509 114.216C298.749 113.832 299.197 113.224 299.549 112.92C297.837 112.312 296.445 111.384 295.309 110.2C297.245 107.608 298.173 104.36 298.797 100.744L297.309 100.52ZM309.395 104.648V105.816H307.091V104.648H309.395ZM313.123 105.816H310.739V104.648H313.123V105.816ZM310.739 108.104V106.904H313.123V108.104H310.739ZM307.091 108.104V106.904H309.395V108.104H307.091ZM307.091 109.224H309.395V111.688H310.739V109.224H313.123V110.344C313.123 110.536 313.059 110.6 312.883 110.6C312.691 110.6 312.083 110.616 311.411 110.584C311.587 110.92 311.763 111.416 311.811 111.784C312.835 111.784 313.507 111.768 313.955 111.576C314.419 111.368 314.531 111.032 314.531 110.36V103.544H312.563C312.259 103.368 311.891 103.176 311.475 102.984C312.595 102.376 313.699 101.576 314.531 100.808L313.635 100.088L313.331 100.168H305.763V101.336H311.955C311.427 101.72 310.803 102.104 310.195 102.408C309.491 102.104 308.755 101.816 308.131 101.592L307.171 102.392C307.987 102.712 308.947 103.128 309.811 103.544H305.699V111.736H307.091V109.224ZM304.707 101.608C304.211 101 303.107 100.232 302.211 99.736L301.219 100.632C302.115 101.176 303.187 101.992 303.651 102.6L304.707 101.608ZM304.243 104.728C303.683 104.136 302.563 103.384 301.635 102.936L300.675 103.864C301.603 104.376 302.723 105.176 303.219 105.768L304.243 104.728ZM303.923 106.872H300.611V108.248H302.499V111.064C301.827 111.656 301.075 112.232 300.419 112.68L301.171 114.136C301.955 113.448 302.643 112.808 303.315 112.152C304.339 113.384 305.747 113.912 307.779 113.992C309.619 114.04 312.979 114.024 314.819 113.944C314.883 113.512 315.107 112.84 315.299 112.488C313.267 112.648 309.603 112.68 307.779 112.6C305.987 112.536 304.659 112.04 303.923 110.92V106.872ZM323.833 107.32V105.912H321.001C321.001 105.752 321.001 105.592 321.001 105.448V103.048H323.385V101.656H319.017C319.177 101.08 319.321 100.472 319.449 99.864L318.025 99.592C317.657 101.464 317.033 103.336 316.121 104.504C316.473 104.712 317.065 105.112 317.337 105.368C317.769 104.728 318.185 103.928 318.521 103.048H319.497V105.432V105.912H316.361V107.32H319.401C319.161 109.32 318.425 111.496 316.169 113.096C316.473 113.32 317.017 113.912 317.225 114.232C318.921 113 319.865 111.4 320.393 109.752C321.241 110.728 322.313 112.104 322.841 112.904L323.865 111.624C323.401 111.096 321.561 109.016 320.761 108.232C320.825 107.928 320.857 107.624 320.905 107.32H323.833ZM325.737 111.208V102.36H328.649V111.208H325.737ZM324.297 100.952V113.8H325.737V112.6H328.649V113.624H330.153V100.952H324.297Z" fill="white"/>
<rect x="220" y="1" width="160" height="50" rx="7" fill="#F5F5F5"/>
<path d="M282.615 20.424H274.583V21.816H282.615V20.424ZM273.655 29.56L273.879 31.048C275.975 30.856 278.951 30.584 281.831 30.296C282.055 30.744 282.231 31.144 282.359 31.512L283.671 30.84C283.175 29.512 281.927 27.608 280.743 26.168L279.543 26.76C280.087 27.432 280.631 28.232 281.111 29C279.543 29.128 277.959 29.256 276.551 29.368C277.127 28.2 277.735 26.728 278.263 25.432H283.735V24.056H273.559V25.432H276.535C276.151 26.744 275.575 28.328 275.063 29.464L273.655 29.56ZM273.447 21.624C272.887 21 271.767 20.216 270.839 19.736L269.847 20.648C270.775 21.192 271.879 22.024 272.375 22.632L273.447 21.624ZM272.919 24.712C272.343 24.104 271.159 23.352 270.199 22.888L269.223 23.864C270.199 24.36 271.351 25.16 271.895 25.768L272.919 24.712ZM272.583 26.872H269.175V28.248H271.143V30.984C270.407 31.576 269.607 32.168 268.919 32.616L269.671 34.104C270.487 33.416 271.239 32.776 271.943 32.12C272.951 33.352 274.359 33.88 276.391 33.976C278.215 34.04 281.495 34.008 283.319 33.912C283.399 33.464 283.623 32.776 283.799 32.44C281.799 32.584 278.183 32.616 276.391 32.552C274.615 32.488 273.319 31.976 272.583 30.872V26.872ZM296.205 30.904V32.536H288.221V30.904H296.205ZM286.813 34.296H288.221V33.752H296.205V34.264H297.693V29.624H286.813V34.296ZM294.925 27.768H289.389V26.552H294.925V27.768ZM287.997 25.528V28.792H296.381V25.528H287.997ZM285.565 26.68H286.925V24.68H297.389V26.68H298.813V23.512H285.565V26.68ZM295.693 20.808V19.592H294.221V20.808H289.965V19.592H288.493V20.808H285.149V22.152H288.493V23.112H289.965V22.152H294.221V23.112H295.693V22.152H299.133V20.808H295.693ZM308.547 21.24H305.459V19.656H304.019V21.24H300.947V22.536H308.547V21.24ZM306.707 25.56C307.027 24.904 307.379 23.912 307.731 23.016L306.323 22.696C306.147 23.448 305.811 24.568 305.523 25.256L306.707 25.56ZM303.843 25.224C303.747 24.568 303.491 23.528 303.139 22.776L301.907 23.048C302.211 23.816 302.467 24.856 302.531 25.528L303.843 25.224ZM306.499 29.528V32.104H302.947V29.528H306.499ZM301.571 34.264H302.947V33.4H306.499V34.2H307.955V28.216H301.571V34.264ZM300.563 26.984H308.755V25.624H300.563V26.984ZM314.163 20.44L313.923 20.504H309.331V34.264H310.787V21.896H313.331C312.883 23.144 312.259 24.824 311.683 26.072C313.155 27.4 313.571 28.568 313.571 29.496C313.571 30.072 313.459 30.488 313.139 30.68C312.963 30.792 312.755 30.84 312.499 30.856C312.211 30.872 311.827 30.856 311.411 30.824C311.651 31.24 311.795 31.864 311.811 32.296C312.259 32.296 312.755 32.312 313.123 32.264C313.539 32.2 313.891 32.088 314.195 31.88C314.771 31.496 315.011 30.744 315.011 29.672C315.011 28.584 314.659 27.336 313.187 25.88C313.875 24.488 314.643 22.648 315.267 21.128L314.163 20.44ZM317.097 34.264H318.601V22.904H317.097V34.264ZM317.609 20.28C318.409 21.208 319.401 22.504 319.865 23.304L321.065 22.424C320.601 21.64 319.561 20.424 318.761 19.528L317.609 20.28ZM330.233 20.136H321.433V21.56H328.729V32.44C328.729 32.76 328.617 32.856 328.313 32.856C327.993 32.888 326.873 32.888 325.801 32.84C326.025 33.208 326.265 33.864 326.329 34.248C327.817 34.264 328.809 34.232 329.417 33.992C330.009 33.768 330.233 33.336 330.233 32.456V20.136Z" fill="#222222"/>
<rect x="660" y="221" width="160" height="50" rx="7" fill="#435CE7"/>
<path d="M720.247 248.952V252.264H712.711V248.952H720.247ZM711.207 254.28H712.711V253.624H720.247V254.248H721.831V247.592H711.207V254.28ZM710.055 240.552V241.928H714.567C714.007 243.832 712.839 245.72 709.015 246.696C709.335 247.016 709.719 247.608 709.879 247.976C714.151 246.76 715.559 244.424 716.215 241.928H720.711C720.519 244.168 720.311 245.128 719.991 245.432C719.815 245.576 719.639 245.592 719.335 245.592C718.967 245.592 718.055 245.592 717.111 245.496C717.367 245.896 717.527 246.472 717.559 246.872C718.535 246.92 719.479 246.92 719.975 246.888C720.519 246.84 720.919 246.712 721.271 246.36C721.783 245.848 722.023 244.472 722.279 241.176C722.295 240.968 722.311 240.552 722.311 240.552H710.055ZM730.221 246.232C730.221 246.024 730.221 245.832 730.221 245.64V241.976H734.317V246.232H730.221ZM739.293 246.232H735.869V241.976H738.797V240.568H725.549V241.976H728.701V245.64C728.701 245.832 728.701 246.024 728.701 246.232H725.005V247.656H728.589C728.333 249.672 727.501 251.688 724.989 253.224C725.357 253.464 725.933 253.992 726.189 254.328C729.037 252.536 729.885 250.104 730.125 247.656H734.317V254.28H735.869V247.656H739.293V246.232ZM744.419 244.424C745.843 243.352 747.059 242.152 747.827 241.032C748.675 242.2 749.987 243.4 751.427 244.424H744.419ZM744.115 245.8H751.603V244.552C752.531 245.208 753.507 245.768 754.435 246.216C754.691 245.768 755.027 245.24 755.379 244.872C752.883 243.896 750.227 241.944 748.531 239.592H746.995C745.795 241.544 743.187 243.848 740.451 245.096C740.771 245.416 741.171 245.976 741.331 246.312C742.291 245.848 743.235 245.272 744.115 244.648V245.8ZM741.363 248.856H745.331C744.947 249.928 744.371 251.208 743.843 252.2L741.475 252.28L741.667 253.736C744.387 253.624 748.451 253.448 752.259 253.256C752.547 253.64 752.787 253.992 752.963 254.296L754.323 253.448C753.587 252.264 752.067 250.568 750.611 249.336L749.331 250.024C749.955 250.584 750.595 251.256 751.187 251.928C749.235 252.008 747.251 252.088 745.475 252.152C746.051 251.128 746.643 249.928 747.171 248.856H754.499V247.464H741.363V248.856ZM766.985 243.176C766.745 242.28 766.089 240.872 765.449 239.8L764.201 240.312C764.793 241.416 765.417 242.856 765.641 243.768L766.985 243.176ZM760.409 242.44C760.025 241.752 759.113 240.728 758.425 239.976L757.353 240.744C758.057 241.528 758.889 242.6 759.289 243.32L760.409 242.44ZM759.929 251.064V244.504H756.409V245.928H758.489V251.144C758.489 252.008 758.057 252.584 757.737 252.856C757.993 253.064 758.345 253.496 758.537 253.816L758.553 253.896L758.569 253.88L758.585 253.912V253.848C758.841 253.528 759.401 253.096 762.153 251.112C762.009 250.824 761.801 250.232 761.705 249.848L759.929 251.064ZM768.809 240.52C768.313 243.736 767.513 246.68 765.849 249.048C764.297 246.904 763.369 244.12 762.793 240.904L761.401 241.112C762.089 244.856 763.113 247.928 764.857 250.28C763.801 251.432 762.457 252.392 760.761 253.128C761.065 253.4 761.481 253.944 761.689 254.264C763.369 253.496 764.697 252.536 765.801 251.4C766.921 252.584 768.297 253.528 770.009 254.216C770.249 253.832 770.697 253.224 771.049 252.92C769.337 252.312 767.945 251.384 766.809 250.2C768.745 247.608 769.673 244.36 770.297 240.744L768.809 240.52Z" fill="white"/>
<path d="M735.109 354.789C738.361 353.632 741.913 353.632 745.165 354.789L820.034 381.426C824.466 383.003 824.465 389.271 820.034 390.848L743.489 418.082C741.321 418.853 738.953 418.853 736.785 418.082L660.24 390.848C655.808 389.271 655.808 383.003 660.24 381.426L735.109 354.789Z" fill="#283895"/>
<path d="M730.351 386.39C729.823 386.55 729.263 386.678 728.719 386.822V384.134H730.399V382.694H728.719V379.59H727.199V382.694H725.071V384.134H727.199V387.238C726.319 387.446 725.503 387.654 724.847 387.814L725.199 389.334C725.807 389.174 726.479 388.998 727.199 388.79V392.502C727.199 392.774 727.119 392.854 726.847 392.854C726.623 392.87 725.807 392.87 724.975 392.838C725.199 393.238 725.375 393.878 725.439 394.262C726.719 394.262 727.503 394.23 728.015 393.99C728.527 393.766 728.719 393.35 728.719 392.518V388.342L730.543 387.83L730.351 386.39ZM732.463 386.934H732.783C733.343 388.534 734.095 389.99 735.071 391.238C734.335 391.99 733.471 392.662 732.463 393.158V386.934ZM737.423 386.934C737.103 388.07 736.639 389.11 735.983 390.054C735.247 389.126 734.639 388.07 734.207 386.934H737.423ZM738.207 385.542L737.935 385.59H732.463V381.51H737.151C737.087 382.726 736.991 383.27 736.815 383.446C736.671 383.574 736.511 383.59 736.175 383.59C735.855 383.59 734.879 383.574 733.887 383.494C734.111 383.846 734.271 384.358 734.287 384.726C735.311 384.774 736.287 384.79 736.815 384.758C737.359 384.726 737.759 384.614 738.095 384.278C738.463 383.894 738.607 382.95 738.687 380.71C738.703 380.518 738.719 380.134 738.719 380.134H730.991V394.23H732.463V393.254C732.783 393.558 733.167 393.974 733.375 394.31C734.383 393.782 735.247 393.11 736.015 392.326C736.799 393.11 737.679 393.75 738.671 394.246C738.911 393.83 739.359 393.254 739.711 392.966C738.703 392.55 737.791 391.926 736.991 391.158C738.063 389.654 738.783 387.846 739.151 385.846L738.207 385.542ZM751.765 389.494V392.134H744.485V389.494H751.765ZM742.981 394.358H744.485V393.51H751.765V394.326H753.317V388.118H742.981V394.358ZM749.205 385.334V383.126H753.941V381.766H749.205V379.59H747.637V381.766H744.661C744.917 381.206 745.157 380.614 745.365 380.038L743.877 379.686C743.301 381.43 742.293 383.222 741.141 384.31C741.509 384.502 742.181 384.902 742.501 385.11C742.981 384.566 743.461 383.894 743.925 383.126H747.637V385.334H741.077V386.726H755.045V385.334H749.205Z" fill="white"/>
<rect x="660" y="1" width="160" height="50" rx="7" fill="#F5F5F5"/>
<path d="M713.24 25.832V27.336H709.752V25.832H713.24ZM709.752 30.12V28.6H713.24V30.12H709.752ZM704.712 30.12V28.6H708.216V30.12H704.712ZM708.216 25.832V27.336H704.712V25.832H708.216ZM709.752 23.08H708.216V24.536H703.272V32.232H704.712V31.416H708.216V34.232H709.752V31.416H713.24V32.168H714.728V24.536H709.752V23.08ZM710.04 21.192L710.152 21.16C709.976 20.712 709.608 19.976 709.32 19.416L707.768 19.848C707.976 20.248 708.2 20.776 708.376 21.192H702.328V23.944H703.8V22.6H714.136V23.944H715.656V21.192H710.04ZM728.11 23.176C727.87 22.28 727.214 20.872 726.574 19.8L725.326 20.312C725.918 21.416 726.542 22.856 726.766 23.768L728.11 23.176ZM721.534 22.44C721.15 21.752 720.238 20.728 719.55 19.976L718.478 20.744C719.182 21.528 720.014 22.6 720.414 23.32L721.534 22.44ZM721.054 31.064V24.504H717.534V25.928H719.614V31.144C719.614 32.008 719.182 32.584 718.862 32.856C719.118 33.064 719.47 33.496 719.662 33.816L719.678 33.896L719.694 33.88L719.71 33.912V33.848C719.966 33.528 720.526 33.096 723.278 31.112C723.134 30.824 722.926 30.232 722.83 29.848L721.054 31.064ZM729.934 20.52C729.438 23.736 728.638 26.68 726.974 29.048C725.422 26.904 724.494 24.12 723.918 20.904L722.526 21.112C723.214 24.856 724.238 27.928 725.982 30.28C724.926 31.432 723.582 32.392 721.886 33.128C722.19 33.4 722.606 33.944 722.814 34.264C724.494 33.496 725.822 32.536 726.926 31.4C728.046 32.584 729.422 33.528 731.134 34.216C731.374 33.832 731.822 33.224 732.174 32.92C730.462 32.312 729.07 31.384 727.934 30.2C729.87 27.608 730.798 24.36 731.422 20.744L729.934 20.52ZM742.772 29.384C742.34 30.12 741.78 30.712 741.076 31.192C740.004 30.936 738.884 30.68 737.78 30.456C738.036 30.104 738.276 29.752 738.516 29.384H742.772ZM741.204 27V24.232C742.676 25.704 744.852 26.904 746.916 27.528C747.14 27.144 747.556 26.6 747.876 26.296C746.084 25.88 744.18 25.032 742.836 24.008H747.492V22.792H741.204V21.32C742.98 21.16 744.66 20.936 746.004 20.648L744.9 19.592C742.548 20.104 738.212 20.408 734.596 20.488C734.708 20.776 734.868 21.32 734.9 21.624C736.436 21.608 738.1 21.544 739.732 21.432V22.792H733.476V24.008H738.132C736.804 25.096 734.9 25.992 733.076 26.456C733.38 26.728 733.796 27.256 733.988 27.624C736.068 26.984 738.26 25.736 739.732 24.232V26.856L738.644 26.552C738.356 27.048 738.004 27.592 737.636 28.152H733.3V29.384H736.804C736.276 30.152 735.748 30.888 735.316 31.464L736.724 31.928L736.996 31.56C737.764 31.72 738.516 31.896 739.252 32.072C737.764 32.584 735.876 32.84 733.524 32.968C733.78 33.304 734.004 33.848 734.116 34.264C737.22 34.008 739.604 33.544 741.364 32.616C743.3 33.16 745.028 33.72 746.324 34.264L747.22 33.032C746.052 32.584 744.5 32.104 742.788 31.64C743.476 31.032 744.036 30.28 744.436 29.384H747.716V28.152H739.332C739.588 27.752 739.844 27.368 740.068 27H741.204ZM752.81 21.544H759.722V23.08H752.81V21.544ZM751.258 20.264V24.36H761.37V20.264H751.258ZM755.354 27.88V29.304C755.354 30.488 754.906 32.088 749.29 33.144C749.658 33.464 750.106 34.04 750.298 34.376C756.138 33.048 756.97 31.016 756.97 29.336V27.88H755.354ZM756.746 32.056C758.634 32.696 761.21 33.688 762.506 34.36L763.274 33.08C761.898 32.44 759.29 31.512 757.482 30.952L756.746 32.056ZM750.65 25.624V31.432H752.202V27H760.426V31.288H762.026V25.624H750.65ZM768.544 24.424C769.968 23.352 771.184 22.152 771.952 21.032C772.8 22.2 774.112 23.4 775.552 24.424H768.544ZM768.24 25.8H775.728V24.552C776.656 25.208 777.632 25.768 778.56 26.216C778.816 25.768 779.152 25.24 779.504 24.872C777.008 23.896 774.352 21.944 772.656 19.592H771.12C769.92 21.544 767.312 23.848 764.576 25.096C764.896 25.416 765.296 25.976 765.456 26.312C766.416 25.848 767.36 25.272 768.24 24.648V25.8ZM765.488 28.856H769.456C769.072 29.928 768.496 31.208 767.968 32.2L765.6 32.28L765.792 33.736C768.512 33.624 772.576 33.448 776.384 33.256C776.672 33.64 776.912 33.992 777.088 34.296L778.448 33.448C777.712 32.264 776.192 30.568 774.736 29.336L773.456 30.024C774.08 30.584 774.72 31.256 775.312 31.928C773.36 32.008 771.376 32.088 769.6 32.152C770.176 31.128 770.768 29.928 771.296 28.856H778.624V27.464H765.488V28.856Z" fill="#222222"/>
<rect x="880" y="440" width="160" height="50" rx="7" fill="#F6F7FE"/>
<path d="M929.207 472.48C930.823 472.128 932.983 471.68 935.015 471.232L934.887 469.856C932.727 470.272 930.471 470.72 928.967 470.96L929.207 472.48ZM930.919 463.616C931.815 462.368 932.711 460.784 933.383 459.264L931.863 458.64C931.255 460.448 930.135 462.368 929.783 462.848C929.447 463.344 929.159 463.696 928.855 463.776C929.047 464.176 929.271 464.912 929.367 465.232C929.623 465.12 930.023 465.024 931.767 464.816C931.127 465.696 930.551 466.384 930.263 466.656C929.751 467.248 929.383 467.6 928.999 467.68C929.159 468.08 929.415 468.816 929.479 469.12C929.879 468.896 930.535 468.752 934.903 467.968C934.839 467.648 934.807 467.056 934.807 466.656L931.639 467.168C932.855 465.824 934.023 464.24 935.015 462.64L933.687 461.808C933.383 462.384 933.031 462.944 932.695 463.472L930.919 463.616ZM941.303 468.4V471.216H937.207V468.4H941.303ZM935.751 473.248H937.207V472.56H941.303V473.184H942.807V467.056H935.751V473.248ZM943.463 462.064V460.624H940.007V458.576H938.455V460.624H934.951V462.064H938.455V464.208H935.351V465.616H943.159V464.208H940.007V462.064H943.463ZM948.221 464.512V463.12H951.357V464.512H948.221ZM948.221 460.592H951.357V461.952H948.221V460.592ZM956.077 461.952H952.925V460.592H956.077V461.952ZM956.077 464.512H952.925V463.12H956.077V464.512ZM959.133 468.32V466.96H952.925V465.776H957.677V459.344H946.685V465.776H951.357V466.96H945.133V468.32H950.205C948.813 469.696 946.685 470.928 944.717 471.552C945.037 471.856 945.501 472.432 945.709 472.784C947.725 472.032 949.853 470.656 951.357 469.04V473.264H952.925V468.96C954.461 470.528 956.605 471.936 958.557 472.704C958.797 472.32 959.245 471.76 959.581 471.44C957.645 470.832 955.517 469.632 954.077 468.32H959.133ZM971.923 470.384V471.648H964.963V470.384H971.923ZM970.819 466.096V467.232H964.963V466.096H970.819ZM964.963 468.336H972.307V464.992H963.555V473.28H964.963V472.784H971.923V473.248H973.411V469.264H964.963V468.336ZM975.155 459.728H970.099C970.259 459.44 970.419 459.136 970.547 458.832L969.107 458.48C968.787 459.296 968.275 460.08 967.651 460.736V459.728H963.763C963.923 459.44 964.067 459.136 964.195 458.848L962.803 458.48C962.307 459.712 961.427 460.944 960.483 461.744C960.835 461.936 961.411 462.32 961.699 462.56C962.147 462.128 962.611 461.568 963.027 460.944H963.523C963.827 461.488 964.147 462.112 964.275 462.528L965.603 462.128C965.491 461.808 965.267 461.376 965.027 460.944H967.443C967.203 461.168 966.947 461.392 966.691 461.568C966.835 461.632 967.011 461.728 967.203 461.824H967.123V462.992H961.187V466.048H962.579V464.16H973.251V466.048H974.707V462.992H968.547V461.824H968.515C968.787 461.552 969.043 461.264 969.283 460.944H970.419C970.835 461.488 971.267 462.128 971.427 462.56L972.819 462.144C972.659 461.792 972.355 461.36 972.051 460.944H975.155V459.728ZM981.337 468.592C980.793 468.784 980.217 468.96 979.673 469.136V465.52H981.193V464.144H979.673V460.96H981.449V459.584H976.361V460.96H978.249V464.144H976.521V465.52H978.249V469.584C977.481 469.824 976.777 470.016 976.201 470.176L976.553 471.696C977.993 471.232 979.849 470.608 981.593 470L981.337 468.592ZM983.497 463.472H985.593V465.232H983.497V463.472ZM983.497 460.56H985.593V462.288H983.497V460.56ZM988.905 462.288H986.857V460.56H988.905V462.288ZM988.905 465.232H986.857V463.472H988.905V465.232ZM986.985 471.392V469.488H990.537V468.144H986.985V466.496H990.329V459.296H982.137V466.496H985.465V468.144H981.993V469.488H985.465V471.392H980.825V472.752H991.049V471.392H986.985Z" fill="#283895"/>
<rect x="880" y="1" width="160" height="50" rx="7" fill="#F5F5F5"/>
<path d="M948.346 30.776H944.938V29.784H948.346V30.776ZM944.938 27.704H948.346V28.616H944.938V27.704ZM940.426 24.712V23.752H943.434V24.712H940.426ZM948.09 23.752V24.712H944.938V23.752H948.09ZM951.514 28.616H949.85V26.648H944.938V25.704H949.594V22.76H944.938V21.944H951.178V20.744H944.938V19.576H943.434V20.744H937.37V21.944H943.434V22.76H939.002V25.704H943.434V26.648H938.586V27.704H943.434V28.616H937.034V29.784H943.434V30.776H938.442V31.896H943.434V32.744C943.434 33.016 943.338 33.096 943.05 33.112C942.794 33.128 941.834 33.128 940.954 33.096C941.162 33.416 941.386 33.96 941.466 34.296C942.81 34.296 943.642 34.28 944.186 34.088C944.73 33.88 944.938 33.544 944.938 32.728V31.896H948.346V32.584H949.85V29.784H951.514V28.616ZM960.192 28.408C960.32 27.992 960.416 27.528 960.496 27.048L958.944 26.92C958.88 27.464 958.784 27.96 958.656 28.408H954.016V29.688H958.16C957.232 31.496 955.536 32.488 952.944 33C953.216 33.288 953.648 33.912 953.792 34.248C956.8 33.464 958.72 32.168 959.76 29.688H964.352C964.08 31.512 963.792 32.408 963.424 32.696C963.248 32.84 963.056 32.856 962.704 32.856C962.288 32.856 961.216 32.84 960.192 32.744C960.448 33.112 960.656 33.656 960.672 34.04C961.648 34.104 962.624 34.104 963.152 34.072C963.808 34.04 964.208 33.944 964.608 33.592C965.184 33.08 965.536 31.848 965.904 29.016C965.936 28.824 965.984 28.408 965.984 28.408H960.192ZM957.456 22.424H963.6C962.688 23.256 961.472 23.928 960.08 24.488C958.896 23.992 957.936 23.368 957.28 22.6L957.456 22.424ZM965.072 21.096L964.816 21.16H958.608C958.944 20.744 959.248 20.312 959.504 19.88L957.984 19.576C957.168 20.936 955.632 22.472 953.392 23.576C953.696 23.8 954.112 24.36 954.288 24.696C955.04 24.312 955.712 23.864 956.304 23.4C956.912 24.04 957.6 24.584 958.4 25.048C956.624 25.544 954.704 25.88 952.8 26.056C953.024 26.392 953.264 26.984 953.376 27.352C955.664 27.08 958 26.616 960.08 25.848C961.904 26.568 964.096 26.968 966.528 27.16C966.704 26.776 967.04 26.168 967.36 25.848C965.36 25.736 963.488 25.496 961.888 25.08C963.6 24.232 965.04 23.112 965.984 21.704L965.072 21.096ZM977.43 29.464V31.304H974.054V29.464H977.43ZM978.822 32.504V28.28H972.678V33.432H974.054V32.504H978.822ZM979.766 21.624V23.368H971.638V21.624H979.766ZM971.606 25.848C971.622 25.432 971.638 25.032 971.638 24.648H981.254V20.36H970.166V24.184C970.166 26.744 970.006 30.36 968.23 32.904C968.55 33.08 969.174 33.56 969.43 33.848C970.726 31.992 971.286 29.464 971.51 27.16H980.854C980.71 30.904 980.518 32.328 980.214 32.664C980.07 32.84 979.926 32.904 979.654 32.888C979.35 32.904 978.662 32.888 977.91 32.808C978.15 33.208 978.31 33.8 978.326 34.216C979.158 34.248 979.942 34.248 980.39 34.184C980.87 34.136 981.222 34.008 981.542 33.608C982.006 33.032 982.182 31.24 982.374 26.504C982.39 26.296 982.39 25.848 982.39 25.848H971.606Z" fill="#222222"/>
<path d="M521.005 176L521.005 131" stroke="#7094F0" stroke-linecap="round" stroke-linejoin="round" stroke-dasharray="2 4"/>
<path d="M521 176L392 176" stroke="#7094F0" stroke-linecap="round" stroke-linejoin="round" stroke-dasharray="2 4"/>
<path d="M390.922 175.232L394.36 172.367C395.011 171.824 396 172.287 396 173.135L396 178.865C396 179.713 395.011 180.176 394.36 179.633L390.922 176.768C390.442 176.368 390.442 175.632 390.922 175.232Z" fill="#7094F0"/>
<path d="M741.005 316L741.005 271" stroke="#7094F0" stroke-linecap="round" stroke-linejoin="round" stroke-dasharray="2 4"/>
<path d="M741 316L396 316" stroke="#7094F0" stroke-linecap="round" stroke-linejoin="round" stroke-dasharray="2 4"/>
<path d="M390.922 315.232L394.36 312.367C395.011 311.824 396 312.287 396 313.135L396 318.865C396 319.713 395.011 320.176 394.36 319.633L390.922 316.768C390.442 316.368 390.442 315.632 390.922 315.232Z" fill="#7094F0"/>
<path d="M741.005 465L741.005 420" stroke="#7094F0" stroke-linecap="round" stroke-linejoin="round" stroke-dasharray="2 4"/>
<path d="M867 465L396 465" stroke="#7094F0" stroke-linecap="round" stroke-linejoin="round" stroke-dasharray="2 4"/>
<path d="M390.922 464.232L394.36 461.367C395.011 460.824 396 461.287 396 462.135L396 467.865C396 468.713 395.011 469.176 394.36 468.633L390.922 465.768C390.442 465.368 390.442 464.632 390.922 464.232Z" fill="#7094F0"/>
<path d="M869.078 465.768L865.64 468.633C864.989 469.176 864 468.713 864 467.865L864 462.135C864 461.287 864.989 460.824 865.64 461.367L869.078 464.232C869.558 464.632 869.558 465.368 869.078 465.768Z" fill="#7094F0"/>
<path d="M758.892 445.128C757.762 445.128 756.743 444.883 755.836 444.392C754.93 443.891 754.215 443.203 753.692 442.328C753.18 441.453 752.924 440.477 752.924 439.4C752.924 438.323 753.18 437.347 753.692 436.472C754.215 435.597 754.93 434.915 755.836 434.424C756.743 433.923 757.762 433.672 758.892 433.672C760.012 433.672 761.026 433.923 761.932 434.424C762.839 434.915 763.548 435.597 764.06 436.472C764.572 437.336 764.828 438.312 764.828 439.4C764.828 440.488 764.572 441.469 764.06 442.344C763.548 443.208 762.839 443.891 761.932 444.392C761.026 444.883 760.012 445.128 758.892 445.128ZM758.892 443.704C759.714 443.704 760.45 443.517 761.1 443.144C761.762 442.771 762.279 442.259 762.652 441.608C763.036 440.947 763.228 440.211 763.228 439.4C763.228 438.589 763.036 437.859 762.652 437.208C762.279 436.547 761.762 436.029 761.1 435.656C760.45 435.283 759.714 435.096 758.892 435.096C758.071 435.096 757.324 435.283 756.652 435.656C755.991 436.029 755.468 436.547 755.084 437.208C754.711 437.859 754.524 438.589 754.524 439.4C754.524 440.211 754.711 440.947 755.084 441.608C755.468 442.259 755.991 442.771 756.652 443.144C757.324 443.517 758.071 443.704 758.892 443.704ZM770.672 440.024L768.624 442.104V445H767.024V433.8H768.624V440.056L774.704 433.8H776.528L771.744 438.84L776.832 445H774.96L770.672 440.024Z" fill="#7094F0"/>
<path d="M300 246L300 201" stroke="#7094F0" stroke-linecap="round" stroke-linejoin="round" stroke-dasharray="2 4"/>
<path d="M649 246L300 246" stroke="#7094F0" stroke-linecap="round" stroke-linejoin="round" stroke-dasharray="2 4"/>
<path d="M649.078 246.768L645.64 249.633C644.989 250.176 644 249.713 644 248.865L644 243.135C644 242.287 644.989 241.824 645.64 242.367L649.078 245.232C649.558 245.632 649.558 246.368 649.078 246.768Z" fill="#7094F0"/>
<path d="M300 386L300 341" stroke="#7094F0" stroke-linecap="round" stroke-linejoin="round" stroke-dasharray="2 4"/>
<path d="M649 386L300 386" stroke="#7094F0" stroke-linecap="round" stroke-linejoin="round" stroke-dasharray="2 4"/>
<path d="M649.078 386.768L645.64 389.633C644.989 390.176 644 389.713 644 388.865L644 383.135C644 382.287 644.989 381.824 645.64 382.367L649.078 385.232C649.558 385.632 649.558 386.368 649.078 386.768Z" fill="#7094F0"/>
<rect x="440" y="1" width="160" height="50" rx="7" fill="#F5F5F5"/>
<path d="M500.739 22.088C500.083 22.904 499.219 23.64 498.243 24.264C497.651 23.768 496.627 23.128 495.683 22.648C495.971 22.472 496.259 22.28 496.515 22.088H500.739ZM501.955 20.776L501.715 20.84H498.035C498.355 20.536 498.659 20.216 498.947 19.896L497.299 19.528C496.227 20.856 494.179 22.296 491.363 23.24C491.683 23.48 492.147 23.992 492.355 24.344C493.107 24.04 493.795 23.72 494.435 23.384C495.315 23.848 496.307 24.472 496.947 25.016C495.187 25.912 493.187 26.552 491.235 26.888C491.491 27.192 491.795 27.784 491.923 28.168C496.275 27.24 500.883 25.096 502.915 21.352L501.955 20.776ZM503.059 27.752C502.419 28.808 501.523 29.672 500.467 30.376C499.811 29.768 498.691 29.032 497.715 28.488C498.115 28.248 498.483 28.008 498.851 27.752H503.059ZM504.163 26.408L503.907 26.472H500.435C500.835 26.104 501.187 25.736 501.523 25.352L499.875 24.968C498.643 26.488 496.291 28.072 492.979 29.096C493.283 29.352 493.715 29.912 493.875 30.248C494.771 29.928 495.603 29.576 496.371 29.208C497.331 29.736 498.435 30.52 499.123 31.144C497.187 32.104 494.883 32.648 492.467 32.92C492.723 33.256 493.011 33.88 493.107 34.28C498.403 33.528 503.187 31.592 505.155 26.936L504.163 26.408ZM518.425 19.592C516.505 20.152 513.129 20.568 510.089 20.76L509.305 20.568C508.729 22.264 507.689 23.912 506.489 24.952C506.857 25.176 507.497 25.64 507.785 25.912C508.745 24.936 509.673 23.544 510.361 22.04C513.545 21.848 517.193 21.448 519.705 20.728L518.425 19.592ZM516.969 21.848C518.041 23.048 519.257 24.68 519.785 25.704L521.145 24.952C520.569 23.896 519.289 22.328 518.249 21.192L516.969 21.848ZM515.033 24.744C514.809 23.992 514.249 22.808 513.721 21.912L512.377 22.344C512.873 23.272 513.401 24.504 513.577 25.272L515.033 24.744ZM521.049 28.568V27.112H514.681V25.512H513.113V27.112H506.889V28.568H511.833C510.473 30.2 508.425 31.768 506.537 32.6C506.889 32.904 507.385 33.496 507.625 33.88C509.561 32.856 511.641 31.128 513.113 29.224V34.216H514.681V29.176C516.153 31.096 518.249 32.856 520.233 33.864C520.489 33.448 520.985 32.84 521.369 32.52C519.385 31.72 517.321 30.2 515.961 28.568H521.049ZM526.255 22.92H525.087V27.08C525.087 29.048 524.911 31.768 522.319 33.32C522.575 33.544 522.975 33.944 523.135 34.2C525.887 32.36 526.255 29.384 526.255 27.096V22.92ZM525.839 31.16C526.623 32.056 527.567 33.256 528.031 34.008L529.055 33.208C528.591 32.488 527.583 31.304 526.831 30.472L525.839 31.16ZM534.639 30.456C534.431 29.48 533.903 27.864 533.391 26.632L532.351 26.968C532.575 27.544 532.799 28.2 532.991 28.84L530.783 29.272C531.391 27.976 531.967 26.376 532.351 24.888L530.991 24.52C530.687 26.28 529.967 28.248 529.727 28.744C529.503 29.288 529.295 29.624 529.039 29.688C529.199 30.04 529.407 30.68 529.487 30.952C529.791 30.776 530.287 30.6 533.311 29.96C533.407 30.312 533.455 30.6 533.503 30.872L534.639 30.456ZM531.407 22.024C531.663 21.336 531.887 20.616 532.079 19.896L530.655 19.576C530.191 21.544 529.391 23.512 528.367 24.776V20.488H522.943V30.12H524.095V21.816H527.183V30.056H528.367V24.872C528.703 25.112 529.263 25.544 529.503 25.768C529.983 25.112 530.447 24.296 530.847 23.384H535.183C535.039 29.64 534.847 32.04 534.415 32.536C534.239 32.776 534.079 32.824 533.823 32.808C533.471 32.808 532.751 32.808 531.935 32.744C532.191 33.16 532.351 33.8 532.383 34.232C533.167 34.264 533.951 34.28 534.463 34.2C534.991 34.12 535.343 33.96 535.695 33.464C536.271 32.68 536.431 30.168 536.623 22.76C536.639 22.552 536.639 22.024 536.639 22.024H531.407ZM544.181 33.128C543.317 33.128 542.523 32.9893 541.797 32.712C541.072 32.424 540.443 32.024 539.909 31.512C539.376 30.9893 538.96 30.3813 538.661 29.688C538.363 28.9947 538.213 28.232 538.213 27.4C538.213 26.568 538.363 25.8053 538.661 25.112C538.96 24.4187 539.376 23.816 539.909 23.304C540.453 22.7813 541.088 22.3813 541.813 22.104C542.539 21.816 543.339 21.672 544.213 21.672C545.099 21.672 545.909 21.816 546.645 22.104C547.381 22.392 548.005 22.824 548.517 23.4L547.525 24.392C547.067 23.944 546.565 23.6187 546.021 23.416C545.488 23.2027 544.907 23.096 544.277 23.096C543.637 23.096 543.04 23.2027 542.485 23.416C541.941 23.6293 541.467 23.928 541.061 24.312C540.667 24.696 540.357 25.1547 540.133 25.688C539.92 26.2107 539.813 26.7813 539.813 27.4C539.813 28.008 539.92 28.5787 540.133 29.112C540.357 29.6347 540.667 30.0933 541.061 30.488C541.467 30.872 541.941 31.1707 542.485 31.384C543.029 31.5973 543.621 31.704 544.261 31.704C544.859 31.704 545.429 31.6133 545.973 31.432C546.528 31.24 547.04 30.9253 547.509 30.488L548.421 31.704C547.867 32.1733 547.216 32.5307 546.469 32.776C545.733 33.0107 544.971 33.128 544.181 33.128ZM546.885 31.496V27.336H548.421V31.704L546.885 31.496Z" fill="#222222"/>
<rect x="440" y="81" width="160" height="50" rx="7" fill="#7094F0"/>
<path d="M493.783 101.688C493.047 101.144 491.591 100.472 490.471 100.072L489.719 101.096C490.855 101.528 492.295 102.28 492.999 102.824L493.783 101.688ZM493.815 103.528C492.119 104.088 490.375 104.632 489.223 104.968L489.655 106.328C490.919 105.88 492.551 105.352 494.071 104.808L493.815 103.528ZM501.719 111.288V107.048H491.223V111.416H492.695V108.392H500.199V111.288H501.719ZM495.751 108.824C495.303 111.176 494.183 112.472 489.159 113.064C489.383 113.368 489.703 113.944 489.815 114.28C495.239 113.528 496.679 111.848 497.223 108.824H495.751ZM496.567 111.912C498.503 112.536 501.127 113.528 502.439 114.216L503.335 113C501.959 112.344 499.287 111.4 497.415 110.872L496.567 111.912ZM501.335 102.12C501.143 102.6 500.919 103.08 500.727 103.416L502.039 103.768C502.423 103.128 502.887 102.12 503.239 101.208L502.151 100.936L501.927 100.984H496.919C497.095 100.6 497.255 100.232 497.399 99.848L495.991 99.656C495.607 100.776 494.807 102.072 493.543 103.032C493.863 103.224 494.359 103.64 494.567 103.976C495.271 103.4 495.815 102.776 496.263 102.12H497.863C497.399 103.656 496.423 105.032 493.671 105.8C493.943 106.04 494.311 106.552 494.455 106.872C496.615 106.2 497.831 105.192 498.583 103.976C499.543 105.256 500.951 106.232 502.679 106.728C502.871 106.376 503.239 105.832 503.559 105.576C501.575 105.144 499.959 104.136 499.127 102.776C499.207 102.552 499.271 102.344 499.335 102.12H501.335ZM515.565 102.536C515.037 101.944 513.933 101.144 513.037 100.6L512.285 101.608C513.197 102.184 514.285 103.048 514.781 103.672L515.565 102.536ZM514.893 106.344C514.317 105.784 513.149 105.032 512.221 104.536L511.517 105.608C512.461 106.12 513.597 106.952 514.141 107.528L514.893 106.344ZM510.093 100.504C509.901 101.592 509.469 103.176 509.133 104.152L510.077 104.44C510.493 103.528 510.973 102.04 511.389 100.792L510.093 100.504ZM506.893 104.136C506.781 103.176 506.445 101.688 506.013 100.568L504.957 100.84C505.341 101.976 505.693 103.48 505.757 104.44L506.893 104.136ZM508.765 106.28H511.261V104.888H508.765V99.656H507.373V104.888H504.893V106.28H506.925C506.397 107.912 505.485 109.816 504.621 110.872C504.861 111.272 505.213 111.928 505.341 112.36C506.093 111.352 506.829 109.72 507.373 108.12V114.248H508.765V108.136C509.293 108.984 509.901 109.992 510.173 110.568L511.117 109.4C510.781 108.92 509.245 106.968 508.765 106.456V106.28ZM519.565 109.496L519.357 108.136L517.581 108.44V99.592H516.189V108.696L511.213 109.592L511.453 110.968L516.189 110.104V114.264H517.581V109.848L519.565 109.496ZM522.915 108.216C523.971 106.824 524.979 105.144 525.795 103.512L524.627 102.824C524.371 103.416 524.067 104.04 523.747 104.616L522.259 104.76C523.123 103.384 523.971 101.672 524.563 100.04L523.171 99.544C522.643 101.448 521.635 103.496 521.315 104.024C520.995 104.552 520.755 104.904 520.451 104.984C520.611 105.352 520.835 106.024 520.915 106.312C521.139 106.2 521.507 106.088 523.011 105.896C522.467 106.808 521.955 107.512 521.731 107.816C521.267 108.408 520.947 108.792 520.595 108.872C520.739 109.224 520.963 109.864 521.011 110.136C521.347 109.928 521.875 109.752 525.347 108.936C525.283 108.632 525.235 108.104 525.251 107.736L522.915 108.216ZM525.155 110.184C523.427 110.888 521.683 111.576 520.515 111.96L520.867 113.336C522.179 112.76 523.859 112.056 525.443 111.368L525.155 110.184ZM532.675 109.592V107.544H533.619V109.592H532.675ZM530.803 109.592V107.544H531.715V109.592H530.803ZM528.787 109.592V107.544H529.843V109.592H528.787ZM533.187 102.472V103.944H527.795V102.472H533.187ZM533.619 106.328V106.344H527.763C527.779 105.928 527.795 105.544 527.795 105.16H534.563V101.24H531.651C531.459 100.712 531.171 100.008 530.851 99.464L529.443 99.88C529.651 100.28 529.859 100.792 530.019 101.24H526.435V104.68C526.435 107.128 526.291 110.664 524.819 113.192C525.123 113.336 525.731 113.768 525.955 114.024C526.931 112.376 527.395 110.184 527.619 108.168V114.12H528.787V110.76H529.843V113.768H530.803V110.76H531.715V113.736H532.675V110.76H533.619V112.904C533.619 113.016 533.587 113.048 533.475 113.064C533.379 113.064 533.123 113.064 532.835 113.048C532.979 113.352 533.107 113.816 533.155 114.136C533.699 114.136 534.083 114.12 534.387 113.928C534.707 113.736 534.771 113.416 534.771 112.92V106.328H533.619ZM537.561 104.6C537.817 104.2 538.057 103.688 538.265 103.144H540.137V104.6H537.561ZM541.545 103.144H544.601V101.8H541.545V99.672H540.137V101.8H538.745C538.889 101.288 539.033 100.744 539.161 100.216L537.769 99.928C537.465 101.448 536.937 103.032 536.233 104.088C536.585 104.216 537.177 104.424 537.481 104.6H536.377V105.96H540.137V107.384H537.065V112.984H538.393V108.712H540.137V114.248H541.545V108.712H543.401V111.56C543.401 111.72 543.353 111.768 543.193 111.768C543.033 111.784 542.553 111.784 541.977 111.768C542.169 112.12 542.345 112.664 542.377 113.032C543.209 113.048 543.817 113.032 544.233 112.808C544.649 112.584 544.745 112.2 544.745 111.592V107.384H541.545V105.96H545.225V104.6H541.545V103.144ZM547.577 100.984H546.201V109.832H547.577V100.984ZM549.017 99.8V112.376C549.017 112.632 548.937 112.712 548.681 112.712C548.409 112.728 547.545 112.728 546.649 112.696C546.857 113.128 547.065 113.816 547.129 114.216C548.329 114.216 549.225 114.184 549.737 113.928C550.265 113.672 550.457 113.256 550.457 112.36V99.8H549.017Z" fill="white"/>
</svg>
