<svg width="483" height="66" viewBox="0 0 483 66" fill="none" xmlns="http://www.w3.org/2000/svg">
<g clip-path="url(#clip0_152_9330)">
<path d="M482.151 15.4761C479.468 0.194759 433.149 -4.58878 378.693 4.80514C355.829 8.76617 335.189 14.5887 319.11 21.1471C321.575 21.212 323.408 21.7748 324.543 22.857C325.394 23.7228 325.83 24.9133 325.83 26.3852V27.9003H320.485V26.5583C320.485 25.4544 319.808 24.7618 318.608 24.7618C317.605 24.7618 316.994 25.1947 316.776 26.1038C316.732 26.3419 316.71 26.7748 316.819 27.1644C317.387 29.4804 325.306 30.909 326.179 35.1947C326.288 35.7358 326.441 36.9046 326.201 38.5929C325.699 42.0561 322.645 43.3765 318.761 43.3765C313.329 43.3765 311.125 40.8224 311.125 37.2942V35.6492H316.841V37.7271C316.841 38.896 317.692 39.5237 318.87 39.5237C319.961 39.5237 320.616 39.0908 320.834 38.1817C320.921 37.7704 320.986 37.1644 320.79 36.6882C319.743 34.0475 312.325 32.8137 311.43 28.5713C311.212 27.5973 311.212 26.7964 311.365 25.7575C311.452 25.1947 311.627 24.7185 311.845 24.2856C293.998 32.554 283.57 41.6665 284.944 49.5237C287.65 64.8266 333.946 69.5885 388.402 60.1946C412.336 56.0388 433.848 49.87 450.232 42.9219C449.992 42.9219 449.774 42.9652 449.512 42.9652C445.782 42.9652 442.444 41.5799 442.116 37.8137C442.051 37.1211 442.051 36.8397 442.029 36.4501V27.7488C442.029 27.3808 442.095 26.7315 442.116 26.3852C442.574 22.7272 445.476 21.2337 449.512 21.2337C452.632 21.2337 456.45 22.1211 456.887 26.4068C456.952 26.9479 456.952 27.5107 456.952 27.7055V28.528H451.563V27.3159C451.563 27.3159 451.563 26.8397 451.498 26.5367C451.411 26.1038 451.04 25.0865 449.491 25.0865C447.942 25.0865 447.592 26.1038 447.483 26.5367C447.44 26.7748 447.396 27.1211 447.396 27.5107V36.9479C447.396 37.2726 447.396 37.5323 447.44 37.7271C447.44 37.8787 447.745 39.1774 449.512 39.1774C451.28 39.1774 451.541 37.857 451.563 37.7271C451.607 37.4674 451.629 37.1644 451.607 36.9479V34.0258H449.491V30.8657H456.996V36.4717C456.996 36.8613 456.996 37.1427 456.93 37.8354C456.821 38.8094 456.516 39.6752 456.036 40.3895C473.402 32.2077 483.526 23.2467 482.173 15.4978L482.151 15.4761ZM340.949 42.5756L338.222 24.1557H338.135L335.342 42.5756H329.582L333.466 21.7748H342.869L346.709 42.5756H340.971H340.949ZM368.657 42.5756L368.526 24.5237H368.439L365.057 42.5756H359.647L356.287 24.5237H356.2L356.069 42.5756H350.723L351.182 21.7748H359.799L362.308 37.2293H362.439L364.948 21.7748H373.566L374.024 42.5756H368.701H368.657ZM393.856 38.5496C393.289 42.5756 389.297 43.2899 386.504 43.2899C381.835 43.2899 378.955 41.3202 378.955 37.2726V35.6276H384.606V37.6839C384.606 38.7877 385.413 39.4804 386.613 39.4804C387.704 39.4804 388.337 39.0475 388.555 38.16C388.664 37.7488 388.707 37.1427 388.511 36.6882C387.464 34.1124 380.133 32.8354 379.239 28.6579C379.021 27.6839 379.021 26.9047 379.195 25.8657C379.806 22.0562 383.493 21.277 386.46 21.277C389.122 21.277 391.042 21.8397 392.198 22.9869C393.049 23.8311 393.485 25.0215 393.485 26.4718V27.9869H388.206V26.6666C388.206 25.541 387.486 24.87 386.351 24.87C385.348 24.87 384.737 25.3246 384.519 26.1904C384.475 26.3635 384.431 26.7964 384.54 27.2293C385.108 29.5453 392.962 30.9523 393.835 35.1947C393.944 35.7358 394.096 36.9046 393.835 38.5713L393.856 38.5496ZM413.448 36.6665C413.448 37.0561 413.427 37.8354 413.405 38.0302C413.077 41.4501 410.612 43.2033 406.074 43.2033C401.536 43.2033 399.049 41.4501 398.743 38.0302C398.743 37.8354 398.678 37.0561 398.7 36.6665V21.7748H404.111V37.1427C404.111 37.489 404.111 37.7488 404.176 37.9219C404.241 38.2683 404.591 39.3722 406.096 39.3722C407.601 39.3722 407.972 38.2683 408.038 37.9219C408.059 37.7488 408.081 37.489 408.081 37.1427V21.7748H413.47V36.6665H413.448ZM436.749 42.3592H429.222L424.161 25.8873H424.073L424.335 42.3592H419.077V21.7964H426.91L431.579 37.6189H431.688L431.426 21.7964H436.706V42.3808L436.749 42.3592Z" fill="#144393"/>
<path d="M9.47847 47.5756C1.86422 47.5756 0.446096 43.1384 0.773356 38.0951H6.92585C6.92585 40.8873 7.05675 43.225 10.4166 43.225C12.4893 43.225 13.5147 41.9047 13.5147 39.9133C13.5147 34.6536 1.14425 34.3289 1.14425 25.6493C1.14425 21.0822 3.3478 17.4458 10.8312 17.4458C16.8091 17.4458 19.7763 20.1082 19.3835 26.2121H13.4056C13.4056 24.0259 13.0347 21.8181 10.5475 21.8181C8.56215 21.8181 7.36219 22.9004 7.36219 24.935C7.36219 30.4761 19.7326 29.9783 19.7326 39.1557C19.7326 46.7098 14.1474 47.5973 9.47847 47.5973V47.5756Z" fill="#144393"/>
<path d="M27.7615 47.0995L29.4196 40.6493H37.7975L39.4338 47.0995H45.9135L37.9284 17.9437H29.8342L21.6963 47.0995H27.7615ZM36.5103 36.1687H30.6414L33.4558 23.5714H33.5431L36.5103 36.1687Z" fill="#144393"/>
<path d="M48.4658 47.0995V17.9437H58.3491L62.9525 37.7705H63.0398L67.9269 17.9437H77.4829V47.0995H71.5049V24.6103H71.4177L65.767 47.0995H59.8981L54.531 24.6103H54.4438V47.0995H48.4658Z" fill="#144393"/>
<path d="M90.2685 47.5756C82.6543 47.5756 81.2361 43.1384 81.5634 38.0951H87.7159C87.7159 40.8873 87.8468 43.225 91.2067 43.225C93.2793 43.225 94.3047 41.9047 94.3047 39.9133C94.3047 34.6752 81.9343 34.3506 81.9343 25.6493C81.9343 21.0822 84.1378 17.4458 91.6212 17.4458C97.5991 17.4458 100.566 20.1082 100.174 26.2121H94.1956C94.1956 24.0259 93.8247 21.8181 91.3376 21.8181C89.3522 21.8181 88.1522 22.9004 88.1522 24.935C88.1522 30.4761 100.523 29.9783 100.523 39.1557C100.523 46.7098 94.9374 47.5973 90.2685 47.5973V47.5756Z" fill="#144393"/>
<path d="M124.565 17.9437V38.6146C124.565 42.9653 122.078 47.5756 114.594 47.5756C107.831 47.5756 104.58 44.1124 104.58 38.6146V17.9437H110.733V38.2034C110.733 41.7964 112.282 43.2034 114.529 43.2034C117.212 43.2034 118.434 41.4285 118.434 38.2034V17.9437H124.587H124.565Z" fill="#144393"/>
<path d="M129.408 47.0995V17.9437H137.721L145.531 38.1168H145.618V17.9437H151.335V47.0995H143.24L135.233 25.7792H135.146V47.0995H129.408Z" fill="#144393"/>
<path d="M169.748 26.9047C169.792 24.1991 169.334 21.8181 166.083 21.8181C162.265 21.8181 162.265 26.948 162.265 32.5973C162.265 41.7315 163.16 43.3332 166.65 43.3332C167.676 43.3332 168.767 43.0951 169.705 42.7705V36.3203H166.367V31.8398H175.857V46.6233C174.199 46.9479 169.988 47.5973 167.545 47.5973C157.204 47.5973 156.025 43.3549 156.025 32.2943C156.025 24.935 156.396 17.4891 166.454 17.4891C172.476 17.4891 176.228 20.8441 175.857 26.9263H169.748V26.9047Z" fill="#144393"/>
<path d="M197.784 47.5756C190.17 47.5756 188.752 43.1384 189.079 38.0951H195.232C195.232 40.8873 195.362 43.225 198.722 43.225C200.795 43.225 201.82 41.9047 201.82 39.9133C201.82 34.6752 189.45 34.3506 189.45 25.6493C189.45 21.0822 191.653 17.4458 199.137 17.4458C205.115 17.4458 208.082 20.1082 207.689 26.2121H201.711C201.711 24.0259 201.34 21.8181 198.853 21.8181C196.868 21.8181 195.69 22.9004 195.69 24.935C195.69 30.4761 208.06 29.9783 208.06 39.1557C208.06 46.7098 202.497 47.5973 197.806 47.5973L197.784 47.5756Z" fill="#144393"/>
<path d="M212.357 47.0995H222.372C232.866 47.0995 232.189 36.8397 232.189 32.3592C232.189 23.2683 230.684 17.9437 222.633 17.9437H212.379V47.0995H212.357ZM218.51 22.4242H221.673C225.95 22.4242 225.95 27.1428 225.95 32.5107C225.95 39.8267 225.208 42.5973 221.477 42.5973H218.51V22.4242Z" fill="#144393"/>
<path d="M243.033 17.9437H236.881V47.0995H243.033V17.9437Z" fill="#144393"/>
</g>
<defs>
<clipPath id="clip0_152_9330">
<rect width="481.531" height="65.0215" fill="white" transform="translate(0.729492)"/>
</clipPath>
</defs>
</svg>
