<svg width="380" height="71" viewBox="0 0 380 71" fill="none" xmlns="http://www.w3.org/2000/svg">
<g clip-path="url(#clip0_152_8892)">
<path d="M379.868 16.9003C377.171 0.212438 330.542 -5.00398 275.733 5.26363C252.726 9.58312 231.935 15.9325 215.748 23.108C218.227 23.1789 220.091 23.7926 221.21 24.9727C222.087 25.9169 222.526 27.2151 222.526 28.8201V30.4724H217.152V29.009C217.152 27.8052 216.472 27.0499 215.266 27.0499C214.257 27.0499 213.643 27.5455 213.424 28.5133C213.38 28.7729 213.358 29.245 213.446 29.6699C214.016 32.1955 221.999 33.7769 222.876 38.4505C222.986 39.0406 223.14 40.3388 222.876 42.1799C222.372 45.9564 219.301 47.3963 215.398 47.3963C209.936 47.3963 207.721 44.611 207.721 40.7636V38.9461H213.489V41.2121C213.489 42.4867 214.367 43.1948 215.529 43.1948C216.626 43.1948 217.284 42.7227 217.525 41.7314C217.613 41.2829 217.678 40.622 217.481 40.1027C216.406 37.2231 208.971 35.8777 208.05 31.2277C207.853 30.1892 207.831 29.2922 208.006 28.1828C208.094 27.5691 208.269 27.0499 208.489 26.5778C190.526 35.5944 180.043 45.5552 181.424 54.1233C184.144 70.8348 230.75 76.0276 285.559 65.76C309.641 61.2281 331.31 54.4774 347.781 46.9242C347.54 46.9242 347.321 46.9714 347.079 46.9714C343.329 46.9714 339.973 45.4608 339.622 41.3301C339.557 40.5748 339.557 40.2679 339.535 39.8431V30.3544C339.535 29.9531 339.579 29.245 339.622 28.8674C340.061 24.8783 343 23.2497 347.057 23.2497C350.194 23.2497 354.054 24.2174 354.471 28.891C354.536 29.4574 354.514 30.0947 354.514 30.3072V31.2041H349.097V29.8823C349.097 29.8823 349.097 29.3394 349.031 29.0326C348.944 28.5605 348.571 27.4511 347.014 27.4511C345.456 27.4511 345.105 28.5605 344.996 29.0326C344.952 29.2922 344.908 29.6699 344.908 30.0947V40.4096C344.908 40.7636 344.908 41.0469 344.952 41.2593C344.952 41.4245 345.259 42.8408 347.036 42.8408C348.812 42.8408 349.075 41.4245 349.097 41.2593C349.141 40.9761 349.163 40.6456 349.141 40.4096V37.2231H346.992V33.7769H354.558V39.8903C354.558 40.3152 354.558 40.5984 354.493 41.3773C354.405 42.4631 354.076 43.3836 353.593 44.1626C371.073 35.2404 381.25 25.4448 379.89 16.9947M237.769 46.5937L235.027 26.4834H234.939L232.132 46.5937H226.342L230.224 23.887H239.699L243.581 46.5937H237.812H237.769ZM265.645 46.5937L265.513 26.8846H265.425L262.026 46.5937H256.586L253.209 26.8846H253.121L252.99 46.5937H247.594L248.055 23.887H256.74L259.262 40.7636H259.394L261.916 23.887H270.579L271.04 46.5937H265.688H265.645ZM291.02 42.1799C290.428 46.5937 286.436 47.3491 283.607 47.3491C278.914 47.3491 275.997 45.1775 275.997 40.7872V38.9934H281.699V41.2357C281.699 42.4395 282.511 43.1948 283.717 43.1948C284.813 43.1948 285.449 42.7227 285.669 41.755C285.757 41.3065 285.822 40.6456 285.625 40.1499C284.572 37.3411 277.181 35.9485 276.282 31.3693C276.084 30.3308 276.062 29.4574 276.238 28.3245C276.852 24.1702 280.559 23.3205 283.541 23.3205C286.217 23.3205 288.147 23.9342 289.31 25.2088C290.165 26.1293 290.604 27.4275 290.604 29.0326V30.6848H285.296V29.245C285.296 28.0176 284.572 27.2859 283.432 27.2859C282.423 27.2859 281.787 27.7816 281.589 28.7493C281.545 28.9382 281.502 29.4102 281.611 29.8823C282.182 32.3843 290.099 33.9422 290.954 38.5685C291.064 39.1586 291.218 40.4332 290.954 42.2743M310.672 40.2207C310.672 40.6456 310.65 41.4953 310.628 41.7078C310.299 45.4372 307.82 47.3491 303.237 47.3491C298.653 47.3491 296.174 45.4372 295.845 41.7078C295.845 41.4717 295.802 40.622 295.802 40.2207V23.9578H301.241V40.7164C301.241 41.0941 301.241 41.3537 301.307 41.5662C301.372 41.9438 301.723 43.1476 303.237 43.1476C304.75 43.1476 305.123 41.9202 305.211 41.5662C305.232 41.3773 305.254 41.0941 305.254 40.7164V23.9578H310.694V40.2207H310.672ZM334.139 46.4521H326.573L321.484 28.4661H321.397L321.682 46.4521H316.396V23.7926H324.292L329.007 41.0705H329.117L328.854 23.7926H334.161V46.2633L334.139 46.4521Z" fill="#144393"/>
<path d="M108.609 52.8487H113.565C120.869 52.8487 123.545 49.8511 123.545 39.4182V30.3308C123.545 21.2434 120.978 17.8916 115.517 17.8916H108.631V52.8723L108.609 52.8487ZM103.389 12.8876H116.022C121.264 12.8876 125.014 14.9412 127.076 19.7327C128.721 23.5329 128.896 32.5023 128.896 33.9186C128.896 43.5017 128.106 49.0485 126.396 52.0226C124.181 55.87 120.013 57.8055 112.82 57.8055H103.389V12.9112" fill="#144393"/>
<path d="M79.8334 44.6818V45.98C79.8334 52.0934 83.3645 54.0053 86.7201 54.0053C90.8653 54.0053 94.0675 52.0934 94.0675 46.7354C94.0675 36.7982 75.6004 37.9076 75.6004 24.4299C75.6004 16.4754 80.7765 12.2503 87.6851 12.2503C95.186 12.2503 99.397 16.2394 99.09 25.374H93.6069C93.6507 20.4644 92.2471 17.2307 87.2904 17.2307C84.154 17.2307 80.9738 18.9538 80.9738 23.8162C80.9738 33.6825 99.419 32.2663 99.419 46.4993C99.419 55.9408 93.4534 58.9857 86.6763 58.9857C74.5257 59.1037 74.5257 48.9777 74.6354 44.7055H79.8334V44.6818Z" fill="#144393"/>
<path d="M27.1738 11.9907V36.0901H32.6788V26.4126H37.3285V21.4794H32.6788V11.9907H27.1738Z" fill="#144393"/>
<path d="M27.3714 52.9668V42.888H12.0845V52.9668H27.3714ZM6.82076 57.7819V38.0728H32.679V57.7819H6.79883" fill="#144393"/>
<path d="M69.9205 11.9907V36.0901H64.5252V26.4126H57.5068V21.503H64.4155V11.9907H69.9205Z" fill="#144393"/>
<path d="M65.2922 47.8684C65.2922 44.4222 61.3006 41.637 56.3877 41.637C51.4749 41.637 47.4832 44.4222 47.4832 47.8684C47.4832 51.3145 51.4749 54.0997 56.3877 54.0997C61.3006 54.0997 65.2922 51.3145 65.2922 47.8684ZM56.3877 59.0329C48.4482 59.0329 42.0439 54.0525 42.0439 47.8684C42.0439 41.6842 48.4482 36.7038 56.3877 36.7038C64.3272 36.7038 70.7095 41.7078 70.7095 47.8684C70.7095 54.0289 64.3053 59.0329 56.3877 59.0329Z" fill="#144393"/>
<path d="M14.1897 12.864C14.1897 12.864 13.4659 25.8933 23.2697 31.2985L20.4404 35.5C20.4404 35.5 13.2685 30.4016 11.6236 24.8075C10.0006 30.4016 2.80681 35.5 2.80681 35.5L-0.0224609 31.2985C9.80324 25.9169 9.07947 12.864 9.07947 12.864H14.1678H14.1897Z" fill="#144393"/>
<path d="M48.2068 24.8075C46.5838 30.4016 40.0041 35.0751 40.0041 35.0751L37.1748 30.8737C46.3864 25.9169 45.6626 12.8876 45.6626 12.8876H50.7509C50.7509 12.8876 50.0272 25.9169 59.2388 30.8737L56.4095 35.0751C56.4095 35.0751 49.8298 30.4016 48.2068 24.8075Z" fill="#144393"/>
<path d="M138.963 12.9112H133.546V57.6639H138.963V12.9112Z" fill="#144393"/>
</g>
<defs>
<clipPath id="clip0_152_8892">
<rect width="380" height="71" fill="white"/>
</clipPath>
</defs>
</svg>
