<svg width="327" height="299" viewBox="0 0 327 299" fill="none" xmlns="http://www.w3.org/2000/svg">
<path d="M164 46L271.833 134L225 255H103L56.167 134L164 46Z" fill="#F6F7FE"/>
<path d="M57.9588 134.474L164 47.9361L270.041 134.474L223.972 253.5H104.028L57.9588 134.474Z" stroke="#C6D4F9" stroke-opacity="0.2" stroke-width="3"/>
<circle cx="164" cy="47" r="47" fill="white"/>
<circle cx="164" cy="47" r="45.5" stroke="#7094F0" stroke-opacity="0.3" stroke-width="3"/>
<path d="M131.241 52.096C130.601 52.096 130.005 51.988 129.453 51.772C128.909 51.556 128.437 51.256 128.037 50.872C127.637 50.48 127.325 50.024 127.101 49.504C126.877 48.984 126.765 48.416 126.765 47.8C126.765 47.184 126.877 46.616 127.101 46.096C127.325 45.576 127.637 45.124 128.037 44.74C128.437 44.348 128.909 44.044 129.453 43.828C129.997 43.612 130.593 43.504 131.241 43.504C131.881 43.504 132.469 43.612 133.005 43.828C133.549 44.036 134.021 44.336 134.421 44.728C134.829 45.112 135.141 45.564 135.357 46.084C135.581 46.604 135.693 47.176 135.693 47.8C135.693 48.424 135.581 48.996 135.357 49.516C135.141 50.036 134.829 50.492 134.421 50.884C134.021 51.268 133.549 51.568 133.005 51.784C132.469 51.992 131.881 52.096 131.241 52.096ZM131.241 51.028C131.705 51.028 132.133 50.948 132.525 50.788C132.925 50.628 133.269 50.404 133.557 50.116C133.853 49.82 134.081 49.476 134.241 49.084C134.409 48.692 134.493 48.264 134.493 47.8C134.493 47.336 134.409 46.908 134.241 46.516C134.081 46.124 133.853 45.784 133.557 45.496C133.269 45.2 132.925 44.972 132.525 44.812C132.133 44.652 131.705 44.572 131.241 44.572C130.769 44.572 130.333 44.652 129.933 44.812C129.541 44.972 129.197 45.2 128.901 45.496C128.605 45.784 128.373 46.124 128.205 46.516C128.045 46.908 127.965 47.336 127.965 47.8C127.965 48.264 128.045 48.692 128.205 49.084C128.373 49.476 128.605 49.82 128.901 50.116C129.197 50.404 129.541 50.628 129.933 50.788C130.333 50.948 130.769 51.028 131.241 51.028ZM137.11 52V45.64H138.214V47.368L138.106 46.936C138.282 46.496 138.578 46.16 138.994 45.928C139.41 45.696 139.922 45.58 140.53 45.58V46.696C140.482 46.688 140.434 46.684 140.386 46.684C140.346 46.684 140.306 46.684 140.266 46.684C139.65 46.684 139.162 46.868 138.802 47.236C138.442 47.604 138.262 48.136 138.262 48.832V52H137.11ZM144.425 54.4C143.841 54.4 143.273 54.316 142.721 54.148C142.177 53.988 141.733 53.756 141.389 53.452L141.941 52.564C142.237 52.82 142.601 53.02 143.033 53.164C143.465 53.316 143.917 53.392 144.389 53.392C145.141 53.392 145.693 53.216 146.045 52.864C146.397 52.512 146.573 51.976 146.573 51.256V49.912L146.693 48.652L146.633 47.38V45.64H147.725V51.136C147.725 52.256 147.445 53.08 146.885 53.608C146.325 54.136 145.505 54.4 144.425 54.4ZM144.281 51.736C143.665 51.736 143.113 51.608 142.625 51.352C142.145 51.088 141.761 50.724 141.473 50.26C141.193 49.796 141.053 49.26 141.053 48.652C141.053 48.036 141.193 47.5 141.473 47.044C141.761 46.58 142.145 46.22 142.625 45.964C143.113 45.708 143.665 45.58 144.281 45.58C144.825 45.58 145.321 45.692 145.769 45.916C146.217 46.132 146.573 46.468 146.837 46.924C147.109 47.38 147.245 47.956 147.245 48.652C147.245 49.34 147.109 49.912 146.837 50.368C146.573 50.824 146.217 51.168 145.769 51.4C145.321 51.624 144.825 51.736 144.281 51.736ZM144.413 50.728C144.837 50.728 145.213 50.64 145.541 50.464C145.869 50.288 146.125 50.044 146.309 49.732C146.501 49.42 146.597 49.06 146.597 48.652C146.597 48.244 146.501 47.884 146.309 47.572C146.125 47.26 145.869 47.02 145.541 46.852C145.213 46.676 144.837 46.588 144.413 46.588C143.989 46.588 143.609 46.676 143.273 46.852C142.945 47.02 142.685 47.26 142.493 47.572C142.309 47.884 142.217 48.244 142.217 48.652C142.217 49.06 142.309 49.42 142.493 49.732C142.685 50.044 142.945 50.288 143.273 50.464C143.609 50.64 143.989 50.728 144.413 50.728ZM153.624 52V50.656L153.564 50.404V48.112C153.564 47.624 153.42 47.248 153.132 46.984C152.852 46.712 152.428 46.576 151.86 46.576C151.484 46.576 151.116 46.64 150.756 46.768C150.396 46.888 150.092 47.052 149.844 47.26L149.364 46.396C149.692 46.132 150.084 45.932 150.54 45.796C151.004 45.652 151.488 45.58 151.992 45.58C152.864 45.58 153.536 45.792 154.008 46.216C154.48 46.64 154.716 47.288 154.716 48.16V52H153.624ZM151.536 52.072C151.064 52.072 150.648 51.992 150.288 51.832C149.936 51.672 149.664 51.452 149.472 51.172C149.28 50.884 149.184 50.56 149.184 50.2C149.184 49.856 149.264 49.544 149.424 49.264C149.592 48.984 149.86 48.76 150.228 48.592C150.604 48.424 151.108 48.34 151.74 48.34H153.756V49.168H151.788C151.212 49.168 150.824 49.264 150.624 49.456C150.424 49.648 150.324 49.88 150.324 50.152C150.324 50.464 150.448 50.716 150.696 50.908C150.944 51.092 151.288 51.184 151.728 51.184C152.16 51.184 152.536 51.088 152.856 50.896C153.184 50.704 153.42 50.424 153.564 50.056L153.792 50.848C153.64 51.224 153.372 51.524 152.988 51.748C152.604 51.964 152.12 52.072 151.536 52.072ZM159.994 45.58C160.514 45.58 160.97 45.68 161.362 45.88C161.762 46.08 162.074 46.384 162.298 46.792C162.522 47.2 162.634 47.716 162.634 48.34V52H161.482V48.472C161.482 47.856 161.33 47.392 161.026 47.08C160.73 46.768 160.31 46.612 159.766 46.612C159.358 46.612 159.002 46.692 158.698 46.852C158.394 47.012 158.158 47.248 157.99 47.56C157.83 47.872 157.75 48.26 157.75 48.724V52H156.598V45.64H157.702V47.356L157.522 46.9C157.73 46.484 158.05 46.16 158.482 45.928C158.914 45.696 159.418 45.58 159.994 45.58ZM164.516 52V45.64H165.668V52H164.516ZM165.092 44.416C164.868 44.416 164.68 44.344 164.528 44.2C164.384 44.056 164.312 43.88 164.312 43.672C164.312 43.456 164.384 43.276 164.528 43.132C164.68 42.988 164.868 42.916 165.092 42.916C165.316 42.916 165.5 42.988 165.644 43.132C165.796 43.268 165.872 43.44 165.872 43.648C165.872 43.864 165.8 44.048 165.656 44.2C165.512 44.344 165.324 44.416 165.092 44.416ZM167.005 52V51.256L171.085 46.192L171.313 46.588H167.077V45.64H172.237V46.396L168.157 51.448L167.893 51.052H172.333V52H167.005ZM177.573 52V50.656L177.513 50.404V48.112C177.513 47.624 177.369 47.248 177.081 46.984C176.801 46.712 176.377 46.576 175.809 46.576C175.433 46.576 175.065 46.64 174.705 46.768C174.345 46.888 174.041 47.052 173.793 47.26L173.313 46.396C173.641 46.132 174.033 45.932 174.489 45.796C174.953 45.652 175.437 45.58 175.941 45.58C176.813 45.58 177.485 45.792 177.957 46.216C178.429 46.64 178.665 47.288 178.665 48.16V52H177.573ZM175.485 52.072C175.013 52.072 174.597 51.992 174.237 51.832C173.885 51.672 173.613 51.452 173.421 51.172C173.229 50.884 173.133 50.56 173.133 50.2C173.133 49.856 173.213 49.544 173.373 49.264C173.541 48.984 173.809 48.76 174.177 48.592C174.553 48.424 175.057 48.34 175.689 48.34H177.705V49.168H175.737C175.161 49.168 174.773 49.264 174.573 49.456C174.373 49.648 174.273 49.88 174.273 50.152C174.273 50.464 174.397 50.716 174.645 50.908C174.893 51.092 175.237 51.184 175.677 51.184C176.109 51.184 176.485 51.088 176.805 50.896C177.133 50.704 177.369 50.424 177.513 50.056L177.741 50.848C177.589 51.224 177.321 51.524 176.937 51.748C176.553 51.964 176.069 52.072 175.485 52.072ZM182.731 52.072C182.091 52.072 181.595 51.9 181.243 51.556C180.891 51.212 180.715 50.72 180.715 50.08V44.248H181.867V50.032C181.867 50.376 181.951 50.64 182.119 50.824C182.295 51.008 182.543 51.1 182.863 51.1C183.223 51.1 183.523 51 183.763 50.8L184.123 51.628C183.947 51.78 183.735 51.892 183.487 51.964C183.247 52.036 182.995 52.072 182.731 52.072ZM179.635 46.588V45.64H183.691V46.588H179.635ZM185.266 52V45.64H186.418V52H185.266ZM185.842 44.416C185.618 44.416 185.43 44.344 185.278 44.2C185.134 44.056 185.062 43.88 185.062 43.672C185.062 43.456 185.134 43.276 185.278 43.132C185.43 42.988 185.618 42.916 185.842 42.916C186.066 42.916 186.25 42.988 186.394 43.132C186.546 43.268 186.622 43.44 186.622 43.648C186.622 43.864 186.55 44.048 186.406 44.2C186.262 44.344 186.074 44.416 185.842 44.416ZM191.091 52.072C190.451 52.072 189.883 51.932 189.387 51.652C188.891 51.372 188.499 50.988 188.211 50.5C187.923 50.004 187.779 49.444 187.779 48.82C187.779 48.188 187.923 47.628 188.211 47.14C188.499 46.652 188.891 46.272 189.387 46C189.883 45.72 190.451 45.58 191.091 45.58C191.723 45.58 192.287 45.72 192.783 46C193.287 46.272 193.679 46.652 193.959 47.14C194.247 47.62 194.391 48.18 194.391 48.82C194.391 49.452 194.247 50.012 193.959 50.5C193.679 50.988 193.287 51.372 192.783 51.652C192.287 51.932 191.723 52.072 191.091 52.072ZM191.091 51.064C191.499 51.064 191.863 50.972 192.183 50.788C192.511 50.604 192.767 50.344 192.951 50.008C193.135 49.664 193.227 49.268 193.227 48.82C193.227 48.364 193.135 47.972 192.951 47.644C192.767 47.308 192.511 47.048 192.183 46.864C191.863 46.68 191.499 46.588 191.091 46.588C190.683 46.588 190.319 46.68 189.999 46.864C189.679 47.048 189.423 47.308 189.231 47.644C189.039 47.972 188.943 48.364 188.943 48.82C188.943 49.268 189.039 49.664 189.231 50.008C189.423 50.344 189.679 50.604 189.999 50.788C190.319 50.972 190.683 51.064 191.091 51.064ZM199.131 45.58C199.651 45.58 200.107 45.68 200.499 45.88C200.899 46.08 201.211 46.384 201.435 46.792C201.659 47.2 201.771 47.716 201.771 48.34V52H200.619V48.472C200.619 47.856 200.467 47.392 200.163 47.08C199.867 46.768 199.447 46.612 198.903 46.612C198.495 46.612 198.139 46.692 197.835 46.852C197.531 47.012 197.295 47.248 197.127 47.56C196.967 47.872 196.887 48.26 196.887 48.724V52H195.735V45.64H196.839V47.356L196.659 46.9C196.867 46.484 197.187 46.16 197.619 45.928C198.051 45.696 198.555 45.58 199.131 45.58Z" fill="#222222"/>
<circle cx="55" cy="133" r="47" fill="white"/>
<circle cx="55" cy="133" r="45.5" stroke="#7094F0" stroke-opacity="0.3" stroke-width="3"/>
<path d="M38.5452 119V110.6H42.3132C43.2812 110.6 44.0252 110.796 44.5452 111.188C45.0652 111.572 45.3252 112.1 45.3252 112.772C45.3252 113.228 45.2212 113.612 45.0132 113.924C44.8132 114.236 44.5412 114.476 44.1972 114.644C43.8532 114.812 43.4812 114.896 43.0812 114.896L43.2972 114.536C43.7772 114.536 44.2012 114.62 44.5692 114.788C44.9372 114.956 45.2292 115.204 45.4452 115.532C45.6612 115.852 45.7692 116.252 45.7692 116.732C45.7692 117.452 45.4972 118.012 44.9532 118.412C44.4172 118.804 43.6172 119 42.5532 119H38.5452ZM39.7452 118.028H42.5052C43.1692 118.028 43.6772 117.916 44.0292 117.692C44.3812 117.468 44.5572 117.116 44.5572 116.636C44.5572 116.148 44.3812 115.792 44.0292 115.568C43.6772 115.344 43.1692 115.232 42.5052 115.232H39.6372V114.26H42.2052C42.8132 114.26 43.2852 114.148 43.6212 113.924C43.9572 113.7 44.1252 113.364 44.1252 112.916C44.1252 112.468 43.9572 112.132 43.6212 111.908C43.2852 111.684 42.8132 111.572 42.2052 111.572H39.7452V118.028ZM51.1692 119.096C50.5292 119.096 49.9332 118.988 49.3812 118.772C48.8372 118.556 48.3652 118.256 47.9652 117.872C47.5652 117.48 47.2532 117.024 47.0292 116.504C46.8052 115.984 46.6932 115.416 46.6932 114.8C46.6932 114.184 46.8052 113.616 47.0292 113.096C47.2532 112.576 47.5652 112.124 47.9652 111.74C48.3652 111.348 48.8372 111.044 49.3812 110.828C49.9252 110.612 50.5212 110.504 51.1692 110.504C51.8092 110.504 52.3972 110.612 52.9332 110.828C53.4772 111.036 53.9492 111.336 54.3492 111.728C54.7572 112.112 55.0692 112.564 55.2852 113.084C55.5092 113.604 55.6212 114.176 55.6212 114.8C55.6212 115.424 55.5092 115.996 55.2852 116.516C55.0692 117.036 54.7572 117.492 54.3492 117.884C53.9492 118.268 53.4772 118.568 52.9332 118.784C52.3972 118.992 51.8092 119.096 51.1692 119.096ZM51.1692 118.028C51.6332 118.028 52.0612 117.948 52.4532 117.788C52.8532 117.628 53.1972 117.404 53.4852 117.116C53.7812 116.82 54.0092 116.476 54.1692 116.084C54.3372 115.692 54.4212 115.264 54.4212 114.8C54.4212 114.336 54.3372 113.908 54.1692 113.516C54.0092 113.124 53.7812 112.784 53.4852 112.496C53.1972 112.2 52.8532 111.972 52.4532 111.812C52.0612 111.652 51.6332 111.572 51.1692 111.572C50.6972 111.572 50.2612 111.652 49.8612 111.812C49.4692 111.972 49.1252 112.2 48.8292 112.496C48.5332 112.784 48.3012 113.124 48.1332 113.516C47.9732 113.908 47.8932 114.336 47.8932 114.8C47.8932 115.264 47.9732 115.692 48.1332 116.084C48.3012 116.476 48.5332 116.82 48.8292 117.116C49.1252 117.404 49.4692 117.628 49.8612 117.788C50.2612 117.948 50.6972 118.028 51.1692 118.028ZM57.2053 119V110.6H60.7453C61.6413 110.6 62.4293 110.776 63.1093 111.128C63.7973 111.48 64.3293 111.972 64.7053 112.604C65.0893 113.236 65.2813 113.968 65.2813 114.8C65.2813 115.632 65.0893 116.364 64.7053 116.996C64.3293 117.628 63.7973 118.12 63.1093 118.472C62.4293 118.824 61.6413 119 60.7453 119H57.2053ZM58.4053 117.956H60.6733C61.3693 117.956 61.9693 117.824 62.4733 117.56C62.9853 117.296 63.3813 116.928 63.6613 116.456C63.9413 115.976 64.0813 115.424 64.0813 114.8C64.0813 114.168 63.9413 113.616 63.6613 113.144C63.3813 112.672 62.9853 112.304 62.4733 112.04C61.9693 111.776 61.3693 111.644 60.6733 111.644H58.4053V117.956ZM66.0696 113.372L66.6696 110.936L66.8256 111.632C66.5936 111.632 66.3976 111.56 66.2376 111.416C66.0856 111.272 66.0096 111.08 66.0096 110.84C66.0096 110.592 66.0856 110.396 66.2376 110.252C66.3976 110.1 66.5896 110.024 66.8136 110.024C67.0456 110.024 67.2336 110.104 67.3776 110.264C67.5216 110.416 67.5936 110.608 67.5936 110.84C67.5936 110.912 67.5896 110.988 67.5816 111.068C67.5736 111.14 67.5536 111.224 67.5216 111.32C67.4976 111.416 67.4576 111.54 67.4016 111.692L66.8256 113.372H66.0696ZM70.6191 119.072C70.0911 119.072 69.5871 119 69.1071 118.856C68.6351 118.712 68.2631 118.536 67.9911 118.328L68.4711 117.416C68.7431 117.6 69.0791 117.756 69.4791 117.884C69.8791 118.012 70.2871 118.076 70.7031 118.076C71.2391 118.076 71.6231 118 71.8551 117.848C72.0951 117.696 72.2151 117.484 72.2151 117.212C72.2151 117.012 72.1431 116.856 71.9991 116.744C71.8551 116.632 71.6631 116.548 71.4231 116.492C71.1911 116.436 70.9311 116.388 70.6431 116.348C70.3551 116.3 70.0671 116.244 69.7791 116.18C69.4911 116.108 69.2271 116.012 68.9871 115.892C68.7471 115.764 68.5551 115.592 68.4111 115.376C68.2671 115.152 68.1951 114.856 68.1951 114.488C68.1951 114.104 68.3031 113.768 68.5191 113.48C68.7351 113.192 69.0391 112.972 69.4311 112.82C69.8311 112.66 70.3031 112.58 70.8471 112.58C71.2631 112.58 71.6831 112.632 72.1071 112.736C72.5391 112.832 72.8911 112.972 73.1631 113.156L72.6711 114.068C72.3831 113.876 72.0831 113.744 71.7711 113.672C71.4591 113.6 71.1471 113.564 70.8351 113.564C70.3311 113.564 69.9551 113.648 69.7071 113.816C69.4591 113.976 69.3351 114.184 69.3351 114.44C69.3351 114.656 69.4071 114.824 69.5511 114.944C69.7031 115.056 69.8951 115.144 70.1271 115.208C70.3671 115.272 70.6311 115.328 70.9191 115.376C71.2071 115.416 71.4951 115.472 71.7831 115.544C72.0711 115.608 72.3311 115.7 72.5631 115.82C72.8031 115.94 72.9951 116.108 73.1391 116.324C73.2911 116.54 73.3671 116.828 73.3671 117.188C73.3671 117.572 73.2551 117.904 73.0311 118.184C72.8071 118.464 72.4911 118.684 72.0831 118.844C71.6751 118.996 71.1871 119.072 70.6191 119.072ZM21.6196 133L19.2556 126.64H20.3476L22.4476 132.4H21.9316L24.1156 126.64H25.0876L27.2236 132.4H26.7196L28.8676 126.64H29.8996L27.5236 133H26.4196L24.4156 127.744H24.7516L22.7236 133H21.6196ZM30.8186 133V126.64H31.9706V133H30.8186ZM31.3946 125.416C31.1706 125.416 30.9826 125.344 30.8306 125.2C30.6866 125.056 30.6146 124.88 30.6146 124.672C30.6146 124.456 30.6866 124.276 30.8306 124.132C30.9826 123.988 31.1706 123.916 31.3946 123.916C31.6186 123.916 31.8026 123.988 31.9466 124.132C32.0986 124.268 32.1746 124.44 32.1746 124.648C32.1746 124.864 32.1026 125.048 31.9586 125.2C31.8146 125.344 31.6266 125.416 31.3946 125.416ZM33.9201 133V124.096H35.0721V133H33.9201ZM37.0217 133V124.096H38.1737V133H37.0217ZM40.1233 133V126.64H41.2753V133H40.1233ZM40.6993 125.416C40.4753 125.416 40.2873 125.344 40.1353 125.2C39.9913 125.056 39.9193 124.88 39.9193 124.672C39.9193 124.456 39.9913 124.276 40.1353 124.132C40.2873 123.988 40.4753 123.916 40.6993 123.916C40.9233 123.916 41.1073 123.988 41.2513 124.132C41.4033 124.268 41.4793 124.44 41.4793 124.648C41.4793 124.864 41.4073 125.048 41.2633 125.2C41.1193 125.344 40.9313 125.416 40.6993 125.416ZM46.6208 126.58C47.1408 126.58 47.5968 126.68 47.9888 126.88C48.3888 127.08 48.7008 127.384 48.9248 127.792C49.1488 128.2 49.2608 128.716 49.2608 129.34V133H48.1088V129.472C48.1088 128.856 47.9568 128.392 47.6528 128.08C47.3568 127.768 46.9368 127.612 46.3928 127.612C45.9848 127.612 45.6288 127.692 45.3248 127.852C45.0208 128.012 44.7848 128.248 44.6168 128.56C44.4568 128.872 44.3768 129.26 44.3768 129.724V133H43.2248V126.64H44.3288V128.356L44.1488 127.9C44.3568 127.484 44.6768 127.16 45.1088 126.928C45.5408 126.696 46.0448 126.58 46.6208 126.58ZM53.9268 135.4C53.3428 135.4 52.7748 135.316 52.2228 135.148C51.6788 134.988 51.2348 134.756 50.8908 134.452L51.4428 133.564C51.7388 133.82 52.1028 134.02 52.5348 134.164C52.9668 134.316 53.4188 134.392 53.8908 134.392C54.6428 134.392 55.1948 134.216 55.5468 133.864C55.8988 133.512 56.0748 132.976 56.0748 132.256V130.912L56.1948 129.652L56.1348 128.38V126.64H57.2268V132.136C57.2268 133.256 56.9468 134.08 56.3868 134.608C55.8268 135.136 55.0068 135.4 53.9268 135.4ZM53.7828 132.736C53.1668 132.736 52.6148 132.608 52.1268 132.352C51.6468 132.088 51.2628 131.724 50.9748 131.26C50.6948 130.796 50.5548 130.26 50.5548 129.652C50.5548 129.036 50.6948 128.5 50.9748 128.044C51.2628 127.58 51.6468 127.22 52.1268 126.964C52.6148 126.708 53.1668 126.58 53.7828 126.58C54.3268 126.58 54.8228 126.692 55.2708 126.916C55.7188 127.132 56.0748 127.468 56.3388 127.924C56.6108 128.38 56.7468 128.956 56.7468 129.652C56.7468 130.34 56.6108 130.912 56.3388 131.368C56.0748 131.824 55.7188 132.168 55.2708 132.4C54.8228 132.624 54.3268 132.736 53.7828 132.736ZM53.9148 131.728C54.3388 131.728 54.7148 131.64 55.0428 131.464C55.3708 131.288 55.6268 131.044 55.8108 130.732C56.0028 130.42 56.0988 130.06 56.0988 129.652C56.0988 129.244 56.0028 128.884 55.8108 128.572C55.6268 128.26 55.3708 128.02 55.0428 127.852C54.7148 127.676 54.3388 127.588 53.9148 127.588C53.4908 127.588 53.1108 127.676 52.7748 127.852C52.4468 128.02 52.1868 128.26 51.9948 128.572C51.8108 128.884 51.7188 129.244 51.7188 129.652C51.7188 130.06 51.8108 130.42 51.9948 130.732C52.1868 131.044 52.4468 131.288 52.7748 131.464C53.1108 131.64 53.4908 131.728 53.9148 131.728ZM62.5739 126.58C63.0939 126.58 63.5499 126.68 63.9419 126.88C64.3419 127.08 64.6539 127.384 64.8779 127.792C65.1019 128.2 65.2139 128.716 65.2139 129.34V133H64.0619V129.472C64.0619 128.856 63.9099 128.392 63.6059 128.08C63.3099 127.768 62.8899 127.612 62.3459 127.612C61.9379 127.612 61.5819 127.692 61.2779 127.852C60.9739 128.012 60.7379 128.248 60.5699 128.56C60.4099 128.872 60.3299 129.26 60.3299 129.724V133H59.1779V126.64H60.2819V128.356L60.1019 127.9C60.3099 127.484 60.6299 127.16 61.0619 126.928C61.4939 126.696 61.9979 126.58 62.5739 126.58ZM69.9279 133.072C69.2479 133.072 68.6479 132.932 68.1279 132.652C67.6159 132.372 67.2159 131.988 66.9279 131.5C66.6479 131.012 66.5079 130.452 66.5079 129.82C66.5079 129.188 66.6439 128.628 66.9159 128.14C67.1959 127.652 67.5759 127.272 68.0559 127C68.5439 126.72 69.0919 126.58 69.6999 126.58C70.3159 126.58 70.8599 126.716 71.3319 126.988C71.8039 127.26 72.1719 127.644 72.4359 128.14C72.7079 128.628 72.8439 129.2 72.8439 129.856C72.8439 129.904 72.8399 129.96 72.8319 130.024C72.8319 130.088 72.8279 130.148 72.8199 130.204H67.4079V129.376H72.2199L71.7519 129.664C71.7599 129.256 71.6759 128.892 71.4999 128.572C71.3239 128.252 71.0799 128.004 70.7679 127.828C70.4639 127.644 70.1079 127.552 69.6999 127.552C69.2999 127.552 68.9439 127.644 68.6319 127.828C68.3199 128.004 68.0759 128.256 67.8999 128.584C67.7239 128.904 67.6359 129.272 67.6359 129.688V129.88C67.6359 130.304 67.7319 130.684 67.9239 131.02C68.1239 131.348 68.3999 131.604 68.7519 131.788C69.1039 131.972 69.5079 132.064 69.9639 132.064C70.3399 132.064 70.6799 132 70.9839 131.872C71.2959 131.744 71.5679 131.552 71.7999 131.296L72.4359 132.04C72.1479 132.376 71.7879 132.632 71.3559 132.808C70.9319 132.984 70.4559 133.072 69.9279 133.072ZM76.0176 133.072C75.4896 133.072 74.9856 133 74.5056 132.856C74.0336 132.712 73.6616 132.536 73.3896 132.328L73.8696 131.416C74.1416 131.6 74.4776 131.756 74.8776 131.884C75.2776 132.012 75.6856 132.076 76.1016 132.076C76.6376 132.076 77.0216 132 77.2536 131.848C77.4936 131.696 77.6136 131.484 77.6136 131.212C77.6136 131.012 77.5416 130.856 77.3976 130.744C77.2536 130.632 77.0616 130.548 76.8216 130.492C76.5896 130.436 76.3296 130.388 76.0416 130.348C75.7536 130.3 75.4656 130.244 75.1776 130.18C74.8896 130.108 74.6256 130.012 74.3856 129.892C74.1456 129.764 73.9536 129.592 73.8096 129.376C73.6656 129.152 73.5936 128.856 73.5936 128.488C73.5936 128.104 73.7016 127.768 73.9176 127.48C74.1336 127.192 74.4376 126.972 74.8296 126.82C75.2296 126.66 75.7016 126.58 76.2456 126.58C76.6616 126.58 77.0816 126.632 77.5056 126.736C77.9376 126.832 78.2896 126.972 78.5616 127.156L78.0696 128.068C77.7816 127.876 77.4816 127.744 77.1696 127.672C76.8576 127.6 76.5456 127.564 76.2336 127.564C75.7296 127.564 75.3536 127.648 75.1056 127.816C74.8576 127.976 74.7336 128.184 74.7336 128.44C74.7336 128.656 74.8056 128.824 74.9496 128.944C75.1016 129.056 75.2936 129.144 75.5256 129.208C75.7656 129.272 76.0296 129.328 76.3176 129.376C76.6056 129.416 76.8936 129.472 77.1816 129.544C77.4696 129.608 77.7296 129.7 77.9616 129.82C78.2016 129.94 78.3936 130.108 78.5376 130.324C78.6896 130.54 78.7656 130.828 78.7656 131.188C78.7656 131.572 78.6536 131.904 78.4296 132.184C78.2056 132.464 77.8896 132.684 77.4816 132.844C77.0736 132.996 76.5856 133.072 76.0176 133.072ZM81.7793 133.072C81.2513 133.072 80.7473 133 80.2673 132.856C79.7953 132.712 79.4233 132.536 79.1513 132.328L79.6313 131.416C79.9033 131.6 80.2393 131.756 80.6393 131.884C81.0393 132.012 81.4473 132.076 81.8633 132.076C82.3993 132.076 82.7833 132 83.0153 131.848C83.2553 131.696 83.3753 131.484 83.3753 131.212C83.3753 131.012 83.3033 130.856 83.1593 130.744C83.0153 130.632 82.8233 130.548 82.5833 130.492C82.3513 130.436 82.0913 130.388 81.8033 130.348C81.5153 130.3 81.2273 130.244 80.9393 130.18C80.6513 130.108 80.3873 130.012 80.1473 129.892C79.9073 129.764 79.7153 129.592 79.5713 129.376C79.4273 129.152 79.3553 128.856 79.3553 128.488C79.3553 128.104 79.4633 127.768 79.6793 127.48C79.8953 127.192 80.1993 126.972 80.5913 126.82C80.9913 126.66 81.4633 126.58 82.0073 126.58C82.4233 126.58 82.8433 126.632 83.2673 126.736C83.6993 126.832 84.0513 126.972 84.3233 127.156L83.8313 128.068C83.5433 127.876 83.2433 127.744 82.9313 127.672C82.6193 127.6 82.3073 127.564 81.9953 127.564C81.4913 127.564 81.1153 127.648 80.8673 127.816C80.6193 127.976 80.4953 128.184 80.4953 128.44C80.4953 128.656 80.5673 128.824 80.7113 128.944C80.8633 129.056 81.0553 129.144 81.2873 129.208C81.5273 129.272 81.7913 129.328 82.0793 129.376C82.3673 129.416 82.6553 129.472 82.9433 129.544C83.2313 129.608 83.4913 129.7 83.7233 129.82C83.9633 129.94 84.1553 130.108 84.2993 130.324C84.4513 130.54 84.5273 130.828 84.5273 131.188C84.5273 131.572 84.4153 131.904 84.1913 132.184C83.9673 132.464 83.6513 132.684 83.2433 132.844C82.8353 132.996 82.3473 133.072 81.7793 133.072ZM87.2617 134.2L91.2217 122.896H92.2657L88.3057 134.2H87.2617ZM17.2242 147.072C16.5842 147.072 16.0162 146.932 15.5202 146.652C15.0242 146.372 14.6322 145.988 14.3442 145.5C14.0562 145.004 13.9122 144.444 13.9122 143.82C13.9122 143.188 14.0562 142.628 14.3442 142.14C14.6322 141.652 15.0242 141.272 15.5202 141C16.0162 140.72 16.5842 140.58 17.2242 140.58C17.8562 140.58 18.4202 140.72 18.9162 141C19.4202 141.272 19.8122 141.652 20.0922 142.14C20.3802 142.62 20.5242 143.18 20.5242 143.82C20.5242 144.452 20.3802 145.012 20.0922 145.5C19.8122 145.988 19.4202 146.372 18.9162 146.652C18.4202 146.932 17.8562 147.072 17.2242 147.072ZM17.2242 146.064C17.6322 146.064 17.9962 145.972 18.3162 145.788C18.6442 145.604 18.9002 145.344 19.0842 145.008C19.2682 144.664 19.3602 144.268 19.3602 143.82C19.3602 143.364 19.2682 142.972 19.0842 142.644C18.9002 142.308 18.6442 142.048 18.3162 141.864C17.9962 141.68 17.6322 141.588 17.2242 141.588C16.8162 141.588 16.4522 141.68 16.1322 141.864C15.8122 142.048 15.5562 142.308 15.3642 142.644C15.1722 142.972 15.0762 143.364 15.0762 143.82C15.0762 144.268 15.1722 144.664 15.3642 145.008C15.5562 145.344 15.8122 145.604 16.1322 145.788C16.4522 145.972 16.8162 146.064 17.2242 146.064ZM21.8674 147V140.64H22.9714V142.368L22.8634 141.936C23.0394 141.496 23.3354 141.16 23.7514 140.928C24.1674 140.696 24.6794 140.58 25.2874 140.58V141.696C25.2394 141.688 25.1914 141.684 25.1434 141.684C25.1034 141.684 25.0634 141.684 25.0234 141.684C24.4074 141.684 23.9194 141.868 23.5594 142.236C23.1994 142.604 23.0194 143.136 23.0194 143.832V147H21.8674ZM29.1826 149.4C28.5986 149.4 28.0306 149.316 27.4786 149.148C26.9346 148.988 26.4906 148.756 26.1466 148.452L26.6986 147.564C26.9946 147.82 27.3586 148.02 27.7906 148.164C28.2226 148.316 28.6746 148.392 29.1466 148.392C29.8986 148.392 30.4506 148.216 30.8026 147.864C31.1546 147.512 31.3306 146.976 31.3306 146.256V144.912L31.4506 143.652L31.3906 142.38V140.64H32.4826V146.136C32.4826 147.256 32.2026 148.08 31.6426 148.608C31.0826 149.136 30.2626 149.4 29.1826 149.4ZM29.0386 146.736C28.4226 146.736 27.8706 146.608 27.3826 146.352C26.9026 146.088 26.5186 145.724 26.2306 145.26C25.9506 144.796 25.8106 144.26 25.8106 143.652C25.8106 143.036 25.9506 142.5 26.2306 142.044C26.5186 141.58 26.9026 141.22 27.3826 140.964C27.8706 140.708 28.4226 140.58 29.0386 140.58C29.5826 140.58 30.0786 140.692 30.5266 140.916C30.9746 141.132 31.3306 141.468 31.5946 141.924C31.8666 142.38 32.0026 142.956 32.0026 143.652C32.0026 144.34 31.8666 144.912 31.5946 145.368C31.3306 145.824 30.9746 146.168 30.5266 146.4C30.0786 146.624 29.5826 146.736 29.0386 146.736ZM29.1706 145.728C29.5946 145.728 29.9706 145.64 30.2986 145.464C30.6266 145.288 30.8826 145.044 31.0666 144.732C31.2586 144.42 31.3546 144.06 31.3546 143.652C31.3546 143.244 31.2586 142.884 31.0666 142.572C30.8826 142.26 30.6266 142.02 30.2986 141.852C29.9706 141.676 29.5946 141.588 29.1706 141.588C28.7466 141.588 28.3666 141.676 28.0306 141.852C27.7026 142.02 27.4426 142.26 27.2506 142.572C27.0666 142.884 26.9746 143.244 26.9746 143.652C26.9746 144.06 27.0666 144.42 27.2506 144.732C27.4426 145.044 27.7026 145.288 28.0306 145.464C28.3666 145.64 28.7466 145.728 29.1706 145.728ZM38.3818 147V145.656L38.3218 145.404V143.112C38.3218 142.624 38.1778 142.248 37.8898 141.984C37.6098 141.712 37.1858 141.576 36.6178 141.576C36.2418 141.576 35.8738 141.64 35.5138 141.768C35.1538 141.888 34.8498 142.052 34.6018 142.26L34.1218 141.396C34.4498 141.132 34.8418 140.932 35.2978 140.796C35.7618 140.652 36.2458 140.58 36.7498 140.58C37.6218 140.58 38.2938 140.792 38.7658 141.216C39.2378 141.64 39.4738 142.288 39.4738 143.16V147H38.3818ZM36.2938 147.072C35.8218 147.072 35.4058 146.992 35.0458 146.832C34.6938 146.672 34.4218 146.452 34.2298 146.172C34.0378 145.884 33.9418 145.56 33.9418 145.2C33.9418 144.856 34.0218 144.544 34.1818 144.264C34.3498 143.984 34.6178 143.76 34.9858 143.592C35.3618 143.424 35.8658 143.34 36.4978 143.34H38.5138V144.168H36.5458C35.9698 144.168 35.5818 144.264 35.3818 144.456C35.1818 144.648 35.0818 144.88 35.0818 145.152C35.0818 145.464 35.2058 145.716 35.4538 145.908C35.7018 146.092 36.0458 146.184 36.4858 146.184C36.9178 146.184 37.2938 146.088 37.6138 145.896C37.9418 145.704 38.1778 145.424 38.3218 145.056L38.5498 145.848C38.3978 146.224 38.1298 146.524 37.7458 146.748C37.3618 146.964 36.8778 147.072 36.2938 147.072ZM44.7517 140.58C45.2717 140.58 45.7277 140.68 46.1197 140.88C46.5197 141.08 46.8317 141.384 47.0557 141.792C47.2797 142.2 47.3917 142.716 47.3917 143.34V147H46.2397V143.472C46.2397 142.856 46.0877 142.392 45.7837 142.08C45.4877 141.768 45.0677 141.612 44.5237 141.612C44.1157 141.612 43.7597 141.692 43.4557 141.852C43.1517 142.012 42.9157 142.248 42.7477 142.56C42.5877 142.872 42.5077 143.26 42.5077 143.724V147H41.3557V140.64H42.4597V142.356L42.2797 141.9C42.4877 141.484 42.8077 141.16 43.2397 140.928C43.6717 140.696 44.1757 140.58 44.7517 140.58ZM49.2736 147V140.64H50.4256V147H49.2736ZM49.8496 139.416C49.6256 139.416 49.4376 139.344 49.2856 139.2C49.1416 139.056 49.0696 138.88 49.0696 138.672C49.0696 138.456 49.1416 138.276 49.2856 138.132C49.4376 137.988 49.6256 137.916 49.8496 137.916C50.0736 137.916 50.2576 137.988 50.4016 138.132C50.5536 138.268 50.6296 138.44 50.6296 138.648C50.6296 138.864 50.5576 139.048 50.4136 139.2C50.2696 139.344 50.0816 139.416 49.8496 139.416ZM51.7632 147V146.256L55.8432 141.192L56.0712 141.588H51.8352V140.64H56.9952V141.396L52.9152 146.448L52.6512 146.052H57.0912V147H51.7632ZM62.331 147V145.656L62.271 145.404V143.112C62.271 142.624 62.127 142.248 61.839 141.984C61.559 141.712 61.135 141.576 60.567 141.576C60.191 141.576 59.823 141.64 59.463 141.768C59.103 141.888 58.799 142.052 58.551 142.26L58.071 141.396C58.399 141.132 58.791 140.932 59.247 140.796C59.711 140.652 60.195 140.58 60.699 140.58C61.571 140.58 62.243 140.792 62.715 141.216C63.187 141.64 63.423 142.288 63.423 143.16V147H62.331ZM60.243 147.072C59.771 147.072 59.355 146.992 58.995 146.832C58.643 146.672 58.371 146.452 58.179 146.172C57.987 145.884 57.891 145.56 57.891 145.2C57.891 144.856 57.971 144.544 58.131 144.264C58.299 143.984 58.567 143.76 58.935 143.592C59.311 143.424 59.815 143.34 60.447 143.34H62.463V144.168H60.495C59.919 144.168 59.531 144.264 59.331 144.456C59.131 144.648 59.031 144.88 59.031 145.152C59.031 145.464 59.155 145.716 59.403 145.908C59.651 146.092 59.995 146.184 60.435 146.184C60.867 146.184 61.243 146.088 61.563 145.896C61.891 145.704 62.127 145.424 62.271 145.056L62.499 145.848C62.347 146.224 62.079 146.524 61.695 146.748C61.311 146.964 60.827 147.072 60.243 147.072ZM67.4889 147.072C66.8489 147.072 66.3529 146.9 66.0009 146.556C65.6489 146.212 65.4729 145.72 65.4729 145.08V139.248H66.6249V145.032C66.6249 145.376 66.7089 145.64 66.8769 145.824C67.0529 146.008 67.3009 146.1 67.6209 146.1C67.9809 146.1 68.2809 146 68.5209 145.8L68.8809 146.628C68.7049 146.78 68.4929 146.892 68.2449 146.964C68.0049 147.036 67.7529 147.072 67.4889 147.072ZM64.3929 141.588V140.64H68.4489V141.588H64.3929ZM70.0236 147V140.64H71.1756V147H70.0236ZM70.5996 139.416C70.3756 139.416 70.1876 139.344 70.0356 139.2C69.8916 139.056 69.8196 138.88 69.8196 138.672C69.8196 138.456 69.8916 138.276 70.0356 138.132C70.1876 137.988 70.3756 137.916 70.5996 137.916C70.8236 137.916 71.0076 137.988 71.1516 138.132C71.3036 138.268 71.3796 138.44 71.3796 138.648C71.3796 138.864 71.3076 139.048 71.1636 139.2C71.0196 139.344 70.8316 139.416 70.5996 139.416ZM75.8492 147.072C75.2092 147.072 74.6412 146.932 74.1452 146.652C73.6492 146.372 73.2572 145.988 72.9692 145.5C72.6812 145.004 72.5372 144.444 72.5372 143.82C72.5372 143.188 72.6812 142.628 72.9692 142.14C73.2572 141.652 73.6492 141.272 74.1452 141C74.6412 140.72 75.2092 140.58 75.8492 140.58C76.4812 140.58 77.0452 140.72 77.5412 141C78.0452 141.272 78.4372 141.652 78.7172 142.14C79.0052 142.62 79.1492 143.18 79.1492 143.82C79.1492 144.452 79.0052 145.012 78.7172 145.5C78.4372 145.988 78.0452 146.372 77.5412 146.652C77.0452 146.932 76.4812 147.072 75.8492 147.072ZM75.8492 146.064C76.2572 146.064 76.6212 145.972 76.9412 145.788C77.2692 145.604 77.5252 145.344 77.7092 145.008C77.8932 144.664 77.9852 144.268 77.9852 143.82C77.9852 143.364 77.8932 142.972 77.7092 142.644C77.5252 142.308 77.2692 142.048 76.9412 141.864C76.6212 141.68 76.2572 141.588 75.8492 141.588C75.4412 141.588 75.0772 141.68 74.7572 141.864C74.4372 142.048 74.1812 142.308 73.9892 142.644C73.7972 142.972 73.7012 143.364 73.7012 143.82C73.7012 144.268 73.7972 144.664 73.9892 145.008C74.1812 145.344 74.4372 145.604 74.7572 145.788C75.0772 145.972 75.4412 146.064 75.8492 146.064ZM83.8884 140.58C84.4084 140.58 84.8644 140.68 85.2564 140.88C85.6564 141.08 85.9684 141.384 86.1924 141.792C86.4164 142.2 86.5284 142.716 86.5284 143.34V147H85.3764V143.472C85.3764 142.856 85.2244 142.392 84.9204 142.08C84.6244 141.768 84.2044 141.612 83.6604 141.612C83.2524 141.612 82.8964 141.692 82.5924 141.852C82.2884 142.012 82.0524 142.248 81.8844 142.56C81.7244 142.872 81.6444 143.26 81.6444 143.724V147H80.4924V140.64H81.5964V142.356L81.4164 141.9C81.6244 141.484 81.9444 141.16 82.3764 140.928C82.8084 140.696 83.3124 140.58 83.8884 140.58ZM92.3584 147V145.656L92.2984 145.404V143.112C92.2984 142.624 92.1544 142.248 91.8664 141.984C91.5864 141.712 91.1624 141.576 90.5944 141.576C90.2184 141.576 89.8504 141.64 89.4904 141.768C89.1304 141.888 88.8264 142.052 88.5784 142.26L88.0984 141.396C88.4264 141.132 88.8184 140.932 89.2744 140.796C89.7384 140.652 90.2224 140.58 90.7264 140.58C91.5984 140.58 92.2704 140.792 92.7424 141.216C93.2144 141.64 93.4504 142.288 93.4504 143.16V147H92.3584ZM90.2704 147.072C89.7984 147.072 89.3824 146.992 89.0224 146.832C88.6704 146.672 88.3984 146.452 88.2064 146.172C88.0144 145.884 87.9184 145.56 87.9184 145.2C87.9184 144.856 87.9984 144.544 88.1584 144.264C88.3264 143.984 88.5944 143.76 88.9624 143.592C89.3384 143.424 89.8424 143.34 90.4744 143.34H92.4904V144.168H90.5224C89.9464 144.168 89.5584 144.264 89.3584 144.456C89.1584 144.648 89.0584 144.88 89.0584 145.152C89.0584 145.464 89.1824 145.716 89.4304 145.908C89.6784 146.092 90.0224 146.184 90.4624 146.184C90.8944 146.184 91.2704 146.088 91.5904 145.896C91.9184 145.704 92.1544 145.424 92.2984 145.056L92.5264 145.848C92.3744 146.224 92.1064 146.524 91.7224 146.748C91.3384 146.964 90.8544 147.072 90.2704 147.072ZM95.3322 147V138.096H96.4842V147H95.3322ZM38.2585 161.072C37.6105 161.072 37.0305 160.932 36.5185 160.652C36.0145 160.372 35.6185 159.988 35.3305 159.5C35.0425 159.012 34.8985 158.452 34.8985 157.82C34.8985 157.188 35.0425 156.628 35.3305 156.14C35.6185 155.652 36.0145 155.272 36.5185 155C37.0305 154.72 37.6105 154.58 38.2585 154.58C38.8345 154.58 39.3465 154.696 39.7945 154.928C40.2505 155.152 40.6025 155.488 40.8505 155.936L39.9745 156.5C39.7665 156.188 39.5105 155.96 39.2065 155.816C38.9105 155.664 38.5905 155.588 38.2465 155.588C37.8305 155.588 37.4585 155.68 37.1305 155.864C36.8025 156.048 36.5425 156.308 36.3505 156.644C36.1585 156.972 36.0625 157.364 36.0625 157.82C36.0625 158.276 36.1585 158.672 36.3505 159.008C36.5425 159.344 36.8025 159.604 37.1305 159.788C37.4585 159.972 37.8305 160.064 38.2465 160.064C38.5905 160.064 38.9105 159.992 39.2065 159.848C39.5105 159.696 39.7665 159.464 39.9745 159.152L40.8505 159.704C40.6025 160.144 40.2505 160.484 39.7945 160.724C39.3465 160.956 38.8345 161.072 38.2585 161.072ZM44.768 161.072C44.224 161.072 43.744 160.972 43.328 160.772C42.92 160.572 42.6 160.268 42.368 159.86C42.144 159.444 42.032 158.924 42.032 158.3V154.64H43.184V158.168C43.184 158.792 43.332 159.26 43.628 159.572C43.932 159.884 44.356 160.04 44.9 160.04C45.3 160.04 45.648 159.96 45.944 159.8C46.24 159.632 46.468 159.392 46.628 159.08C46.788 158.76 46.868 158.376 46.868 157.928V154.64H48.02V161H46.928V159.284L47.108 159.74C46.9 160.164 46.588 160.492 46.172 160.724C45.756 160.956 45.288 161.072 44.768 161.072ZM49.9631 161V152.096H51.1151V161H49.9631ZM55.4127 161.072C54.7727 161.072 54.2767 160.9 53.9247 160.556C53.5727 160.212 53.3967 159.72 53.3967 159.08V153.248H54.5487V159.032C54.5487 159.376 54.6327 159.64 54.8007 159.824C54.9767 160.008 55.2247 160.1 55.5447 160.1C55.9047 160.1 56.2047 160 56.4447 159.8L56.8047 160.628C56.6287 160.78 56.4167 160.892 56.1687 160.964C55.9287 161.036 55.6767 161.072 55.4127 161.072ZM52.3167 155.588V154.64H56.3727V155.588H52.3167ZM60.6235 161.072C60.0795 161.072 59.5995 160.972 59.1835 160.772C58.7755 160.572 58.4555 160.268 58.2235 159.86C57.9995 159.444 57.8875 158.924 57.8875 158.3V154.64H59.0395V158.168C59.0395 158.792 59.1875 159.26 59.4835 159.572C59.7875 159.884 60.2115 160.04 60.7555 160.04C61.1555 160.04 61.5035 159.96 61.7995 159.8C62.0955 159.632 62.3235 159.392 62.4835 159.08C62.6435 158.76 62.7235 158.376 62.7235 157.928V154.64H63.8755V161H62.7835V159.284L62.9635 159.74C62.7555 160.164 62.4435 160.492 62.0275 160.724C61.6115 160.956 61.1435 161.072 60.6235 161.072ZM65.8186 161V154.64H66.9226V156.368L66.8146 155.936C66.9906 155.496 67.2866 155.16 67.7026 154.928C68.1186 154.696 68.6306 154.58 69.2386 154.58V155.696C69.1906 155.688 69.1426 155.684 69.0946 155.684C69.0546 155.684 69.0146 155.684 68.9746 155.684C68.3586 155.684 67.8706 155.868 67.5106 156.236C67.1506 156.604 66.9706 157.136 66.9706 157.832V161H65.8186ZM73.1818 161.072C72.5018 161.072 71.9018 160.932 71.3818 160.652C70.8698 160.372 70.4698 159.988 70.1818 159.5C69.9018 159.012 69.7618 158.452 69.7618 157.82C69.7618 157.188 69.8978 156.628 70.1698 156.14C70.4498 155.652 70.8298 155.272 71.3098 155C71.7978 154.72 72.3458 154.58 72.9538 154.58C73.5698 154.58 74.1138 154.716 74.5858 154.988C75.0578 155.26 75.4258 155.644 75.6898 156.14C75.9618 156.628 76.0978 157.2 76.0978 157.856C76.0978 157.904 76.0938 157.96 76.0858 158.024C76.0858 158.088 76.0818 158.148 76.0738 158.204H70.6618V157.376H75.4738L75.0058 157.664C75.0138 157.256 74.9298 156.892 74.7538 156.572C74.5778 156.252 74.3338 156.004 74.0218 155.828C73.7178 155.644 73.3618 155.552 72.9538 155.552C72.5538 155.552 72.1978 155.644 71.8858 155.828C71.5738 156.004 71.3298 156.256 71.1538 156.584C70.9778 156.904 70.8898 157.272 70.8898 157.688V157.88C70.8898 158.304 70.9858 158.684 71.1778 159.02C71.3778 159.348 71.6538 159.604 72.0058 159.788C72.3578 159.972 72.7618 160.064 73.2178 160.064C73.5938 160.064 73.9338 160 74.2378 159.872C74.5498 159.744 74.8218 159.552 75.0538 159.296L75.6898 160.04C75.4018 160.376 75.0418 160.632 74.6098 160.808C74.1858 160.984 73.7098 161.072 73.1818 161.072Z" fill="#222222"/>
<circle cx="272" cy="136" r="47" fill="white"/>
<circle cx="272" cy="136" r="45.5" stroke="#7094F0" stroke-opacity="0.3" stroke-width="3"/>
<path d="M247.425 133.096C246.785 133.096 246.189 132.988 245.637 132.772C245.093 132.556 244.621 132.256 244.221 131.872C243.821 131.48 243.509 131.024 243.285 130.504C243.061 129.984 242.949 129.416 242.949 128.8C242.949 128.184 243.061 127.616 243.285 127.096C243.509 126.576 243.821 126.124 244.221 125.74C244.621 125.348 245.093 125.044 245.637 124.828C246.181 124.612 246.777 124.504 247.425 124.504C248.065 124.504 248.653 124.612 249.189 124.828C249.733 125.036 250.205 125.336 250.605 125.728C251.013 126.112 251.325 126.564 251.541 127.084C251.765 127.604 251.877 128.176 251.877 128.8C251.877 129.424 251.765 129.996 251.541 130.516C251.325 131.036 251.013 131.492 250.605 131.884C250.205 132.268 249.733 132.568 249.189 132.784C248.653 132.992 248.065 133.096 247.425 133.096ZM247.425 132.028C247.889 132.028 248.317 131.948 248.709 131.788C249.109 131.628 249.453 131.404 249.741 131.116C250.037 130.82 250.265 130.476 250.425 130.084C250.593 129.692 250.677 129.264 250.677 128.8C250.677 128.336 250.593 127.908 250.425 127.516C250.265 127.124 250.037 126.784 249.741 126.496C249.453 126.2 249.109 125.972 248.709 125.812C248.317 125.652 247.889 125.572 247.425 125.572C246.953 125.572 246.517 125.652 246.117 125.812C245.725 125.972 245.381 126.2 245.085 126.496C244.789 126.784 244.557 127.124 244.389 127.516C244.229 127.908 244.149 128.336 244.149 128.8C244.149 129.264 244.229 129.692 244.389 130.084C244.557 130.476 244.789 130.82 245.085 131.116C245.381 131.404 245.725 131.628 246.117 131.788C246.517 131.948 246.953 132.028 247.425 132.028ZM256.665 133.072C256.137 133.072 255.653 132.952 255.213 132.712C254.781 132.464 254.433 132.1 254.169 131.62C253.913 131.14 253.785 130.54 253.785 129.82C253.785 129.1 253.909 128.5 254.157 128.02C254.413 127.54 254.757 127.18 255.189 126.94C255.629 126.7 256.121 126.58 256.665 126.58C257.289 126.58 257.841 126.716 258.321 126.988C258.801 127.26 259.181 127.64 259.461 128.128C259.741 128.608 259.881 129.172 259.881 129.82C259.881 130.468 259.741 131.036 259.461 131.524C259.181 132.012 258.801 132.392 258.321 132.664C257.841 132.936 257.289 133.072 256.665 133.072ZM253.293 135.328V126.64H254.397V128.356L254.325 129.832L254.445 131.308V135.328H253.293ZM256.569 132.064C256.977 132.064 257.341 131.972 257.661 131.788C257.989 131.604 258.245 131.344 258.429 131.008C258.621 130.664 258.717 130.268 258.717 129.82C258.717 129.364 258.621 128.972 258.429 128.644C258.245 128.308 257.989 128.048 257.661 127.864C257.341 127.68 256.977 127.588 256.569 127.588C256.169 127.588 255.805 127.68 255.477 127.864C255.157 128.048 254.901 128.308 254.709 128.644C254.525 128.972 254.433 129.364 254.433 129.82C254.433 130.268 254.525 130.664 254.709 131.008C254.901 131.344 255.157 131.604 255.477 131.788C255.805 131.972 256.169 132.064 256.569 132.064ZM264.055 133.072C263.375 133.072 262.775 132.932 262.255 132.652C261.743 132.372 261.343 131.988 261.055 131.5C260.775 131.012 260.635 130.452 260.635 129.82C260.635 129.188 260.771 128.628 261.043 128.14C261.323 127.652 261.703 127.272 262.183 127C262.671 126.72 263.219 126.58 263.827 126.58C264.443 126.58 264.987 126.716 265.459 126.988C265.931 127.26 266.299 127.644 266.563 128.14C266.835 128.628 266.971 129.2 266.971 129.856C266.971 129.904 266.967 129.96 266.959 130.024C266.959 130.088 266.955 130.148 266.947 130.204H261.535V129.376H266.347L265.879 129.664C265.887 129.256 265.803 128.892 265.627 128.572C265.451 128.252 265.207 128.004 264.895 127.828C264.591 127.644 264.235 127.552 263.827 127.552C263.427 127.552 263.071 127.644 262.759 127.828C262.447 128.004 262.203 128.256 262.027 128.584C261.851 128.904 261.763 129.272 261.763 129.688V129.88C261.763 130.304 261.859 130.684 262.051 131.02C262.251 131.348 262.527 131.604 262.879 131.788C263.231 131.972 263.635 132.064 264.091 132.064C264.467 132.064 264.807 132 265.111 131.872C265.423 131.744 265.695 131.552 265.927 131.296L266.563 132.04C266.275 132.376 265.915 132.632 265.483 132.808C265.059 132.984 264.583 133.072 264.055 133.072ZM268.321 133V126.64H269.425V128.368L269.317 127.936C269.493 127.496 269.789 127.16 270.205 126.928C270.621 126.696 271.133 126.58 271.741 126.58V127.696C271.693 127.688 271.645 127.684 271.597 127.684C271.557 127.684 271.517 127.684 271.477 127.684C270.861 127.684 270.373 127.868 270.013 128.236C269.653 128.604 269.473 129.136 269.473 129.832V133H268.321ZM276.39 133V131.656L276.33 131.404V129.112C276.33 128.624 276.186 128.248 275.898 127.984C275.618 127.712 275.194 127.576 274.626 127.576C274.25 127.576 273.882 127.64 273.522 127.768C273.162 127.888 272.858 128.052 272.61 128.26L272.13 127.396C272.458 127.132 272.85 126.932 273.306 126.796C273.77 126.652 274.254 126.58 274.758 126.58C275.63 126.58 276.302 126.792 276.774 127.216C277.246 127.64 277.482 128.288 277.482 129.16V133H276.39ZM274.302 133.072C273.83 133.072 273.414 132.992 273.054 132.832C272.702 132.672 272.43 132.452 272.238 132.172C272.046 131.884 271.95 131.56 271.95 131.2C271.95 130.856 272.03 130.544 272.19 130.264C272.358 129.984 272.626 129.76 272.994 129.592C273.37 129.424 273.874 129.34 274.506 129.34H276.522V130.168H274.554C273.978 130.168 273.59 130.264 273.39 130.456C273.19 130.648 273.09 130.88 273.09 131.152C273.09 131.464 273.214 131.716 273.462 131.908C273.71 132.092 274.054 132.184 274.494 132.184C274.926 132.184 275.302 132.088 275.622 131.896C275.95 131.704 276.186 131.424 276.33 131.056L276.558 131.848C276.406 132.224 276.138 132.524 275.754 132.748C275.37 132.964 274.886 133.072 274.302 133.072ZM281.547 133.072C280.907 133.072 280.411 132.9 280.059 132.556C279.707 132.212 279.531 131.72 279.531 131.08V125.248H280.683V131.032C280.683 131.376 280.767 131.64 280.935 131.824C281.111 132.008 281.359 132.1 281.679 132.1C282.039 132.1 282.339 132 282.579 131.8L282.939 132.628C282.763 132.78 282.551 132.892 282.303 132.964C282.063 133.036 281.811 133.072 281.547 133.072ZM278.451 127.588V126.64H282.507V127.588H278.451ZM284.082 133V126.64H285.234V133H284.082ZM284.658 125.416C284.434 125.416 284.246 125.344 284.094 125.2C283.95 125.056 283.878 124.88 283.878 124.672C283.878 124.456 283.95 124.276 284.094 124.132C284.246 123.988 284.434 123.916 284.658 123.916C284.882 123.916 285.066 123.988 285.21 124.132C285.362 124.268 285.438 124.44 285.438 124.648C285.438 124.864 285.366 125.048 285.222 125.2C285.078 125.344 284.89 125.416 284.658 125.416ZM289.908 133.072C289.268 133.072 288.7 132.932 288.204 132.652C287.708 132.372 287.316 131.988 287.028 131.5C286.74 131.004 286.596 130.444 286.596 129.82C286.596 129.188 286.74 128.628 287.028 128.14C287.316 127.652 287.708 127.272 288.204 127C288.7 126.72 289.268 126.58 289.908 126.58C290.54 126.58 291.104 126.72 291.6 127C292.104 127.272 292.496 127.652 292.776 128.14C293.064 128.62 293.208 129.18 293.208 129.82C293.208 130.452 293.064 131.012 292.776 131.5C292.496 131.988 292.104 132.372 291.6 132.652C291.104 132.932 290.54 133.072 289.908 133.072ZM289.908 132.064C290.316 132.064 290.68 131.972 291 131.788C291.328 131.604 291.584 131.344 291.768 131.008C291.952 130.664 292.044 130.268 292.044 129.82C292.044 129.364 291.952 128.972 291.768 128.644C291.584 128.308 291.328 128.048 291 127.864C290.68 127.68 290.316 127.588 289.908 127.588C289.5 127.588 289.136 127.68 288.816 127.864C288.496 128.048 288.24 128.308 288.048 128.644C287.856 128.972 287.76 129.364 287.76 129.82C287.76 130.268 287.856 130.664 288.048 131.008C288.24 131.344 288.496 131.604 288.816 131.788C289.136 131.972 289.5 132.064 289.908 132.064ZM297.947 126.58C298.467 126.58 298.923 126.68 299.315 126.88C299.715 127.08 300.027 127.384 300.251 127.792C300.475 128.2 300.587 128.716 300.587 129.34V133H299.435V129.472C299.435 128.856 299.283 128.392 298.979 128.08C298.683 127.768 298.263 127.612 297.719 127.612C297.311 127.612 296.955 127.692 296.651 127.852C296.347 128.012 296.111 128.248 295.943 128.56C295.783 128.872 295.703 129.26 295.703 129.724V133H294.551V126.64H295.655V128.356L295.475 127.9C295.683 127.484 296.003 127.16 296.435 126.928C296.867 126.696 297.371 126.58 297.947 126.58ZM245.594 147.072C245.066 147.072 244.562 147 244.082 146.856C243.61 146.712 243.238 146.536 242.966 146.328L243.446 145.416C243.718 145.6 244.054 145.756 244.454 145.884C244.854 146.012 245.262 146.076 245.678 146.076C246.214 146.076 246.598 146 246.83 145.848C247.07 145.696 247.19 145.484 247.19 145.212C247.19 145.012 247.118 144.856 246.974 144.744C246.83 144.632 246.638 144.548 246.398 144.492C246.166 144.436 245.906 144.388 245.618 144.348C245.33 144.3 245.042 144.244 244.754 144.18C244.466 144.108 244.202 144.012 243.962 143.892C243.722 143.764 243.53 143.592 243.386 143.376C243.242 143.152 243.17 142.856 243.17 142.488C243.17 142.104 243.278 141.768 243.494 141.48C243.71 141.192 244.014 140.972 244.406 140.82C244.806 140.66 245.278 140.58 245.822 140.58C246.238 140.58 246.658 140.632 247.082 140.736C247.514 140.832 247.866 140.972 248.138 141.156L247.646 142.068C247.358 141.876 247.058 141.744 246.746 141.672C246.434 141.6 246.122 141.564 245.81 141.564C245.306 141.564 244.93 141.648 244.682 141.816C244.434 141.976 244.31 142.184 244.31 142.44C244.31 142.656 244.382 142.824 244.526 142.944C244.678 143.056 244.87 143.144 245.102 143.208C245.342 143.272 245.606 143.328 245.894 143.376C246.182 143.416 246.47 143.472 246.758 143.544C247.046 143.608 247.306 143.7 247.538 143.82C247.778 143.94 247.97 144.108 248.114 144.324C248.266 144.54 248.342 144.828 248.342 145.188C248.342 145.572 248.23 145.904 248.006 146.184C247.782 146.464 247.466 146.684 247.058 146.844C246.65 146.996 246.162 147.072 245.594 147.072ZM251.715 147.072C251.075 147.072 250.579 146.9 250.227 146.556C249.875 146.212 249.699 145.72 249.699 145.08V139.248H250.851V145.032C250.851 145.376 250.935 145.64 251.103 145.824C251.279 146.008 251.527 146.1 251.847 146.1C252.207 146.1 252.507 146 252.747 145.8L253.107 146.628C252.931 146.78 252.719 146.892 252.471 146.964C252.231 147.036 251.979 147.072 251.715 147.072ZM248.619 141.588V140.64H252.675V141.588H248.619ZM258.198 147V145.656L258.138 145.404V143.112C258.138 142.624 257.994 142.248 257.706 141.984C257.426 141.712 257.002 141.576 256.434 141.576C256.058 141.576 255.69 141.64 255.33 141.768C254.97 141.888 254.666 142.052 254.418 142.26L253.938 141.396C254.266 141.132 254.658 140.932 255.114 140.796C255.578 140.652 256.062 140.58 256.566 140.58C257.438 140.58 258.11 140.792 258.582 141.216C259.054 141.64 259.29 142.288 259.29 143.16V147H258.198ZM256.11 147.072C255.638 147.072 255.222 146.992 254.862 146.832C254.51 146.672 254.238 146.452 254.046 146.172C253.854 145.884 253.758 145.56 253.758 145.2C253.758 144.856 253.838 144.544 253.998 144.264C254.166 143.984 254.434 143.76 254.802 143.592C255.178 143.424 255.682 143.34 256.314 143.34H258.33V144.168H256.362C255.786 144.168 255.398 144.264 255.198 144.456C254.998 144.648 254.898 144.88 254.898 145.152C254.898 145.464 255.022 145.716 255.27 145.908C255.518 146.092 255.862 146.184 256.302 146.184C256.734 146.184 257.11 146.088 257.43 145.896C257.758 145.704 257.994 145.424 258.138 145.056L258.366 145.848C258.214 146.224 257.946 146.524 257.562 146.748C257.178 146.964 256.694 147.072 256.11 147.072ZM264.568 140.58C265.088 140.58 265.544 140.68 265.936 140.88C266.336 141.08 266.648 141.384 266.872 141.792C267.096 142.2 267.208 142.716 267.208 143.34V147H266.056V143.472C266.056 142.856 265.904 142.392 265.6 142.08C265.304 141.768 264.884 141.612 264.34 141.612C263.932 141.612 263.576 141.692 263.272 141.852C262.968 142.012 262.732 142.248 262.564 142.56C262.404 142.872 262.324 143.26 262.324 143.724V147H261.172V140.64H262.276V142.356L262.096 141.9C262.304 141.484 262.624 141.16 263.056 140.928C263.488 140.696 263.992 140.58 264.568 140.58ZM271.718 147.072C271.102 147.072 270.55 146.936 270.062 146.664C269.582 146.392 269.202 146.012 268.922 145.524C268.642 145.036 268.502 144.468 268.502 143.82C268.502 143.172 268.642 142.608 268.922 142.128C269.202 141.64 269.582 141.26 270.062 140.988C270.55 140.716 271.102 140.58 271.718 140.58C272.254 140.58 272.738 140.7 273.17 140.94C273.602 141.18 273.946 141.54 274.202 142.02C274.466 142.5 274.598 143.1 274.598 143.82C274.598 144.54 274.47 145.14 274.214 145.62C273.966 146.1 273.626 146.464 273.194 146.712C272.762 146.952 272.27 147.072 271.718 147.072ZM271.814 146.064C272.214 146.064 272.574 145.972 272.894 145.788C273.222 145.604 273.478 145.344 273.662 145.008C273.854 144.664 273.95 144.268 273.95 143.82C273.95 143.364 273.854 142.972 273.662 142.644C273.478 142.308 273.222 142.048 272.894 141.864C272.574 141.68 272.214 141.588 271.814 141.588C271.406 141.588 271.042 141.68 270.722 141.864C270.402 142.048 270.146 142.308 269.954 142.644C269.762 142.972 269.666 143.364 269.666 143.82C269.666 144.268 269.762 144.664 269.954 145.008C270.146 145.344 270.402 145.604 270.722 145.788C271.042 145.972 271.406 146.064 271.814 146.064ZM273.986 147V145.284L274.058 143.808L273.938 142.332V138.096H275.09V147H273.986ZM280.968 147V145.656L280.908 145.404V143.112C280.908 142.624 280.764 142.248 280.476 141.984C280.196 141.712 279.772 141.576 279.204 141.576C278.828 141.576 278.46 141.64 278.1 141.768C277.74 141.888 277.436 142.052 277.188 142.26L276.708 141.396C277.036 141.132 277.428 140.932 277.884 140.796C278.348 140.652 278.832 140.58 279.336 140.58C280.208 140.58 280.88 140.792 281.352 141.216C281.824 141.64 282.06 142.288 282.06 143.16V147H280.968ZM278.88 147.072C278.408 147.072 277.992 146.992 277.632 146.832C277.28 146.672 277.008 146.452 276.816 146.172C276.624 145.884 276.528 145.56 276.528 145.2C276.528 144.856 276.608 144.544 276.768 144.264C276.936 143.984 277.204 143.76 277.572 143.592C277.948 143.424 278.452 143.34 279.084 143.34H281.1V144.168H279.132C278.556 144.168 278.168 144.264 277.968 144.456C277.768 144.648 277.668 144.88 277.668 145.152C277.668 145.464 277.792 145.716 278.04 145.908C278.288 146.092 278.632 146.184 279.072 146.184C279.504 146.184 279.88 146.088 280.2 145.896C280.528 145.704 280.764 145.424 280.908 145.056L281.136 145.848C280.984 146.224 280.716 146.524 280.332 146.748C279.948 146.964 279.464 147.072 278.88 147.072ZM283.942 147V140.64H285.046V142.368L284.938 141.936C285.114 141.496 285.41 141.16 285.826 140.928C286.242 140.696 286.754 140.58 287.362 140.58V141.696C287.314 141.688 287.266 141.684 287.218 141.684C287.178 141.684 287.138 141.684 287.098 141.684C286.482 141.684 285.994 141.868 285.634 142.236C285.274 142.604 285.094 143.136 285.094 143.832V147H283.942ZM291.101 147.072C290.485 147.072 289.933 146.936 289.445 146.664C288.965 146.392 288.585 146.012 288.305 145.524C288.025 145.036 287.885 144.468 287.885 143.82C287.885 143.172 288.025 142.608 288.305 142.128C288.585 141.64 288.965 141.26 289.445 140.988C289.933 140.716 290.485 140.58 291.101 140.58C291.637 140.58 292.121 140.7 292.553 140.94C292.985 141.18 293.329 141.54 293.585 142.02C293.849 142.5 293.981 143.1 293.981 143.82C293.981 144.54 293.853 145.14 293.597 145.62C293.349 146.1 293.009 146.464 292.577 146.712C292.145 146.952 291.653 147.072 291.101 147.072ZM291.197 146.064C291.597 146.064 291.957 145.972 292.277 145.788C292.605 145.604 292.861 145.344 293.045 145.008C293.237 144.664 293.333 144.268 293.333 143.82C293.333 143.364 293.237 142.972 293.045 142.644C292.861 142.308 292.605 142.048 292.277 141.864C291.957 141.68 291.597 141.588 291.197 141.588C290.789 141.588 290.425 141.68 290.105 141.864C289.785 142.048 289.529 142.308 289.337 142.644C289.145 142.972 289.049 143.364 289.049 143.82C289.049 144.268 289.145 144.664 289.337 145.008C289.529 145.344 289.785 145.604 290.105 145.788C290.425 145.972 290.789 146.064 291.197 146.064ZM293.369 147V145.284L293.441 143.808L293.321 142.332V138.096H294.473V147H293.369ZM298.227 147.072C297.699 147.072 297.195 147 296.715 146.856C296.243 146.712 295.871 146.536 295.599 146.328L296.079 145.416C296.351 145.6 296.687 145.756 297.087 145.884C297.487 146.012 297.895 146.076 298.311 146.076C298.847 146.076 299.231 146 299.463 145.848C299.703 145.696 299.823 145.484 299.823 145.212C299.823 145.012 299.751 144.856 299.607 144.744C299.463 144.632 299.271 144.548 299.031 144.492C298.799 144.436 298.539 144.388 298.251 144.348C297.963 144.3 297.675 144.244 297.387 144.18C297.099 144.108 296.835 144.012 296.595 143.892C296.355 143.764 296.163 143.592 296.019 143.376C295.875 143.152 295.803 142.856 295.803 142.488C295.803 142.104 295.911 141.768 296.127 141.48C296.343 141.192 296.647 140.972 297.039 140.82C297.439 140.66 297.911 140.58 298.455 140.58C298.871 140.58 299.291 140.632 299.715 140.736C300.147 140.832 300.499 140.972 300.771 141.156L300.279 142.068C299.991 141.876 299.691 141.744 299.379 141.672C299.067 141.6 298.755 141.564 298.443 141.564C297.939 141.564 297.563 141.648 297.315 141.816C297.067 141.976 296.943 142.184 296.943 142.44C296.943 142.656 297.015 142.824 297.159 142.944C297.311 143.056 297.503 143.144 297.735 143.208C297.975 143.272 298.239 143.328 298.527 143.376C298.815 143.416 299.103 143.472 299.391 143.544C299.679 143.608 299.939 143.7 300.171 143.82C300.411 143.94 300.603 144.108 300.747 144.324C300.899 144.54 300.975 144.828 300.975 145.188C300.975 145.572 300.863 145.904 300.639 146.184C300.415 146.464 300.099 146.684 299.691 146.844C299.283 146.996 298.795 147.072 298.227 147.072Z" fill="#222222"/>
<circle cx="99" cy="252" r="47" fill="white"/>
<circle cx="99" cy="252" r="45.5" stroke="#7094F0" stroke-opacity="0.3" stroke-width="3"/>
<path d="M79.956 257.096C79.316 257.096 78.704 257 78.12 256.808C77.536 256.608 77.076 256.352 76.74 256.04L77.184 255.104C77.504 255.384 77.912 255.616 78.408 255.8C78.904 255.984 79.42 256.076 79.956 256.076C80.444 256.076 80.84 256.02 81.144 255.908C81.448 255.796 81.672 255.644 81.816 255.452C81.96 255.252 82.032 255.028 82.032 254.78C82.032 254.492 81.936 254.26 81.744 254.084C81.56 253.908 81.316 253.768 81.012 253.664C80.716 253.552 80.388 253.456 80.028 253.376C79.668 253.296 79.304 253.204 78.936 253.1C78.576 252.988 78.244 252.848 77.94 252.68C77.644 252.512 77.404 252.288 77.22 252.008C77.036 251.72 76.944 251.352 76.944 250.904C76.944 250.472 77.056 250.076 77.28 249.716C77.512 249.348 77.864 249.056 78.336 248.84C78.816 248.616 79.424 248.504 80.16 248.504C80.648 248.504 81.132 248.568 81.612 248.696C82.092 248.824 82.508 249.008 82.86 249.248L82.464 250.208C82.104 249.968 81.724 249.796 81.324 249.692C80.924 249.58 80.536 249.524 80.16 249.524C79.688 249.524 79.3 249.584 78.996 249.704C78.692 249.824 78.468 249.984 78.324 250.184C78.188 250.384 78.12 250.608 78.12 250.856C78.12 251.152 78.212 251.388 78.396 251.564C78.588 251.74 78.832 251.88 79.128 251.984C79.432 252.088 79.764 252.184 80.124 252.272C80.484 252.352 80.844 252.444 81.204 252.548C81.572 252.652 81.904 252.788 82.2 252.956C82.504 253.124 82.748 253.348 82.932 253.628C83.116 253.908 83.208 254.268 83.208 254.708C83.208 255.132 83.092 255.528 82.86 255.896C82.628 256.256 82.268 256.548 81.78 256.772C81.3 256.988 80.692 257.096 79.956 257.096ZM84.702 259.4C84.398 259.4 84.102 259.348 83.814 259.244C83.526 259.148 83.278 259.004 83.07 258.812L83.562 257.948C83.722 258.1 83.898 258.216 84.09 258.296C84.282 258.376 84.486 258.416 84.702 258.416C84.982 258.416 85.214 258.344 85.398 258.2C85.582 258.056 85.754 257.8 85.914 257.432L86.31 256.556L86.43 256.412L88.926 250.64H90.054L86.97 257.636C86.786 258.084 86.578 258.436 86.346 258.692C86.122 258.948 85.874 259.128 85.602 259.232C85.33 259.344 85.03 259.4 84.702 259.4ZM86.214 257.204L83.31 250.64H84.51L86.982 256.304L86.214 257.204ZM92.6211 257.072C92.0931 257.072 91.5891 257 91.1091 256.856C90.6371 256.712 90.2651 256.536 89.9931 256.328L90.4731 255.416C90.7451 255.6 91.0811 255.756 91.4811 255.884C91.8811 256.012 92.2891 256.076 92.7051 256.076C93.2411 256.076 93.6251 256 93.8571 255.848C94.0971 255.696 94.2171 255.484 94.2171 255.212C94.2171 255.012 94.1451 254.856 94.0011 254.744C93.8571 254.632 93.6651 254.548 93.4251 254.492C93.1931 254.436 92.9331 254.388 92.6451 254.348C92.3571 254.3 92.0691 254.244 91.7811 254.18C91.4931 254.108 91.2291 254.012 90.9891 253.892C90.7491 253.764 90.5571 253.592 90.4131 253.376C90.2691 253.152 90.1971 252.856 90.1971 252.488C90.1971 252.104 90.3051 251.768 90.5211 251.48C90.7371 251.192 91.0411 250.972 91.4331 250.82C91.8331 250.66 92.3051 250.58 92.8491 250.58C93.2651 250.58 93.6851 250.632 94.1091 250.736C94.5411 250.832 94.8931 250.972 95.1651 251.156L94.6731 252.068C94.3851 251.876 94.0851 251.744 93.7731 251.672C93.4611 251.6 93.1491 251.564 92.8371 251.564C92.3331 251.564 91.9571 251.648 91.7091 251.816C91.4611 251.976 91.3371 252.184 91.3371 252.44C91.3371 252.656 91.4091 252.824 91.5531 252.944C91.7051 253.056 91.8971 253.144 92.1291 253.208C92.3691 253.272 92.6331 253.328 92.9211 253.376C93.2091 253.416 93.4971 253.472 93.7851 253.544C94.0731 253.608 94.3331 253.7 94.5651 253.82C94.8051 253.94 94.9971 254.108 95.1411 254.324C95.2931 254.54 95.3691 254.828 95.3691 255.188C95.3691 255.572 95.2571 255.904 95.0331 256.184C94.8091 256.464 94.4931 256.684 94.0851 256.844C93.6771 256.996 93.1891 257.072 92.6211 257.072ZM98.7428 257.072C98.1028 257.072 97.6068 256.9 97.2548 256.556C96.9028 256.212 96.7268 255.72 96.7268 255.08V249.248H97.8788V255.032C97.8788 255.376 97.9628 255.64 98.1308 255.824C98.3068 256.008 98.5548 256.1 98.8748 256.1C99.2348 256.1 99.5348 256 99.7748 255.8L100.135 256.628C99.9588 256.78 99.7468 256.892 99.4988 256.964C99.2588 257.036 99.0068 257.072 98.7428 257.072ZM95.6468 251.588V250.64H99.7028V251.588H95.6468ZM103.899 257.072C103.219 257.072 102.619 256.932 102.099 256.652C101.587 256.372 101.187 255.988 100.899 255.5C100.619 255.012 100.479 254.452 100.479 253.82C100.479 253.188 100.615 252.628 100.887 252.14C101.167 251.652 101.547 251.272 102.027 251C102.515 250.72 103.063 250.58 103.671 250.58C104.287 250.58 104.831 250.716 105.303 250.988C105.775 251.26 106.143 251.644 106.407 252.14C106.679 252.628 106.815 253.2 106.815 253.856C106.815 253.904 106.811 253.96 106.803 254.024C106.803 254.088 106.799 254.148 106.791 254.204H101.379V253.376H106.191L105.723 253.664C105.731 253.256 105.647 252.892 105.471 252.572C105.295 252.252 105.051 252.004 104.739 251.828C104.435 251.644 104.079 251.552 103.671 251.552C103.271 251.552 102.915 251.644 102.603 251.828C102.291 252.004 102.047 252.256 101.871 252.584C101.695 252.904 101.607 253.272 101.607 253.688V253.88C101.607 254.304 101.703 254.684 101.895 255.02C102.095 255.348 102.371 255.604 102.723 255.788C103.075 255.972 103.479 256.064 103.935 256.064C104.311 256.064 104.651 256 104.955 255.872C105.267 255.744 105.539 255.552 105.771 255.296L106.407 256.04C106.119 256.376 105.759 256.632 105.327 256.808C104.903 256.984 104.427 257.072 103.899 257.072ZM116.12 250.58C116.632 250.58 117.084 250.68 117.476 250.88C117.868 251.08 118.172 251.384 118.388 251.792C118.612 252.2 118.724 252.716 118.724 253.34V257H117.572V253.472C117.572 252.856 117.428 252.392 117.14 252.08C116.852 251.768 116.448 251.612 115.928 251.612C115.544 251.612 115.208 251.692 114.92 251.852C114.632 252.012 114.408 252.248 114.248 252.56C114.096 252.872 114.02 253.26 114.02 253.724V257H112.868V253.472C112.868 252.856 112.724 252.392 112.436 252.08C112.156 251.768 111.752 251.612 111.224 251.612C110.848 251.612 110.516 251.692 110.228 251.852C109.94 252.012 109.716 252.248 109.556 252.56C109.396 252.872 109.316 253.26 109.316 253.724V257H108.164V250.64H109.268V252.332L109.088 251.9C109.288 251.484 109.596 251.16 110.012 250.928C110.428 250.696 110.912 250.58 111.464 250.58C112.072 250.58 112.596 250.732 113.036 251.036C113.476 251.332 113.764 251.784 113.9 252.392L113.432 252.2C113.624 251.712 113.96 251.32 114.44 251.024C114.92 250.728 115.48 250.58 116.12 250.58Z" fill="#222222"/>
<circle cx="228" cy="252" r="47" fill="white"/>
<circle cx="228" cy="252" r="45.5" stroke="#7094F0" stroke-opacity="0.3" stroke-width="3"/>
<path d="M207.531 257V248.6H210.807C211.543 248.6 212.171 248.716 212.691 248.948C213.211 249.18 213.611 249.516 213.891 249.956C214.171 250.396 214.311 250.92 214.311 251.528C214.311 252.136 214.171 252.66 213.891 253.1C213.611 253.532 213.211 253.868 212.691 254.108C212.171 254.34 211.543 254.456 210.807 254.456H208.191L208.731 253.892V257H207.531ZM208.731 254.012L208.191 253.412H210.771C211.539 253.412 212.119 253.248 212.511 252.92C212.911 252.592 213.111 252.128 213.111 251.528C213.111 250.928 212.911 250.464 212.511 250.136C212.119 249.808 211.539 249.644 210.771 249.644H208.191L208.731 249.044V254.012ZM215.539 257V250.64H216.643V252.368L216.535 251.936C216.711 251.496 217.007 251.16 217.423 250.928C217.839 250.696 218.351 250.58 218.959 250.58V251.696C218.911 251.688 218.863 251.684 218.815 251.684C218.775 251.684 218.735 251.684 218.695 251.684C218.079 251.684 217.591 251.868 217.231 252.236C216.871 252.604 216.691 253.136 216.691 253.832V257H215.539ZM222.795 257.072C222.155 257.072 221.587 256.932 221.091 256.652C220.595 256.372 220.203 255.988 219.915 255.5C219.627 255.004 219.483 254.444 219.483 253.82C219.483 253.188 219.627 252.628 219.915 252.14C220.203 251.652 220.595 251.272 221.091 251C221.587 250.72 222.155 250.58 222.795 250.58C223.427 250.58 223.991 250.72 224.487 251C224.991 251.272 225.383 251.652 225.663 252.14C225.951 252.62 226.095 253.18 226.095 253.82C226.095 254.452 225.951 255.012 225.663 255.5C225.383 255.988 224.991 256.372 224.487 256.652C223.991 256.932 223.427 257.072 222.795 257.072ZM222.795 256.064C223.203 256.064 223.567 255.972 223.887 255.788C224.215 255.604 224.471 255.344 224.655 255.008C224.839 254.664 224.931 254.268 224.931 253.82C224.931 253.364 224.839 252.972 224.655 252.644C224.471 252.308 224.215 252.048 223.887 251.864C223.567 251.68 223.203 251.588 222.795 251.588C222.387 251.588 222.023 251.68 221.703 251.864C221.383 252.048 221.127 252.308 220.935 252.644C220.743 252.972 220.647 253.364 220.647 253.82C220.647 254.268 220.743 254.664 220.935 255.008C221.127 255.344 221.383 255.604 221.703 255.788C222.023 255.972 222.387 256.064 222.795 256.064ZM230.21 257.072C229.562 257.072 228.982 256.932 228.47 256.652C227.966 256.372 227.57 255.988 227.282 255.5C226.994 255.012 226.85 254.452 226.85 253.82C226.85 253.188 226.994 252.628 227.282 252.14C227.57 251.652 227.966 251.272 228.47 251C228.982 250.72 229.562 250.58 230.21 250.58C230.786 250.58 231.298 250.696 231.746 250.928C232.202 251.152 232.554 251.488 232.802 251.936L231.926 252.5C231.718 252.188 231.462 251.96 231.158 251.816C230.862 251.664 230.542 251.588 230.198 251.588C229.782 251.588 229.41 251.68 229.082 251.864C228.754 252.048 228.494 252.308 228.302 252.644C228.11 252.972 228.014 253.364 228.014 253.82C228.014 254.276 228.11 254.672 228.302 255.008C228.494 255.344 228.754 255.604 229.082 255.788C229.41 255.972 229.782 256.064 230.198 256.064C230.542 256.064 230.862 255.992 231.158 255.848C231.462 255.696 231.718 255.464 231.926 255.152L232.802 255.704C232.554 256.144 232.202 256.484 231.746 256.724C231.298 256.956 230.786 257.072 230.21 257.072ZM236.781 257.072C236.101 257.072 235.501 256.932 234.981 256.652C234.469 256.372 234.069 255.988 233.781 255.5C233.501 255.012 233.361 254.452 233.361 253.82C233.361 253.188 233.497 252.628 233.769 252.14C234.049 251.652 234.429 251.272 234.909 251C235.397 250.72 235.945 250.58 236.553 250.58C237.169 250.58 237.713 250.716 238.185 250.988C238.657 251.26 239.025 251.644 239.289 252.14C239.561 252.628 239.697 253.2 239.697 253.856C239.697 253.904 239.693 253.96 239.685 254.024C239.685 254.088 239.681 254.148 239.673 254.204H234.261V253.376H239.073L238.605 253.664C238.613 253.256 238.529 252.892 238.353 252.572C238.177 252.252 237.933 252.004 237.621 251.828C237.317 251.644 236.961 251.552 236.553 251.552C236.153 251.552 235.797 251.644 235.485 251.828C235.173 252.004 234.929 252.256 234.753 252.584C234.577 252.904 234.489 253.272 234.489 253.688V253.88C234.489 254.304 234.585 254.684 234.777 255.02C234.977 255.348 235.253 255.604 235.605 255.788C235.957 255.972 236.361 256.064 236.817 256.064C237.193 256.064 237.533 256 237.837 255.872C238.149 255.744 238.421 255.552 238.653 255.296L239.289 256.04C239.001 256.376 238.641 256.632 238.209 256.808C237.785 256.984 237.309 257.072 236.781 257.072ZM242.871 257.072C242.343 257.072 241.839 257 241.359 256.856C240.887 256.712 240.515 256.536 240.243 256.328L240.723 255.416C240.995 255.6 241.331 255.756 241.731 255.884C242.131 256.012 242.539 256.076 242.955 256.076C243.491 256.076 243.875 256 244.107 255.848C244.347 255.696 244.467 255.484 244.467 255.212C244.467 255.012 244.395 254.856 244.251 254.744C244.107 254.632 243.915 254.548 243.675 254.492C243.443 254.436 243.183 254.388 242.895 254.348C242.607 254.3 242.319 254.244 242.031 254.18C241.743 254.108 241.479 254.012 241.239 253.892C240.999 253.764 240.807 253.592 240.663 253.376C240.519 253.152 240.447 252.856 240.447 252.488C240.447 252.104 240.555 251.768 240.771 251.48C240.987 251.192 241.291 250.972 241.683 250.82C242.083 250.66 242.555 250.58 243.099 250.58C243.515 250.58 243.935 250.632 244.359 250.736C244.791 250.832 245.143 250.972 245.415 251.156L244.923 252.068C244.635 251.876 244.335 251.744 244.023 251.672C243.711 251.6 243.399 251.564 243.087 251.564C242.583 251.564 242.207 251.648 241.959 251.816C241.711 251.976 241.587 252.184 241.587 252.44C241.587 252.656 241.659 252.824 241.803 252.944C241.955 253.056 242.147 253.144 242.379 253.208C242.619 253.272 242.883 253.328 243.171 253.376C243.459 253.416 243.747 253.472 244.035 253.544C244.323 253.608 244.583 253.7 244.815 253.82C245.055 253.94 245.247 254.108 245.391 254.324C245.543 254.54 245.619 254.828 245.619 255.188C245.619 255.572 245.507 255.904 245.283 256.184C245.059 256.464 244.743 256.684 244.335 256.844C243.927 256.996 243.439 257.072 242.871 257.072ZM248.633 257.072C248.105 257.072 247.601 257 247.121 256.856C246.649 256.712 246.277 256.536 246.005 256.328L246.485 255.416C246.757 255.6 247.093 255.756 247.493 255.884C247.893 256.012 248.301 256.076 248.717 256.076C249.253 256.076 249.637 256 249.869 255.848C250.109 255.696 250.229 255.484 250.229 255.212C250.229 255.012 250.157 254.856 250.013 254.744C249.869 254.632 249.677 254.548 249.437 254.492C249.205 254.436 248.945 254.388 248.657 254.348C248.369 254.3 248.081 254.244 247.793 254.18C247.505 254.108 247.241 254.012 247.001 253.892C246.761 253.764 246.569 253.592 246.425 253.376C246.281 253.152 246.209 252.856 246.209 252.488C246.209 252.104 246.317 251.768 246.533 251.48C246.749 251.192 247.053 250.972 247.445 250.82C247.845 250.66 248.317 250.58 248.861 250.58C249.277 250.58 249.697 250.632 250.121 250.736C250.553 250.832 250.905 250.972 251.177 251.156L250.685 252.068C250.397 251.876 250.097 251.744 249.785 251.672C249.473 251.6 249.161 251.564 248.849 251.564C248.345 251.564 247.969 251.648 247.721 251.816C247.473 251.976 247.349 252.184 247.349 252.44C247.349 252.656 247.421 252.824 247.565 252.944C247.717 253.056 247.909 253.144 248.141 253.208C248.381 253.272 248.645 253.328 248.933 253.376C249.221 253.416 249.509 253.472 249.797 253.544C250.085 253.608 250.345 253.7 250.577 253.82C250.817 253.94 251.009 254.108 251.153 254.324C251.305 254.54 251.381 254.828 251.381 255.188C251.381 255.572 251.269 255.904 251.045 256.184C250.821 256.464 250.505 256.684 250.097 256.844C249.689 256.996 249.201 257.072 248.633 257.072Z" fill="#222222"/>
<path d="M121.293 160.14C120.547 160.14 119.851 160.019 119.207 159.776C118.573 159.524 118.017 159.174 117.541 158.726C117.075 158.269 116.711 157.732 116.449 157.116C116.188 156.5 116.057 155.828 116.057 155.1C116.057 154.372 116.188 153.7 116.449 153.084C116.711 152.468 117.079 151.936 117.555 151.488C118.031 151.031 118.587 150.681 119.221 150.438C119.856 150.186 120.551 150.06 121.307 150.06C122.11 150.06 122.843 150.2 123.505 150.48C124.168 150.751 124.728 151.157 125.185 151.698L124.009 152.804C123.655 152.421 123.258 152.137 122.819 151.95C122.381 151.754 121.905 151.656 121.391 151.656C120.878 151.656 120.407 151.74 119.977 151.908C119.557 152.076 119.189 152.314 118.871 152.622C118.563 152.93 118.321 153.294 118.143 153.714C117.975 154.134 117.891 154.596 117.891 155.1C117.891 155.604 117.975 156.066 118.143 156.486C118.321 156.906 118.563 157.27 118.871 157.578C119.189 157.886 119.557 158.124 119.977 158.292C120.407 158.46 120.878 158.544 121.391 158.544C121.905 158.544 122.381 158.451 122.819 158.264C123.258 158.068 123.655 157.774 124.009 157.382L125.185 158.502C124.728 159.034 124.168 159.44 123.505 159.72C122.843 160 122.105 160.14 121.293 160.14ZM131.066 160.14C130.301 160.14 129.596 160.014 128.952 159.762C128.308 159.51 127.748 159.16 127.272 158.712C126.796 158.255 126.428 157.723 126.166 157.116C125.905 156.5 125.774 155.828 125.774 155.1C125.774 154.372 125.905 153.705 126.166 153.098C126.428 152.482 126.796 151.95 127.272 151.502C127.748 151.045 128.308 150.69 128.952 150.438C129.596 150.186 130.296 150.06 131.052 150.06C131.818 150.06 132.518 150.186 133.152 150.438C133.796 150.69 134.356 151.045 134.832 151.502C135.308 151.95 135.677 152.482 135.938 153.098C136.2 153.705 136.33 154.372 136.33 155.1C136.33 155.828 136.2 156.5 135.938 157.116C135.677 157.732 135.308 158.264 134.832 158.712C134.356 159.16 133.796 159.51 133.152 159.762C132.518 160.014 131.822 160.14 131.066 160.14ZM131.052 158.544C131.547 158.544 132.004 158.46 132.424 158.292C132.844 158.124 133.208 157.886 133.516 157.578C133.824 157.261 134.062 156.897 134.23 156.486C134.408 156.066 134.496 155.604 134.496 155.1C134.496 154.596 134.408 154.139 134.23 153.728C134.062 153.308 133.824 152.944 133.516 152.636C133.208 152.319 132.844 152.076 132.424 151.908C132.004 151.74 131.547 151.656 131.052 151.656C130.558 151.656 130.1 151.74 129.68 151.908C129.27 152.076 128.906 152.319 128.588 152.636C128.28 152.944 128.038 153.308 127.86 153.728C127.692 154.139 127.608 154.596 127.608 155.1C127.608 155.595 127.692 156.052 127.86 156.472C128.038 156.892 128.28 157.261 128.588 157.578C128.896 157.886 129.26 158.124 129.68 158.292C130.1 158.46 130.558 158.544 131.052 158.544ZM138.009 160V150.2H139.507L143.791 157.354H143.007L147.221 150.2H148.719L148.733 160H147.011L146.997 152.902H147.361L143.777 158.88H142.965L139.325 152.902H139.745V160H138.009ZM151.13 160V150.2H155.162C156.03 150.2 156.772 150.34 157.388 150.62C158.014 150.9 158.494 151.301 158.83 151.824C159.166 152.347 159.334 152.967 159.334 153.686C159.334 154.405 159.166 155.025 158.83 155.548C158.494 156.071 158.014 156.472 157.388 156.752C156.772 157.032 156.03 157.172 155.162 157.172H152.138L152.95 156.318V160H151.13ZM152.95 156.514L152.138 155.632H155.078C155.881 155.632 156.483 155.464 156.884 155.128C157.295 154.783 157.5 154.302 157.5 153.686C157.5 153.061 157.295 152.58 156.884 152.244C156.483 151.908 155.881 151.74 155.078 151.74H152.138L152.95 150.844V156.514ZM160.902 160V150.2H162.722V158.46H167.846V160H160.902ZM169.033 160V150.2H170.853V160H169.033ZM171.867 160L176.278 150.2H178.07L182.494 160H180.59L176.796 151.166H177.524L173.744 160H171.867ZM173.898 157.732L174.388 156.304H179.68L180.169 157.732H173.898ZM183.49 160V150.2H184.988L191.134 157.746H190.392V150.2H192.198V160H190.7L184.554 152.454H185.296V160H183.49ZM199.11 160.14C198.363 160.14 197.668 160.019 197.024 159.776C196.389 159.524 195.834 159.174 195.358 158.726C194.891 158.269 194.527 157.732 194.266 157.116C194.004 156.5 193.874 155.828 193.874 155.1C193.874 154.372 194.004 153.7 194.266 153.084C194.527 152.468 194.896 151.936 195.372 151.488C195.848 151.031 196.403 150.681 197.038 150.438C197.672 150.186 198.368 150.06 199.124 150.06C199.926 150.06 200.659 150.2 201.322 150.48C201.984 150.751 202.544 151.157 203.002 151.698L201.826 152.804C201.471 152.421 201.074 152.137 200.636 151.95C200.197 151.754 199.721 151.656 199.208 151.656C198.694 151.656 198.223 151.74 197.794 151.908C197.374 152.076 197.005 152.314 196.688 152.622C196.38 152.93 196.137 153.294 195.96 153.714C195.792 154.134 195.708 154.596 195.708 155.1C195.708 155.604 195.792 156.066 195.96 156.486C196.137 156.906 196.38 157.27 196.688 157.578C197.005 157.886 197.374 158.124 197.794 158.292C198.223 158.46 198.694 158.544 199.208 158.544C199.721 158.544 200.197 158.451 200.636 158.264C201.074 158.068 201.471 157.774 201.826 157.382L203.002 158.502C202.544 159.034 201.984 159.44 201.322 159.72C200.659 160 199.922 160.14 199.11 160.14ZM206.176 154.274H211.048V155.772H206.176V154.274ZM206.316 158.474H211.846V160H204.496V150.2H211.65V151.726H206.316V158.474ZM127.587 179V169.2H131.619C132.487 169.2 133.229 169.34 133.845 169.62C134.47 169.9 134.951 170.301 135.287 170.824C135.623 171.347 135.791 171.967 135.791 172.686C135.791 173.405 135.623 174.025 135.287 174.548C134.951 175.071 134.47 175.472 133.845 175.752C133.229 176.032 132.487 176.172 131.619 176.172H128.595L129.407 175.318V179H127.587ZM129.407 175.514L128.595 174.632H131.535C132.337 174.632 132.939 174.464 133.341 174.128C133.751 173.783 133.957 173.302 133.957 172.686C133.957 172.061 133.751 171.58 133.341 171.244C132.939 170.908 132.337 170.74 131.535 170.74H128.595L129.407 169.844V175.514ZM137.358 179V169.2H141.39C142.258 169.2 143 169.34 143.616 169.62C144.241 169.9 144.722 170.301 145.058 170.824C145.394 171.347 145.562 171.967 145.562 172.686C145.562 173.405 145.394 174.025 145.058 174.548C144.722 175.061 144.241 175.458 143.616 175.738C143 176.009 142.258 176.144 141.39 176.144H138.366L139.178 175.318V179H137.358ZM143.77 179L141.292 175.444H143.238L145.73 179H143.77ZM139.178 175.514L138.366 174.646H141.306C142.109 174.646 142.711 174.473 143.112 174.128C143.523 173.783 143.728 173.302 143.728 172.686C143.728 172.061 143.523 171.58 143.112 171.244C142.711 170.908 142.109 170.74 141.306 170.74H138.366L139.178 169.844V175.514ZM151.94 179.14C151.175 179.14 150.47 179.014 149.826 178.762C149.182 178.51 148.622 178.16 148.146 177.712C147.67 177.255 147.302 176.723 147.04 176.116C146.779 175.5 146.648 174.828 146.648 174.1C146.648 173.372 146.779 172.705 147.04 172.098C147.302 171.482 147.67 170.95 148.146 170.502C148.622 170.045 149.182 169.69 149.826 169.438C150.47 169.186 151.17 169.06 151.926 169.06C152.692 169.06 153.392 169.186 154.026 169.438C154.67 169.69 155.23 170.045 155.706 170.502C156.182 170.95 156.551 171.482 156.812 172.098C157.074 172.705 157.204 173.372 157.204 174.1C157.204 174.828 157.074 175.5 156.812 176.116C156.551 176.732 156.182 177.264 155.706 177.712C155.23 178.16 154.67 178.51 154.026 178.762C153.392 179.014 152.696 179.14 151.94 179.14ZM151.926 177.544C152.421 177.544 152.878 177.46 153.298 177.292C153.718 177.124 154.082 176.886 154.39 176.578C154.698 176.261 154.936 175.897 155.104 175.486C155.282 175.066 155.37 174.604 155.37 174.1C155.37 173.596 155.282 173.139 155.104 172.728C154.936 172.308 154.698 171.944 154.39 171.636C154.082 171.319 153.718 171.076 153.298 170.908C152.878 170.74 152.421 170.656 151.926 170.656C151.432 170.656 150.974 170.74 150.554 170.908C150.144 171.076 149.78 171.319 149.462 171.636C149.154 171.944 148.912 172.308 148.734 172.728C148.566 173.139 148.482 173.596 148.482 174.1C148.482 174.595 148.566 175.052 148.734 175.472C148.912 175.892 149.154 176.261 149.462 176.578C149.77 176.886 150.134 177.124 150.554 177.292C150.974 177.46 151.432 177.544 151.926 177.544ZM163.461 179.14C162.696 179.14 161.991 179.019 161.347 178.776C160.713 178.524 160.157 178.174 159.681 177.726C159.205 177.269 158.837 176.732 158.575 176.116C158.314 175.5 158.183 174.828 158.183 174.1C158.183 173.372 158.314 172.7 158.575 172.084C158.837 171.468 159.205 170.936 159.681 170.488C160.167 170.031 160.731 169.681 161.375 169.438C162.019 169.186 162.724 169.06 163.489 169.06C164.32 169.06 165.067 169.195 165.729 169.466C166.401 169.737 166.966 170.133 167.423 170.656L166.275 171.776C165.893 171.393 165.477 171.113 165.029 170.936C164.591 170.749 164.105 170.656 163.573 170.656C163.06 170.656 162.584 170.74 162.145 170.908C161.707 171.076 161.329 171.314 161.011 171.622C160.694 171.93 160.447 172.294 160.269 172.714C160.101 173.134 160.017 173.596 160.017 174.1C160.017 174.595 160.101 175.052 160.269 175.472C160.447 175.892 160.694 176.261 161.011 176.578C161.329 176.886 161.702 177.124 162.131 177.292C162.561 177.46 163.037 177.544 163.559 177.544C164.045 177.544 164.511 177.469 164.959 177.32C165.417 177.161 165.851 176.9 166.261 176.536L167.297 177.894C166.784 178.305 166.187 178.617 165.505 178.832C164.833 179.037 164.152 179.14 163.461 179.14ZM165.575 177.656V173.988H167.297V177.894L165.575 177.656ZM169.448 179V169.2H173.48C174.348 169.2 175.09 169.34 175.706 169.62C176.331 169.9 176.812 170.301 177.148 170.824C177.484 171.347 177.652 171.967 177.652 172.686C177.652 173.405 177.484 174.025 177.148 174.548C176.812 175.061 176.331 175.458 175.706 175.738C175.09 176.009 174.348 176.144 173.48 176.144H170.456L171.268 175.318V179H169.448ZM175.86 179L173.382 175.444H175.328L177.82 179H175.86ZM171.268 175.514L170.456 174.646H173.396C174.199 174.646 174.801 174.473 175.202 174.128C175.613 173.783 175.818 173.302 175.818 172.686C175.818 172.061 175.613 171.58 175.202 171.244C174.801 170.908 174.199 170.74 173.396 170.74H170.456L171.268 169.844V175.514ZM178.052 179L182.462 169.2H184.254L188.678 179H186.774L182.98 170.166H183.708L179.928 179H178.052ZM180.082 176.732L180.572 175.304H185.864L186.354 176.732H180.082ZM189.674 179V169.2H191.172L195.456 176.354H194.672L198.886 169.2H200.384L200.398 179H198.676L198.662 171.902H199.026L195.442 177.88H194.63L190.99 171.902H191.41V179H189.674Z" fill="#435CE7"/>
</svg>
