<svg width="327" height="228" viewBox="0 0 327 228" fill="none" xmlns="http://www.w3.org/2000/svg">
<rect x="163" y="1.19531" width="1" height="226" fill="#EEEEEE"/>
<rect x="24" y="1.19531" width="280" height="46" rx="7" fill="#435CE7"/>
<path d="M126.91 24.2313C128.94 23.9233 130.788 22.9153 131.474 21.4593C132.146 22.9153 133.994 23.9233 136.038 24.2313L136.458 23.3073C134.246 23.0133 132.216 21.7673 132.216 20.2413V20.2273H136.122V19.3033H126.826V20.2273H130.732V20.2413C130.732 21.7673 128.702 23.0133 126.476 23.3073L126.91 24.2313ZM128.366 27.3953H127.218V30.9513H135.898V30.0133H128.366V27.3953ZM125.762 25.1413V26.0653H130.984V28.6133H132.132V26.0653H137.158V25.1413H125.762ZM147.617 30.1253H141.849V28.5573H147.617V30.1253ZM147.617 27.6613H141.849V26.1493H140.715V31.0493H148.751V26.1493H147.617V27.6613ZM143.571 24.1333H140.183V22.1453H143.571V24.1333ZM147.603 18.6873V21.7673H144.705V19.3313H143.571V21.2493H140.183V19.3313H139.049V25.0713H144.705V22.7053H147.603V25.5473H148.765V18.6873H147.603ZM159.599 30.3493C157.583 30.3493 156.449 29.9573 156.449 29.2013C156.449 28.4593 157.583 28.0533 159.599 28.0533C161.629 28.0533 162.749 28.4593 162.749 29.2013C162.749 29.9573 161.629 30.3493 159.599 30.3493ZM159.599 27.1993C156.869 27.1993 155.301 27.8993 155.301 29.2013C155.301 30.5173 156.869 31.2173 159.599 31.2173C162.329 31.2173 163.897 30.5173 163.897 29.2013C163.897 27.8993 162.329 27.1993 159.599 27.1993ZM160.173 25.3233V24.0913H163.953V23.1953H156.561V21.9633H163.547V21.0953H156.561V19.9333H163.883V19.0373H155.413V24.0913H159.025V25.3233H153.915V26.2473H165.283V25.3233H160.173ZM170.239 21.0813H172.479V20.1433H166.753V21.0813H169.133V22.2153C169.133 24.5253 168.153 26.8073 166.403 27.8573L167.103 28.7113C168.349 27.9273 169.259 26.4573 169.693 24.7353C170.127 26.3313 170.995 27.6753 172.213 28.4033L172.913 27.5633C171.177 26.5833 170.239 24.3993 170.239 22.2153V21.0813ZM173.599 23.1813H171.527V24.1193H173.599V30.5733H174.691V18.9533H173.599V23.1813ZM176.119 18.6593V31.2173H177.225V18.6593H176.119ZM179.928 20.0313V20.9553H184.646C184.408 23.9373 182.728 26.3453 179.354 27.9553L179.97 28.8933C184.142 26.8493 185.808 23.6573 185.808 20.0313H179.928ZM188.342 18.6733V31.2313H189.49V18.6733H188.342ZM192.935 24.2313C194.965 23.9233 196.813 22.9153 197.499 21.4593C198.171 22.9153 200.019 23.9233 202.063 24.2313L202.483 23.3073C200.271 23.0133 198.241 21.7673 198.241 20.2413V20.2273H202.147V19.3033H192.851V20.2273H196.757V20.2413C196.757 21.7673 194.727 23.0133 192.501 23.3073L192.935 24.2313ZM194.391 27.3953H193.243V30.9513H201.923V30.0133H194.391V27.3953ZM191.787 25.1413V26.0653H197.009V28.6133H198.157V26.0653H203.183V25.1413H191.787Z" fill="white"/>
<rect x="24.5" y="61.6953" width="279" height="45" rx="6.5" fill="#F5F5F5" stroke="#EEEEEE"/>
<path d="M110.9 84.2313C112.93 83.9233 114.778 82.9153 115.464 81.4593C116.136 82.9153 117.984 83.9233 120.028 84.2313L120.448 83.3073C118.236 83.0133 116.206 81.7673 116.206 80.2413V80.2273H120.112V79.3033H110.816V80.2273H114.722V80.2413C114.722 81.7673 112.692 83.0133 110.466 83.3073L110.9 84.2313ZM112.356 87.3953H111.208V90.9513H119.888V90.0133H112.356V87.3953ZM109.752 85.1413V86.0653H114.974V88.6133H116.122V86.0653H121.148V85.1413H109.752ZM131.607 90.1253H125.839V88.5573H131.607V90.1253ZM131.607 87.6613H125.839V86.1493H124.705V91.0493H132.741V86.1493H131.607V87.6613ZM127.561 84.1333H124.173V82.1453H127.561V84.1333ZM131.593 78.6873V81.7673H128.695V79.3313H127.561V81.2493H124.173V79.3313H123.039V85.0713H128.695V82.7053H131.593V85.5473H132.755V78.6873H131.593ZM138.465 79.4713V80.4093H143.029C142.805 82.5373 140.971 84.1893 137.905 85.0153L138.353 85.9253C142.049 84.9173 144.261 82.6633 144.261 79.4713H138.465ZM140.887 87.3113H146.529V90.1253H140.887V87.3113ZM139.753 91.0493H147.663V86.3873H139.753V91.0493ZM149.525 81.7393H147.663V78.6593H146.515V85.7993H147.663V82.6913H149.525V81.7393ZM155 79.7653H153.866V82.0193C153.866 84.3993 152.34 86.8073 150.492 87.6893L151.192 88.6273C152.662 87.8713 153.866 86.3033 154.44 84.4133C155.042 86.2053 156.246 87.6893 157.674 88.3893L158.36 87.4653C156.498 86.6253 155 84.3153 155 82.0193V79.7653ZM159.676 78.6733V91.2593H160.824V78.6733H159.676ZM171.727 79.9193C173.659 79.9193 174.919 80.5213 174.919 81.5153C174.919 82.4953 173.659 83.0973 171.727 83.0973C169.809 83.0973 168.535 82.4953 168.535 81.5153C168.535 80.5213 169.809 79.9193 171.727 79.9193ZM171.727 84.0353C174.387 84.0353 176.123 83.0693 176.123 81.5153C176.123 79.9613 174.387 78.9953 171.727 78.9953C169.067 78.9953 167.331 79.9613 167.331 81.5153C167.331 83.0693 169.067 84.0353 171.727 84.0353ZM168.647 87.2833H167.499V90.9513H176.179V89.9993H168.647V87.2833ZM166.043 85.0433V85.9813H171.251V88.5153H172.413V85.9813H177.425V85.0433H166.043ZM179.974 82.3973C179.974 81.2353 180.898 80.3953 182.116 80.3953C183.348 80.3953 184.244 81.2353 184.244 82.3973C184.244 83.5733 183.348 84.4133 182.116 84.4133C180.898 84.4133 179.974 83.5733 179.974 82.3973ZM187.87 81.4173V83.3773H185.168C185.28 83.0693 185.336 82.7473 185.336 82.3973C185.336 82.0333 185.28 81.7113 185.182 81.4173H187.87ZM187.87 84.3153V86.1073H189.032V78.6733H187.87V80.4793H184.65C184.076 79.8353 183.18 79.4293 182.116 79.4293C180.254 79.4293 178.882 80.6473 178.882 82.3973C178.882 84.1613 180.254 85.3933 182.116 85.3933C183.18 85.3933 184.076 84.9873 184.65 84.3153H187.87ZM184.874 90.3073C182.984 90.3073 181.836 89.7473 181.836 88.8093C181.836 87.8573 182.984 87.2973 184.874 87.2973C186.792 87.2973 187.94 87.8573 187.94 88.8093C187.94 89.7473 186.792 90.3073 184.874 90.3073ZM184.874 86.4013C182.298 86.4013 180.702 87.2833 180.702 88.8093C180.702 90.3353 182.298 91.2173 184.874 91.2173C187.464 91.2173 189.074 90.3353 189.074 88.8093C189.074 87.2833 187.464 86.4013 184.874 86.4013ZM205.55 84.9593H203.618C203.996 82.9713 203.996 81.5433 203.996 80.4093V79.4713H195.638V80.4233H202.862C202.862 81.5433 202.862 82.9713 202.47 84.9593H194.21V85.8973H197.122V91.2173H198.27V85.8973H201.42V91.2173H202.554V85.8973H205.55V84.9593ZM213.531 81.9353V82.8733H216.009V86.1633H217.171V78.6873H216.009V81.9353H213.531ZM214.231 84.7913C212.411 84.1473 211.179 82.5653 211.179 80.9553V80.5213H213.937V79.5973H207.231V80.5213H210.031V80.9553C210.031 82.7613 208.743 84.4553 206.867 85.1413L207.469 86.0513C208.939 85.4913 210.101 84.3153 210.633 82.8593C211.179 84.1473 212.257 85.1833 213.657 85.6873L214.231 84.7913ZM213.027 90.3353C211.137 90.3353 209.989 89.8033 209.989 88.8933C209.989 87.9833 211.137 87.4373 213.027 87.4373C214.917 87.4373 216.065 87.9833 216.065 88.8933C216.065 89.8033 214.917 90.3353 213.027 90.3353ZM213.027 86.5553C210.451 86.5553 208.841 87.4093 208.841 88.8933C208.841 90.3773 210.451 91.2313 213.027 91.2313C215.603 91.2313 217.199 90.3773 217.199 88.8933C217.199 87.4093 215.603 86.5553 213.027 86.5553Z" fill="#666666"/>
<rect x="24.5" y="121.695" width="279" height="45" rx="6.5" fill="#F5F5F5" stroke="#EEEEEE"/>
<path d="M65.2691 138.687V145.869H66.4171V138.687H65.2691ZM58.2971 146.541V151.063H66.4171V146.541H58.2971ZM65.2971 147.451V150.139H59.4171V147.451H65.2971ZM59.6691 139.345C57.7791 139.345 56.4071 140.535 56.4071 142.271C56.4071 144.007 57.7791 145.197 59.6691 145.197C61.5731 145.197 62.9591 144.007 62.9591 142.271C62.9591 140.535 61.5731 139.345 59.6691 139.345ZM59.6691 140.297C60.9291 140.297 61.8391 141.123 61.8391 142.271C61.8391 143.433 60.9291 144.245 59.6691 144.245C58.4231 144.245 57.5271 143.433 57.5271 142.271C57.5271 141.123 58.4231 140.297 59.6691 140.297ZM76.414 144.805C74.566 144.189 73.264 142.663 73.264 140.983V140.479H76.106V139.555H69.218V140.479H72.088V140.983C72.088 142.747 70.814 144.385 68.91 145.057L69.512 145.953C70.996 145.407 72.158 144.287 72.69 142.859C73.264 144.175 74.412 145.211 75.854 145.715L76.414 144.805ZM70.646 147.857H77.898V151.231H79.046V146.933H70.646V147.857ZM77.898 138.673V146.275H79.046V138.673H77.898ZM87.9509 146.093V146.947H90.4989V148.235H91.6469V138.673H90.4989V146.093H87.9509ZM85.3889 140.031C86.5789 140.031 87.3909 140.563 87.3909 141.361C87.3909 142.173 86.5789 142.705 85.3889 142.705C84.1989 142.705 83.3869 142.173 83.3869 141.361C83.3869 140.563 84.1989 140.031 85.3889 140.031ZM85.3889 143.559C87.2229 143.559 88.4829 142.705 88.4829 141.361C88.4829 140.045 87.2229 139.177 85.3889 139.177C83.5549 139.177 82.2949 140.045 82.2949 141.361C82.2949 142.705 83.5549 143.559 85.3889 143.559ZM84.9409 147.787H86.0889V145.309C87.2229 145.239 88.3849 145.113 89.4909 144.945L89.3929 144.119C86.7329 144.455 83.6249 144.483 81.3009 144.483L81.4549 145.435C82.4909 145.435 83.6949 145.421 84.9409 145.365V147.787ZM84.2409 150.013V147.297H83.0929V150.951H91.9689V150.013H84.2409ZM104.777 143.027H106.373V146.625H107.479V138.673H106.373V142.089H104.777V138.925H103.685V146.177H104.777V143.027ZM103.195 140.171H100.577V138.771H99.4427V140.171H96.8107V141.081H103.195V140.171ZM98.3647 143.881C98.3647 143.111 99.0227 142.593 100.017 142.593C100.997 142.593 101.669 143.111 101.669 143.881C101.669 144.665 100.997 145.183 100.017 145.183C99.0227 145.183 98.3647 144.665 98.3647 143.881ZM102.691 143.881C102.691 142.593 101.599 141.739 100.017 141.739C98.4347 141.739 97.3287 142.593 97.3287 143.881C97.3287 145.197 98.4347 146.037 100.017 146.037C101.599 146.037 102.691 145.197 102.691 143.881ZM103.349 150.335C101.431 150.335 100.283 149.859 100.283 149.033C100.283 148.193 101.431 147.717 103.349 147.717C105.253 147.717 106.401 148.193 106.401 149.033C106.401 149.859 105.253 150.335 103.349 150.335ZM103.349 146.835C100.731 146.835 99.1487 147.619 99.1487 149.033C99.1487 150.433 100.731 151.217 103.349 151.217C105.967 151.217 107.549 150.433 107.549 149.033C107.549 147.619 105.967 146.835 103.349 146.835ZM115.194 150.335C113.206 150.335 112.044 149.845 112.044 148.963C112.044 148.081 113.206 147.591 115.194 147.591C117.154 147.591 118.316 148.081 118.316 148.963C118.316 149.845 117.154 150.335 115.194 150.335ZM115.194 146.695C112.506 146.695 110.882 147.507 110.882 148.963C110.882 150.419 112.506 151.231 115.194 151.231C117.854 151.231 119.478 150.419 119.478 148.963C119.478 147.507 117.854 146.695 115.194 146.695ZM115.768 144.875V143.419H119.548V142.495H112.086V140.171H119.464V139.247H110.938V143.419H114.62V144.875H109.51V145.799H120.878V144.875H115.768ZM136.373 144.959H134.441C134.819 142.971 134.819 141.543 134.819 140.409V139.471H126.461V140.423H133.685C133.685 141.543 133.685 142.971 133.293 144.959H125.033V145.897H127.945V151.217H129.093V145.897H132.243V151.217H133.377V145.897H136.373V144.959ZM140.952 147.507H146.874V150.139H140.952V147.507ZM139.832 151.063H147.994V146.597H139.832V151.063ZM142.8 144.329H139.412V142.285H142.8V144.329ZM146.832 138.687V141.851H143.934V139.373H142.8V141.375H139.412V139.387H138.278V145.253H143.934V142.789H146.832V145.953H147.994V138.673L146.832 138.687ZM152.615 152.911H153.567C152.461 150.993 151.971 148.851 151.971 146.359C151.971 143.867 152.461 141.725 153.567 139.807H152.615C151.579 141.473 150.991 143.783 150.991 146.359C150.991 148.935 151.579 151.217 152.615 152.911ZM159.745 150.279C161.187 150.279 162.475 149.789 163.343 148.837L162.685 148.179C161.887 149.005 160.907 149.355 159.787 149.355C157.421 149.355 155.643 147.619 155.643 145.295C155.643 142.971 157.421 141.235 159.787 141.235C160.907 141.235 161.887 141.585 162.685 142.397L163.343 141.739C162.475 140.787 161.187 140.311 159.759 140.311C156.805 140.311 154.621 142.425 154.621 145.295C154.621 148.165 156.805 150.279 159.745 150.279ZM167.773 150.265C169.929 150.265 171.511 148.697 171.511 146.513C171.511 144.329 169.929 142.775 167.773 142.775C165.617 142.775 164.021 144.329 164.021 146.513C164.021 148.697 165.617 150.265 167.773 150.265ZM167.773 149.383C166.205 149.383 165.029 148.235 165.029 146.513C165.029 144.791 166.205 143.643 167.773 143.643C169.341 143.643 170.503 144.791 170.503 146.513C170.503 148.235 169.341 149.383 167.773 149.383ZM179.016 139.807V144.231C178.4 143.279 177.392 142.775 176.216 142.775C174.116 142.775 172.548 144.287 172.548 146.513C172.548 148.739 174.116 150.265 176.216 150.265C177.434 150.265 178.456 149.733 179.058 148.739V150.195H180.01V139.807H179.016ZM176.3 149.383C174.732 149.383 173.556 148.235 173.556 146.513C173.556 144.791 174.732 143.643 176.3 143.643C177.854 143.643 179.03 144.791 179.03 146.513C179.03 148.235 177.854 149.383 176.3 149.383ZM188.955 146.513C188.955 144.301 187.457 142.775 185.385 142.775C183.313 142.775 181.787 144.329 181.787 146.513C181.787 148.697 183.355 150.265 185.651 150.265C186.813 150.265 187.835 149.845 188.493 149.061L187.933 148.417C187.373 149.061 186.575 149.383 185.679 149.383C184.069 149.383 182.893 148.361 182.781 146.821H188.941C188.941 146.709 188.955 146.597 188.955 146.513ZM185.385 143.629C186.827 143.629 187.877 144.637 188.003 146.079H182.781C182.907 144.637 183.957 143.629 185.385 143.629ZM197.152 150.265C199.308 150.265 200.89 148.697 200.89 146.513C200.89 144.329 199.308 142.775 197.152 142.775C194.996 142.775 193.4 144.329 193.4 146.513C193.4 148.697 194.996 150.265 197.152 150.265ZM197.152 149.383C195.584 149.383 194.408 148.235 194.408 146.513C194.408 144.791 195.584 143.643 197.152 143.643C198.72 143.643 199.882 144.791 199.882 146.513C199.882 148.235 198.72 149.383 197.152 149.383ZM205.105 140.577C205.525 140.577 205.917 140.703 206.197 140.941L206.533 140.199C206.169 139.891 205.609 139.737 205.063 139.737C203.621 139.737 202.837 140.605 202.837 141.921V142.831H201.521V143.671H202.837V150.195H203.831V143.671H206.071V142.831H203.803V141.963C203.803 141.053 204.251 140.577 205.105 140.577ZM215.043 150.279C216.485 150.279 217.773 149.789 218.641 148.837L217.983 148.179C217.185 149.005 216.205 149.355 215.085 149.355C212.719 149.355 210.941 147.619 210.941 145.295C210.941 142.971 212.719 141.235 215.085 141.235C216.205 141.235 217.185 141.585 217.983 142.397L218.641 141.739C217.773 140.787 216.485 140.311 215.057 140.311C212.103 140.311 209.919 142.425 209.919 145.295C209.919 148.165 212.103 150.279 215.043 150.279ZM223.072 150.265C225.228 150.265 226.81 148.697 226.81 146.513C226.81 144.329 225.228 142.775 223.072 142.775C220.916 142.775 219.32 144.329 219.32 146.513C219.32 148.697 220.916 150.265 223.072 150.265ZM223.072 149.383C221.504 149.383 220.328 148.235 220.328 146.513C220.328 144.791 221.504 143.643 223.072 143.643C224.64 143.643 225.802 144.791 225.802 146.513C225.802 148.235 224.64 149.383 223.072 149.383ZM232.341 142.775C231.067 142.775 230.073 143.293 229.541 144.189V142.831H228.589V150.195H229.583V146.331C229.583 144.651 230.577 143.671 232.159 143.671C233.559 143.671 234.371 144.469 234.371 146.023V150.195H235.365V145.925C235.365 143.811 234.133 142.775 232.341 142.775ZM243.567 139.807V144.231C242.951 143.279 241.943 142.775 240.767 142.775C238.667 142.775 237.099 144.287 237.099 146.513C237.099 148.739 238.667 150.265 240.767 150.265C241.985 150.265 243.007 149.733 243.609 148.739V150.195H244.561V139.807H243.567ZM240.851 149.383C239.283 149.383 238.107 148.235 238.107 146.513C238.107 144.791 239.283 143.643 240.851 143.643C242.405 143.643 243.581 144.791 243.581 146.513C243.581 148.235 242.405 149.383 240.851 149.383ZM252.721 142.831V146.695C252.721 148.375 251.755 149.369 250.215 149.369C248.815 149.369 248.003 148.571 248.003 147.003V142.831H247.009V147.101C247.009 149.215 248.241 150.265 250.117 150.265C251.293 150.265 252.245 149.747 252.763 148.851V150.195H253.715V142.831H252.721ZM259.301 150.265C260.547 150.265 261.597 149.761 262.185 148.809L261.443 148.305C260.939 149.047 260.155 149.383 259.301 149.383C257.691 149.383 256.515 148.249 256.515 146.513C256.515 144.791 257.691 143.643 259.301 143.643C260.155 143.643 260.939 143.993 261.443 144.735L262.185 144.231C261.597 143.265 260.547 142.775 259.301 142.775C257.103 142.775 255.507 144.315 255.507 146.513C255.507 148.711 257.103 150.265 259.301 150.265ZM267.498 149.033C267.218 149.285 266.812 149.411 266.406 149.411C265.58 149.411 265.132 148.935 265.132 148.067V143.671H267.372V142.831H265.132V141.221H264.138V142.831H262.822V143.671H264.138V148.123C264.138 149.481 264.908 150.265 266.294 150.265C266.868 150.265 267.456 150.097 267.848 149.747L267.498 149.033ZM269.533 152.911C270.583 151.217 271.171 148.935 271.171 146.359C271.171 143.783 270.583 141.473 269.533 139.807H268.581C269.701 141.725 270.191 143.867 270.191 146.359C270.191 148.851 269.701 150.993 268.581 152.911H269.533Z" fill="#666666"/>
<rect x="24.5" y="181.695" width="279" height="45" rx="6.5" fill="white" stroke="#EEEEEE"/>
<path d="M137.221 199.863H136.115V202.257C136.115 204.413 135.079 206.667 133.357 207.675L134.071 208.543C135.317 207.773 136.227 206.345 136.675 204.679C137.123 206.205 137.963 207.535 139.153 208.263L139.811 207.367C138.159 206.359 137.221 204.231 137.221 202.215V199.863ZM140.525 203.181H138.453V204.133H140.525V210.615H141.603V198.953H140.525V203.181ZM143.073 198.673V211.231H144.165V198.673H143.073ZM154.918 203.671H148.688V201.823H154.918V203.671ZM156.066 199.177H154.918V200.899H148.688V199.177H147.554V204.609H156.066V199.177ZM157.508 206.121H146.112V207.045H151.208V211.245H152.356V207.045H157.508V206.121ZM163.235 200.913H166.189V199.961H159.175V200.913H162.087V202.509C162.087 204.679 160.561 207.045 158.755 207.899L159.427 208.823C160.855 208.095 162.087 206.513 162.661 204.679C163.263 206.401 164.495 207.843 165.951 208.515L166.595 207.591C164.747 206.807 163.235 204.637 163.235 202.509V200.913ZM167.883 198.687V211.231H169.031V198.687H167.883ZM179.14 204.777C177.278 204.217 175.934 202.803 175.934 201.221V201.067H178.776V200.143H175.948V198.603H174.8V200.143H171.944V201.067H174.8V201.221C174.8 202.901 173.484 204.427 171.622 205.029L172.168 205.911C173.68 205.435 174.842 204.385 175.388 203.027C175.976 204.259 177.138 205.211 178.608 205.659L179.14 204.777ZM174.688 207.675H180.568V210.139H174.688V207.675ZM173.568 211.063H181.688V206.765H173.568V211.063ZM180.54 198.673V206.121H181.688V198.673H180.54ZM188.409 199.751H187.261V202.005C187.261 204.329 185.833 206.751 184.013 207.661L184.713 208.571C186.127 207.815 187.289 206.233 187.835 204.371C188.409 206.135 189.557 207.633 190.985 208.347L191.657 207.437C189.837 206.569 188.409 204.287 188.409 202.005V199.751ZM193.211 198.673V202.929H190.299V203.867H193.211V211.245H194.359V198.673H193.211Z" fill="#666666"/>
</svg>
