<svg width="1200" height="456" viewBox="0 0 1200 456" fill="none" xmlns="http://www.w3.org/2000/svg">
<path d="M590.99 61.9014L759.142 199.224L686.112 388.043H495.868L422.838 199.224L590.99 61.9014Z" fill="#F6F7FE"/>
<path d="M424.629 199.698L590.99 63.838L757.351 199.698L685.084 386.543H496.896L424.629 199.698Z" stroke="#C6D4F9" stroke-opacity="0.2" stroke-width="3"/>
<circle cx="591" cy="73" r="73" fill="white"/>
<circle cx="591" cy="73" r="71.5" stroke="#7094F0" stroke-opacity="0.3" stroke-width="3"/>
<path d="M563.194 74.046C565.53 73.598 567.546 72.222 568.474 70.366C569.418 72.206 571.45 73.55 573.834 73.998L574.506 72.686C571.642 72.238 569.338 70.286 569.338 68.11V68.078H573.93V66.75H563.018V68.078H567.61V68.11C567.61 70.286 565.322 72.286 562.506 72.734L563.194 74.046ZM569.322 76.862V73.486H567.658V76.862H561.946V78.206H575.034V76.862H569.322ZM585.327 72.398C583.103 71.678 581.791 69.902 581.791 68.062V67.79H584.879V66.462H576.975V67.79H580.111V68.062C580.111 70.014 578.815 71.886 576.527 72.654L577.391 73.95C579.119 73.342 580.335 72.142 580.975 70.606C581.615 72.03 582.831 73.15 584.495 73.678L585.327 72.398ZM578.575 76.302H586.671V79.982H588.319V74.974H578.575V76.302ZM586.671 65.518V74.254H588.319V65.518H586.671ZM595.22 69.438H597.7V68.078H595.22V66.03H593.652V68.078H591.156V69.438H593.652V69.95C593.652 72.254 592.692 74.718 590.708 75.886L591.652 77.134C593.028 76.334 593.94 74.878 594.452 73.182C594.98 74.75 595.908 76.078 597.268 76.814L598.18 75.582C596.196 74.51 595.22 72.206 595.22 69.95V69.438ZM598.724 71.134H596.772V72.478H598.724V79.278H600.276V65.822H598.724V71.134ZM601.636 65.534V79.982H603.204V65.534H601.636ZM613.209 69.438H611.385C611.497 68.766 611.545 68.046 611.545 67.31H605.961V68.638H609.913C609.673 71.598 608.233 73.95 605.257 75.758L606.201 76.926C608.905 75.31 610.425 73.214 611.097 70.782H613.209V73.07H610.841V74.414H613.209V79.278H614.745V65.886H613.209V69.438ZM616.121 65.534V79.982H617.705V65.534H616.121Z" fill="#222222"/>
<circle cx="421" cy="197.728" r="73" fill="white"/>
<circle cx="421" cy="197.728" r="71.5" stroke="#7094F0" stroke-opacity="0.3" stroke-width="3"/>
<path d="M394.617 186.694V188.358H391.113V189.702H394.617V191.366H396.265V182.87H394.617V185.35H391.641C391.721 184.902 391.769 184.422 391.769 183.91H385.209V185.238H390.009C389.721 187.494 387.849 189.27 384.457 190.214L385.113 191.526C388.233 190.614 390.361 188.998 391.257 186.694H394.617ZM391.529 195.958C389.577 195.958 388.345 195.398 388.345 194.39C388.345 193.398 389.577 192.838 391.529 192.838C393.497 192.838 394.729 193.398 394.729 194.39C394.729 195.398 393.497 195.958 391.529 195.958ZM391.529 191.542C388.601 191.542 386.713 192.63 386.713 194.39C386.713 196.166 388.601 197.254 391.529 197.254C394.457 197.254 396.361 196.166 396.361 194.39C396.361 192.63 394.457 191.542 391.529 191.542ZM400.526 187.174C400.526 185.91 401.454 185.078 402.734 185.078C403.982 185.078 404.91 185.91 404.91 187.174C404.91 188.422 403.982 189.254 402.734 189.254C401.454 189.254 400.526 188.422 400.526 187.174ZM409.086 186.198V188.15H406.334C406.43 187.846 406.478 187.526 406.478 187.174C406.478 186.822 406.43 186.502 406.35 186.198H409.086ZM409.086 189.478V191.382H410.734V182.854H409.086V184.854H405.598C404.926 184.134 403.918 183.686 402.734 183.686C400.574 183.686 398.958 185.126 398.958 187.174C398.958 189.206 400.574 190.646 402.734 190.646C403.902 190.646 404.926 190.214 405.598 189.478H409.086ZM405.918 196.022C403.87 196.022 402.67 195.494 402.67 194.502C402.67 193.542 403.87 192.998 405.918 192.998C407.982 192.998 409.166 193.542 409.166 194.502C409.166 195.494 407.982 196.022 405.918 196.022ZM405.918 191.702C402.91 191.702 401.054 192.742 401.054 194.502C401.054 196.278 402.91 197.318 405.918 197.318C408.926 197.318 410.798 196.278 410.798 194.502C410.798 192.742 408.926 191.702 405.918 191.702ZM425.139 182.886H423.491V193.398H425.139V182.886ZM422.147 190.166C419.923 189.446 418.611 187.686 418.611 185.846V185.318H421.699V183.99H413.795V185.318H416.931V185.846C416.931 187.798 415.635 189.67 413.347 190.438L414.211 191.718C415.939 191.142 417.155 189.91 417.795 188.374C418.435 189.798 419.651 190.918 421.315 191.462L422.147 190.166ZM417.363 195.702V192.438H415.699V197.046H425.555V195.702H417.363ZM435.703 183.878C433.447 183.878 431.783 185.302 431.783 187.35C431.783 189.398 433.447 190.822 435.703 190.822C437.959 190.822 439.639 189.398 439.639 187.35C439.639 185.302 437.959 183.878 435.703 183.878ZM435.703 185.286C437.047 185.286 438.023 186.086 438.023 187.35C438.023 188.598 437.047 189.414 435.703 189.414C434.375 189.414 433.399 188.598 433.399 187.35C433.399 186.086 434.375 185.286 435.703 185.286ZM441.271 182.854V197.334H442.935V182.854H441.271ZM431.319 194.278C433.879 194.278 437.335 194.246 440.519 193.638L440.407 192.438C437.303 192.902 433.703 192.918 431.111 192.918L431.319 194.278ZM450.844 185.67H454.06V184.31H445.964V185.67H449.18V187.046C449.18 189.526 447.692 192.214 445.452 193.254L446.396 194.566C448.092 193.75 449.388 192.038 450.028 190.022C450.7 191.894 451.996 193.462 453.676 194.198L454.588 192.902C452.332 191.942 450.844 189.446 450.844 187.046V185.67ZM455.74 182.87V197.318H457.404V182.87H455.74ZM394.452 213.382C396.788 212.934 398.804 211.558 399.732 209.702C400.676 211.542 402.708 212.886 405.092 213.334L405.764 212.022C402.9 211.574 400.596 209.622 400.596 207.446V207.414H405.188V206.086H394.276V207.414H398.868V207.446C398.868 209.622 396.58 211.622 393.764 212.07L394.452 213.382ZM400.58 216.198V212.822H398.916V216.198H393.204V217.542H406.292V216.198H400.58ZM416.584 211.734C414.36 211.014 413.048 209.238 413.048 207.398V207.126H416.136V205.798H408.232V207.126H411.368V207.398C411.368 209.35 410.072 211.222 407.784 211.99L408.648 213.286C410.376 212.678 411.592 211.478 412.232 209.942C412.872 211.366 414.088 212.486 415.752 213.014L416.584 211.734ZM409.832 215.638H417.928V219.318H419.576V214.31H409.832V215.638ZM417.928 204.854V213.59H419.576V204.854H417.928ZM431.917 209.414H425.405V206.822H431.917V209.414ZM433.533 205.51H423.789V210.726H433.533V205.51ZM425.373 214.87H423.725V219.046H433.773V217.702H425.373V214.87ZM422.125 212.15V213.478H427.981V216.182H429.629V213.478H435.229V212.15H422.125ZM445.282 206.534H441.826V204.918H440.178V206.534H436.69V207.862H445.282V206.534ZM439.09 211.286C439.09 210.39 439.874 209.846 441.01 209.846C442.146 209.846 442.914 210.39 442.914 211.286C442.914 212.166 442.146 212.71 441.01 212.71C439.874 212.71 439.09 212.166 439.09 211.286ZM441.826 213.91C443.426 213.654 444.466 212.662 444.466 211.286C444.466 209.654 443.058 208.582 441.01 208.582C438.946 208.582 437.538 209.654 437.538 211.286C437.538 212.662 438.578 213.638 440.178 213.91V215.318C438.834 215.366 437.538 215.366 436.434 215.366L436.658 216.726C439.138 216.726 442.482 216.694 445.57 216.15L445.442 214.934C444.29 215.11 443.058 215.19 441.826 215.254V213.91ZM449.954 210.902H447.906V204.854H446.258V219.318H447.906V212.262H449.954V210.902Z" fill="#222222"/>
<circle cx="759.152" cy="197.728" r="73" fill="white"/>
<circle cx="759.152" cy="197.728" r="71.5" stroke="#7094F0" stroke-opacity="0.3" stroke-width="3"/>
<path d="M736.912 191.91C738.944 191.91 740.272 192.502 740.272 193.526C740.272 194.55 738.944 195.142 736.912 195.142C734.864 195.142 733.536 194.55 733.536 193.526C733.536 192.502 734.864 191.91 736.912 191.91ZM736.912 196.47C740 196.47 742.032 195.334 742.032 193.526C742.032 191.718 740 190.582 736.912 190.582C733.808 190.582 731.792 191.718 731.792 193.526C731.792 195.334 733.808 196.47 736.912 196.47ZM733.648 200.166H731.984V204.438H742.032V203.094H733.648V200.166ZM730.368 197.446V198.79H736.192V201.526H737.872V198.79H743.472V197.446H730.368ZM746.613 194.566C746.613 193.302 747.541 192.47 748.821 192.47C750.069 192.47 750.997 193.302 750.997 194.566C750.997 195.814 750.069 196.646 748.821 196.646C747.541 196.646 746.613 195.814 746.613 194.566ZM755.173 193.59V195.542H752.421C752.517 195.238 752.565 194.918 752.565 194.566C752.565 194.214 752.517 193.894 752.437 193.59H755.173ZM755.173 196.87V198.774H756.821V190.246H755.173V192.246H751.685C751.013 191.526 750.005 191.078 748.821 191.078C746.661 191.078 745.045 192.518 745.045 194.566C745.045 196.598 746.661 198.038 748.821 198.038C749.989 198.038 751.013 197.606 751.685 196.87H755.173ZM752.005 203.414C749.957 203.414 748.757 202.886 748.757 201.894C748.757 200.934 749.957 200.39 752.005 200.39C754.069 200.39 755.253 200.934 755.253 201.894C755.253 202.886 754.069 203.414 752.005 203.414ZM752.005 199.094C748.997 199.094 747.141 200.134 747.141 201.894C747.141 203.67 748.997 204.71 752.005 204.71C755.013 204.71 756.885 203.67 756.885 201.894C756.885 200.134 755.013 199.094 752.005 199.094ZM760.138 191.782V193.126H765.29C765.002 196.454 763.21 198.998 759.418 200.822L760.298 202.134C765.258 199.734 766.986 196.086 766.986 191.782H760.138ZM769.594 190.262V204.71H771.242V190.262H769.594ZM775.103 196.71C777.599 196.39 779.535 195.238 780.303 193.638C781.087 195.238 783.039 196.39 785.551 196.71L786.159 195.398C783.455 195.078 781.551 193.734 781.423 192.262H785.663V190.934H774.991V192.262H779.199C779.071 193.734 777.199 195.078 774.479 195.398L775.103 196.71ZM777.023 200.31H775.375V204.438H785.423V203.094H777.023V200.31ZM773.775 197.59V198.918H779.631V201.638H781.279V198.918H786.879V197.59H773.775Z" fill="#222222"/>
<circle cx="489.371" cy="383" r="73" fill="white"/>
<circle cx="489.371" cy="383" r="71.5" stroke="#7094F0" stroke-opacity="0.3" stroke-width="3"/>
<path d="M473.54 376.734H471.892V379.102C471.892 381.886 470.388 384.654 468.084 385.694L469.06 387.07C470.804 386.222 472.084 384.51 472.74 382.414C473.396 384.366 474.66 385.966 476.324 386.75L477.284 385.438C475.012 384.414 473.54 381.758 473.54 379.102V376.734ZM478.436 375.518V390.014H480.1V375.518H478.436ZM495.209 382.59C492.361 382.078 490.041 379.854 490.041 377.55V376.462H488.297V377.55C488.297 379.838 485.977 382.062 483.129 382.59L483.833 383.95C486.185 383.47 488.217 381.966 489.161 379.982C490.105 381.966 492.137 383.47 494.489 383.95L495.209 382.59ZM482.681 386.766V388.126H495.769V386.766H482.681ZM505.022 384.078H506.558V375.758H505.022V379.086H503.31V380.414H505.022V384.078ZM503.806 381.806C502.382 382.062 501.166 382.142 499.342 382.158V380.526H502.67V379.262H499.342V377.758H503.198V376.43H497.758V383.47H498.702C500.942 383.47 502.318 383.422 503.966 383.118L503.806 381.806ZM501.39 386.142H507.774V388.494H501.39V386.142ZM499.758 389.806H509.374V384.83H499.758V389.806ZM507.806 375.518V384.206H509.374V375.518H507.806Z" fill="#222222"/>
<circle cx="690.783" cy="383" r="73" fill="white"/>
<circle cx="690.783" cy="383" r="71.5" stroke="#7094F0" stroke-opacity="0.3" stroke-width="3"/>
<path d="M669.905 382.942H666.577V378.222H669.905V382.942ZM664.929 382.942H662.849V384.286H673.633V382.942H671.537V378.222H673.665V376.894H662.801V378.222H664.929V382.942ZM661.713 386.846V388.206H674.833V386.846H661.713ZM683.542 386.926V384.462H688.054V383.134H679.398V381.118H687.734V376.542H677.75V377.87H686.102V379.806H677.782V384.462H681.894V386.926H676.198V388.286H689.286V386.926H683.542ZM695.099 376.862H693.499V379.47C693.499 381.934 692.507 384.526 690.459 385.742L691.467 386.99C692.859 386.142 693.803 384.622 694.315 382.846C694.811 384.462 695.675 385.87 696.987 386.67L697.915 385.39C695.979 384.174 695.099 381.726 695.099 379.39V376.862ZM698.491 380.59H696.363V381.934H698.491V389.31H700.043V375.806H698.491V380.59ZM701.435 375.534V389.982H703.003V375.534H701.435ZM717.664 382.59C714.816 382.078 712.496 379.854 712.496 377.55V376.462H710.752V377.55C710.752 379.838 708.432 382.062 705.584 382.59L706.288 383.95C708.64 383.47 710.672 381.966 711.616 379.982C712.56 381.966 714.592 383.47 716.944 383.95L717.664 382.59ZM705.136 386.766V388.126H718.224V386.766H705.136Z" fill="#222222"/>
<path d="M536.157 245.094C538.227 245.094 539.991 244.356 541.161 242.988L539.649 241.548C538.731 242.556 537.597 243.042 536.283 243.042C533.673 243.042 531.783 241.206 531.783 238.614C531.783 236.022 533.673 234.186 536.283 234.186C537.597 234.186 538.731 234.672 539.649 235.662L541.161 234.24C539.991 232.872 538.227 232.134 536.175 232.134C532.305 232.134 529.425 234.852 529.425 238.614C529.425 242.376 532.305 245.094 536.157 245.094ZM548.775 245.094C552.681 245.094 555.561 242.358 555.561 238.614C555.561 234.87 552.681 232.134 548.775 232.134C544.869 232.134 541.989 234.888 541.989 238.614C541.989 242.34 544.869 245.094 548.775 245.094ZM548.775 243.042C546.237 243.042 544.347 241.188 544.347 238.614C544.347 236.04 546.237 234.186 548.775 234.186C551.313 234.186 553.203 236.04 553.203 238.614C553.203 241.188 551.313 243.042 548.775 243.042ZM571.58 244.914L571.562 232.314H569.636L564.722 240.666L559.718 232.314H557.792V244.914H560.024V236.67L564.164 243.474H565.208L569.348 236.562L569.366 244.914H571.58ZM579.917 232.314H574.733V244.914H577.073V241.278H579.917C583.229 241.278 585.281 239.568 585.281 236.796C585.281 234.006 583.229 232.314 579.917 232.314ZM579.809 239.298H577.073V234.294H579.809C581.861 234.294 582.923 235.212 582.923 236.796C582.923 238.38 581.861 239.298 579.809 239.298ZM587.368 244.914H596.296V242.934H589.708V232.314H587.368V244.914ZM597.893 244.914H600.233V232.314H597.893V244.914ZM612.823 244.914H615.271L609.583 232.314H607.279L601.609 244.914H604.021L605.263 241.998H611.563L612.823 244.914ZM606.055 240.162L608.413 234.654L610.789 240.162H606.055ZM625.498 232.314V240.846L618.55 232.314H616.624V244.914H618.946V236.382L625.894 244.914H627.82V232.314H625.498ZM636.778 245.094C638.848 245.094 640.612 244.356 641.782 242.988L640.27 241.548C639.352 242.556 638.218 243.042 636.904 243.042C634.294 243.042 632.404 241.206 632.404 238.614C632.404 236.022 634.294 234.186 636.904 234.186C638.218 234.186 639.352 234.672 640.27 235.662L641.782 234.24C640.612 232.872 638.848 232.134 636.796 232.134C632.926 232.134 630.046 234.852 630.046 238.614C630.046 242.376 632.926 245.094 636.778 245.094ZM646.114 242.952V239.478H652.198V237.552H646.114V234.276H652.972V232.314H643.774V244.914H653.224V242.952H646.114ZM549.539 256.314H544.355V268.914H546.695V265.278H549.539C552.851 265.278 554.903 263.568 554.903 260.796C554.903 258.006 552.851 256.314 549.539 256.314ZM549.431 263.298H546.695V258.294H549.431C551.483 258.294 552.545 259.212 552.545 260.796C552.545 262.38 551.483 263.298 549.431 263.298ZM567.754 268.914L564.856 264.774C566.566 264.108 567.538 262.704 567.538 260.796C567.538 258.006 565.486 256.314 562.174 256.314H556.99V268.914H559.33V265.242H562.174C562.336 265.242 562.498 265.242 562.66 265.224L565.234 268.914H567.754ZM565.18 260.796C565.18 262.38 564.118 263.316 562.066 263.316H559.33V258.294H562.066C564.118 258.294 565.18 259.212 565.18 260.796ZM575.792 269.094C579.698 269.094 582.578 266.358 582.578 262.614C582.578 258.87 579.698 256.134 575.792 256.134C571.886 256.134 569.006 258.888 569.006 262.614C569.006 266.34 571.886 269.094 575.792 269.094ZM575.792 267.042C573.254 267.042 571.364 265.188 571.364 262.614C571.364 260.04 573.254 258.186 575.792 258.186C578.33 258.186 580.22 260.04 580.22 262.614C580.22 265.188 578.33 267.042 575.792 267.042ZM593.412 266.394C592.602 266.862 591.72 267.042 590.82 267.042C588.156 267.042 586.266 265.17 586.266 262.614C586.266 260.004 588.156 258.186 590.838 258.186C592.188 258.186 593.322 258.636 594.312 259.626L595.788 258.186C594.6 256.836 592.836 256.134 590.73 256.134C586.788 256.134 583.908 258.852 583.908 262.614C583.908 266.376 586.788 269.094 590.694 269.094C592.476 269.094 594.312 268.554 595.626 267.492V262.47H593.412V266.394ZM609.227 268.914L606.329 264.774C608.039 264.108 609.011 262.704 609.011 260.796C609.011 258.006 606.959 256.314 603.647 256.314H598.463V268.914H600.803V265.242H603.647C603.809 265.242 603.971 265.242 604.133 265.224L606.707 268.914H609.227ZM606.653 260.796C606.653 262.38 605.591 263.316 603.539 263.316H600.803V258.294H603.539C605.591 258.294 606.653 259.212 606.653 260.796ZM620.811 268.914H623.259L617.571 256.314H615.267L609.597 268.914H612.009L613.251 265.998H619.551L620.811 268.914ZM614.043 264.162L616.401 258.654L618.777 264.162H614.043ZM638.399 268.914L638.381 256.314H636.455L631.541 264.666L626.537 256.314H624.611V268.914H626.843V260.67L630.983 267.474H632.027L636.167 260.562L636.185 268.914H638.399Z" fill="#435CE7"/>
</svg>
