<svg width="1200" height="100" viewBox="0 0 1200 100" fill="none" xmlns="http://www.w3.org/2000/svg">
<path d="M1064 50.0001L133 50" stroke="#EEEEEE" stroke-linecap="round" stroke-linejoin="round"/>
<rect width="277" height="100" rx="10" fill="#435CE7"/>
<path d="M73.688 55.096C72.8453 55.096 72.0667 54.9573 71.352 54.68C70.6373 54.392 70.0187 53.992 69.496 53.48C68.9733 52.968 68.5627 52.3653 68.264 51.672C67.976 50.9787 67.832 50.2213 67.832 49.4C67.832 48.5787 67.976 47.8213 68.264 47.128C68.5627 46.4347 68.9733 45.832 69.496 45.32C70.0293 44.808 70.6533 44.4133 71.368 44.136C72.0827 43.848 72.8613 43.704 73.704 43.704C74.5147 43.704 75.2773 43.8427 75.992 44.12C76.7067 44.3867 77.3093 44.792 77.8 45.336L77.048 46.088C76.5893 45.6187 76.0827 45.2827 75.528 45.08C74.9733 44.8667 74.376 44.76 73.736 44.76C73.064 44.76 72.44 44.8773 71.864 45.112C71.288 45.336 70.7867 45.6613 70.36 46.088C69.9333 46.504 69.5973 46.9947 69.352 47.56C69.1173 48.1147 69 48.728 69 49.4C69 50.072 69.1173 50.6907 69.352 51.256C69.5973 51.8107 69.9333 52.3013 70.36 52.728C70.7867 53.144 71.288 53.4693 71.864 53.704C72.44 53.928 73.064 54.04 73.736 54.04C74.376 54.04 74.9733 53.9333 75.528 53.72C76.0827 53.5067 76.5893 53.1653 77.048 52.696L77.8 53.448C77.3093 53.992 76.7067 54.4027 75.992 54.68C75.2773 54.9573 74.5093 55.096 73.688 55.096ZM82.883 55.08C82.0723 55.08 81.3417 54.8987 80.691 54.536C80.051 54.1627 79.5443 53.656 79.171 53.016C78.7977 52.3653 78.611 51.624 78.611 50.792C78.611 49.9493 78.7977 49.208 79.171 48.568C79.5443 47.928 80.051 47.4267 80.691 47.064C81.331 46.7013 82.0617 46.52 82.883 46.52C83.715 46.52 84.451 46.7013 85.091 47.064C85.7417 47.4267 86.2483 47.928 86.611 48.568C86.9843 49.208 87.171 49.9493 87.171 50.792C87.171 51.624 86.9843 52.3653 86.611 53.016C86.2483 53.656 85.7417 54.1627 85.091 54.536C84.4403 54.8987 83.7043 55.08 82.883 55.08ZM82.883 54.072C83.491 54.072 84.0297 53.9387 84.499 53.672C84.9683 53.3947 85.3363 53.0107 85.603 52.52C85.8803 52.0187 86.019 51.4427 86.019 50.792C86.019 50.1307 85.8803 49.5547 85.603 49.064C85.3363 48.5733 84.9683 48.1947 84.499 47.928C84.0297 47.6507 83.4963 47.512 82.899 47.512C82.3017 47.512 81.7683 47.6507 81.299 47.928C80.8297 48.1947 80.4563 48.5733 80.179 49.064C79.9017 49.5547 79.763 50.1307 79.763 50.792C79.763 51.4427 79.9017 52.0187 80.179 52.52C80.4563 53.0107 80.8297 53.3947 81.299 53.672C81.7683 53.9387 82.2963 54.072 82.883 54.072ZM99.7363 46.52C100.419 46.52 101.011 46.6533 101.512 46.92C102.024 47.176 102.419 47.5707 102.696 48.104C102.984 48.6373 103.128 49.3093 103.128 50.12V55H101.992V50.232C101.992 49.3467 101.779 48.68 101.352 48.232C100.936 47.7733 100.344 47.544 99.5763 47.544C99.0003 47.544 98.4989 47.6667 98.0723 47.912C97.6563 48.1467 97.3309 48.4933 97.0963 48.952C96.8723 49.4 96.7603 49.944 96.7603 50.584V55H95.6243V50.232C95.6243 49.3467 95.4109 48.68 94.9843 48.232C94.5576 47.7733 93.9603 47.544 93.1923 47.544C92.6269 47.544 92.1309 47.6667 91.7043 47.912C91.2776 48.1467 90.9469 48.4933 90.7123 48.952C90.4883 49.4 90.3763 49.944 90.3763 50.584V55H89.2403V46.6H90.3283V48.872L90.1523 48.472C90.4083 47.864 90.8189 47.3893 91.3843 47.048C91.9603 46.696 92.6376 46.52 93.4163 46.52C94.2376 46.52 94.9363 46.728 95.5123 47.144C96.0883 47.5493 96.4616 48.1627 96.6323 48.984L96.1843 48.808C96.4296 48.1253 96.8616 47.576 97.4803 47.16C98.1096 46.7333 98.8616 46.52 99.7363 46.52ZM110.295 55.08C109.57 55.08 108.914 54.9147 108.327 54.584C107.74 54.2427 107.271 53.7573 106.919 53.128C106.578 52.488 106.407 51.7093 106.407 50.792C106.407 49.8747 106.578 49.1013 106.919 48.472C107.26 47.832 107.724 47.3467 108.311 47.016C108.898 46.6853 109.559 46.52 110.295 46.52C111.095 46.52 111.81 46.7013 112.439 47.064C113.079 47.416 113.58 47.9173 113.943 48.568C114.306 49.208 114.487 49.9493 114.487 50.792C114.487 51.6453 114.306 52.392 113.943 53.032C113.58 53.672 113.079 54.1733 112.439 54.536C111.81 54.8987 111.095 55.08 110.295 55.08ZM105.959 58.104V46.6H107.047V49.128L106.935 50.808L107.095 52.504V58.104H105.959ZM110.215 54.072C110.812 54.072 111.346 53.9387 111.815 53.672C112.284 53.3947 112.658 53.0107 112.935 52.52C113.212 52.0187 113.351 51.4427 113.351 50.792C113.351 50.1413 113.212 49.5707 112.935 49.08C112.658 48.5893 112.284 48.2053 111.815 47.928C111.346 47.6507 110.812 47.512 110.215 47.512C109.618 47.512 109.079 47.6507 108.599 47.928C108.13 48.2053 107.756 48.5893 107.479 49.08C107.212 49.5707 107.079 50.1413 107.079 50.792C107.079 51.4427 107.212 52.0187 107.479 52.52C107.756 53.0107 108.13 53.3947 108.599 53.672C109.079 53.9387 109.618 54.072 110.215 54.072ZM116.553 55V43.128H117.689V55H116.553ZM120.6 55V46.6H121.736V55H120.6ZM121.176 44.744C120.941 44.744 120.744 44.664 120.584 44.504C120.424 44.344 120.344 44.152 120.344 43.928C120.344 43.704 120.424 43.5173 120.584 43.368C120.744 43.208 120.941 43.128 121.176 43.128C121.41 43.128 121.608 43.2027 121.768 43.352C121.928 43.5013 122.008 43.688 122.008 43.912C122.008 44.1467 121.928 44.344 121.768 44.504C121.618 44.664 121.421 44.744 121.176 44.744ZM129.911 55V53.144L129.863 52.84V49.736C129.863 49.0213 129.66 48.472 129.255 48.088C128.86 47.704 128.268 47.512 127.479 47.512C126.935 47.512 126.417 47.6027 125.927 47.784C125.436 47.9653 125.02 48.2053 124.679 48.504L124.167 47.656C124.593 47.2933 125.105 47.016 125.703 46.824C126.3 46.6213 126.929 46.52 127.591 46.52C128.679 46.52 129.516 46.792 130.103 47.336C130.7 47.8693 130.999 48.6853 130.999 49.784V55H129.911ZM127.015 55.08C126.385 55.08 125.836 54.9787 125.367 54.776C124.908 54.5627 124.556 54.2747 124.311 53.912C124.065 53.5387 123.943 53.112 123.943 52.632C123.943 52.1947 124.044 51.8 124.247 51.448C124.46 51.0853 124.801 50.7973 125.271 50.584C125.751 50.36 126.391 50.248 127.191 50.248H130.087V51.096H127.223C126.412 51.096 125.847 51.24 125.527 51.528C125.217 51.816 125.062 52.1733 125.062 52.6C125.062 53.08 125.249 53.464 125.623 53.752C125.996 54.04 126.519 54.184 127.191 54.184C127.831 54.184 128.38 54.04 128.839 53.752C129.308 53.4533 129.649 53.0267 129.863 52.472L130.119 53.256C129.905 53.8107 129.532 54.2533 128.999 54.584C128.476 54.9147 127.815 55.08 127.015 55.08ZM138.122 46.52C138.805 46.52 139.402 46.6533 139.914 46.92C140.437 47.176 140.842 47.5707 141.13 48.104C141.429 48.6373 141.578 49.3093 141.578 50.12V55H140.442V50.232C140.442 49.3467 140.218 48.68 139.77 48.232C139.333 47.7733 138.714 47.544 137.914 47.544C137.317 47.544 136.794 47.6667 136.346 47.912C135.909 48.1467 135.567 48.4933 135.322 48.952C135.087 49.4 134.97 49.944 134.97 50.584V55H133.834V46.6H134.922V48.904L134.746 48.472C135.013 47.864 135.439 47.3893 136.026 47.048C136.613 46.696 137.311 46.52 138.122 46.52ZM147.885 55.08C147.053 55.08 146.306 54.8987 145.645 54.536C144.994 54.1627 144.482 53.656 144.109 53.016C143.735 52.3653 143.549 51.624 143.549 50.792C143.549 49.9493 143.735 49.208 144.109 48.568C144.482 47.928 144.994 47.4267 145.645 47.064C146.306 46.7013 147.053 46.52 147.885 46.52C148.599 46.52 149.245 46.6587 149.821 46.936C150.397 47.2133 150.85 47.6293 151.181 48.184L150.333 48.76C150.045 48.3333 149.687 48.0187 149.261 47.816C148.834 47.6133 148.37 47.512 147.869 47.512C147.271 47.512 146.733 47.6507 146.253 47.928C145.773 48.1947 145.394 48.5733 145.117 49.064C144.839 49.5547 144.701 50.1307 144.701 50.792C144.701 51.4533 144.839 52.0293 145.117 52.52C145.394 53.0107 145.773 53.3947 146.253 53.672C146.733 53.9387 147.271 54.072 147.869 54.072C148.37 54.072 148.834 53.9707 149.261 53.768C149.687 53.5653 150.045 53.256 150.333 52.84L151.181 53.416C150.85 53.96 150.397 54.376 149.821 54.664C149.245 54.9413 148.599 55.08 147.885 55.08ZM156.59 55.08C155.715 55.08 154.947 54.8987 154.286 54.536C153.624 54.1627 153.107 53.656 152.734 53.016C152.36 52.3653 152.174 51.624 152.174 50.792C152.174 49.96 152.35 49.224 152.702 48.584C153.064 47.944 153.555 47.4427 154.174 47.08C154.803 46.7067 155.507 46.52 156.286 46.52C157.075 46.52 157.774 46.7013 158.382 47.064C159 47.416 159.486 47.9173 159.838 48.568C160.19 49.208 160.366 49.9493 160.366 50.792C160.366 50.8453 160.36 50.904 160.35 50.968C160.35 51.0213 160.35 51.08 160.35 51.144H153.038V50.296H159.742L159.294 50.632C159.294 50.024 159.16 49.4853 158.894 49.016C158.638 48.536 158.286 48.1627 157.838 47.896C157.39 47.6293 156.872 47.496 156.286 47.496C155.71 47.496 155.192 47.6293 154.734 47.896C154.275 48.1627 153.918 48.536 153.662 49.016C153.406 49.496 153.278 50.0453 153.278 50.664V50.84C153.278 51.48 153.416 52.0453 153.694 52.536C153.982 53.016 154.376 53.3947 154.878 53.672C155.39 53.9387 155.971 54.072 156.622 54.072C157.134 54.072 157.608 53.9813 158.046 53.8C158.494 53.6187 158.878 53.3413 159.198 52.968L159.838 53.704C159.464 54.152 158.995 54.4933 158.43 54.728C157.875 54.9627 157.262 55.08 156.59 55.08ZM166.605 55V43.8H170.797C171.747 43.8 172.563 43.9547 173.245 44.264C173.928 44.5627 174.451 45 174.813 45.576C175.187 46.1413 175.373 46.8293 175.373 47.64C175.373 48.4293 175.187 49.112 174.813 49.688C174.451 50.2533 173.928 50.6907 173.245 51C172.563 51.3093 171.747 51.464 170.797 51.464H167.261L167.789 50.904V55H166.605ZM167.789 51L167.261 50.424H170.765C171.885 50.424 172.733 50.184 173.309 49.704C173.896 49.2133 174.189 48.5253 174.189 47.64C174.189 46.744 173.896 46.0507 173.309 45.56C172.733 45.0693 171.885 44.824 170.765 44.824H167.261L167.789 44.264V51ZM180.821 55.08C180.01 55.08 179.279 54.8987 178.629 54.536C177.989 54.1627 177.482 53.656 177.109 53.016C176.735 52.3653 176.549 51.624 176.549 50.792C176.549 49.9493 176.735 49.208 177.109 48.568C177.482 47.928 177.989 47.4267 178.629 47.064C179.269 46.7013 179.999 46.52 180.821 46.52C181.653 46.52 182.389 46.7013 183.029 47.064C183.679 47.4267 184.186 47.928 184.549 48.568C184.922 49.208 185.109 49.9493 185.109 50.792C185.109 51.624 184.922 52.3653 184.549 53.016C184.186 53.656 183.679 54.1627 183.029 54.536C182.378 54.8987 181.642 55.08 180.821 55.08ZM180.821 54.072C181.429 54.072 181.967 53.9387 182.437 53.672C182.906 53.3947 183.274 53.0107 183.541 52.52C183.818 52.0187 183.957 51.4427 183.957 50.792C183.957 50.1307 183.818 49.5547 183.541 49.064C183.274 48.5733 182.906 48.1947 182.437 47.928C181.967 47.6507 181.434 47.512 180.837 47.512C180.239 47.512 179.706 47.6507 179.237 47.928C178.767 48.1947 178.394 48.5733 178.117 49.064C177.839 49.5547 177.701 50.1307 177.701 50.792C177.701 51.4427 177.839 52.0187 178.117 52.52C178.394 53.0107 178.767 53.3947 179.237 53.672C179.706 53.9387 180.234 54.072 180.821 54.072ZM187.178 55V43.128H188.314V55H187.178ZM191.225 55V46.6H192.361V55H191.225ZM191.801 44.744C191.566 44.744 191.369 44.664 191.209 44.504C191.049 44.344 190.969 44.152 190.969 43.928C190.969 43.704 191.049 43.5173 191.209 43.368C191.369 43.208 191.566 43.128 191.801 43.128C192.035 43.128 192.233 43.2027 192.393 43.352C192.553 43.5013 192.633 43.688 192.633 43.912C192.633 44.1467 192.553 44.344 192.393 44.504C192.243 44.664 192.046 44.744 191.801 44.744ZM198.76 55.08C197.928 55.08 197.181 54.8987 196.52 54.536C195.869 54.1627 195.357 53.656 194.984 53.016C194.61 52.3653 194.424 51.624 194.424 50.792C194.424 49.9493 194.61 49.208 194.984 48.568C195.357 47.928 195.869 47.4267 196.52 47.064C197.181 46.7013 197.928 46.52 198.76 46.52C199.474 46.52 200.12 46.6587 200.696 46.936C201.272 47.2133 201.725 47.6293 202.056 48.184L201.208 48.76C200.92 48.3333 200.562 48.0187 200.136 47.816C199.709 47.6133 199.245 47.512 198.744 47.512C198.146 47.512 197.608 47.6507 197.128 47.928C196.648 48.1947 196.269 48.5733 195.992 49.064C195.714 49.5547 195.576 50.1307 195.576 50.792C195.576 51.4533 195.714 52.0293 195.992 52.52C196.269 53.0107 196.648 53.3947 197.128 53.672C197.608 53.9387 198.146 54.072 198.744 54.072C199.245 54.072 199.709 53.9707 200.136 53.768C200.562 53.5653 200.92 53.256 201.208 52.84L202.056 53.416C201.725 53.96 201.272 54.376 200.696 54.664C200.12 54.9413 199.474 55.08 198.76 55.08ZM203.976 58.184C203.581 58.184 203.203 58.12 202.84 57.992C202.488 57.864 202.184 57.672 201.928 57.416L202.456 56.568C202.669 56.7707 202.899 56.9253 203.144 57.032C203.4 57.1493 203.683 57.208 203.992 57.208C204.365 57.208 204.685 57.1013 204.952 56.888C205.229 56.6853 205.491 56.3227 205.736 55.8L206.28 54.568L206.408 54.392L209.864 46.6H210.984L206.776 56.008C206.541 56.552 206.28 56.984 205.992 57.304C205.715 57.624 205.411 57.848 205.08 57.976C204.749 58.1147 204.381 58.184 203.976 58.184ZM206.216 55.24L202.344 46.6H203.528L206.952 54.312L206.216 55.24Z" fill="white"/>
<rect x="307.5" y="0.5" width="276" height="99" rx="9.5" fill="#F5F5F5" stroke="#EEEEEE"/>
<path d="M361.844 55.096C361.002 55.096 360.223 54.9573 359.508 54.68C358.794 54.392 358.175 53.992 357.652 53.48C357.13 52.968 356.719 52.3653 356.42 51.672C356.132 50.9787 355.988 50.2213 355.988 49.4C355.988 48.5787 356.132 47.8213 356.42 47.128C356.719 46.4347 357.13 45.832 357.652 45.32C358.186 44.808 358.81 44.4133 359.524 44.136C360.239 43.848 361.018 43.704 361.86 43.704C362.671 43.704 363.434 43.8427 364.148 44.12C364.863 44.3867 365.466 44.792 365.956 45.336L365.204 46.088C364.746 45.6187 364.239 45.2827 363.684 45.08C363.13 44.8667 362.532 44.76 361.892 44.76C361.22 44.76 360.596 44.8773 360.02 45.112C359.444 45.336 358.943 45.6613 358.516 46.088C358.09 46.504 357.754 46.9947 357.508 47.56C357.274 48.1147 357.156 48.728 357.156 49.4C357.156 50.072 357.274 50.6907 357.508 51.256C357.754 51.8107 358.09 52.3013 358.516 52.728C358.943 53.144 359.444 53.4693 360.02 53.704C360.596 53.928 361.22 54.04 361.892 54.04C362.532 54.04 363.13 53.9333 363.684 53.72C364.239 53.5067 364.746 53.1653 365.204 52.696L365.956 53.448C365.466 53.992 364.863 54.4027 364.148 54.68C363.434 54.9573 362.666 55.096 361.844 55.096ZM371.039 55.08C370.229 55.08 369.498 54.8987 368.847 54.536C368.207 54.1627 367.701 53.656 367.327 53.016C366.954 52.3653 366.767 51.624 366.767 50.792C366.767 49.9493 366.954 49.208 367.327 48.568C367.701 47.928 368.207 47.4267 368.847 47.064C369.487 46.7013 370.218 46.52 371.039 46.52C371.871 46.52 372.607 46.7013 373.247 47.064C373.898 47.4267 374.405 47.928 374.767 48.568C375.141 49.208 375.327 49.9493 375.327 50.792C375.327 51.624 375.141 52.3653 374.767 53.016C374.405 53.656 373.898 54.1627 373.247 54.536C372.597 54.8987 371.861 55.08 371.039 55.08ZM371.039 54.072C371.647 54.072 372.186 53.9387 372.655 53.672C373.125 53.3947 373.493 53.0107 373.759 52.52C374.037 52.0187 374.175 51.4427 374.175 50.792C374.175 50.1307 374.037 49.5547 373.759 49.064C373.493 48.5733 373.125 48.1947 372.655 47.928C372.186 47.6507 371.653 47.512 371.055 47.512C370.458 47.512 369.925 47.6507 369.455 47.928C368.986 48.1947 368.613 48.5733 368.335 49.064C368.058 49.5547 367.919 50.1307 367.919 50.792C367.919 51.4427 368.058 52.0187 368.335 52.52C368.613 53.0107 368.986 53.3947 369.455 53.672C369.925 53.9387 370.453 54.072 371.039 54.072ZM387.893 46.52C388.575 46.52 389.167 46.6533 389.669 46.92C390.181 47.176 390.575 47.5707 390.853 48.104C391.141 48.6373 391.285 49.3093 391.285 50.12V55H390.149V50.232C390.149 49.3467 389.935 48.68 389.509 48.232C389.093 47.7733 388.501 47.544 387.733 47.544C387.157 47.544 386.655 47.6667 386.229 47.912C385.813 48.1467 385.487 48.4933 385.253 48.952C385.029 49.4 384.917 49.944 384.917 50.584V55H383.781V50.232C383.781 49.3467 383.567 48.68 383.141 48.232C382.714 47.7733 382.117 47.544 381.349 47.544C380.783 47.544 380.287 47.6667 379.861 47.912C379.434 48.1467 379.103 48.4933 378.869 48.952C378.645 49.4 378.533 49.944 378.533 50.584V55H377.397V46.6H378.485V48.872L378.309 48.472C378.565 47.864 378.975 47.3893 379.541 47.048C380.117 46.696 380.794 46.52 381.573 46.52C382.394 46.52 383.093 46.728 383.669 47.144C384.245 47.5493 384.618 48.1627 384.789 48.984L384.341 48.808C384.586 48.1253 385.018 47.576 385.637 47.16C386.266 46.7333 387.018 46.52 387.893 46.52ZM398.451 55.08C397.726 55.08 397.07 54.9147 396.483 54.584C395.897 54.2427 395.427 53.7573 395.075 53.128C394.734 52.488 394.563 51.7093 394.563 50.792C394.563 49.8747 394.734 49.1013 395.075 48.472C395.417 47.832 395.881 47.3467 396.467 47.016C397.054 46.6853 397.715 46.52 398.451 46.52C399.251 46.52 399.966 46.7013 400.595 47.064C401.235 47.416 401.737 47.9173 402.099 48.568C402.462 49.208 402.643 49.9493 402.643 50.792C402.643 51.6453 402.462 52.392 402.099 53.032C401.737 53.672 401.235 54.1733 400.595 54.536C399.966 54.8987 399.251 55.08 398.451 55.08ZM394.115 58.104V46.6H395.203V49.128L395.091 50.808L395.251 52.504V58.104H394.115ZM398.371 54.072C398.969 54.072 399.502 53.9387 399.971 53.672C400.441 53.3947 400.814 53.0107 401.091 52.52C401.369 52.0187 401.507 51.4427 401.507 50.792C401.507 50.1413 401.369 49.5707 401.091 49.08C400.814 48.5893 400.441 48.2053 399.971 47.928C399.502 47.6507 398.969 47.512 398.371 47.512C397.774 47.512 397.235 47.6507 396.755 47.928C396.286 48.2053 395.913 48.5893 395.635 49.08C395.369 49.5707 395.235 50.1413 395.235 50.792C395.235 51.4427 395.369 52.0187 395.635 52.52C395.913 53.0107 396.286 53.3947 396.755 53.672C397.235 53.9387 397.774 54.072 398.371 54.072ZM404.709 55V43.128H405.845V55H404.709ZM408.756 55V46.6H409.892V55H408.756ZM409.332 44.744C409.097 44.744 408.9 44.664 408.74 44.504C408.58 44.344 408.5 44.152 408.5 43.928C408.5 43.704 408.58 43.5173 408.74 43.368C408.9 43.208 409.097 43.128 409.332 43.128C409.567 43.128 409.764 43.2027 409.924 43.352C410.084 43.5013 410.164 43.688 410.164 43.912C410.164 44.1467 410.084 44.344 409.924 44.504C409.775 44.664 409.577 44.744 409.332 44.744ZM418.067 55V53.144L418.019 52.84V49.736C418.019 49.0213 417.816 48.472 417.411 48.088C417.016 47.704 416.424 47.512 415.635 47.512C415.091 47.512 414.573 47.6027 414.083 47.784C413.592 47.9653 413.176 48.2053 412.835 48.504L412.323 47.656C412.749 47.2933 413.261 47.016 413.859 46.824C414.456 46.6213 415.085 46.52 415.747 46.52C416.835 46.52 417.672 46.792 418.259 47.336C418.856 47.8693 419.155 48.6853 419.155 49.784V55H418.067ZM415.171 55.08C414.541 55.08 413.992 54.9787 413.523 54.776C413.064 54.5627 412.712 54.2747 412.467 53.912C412.221 53.5387 412.099 53.112 412.099 52.632C412.099 52.1947 412.2 51.8 412.403 51.448C412.616 51.0853 412.957 50.7973 413.427 50.584C413.907 50.36 414.547 50.248 415.347 50.248H418.243V51.096H415.379C414.568 51.096 414.003 51.24 413.683 51.528C413.373 51.816 413.219 52.1733 413.219 52.6C413.219 53.08 413.405 53.464 413.779 53.752C414.152 54.04 414.675 54.184 415.347 54.184C415.987 54.184 416.536 54.04 416.995 53.752C417.464 53.4533 417.805 53.0267 418.019 52.472L418.275 53.256C418.061 53.8107 417.688 54.2533 417.155 54.584C416.632 54.9147 415.971 55.08 415.171 55.08ZM426.278 46.52C426.961 46.52 427.558 46.6533 428.07 46.92C428.593 47.176 428.998 47.5707 429.286 48.104C429.585 48.6373 429.734 49.3093 429.734 50.12V55H428.598V50.232C428.598 49.3467 428.374 48.68 427.926 48.232C427.489 47.7733 426.87 47.544 426.07 47.544C425.473 47.544 424.95 47.6667 424.502 47.912C424.065 48.1467 423.724 48.4933 423.478 48.952C423.244 49.4 423.126 49.944 423.126 50.584V55H421.99V46.6H423.078V48.904L422.902 48.472C423.169 47.864 423.596 47.3893 424.182 47.048C424.769 46.696 425.468 46.52 426.278 46.52ZM436.041 55.08C435.209 55.08 434.462 54.8987 433.801 54.536C433.15 54.1627 432.638 53.656 432.265 53.016C431.891 52.3653 431.705 51.624 431.705 50.792C431.705 49.9493 431.891 49.208 432.265 48.568C432.638 47.928 433.15 47.4267 433.801 47.064C434.462 46.7013 435.209 46.52 436.041 46.52C436.755 46.52 437.401 46.6587 437.977 46.936C438.553 47.2133 439.006 47.6293 439.337 48.184L438.489 48.76C438.201 48.3333 437.843 48.0187 437.417 47.816C436.99 47.6133 436.526 47.512 436.025 47.512C435.427 47.512 434.889 47.6507 434.409 47.928C433.929 48.1947 433.55 48.5733 433.273 49.064C432.995 49.5547 432.857 50.1307 432.857 50.792C432.857 51.4533 432.995 52.0293 433.273 52.52C433.55 53.0107 433.929 53.3947 434.409 53.672C434.889 53.9387 435.427 54.072 436.025 54.072C436.526 54.072 436.99 53.9707 437.417 53.768C437.843 53.5653 438.201 53.256 438.489 52.84L439.337 53.416C439.006 53.96 438.553 54.376 437.977 54.664C437.401 54.9413 436.755 55.08 436.041 55.08ZM444.746 55.08C443.871 55.08 443.103 54.8987 442.442 54.536C441.78 54.1627 441.263 53.656 440.89 53.016C440.516 52.3653 440.33 51.624 440.33 50.792C440.33 49.96 440.506 49.224 440.858 48.584C441.22 47.944 441.711 47.4427 442.33 47.08C442.959 46.7067 443.663 46.52 444.442 46.52C445.231 46.52 445.93 46.7013 446.538 47.064C447.156 47.416 447.642 47.9173 447.994 48.568C448.346 49.208 448.522 49.9493 448.522 50.792C448.522 50.8453 448.516 50.904 448.506 50.968C448.506 51.0213 448.506 51.08 448.506 51.144H441.194V50.296H447.898L447.45 50.632C447.45 50.024 447.316 49.4853 447.05 49.016C446.794 48.536 446.442 48.1627 445.994 47.896C445.546 47.6293 445.028 47.496 444.442 47.496C443.866 47.496 443.348 47.6293 442.89 47.896C442.431 48.1627 442.074 48.536 441.818 49.016C441.562 49.496 441.434 50.0453 441.434 50.664V50.84C441.434 51.48 441.572 52.0453 441.85 52.536C442.138 53.016 442.532 53.3947 443.034 53.672C443.546 53.9387 444.127 54.072 444.778 54.072C445.29 54.072 445.764 53.9813 446.202 53.8C446.65 53.6187 447.034 53.3413 447.354 52.968L447.994 53.704C447.62 54.152 447.151 54.4933 446.586 54.728C446.031 54.9627 445.418 55.08 444.746 55.08ZM452.97 55L458.09 43.8H459.258L464.378 55H463.13L458.426 44.488H458.906L454.202 55H452.97ZM454.986 52.008L455.338 51.048H461.85L462.202 52.008H454.986ZM469.056 55.08C468.341 55.08 467.717 54.9467 467.184 54.68C466.651 54.4133 466.235 54.0133 465.936 53.48C465.648 52.9467 465.504 52.28 465.504 51.48V46.6H466.64V51.352C466.64 52.248 466.859 52.9253 467.296 53.384C467.744 53.832 468.368 54.056 469.168 54.056C469.755 54.056 470.261 53.9387 470.688 53.704C471.125 53.4587 471.456 53.1067 471.68 52.648C471.915 52.1893 472.032 51.64 472.032 51V46.6H473.168V55H472.08V52.696L472.256 53.112C471.989 53.7307 471.573 54.216 471.008 54.568C470.453 54.9093 469.803 55.08 469.056 55.08ZM479.428 55.08C478.628 55.08 477.908 54.8987 477.268 54.536C476.639 54.1733 476.143 53.672 475.78 53.032C475.417 52.3813 475.236 51.6347 475.236 50.792C475.236 49.9387 475.417 49.192 475.78 48.552C476.143 47.912 476.639 47.416 477.268 47.064C477.908 46.7013 478.628 46.52 479.428 46.52C480.164 46.52 480.82 46.6853 481.396 47.016C481.983 47.3467 482.447 47.832 482.788 48.472C483.14 49.1013 483.316 49.8747 483.316 50.792C483.316 51.6987 483.145 52.472 482.804 53.112C482.463 53.752 481.999 54.2427 481.412 54.584C480.836 54.9147 480.175 55.08 479.428 55.08ZM479.508 54.072C480.105 54.072 480.639 53.9387 481.108 53.672C481.588 53.3947 481.961 53.0107 482.228 52.52C482.505 52.0187 482.644 51.4427 482.644 50.792C482.644 50.1307 482.505 49.5547 482.228 49.064C481.961 48.5733 481.588 48.1947 481.108 47.928C480.639 47.6507 480.105 47.512 479.508 47.512C478.921 47.512 478.393 47.6507 477.924 47.928C477.455 48.1947 477.081 48.5733 476.804 49.064C476.527 49.5547 476.388 50.1307 476.388 50.792C476.388 51.4427 476.527 52.0187 476.804 52.52C477.081 53.0107 477.455 53.3947 477.924 53.672C478.393 53.9387 478.921 54.072 479.508 54.072ZM482.676 55V52.472L482.788 50.776L482.628 49.08V43.128H483.764V55H482.676ZM486.678 55V46.6H487.814V55H486.678ZM487.254 44.744C487.019 44.744 486.822 44.664 486.662 44.504C486.502 44.344 486.422 44.152 486.422 43.928C486.422 43.704 486.502 43.5173 486.662 43.368C486.822 43.208 487.019 43.128 487.254 43.128C487.488 43.128 487.686 43.2027 487.846 43.352C488.006 43.5013 488.086 43.688 488.086 43.912C488.086 44.1467 488.006 44.344 487.846 44.504C487.696 44.664 487.499 44.744 487.254 44.744ZM493.381 55.08C492.591 55.08 491.983 54.8667 491.557 54.44C491.13 54.0133 490.917 53.4107 490.917 52.632V44.744H492.053V52.568C492.053 53.0587 492.175 53.4373 492.421 53.704C492.677 53.9707 493.039 54.104 493.509 54.104C494.01 54.104 494.426 53.96 494.757 53.672L495.157 54.488C494.933 54.6907 494.661 54.84 494.341 54.936C494.031 55.032 493.711 55.08 493.381 55.08ZM489.413 47.544V46.6H494.613V47.544H489.413ZM501.152 55V43.8H505.344C506.293 43.8 507.109 43.9547 507.792 44.264C508.475 44.5627 508.997 45 509.36 45.576C509.733 46.1413 509.92 46.8293 509.92 47.64C509.92 48.4293 509.733 49.112 509.36 49.688C508.997 50.2533 508.475 50.6907 507.792 51C507.109 51.2987 506.293 51.448 505.344 51.448H501.808L502.336 50.904V55H501.152ZM508.8 55L505.92 50.936H507.2L510.096 55H508.8ZM502.336 51L501.808 50.44H505.312C506.432 50.44 507.28 50.1947 507.856 49.704C508.443 49.2133 508.736 48.5253 508.736 47.64C508.736 46.744 508.443 46.0507 507.856 45.56C507.28 45.0693 506.432 44.824 505.312 44.824H501.808L502.336 44.264V51ZM515.697 55.08C514.982 55.08 514.358 54.9467 513.825 54.68C513.291 54.4133 512.875 54.0133 512.577 53.48C512.289 52.9467 512.145 52.28 512.145 51.48V46.6H513.281V51.352C513.281 52.248 513.499 52.9253 513.937 53.384C514.385 53.832 515.009 54.056 515.809 54.056C516.395 54.056 516.902 53.9387 517.329 53.704C517.766 53.4587 518.097 53.1067 518.321 52.648C518.555 52.1893 518.673 51.64 518.673 51V46.6H519.809V55H518.721V52.696L518.897 53.112C518.63 53.7307 518.214 54.216 517.649 54.568C517.094 54.9093 516.443 55.08 515.697 55.08ZM522.725 55V43.128H523.861V55H522.725ZM530.34 55.08C529.465 55.08 528.697 54.8987 528.036 54.536C527.374 54.1627 526.857 53.656 526.484 53.016C526.11 52.3653 525.924 51.624 525.924 50.792C525.924 49.96 526.1 49.224 526.452 48.584C526.814 47.944 527.305 47.4427 527.924 47.08C528.553 46.7067 529.257 46.52 530.036 46.52C530.825 46.52 531.524 46.7013 532.132 47.064C532.75 47.416 533.236 47.9173 533.588 48.568C533.94 49.208 534.116 49.9493 534.116 50.792C534.116 50.8453 534.11 50.904 534.1 50.968C534.1 51.0213 534.1 51.08 534.1 51.144L526.788 51.144V50.296L533.492 50.296L533.044 50.632C533.044 50.024 532.91 49.4853 532.644 49.016C532.388 48.536 532.036 48.1627 531.588 47.896C531.14 47.6293 530.622 47.496 530.036 47.496C529.46 47.496 528.942 47.6293 528.484 47.896C528.025 48.1627 527.668 48.536 527.412 49.016C527.156 49.496 527.028 50.0453 527.028 50.664V50.84C527.028 51.48 527.166 52.0453 527.444 52.536C527.732 53.016 528.126 53.3947 528.628 53.672C529.14 53.9387 529.721 54.072 530.372 54.072C530.884 54.072 531.358 53.9813 531.796 53.8C532.244 53.6187 532.628 53.3413 532.948 52.968L533.588 53.704C533.214 54.152 532.745 54.4933 532.18 54.728C531.625 54.9627 531.012 55.08 530.34 55.08Z" fill="#666666"/>
<rect x="614.5" y="0.5" width="276" height="99" rx="9.5" fill="#F5F5F5" stroke="#EEEEEE"/>
<path d="M693.11 56.096C692.267 56.096 691.489 55.9573 690.774 55.68C690.059 55.392 689.441 54.992 688.918 54.48C688.395 53.968 687.985 53.3653 687.686 52.672C687.398 51.9787 687.254 51.2213 687.254 50.4C687.254 49.5787 687.398 48.8213 687.686 48.128C687.985 47.4347 688.395 46.832 688.918 46.32C689.451 45.808 690.075 45.4133 690.79 45.136C691.505 44.848 692.283 44.704 693.126 44.704C693.937 44.704 694.699 44.8427 695.414 45.12C696.129 45.3867 696.731 45.792 697.222 46.336L696.47 47.088C696.011 46.6187 695.505 46.2827 694.95 46.08C694.395 45.8667 693.798 45.76 693.158 45.76C692.486 45.76 691.862 45.8773 691.286 46.112C690.71 46.336 690.209 46.6613 689.782 47.088C689.355 47.504 689.019 47.9947 688.774 48.56C688.539 49.1147 688.422 49.728 688.422 50.4C688.422 51.072 688.539 51.6907 688.774 52.256C689.019 52.8107 689.355 53.3013 689.782 53.728C690.209 54.144 690.71 54.4693 691.286 54.704C691.862 54.928 692.486 55.04 693.158 55.04C693.798 55.04 694.395 54.9333 694.95 54.72C695.505 54.5067 696.011 54.1653 696.47 53.696L697.222 54.448C696.731 54.992 696.129 55.4027 695.414 55.68C694.699 55.9573 693.931 56.096 693.11 56.096ZM702.305 56.08C701.494 56.08 700.764 55.8987 700.113 55.536C699.473 55.1627 698.966 54.656 698.593 54.016C698.22 53.3653 698.033 52.624 698.033 51.792C698.033 50.9493 698.22 50.208 698.593 49.568C698.966 48.928 699.473 48.4267 700.113 48.064C700.753 47.7013 701.484 47.52 702.305 47.52C703.137 47.52 703.873 47.7013 704.513 48.064C705.164 48.4267 705.67 48.928 706.033 49.568C706.406 50.208 706.593 50.9493 706.593 51.792C706.593 52.624 706.406 53.3653 706.033 54.016C705.67 54.656 705.164 55.1627 704.513 55.536C703.862 55.8987 703.126 56.08 702.305 56.08ZM702.305 55.072C702.913 55.072 703.452 54.9387 703.921 54.672C704.39 54.3947 704.758 54.0107 705.025 53.52C705.302 53.0187 705.441 52.4427 705.441 51.792C705.441 51.1307 705.302 50.5547 705.025 50.064C704.758 49.5733 704.39 49.1947 703.921 48.928C703.452 48.6507 702.918 48.512 702.321 48.512C701.724 48.512 701.19 48.6507 700.721 48.928C700.252 49.1947 699.878 49.5733 699.601 50.064C699.324 50.5547 699.185 51.1307 699.185 51.792C699.185 52.4427 699.324 53.0187 699.601 53.52C699.878 54.0107 700.252 54.3947 700.721 54.672C701.19 54.9387 701.718 55.072 702.305 55.072ZM712.006 56.08C711.206 56.08 710.486 55.8987 709.846 55.536C709.217 55.1733 708.721 54.672 708.358 54.032C707.995 53.3813 707.814 52.6347 707.814 51.792C707.814 50.9387 707.995 50.192 708.358 49.552C708.721 48.912 709.217 48.416 709.846 48.064C710.486 47.7013 711.206 47.52 712.006 47.52C712.742 47.52 713.398 47.6853 713.974 48.016C714.561 48.3467 715.025 48.832 715.366 49.472C715.718 50.1013 715.894 50.8747 715.894 51.792C715.894 52.6987 715.723 53.472 715.382 54.112C715.041 54.752 714.577 55.2427 713.99 55.584C713.414 55.9147 712.753 56.08 712.006 56.08ZM712.086 55.072C712.683 55.072 713.217 54.9387 713.686 54.672C714.166 54.3947 714.539 54.0107 714.806 53.52C715.083 53.0187 715.222 52.4427 715.222 51.792C715.222 51.1307 715.083 50.5547 714.806 50.064C714.539 49.5733 714.166 49.1947 713.686 48.928C713.217 48.6507 712.683 48.512 712.086 48.512C711.499 48.512 710.971 48.6507 710.502 48.928C710.033 49.1947 709.659 49.5733 709.382 50.064C709.105 50.5547 708.966 51.1307 708.966 51.792C708.966 52.4427 709.105 53.0187 709.382 53.52C709.659 54.0107 710.033 54.3947 710.502 54.672C710.971 54.9387 711.499 55.072 712.086 55.072ZM715.254 56V53.472L715.366 51.776L715.206 50.08V44.128H716.342V56H715.254ZM722.824 56.08C721.949 56.08 721.181 55.8987 720.52 55.536C719.859 55.1627 719.341 54.656 718.968 54.016C718.595 53.3653 718.408 52.624 718.408 51.792C718.408 50.96 718.584 50.224 718.936 49.584C719.299 48.944 719.789 48.4427 720.408 48.08C721.037 47.7067 721.741 47.52 722.52 47.52C723.309 47.52 724.008 47.7013 724.616 48.064C725.235 48.416 725.72 48.9173 726.072 49.568C726.424 50.208 726.6 50.9493 726.6 51.792C726.6 51.8453 726.595 51.904 726.584 51.968C726.584 52.0213 726.584 52.08 726.584 52.144L719.272 52.144V51.296L725.976 51.296L725.528 51.632C725.528 51.024 725.395 50.4853 725.128 50.016C724.872 49.536 724.52 49.1627 724.072 48.896C723.624 48.6293 723.107 48.496 722.52 48.496C721.944 48.496 721.427 48.6293 720.968 48.896C720.509 49.1627 720.152 49.536 719.896 50.016C719.64 50.496 719.512 51.0453 719.512 51.664V51.84C719.512 52.48 719.651 53.0453 719.928 53.536C720.216 54.016 720.611 54.3947 721.112 54.672C721.624 54.9387 722.205 55.072 722.856 55.072C723.368 55.072 723.843 54.9813 724.28 54.8C724.728 54.6187 725.112 54.3413 725.432 53.968L726.072 54.704C725.699 55.152 725.229 55.4933 724.664 55.728C724.109 55.9627 723.496 56.08 722.824 56.08ZM736.024 56.08C735.213 56.08 734.482 55.8987 733.832 55.536C733.192 55.1627 732.685 54.656 732.312 54.016C731.938 53.3653 731.752 52.624 731.752 51.792C731.752 50.9493 731.938 50.208 732.312 49.568C732.685 48.928 733.192 48.4267 733.832 48.064C734.472 47.7013 735.202 47.52 736.024 47.52C736.856 47.52 737.592 47.7013 738.232 48.064C738.882 48.4267 739.389 48.928 739.752 49.568C740.125 50.208 740.312 50.9493 740.312 51.792C740.312 52.624 740.125 53.3653 739.752 54.016C739.389 54.656 738.882 55.1627 738.232 55.536C737.581 55.8987 736.845 56.08 736.024 56.08ZM736.024 55.072C736.632 55.072 737.17 54.9387 737.64 54.672C738.109 54.3947 738.477 54.0107 738.744 53.52C739.021 53.0187 739.16 52.4427 739.16 51.792C739.16 51.1307 739.021 50.5547 738.744 50.064C738.477 49.5733 738.109 49.1947 737.64 48.928C737.17 48.6507 736.637 48.512 736.04 48.512C735.442 48.512 734.909 48.6507 734.44 48.928C733.97 49.1947 733.597 49.5733 733.32 50.064C733.042 50.5547 732.904 51.1307 732.904 51.792C732.904 52.4427 733.042 53.0187 733.32 53.52C733.597 54.0107 733.97 54.3947 734.44 54.672C734.909 54.9387 735.437 55.072 736.024 55.072ZM742.573 56V46.544C742.573 45.7973 742.792 45.1947 743.229 44.736C743.666 44.2773 744.296 44.048 745.117 44.048C745.437 44.048 745.746 44.0907 746.045 44.176C746.344 44.2613 746.594 44.3947 746.797 44.576L746.413 45.424C746.253 45.2853 746.066 45.184 745.853 45.12C745.64 45.0453 745.41 45.008 745.165 45.008C744.685 45.008 744.317 45.1413 744.061 45.408C743.805 45.6747 743.677 46.0693 743.677 46.592V47.872L743.709 48.4V56H742.573ZM741.069 48.544V47.6H746.269V48.544H741.069ZM756.594 56.096C755.752 56.096 754.973 55.9573 754.258 55.68C753.544 55.392 752.925 54.992 752.402 54.48C751.88 53.968 751.469 53.3653 751.17 52.672C750.882 51.9787 750.738 51.2213 750.738 50.4C750.738 49.5787 750.882 48.8213 751.17 48.128C751.469 47.4347 751.88 46.832 752.402 46.32C752.936 45.808 753.56 45.4133 754.274 45.136C754.989 44.848 755.768 44.704 756.61 44.704C757.421 44.704 758.184 44.8427 758.898 45.12C759.613 45.3867 760.216 45.792 760.706 46.336L759.954 47.088C759.496 46.6187 758.989 46.2827 758.434 46.08C757.88 45.8667 757.282 45.76 756.642 45.76C755.97 45.76 755.346 45.8773 754.77 46.112C754.194 46.336 753.693 46.6613 753.266 47.088C752.84 47.504 752.504 47.9947 752.258 48.56C752.024 49.1147 751.906 49.728 751.906 50.4C751.906 51.072 752.024 51.6907 752.258 52.256C752.504 52.8107 752.84 53.3013 753.266 53.728C753.693 54.144 754.194 54.4693 754.77 54.704C755.346 54.928 755.97 55.04 756.642 55.04C757.282 55.04 757.88 54.9333 758.434 54.72C758.989 54.5067 759.496 54.1653 759.954 53.696L760.706 54.448C760.216 54.992 759.613 55.4027 758.898 55.68C758.184 55.9573 757.416 56.096 756.594 56.096ZM765.789 56.08C764.979 56.08 764.248 55.8987 763.597 55.536C762.957 55.1627 762.451 54.656 762.077 54.016C761.704 53.3653 761.517 52.624 761.517 51.792C761.517 50.9493 761.704 50.208 762.077 49.568C762.451 48.928 762.957 48.4267 763.597 48.064C764.237 47.7013 764.968 47.52 765.789 47.52C766.621 47.52 767.357 47.7013 767.997 48.064C768.648 48.4267 769.155 48.928 769.517 49.568C769.891 50.208 770.077 50.9493 770.077 51.792C770.077 52.624 769.891 53.3653 769.517 54.016C769.155 54.656 768.648 55.1627 767.997 55.536C767.347 55.8987 766.611 56.08 765.789 56.08ZM765.789 55.072C766.397 55.072 766.936 54.9387 767.405 54.672C767.875 54.3947 768.243 54.0107 768.509 53.52C768.787 53.0187 768.925 52.4427 768.925 51.792C768.925 51.1307 768.787 50.5547 768.509 50.064C768.243 49.5733 767.875 49.1947 767.405 48.928C766.936 48.6507 766.403 48.512 765.805 48.512C765.208 48.512 764.675 48.6507 764.205 48.928C763.736 49.1947 763.363 49.5733 763.085 50.064C762.808 50.5547 762.669 51.1307 762.669 51.792C762.669 52.4427 762.808 53.0187 763.085 53.52C763.363 54.0107 763.736 54.3947 764.205 54.672C764.675 54.9387 765.203 55.072 765.789 55.072ZM776.435 47.52C777.117 47.52 777.715 47.6533 778.227 47.92C778.749 48.176 779.155 48.5707 779.443 49.104C779.741 49.6373 779.891 50.3093 779.891 51.12V56H778.755V51.232C778.755 50.3467 778.531 49.68 778.083 49.232C777.645 48.7733 777.027 48.544 776.227 48.544C775.629 48.544 775.107 48.6667 774.659 48.912C774.221 49.1467 773.88 49.4933 773.635 49.952C773.4 50.4 773.283 50.944 773.283 51.584V56H772.147V47.6H773.235V49.904L773.059 49.472C773.325 48.864 773.752 48.3893 774.339 48.048C774.925 47.696 775.624 47.52 776.435 47.52ZM786.053 56.08C785.253 56.08 784.533 55.8987 783.893 55.536C783.264 55.1733 782.768 54.672 782.405 54.032C782.042 53.3813 781.861 52.6347 781.861 51.792C781.861 50.9387 782.042 50.192 782.405 49.552C782.768 48.912 783.264 48.416 783.893 48.064C784.533 47.7013 785.253 47.52 786.053 47.52C786.789 47.52 787.445 47.6853 788.021 48.016C788.608 48.3467 789.072 48.832 789.413 49.472C789.765 50.1013 789.941 50.8747 789.941 51.792C789.941 52.6987 789.77 53.472 789.429 54.112C789.088 54.752 788.624 55.2427 788.037 55.584C787.461 55.9147 786.8 56.08 786.053 56.08ZM786.133 55.072C786.73 55.072 787.264 54.9387 787.733 54.672C788.213 54.3947 788.586 54.0107 788.853 53.52C789.13 53.0187 789.269 52.4427 789.269 51.792C789.269 51.1307 789.13 50.5547 788.853 50.064C788.586 49.5733 788.213 49.1947 787.733 48.928C787.264 48.6507 786.73 48.512 786.133 48.512C785.546 48.512 785.018 48.6507 784.549 48.928C784.08 49.1947 783.706 49.5733 783.429 50.064C783.152 50.5547 783.013 51.1307 783.013 51.792C783.013 52.4427 783.152 53.0187 783.429 53.52C783.706 54.0107 784.08 54.3947 784.549 54.672C785.018 54.9387 785.546 55.072 786.133 55.072ZM789.301 56V53.472L789.413 51.776L789.253 50.08V44.128H790.389V56H789.301ZM796.775 56.08C796.06 56.08 795.436 55.9467 794.903 55.68C794.369 55.4133 793.953 55.0133 793.655 54.48C793.367 53.9467 793.223 53.28 793.223 52.48V47.6H794.359V52.352C794.359 53.248 794.577 53.9253 795.015 54.384C795.463 54.832 796.087 55.056 796.887 55.056C797.473 55.056 797.98 54.9387 798.407 54.704C798.844 54.4587 799.175 54.1067 799.399 53.648C799.633 53.1893 799.751 52.64 799.751 52V47.6H800.887V56H799.799V53.696L799.975 54.112C799.708 54.7307 799.292 55.216 798.727 55.568C798.172 55.9093 797.521 56.08 796.775 56.08ZM807.291 56.08C806.459 56.08 805.712 55.8987 805.051 55.536C804.4 55.1627 803.888 54.656 803.515 54.016C803.141 53.3653 802.955 52.624 802.955 51.792C802.955 50.9493 803.141 50.208 803.515 49.568C803.888 48.928 804.4 48.4267 805.051 48.064C805.712 47.7013 806.459 47.52 807.291 47.52C808.005 47.52 808.651 47.6587 809.227 47.936C809.803 48.2133 810.256 48.6293 810.587 49.184L809.739 49.76C809.451 49.3333 809.093 49.0187 808.667 48.816C808.24 48.6133 807.776 48.512 807.275 48.512C806.677 48.512 806.139 48.6507 805.659 48.928C805.179 49.1947 804.8 49.5733 804.523 50.064C804.245 50.5547 804.107 51.1307 804.107 51.792C804.107 52.4533 804.245 53.0293 804.523 53.52C804.8 54.0107 805.179 54.3947 805.659 54.672C806.139 54.9387 806.677 55.072 807.275 55.072C807.776 55.072 808.24 54.9707 808.667 54.768C809.093 54.5653 809.451 54.256 809.739 53.84L810.587 54.416C810.256 54.96 809.803 55.376 809.227 55.664C808.651 55.9413 808.005 56.08 807.291 56.08ZM815.318 56.08C814.529 56.08 813.921 55.8667 813.494 55.44C813.067 55.0133 812.854 54.4107 812.854 53.632V45.744H813.99V53.568C813.99 54.0587 814.113 54.4373 814.358 54.704C814.614 54.9707 814.977 55.104 815.446 55.104C815.947 55.104 816.363 54.96 816.694 54.672L817.094 55.488C816.87 55.6907 816.598 55.84 816.278 55.936C815.969 56.032 815.649 56.08 815.318 56.08ZM811.35 48.544V47.6H816.55V48.544H811.35Z" fill="#666666"/>
<rect x="921.5" y="0.5" width="276" height="99" rx="9.5" fill="white" stroke="#EEEEEE"/>
<path d="M1028.74 56.096C1027.89 56.096 1027.1 55.9573 1026.38 55.68C1025.66 55.392 1025.04 54.992 1024.5 54.48C1023.98 53.968 1023.57 53.3653 1023.27 52.672C1022.98 51.9787 1022.84 51.2213 1022.84 50.4C1022.84 49.5787 1022.98 48.8213 1023.27 48.128C1023.57 47.4347 1023.99 46.832 1024.52 46.32C1025.05 45.808 1025.68 45.4133 1026.39 45.136C1027.12 44.848 1027.91 44.704 1028.76 44.704C1029.61 44.704 1030.39 44.8373 1031.1 45.104C1031.81 45.3707 1032.42 45.776 1032.92 46.32L1032.18 47.072C1031.71 46.6027 1031.2 46.2667 1030.63 46.064C1030.07 45.8613 1029.46 45.76 1028.81 45.76C1028.11 45.76 1027.47 45.8773 1026.89 46.112C1026.31 46.336 1025.81 46.6613 1025.37 47.088C1024.94 47.504 1024.61 47.9947 1024.36 48.56C1024.13 49.1147 1024.01 49.728 1024.01 50.4C1024.01 51.0613 1024.13 51.6747 1024.36 52.24C1024.61 52.8053 1024.94 53.3013 1025.37 53.728C1025.81 54.144 1026.31 54.4693 1026.89 54.704C1027.47 54.928 1028.11 55.04 1028.79 55.04C1029.43 55.04 1030.03 54.944 1030.6 54.752C1031.18 54.56 1031.7 54.2347 1032.18 53.776L1032.86 54.672C1032.32 55.1413 1031.7 55.4987 1030.98 55.744C1030.27 55.9787 1029.52 56.096 1028.74 56.096ZM1031.72 54.528V50.4H1032.86V54.672L1031.72 54.528ZM1039.19 56.08C1038.47 56.08 1037.85 55.9467 1037.32 55.68C1036.78 55.4133 1036.37 55.0133 1036.07 54.48C1035.78 53.9467 1035.64 53.28 1035.64 52.48V47.6H1036.77V52.352C1036.77 53.248 1036.99 53.9253 1037.43 54.384C1037.88 54.832 1038.5 55.056 1039.3 55.056C1039.89 55.056 1040.39 54.9387 1040.82 54.704C1041.26 54.4587 1041.59 54.1067 1041.81 53.648C1042.05 53.1893 1042.16 52.64 1042.16 52V47.6H1043.3V56H1042.21V53.696L1042.39 54.112C1042.12 54.7307 1041.71 55.216 1041.14 55.568C1040.59 55.9093 1039.94 56.08 1039.19 56.08ZM1046.22 56V47.6H1047.35V56H1046.22ZM1046.79 45.744C1046.56 45.744 1046.36 45.664 1046.2 45.504C1046.04 45.344 1045.96 45.152 1045.96 44.928C1045.96 44.704 1046.04 44.5173 1046.2 44.368C1046.36 44.208 1046.56 44.128 1046.79 44.128C1047.03 44.128 1047.22 44.2027 1047.38 44.352C1047.54 44.5013 1047.62 44.688 1047.62 44.912C1047.62 45.1467 1047.54 45.344 1047.38 45.504C1047.24 45.664 1047.04 45.744 1046.79 45.744ZM1053.61 56.08C1052.81 56.08 1052.09 55.8987 1051.45 55.536C1050.82 55.1733 1050.32 54.672 1049.96 54.032C1049.6 53.3813 1049.42 52.6347 1049.42 51.792C1049.42 50.9387 1049.6 50.192 1049.96 49.552C1050.32 48.912 1050.82 48.416 1051.45 48.064C1052.09 47.7013 1052.81 47.52 1053.61 47.52C1054.34 47.52 1055 47.6853 1055.58 48.016C1056.16 48.3467 1056.63 48.832 1056.97 49.472C1057.32 50.1013 1057.5 50.8747 1057.5 51.792C1057.5 52.6987 1057.33 53.472 1056.98 54.112C1056.64 54.752 1056.18 55.2427 1055.59 55.584C1055.02 55.9147 1054.35 56.08 1053.61 56.08ZM1053.69 55.072C1054.29 55.072 1054.82 54.9387 1055.29 54.672C1055.77 54.3947 1056.14 54.0107 1056.41 53.52C1056.69 53.0187 1056.82 52.4427 1056.82 51.792C1056.82 51.1307 1056.69 50.5547 1056.41 50.064C1056.14 49.5733 1055.77 49.1947 1055.29 48.928C1054.82 48.6507 1054.29 48.512 1053.69 48.512C1053.1 48.512 1052.57 48.6507 1052.1 48.928C1051.63 49.1947 1051.26 49.5733 1050.98 50.064C1050.71 50.5547 1050.57 51.1307 1050.57 51.792C1050.57 52.4427 1050.71 53.0187 1050.98 53.52C1051.26 54.0107 1051.63 54.3947 1052.1 54.672C1052.57 54.9387 1053.1 55.072 1053.69 55.072ZM1056.86 56V53.472L1056.97 51.776L1056.81 50.08V44.128H1057.94V56H1056.86ZM1064.43 56.08C1063.55 56.08 1062.78 55.8987 1062.12 55.536C1061.46 55.1627 1060.94 54.656 1060.57 54.016C1060.2 53.3653 1060.01 52.624 1060.01 51.792C1060.01 50.96 1060.19 50.224 1060.54 49.584C1060.9 48.944 1061.39 48.4427 1062.01 48.08C1062.64 47.7067 1063.34 47.52 1064.12 47.52C1064.91 47.52 1065.61 47.7013 1066.22 48.064C1066.84 48.416 1067.32 48.9173 1067.67 49.568C1068.03 50.208 1068.2 50.9493 1068.2 51.792C1068.2 51.8453 1068.2 51.904 1068.19 51.968C1068.19 52.0213 1068.19 52.08 1068.19 52.144H1060.87V51.296H1067.58L1067.13 51.632C1067.13 51.024 1067 50.4853 1066.73 50.016C1066.47 49.536 1066.12 49.1627 1065.67 48.896C1065.23 48.6293 1064.71 48.496 1064.12 48.496C1063.55 48.496 1063.03 48.6293 1062.57 48.896C1062.11 49.1627 1061.75 49.536 1061.5 50.016C1061.24 50.496 1061.11 51.0453 1061.11 51.664V51.84C1061.11 52.48 1061.25 53.0453 1061.53 53.536C1061.82 54.016 1062.21 54.3947 1062.71 54.672C1063.23 54.9387 1063.81 55.072 1064.46 55.072C1064.97 55.072 1065.44 54.9813 1065.88 54.8C1066.33 54.6187 1066.71 54.3413 1067.03 53.968L1067.67 54.704C1067.3 55.152 1066.83 55.4933 1066.27 55.728C1065.71 55.9627 1065.1 56.08 1064.43 56.08ZM1070.26 56V44.128H1071.4V56H1070.26ZM1074.31 56V47.6H1075.45V56H1074.31ZM1074.89 45.744C1074.65 45.744 1074.45 45.664 1074.29 45.504C1074.13 45.344 1074.05 45.152 1074.05 44.928C1074.05 44.704 1074.13 44.5173 1074.29 44.368C1074.45 44.208 1074.65 44.128 1074.89 44.128C1075.12 44.128 1075.32 44.2027 1075.48 44.352C1075.64 44.5013 1075.72 44.688 1075.72 44.912C1075.72 45.1467 1075.64 45.344 1075.48 45.504C1075.33 45.664 1075.13 45.744 1074.89 45.744ZM1082.65 47.52C1083.33 47.52 1083.93 47.6533 1084.44 47.92C1084.96 48.176 1085.37 48.5707 1085.65 49.104C1085.95 49.6373 1086.1 50.3093 1086.1 51.12V56H1084.97V51.232C1084.97 50.3467 1084.74 49.68 1084.29 49.232C1083.86 48.7733 1083.24 48.544 1082.44 48.544C1081.84 48.544 1081.32 48.6667 1080.87 48.912C1080.43 49.1467 1080.09 49.4933 1079.85 49.952C1079.61 50.4 1079.49 50.944 1079.49 51.584V56H1078.36V47.6H1079.45V49.904L1079.27 49.472C1079.54 48.864 1079.96 48.3893 1080.55 48.048C1081.14 47.696 1081.83 47.52 1082.65 47.52ZM1092.49 56.08C1091.61 56.08 1090.85 55.8987 1090.18 55.536C1089.52 55.1627 1089.01 54.656 1088.63 54.016C1088.26 53.3653 1088.07 52.624 1088.07 51.792C1088.07 50.96 1088.25 50.224 1088.6 49.584C1088.96 48.944 1089.45 48.4427 1090.07 48.08C1090.7 47.7067 1091.41 47.52 1092.18 47.52C1092.97 47.52 1093.67 47.7013 1094.28 48.064C1094.9 48.416 1095.38 48.9173 1095.74 49.568C1096.09 50.208 1096.26 50.9493 1096.26 51.792C1096.26 51.8453 1096.26 51.904 1096.25 51.968C1096.25 52.0213 1096.25 52.08 1096.25 52.144L1088.94 52.144V51.296L1095.64 51.296L1095.19 51.632C1095.19 51.024 1095.06 50.4853 1094.79 50.016C1094.54 49.536 1094.18 49.1627 1093.74 48.896C1093.29 48.6293 1092.77 48.496 1092.18 48.496C1091.61 48.496 1091.09 48.6293 1090.63 48.896C1090.17 49.1627 1089.82 49.536 1089.56 50.016C1089.3 50.496 1089.18 51.0453 1089.18 51.664V51.84C1089.18 52.48 1089.31 53.0453 1089.59 53.536C1089.88 54.016 1090.27 54.3947 1090.78 54.672C1091.29 54.9387 1091.87 55.072 1092.52 55.072C1093.03 55.072 1093.51 54.9813 1093.94 54.8C1094.39 54.6187 1094.78 54.3413 1095.1 53.968L1095.74 54.704C1095.36 55.152 1094.89 55.4933 1094.33 55.728C1093.77 55.9627 1093.16 56.08 1092.49 56.08Z" fill="#666666"/>
</svg>
