<svg width="327" height="227" viewBox="0 0 327 227" fill="none" xmlns="http://www.w3.org/2000/svg">
<rect x="163" y="0.796875" width="1" height="226" fill="#EEEEEE"/>
<rect x="24" y="0.796875" width="280" height="46" rx="7" fill="#435CE7"/>
<path d="M107.102 28.8809C106.365 28.8809 105.683 28.7595 105.058 28.5169C104.433 28.2649 103.891 27.9149 103.434 27.4669C102.977 27.0189 102.617 26.4915 102.356 25.8849C102.104 25.2782 101.978 24.6155 101.978 23.8969C101.978 23.1782 102.104 22.5155 102.356 21.9089C102.617 21.3022 102.977 20.7749 103.434 20.3269C103.901 19.8789 104.447 19.5335 105.072 19.2909C105.697 19.0389 106.379 18.9129 107.116 18.9129C107.825 18.9129 108.493 19.0342 109.118 19.2769C109.743 19.5102 110.271 19.8649 110.7 20.3409L110.042 20.9989C109.641 20.5882 109.197 20.2942 108.712 20.1169C108.227 19.9302 107.704 19.8369 107.144 19.8369C106.556 19.8369 106.01 19.9395 105.506 20.1449C105.002 20.3409 104.563 20.6255 104.19 20.9989C103.817 21.3629 103.523 21.7922 103.308 22.2869C103.103 22.7722 103 23.3089 103 23.8969C103 24.4849 103.103 25.0262 103.308 25.5209C103.523 26.0062 103.817 26.4355 104.19 26.8089C104.563 27.1729 105.002 27.4575 105.506 27.6629C106.01 27.8589 106.556 27.9569 107.144 27.9569C107.704 27.9569 108.227 27.8635 108.712 27.6769C109.197 27.4902 109.641 27.1915 110.042 26.7809L110.7 27.4389C110.271 27.9149 109.743 28.2742 109.118 28.5169C108.493 28.7595 107.821 28.8809 107.102 28.8809ZM115.116 28.8669C114.407 28.8669 113.768 28.7082 113.198 28.3909C112.638 28.0642 112.195 27.6209 111.868 27.0609C111.542 26.4915 111.378 25.8429 111.378 25.1149C111.378 24.3775 111.542 23.7289 111.868 23.1689C112.195 22.6089 112.638 22.1702 113.198 21.8529C113.758 21.5355 114.398 21.3769 115.116 21.3769C115.844 21.3769 116.488 21.5355 117.048 21.8529C117.618 22.1702 118.061 22.6089 118.378 23.1689C118.705 23.7289 118.868 24.3775 118.868 25.1149C118.868 25.8429 118.705 26.4915 118.378 27.0609C118.061 27.6209 117.618 28.0642 117.048 28.3909C116.479 28.7082 115.835 28.8669 115.116 28.8669ZM115.116 27.9849C115.648 27.9849 116.12 27.8682 116.53 27.6349C116.941 27.3922 117.263 27.0562 117.496 26.6269C117.739 26.1882 117.86 25.6842 117.86 25.1149C117.86 24.5362 117.739 24.0322 117.496 23.6029C117.263 23.1735 116.941 22.8422 116.53 22.6089C116.12 22.3662 115.653 22.2449 115.13 22.2449C114.608 22.2449 114.141 22.3662 113.73 22.6089C113.32 22.8422 112.993 23.1735 112.75 23.6029C112.508 24.0322 112.386 24.5362 112.386 25.1149C112.386 25.6842 112.508 26.1882 112.75 26.6269C112.993 27.0562 113.32 27.3922 113.73 27.6349C114.141 27.8682 114.603 27.9849 115.116 27.9849ZM129.832 21.3769C130.429 21.3769 130.947 21.4935 131.386 21.7269C131.834 21.9509 132.179 22.2962 132.422 22.7629C132.674 23.2295 132.8 23.8175 132.8 24.5269V28.7969H131.806V24.6249C131.806 23.8502 131.619 23.2669 131.246 22.8749C130.882 22.4735 130.364 22.2729 129.692 22.2729C129.188 22.2729 128.749 22.3802 128.376 22.5949C128.012 22.8002 127.727 23.1035 127.522 23.5049C127.326 23.8969 127.228 24.3729 127.228 24.9329V28.7969H126.234V24.6249C126.234 23.8502 126.047 23.2669 125.674 22.8749C125.3 22.4735 124.778 22.2729 124.106 22.2729C123.611 22.2729 123.177 22.3802 122.804 22.5949C122.43 22.8002 122.141 23.1035 121.936 23.5049C121.74 23.8969 121.642 24.3729 121.642 24.9329V28.7969H120.648V21.4469H121.6V23.4349L121.446 23.0849C121.67 22.5529 122.029 22.1375 122.524 21.8389C123.028 21.5309 123.62 21.3769 124.302 21.3769C125.02 21.3769 125.632 21.5589 126.136 21.9229C126.64 22.2775 126.966 22.8142 127.116 23.5329L126.724 23.3789C126.938 22.7815 127.316 22.3009 127.858 21.9369C128.408 21.5635 129.066 21.3769 129.832 21.3769ZM139.039 28.8669C138.405 28.8669 137.831 28.7222 137.317 28.4329C136.804 28.1342 136.393 27.7095 136.085 27.1589C135.787 26.5989 135.637 25.9175 135.637 25.1149C135.637 24.3122 135.787 23.6355 136.085 23.0849C136.384 22.5249 136.79 22.1002 137.303 21.8109C137.817 21.5215 138.395 21.3769 139.039 21.3769C139.739 21.3769 140.365 21.5355 140.915 21.8529C141.475 22.1609 141.914 22.5995 142.231 23.1689C142.549 23.7289 142.707 24.3775 142.707 25.1149C142.707 25.8615 142.549 26.5149 142.231 27.0749C141.914 27.6349 141.475 28.0735 140.915 28.3909C140.365 28.7082 139.739 28.8669 139.039 28.8669ZM135.245 31.5129V21.4469H136.197V23.6589L136.099 25.1289L136.239 26.6129V31.5129H135.245ZM138.969 27.9849C139.492 27.9849 139.959 27.8682 140.369 27.6349C140.78 27.3922 141.107 27.0562 141.349 26.6269C141.592 26.1882 141.713 25.6842 141.713 25.1149C141.713 24.5455 141.592 24.0462 141.349 23.6169C141.107 23.1875 140.78 22.8515 140.369 22.6089C139.959 22.3662 139.492 22.2449 138.969 22.2449C138.447 22.2449 137.975 22.3662 137.555 22.6089C137.145 22.8515 136.818 23.1875 136.575 23.6169C136.342 24.0462 136.225 24.5455 136.225 25.1149C136.225 25.6842 136.342 26.1882 136.575 26.6269C136.818 27.0562 137.145 27.3922 137.555 27.6349C137.975 27.8682 138.447 27.9849 138.969 27.9849ZM144.484 28.7969V18.4089H145.478V28.7969H144.484ZM147.993 28.7969V21.4469H148.987V28.7969H147.993ZM148.497 19.8229C148.292 19.8229 148.119 19.7529 147.979 19.6129C147.839 19.4729 147.769 19.3049 147.769 19.1089C147.769 18.9129 147.839 18.7495 147.979 18.6189C148.119 18.4789 148.292 18.4089 148.497 18.4089C148.703 18.4089 148.875 18.4742 149.015 18.6049C149.155 18.7355 149.225 18.8989 149.225 19.0949C149.225 19.3002 149.155 19.4729 149.015 19.6129C148.885 19.7529 148.712 19.8229 148.497 19.8229ZM156.109 28.7969V27.1729L156.067 26.9069V24.1909C156.067 23.5655 155.89 23.0849 155.535 22.7489C155.19 22.4129 154.672 22.2449 153.981 22.2449C153.505 22.2449 153.053 22.3242 152.623 22.4829C152.194 22.6415 151.83 22.8515 151.531 23.1129L151.083 22.3709C151.457 22.0535 151.905 21.8109 152.427 21.6429C152.95 21.4655 153.501 21.3769 154.079 21.3769C155.031 21.3769 155.764 21.6149 156.277 22.0909C156.8 22.5575 157.061 23.2715 157.061 24.2329V28.7969H156.109ZM153.575 28.8669C153.025 28.8669 152.544 28.7782 152.133 28.6009C151.732 28.4142 151.424 28.1622 151.209 27.8449C150.995 27.5182 150.887 27.1449 150.887 26.7249C150.887 26.3422 150.976 25.9969 151.153 25.6889C151.34 25.3715 151.639 25.1195 152.049 24.9329C152.469 24.7369 153.029 24.6389 153.729 24.6389H156.263V25.3809H153.757C153.048 25.3809 152.553 25.5069 152.273 25.7589C152.003 26.0109 151.867 26.3235 151.867 26.6969C151.867 27.1169 152.031 27.4529 152.357 27.7049C152.684 27.9569 153.141 28.0829 153.729 28.0829C154.289 28.0829 154.77 27.9569 155.171 27.7049C155.582 27.4435 155.881 27.0702 156.067 26.5849L156.291 27.2709C156.105 27.7562 155.778 28.1435 155.311 28.4329C154.854 28.7222 154.275 28.8669 153.575 28.8669ZM163.263 21.3769C163.86 21.3769 164.383 21.4935 164.831 21.7269C165.288 21.9509 165.643 22.2962 165.895 22.7629C166.156 23.2295 166.287 23.8175 166.287 24.5269V28.7969H165.293V24.6249C165.293 23.8502 165.097 23.2669 164.705 22.8749C164.322 22.4735 163.781 22.2729 163.081 22.2729C162.558 22.2729 162.101 22.3802 161.709 22.5949C161.326 22.8002 161.028 23.1035 160.813 23.5049C160.608 23.8969 160.505 24.3729 160.505 24.9329V28.7969H159.511V21.4469H160.463V23.4629L160.309 23.0849C160.542 22.5529 160.916 22.1375 161.429 21.8389C161.942 21.5309 162.554 21.3769 163.263 21.3769ZM171.774 28.8669C171.046 28.8669 170.393 28.7082 169.814 28.3909C169.245 28.0642 168.797 27.6209 168.47 27.0609C168.143 26.4915 167.98 25.8429 167.98 25.1149C167.98 24.3775 168.143 23.7289 168.47 23.1689C168.797 22.6089 169.245 22.1702 169.814 21.8529C170.393 21.5355 171.046 21.3769 171.774 21.3769C172.399 21.3769 172.964 21.4982 173.468 21.7409C173.972 21.9835 174.369 22.3475 174.658 22.8329L173.916 23.3369C173.664 22.9635 173.351 22.6882 172.978 22.5109C172.605 22.3335 172.199 22.2449 171.76 22.2449C171.237 22.2449 170.766 22.3662 170.346 22.6089C169.926 22.8422 169.595 23.1735 169.352 23.6029C169.109 24.0322 168.988 24.5362 168.988 25.1149C168.988 25.6935 169.109 26.1975 169.352 26.6269C169.595 27.0562 169.926 27.3922 170.346 27.6349C170.766 27.8682 171.237 27.9849 171.76 27.9849C172.199 27.9849 172.605 27.8962 172.978 27.7189C173.351 27.5415 173.664 27.2709 173.916 26.9069L174.658 27.4109C174.369 27.8869 173.972 28.2509 173.468 28.5029C172.964 28.7455 172.399 28.8669 171.774 28.8669ZM179.36 28.8669C178.594 28.8669 177.922 28.7082 177.344 28.3909C176.765 28.0642 176.312 27.6209 175.986 27.0609C175.659 26.4915 175.496 25.8429 175.496 25.1149C175.496 24.3869 175.65 23.7429 175.958 23.1829C176.275 22.6229 176.704 22.1842 177.246 21.8669C177.796 21.5402 178.412 21.3769 179.094 21.3769C179.784 21.3769 180.396 21.5355 180.928 21.8529C181.469 22.1609 181.894 22.5995 182.202 23.1689C182.51 23.7289 182.664 24.3775 182.664 25.1149C182.664 25.1615 182.659 25.2129 182.65 25.2689C182.65 25.3155 182.65 25.3669 182.65 25.4229H176.252V24.6809H182.118L181.726 24.9749C181.726 24.4429 181.609 23.9715 181.376 23.5609C181.152 23.1409 180.844 22.8142 180.452 22.5809C180.06 22.3475 179.607 22.2309 179.094 22.2309C178.59 22.2309 178.137 22.3475 177.736 22.5809C177.334 22.8142 177.022 23.1409 176.798 23.5609C176.574 23.9809 176.462 24.4615 176.462 25.0029V25.1569C176.462 25.7169 176.583 26.2115 176.826 26.6409C177.078 27.0609 177.423 27.3922 177.862 27.6349C178.31 27.8682 178.818 27.9849 179.388 27.9849C179.836 27.9849 180.251 27.9055 180.634 27.7469C181.026 27.5882 181.362 27.3455 181.642 27.0189L182.202 27.6629C181.875 28.0549 181.464 28.3535 180.97 28.5589C180.484 28.7642 179.948 28.8669 179.36 28.8669ZM188.061 28.7969V18.9969H191.729C192.56 18.9969 193.274 19.1322 193.871 19.4029C194.468 19.6642 194.926 20.0469 195.243 20.5509C195.57 21.0455 195.733 21.6475 195.733 22.3569C195.733 23.0475 195.57 23.6449 195.243 24.1489C194.926 24.6435 194.468 25.0262 193.871 25.2969C193.274 25.5675 192.56 25.7029 191.729 25.7029H188.635L189.097 25.2129V28.7969H188.061ZM189.097 25.2969L188.635 24.7929H191.701C192.681 24.7929 193.423 24.5829 193.927 24.1629C194.44 23.7335 194.697 23.1315 194.697 22.3569C194.697 21.5729 194.44 20.9662 193.927 20.5369C193.423 20.1075 192.681 19.8929 191.701 19.8929H188.635L189.097 19.4029V25.2969ZM200.468 28.8669C199.759 28.8669 199.119 28.7082 198.55 28.3909C197.99 28.0642 197.547 27.6209 197.22 27.0609C196.893 26.4915 196.73 25.8429 196.73 25.1149C196.73 24.3775 196.893 23.7289 197.22 23.1689C197.547 22.6089 197.99 22.1702 198.55 21.8529C199.11 21.5355 199.749 21.3769 200.468 21.3769C201.196 21.3769 201.84 21.5355 202.4 21.8529C202.969 22.1702 203.413 22.6089 203.73 23.1689C204.057 23.7289 204.22 24.3775 204.22 25.1149C204.22 25.8429 204.057 26.4915 203.73 27.0609C203.413 27.6209 202.969 28.0642 202.4 28.3909C201.831 28.7082 201.187 28.8669 200.468 28.8669ZM200.468 27.9849C201 27.9849 201.471 27.8682 201.882 27.6349C202.293 27.3922 202.615 27.0562 202.848 26.6269C203.091 26.1882 203.212 25.6842 203.212 25.1149C203.212 24.5362 203.091 24.0322 202.848 23.6029C202.615 23.1735 202.293 22.8422 201.882 22.6089C201.471 22.3662 201.005 22.2449 200.482 22.2449C199.959 22.2449 199.493 22.3662 199.082 22.6089C198.671 22.8422 198.345 23.1735 198.102 23.6029C197.859 24.0322 197.738 24.5362 197.738 25.1149C197.738 25.6842 197.859 26.1882 198.102 26.6269C198.345 27.0562 198.671 27.3922 199.082 27.6349C199.493 27.8682 199.955 27.9849 200.468 27.9849ZM205.999 28.7969V18.4089H206.993V28.7969H205.999ZM209.509 28.7969V21.4469H210.503V28.7969H209.509ZM210.013 19.8229C209.808 19.8229 209.635 19.7529 209.495 19.6129C209.355 19.4729 209.285 19.3049 209.285 19.1089C209.285 18.9129 209.355 18.7495 209.495 18.6189C209.635 18.4789 209.808 18.4089 210.013 18.4089C210.218 18.4089 210.391 18.4742 210.531 18.6049C210.671 18.7355 210.741 18.8989 210.741 19.0949C210.741 19.3002 210.671 19.4729 210.531 19.6129C210.4 19.7529 210.228 19.8229 210.013 19.8229ZM216.071 28.8669C215.343 28.8669 214.689 28.7082 214.111 28.3909C213.541 28.0642 213.093 27.6209 212.767 27.0609C212.44 26.4915 212.277 25.8429 212.277 25.1149C212.277 24.3775 212.44 23.7289 212.767 23.1689C213.093 22.6089 213.541 22.1702 214.111 21.8529C214.689 21.5355 215.343 21.3769 216.071 21.3769C216.696 21.3769 217.261 21.4982 217.765 21.7409C218.269 21.9835 218.665 22.3475 218.955 22.8329L218.213 23.3369C217.961 22.9635 217.648 22.6882 217.275 22.5109C216.901 22.3335 216.495 22.2449 216.057 22.2449C215.534 22.2449 215.063 22.3662 214.643 22.6089C214.223 22.8422 213.891 23.1735 213.649 23.6029C213.406 24.0322 213.285 24.5362 213.285 25.1149C213.285 25.6935 213.406 26.1975 213.649 26.6269C213.891 27.0562 214.223 27.3922 214.643 27.6349C215.063 27.8682 215.534 27.9849 216.057 27.9849C216.495 27.9849 216.901 27.8962 217.275 27.7189C217.648 27.5415 217.961 27.2709 218.213 26.9069L218.955 27.4109C218.665 27.8869 218.269 28.2509 217.765 28.5029C217.261 28.7455 216.696 28.8669 216.071 28.8669ZM220.604 31.5829C220.259 31.5829 219.927 31.5269 219.61 31.4149C219.302 31.3029 219.036 31.1349 218.812 30.9109L219.274 30.1689C219.461 30.3462 219.661 30.4815 219.876 30.5749C220.1 30.6775 220.347 30.7289 220.618 30.7289C220.945 30.7289 221.225 30.6355 221.458 30.4489C221.701 30.2715 221.929 29.9542 222.144 29.4969L222.62 28.4189L222.732 28.2649L225.756 21.4469H226.736L223.054 29.6789C222.849 30.1549 222.62 30.5329 222.368 30.8129C222.125 31.0929 221.859 31.2889 221.57 31.4009C221.281 31.5222 220.959 31.5829 220.604 31.5829ZM222.564 29.0069L219.176 21.4469H220.212L223.208 28.1949L222.564 29.0069Z" fill="white"/>
<rect x="24.5" y="61.2969" width="279" height="45" rx="6.5" fill="#F5F5F5" stroke="#EEEEEE"/>
<path d="M92.0512 88.8809C91.3139 88.8809 90.6326 88.7595 90.0072 88.5169C89.3819 88.2649 88.8406 87.9149 88.3832 87.4669C87.9259 87.0189 87.5666 86.4915 87.3052 85.8849C87.0532 85.2782 86.9272 84.6155 86.9272 83.8969C86.9272 83.1782 87.0532 82.5155 87.3052 81.9089C87.5666 81.3022 87.9259 80.7749 88.3832 80.3269C88.8499 79.8789 89.3959 79.5335 90.0212 79.2909C90.6466 79.0389 91.3279 78.9129 92.0652 78.9129C92.7746 78.9129 93.4419 79.0342 94.0672 79.2769C94.6926 79.5102 95.2199 79.8649 95.6492 80.3409L94.9912 80.9989C94.5899 80.5882 94.1466 80.2942 93.6612 80.1169C93.1759 79.9302 92.6532 79.8369 92.0932 79.8369C91.5052 79.8369 90.9592 79.9395 90.4552 80.1449C89.9512 80.3409 89.5126 80.6255 89.1392 80.9989C88.7659 81.3629 88.4719 81.7922 88.2572 82.2869C88.0519 82.7722 87.9492 83.3089 87.9492 83.8969C87.9492 84.4849 88.0519 85.0262 88.2572 85.5209C88.4719 86.0062 88.7659 86.4355 89.1392 86.8089C89.5126 87.1729 89.9512 87.4575 90.4552 87.6629C90.9592 87.8589 91.5052 87.9569 92.0932 87.9569C92.6532 87.9569 93.1759 87.8635 93.6612 87.6769C94.1466 87.4902 94.5899 87.1915 94.9912 86.7809L95.6492 87.4389C95.2199 87.9149 94.6926 88.2742 94.0672 88.5169C93.4419 88.7595 92.7699 88.8809 92.0512 88.8809ZM100.066 88.8669C99.3563 88.8669 98.7169 88.7082 98.1476 88.3909C97.5876 88.0642 97.1443 87.6209 96.8176 87.0609C96.4909 86.4915 96.3276 85.8429 96.3276 85.1149C96.3276 84.3775 96.4909 83.7289 96.8176 83.1689C97.1443 82.6089 97.5876 82.1702 98.1476 81.8529C98.7076 81.5355 99.3469 81.3769 100.066 81.3769C100.794 81.3769 101.438 81.5355 101.998 81.8529C102.567 82.1702 103.01 82.6089 103.328 83.1689C103.654 83.7289 103.818 84.3775 103.818 85.1149C103.818 85.8429 103.654 86.4915 103.328 87.0609C103.01 87.6209 102.567 88.0642 101.998 88.3909C101.428 88.7082 100.784 88.8669 100.066 88.8669ZM100.066 87.9849C100.598 87.9849 101.069 87.8682 101.48 87.6349C101.89 87.3922 102.212 87.0562 102.446 86.6269C102.688 86.1882 102.81 85.6842 102.81 85.1149C102.81 84.5362 102.688 84.0322 102.446 83.6029C102.212 83.1735 101.89 82.8422 101.48 82.6089C101.069 82.3662 100.602 82.2449 100.08 82.2449C99.5569 82.2449 99.0903 82.3662 98.6796 82.6089C98.2689 82.8422 97.9423 83.1735 97.6996 83.6029C97.4569 84.0322 97.3356 84.5362 97.3356 85.1149C97.3356 85.6842 97.4569 86.1882 97.6996 86.6269C97.9423 87.0562 98.2689 87.3922 98.6796 87.6349C99.0903 87.8682 99.5523 87.9849 100.066 87.9849ZM114.781 81.3769C115.378 81.3769 115.896 81.4935 116.335 81.7269C116.783 81.9509 117.128 82.2962 117.371 82.7629C117.623 83.2295 117.749 83.8175 117.749 84.5269V88.7969H116.755V84.6249C116.755 83.8502 116.568 83.2669 116.195 82.8749C115.831 82.4735 115.313 82.2729 114.641 82.2729C114.137 82.2729 113.698 82.3802 113.325 82.5949C112.961 82.8002 112.676 83.1035 112.471 83.5049C112.275 83.8969 112.177 84.3729 112.177 84.9329V88.7969H111.183V84.6249C111.183 83.8502 110.996 83.2669 110.623 82.8749C110.25 82.4735 109.727 82.2729 109.055 82.2729C108.56 82.2729 108.126 82.3802 107.753 82.5949C107.38 82.8002 107.09 83.1035 106.885 83.5049C106.689 83.8969 106.591 84.3729 106.591 84.9329V88.7969H105.597V81.4469H106.549V83.4349L106.395 83.0849C106.619 82.5529 106.978 82.1375 107.473 81.8389C107.977 81.5309 108.57 81.3769 109.251 81.3769C109.97 81.3769 110.581 81.5589 111.085 81.9229C111.589 82.2775 111.916 82.8142 112.065 83.5329L111.673 83.3789C111.888 82.7815 112.266 82.3009 112.807 81.9369C113.358 81.5635 114.016 81.3769 114.781 81.3769ZM123.989 88.8669C123.354 88.8669 122.78 88.7222 122.267 88.4329C121.753 88.1342 121.343 87.7095 121.035 87.1589C120.736 86.5989 120.587 85.9175 120.587 85.1149C120.587 84.3122 120.736 83.6355 121.035 83.0849C121.333 82.5249 121.739 82.1002 122.253 81.8109C122.766 81.5215 123.345 81.3769 123.989 81.3769C124.689 81.3769 125.314 81.5355 125.865 81.8529C126.425 82.1609 126.863 82.5995 127.181 83.1689C127.498 83.7289 127.657 84.3775 127.657 85.1149C127.657 85.8615 127.498 86.5149 127.181 87.0749C126.863 87.6349 126.425 88.0735 125.865 88.3909C125.314 88.7082 124.689 88.8669 123.989 88.8669ZM120.195 91.5129V81.4469H121.147V83.6589L121.049 85.1289L121.189 86.6129V91.5129H120.195ZM123.919 87.9849C124.441 87.9849 124.908 87.8682 125.319 87.6349C125.729 87.3922 126.056 87.0562 126.299 86.6269C126.541 86.1882 126.663 85.6842 126.663 85.1149C126.663 84.5455 126.541 84.0462 126.299 83.6169C126.056 83.1875 125.729 82.8515 125.319 82.6089C124.908 82.3662 124.441 82.2449 123.919 82.2449C123.396 82.2449 122.925 82.3662 122.505 82.6089C122.094 82.8515 121.767 83.1875 121.525 83.6169C121.291 84.0462 121.175 84.5455 121.175 85.1149C121.175 85.6842 121.291 86.1882 121.525 86.6269C121.767 87.0562 122.094 87.3922 122.505 87.6349C122.925 87.8682 123.396 87.9849 123.919 87.9849ZM129.433 88.7969V78.4089H130.427V88.7969H129.433ZM132.943 88.7969V81.4469H133.937V88.7969H132.943ZM133.447 79.8229C133.241 79.8229 133.069 79.7529 132.929 79.6129C132.789 79.4729 132.719 79.3049 132.719 79.1089C132.719 78.9129 132.789 78.7495 132.929 78.6189C133.069 78.4789 133.241 78.4089 133.447 78.4089C133.652 78.4089 133.825 78.4742 133.965 78.6049C134.105 78.7355 134.175 78.8989 134.175 79.0949C134.175 79.3002 134.105 79.4729 133.965 79.6129C133.834 79.7529 133.661 79.8229 133.447 79.8229ZM141.058 88.7969V87.1729L141.016 86.9069V84.1909C141.016 83.5655 140.839 83.0849 140.484 82.7489C140.139 82.4129 139.621 82.2449 138.93 82.2449C138.454 82.2449 138.002 82.3242 137.572 82.4829C137.143 82.6415 136.779 82.8515 136.48 83.1129L136.032 82.3709C136.406 82.0535 136.854 81.8109 137.376 81.6429C137.899 81.4655 138.45 81.3769 139.028 81.3769C139.98 81.3769 140.713 81.6149 141.226 82.0909C141.749 82.5575 142.01 83.2715 142.01 84.2329V88.7969H141.058ZM138.524 88.8669C137.974 88.8669 137.493 88.7782 137.082 88.6009C136.681 88.4142 136.373 88.1622 136.158 87.8449C135.944 87.5182 135.836 87.1449 135.836 86.7249C135.836 86.3422 135.925 85.9969 136.102 85.6889C136.289 85.3715 136.588 85.1195 136.998 84.9329C137.418 84.7369 137.978 84.6389 138.678 84.6389H141.212V85.3809H138.706C137.997 85.3809 137.502 85.5069 137.222 85.7589C136.952 86.0109 136.816 86.3235 136.816 86.6969C136.816 87.1169 136.98 87.4529 137.306 87.7049C137.633 87.9569 138.09 88.0829 138.678 88.0829C139.238 88.0829 139.719 87.9569 140.12 87.7049C140.531 87.4435 140.83 87.0702 141.016 86.5849L141.24 87.2709C141.054 87.7562 140.727 88.1435 140.26 88.4329C139.803 88.7222 139.224 88.8669 138.524 88.8669ZM148.212 81.3769C148.81 81.3769 149.332 81.4935 149.78 81.7269C150.238 81.9509 150.592 82.2962 150.844 82.7629C151.106 83.2295 151.236 83.8175 151.236 84.5269V88.7969H150.242V84.6249C150.242 83.8502 150.046 83.2669 149.654 82.8749C149.272 82.4735 148.73 82.2729 148.03 82.2729C147.508 82.2729 147.05 82.3802 146.658 82.5949C146.276 82.8002 145.977 83.1035 145.762 83.5049C145.557 83.8969 145.454 84.3729 145.454 84.9329V88.7969H144.46V81.4469H145.412V83.4629L145.258 83.0849C145.492 82.5529 145.865 82.1375 146.378 81.8389C146.892 81.5309 147.503 81.3769 148.212 81.3769ZM156.723 88.8669C155.995 88.8669 155.342 88.7082 154.763 88.3909C154.194 88.0642 153.746 87.6209 153.419 87.0609C153.092 86.4915 152.929 85.8429 152.929 85.1149C152.929 84.3775 153.092 83.7289 153.419 83.1689C153.746 82.6089 154.194 82.1702 154.763 81.8529C155.342 81.5355 155.995 81.3769 156.723 81.3769C157.348 81.3769 157.913 81.4982 158.417 81.7409C158.921 81.9835 159.318 82.3475 159.607 82.8329L158.865 83.3369C158.613 82.9635 158.3 82.6882 157.927 82.5109C157.554 82.3335 157.148 82.2449 156.709 82.2449C156.186 82.2449 155.715 82.3662 155.295 82.6089C154.875 82.8422 154.544 83.1735 154.301 83.6029C154.058 84.0322 153.937 84.5362 153.937 85.1149C153.937 85.6935 154.058 86.1975 154.301 86.6269C154.544 87.0562 154.875 87.3922 155.295 87.6349C155.715 87.8682 156.186 87.9849 156.709 87.9849C157.148 87.9849 157.554 87.8962 157.927 87.7189C158.3 87.5415 158.613 87.2709 158.865 86.9069L159.607 87.4109C159.318 87.8869 158.921 88.2509 158.417 88.5029C157.913 88.7455 157.348 88.8669 156.723 88.8669ZM164.309 88.8669C163.543 88.8669 162.871 88.7082 162.293 88.3909C161.714 88.0642 161.261 87.6209 160.935 87.0609C160.608 86.4915 160.445 85.8429 160.445 85.1149C160.445 84.3869 160.599 83.7429 160.907 83.1829C161.224 82.6229 161.653 82.1842 162.195 81.8669C162.745 81.5402 163.361 81.3769 164.043 81.3769C164.733 81.3769 165.345 81.5355 165.877 81.8529C166.418 82.1609 166.843 82.5995 167.151 83.1689C167.459 83.7289 167.613 84.3775 167.613 85.1149C167.613 85.1615 167.608 85.2129 167.599 85.2689C167.599 85.3155 167.599 85.3669 167.599 85.4229H161.201V84.6809H167.067L166.675 84.9749C166.675 84.4429 166.558 83.9715 166.325 83.5609C166.101 83.1409 165.793 82.8142 165.401 82.5809C165.009 82.3475 164.556 82.2309 164.043 82.2309C163.539 82.2309 163.086 82.3475 162.685 82.5809C162.283 82.8142 161.971 83.1409 161.747 83.5609C161.523 83.9809 161.411 84.4615 161.411 85.0029V85.1569C161.411 85.7169 161.532 86.2115 161.775 86.6409C162.027 87.0609 162.372 87.3922 162.811 87.6349C163.259 87.8682 163.767 87.9849 164.337 87.9849C164.785 87.9849 165.2 87.9055 165.583 87.7469C165.975 87.5882 166.311 87.3455 166.591 87.0189L167.151 87.6629C166.824 88.0549 166.413 88.3535 165.919 88.5589C165.433 88.7642 164.897 88.8669 164.309 88.8669ZM171.442 88.7969L175.922 78.9969H176.944L181.424 88.7969H180.332L176.216 79.5989H176.636L172.52 88.7969H171.442ZM173.206 86.1789L173.514 85.3389H179.212L179.52 86.1789H173.206ZM185.487 88.8669C184.861 88.8669 184.315 88.7502 183.849 88.5169C183.382 88.2835 183.018 87.9335 182.757 87.4669C182.505 87.0002 182.379 86.4169 182.379 85.7169V81.4469H183.373V85.6049C183.373 86.3889 183.564 86.9815 183.947 87.3829C184.339 87.7749 184.885 87.9709 185.585 87.9709C186.098 87.9709 186.541 87.8682 186.915 87.6629C187.297 87.4482 187.587 87.1402 187.783 86.7389C187.988 86.3375 188.091 85.8569 188.091 85.2969V81.4469H189.085V88.7969H188.132V86.7809L188.287 87.1449C188.053 87.6862 187.689 88.1109 187.195 88.4189C186.709 88.7175 186.14 88.8669 185.487 88.8669ZM194.531 88.8669C193.831 88.8669 193.201 88.7082 192.641 88.3909C192.09 88.0735 191.656 87.6349 191.339 87.0749C191.021 86.5055 190.863 85.8522 190.863 85.1149C190.863 84.3682 191.021 83.7149 191.339 83.1549C191.656 82.5949 192.09 82.1609 192.641 81.8529C193.201 81.5355 193.831 81.3769 194.531 81.3769C195.175 81.3769 195.749 81.5215 196.253 81.8109C196.766 82.1002 197.172 82.5249 197.471 83.0849C197.779 83.6355 197.933 84.3122 197.933 85.1149C197.933 85.9082 197.783 86.5849 197.485 87.1449C197.186 87.7049 196.78 88.1342 196.267 88.4329C195.763 88.7222 195.184 88.8669 194.531 88.8669ZM194.601 87.9849C195.123 87.9849 195.59 87.8682 196.001 87.6349C196.421 87.3922 196.747 87.0562 196.981 86.6269C197.223 86.1882 197.345 85.6842 197.345 85.1149C197.345 84.5362 197.223 84.0322 196.981 83.6029C196.747 83.1735 196.421 82.8422 196.001 82.6089C195.59 82.3662 195.123 82.2449 194.601 82.2449C194.087 82.2449 193.625 82.3662 193.215 82.6089C192.804 82.8422 192.477 83.1735 192.235 83.6029C191.992 84.0322 191.871 84.5362 191.871 85.1149C191.871 85.6842 191.992 86.1882 192.235 86.6269C192.477 87.0562 192.804 87.3922 193.215 87.6349C193.625 87.8682 194.087 87.9849 194.601 87.9849ZM197.373 88.7969V86.5849L197.471 85.1009L197.331 83.6169V78.4089H198.325V88.7969H197.373ZM200.843 88.7969V81.4469H201.837V88.7969H200.843ZM201.347 79.8229C201.142 79.8229 200.969 79.7529 200.829 79.6129C200.689 79.4729 200.619 79.3049 200.619 79.1089C200.619 78.9129 200.689 78.7495 200.829 78.6189C200.969 78.4789 201.142 78.4089 201.347 78.4089C201.552 78.4089 201.725 78.4742 201.865 78.6049C202.005 78.7355 202.075 78.8989 202.075 79.0949C202.075 79.3002 202.005 79.4729 201.865 79.6129C201.734 79.7529 201.562 79.8229 201.347 79.8229ZM206.677 88.8669C205.986 88.8669 205.454 88.6802 205.081 88.3069C204.707 87.9335 204.521 87.4062 204.521 86.7249V79.8229H205.515V86.6689C205.515 87.0982 205.622 87.4295 205.837 87.6629C206.061 87.8962 206.378 88.0129 206.789 88.0129C207.227 88.0129 207.591 87.8869 207.881 87.6349L208.231 88.3489C208.035 88.5262 207.797 88.6569 207.517 88.7409C207.246 88.8249 206.966 88.8669 206.677 88.8669ZM203.205 82.2729V81.4469H207.755V82.2729H203.205ZM213.414 88.7969V78.9969H217.082C217.913 78.9969 218.627 79.1322 219.224 79.4029C219.822 79.6642 220.279 80.0469 220.596 80.5509C220.923 81.0455 221.086 81.6475 221.086 82.3569C221.086 83.0475 220.923 83.6449 220.596 84.1489C220.279 84.6435 219.822 85.0262 219.224 85.2969C218.627 85.5582 217.913 85.6889 217.082 85.6889H213.988L214.45 85.2129V88.7969H213.414ZM220.106 88.7969L217.586 85.2409H218.706L221.24 88.7969H220.106ZM214.45 85.2969L213.988 84.8069H217.054C218.034 84.8069 218.776 84.5922 219.28 84.1629C219.794 83.7335 220.05 83.1315 220.05 82.3569C220.05 81.5729 219.794 80.9662 219.28 80.5369C218.776 80.1075 218.034 79.8929 217.054 79.8929H213.988L214.45 79.4029V85.2969ZM226.11 88.8669C225.484 88.8669 224.938 88.7502 224.472 88.5169C224.005 88.2835 223.641 87.9335 223.38 87.4669C223.128 87.0002 223.002 86.4169 223.002 85.7169V81.4469H223.996V85.6049C223.996 86.3889 224.187 86.9815 224.57 87.3829C224.962 87.7749 225.508 87.9709 226.208 87.9709C226.721 87.9709 227.164 87.8682 227.538 87.6629C227.92 87.4482 228.21 87.1402 228.406 86.7389C228.611 86.3375 228.714 85.8569 228.714 85.2969V81.4469H229.708V88.7969H228.756V86.7809L228.91 87.1449C228.676 87.6862 228.312 88.1109 227.818 88.4189C227.332 88.7175 226.763 88.8669 226.11 88.8669ZM232.228 88.7969V78.4089H233.222V88.7969H232.228ZM238.86 88.8669C238.094 88.8669 237.422 88.7082 236.844 88.3909C236.265 88.0642 235.812 87.6209 235.486 87.0609C235.159 86.4915 234.996 85.8429 234.996 85.1149C234.996 84.3869 235.15 83.7429 235.458 83.1829C235.775 82.6229 236.204 82.1842 236.746 81.8669C237.296 81.5402 237.912 81.3769 238.594 81.3769C239.284 81.3769 239.896 81.5355 240.428 81.8529C240.969 82.1609 241.394 82.5995 241.702 83.1689C242.01 83.7289 242.164 84.3775 242.164 85.1149C242.164 85.1615 242.159 85.2129 242.15 85.2689C242.15 85.3155 242.15 85.3669 242.15 85.4229H235.752V84.6809H241.618L241.226 84.9749C241.226 84.4429 241.109 83.9715 240.876 83.5609C240.652 83.1409 240.344 82.8142 239.952 82.5809C239.56 82.3475 239.107 82.2309 238.594 82.2309C238.09 82.2309 237.637 82.3475 237.236 82.5809C236.834 82.8142 236.522 83.1409 236.298 83.5609C236.074 83.9809 235.962 84.4615 235.962 85.0029V85.1569C235.962 85.7169 236.083 86.2115 236.326 86.6409C236.578 87.0609 236.923 87.3922 237.362 87.6349C237.81 87.8682 238.318 87.9849 238.888 87.9849C239.336 87.9849 239.751 87.9055 240.134 87.7469C240.526 87.5882 240.862 87.3455 241.142 87.0189L241.702 87.6629C241.375 88.0549 240.964 88.3535 240.47 88.5589C239.984 88.7642 239.448 88.8669 238.86 88.8669Z" fill="#666666"/>
<rect x="24.5" y="121.297" width="279" height="45" rx="6.5" fill="#F5F5F5" stroke="#EEEEEE"/>
<path d="M113.19 148.881C112.453 148.881 111.771 148.76 111.146 148.517C110.521 148.265 109.979 147.915 109.522 147.467C109.065 147.019 108.705 146.492 108.444 145.885C108.192 145.278 108.066 144.616 108.066 143.897C108.066 143.178 108.192 142.516 108.444 141.909C108.705 141.302 109.065 140.775 109.522 140.327C109.989 139.879 110.535 139.534 111.16 139.291C111.785 139.039 112.467 138.913 113.204 138.913C113.913 138.913 114.581 139.034 115.206 139.277C115.831 139.51 116.359 139.865 116.788 140.341L116.13 140.999C115.729 140.588 115.285 140.294 114.8 140.117C114.315 139.93 113.792 139.837 113.232 139.837C112.644 139.837 112.098 139.94 111.594 140.145C111.09 140.341 110.651 140.626 110.278 140.999C109.905 141.363 109.611 141.792 109.396 142.287C109.191 142.772 109.088 143.309 109.088 143.897C109.088 144.485 109.191 145.026 109.396 145.521C109.611 146.006 109.905 146.436 110.278 146.809C110.651 147.173 111.09 147.458 111.594 147.663C112.098 147.859 112.644 147.957 113.232 147.957C113.792 147.957 114.315 147.864 114.8 147.677C115.285 147.49 115.729 147.192 116.13 146.781L116.788 147.439C116.359 147.915 115.831 148.274 115.206 148.517C114.581 148.76 113.909 148.881 113.19 148.881ZM121.204 148.867C120.495 148.867 119.856 148.708 119.286 148.391C118.726 148.064 118.283 147.621 117.956 147.061C117.63 146.492 117.466 145.843 117.466 145.115C117.466 144.378 117.63 143.729 117.956 143.169C118.283 142.609 118.726 142.17 119.286 141.853C119.846 141.536 120.486 141.377 121.204 141.377C121.932 141.377 122.576 141.536 123.136 141.853C123.706 142.17 124.149 142.609 124.466 143.169C124.793 143.729 124.956 144.378 124.956 145.115C124.956 145.843 124.793 146.492 124.466 147.061C124.149 147.621 123.706 148.064 123.136 148.391C122.567 148.708 121.923 148.867 121.204 148.867ZM121.204 147.985C121.736 147.985 122.208 147.868 122.618 147.635C123.029 147.392 123.351 147.056 123.584 146.627C123.827 146.188 123.948 145.684 123.948 145.115C123.948 144.536 123.827 144.032 123.584 143.603C123.351 143.174 123.029 142.842 122.618 142.609C122.208 142.366 121.741 142.245 121.218 142.245C120.696 142.245 120.229 142.366 119.818 142.609C119.408 142.842 119.081 143.174 118.838 143.603C118.596 144.032 118.474 144.536 118.474 145.115C118.474 145.684 118.596 146.188 118.838 146.627C119.081 147.056 119.408 147.392 119.818 147.635C120.229 147.868 120.691 147.985 121.204 147.985ZM129.662 148.867C128.962 148.867 128.332 148.708 127.772 148.391C127.221 148.074 126.787 147.635 126.47 147.075C126.152 146.506 125.994 145.852 125.994 145.115C125.994 144.368 126.152 143.715 126.47 143.155C126.787 142.595 127.221 142.161 127.772 141.853C128.332 141.536 128.962 141.377 129.662 141.377C130.306 141.377 130.88 141.522 131.384 141.811C131.897 142.1 132.303 142.525 132.602 143.085C132.91 143.636 133.064 144.312 133.064 145.115C133.064 145.908 132.914 146.585 132.616 147.145C132.317 147.705 131.911 148.134 131.398 148.433C130.894 148.722 130.315 148.867 129.662 148.867ZM129.732 147.985C130.254 147.985 130.721 147.868 131.132 147.635C131.552 147.392 131.878 147.056 132.112 146.627C132.354 146.188 132.476 145.684 132.476 145.115C132.476 144.536 132.354 144.032 132.112 143.603C131.878 143.174 131.552 142.842 131.132 142.609C130.721 142.366 130.254 142.245 129.732 142.245C129.218 142.245 128.756 142.366 128.346 142.609C127.935 142.842 127.608 143.174 127.366 143.603C127.123 144.032 127.002 144.536 127.002 145.115C127.002 145.684 127.123 146.188 127.366 146.627C127.608 147.056 127.935 147.392 128.346 147.635C128.756 147.868 129.218 147.985 129.732 147.985ZM132.504 148.797V146.585L132.602 145.101L132.462 143.617V138.409H133.456V148.797H132.504ZM139.096 148.867C138.331 148.867 137.659 148.708 137.08 148.391C136.501 148.064 136.049 147.621 135.722 147.061C135.395 146.492 135.232 145.843 135.232 145.115C135.232 144.387 135.386 143.743 135.694 143.183C136.011 142.623 136.441 142.184 136.982 141.867C137.533 141.54 138.149 141.377 138.83 141.377C139.521 141.377 140.132 141.536 140.664 141.853C141.205 142.161 141.63 142.6 141.938 143.169C142.246 143.729 142.4 144.378 142.4 145.115C142.4 145.162 142.395 145.213 142.386 145.269C142.386 145.316 142.386 145.367 142.386 145.423H135.988V144.681H141.854L141.462 144.975C141.462 144.443 141.345 143.972 141.112 143.561C140.888 143.141 140.58 142.814 140.188 142.581C139.796 142.348 139.343 142.231 138.83 142.231C138.326 142.231 137.873 142.348 137.472 142.581C137.071 142.814 136.758 143.141 136.534 143.561C136.31 143.981 136.198 144.462 136.198 145.003V145.157C136.198 145.717 136.319 146.212 136.562 146.641C136.814 147.061 137.159 147.392 137.598 147.635C138.046 147.868 138.555 147.985 139.124 147.985C139.572 147.985 139.987 147.906 140.37 147.747C140.762 147.588 141.098 147.346 141.378 147.019L141.938 147.663C141.611 148.055 141.201 148.354 140.706 148.559C140.221 148.764 139.684 148.867 139.096 148.867ZM150.583 148.867C149.874 148.867 149.235 148.708 148.665 148.391C148.105 148.064 147.662 147.621 147.335 147.061C147.009 146.492 146.845 145.843 146.845 145.115C146.845 144.378 147.009 143.729 147.335 143.169C147.662 142.609 148.105 142.17 148.665 141.853C149.225 141.536 149.865 141.377 150.583 141.377C151.311 141.377 151.955 141.536 152.515 141.853C153.085 142.17 153.528 142.609 153.845 143.169C154.172 143.729 154.335 144.378 154.335 145.115C154.335 145.843 154.172 146.492 153.845 147.061C153.528 147.621 153.085 148.064 152.515 148.391C151.946 148.708 151.302 148.867 150.583 148.867ZM150.583 147.985C151.115 147.985 151.587 147.868 151.997 147.635C152.408 147.392 152.73 147.056 152.963 146.627C153.206 146.188 153.327 145.684 153.327 145.115C153.327 144.536 153.206 144.032 152.963 143.603C152.73 143.174 152.408 142.842 151.997 142.609C151.587 142.366 151.12 142.245 150.597 142.245C150.075 142.245 149.608 142.366 149.197 142.609C148.787 142.842 148.46 143.174 148.217 143.603C147.975 144.032 147.853 144.536 147.853 145.115C147.853 145.684 147.975 146.188 148.217 146.627C148.46 147.056 148.787 147.392 149.197 147.635C149.608 147.868 150.07 147.985 150.583 147.985ZM156.283 148.797V140.523C156.283 139.87 156.474 139.342 156.857 138.941C157.239 138.54 157.79 138.339 158.509 138.339C158.789 138.339 159.059 138.376 159.321 138.451C159.582 138.526 159.801 138.642 159.979 138.801L159.643 139.543C159.503 139.422 159.339 139.333 159.153 139.277C158.966 139.212 158.765 139.179 158.551 139.179C158.131 139.179 157.809 139.296 157.585 139.529C157.361 139.762 157.249 140.108 157.249 140.565V141.685L157.277 142.147V148.797H156.283ZM154.967 142.273V141.447H159.517V142.273H154.967ZM168.489 148.881C167.751 148.881 167.07 148.76 166.445 148.517C165.819 148.265 165.278 147.915 164.821 147.467C164.363 147.019 164.004 146.492 163.743 145.885C163.491 145.278 163.365 144.616 163.365 143.897C163.365 143.178 163.491 142.516 163.743 141.909C164.004 141.302 164.363 140.775 164.821 140.327C165.287 139.879 165.833 139.534 166.459 139.291C167.084 139.039 167.765 138.913 168.503 138.913C169.212 138.913 169.879 139.034 170.505 139.277C171.13 139.51 171.657 139.865 172.087 140.341L171.429 140.999C171.027 140.588 170.584 140.294 170.099 140.117C169.613 139.93 169.091 139.837 168.531 139.837C167.943 139.837 167.397 139.94 166.893 140.145C166.389 140.341 165.95 140.626 165.577 140.999C165.203 141.363 164.909 141.792 164.695 142.287C164.489 142.772 164.387 143.309 164.387 143.897C164.387 144.485 164.489 145.026 164.695 145.521C164.909 146.006 165.203 146.436 165.577 146.809C165.95 147.173 166.389 147.458 166.893 147.663C167.397 147.859 167.943 147.957 168.531 147.957C169.091 147.957 169.613 147.864 170.099 147.677C170.584 147.49 171.027 147.192 171.429 146.781L172.087 147.439C171.657 147.915 171.13 148.274 170.505 148.517C169.879 148.76 169.207 148.881 168.489 148.881ZM176.503 148.867C175.794 148.867 175.154 148.708 174.585 148.391C174.025 148.064 173.582 147.621 173.255 147.061C172.928 146.492 172.765 145.843 172.765 145.115C172.765 144.378 172.928 143.729 173.255 143.169C173.582 142.609 174.025 142.17 174.585 141.853C175.145 141.536 175.784 141.377 176.503 141.377C177.231 141.377 177.875 141.536 178.435 141.853C179.004 142.17 179.448 142.609 179.765 143.169C180.092 143.729 180.255 144.378 180.255 145.115C180.255 145.843 180.092 146.492 179.765 147.061C179.448 147.621 179.004 148.064 178.435 148.391C177.866 148.708 177.222 148.867 176.503 148.867ZM176.503 147.985C177.035 147.985 177.506 147.868 177.917 147.635C178.328 147.392 178.65 147.056 178.883 146.627C179.126 146.188 179.247 145.684 179.247 145.115C179.247 144.536 179.126 144.032 178.883 143.603C178.65 143.174 178.328 142.842 177.917 142.609C177.506 142.366 177.04 142.245 176.517 142.245C175.994 142.245 175.528 142.366 175.117 142.609C174.706 142.842 174.38 143.174 174.137 143.603C173.894 144.032 173.773 144.536 173.773 145.115C173.773 145.684 173.894 146.188 174.137 146.627C174.38 147.056 174.706 147.392 175.117 147.635C175.528 147.868 175.99 147.985 176.503 147.985ZM185.786 141.377C186.384 141.377 186.906 141.494 187.354 141.727C187.812 141.951 188.166 142.296 188.418 142.763C188.68 143.23 188.81 143.818 188.81 144.527V148.797H187.816V144.625C187.816 143.85 187.62 143.267 187.228 142.875C186.846 142.474 186.304 142.273 185.604 142.273C185.082 142.273 184.624 142.38 184.232 142.595C183.85 142.8 183.551 143.104 183.336 143.505C183.131 143.897 183.028 144.373 183.028 144.933V148.797H182.034V141.447H182.986V143.463L182.832 143.085C183.066 142.553 183.439 142.138 183.952 141.839C184.466 141.531 185.077 141.377 185.786 141.377ZM194.171 148.867C193.471 148.867 192.841 148.708 192.281 148.391C191.731 148.074 191.297 147.635 190.979 147.075C190.662 146.506 190.503 145.852 190.503 145.115C190.503 144.368 190.662 143.715 190.979 143.155C191.297 142.595 191.731 142.161 192.281 141.853C192.841 141.536 193.471 141.377 194.171 141.377C194.815 141.377 195.389 141.522 195.893 141.811C196.407 142.1 196.813 142.525 197.111 143.085C197.419 143.636 197.573 144.312 197.573 145.115C197.573 145.908 197.424 146.585 197.125 147.145C196.827 147.705 196.421 148.134 195.907 148.433C195.403 148.722 194.825 148.867 194.171 148.867ZM194.241 147.985C194.764 147.985 195.231 147.868 195.641 147.635C196.061 147.392 196.388 147.056 196.621 146.627C196.864 146.188 196.985 145.684 196.985 145.115C196.985 144.536 196.864 144.032 196.621 143.603C196.388 143.174 196.061 142.842 195.641 142.609C195.231 142.366 194.764 142.245 194.241 142.245C193.728 142.245 193.266 142.366 192.855 142.609C192.445 142.842 192.118 143.174 191.875 143.603C191.633 144.032 191.511 144.536 191.511 145.115C191.511 145.684 191.633 146.188 191.875 146.627C192.118 147.056 192.445 147.392 192.855 147.635C193.266 147.868 193.728 147.985 194.241 147.985ZM197.013 148.797V146.585L197.111 145.101L196.971 143.617V138.409H197.965V148.797H197.013ZM203.522 148.867C202.896 148.867 202.35 148.75 201.884 148.517C201.417 148.284 201.053 147.934 200.792 147.467C200.54 147 200.414 146.417 200.414 145.717V141.447H201.408V145.605C201.408 146.389 201.599 146.982 201.982 147.383C202.374 147.775 202.92 147.971 203.62 147.971C204.133 147.971 204.576 147.868 204.95 147.663C205.332 147.448 205.622 147.14 205.818 146.739C206.023 146.338 206.126 145.857 206.126 145.297V141.447H207.12V148.797H206.168V146.781L206.322 147.145C206.088 147.686 205.724 148.111 205.23 148.419C204.744 148.718 204.175 148.867 203.522 148.867ZM212.692 148.867C211.964 148.867 211.311 148.708 210.732 148.391C210.163 148.064 209.715 147.621 209.388 147.061C209.061 146.492 208.898 145.843 208.898 145.115C208.898 144.378 209.061 143.729 209.388 143.169C209.715 142.609 210.163 142.17 210.732 141.853C211.311 141.536 211.964 141.377 212.692 141.377C213.317 141.377 213.882 141.498 214.386 141.741C214.89 141.984 215.287 142.348 215.576 142.833L214.834 143.337C214.582 142.964 214.269 142.688 213.896 142.511C213.523 142.334 213.117 142.245 212.678 142.245C212.155 142.245 211.684 142.366 211.264 142.609C210.844 142.842 210.513 143.174 210.27 143.603C210.027 144.032 209.906 144.536 209.906 145.115C209.906 145.694 210.027 146.198 210.27 146.627C210.513 147.056 210.844 147.392 211.264 147.635C211.684 147.868 212.155 147.985 212.678 147.985C213.117 147.985 213.523 147.896 213.896 147.719C214.269 147.542 214.582 147.271 214.834 146.907L215.576 147.411C215.287 147.887 214.89 148.251 214.386 148.503C213.882 148.746 213.317 148.867 212.692 148.867ZM219.685 148.867C218.994 148.867 218.462 148.68 218.089 148.307C217.715 147.934 217.529 147.406 217.529 146.725V139.823H218.523V146.669C218.523 147.098 218.63 147.43 218.845 147.663C219.069 147.896 219.386 148.013 219.797 148.013C220.235 148.013 220.599 147.887 220.889 147.635L221.239 148.349C221.043 148.526 220.805 148.657 220.525 148.741C220.254 148.825 219.974 148.867 219.685 148.867ZM216.213 142.273V141.447H220.763V142.273H216.213Z" fill="#666666"/>
<rect x="24.5" y="181.297" width="279" height="45" rx="6.5" fill="white" stroke="#EEEEEE"/>
<path d="M137.666 208.881C136.919 208.881 136.228 208.76 135.594 208.517C134.968 208.265 134.422 207.915 133.956 207.467C133.498 207.019 133.139 206.492 132.878 205.885C132.626 205.278 132.5 204.616 132.5 203.897C132.5 203.178 132.626 202.516 132.878 201.909C133.139 201.302 133.503 200.775 133.97 200.327C134.436 199.879 134.982 199.534 135.608 199.291C136.242 199.039 136.933 198.913 137.68 198.913C138.426 198.913 139.108 199.03 139.724 199.263C140.349 199.496 140.881 199.851 141.32 200.327L140.676 200.985C140.265 200.574 139.812 200.28 139.318 200.103C138.823 199.926 138.291 199.837 137.722 199.837C137.115 199.837 136.555 199.94 136.042 200.145C135.538 200.341 135.094 200.626 134.712 200.999C134.338 201.363 134.044 201.792 133.83 202.287C133.624 202.772 133.522 203.309 133.522 203.897C133.522 204.476 133.624 205.012 133.83 205.507C134.044 206.002 134.338 206.436 134.712 206.809C135.094 207.173 135.538 207.458 136.042 207.663C136.555 207.859 137.11 207.957 137.708 207.957C138.268 207.957 138.795 207.873 139.29 207.705C139.794 207.537 140.256 207.252 140.676 206.851L141.264 207.635C140.797 208.046 140.251 208.358 139.626 208.573C139 208.778 138.347 208.881 137.666 208.881ZM140.27 207.509V203.897H141.264V207.635L140.27 207.509ZM146.774 208.867C146.149 208.867 145.603 208.75 145.136 208.517C144.669 208.284 144.305 207.934 144.044 207.467C143.792 207 143.666 206.417 143.666 205.717V201.447H144.66V205.605C144.66 206.389 144.851 206.982 145.234 207.383C145.626 207.775 146.172 207.971 146.872 207.971C147.385 207.971 147.829 207.868 148.202 207.663C148.585 207.448 148.874 207.14 149.07 206.739C149.275 206.338 149.378 205.857 149.378 205.297V201.447H150.372V208.797H149.42V206.781L149.574 207.145C149.341 207.686 148.977 208.111 148.482 208.419C147.997 208.718 147.427 208.867 146.774 208.867ZM152.892 208.797V201.447H153.886V208.797H152.892ZM153.396 199.823C153.191 199.823 153.018 199.753 152.878 199.613C152.738 199.473 152.668 199.305 152.668 199.109C152.668 198.913 152.738 198.75 152.878 198.619C153.018 198.479 153.191 198.409 153.396 198.409C153.602 198.409 153.774 198.474 153.914 198.605C154.054 198.736 154.124 198.899 154.124 199.095C154.124 199.3 154.054 199.473 153.914 199.613C153.784 199.753 153.611 199.823 153.396 199.823ZM159.328 208.867C158.628 208.867 157.998 208.708 157.438 208.391C156.887 208.074 156.453 207.635 156.136 207.075C155.819 206.506 155.66 205.852 155.66 205.115C155.66 204.368 155.819 203.715 156.136 203.155C156.453 202.595 156.887 202.161 157.438 201.853C157.998 201.536 158.628 201.377 159.328 201.377C159.972 201.377 160.546 201.522 161.05 201.811C161.563 202.1 161.969 202.525 162.268 203.085C162.576 203.636 162.73 204.312 162.73 205.115C162.73 205.908 162.581 206.585 162.282 207.145C161.983 207.705 161.577 208.134 161.064 208.433C160.56 208.722 159.981 208.867 159.328 208.867ZM159.398 207.985C159.921 207.985 160.387 207.868 160.798 207.635C161.218 207.392 161.545 207.056 161.778 206.627C162.021 206.188 162.142 205.684 162.142 205.115C162.142 204.536 162.021 204.032 161.778 203.603C161.545 203.174 161.218 202.842 160.798 202.609C160.387 202.366 159.921 202.245 159.398 202.245C158.885 202.245 158.423 202.366 158.012 202.609C157.601 202.842 157.275 203.174 157.032 203.603C156.789 204.032 156.668 204.536 156.668 205.115C156.668 205.684 156.789 206.188 157.032 206.627C157.275 207.056 157.601 207.392 158.012 207.635C158.423 207.868 158.885 207.985 159.398 207.985ZM162.17 208.797V206.585L162.268 205.101L162.128 203.617V198.409H163.122V208.797H162.17ZM168.762 208.867C167.997 208.867 167.325 208.708 166.746 208.391C166.168 208.064 165.715 207.621 165.388 207.061C165.062 206.492 164.898 205.843 164.898 205.115C164.898 204.387 165.052 203.743 165.36 203.183C165.678 202.623 166.107 202.184 166.648 201.867C167.199 201.54 167.815 201.377 168.496 201.377C169.187 201.377 169.798 201.536 170.33 201.853C170.872 202.161 171.296 202.6 171.604 203.169C171.912 203.729 172.066 204.378 172.066 205.115C172.066 205.162 172.062 205.213 172.052 205.269C172.052 205.316 172.052 205.367 172.052 205.423H165.654V204.681H171.52L171.128 204.975C171.128 204.443 171.012 203.972 170.778 203.561C170.554 203.141 170.246 202.814 169.854 202.581C169.462 202.348 169.01 202.231 168.496 202.231C167.992 202.231 167.54 202.348 167.138 202.581C166.737 202.814 166.424 203.141 166.2 203.561C165.976 203.981 165.864 204.462 165.864 205.003V205.157C165.864 205.717 165.986 206.212 166.228 206.641C166.48 207.061 166.826 207.392 167.264 207.635C167.712 207.868 168.221 207.985 168.79 207.985C169.238 207.985 169.654 207.906 170.036 207.747C170.428 207.588 170.764 207.346 171.044 207.019L171.604 207.663C171.278 208.055 170.867 208.354 170.372 208.559C169.887 208.764 169.35 208.867 168.762 208.867ZM173.839 208.797V198.409H174.833V208.797H173.839ZM177.349 208.797V201.447H178.343V208.797H177.349ZM177.853 199.823C177.648 199.823 177.475 199.753 177.335 199.613C177.195 199.473 177.125 199.305 177.125 199.109C177.125 198.913 177.195 198.75 177.335 198.619C177.475 198.479 177.648 198.409 177.853 198.409C178.059 198.409 178.231 198.474 178.371 198.605C178.511 198.736 178.581 198.899 178.581 199.095C178.581 199.3 178.511 199.473 178.371 199.613C178.241 199.753 178.068 199.823 177.853 199.823ZM184.611 201.377C185.208 201.377 185.731 201.494 186.179 201.727C186.636 201.951 186.991 202.296 187.243 202.763C187.504 203.23 187.635 203.818 187.635 204.527V208.797H186.641V204.625C186.641 203.85 186.445 203.267 186.053 202.875C185.67 202.474 185.129 202.273 184.429 202.273C183.906 202.273 183.449 202.38 183.057 202.595C182.674 202.8 182.376 203.104 182.161 203.505C181.956 203.897 181.853 204.373 181.853 204.933V208.797H180.859V201.447H181.811V203.463L181.657 203.085C181.89 202.553 182.264 202.138 182.777 201.839C183.29 201.531 183.902 201.377 184.611 201.377ZM193.192 208.867C192.427 208.867 191.755 208.708 191.176 208.391C190.597 208.064 190.145 207.621 189.818 207.061C189.491 206.492 189.328 205.843 189.328 205.115C189.328 204.387 189.482 203.743 189.79 203.183C190.107 202.623 190.537 202.184 191.078 201.867C191.629 201.54 192.245 201.377 192.926 201.377C193.617 201.377 194.228 201.536 194.76 201.853C195.301 202.161 195.726 202.6 196.034 203.169C196.342 203.729 196.496 204.378 196.496 205.115C196.496 205.162 196.491 205.213 196.482 205.269C196.482 205.316 196.482 205.367 196.482 205.423H190.084V204.681H195.95L195.558 204.975C195.558 204.443 195.441 203.972 195.208 203.561C194.984 203.141 194.676 202.814 194.284 202.581C193.892 202.348 193.439 202.231 192.926 202.231C192.422 202.231 191.969 202.348 191.568 202.581C191.167 202.814 190.854 203.141 190.63 203.561C190.406 203.981 190.294 204.462 190.294 205.003V205.157C190.294 205.717 190.415 206.212 190.658 206.641C190.91 207.061 191.255 207.392 191.694 207.635C192.142 207.868 192.651 207.985 193.22 207.985C193.668 207.985 194.083 207.906 194.466 207.747C194.858 207.588 195.194 207.346 195.474 207.019L196.034 207.663C195.707 208.055 195.297 208.354 194.802 208.559C194.317 208.764 193.78 208.867 193.192 208.867Z" fill="#666666"/>
</svg>
