<svg width="1200" height="100" viewBox="0 0 1200 100" fill="none" xmlns="http://www.w3.org/2000/svg">
<path d="M1064 50.0001L133 50" stroke="#EEEEEE" stroke-linecap="round" stroke-linejoin="round"/>
<rect width="277" height="100" rx="10" fill="#435CE7"/>
<path d="M94.2686 49.184C96.5886 48.832 98.7006 47.68 99.4846 46.016C100.253 47.68 102.365 48.832 104.701 49.184L105.181 48.128C102.653 47.792 100.333 46.368 100.333 44.624V44.608H104.797V43.552H94.1726V44.608H98.6366V44.624C98.6366 46.368 96.3166 47.792 93.7726 48.128L94.2686 49.184ZM95.9326 52.8H94.6206V56.864H104.541V55.792H95.9326V52.8ZM92.9566 50.224V51.28H98.9246V54.192H100.237V51.28H105.981V50.224H92.9566ZM117.969 55.92H111.377V54.128H117.969V55.92ZM117.969 53.104H111.377V51.376H110.081V56.976H119.265V51.376H117.969V53.104ZM113.345 49.072H109.473V46.8H113.345V49.072ZM117.953 42.848V46.368H114.641V43.584H113.345V45.776H109.473V43.584H108.177V50.144H114.641V47.44H117.953V50.688H119.281V42.848L117.953 42.848ZM131.734 56.176C129.43 56.176 128.134 55.728 128.134 54.864C128.134 54.016 129.43 53.552 131.734 53.552C134.054 53.552 135.334 54.016 135.334 54.864C135.334 55.728 134.054 56.176 131.734 56.176ZM131.734 52.576C128.614 52.576 126.822 53.376 126.822 54.864C126.822 56.368 128.614 57.168 131.734 57.168C134.854 57.168 136.646 56.368 136.646 54.864C136.646 53.376 134.854 52.576 131.734 52.576ZM132.39 50.432V49.024H136.71V48H128.262V46.592H136.246V45.6H128.262V44.272H136.63V43.248H126.95V49.024H131.078V50.432H125.238V51.488H138.23V50.432H132.39ZM143.931 45.584H146.491V44.512H139.947V45.584H142.667V46.88C142.667 49.52 141.547 52.128 139.547 53.328L140.347 54.304C141.771 53.408 142.811 51.728 143.307 49.76C143.803 51.584 144.795 53.12 146.187 53.952L146.987 52.992C145.003 51.872 143.931 49.376 143.931 46.88V45.584ZM147.771 47.984H145.403V49.056H147.771V56.432H149.019V43.152H147.771V47.984ZM150.651 42.816V57.168H151.915V42.816H150.651ZM158.368 44.384V45.44H163.76C163.488 48.848 161.568 51.6 157.712 53.44L158.416 54.512C163.184 52.176 165.088 48.528 165.088 44.384H158.368ZM167.984 42.832V57.184H169.296V42.832L167.984 42.832ZM173.269 49.184C175.589 48.832 177.701 47.68 178.485 46.016C179.253 47.68 181.365 48.832 183.701 49.184L184.181 48.128C181.653 47.792 179.333 46.368 179.333 44.624V44.608H183.797V43.552H173.173V44.608H177.637V44.624C177.637 46.368 175.317 47.792 172.773 48.128L173.269 49.184ZM174.933 52.8H173.621V56.864H183.541V55.792H174.933V52.8ZM171.957 50.224V51.28H177.925V54.192H179.237V51.28H184.981V50.224H171.957Z" fill="white"/>
<rect x="307.5" y="0.5" width="276" height="99" rx="9.5" fill="#F5F5F5" stroke="#EEEEEE"/>
<path d="M384.136 49.184C386.456 48.832 388.568 47.68 389.352 46.016C390.12 47.68 392.232 48.832 394.568 49.184L395.048 48.128C392.52 47.792 390.2 46.368 390.2 44.624V44.608H394.664V43.552H384.04V44.608H388.504V44.624C388.504 46.368 386.184 47.792 383.64 48.128L384.136 49.184ZM385.8 52.8H384.488V56.864H394.408V55.792H385.8V52.8ZM382.824 50.224V51.28H388.792V54.192H390.104V51.28H395.848V50.224H382.824ZM407.837 55.92H401.245V54.128H407.837V55.92ZM407.837 53.104H401.245V51.376H399.949V56.976H409.133V51.376H407.837V53.104ZM403.213 49.072H399.341V46.8H403.213V49.072ZM407.821 42.848V46.368H404.509V43.584H403.213V45.776H399.341V43.584H398.045V50.144H404.509V47.44H407.821V50.688H409.149V42.848L407.821 42.848ZM415.745 43.744V44.816H420.961C420.705 47.248 418.609 49.136 415.105 50.08L415.617 51.12C419.841 49.968 422.369 47.392 422.369 43.744H415.745ZM418.513 52.704H424.961V55.92H418.513V52.704ZM417.217 56.976H426.257V51.648H417.217V56.976ZM428.385 46.336H426.257V42.816H424.945V50.976H426.257V47.424H428.385V46.336ZM434.406 44.08H433.11V46.656C433.11 49.264 431.478 52.016 429.414 53.072L430.198 54.128C431.814 53.264 433.142 51.472 433.766 49.376C434.422 51.344 435.718 53.024 437.238 53.84L438.054 52.8C436.038 51.792 434.406 49.184 434.406 46.656V44.08ZM442.998 48.656H440.63V42.848H439.318V57.184H440.63V49.744H442.998V48.656ZM453.867 44.256C456.075 44.256 457.515 44.944 457.515 46.08C457.515 47.2 456.075 47.888 453.867 47.888C451.675 47.888 450.219 47.2 450.219 46.08C450.219 44.944 451.675 44.256 453.867 44.256ZM453.867 48.96C456.907 48.96 458.891 47.856 458.891 46.08C458.891 44.304 456.907 43.2 453.867 43.2C450.827 43.2 448.843 44.304 448.843 46.08C448.843 47.856 450.827 48.96 453.867 48.96ZM450.347 52.672H449.035V56.864L458.955 56.864V55.776L450.347 55.776V52.672ZM447.371 50.112V51.184L453.323 51.184V54.08H454.651V51.184H460.379V50.112L447.371 50.112ZM463.328 47.088C463.328 45.76 464.384 44.8 465.776 44.8C467.184 44.8 468.208 45.76 468.208 47.088C468.208 48.432 467.184 49.392 465.776 49.392C464.384 49.392 463.328 48.432 463.328 47.088ZM472.352 45.968V48.208H469.264C469.392 47.856 469.456 47.488 469.456 47.088C469.456 46.672 469.392 46.304 469.28 45.968H472.352ZM472.352 49.28V51.328H473.68V42.832H472.352V44.896H468.672C468.016 44.16 466.992 43.696 465.776 43.696C463.648 43.696 462.08 45.088 462.08 47.088C462.08 49.104 463.648 50.512 465.776 50.512C466.992 50.512 468.016 50.048 468.672 49.28H472.352ZM468.928 56.128C466.768 56.128 465.456 55.488 465.456 54.416C465.456 53.328 466.768 52.688 468.928 52.688C471.12 52.688 472.432 53.328 472.432 54.416C472.432 55.488 471.12 56.128 468.928 56.128ZM468.928 51.664C465.984 51.664 464.16 52.672 464.16 54.416C464.16 56.16 465.984 57.168 468.928 57.168C471.888 57.168 473.728 56.16 473.728 54.416C473.728 52.672 471.888 51.664 468.928 51.664ZM492.629 50.016H490.421C490.853 47.744 490.853 46.112 490.853 44.816V43.744H481.301V44.832H489.557C489.557 46.112 489.557 47.744 489.109 50.016H479.669V51.088H482.997V57.168H484.309V51.088H487.909V57.168H489.205V51.088H492.629V50.016ZM501.785 46.56V47.632H504.617V51.392H505.945V42.848H504.617V46.56H501.785ZM502.585 49.824C500.505 49.088 499.097 47.28 499.097 45.44V44.944H502.249V43.888H494.585V44.944H497.785V45.44C497.785 47.504 496.313 49.44 494.169 50.224L494.857 51.264C496.537 50.624 497.865 49.28 498.473 47.616C499.097 49.088 500.329 50.272 501.929 50.848L502.585 49.824ZM501.209 56.16C499.049 56.16 497.737 55.552 497.737 54.512C497.737 53.472 499.049 52.848 501.209 52.848C503.369 52.848 504.681 53.472 504.681 54.512C504.681 55.552 503.369 56.16 501.209 56.16ZM501.209 51.84C498.265 51.84 496.425 52.816 496.425 54.512C496.425 56.208 498.265 57.184 501.209 57.184C504.153 57.184 505.977 56.208 505.977 54.512C505.977 52.816 504.153 51.84 501.209 51.84Z" fill="#666666"/>
<rect x="614.5" y="0.5" width="276" height="99" rx="9.5" fill="#F5F5F5" stroke="#EEEEEE"/>
<path d="M709.218 31.848V40.056H710.53V31.848H709.218ZM701.25 40.824V45.992H710.53V40.824H701.25ZM709.25 41.864V44.936H702.53V41.864H709.25ZM702.818 32.6C700.658 32.6 699.09 33.96 699.09 35.944C699.09 37.928 700.658 39.288 702.818 39.288C704.994 39.288 706.578 37.928 706.578 35.944C706.578 33.96 704.994 32.6 702.818 32.6ZM702.818 33.688C704.258 33.688 705.298 34.632 705.298 35.944C705.298 37.272 704.258 38.2 702.818 38.2C701.394 38.2 700.37 37.272 700.37 35.944C700.37 34.632 701.394 33.688 702.818 33.688ZM721.991 38.84C719.879 38.136 718.391 36.392 718.391 34.472V33.896H721.639V32.84H713.767V33.896H717.047V34.472C717.047 36.488 715.591 38.36 713.415 39.128L714.103 40.152C715.799 39.528 717.127 38.248 717.735 36.616C718.391 38.12 719.703 39.304 721.351 39.88L721.991 38.84ZM715.399 42.328L723.687 42.328V46.184H724.999V41.272L715.399 41.272V42.328ZM723.687 31.832V40.52H724.999V31.832L723.687 31.832ZM735.212 40.312V41.288H738.124V42.76H739.436V31.832H738.124V40.312H735.212ZM732.284 33.384C733.644 33.384 734.572 33.992 734.572 34.904C734.572 35.832 733.644 36.44 732.284 36.44C730.924 36.44 729.996 35.832 729.996 34.904C729.996 33.992 730.924 33.384 732.284 33.384ZM732.284 37.416C734.38 37.416 735.82 36.44 735.82 34.904C735.82 33.4 734.38 32.408 732.284 32.408C730.188 32.408 728.748 33.4 728.748 34.904C728.748 36.44 730.188 37.416 732.284 37.416ZM731.772 42.248H733.084V39.416C734.38 39.336 735.708 39.192 736.972 39L736.86 38.056C733.82 38.44 730.268 38.472 727.612 38.472L727.788 39.56C728.972 39.56 730.348 39.544 731.772 39.48V42.248ZM730.972 44.792V41.688H729.66V45.864H739.804V44.792H730.972ZM754.513 36.808H756.337V40.92H757.601V31.832L756.337 31.832V35.736H754.513V32.12H753.265V40.408H754.513V36.808ZM752.705 33.544H749.713V31.944H748.417V33.544H745.409V34.584H752.705V33.544ZM747.185 37.784C747.185 36.904 747.937 36.312 749.073 36.312C750.193 36.312 750.961 36.904 750.961 37.784C750.961 38.68 750.193 39.272 749.073 39.272C747.937 39.272 747.185 38.68 747.185 37.784ZM752.129 37.784C752.129 36.312 750.881 35.336 749.073 35.336C747.265 35.336 746.001 36.312 746.001 37.784C746.001 39.288 747.265 40.248 749.073 40.248C750.881 40.248 752.129 39.288 752.129 37.784ZM752.881 45.16C750.689 45.16 749.377 44.616 749.377 43.672C749.377 42.712 750.689 42.168 752.881 42.168C755.057 42.168 756.369 42.712 756.369 43.672C756.369 44.616 755.057 45.16 752.881 45.16ZM752.881 41.16C749.889 41.16 748.081 42.056 748.081 43.672C748.081 45.272 749.889 46.168 752.881 46.168C755.873 46.168 757.681 45.272 757.681 43.672C757.681 42.056 755.873 41.16 752.881 41.16ZM766.453 45.16C764.181 45.16 762.853 44.6 762.853 43.592C762.853 42.584 764.181 42.024 766.453 42.024C768.693 42.024 770.021 42.584 770.021 43.592C770.021 44.6 768.693 45.16 766.453 45.16ZM766.453 41C763.381 41 761.525 41.928 761.525 43.592C761.525 45.256 763.381 46.184 766.453 46.184C769.493 46.184 771.349 45.256 771.349 43.592C771.349 41.928 769.493 41 766.453 41ZM767.109 38.92V37.256H771.429V36.2L762.901 36.2V33.544L771.333 33.544V32.488L761.589 32.488V37.256H765.797V38.92L759.957 38.92V39.976L772.949 39.976V38.92H767.109ZM790.73 39.016H788.522C788.954 36.744 788.954 35.112 788.954 33.816V32.744H779.402V33.832H787.658C787.658 35.112 787.658 36.744 787.21 39.016H777.77V40.088H781.098V46.168H782.41V40.088H786.01V46.168H787.306V40.088H790.73V39.016ZM795.999 41.928H802.767V44.936H795.999V41.928ZM794.719 45.992H804.047V40.888H794.719V45.992ZM798.111 38.296H794.239V35.96H798.111V38.296ZM802.719 31.848V35.464H799.407V32.632H798.111V34.92H794.239V32.648H792.943V39.352H799.407V36.536H802.719V40.152H804.047V31.832L802.719 31.848ZM684.895 70.104H685.983C684.719 67.912 684.159 65.464 684.159 62.616C684.159 59.768 684.719 57.32 685.983 55.128H684.895C683.711 57.032 683.039 59.672 683.039 62.616C683.039 65.56 683.711 68.168 684.895 70.104ZM693.079 67.096C694.727 67.096 696.199 66.536 697.191 65.448L696.439 64.696C695.527 65.64 694.407 66.04 693.127 66.04C690.423 66.04 688.391 64.056 688.391 61.4C688.391 58.744 690.423 56.76 693.127 56.76C694.407 56.76 695.527 57.16 696.439 58.088L697.191 57.336C696.199 56.248 694.727 55.704 693.095 55.704C689.719 55.704 687.223 58.12 687.223 61.4C687.223 64.68 689.719 67.096 693.079 67.096ZM702.29 67.08C704.754 67.08 706.562 65.288 706.562 62.792C706.562 60.296 704.754 58.52 702.29 58.52C699.826 58.52 698.002 60.296 698.002 62.792C698.002 65.288 699.826 67.08 702.29 67.08ZM702.29 66.072C700.498 66.072 699.154 64.76 699.154 62.792C699.154 60.824 700.498 59.512 702.29 59.512C704.082 59.512 705.41 60.824 705.41 62.792C705.41 64.76 704.082 66.072 702.29 66.072ZM715.175 55.128V60.184C714.471 59.096 713.319 58.52 711.975 58.52C709.575 58.52 707.783 60.248 707.783 62.792C707.783 65.336 709.575 67.08 711.975 67.08C713.367 67.08 714.535 66.472 715.223 65.336V67H716.311V55.128H715.175ZM712.071 66.072C710.279 66.072 708.935 64.76 708.935 62.792C708.935 60.824 710.279 59.512 712.071 59.512C713.847 59.512 715.191 60.824 715.191 62.792C715.191 64.76 713.847 66.072 712.071 66.072ZM726.569 62.792C726.569 60.264 724.857 58.52 722.489 58.52C720.121 58.52 718.377 60.296 718.377 62.792C718.377 65.288 720.169 67.08 722.793 67.08C724.121 67.08 725.289 66.6 726.041 65.704L725.401 64.968C724.761 65.704 723.849 66.072 722.825 66.072C720.985 66.072 719.641 64.904 719.513 63.144H726.553C726.553 63.016 726.569 62.888 726.569 62.792ZM722.489 59.496C724.137 59.496 725.337 60.648 725.481 62.296H719.513C719.657 60.648 720.857 59.496 722.489 59.496ZM736.008 67.08C738.472 67.08 740.28 65.288 740.28 62.792C740.28 60.296 738.472 58.52 736.008 58.52C733.544 58.52 731.72 60.296 731.72 62.792C731.72 65.288 733.544 67.08 736.008 67.08ZM736.008 66.072C734.216 66.072 732.872 64.76 732.872 62.792C732.872 60.824 734.216 59.512 736.008 59.512C737.8 59.512 739.128 60.824 739.128 62.792C739.128 64.76 737.8 66.072 736.008 66.072ZM745.134 56.008C745.614 56.008 746.062 56.152 746.382 56.424L746.766 55.576C746.35 55.224 745.71 55.048 745.086 55.048C743.438 55.048 742.542 56.04 742.542 57.544V58.584H741.038V59.544H742.542V67H743.678V59.544H746.238V58.584H743.646V57.592C743.646 56.552 744.158 56.008 745.134 56.008ZM756.563 67.096C758.211 67.096 759.683 66.536 760.675 65.448L759.923 64.696C759.011 65.64 757.891 66.04 756.611 66.04C753.907 66.04 751.875 64.056 751.875 61.4C751.875 58.744 753.907 56.76 756.611 56.76C757.891 56.76 759.011 57.16 759.923 58.088L760.675 57.336C759.683 56.248 758.211 55.704 756.579 55.704C753.203 55.704 750.707 58.12 750.707 61.4C750.707 64.68 753.203 67.096 756.563 67.096ZM765.774 67.08C768.238 67.08 770.046 65.288 770.046 62.792C770.046 60.296 768.238 58.52 765.774 58.52C763.31 58.52 761.486 60.296 761.486 62.792C761.486 65.288 763.31 67.08 765.774 67.08ZM765.774 66.072C763.982 66.072 762.638 64.76 762.638 62.792C762.638 60.824 763.982 59.512 765.774 59.512C767.566 59.512 768.894 60.824 768.894 62.792C768.894 64.76 767.566 66.072 765.774 66.072ZM776.403 58.52C774.947 58.52 773.811 59.112 773.203 60.136V58.584H772.115V67H773.251V62.584C773.251 60.664 774.387 59.544 776.195 59.544C777.795 59.544 778.723 60.456 778.723 62.232V67H779.859V62.12C779.859 59.704 778.451 58.52 776.403 58.52ZM789.269 55.128V60.184C788.565 59.096 787.413 58.52 786.069 58.52C783.669 58.52 781.877 60.248 781.877 62.792C781.877 65.336 783.669 67.08 786.069 67.08C787.461 67.08 788.629 66.472 789.317 65.336V67H790.405V55.128H789.269ZM786.165 66.072C784.373 66.072 783.029 64.76 783.029 62.792C783.029 60.824 784.373 59.512 786.165 59.512C787.941 59.512 789.285 60.824 789.285 62.792C789.285 64.76 787.941 66.072 786.165 66.072ZM799.766 58.584V63C799.766 64.92 798.662 66.056 796.902 66.056C795.302 66.056 794.374 65.144 794.374 63.352V58.584H793.238V63.464C793.238 65.88 794.646 67.08 796.79 67.08C798.134 67.08 799.222 66.488 799.814 65.464V67H800.902V58.584H799.766ZM807.322 67.08C808.746 67.08 809.946 66.504 810.618 65.416L809.77 64.84C809.194 65.688 808.298 66.072 807.322 66.072C805.482 66.072 804.138 64.776 804.138 62.792C804.138 60.824 805.482 59.512 807.322 59.512C808.298 59.512 809.194 59.912 809.77 60.76L810.618 60.184C809.946 59.08 808.746 58.52 807.322 58.52C804.81 58.52 802.986 60.28 802.986 62.792C802.986 65.304 804.81 67.08 807.322 67.08ZM816.725 65.672C816.405 65.96 815.941 66.104 815.477 66.104C814.533 66.104 814.021 65.56 814.021 64.568V59.544H816.581V58.584H814.021V56.744H812.885V58.584H811.381V59.544H812.885V64.632C812.885 66.184 813.765 67.08 815.349 67.08C816.005 67.08 816.677 66.888 817.125 66.488L816.725 65.672ZM819.087 70.104C820.287 68.168 820.959 65.56 820.959 62.616C820.959 59.672 820.287 57.032 819.087 55.128H817.999C819.279 57.32 819.839 59.768 819.839 62.616C819.839 65.464 819.279 67.912 817.999 70.104H819.087Z" fill="#666666"/>
<rect x="921.5" y="0.5" width="276" height="99" rx="9.5" fill="white" stroke="#EEEEEE"/>
<path d="M1028.31 44.192H1027.04V46.928C1027.04 49.392 1025.86 51.968 1023.89 53.12L1024.71 54.112C1026.13 53.232 1027.17 51.6 1027.68 49.696C1028.2 51.44 1029.16 52.96 1030.52 53.792L1031.27 52.768C1029.38 51.616 1028.31 49.184 1028.31 46.88V44.192ZM1032.08 47.984H1029.72V49.072H1032.08V56.48H1033.32V43.152H1032.08V47.984ZM1035 42.832V57.184H1036.24V42.832H1035ZM1048.57 48.544H1041.45V46.432H1048.57V48.544ZM1049.88 43.408H1048.57V45.376H1041.45V43.408H1040.15V49.616H1049.88V43.408ZM1051.53 51.344H1038.5V52.4H1044.33V57.2H1045.64V52.4H1051.53V51.344ZM1058.11 45.392H1061.48V44.304H1053.47V45.392H1056.8V47.216C1056.8 49.696 1055.05 52.4 1052.99 53.376L1053.76 54.432C1055.39 53.6 1056.8 51.792 1057.45 49.696C1058.14 51.664 1059.55 53.312 1061.21 54.08L1061.95 53.024C1059.84 52.128 1058.11 49.648 1058.11 47.216V45.392ZM1063.42 42.848V57.184H1064.73V42.848H1063.42ZM1076.32 49.808C1074.19 49.168 1072.66 47.552 1072.66 45.744V45.568H1075.91V44.512H1072.67V42.752H1071.36V44.512H1068.1V45.568H1071.36V45.744C1071.36 47.664 1069.86 49.408 1067.73 50.096L1068.35 51.104C1070.08 50.56 1071.41 49.36 1072.03 47.808C1072.71 49.216 1074.03 50.304 1075.71 50.816L1076.32 49.808ZM1071.23 53.12H1077.95V55.936H1071.23V53.12ZM1069.95 56.992H1079.23V52.08H1069.95V56.992ZM1077.92 42.832V51.344H1079.23V42.832H1077.92ZM1086.95 44.064H1085.64V46.64C1085.64 49.296 1084.01 52.064 1081.93 53.104L1082.73 54.144C1084.34 53.28 1085.67 51.472 1086.29 49.344C1086.95 51.36 1088.26 53.072 1089.89 53.888L1090.66 52.848C1088.58 51.856 1086.95 49.248 1086.95 46.64V44.064ZM1092.44 42.832V47.696H1089.11V48.768H1092.44V57.2H1093.75V42.832H1092.44Z" fill="#666666"/>
</svg>
