<svg width="1200" height="456" viewBox="0 0 1200 456" fill="none" xmlns="http://www.w3.org/2000/svg">
<path d="M590.99 61.9014L759.142 199.224L686.112 388.043H495.868L422.838 199.224L590.99 61.9014Z" fill="#F6F7FE"/>
<path d="M424.629 199.698L590.99 63.838L757.351 199.698L685.084 386.543H496.896L424.629 199.698Z" stroke="#C6D4F9" stroke-opacity="0.2" stroke-width="3"/>
<circle cx="591" cy="73" r="73" fill="white"/>
<circle cx="591" cy="73" r="71.5" stroke="#7094F0" stroke-opacity="0.3" stroke-width="3"/>
<path d="M545.078 77.878C544.224 77.878 543.43 77.734 542.694 77.446C541.968 77.158 541.339 76.758 540.806 76.246C540.272 75.7233 539.856 75.1153 539.558 74.422C539.259 73.7287 539.11 72.9713 539.11 72.15C539.11 71.3287 539.259 70.5713 539.558 69.878C539.856 69.1847 540.272 68.582 540.806 68.07C541.339 67.5473 541.968 67.142 542.694 66.854C543.419 66.566 544.214 66.422 545.078 66.422C545.931 66.422 546.715 66.566 547.43 66.854C548.155 67.1313 548.784 67.5313 549.318 68.054C549.862 68.566 550.278 69.1687 550.566 69.862C550.864 70.5553 551.014 71.318 551.014 72.15C551.014 72.982 550.864 73.7447 550.566 74.438C550.278 75.1313 549.862 75.7393 549.318 76.262C548.784 76.774 548.155 77.174 547.43 77.462C546.715 77.7393 545.931 77.878 545.078 77.878ZM545.078 76.454C545.696 76.454 546.267 76.3473 546.79 76.134C547.323 75.9207 547.782 75.622 548.166 75.238C548.56 74.8433 548.864 74.3847 549.078 73.862C549.302 73.3393 549.414 72.7687 549.414 72.15C549.414 71.5313 549.302 70.9607 549.078 70.438C548.864 69.9153 548.56 69.462 548.166 69.078C547.782 68.6833 547.323 68.3793 546.79 68.166C546.267 67.9527 545.696 67.846 545.078 67.846C544.448 67.846 543.867 67.9527 543.334 68.166C542.811 68.3793 542.352 68.6833 541.958 69.078C541.563 69.462 541.254 69.9153 541.03 70.438C540.816 70.9607 540.71 71.5313 540.71 72.15C540.71 72.7687 540.816 73.3393 541.03 73.862C541.254 74.3847 541.563 74.8433 541.958 75.238C542.352 75.622 542.811 75.9207 543.334 76.134C543.867 76.3473 544.448 76.454 545.078 76.454ZM552.985 77.75V69.27H554.457V71.574L554.313 70.998C554.548 70.4113 554.943 69.9633 555.497 69.654C556.052 69.3447 556.735 69.19 557.545 69.19V70.678C557.481 70.6673 557.417 70.662 557.353 70.662C557.3 70.662 557.247 70.662 557.193 70.662C556.372 70.662 555.721 70.9073 555.241 71.398C554.761 71.8887 554.521 72.598 554.521 73.526V77.75H552.985ZM562.822 80.95C562.044 80.95 561.286 80.838 560.55 80.614C559.825 80.4007 559.233 80.0913 558.774 79.686L559.51 78.502C559.905 78.8433 560.39 79.11 560.966 79.302C561.542 79.5047 562.145 79.606 562.774 79.606C563.777 79.606 564.513 79.3713 564.982 78.902C565.452 78.4327 565.686 77.718 565.686 76.758V74.966L565.846 73.286L565.766 71.59V69.27H567.222V76.598C567.222 78.0913 566.849 79.19 566.102 79.894C565.356 80.598 564.262 80.95 562.822 80.95ZM562.63 77.398C561.809 77.398 561.073 77.2273 560.422 76.886C559.782 76.534 559.27 76.0487 558.886 75.43C558.513 74.8113 558.326 74.0967 558.326 73.286C558.326 72.4647 558.513 71.75 558.886 71.142C559.27 70.5233 559.782 70.0433 560.422 69.702C561.073 69.3607 561.809 69.19 562.63 69.19C563.356 69.19 564.017 69.3393 564.614 69.638C565.212 69.926 565.686 70.374 566.038 70.982C566.401 71.59 566.582 72.358 566.582 73.286C566.582 74.2033 566.401 74.966 566.038 75.574C565.686 76.182 565.212 76.6407 564.614 76.95C564.017 77.2487 563.356 77.398 562.63 77.398ZM562.806 76.054C563.372 76.054 563.873 75.9367 564.31 75.702C564.748 75.4673 565.089 75.142 565.334 74.726C565.59 74.31 565.718 73.83 565.718 73.286C565.718 72.742 565.59 72.262 565.334 71.846C565.089 71.43 564.748 71.11 564.31 70.886C563.873 70.6513 563.372 70.534 562.806 70.534C562.241 70.534 561.734 70.6513 561.286 70.886C560.849 71.11 560.502 71.43 560.246 71.846C560.001 72.262 559.878 72.742 559.878 73.286C559.878 73.83 560.001 74.31 560.246 74.726C560.502 75.142 560.849 75.4673 561.286 75.702C561.734 75.9367 562.241 76.054 562.806 76.054ZM575.171 77.75V75.958L575.091 75.622V72.566C575.091 71.9153 574.899 71.414 574.515 71.062C574.142 70.6993 573.577 70.518 572.819 70.518C572.318 70.518 571.827 70.6033 571.347 70.774C570.867 70.934 570.462 71.1527 570.131 71.43L569.491 70.278C569.929 69.926 570.451 69.6593 571.059 69.478C571.678 69.286 572.323 69.19 572.995 69.19C574.158 69.19 575.054 69.4727 575.683 70.038C576.313 70.6033 576.627 71.4673 576.627 72.63V77.75H575.171ZM572.387 77.846C571.758 77.846 571.203 77.7393 570.723 77.526C570.254 77.3127 569.891 77.0193 569.635 76.646C569.379 76.262 569.251 75.83 569.251 75.35C569.251 74.8913 569.358 74.4753 569.571 74.102C569.795 73.7287 570.153 73.43 570.643 73.206C571.145 72.982 571.817 72.87 572.659 72.87H575.347V73.974H572.723C571.955 73.974 571.438 74.102 571.171 74.358C570.905 74.614 570.771 74.9233 570.771 75.286C570.771 75.702 570.937 76.038 571.267 76.294C571.598 76.5393 572.057 76.662 572.643 76.662C573.219 76.662 573.721 76.534 574.147 76.278C574.585 76.022 574.899 75.6487 575.091 75.158L575.395 76.214C575.193 76.7153 574.835 77.1153 574.323 77.414C573.811 77.702 573.166 77.846 572.387 77.846ZM583.748 69.19C584.441 69.19 585.049 69.3233 585.572 69.59C586.105 69.8567 586.521 70.262 586.82 70.806C587.118 71.35 587.268 72.038 587.268 72.87V77.75H585.732V73.046C585.732 72.2247 585.529 71.606 585.124 71.19C584.729 70.774 584.169 70.566 583.444 70.566C582.9 70.566 582.425 70.6727 582.02 70.886C581.614 71.0993 581.3 71.414 581.076 71.83C580.862 72.246 580.756 72.7633 580.756 73.382V77.75H579.22V69.27H580.692V71.558L580.452 70.95C580.729 70.3953 581.156 69.9633 581.732 69.654C582.308 69.3447 582.98 69.19 583.748 69.19ZM589.86 77.75V69.27H591.396V77.75H589.86ZM590.628 67.638C590.33 67.638 590.079 67.542 589.876 67.35C589.684 67.158 589.588 66.9233 589.588 66.646C589.588 66.358 589.684 66.118 589.876 65.926C590.079 65.734 590.33 65.638 590.628 65.638C590.927 65.638 591.172 65.734 591.364 65.926C591.567 66.1073 591.668 66.3367 591.668 66.614C591.668 66.902 591.572 67.1473 591.38 67.35C591.188 67.542 590.938 67.638 590.628 67.638ZM593.263 77.75V76.758L598.703 70.006L599.007 70.534H593.359V69.27H600.239V70.278L594.799 77.014L594.447 76.486H600.367V77.75H593.263ZM607.437 77.75V75.958L607.357 75.622V72.566C607.357 71.9153 607.165 71.414 606.781 71.062C606.407 70.6993 605.842 70.518 605.085 70.518C604.583 70.518 604.093 70.6033 603.613 70.774C603.133 70.934 602.727 71.1527 602.397 71.43L601.757 70.278C602.194 69.926 602.717 69.6593 603.325 69.478C603.943 69.286 604.589 69.19 605.261 69.19C606.423 69.19 607.319 69.4727 607.949 70.038C608.578 70.6033 608.893 71.4673 608.893 72.63V77.75H607.437ZM604.653 77.846C604.023 77.846 603.469 77.7393 602.989 77.526C602.519 77.3127 602.157 77.0193 601.901 76.646C601.645 76.262 601.517 75.83 601.517 75.35C601.517 74.8913 601.623 74.4753 601.837 74.102C602.061 73.7287 602.418 73.43 602.909 73.206C603.41 72.982 604.082 72.87 604.925 72.87H607.613V73.974H604.989C604.221 73.974 603.703 74.102 603.437 74.358C603.17 74.614 603.037 74.9233 603.037 75.286C603.037 75.702 603.202 76.038 603.533 76.294C603.863 76.5393 604.322 76.662 604.909 76.662C605.485 76.662 605.986 76.534 606.413 76.278C606.85 76.022 607.165 75.6487 607.357 75.158L607.661 76.214C607.458 76.7153 607.101 77.1153 606.589 77.414C606.077 77.702 605.431 77.846 604.653 77.846ZM614.397 77.846C613.544 77.846 612.883 77.6167 612.413 77.158C611.944 76.6993 611.709 76.0433 611.709 75.19V67.414H613.245V75.126C613.245 75.5847 613.357 75.9367 613.581 76.182C613.816 76.4273 614.147 76.55 614.573 76.55C615.053 76.55 615.453 76.4167 615.773 76.15L616.253 77.254C616.019 77.4567 615.736 77.606 615.405 77.702C615.085 77.798 614.749 77.846 614.397 77.846ZM610.269 70.534V69.27H615.677V70.534H610.269ZM617.86 77.75V69.27H619.396V77.75H617.86ZM618.628 67.638C618.33 67.638 618.079 67.542 617.876 67.35C617.684 67.158 617.588 66.9233 617.588 66.646C617.588 66.358 617.684 66.118 617.876 65.926C618.079 65.734 618.33 65.638 618.628 65.638C618.927 65.638 619.172 65.734 619.364 65.926C619.567 66.1073 619.668 66.3367 619.668 66.614C619.668 66.902 619.572 67.1473 619.38 67.35C619.188 67.542 618.938 67.638 618.628 67.638ZM625.711 77.846C624.858 77.846 624.1 77.6593 623.439 77.286C622.778 76.9127 622.255 76.4007 621.871 75.75C621.487 75.0887 621.295 74.342 621.295 73.51C621.295 72.6673 621.487 71.9207 621.871 71.27C622.255 70.6193 622.778 70.1127 623.439 69.75C624.1 69.3767 624.858 69.19 625.711 69.19C626.554 69.19 627.306 69.3767 627.967 69.75C628.639 70.1127 629.162 70.6193 629.535 71.27C629.919 71.91 630.111 72.6567 630.111 73.51C630.111 74.3527 629.919 75.0993 629.535 75.75C629.162 76.4007 628.639 76.9127 627.967 77.286C627.306 77.6593 626.554 77.846 625.711 77.846ZM625.711 76.502C626.255 76.502 626.74 76.3793 627.167 76.134C627.604 75.8887 627.946 75.542 628.191 75.094C628.436 74.6353 628.559 74.1073 628.559 73.51C628.559 72.902 628.436 72.3793 628.191 71.942C627.946 71.494 627.604 71.1473 627.167 70.902C626.74 70.6567 626.255 70.534 625.711 70.534C625.167 70.534 624.682 70.6567 624.255 70.902C623.828 71.1473 623.487 71.494 623.231 71.942C622.975 72.3793 622.847 72.902 622.847 73.51C622.847 74.1073 622.975 74.6353 623.231 75.094C623.487 75.542 623.828 75.8887 624.255 76.134C624.682 76.3793 625.167 76.502 625.711 76.502ZM636.513 69.19C637.207 69.19 637.815 69.3233 638.337 69.59C638.871 69.8567 639.287 70.262 639.585 70.806C639.884 71.35 640.033 72.038 640.033 72.87V77.75H638.497V73.046C638.497 72.2247 638.295 71.606 637.889 71.19C637.495 70.774 636.935 70.566 636.209 70.566C635.665 70.566 635.191 70.6727 634.785 70.886C634.38 71.0993 634.065 71.414 633.841 71.83C633.628 72.246 633.521 72.7633 633.521 73.382V77.75H631.985V69.27H633.457V71.558L633.217 70.95C633.495 70.3953 633.921 69.9633 634.497 69.654C635.073 69.3447 635.745 69.19 636.513 69.19Z" fill="#222222"/>
<circle cx="421" cy="197.728" r="73" fill="white"/>
<circle cx="421" cy="197.728" r="71.5" stroke="#7094F0" stroke-opacity="0.3" stroke-width="3"/>
<path d="M397.715 171V159.8H402.739C404.03 159.8 405.022 160.061 405.715 160.584C406.408 161.096 406.755 161.8 406.755 162.696C406.755 163.304 406.616 163.816 406.339 164.232C406.072 164.648 405.71 164.968 405.251 165.192C404.792 165.416 404.296 165.528 403.763 165.528L404.051 165.048C404.691 165.048 405.256 165.16 405.747 165.384C406.238 165.608 406.627 165.939 406.915 166.376C407.203 166.803 407.347 167.336 407.347 167.976C407.347 168.936 406.984 169.683 406.259 170.216C405.544 170.739 404.478 171 403.059 171H397.715ZM399.315 169.704H402.995C403.88 169.704 404.558 169.555 405.027 169.256C405.496 168.957 405.731 168.488 405.731 167.848C405.731 167.197 405.496 166.723 405.027 166.424C404.558 166.125 403.88 165.976 402.995 165.976H399.171V164.68H402.595C403.406 164.68 404.035 164.531 404.483 164.232C404.931 163.933 405.155 163.485 405.155 162.888C405.155 162.291 404.931 161.843 404.483 161.544C404.035 161.245 403.406 161.096 402.595 161.096H399.315V169.704ZM414.631 171.128C413.777 171.128 412.983 170.984 412.247 170.696C411.521 170.408 410.892 170.008 410.359 169.496C409.825 168.973 409.409 168.365 409.111 167.672C408.812 166.979 408.663 166.221 408.663 165.4C408.663 164.579 408.812 163.821 409.111 163.128C409.409 162.435 409.825 161.832 410.359 161.32C410.892 160.797 411.521 160.392 412.247 160.104C412.972 159.816 413.767 159.672 414.631 159.672C415.484 159.672 416.268 159.816 416.983 160.104C417.708 160.381 418.337 160.781 418.871 161.304C419.415 161.816 419.831 162.419 420.119 163.112C420.417 163.805 420.567 164.568 420.567 165.4C420.567 166.232 420.417 166.995 420.119 167.688C419.831 168.381 419.415 168.989 418.871 169.512C418.337 170.024 417.708 170.424 416.983 170.712C416.268 170.989 415.484 171.128 414.631 171.128ZM414.631 169.704C415.249 169.704 415.82 169.597 416.343 169.384C416.876 169.171 417.335 168.872 417.719 168.488C418.113 168.093 418.417 167.635 418.631 167.112C418.855 166.589 418.967 166.019 418.967 165.4C418.967 164.781 418.855 164.211 418.631 163.688C418.417 163.165 418.113 162.712 417.719 162.328C417.335 161.933 416.876 161.629 416.343 161.416C415.82 161.203 415.249 161.096 414.631 161.096C414.001 161.096 413.42 161.203 412.887 161.416C412.364 161.629 411.905 161.933 411.511 162.328C411.116 162.712 410.807 163.165 410.583 163.688C410.369 164.211 410.263 164.781 410.263 165.4C410.263 166.019 410.369 166.589 410.583 167.112C410.807 167.635 411.116 168.093 411.511 168.488C411.905 168.872 412.364 169.171 412.887 169.384C413.42 169.597 414.001 169.704 414.631 169.704ZM422.762 171V159.8H427.482C428.677 159.8 429.727 160.035 430.634 160.504C431.551 160.973 432.261 161.629 432.762 162.472C433.274 163.315 433.53 164.291 433.53 165.4C433.53 166.509 433.274 167.485 432.762 168.328C432.261 169.171 431.551 169.827 430.634 170.296C429.727 170.765 428.677 171 427.482 171H422.762ZM424.362 169.608H427.386C428.314 169.608 429.114 169.432 429.786 169.08C430.469 168.728 430.997 168.237 431.37 167.608C431.743 166.968 431.93 166.232 431.93 165.4C431.93 164.557 431.743 163.821 431.37 163.192C430.997 162.563 430.469 162.072 429.786 161.72C429.114 161.368 428.314 161.192 427.386 161.192H424.362V169.608ZM434.664 163.496L435.464 160.248L435.672 161.176C435.363 161.176 435.102 161.08 434.888 160.888C434.686 160.696 434.584 160.44 434.584 160.12C434.584 159.789 434.686 159.528 434.888 159.336C435.102 159.133 435.358 159.032 435.656 159.032C435.966 159.032 436.216 159.139 436.408 159.352C436.6 159.555 436.696 159.811 436.696 160.12C436.696 160.216 436.691 160.317 436.68 160.424C436.67 160.52 436.643 160.632 436.6 160.76C436.568 160.888 436.515 161.053 436.44 161.256L435.672 163.496H434.664ZM440.814 171.096C440.11 171.096 439.438 171 438.798 170.808C438.168 170.616 437.672 170.381 437.31 170.104L437.95 168.888C438.312 169.133 438.76 169.341 439.294 169.512C439.827 169.683 440.371 169.768 440.926 169.768C441.64 169.768 442.152 169.667 442.462 169.464C442.782 169.261 442.942 168.979 442.942 168.616C442.942 168.349 442.846 168.141 442.654 167.992C442.462 167.843 442.206 167.731 441.886 167.656C441.576 167.581 441.23 167.517 440.846 167.464C440.462 167.4 440.078 167.325 439.694 167.24C439.31 167.144 438.958 167.016 438.638 166.856C438.318 166.685 438.062 166.456 437.87 166.168C437.678 165.869 437.582 165.475 437.582 164.984C437.582 164.472 437.726 164.024 438.014 163.64C438.302 163.256 438.707 162.963 439.23 162.76C439.763 162.547 440.392 162.44 441.118 162.44C441.672 162.44 442.232 162.509 442.798 162.648C443.374 162.776 443.843 162.963 444.206 163.208L443.55 164.424C443.166 164.168 442.766 163.992 442.35 163.896C441.934 163.8 441.518 163.752 441.102 163.752C440.43 163.752 439.928 163.864 439.598 164.088C439.267 164.301 439.102 164.579 439.102 164.92C439.102 165.208 439.198 165.432 439.39 165.592C439.592 165.741 439.848 165.859 440.158 165.944C440.478 166.029 440.83 166.104 441.214 166.168C441.598 166.221 441.982 166.296 442.366 166.392C442.75 166.477 443.096 166.6 443.406 166.76C443.726 166.92 443.982 167.144 444.174 167.432C444.376 167.72 444.478 168.104 444.478 168.584C444.478 169.096 444.328 169.539 444.03 169.912C443.731 170.285 443.31 170.579 442.766 170.792C442.222 170.995 441.571 171.096 440.814 171.096ZM374.814 193L371.662 184.52H373.118L375.918 192.2H375.23L378.142 184.52H379.438L382.286 192.2H381.614L384.478 184.52H385.854L382.686 193H381.214L378.542 185.992H378.99L376.286 193H374.814ZM387.163 193V184.52H388.699V193H387.163ZM387.931 182.888C387.632 182.888 387.382 182.792 387.179 182.6C386.987 182.408 386.891 182.173 386.891 181.896C386.891 181.608 386.987 181.368 387.179 181.176C387.382 180.984 387.632 180.888 387.931 180.888C388.23 180.888 388.475 180.984 388.667 181.176C388.87 181.357 388.971 181.587 388.971 181.864C388.971 182.152 388.875 182.397 388.683 182.6C388.491 182.792 388.24 182.888 387.931 182.888ZM391.382 193V181.128H392.918V193H391.382ZM395.601 193V181.128H397.137V193H395.601ZM399.819 193V184.52H401.355V193H399.819ZM400.587 182.888C400.289 182.888 400.038 182.792 399.835 182.6C399.643 182.408 399.547 182.173 399.547 181.896C399.547 181.608 399.643 181.368 399.835 181.176C400.038 180.984 400.289 180.888 400.587 180.888C400.886 180.888 401.131 180.984 401.323 181.176C401.526 181.357 401.627 181.587 401.627 181.864C401.627 182.152 401.531 182.397 401.339 182.6C401.147 182.792 400.897 182.888 400.587 182.888ZM408.566 184.44C409.259 184.44 409.867 184.573 410.39 184.84C410.923 185.107 411.339 185.512 411.638 186.056C411.937 186.6 412.086 187.288 412.086 188.12V193H410.55V188.296C410.55 187.475 410.347 186.856 409.942 186.44C409.547 186.024 408.987 185.816 408.262 185.816C407.718 185.816 407.243 185.923 406.838 186.136C406.433 186.349 406.118 186.664 405.894 187.08C405.681 187.496 405.574 188.013 405.574 188.632V193H404.038V184.52H405.51V186.808L405.27 186.2C405.547 185.645 405.974 185.213 406.55 184.904C407.126 184.595 407.798 184.44 408.566 184.44ZM418.391 196.2C417.612 196.2 416.855 196.088 416.119 195.864C415.393 195.651 414.801 195.341 414.343 194.936L415.079 193.752C415.473 194.093 415.959 194.36 416.535 194.552C417.111 194.755 417.713 194.856 418.343 194.856C419.345 194.856 420.081 194.621 420.551 194.152C421.02 193.683 421.255 192.968 421.255 192.008V190.216L421.415 188.536L421.335 186.84V184.52H422.791V191.848C422.791 193.341 422.417 194.44 421.671 195.144C420.924 195.848 419.831 196.2 418.391 196.2ZM418.199 192.648C417.377 192.648 416.641 192.477 415.991 192.136C415.351 191.784 414.839 191.299 414.455 190.68C414.081 190.061 413.895 189.347 413.895 188.536C413.895 187.715 414.081 187 414.455 186.392C414.839 185.773 415.351 185.293 415.991 184.952C416.641 184.611 417.377 184.44 418.199 184.44C418.924 184.44 419.585 184.589 420.183 184.888C420.78 185.176 421.255 185.624 421.607 186.232C421.969 186.84 422.151 187.608 422.151 188.536C422.151 189.453 421.969 190.216 421.607 190.824C421.255 191.432 420.78 191.891 420.183 192.2C419.585 192.499 418.924 192.648 418.199 192.648ZM418.375 191.304C418.94 191.304 419.441 191.187 419.879 190.952C420.316 190.717 420.657 190.392 420.903 189.976C421.159 189.56 421.287 189.08 421.287 188.536C421.287 187.992 421.159 187.512 420.903 187.096C420.657 186.68 420.316 186.36 419.879 186.136C419.441 185.901 418.94 185.784 418.375 185.784C417.809 185.784 417.303 185.901 416.855 186.136C416.417 186.36 416.071 186.68 415.815 187.096C415.569 187.512 415.447 187.992 415.447 188.536C415.447 189.08 415.569 189.56 415.815 189.976C416.071 190.392 416.417 190.717 416.855 190.952C417.303 191.187 417.809 191.304 418.375 191.304ZM430.004 184.44C430.697 184.44 431.305 184.573 431.828 184.84C432.361 185.107 432.777 185.512 433.076 186.056C433.374 186.6 433.524 187.288 433.524 188.12V193H431.988V188.296C431.988 187.475 431.785 186.856 431.38 186.44C430.985 186.024 430.425 185.816 429.7 185.816C429.156 185.816 428.681 185.923 428.276 186.136C427.87 186.349 427.556 186.664 427.332 187.08C427.118 187.496 427.012 188.013 427.012 188.632V193H425.476V184.52H426.948V186.808L426.708 186.2C426.985 185.645 427.412 185.213 427.988 184.904C428.564 184.595 429.236 184.44 430.004 184.44ZM439.892 193.096C438.985 193.096 438.185 192.909 437.492 192.536C436.809 192.163 436.276 191.651 435.892 191C435.519 190.349 435.332 189.603 435.332 188.76C435.332 187.917 435.513 187.171 435.876 186.52C436.249 185.869 436.756 185.363 437.396 185C438.047 184.627 438.777 184.44 439.588 184.44C440.409 184.44 441.135 184.621 441.764 184.984C442.393 185.347 442.884 185.859 443.236 186.52C443.599 187.171 443.78 187.933 443.78 188.808C443.78 188.872 443.775 188.947 443.764 189.032C443.764 189.117 443.759 189.197 443.748 189.272H436.532V188.168H442.948L442.324 188.552C442.335 188.008 442.223 187.523 441.988 187.096C441.753 186.669 441.428 186.339 441.012 186.104C440.607 185.859 440.132 185.736 439.588 185.736C439.055 185.736 438.58 185.859 438.164 186.104C437.748 186.339 437.423 186.675 437.188 187.112C436.953 187.539 436.836 188.029 436.836 188.584V188.84C436.836 189.405 436.964 189.912 437.22 190.36C437.487 190.797 437.855 191.139 438.324 191.384C438.793 191.629 439.332 191.752 439.94 191.752C440.441 191.752 440.895 191.667 441.3 191.496C441.716 191.325 442.079 191.069 442.388 190.728L443.236 191.72C442.852 192.168 442.372 192.509 441.796 192.744C441.231 192.979 440.596 193.096 439.892 193.096ZM448.095 193.096C447.391 193.096 446.719 193 446.079 192.808C445.45 192.616 444.954 192.381 444.591 192.104L445.231 190.888C445.594 191.133 446.042 191.341 446.575 191.512C447.108 191.683 447.652 191.768 448.207 191.768C448.922 191.768 449.434 191.667 449.743 191.464C450.063 191.261 450.223 190.979 450.223 190.616C450.223 190.349 450.127 190.141 449.935 189.992C449.743 189.843 449.487 189.731 449.167 189.656C448.858 189.581 448.511 189.517 448.127 189.464C447.743 189.4 447.359 189.325 446.975 189.24C446.591 189.144 446.239 189.016 445.919 188.856C445.599 188.685 445.343 188.456 445.151 188.168C444.959 187.869 444.863 187.475 444.863 186.984C444.863 186.472 445.007 186.024 445.295 185.64C445.583 185.256 445.988 184.963 446.511 184.76C447.044 184.547 447.674 184.44 448.399 184.44C448.954 184.44 449.514 184.509 450.079 184.648C450.655 184.776 451.124 184.963 451.487 185.208L450.831 186.424C450.447 186.168 450.047 185.992 449.631 185.896C449.215 185.8 448.799 185.752 448.383 185.752C447.711 185.752 447.21 185.864 446.879 186.088C446.548 186.301 446.383 186.579 446.383 186.92C446.383 187.208 446.479 187.432 446.671 187.592C446.874 187.741 447.13 187.859 447.439 187.944C447.759 188.029 448.111 188.104 448.495 188.168C448.879 188.221 449.263 188.296 449.647 188.392C450.031 188.477 450.378 188.6 450.687 188.76C451.007 188.92 451.263 189.144 451.455 189.432C451.658 189.72 451.759 190.104 451.759 190.584C451.759 191.096 451.61 191.539 451.311 191.912C451.012 192.285 450.591 192.579 450.047 192.792C449.503 192.995 448.852 193.096 448.095 193.096ZM455.861 193.096C455.157 193.096 454.485 193 453.845 192.808C453.215 192.616 452.719 192.381 452.357 192.104L452.997 190.888C453.359 191.133 453.807 191.341 454.341 191.512C454.874 191.683 455.418 191.768 455.973 191.768C456.687 191.768 457.199 191.667 457.509 191.464C457.829 191.261 457.989 190.979 457.989 190.616C457.989 190.349 457.893 190.141 457.701 189.992C457.509 189.843 457.253 189.731 456.933 189.656C456.623 189.581 456.277 189.517 455.893 189.464C455.509 189.4 455.125 189.325 454.741 189.24C454.357 189.144 454.005 189.016 453.685 188.856C453.365 188.685 453.109 188.456 452.917 188.168C452.725 187.869 452.629 187.475 452.629 186.984C452.629 186.472 452.773 186.024 453.061 185.64C453.349 185.256 453.754 184.963 454.277 184.76C454.81 184.547 455.439 184.44 456.165 184.44C456.719 184.44 457.279 184.509 457.845 184.648C458.421 184.776 458.89 184.963 459.253 185.208L458.597 186.424C458.213 186.168 457.813 185.992 457.397 185.896C456.981 185.8 456.565 185.752 456.149 185.752C455.477 185.752 454.975 185.864 454.645 186.088C454.314 186.301 454.149 186.579 454.149 186.92C454.149 187.208 454.245 187.432 454.437 187.592C454.639 187.741 454.895 187.859 455.205 187.944C455.525 188.029 455.877 188.104 456.261 188.168C456.645 188.221 457.029 188.296 457.413 188.392C457.797 188.477 458.143 188.6 458.453 188.76C458.773 188.92 459.029 189.144 459.221 189.432C459.423 189.72 459.525 190.104 459.525 190.584C459.525 191.096 459.375 191.539 459.077 191.912C458.778 192.285 458.357 192.579 457.813 192.792C457.269 192.995 456.618 193.096 455.861 193.096ZM463.337 194.6L468.617 179.528H470.009L464.729 194.6H463.337ZM368.912 215.096C368.059 215.096 367.302 214.909 366.64 214.536C365.979 214.163 365.456 213.651 365.072 213C364.688 212.339 364.496 211.592 364.496 210.76C364.496 209.917 364.688 209.171 365.072 208.52C365.456 207.869 365.979 207.363 366.64 207C367.302 206.627 368.059 206.44 368.912 206.44C369.755 206.44 370.507 206.627 371.168 207C371.84 207.363 372.363 207.869 372.736 208.52C373.12 209.16 373.312 209.907 373.312 210.76C373.312 211.603 373.12 212.349 372.736 213C372.363 213.651 371.84 214.163 371.168 214.536C370.507 214.909 369.755 215.096 368.912 215.096ZM368.912 213.752C369.456 213.752 369.942 213.629 370.368 213.384C370.806 213.139 371.147 212.792 371.392 212.344C371.638 211.885 371.76 211.357 371.76 210.76C371.76 210.152 371.638 209.629 371.392 209.192C371.147 208.744 370.806 208.397 370.368 208.152C369.942 207.907 369.456 207.784 368.912 207.784C368.368 207.784 367.883 207.907 367.456 208.152C367.03 208.397 366.688 208.744 366.432 209.192C366.176 209.629 366.048 210.152 366.048 210.76C366.048 211.357 366.176 211.885 366.432 212.344C366.688 212.792 367.03 213.139 367.456 213.384C367.883 213.629 368.368 213.752 368.912 213.752ZM375.186 215V206.52H376.658V208.824L376.514 208.248C376.749 207.661 377.144 207.213 377.698 206.904C378.253 206.595 378.936 206.44 379.746 206.44V207.928C379.682 207.917 379.618 207.912 379.554 207.912C379.501 207.912 379.448 207.912 379.394 207.912C378.573 207.912 377.922 208.157 377.442 208.648C376.962 209.139 376.722 209.848 376.722 210.776V215H375.186ZM385.023 218.2C384.245 218.2 383.487 218.088 382.751 217.864C382.026 217.651 381.434 217.341 380.975 216.936L381.711 215.752C382.106 216.093 382.591 216.36 383.167 216.552C383.743 216.755 384.346 216.856 384.975 216.856C385.978 216.856 386.714 216.621 387.183 216.152C387.653 215.683 387.887 214.968 387.887 214.008V212.216L388.047 210.536L387.967 208.84V206.52H389.423V213.848C389.423 215.341 389.05 216.44 388.303 217.144C387.557 217.848 386.463 218.2 385.023 218.2ZM384.831 214.648C384.01 214.648 383.274 214.477 382.623 214.136C381.983 213.784 381.471 213.299 381.087 212.68C380.714 212.061 380.527 211.347 380.527 210.536C380.527 209.715 380.714 209 381.087 208.392C381.471 207.773 381.983 207.293 382.623 206.952C383.274 206.611 384.01 206.44 384.831 206.44C385.557 206.44 386.218 206.589 386.815 206.888C387.413 207.176 387.887 207.624 388.239 208.232C388.602 208.84 388.783 209.608 388.783 210.536C388.783 211.453 388.602 212.216 388.239 212.824C387.887 213.432 387.413 213.891 386.815 214.2C386.218 214.499 385.557 214.648 384.831 214.648ZM385.007 213.304C385.573 213.304 386.074 213.187 386.511 212.952C386.949 212.717 387.29 212.392 387.535 211.976C387.791 211.56 387.919 211.08 387.919 210.536C387.919 209.992 387.791 209.512 387.535 209.096C387.29 208.68 386.949 208.36 386.511 208.136C386.074 207.901 385.573 207.784 385.007 207.784C384.442 207.784 383.935 207.901 383.487 208.136C383.05 208.36 382.703 208.68 382.447 209.096C382.202 209.512 382.079 209.992 382.079 210.536C382.079 211.08 382.202 211.56 382.447 211.976C382.703 212.392 383.05 212.717 383.487 212.952C383.935 213.187 384.442 213.304 385.007 213.304ZM397.372 215V213.208L397.292 212.872V209.816C397.292 209.165 397.1 208.664 396.716 208.312C396.343 207.949 395.778 207.768 395.02 207.768C394.519 207.768 394.028 207.853 393.548 208.024C393.068 208.184 392.663 208.403 392.332 208.68L391.692 207.528C392.13 207.176 392.652 206.909 393.26 206.728C393.879 206.536 394.524 206.44 395.196 206.44C396.359 206.44 397.255 206.723 397.884 207.288C398.514 207.853 398.828 208.717 398.828 209.88V215H397.372ZM394.588 215.096C393.959 215.096 393.404 214.989 392.924 214.776C392.455 214.563 392.092 214.269 391.836 213.896C391.58 213.512 391.452 213.08 391.452 212.6C391.452 212.141 391.559 211.725 391.772 211.352C391.996 210.979 392.354 210.68 392.844 210.456C393.346 210.232 394.018 210.12 394.86 210.12H397.548V211.224H394.924C394.156 211.224 393.639 211.352 393.372 211.608C393.106 211.864 392.972 212.173 392.972 212.536C392.972 212.952 393.138 213.288 393.468 213.544C393.799 213.789 394.258 213.912 394.844 213.912C395.42 213.912 395.922 213.784 396.348 213.528C396.786 213.272 397.1 212.899 397.292 212.408L397.596 213.464C397.394 213.965 397.036 214.365 396.524 214.664C396.012 214.952 395.367 215.096 394.588 215.096ZM405.949 206.44C406.642 206.44 407.25 206.573 407.773 206.84C408.306 207.107 408.722 207.512 409.021 208.056C409.32 208.6 409.469 209.288 409.469 210.12V215H407.933V210.296C407.933 209.475 407.73 208.856 407.325 208.44C406.93 208.024 406.37 207.816 405.645 207.816C405.101 207.816 404.626 207.923 404.221 208.136C403.816 208.349 403.501 208.664 403.277 209.08C403.064 209.496 402.957 210.013 402.957 210.632V215H401.421V206.52H402.893V208.808L402.653 208.2C402.93 207.645 403.357 207.213 403.933 206.904C404.509 206.595 405.181 206.44 405.949 206.44ZM412.061 215V206.52H413.597V215H412.061ZM412.829 204.888C412.531 204.888 412.28 204.792 412.077 204.6C411.885 204.408 411.789 204.173 411.789 203.896C411.789 203.608 411.885 203.368 412.077 203.176C412.28 202.984 412.531 202.888 412.829 202.888C413.128 202.888 413.373 202.984 413.565 203.176C413.768 203.357 413.869 203.587 413.869 203.864C413.869 204.152 413.773 204.397 413.581 204.6C413.389 204.792 413.139 204.888 412.829 204.888ZM415.464 215V214.008L420.904 207.256L421.208 207.784H415.56V206.52H422.44V207.528L417 214.264L416.648 213.736H422.568V215H415.464ZM429.638 215V213.208L429.558 212.872V209.816C429.558 209.165 429.366 208.664 428.982 208.312C428.609 207.949 428.043 207.768 427.286 207.768C426.785 207.768 426.294 207.853 425.814 208.024C425.334 208.184 424.929 208.403 424.598 208.68L423.958 207.528C424.395 207.176 424.918 206.909 425.526 206.728C426.145 206.536 426.79 206.44 427.462 206.44C428.625 206.44 429.521 206.723 430.15 207.288C430.779 207.853 431.094 208.717 431.094 209.88V215H429.638ZM426.854 215.096C426.225 215.096 425.67 214.989 425.19 214.776C424.721 214.563 424.358 214.269 424.102 213.896C423.846 213.512 423.718 213.08 423.718 212.6C423.718 212.141 423.825 211.725 424.038 211.352C424.262 210.979 424.619 210.68 425.11 210.456C425.611 210.232 426.283 210.12 427.126 210.12H429.814V211.224H427.19C426.422 211.224 425.905 211.352 425.638 211.608C425.371 211.864 425.238 212.173 425.238 212.536C425.238 212.952 425.403 213.288 425.734 213.544C426.065 213.789 426.523 213.912 427.11 213.912C427.686 213.912 428.187 213.784 428.614 213.528C429.051 213.272 429.366 212.899 429.558 212.408L429.862 213.464C429.659 213.965 429.302 214.365 428.79 214.664C428.278 214.952 427.633 215.096 426.854 215.096ZM436.598 215.096C435.745 215.096 435.084 214.867 434.614 214.408C434.145 213.949 433.91 213.293 433.91 212.44V204.664H435.446V212.376C435.446 212.835 435.558 213.187 435.782 213.432C436.017 213.677 436.348 213.8 436.774 213.8C437.254 213.8 437.654 213.667 437.974 213.4L438.454 214.504C438.22 214.707 437.937 214.856 437.606 214.952C437.286 215.048 436.95 215.096 436.598 215.096ZM432.47 207.784V206.52H437.878V207.784H432.47ZM440.061 215V206.52H441.597V215H440.061ZM440.829 204.888C440.531 204.888 440.28 204.792 440.077 204.6C439.885 204.408 439.789 204.173 439.789 203.896C439.789 203.608 439.885 203.368 440.077 203.176C440.28 202.984 440.531 202.888 440.829 202.888C441.128 202.888 441.373 202.984 441.565 203.176C441.768 203.357 441.869 203.587 441.869 203.864C441.869 204.152 441.773 204.397 441.581 204.6C441.389 204.792 441.139 204.888 440.829 204.888ZM447.912 215.096C447.059 215.096 446.302 214.909 445.64 214.536C444.979 214.163 444.456 213.651 444.072 213C443.688 212.339 443.496 211.592 443.496 210.76C443.496 209.917 443.688 209.171 444.072 208.52C444.456 207.869 444.979 207.363 445.64 207C446.302 206.627 447.059 206.44 447.912 206.44C448.755 206.44 449.507 206.627 450.168 207C450.84 207.363 451.363 207.869 451.736 208.52C452.12 209.16 452.312 209.907 452.312 210.76C452.312 211.603 452.12 212.349 451.736 213C451.363 213.651 450.84 214.163 450.168 214.536C449.507 214.909 448.755 215.096 447.912 215.096ZM447.912 213.752C448.456 213.752 448.942 213.629 449.368 213.384C449.806 213.139 450.147 212.792 450.392 212.344C450.638 211.885 450.76 211.357 450.76 210.76C450.76 210.152 450.638 209.629 450.392 209.192C450.147 208.744 449.806 208.397 449.368 208.152C448.942 207.907 448.456 207.784 447.912 207.784C447.368 207.784 446.883 207.907 446.456 208.152C446.03 208.397 445.688 208.744 445.432 209.192C445.176 209.629 445.048 210.152 445.048 210.76C445.048 211.357 445.176 211.885 445.432 212.344C445.688 212.792 446.03 213.139 446.456 213.384C446.883 213.629 447.368 213.752 447.912 213.752ZM458.714 206.44C459.408 206.44 460.016 206.573 460.538 206.84C461.072 207.107 461.488 207.512 461.786 208.056C462.085 208.6 462.234 209.288 462.234 210.12V215H460.698V210.296C460.698 209.475 460.496 208.856 460.09 208.44C459.696 208.024 459.136 207.816 458.41 207.816C457.866 207.816 457.392 207.923 456.986 208.136C456.581 208.349 456.266 208.664 456.042 209.08C455.829 209.496 455.722 210.013 455.722 210.632V215H454.186V206.52H455.658V208.808L455.418 208.2C455.696 207.645 456.122 207.213 456.698 206.904C457.274 206.595 457.946 206.44 458.714 206.44ZM470.091 215V213.208L470.011 212.872V209.816C470.011 209.165 469.819 208.664 469.435 208.312C469.062 207.949 468.496 207.768 467.739 207.768C467.238 207.768 466.747 207.853 466.267 208.024C465.787 208.184 465.382 208.403 465.051 208.68L464.411 207.528C464.848 207.176 465.371 206.909 465.979 206.728C466.598 206.536 467.243 206.44 467.915 206.44C469.078 206.44 469.974 206.723 470.603 207.288C471.232 207.853 471.547 208.717 471.547 209.88V215H470.091ZM467.307 215.096C466.678 215.096 466.123 214.989 465.643 214.776C465.174 214.563 464.811 214.269 464.555 213.896C464.299 213.512 464.171 213.08 464.171 212.6C464.171 212.141 464.278 211.725 464.491 211.352C464.715 210.979 465.072 210.68 465.563 210.456C466.064 210.232 466.736 210.12 467.579 210.12H470.267V211.224H467.643C466.875 211.224 466.358 211.352 466.091 211.608C465.824 211.864 465.691 212.173 465.691 212.536C465.691 212.952 465.856 213.288 466.187 213.544C466.518 213.789 466.976 213.912 467.563 213.912C468.139 213.912 468.64 213.784 469.067 213.528C469.504 213.272 469.819 212.899 470.011 212.408L470.315 213.464C470.112 213.965 469.755 214.365 469.243 214.664C468.731 214.952 468.086 215.096 467.307 215.096ZM474.14 215V203.128H475.676V215H474.14ZM397.25 237.096C396.386 237.096 395.612 236.909 394.93 236.536C394.258 236.163 393.73 235.651 393.346 235C392.962 234.349 392.77 233.603 392.77 232.76C392.77 231.917 392.962 231.171 393.346 230.52C393.73 229.869 394.258 229.363 394.93 229C395.612 228.627 396.386 228.44 397.25 228.44C398.018 228.44 398.7 228.595 399.298 228.904C399.906 229.203 400.375 229.651 400.706 230.248L399.538 231C399.26 230.584 398.919 230.28 398.514 230.088C398.119 229.885 397.692 229.784 397.234 229.784C396.679 229.784 396.183 229.907 395.746 230.152C395.308 230.397 394.962 230.744 394.706 231.192C394.45 231.629 394.322 232.152 394.322 232.76C394.322 233.368 394.45 233.896 394.706 234.344C394.962 234.792 395.308 235.139 395.746 235.384C396.183 235.629 396.679 235.752 397.234 235.752C397.692 235.752 398.119 235.656 398.514 235.464C398.919 235.261 399.26 234.952 399.538 234.536L400.706 235.272C400.375 235.859 399.906 236.312 399.298 236.632C398.7 236.941 398.018 237.096 397.25 237.096ZM406.012 237.096C405.287 237.096 404.647 236.963 404.092 236.696C403.548 236.429 403.122 236.024 402.812 235.48C402.514 234.925 402.364 234.232 402.364 233.4V228.52H403.9V233.224C403.9 234.056 404.098 234.68 404.492 235.096C404.898 235.512 405.463 235.72 406.188 235.72C406.722 235.72 407.186 235.613 407.58 235.4C407.975 235.176 408.279 234.856 408.492 234.44C408.706 234.013 408.812 233.501 408.812 232.904V228.52H410.348V237H408.892V234.712L409.132 235.32C408.855 235.885 408.439 236.323 407.884 236.632C407.33 236.941 406.706 237.096 406.012 237.096ZM413.022 237V225.128H414.558V237H413.022ZM420.372 237.096C419.519 237.096 418.857 236.867 418.388 236.408C417.919 235.949 417.684 235.293 417.684 234.44V226.664H419.22V234.376C419.22 234.835 419.332 235.187 419.556 235.432C419.791 235.677 420.121 235.8 420.548 235.8C421.028 235.8 421.428 235.667 421.748 235.4L422.228 236.504C421.993 236.707 421.711 236.856 421.38 236.952C421.06 237.048 420.724 237.096 420.372 237.096ZM416.244 229.784V228.52H421.652V229.784H416.244ZM427.403 237.096C426.678 237.096 426.038 236.963 425.483 236.696C424.939 236.429 424.512 236.024 424.203 235.48C423.904 234.925 423.755 234.232 423.755 233.4V228.52H425.291V233.224C425.291 234.056 425.488 234.68 425.883 235.096C426.288 235.512 426.854 235.72 427.579 235.72C428.112 235.72 428.576 235.613 428.971 235.4C429.366 235.176 429.67 234.856 429.883 234.44C430.096 234.013 430.203 233.501 430.203 232.904V228.52H431.739V237H430.283V234.712L430.523 235.32C430.246 235.885 429.83 236.323 429.275 236.632C428.72 236.941 428.096 237.096 427.403 237.096ZM434.413 237V228.52H435.885V230.824L435.741 230.248C435.976 229.661 436.37 229.213 436.925 228.904C437.48 228.595 438.162 228.44 438.973 228.44V229.928C438.909 229.917 438.845 229.912 438.781 229.912C438.728 229.912 438.674 229.912 438.621 229.912C437.8 229.912 437.149 230.157 436.669 230.648C436.189 231.139 435.949 231.848 435.949 232.776V237H434.413ZM444.314 237.096C443.407 237.096 442.607 236.909 441.914 236.536C441.231 236.163 440.698 235.651 440.314 235C439.941 234.349 439.754 233.603 439.754 232.76C439.754 231.917 439.935 231.171 440.298 230.52C440.671 229.869 441.178 229.363 441.818 229C442.469 228.627 443.199 228.44 444.01 228.44C444.831 228.44 445.557 228.621 446.186 228.984C446.815 229.347 447.306 229.859 447.658 230.52C448.021 231.171 448.202 231.933 448.202 232.808C448.202 232.872 448.197 232.947 448.186 233.032C448.186 233.117 448.181 233.197 448.17 233.272H440.954V232.168H447.37L446.746 232.552C446.757 232.008 446.645 231.523 446.41 231.096C446.175 230.669 445.85 230.339 445.434 230.104C445.029 229.859 444.554 229.736 444.01 229.736C443.477 229.736 443.002 229.859 442.586 230.104C442.17 230.339 441.845 230.675 441.61 231.112C441.375 231.539 441.258 232.029 441.258 232.584V232.84C441.258 233.405 441.386 233.912 441.642 234.36C441.909 234.797 442.277 235.139 442.746 235.384C443.215 235.629 443.754 235.752 444.362 235.752C444.863 235.752 445.317 235.667 445.722 235.496C446.138 235.325 446.501 235.069 446.81 234.728L447.658 235.72C447.274 236.168 446.794 236.509 446.218 236.744C445.653 236.979 445.018 237.096 444.314 237.096Z" fill="#222222"/>
<circle cx="759.152" cy="198" r="73" fill="white"/>
<circle cx="759.152" cy="198" r="71.5" stroke="#7094F0" stroke-opacity="0.3" stroke-width="3"/>
<path d="M724.933 193.128C724.08 193.128 723.285 192.984 722.549 192.696C721.824 192.408 721.195 192.008 720.661 191.496C720.128 190.973 719.712 190.365 719.413 189.672C719.115 188.979 718.965 188.221 718.965 187.4C718.965 186.579 719.115 185.821 719.413 185.128C719.712 184.435 720.128 183.832 720.661 183.32C721.195 182.797 721.824 182.392 722.549 182.104C723.275 181.816 724.069 181.672 724.933 181.672C725.787 181.672 726.571 181.816 727.285 182.104C728.011 182.381 728.64 182.781 729.173 183.304C729.717 183.816 730.133 184.419 730.421 185.112C730.72 185.805 730.869 186.568 730.869 187.4C730.869 188.232 730.72 188.995 730.421 189.688C730.133 190.381 729.717 190.989 729.173 191.512C728.64 192.024 728.011 192.424 727.285 192.712C726.571 192.989 725.787 193.128 724.933 193.128ZM724.933 191.704C725.552 191.704 726.123 191.597 726.645 191.384C727.179 191.171 727.637 190.872 728.021 190.488C728.416 190.093 728.72 189.635 728.933 189.112C729.157 188.589 729.269 188.019 729.269 187.4C729.269 186.781 729.157 186.211 728.933 185.688C728.72 185.165 728.416 184.712 728.021 184.328C727.637 183.933 727.179 183.629 726.645 183.416C726.123 183.203 725.552 183.096 724.933 183.096C724.304 183.096 723.723 183.203 723.189 183.416C722.667 183.629 722.208 183.933 721.813 184.328C721.419 184.712 721.109 185.165 720.885 185.688C720.672 186.211 720.565 186.781 720.565 187.4C720.565 188.019 720.672 188.589 720.885 189.112C721.109 189.635 721.419 190.093 721.813 190.488C722.208 190.872 722.667 191.171 723.189 191.384C723.723 191.597 724.304 191.704 724.933 191.704ZM737.337 193.096C736.633 193.096 735.987 192.936 735.401 192.616C734.825 192.285 734.361 191.8 734.009 191.16C733.667 190.52 733.497 189.72 733.497 188.76C733.497 187.8 733.662 187 733.993 186.36C734.334 185.72 734.793 185.24 735.369 184.92C735.955 184.6 736.611 184.44 737.337 184.44C738.169 184.44 738.905 184.621 739.545 184.984C740.185 185.347 740.691 185.853 741.065 186.504C741.438 187.144 741.625 187.896 741.625 188.76C741.625 189.624 741.438 190.381 741.065 191.032C740.691 191.683 740.185 192.189 739.545 192.552C738.905 192.915 738.169 193.096 737.337 193.096ZM732.841 196.104V184.52H734.313V186.808L734.217 188.776L734.377 190.744V196.104H732.841ZM737.209 191.752C737.753 191.752 738.238 191.629 738.665 191.384C739.102 191.139 739.443 190.792 739.689 190.344C739.945 189.885 740.073 189.357 740.073 188.76C740.073 188.152 739.945 187.629 739.689 187.192C739.443 186.744 739.102 186.397 738.665 186.152C738.238 185.907 737.753 185.784 737.209 185.784C736.675 185.784 736.19 185.907 735.753 186.152C735.326 186.397 734.985 186.744 734.729 187.192C734.483 187.629 734.361 188.152 734.361 188.76C734.361 189.357 734.483 189.885 734.729 190.344C734.985 190.792 735.326 191.139 735.753 191.384C736.19 191.629 736.675 191.752 737.209 191.752ZM747.273 193.096C746.366 193.096 745.566 192.909 744.873 192.536C744.19 192.163 743.657 191.651 743.273 191C742.9 190.349 742.713 189.603 742.713 188.76C742.713 187.917 742.894 187.171 743.257 186.52C743.63 185.869 744.137 185.363 744.777 185C745.428 184.627 746.158 184.44 746.969 184.44C747.79 184.44 748.516 184.621 749.145 184.984C749.774 185.347 750.265 185.859 750.617 186.52C750.98 187.171 751.161 187.933 751.161 188.808C751.161 188.872 751.156 188.947 751.145 189.032C751.145 189.117 751.14 189.197 751.129 189.272H743.913V188.168H750.329L749.705 188.552C749.716 188.008 749.604 187.523 749.369 187.096C749.134 186.669 748.809 186.339 748.393 186.104C747.988 185.859 747.513 185.736 746.969 185.736C746.436 185.736 745.961 185.859 745.545 186.104C745.129 186.339 744.804 186.675 744.569 187.112C744.334 187.539 744.217 188.029 744.217 188.584V188.84C744.217 189.405 744.345 189.912 744.601 190.36C744.868 190.797 745.236 191.139 745.705 191.384C746.174 191.629 746.713 191.752 747.321 191.752C747.822 191.752 748.276 191.667 748.681 191.496C749.097 191.325 749.46 191.069 749.769 190.728L750.617 191.72C750.233 192.168 749.753 192.509 749.177 192.744C748.612 192.979 747.977 193.096 747.273 193.096ZM753.044 193V184.52H754.516V186.824L754.372 186.248C754.607 185.661 755.001 185.213 755.556 184.904C756.111 184.595 756.793 184.44 757.604 184.44V185.928C757.54 185.917 757.476 185.912 757.412 185.912C757.359 185.912 757.305 185.912 757.252 185.912C756.431 185.912 755.78 186.157 755.3 186.648C754.82 187.139 754.58 187.848 754.58 188.776V193H753.044ZM763.886 193V191.208L763.806 190.872V187.816C763.806 187.165 763.614 186.664 763.23 186.312C762.857 185.949 762.291 185.768 761.534 185.768C761.033 185.768 760.542 185.853 760.062 186.024C759.582 186.184 759.177 186.403 758.846 186.68L758.206 185.528C758.643 185.176 759.166 184.909 759.774 184.728C760.393 184.536 761.038 184.44 761.71 184.44C762.873 184.44 763.769 184.723 764.398 185.288C765.027 185.853 765.342 186.717 765.342 187.88V193H763.886ZM761.102 193.096C760.473 193.096 759.918 192.989 759.438 192.776C758.969 192.563 758.606 192.269 758.35 191.896C758.094 191.512 757.966 191.08 757.966 190.6C757.966 190.141 758.073 189.725 758.286 189.352C758.51 188.979 758.867 188.68 759.358 188.456C759.859 188.232 760.531 188.12 761.374 188.12H764.062V189.224H761.438C760.67 189.224 760.153 189.352 759.886 189.608C759.619 189.864 759.486 190.173 759.486 190.536C759.486 190.952 759.651 191.288 759.982 191.544C760.313 191.789 760.771 191.912 761.358 191.912C761.934 191.912 762.435 191.784 762.862 191.528C763.299 191.272 763.614 190.899 763.806 190.408L764.11 191.464C763.907 191.965 763.55 192.365 763.038 192.664C762.526 192.952 761.881 193.096 761.102 193.096ZM770.847 193.096C769.993 193.096 769.332 192.867 768.863 192.408C768.393 191.949 768.159 191.293 768.159 190.44V182.664H769.695V190.376C769.695 190.835 769.807 191.187 770.031 191.432C770.265 191.677 770.596 191.8 771.023 191.8C771.503 191.8 771.903 191.667 772.223 191.4L772.703 192.504C772.468 192.707 772.185 192.856 771.855 192.952C771.535 193.048 771.199 193.096 770.847 193.096ZM766.719 185.784V184.52H772.127V185.784H766.719ZM774.31 193V184.52H775.846V193H774.31ZM775.078 182.888C774.779 182.888 774.528 182.792 774.326 182.6C774.134 182.408 774.038 182.173 774.038 181.896C774.038 181.608 774.134 181.368 774.326 181.176C774.528 180.984 774.779 180.888 775.078 180.888C775.376 180.888 775.622 180.984 775.814 181.176C776.016 181.357 776.118 181.587 776.118 181.864C776.118 182.152 776.022 182.397 775.83 182.6C775.638 182.792 775.387 182.888 775.078 182.888ZM782.16 193.096C781.307 193.096 780.55 192.909 779.888 192.536C779.227 192.163 778.704 191.651 778.32 191C777.936 190.339 777.744 189.592 777.744 188.76C777.744 187.917 777.936 187.171 778.32 186.52C778.704 185.869 779.227 185.363 779.888 185C780.55 184.627 781.307 184.44 782.16 184.44C783.003 184.44 783.755 184.627 784.416 185C785.088 185.363 785.611 185.869 785.984 186.52C786.368 187.16 786.56 187.907 786.56 188.76C786.56 189.603 786.368 190.349 785.984 191C785.611 191.651 785.088 192.163 784.416 192.536C783.755 192.909 783.003 193.096 782.16 193.096ZM782.16 191.752C782.704 191.752 783.19 191.629 783.616 191.384C784.054 191.139 784.395 190.792 784.64 190.344C784.886 189.885 785.008 189.357 785.008 188.76C785.008 188.152 784.886 187.629 784.64 187.192C784.395 186.744 784.054 186.397 783.616 186.152C783.19 185.907 782.704 185.784 782.16 185.784C781.616 185.784 781.131 185.907 780.704 186.152C780.278 186.397 779.936 186.744 779.68 187.192C779.424 187.629 779.296 188.152 779.296 188.76C779.296 189.357 779.424 189.885 779.68 190.344C779.936 190.792 780.278 191.139 780.704 191.384C781.131 191.629 781.616 191.752 782.16 191.752ZM792.963 184.44C793.656 184.44 794.264 184.573 794.787 184.84C795.32 185.107 795.736 185.512 796.035 186.056C796.333 186.6 796.483 187.288 796.483 188.12V193H794.947V188.296C794.947 187.475 794.744 186.856 794.339 186.44C793.944 186.024 793.384 185.816 792.659 185.816C792.115 185.816 791.64 185.923 791.235 186.136C790.829 186.349 790.515 186.664 790.291 187.08C790.077 187.496 789.971 188.013 789.971 188.632V193H788.435V184.52H789.907V186.808L789.667 186.2C789.944 185.645 790.371 185.213 790.947 184.904C791.523 184.595 792.195 184.44 792.963 184.44ZM722.492 215.096C721.788 215.096 721.116 215 720.476 214.808C719.846 214.616 719.35 214.381 718.988 214.104L719.628 212.888C719.99 213.133 720.438 213.341 720.972 213.512C721.505 213.683 722.049 213.768 722.604 213.768C723.318 213.768 723.83 213.667 724.14 213.464C724.46 213.261 724.62 212.979 724.62 212.616C724.62 212.349 724.524 212.141 724.332 211.992C724.14 211.843 723.884 211.731 723.564 211.656C723.254 211.581 722.908 211.517 722.524 211.464C722.14 211.4 721.756 211.325 721.372 211.24C720.988 211.144 720.636 211.016 720.316 210.856C719.996 210.685 719.74 210.456 719.548 210.168C719.356 209.869 719.26 209.475 719.26 208.984C719.26 208.472 719.404 208.024 719.692 207.64C719.98 207.256 720.385 206.963 720.908 206.76C721.441 206.547 722.07 206.44 722.796 206.44C723.35 206.44 723.91 206.509 724.476 206.648C725.052 206.776 725.521 206.963 725.884 207.208L725.228 208.424C724.844 208.168 724.444 207.992 724.028 207.896C723.612 207.8 723.196 207.752 722.78 207.752C722.108 207.752 721.606 207.864 721.276 208.088C720.945 208.301 720.78 208.579 720.78 208.92C720.78 209.208 720.876 209.432 721.068 209.592C721.27 209.741 721.526 209.859 721.836 209.944C722.156 210.029 722.508 210.104 722.892 210.168C723.276 210.221 723.66 210.296 724.044 210.392C724.428 210.477 724.774 210.6 725.084 210.76C725.404 210.92 725.66 211.144 725.852 211.432C726.054 211.72 726.156 212.104 726.156 212.584C726.156 213.096 726.006 213.539 725.708 213.912C725.409 214.285 724.988 214.579 724.444 214.792C723.9 214.995 723.249 215.096 722.492 215.096ZM730.737 215.096C729.884 215.096 729.222 214.867 728.753 214.408C728.284 213.949 728.049 213.293 728.049 212.44V204.664H729.585V212.376C729.585 212.835 729.697 213.187 729.921 213.432C730.156 213.677 730.486 213.8 730.913 213.8C731.393 213.8 731.793 213.667 732.113 213.4L732.593 214.504C732.358 214.707 732.076 214.856 731.745 214.952C731.425 215.048 731.089 215.096 730.737 215.096ZM726.609 207.784V206.52H732.017V207.784H726.609ZM739.464 215V213.208L739.384 212.872V209.816C739.384 209.165 739.192 208.664 738.808 208.312C738.435 207.949 737.869 207.768 737.112 207.768C736.611 207.768 736.12 207.853 735.64 208.024C735.16 208.184 734.755 208.403 734.424 208.68L733.784 207.528C734.221 207.176 734.744 206.909 735.352 206.728C735.971 206.536 736.616 206.44 737.288 206.44C738.451 206.44 739.347 206.723 739.976 207.288C740.605 207.853 740.92 208.717 740.92 209.88V215H739.464ZM736.68 215.096C736.051 215.096 735.496 214.989 735.016 214.776C734.547 214.563 734.184 214.269 733.928 213.896C733.672 213.512 733.544 213.08 733.544 212.6C733.544 212.141 733.651 211.725 733.864 211.352C734.088 210.979 734.445 210.68 734.936 210.456C735.437 210.232 736.109 210.12 736.952 210.12H739.64V211.224H737.016C736.248 211.224 735.731 211.352 735.464 211.608C735.197 211.864 735.064 212.173 735.064 212.536C735.064 212.952 735.229 213.288 735.56 213.544C735.891 213.789 736.349 213.912 736.936 213.912C737.512 213.912 738.013 213.784 738.44 213.528C738.877 213.272 739.192 212.899 739.384 212.408L739.688 213.464C739.485 213.965 739.128 214.365 738.616 214.664C738.104 214.952 737.459 215.096 736.68 215.096ZM748.041 206.44C748.734 206.44 749.342 206.573 749.865 206.84C750.398 207.107 750.814 207.512 751.113 208.056C751.411 208.6 751.561 209.288 751.561 210.12V215H750.025V210.296C750.025 209.475 749.822 208.856 749.417 208.44C749.022 208.024 748.462 207.816 747.737 207.816C747.193 207.816 746.718 207.923 746.313 208.136C745.907 208.349 745.593 208.664 745.369 209.08C745.155 209.496 745.049 210.013 745.049 210.632V215H743.513V206.52H744.985V208.808L744.745 208.2C745.022 207.645 745.449 207.213 746.025 206.904C746.601 206.595 747.273 206.44 748.041 206.44ZM757.657 215.096C756.836 215.096 756.1 214.915 755.449 214.552C754.809 214.189 754.303 213.683 753.929 213.032C753.556 212.381 753.369 211.624 753.369 210.76C753.369 209.896 753.556 209.144 753.929 208.504C754.303 207.853 754.809 207.347 755.449 206.984C756.1 206.621 756.836 206.44 757.657 206.44C758.372 206.44 759.017 206.6 759.593 206.92C760.169 207.24 760.628 207.72 760.969 208.36C761.321 209 761.497 209.8 761.497 210.76C761.497 211.72 761.327 212.52 760.985 213.16C760.655 213.8 760.201 214.285 759.625 214.616C759.049 214.936 758.393 215.096 757.657 215.096ZM757.785 213.752C758.319 213.752 758.799 213.629 759.225 213.384C759.663 213.139 760.004 212.792 760.249 212.344C760.505 211.885 760.633 211.357 760.633 210.76C760.633 210.152 760.505 209.629 760.249 209.192C760.004 208.744 759.663 208.397 759.225 208.152C758.799 207.907 758.319 207.784 757.785 207.784C757.241 207.784 756.756 207.907 756.329 208.152C755.903 208.397 755.561 208.744 755.305 209.192C755.049 209.629 754.921 210.152 754.921 210.76C754.921 211.357 755.049 211.885 755.305 212.344C755.561 212.792 755.903 213.139 756.329 213.384C756.756 213.629 757.241 213.752 757.785 213.752ZM760.681 215V212.712L760.777 210.744L760.617 208.776V203.128H762.153V215H760.681ZM770.074 215V213.208L769.994 212.872V209.816C769.994 209.165 769.802 208.664 769.418 208.312C769.044 207.949 768.479 207.768 767.722 207.768C767.22 207.768 766.73 207.853 766.25 208.024C765.77 208.184 765.364 208.403 765.034 208.68L764.394 207.528C764.831 207.176 765.354 206.909 765.962 206.728C766.58 206.536 767.226 206.44 767.898 206.44C769.06 206.44 769.956 206.723 770.586 207.288C771.215 207.853 771.53 208.717 771.53 209.88V215H770.074ZM767.29 215.096C766.66 215.096 766.106 214.989 765.626 214.776C765.156 214.563 764.794 214.269 764.538 213.896C764.282 213.512 764.154 213.08 764.154 212.6C764.154 212.141 764.26 211.725 764.474 211.352C764.698 210.979 765.055 210.68 765.546 210.456C766.047 210.232 766.719 210.12 767.562 210.12H770.25V211.224H767.626C766.858 211.224 766.34 211.352 766.074 211.608C765.807 211.864 765.674 212.173 765.674 212.536C765.674 212.952 765.839 213.288 766.17 213.544C766.5 213.789 766.959 213.912 767.546 213.912C768.122 213.912 768.623 213.784 769.05 213.528C769.487 213.272 769.802 212.899 769.994 212.408L770.298 213.464C770.095 213.965 769.738 214.365 769.226 214.664C768.714 214.952 768.068 215.096 767.29 215.096ZM774.122 215V206.52H775.594V208.824L775.45 208.248C775.685 207.661 776.079 207.213 776.634 206.904C777.189 206.595 777.871 206.44 778.682 206.44V207.928C778.618 207.917 778.554 207.912 778.49 207.912C778.437 207.912 778.383 207.912 778.33 207.912C777.509 207.912 776.858 208.157 776.378 208.648C775.898 209.139 775.658 209.848 775.658 210.776V215H774.122ZM783.751 215.096C782.93 215.096 782.194 214.915 781.543 214.552C780.903 214.189 780.396 213.683 780.023 213.032C779.65 212.381 779.463 211.624 779.463 210.76C779.463 209.896 779.65 209.144 780.023 208.504C780.396 207.853 780.903 207.347 781.543 206.984C782.194 206.621 782.93 206.44 783.751 206.44C784.466 206.44 785.111 206.6 785.687 206.92C786.263 207.24 786.722 207.72 787.063 208.36C787.415 209 787.591 209.8 787.591 210.76C787.591 211.72 787.42 212.52 787.079 213.16C786.748 213.8 786.295 214.285 785.719 214.616C785.143 214.936 784.487 215.096 783.751 215.096ZM783.879 213.752C784.412 213.752 784.892 213.629 785.319 213.384C785.756 213.139 786.098 212.792 786.343 212.344C786.599 211.885 786.727 211.357 786.727 210.76C786.727 210.152 786.599 209.629 786.343 209.192C786.098 208.744 785.756 208.397 785.319 208.152C784.892 207.907 784.412 207.784 783.879 207.784C783.335 207.784 782.85 207.907 782.423 208.152C781.996 208.397 781.655 208.744 781.399 209.192C781.143 209.629 781.015 210.152 781.015 210.76C781.015 211.357 781.143 211.885 781.399 212.344C781.655 212.792 781.996 213.139 782.423 213.384C782.85 213.629 783.335 213.752 783.879 213.752ZM786.775 215V212.712L786.871 210.744L786.711 208.776V203.128H788.247V215H786.775ZM793.335 215.096C792.631 215.096 791.959 215 791.319 214.808C790.69 214.616 790.194 214.381 789.831 214.104L790.471 212.888C790.834 213.133 791.282 213.341 791.815 213.512C792.349 213.683 792.893 213.768 793.447 213.768C794.162 213.768 794.674 213.667 794.983 213.464C795.303 213.261 795.463 212.979 795.463 212.616C795.463 212.349 795.367 212.141 795.175 211.992C794.983 211.843 794.727 211.731 794.407 211.656C794.098 211.581 793.751 211.517 793.367 211.464C792.983 211.4 792.599 211.325 792.215 211.24C791.831 211.144 791.479 211.016 791.159 210.856C790.839 210.685 790.583 210.456 790.391 210.168C790.199 209.869 790.103 209.475 790.103 208.984C790.103 208.472 790.247 208.024 790.535 207.64C790.823 207.256 791.229 206.963 791.751 206.76C792.285 206.547 792.914 206.44 793.639 206.44C794.194 206.44 794.754 206.509 795.319 206.648C795.895 206.776 796.365 206.963 796.727 207.208L796.071 208.424C795.687 208.168 795.287 207.992 794.871 207.896C794.455 207.8 794.039 207.752 793.623 207.752C792.951 207.752 792.45 207.864 792.119 208.088C791.789 208.301 791.623 208.579 791.623 208.92C791.623 209.208 791.719 209.432 791.911 209.592C792.114 209.741 792.37 209.859 792.679 209.944C792.999 210.029 793.351 210.104 793.735 210.168C794.119 210.221 794.503 210.296 794.887 210.392C795.271 210.477 795.618 210.6 795.927 210.76C796.247 210.92 796.503 211.144 796.695 211.432C796.898 211.72 796.999 212.104 796.999 212.584C796.999 213.096 796.85 213.539 796.551 213.912C796.253 214.285 795.831 214.579 795.287 214.792C794.743 214.995 794.093 215.096 793.335 215.096Z" fill="#222222"/>
<circle cx="489.371" cy="383" r="73" fill="white"/>
<circle cx="489.371" cy="383" r="71.5" stroke="#7094F0" stroke-opacity="0.3" stroke-width="3"/>
<path d="M464.723 387.878C463.87 387.878 463.054 387.75 462.275 387.494C461.497 387.227 460.883 386.886 460.435 386.47L461.027 385.222C461.454 385.595 461.998 385.905 462.659 386.15C463.321 386.395 464.009 386.518 464.723 386.518C465.374 386.518 465.902 386.443 466.307 386.294C466.713 386.145 467.011 385.942 467.203 385.686C467.395 385.419 467.491 385.121 467.491 384.79C467.491 384.406 467.363 384.097 467.107 383.862C466.862 383.627 466.537 383.441 466.131 383.302C465.737 383.153 465.299 383.025 464.819 382.918C464.339 382.811 463.854 382.689 463.363 382.55C462.883 382.401 462.441 382.214 462.035 381.99C461.641 381.766 461.321 381.467 461.075 381.094C460.83 380.71 460.707 380.219 460.707 379.622C460.707 379.046 460.857 378.518 461.155 378.038C461.465 377.547 461.934 377.158 462.563 376.87C463.203 376.571 464.014 376.422 464.995 376.422C465.646 376.422 466.291 376.507 466.931 376.678C467.571 376.849 468.126 377.094 468.595 377.414L468.067 378.694C467.587 378.374 467.081 378.145 466.547 378.006C466.014 377.857 465.497 377.782 464.995 377.782C464.366 377.782 463.849 377.862 463.443 378.022C463.038 378.182 462.739 378.395 462.547 378.662C462.366 378.929 462.275 379.227 462.275 379.558C462.275 379.953 462.398 380.267 462.643 380.502C462.899 380.737 463.225 380.923 463.619 381.062C464.025 381.201 464.467 381.329 464.947 381.446C465.427 381.553 465.907 381.675 466.387 381.814C466.878 381.953 467.321 382.134 467.715 382.358C468.121 382.582 468.446 382.881 468.691 383.254C468.937 383.627 469.059 384.107 469.059 384.694C469.059 385.259 468.905 385.787 468.595 386.278C468.286 386.758 467.806 387.147 467.155 387.446C466.515 387.734 465.705 387.878 464.723 387.878ZM471.135 390.95C470.729 390.95 470.335 390.881 469.951 390.742C469.567 390.614 469.236 390.422 468.959 390.166L469.615 389.014C469.828 389.217 470.063 389.371 470.319 389.478C470.575 389.585 470.847 389.638 471.135 389.638C471.508 389.638 471.817 389.542 472.063 389.35C472.308 389.158 472.537 388.817 472.751 388.326L473.279 387.158L473.439 386.966L476.767 379.27H478.271L474.159 388.598C473.913 389.195 473.636 389.665 473.327 390.006C473.028 390.347 472.697 390.587 472.335 390.726C471.972 390.875 471.572 390.95 471.135 390.95ZM473.151 388.022L469.279 379.27H470.879L474.175 386.822L473.151 388.022ZM481.777 387.846C481.073 387.846 480.401 387.75 479.761 387.558C479.131 387.366 478.635 387.131 478.273 386.854L478.913 385.638C479.275 385.883 479.723 386.091 480.257 386.262C480.79 386.433 481.334 386.518 481.889 386.518C482.603 386.518 483.115 386.417 483.425 386.214C483.745 386.011 483.905 385.729 483.905 385.366C483.905 385.099 483.809 384.891 483.617 384.742C483.425 384.593 483.169 384.481 482.849 384.406C482.539 384.331 482.193 384.267 481.809 384.214C481.425 384.15 481.041 384.075 480.657 383.99C480.273 383.894 479.921 383.766 479.601 383.606C479.281 383.435 479.025 383.206 478.833 382.918C478.641 382.619 478.545 382.225 478.545 381.734C478.545 381.222 478.689 380.774 478.977 380.39C479.265 380.006 479.67 379.713 480.193 379.51C480.726 379.297 481.355 379.19 482.081 379.19C482.635 379.19 483.195 379.259 483.761 379.398C484.337 379.526 484.806 379.713 485.169 379.958L484.513 381.174C484.129 380.918 483.729 380.742 483.313 380.646C482.897 380.55 482.481 380.502 482.065 380.502C481.393 380.502 480.891 380.614 480.561 380.838C480.23 381.051 480.065 381.329 480.065 381.67C480.065 381.958 480.161 382.182 480.353 382.342C480.555 382.491 480.811 382.609 481.121 382.694C481.441 382.779 481.793 382.854 482.177 382.918C482.561 382.971 482.945 383.046 483.329 383.142C483.713 383.227 484.059 383.35 484.369 383.51C484.689 383.67 484.945 383.894 485.137 384.182C485.339 384.47 485.441 384.854 485.441 385.334C485.441 385.846 485.291 386.289 484.993 386.662C484.694 387.035 484.273 387.329 483.729 387.542C483.185 387.745 482.534 387.846 481.777 387.846ZM490.022 387.846C489.169 387.846 488.508 387.617 488.038 387.158C487.569 386.699 487.334 386.043 487.334 385.19V377.414H488.87V385.126C488.87 385.585 488.982 385.937 489.206 386.182C489.441 386.427 489.772 386.55 490.198 386.55C490.678 386.55 491.078 386.417 491.398 386.15L491.878 387.254C491.644 387.457 491.361 387.606 491.03 387.702C490.71 387.798 490.374 387.846 490.022 387.846ZM485.894 380.534V379.27H491.302V380.534H485.894ZM496.98 387.846C496.073 387.846 495.273 387.659 494.58 387.286C493.897 386.913 493.364 386.401 492.98 385.75C492.607 385.099 492.42 384.353 492.42 383.51C492.42 382.667 492.601 381.921 492.964 381.27C493.337 380.619 493.844 380.113 494.484 379.75C495.135 379.377 495.865 379.19 496.676 379.19C497.497 379.19 498.223 379.371 498.852 379.734C499.481 380.097 499.972 380.609 500.324 381.27C500.687 381.921 500.868 382.683 500.868 383.558C500.868 383.622 500.863 383.697 500.852 383.782C500.852 383.867 500.847 383.947 500.836 384.022H493.62V382.918H500.036L499.412 383.302C499.423 382.758 499.311 382.273 499.076 381.846C498.841 381.419 498.516 381.089 498.1 380.854C497.695 380.609 497.22 380.486 496.676 380.486C496.143 380.486 495.668 380.609 495.252 380.854C494.836 381.089 494.511 381.425 494.276 381.862C494.041 382.289 493.924 382.779 493.924 383.334V383.59C493.924 384.155 494.052 384.662 494.308 385.11C494.575 385.547 494.943 385.889 495.412 386.134C495.881 386.379 496.42 386.502 497.028 386.502C497.529 386.502 497.983 386.417 498.388 386.246C498.804 386.075 499.167 385.819 499.476 385.478L500.324 386.47C499.94 386.918 499.46 387.259 498.884 387.494C498.319 387.729 497.684 387.846 496.98 387.846ZM513.359 379.19C514.042 379.19 514.644 379.323 515.167 379.59C515.69 379.857 516.095 380.262 516.383 380.806C516.682 381.35 516.831 382.038 516.831 382.87V387.75H515.295V383.046C515.295 382.225 515.103 381.606 514.719 381.19C514.335 380.774 513.796 380.566 513.103 380.566C512.591 380.566 512.143 380.673 511.759 380.886C511.375 381.099 511.076 381.414 510.863 381.83C510.66 382.246 510.559 382.763 510.559 383.382V387.75H509.023V383.046C509.023 382.225 508.831 381.606 508.447 381.19C508.074 380.774 507.535 380.566 506.831 380.566C506.33 380.566 505.887 380.673 505.503 380.886C505.119 381.099 504.82 381.414 504.607 381.83C504.394 382.246 504.287 382.763 504.287 383.382V387.75H502.751V379.27H504.223V381.526L503.983 380.95C504.25 380.395 504.66 379.963 505.215 379.654C505.77 379.345 506.415 379.19 507.151 379.19C507.962 379.19 508.66 379.393 509.247 379.798C509.834 380.193 510.218 380.795 510.399 381.606L509.775 381.35C510.031 380.699 510.479 380.177 511.119 379.782C511.759 379.387 512.506 379.19 513.359 379.19Z" fill="#222222"/>
<circle cx="690.783" cy="383" r="73" fill="white"/>
<circle cx="690.783" cy="383" r="71.5" stroke="#7094F0" stroke-opacity="0.3" stroke-width="3"/>
<path d="M660.789 387.75V376.55H665.157C666.139 376.55 666.976 376.705 667.669 377.014C668.363 377.323 668.896 377.771 669.269 378.358C669.643 378.945 669.829 379.643 669.829 380.454C669.829 381.265 669.643 381.963 669.269 382.55C668.896 383.126 668.363 383.574 667.669 383.894C666.976 384.203 666.139 384.358 665.157 384.358H661.669L662.389 383.606V387.75H660.789ZM662.389 383.766L661.669 382.966H665.109C666.133 382.966 666.907 382.747 667.429 382.31C667.963 381.873 668.229 381.254 668.229 380.454C668.229 379.654 667.963 379.035 667.429 378.598C666.907 378.161 666.133 377.942 665.109 377.942H661.669L662.389 377.142V383.766ZM671.55 387.75V379.27H673.022V381.574L672.878 380.998C673.112 380.411 673.507 379.963 674.062 379.654C674.616 379.345 675.299 379.19 676.11 379.19V380.678C676.046 380.667 675.982 380.662 675.918 380.662C675.864 380.662 675.811 380.662 675.758 380.662C674.936 380.662 674.286 380.907 673.806 381.398C673.326 381.889 673.086 382.598 673.086 383.526V387.75H671.55ZM681.307 387.846C680.453 387.846 679.696 387.659 679.035 387.286C678.373 386.913 677.851 386.401 677.467 385.75C677.083 385.089 676.891 384.342 676.891 383.51C676.891 382.667 677.083 381.921 677.467 381.27C677.851 380.619 678.373 380.113 679.035 379.75C679.696 379.377 680.453 379.19 681.307 379.19C682.149 379.19 682.901 379.377 683.563 379.75C684.235 380.113 684.757 380.619 685.131 381.27C685.515 381.91 685.707 382.657 685.707 383.51C685.707 384.353 685.515 385.099 685.131 385.75C684.757 386.401 684.235 386.913 683.563 387.286C682.901 387.659 682.149 387.846 681.307 387.846ZM681.307 386.502C681.851 386.502 682.336 386.379 682.763 386.134C683.2 385.889 683.541 385.542 683.787 385.094C684.032 384.635 684.155 384.107 684.155 383.51C684.155 382.902 684.032 382.379 683.787 381.942C683.541 381.494 683.2 381.147 682.763 380.902C682.336 380.657 681.851 380.534 681.307 380.534C680.763 380.534 680.277 380.657 679.851 380.902C679.424 381.147 679.083 381.494 678.827 381.942C678.571 382.379 678.443 382.902 678.443 383.51C678.443 384.107 678.571 384.635 678.827 385.094C679.083 385.542 679.424 385.889 679.851 386.134C680.277 386.379 680.763 386.502 681.307 386.502ZM691.277 387.846C690.413 387.846 689.64 387.659 688.957 387.286C688.285 386.913 687.757 386.401 687.373 385.75C686.989 385.099 686.797 384.353 686.797 383.51C686.797 382.667 686.989 381.921 687.373 381.27C687.757 380.619 688.285 380.113 688.957 379.75C689.64 379.377 690.413 379.19 691.277 379.19C692.045 379.19 692.728 379.345 693.325 379.654C693.933 379.953 694.402 380.401 694.733 380.998L693.565 381.75C693.288 381.334 692.946 381.03 692.541 380.838C692.146 380.635 691.72 380.534 691.261 380.534C690.706 380.534 690.21 380.657 689.773 380.902C689.336 381.147 688.989 381.494 688.733 381.942C688.477 382.379 688.349 382.902 688.349 383.51C688.349 384.118 688.477 384.646 688.733 385.094C688.989 385.542 689.336 385.889 689.773 386.134C690.21 386.379 690.706 386.502 691.261 386.502C691.72 386.502 692.146 386.406 692.541 386.214C692.946 386.011 693.288 385.702 693.565 385.286L694.733 386.022C694.402 386.609 693.933 387.062 693.325 387.382C692.728 387.691 692.045 387.846 691.277 387.846ZM700.123 387.846C699.216 387.846 698.416 387.659 697.723 387.286C697.04 386.913 696.507 386.401 696.123 385.75C695.749 385.099 695.563 384.353 695.563 383.51C695.563 382.667 695.744 381.921 696.107 381.27C696.48 380.619 696.987 380.113 697.627 379.75C698.277 379.377 699.008 379.19 699.819 379.19C700.64 379.19 701.365 379.371 701.995 379.734C702.624 380.097 703.115 380.609 703.467 381.27C703.829 381.921 704.011 382.683 704.011 383.558C704.011 383.622 704.005 383.697 703.995 383.782C703.995 383.867 703.989 383.947 703.979 384.022H696.763V382.918H703.179L702.555 383.302C702.565 382.758 702.453 382.273 702.219 381.846C701.984 381.419 701.659 381.089 701.243 380.854C700.837 380.609 700.363 380.486 699.819 380.486C699.285 380.486 698.811 380.609 698.395 380.854C697.979 381.089 697.653 381.425 697.419 381.862C697.184 382.289 697.067 382.779 697.067 383.334V383.59C697.067 384.155 697.195 384.662 697.451 385.11C697.717 385.547 698.085 385.889 698.555 386.134C699.024 386.379 699.563 386.502 700.171 386.502C700.672 386.502 701.125 386.417 701.531 386.246C701.947 386.075 702.309 385.819 702.619 385.478L703.467 386.47C703.083 386.918 702.603 387.259 702.027 387.494C701.461 387.729 700.827 387.846 700.123 387.846ZM708.326 387.846C707.622 387.846 706.95 387.75 706.31 387.558C705.68 387.366 705.184 387.131 704.822 386.854L705.462 385.638C705.824 385.883 706.272 386.091 706.806 386.262C707.339 386.433 707.883 386.518 708.438 386.518C709.152 386.518 709.664 386.417 709.974 386.214C710.294 386.011 710.454 385.729 710.454 385.366C710.454 385.099 710.358 384.891 710.166 384.742C709.974 384.593 709.718 384.481 709.398 384.406C709.088 384.331 708.742 384.267 708.358 384.214C707.974 384.15 707.59 384.075 707.206 383.99C706.822 383.894 706.47 383.766 706.15 383.606C705.83 383.435 705.574 383.206 705.382 382.918C705.19 382.619 705.094 382.225 705.094 381.734C705.094 381.222 705.238 380.774 705.526 380.39C705.814 380.006 706.219 379.713 706.742 379.51C707.275 379.297 707.904 379.19 708.63 379.19C709.184 379.19 709.744 379.259 710.31 379.398C710.886 379.526 711.355 379.713 711.718 379.958L711.062 381.174C710.678 380.918 710.278 380.742 709.862 380.646C709.446 380.55 709.03 380.502 708.614 380.502C707.942 380.502 707.44 380.614 707.11 380.838C706.779 381.051 706.614 381.329 706.614 381.67C706.614 381.958 706.71 382.182 706.902 382.342C707.104 382.491 707.36 382.609 707.67 382.694C707.99 382.779 708.342 382.854 708.726 382.918C709.11 382.971 709.494 383.046 709.878 383.142C710.262 383.227 710.608 383.35 710.918 383.51C711.238 383.67 711.494 383.894 711.686 384.182C711.888 384.47 711.99 384.854 711.99 385.334C711.99 385.846 711.84 386.289 711.542 386.662C711.243 387.035 710.822 387.329 710.278 387.542C709.734 387.745 709.083 387.846 708.326 387.846ZM716.091 387.846C715.387 387.846 714.715 387.75 714.075 387.558C713.446 387.366 712.95 387.131 712.587 386.854L713.227 385.638C713.59 385.883 714.038 386.091 714.571 386.262C715.104 386.433 715.648 386.518 716.203 386.518C716.918 386.518 717.43 386.417 717.739 386.214C718.059 386.011 718.219 385.729 718.219 385.366C718.219 385.099 718.123 384.891 717.931 384.742C717.739 384.593 717.483 384.481 717.163 384.406C716.854 384.331 716.507 384.267 716.123 384.214C715.739 384.15 715.355 384.075 714.971 383.99C714.587 383.894 714.235 383.766 713.915 383.606C713.595 383.435 713.339 383.206 713.147 382.918C712.955 382.619 712.859 382.225 712.859 381.734C712.859 381.222 713.003 380.774 713.291 380.39C713.579 380.006 713.984 379.713 714.507 379.51C715.04 379.297 715.67 379.19 716.395 379.19C716.95 379.19 717.51 379.259 718.075 379.398C718.651 379.526 719.12 379.713 719.483 379.958L718.827 381.174C718.443 380.918 718.043 380.742 717.627 380.646C717.211 380.55 716.795 380.502 716.379 380.502C715.707 380.502 715.206 380.614 714.875 380.838C714.544 381.051 714.379 381.329 714.379 381.67C714.379 381.958 714.475 382.182 714.667 382.342C714.87 382.491 715.126 382.609 715.435 382.694C715.755 382.779 716.107 382.854 716.491 382.918C716.875 382.971 717.259 383.046 717.643 383.142C718.027 383.227 718.374 383.35 718.683 383.51C719.003 383.67 719.259 383.894 719.451 384.182C719.654 384.47 719.755 384.854 719.755 385.334C719.755 385.846 719.606 386.289 719.307 386.662C719.008 387.035 718.587 387.329 718.043 387.542C717.499 387.745 716.848 387.846 716.091 387.846Z" fill="#222222"/>
<path d="M536.157 245.094C538.227 245.094 539.991 244.356 541.161 242.988L539.649 241.548C538.731 242.556 537.597 243.042 536.283 243.042C533.673 243.042 531.783 241.206 531.783 238.614C531.783 236.022 533.673 234.186 536.283 234.186C537.597 234.186 538.731 234.672 539.649 235.662L541.161 234.24C539.991 232.872 538.227 232.134 536.175 232.134C532.305 232.134 529.425 234.852 529.425 238.614C529.425 242.376 532.305 245.094 536.157 245.094ZM548.775 245.094C552.681 245.094 555.561 242.358 555.561 238.614C555.561 234.87 552.681 232.134 548.775 232.134C544.869 232.134 541.989 234.888 541.989 238.614C541.989 242.34 544.869 245.094 548.775 245.094ZM548.775 243.042C546.237 243.042 544.347 241.188 544.347 238.614C544.347 236.04 546.237 234.186 548.775 234.186C551.313 234.186 553.203 236.04 553.203 238.614C553.203 241.188 551.313 243.042 548.775 243.042ZM571.58 244.914L571.562 232.314H569.636L564.722 240.666L559.718 232.314H557.792V244.914H560.024V236.67L564.164 243.474H565.208L569.348 236.562L569.366 244.914H571.58ZM579.917 232.314H574.733V244.914H577.073V241.278H579.917C583.229 241.278 585.281 239.568 585.281 236.796C585.281 234.006 583.229 232.314 579.917 232.314ZM579.809 239.298H577.073V234.294H579.809C581.861 234.294 582.923 235.212 582.923 236.796C582.923 238.38 581.861 239.298 579.809 239.298ZM587.368 244.914H596.296V242.934H589.708V232.314H587.368V244.914ZM597.893 244.914H600.233V232.314H597.893V244.914ZM612.823 244.914H615.271L609.583 232.314H607.279L601.609 244.914H604.021L605.263 241.998H611.563L612.823 244.914ZM606.055 240.162L608.413 234.654L610.789 240.162H606.055ZM625.498 232.314V240.846L618.55 232.314H616.624V244.914H618.946V236.382L625.894 244.914H627.82V232.314H625.498ZM636.778 245.094C638.848 245.094 640.612 244.356 641.782 242.988L640.27 241.548C639.352 242.556 638.218 243.042 636.904 243.042C634.294 243.042 632.404 241.206 632.404 238.614C632.404 236.022 634.294 234.186 636.904 234.186C638.218 234.186 639.352 234.672 640.27 235.662L641.782 234.24C640.612 232.872 638.848 232.134 636.796 232.134C632.926 232.134 630.046 234.852 630.046 238.614C630.046 242.376 632.926 245.094 636.778 245.094ZM646.114 242.952V239.478H652.198V237.552H646.114V234.276H652.972V232.314H643.774V244.914H653.224V242.952H646.114ZM549.539 256.314H544.355V268.914H546.695V265.278H549.539C552.851 265.278 554.903 263.568 554.903 260.796C554.903 258.006 552.851 256.314 549.539 256.314ZM549.431 263.298H546.695V258.294H549.431C551.483 258.294 552.545 259.212 552.545 260.796C552.545 262.38 551.483 263.298 549.431 263.298ZM567.754 268.914L564.856 264.774C566.566 264.108 567.538 262.704 567.538 260.796C567.538 258.006 565.486 256.314 562.174 256.314H556.99V268.914H559.33V265.242H562.174C562.336 265.242 562.498 265.242 562.66 265.224L565.234 268.914H567.754ZM565.18 260.796C565.18 262.38 564.118 263.316 562.066 263.316H559.33V258.294H562.066C564.118 258.294 565.18 259.212 565.18 260.796ZM575.792 269.094C579.698 269.094 582.578 266.358 582.578 262.614C582.578 258.87 579.698 256.134 575.792 256.134C571.886 256.134 569.006 258.888 569.006 262.614C569.006 266.34 571.886 269.094 575.792 269.094ZM575.792 267.042C573.254 267.042 571.364 265.188 571.364 262.614C571.364 260.04 573.254 258.186 575.792 258.186C578.33 258.186 580.22 260.04 580.22 262.614C580.22 265.188 578.33 267.042 575.792 267.042ZM593.412 266.394C592.602 266.862 591.72 267.042 590.82 267.042C588.156 267.042 586.266 265.17 586.266 262.614C586.266 260.004 588.156 258.186 590.838 258.186C592.188 258.186 593.322 258.636 594.312 259.626L595.788 258.186C594.6 256.836 592.836 256.134 590.73 256.134C586.788 256.134 583.908 258.852 583.908 262.614C583.908 266.376 586.788 269.094 590.694 269.094C592.476 269.094 594.312 268.554 595.626 267.492V262.47H593.412V266.394ZM609.227 268.914L606.329 264.774C608.039 264.108 609.011 262.704 609.011 260.796C609.011 258.006 606.959 256.314 603.647 256.314H598.463V268.914H600.803V265.242H603.647C603.809 265.242 603.971 265.242 604.133 265.224L606.707 268.914H609.227ZM606.653 260.796C606.653 262.38 605.591 263.316 603.539 263.316H600.803V258.294H603.539C605.591 258.294 606.653 259.212 606.653 260.796ZM620.811 268.914H623.259L617.571 256.314H615.267L609.597 268.914H612.009L613.251 265.998H619.551L620.811 268.914ZM614.043 264.162L616.401 258.654L618.777 264.162H614.043ZM638.399 268.914L638.381 256.314H636.455L631.541 264.666L626.537 256.314H624.611V268.914H626.843V260.67L630.983 267.474H632.027L636.167 260.562L636.185 268.914H638.399Z" fill="#435CE7"/>
</svg>
