<svg width="843" height="444" viewBox="0 0 843 444" fill="none" xmlns="http://www.w3.org/2000/svg">
<rect width="843" height="442" fill="white"/>
<path d="M362 80L362 14" stroke="#7094F0" stroke-linecap="round" stroke-linejoin="round" stroke-dasharray="2 4"/>
<path d="M583 151L583 80" stroke="#7094F0" stroke-linecap="round" stroke-linejoin="round" stroke-dasharray="2 4"/>
<path d="M164 150V80" stroke="#7094F0" stroke-linecap="round" stroke-linejoin="round" stroke-dasharray="2 4"/>
<path d="M164 80L583 80" stroke="#7094F0" stroke-linecap="round" stroke-linejoin="round" stroke-dasharray="2 4"/>
<path d="M164 190L164 124" stroke="#7094F0" stroke-linecap="round" stroke-linejoin="round" stroke-dasharray="2 4"/>
<path d="M249 270L249 190" stroke="#7094F0" stroke-linecap="round" stroke-linejoin="round" stroke-dasharray="2 4"/>
<path d="M81 270L81 190" stroke="#7094F0" stroke-linecap="round" stroke-linejoin="round" stroke-dasharray="2 4"/>
<path d="M81 190L249 190" stroke="#7094F0" stroke-linecap="round" stroke-linejoin="round" stroke-dasharray="2 4"/>
<rect x="1" y="110" width="327" height="50" rx="7" fill="#F6F7FE"/>
<path d="M142.047 132.782V134.238H138.981V135.414H142.047V136.87H143.489V129.436H142.047V131.606H139.443C139.513 131.214 139.555 130.794 139.555 130.346H133.815V131.508H138.015C137.763 133.482 136.125 135.036 133.157 135.862L133.731 137.01C136.461 136.212 138.323 134.798 139.107 132.782H142.047ZM139.345 140.888C137.637 140.888 136.559 140.398 136.559 139.516C136.559 138.648 137.637 138.158 139.345 138.158C141.067 138.158 142.145 138.648 142.145 139.516C142.145 140.398 141.067 140.888 139.345 140.888ZM139.345 137.024C136.783 137.024 135.131 137.976 135.131 139.516C135.131 141.07 136.783 142.022 139.345 142.022C141.907 142.022 143.573 141.07 143.573 139.516C143.573 137.976 141.907 137.024 139.345 137.024ZM147.186 133.202C147.186 132.096 147.998 131.368 149.118 131.368C150.21 131.368 151.022 132.096 151.022 133.202C151.022 134.294 150.21 135.022 149.118 135.022C147.998 135.022 147.186 134.294 147.186 133.202ZM154.676 132.348V134.056H152.268C152.352 133.79 152.394 133.51 152.394 133.202C152.394 132.894 152.352 132.614 152.282 132.348H154.676ZM154.676 135.218V136.884H156.118V129.422H154.676V131.172H151.624C151.036 130.542 150.154 130.15 149.118 130.15C147.228 130.15 145.814 131.41 145.814 133.202C145.814 134.98 147.228 136.24 149.118 136.24C150.14 136.24 151.036 135.862 151.624 135.218H154.676ZM151.904 140.944C150.112 140.944 149.062 140.482 149.062 139.614C149.062 138.774 150.112 138.298 151.904 138.298C153.71 138.298 154.746 138.774 154.746 139.614C154.746 140.482 153.71 140.944 151.904 140.944ZM151.904 137.164C149.272 137.164 147.648 138.074 147.648 139.614C147.648 141.168 149.272 142.078 151.904 142.078C154.536 142.078 156.174 141.168 156.174 139.614C156.174 138.074 154.536 137.164 151.904 137.164ZM162.391 131.172C163.497 131.172 164.267 131.746 164.267 132.628C164.267 133.524 163.497 134.098 162.391 134.098C161.299 134.098 160.515 133.524 160.515 132.628C160.515 131.746 161.299 131.172 162.391 131.172ZM162.391 135.288C164.281 135.288 165.653 134.196 165.653 132.628C165.653 131.074 164.281 129.982 162.391 129.982C160.501 129.982 159.129 131.074 159.129 132.628C159.129 134.196 160.501 135.288 162.391 135.288ZM166.465 135.764C163.735 136.17 160.557 136.212 158.275 136.212L158.443 137.402C159.423 137.402 160.543 137.388 161.733 137.346V141.7H163.175V137.262C164.295 137.178 165.457 137.052 166.563 136.828L166.465 135.764ZM167.291 129.436V142.092H168.733V129.436H167.291ZM177.455 136.856V137.864H179.933V139.04H181.375V129.422H179.933V136.856H177.455ZM174.935 130.976C175.971 130.976 176.685 131.424 176.685 132.138C176.685 132.852 175.971 133.3 174.935 133.3C173.885 133.3 173.171 132.852 173.171 132.138C173.171 131.424 173.885 130.976 174.935 130.976ZM174.935 134.364C176.783 134.364 178.057 133.482 178.057 132.138C178.057 130.794 176.783 129.912 174.935 129.912C173.073 129.912 171.799 130.794 171.799 132.138C171.799 133.482 173.073 134.364 174.935 134.364ZM174.361 138.634H175.803V136.198C176.881 136.142 177.987 136.016 179.051 135.834L178.939 134.798C176.265 135.134 173.157 135.162 170.833 135.176L171.015 136.352C172.009 136.352 173.157 136.338 174.361 136.282V138.634ZM173.983 140.664V138.102H172.541V141.84H181.669V140.664H173.983ZM191.498 130.906H188.404V129.45H186.962V130.906H183.854V132.068H191.498V130.906ZM185.968 135.036C185.968 134.266 186.668 133.79 187.69 133.79C188.698 133.79 189.398 134.266 189.398 135.036C189.398 135.82 188.698 136.296 187.69 136.296C186.668 136.296 185.968 135.82 185.968 135.036ZM188.404 137.346C189.832 137.122 190.77 136.268 190.77 135.036C190.77 133.622 189.51 132.684 187.69 132.684C185.856 132.684 184.596 133.622 184.596 135.036C184.596 136.254 185.534 137.122 186.962 137.346V138.578C185.772 138.62 184.61 138.62 183.602 138.62L183.784 139.81C186.08 139.81 189.076 139.768 191.862 139.292L191.764 138.242C190.686 138.396 189.538 138.466 188.404 138.536V137.346ZM192.478 129.422V142.078H193.934V129.422H192.478Z" fill="#283895"/>
<rect x="1" y="220" width="208" height="80" rx="7" fill="#F6F7FE"/>
<path d="M89.7543 257.956V259.204H87.1263V260.212H89.7543V261.46H90.9903V255.088H89.7543V256.948H87.5223C87.5823 256.612 87.6183 256.252 87.6183 255.868H82.6983V256.864H86.2983C86.0823 258.556 84.6783 259.888 82.1343 260.596L82.6263 261.58C84.9663 260.896 86.5623 259.684 87.2343 257.956H89.7543ZM87.4383 264.904C85.9743 264.904 85.0503 264.484 85.0503 263.728C85.0503 262.984 85.9743 262.564 87.4383 262.564C88.9143 262.564 89.8383 262.984 89.8383 263.728C89.8383 264.484 88.9143 264.904 87.4383 264.904ZM87.4383 261.592C85.2423 261.592 83.8263 262.408 83.8263 263.728C83.8263 265.06 85.2423 265.876 87.4383 265.876C89.6343 265.876 91.0623 265.06 91.0623 263.728C91.0623 262.408 89.6343 261.592 87.4383 261.592ZM94.1234 258.316C94.1234 257.368 94.8194 256.744 95.7794 256.744C96.7154 256.744 97.4114 257.368 97.4114 258.316C97.4114 259.252 96.7154 259.876 95.7794 259.876C94.8194 259.876 94.1234 259.252 94.1234 258.316ZM100.543 257.584V259.048H98.4794C98.5514 258.82 98.5874 258.58 98.5874 258.316C98.5874 258.052 98.5514 257.812 98.4914 257.584H100.543ZM100.543 260.044V261.472H101.779V255.076H100.543V256.576H97.9274C97.4234 256.036 96.6674 255.7 95.7794 255.7C94.1594 255.7 92.9474 256.78 92.9474 258.316C92.9474 259.84 94.1594 260.92 95.7794 260.92C96.6554 260.92 97.4234 260.596 97.9274 260.044H100.543ZM98.1674 264.952C96.6314 264.952 95.7314 264.556 95.7314 263.812C95.7314 263.092 96.6314 262.684 98.1674 262.684C99.7154 262.684 100.603 263.092 100.603 263.812C100.603 264.556 99.7154 264.952 98.1674 264.952ZM98.1674 261.712C95.9114 261.712 94.5194 262.492 94.5194 263.812C94.5194 265.144 95.9114 265.924 98.1674 265.924C100.423 265.924 101.827 265.144 101.827 263.812C101.827 262.492 100.423 261.712 98.1674 261.712ZM107.588 257.188H110V256.168H103.928V257.188H106.34V258.22C106.34 260.08 105.224 262.096 103.544 262.876L104.252 263.86C105.524 263.248 106.496 261.964 106.976 260.452C107.48 261.856 108.452 263.032 109.712 263.584L110.396 262.612C108.704 261.892 107.588 260.02 107.588 258.22V257.188ZM111.26 255.088V265.924H112.508V255.088H111.26ZM119.998 261.448V262.312H122.122V263.32H123.358V255.076H122.122V261.448H119.998ZM117.838 256.408C118.726 256.408 119.338 256.792 119.338 257.404C119.338 258.016 118.726 258.4 117.838 258.4C116.938 258.4 116.326 258.016 116.326 257.404C116.326 256.792 116.938 256.408 117.838 256.408ZM117.838 259.312C119.422 259.312 120.514 258.556 120.514 257.404C120.514 256.252 119.422 255.496 117.838 255.496C116.242 255.496 115.15 256.252 115.15 257.404C115.15 258.556 116.242 259.312 117.838 259.312ZM117.346 262.972H118.582V260.884C119.506 260.836 120.454 260.728 121.366 260.572L121.27 259.684C118.978 259.972 116.314 259.996 114.322 260.008L114.478 261.016C115.33 261.016 116.314 261.004 117.346 260.956V262.972ZM117.022 264.712V262.516H115.786V265.72H123.61V264.712H117.022ZM134.099 255.088H132.851V260.644H134.099V255.088ZM131.759 259.432C130.091 258.916 129.119 257.596 129.119 256.192V255.376H127.859V256.192C127.859 257.656 126.887 259.06 125.171 259.624L125.783 260.608C127.091 260.164 128.015 259.264 128.507 258.1C128.999 259.168 129.911 259.996 131.159 260.404L131.759 259.432ZM128.231 264.856V263.908H134.099V261.16H126.995V262.12H132.875V263.008H127.019V265.828H134.423V264.856H128.231Z" fill="#283895"/>
<mask id="path-14-inside-1_1422_29827" fill="white">
<path fill-rule="evenodd" clip-rule="evenodd" d="M53.8284 312.828C52.2663 311.266 49.7337 311.266 48.1716 312.828L43 318H8C4.13401 318 1 321.134 1 325V371C1 374.866 4.13401 378 8 378H94C97.866 378 101 374.866 101 371V325C101 321.134 97.866 318 94 318H59L53.8284 312.828Z"/>
</mask>
<path fill-rule="evenodd" clip-rule="evenodd" d="M53.8284 312.828C52.2663 311.266 49.7337 311.266 48.1716 312.828L43 318H8C4.13401 318 1 321.134 1 325V371C1 374.866 4.13401 378 8 378H94C97.866 378 101 374.866 101 371V325C101 321.134 97.866 318 94 318H59L53.8284 312.828Z" fill="white"/>
<path d="M48.1716 312.828L48.8787 313.536V313.536L48.1716 312.828ZM53.8284 312.828L54.5355 312.121V312.121L53.8284 312.828ZM43 318V319H43.4142L43.7071 318.707L43 318ZM59 318L58.2929 318.707L58.5858 319H59V318ZM48.8787 313.536C50.0503 312.364 51.9497 312.364 53.1213 313.536L54.5355 312.121C52.5829 310.169 49.4171 310.169 47.4645 312.121L48.8787 313.536ZM43.7071 318.707L48.8787 313.536L47.4645 312.121L42.2929 317.293L43.7071 318.707ZM8 319H43V317H8V319ZM2 325C2 321.686 4.68629 319 8 319V317C3.58172 317 0 320.582 0 325H2ZM2 371V325H0V371H2ZM8 377C4.68629 377 2 374.314 2 371H0C0 375.418 3.58172 379 8 379V377ZM94 377H8V379H94V377ZM100 371C100 374.314 97.3137 377 94 377V379C98.4183 379 102 375.418 102 371H100ZM100 325V371H102V325H100ZM94 319C97.3137 319 100 321.686 100 325H102C102 320.582 98.4183 317 94 317V319ZM59 319H94V317H59V319ZM53.1213 313.536L58.2929 318.707L59.7071 317.293L54.5355 312.121L53.1213 313.536Z" fill="#EEEEEE" mask="url(#path-14-inside-1_1422_29827)"/>
<path d="M29.8955 336.1H28.6595V344.02H29.8955V336.1ZM27.5315 341.332C25.8635 340.756 24.9155 339.304 24.9155 337.768V336.688H23.6555V337.768C23.6555 339.352 22.7075 340.9 21.0035 341.524L21.6395 342.52C22.9115 342.04 23.8115 341.056 24.3035 339.844C24.7715 340.972 25.6595 341.86 26.8955 342.316L27.5315 341.332ZM24.0635 345.712V343.276H22.8155V346.72H30.2075V345.712H24.0635ZM35.5485 336.988H34.3125V338.764C34.3125 340.768 33.2565 342.82 31.5645 343.648L32.3205 344.644C33.5565 344.008 34.4685 342.748 34.9365 341.248C35.4045 342.664 36.2685 343.84 37.4325 344.44L38.1885 343.456C36.5565 342.652 35.5485 340.696 35.5485 338.764V336.988ZM41.8365 340.384H40.1445V336.088H38.9085V346.924H40.1445V341.404H41.8365V340.384ZM50.2976 345.796H45.7016V344.596H50.2976V345.796ZM50.2976 343.636H45.7016V342.412H44.4776V346.792H51.5216V342.412H50.2976V343.636ZM45.5216 340.624C44.5616 340.624 43.8776 340.012 43.8776 339.1C43.8776 338.176 44.5616 337.588 45.5216 337.588C46.4576 337.588 47.1536 338.176 47.1536 339.1C47.1536 340.012 46.4576 340.624 45.5216 340.624ZM50.2856 336.088V338.584H48.2816C48.0416 337.372 46.9496 336.568 45.5216 336.568C43.8896 336.568 42.6896 337.612 42.6896 339.1C42.6896 340.6 43.8896 341.644 45.5216 341.644C46.9616 341.644 48.0656 340.816 48.2816 339.592H50.2856V341.896H51.5216V336.088H50.2856ZM53.6707 348.4C54.9067 347.932 55.6387 346.96 55.6387 345.7C55.6387 344.776 55.2427 344.212 54.5707 344.212C54.0427 344.212 53.6107 344.56 53.6107 345.1C53.6107 345.676 54.0427 345.988 54.5347 345.988C54.5827 345.988 54.6187 345.988 54.6667 345.976C54.6667 346.672 54.1867 347.284 53.3587 347.62L53.6707 348.4ZM68.4762 340.084C66.2922 339.772 64.6602 338.416 64.6602 337.012V336.436H63.3522V337.012C63.3522 338.44 61.7442 339.772 59.5362 340.084L60.0162 341.08C61.8162 340.792 63.3162 339.892 64.0122 338.632C64.7202 339.88 66.1962 340.792 67.9962 341.08L68.4762 340.084ZM68.8962 342.1H59.1042V343.108H63.3522V346.936H64.5882V343.108H68.8962V342.1ZM70.8773 341.392C72.6653 341.128 74.1293 340.24 74.7893 339.04C75.4492 340.24 76.9253 341.128 78.7133 341.392L79.1573 340.42C77.0933 340.144 75.5693 338.956 75.4973 337.696H78.7733V336.7H70.7933V337.696H74.0933C74.0213 338.956 72.4973 340.144 70.4333 340.42L70.8773 341.392ZM79.6973 342.184H69.8933V343.18H74.1413V346.936H75.3773V343.18H79.6853L79.6973 342.184ZM81.0183 348.4C82.2543 347.932 82.9863 346.96 82.9863 345.7C82.9863 344.776 82.5903 344.212 81.9183 344.212C81.3903 344.212 80.9583 344.56 80.9583 345.1C80.9583 345.676 81.3903 345.988 81.8823 345.988C81.9303 345.988 81.9663 345.988 82.0143 345.976C82.0143 346.672 81.5343 347.284 80.7063 347.62L81.0183 348.4ZM43.8288 358.636H37.5648V357.544H43.4568V356.584H37.5648V355.54H43.7088V354.556H36.3288V359.62H43.8288V358.636ZM44.8848 360.592H35.0568V361.6H39.3528V364.948H40.5888V361.6H44.8848V360.592ZM49.6618 356.188H51.9538V355.168H46.0618V356.188H48.4258V357.232C48.4258 359.032 47.3218 361.084 45.6658 361.876L46.3738 362.86C47.6218 362.248 48.5818 360.952 49.0618 359.44C49.5538 360.808 50.4778 362.008 51.6898 362.584L52.3738 361.612C50.7298 360.832 49.6618 358.912 49.6618 357.232V356.188ZM55.9498 358.36H54.2578V354.088H53.0218V364.924H54.2578V359.38H55.9498V358.36ZM67.7802 357.256H61.5522V355.456H67.7082V354.46H60.3282V358.252H67.7802V357.256ZM63.9762 363.964C62.3922 363.964 61.5042 363.616 61.5042 362.944C61.5042 362.284 62.3922 361.924 63.9762 361.924C65.5602 361.924 66.4602 362.284 66.4602 362.944C66.4602 363.616 65.5602 363.964 63.9762 363.964ZM63.9762 360.976C61.6602 360.976 60.2442 361.696 60.2442 362.944C60.2442 364.204 61.6602 364.924 63.9762 364.924C66.3042 364.924 67.7082 364.204 67.7082 362.944C67.7082 361.696 66.3042 360.976 63.9762 360.976ZM59.1162 359.152V360.172H68.9082V359.152H59.1162Z" fill="#666666"/>
<rect x="1" y="396" width="100" height="48" rx="7" fill="#F5F5F5"/>
<path d="M48.1716 390.828C49.7337 389.266 52.2663 389.266 53.8284 390.828L61 398H41L48.1716 390.828Z" fill="#F5F5F5"/>
<path d="M30.5637 417.992V419.012H32.5317V423.02H33.7677V415.1H32.5317V417.992H30.5637ZM31.2357 420.524C29.6157 419.96 28.6917 418.604 28.6917 417.272V416.9H30.9477V415.904H25.1517V416.9H27.4437V417.272C27.4437 418.736 26.4597 420.164 24.7797 420.752L25.4157 421.724C26.6997 421.28 27.6117 420.332 28.0917 419.156C28.5477 420.224 29.4237 421.076 30.6237 421.484L31.2357 420.524ZM27.9837 424.712V422.336H26.7477V425.72H34.0437V424.712H27.9837ZM41.8808 419.828C40.3928 420.104 39.0848 420.164 37.2248 420.176V418.856H40.9088V415.7H35.9888V416.696H39.6848V417.92H36.0128V421.184H36.8888C38.9648 421.184 40.3808 421.124 42.0128 420.836L41.8808 419.828ZM36.9128 423.212H42.8048V425.936H44.0408V422.216H36.9128V423.212ZM45.5648 417.728V416.72H44.0408V415.112H42.8048V421.676H44.0408V420.02H45.5648V419H44.0408V417.728H45.5648ZM50.6751 420.068H54.4551V416.048H49.4031V417.056H53.2071V419.072H49.4271V423.368H50.3511C52.2591 423.368 53.8791 423.308 55.7391 422.984L55.6071 421.976C53.8911 422.252 52.3911 422.336 50.6751 422.348V420.068ZM56.5071 415.064V425.948H57.7551V415.064H56.5071ZM69.0002 420.38C66.8642 419.996 65.1242 418.328 65.1242 416.6V415.784H63.8162V416.6C63.8162 418.316 62.0762 419.984 59.9402 420.38L60.4682 421.4C62.2322 421.04 63.7562 419.912 64.4642 418.424C65.1722 419.912 66.6962 421.04 68.4602 421.4L69.0002 420.38ZM59.6042 423.512V424.532H69.4202V423.512H59.6042ZM71.2333 419.36L71.3893 420.368L77.7853 420.044C77.7253 420.836 77.6053 421.688 77.3773 422.66L78.6013 422.768C79.0813 420.488 79.0813 419 79.0813 417.428V416.12H71.5333V417.116H77.8693V417.428C77.8693 417.98 77.8693 418.532 77.8453 419.108L71.2333 419.36ZM70.3933 423.5V424.52H80.1853V423.5H70.3933Z" fill="#666666"/>
<mask id="path-20-inside-2_1422_29827" fill="white">
<path fill-rule="evenodd" clip-rule="evenodd" d="M161.828 312.828C160.266 311.266 157.734 311.266 156.172 312.828L151 318H116C112.134 318 109 321.134 109 325V371C109 374.866 112.134 378 116 378H202C205.866 378 209 374.866 209 371V325C209 321.134 205.866 318 202 318H167L161.828 312.828Z"/>
</mask>
<path fill-rule="evenodd" clip-rule="evenodd" d="M161.828 312.828C160.266 311.266 157.734 311.266 156.172 312.828L151 318H116C112.134 318 109 321.134 109 325V371C109 374.866 112.134 378 116 378H202C205.866 378 209 374.866 209 371V325C209 321.134 205.866 318 202 318H167L161.828 312.828Z" fill="white"/>
<path d="M156.172 312.828L156.879 313.536V313.536L156.172 312.828ZM161.828 312.828L162.536 312.121V312.121L161.828 312.828ZM151 318V319H151.414L151.707 318.707L151 318ZM167 318L166.293 318.707L166.586 319H167V318ZM156.879 313.536C158.05 312.364 159.95 312.364 161.121 313.536L162.536 312.121C160.583 310.169 157.417 310.169 155.464 312.121L156.879 313.536ZM151.707 318.707L156.879 313.536L155.464 312.121L150.293 317.293L151.707 318.707ZM116 319H151V317H116V319ZM110 325C110 321.686 112.686 319 116 319V317C111.582 317 108 320.582 108 325H110ZM110 371V325H108V371H110ZM116 377C112.686 377 110 374.314 110 371H108C108 375.418 111.582 379 116 379V377ZM202 377H116V379H202V377ZM208 371C208 374.314 205.314 377 202 377V379C206.418 379 210 375.418 210 371H208ZM208 325V371H210V325H208ZM202 319C205.314 319 208 321.686 208 325H210C210 320.582 206.418 317 202 317V319ZM167 319H202V317H167V319ZM161.121 313.536L166.293 318.707L167.707 317.293L162.536 312.121L161.121 313.536Z" fill="#EEEEEE" mask="url(#path-20-inside-2_1422_29827)"/>
<path d="M137.858 334.988H136.622V336.764C136.622 338.852 135.494 340.928 133.766 341.708L134.498 342.74C135.806 342.104 136.766 340.82 137.258 339.248C137.75 340.712 138.698 341.912 139.946 342.5L140.666 341.516C138.962 340.748 137.858 338.756 137.858 336.764V334.988ZM141.53 334.076V344.948H142.778V334.076H141.53ZM151.011 339.188C149.355 338.66 148.455 337.4 148.455 336.056V335.852H150.723V334.856H144.903V335.852H147.207V336.068C147.207 337.544 146.259 338.936 144.555 339.524L145.179 340.496C146.475 340.052 147.387 339.128 147.867 337.976C148.335 338.984 149.199 339.764 150.411 340.148L151.011 339.188ZM149.619 343.952C148.107 343.952 147.231 343.568 147.231 342.872C147.231 342.164 148.107 341.792 149.619 341.792C151.131 341.792 152.007 342.164 152.007 342.872C152.007 343.568 151.131 343.952 149.619 343.952ZM149.619 340.82C147.387 340.82 146.007 341.576 146.007 342.872C146.007 344.156 147.387 344.924 149.619 344.924C151.851 344.924 153.231 344.156 153.231 342.872C153.231 341.576 151.851 340.82 149.619 340.82ZM153.111 336.728V334.088H151.875V340.568H153.111V337.748H154.647V336.728H153.111ZM155.776 346.4C157.012 345.932 157.744 344.96 157.744 343.7C157.744 342.776 157.348 342.212 156.676 342.212C156.148 342.212 155.716 342.56 155.716 343.1C155.716 343.676 156.148 343.988 156.64 343.988C156.688 343.988 156.724 343.988 156.772 343.976C156.772 344.672 156.292 345.284 155.464 345.62L155.776 346.4ZM170.138 334.1H168.902V342.02H170.138V334.1ZM167.774 339.332C166.106 338.756 165.158 337.304 165.158 335.768V334.688H163.898V335.768C163.898 337.352 162.95 338.9 161.246 339.524L161.882 340.52C163.154 340.04 164.054 339.056 164.546 337.844C165.014 338.972 165.902 339.86 167.138 340.316L167.774 339.332ZM164.306 343.712V341.276H163.058V344.72H170.45V343.712H164.306ZM176.871 343.976C175.287 343.976 174.399 343.64 174.399 342.98C174.399 342.332 175.287 341.984 176.871 341.984C178.455 341.984 179.355 342.332 179.355 342.98C179.355 343.64 178.455 343.976 176.871 343.976ZM176.871 341.036C174.543 341.036 173.139 341.744 173.139 342.98C173.139 344.228 174.543 344.924 176.871 344.924C179.211 344.924 180.603 344.228 180.603 342.98C180.603 341.744 179.211 341.036 176.871 341.036ZM175.551 338.252C175.947 338.312 176.415 338.348 176.895 338.348C177.375 338.348 177.819 338.312 178.215 338.252V339.356H175.551V338.252ZM176.895 335.228C178.503 335.228 179.475 335.612 179.475 336.308C179.475 337.004 178.503 337.4 176.895 337.4C175.275 337.4 174.303 337.004 174.303 336.308C174.303 335.612 175.275 335.228 176.895 335.228ZM179.451 339.356V337.928C180.279 337.568 180.759 337.016 180.759 336.308C180.759 335.036 179.259 334.268 176.895 334.268C174.519 334.268 173.031 335.036 173.031 336.308C173.031 337.016 173.499 337.568 174.315 337.916V339.356H171.987V340.34H181.791V339.356H179.451ZM183.124 346.4C184.36 345.932 185.092 344.96 185.092 343.7C185.092 342.776 184.696 342.212 184.024 342.212C183.496 342.212 183.064 342.56 183.064 343.1C183.064 343.676 183.496 343.988 183.988 343.988C184.036 343.988 184.072 343.988 184.12 343.976C184.12 344.672 183.64 345.284 182.812 345.62L183.124 346.4ZM142.07 353.48C143.618 353.48 144.638 354.008 144.638 354.872C144.638 355.748 143.618 356.276 142.07 356.276C140.51 356.276 139.49 355.748 139.49 354.872C139.49 354.008 140.51 353.48 142.07 353.48ZM142.07 357.272C144.35 357.272 145.91 356.336 145.91 354.872C145.91 353.42 144.35 352.484 142.07 352.484C139.778 352.484 138.218 353.42 138.218 354.872C138.218 356.336 139.778 357.272 142.07 357.272ZM147.002 358.196H137.174V359.216H139.574V362.924H140.834V359.216H143.306V362.924H144.566V359.216H147.014L147.002 358.196ZM152.847 361.976C151.263 361.976 150.375 361.628 150.375 360.956C150.375 360.296 151.263 359.936 152.847 359.936C154.431 359.936 155.331 360.296 155.331 360.956C155.331 361.628 154.431 361.976 152.847 361.976ZM152.847 358.988C150.531 358.988 149.115 359.708 149.115 360.956C149.115 362.216 150.531 362.936 152.847 362.936C155.175 362.936 156.579 362.216 156.579 360.956C156.579 359.708 155.175 358.988 152.847 358.988ZM153.495 357.32V356.24H156.651V355.244H150.423V353.552H156.579V352.568H149.199V356.24H152.259V357.32H147.987V358.328H157.779V357.32H153.495ZM166.504 358.472H167.74V352.076H166.504V354.248H164.308V355.256H166.504V358.472ZM165.196 357.068C163.552 356.528 162.652 355.172 162.652 353.672V352.664H161.404V353.732C161.404 355.316 160.456 356.78 158.716 357.368L159.364 358.364C160.672 357.896 161.584 356.948 162.064 355.748C162.532 356.804 163.372 357.62 164.536 358.04L165.196 357.068ZM164.128 361.952C162.592 361.952 161.716 361.556 161.716 360.848C161.716 360.14 162.592 359.744 164.128 359.744C165.664 359.744 166.552 360.14 166.552 360.848C166.552 361.556 165.664 361.952 164.128 361.952ZM164.128 358.772C161.872 358.772 160.48 359.54 160.48 360.848C160.48 362.156 161.872 362.924 164.128 362.924C166.396 362.924 167.788 362.156 167.788 360.848C167.788 359.54 166.396 358.772 164.128 358.772ZM180.675 355.256H174.447V353.456H180.603V352.46H173.223V356.252H180.675V355.256ZM176.871 361.964C175.287 361.964 174.399 361.616 174.399 360.944C174.399 360.284 175.287 359.924 176.871 359.924C178.455 359.924 179.355 360.284 179.355 360.944C179.355 361.616 178.455 361.964 176.871 361.964ZM176.871 358.976C174.555 358.976 173.139 359.696 173.139 360.944C173.139 362.204 174.555 362.924 176.871 362.924C179.199 362.924 180.603 362.204 180.603 360.944C180.603 359.696 179.199 358.976 176.871 358.976ZM172.011 357.152V358.172H181.803V357.152H172.011Z" fill="#666666"/>
<rect x="109" y="396" width="100" height="48" rx="7" fill="#F5F5F5"/>
<path d="M156.172 390.828C157.734 389.266 160.266 389.266 161.828 390.828L169 398H149L156.172 390.828Z" fill="#F5F5F5"/>
<path d="M137.092 417.296H138.904V416.276H133.936V417.296H135.892V417.896C135.892 420.044 135.208 421.928 133.636 422.84L134.392 423.764C135.46 423.128 136.156 422.024 136.528 420.644C136.924 421.844 137.596 422.828 138.628 423.392L139.348 422.444C137.776 421.628 137.092 419.852 137.092 417.896V417.296ZM141.916 415.076V419.36H140.728V415.28H139.564V425.42H140.728V420.38H141.916V425.924H143.092V415.076H141.916ZM151.949 418.952H146.993V416.648H151.949V418.952ZM153.173 415.664H145.769V419.948H153.173V415.664ZM154.397 421.28H144.569V422.276H148.829V425.924H150.065V422.276H154.397V421.28ZM159.675 420.068H163.455V416.048H158.403V417.056H162.207V419.072H158.427V423.368H159.351C161.259 423.368 162.879 423.308 164.739 422.984L164.607 421.976C162.891 422.252 161.391 422.336 159.675 422.348V420.068ZM165.507 415.064V425.948H166.755V415.064H165.507ZM178 420.38C175.864 419.996 174.124 418.328 174.124 416.6V415.784H172.816V416.6C172.816 418.316 171.076 419.984 168.94 420.38L169.468 421.4C171.232 421.04 172.756 419.912 173.464 418.424C174.172 419.912 175.696 421.04 177.46 421.4L178 420.38ZM168.604 423.512V424.532H178.42V423.512H168.604ZM180.233 419.36L180.389 420.368L186.785 420.044C186.725 420.836 186.605 421.688 186.377 422.66L187.601 422.768C188.081 420.488 188.081 419 188.081 417.428V416.12H180.533V417.116H186.869V417.428C186.869 417.98 186.869 418.532 186.845 419.108L180.233 419.36ZM179.393 423.5V424.52H189.185V423.5H179.393Z" fill="#666666"/>
<mask id="path-26-inside-3_1422_29827" fill="white">
<path fill-rule="evenodd" clip-rule="evenodd" d="M275.828 312.828C274.266 311.266 271.734 311.266 270.172 312.828L265 318H224C220.134 318 217 321.134 217 325V371C217 374.866 220.134 378 224 378H321C324.866 378 328 374.866 328 371V325C328 321.134 324.866 318 321 318H281L275.828 312.828Z"/>
</mask>
<path fill-rule="evenodd" clip-rule="evenodd" d="M275.828 312.828C274.266 311.266 271.734 311.266 270.172 312.828L265 318H224C220.134 318 217 321.134 217 325V371C217 374.866 220.134 378 224 378H321C324.866 378 328 374.866 328 371V325C328 321.134 324.866 318 321 318H281L275.828 312.828Z" fill="white"/>
<path d="M270.172 312.828L270.879 313.536V313.536L270.172 312.828ZM275.828 312.828L276.536 312.121V312.121L275.828 312.828ZM265 318V319H265.414L265.707 318.707L265 318ZM281 318L280.293 318.707L280.586 319H281V318ZM270.879 313.536C272.05 312.364 273.95 312.364 275.121 313.536L276.536 312.121C274.583 310.169 271.417 310.169 269.464 312.121L270.879 313.536ZM265.707 318.707L270.879 313.536L269.464 312.121L264.293 317.293L265.707 318.707ZM224 319H265V317H224V319ZM218 325C218 321.686 220.686 319 224 319V317C219.582 317 216 320.582 216 325H218ZM218 371V325H216V371H218ZM224 377C220.686 377 218 374.314 218 371H216C216 375.418 219.582 379 224 379V377ZM321 377H224V379H321V377ZM327 371C327 374.314 324.314 377 321 377V379C325.418 379 329 375.418 329 371H327ZM327 325V371H329V325H327ZM321 319C324.314 319 327 321.686 327 325H329C329 320.582 325.418 317 321 317V319ZM281 319H321V317H281V319ZM275.121 313.536L280.293 318.707L281.707 317.293L276.536 312.121L275.121 313.536Z" fill="#EEEEEE" mask="url(#path-26-inside-3_1422_29827)"/>
<path d="M236.088 337.388H233.592V335.396H236.088V337.388ZM232.356 337.388H230.88V338.384H238.788V337.388H237.324V335.396H238.848V334.4H230.82V335.396H232.356V337.388ZM237.348 343.808H232.344V342.332H237.348V343.808ZM239.748 340.244V339.248H229.944V340.244H234.228V341.348H231.12V344.792H238.56V341.348H235.464V340.244H239.748ZM249.673 334.088H248.425V339.68H249.673V334.088ZM247.417 338.564C245.773 338.096 244.813 336.908 244.777 335.648H247.093V334.652H241.165V335.648H243.517C243.493 336.992 242.509 338.276 240.829 338.78L241.417 339.752C242.737 339.332 243.685 338.456 244.165 337.352C244.657 338.348 245.581 339.152 246.865 339.512L247.417 338.564ZM243.805 343.868V342.908H249.673V340.172H242.569V341.108H248.449V342.02H242.593V344.828H249.997V343.868H243.805ZM251.87 346.4C253.106 345.932 253.838 344.96 253.838 343.7C253.838 342.776 253.442 342.212 252.77 342.212C252.242 342.212 251.81 342.56 251.81 343.1C251.81 343.676 252.242 343.988 252.734 343.988C252.782 343.988 252.818 343.988 252.866 343.976C252.866 344.672 252.386 345.284 251.558 345.62L251.87 346.4ZM262.919 340.448V341.312H265.043V342.32H266.279V334.076H265.043V340.448H262.919ZM260.759 335.408C261.647 335.408 262.259 335.792 262.259 336.404C262.259 337.016 261.647 337.4 260.759 337.4C259.859 337.4 259.247 337.016 259.247 336.404C259.247 335.792 259.859 335.408 260.759 335.408ZM260.759 338.312C262.343 338.312 263.435 337.556 263.435 336.404C263.435 335.252 262.343 334.496 260.759 334.496C259.163 334.496 258.071 335.252 258.071 336.404C258.071 337.556 259.163 338.312 260.759 338.312ZM260.267 341.972H261.503V339.884C262.427 339.824 263.375 339.728 264.287 339.572L264.191 338.684C261.899 338.972 259.235 338.996 257.243 339.008L257.399 340.016C258.263 340.016 259.235 340.004 260.267 339.956V341.972ZM259.943 343.712V341.516H258.707V344.72H266.531V343.712H259.943ZM271.884 336.188H274.176V335.168H268.284V336.188H270.648V337.232C270.648 339.032 269.544 341.084 267.888 341.876L268.596 342.86C269.844 342.248 270.804 340.952 271.284 339.44C271.776 340.808 272.7 342.008 273.912 342.584L274.596 341.612C272.952 340.832 271.884 338.912 271.884 337.232V336.188ZM278.172 338.36H276.48V334.088H275.244V344.924H276.48V339.38H278.172V338.36ZM282.182 336.296H283.994V335.276H279.026V336.296H280.982V336.896C280.982 339.044 280.298 340.928 278.726 341.84L279.482 342.764C280.55 342.128 281.246 341.024 281.618 339.644C282.014 340.844 282.686 341.828 283.718 342.392L284.438 341.444C282.866 340.628 282.182 338.852 282.182 336.896V336.296ZM287.006 334.076V338.36H285.818V334.28H284.654V344.42H285.818V339.38H287.006V344.924H288.182V334.076H287.006ZM301.488 338.084C299.304 337.772 297.672 336.416 297.672 335.012V334.436H296.364V335.012C296.364 336.44 294.756 337.772 292.548 338.084L293.028 339.08C294.828 338.792 296.328 337.892 297.024 336.632C297.732 337.88 299.208 338.792 301.008 339.08L301.488 338.084ZM301.908 340.1H292.116V341.108H296.364V344.936H297.6V341.108H301.908V340.1ZM310.249 343.796H305.353V342.536H310.249V343.796ZM310.249 341.576H305.353V340.28H304.129V344.792H311.485V340.28H310.249V341.576ZM311.233 338.42C311.497 337.136 311.497 336.224 311.497 335.384V334.556H304.141V335.552H310.285C310.285 336.344 310.261 337.232 310.009 338.42H302.905V339.428H312.721V338.42H311.233ZM314.03 346.4C315.266 345.932 315.998 344.96 315.998 343.7C315.998 342.776 315.602 342.212 314.93 342.212C314.402 342.212 313.97 342.56 313.97 343.1C313.97 343.676 314.402 343.988 314.894 343.988C314.942 343.988 314.978 343.988 315.026 343.976C315.026 344.672 314.546 345.284 313.718 345.62L314.03 346.4ZM258.409 355.628H263.545V357.404H258.409V355.628ZM261.589 360.584V358.4H264.769V352.808H263.545V354.632H258.409V352.808H257.185V358.4H260.353V360.584H256.081V361.604H265.897V360.584H261.589ZM268.214 355.52C268.214 354.536 268.934 353.888 269.882 353.888C270.83 353.888 271.562 354.536 271.562 355.52C271.562 356.516 270.83 357.164 269.882 357.164C268.934 357.164 268.214 356.516 268.214 355.52ZM272.774 355.52C272.774 353.936 271.526 352.82 269.882 352.82C268.25 352.82 267.002 353.936 267.002 355.52C267.002 357.104 268.25 358.232 269.882 358.232C271.526 358.232 272.774 357.104 272.774 355.52ZM269.714 359.216H268.466V362.72H275.762V361.712H269.714V359.216ZM275.33 355.304V352.088H274.094V360.032H275.33V356.324H276.866V355.304H275.33ZM288.78 355.256H282.552V353.456H288.708V352.46H281.328V356.252H288.78V355.256ZM284.976 361.964C283.392 361.964 282.504 361.616 282.504 360.944C282.504 360.284 283.392 359.924 284.976 359.924C286.56 359.924 287.46 360.284 287.46 360.944C287.46 361.616 286.56 361.964 284.976 361.964ZM284.976 358.976C282.66 358.976 281.244 359.696 281.244 360.944C281.244 362.204 282.66 362.924 284.976 362.924C287.304 362.924 288.708 362.204 288.708 360.944C288.708 359.696 287.304 358.976 284.976 358.976ZM280.116 357.152V358.172H289.908V357.152H280.116Z" fill="#666666"/>
<path d="M270.172 390.828C271.734 389.266 274.266 389.266 275.828 390.828L283 398H263L270.172 390.828Z" fill="#F5F5F5"/>
<rect x="217" y="396" width="111" height="48" rx="7" fill="#F5F5F5"/>
<path d="M250.688 416.324C252.212 416.324 253.208 416.768 253.208 417.536C253.208 418.304 252.212 418.748 250.688 418.748C249.152 418.748 248.156 418.304 248.156 417.536C248.156 416.768 249.152 416.324 250.688 416.324ZM250.688 419.744C253.004 419.744 254.528 418.892 254.528 417.536C254.528 416.18 253.004 415.328 250.688 415.328C248.36 415.328 246.848 416.18 246.848 417.536C246.848 418.892 248.36 419.744 250.688 419.744ZM248.24 422.516H246.992V425.72H254.528V424.712H248.24V422.516ZM245.78 420.476V421.484H250.148V423.536H251.408V421.484H255.608V420.476H245.78ZM257.901 418.316C257.901 417.368 258.597 416.744 259.557 416.744C260.493 416.744 261.189 417.368 261.189 418.316C261.189 419.252 260.493 419.876 259.557 419.876C258.597 419.876 257.901 419.252 257.901 418.316ZM264.321 417.584V419.048H262.257C262.329 418.82 262.365 418.58 262.365 418.316C262.365 418.052 262.329 417.812 262.269 417.584H264.321ZM264.321 420.044V421.472H265.557V415.076H264.321V416.576H261.705C261.201 416.036 260.445 415.7 259.557 415.7C257.937 415.7 256.725 416.78 256.725 418.316C256.725 419.84 257.937 420.92 259.557 420.92C260.433 420.92 261.201 420.596 261.705 420.044H264.321ZM261.945 424.952C260.409 424.952 259.509 424.556 259.509 423.812C259.509 423.092 260.409 422.684 261.945 422.684C263.493 422.684 264.381 423.092 264.381 423.812C264.381 424.556 263.493 424.952 261.945 424.952ZM261.945 421.712C259.689 421.712 258.297 422.492 258.297 423.812C258.297 425.144 259.689 425.924 261.945 425.924C264.201 425.924 265.605 425.144 265.605 423.812C265.605 422.492 264.201 421.712 261.945 421.712ZM271.675 420.068H275.455V416.048H270.403V417.056H274.207V419.072H270.427V423.368H271.351C273.259 423.368 274.879 423.308 276.739 422.984L276.607 421.976C274.891 422.252 273.391 422.336 271.675 422.348V420.068ZM277.507 415.064V425.948H278.755V415.064H277.507ZM290 420.38C287.864 419.996 286.124 418.328 286.124 416.6V415.784H284.816V416.6C284.816 418.316 283.076 419.984 280.94 420.38L281.468 421.4C283.232 421.04 284.756 419.912 285.464 418.424C286.172 419.912 287.696 421.04 289.46 421.4L290 420.38ZM280.604 423.512V424.532H290.42V423.512H280.604ZM292.233 419.36L292.389 420.368L298.785 420.044C298.725 420.836 298.605 421.688 298.377 422.66L299.601 422.768C300.081 420.488 300.081 419 300.081 417.428V416.12H292.533V417.116H298.869V417.428C298.869 417.98 298.869 418.532 298.845 419.108L292.233 419.36ZM291.393 423.5V424.52H301.185V423.5H291.393Z" fill="#666666"/>
<rect x="217" y="220" width="111" height="80" rx="7" fill="#F6F7FE"/>
<path d="M251.484 249.388H248.988V247.396H251.484V249.388ZM247.752 249.388H246.276V250.384H254.184V249.388H252.72V247.396H254.244V246.4H246.216V247.396H247.752V249.388ZM252.744 255.808H247.74V254.332H252.744V255.808ZM255.144 252.244V251.248H245.34V252.244H249.624V253.348H246.516V256.792H253.956V253.348H250.86V252.244H255.144ZM265.069 246.088H263.821V251.68H265.069V246.088ZM262.813 250.564C261.169 250.096 260.209 248.908 260.173 247.648H262.489V246.652H256.561V247.648H258.913C258.889 248.992 257.905 250.276 256.225 250.78L256.813 251.752C258.133 251.332 259.081 250.456 259.561 249.352C260.053 250.348 260.977 251.152 262.261 251.512L262.813 250.564ZM259.201 255.868V254.908H265.069V252.172H257.965V253.108H263.845V254.02H257.989V256.828H265.393V255.868H259.201ZM269.258 249.628H274.394V251.404H269.258V249.628ZM272.438 254.584V252.4H275.618V246.808H274.394V248.632H269.258V246.808H268.034V252.4H271.202V254.584H266.93V255.604H276.746V254.584H272.438ZM278.643 250.624C280.539 250.42 282.027 249.64 282.615 248.524C283.191 249.64 284.667 250.42 286.587 250.624L287.019 249.664C285.003 249.46 283.599 248.596 283.443 247.612H286.623V246.616H278.619V247.612H281.775C281.619 248.596 280.215 249.46 278.199 249.664L278.643 250.624ZM282.591 255.952C281.007 255.952 280.119 255.604 280.119 254.944C280.119 254.272 281.007 253.924 282.591 253.924C284.175 253.924 285.075 254.272 285.075 254.944C285.075 255.604 284.175 255.952 282.591 255.952ZM282.591 252.952C280.275 252.952 278.859 253.684 278.859 254.944C278.859 256.204 280.275 256.924 282.591 256.924C284.919 256.924 286.323 256.204 286.323 254.944C286.323 253.684 284.919 252.952 282.591 252.952ZM277.707 251.176V252.172H287.511V251.176H277.707ZM297.436 246.088H296.188V251.644H297.436V246.088ZM295.096 250.432C293.428 249.916 292.456 248.596 292.456 247.192V246.376H291.196V247.192C291.196 248.656 290.224 250.06 288.508 250.624L289.12 251.608C290.428 251.164 291.352 250.264 291.844 249.1C292.336 250.168 293.248 250.996 294.496 251.404L295.096 250.432ZM291.568 255.856V254.908H297.436V252.16H290.332V253.12H296.212V254.008H290.356V256.828H297.76V255.856H291.568ZM299.634 258.4C300.87 257.932 301.602 256.96 301.602 255.7C301.602 254.776 301.206 254.212 300.534 254.212C300.006 254.212 299.574 254.56 299.574 255.1C299.574 255.676 300.006 255.988 300.498 255.988C300.546 255.988 300.582 255.988 300.63 255.976C300.63 256.672 300.15 257.284 299.322 257.62L299.634 258.4ZM248.539 269.38H247.027C247.303 267.844 247.303 266.716 247.303 265.696V264.748H239.911V265.744H246.091C246.091 266.74 246.091 267.868 245.779 269.38H238.735V270.4H242.971V274.924H244.219V270.4H248.539V269.38ZM251.036 266.26H252.908V271.12H251.036V266.26ZM249.884 272.104H254.06V265.276H249.884V272.104ZM257.6 264.088V268.312H256.364V264.292H255.2V274.408H256.364V269.32H257.6V274.912H258.776V264.088H257.6ZM266.913 268.684C265.473 268.924 264.237 268.972 262.149 268.972V267.796H265.797V266.824H262.149V265.708H266.109V264.712H260.925V269.956H261.825C264.153 269.956 265.485 269.92 267.033 269.668L266.913 268.684ZM263.361 272.032H268.029V273.808H263.361V272.032ZM262.149 274.792H269.241V271.048H262.149V274.792ZM268.005 264.088V270.544H269.241V264.088H268.005ZM271.438 276.4C272.674 275.932 273.406 274.96 273.406 273.7C273.406 272.776 273.01 272.212 272.338 272.212C271.81 272.212 271.378 272.56 271.378 273.1C271.378 273.676 271.81 273.988 272.302 273.988C272.35 273.988 272.386 273.988 272.434 273.976C272.434 274.672 271.954 275.284 271.126 275.62L271.438 276.4ZM285.8 264.088H284.564V271.96H285.8V264.088ZM278.288 267.52C278.288 266.524 278.996 265.876 279.956 265.876C280.904 265.876 281.624 266.524 281.624 267.52C281.624 268.504 280.904 269.164 279.956 269.164C278.996 269.164 278.288 268.504 278.288 267.52ZM282.824 267.52C282.824 265.936 281.588 264.808 279.956 264.808C278.324 264.808 277.076 265.936 277.076 267.52C277.076 269.092 278.324 270.232 279.956 270.232C281.588 270.232 282.824 269.092 282.824 267.52ZM279.968 273.712V271.168H278.72V274.72H286.112V273.712H279.968ZM291.453 264.988H290.217V266.764C290.217 268.768 289.161 270.82 287.469 271.648L288.225 272.644C289.461 272.008 290.373 270.748 290.841 269.248C291.309 270.664 292.173 271.84 293.337 272.44L294.093 271.456C292.461 270.652 291.453 268.696 291.453 266.764V264.988ZM297.741 268.384H296.049V264.088H294.813V274.924H296.049V269.404H297.741V268.384ZM305.05 268.684C303.61 268.924 302.374 268.972 300.286 268.972V267.796H303.934V266.824H300.286V265.708H304.246V264.712H299.062V269.956H299.962C302.29 269.956 303.622 269.92 305.17 269.668L305.05 268.684ZM301.498 272.032H306.166V273.808H301.498V272.032ZM300.286 274.792H307.378V271.048H300.286V274.792ZM306.142 264.088V270.544H307.378V264.088H306.142Z" fill="#283895"/>
<rect x="199" width="327" height="50" rx="7" fill="#435CE7"/>
<path d="M352.66 19.422V32.106H354.116V19.422H352.66ZM347.382 20.36C345.506 20.36 344.134 22.096 344.134 24.812C344.134 27.556 345.506 29.278 347.382 29.278C349.272 29.278 350.644 27.556 350.644 24.812C350.644 22.096 349.272 20.36 347.382 20.36ZM347.382 21.662C348.488 21.662 349.258 22.852 349.258 24.812C349.258 26.8 348.488 27.99 347.382 27.99C346.29 27.99 345.52 26.8 345.52 24.812C345.52 22.852 346.29 21.662 347.382 21.662ZM360.767 20.486H359.325V22.558C359.325 24.896 358.093 27.29 356.119 28.256L357.001 29.418C358.443 28.676 359.507 27.206 360.053 25.456C360.599 27.108 361.607 28.48 362.965 29.18L363.847 28.032C361.943 27.094 360.767 24.812 360.767 22.558V20.486ZM368.103 24.448H366.129V19.436H364.687V32.078H366.129V25.638H368.103V24.448ZM376.938 20.906H373.844V19.45H372.402V20.906H369.294V22.068H376.938V20.906ZM371.408 25.036C371.408 24.266 372.108 23.79 373.13 23.79C374.138 23.79 374.838 24.266 374.838 25.036C374.838 25.82 374.138 26.296 373.13 26.296C372.108 26.296 371.408 25.82 371.408 25.036ZM373.844 27.346C375.272 27.122 376.21 26.268 376.21 25.036C376.21 23.622 374.95 22.684 373.13 22.684C371.296 22.684 370.036 23.622 370.036 25.036C370.036 26.254 370.974 27.122 372.402 27.346V28.578C371.212 28.62 370.05 28.62 369.042 28.62L369.224 29.81C371.52 29.81 374.516 29.768 377.302 29.292L377.204 28.242C376.126 28.396 374.978 28.466 373.844 28.536V27.346ZM377.918 19.422V32.078H379.374V19.422H377.918Z" fill="white"/>
<path d="M583 188L583 122" stroke="#7094F0" stroke-linecap="round" stroke-linejoin="round" stroke-dasharray="2 4"/>
<path d="M650 268L650 188" stroke="#7094F0" stroke-linecap="round" stroke-linejoin="round" stroke-dasharray="2 4"/>
<path d="M769 268L769 188" stroke="#7094F0" stroke-linecap="round" stroke-linejoin="round" stroke-dasharray="2 4"/>
<path d="M398 268L398 188" stroke="#7094F0" stroke-linecap="round" stroke-linejoin="round" stroke-dasharray="2 4"/>
<path d="M517 268L517 188" stroke="#7094F0" stroke-linecap="round" stroke-linejoin="round" stroke-dasharray="2 4"/>
<path d="M398 188L769 188" stroke="#7094F0" stroke-linecap="round" stroke-linejoin="round" stroke-dasharray="2 4"/>
<rect x="420" y="110" width="327" height="50" rx="7" fill="#F6F7FE"/>
<path d="M531.421 131.886H534.235V130.696H527.151V131.886H529.965V133.09C529.965 135.26 528.663 137.612 526.703 138.522L527.529 139.67C529.013 138.956 530.147 137.458 530.707 135.694C531.295 137.332 532.429 138.704 533.899 139.348L534.697 138.214C532.723 137.374 531.421 135.19 531.421 133.09V131.886ZM535.705 129.436V142.078H537.161V129.436H535.705ZM550.154 133.454C547.62 133.118 545.828 131.718 545.828 130.122V129.646H544.344V130.122C544.344 131.69 542.51 133.118 540.018 133.454L540.55 134.574C542.594 134.266 544.274 133.3 545.072 131.956C545.884 133.314 547.578 134.252 549.608 134.574L550.154 133.454ZM540.648 139.096H547.97V142.092H549.412V137.934H540.648V139.096ZM545.8 135.68V133.874H544.358V135.68H539.374V136.842H550.84V135.68H545.8ZM552.633 130.766V131.942H557.057C556.763 134.854 555.097 137.08 552.003 138.662L552.801 139.768C556.931 137.682 558.499 134.434 558.499 130.766H552.633ZM563.721 134.42H561.803V129.422H560.361V142.064H561.803V135.624H563.721V134.42ZM574.782 132.796H567.586V129.674H566.144V133.958H574.782V132.796ZM570.33 140.93C568.482 140.93 567.446 140.496 567.446 139.726C567.446 138.928 568.482 138.522 570.33 138.522C572.178 138.522 573.228 138.928 573.228 139.726C573.228 140.496 572.178 140.93 570.33 140.93ZM570.33 137.388C567.628 137.388 565.976 138.242 565.976 139.726C565.976 141.196 567.628 142.05 570.33 142.05C573.046 142.05 574.684 141.196 574.684 139.726C574.684 138.242 573.046 137.388 570.33 137.388ZM564.646 135.232V136.408H576.084V135.232H564.646ZM586.305 132.782V134.238H583.239V135.414H586.305V136.87H587.747V129.436H586.305V131.606H583.701C583.771 131.214 583.813 130.794 583.813 130.346H578.073V131.508H582.273C582.021 133.482 580.383 135.036 577.415 135.862L577.989 137.01C580.719 136.212 582.581 134.798 583.365 132.782H586.305ZM583.603 140.888C581.895 140.888 580.817 140.398 580.817 139.516C580.817 138.648 581.895 138.158 583.603 138.158C585.325 138.158 586.403 138.648 586.403 139.516C586.403 140.398 585.325 140.888 583.603 140.888ZM583.603 137.024C581.041 137.024 579.389 137.976 579.389 139.516C579.389 141.07 581.041 142.022 583.603 142.022C586.165 142.022 587.831 141.07 587.831 139.516C587.831 137.976 586.165 137.024 583.603 137.024ZM591.443 133.202C591.443 132.096 592.255 131.368 593.375 131.368C594.467 131.368 595.279 132.096 595.279 133.202C595.279 134.294 594.467 135.022 593.375 135.022C592.255 135.022 591.443 134.294 591.443 133.202ZM598.933 132.348V134.056H596.525C596.609 133.79 596.651 133.51 596.651 133.202C596.651 132.894 596.609 132.614 596.539 132.348H598.933ZM598.933 135.218V136.884H600.375V129.422H598.933V131.172H595.881C595.293 130.542 594.411 130.15 593.375 130.15C591.485 130.15 590.071 131.41 590.071 133.202C590.071 134.98 591.485 136.24 593.375 136.24C594.397 136.24 595.293 135.862 595.881 135.218H598.933ZM596.161 140.944C594.369 140.944 593.319 140.482 593.319 139.614C593.319 138.774 594.369 138.298 596.161 138.298C597.967 138.298 599.003 138.774 599.003 139.614C599.003 140.482 597.967 140.944 596.161 140.944ZM596.161 137.164C593.529 137.164 591.905 138.074 591.905 139.614C591.905 141.168 593.529 142.078 596.161 142.078C598.793 142.078 600.431 141.168 600.431 139.614C600.431 138.074 598.793 137.164 596.161 137.164ZM606.648 131.172C607.754 131.172 608.524 131.746 608.524 132.628C608.524 133.524 607.754 134.098 606.648 134.098C605.556 134.098 604.772 133.524 604.772 132.628C604.772 131.746 605.556 131.172 606.648 131.172ZM606.648 135.288C608.538 135.288 609.91 134.196 609.91 132.628C609.91 131.074 608.538 129.982 606.648 129.982C604.758 129.982 603.386 131.074 603.386 132.628C603.386 134.196 604.758 135.288 606.648 135.288ZM610.722 135.764C607.992 136.17 604.814 136.212 602.532 136.212L602.7 137.402C603.68 137.402 604.8 137.388 605.99 137.346V141.7H607.432V137.262C608.552 137.178 609.714 137.052 610.82 136.828L610.722 135.764ZM611.548 129.436V142.092H612.99V129.436H611.548ZM621.713 136.856V137.864H624.191V139.04H625.633V129.422H624.191V136.856H621.713ZM619.193 130.976C620.229 130.976 620.943 131.424 620.943 132.138C620.943 132.852 620.229 133.3 619.193 133.3C618.143 133.3 617.429 132.852 617.429 132.138C617.429 131.424 618.143 130.976 619.193 130.976ZM619.193 134.364C621.041 134.364 622.315 133.482 622.315 132.138C622.315 130.794 621.041 129.912 619.193 129.912C617.331 129.912 616.057 130.794 616.057 132.138C616.057 133.482 617.331 134.364 619.193 134.364ZM618.619 138.634H620.061V136.198C621.139 136.142 622.245 136.016 623.309 135.834L623.197 134.798C620.523 135.134 617.415 135.162 615.091 135.176L615.273 136.352C616.267 136.352 617.415 136.338 618.619 136.282V138.634ZM618.241 140.664V138.102H616.799V141.84H625.927V140.664H618.241ZM635.756 130.906H632.662V129.45H631.22V130.906H628.112V132.068H635.756V130.906ZM630.226 135.036C630.226 134.266 630.926 133.79 631.948 133.79C632.956 133.79 633.656 134.266 633.656 135.036C633.656 135.82 632.956 136.296 631.948 136.296C630.926 136.296 630.226 135.82 630.226 135.036ZM632.662 137.346C634.09 137.122 635.028 136.268 635.028 135.036C635.028 133.622 633.768 132.684 631.948 132.684C630.114 132.684 628.854 133.622 628.854 135.036C628.854 136.254 629.792 137.122 631.22 137.346V138.578C630.03 138.62 628.868 138.62 627.86 138.62L628.042 139.81C630.338 139.81 633.334 139.768 636.12 139.292L636.022 138.242C634.944 138.396 633.796 138.466 632.662 138.536V137.346ZM636.736 129.422V142.078H638.192V129.422H636.736Z" fill="#283895"/>
<mask id="path-44-inside-4_1422_29827" fill="white">
<path fill-rule="evenodd" clip-rule="evenodd" d="M400.828 310.828C399.266 309.266 396.734 309.266 395.172 310.828L390 316H355C351.134 316 348 319.134 348 323V369C348 372.866 351.134 376 355 376H441C444.866 376 448 372.866 448 369V323C448 319.134 444.866 316 441 316H406L400.828 310.828Z"/>
</mask>
<path fill-rule="evenodd" clip-rule="evenodd" d="M400.828 310.828C399.266 309.266 396.734 309.266 395.172 310.828L390 316H355C351.134 316 348 319.134 348 323V369C348 372.866 351.134 376 355 376H441C444.866 376 448 372.866 448 369V323C448 319.134 444.866 316 441 316H406L400.828 310.828Z" fill="white"/>
<path d="M395.172 310.828L395.879 311.536V311.536L395.172 310.828ZM400.828 310.828L401.536 310.121V310.121L400.828 310.828ZM390 316V317H390.414L390.707 316.707L390 316ZM406 316L405.293 316.707L405.586 317H406V316ZM395.879 311.536C397.05 310.364 398.95 310.364 400.121 311.536L401.536 310.121C399.583 308.169 396.417 308.169 394.464 310.121L395.879 311.536ZM390.707 316.707L395.879 311.536L394.464 310.121L389.293 315.293L390.707 316.707ZM355 317H390V315H355V317ZM349 323C349 319.686 351.686 317 355 317V315C350.582 315 347 318.582 347 323H349ZM349 369V323H347V369H349ZM355 375C351.686 375 349 372.314 349 369H347C347 373.418 350.582 377 355 377V375ZM441 375H355V377H441V375ZM447 369C447 372.314 444.314 375 441 375V377C445.418 377 449 373.418 449 369H447ZM447 323V369H449V323H447ZM441 317C444.314 317 447 319.686 447 323H449C449 318.582 445.418 315 441 315V317ZM406 317H441V315H406V317ZM400.121 311.536L405.293 316.707L406.707 315.293L401.536 310.121L400.121 311.536Z" fill="#EEEEEE" mask="url(#path-44-inside-4_1422_29827)"/>
<path d="M376.298 333.228V334.236H380.162C379.946 336.732 378.602 338.64 375.758 340.008L376.418 340.992C380.138 339.192 381.434 336.456 381.434 333.228H376.298ZM383.39 332.088V342.924H384.626V332.088H383.39ZM395.727 333.276H391.983V332.064H390.747V333.276H386.955V334.26H395.727V333.276ZM393.687 336.624C393.687 337.212 392.883 337.536 391.371 337.536C389.859 337.536 389.043 337.212 389.043 336.624C389.043 336.036 389.859 335.724 391.371 335.724C392.883 335.724 393.687 336.036 393.687 336.624ZM387.759 336.624C387.759 337.8 389.115 338.46 391.371 338.46C393.627 338.46 394.983 337.8 394.983 336.624C394.983 335.448 393.627 334.788 391.371 334.788C389.115 334.788 387.759 335.448 387.759 336.624ZM396.291 339.108H386.463V340.104H390.747V342.936H391.983V340.104H396.291V339.108ZM403.238 333.576C404.186 333.576 404.846 334.068 404.846 334.824C404.846 335.592 404.186 336.084 403.238 336.084C402.302 336.084 401.63 335.592 401.63 334.824C401.63 334.068 402.302 333.576 403.238 333.576ZM403.238 337.104C404.858 337.104 406.034 336.168 406.034 334.824C406.034 333.492 404.858 332.556 403.238 332.556C401.618 332.556 400.442 333.492 400.442 334.824C400.442 336.168 401.618 337.104 403.238 337.104ZM406.73 337.512C404.39 337.86 401.666 337.896 399.71 337.896L399.854 338.916C400.694 338.916 401.654 338.904 402.674 338.868V342.6H403.91V338.796C404.87 338.724 405.866 338.616 406.814 338.424L406.73 337.512ZM407.438 332.088V342.936H408.674V332.088H407.438ZM411.111 333.228V334.236H414.975C414.759 336.732 413.415 338.64 410.571 340.008L411.231 340.992C414.951 339.192 416.247 336.456 416.247 333.228H411.111ZM418.203 332.088V342.924H419.439V332.088H418.203ZM389.27 352.38H392.066V351.372H388.058V358.344H388.778C390.302 358.344 391.418 358.296 392.726 358.044L392.618 357.024C391.502 357.252 390.518 357.312 389.27 357.324V352.38ZM395.762 350.076V354.36H394.478V350.304H393.314V360.384H394.478V355.368H395.762V360.912H396.938V350.076H395.762ZM398.475 355.26V356.256H408.279V355.26H398.475ZM403.359 357.012C401.031 357.012 399.627 357.732 399.627 358.98C399.627 360.228 401.031 360.936 403.359 360.936C405.699 360.936 407.091 360.228 407.091 358.98C407.091 357.732 405.699 357.012 403.359 357.012ZM403.359 357.972C404.943 357.972 405.843 358.32 405.843 358.98C405.843 359.64 404.943 359.988 403.359 359.988C401.775 359.988 400.887 359.64 400.887 358.98C400.887 358.32 401.775 357.972 403.359 357.972ZM403.383 350.34C401.019 350.34 399.519 351.132 399.519 352.44C399.519 353.736 401.019 354.528 403.383 354.528C405.735 354.528 407.247 353.736 407.247 352.44C407.247 351.132 405.735 350.34 403.383 350.34ZM403.383 351.312C404.991 351.312 405.963 351.72 405.963 352.44C405.963 353.148 404.991 353.556 403.383 353.556C401.775 353.556 400.791 353.148 400.791 352.44C400.791 351.72 401.775 351.312 403.383 351.312Z" fill="#666666"/>
<mask id="path-47-inside-5_1422_29827" fill="white">
<path fill-rule="evenodd" clip-rule="evenodd" d="M653.828 310.828C652.266 309.266 649.734 309.266 648.172 310.828L643 316H596C592.134 316 589 319.134 589 323V369C589 372.866 592.134 376 596 376H707C710.866 376 714 372.866 714 369V323C714 319.134 710.866 316 707 316H659L653.828 310.828Z"/>
</mask>
<path fill-rule="evenodd" clip-rule="evenodd" d="M653.828 310.828C652.266 309.266 649.734 309.266 648.172 310.828L643 316H596C592.134 316 589 319.134 589 323V369C589 372.866 592.134 376 596 376H707C710.866 376 714 372.866 714 369V323C714 319.134 710.866 316 707 316H659L653.828 310.828Z" fill="white"/>
<path d="M648.172 310.828L648.879 311.536V311.536L648.172 310.828ZM653.828 310.828L654.536 310.121V310.121L653.828 310.828ZM643 316V317H643.414L643.707 316.707L643 316ZM659 316L658.293 316.707L658.586 317H659V316ZM648.879 311.536C650.05 310.364 651.95 310.364 653.121 311.536L654.536 310.121C652.583 308.169 649.417 308.169 647.464 310.121L648.879 311.536ZM643.707 316.707L648.879 311.536L647.464 310.121L642.293 315.293L643.707 316.707ZM596 317H643V315H596V317ZM590 323C590 319.686 592.686 317 596 317V315C591.582 315 588 318.582 588 323H590ZM590 369V323H588V369H590ZM596 375C592.686 375 590 372.314 590 369H588C588 373.418 591.582 377 596 377V375ZM707 375H596V377H707V375ZM713 369C713 372.314 710.314 375 707 375V377C711.418 377 715 373.418 715 369H713ZM713 323V369H715V323H713ZM707 317C710.314 317 713 319.686 713 323H715C715 318.582 711.418 315 707 315V317ZM659 317H707V315H659V317ZM653.121 311.536L658.293 316.707L659.707 315.293L654.536 310.121L653.121 311.536Z" fill="#EEEEEE" mask="url(#path-47-inside-5_1422_29827)"/>
<path d="M640.38 335.52C640.38 334.536 641.1 333.888 642.048 333.888C642.996 333.888 643.728 334.536 643.728 335.52C643.728 336.516 642.996 337.164 642.048 337.164C641.1 337.164 640.38 336.516 640.38 335.52ZM644.94 335.52C644.94 333.936 643.692 332.82 642.048 332.82C640.416 332.82 639.168 333.936 639.168 335.52C639.168 337.104 640.416 338.232 642.048 338.232C643.692 338.232 644.94 337.104 644.94 335.52ZM641.88 339.216H640.632V342.72H647.928V341.712H641.88V339.216ZM647.496 335.304V332.088H646.26V340.032H647.496V336.324H649.032V335.304H647.496ZM655.597 334.992V336.012H657.565V340.02H658.801V332.1H657.565V334.992H655.597ZM656.269 337.524C654.649 336.96 653.725 335.604 653.725 334.272V333.9H655.981V332.904H650.185V333.9H652.477V334.272C652.477 335.736 651.493 337.164 649.813 337.752L650.449 338.724C651.733 338.28 652.645 337.332 653.125 336.156C653.581 337.224 654.457 338.076 655.657 338.484L656.269 337.524ZM653.017 341.712V339.336H651.781V342.72H659.077V341.712H653.017ZM660.95 344.4C662.186 343.932 662.918 342.96 662.918 341.7C662.918 340.776 662.522 340.212 661.85 340.212C661.322 340.212 660.89 340.56 660.89 341.1C660.89 341.676 661.322 341.988 661.814 341.988C661.862 341.988 661.898 341.988 661.946 341.976C661.946 342.672 661.466 343.284 660.638 343.62L660.95 344.4ZM634.458 352.992V354.012H636.426V358.02H637.662V350.1H636.426V352.992H634.458ZM635.13 355.524C633.51 354.96 632.586 353.604 632.586 352.272V351.9H634.842V350.904H629.046V351.9H631.338V352.272C631.338 353.736 630.354 355.164 628.674 355.752L629.31 356.724C630.594 356.28 631.506 355.332 631.986 354.156C632.442 355.224 633.318 356.076 634.518 356.484L635.13 355.524ZM631.878 359.712V357.336H630.642V360.72H637.938V359.712H631.878ZM642.547 357.792H647.239V359.808H642.547V357.792ZM641.335 360.792H648.451V356.808H641.335V360.792ZM645.163 353.988C645.223 353.772 645.259 353.532 645.259 353.28C645.259 353.028 645.223 352.788 645.163 352.572H647.215V353.988H645.163ZM642.439 354.84C641.491 354.84 640.795 354.216 640.795 353.28C640.795 352.344 641.491 351.72 642.439 351.72C643.387 351.72 644.083 352.344 644.083 353.28C644.083 354.216 643.387 354.84 642.439 354.84ZM647.215 350.088V351.564H644.599C644.095 351.012 643.327 350.688 642.439 350.688C640.831 350.688 639.619 351.756 639.619 353.28C639.619 354.804 640.831 355.872 642.439 355.872C643.327 355.872 644.107 355.536 644.611 354.984H647.215V356.28H648.451V350.088H647.215ZM658.004 352.776V353.988H655.748V352.776H658.004ZM654.536 354.912H651.98V353.328H654.536V354.912ZM655.748 354.996H658.004V356.616H659.24V350.088H658.004V351.768H655.748V350.748H654.536V352.356H651.98V350.748H650.756V355.896H655.748V354.996ZM655.628 359.964C654.092 359.964 653.216 359.58 653.216 358.872C653.216 358.164 654.092 357.78 655.628 357.78C657.164 357.78 658.052 358.164 658.052 358.872C658.052 359.58 657.164 359.964 655.628 359.964ZM655.628 356.82C653.372 356.82 651.98 357.588 651.98 358.872C651.98 360.168 653.372 360.924 655.628 360.924C657.896 360.924 659.288 360.168 659.288 358.872C659.288 357.588 657.896 356.82 655.628 356.82ZM672.175 353.256H665.947V351.456H672.103V350.46H664.723V354.252H672.175V353.256ZM668.371 359.964C666.787 359.964 665.899 359.616 665.899 358.944C665.899 358.284 666.787 357.924 668.371 357.924C669.955 357.924 670.855 358.284 670.855 358.944C670.855 359.616 669.955 359.964 668.371 359.964ZM668.371 356.976C666.055 356.976 664.639 357.696 664.639 358.944C664.639 360.204 666.055 360.924 668.371 360.924C670.699 360.924 672.103 360.204 672.103 358.944C672.103 357.696 670.699 356.976 668.371 356.976ZM663.511 355.152V356.172H673.303V355.152H663.511Z" fill="#666666"/>
<mask id="path-50-inside-6_1422_29827" fill="white">
<path fill-rule="evenodd" clip-rule="evenodd" d="M519.828 310.828C518.266 309.266 515.734 309.266 514.172 310.828L509 316H460C456.134 316 453 319.134 453 323V369C453 372.866 456.134 376 460 376H574C577.866 376 581 372.866 581 369V323C581 319.134 577.866 316 574 316H525L519.828 310.828Z"/>
</mask>
<path fill-rule="evenodd" clip-rule="evenodd" d="M519.828 310.828C518.266 309.266 515.734 309.266 514.172 310.828L509 316H460C456.134 316 453 319.134 453 323V369C453 372.866 456.134 376 460 376H574C577.866 376 581 372.866 581 369V323C581 319.134 577.866 316 574 316H525L519.828 310.828Z" fill="white"/>
<path d="M514.172 310.828L514.879 311.536V311.536L514.172 310.828ZM519.828 310.828L519.121 311.536V311.536L519.828 310.828ZM509 316V317H509.414L509.707 316.707L509 316ZM525 316L524.293 316.707L524.586 317H525V316ZM514.879 311.536C516.05 310.364 517.95 310.364 519.121 311.536L520.536 310.121C518.583 308.169 515.417 308.169 513.464 310.121L514.879 311.536ZM509.707 316.707L514.879 311.536L513.464 310.121L508.293 315.293L509.707 316.707ZM460 317H509V315H460V317ZM454 323C454 319.686 456.686 317 460 317V315C455.582 315 452 318.582 452 323H454ZM454 369V323H452V369H454ZM460 375C456.686 375 454 372.314 454 369H452C452 373.418 455.582 377 460 377V375ZM574 375H460V377H574V375ZM580 369C580 372.314 577.314 375 574 375V377C578.418 377 582 373.418 582 369H580ZM580 323V369H582V323H580ZM574 317C577.314 317 580 319.686 580 323H582C582 318.582 578.418 315 574 315V317ZM525 317H574V315H525V317ZM519.121 311.536L524.293 316.707L525.707 315.293L520.536 310.121L519.121 311.536Z" fill="#EEEEEE" mask="url(#path-50-inside-6_1422_29827)"/>
<path d="M496.355 336.396C496.655 335.28 496.655 334.38 496.655 333.516V332.604H489.215V333.6H495.431C495.431 334.416 495.419 335.196 495.143 336.264L496.355 336.396ZM492.935 341.976C491.327 341.976 490.343 341.58 490.343 340.896C490.343 340.224 491.327 339.828 492.935 339.828C494.531 339.828 495.491 340.224 495.491 340.896C495.491 341.58 494.531 341.976 492.935 341.976ZM492.935 338.88C490.595 338.88 489.119 339.648 489.119 340.896C489.119 342.156 490.595 342.924 492.935 342.924C495.239 342.924 496.727 342.156 496.727 340.896C496.727 339.648 495.239 338.88 492.935 338.88ZM493.175 337.044V335.052H491.927V337.044H488.087V338.04H497.855V337.044H493.175ZM506.208 341.796H501.312V340.536H506.208V341.796ZM506.208 339.576H501.312V338.28H500.088V342.792H507.444V338.28H506.208V339.576ZM507.192 336.42C507.456 335.136 507.456 334.224 507.456 333.384V332.556H500.1V333.552H506.244C506.244 334.344 506.22 335.232 505.968 336.42H498.864V337.428H508.68V336.42H507.192ZM513.889 336.648H511.249V333.876H513.889V336.648ZM515.101 332.892H510.025V337.632H515.101V332.892ZM514.621 341.952C513.109 341.952 512.233 341.568 512.233 340.86C512.233 340.14 513.109 339.756 514.621 339.756C516.133 339.756 517.009 340.14 517.009 340.86C517.009 341.568 516.133 341.952 514.621 341.952ZM514.621 338.772C512.401 338.772 511.009 339.552 511.009 340.86C511.009 342.156 512.401 342.936 514.621 342.936C516.853 342.936 518.233 342.156 518.233 340.86C518.233 339.552 516.853 338.772 514.621 338.772ZM518.113 334.668V332.088H516.877V338.436H518.113V335.688H519.649V334.668H518.113ZM524.627 337.224H528.947V338.244H524.627V337.224ZM524.735 340.956H529.631V342H523.535V333.6H529.463V334.644H524.735V340.956ZM533.772 342.096C533.132 342.096 532.52 342 531.936 341.808C531.352 341.608 530.892 341.352 530.556 341.04L531 340.104C531.32 340.384 531.728 340.616 532.224 340.8C532.72 340.984 533.236 341.076 533.772 341.076C534.26 341.076 534.656 341.02 534.96 340.908C535.264 340.796 535.488 340.644 535.632 340.452C535.776 340.252 535.848 340.028 535.848 339.78C535.848 339.492 535.752 339.26 535.56 339.084C535.376 338.908 535.132 338.768 534.828 338.664C534.532 338.552 534.204 338.456 533.844 338.376C533.484 338.296 533.12 338.204 532.752 338.1C532.392 337.988 532.06 337.848 531.756 337.68C531.46 337.512 531.22 337.288 531.036 337.008C530.852 336.72 530.76 336.352 530.76 335.904C530.76 335.472 530.872 335.076 531.096 334.716C531.328 334.348 531.68 334.056 532.152 333.84C532.632 333.616 533.24 333.504 533.976 333.504C534.464 333.504 534.948 333.568 535.428 333.696C535.908 333.824 536.324 334.008 536.676 334.248L536.28 335.208C535.92 334.968 535.54 334.796 535.14 334.692C534.74 334.58 534.352 334.524 533.976 334.524C533.504 334.524 533.116 334.584 532.812 334.704C532.508 334.824 532.284 334.984 532.14 335.184C532.004 335.384 531.936 335.608 531.936 335.856C531.936 336.152 532.028 336.388 532.212 336.564C532.404 336.74 532.648 336.88 532.944 336.984C533.248 337.088 533.58 337.184 533.94 337.272C534.3 337.352 534.66 337.444 535.02 337.548C535.388 337.652 535.72 337.788 536.016 337.956C536.32 338.124 536.564 338.348 536.748 338.628C536.932 338.908 537.024 339.268 537.024 339.708C537.024 340.132 536.908 340.528 536.676 340.896C536.444 341.256 536.084 341.548 535.596 341.772C535.116 341.988 534.508 342.096 533.772 342.096ZM542.32 342.096C541.672 342.096 541.076 341.992 540.532 341.784C539.988 341.568 539.516 341.268 539.116 340.884C538.716 340.492 538.404 340.036 538.18 339.516C537.956 338.996 537.844 338.424 537.844 337.8C537.844 337.176 537.956 336.604 538.18 336.084C538.404 335.564 538.716 335.112 539.116 334.728C539.524 334.336 540 334.036 540.544 333.828C541.088 333.612 541.688 333.504 542.344 333.504C543.008 333.504 543.616 333.612 544.168 333.828C544.72 334.044 545.188 334.368 545.572 334.8L544.828 335.544C544.484 335.208 544.108 334.964 543.7 334.812C543.3 334.652 542.864 334.572 542.392 334.572C541.912 334.572 541.464 334.652 541.048 334.812C540.64 334.972 540.284 335.196 539.98 335.484C539.684 335.772 539.452 336.116 539.284 336.516C539.124 336.908 539.044 337.336 539.044 337.8C539.044 338.256 539.124 338.684 539.284 339.084C539.452 339.476 539.684 339.82 539.98 340.116C540.284 340.404 540.64 340.628 541.048 340.788C541.456 340.948 541.9 341.028 542.38 341.028C542.828 341.028 543.256 340.96 543.664 340.824C544.08 340.68 544.464 340.444 544.816 340.116L545.5 341.028C545.084 341.38 544.596 341.648 544.036 341.832C543.484 342.008 542.912 342.096 542.32 342.096ZM544.348 340.872V337.752H545.5V341.028L544.348 340.872ZM512.422 354.732C512.686 353.328 512.686 352.26 512.686 351.528V350.904H507.238V351.912H511.474C511.462 352.584 511.426 353.436 511.21 354.6L512.422 354.732ZM513.322 355.272C512.254 355.44 511.09 355.512 509.962 355.56V353.376H508.738V355.596C507.97 355.62 507.226 355.62 506.578 355.62L506.71 356.628C508.594 356.628 511.15 356.568 513.406 356.172L513.322 355.272ZM509.458 357.504H508.21V360.72H515.578V359.712H509.458V357.504ZM515.23 353.52V350.088H513.982V358.224H515.23V354.54H516.67V353.52H515.23ZM519.347 355.068H523.127V351.048H518.075V352.056H521.879V354.072H518.099V358.368H519.023C520.931 358.368 522.551 358.308 524.411 357.984L524.279 356.976C522.563 357.252 521.063 357.336 519.347 357.348V355.068ZM525.179 350.064V360.948H526.427V350.064H525.179Z" fill="#666666"/>
<mask id="path-53-inside-7_1422_29827" fill="white">
<path fill-rule="evenodd" clip-rule="evenodd" d="M771.828 310.828C770.266 309.266 767.734 309.266 766.172 310.828L761 316H726C722.134 316 719 319.134 719 323V369C719 372.866 722.134 376 726 376H812C815.866 376 819 372.866 819 369V323C819 319.134 815.866 316 812 316H777L771.828 310.828Z"/>
</mask>
<path fill-rule="evenodd" clip-rule="evenodd" d="M771.828 310.828C770.266 309.266 767.734 309.266 766.172 310.828L761 316H726C722.134 316 719 319.134 719 323V369C719 372.866 722.134 376 726 376H812C815.866 376 819 372.866 819 369V323C819 319.134 815.866 316 812 316H777L771.828 310.828Z" fill="white"/>
<path d="M766.172 310.828L766.879 311.536V311.536L766.172 310.828ZM771.828 310.828L772.536 310.121V310.121L771.828 310.828ZM761 316V317H761.414L761.707 316.707L761 316ZM777 316L776.293 316.707L776.586 317H777V316ZM766.879 311.536C768.05 310.364 769.95 310.364 771.121 311.536L772.536 310.121C770.583 308.169 767.417 308.169 765.464 310.121L766.879 311.536ZM761.707 316.707L766.879 311.536L765.464 310.121L760.293 315.293L761.707 316.707ZM726 317H761V315H726V317ZM720 323C720 319.686 722.686 317 726 317V315C721.582 315 718 318.582 718 323H720ZM720 369V323H718V369H720ZM726 375C722.686 375 720 372.314 720 369H718C718 373.418 721.582 377 726 377V375ZM812 375H726V377H812V375ZM818 369C818 372.314 815.314 375 812 375V377C816.418 377 820 373.418 820 369H818ZM818 323V369H820V323H818ZM812 317C815.314 317 818 319.686 818 323H820C820 318.582 816.418 315 812 315V317ZM777 317H812V315H777V317ZM771.121 311.536L776.293 316.707L777.707 315.293L772.536 310.121L771.121 311.536Z" fill="#EEEEEE" mask="url(#path-53-inside-7_1422_29827)"/>
<path d="M735.702 332.664V333.672H739.278C739.242 334.02 739.158 334.344 739.05 334.656L735.162 334.812L735.342 335.808L738.546 335.568C737.922 336.42 736.83 337.104 735.186 337.584L735.666 338.556C739.11 337.512 740.586 335.532 740.586 332.664H735.702ZM738.09 339.828H742.722V341.808H738.09V339.828ZM736.878 342.792H743.934V338.844H736.878V342.792ZM742.698 332.088V334.884H740.538V335.892H742.698V338.304H743.934V332.088H742.698ZM751.879 335.1H749.383V333.348H751.879V335.1ZM748.147 335.1H746.671V336.036H754.579V335.1H753.115V333.348H754.639V332.4H746.611V333.348H748.147V335.1ZM748.147 341.088H754.315V338.568H746.899V339.48H753.103V340.236H746.923V342.828H754.627V341.904H748.147V341.088ZM745.735 336.792V337.776H755.551V336.792H745.735ZM758.192 337.08H761.9V333.048H756.944V334.056H760.676V336.084H756.968V340.368H757.856C759.86 340.368 761.312 340.296 762.98 339.996L762.848 338.988C761.324 339.264 759.968 339.336 758.192 339.348V337.08ZM766.616 336.3H764.948V332.064H763.7V342.936H764.948V337.332H766.616V336.3ZM774.993 332.076V342.948H776.241V332.076H774.993ZM770.469 332.88C768.861 332.88 767.685 334.368 767.685 336.696C767.685 339.048 768.861 340.524 770.469 340.524C772.089 340.524 773.265 339.048 773.265 336.696C773.265 334.368 772.089 332.88 770.469 332.88ZM770.469 333.996C771.417 333.996 772.077 335.016 772.077 336.696C772.077 338.4 771.417 339.42 770.469 339.42C769.533 339.42 768.873 338.4 768.873 336.696C768.873 335.016 769.533 333.996 770.469 333.996ZM779.446 335.484C779.446 334.488 780.154 333.852 781.09 333.852C782.014 333.852 782.722 334.488 782.722 335.484C782.722 336.48 782.014 337.14 781.09 337.14C780.154 337.14 779.446 336.48 779.446 335.484ZM785.854 336.024V340.056H787.09V332.1H785.854V335.016H783.862C783.658 333.696 782.53 332.772 781.09 332.772C779.482 332.772 778.258 333.912 778.258 335.484C778.258 337.08 779.482 338.208 781.09 338.208C782.506 338.208 783.61 337.332 783.85 336.024H785.854ZM781.306 341.712V339.252H780.07V342.72H787.366V341.712H781.306ZM798.299 337.38C796.163 336.996 794.423 335.328 794.423 333.6V332.784H793.115V333.6C793.115 335.316 791.375 336.984 789.239 337.38L789.767 338.4C791.531 338.04 793.055 336.912 793.763 335.424C794.471 336.912 795.995 338.04 797.759 338.4L798.299 337.38ZM788.903 340.512V341.532H798.719V340.512H788.903ZM800.028 344.4C801.264 343.932 801.996 342.96 801.996 341.7C801.996 340.776 801.6 340.212 800.928 340.212C800.4 340.212 799.968 340.56 799.968 341.1C799.968 341.676 800.4 341.988 800.892 341.988C800.94 341.988 800.976 341.988 801.024 341.976C801.024 342.672 800.544 343.284 799.716 343.62L800.028 344.4ZM759.861 354.396C760.161 353.28 760.161 352.38 760.161 351.516V350.604H752.721V351.6H758.937C758.937 352.416 758.925 353.196 758.649 354.264L759.861 354.396ZM756.441 359.976C754.833 359.976 753.849 359.58 753.849 358.896C753.849 358.224 754.833 357.828 756.441 357.828C758.037 357.828 758.997 358.224 758.997 358.896C758.997 359.58 758.037 359.976 756.441 359.976ZM756.441 356.88C754.101 356.88 752.625 357.648 752.625 358.896C752.625 360.156 754.101 360.924 756.441 360.924C758.745 360.924 760.233 360.156 760.233 358.896C760.233 357.648 758.745 356.88 756.441 356.88ZM756.681 355.044V353.052H755.433V355.044H751.593V356.04H761.361V355.044H756.681ZM766.366 350.988H765.13V352.764C765.13 354.852 764.002 356.928 762.274 357.708L763.006 358.74C764.314 358.104 765.274 356.82 765.766 355.248C766.258 356.712 767.206 357.912 768.454 358.5L769.174 357.516C767.47 356.748 766.366 354.756 766.366 352.764V350.988ZM770.038 350.076V360.948H771.286V350.076H770.038ZM784.28 353.256H778.052V351.456H784.208V350.46H776.828V354.252H784.28V353.256ZM780.476 359.964C778.892 359.964 778.004 359.616 778.004 358.944C778.004 358.284 778.892 357.924 780.476 357.924C782.06 357.924 782.96 358.284 782.96 358.944C782.96 359.616 782.06 359.964 780.476 359.964ZM780.476 356.976C778.16 356.976 776.744 357.696 776.744 358.944C776.744 360.204 778.16 360.924 780.476 360.924C782.804 360.924 784.208 360.204 784.208 358.944C784.208 357.696 782.804 356.976 780.476 356.976ZM775.616 355.152V356.172H785.408V355.152H775.616Z" fill="#666666"/>
<rect x="348" y="394" width="471" height="48" rx="7" fill="#F5F5F5"/>
<path d="M514.172 388.828C515.734 387.266 518.266 387.266 519.828 388.828L527 396H507L514.172 388.828Z" fill="#F5F5F5"/>
<path d="M395.172 388.828C396.734 387.266 399.266 387.266 400.828 388.828L408 396H388L395.172 388.828Z" fill="#F5F5F5"/>
<path d="M648.172 388.828C649.734 387.266 652.266 387.266 653.828 388.828L661 396H641L648.172 388.828Z" fill="#F5F5F5"/>
<path d="M766.172 388.828C767.734 387.266 770.266 387.266 771.828 388.828L779 396H759L766.172 388.828Z" fill="#F5F5F5"/>
<path d="M557.565 413.076V423.948H558.813V413.076H557.565ZM550.473 413.976V421.368H555.681V413.976H554.445V416.736H551.697V413.976H550.473ZM551.697 417.72H554.445V420.372H551.697V417.72ZM563.986 415.296H565.798V414.276H560.83V415.296H562.786V415.896C562.786 418.044 562.102 419.928 560.53 420.84L561.286 421.764C562.354 421.128 563.05 420.024 563.422 418.644C563.818 419.844 564.49 420.828 565.522 421.392L566.242 420.444C564.67 419.628 563.986 417.852 563.986 415.896V415.296ZM568.81 413.076V417.36H567.622V413.28H566.458V423.42H567.622V418.38H568.81V423.924H569.986V413.076H568.81ZM578.843 416.952H573.887V414.648H578.843V416.952ZM580.067 413.664H572.663V417.948H580.067V413.664ZM581.291 419.28H571.463V420.276H575.723V423.924H576.959V420.276H581.291V419.28ZM586.57 418.068H590.35V414.048H585.298V415.056H589.102V417.072H585.322V421.368H586.246C588.154 421.368 589.774 421.308 591.634 420.984L591.502 419.976C589.786 420.252 588.286 420.336 586.57 420.348V418.068ZM592.402 413.064V423.948H593.65V413.064H592.402ZM604.895 418.38C602.759 417.996 601.019 416.328 601.019 414.6V413.784H599.711V414.6C599.711 416.316 597.971 417.984 595.835 418.38L596.363 419.4C598.127 419.04 599.651 417.912 600.359 416.424C601.067 417.912 602.591 419.04 604.355 419.4L604.895 418.38ZM595.499 421.512V422.532H605.315V421.512H595.499ZM607.128 417.36L607.284 418.368L613.68 418.044C613.62 418.836 613.5 419.688 613.272 420.66L614.496 420.768C614.976 418.488 614.976 417 614.976 415.428V414.12H607.428V415.116H613.764V415.428C613.764 415.98 613.764 416.532 613.74 417.108L607.128 417.36ZM606.288 421.5V422.52H616.08V421.5H606.288Z" fill="#666666"/>
<rect x="719" y="218" width="100" height="80" rx="7" fill="#F6F7FE"/>
<rect x="586" y="218" width="128" height="80" rx="7" fill="#F6F7FE"/>
<rect x="453" y="218" width="128" height="80" rx="7" fill="#F6F7FE"/>
<rect x="348" y="218" width="100" height="80" rx="7" fill="#F6F7FE"/>
<path d="M730.807 244.664V245.672H734.383C734.347 246.02 734.263 246.344 734.155 246.656L730.267 246.812L730.447 247.808L733.651 247.568C733.027 248.42 731.935 249.104 730.291 249.584L730.771 250.556C734.215 249.512 735.691 247.532 735.691 244.664H730.807ZM733.195 251.828H737.827V253.808H733.195V251.828ZM731.983 254.792H739.039V250.844H731.983V254.792ZM737.803 244.088V246.884H735.643V247.892H737.803V250.304H739.039V244.088H737.803ZM746.984 247.1H744.488V245.348H746.984V247.1ZM743.252 247.1H741.776V248.036H749.684V247.1H748.22V245.348H749.744V244.4H741.716V245.348H743.252V247.1ZM743.252 253.088H749.42V250.568H742.004V251.48H748.208V252.236H742.028V254.828H749.732V253.904H743.252V253.088ZM740.84 248.792V249.776H750.656V248.792H740.84ZM753.297 249.08H757.005V245.048H752.049V246.056H755.781V248.084H752.073V252.368H752.961C754.965 252.368 756.417 252.296 758.085 251.996L757.953 250.988C756.429 251.264 755.073 251.336 753.297 251.348V249.08ZM761.721 248.3H760.053V244.064H758.805V254.936H760.053V249.332H761.721V248.3ZM770.098 244.076V254.948H771.346V244.076H770.098ZM765.574 244.88C763.966 244.88 762.79 246.368 762.79 248.696C762.79 251.048 763.966 252.524 765.574 252.524C767.194 252.524 768.37 251.048 768.37 248.696C768.37 246.368 767.194 244.88 765.574 244.88ZM765.574 245.996C766.522 245.996 767.182 247.016 767.182 248.696C767.182 250.4 766.522 251.42 765.574 251.42C764.638 251.42 763.978 250.4 763.978 248.696C763.978 247.016 764.638 245.996 765.574 245.996ZM774.551 247.484C774.551 246.488 775.259 245.852 776.195 245.852C777.119 245.852 777.827 246.488 777.827 247.484C777.827 248.48 777.119 249.14 776.195 249.14C775.259 249.14 774.551 248.48 774.551 247.484ZM780.959 248.024V252.056H782.195V244.1H780.959V247.016H778.967C778.763 245.696 777.635 244.772 776.195 244.772C774.587 244.772 773.363 245.912 773.363 247.484C773.363 249.08 774.587 250.208 776.195 250.208C777.611 250.208 778.715 249.332 778.955 248.024H780.959ZM776.411 253.712V251.252H775.175V254.72H782.471V253.712H776.411ZM793.404 249.38C791.268 248.996 789.528 247.328 789.528 245.6V244.784H788.22V245.6C788.22 247.316 786.48 248.984 784.344 249.38L784.872 250.4C786.636 250.04 788.16 248.912 788.868 247.424C789.576 248.912 791.1 250.04 792.864 250.4L793.404 249.38ZM784.008 252.512V253.532H793.824V252.512H784.008ZM801.398 248.684C799.958 248.924 798.722 248.972 796.634 248.972V247.796H800.282V246.824H796.634V245.708H800.594V244.712H795.41V249.956H796.31C798.638 249.956 799.97 249.92 801.518 249.668L801.398 248.684ZM797.846 252.032H802.514V253.808H797.846V252.032ZM796.634 254.792H803.726V251.048H796.634V254.792ZM802.49 244.088V250.544H803.726V244.088H802.49ZM805.923 256.4C807.159 255.932 807.891 254.96 807.891 253.7C807.891 252.776 807.495 252.212 806.823 252.212C806.295 252.212 805.863 252.56 805.863 253.1C805.863 253.676 806.295 253.988 806.787 253.988C806.835 253.988 806.871 253.988 806.919 253.976C806.907 254.684 806.427 255.284 805.611 255.62L805.923 256.4ZM741.975 271.784H737.391V270.644H741.975V271.784ZM741.975 269.672H737.391V268.52H736.167V272.78H743.211V268.52H741.975V269.672ZM738.507 266.648H735.951V265.124H738.507V266.648ZM741.975 262.076V264.668H739.719V262.64H738.507V264.164H735.951V262.628H734.727V267.656H739.719V265.676H741.975V268.028H743.211V262.088L741.975 262.076ZM752.392 265.952H747.436V263.648H752.392V265.952ZM753.616 262.664H746.212V266.948H753.616V262.664ZM754.84 268.28H745.012V269.276H749.272V272.924H750.508V269.276H754.84V268.28ZM762.413 266.684C760.973 266.924 759.737 266.972 757.649 266.972V265.796H761.297V264.824H757.649V263.708H761.609V262.712H756.425V267.956H757.325C759.653 267.956 760.985 267.92 762.533 267.668L762.413 266.684ZM758.861 270.032H763.529V271.808H758.861V270.032ZM757.649 272.792H764.741V269.048H757.649V272.792ZM763.505 262.088V268.544H764.741V262.088H763.505ZM766.938 274.4C768.174 273.932 768.906 272.96 768.906 271.7C768.906 270.776 768.51 270.212 767.838 270.212C767.31 270.212 766.878 270.56 766.878 271.1C766.878 271.676 767.31 271.988 767.802 271.988C767.85 271.988 767.886 271.988 767.934 271.976C767.922 272.684 767.442 273.284 766.626 273.62L766.938 274.4ZM772.804 262.736V263.744H776.524C776.32 265.388 774.844 266.708 772.312 267.38L772.792 268.364C775.996 267.512 777.856 265.544 777.856 262.736H772.804ZM775.132 269.648H779.608V271.796H775.132V269.648ZM773.908 272.792H780.832V268.664H773.908V272.792ZM782.368 264.596H780.832V262.076H779.596V268.196H780.832V265.616H782.368V264.596ZM786.953 262.988H785.717V264.764C785.717 266.768 784.661 268.82 782.969 269.648L783.725 270.644C784.961 270.008 785.873 268.748 786.341 267.248C786.809 268.664 787.673 269.84 788.837 270.44L789.593 269.456C787.961 268.652 786.953 266.696 786.953 264.764V262.988ZM793.241 266.384H791.549V262.088H790.313V272.924H791.549V267.404H793.241V266.384ZM800.55 266.684C799.11 266.924 797.874 266.972 795.786 266.972V265.796H799.434V264.824H795.786V263.708H799.746V262.712H794.562V267.956H795.462C797.79 267.956 799.122 267.92 800.67 267.668L800.55 266.684ZM796.998 270.032H801.666V271.808H796.998V270.032ZM795.786 272.792H802.878V269.048H795.786V272.792ZM801.642 262.088V268.544H802.878V262.088H801.642Z" fill="#283895"/>
<path d="M600.493 254.096C599.845 254.096 599.249 253.992 598.705 253.784C598.161 253.568 597.689 253.268 597.289 252.884C596.889 252.492 596.577 252.036 596.353 251.516C596.129 250.996 596.017 250.424 596.017 249.8C596.017 249.176 596.129 248.604 596.353 248.084C596.577 247.564 596.889 247.112 597.289 246.728C597.697 246.336 598.173 246.036 598.717 245.828C599.261 245.612 599.861 245.504 600.517 245.504C601.181 245.504 601.789 245.612 602.341 245.828C602.893 246.044 603.361 246.368 603.745 246.8L603.001 247.544C602.657 247.208 602.281 246.964 601.873 246.812C601.473 246.652 601.037 246.572 600.565 246.572C600.085 246.572 599.637 246.652 599.221 246.812C598.813 246.972 598.457 247.196 598.153 247.484C597.857 247.772 597.625 248.116 597.457 248.516C597.297 248.908 597.217 249.336 597.217 249.8C597.217 250.256 597.297 250.684 597.457 251.084C597.625 251.476 597.857 251.82 598.153 252.116C598.457 252.404 598.813 252.628 599.221 252.788C599.629 252.948 600.073 253.028 600.553 253.028C601.001 253.028 601.429 252.96 601.837 252.824C602.253 252.68 602.637 252.444 602.989 252.116L603.673 253.028C603.257 253.38 602.769 253.648 602.209 253.832C601.657 254.008 601.085 254.096 600.493 254.096ZM602.521 252.872V249.752H603.673V253.028L602.521 252.872ZM605.553 254V245.096H606.705V254H605.553ZM611.379 254.072C610.739 254.072 610.171 253.932 609.675 253.652C609.179 253.372 608.787 252.988 608.499 252.5C608.211 252.004 608.067 251.444 608.067 250.82C608.067 250.188 608.211 249.628 608.499 249.14C608.787 248.652 609.179 248.272 609.675 248C610.171 247.72 610.739 247.58 611.379 247.58C612.011 247.58 612.575 247.72 613.071 248C613.575 248.272 613.967 248.652 614.247 249.14C614.535 249.62 614.679 250.18 614.679 250.82C614.679 251.452 614.535 252.012 614.247 252.5C613.967 252.988 613.575 253.372 613.071 253.652C612.575 253.932 612.011 254.072 611.379 254.072ZM611.379 253.064C611.787 253.064 612.151 252.972 612.471 252.788C612.799 252.604 613.055 252.344 613.239 252.008C613.423 251.664 613.515 251.268 613.515 250.82C613.515 250.364 613.423 249.972 613.239 249.644C613.055 249.308 612.799 249.048 612.471 248.864C612.151 248.68 611.787 248.588 611.379 248.588C610.971 248.588 610.607 248.68 610.287 248.864C609.967 249.048 609.711 249.308 609.519 249.644C609.327 249.972 609.231 250.364 609.231 250.82C609.231 251.268 609.327 251.664 609.519 252.008C609.711 252.344 609.967 252.604 610.287 252.788C610.607 252.972 610.971 253.064 611.379 253.064ZM619.394 254.072C618.85 254.072 618.358 253.952 617.918 253.712C617.486 253.464 617.142 253.1 616.886 252.62C616.638 252.14 616.514 251.54 616.514 250.82C616.514 250.1 616.642 249.5 616.898 249.02C617.162 248.54 617.51 248.18 617.942 247.94C618.382 247.7 618.866 247.58 619.394 247.58C620.018 247.58 620.57 247.716 621.05 247.988C621.53 248.26 621.91 248.64 622.19 249.128C622.47 249.608 622.61 250.172 622.61 250.82C622.61 251.468 622.47 252.036 622.19 252.524C621.91 253.012 621.53 253.392 621.05 253.664C620.57 253.936 620.018 254.072 619.394 254.072ZM616.022 254V245.096H617.174V249.332L617.054 250.808L617.126 252.284V254H616.022ZM619.298 253.064C619.706 253.064 620.07 252.972 620.39 252.788C620.718 252.604 620.974 252.344 621.158 252.008C621.35 251.664 621.446 251.268 621.446 250.82C621.446 250.364 621.35 249.972 621.158 249.644C620.974 249.308 620.718 249.048 620.39 248.864C620.07 248.68 619.706 248.588 619.298 248.588C618.898 248.588 618.534 248.68 618.206 248.864C617.886 249.048 617.63 249.308 617.438 249.644C617.254 249.972 617.162 250.364 617.162 250.82C617.162 251.268 617.254 251.664 617.438 252.008C617.63 252.344 617.886 252.604 618.206 252.788C618.534 252.972 618.898 253.064 619.298 253.064ZM627.841 254V252.656L627.781 252.404V250.112C627.781 249.624 627.637 249.248 627.349 248.984C627.069 248.712 626.645 248.576 626.077 248.576C625.701 248.576 625.333 248.64 624.973 248.768C624.613 248.888 624.309 249.052 624.061 249.26L623.581 248.396C623.909 248.132 624.301 247.932 624.757 247.796C625.221 247.652 625.705 247.58 626.209 247.58C627.081 247.58 627.753 247.792 628.225 248.216C628.697 248.64 628.933 249.288 628.933 250.16V254H627.841ZM625.753 254.072C625.281 254.072 624.865 253.992 624.505 253.832C624.153 253.672 623.881 253.452 623.689 253.172C623.497 252.884 623.401 252.56 623.401 252.2C623.401 251.856 623.481 251.544 623.641 251.264C623.809 250.984 624.077 250.76 624.445 250.592C624.821 250.424 625.325 250.34 625.957 250.34H627.973V251.168H626.005C625.429 251.168 625.041 251.264 624.841 251.456C624.641 251.648 624.541 251.88 624.541 252.152C624.541 252.464 624.665 252.716 624.913 252.908C625.161 253.092 625.505 253.184 625.945 253.184C626.377 253.184 626.753 253.088 627.073 252.896C627.401 252.704 627.637 252.424 627.781 252.056L628.009 252.848C627.857 253.224 627.589 253.524 627.205 253.748C626.821 253.964 626.337 254.072 625.753 254.072ZM630.815 254V245.096H631.967V254H630.815ZM634.78 247.52C634.78 246.536 635.5 245.888 636.448 245.888C637.396 245.888 638.128 246.536 638.128 247.52C638.128 248.516 637.396 249.164 636.448 249.164C635.5 249.164 634.78 248.516 634.78 247.52ZM639.34 247.52C639.34 245.936 638.092 244.82 636.448 244.82C634.816 244.82 633.568 245.936 633.568 247.52C633.568 249.104 634.816 250.232 636.448 250.232C638.092 250.232 639.34 249.104 639.34 247.52ZM636.28 251.216H635.032V254.72H642.328V253.712H636.28V251.216ZM641.896 247.304V244.088H640.66V252.032H641.896V248.324H643.432V247.304H641.896ZM649.997 246.992V248.012H651.965V252.02H653.201V244.1H651.965V246.992H649.997ZM650.669 249.524C649.049 248.96 648.125 247.604 648.125 246.272V245.9H650.381V244.904H644.585V245.9H646.877V246.272C646.877 247.736 645.893 249.164 644.213 249.752L644.849 250.724C646.133 250.28 647.045 249.332 647.525 248.156C647.981 249.224 648.857 250.076 650.057 250.484L650.669 249.524ZM647.417 253.712V251.336H646.181V254.72H653.477V253.712H647.417ZM654.546 256.16H655.506L658.842 244.412H657.882L654.546 256.16ZM660.052 245.228V246.236H663.916C663.7 248.732 662.356 250.64 659.512 252.008L660.172 252.992C663.892 251.192 665.188 248.456 665.188 245.228H660.052ZM667.144 244.088V254.924H668.38V244.088H667.144ZM679.517 246.944C677.345 246.728 675.761 245.66 675.761 244.448V244.136H674.489V244.448C674.489 245.66 672.905 246.728 670.733 246.944L671.153 247.892C672.953 247.676 674.429 246.932 675.125 245.852C675.821 246.932 677.297 247.676 679.097 247.892L679.517 246.944ZM680.033 249.464V248.48H670.217V249.464H674.489V250.376H671.381V251.312H677.585V252.116H671.405V254.828H679.109V253.88H672.629V252.992H678.797V250.376H675.737V249.464H680.033ZM690.186 244.088H689.01V252.212H690.186V244.088ZM686.886 251.9H688.05V244.292H686.886V246.704H685.362V247.724H686.886V251.9ZM686.322 249.512C684.978 248.888 684.318 247.616 684.318 246.344V244.832H683.118V246.344C683.118 247.64 682.398 249.092 680.958 249.788L681.642 250.724C682.65 250.256 683.334 249.38 683.73 248.372C684.09 249.284 684.738 250.028 685.65 250.448L686.322 249.512ZM684.27 253.712V251.252H683.022V254.72H690.486V253.712H684.27ZM693.523 249.056H696.871V248.072H693.523V246.044H697.315V245.024H692.287V252.404H693.139C695.107 252.404 696.463 252.356 698.011 252.08L697.903 251.084C696.487 251.324 695.251 251.384 693.523 251.396V249.056ZM699.559 244.064V248.048H697.483V249.068H699.559V254.936H700.807V244.064H699.559ZM702.932 256.4C704.168 255.932 704.9 254.96 704.9 253.7C704.9 252.776 704.504 252.212 703.832 252.212C703.304 252.212 702.872 252.56 702.872 253.1C702.872 253.676 703.304 253.988 703.796 253.988C703.844 253.988 703.88 253.988 703.928 253.976C703.928 254.672 703.448 255.284 702.62 255.62L702.932 256.4ZM643.731 262.088H642.495V269.96H643.731V262.088ZM636.219 265.52C636.219 264.524 636.927 263.876 637.887 263.876C638.835 263.876 639.555 264.524 639.555 265.52C639.555 266.504 638.835 267.164 637.887 267.164C636.927 267.164 636.219 266.504 636.219 265.52ZM640.755 265.52C640.755 263.936 639.519 262.808 637.887 262.808C636.255 262.808 635.007 263.936 635.007 265.52C635.007 267.092 636.255 268.232 637.887 268.232C639.519 268.232 640.755 267.092 640.755 265.52ZM637.899 271.712V269.168H636.651V272.72H644.043V271.712H637.899ZM649.384 262.988H648.148V264.764C648.148 266.768 647.092 268.82 645.4 269.648L646.156 270.644C647.392 270.008 648.304 268.748 648.772 267.248C649.24 268.664 650.104 269.84 651.268 270.44L652.024 269.456C650.392 268.652 649.384 266.696 649.384 264.764V262.988ZM655.672 266.384H653.98V262.088H652.744V272.924H653.98V267.404H655.672V266.384ZM662.982 266.684C661.542 266.924 660.306 266.972 658.218 266.972V265.796H661.866V264.824H658.218V263.708H662.178V262.712H656.994V267.956H657.894C660.222 267.956 661.554 267.92 663.102 267.668L662.982 266.684ZM659.43 270.032H664.098V271.808H659.43V270.032ZM658.218 272.792H665.31V269.048H658.218V272.792ZM664.074 262.088V268.544H665.31V262.088H664.074Z" fill="#283895"/>
<path d="M483.363 249.044C481.755 248.516 480.831 247.196 480.831 245.804V244.64H479.583V245.708C479.583 247.268 478.659 248.744 476.955 249.332L477.615 250.316C478.863 249.86 479.751 248.924 480.231 247.748C480.687 248.768 481.551 249.596 482.715 250.016L483.363 249.044ZM482.031 253.952C480.519 253.952 479.643 253.58 479.643 252.884C479.643 252.212 480.519 251.828 482.031 251.828C483.543 251.828 484.419 252.212 484.419 252.884C484.419 253.58 483.543 253.952 482.031 253.952ZM482.031 250.856C479.799 250.856 478.419 251.612 478.419 252.884C478.419 254.168 479.799 254.924 482.031 254.924C484.275 254.924 485.643 254.168 485.643 252.884C485.643 251.612 484.275 250.856 482.031 250.856ZM485.523 246.764V244.076H484.287V250.592H485.523V247.784H487.059V246.764H485.523ZM494.704 247.88H495.844V250.748H497.02V244.1H495.844V246.872H494.704V244.292H493.54V250.4H494.704V247.88ZM493.288 249.056C491.884 248.504 491.176 247.316 491.176 246.116V244.748H489.976V246.116C489.976 247.352 489.244 248.708 487.792 249.368L488.44 250.316C489.484 249.86 490.192 249.02 490.588 248.024C490.996 248.888 491.668 249.608 492.628 249.98L493.288 249.056ZM493.408 253.976C491.884 253.976 490.972 253.604 490.972 252.944C490.972 252.272 491.884 251.9 493.408 251.9C494.932 251.9 495.844 252.272 495.844 252.944C495.844 253.604 494.932 253.976 493.408 253.976ZM493.408 250.952C491.152 250.952 489.736 251.696 489.736 252.944C489.736 254.18 491.152 254.924 493.408 254.924C495.664 254.924 497.08 254.18 497.08 252.944C497.08 251.696 495.664 250.952 493.408 250.952ZM504.677 245.096H502.337V243.98H501.101V245.096H498.665V246.08H504.677V245.096ZM500.381 248.48C500.381 247.844 500.921 247.448 501.713 247.448C502.517 247.448 503.057 247.844 503.057 248.48C503.057 249.116 502.517 249.512 501.713 249.512C500.921 249.512 500.381 249.116 500.381 248.48ZM504.209 248.48C504.209 247.304 503.189 246.524 501.713 246.524C500.249 246.524 499.229 247.304 499.229 248.48C499.229 249.656 500.249 250.436 501.713 250.436C503.189 250.436 504.209 249.656 504.209 248.48ZM506.393 253.82H501.725V252.872H506.393V253.82ZM506.393 251.936H501.725V250.952H500.501V254.792H507.617V250.952H506.393V251.936ZM506.381 244.076V246.512H504.749V247.52H506.381V248.636H504.725V249.644H506.381V250.52H507.617V244.076H506.381ZM515.058 249.104C513.882 249.308 512.886 249.356 511.074 249.356V247.952H514.542V244.712H509.838V245.708H513.318V247.004H509.862V250.364H510.654C512.778 250.364 513.882 250.328 515.19 250.1L515.058 249.104ZM511.074 252.308H517.17V254.948H518.406V251.3H511.074V252.308ZM517.17 244.088V245.648H515.226V246.644H517.17V247.916H515.226V248.912H517.17V250.76H518.406V244.088H517.17ZM524.011 244.988H522.775V246.764C522.775 248.768 521.719 250.82 520.027 251.648L520.783 252.644C522.019 252.008 522.931 250.748 523.399 249.248C523.867 250.664 524.731 251.84 525.895 252.44L526.651 251.456C525.019 250.652 524.011 248.696 524.011 246.764V244.988ZM530.299 248.384H528.607V244.088H527.371V254.924H528.607V249.404H530.299V248.384ZM538.376 247.952H533.42V245.648H538.376V247.952ZM539.6 244.664H532.196V248.948H539.6V244.664ZM540.824 250.28H530.996V251.276H535.256V254.924H536.492V251.276H540.824V250.28ZM551.614 249.392V248.396H550.15C550.39 247.16 550.39 246.224 550.39 245.408V244.58H543.022V245.576H549.178C549.178 246.356 549.154 247.232 548.914 248.396H541.798V249.392H546.07V251.168H542.794V252.164H549.202V254.924H550.438V251.168H547.318V249.392H551.614ZM552.923 256.4C554.159 255.932 554.891 254.96 554.891 253.7C554.891 252.776 554.495 252.212 553.823 252.212C553.295 252.212 552.863 252.56 552.863 253.1C552.863 253.676 553.295 253.988 553.787 253.988C553.835 253.988 553.871 253.988 553.919 253.976C553.919 254.672 553.439 255.284 552.611 255.62L552.923 256.4ZM471.932 264.188H474.344V263.168H468.272V264.188H470.684V265.22C470.684 267.08 469.568 269.096 467.888 269.876L468.596 270.86C469.868 270.248 470.84 268.964 471.32 267.452C471.824 268.856 472.796 270.032 474.056 270.584L474.74 269.612C473.048 268.892 471.932 267.02 471.932 265.22V264.188ZM475.604 262.088V272.924H476.852V262.088H475.604ZM487.953 265.532C485.781 265.244 484.245 264.044 484.245 262.676V262.268H482.973V262.676C482.973 264.02 481.401 265.244 479.265 265.532L479.721 266.492C481.473 266.228 482.913 265.4 483.597 264.248C484.293 265.412 485.745 266.216 487.485 266.492L487.953 265.532ZM479.805 270.368H486.081V272.936H487.317V269.372H479.805V270.368ZM484.221 267.44V265.904H482.985V267.44H478.713V268.436H488.541V267.44H484.221ZM490.042 263.228V264.236H493.834C493.582 266.732 492.154 268.64 489.502 269.996L490.186 270.944C493.726 269.156 495.07 266.372 495.07 263.228H490.042ZM499.546 266.36H497.902V262.076H496.666V272.912H497.902V267.392H499.546V266.36ZM508.991 264.968H502.823V262.292H501.587V265.964H508.991V264.968ZM505.175 271.94C503.591 271.94 502.703 271.568 502.703 270.908C502.703 270.224 503.591 269.876 505.175 269.876C506.759 269.876 507.659 270.224 507.659 270.908C507.659 271.568 506.759 271.94 505.175 271.94ZM505.175 268.904C502.859 268.904 501.443 269.636 501.443 270.908C501.443 272.168 502.859 272.9 505.175 272.9C507.503 272.9 508.907 272.168 508.907 270.908C508.907 269.636 507.503 268.904 505.175 268.904ZM500.303 267.056V268.064H510.107V267.056H500.303ZM518.832 264.956V266.204H516.204V267.212H518.832V268.46H520.068V262.088H518.832V263.948H516.6C516.66 263.612 516.696 263.252 516.696 262.868H511.776V263.864H515.376C515.16 265.556 513.756 266.888 511.212 267.596L511.704 268.58C514.044 267.896 515.64 266.684 516.312 264.956H518.832ZM516.516 271.904C515.052 271.904 514.128 271.484 514.128 270.728C514.128 269.984 515.052 269.564 516.516 269.564C517.992 269.564 518.916 269.984 518.916 270.728C518.916 271.484 517.992 271.904 516.516 271.904ZM516.516 268.592C514.32 268.592 512.904 269.408 512.904 270.728C512.904 272.06 514.32 272.876 516.516 272.876C518.712 272.876 520.14 272.06 520.14 270.728C520.14 269.408 518.712 268.592 516.516 268.592ZM523.202 265.316C523.202 264.368 523.898 263.744 524.858 263.744C525.794 263.744 526.49 264.368 526.49 265.316C526.49 266.252 525.794 266.876 524.858 266.876C523.898 266.876 523.202 266.252 523.202 265.316ZM529.622 264.584V266.048H527.558C527.63 265.82 527.666 265.58 527.666 265.316C527.666 265.052 527.63 264.812 527.57 264.584H529.622ZM529.622 267.044V268.472H530.858V262.076H529.622V263.576H527.006C526.502 263.036 525.746 262.7 524.858 262.7C523.238 262.7 522.026 263.78 522.026 265.316C522.026 266.84 523.238 267.92 524.858 267.92C525.734 267.92 526.502 267.596 527.006 267.044H529.622ZM527.246 271.952C525.71 271.952 524.81 271.556 524.81 270.812C524.81 270.092 525.71 269.684 527.246 269.684C528.794 269.684 529.682 270.092 529.682 270.812C529.682 271.556 528.794 271.952 527.246 271.952ZM527.246 268.712C524.99 268.712 523.598 269.492 523.598 270.812C523.598 272.144 524.99 272.924 527.246 272.924C529.502 272.924 530.906 272.144 530.906 270.812C530.906 269.492 529.502 268.712 527.246 268.712ZM536.463 262.988H535.227V264.764C535.227 266.768 534.171 268.82 532.479 269.648L533.235 270.644C534.471 270.008 535.383 268.748 535.851 267.248C536.319 268.664 537.183 269.84 538.347 270.44L539.103 269.456C537.471 268.652 536.463 266.696 536.463 264.764V262.988ZM542.751 266.384H541.059V262.088H539.823V272.924H541.059V267.404H542.751V266.384ZM550.828 265.952H545.872V263.648H550.828V265.952ZM552.052 262.664H544.648V266.948H552.052V262.664ZM553.276 268.28H543.448V269.276H547.708V272.924H548.944V269.276H553.276V268.28ZM564.065 267.392V266.396H562.601C562.841 265.16 562.841 264.224 562.841 263.408V262.58H555.473V263.576H561.629C561.629 264.356 561.605 265.232 561.365 266.396H554.249V267.392H558.521V269.168H555.245V270.164H561.653V272.924H562.889V269.168H559.769V267.392H564.065Z" fill="#283895"/>
<path d="M369.616 246.188H372.028V245.168H365.956V246.188H368.368V247.22C368.368 249.08 367.252 251.096 365.572 251.876L366.28 252.86C367.552 252.248 368.524 250.964 369.004 249.452C369.508 250.856 370.48 252.032 371.74 252.584L372.424 251.612C370.732 250.892 369.616 249.02 369.616 247.22V246.188ZM373.288 244.088V254.924H374.536V244.088H373.288ZM385.637 247.532C383.465 247.244 381.929 246.044 381.929 244.676V244.268H380.657V244.676C380.657 246.02 379.085 247.244 376.949 247.532L377.405 248.492C379.157 248.228 380.597 247.4 381.281 246.248C381.977 247.412 383.429 248.216 385.169 248.492L385.637 247.532ZM377.489 252.368H383.765V254.936H385.001V251.372H377.489V252.368ZM381.905 249.44V247.892H380.669V249.44H376.397V250.436H386.225V249.44H381.905ZM387.726 245.228V246.236H391.518C391.266 248.732 389.838 250.64 387.186 251.996L387.87 252.944C391.41 251.156 392.754 248.372 392.754 245.228H387.726ZM397.23 248.36H395.586V244.076H394.35V254.912H395.586V249.392H397.23V248.36ZM406.675 246.968H400.507V244.292H399.271V247.964H406.675V246.968ZM402.859 253.94C401.275 253.94 400.387 253.568 400.387 252.908C400.387 252.224 401.275 251.876 402.859 251.876C404.443 251.876 405.343 252.224 405.343 252.908C405.343 253.568 404.443 253.94 402.859 253.94ZM402.859 250.904C400.543 250.904 399.127 251.636 399.127 252.908C399.127 254.168 400.543 254.9 402.859 254.9C405.187 254.9 406.591 254.168 406.591 252.908C406.591 251.636 405.187 250.904 402.859 250.904ZM397.987 249.056V250.064H407.791V249.056H397.987ZM416.516 246.956V248.204H413.888V249.212H416.516V250.46H417.752V244.088H416.516V245.948H414.284C414.344 245.612 414.38 245.252 414.38 244.868H409.46V245.864H413.06C412.844 247.556 411.44 248.888 408.896 249.596L409.388 250.58C411.728 249.896 413.324 248.684 413.996 246.956H416.516ZM414.2 253.904C412.736 253.904 411.812 253.484 411.812 252.728C411.812 251.984 412.736 251.564 414.2 251.564C415.676 251.564 416.6 251.984 416.6 252.728C416.6 253.484 415.676 253.904 414.2 253.904ZM414.2 250.592C412.004 250.592 410.588 251.408 410.588 252.728C410.588 254.06 412.004 254.876 414.2 254.876C416.396 254.876 417.824 254.06 417.824 252.728C417.824 251.408 416.396 250.592 414.2 250.592ZM420.885 247.316C420.885 246.368 421.581 245.744 422.541 245.744C423.477 245.744 424.173 246.368 424.173 247.316C424.173 248.252 423.477 248.876 422.541 248.876C421.581 248.876 420.885 248.252 420.885 247.316ZM427.305 246.584V248.048H425.241C425.313 247.82 425.349 247.58 425.349 247.316C425.349 247.052 425.313 246.812 425.253 246.584H427.305ZM427.305 249.044V250.472H428.541V244.076H427.305V245.576H424.689C424.185 245.036 423.429 244.7 422.541 244.7C420.921 244.7 419.709 245.78 419.709 247.316C419.709 248.84 420.921 249.92 422.541 249.92C423.417 249.92 424.185 249.596 424.689 249.044H427.305ZM424.929 253.952C423.393 253.952 422.493 253.556 422.493 252.812C422.493 252.092 423.393 251.684 424.929 251.684C426.477 251.684 427.365 252.092 427.365 252.812C427.365 253.556 426.477 253.952 424.929 253.952ZM424.929 250.712C422.673 250.712 421.281 251.492 421.281 252.812C421.281 254.144 422.673 254.924 424.929 254.924C427.185 254.924 428.589 254.144 428.589 252.812C428.589 251.492 427.185 250.712 424.929 250.712ZM385.595 262.988H384.359V264.764C384.359 266.768 383.303 268.82 381.611 269.648L382.367 270.644C383.603 270.008 384.515 268.748 384.983 267.248C385.451 268.664 386.315 269.84 387.479 270.44L388.235 269.456C386.603 268.652 385.595 266.696 385.595 264.764V262.988ZM391.883 266.384H390.191V262.088H388.955V272.924H390.191V267.404H391.883V266.384ZM399.96 265.952H395.004V263.648H399.96V265.952ZM401.184 262.664H393.78V266.948H401.184V262.664ZM402.408 268.28H392.58V269.276H396.84V272.924H398.076V269.276H402.408V268.28ZM413.198 267.392V266.396H411.734C411.974 265.16 411.974 264.224 411.974 263.408V262.58H404.606V263.576H410.762C410.762 264.356 410.738 265.232 410.498 266.396H403.382V267.392H407.654V269.168H404.378V270.164H410.786V272.924H412.022V269.168H408.902V267.392H413.198Z" fill="#283895"/>
</svg>
