<svg width="1200" height="420" viewBox="0 0 1200 420" fill="none" xmlns="http://www.w3.org/2000/svg">
<rect width="1200" height="420" rx="20" fill="#F6F7FE"/>
<path opacity="0.7" d="M526.5 100H477C473.134 100 470 103.134 470 107V187" stroke="#7094F0" stroke-linecap="round" stroke-dasharray="2 4"/>
<path opacity="0.7" d="M674 320L723 320C726.866 320 730 316.866 730 313L730 233" stroke="#7094F0" stroke-linecap="round" stroke-dasharray="2 4"/>
<path opacity="0.7" d="M470 283L470 312C470 315.866 473.134 319 477 319L557 319" stroke="#7094F0" stroke-linecap="round" stroke-dasharray="2 4"/>
<path opacity="0.7" d="M730 137.5L730 107C730 103.134 726.866 100 723 100L643 100" stroke="#7094F0" stroke-linecap="round" stroke-dasharray="2 4"/>
<path d="M469.232 280.922L466.367 284.36C465.824 285.011 466.287 286 467.135 286H472.865C473.713 286 474.176 285.011 473.633 284.36L470.768 280.922C470.368 280.442 469.632 280.442 469.232 280.922Z" fill="#7094F0"/>
<path d="M730.768 139.078L733.633 135.64C734.176 134.989 733.713 134 732.865 134L727.135 134C726.287 134 725.824 134.989 726.367 135.64L729.232 139.078C729.632 139.558 730.368 139.558 730.768 139.078Z" fill="#7094F0"/>
<path d="M529.078 99.2318L525.64 96.3668C524.989 95.824 524 96.2872 524 97.135L524 102.865C524 103.713 524.989 104.176 525.64 103.633L529.078 100.768C529.558 100.368 529.558 99.6316 529.078 99.2318Z" fill="#7094F0"/>
<path d="M670.922 320.768L674.36 323.633C675.011 324.176 676 323.713 676 322.865L676 317.135C676 316.287 675.011 315.824 674.36 316.367L670.922 319.232C670.442 319.632 670.442 320.368 670.922 320.768Z" fill="#7094F0"/>
<circle cx="600" cy="100" r="59.5" fill="white" stroke="#435CE7"/>
<path d="M571.868 95V83.8H573.468V95H571.868ZM579.851 95.096C579.029 95.096 578.293 94.9147 577.643 94.552C577.003 94.1893 576.496 93.6827 576.123 93.032C575.749 92.3813 575.563 91.624 575.563 90.76C575.563 89.896 575.749 89.144 576.123 88.504C576.496 87.8533 577.003 87.3467 577.643 86.984C578.293 86.6213 579.029 86.44 579.851 86.44C580.565 86.44 581.211 86.6 581.787 86.92C582.363 87.24 582.821 87.72 583.163 88.36C583.515 89 583.691 89.8 583.691 90.76C583.691 91.72 583.52 92.52 583.179 93.16C582.848 93.8 582.395 94.2853 581.819 94.616C581.243 94.936 580.587 95.096 579.851 95.096ZM579.979 93.752C580.512 93.752 580.992 93.6293 581.419 93.384C581.856 93.1387 582.197 92.792 582.443 92.344C582.699 91.8853 582.827 91.3573 582.827 90.76C582.827 90.152 582.699 89.6293 582.443 89.192C582.197 88.744 581.856 88.3973 581.419 88.152C580.992 87.9067 580.512 87.784 579.979 87.784C579.435 87.784 578.949 87.9067 578.523 88.152C578.096 88.3973 577.755 88.744 577.499 89.192C577.243 89.6293 577.115 90.152 577.115 90.76C577.115 91.3573 577.243 91.8853 577.499 92.344C577.755 92.792 578.096 93.1387 578.523 93.384C578.949 93.6293 579.435 93.752 579.979 93.752ZM582.875 95V92.712L582.971 90.744L582.811 88.776V83.128H584.347V95H582.875ZM590.779 95.096C589.872 95.096 589.072 94.9093 588.379 94.536C587.696 94.1627 587.163 93.6507 586.779 93C586.406 92.3493 586.219 91.6027 586.219 90.76C586.219 89.9173 586.4 89.1707 586.763 88.52C587.136 87.8693 587.643 87.3627 588.283 87C588.934 86.6267 589.664 86.44 590.475 86.44C591.296 86.44 592.022 86.6213 592.651 86.984C593.28 87.3467 593.771 87.8587 594.123 88.52C594.486 89.1707 594.667 89.9333 594.667 90.808C594.667 90.872 594.662 90.9467 594.651 91.032C594.651 91.1173 594.646 91.1973 594.635 91.272H587.419V90.168H593.835L593.211 90.552C593.222 90.008 593.11 89.5227 592.875 89.096C592.64 88.6693 592.315 88.3387 591.899 88.104C591.494 87.8587 591.019 87.736 590.475 87.736C589.942 87.736 589.467 87.8587 589.051 88.104C588.635 88.3387 588.31 88.6747 588.075 89.112C587.84 89.5387 587.723 90.0293 587.723 90.584V90.84C587.723 91.4053 587.851 91.912 588.107 92.36C588.374 92.7973 588.742 93.1387 589.211 93.384C589.68 93.6293 590.219 93.752 590.827 93.752C591.328 93.752 591.782 93.6667 592.187 93.496C592.603 93.3253 592.966 93.0693 593.275 92.728L594.123 93.72C593.739 94.168 593.259 94.5093 592.683 94.744C592.118 94.9787 591.483 95.096 590.779 95.096ZM601.078 86.44C601.771 86.44 602.379 86.5733 602.902 86.84C603.435 87.1067 603.851 87.512 604.15 88.056C604.448 88.6 604.598 89.288 604.598 90.12V95H603.062V90.296C603.062 89.4747 602.859 88.856 602.454 88.44C602.059 88.024 601.499 87.816 600.774 87.816C600.23 87.816 599.755 87.9227 599.35 88.136C598.944 88.3493 598.63 88.664 598.406 89.08C598.192 89.496 598.086 90.0133 598.086 90.632V95H596.55V86.52H598.022V88.808L597.782 88.2C598.059 87.6453 598.486 87.2133 599.062 86.904C599.638 86.5947 600.31 86.44 601.078 86.44ZM610.102 95.096C609.249 95.096 608.588 94.8667 608.118 94.408C607.649 93.9493 607.414 93.2933 607.414 92.44V84.664H608.95V92.376C608.95 92.8347 609.062 93.1867 609.286 93.432C609.521 93.6773 609.852 93.8 610.278 93.8C610.758 93.8 611.158 93.6667 611.478 93.4L611.958 94.504C611.724 94.7067 611.441 94.856 611.11 94.952C610.79 95.048 610.454 95.096 610.102 95.096ZM605.974 87.784V86.52H611.382V87.784H605.974ZM613.565 95V86.52H615.101V95H613.565ZM614.333 84.888C614.035 84.888 613.784 84.792 613.581 84.6C613.389 84.408 613.293 84.1733 613.293 83.896C613.293 83.608 613.389 83.368 613.581 83.176C613.784 82.984 614.035 82.888 614.333 82.888C614.632 82.888 614.877 82.984 615.069 83.176C615.272 83.3573 615.373 83.5867 615.373 83.864C615.373 84.152 615.277 84.3973 615.085 84.6C614.893 84.792 614.643 84.888 614.333 84.888ZM618.008 95V85.768C618.008 84.936 618.248 84.2747 618.728 83.784C619.219 83.2827 619.912 83.032 620.808 83.032C621.139 83.032 621.453 83.0747 621.752 83.16C622.061 83.2347 622.323 83.3573 622.536 83.528L622.072 84.696C621.912 84.568 621.731 84.472 621.528 84.408C621.325 84.3333 621.112 84.296 620.888 84.296C620.44 84.296 620.099 84.424 619.864 84.68C619.629 84.9253 619.512 85.2933 619.512 85.784V86.92L619.544 87.624V95H618.008ZM616.568 87.784V86.52H621.976V87.784H616.568ZM623.699 98.2C623.294 98.2 622.899 98.1307 622.515 97.992C622.131 97.864 621.8 97.672 621.523 97.416L622.179 96.264C622.392 96.4667 622.627 96.6213 622.883 96.728C623.139 96.8347 623.411 96.888 623.699 96.888C624.072 96.888 624.382 96.792 624.627 96.6C624.872 96.408 625.102 96.0667 625.315 95.576L625.843 94.408L626.003 94.216L629.331 86.52H630.835L626.723 95.848C626.478 96.4453 626.2 96.9147 625.891 97.256C625.592 97.5973 625.262 97.8373 624.899 97.976C624.536 98.1253 624.136 98.2 623.699 98.2ZM625.715 95.272L621.843 86.52H623.443L626.739 94.072L625.715 95.272ZM585.571 117V105.8H589.939C590.92 105.8 591.757 105.955 592.451 106.264C593.144 106.573 593.677 107.021 594.051 107.608C594.424 108.195 594.611 108.893 594.611 109.704C594.611 110.515 594.424 111.213 594.051 111.8C593.677 112.376 593.144 112.819 592.451 113.128C591.757 113.437 590.92 113.592 589.939 113.592H586.451L587.171 112.856V117H585.571ZM593.059 117L590.211 112.936H591.923L594.803 117H593.059ZM587.171 113.016L586.451 112.232H589.891C590.915 112.232 591.688 112.013 592.211 111.576C592.744 111.128 593.011 110.504 593.011 109.704C593.011 108.904 592.744 108.285 592.211 107.848C591.688 107.411 590.915 107.192 589.891 107.192H586.451L587.171 106.392V113.016ZM596.722 117V108.52H598.258V117H596.722ZM597.49 106.888C597.191 106.888 596.94 106.792 596.738 106.6C596.546 106.408 596.45 106.173 596.45 105.896C596.45 105.608 596.546 105.368 596.738 105.176C596.94 104.984 597.191 104.888 597.49 104.888C597.788 104.888 598.034 104.984 598.226 105.176C598.428 105.357 598.53 105.587 598.53 105.864C598.53 106.152 598.434 106.397 598.242 106.6C598.05 106.792 597.799 106.888 597.49 106.888ZM603.372 117.096C602.668 117.096 601.996 117 601.356 116.808C600.727 116.616 600.231 116.381 599.868 116.104L600.508 114.888C600.871 115.133 601.319 115.341 601.852 115.512C602.386 115.683 602.93 115.768 603.484 115.768C604.199 115.768 604.711 115.667 605.02 115.464C605.34 115.261 605.5 114.979 605.5 114.616C605.5 114.349 605.404 114.141 605.212 113.992C605.02 113.843 604.764 113.731 604.444 113.656C604.135 113.581 603.788 113.517 603.404 113.464C603.02 113.4 602.636 113.325 602.252 113.24C601.868 113.144 601.516 113.016 601.196 112.856C600.876 112.685 600.62 112.456 600.428 112.168C600.236 111.869 600.14 111.475 600.14 110.984C600.14 110.472 600.284 110.024 600.572 109.64C600.86 109.256 601.266 108.963 601.788 108.76C602.322 108.547 602.951 108.44 603.676 108.44C604.231 108.44 604.791 108.509 605.356 108.648C605.932 108.776 606.402 108.963 606.764 109.208L606.108 110.424C605.724 110.168 605.324 109.992 604.908 109.896C604.492 109.8 604.076 109.752 603.66 109.752C602.988 109.752 602.487 109.864 602.156 110.088C601.826 110.301 601.66 110.579 601.66 110.92C601.66 111.208 601.756 111.432 601.948 111.592C602.151 111.741 602.407 111.859 602.716 111.944C603.036 112.029 603.388 112.104 603.772 112.168C604.156 112.221 604.54 112.296 604.924 112.392C605.308 112.477 605.655 112.6 605.964 112.76C606.284 112.92 606.54 113.144 606.732 113.432C606.935 113.72 607.036 114.104 607.036 114.584C607.036 115.096 606.887 115.539 606.588 115.912C606.29 116.285 605.868 116.579 605.324 116.792C604.78 116.995 604.13 117.096 603.372 117.096ZM609.954 114.952L609.986 112.984L614.866 108.52H616.722L612.978 112.2L612.146 112.904L609.954 114.952ZM608.706 117V105.128H610.242V117H608.706ZM615.186 117L611.858 112.872L612.85 111.64L617.074 117H615.186Z" fill="#435CE7"/>
<circle cx="600" cy="320" r="59.5" fill="white" stroke="#435CE7"/>
<path d="M566.782 315V303.8H571.15C572.131 303.8 572.968 303.955 573.662 304.264C574.355 304.573 574.888 305.021 575.262 305.608C575.635 306.195 575.822 306.893 575.822 307.704C575.822 308.515 575.635 309.213 575.262 309.8C574.888 310.376 574.355 310.819 573.662 311.128C572.968 311.437 572.131 311.592 571.15 311.592H567.662L568.382 310.856V315H566.782ZM574.27 315L571.422 310.936H573.134L576.014 315H574.27ZM568.382 311.016L567.662 310.232H571.102C572.126 310.232 572.899 310.013 573.422 309.576C573.955 309.128 574.222 308.504 574.222 307.704C574.222 306.904 573.955 306.285 573.422 305.848C572.899 305.411 572.126 305.192 571.102 305.192H567.662L568.382 304.392V311.016ZM581.709 315.096C580.802 315.096 580.002 314.909 579.309 314.536C578.626 314.163 578.093 313.651 577.709 313C577.335 312.349 577.149 311.603 577.149 310.76C577.149 309.917 577.33 309.171 577.693 308.52C578.066 307.869 578.573 307.363 579.213 307C579.863 306.627 580.594 306.44 581.405 306.44C582.226 306.44 582.951 306.621 583.581 306.984C584.21 307.347 584.701 307.859 585.053 308.52C585.415 309.171 585.597 309.933 585.597 310.808C585.597 310.872 585.591 310.947 585.581 311.032C585.581 311.117 585.575 311.197 585.565 311.272H578.349V310.168H584.765L584.141 310.552C584.151 310.008 584.039 309.523 583.805 309.096C583.57 308.669 583.245 308.339 582.829 308.104C582.423 307.859 581.949 307.736 581.405 307.736C580.871 307.736 580.397 307.859 579.981 308.104C579.565 308.339 579.239 308.675 579.005 309.112C578.77 309.539 578.653 310.029 578.653 310.584V310.84C578.653 311.405 578.781 311.912 579.037 312.36C579.303 312.797 579.671 313.139 580.141 313.384C580.61 313.629 581.149 313.752 581.757 313.752C582.258 313.752 582.711 313.667 583.117 313.496C583.533 313.325 583.895 313.069 584.205 312.728L585.053 313.72C584.669 314.168 584.189 314.509 583.613 314.744C583.047 314.979 582.413 315.096 581.709 315.096ZM589.911 315.096C589.207 315.096 588.535 315 587.895 314.808C587.266 314.616 586.77 314.381 586.407 314.104L587.047 312.888C587.41 313.133 587.858 313.341 588.391 313.512C588.925 313.683 589.469 313.768 590.023 313.768C590.738 313.768 591.25 313.667 591.559 313.464C591.879 313.261 592.039 312.979 592.039 312.616C592.039 312.349 591.943 312.141 591.751 311.992C591.559 311.843 591.303 311.731 590.983 311.656C590.674 311.581 590.327 311.517 589.943 311.464C589.559 311.4 589.175 311.325 588.791 311.24C588.407 311.144 588.055 311.016 587.735 310.856C587.415 310.685 587.159 310.456 586.967 310.168C586.775 309.869 586.679 309.475 586.679 308.984C586.679 308.472 586.823 308.024 587.111 307.64C587.399 307.256 587.805 306.963 588.327 306.76C588.861 306.547 589.49 306.44 590.215 306.44C590.77 306.44 591.33 306.509 591.895 306.648C592.471 306.776 592.941 306.963 593.303 307.208L592.647 308.424C592.263 308.168 591.863 307.992 591.447 307.896C591.031 307.8 590.615 307.752 590.199 307.752C589.527 307.752 589.026 307.864 588.695 308.088C588.365 308.301 588.199 308.579 588.199 308.92C588.199 309.208 588.295 309.432 588.487 309.592C588.69 309.741 588.946 309.859 589.255 309.944C589.575 310.029 589.927 310.104 590.311 310.168C590.695 310.221 591.079 310.296 591.463 310.392C591.847 310.477 592.194 310.6 592.503 310.76C592.823 310.92 593.079 311.144 593.271 311.432C593.474 311.72 593.575 312.104 593.575 312.584C593.575 313.096 593.426 313.539 593.127 313.912C592.829 314.285 592.407 314.579 591.863 314.792C591.319 314.995 590.669 315.096 589.911 315.096ZM599.741 315.096C599.037 315.096 598.392 314.936 597.805 314.616C597.229 314.285 596.765 313.8 596.413 313.16C596.072 312.52 595.901 311.72 595.901 310.76C595.901 309.8 596.066 309 596.397 308.36C596.738 307.72 597.197 307.24 597.773 306.92C598.36 306.6 599.016 306.44 599.741 306.44C600.573 306.44 601.309 306.621 601.949 306.984C602.589 307.347 603.096 307.853 603.469 308.504C603.842 309.144 604.029 309.896 604.029 310.76C604.029 311.624 603.842 312.381 603.469 313.032C603.096 313.683 602.589 314.189 601.949 314.552C601.309 314.915 600.573 315.096 599.741 315.096ZM595.245 318.104V306.52H596.717V308.808L596.621 310.776L596.781 312.744V318.104H595.245ZM599.613 313.752C600.157 313.752 600.642 313.629 601.069 313.384C601.506 313.139 601.848 312.792 602.093 312.344C602.349 311.885 602.477 311.357 602.477 310.76C602.477 310.152 602.349 309.629 602.093 309.192C601.848 308.744 601.506 308.397 601.069 308.152C600.642 307.907 600.157 307.784 599.613 307.784C599.08 307.784 598.594 307.907 598.157 308.152C597.73 308.397 597.389 308.744 597.133 309.192C596.888 309.629 596.765 310.152 596.765 310.76C596.765 311.357 596.888 311.885 597.133 312.344C597.389 312.792 597.73 313.139 598.157 313.384C598.594 313.629 599.08 313.752 599.613 313.752ZM609.533 315.096C608.68 315.096 607.923 314.909 607.261 314.536C606.6 314.163 606.077 313.651 605.693 313C605.309 312.339 605.117 311.592 605.117 310.76C605.117 309.917 605.309 309.171 605.693 308.52C606.077 307.869 606.6 307.363 607.261 307C607.923 306.627 608.68 306.44 609.533 306.44C610.376 306.44 611.128 306.627 611.789 307C612.461 307.363 612.984 307.869 613.357 308.52C613.741 309.16 613.933 309.907 613.933 310.76C613.933 311.603 613.741 312.349 613.357 313C612.984 313.651 612.461 314.163 611.789 314.536C611.128 314.909 610.376 315.096 609.533 315.096ZM609.533 313.752C610.077 313.752 610.563 313.629 610.989 313.384C611.427 313.139 611.768 312.792 612.013 312.344C612.259 311.885 612.381 311.357 612.381 310.76C612.381 310.152 612.259 309.629 612.013 309.192C611.768 308.744 611.427 308.397 610.989 308.152C610.563 307.907 610.077 307.784 609.533 307.784C608.989 307.784 608.504 307.907 608.077 308.152C607.651 308.397 607.309 308.744 607.053 309.192C606.797 309.629 606.669 310.152 606.669 310.76C606.669 311.357 606.797 311.885 607.053 312.344C607.309 312.792 607.651 313.139 608.077 313.384C608.504 313.629 608.989 313.752 609.533 313.752ZM620.336 306.44C621.029 306.44 621.637 306.573 622.16 306.84C622.693 307.107 623.109 307.512 623.408 308.056C623.706 308.6 623.856 309.288 623.856 310.12V315H622.32V310.296C622.32 309.475 622.117 308.856 621.712 308.44C621.317 308.024 620.757 307.816 620.032 307.816C619.488 307.816 619.013 307.923 618.608 308.136C618.202 308.349 617.888 308.664 617.664 309.08C617.45 309.496 617.344 310.013 617.344 310.632V315H615.808V306.52H617.28V308.808L617.04 308.2C617.317 307.645 617.744 307.213 618.32 306.904C618.896 306.595 619.568 306.44 620.336 306.44ZM629.952 315.096C629.131 315.096 628.395 314.915 627.744 314.552C627.104 314.189 626.598 313.683 626.224 313.032C625.851 312.381 625.664 311.624 625.664 310.76C625.664 309.896 625.851 309.144 626.224 308.504C626.598 307.853 627.104 307.347 627.744 306.984C628.395 306.621 629.131 306.44 629.952 306.44C630.667 306.44 631.312 306.6 631.888 306.92C632.464 307.24 632.923 307.72 633.264 308.36C633.616 309 633.792 309.8 633.792 310.76C633.792 311.72 633.622 312.52 633.28 313.16C632.95 313.8 632.496 314.285 631.92 314.616C631.344 314.936 630.688 315.096 629.952 315.096ZM630.08 313.752C630.614 313.752 631.094 313.629 631.52 313.384C631.958 313.139 632.299 312.792 632.544 312.344C632.8 311.885 632.928 311.357 632.928 310.76C632.928 310.152 632.8 309.629 632.544 309.192C632.299 308.744 631.958 308.397 631.52 308.152C631.094 307.907 630.614 307.784 630.08 307.784C629.536 307.784 629.051 307.907 628.624 308.152C628.198 308.397 627.856 308.744 627.6 309.192C627.344 309.629 627.216 310.152 627.216 310.76C627.216 311.357 627.344 311.885 627.6 312.344C627.856 312.792 628.198 313.139 628.624 313.384C629.051 313.629 629.536 313.752 630.08 313.752ZM632.976 315V312.712L633.072 310.744L632.912 308.776V303.128H634.448V315H632.976ZM578.235 337.096C577.382 337.096 576.721 336.867 576.251 336.408C575.782 335.949 575.547 335.293 575.547 334.44V326.664H577.083V334.376C577.083 334.835 577.195 335.187 577.419 335.432C577.654 335.677 577.985 335.8 578.411 335.8C578.891 335.8 579.291 335.667 579.611 335.4L580.091 336.504C579.857 336.707 579.574 336.856 579.243 336.952C578.923 337.048 578.587 337.096 578.235 337.096ZM574.107 329.784V328.52H579.515V329.784H574.107ZM585.049 337.096C584.196 337.096 583.438 336.909 582.777 336.536C582.116 336.163 581.593 335.651 581.209 335C580.825 334.339 580.633 333.592 580.633 332.76C580.633 331.917 580.825 331.171 581.209 330.52C581.593 329.869 582.116 329.363 582.777 329C583.438 328.627 584.196 328.44 585.049 328.44C585.892 328.44 586.644 328.627 587.305 329C587.977 329.363 588.5 329.869 588.873 330.52C589.257 331.16 589.449 331.907 589.449 332.76C589.449 333.603 589.257 334.349 588.873 335C588.5 335.651 587.977 336.163 587.305 336.536C586.644 336.909 585.892 337.096 585.049 337.096ZM585.049 335.752C585.593 335.752 586.078 335.629 586.505 335.384C586.942 335.139 587.284 334.792 587.529 334.344C587.774 333.885 587.897 333.357 587.897 332.76C587.897 332.152 587.774 331.629 587.529 331.192C587.284 330.744 586.942 330.397 586.505 330.152C586.078 329.907 585.593 329.784 585.049 329.784C584.505 329.784 584.02 329.907 583.593 330.152C583.166 330.397 582.825 330.744 582.569 331.192C582.313 331.629 582.185 332.152 582.185 332.76C582.185 333.357 582.313 333.885 582.569 334.344C582.825 334.792 583.166 335.139 583.593 335.384C584.02 335.629 584.505 335.752 585.049 335.752ZM595.594 337V325.8H599.962C600.943 325.8 601.781 325.955 602.474 326.264C603.167 326.573 603.701 327.021 604.074 327.608C604.447 328.195 604.634 328.893 604.634 329.704C604.634 330.515 604.447 331.213 604.074 331.8C603.701 332.376 603.167 332.819 602.474 333.128C601.781 333.437 600.943 333.592 599.962 333.592H596.474L597.194 332.856V337H595.594ZM603.082 337L600.234 332.936H601.946L604.826 337H603.082ZM597.194 333.016L596.474 332.232H599.914C600.938 332.232 601.711 332.013 602.234 331.576C602.767 331.128 603.034 330.504 603.034 329.704C603.034 328.904 602.767 328.285 602.234 327.848C601.711 327.411 600.938 327.192 599.914 327.192H596.474L597.194 326.392V333.016ZM606.745 337V328.52H608.281V337H606.745ZM607.513 326.888C607.214 326.888 606.964 326.792 606.761 326.6C606.569 326.408 606.473 326.173 606.473 325.896C606.473 325.608 606.569 325.368 606.761 325.176C606.964 324.984 607.214 324.888 607.513 324.888C607.812 324.888 608.057 324.984 608.249 325.176C608.452 325.357 608.553 325.587 608.553 325.864C608.553 326.152 608.457 326.397 608.265 326.6C608.073 326.792 607.822 326.888 607.513 326.888ZM613.396 337.096C612.692 337.096 612.02 337 611.38 336.808C610.75 336.616 610.254 336.381 609.892 336.104L610.532 334.888C610.894 335.133 611.342 335.341 611.876 335.512C612.409 335.683 612.953 335.768 613.508 335.768C614.222 335.768 614.734 335.667 615.044 335.464C615.364 335.261 615.524 334.979 615.524 334.616C615.524 334.349 615.428 334.141 615.236 333.992C615.044 333.843 614.788 333.731 614.468 333.656C614.158 333.581 613.812 333.517 613.428 333.464C613.044 333.4 612.66 333.325 612.276 333.24C611.892 333.144 611.54 333.016 611.22 332.856C610.9 332.685 610.644 332.456 610.452 332.168C610.26 331.869 610.164 331.475 610.164 330.984C610.164 330.472 610.308 330.024 610.596 329.64C610.884 329.256 611.289 328.963 611.812 328.76C612.345 328.547 612.974 328.44 613.7 328.44C614.254 328.44 614.814 328.509 615.38 328.648C615.956 328.776 616.425 328.963 616.788 329.208L616.132 330.424C615.748 330.168 615.348 329.992 614.932 329.896C614.516 329.8 614.1 329.752 613.684 329.752C613.012 329.752 612.51 329.864 612.18 330.088C611.849 330.301 611.684 330.579 611.684 330.92C611.684 331.208 611.78 331.432 611.972 331.592C612.174 331.741 612.43 331.859 612.74 331.944C613.06 332.029 613.412 332.104 613.796 332.168C614.18 332.221 614.564 332.296 614.948 332.392C615.332 332.477 615.678 332.6 615.988 332.76C616.308 332.92 616.564 333.144 616.756 333.432C616.958 333.72 617.06 334.104 617.06 334.584C617.06 335.096 616.91 335.539 616.612 335.912C616.313 336.285 615.892 336.579 615.348 336.792C614.804 336.995 614.153 337.096 613.396 337.096ZM619.977 334.952L620.009 332.984L624.889 328.52H626.745L623.001 332.2L622.169 332.904L619.977 334.952ZM618.729 337V325.128H620.265V337H618.729ZM625.209 337L621.881 332.872L622.873 331.64L627.097 337H625.209Z" fill="#435CE7"/>
<circle cx="470" cy="210" r="59.5" fill="white" stroke="#435CE7"/>
<path d="M438.735 194V182.8H440.047L445.071 191.264H444.367L449.327 182.8H450.639L450.655 194H449.119L449.103 185.216H449.471L445.055 192.64H444.319L439.871 185.216H440.271V194H438.735ZM458.806 194V192.208L458.726 191.872V188.816C458.726 188.165 458.534 187.664 458.15 187.312C457.777 186.949 457.211 186.768 456.454 186.768C455.953 186.768 455.462 186.853 454.982 187.024C454.502 187.184 454.097 187.403 453.766 187.68L453.126 186.528C453.563 186.176 454.086 185.909 454.694 185.728C455.313 185.536 455.958 185.44 456.63 185.44C457.793 185.44 458.689 185.723 459.318 186.288C459.947 186.853 460.262 187.717 460.262 188.88V194H458.806ZM456.022 194.096C455.393 194.096 454.838 193.989 454.358 193.776C453.889 193.563 453.526 193.269 453.27 192.896C453.014 192.512 452.886 192.08 452.886 191.6C452.886 191.141 452.993 190.725 453.206 190.352C453.43 189.979 453.787 189.68 454.278 189.456C454.779 189.232 455.451 189.12 456.294 189.12H458.982V190.224H456.358C455.59 190.224 455.073 190.352 454.806 190.608C454.539 190.864 454.406 191.173 454.406 191.536C454.406 191.952 454.571 192.288 454.902 192.544C455.233 192.789 455.691 192.912 456.278 192.912C456.854 192.912 457.355 192.784 457.782 192.528C458.219 192.272 458.534 191.899 458.726 191.408L459.03 192.464C458.827 192.965 458.47 193.365 457.958 193.664C457.446 193.952 456.801 194.096 456.022 194.096ZM467.382 185.44C468.076 185.44 468.684 185.573 469.206 185.84C469.74 186.107 470.156 186.512 470.454 187.056C470.753 187.6 470.902 188.288 470.902 189.12V194H469.366V189.296C469.366 188.475 469.164 187.856 468.758 187.44C468.364 187.024 467.804 186.816 467.078 186.816C466.534 186.816 466.06 186.923 465.654 187.136C465.249 187.349 464.934 187.664 464.71 188.08C464.497 188.496 464.39 189.013 464.39 189.632V194H462.854V185.52H464.326V187.808L464.086 187.2C464.364 186.645 464.79 186.213 465.366 185.904C465.942 185.595 466.614 185.44 467.382 185.44ZM478.759 194V192.208L478.679 191.872V188.816C478.679 188.165 478.487 187.664 478.103 187.312C477.73 186.949 477.164 186.768 476.407 186.768C475.906 186.768 475.415 186.853 474.935 187.024C474.455 187.184 474.05 187.403 473.719 187.68L473.079 186.528C473.516 186.176 474.039 185.909 474.647 185.728C475.266 185.536 475.911 185.44 476.583 185.44C477.746 185.44 478.642 185.723 479.271 186.288C479.9 186.853 480.215 187.717 480.215 188.88V194H478.759ZM475.975 194.096C475.346 194.096 474.791 193.989 474.311 193.776C473.842 193.563 473.479 193.269 473.223 192.896C472.967 192.512 472.839 192.08 472.839 191.6C472.839 191.141 472.946 190.725 473.159 190.352C473.383 189.979 473.74 189.68 474.231 189.456C474.732 189.232 475.404 189.12 476.247 189.12H478.935V190.224H476.311C475.543 190.224 475.026 190.352 474.759 190.608C474.492 190.864 474.359 191.173 474.359 191.536C474.359 191.952 474.524 192.288 474.855 192.544C475.186 192.789 475.644 192.912 476.231 192.912C476.807 192.912 477.308 192.784 477.735 192.528C478.172 192.272 478.487 191.899 478.679 191.408L478.983 192.464C478.78 192.965 478.423 193.365 477.911 193.664C477.399 193.952 476.754 194.096 475.975 194.096ZM486.52 197.2C485.741 197.2 484.984 197.088 484.248 196.864C483.522 196.651 482.93 196.341 482.472 195.936L483.208 194.752C483.602 195.093 484.088 195.36 484.664 195.552C485.24 195.755 485.842 195.856 486.472 195.856C487.474 195.856 488.21 195.621 488.68 195.152C489.149 194.683 489.384 193.968 489.384 193.008V191.216L489.544 189.536L489.464 187.84V185.52H490.92V192.848C490.92 194.341 490.546 195.44 489.8 196.144C489.053 196.848 487.96 197.2 486.52 197.2ZM486.328 193.648C485.506 193.648 484.77 193.477 484.12 193.136C483.48 192.784 482.968 192.299 482.584 191.68C482.21 191.061 482.024 190.347 482.024 189.536C482.024 188.715 482.21 188 482.584 187.392C482.968 186.773 483.48 186.293 484.12 185.952C484.77 185.611 485.506 185.44 486.328 185.44C487.053 185.44 487.714 185.589 488.312 185.888C488.909 186.176 489.384 186.624 489.736 187.232C490.098 187.84 490.28 188.608 490.28 189.536C490.28 190.453 490.098 191.216 489.736 191.824C489.384 192.432 488.909 192.891 488.312 193.2C487.714 193.499 487.053 193.648 486.328 193.648ZM486.504 192.304C487.069 192.304 487.57 192.187 488.008 191.952C488.445 191.717 488.786 191.392 489.032 190.976C489.288 190.56 489.416 190.08 489.416 189.536C489.416 188.992 489.288 188.512 489.032 188.096C488.786 187.68 488.445 187.36 488.008 187.136C487.57 186.901 487.069 186.784 486.504 186.784C485.938 186.784 485.432 186.901 484.984 187.136C484.546 187.36 484.2 187.68 483.944 188.096C483.698 188.512 483.576 188.992 483.576 189.536C483.576 190.08 483.698 190.56 483.944 190.976C484.2 191.392 484.546 191.717 484.984 191.952C485.432 192.187 485.938 192.304 486.504 192.304ZM497.38 194.096C496.474 194.096 495.674 193.909 494.98 193.536C494.298 193.163 493.764 192.651 493.38 192C493.007 191.349 492.82 190.603 492.82 189.76C492.82 188.917 493.002 188.171 493.364 187.52C493.738 186.869 494.244 186.363 494.884 186C495.535 185.627 496.266 185.44 497.076 185.44C497.898 185.44 498.623 185.621 499.252 185.984C499.882 186.347 500.372 186.859 500.724 187.52C501.087 188.171 501.268 188.933 501.268 189.808C501.268 189.872 501.263 189.947 501.252 190.032C501.252 190.117 501.247 190.197 501.236 190.272H494.02V189.168H500.436L499.812 189.552C499.823 189.008 499.711 188.523 499.476 188.096C499.242 187.669 498.916 187.339 498.5 187.104C498.095 186.859 497.62 186.736 497.076 186.736C496.543 186.736 496.068 186.859 495.652 187.104C495.236 187.339 494.911 187.675 494.676 188.112C494.442 188.539 494.324 189.029 494.324 189.584V189.84C494.324 190.405 494.452 190.912 494.708 191.36C494.975 191.797 495.343 192.139 495.812 192.384C496.282 192.629 496.82 192.752 497.428 192.752C497.93 192.752 498.383 192.667 498.788 192.496C499.204 192.325 499.567 192.069 499.876 191.728L500.724 192.72C500.34 193.168 499.86 193.509 499.284 193.744C498.719 193.979 498.084 194.096 497.38 194.096ZM454.571 216V204.8H458.939C459.92 204.8 460.757 204.955 461.451 205.264C462.144 205.573 462.677 206.021 463.051 206.608C463.424 207.195 463.611 207.893 463.611 208.704C463.611 209.515 463.424 210.213 463.051 210.8C462.677 211.376 462.144 211.819 461.451 212.128C460.757 212.437 459.92 212.592 458.939 212.592H455.451L456.171 211.856V216H454.571ZM462.059 216L459.211 211.936H460.923L463.803 216H462.059ZM456.171 212.016L455.451 211.232H458.891C459.915 211.232 460.688 211.013 461.211 210.576C461.744 210.128 462.011 209.504 462.011 208.704C462.011 207.904 461.744 207.285 461.211 206.848C460.688 206.411 459.915 206.192 458.891 206.192H455.451L456.171 205.392V212.016ZM465.722 216V207.52H467.258V216H465.722ZM466.49 205.888C466.191 205.888 465.94 205.792 465.738 205.6C465.546 205.408 465.45 205.173 465.45 204.896C465.45 204.608 465.546 204.368 465.738 204.176C465.94 203.984 466.191 203.888 466.49 203.888C466.788 203.888 467.034 203.984 467.226 204.176C467.428 204.357 467.53 204.587 467.53 204.864C467.53 205.152 467.434 205.397 467.242 205.6C467.05 205.792 466.799 205.888 466.49 205.888ZM472.372 216.096C471.668 216.096 470.996 216 470.356 215.808C469.727 215.616 469.231 215.381 468.868 215.104L469.508 213.888C469.871 214.133 470.319 214.341 470.852 214.512C471.386 214.683 471.93 214.768 472.484 214.768C473.199 214.768 473.711 214.667 474.02 214.464C474.34 214.261 474.5 213.979 474.5 213.616C474.5 213.349 474.404 213.141 474.212 212.992C474.02 212.843 473.764 212.731 473.444 212.656C473.135 212.581 472.788 212.517 472.404 212.464C472.02 212.4 471.636 212.325 471.252 212.24C470.868 212.144 470.516 212.016 470.196 211.856C469.876 211.685 469.62 211.456 469.428 211.168C469.236 210.869 469.14 210.475 469.14 209.984C469.14 209.472 469.284 209.024 469.572 208.64C469.86 208.256 470.266 207.963 470.788 207.76C471.322 207.547 471.951 207.44 472.676 207.44C473.231 207.44 473.791 207.509 474.356 207.648C474.932 207.776 475.402 207.963 475.764 208.208L475.108 209.424C474.724 209.168 474.324 208.992 473.908 208.896C473.492 208.8 473.076 208.752 472.66 208.752C471.988 208.752 471.487 208.864 471.156 209.088C470.826 209.301 470.66 209.579 470.66 209.92C470.66 210.208 470.756 210.432 470.948 210.592C471.151 210.741 471.407 210.859 471.716 210.944C472.036 211.029 472.388 211.104 472.772 211.168C473.156 211.221 473.54 211.296 473.924 211.392C474.308 211.477 474.655 211.6 474.964 211.76C475.284 211.92 475.54 212.144 475.732 212.432C475.935 212.72 476.036 213.104 476.036 213.584C476.036 214.096 475.887 214.539 475.588 214.912C475.29 215.285 474.868 215.579 474.324 215.792C473.78 215.995 473.13 216.096 472.372 216.096ZM478.954 213.952L478.986 211.984L483.866 207.52H485.722L481.978 211.2L481.146 211.904L478.954 213.952ZM477.706 216V204.128H479.242V216H477.706ZM484.186 216L480.858 211.872L481.85 210.64L486.074 216H484.186ZM451.11 226.8H452.71V238H451.11V226.8ZM444.678 238H443.078V226.8H444.678V238ZM451.254 233.008H444.518V231.616H451.254V233.008ZM455.589 238V229.52H457.125V238H455.589ZM456.357 227.888C456.058 227.888 455.807 227.792 455.605 227.6C455.413 227.408 455.317 227.173 455.317 226.896C455.317 226.608 455.413 226.368 455.605 226.176C455.807 225.984 456.058 225.888 456.357 225.888C456.655 225.888 456.901 225.984 457.093 226.176C457.295 226.357 457.397 226.587 457.397 226.864C457.397 227.152 457.301 227.397 457.109 227.6C456.917 227.792 456.666 227.888 456.357 227.888ZM462.24 238.096C461.536 238.096 460.864 238 460.224 237.808C459.594 237.616 459.098 237.381 458.736 237.104L459.376 235.888C459.738 236.133 460.186 236.341 460.72 236.512C461.253 236.683 461.797 236.768 462.352 236.768C463.066 236.768 463.578 236.667 463.888 236.464C464.208 236.261 464.368 235.979 464.368 235.616C464.368 235.349 464.272 235.141 464.08 234.992C463.888 234.843 463.632 234.731 463.312 234.656C463.002 234.581 462.656 234.517 462.272 234.464C461.888 234.4 461.504 234.325 461.12 234.24C460.736 234.144 460.384 234.016 460.064 233.856C459.744 233.685 459.488 233.456 459.296 233.168C459.104 232.869 459.008 232.475 459.008 231.984C459.008 231.472 459.152 231.024 459.44 230.64C459.728 230.256 460.133 229.963 460.656 229.76C461.189 229.547 461.818 229.44 462.544 229.44C463.098 229.44 463.658 229.509 464.224 229.648C464.8 229.776 465.269 229.963 465.632 230.208L464.976 231.424C464.592 231.168 464.192 230.992 463.776 230.896C463.36 230.8 462.944 230.752 462.528 230.752C461.856 230.752 461.354 230.864 461.024 231.088C460.693 231.301 460.528 231.579 460.528 231.92C460.528 232.208 460.624 232.432 460.816 232.592C461.018 232.741 461.274 232.859 461.584 232.944C461.904 233.029 462.256 233.104 462.64 233.168C463.024 233.221 463.408 233.296 463.792 233.392C464.176 233.477 464.522 233.6 464.832 233.76C465.152 233.92 465.408 234.144 465.6 234.432C465.802 234.72 465.904 235.104 465.904 235.584C465.904 236.096 465.754 236.539 465.456 236.912C465.157 237.285 464.736 237.579 464.192 237.792C463.648 237.995 462.997 238.096 462.24 238.096ZM470.485 238.096C469.632 238.096 468.971 237.867 468.501 237.408C468.032 236.949 467.797 236.293 467.797 235.44V227.664H469.333V235.376C469.333 235.835 469.445 236.187 469.669 236.432C469.904 236.677 470.235 236.8 470.661 236.8C471.141 236.8 471.541 236.667 471.861 236.4L472.341 237.504C472.107 237.707 471.824 237.856 471.493 237.952C471.173 238.048 470.837 238.096 470.485 238.096ZM466.357 230.784V229.52H471.765V230.784H466.357ZM477.299 238.096C476.446 238.096 475.688 237.909 475.027 237.536C474.366 237.163 473.843 236.651 473.459 236C473.075 235.339 472.883 234.592 472.883 233.76C472.883 232.917 473.075 232.171 473.459 231.52C473.843 230.869 474.366 230.363 475.027 230C475.688 229.627 476.446 229.44 477.299 229.44C478.142 229.44 478.894 229.627 479.555 230C480.227 230.363 480.75 230.869 481.123 231.52C481.507 232.16 481.699 232.907 481.699 233.76C481.699 234.603 481.507 235.349 481.123 236C480.75 236.651 480.227 237.163 479.555 237.536C478.894 237.909 478.142 238.096 477.299 238.096ZM477.299 236.752C477.843 236.752 478.328 236.629 478.755 236.384C479.192 236.139 479.534 235.792 479.779 235.344C480.024 234.885 480.147 234.357 480.147 233.76C480.147 233.152 480.024 232.629 479.779 232.192C479.534 231.744 479.192 231.397 478.755 231.152C478.328 230.907 477.843 230.784 477.299 230.784C476.755 230.784 476.27 230.907 475.843 231.152C475.416 231.397 475.075 231.744 474.819 232.192C474.563 232.629 474.435 233.152 474.435 233.76C474.435 234.357 474.563 234.885 474.819 235.344C475.075 235.792 475.416 236.139 475.843 236.384C476.27 236.629 476.755 236.752 477.299 236.752ZM483.573 238V229.52H485.045V231.824L484.901 231.248C485.136 230.661 485.531 230.213 486.085 229.904C486.64 229.595 487.323 229.44 488.133 229.44V230.928C488.069 230.917 488.005 230.912 487.941 230.912C487.888 230.912 487.835 230.912 487.781 230.912C486.96 230.912 486.309 231.157 485.829 231.648C485.349 232.139 485.109 232.848 485.109 233.776V238H483.573ZM490.488 241.2C490.083 241.2 489.688 241.131 489.304 240.992C488.92 240.864 488.589 240.672 488.312 240.416L488.968 239.264C489.181 239.467 489.416 239.621 489.672 239.728C489.928 239.835 490.2 239.888 490.488 239.888C490.861 239.888 491.171 239.792 491.416 239.6C491.661 239.408 491.891 239.067 492.104 238.576L492.632 237.408L492.792 237.216L496.12 229.52H497.624L493.512 238.848C493.267 239.445 492.989 239.915 492.68 240.256C492.381 240.597 492.051 240.837 491.688 240.976C491.325 241.125 490.925 241.2 490.488 241.2ZM492.504 238.272L488.632 229.52H490.232L493.528 237.072L492.504 238.272Z" fill="#435CE7"/>
<circle cx="730" cy="210" r="59.5" fill="white" stroke="#435CE7"/>
<path d="M704.359 205L709.431 193.8H711.015L716.103 205H714.423L709.895 194.696H710.535L706.007 205H704.359ZM706.519 202.2L706.951 200.92H713.255L713.719 202.2H706.519ZM719.654 205.096C718.95 205.096 718.278 205 717.638 204.808C717.008 204.616 716.512 204.381 716.15 204.104L716.79 202.888C717.152 203.133 717.6 203.341 718.134 203.512C718.667 203.683 719.211 203.768 719.766 203.768C720.48 203.768 720.992 203.667 721.302 203.464C721.622 203.261 721.782 202.979 721.782 202.616C721.782 202.349 721.686 202.141 721.494 201.992C721.302 201.843 721.046 201.731 720.726 201.656C720.416 201.581 720.07 201.517 719.686 201.464C719.302 201.4 718.918 201.325 718.534 201.24C718.15 201.144 717.798 201.016 717.478 200.856C717.158 200.685 716.902 200.456 716.71 200.168C716.518 199.869 716.422 199.475 716.422 198.984C716.422 198.472 716.566 198.024 716.854 197.64C717.142 197.256 717.547 196.963 718.07 196.76C718.603 196.547 719.232 196.44 719.958 196.44C720.512 196.44 721.072 196.509 721.638 196.648C722.214 196.776 722.683 196.963 723.046 197.208L722.39 198.424C722.006 198.168 721.606 197.992 721.19 197.896C720.774 197.8 720.358 197.752 719.942 197.752C719.27 197.752 718.768 197.864 718.438 198.088C718.107 198.301 717.942 198.579 717.942 198.92C717.942 199.208 718.038 199.432 718.23 199.592C718.432 199.741 718.688 199.859 718.998 199.944C719.318 200.029 719.67 200.104 720.054 200.168C720.438 200.221 720.822 200.296 721.206 200.392C721.59 200.477 721.936 200.6 722.246 200.76C722.566 200.92 722.822 201.144 723.014 201.432C723.216 201.72 723.318 202.104 723.318 202.584C723.318 203.096 723.168 203.539 722.87 203.912C722.571 204.285 722.15 204.579 721.606 204.792C721.062 204.995 720.411 205.096 719.654 205.096ZM727.419 205.096C726.715 205.096 726.043 205 725.403 204.808C724.774 204.616 724.278 204.381 723.915 204.104L724.555 202.888C724.918 203.133 725.366 203.341 725.899 203.512C726.433 203.683 726.977 203.768 727.531 203.768C728.246 203.768 728.758 203.667 729.067 203.464C729.387 203.261 729.547 202.979 729.547 202.616C729.547 202.349 729.451 202.141 729.259 201.992C729.067 201.843 728.811 201.731 728.491 201.656C728.182 201.581 727.835 201.517 727.451 201.464C727.067 201.4 726.683 201.325 726.299 201.24C725.915 201.144 725.563 201.016 725.243 200.856C724.923 200.685 724.667 200.456 724.475 200.168C724.283 199.869 724.187 199.475 724.187 198.984C724.187 198.472 724.331 198.024 724.619 197.64C724.907 197.256 725.313 196.963 725.835 196.76C726.369 196.547 726.998 196.44 727.723 196.44C728.278 196.44 728.838 196.509 729.403 196.648C729.979 196.776 730.449 196.963 730.811 197.208L730.155 198.424C729.771 198.168 729.371 197.992 728.955 197.896C728.539 197.8 728.123 197.752 727.707 197.752C727.035 197.752 726.534 197.864 726.203 198.088C725.873 198.301 725.707 198.579 725.707 198.92C725.707 199.208 725.803 199.432 725.995 199.592C726.198 199.741 726.454 199.859 726.763 199.944C727.083 200.029 727.435 200.104 727.819 200.168C728.203 200.221 728.587 200.296 728.971 200.392C729.355 200.477 729.702 200.6 730.011 200.76C730.331 200.92 730.587 201.144 730.779 201.432C730.982 201.72 731.083 202.104 731.083 202.584C731.083 203.096 730.934 203.539 730.635 203.912C730.337 204.285 729.915 204.579 729.371 204.792C728.827 204.995 728.177 205.096 727.419 205.096ZM736.529 205.096C735.622 205.096 734.822 204.909 734.129 204.536C733.446 204.163 732.913 203.651 732.529 203C732.156 202.349 731.969 201.603 731.969 200.76C731.969 199.917 732.15 199.171 732.513 198.52C732.886 197.869 733.393 197.363 734.033 197C734.684 196.627 735.414 196.44 736.225 196.44C737.046 196.44 737.772 196.621 738.401 196.984C739.03 197.347 739.521 197.859 739.873 198.52C740.236 199.171 740.417 199.933 740.417 200.808C740.417 200.872 740.412 200.947 740.401 201.032C740.401 201.117 740.396 201.197 740.385 201.272H733.169V200.168H739.585L738.961 200.552C738.972 200.008 738.86 199.523 738.625 199.096C738.39 198.669 738.065 198.339 737.649 198.104C737.244 197.859 736.769 197.736 736.225 197.736C735.692 197.736 735.217 197.859 734.801 198.104C734.385 198.339 734.06 198.675 733.825 199.112C733.59 199.539 733.473 200.029 733.473 200.584V200.84C733.473 201.405 733.601 201.912 733.857 202.36C734.124 202.797 734.492 203.139 734.961 203.384C735.43 203.629 735.969 203.752 736.577 203.752C737.078 203.752 737.532 203.667 737.937 203.496C738.353 203.325 738.716 203.069 739.025 202.728L739.873 203.72C739.489 204.168 739.009 204.509 738.433 204.744C737.868 204.979 737.233 205.096 736.529 205.096ZM744.732 205.096C744.028 205.096 743.356 205 742.716 204.808C742.086 204.616 741.59 204.381 741.228 204.104L741.868 202.888C742.23 203.133 742.678 203.341 743.212 203.512C743.745 203.683 744.289 203.768 744.844 203.768C745.558 203.768 746.07 203.667 746.38 203.464C746.7 203.261 746.86 202.979 746.86 202.616C746.86 202.349 746.764 202.141 746.572 201.992C746.38 201.843 746.124 201.731 745.804 201.656C745.494 201.581 745.148 201.517 744.764 201.464C744.38 201.4 743.996 201.325 743.612 201.24C743.228 201.144 742.876 201.016 742.556 200.856C742.236 200.685 741.98 200.456 741.788 200.168C741.596 199.869 741.5 199.475 741.5 198.984C741.5 198.472 741.644 198.024 741.932 197.64C742.22 197.256 742.625 196.963 743.148 196.76C743.681 196.547 744.31 196.44 745.036 196.44C745.59 196.44 746.15 196.509 746.716 196.648C747.292 196.776 747.761 196.963 748.124 197.208L747.468 198.424C747.084 198.168 746.684 197.992 746.268 197.896C745.852 197.8 745.436 197.752 745.02 197.752C744.348 197.752 743.846 197.864 743.516 198.088C743.185 198.301 743.02 198.579 743.02 198.92C743.02 199.208 743.116 199.432 743.308 199.592C743.51 199.741 743.766 199.859 744.076 199.944C744.396 200.029 744.748 200.104 745.132 200.168C745.516 200.221 745.9 200.296 746.284 200.392C746.668 200.477 747.014 200.6 747.324 200.76C747.644 200.92 747.9 201.144 748.092 201.432C748.294 201.72 748.396 202.104 748.396 202.584C748.396 203.096 748.246 203.539 747.948 203.912C747.649 204.285 747.228 204.579 746.684 204.792C746.14 204.995 745.489 205.096 744.732 205.096ZM752.497 205.096C751.793 205.096 751.121 205 750.481 204.808C749.852 204.616 749.356 204.381 748.993 204.104L749.633 202.888C749.996 203.133 750.444 203.341 750.977 203.512C751.511 203.683 752.055 203.768 752.609 203.768C753.324 203.768 753.836 203.667 754.145 203.464C754.465 203.261 754.625 202.979 754.625 202.616C754.625 202.349 754.529 202.141 754.337 201.992C754.145 201.843 753.889 201.731 753.569 201.656C753.26 201.581 752.913 201.517 752.529 201.464C752.145 201.4 751.761 201.325 751.377 201.24C750.993 201.144 750.641 201.016 750.321 200.856C750.001 200.685 749.745 200.456 749.553 200.168C749.361 199.869 749.265 199.475 749.265 198.984C749.265 198.472 749.409 198.024 749.697 197.64C749.985 197.256 750.391 196.963 750.913 196.76C751.447 196.547 752.076 196.44 752.801 196.44C753.356 196.44 753.916 196.509 754.481 196.648C755.057 196.776 755.527 196.963 755.889 197.208L755.233 198.424C754.849 198.168 754.449 197.992 754.033 197.896C753.617 197.8 753.201 197.752 752.785 197.752C752.113 197.752 751.612 197.864 751.281 198.088C750.951 198.301 750.785 198.579 750.785 198.92C750.785 199.208 750.881 199.432 751.073 199.592C751.276 199.741 751.532 199.859 751.841 199.944C752.161 200.029 752.513 200.104 752.897 200.168C753.281 200.221 753.665 200.296 754.049 200.392C754.433 200.477 754.78 200.6 755.089 200.76C755.409 200.92 755.665 201.144 755.857 201.432C756.06 201.72 756.161 202.104 756.161 202.584C756.161 203.096 756.012 203.539 755.713 203.912C755.415 204.285 754.993 204.579 754.449 204.792C753.905 204.995 753.255 205.096 752.497 205.096ZM715.571 227V215.8H719.939C720.92 215.8 721.757 215.955 722.451 216.264C723.144 216.573 723.677 217.021 724.051 217.608C724.424 218.195 724.611 218.893 724.611 219.704C724.611 220.515 724.424 221.213 724.051 221.8C723.677 222.376 723.144 222.819 722.451 223.128C721.757 223.437 720.92 223.592 719.939 223.592H716.451L717.171 222.856V227H715.571ZM723.059 227L720.211 222.936H721.923L724.803 227H723.059ZM717.171 223.016L716.451 222.232H719.891C720.915 222.232 721.688 222.013 722.211 221.576C722.744 221.128 723.011 220.504 723.011 219.704C723.011 218.904 722.744 218.285 722.211 217.848C721.688 217.411 720.915 217.192 719.891 217.192H716.451L717.171 216.392V223.016ZM726.722 227V218.52H728.258V227H726.722ZM727.49 216.888C727.191 216.888 726.94 216.792 726.738 216.6C726.546 216.408 726.45 216.173 726.45 215.896C726.45 215.608 726.546 215.368 726.738 215.176C726.94 214.984 727.191 214.888 727.49 214.888C727.788 214.888 728.034 214.984 728.226 215.176C728.428 215.357 728.53 215.587 728.53 215.864C728.53 216.152 728.434 216.397 728.242 216.6C728.05 216.792 727.799 216.888 727.49 216.888ZM733.372 227.096C732.668 227.096 731.996 227 731.356 226.808C730.727 226.616 730.231 226.381 729.868 226.104L730.508 224.888C730.871 225.133 731.319 225.341 731.852 225.512C732.386 225.683 732.93 225.768 733.484 225.768C734.199 225.768 734.711 225.667 735.02 225.464C735.34 225.261 735.5 224.979 735.5 224.616C735.5 224.349 735.404 224.141 735.212 223.992C735.02 223.843 734.764 223.731 734.444 223.656C734.135 223.581 733.788 223.517 733.404 223.464C733.02 223.4 732.636 223.325 732.252 223.24C731.868 223.144 731.516 223.016 731.196 222.856C730.876 222.685 730.62 222.456 730.428 222.168C730.236 221.869 730.14 221.475 730.14 220.984C730.14 220.472 730.284 220.024 730.572 219.64C730.86 219.256 731.266 218.963 731.788 218.76C732.322 218.547 732.951 218.44 733.676 218.44C734.231 218.44 734.791 218.509 735.356 218.648C735.932 218.776 736.402 218.963 736.764 219.208L736.108 220.424C735.724 220.168 735.324 219.992 734.908 219.896C734.492 219.8 734.076 219.752 733.66 219.752C732.988 219.752 732.487 219.864 732.156 220.088C731.826 220.301 731.66 220.579 731.66 220.92C731.66 221.208 731.756 221.432 731.948 221.592C732.151 221.741 732.407 221.859 732.716 221.944C733.036 222.029 733.388 222.104 733.772 222.168C734.156 222.221 734.54 222.296 734.924 222.392C735.308 222.477 735.655 222.6 735.964 222.76C736.284 222.92 736.54 223.144 736.732 223.432C736.935 223.72 737.036 224.104 737.036 224.584C737.036 225.096 736.887 225.539 736.588 225.912C736.29 226.285 735.868 226.579 735.324 226.792C734.78 226.995 734.13 227.096 733.372 227.096ZM739.954 224.952L739.986 222.984L744.866 218.52H746.722L742.978 222.2L742.146 222.904L739.954 224.952ZM738.706 227V215.128H740.242V227H738.706ZM745.186 227L741.858 222.872L742.85 221.64L747.074 227H745.186Z" fill="#435CE7"/>
</svg>
