<svg width="327" height="352" viewBox="0 0 327 352" fill="none" xmlns="http://www.w3.org/2000/svg">
<rect width="327" height="352" rx="14" fill="#F6F7FE"/>
<path opacity="0.7" d="M106.241 66.0005H72.9998C69.1338 66.0005 65.9998 69.1345 65.9998 73.0005V153" stroke="#7094F0" stroke-linecap="round" stroke-dasharray="2 4"/>
<path opacity="0.7" d="M220.759 286L254 286C257.866 286 261 282.866 261 279L261 199" stroke="#7094F0" stroke-linecap="round" stroke-dasharray="2 4"/>
<path opacity="0.7" d="M153 286L73 286C69.134 286 66 282.866 66 279L66 245L66 239.5L66 235.5" stroke="#7094F0" stroke-linecap="round" stroke-dasharray="2 4"/>
<path opacity="0.7" d="M174 66L254 66C257.866 66 261 69.134 261 73L261 107L261 112.5L261 119" stroke="#7094F0" stroke-linecap="round" stroke-dasharray="2 4"/>
<path d="M65.2318 231.922L62.3668 235.36C61.824 236.011 62.2872 237 63.135 237H68.865C69.7128 237 70.176 236.011 69.6332 235.36L66.7682 231.922C66.3684 231.442 65.6316 231.442 65.2318 231.922Z" fill="#7094F0"/>
<path d="M261.768 120.078L264.633 116.64C265.176 115.989 264.713 115 263.865 115L258.135 115C257.287 115 256.824 115.989 257.367 116.64L260.232 120.078C260.632 120.558 261.368 120.558 261.768 120.078Z" fill="#7094F0"/>
<path d="M108.078 65.2318L104.64 62.3668C103.989 61.824 103 62.2872 103 63.135L103 68.865C103 69.7128 103.989 70.176 104.64 69.6332L108.078 66.7682C108.558 66.3684 108.558 65.6316 108.078 65.2318Z" fill="#7094F0"/>
<path d="M219.922 286.768L223.36 289.633C224.011 290.176 225 289.713 225 288.865L225 283.135C225 282.287 224.011 281.824 223.36 282.367L219.922 285.232C219.442 285.632 219.442 286.368 219.922 286.768Z" fill="#7094F0"/>
<circle cx="164" cy="66" r="49.5" fill="white" stroke="#435CE7"/>
<circle cx="164" cy="286" r="49.5" fill="white" stroke="#435CE7"/>
<circle cx="66" cy="176" r="49.5" fill="white" stroke="#435CE7"/>
<circle cx="261" cy="176" r="49.5" fill="white" stroke="#435CE7"/>
<path d="M139.556 61V51.2H140.956V61H139.556ZM146.51 61.084C145.791 61.084 145.147 60.9253 144.578 60.608C144.018 60.2907 143.575 59.8473 143.248 59.278C142.921 58.7087 142.758 58.046 142.758 57.29C142.758 56.534 142.921 55.876 143.248 55.316C143.575 54.7467 144.018 54.3033 144.578 53.986C145.147 53.6687 145.791 53.51 146.51 53.51C147.135 53.51 147.7 53.65 148.204 53.93C148.708 54.21 149.109 54.63 149.408 55.19C149.716 55.75 149.87 56.45 149.87 57.29C149.87 58.13 149.721 58.83 149.422 59.39C149.133 59.95 148.736 60.3747 148.232 60.664C147.728 60.944 147.154 61.084 146.51 61.084ZM146.622 59.908C147.089 59.908 147.509 59.8007 147.882 59.586C148.265 59.3713 148.563 59.068 148.778 58.676C149.002 58.2747 149.114 57.8127 149.114 57.29C149.114 56.758 149.002 56.3007 148.778 55.918C148.563 55.526 148.265 55.2227 147.882 55.008C147.509 54.7933 147.089 54.686 146.622 54.686C146.146 54.686 145.721 54.7933 145.348 55.008C144.975 55.2227 144.676 55.526 144.452 55.918C144.228 56.3007 144.116 56.758 144.116 57.29C144.116 57.8127 144.228 58.2747 144.452 58.676C144.676 59.068 144.975 59.3713 145.348 59.586C145.721 59.8007 146.146 59.908 146.622 59.908ZM149.156 61V58.998L149.24 57.276L149.1 55.554V50.612H150.444V61H149.156ZM156.041 61.084C155.248 61.084 154.548 60.9207 153.941 60.594C153.344 60.2673 152.877 59.8193 152.541 59.25C152.214 58.6807 152.051 58.0273 152.051 57.29C152.051 56.5527 152.21 55.8993 152.527 55.33C152.854 54.7607 153.297 54.3173 153.857 54C154.426 53.6733 155.066 53.51 155.775 53.51C156.494 53.51 157.128 53.6687 157.679 53.986C158.23 54.3033 158.659 54.7513 158.967 55.33C159.284 55.8993 159.443 56.5667 159.443 57.332C159.443 57.388 159.438 57.4533 159.429 57.528C159.429 57.6027 159.424 57.6727 159.415 57.738H153.101V56.772H158.715L158.169 57.108C158.178 56.632 158.08 56.2073 157.875 55.834C157.67 55.4607 157.385 55.1713 157.021 54.966C156.666 54.7513 156.251 54.644 155.775 54.644C155.308 54.644 154.893 54.7513 154.529 54.966C154.165 55.1713 153.88 55.4653 153.675 55.848C153.47 56.2213 153.367 56.6507 153.367 57.136V57.36C153.367 57.8547 153.479 58.298 153.703 58.69C153.936 59.0727 154.258 59.3713 154.669 59.586C155.08 59.8007 155.551 59.908 156.083 59.908C156.522 59.908 156.918 59.8333 157.273 59.684C157.637 59.5347 157.954 59.3107 158.225 59.012L158.967 59.88C158.631 60.272 158.211 60.5707 157.707 60.776C157.212 60.9813 156.657 61.084 156.041 61.084ZM165.021 53.51C165.628 53.51 166.16 53.6267 166.617 53.86C167.084 54.0933 167.448 54.448 167.709 54.924C167.97 55.4 168.101 56.002 168.101 56.73V61H166.757V56.884C166.757 56.1653 166.58 55.624 166.225 55.26C165.88 54.896 165.39 54.714 164.755 54.714C164.279 54.714 163.864 54.8073 163.509 54.994C163.154 55.1807 162.879 55.456 162.683 55.82C162.496 56.184 162.403 56.6367 162.403 57.178V61H161.059V53.58H162.347V55.582L162.137 55.05C162.38 54.5647 162.753 54.1867 163.257 53.916C163.761 53.6453 164.349 53.51 165.021 53.51ZM172.886 61.084C172.14 61.084 171.561 60.8833 171.15 60.482C170.74 60.0807 170.534 59.5067 170.534 58.76V51.956H171.878V58.704C171.878 59.1053 171.976 59.4133 172.172 59.628C172.378 59.8427 172.667 59.95 173.04 59.95C173.46 59.95 173.81 59.8333 174.09 59.6L174.51 60.566C174.305 60.7433 174.058 60.874 173.768 60.958C173.488 61.042 173.194 61.084 172.886 61.084ZM169.274 54.686V53.58H174.006V54.686H169.274ZM175.885 61V53.58H177.229V61H175.885ZM176.557 52.152C176.296 52.152 176.077 52.068 175.899 51.9C175.731 51.732 175.647 51.5267 175.647 51.284C175.647 51.032 175.731 50.822 175.899 50.654C176.077 50.486 176.296 50.402 176.557 50.402C176.819 50.402 177.033 50.486 177.201 50.654C177.379 50.8127 177.467 51.0133 177.467 51.256C177.467 51.508 177.383 51.7227 177.215 51.9C177.047 52.068 176.828 52.152 176.557 52.152ZM179.741 61V52.922C179.741 52.194 179.951 51.6153 180.371 51.186C180.801 50.7473 181.407 50.528 182.191 50.528C182.481 50.528 182.756 50.5653 183.017 50.64C183.288 50.7053 183.517 50.8127 183.703 50.962L183.297 51.984C183.157 51.872 182.999 51.788 182.821 51.732C182.644 51.6667 182.457 51.634 182.261 51.634C181.869 51.634 181.571 51.746 181.365 51.97C181.16 52.1847 181.057 52.5067 181.057 52.936V53.93L181.085 54.546V61H179.741ZM178.481 54.686V53.58H183.213V54.686H178.481ZM184.69 63.8C184.335 63.8 183.99 63.7393 183.654 63.618C183.318 63.506 183.028 63.338 182.786 63.114L183.36 62.106C183.546 62.2833 183.752 62.4187 183.976 62.512C184.2 62.6053 184.438 62.652 184.69 62.652C185.016 62.652 185.287 62.568 185.502 62.4C185.716 62.232 185.917 61.9333 186.104 61.504L186.566 60.482L186.706 60.314L189.618 53.58H190.934L187.336 61.742C187.121 62.2647 186.878 62.6753 186.608 62.974C186.346 63.2727 186.057 63.4827 185.74 63.604C185.422 63.7347 185.072 63.8 184.69 63.8ZM186.454 61.238L183.066 53.58H184.466L187.35 60.188L186.454 61.238ZM151.484 81V71.2H155.306C156.164 71.2 156.897 71.3353 157.504 71.606C158.11 71.8767 158.577 72.2687 158.904 72.782C159.23 73.2953 159.394 73.9067 159.394 74.616C159.394 75.3253 159.23 75.9367 158.904 76.45C158.577 76.954 158.11 77.3413 157.504 77.612C156.897 77.8827 156.164 78.018 155.306 78.018H152.254L152.884 77.374V81H151.484ZM158.036 81L155.544 77.444H157.042L159.562 81H158.036ZM152.884 77.514L152.254 76.828H155.264C156.16 76.828 156.836 76.6367 157.294 76.254C157.76 75.862 157.994 75.316 157.994 74.616C157.994 73.916 157.76 73.3747 157.294 72.992C156.836 72.6093 156.16 72.418 155.264 72.418H152.254L152.884 71.718V77.514ZM161.21 81V73.58H162.554V81H161.21ZM161.882 72.152C161.62 72.152 161.401 72.068 161.224 71.9C161.056 71.732 160.972 71.5267 160.972 71.284C160.972 71.032 161.056 70.822 161.224 70.654C161.401 70.486 161.62 70.402 161.882 70.402C162.143 70.402 162.358 70.486 162.526 70.654C162.703 70.8127 162.792 71.0133 162.792 71.256C162.792 71.508 162.708 71.7227 162.54 71.9C162.372 72.068 162.152 72.152 161.882 72.152ZM166.998 81.084C166.382 81.084 165.794 81 165.234 80.832C164.683 80.664 164.249 80.4587 163.932 80.216L164.492 79.152C164.809 79.3667 165.201 79.5487 165.668 79.698C166.134 79.8473 166.61 79.922 167.096 79.922C167.721 79.922 168.169 79.8333 168.44 79.656C168.72 79.4787 168.86 79.2313 168.86 78.914C168.86 78.6807 168.776 78.4987 168.608 78.368C168.44 78.2373 168.216 78.1393 167.936 78.074C167.665 78.0087 167.362 77.9527 167.026 77.906C166.69 77.85 166.354 77.7847 166.018 77.71C165.682 77.626 165.374 77.514 165.094 77.374C164.814 77.2247 164.59 77.024 164.422 76.772C164.254 76.5107 164.17 76.1653 164.17 75.736C164.17 75.288 164.296 74.896 164.548 74.56C164.8 74.224 165.154 73.9673 165.612 73.79C166.078 73.6033 166.629 73.51 167.264 73.51C167.749 73.51 168.239 73.5707 168.734 73.692C169.238 73.804 169.648 73.9673 169.966 74.182L169.392 75.246C169.056 75.022 168.706 74.868 168.342 74.784C167.978 74.7 167.614 74.658 167.25 74.658C166.662 74.658 166.223 74.756 165.934 74.952C165.644 75.1387 165.5 75.3813 165.5 75.68C165.5 75.932 165.584 76.128 165.752 76.268C165.929 76.3987 166.153 76.5013 166.424 76.576C166.704 76.6507 167.012 76.716 167.348 76.772C167.684 76.8187 168.02 76.884 168.356 76.968C168.692 77.0427 168.995 77.15 169.266 77.29C169.546 77.43 169.77 77.626 169.938 77.878C170.115 78.13 170.204 78.466 170.204 78.886C170.204 79.334 170.073 79.7213 169.812 80.048C169.55 80.3747 169.182 80.6313 168.706 80.818C168.23 80.9953 167.66 81.084 166.998 81.084ZM172.725 79.208L172.753 77.486L177.023 73.58H178.647L175.371 76.8L174.643 77.416L172.725 79.208ZM171.633 81V70.612H172.977V81H171.633ZM177.303 81L174.391 77.388L175.259 76.31L178.955 81H177.303Z" fill="#435CE7"/>
<path d="M133.59 281V271.2H137.412C138.271 271.2 139.003 271.335 139.61 271.606C140.217 271.877 140.683 272.269 141.01 272.782C141.337 273.295 141.5 273.907 141.5 274.616C141.5 275.325 141.337 275.937 141.01 276.45C140.683 276.954 140.217 277.341 139.61 277.612C139.003 277.883 138.271 278.018 137.412 278.018H134.36L134.99 277.374V281H133.59ZM140.142 281L137.65 277.444H139.148L141.668 281H140.142ZM134.99 277.514L134.36 276.828H137.37C138.266 276.828 138.943 276.637 139.4 276.254C139.867 275.862 140.1 275.316 140.1 274.616C140.1 273.916 139.867 273.375 139.4 272.992C138.943 272.609 138.266 272.418 137.37 272.418H134.36L134.99 271.718V277.514ZM146.62 281.084C145.827 281.084 145.127 280.921 144.52 280.594C143.923 280.267 143.456 279.819 143.12 279.25C142.793 278.681 142.63 278.027 142.63 277.29C142.63 276.553 142.789 275.899 143.106 275.33C143.433 274.761 143.876 274.317 144.436 274C145.005 273.673 145.645 273.51 146.354 273.51C147.073 273.51 147.707 273.669 148.258 273.986C148.809 274.303 149.238 274.751 149.546 275.33C149.863 275.899 150.022 276.567 150.022 277.332C150.022 277.388 150.017 277.453 150.008 277.528C150.008 277.603 150.003 277.673 149.994 277.738H143.68V276.772H149.294L148.748 277.108C148.757 276.632 148.659 276.207 148.454 275.834C148.249 275.461 147.964 275.171 147.6 274.966C147.245 274.751 146.83 274.644 146.354 274.644C145.887 274.644 145.472 274.751 145.108 274.966C144.744 275.171 144.459 275.465 144.254 275.848C144.049 276.221 143.946 276.651 143.946 277.136V277.36C143.946 277.855 144.058 278.298 144.282 278.69C144.515 279.073 144.837 279.371 145.248 279.586C145.659 279.801 146.13 279.908 146.662 279.908C147.101 279.908 147.497 279.833 147.852 279.684C148.216 279.535 148.533 279.311 148.804 279.012L149.546 279.88C149.21 280.272 148.79 280.571 148.286 280.776C147.791 280.981 147.236 281.084 146.62 281.084ZM153.766 281.084C153.15 281.084 152.562 281 152.002 280.832C151.452 280.664 151.018 280.459 150.7 280.216L151.26 279.152C151.578 279.367 151.97 279.549 152.436 279.698C152.903 279.847 153.379 279.922 153.864 279.922C154.49 279.922 154.938 279.833 155.208 279.656C155.488 279.479 155.628 279.231 155.628 278.914C155.628 278.681 155.544 278.499 155.376 278.368C155.208 278.237 154.984 278.139 154.704 278.074C154.434 278.009 154.13 277.953 153.794 277.906C153.458 277.85 153.122 277.785 152.786 277.71C152.45 277.626 152.142 277.514 151.862 277.374C151.582 277.225 151.358 277.024 151.19 276.772C151.022 276.511 150.938 276.165 150.938 275.736C150.938 275.288 151.064 274.896 151.316 274.56C151.568 274.224 151.923 273.967 152.38 273.79C152.847 273.603 153.398 273.51 154.032 273.51C154.518 273.51 155.008 273.571 155.502 273.692C156.006 273.804 156.417 273.967 156.734 274.182L156.16 275.246C155.824 275.022 155.474 274.868 155.11 274.784C154.746 274.7 154.382 274.658 154.018 274.658C153.43 274.658 152.992 274.756 152.702 274.952C152.413 275.139 152.268 275.381 152.268 275.68C152.268 275.932 152.352 276.128 152.52 276.268C152.698 276.399 152.922 276.501 153.192 276.576C153.472 276.651 153.78 276.716 154.116 276.772C154.452 276.819 154.788 276.884 155.124 276.968C155.46 277.043 155.764 277.15 156.034 277.29C156.314 277.43 156.538 277.626 156.706 277.878C156.884 278.13 156.972 278.466 156.972 278.886C156.972 279.334 156.842 279.721 156.58 280.048C156.319 280.375 155.95 280.631 155.474 280.818C154.998 280.995 154.429 281.084 153.766 281.084ZM162.336 281.084C161.72 281.084 161.155 280.944 160.642 280.664C160.138 280.375 159.732 279.95 159.424 279.39C159.125 278.83 158.976 278.13 158.976 277.29C158.976 276.45 159.121 275.75 159.41 275.19C159.709 274.63 160.11 274.21 160.614 273.93C161.127 273.65 161.701 273.51 162.336 273.51C163.064 273.51 163.708 273.669 164.268 273.986C164.828 274.303 165.271 274.747 165.598 275.316C165.925 275.876 166.088 276.534 166.088 277.29C166.088 278.046 165.925 278.709 165.598 279.278C165.271 279.847 164.828 280.291 164.268 280.608C163.708 280.925 163.064 281.084 162.336 281.084ZM158.402 283.716V273.58H159.69V275.582L159.606 277.304L159.746 279.026V283.716H158.402ZM162.224 279.908C162.7 279.908 163.125 279.801 163.498 279.586C163.881 279.371 164.179 279.068 164.394 278.676C164.618 278.275 164.73 277.813 164.73 277.29C164.73 276.758 164.618 276.301 164.394 275.918C164.179 275.526 163.881 275.223 163.498 275.008C163.125 274.793 162.7 274.686 162.224 274.686C161.757 274.686 161.333 274.793 160.95 275.008C160.577 275.223 160.278 275.526 160.054 275.918C159.839 276.301 159.732 276.758 159.732 277.29C159.732 277.813 159.839 278.275 160.054 278.676C160.278 279.068 160.577 279.371 160.95 279.586C161.333 279.801 161.757 279.908 162.224 279.908ZM170.873 281.084C170.126 281.084 169.464 280.921 168.885 280.594C168.306 280.267 167.849 279.819 167.513 279.25C167.177 278.671 167.009 278.018 167.009 277.29C167.009 276.553 167.177 275.899 167.513 275.33C167.849 274.761 168.306 274.317 168.885 274C169.464 273.673 170.126 273.51 170.873 273.51C171.61 273.51 172.268 273.673 172.847 274C173.435 274.317 173.892 274.761 174.219 275.33C174.555 275.89 174.723 276.543 174.723 277.29C174.723 278.027 174.555 278.681 174.219 279.25C173.892 279.819 173.435 280.267 172.847 280.594C172.268 280.921 171.61 281.084 170.873 281.084ZM170.873 279.908C171.349 279.908 171.774 279.801 172.147 279.586C172.53 279.371 172.828 279.068 173.043 278.676C173.258 278.275 173.365 277.813 173.365 277.29C173.365 276.758 173.258 276.301 173.043 275.918C172.828 275.526 172.53 275.223 172.147 275.008C171.774 274.793 171.349 274.686 170.873 274.686C170.397 274.686 169.972 274.793 169.599 275.008C169.226 275.223 168.927 275.526 168.703 275.918C168.479 276.301 168.367 276.758 168.367 277.29C168.367 277.813 168.479 278.275 168.703 278.676C168.927 279.068 169.226 279.371 169.599 279.586C169.972 279.801 170.397 279.908 170.873 279.908ZM180.294 273.51C180.9 273.51 181.432 273.627 181.89 273.86C182.356 274.093 182.72 274.448 182.982 274.924C183.243 275.4 183.374 276.002 183.374 276.73V281H182.03V276.884C182.03 276.165 181.852 275.624 181.498 275.26C181.152 274.896 180.662 274.714 180.028 274.714C179.552 274.714 179.136 274.807 178.782 274.994C178.427 275.181 178.152 275.456 177.956 275.82C177.769 276.184 177.676 276.637 177.676 277.178V281H176.332V273.58H177.62V275.582L177.41 275.05C177.652 274.565 178.026 274.187 178.53 273.916C179.034 273.645 179.622 273.51 180.294 273.51ZM188.677 281.084C187.958 281.084 187.314 280.925 186.745 280.608C186.185 280.291 185.742 279.847 185.415 279.278C185.088 278.709 184.925 278.046 184.925 277.29C184.925 276.534 185.088 275.876 185.415 275.316C185.742 274.747 186.185 274.303 186.745 273.986C187.314 273.669 187.958 273.51 188.677 273.51C189.302 273.51 189.867 273.65 190.371 273.93C190.875 274.21 191.276 274.63 191.575 275.19C191.883 275.75 192.037 276.45 192.037 277.29C192.037 278.13 191.888 278.83 191.589 279.39C191.3 279.95 190.903 280.375 190.399 280.664C189.895 280.944 189.321 281.084 188.677 281.084ZM188.789 279.908C189.256 279.908 189.676 279.801 190.049 279.586C190.432 279.371 190.73 279.068 190.945 278.676C191.169 278.275 191.281 277.813 191.281 277.29C191.281 276.758 191.169 276.301 190.945 275.918C190.73 275.526 190.432 275.223 190.049 275.008C189.676 274.793 189.256 274.686 188.789 274.686C188.313 274.686 187.888 274.793 187.515 275.008C187.142 275.223 186.843 275.526 186.619 275.918C186.395 276.301 186.283 276.758 186.283 277.29C186.283 277.813 186.395 278.275 186.619 278.676C186.843 279.068 187.142 279.371 187.515 279.586C187.888 279.801 188.313 279.908 188.789 279.908ZM191.323 281V278.998L191.407 277.276L191.267 275.554V270.612H192.611V281H191.323ZM143.612 301.084C142.865 301.084 142.287 300.883 141.876 300.482C141.465 300.081 141.26 299.507 141.26 298.76V291.956H142.604V298.704C142.604 299.105 142.702 299.413 142.898 299.628C143.103 299.843 143.393 299.95 143.766 299.95C144.186 299.95 144.536 299.833 144.816 299.6L145.236 300.566C145.031 300.743 144.783 300.874 144.494 300.958C144.214 301.042 143.92 301.084 143.612 301.084ZM140 294.686V293.58H144.732V294.686H140ZM149.543 301.084C148.796 301.084 148.133 300.921 147.555 300.594C146.976 300.267 146.519 299.819 146.183 299.25C145.847 298.671 145.679 298.018 145.679 297.29C145.679 296.553 145.847 295.899 146.183 295.33C146.519 294.761 146.976 294.317 147.555 294C148.133 293.673 148.796 293.51 149.543 293.51C150.28 293.51 150.938 293.673 151.517 294C152.105 294.317 152.562 294.761 152.889 295.33C153.225 295.89 153.393 296.543 153.393 297.29C153.393 298.027 153.225 298.681 152.889 299.25C152.562 299.819 152.105 300.267 151.517 300.594C150.938 300.921 150.28 301.084 149.543 301.084ZM149.543 299.908C150.019 299.908 150.443 299.801 150.817 299.586C151.199 299.371 151.498 299.068 151.713 298.676C151.927 298.275 152.035 297.813 152.035 297.29C152.035 296.758 151.927 296.301 151.713 295.918C151.498 295.526 151.199 295.223 150.817 295.008C150.443 294.793 150.019 294.686 149.543 294.686C149.067 294.686 148.642 294.793 148.269 295.008C147.895 295.223 147.597 295.526 147.373 295.918C147.149 296.301 147.037 296.758 147.037 297.29C147.037 297.813 147.149 298.275 147.373 298.676C147.597 299.068 147.895 299.371 148.269 299.586C148.642 299.801 149.067 299.908 149.543 299.908ZM158.707 301V291.2H162.529C163.388 291.2 164.121 291.335 164.727 291.606C165.334 291.877 165.801 292.269 166.127 292.782C166.454 293.295 166.617 293.907 166.617 294.616C166.617 295.325 166.454 295.937 166.127 296.45C165.801 296.954 165.334 297.341 164.727 297.612C164.121 297.883 163.388 298.018 162.529 298.018H159.477L160.107 297.374V301H158.707ZM165.259 301L162.767 297.444H164.265L166.785 301H165.259ZM160.107 297.514L159.477 296.828H162.487C163.383 296.828 164.06 296.637 164.517 296.254C164.984 295.862 165.217 295.316 165.217 294.616C165.217 293.916 164.984 293.375 164.517 292.992C164.06 292.609 163.383 292.418 162.487 292.418H159.477L160.107 291.718V297.514ZM168.433 301V293.58H169.777V301H168.433ZM169.105 292.152C168.844 292.152 168.625 292.068 168.447 291.9C168.279 291.732 168.195 291.527 168.195 291.284C168.195 291.032 168.279 290.822 168.447 290.654C168.625 290.486 168.844 290.402 169.105 290.402C169.367 290.402 169.581 290.486 169.749 290.654C169.927 290.813 170.015 291.013 170.015 291.256C170.015 291.508 169.931 291.723 169.763 291.9C169.595 292.068 169.376 292.152 169.105 292.152ZM174.221 301.084C173.605 301.084 173.017 301 172.457 300.832C171.907 300.664 171.473 300.459 171.155 300.216L171.715 299.152C172.033 299.367 172.425 299.549 172.891 299.698C173.358 299.847 173.834 299.922 174.319 299.922C174.945 299.922 175.393 299.833 175.663 299.656C175.943 299.479 176.083 299.231 176.083 298.914C176.083 298.681 175.999 298.499 175.831 298.368C175.663 298.237 175.439 298.139 175.159 298.074C174.889 298.009 174.585 297.953 174.249 297.906C173.913 297.85 173.577 297.785 173.241 297.71C172.905 297.626 172.597 297.514 172.317 297.374C172.037 297.225 171.813 297.024 171.645 296.772C171.477 296.511 171.393 296.165 171.393 295.736C171.393 295.288 171.519 294.896 171.771 294.56C172.023 294.224 172.378 293.967 172.835 293.79C173.302 293.603 173.853 293.51 174.487 293.51C174.973 293.51 175.463 293.571 175.957 293.692C176.461 293.804 176.872 293.967 177.189 294.182L176.615 295.246C176.279 295.022 175.929 294.868 175.565 294.784C175.201 294.7 174.837 294.658 174.473 294.658C173.885 294.658 173.447 294.756 173.157 294.952C172.868 295.139 172.723 295.381 172.723 295.68C172.723 295.932 172.807 296.128 172.975 296.268C173.153 296.399 173.377 296.501 173.647 296.576C173.927 296.651 174.235 296.716 174.571 296.772C174.907 296.819 175.243 296.884 175.579 296.968C175.915 297.043 176.219 297.15 176.489 297.29C176.769 297.43 176.993 297.626 177.161 297.878C177.339 298.13 177.427 298.466 177.427 298.886C177.427 299.334 177.297 299.721 177.035 300.048C176.774 300.375 176.405 300.631 175.929 300.818C175.453 300.995 174.884 301.084 174.221 301.084ZM179.949 299.208L179.977 297.486L184.247 293.58H185.871L182.595 296.8L181.867 297.416L179.949 299.208ZM178.857 301V290.612H180.201V301H178.857ZM184.527 301L181.615 297.388L182.483 296.31L186.179 301H184.527Z" fill="#435CE7"/>
<path d="M39.6585 161V151.2H40.8065L45.2025 158.606H44.5865L48.9265 151.2H50.0745L50.0885 161H48.7445L48.7305 153.314H49.0525L45.1885 159.81H44.5445L40.6525 153.314H41.0025V161H39.6585ZM57.1896 161V159.432L57.1196 159.138V156.464C57.1196 155.895 56.9516 155.456 56.6156 155.148C56.2889 154.831 55.7942 154.672 55.1316 154.672C54.6929 154.672 54.2636 154.747 53.8436 154.896C53.4236 155.036 53.0689 155.227 52.7796 155.47L52.2196 154.462C52.6022 154.154 53.0596 153.921 53.5916 153.762C54.1329 153.594 54.6976 153.51 55.2856 153.51C56.3029 153.51 57.0869 153.757 57.6376 154.252C58.1882 154.747 58.4636 155.503 58.4636 156.52V161H57.1896ZM54.7536 161.084C54.2029 161.084 53.7176 160.991 53.2976 160.804C52.8869 160.617 52.5696 160.361 52.3456 160.034C52.1216 159.698 52.0096 159.32 52.0096 158.9C52.0096 158.499 52.1029 158.135 52.2896 157.808C52.4856 157.481 52.7982 157.22 53.2276 157.024C53.6662 156.828 54.2542 156.73 54.9916 156.73H57.3436V157.696H55.0476C54.3756 157.696 53.9229 157.808 53.6896 158.032C53.4562 158.256 53.3396 158.527 53.3396 158.844C53.3396 159.208 53.4842 159.502 53.7736 159.726C54.0629 159.941 54.4642 160.048 54.9776 160.048C55.4816 160.048 55.9202 159.936 56.2936 159.712C56.6762 159.488 56.9516 159.161 57.1196 158.732L57.3856 159.656C57.2082 160.095 56.8956 160.445 56.4476 160.706C55.9996 160.958 55.4349 161.084 54.7536 161.084ZM64.6628 153.51C65.2694 153.51 65.8014 153.627 66.2588 153.86C66.7254 154.093 67.0894 154.448 67.3508 154.924C67.6121 155.4 67.7428 156.002 67.7428 156.73V161H66.3988V156.884C66.3988 156.165 66.2214 155.624 65.8668 155.26C65.5214 154.896 65.0314 154.714 64.3968 154.714C63.9208 154.714 63.5054 154.807 63.1508 154.994C62.7961 155.181 62.5208 155.456 62.3248 155.82C62.1381 156.184 62.0448 156.637 62.0448 157.178V161H60.7008V153.58H61.9888V155.582L61.7788 155.05C62.0214 154.565 62.3948 154.187 62.8988 153.916C63.4028 153.645 63.9908 153.51 64.6628 153.51ZM74.5861 161V159.432L74.5161 159.138V156.464C74.5161 155.895 74.3481 155.456 74.0121 155.148C73.6854 154.831 73.1907 154.672 72.5281 154.672C72.0894 154.672 71.6601 154.747 71.2401 154.896C70.8201 155.036 70.4654 155.227 70.1761 155.47L69.6161 154.462C69.9987 154.154 70.4561 153.921 70.9881 153.762C71.5294 153.594 72.0941 153.51 72.6821 153.51C73.6994 153.51 74.4834 153.757 75.0341 154.252C75.5847 154.747 75.8601 155.503 75.8601 156.52V161H74.5861ZM72.1501 161.084C71.5994 161.084 71.1141 160.991 70.6941 160.804C70.2834 160.617 69.9661 160.361 69.7421 160.034C69.5181 159.698 69.4061 159.32 69.4061 158.9C69.4061 158.499 69.4994 158.135 69.6861 157.808C69.8821 157.481 70.1947 157.22 70.6241 157.024C71.0627 156.828 71.6507 156.73 72.3881 156.73H74.7401V157.696H72.4441C71.7721 157.696 71.3194 157.808 71.0861 158.032C70.8527 158.256 70.7361 158.527 70.7361 158.844C70.7361 159.208 70.8807 159.502 71.1701 159.726C71.4594 159.941 71.8607 160.048 72.3741 160.048C72.8781 160.048 73.3167 159.936 73.6901 159.712C74.0727 159.488 74.3481 159.161 74.5161 158.732L74.7821 159.656C74.6047 160.095 74.2921 160.445 73.8441 160.706C73.3961 160.958 72.8314 161.084 72.1501 161.084ZM81.3452 163.8C80.6639 163.8 80.0012 163.702 79.3572 163.506C78.7226 163.319 78.2046 163.049 77.8032 162.694L78.4472 161.658C78.7926 161.957 79.2172 162.19 79.7212 162.358C80.2252 162.535 80.7526 162.624 81.3032 162.624C82.1806 162.624 82.8246 162.419 83.2352 162.008C83.6459 161.597 83.8512 160.972 83.8512 160.132V158.564L83.9912 157.094L83.9212 155.61V153.58H85.1952V159.992C85.1952 161.299 84.8686 162.26 84.2152 162.876C83.5619 163.492 82.6052 163.8 81.3452 163.8ZM81.1772 160.692C80.4586 160.692 79.8146 160.543 79.2452 160.244C78.6852 159.936 78.2372 159.511 77.9012 158.97C77.5746 158.429 77.4112 157.803 77.4112 157.094C77.4112 156.375 77.5746 155.75 77.9012 155.218C78.2372 154.677 78.6852 154.257 79.2452 153.958C79.8146 153.659 80.4586 153.51 81.1772 153.51C81.8119 153.51 82.3906 153.641 82.9132 153.902C83.4359 154.154 83.8512 154.546 84.1592 155.078C84.4766 155.61 84.6352 156.282 84.6352 157.094C84.6352 157.897 84.4766 158.564 84.1592 159.096C83.8512 159.628 83.4359 160.029 82.9132 160.3C82.3906 160.561 81.8119 160.692 81.1772 160.692ZM81.3312 159.516C81.8259 159.516 82.2646 159.413 82.6472 159.208C83.0299 159.003 83.3286 158.718 83.5432 158.354C83.7672 157.99 83.8792 157.57 83.8792 157.094C83.8792 156.618 83.7672 156.198 83.5432 155.834C83.3286 155.47 83.0299 155.19 82.6472 154.994C82.2646 154.789 81.8259 154.686 81.3312 154.686C80.8366 154.686 80.3932 154.789 80.0012 154.994C79.6186 155.19 79.3152 155.47 79.0912 155.834C78.8766 156.198 78.7692 156.618 78.7692 157.094C78.7692 157.57 78.8766 157.99 79.0912 158.354C79.3152 158.718 79.6186 159.003 80.0012 159.208C80.3932 159.413 80.8366 159.516 81.3312 159.516ZM90.8173 161.084C90.0239 161.084 89.3239 160.921 88.7173 160.594C88.1199 160.267 87.6533 159.819 87.3173 159.25C86.9906 158.681 86.8273 158.027 86.8273 157.29C86.8273 156.553 86.9859 155.899 87.3033 155.33C87.6299 154.761 88.0733 154.317 88.6333 154C89.2026 153.673 89.8419 153.51 90.5513 153.51C91.2699 153.51 91.9046 153.669 92.4553 153.986C93.0059 154.303 93.4353 154.751 93.7433 155.33C94.0606 155.899 94.2193 156.567 94.2193 157.332C94.2193 157.388 94.2146 157.453 94.2053 157.528C94.2053 157.603 94.2006 157.673 94.1913 157.738H87.8773V156.772H93.4913L92.9453 157.108C92.9546 156.632 92.8566 156.207 92.6513 155.834C92.4459 155.461 92.1613 155.171 91.7973 154.966C91.4426 154.751 91.0273 154.644 90.5513 154.644C90.0846 154.644 89.6693 154.751 89.3053 154.966C88.9413 155.171 88.6566 155.465 88.4513 155.848C88.2459 156.221 88.1433 156.651 88.1433 157.136V157.36C88.1433 157.855 88.2553 158.298 88.4793 158.69C88.7126 159.073 89.0346 159.371 89.4453 159.586C89.8559 159.801 90.3273 159.908 90.8593 159.908C91.2979 159.908 91.6946 159.833 92.0493 159.684C92.4133 159.535 92.7306 159.311 93.0013 159.012L93.7433 159.88C93.4073 160.272 92.9873 160.571 92.4833 160.776C91.9886 160.981 91.4333 161.084 90.8173 161.084ZM53.4837 181V171.2H57.3057C58.1643 171.2 58.897 171.335 59.5037 171.606C60.1103 171.877 60.577 172.269 60.9037 172.782C61.2303 173.295 61.3937 173.907 61.3937 174.616C61.3937 175.325 61.2303 175.937 60.9037 176.45C60.577 176.954 60.1103 177.341 59.5037 177.612C58.897 177.883 58.1643 178.018 57.3057 178.018H54.2537L54.8837 177.374V181H53.4837ZM60.0357 181L57.5437 177.444H59.0417L61.5617 181H60.0357ZM54.8837 177.514L54.2537 176.828H57.2637C58.1597 176.828 58.8363 176.637 59.2937 176.254C59.7603 175.862 59.9937 175.316 59.9937 174.616C59.9937 173.916 59.7603 173.375 59.2937 172.992C58.8363 172.609 58.1597 172.418 57.2637 172.418H54.2537L54.8837 171.718V177.514ZM63.2095 181V173.58H64.5535V181H63.2095ZM63.8815 172.152C63.6202 172.152 63.4009 172.068 63.2235 171.9C63.0555 171.732 62.9715 171.527 62.9715 171.284C62.9715 171.032 63.0555 170.822 63.2235 170.654C63.4009 170.486 63.6202 170.402 63.8815 170.402C64.1429 170.402 64.3575 170.486 64.5255 170.654C64.7029 170.813 64.7915 171.013 64.7915 171.256C64.7915 171.508 64.7075 171.723 64.5395 171.9C64.3715 172.068 64.1522 172.152 63.8815 172.152ZM68.9977 181.084C68.3817 181.084 67.7937 181 67.2337 180.832C66.683 180.664 66.249 180.459 65.9317 180.216L66.4917 179.152C66.809 179.367 67.201 179.549 67.6677 179.698C68.1344 179.847 68.6104 179.922 69.0957 179.922C69.721 179.922 70.169 179.833 70.4397 179.656C70.7197 179.479 70.8597 179.231 70.8597 178.914C70.8597 178.681 70.7757 178.499 70.6077 178.368C70.4397 178.237 70.2157 178.139 69.9357 178.074C69.665 178.009 69.3617 177.953 69.0257 177.906C68.6897 177.85 68.3537 177.785 68.0177 177.71C67.6817 177.626 67.3737 177.514 67.0937 177.374C66.8137 177.225 66.5897 177.024 66.4217 176.772C66.2537 176.511 66.1697 176.165 66.1697 175.736C66.1697 175.288 66.2957 174.896 66.5477 174.56C66.7997 174.224 67.1544 173.967 67.6117 173.79C68.0784 173.603 68.629 173.51 69.2637 173.51C69.749 173.51 70.239 173.571 70.7337 173.692C71.2377 173.804 71.6484 173.967 71.9657 174.182L71.3917 175.246C71.0557 175.022 70.7057 174.868 70.3417 174.784C69.9777 174.7 69.6137 174.658 69.2497 174.658C68.6617 174.658 68.223 174.756 67.9337 174.952C67.6444 175.139 67.4997 175.381 67.4997 175.68C67.4997 175.932 67.5837 176.128 67.7517 176.268C67.929 176.399 68.153 176.501 68.4237 176.576C68.7037 176.651 69.0117 176.716 69.3477 176.772C69.6837 176.819 70.0197 176.884 70.3557 176.968C70.6917 177.043 70.995 177.15 71.2657 177.29C71.5457 177.43 71.7697 177.626 71.9377 177.878C72.115 178.13 72.2037 178.466 72.2037 178.886C72.2037 179.334 72.073 179.721 71.8117 180.048C71.5504 180.375 71.1817 180.631 70.7057 180.818C70.2297 180.995 69.6604 181.084 68.9977 181.084ZM74.7254 179.208L74.7534 177.486L79.0234 173.58H80.6474L77.3714 176.8L76.6434 177.416L74.7254 179.208ZM73.6334 181V170.612H74.9774V181H73.6334ZM79.3034 181L76.3914 177.388L77.2594 176.31L80.9554 181H79.3034ZM50.5029 191.2H51.9029V201H50.5029V191.2ZM44.8749 201H43.4749V191.2H44.8749V201ZM50.6289 196.632H44.7349V195.414H50.6289V196.632ZM54.3902 201V193.58H55.7342V201H54.3902ZM55.0622 192.152C54.8009 192.152 54.5815 192.068 54.4042 191.9C54.2362 191.732 54.1522 191.527 54.1522 191.284C54.1522 191.032 54.2362 190.822 54.4042 190.654C54.5815 190.486 54.8009 190.402 55.0622 190.402C55.3235 190.402 55.5382 190.486 55.7062 190.654C55.8835 190.813 55.9722 191.013 55.9722 191.256C55.9722 191.508 55.8882 191.723 55.7202 191.9C55.5522 192.068 55.3329 192.152 55.0622 192.152ZM60.1784 201.084C59.5624 201.084 58.9744 201 58.4144 200.832C57.8637 200.664 57.4297 200.459 57.1124 200.216L57.6724 199.152C57.9897 199.367 58.3817 199.549 58.8484 199.698C59.315 199.847 59.791 199.922 60.2764 199.922C60.9017 199.922 61.3497 199.833 61.6204 199.656C61.9004 199.479 62.0404 199.231 62.0404 198.914C62.0404 198.681 61.9564 198.499 61.7884 198.368C61.6204 198.237 61.3964 198.139 61.1164 198.074C60.8457 198.009 60.5424 197.953 60.2064 197.906C59.8704 197.85 59.5344 197.785 59.1984 197.71C58.8624 197.626 58.5544 197.514 58.2744 197.374C57.9944 197.225 57.7704 197.024 57.6024 196.772C57.4344 196.511 57.3504 196.165 57.3504 195.736C57.3504 195.288 57.4764 194.896 57.7284 194.56C57.9804 194.224 58.335 193.967 58.7924 193.79C59.259 193.603 59.8097 193.51 60.4444 193.51C60.9297 193.51 61.4197 193.571 61.9144 193.692C62.4184 193.804 62.829 193.967 63.1464 194.182L62.5724 195.246C62.2364 195.022 61.8864 194.868 61.5224 194.784C61.1584 194.7 60.7944 194.658 60.4304 194.658C59.8424 194.658 59.4037 194.756 59.1144 194.952C58.825 195.139 58.6804 195.381 58.6804 195.68C58.6804 195.932 58.7644 196.128 58.9324 196.268C59.1097 196.399 59.3337 196.501 59.6044 196.576C59.8844 196.651 60.1924 196.716 60.5284 196.772C60.8644 196.819 61.2004 196.884 61.5364 196.968C61.8724 197.043 62.1757 197.15 62.4464 197.29C62.7264 197.43 62.9504 197.626 63.1184 197.878C63.2957 198.13 63.3844 198.466 63.3844 198.886C63.3844 199.334 63.2537 199.721 62.9924 200.048C62.731 200.375 62.3624 200.631 61.8864 200.818C61.4104 200.995 60.841 201.084 60.1784 201.084ZM67.362 201.084C66.6154 201.084 66.0367 200.883 65.626 200.482C65.2154 200.081 65.01 199.507 65.01 198.76V191.956H66.354V198.704C66.354 199.105 66.452 199.413 66.648 199.628C66.8534 199.843 67.1427 199.95 67.516 199.95C67.936 199.95 68.286 199.833 68.566 199.6L68.986 200.566C68.7807 200.743 68.5334 200.874 68.244 200.958C67.964 201.042 67.67 201.084 67.362 201.084ZM63.75 194.686V193.58H68.482V194.686H63.75ZM73.2928 201.084C72.5462 201.084 71.8835 200.921 71.3048 200.594C70.7262 200.267 70.2688 199.819 69.9328 199.25C69.5968 198.671 69.4288 198.018 69.4288 197.29C69.4288 196.553 69.5968 195.899 69.9328 195.33C70.2688 194.761 70.7262 194.317 71.3048 194C71.8835 193.673 72.5462 193.51 73.2928 193.51C74.0302 193.51 74.6882 193.673 75.2668 194C75.8548 194.317 76.3122 194.761 76.6388 195.33C76.9748 195.89 77.1428 196.543 77.1428 197.29C77.1428 198.027 76.9748 198.681 76.6388 199.25C76.3122 199.819 75.8548 200.267 75.2668 200.594C74.6882 200.921 74.0302 201.084 73.2928 201.084ZM73.2928 199.908C73.7688 199.908 74.1935 199.801 74.5668 199.586C74.9495 199.371 75.2482 199.068 75.4628 198.676C75.6775 198.275 75.7848 197.813 75.7848 197.29C75.7848 196.758 75.6775 196.301 75.4628 195.918C75.2482 195.526 74.9495 195.223 74.5668 195.008C74.1935 194.793 73.7688 194.686 73.2928 194.686C72.8168 194.686 72.3922 194.793 72.0188 195.008C71.6455 195.223 71.3468 195.526 71.1228 195.918C70.8988 196.301 70.7868 196.758 70.7868 197.29C70.7868 197.813 70.8988 198.275 71.1228 198.676C71.3468 199.068 71.6455 199.371 72.0188 199.586C72.3922 199.801 72.8168 199.908 73.2928 199.908ZM78.7515 201V193.58H80.0395V195.596L79.9135 195.092C80.1189 194.579 80.4642 194.187 80.9495 193.916C81.4349 193.645 82.0322 193.51 82.7415 193.51V194.812C82.6855 194.803 82.6295 194.798 82.5735 194.798C82.5269 194.798 82.4802 194.798 82.4335 194.798C81.7149 194.798 81.1455 195.013 80.7255 195.442C80.3055 195.871 80.0955 196.492 80.0955 197.304V201H78.7515ZM84.7708 203.8C84.4161 203.8 84.0708 203.739 83.7348 203.618C83.3988 203.506 83.1095 203.338 82.8668 203.114L83.4408 202.106C83.6275 202.283 83.8328 202.419 84.0568 202.512C84.2808 202.605 84.5188 202.652 84.7708 202.652C85.0975 202.652 85.3681 202.568 85.5828 202.4C85.7975 202.232 85.9981 201.933 86.1848 201.504L86.6468 200.482L86.7868 200.314L89.6988 193.58H91.0148L87.4168 201.742C87.2021 202.265 86.9595 202.675 86.6888 202.974C86.4275 203.273 86.1381 203.483 85.8208 203.604C85.5035 203.735 85.1535 203.8 84.7708 203.8ZM86.5348 201.238L83.1468 193.58H84.5468L87.4308 200.188L86.5348 201.238Z" fill="#435CE7"/>
<path d="M238.205 171L242.643 161.2H244.029L248.481 171H247.011L243.049 161.984H243.609L239.647 171H238.205ZM240.095 168.55L240.473 167.43H245.989L246.395 168.55H240.095ZM251.556 171.084C250.94 171.084 250.352 171 249.792 170.832C249.242 170.664 248.808 170.459 248.49 170.216L249.05 169.152C249.368 169.367 249.76 169.549 250.226 169.698C250.693 169.847 251.169 169.922 251.654 169.922C252.28 169.922 252.728 169.833 252.998 169.656C253.278 169.479 253.418 169.231 253.418 168.914C253.418 168.681 253.334 168.499 253.166 168.368C252.998 168.237 252.774 168.139 252.494 168.074C252.224 168.009 251.92 167.953 251.584 167.906C251.248 167.85 250.912 167.785 250.576 167.71C250.24 167.626 249.932 167.514 249.652 167.374C249.372 167.225 249.148 167.024 248.98 166.772C248.812 166.511 248.728 166.165 248.728 165.736C248.728 165.288 248.854 164.896 249.106 164.56C249.358 164.224 249.713 163.967 250.17 163.79C250.637 163.603 251.188 163.51 251.822 163.51C252.308 163.51 252.798 163.571 253.292 163.692C253.796 163.804 254.207 163.967 254.524 164.182L253.95 165.246C253.614 165.022 253.264 164.868 252.9 164.784C252.536 164.7 252.172 164.658 251.808 164.658C251.22 164.658 250.782 164.756 250.492 164.952C250.203 165.139 250.058 165.381 250.058 165.68C250.058 165.932 250.142 166.128 250.31 166.268C250.488 166.399 250.712 166.501 250.982 166.576C251.262 166.651 251.57 166.716 251.906 166.772C252.242 166.819 252.578 166.884 252.914 166.968C253.25 167.043 253.554 167.15 253.824 167.29C254.104 167.43 254.328 167.626 254.496 167.878C254.674 168.13 254.762 168.466 254.762 168.886C254.762 169.334 254.632 169.721 254.37 170.048C254.109 170.375 253.74 170.631 253.264 170.818C252.788 170.995 252.219 171.084 251.556 171.084ZM258.32 171.084C257.704 171.084 257.116 171 256.556 170.832C256.005 170.664 255.571 170.459 255.254 170.216L255.814 169.152C256.131 169.367 256.523 169.549 256.99 169.698C257.457 169.847 257.933 169.922 258.418 169.922C259.043 169.922 259.491 169.833 259.762 169.656C260.042 169.479 260.182 169.231 260.182 168.914C260.182 168.681 260.098 168.499 259.93 168.368C259.762 168.237 259.538 168.139 259.258 168.074C258.987 168.009 258.684 167.953 258.348 167.906C258.012 167.85 257.676 167.785 257.34 167.71C257.004 167.626 256.696 167.514 256.416 167.374C256.136 167.225 255.912 167.024 255.744 166.772C255.576 166.511 255.492 166.165 255.492 165.736C255.492 165.288 255.618 164.896 255.87 164.56C256.122 164.224 256.477 163.967 256.934 163.79C257.401 163.603 257.951 163.51 258.586 163.51C259.071 163.51 259.561 163.571 260.056 163.692C260.56 163.804 260.971 163.967 261.288 164.182L260.714 165.246C260.378 165.022 260.028 164.868 259.664 164.784C259.3 164.7 258.936 164.658 258.572 164.658C257.984 164.658 257.545 164.756 257.256 164.952C256.967 165.139 256.822 165.381 256.822 165.68C256.822 165.932 256.906 166.128 257.074 166.268C257.251 166.399 257.475 166.501 257.746 166.576C258.026 166.651 258.334 166.716 258.67 166.772C259.006 166.819 259.342 166.884 259.678 166.968C260.014 167.043 260.317 167.15 260.588 167.29C260.868 167.43 261.092 167.626 261.26 167.878C261.437 168.13 261.526 168.466 261.526 168.886C261.526 169.334 261.395 169.721 261.134 170.048C260.873 170.375 260.504 170.631 260.028 170.818C259.552 170.995 258.983 171.084 258.32 171.084ZM266.26 171.084C265.466 171.084 264.766 170.921 264.16 170.594C263.562 170.267 263.096 169.819 262.76 169.25C262.433 168.681 262.27 168.027 262.27 167.29C262.27 166.553 262.428 165.899 262.746 165.33C263.072 164.761 263.516 164.317 264.076 164C264.645 163.673 265.284 163.51 265.994 163.51C266.712 163.51 267.347 163.669 267.898 163.986C268.448 164.303 268.878 164.751 269.186 165.33C269.503 165.899 269.662 166.567 269.662 167.332C269.662 167.388 269.657 167.453 269.648 167.528C269.648 167.603 269.643 167.673 269.634 167.738H263.32V166.772H268.934L268.388 167.108C268.397 166.632 268.299 166.207 268.094 165.834C267.888 165.461 267.604 165.171 267.24 164.966C266.885 164.751 266.47 164.644 265.994 164.644C265.527 164.644 265.112 164.751 264.748 164.966C264.384 165.171 264.099 165.465 263.894 165.848C263.688 166.221 263.586 166.651 263.586 167.136V167.36C263.586 167.855 263.698 168.298 263.922 168.69C264.155 169.073 264.477 169.371 264.888 169.586C265.298 169.801 265.77 169.908 266.302 169.908C266.74 169.908 267.137 169.833 267.492 169.684C267.856 169.535 268.173 169.311 268.444 169.012L269.186 169.88C268.85 170.272 268.43 170.571 267.926 170.776C267.431 170.981 266.876 171.084 266.26 171.084ZM273.406 171.084C272.79 171.084 272.202 171 271.642 170.832C271.091 170.664 270.657 170.459 270.34 170.216L270.9 169.152C271.217 169.367 271.609 169.549 272.076 169.698C272.543 169.847 273.019 169.922 273.504 169.922C274.129 169.922 274.577 169.833 274.848 169.656C275.128 169.479 275.268 169.231 275.268 168.914C275.268 168.681 275.184 168.499 275.016 168.368C274.848 168.237 274.624 168.139 274.344 168.074C274.073 168.009 273.77 167.953 273.434 167.906C273.098 167.85 272.762 167.785 272.426 167.71C272.09 167.626 271.782 167.514 271.502 167.374C271.222 167.225 270.998 167.024 270.83 166.772C270.662 166.511 270.578 166.165 270.578 165.736C270.578 165.288 270.704 164.896 270.956 164.56C271.208 164.224 271.563 163.967 272.02 163.79C272.487 163.603 273.037 163.51 273.672 163.51C274.157 163.51 274.647 163.571 275.142 163.692C275.646 163.804 276.057 163.967 276.374 164.182L275.8 165.246C275.464 165.022 275.114 164.868 274.75 164.784C274.386 164.7 274.022 164.658 273.658 164.658C273.07 164.658 272.631 164.756 272.342 164.952C272.053 165.139 271.908 165.381 271.908 165.68C271.908 165.932 271.992 166.128 272.16 166.268C272.337 166.399 272.561 166.501 272.832 166.576C273.112 166.651 273.42 166.716 273.756 166.772C274.092 166.819 274.428 166.884 274.764 166.968C275.1 167.043 275.403 167.15 275.674 167.29C275.954 167.43 276.178 167.626 276.346 167.878C276.523 168.13 276.612 168.466 276.612 168.886C276.612 169.334 276.481 169.721 276.22 170.048C275.959 170.375 275.59 170.631 275.114 170.818C274.638 170.995 274.069 171.084 273.406 171.084ZM280.17 171.084C279.554 171.084 278.966 171 278.406 170.832C277.855 170.664 277.421 170.459 277.104 170.216L277.664 169.152C277.981 169.367 278.373 169.549 278.84 169.698C279.306 169.847 279.782 169.922 280.268 169.922C280.893 169.922 281.341 169.833 281.612 169.656C281.892 169.479 282.032 169.231 282.032 168.914C282.032 168.681 281.948 168.499 281.78 168.368C281.612 168.237 281.388 168.139 281.108 168.074C280.837 168.009 280.534 167.953 280.198 167.906C279.862 167.85 279.526 167.785 279.19 167.71C278.854 167.626 278.546 167.514 278.266 167.374C277.986 167.225 277.762 167.024 277.594 166.772C277.426 166.511 277.342 166.165 277.342 165.736C277.342 165.288 277.468 164.896 277.72 164.56C277.972 164.224 278.326 163.967 278.784 163.79C279.25 163.603 279.801 163.51 280.436 163.51C280.921 163.51 281.411 163.571 281.906 163.692C282.41 163.804 282.82 163.967 283.138 164.182L282.564 165.246C282.228 165.022 281.878 164.868 281.514 164.784C281.15 164.7 280.786 164.658 280.422 164.658C279.834 164.658 279.395 164.756 279.106 164.952C278.816 165.139 278.672 165.381 278.672 165.68C278.672 165.932 278.756 166.128 278.924 166.268C279.101 166.399 279.325 166.501 279.596 166.576C279.876 166.651 280.184 166.716 280.52 166.772C280.856 166.819 281.192 166.884 281.528 166.968C281.864 167.043 282.167 167.15 282.438 167.29C282.718 167.43 282.942 167.626 283.11 167.878C283.287 168.13 283.376 168.466 283.376 168.886C283.376 169.334 283.245 169.721 282.984 170.048C282.722 170.375 282.354 170.631 281.878 170.818C281.402 170.995 280.832 171.084 280.17 171.084ZM247.984 191V181.2H251.806C252.664 181.2 253.397 181.335 254.004 181.606C254.61 181.877 255.077 182.269 255.404 182.782C255.73 183.295 255.894 183.907 255.894 184.616C255.894 185.325 255.73 185.937 255.404 186.45C255.077 186.954 254.61 187.341 254.004 187.612C253.397 187.883 252.664 188.018 251.806 188.018H248.754L249.384 187.374V191H247.984ZM254.536 191L252.044 187.444H253.542L256.062 191H254.536ZM249.384 187.514L248.754 186.828H251.764C252.66 186.828 253.336 186.637 253.794 186.254C254.26 185.862 254.494 185.316 254.494 184.616C254.494 183.916 254.26 183.375 253.794 182.992C253.336 182.609 252.66 182.418 251.764 182.418H248.754L249.384 181.718V187.514ZM257.71 191V183.58H259.054V191H257.71ZM258.382 182.152C258.12 182.152 257.901 182.068 257.724 181.9C257.556 181.732 257.472 181.527 257.472 181.284C257.472 181.032 257.556 180.822 257.724 180.654C257.901 180.486 258.12 180.402 258.382 180.402C258.643 180.402 258.858 180.486 259.026 180.654C259.203 180.813 259.292 181.013 259.292 181.256C259.292 181.508 259.208 181.723 259.04 181.9C258.872 182.068 258.652 182.152 258.382 182.152ZM263.498 191.084C262.882 191.084 262.294 191 261.734 190.832C261.183 190.664 260.749 190.459 260.432 190.216L260.992 189.152C261.309 189.367 261.701 189.549 262.168 189.698C262.634 189.847 263.11 189.922 263.596 189.922C264.221 189.922 264.669 189.833 264.94 189.656C265.22 189.479 265.36 189.231 265.36 188.914C265.36 188.681 265.276 188.499 265.108 188.368C264.94 188.237 264.716 188.139 264.436 188.074C264.165 188.009 263.862 187.953 263.526 187.906C263.19 187.85 262.854 187.785 262.518 187.71C262.182 187.626 261.874 187.514 261.594 187.374C261.314 187.225 261.09 187.024 260.922 186.772C260.754 186.511 260.67 186.165 260.67 185.736C260.67 185.288 260.796 184.896 261.048 184.56C261.3 184.224 261.654 183.967 262.112 183.79C262.578 183.603 263.129 183.51 263.764 183.51C264.249 183.51 264.739 183.571 265.234 183.692C265.738 183.804 266.148 183.967 266.466 184.182L265.892 185.246C265.556 185.022 265.206 184.868 264.842 184.784C264.478 184.7 264.114 184.658 263.75 184.658C263.162 184.658 262.723 184.756 262.434 184.952C262.144 185.139 262 185.381 262 185.68C262 185.932 262.084 186.128 262.252 186.268C262.429 186.399 262.653 186.501 262.924 186.576C263.204 186.651 263.512 186.716 263.848 186.772C264.184 186.819 264.52 186.884 264.856 186.968C265.192 187.043 265.495 187.15 265.766 187.29C266.046 187.43 266.27 187.626 266.438 187.878C266.615 188.13 266.704 188.466 266.704 188.886C266.704 189.334 266.573 189.721 266.312 190.048C266.05 190.375 265.682 190.631 265.206 190.818C264.73 190.995 264.16 191.084 263.498 191.084ZM269.225 189.208L269.253 187.486L273.523 183.58H275.147L271.871 186.8L271.143 187.416L269.225 189.208ZM268.133 191V180.612H269.477V191H268.133ZM273.803 191L270.891 187.388L271.759 186.31L275.455 191H273.803Z" fill="#435CE7"/>
</svg>
