<svg width="1200" height="668" viewBox="0 0 1200 668" fill="none" xmlns="http://www.w3.org/2000/svg">
<path d="M600 574L600 282" stroke="#7094F0" stroke-linecap="round" stroke-linejoin="round" stroke-dasharray="2 4"/>
<path d="M600 193L600 127" stroke="#7094F0" stroke-linecap="round" stroke-linejoin="round" stroke-dasharray="2 4"/>
<path d="M600.768 164.078L603.633 160.64C604.176 159.989 603.713 159 602.865 159L597.135 159C596.287 159 595.824 159.989 596.367 160.64L599.232 164.078C599.632 164.558 600.368 164.558 600.768 164.078Z" fill="#7094F0"/>
<path d="M599.232 126.922L596.367 130.36C595.824 131.011 596.287 132 597.135 132H602.865C603.713 132 604.176 131.011 603.633 130.36L600.768 126.922C600.368 126.442 599.632 126.442 599.232 126.922Z" fill="#7094F0"/>
<path d="M740 618L740 538" stroke="#7094F0" stroke-linecap="round" stroke-linejoin="round" stroke-dasharray="2 4"/>
<path d="M460 618L460 538" stroke="#7094F0" stroke-linecap="round" stroke-linejoin="round" stroke-dasharray="2 4"/>
<path d="M460 538H740" stroke="#7094F0" stroke-linecap="round" stroke-linejoin="round" stroke-dasharray="2 4"/>
<path d="M600 332H855" stroke="#7094F0" stroke-linecap="round" stroke-linejoin="round" stroke-dasharray="2 4"/>
<rect x="435" width="330" height="126" rx="10" fill="#F6F7FE"/>
<rect x="455" y="56" width="290" height="50" rx="10" fill="#435CE7"/>
<path d="M540.41 77.584H543.626V76.224H535.53V77.584H538.746V78.96C538.746 81.44 537.258 84.128 535.018 85.168L535.962 86.48C537.658 85.664 538.954 83.952 539.594 81.936C540.266 83.808 541.562 85.376 543.242 86.112L544.154 84.816C541.898 83.856 540.41 81.36 540.41 78.96V77.584ZM545.306 74.784V89.232H546.97V74.784H545.306ZM561.854 79.376C558.958 78.992 556.91 77.392 556.91 75.568V75.024H555.214V75.568C555.214 77.36 553.118 78.992 550.27 79.376L550.878 80.656C553.214 80.304 555.134 79.2 556.046 77.664C556.974 79.216 558.91 80.288 561.23 80.656L561.854 79.376ZM550.99 85.824H559.358V89.248H561.006V84.496H550.99V85.824ZM556.878 81.92V79.856H555.23V81.92H549.534V83.248H562.638V81.92H556.878ZM564.723 76.304V77.648H569.779C569.443 80.976 567.539 83.52 564.003 85.328L564.915 86.592C569.635 84.208 571.427 80.496 571.427 76.304H564.723ZM577.395 80.48H575.203V74.768H573.555V89.216H575.203V81.856H577.395V80.48ZM590.072 78.624H581.848V75.056H580.2V79.952H590.072V78.624ZM584.984 87.92C582.872 87.92 581.688 87.424 581.688 86.544C581.688 85.632 582.872 85.168 584.984 85.168C587.096 85.168 588.296 85.632 588.296 86.544C588.296 87.424 587.096 87.92 584.984 87.92ZM584.984 83.872C581.896 83.872 580.008 84.848 580.008 86.544C580.008 88.224 581.896 89.2 584.984 89.2C588.088 89.2 589.96 88.224 589.96 86.544C589.96 84.848 588.088 83.872 584.984 83.872ZM578.488 81.408V82.752H591.56V81.408H578.488ZM603.277 78.608V80.272H599.773V81.616H603.277V83.28H604.925V74.784H603.277V77.264H600.301C600.381 76.816 600.429 76.336 600.429 75.824H593.869V77.152H598.669C598.381 79.408 596.509 81.184 593.117 82.128L593.773 83.44C596.893 82.528 599.021 80.912 599.917 78.608H603.277ZM600.189 87.872C598.237 87.872 597.005 87.312 597.005 86.304C597.005 85.312 598.237 84.752 600.189 84.752C602.157 84.752 603.389 85.312 603.389 86.304C603.389 87.312 602.157 87.872 600.189 87.872ZM600.189 83.456C597.261 83.456 595.373 84.544 595.373 86.304C595.373 88.08 597.261 89.168 600.189 89.168C603.117 89.168 605.021 88.08 605.021 86.304C605.021 84.544 603.117 83.456 600.189 83.456ZM609.185 79.088C609.185 77.824 610.113 76.992 611.393 76.992C612.641 76.992 613.569 77.824 613.569 79.088C613.569 80.336 612.641 81.168 611.393 81.168C610.113 81.168 609.185 80.336 609.185 79.088ZM617.745 78.112V80.064H614.993C615.089 79.76 615.137 79.44 615.137 79.088C615.137 78.736 615.089 78.416 615.009 78.112H617.745ZM617.745 81.392V83.296H619.393V74.768H617.745V76.768H614.257C613.585 76.048 612.577 75.6 611.393 75.6C609.233 75.6 607.617 77.04 607.617 79.088C607.617 81.12 609.233 82.56 611.393 82.56C612.561 82.56 613.585 82.128 614.257 81.392H617.745ZM614.577 87.936C612.529 87.936 611.329 87.408 611.329 86.416C611.329 85.456 612.529 84.912 614.577 84.912C616.641 84.912 617.825 85.456 617.825 86.416C617.825 87.408 616.641 87.936 614.577 87.936ZM614.577 83.616C611.569 83.616 609.713 84.656 609.713 86.416C609.713 88.192 611.569 89.232 614.577 89.232C617.585 89.232 619.457 88.192 619.457 86.416C619.457 84.656 617.585 83.616 614.577 83.616ZM626.598 76.768C627.862 76.768 628.742 77.424 628.742 78.432C628.742 79.456 627.862 80.112 626.598 80.112C625.35 80.112 624.454 79.456 624.454 78.432C624.454 77.424 625.35 76.768 626.598 76.768ZM626.598 81.472C628.758 81.472 630.326 80.224 630.326 78.432C630.326 76.656 628.758 75.408 626.598 75.408C624.438 75.408 622.87 76.656 622.87 78.432C622.87 80.224 624.438 81.472 626.598 81.472ZM631.254 82.016C628.134 82.48 624.502 82.528 621.894 82.528L622.086 83.888C623.206 83.888 624.486 83.872 625.846 83.824V88.8H627.494V83.728C628.774 83.632 630.102 83.488 631.366 83.232L631.254 82.016ZM632.198 74.784V89.248H633.846V74.784H632.198ZM643.851 83.264V84.416H646.683V85.76H648.331V74.768H646.683V83.264H643.851ZM640.971 76.544C642.155 76.544 642.971 77.056 642.971 77.872C642.971 78.688 642.155 79.2 640.971 79.2C639.771 79.2 638.955 78.688 638.955 77.872C638.955 77.056 639.771 76.544 640.971 76.544ZM640.971 80.416C643.083 80.416 644.539 79.408 644.539 77.872C644.539 76.336 643.083 75.328 640.971 75.328C638.843 75.328 637.387 76.336 637.387 77.872C637.387 79.408 638.843 80.416 640.971 80.416ZM640.315 85.296H641.963V82.512C643.195 82.448 644.459 82.304 645.675 82.096L645.547 80.912C642.491 81.296 638.939 81.328 636.283 81.344L636.491 82.688C637.627 82.688 638.939 82.672 640.315 82.608V85.296ZM639.883 87.616V84.688H638.235V88.96H648.667V87.616H639.883ZM659.936 76.464H656.4V74.8H654.752V76.464H651.2V77.792H659.936V76.464ZM653.616 81.184C653.616 80.304 654.416 79.76 655.584 79.76C656.736 79.76 657.536 80.304 657.536 81.184C657.536 82.08 656.736 82.624 655.584 82.624C654.416 82.624 653.616 82.08 653.616 81.184ZM656.4 83.824C658.032 83.568 659.104 82.592 659.104 81.184C659.104 79.568 657.664 78.496 655.584 78.496C653.488 78.496 652.048 79.568 652.048 81.184C652.048 82.576 653.12 83.568 654.752 83.824V85.232C653.392 85.28 652.064 85.28 650.912 85.28L651.12 86.64C653.744 86.64 657.168 86.592 660.352 86.048L660.24 84.848C659.008 85.024 657.696 85.104 656.4 85.184V83.824ZM661.056 74.768V89.232H662.72V74.768H661.056Z" fill="white"/>
<path d="M589.212 21.768V36.264H590.876V21.768H589.212ZM583.18 22.84C581.036 22.84 579.468 24.824 579.468 27.928C579.468 31.064 581.036 33.032 583.18 33.032C585.34 33.032 586.908 31.064 586.908 27.928C586.908 24.824 585.34 22.84 583.18 22.84ZM583.18 24.328C584.444 24.328 585.324 25.688 585.324 27.928C585.324 30.2 584.444 31.56 583.18 31.56C581.932 31.56 581.052 30.2 581.052 27.928C581.052 25.688 581.932 24.328 583.18 24.328ZM598.513 22.984H596.865V25.352C596.865 28.024 595.457 30.76 593.201 31.864L594.209 33.192C595.857 32.344 597.073 30.664 597.697 28.664C598.321 30.552 599.473 32.12 601.025 32.92L602.033 31.608C599.857 30.536 598.513 27.928 598.513 25.352V22.984ZM606.897 27.512H604.641V21.784H602.993V36.232H604.641V28.872H606.897V27.512ZM617.029 23.464H613.493V21.8H611.845V23.464H608.293V24.792H617.029V23.464ZM610.709 28.184C610.709 27.304 611.509 26.76 612.677 26.76C613.829 26.76 614.629 27.304 614.629 28.184C614.629 29.08 613.829 29.624 612.677 29.624C611.509 29.624 610.709 29.08 610.709 28.184ZM613.493 30.824C615.125 30.568 616.197 29.592 616.197 28.184C616.197 26.568 614.757 25.496 612.677 25.496C610.581 25.496 609.141 26.568 609.141 28.184C609.141 29.576 610.213 30.568 611.845 30.824V32.232C610.485 32.28 609.157 32.28 608.005 32.28L608.213 33.64C610.837 33.64 614.261 33.592 617.445 33.048L617.333 31.848C616.101 32.024 614.789 32.104 613.493 32.184V30.824ZM618.149 21.768V36.232H619.813V21.768H618.149Z" fill="#222222"/>
<rect x="435" y="166" width="330" height="126" rx="10" fill="#F6F7FE"/>
<rect x="455" y="222" width="290" height="50" rx="10" fill="#435CE7"/>
<path d="M540.41 243.584H543.626V242.224H535.53V243.584H538.746V244.96C538.746 247.44 537.258 250.128 535.018 251.168L535.962 252.48C537.658 251.664 538.954 249.952 539.594 247.936C540.266 249.808 541.562 251.376 543.242 252.112L544.154 250.816C541.898 249.856 540.41 247.36 540.41 244.96V243.584ZM545.306 240.784V255.232H546.97V240.784H545.306ZM561.854 245.376C558.958 244.992 556.91 243.392 556.91 241.568V241.024H555.214V241.568C555.214 243.36 553.118 244.992 550.27 245.376L550.878 246.656C553.214 246.304 555.134 245.2 556.046 243.664C556.974 245.216 558.91 246.288 561.23 246.656L561.854 245.376ZM550.99 251.824H559.358V255.248H561.006V250.496H550.99V251.824ZM556.878 247.92V245.872H555.23V247.92H549.534V249.248H562.638V247.92H556.878ZM564.723 242.304V243.648H569.779C569.443 246.976 567.539 249.52 564.003 251.328L564.915 252.592C569.635 250.208 571.427 246.496 571.427 242.304H564.723ZM577.395 246.48H575.203V240.768H573.555V255.216H575.203V247.856H577.395V246.48ZM590.072 244.624H581.848V241.056H580.2V245.952H590.072V244.624ZM584.984 253.92C582.872 253.92 581.688 253.424 581.688 252.544C581.688 251.632 582.872 251.168 584.984 251.168C587.096 251.168 588.296 251.632 588.296 252.544C588.296 253.424 587.096 253.92 584.984 253.92ZM584.984 249.872C581.896 249.872 580.008 250.848 580.008 252.544C580.008 254.224 581.896 255.2 584.984 255.2C588.088 255.2 589.96 254.224 589.96 252.544C589.96 250.848 588.088 249.872 584.984 249.872ZM578.488 247.408V248.752H591.56V247.408H578.488ZM603.277 244.608V246.272H599.773V247.616H603.277V249.28H604.925V240.784H603.277V243.264H600.301C600.381 242.816 600.429 242.336 600.429 241.824H593.869V243.152H598.669C598.381 245.408 596.509 247.184 593.117 248.128L593.773 249.44C596.893 248.528 599.021 246.912 599.917 244.608H603.277ZM600.189 253.872C598.237 253.872 597.005 253.312 597.005 252.304C597.005 251.312 598.237 250.752 600.189 250.752C602.157 250.752 603.389 251.312 603.389 252.304C603.389 253.312 602.157 253.872 600.189 253.872ZM600.189 249.456C597.261 249.456 595.373 250.544 595.373 252.304C595.373 254.08 597.261 255.168 600.189 255.168C603.117 255.168 605.021 254.08 605.021 252.304C605.021 250.544 603.117 249.456 600.189 249.456ZM609.185 245.088C609.185 243.824 610.113 242.992 611.393 242.992C612.641 242.992 613.569 243.824 613.569 245.088C613.569 246.336 612.641 247.168 611.393 247.168C610.113 247.168 609.185 246.336 609.185 245.088ZM617.745 244.112V246.064H614.993C615.089 245.76 615.137 245.44 615.137 245.088C615.137 244.736 615.089 244.416 615.009 244.112H617.745ZM617.745 247.392V249.296H619.393V240.768H617.745V242.768H614.257C613.585 242.048 612.577 241.6 611.393 241.6C609.233 241.6 607.617 243.04 607.617 245.088C607.617 247.12 609.233 248.56 611.393 248.56C612.561 248.56 613.585 248.128 614.257 247.392H617.745ZM614.577 253.936C612.529 253.936 611.329 253.408 611.329 252.416C611.329 251.456 612.529 250.912 614.577 250.912C616.641 250.912 617.825 251.456 617.825 252.416C617.825 253.408 616.641 253.936 614.577 253.936ZM614.577 249.616C611.569 249.616 609.713 250.656 609.713 252.416C609.713 254.192 611.569 255.232 614.577 255.232C617.585 255.232 619.457 254.192 619.457 252.416C619.457 250.656 617.585 249.616 614.577 249.616ZM629.942 242.128H626.822V240.64H625.174V242.128H621.926V243.44H629.942V242.128ZM624.214 246.64C624.214 245.792 624.934 245.264 625.99 245.264C627.062 245.264 627.782 245.792 627.782 246.64C627.782 247.488 627.062 248.016 625.99 248.016C624.934 248.016 624.214 247.488 624.214 246.64ZM629.318 246.64C629.318 245.072 627.958 244.032 625.99 244.032C624.038 244.032 622.678 245.072 622.678 246.64C622.678 248.208 624.038 249.248 625.99 249.248C627.958 249.248 629.318 248.208 629.318 246.64ZM632.23 253.76H626.006V252.496H632.23V253.76ZM632.23 251.248H626.006V249.936H624.374V255.056H633.862V249.936H632.23V251.248ZM632.214 240.768V244.016H630.038V245.36H632.214V246.848H630.006V248.192H632.214V249.36H633.862V240.768H632.214ZM641.019 241.792C638.763 241.792 637.099 243.216 637.099 245.264C637.099 247.312 638.763 248.736 641.019 248.736C643.275 248.736 644.955 247.312 644.955 245.264C644.955 243.216 643.275 241.792 641.019 241.792ZM641.019 243.2C642.363 243.2 643.339 244 643.339 245.264C643.339 246.512 642.363 247.328 641.019 247.328C639.691 247.328 638.715 246.512 638.715 245.264C638.715 244 639.691 243.2 641.019 243.2ZM646.587 240.768V255.248H648.251V240.768H646.587ZM636.635 252.192C639.195 252.192 642.651 252.16 645.835 251.552L645.723 250.352C642.619 250.816 639.019 250.832 636.427 250.832L636.635 252.192ZM659.936 242.464H656.4V240.816H654.752V242.464H651.2V243.792H659.936V242.464ZM653.616 247.184C653.616 246.304 654.416 245.76 655.584 245.76C656.736 245.76 657.536 246.304 657.536 247.184C657.536 248.08 656.736 248.624 655.584 248.624C654.416 248.624 653.616 248.08 653.616 247.184ZM656.4 249.824C658.032 249.568 659.104 248.592 659.104 247.184C659.104 245.568 657.664 244.496 655.584 244.496C653.488 244.496 652.048 245.568 652.048 247.184C652.048 248.576 653.12 249.568 654.752 249.824V251.232C653.392 251.28 652.064 251.28 650.912 251.28L651.12 252.64C653.744 252.64 657.168 252.592 660.352 252.048L660.24 250.848C659.008 251.024 657.696 251.104 656.4 251.184V249.824ZM661.056 240.768V255.232H662.72V240.768H661.056Z" fill="white"/>
<path d="M589.308 191.608V193.272H585.804V194.616H589.308V196.28H590.956V187.784H589.308V190.264H586.332C586.412 189.816 586.46 189.336 586.46 188.824H579.9V190.152H584.7C584.412 192.408 582.54 194.184 579.148 195.128L579.804 196.44C582.924 195.528 585.052 193.912 585.948 191.608H589.308ZM586.22 200.872C584.268 200.872 583.036 200.312 583.036 199.304C583.036 198.312 584.268 197.752 586.22 197.752C588.188 197.752 589.42 198.312 589.42 199.304C589.42 200.312 588.188 200.872 586.22 200.872ZM586.22 196.456C583.292 196.456 581.404 197.544 581.404 199.304C581.404 201.08 583.292 202.168 586.22 202.168C589.148 202.168 591.052 201.08 591.052 199.304C591.052 197.544 589.148 196.456 586.22 196.456ZM595.217 192.088C595.217 190.824 596.145 189.992 597.425 189.992C598.673 189.992 599.601 190.824 599.601 192.088C599.601 193.336 598.673 194.168 597.425 194.168C596.145 194.168 595.217 193.336 595.217 192.088ZM603.777 191.112V193.064H601.025C601.121 192.76 601.169 192.44 601.169 192.088C601.169 191.736 601.121 191.416 601.041 191.112H603.777ZM603.777 194.392V196.296H605.425V187.768H603.777V189.768H600.289C599.617 189.048 598.609 188.6 597.425 188.6C595.265 188.6 593.649 190.04 593.649 192.088C593.649 194.12 595.265 195.56 597.425 195.56C598.593 195.56 599.617 195.128 600.289 194.392H603.777ZM600.609 200.936C598.561 200.936 597.361 200.408 597.361 199.416C597.361 198.456 598.561 197.912 600.609 197.912C602.673 197.912 603.857 198.456 603.857 199.416C603.857 200.408 602.673 200.936 600.609 200.936ZM600.609 196.616C597.601 196.616 595.745 197.656 595.745 199.416C595.745 201.192 597.601 202.232 600.609 202.232C603.617 202.232 605.489 201.192 605.489 199.416C605.489 197.656 603.617 196.616 600.609 196.616ZM619.829 187.8H618.181V198.312H619.829V187.8ZM616.837 195.08C614.613 194.36 613.301 192.6 613.301 190.76V190.232H616.389V188.904H608.485V190.232H611.621V190.76C611.621 192.712 610.325 194.584 608.037 195.352L608.901 196.632C610.629 196.056 611.845 194.824 612.485 193.288C613.125 194.712 614.341 195.832 616.005 196.376L616.837 195.08ZM612.053 200.616V197.352H610.389V201.96H620.245V200.616H612.053Z" fill="#222222"/>
<rect x="435" y="372" width="330" height="126" rx="10" fill="#F6F7FE"/>
<rect x="455" y="428" width="290" height="50" rx="10" fill="#283895"/>
<path d="M523.686 457.608V453.992H529.302V452.632H523.686V449.192H529.99V447.8H522.086V459H530.214V457.608H523.686ZM535.819 459.128C538.779 459.128 540.155 457.656 540.155 455.944C540.155 451.832 533.371 453.544 533.371 450.808C533.371 449.832 534.187 449.032 536.091 449.032C537.083 449.032 538.187 449.32 539.163 449.944L539.691 448.664C538.763 448.024 537.403 447.672 536.091 447.672C533.147 447.672 531.803 449.144 531.803 450.872C531.803 455.032 538.587 453.304 538.587 456.04C538.587 457.016 537.755 457.768 535.819 457.768C534.379 457.768 532.955 457.224 532.123 456.472L531.531 457.72C532.427 458.552 534.107 459.128 535.819 459.128ZM550.003 456.984C549.203 457.496 548.323 457.704 547.379 457.704C544.803 457.704 542.931 455.864 542.931 453.4C542.931 450.904 544.803 449.096 547.395 449.096C548.659 449.096 549.715 449.496 550.643 450.392L551.635 449.4C550.611 448.264 549.107 447.672 547.331 447.672C543.859 447.672 541.331 450.088 541.331 453.4C541.331 456.712 543.859 459.128 547.299 459.128C548.867 459.128 550.419 458.648 551.539 457.704V453.336H550.003V456.984ZM572.703 447.8L569.615 456.952L566.527 447.8H565.055L561.903 456.904L558.879 447.8H557.231L560.975 459H562.687L565.743 450.056L568.799 459H570.479L574.223 447.8H572.703ZM578.697 459.096C581.241 459.096 583.097 457.288 583.097 454.76C583.097 452.232 581.241 450.44 578.697 450.44C576.153 450.44 574.281 452.232 574.281 454.76C574.281 457.288 576.153 459.096 578.697 459.096ZM578.697 457.752C577.065 457.752 575.833 456.568 575.833 454.76C575.833 452.952 577.065 451.784 578.697 451.784C580.329 451.784 581.545 452.952 581.545 454.76C581.545 456.568 580.329 457.752 578.697 457.752ZM586.444 451.944V450.52H584.972V459H586.508V454.776C586.508 452.92 587.532 451.912 589.18 451.912C589.292 451.912 589.404 451.912 589.532 451.928V450.44C588.044 450.44 586.988 450.952 586.444 451.944ZM597.655 459H599.543L595.623 454.024L599.191 450.52H597.335L592.711 454.744V447.128H591.175V459H592.711V456.68L594.471 455.048L597.655 459ZM601.443 448.888C602.051 448.888 602.483 448.44 602.483 447.864C602.483 447.32 602.035 446.888 601.443 446.888C600.851 446.888 600.403 447.336 600.403 447.896C600.403 448.456 600.851 448.888 601.443 448.888ZM600.675 459H602.211V450.52H600.675V459ZM609.422 450.44C608.078 450.44 606.99 450.936 606.366 451.8V450.52H604.894V459H606.43V454.632C606.43 452.792 607.486 451.816 609.118 451.816C610.574 451.816 611.406 452.632 611.406 454.296V459H612.942V454.12C612.942 451.624 611.486 450.44 609.422 450.44ZM622.237 450.52V451.832C621.517 450.904 620.365 450.44 619.101 450.44C616.653 450.44 614.797 452.088 614.797 454.536C614.797 456.984 616.653 458.648 619.101 458.648C620.317 458.648 621.421 458.216 622.157 457.336V458.008C622.157 459.928 621.245 460.856 619.245 460.856C617.997 460.856 616.765 460.424 615.981 459.752L615.245 460.936C616.173 461.768 617.741 462.2 619.293 462.2C622.173 462.2 623.693 460.84 623.693 457.848V450.52H622.237ZM619.277 457.304C617.565 457.304 616.349 456.168 616.349 454.536C616.349 452.888 617.565 451.784 619.277 451.784C620.973 451.784 622.189 452.888 622.189 454.536C622.189 456.168 620.973 457.304 619.277 457.304ZM638.409 456.984C637.609 457.496 636.729 457.704 635.785 457.704C633.209 457.704 631.337 455.864 631.337 453.4C631.337 450.904 633.209 449.096 635.801 449.096C637.065 449.096 638.121 449.496 639.049 450.392L640.041 449.4C639.017 448.264 637.513 447.672 635.737 447.672C632.265 447.672 629.737 450.088 629.737 453.4C629.737 456.712 632.265 459.128 635.705 459.128C637.273 459.128 638.825 458.648 639.945 457.704V453.336H638.409V456.984ZM644.006 451.944V450.52H642.534V459H644.07V454.776C644.07 452.92 645.094 451.912 646.742 451.912C646.854 451.912 646.966 451.912 647.094 451.928V450.44C645.606 450.44 644.55 450.952 644.006 451.944ZM652.291 459.096C654.835 459.096 656.691 457.288 656.691 454.76C656.691 452.232 654.835 450.44 652.291 450.44C649.747 450.44 647.875 452.232 647.875 454.76C647.875 457.288 649.747 459.096 652.291 459.096ZM652.291 457.752C650.659 457.752 649.427 456.568 649.427 454.76C649.427 452.952 650.659 451.784 652.291 451.784C653.923 451.784 655.139 452.952 655.139 454.76C655.139 456.568 653.923 457.752 652.291 457.752ZM664.933 450.52V454.904C664.933 456.728 663.909 457.72 662.309 457.72C660.853 457.72 660.021 456.888 660.021 455.224V450.52H658.485V455.4C658.485 457.896 659.941 459.096 662.133 459.096C663.333 459.096 664.389 458.6 665.013 457.72V459H666.469V450.52H664.933ZM673.64 450.44C672.391 450.44 671.304 450.92 670.616 451.864V450.52H669.144V462.104H670.68V457.72C671.384 458.632 672.44 459.096 673.64 459.096C676.12 459.096 677.928 457.368 677.928 454.76C677.928 452.168 676.12 450.44 673.64 450.44ZM673.512 457.752C671.896 457.752 670.664 456.568 670.664 454.76C670.664 452.968 671.896 451.784 673.512 451.784C675.144 451.784 676.376 452.968 676.376 454.76C676.376 456.568 675.144 457.752 673.512 457.752Z" fill="white"/>
<path d="M590.892 393.784H589.228V401.192H590.892V393.784ZM587.772 399.576C585.548 398.888 584.252 397.128 584.252 395.256V394.168H582.572V395.256C582.572 397.208 581.276 399.08 578.988 399.832L579.804 401.144C581.548 400.552 582.78 399.352 583.436 397.8C584.092 399.224 585.308 400.328 586.972 400.872L587.772 399.576ZM583.068 406.808V405.544H590.892V401.88H581.42V403.16H589.26V404.344H581.452V408.104H591.324V406.808H583.068ZM603.281 398.936H596.673V395.864H603.281V398.936ZM604.913 394.552H595.041V400.264H604.913V394.552ZM606.545 402.04H593.441V403.368H599.121V408.232H600.769V403.368H606.545V402.04ZM619.829 393.8H618.181V404.312H619.829V393.8ZM616.837 401.08C614.613 400.36 613.301 398.6 613.301 396.76V396.232H616.389V394.904H608.485V396.232H611.621V396.76C611.621 398.712 610.325 400.584 608.037 401.352L608.901 402.632C610.629 402.056 611.845 400.824 612.485 399.288C613.125 400.712 614.341 401.832 616.005 402.376L616.837 401.08ZM612.053 406.616V403.352H610.389V407.96H620.245V406.616H612.053Z" fill="#222222"/>
<rect x="825" y="302" width="180" height="60" rx="10" fill="#435CE7"/>
<path d="M855.41 328.584H858.626V327.224H850.53V328.584H853.746V329.96C853.746 332.44 852.258 335.128 850.018 336.168L850.962 337.48C852.658 336.664 853.954 334.952 854.594 332.936C855.266 334.808 856.562 336.376 858.242 337.112L859.154 335.816C856.898 334.856 855.41 332.36 855.41 329.96V328.584ZM860.306 325.784V340.232H861.97V325.784H860.306ZM876.854 330.376C873.958 329.992 871.91 328.392 871.91 326.568V326.024H870.214V326.568C870.214 328.36 868.118 329.992 865.27 330.376L865.878 331.656C868.214 331.304 870.134 330.2 871.046 328.664C871.974 330.216 873.91 331.288 876.23 331.656L876.854 330.376ZM865.99 336.824H874.358V340.248H876.006V335.496H865.99V336.824ZM871.878 332.92V330.856H870.23V332.92H864.534V334.248H877.638V332.92H871.878ZM879.723 327.304V328.648H884.779C884.443 331.976 882.539 334.52 879.003 336.328L879.915 337.592C884.635 335.208 886.427 331.496 886.427 327.304H879.723ZM892.395 331.48H890.203V325.768H888.555V340.216H890.203V332.856H892.395V331.48ZM905.072 329.624H896.848V326.056H895.2V330.952H905.072V329.624ZM899.984 338.92C897.872 338.92 896.688 338.424 896.688 337.544C896.688 336.632 897.872 336.168 899.984 336.168C902.096 336.168 903.296 336.632 903.296 337.544C903.296 338.424 902.096 338.92 899.984 338.92ZM899.984 334.872C896.896 334.872 895.008 335.848 895.008 337.544C895.008 339.224 896.896 340.2 899.984 340.2C903.088 340.2 904.96 339.224 904.96 337.544C904.96 335.848 903.088 334.872 899.984 334.872ZM893.488 332.408V333.752H906.56V332.408H893.488ZM918.277 329.608V331.272H914.773V332.616H918.277V334.28H919.925V325.784H918.277V328.264H915.301C915.381 327.816 915.429 327.336 915.429 326.824H908.869V328.152H913.669C913.381 330.408 911.509 332.184 908.117 333.128L908.773 334.44C911.893 333.528 914.021 331.912 914.917 329.608H918.277ZM915.189 338.872C913.237 338.872 912.005 338.312 912.005 337.304C912.005 336.312 913.237 335.752 915.189 335.752C917.157 335.752 918.389 336.312 918.389 337.304C918.389 338.312 917.157 338.872 915.189 338.872ZM915.189 334.456C912.261 334.456 910.373 335.544 910.373 337.304C910.373 339.08 912.261 340.168 915.189 340.168C918.117 340.168 920.021 339.08 920.021 337.304C920.021 335.544 918.117 334.456 915.189 334.456ZM924.185 330.088C924.185 328.824 925.113 327.992 926.393 327.992C927.641 327.992 928.569 328.824 928.569 330.088C928.569 331.336 927.641 332.168 926.393 332.168C925.113 332.168 924.185 331.336 924.185 330.088ZM932.745 329.112V331.064H929.993C930.089 330.76 930.137 330.44 930.137 330.088C930.137 329.736 930.089 329.416 930.009 329.112H932.745ZM932.745 332.392V334.296H934.393V325.768H932.745V327.768H929.257C928.585 327.048 927.577 326.6 926.393 326.6C924.233 326.6 922.617 328.04 922.617 330.088C922.617 332.12 924.233 333.56 926.393 333.56C927.561 333.56 928.585 333.128 929.257 332.392H932.745ZM929.577 338.936C927.529 338.936 926.329 338.408 926.329 337.416C926.329 336.456 927.529 335.912 929.577 335.912C931.641 335.912 932.825 336.456 932.825 337.416C932.825 338.408 931.641 338.936 929.577 338.936ZM929.577 334.616C926.569 334.616 924.713 335.656 924.713 337.416C924.713 339.192 926.569 340.232 929.577 340.232C932.585 340.232 934.457 339.192 934.457 337.416C934.457 335.656 932.585 334.616 929.577 334.616ZM941.95 326.984H940.302V329.352C940.302 332.024 938.894 334.76 936.638 335.864L937.646 337.192C939.294 336.344 940.51 334.664 941.134 332.664C941.758 334.552 942.91 336.12 944.462 336.92L945.47 335.608C943.294 334.536 941.95 331.928 941.95 329.352V326.984ZM950.334 331.512H948.078V325.784H946.43V340.232H948.078V332.872H950.334V331.512ZM961.187 330.936H954.579V327.864H961.187V330.936ZM962.819 326.552H952.947V332.264H962.819V326.552ZM964.451 334.04H951.347V335.368H957.027V340.232H958.675V335.368H964.451V334.04ZM978.92 332.856V331.528H976.968C977.288 329.88 977.288 328.632 977.288 327.544V326.44H967.464V327.768H975.672C975.672 328.808 975.64 329.976 975.32 331.528H965.832V332.856H971.528V335.224H967.16V336.552H975.704V340.232H977.352V335.224H973.192V332.856H978.92Z" fill="white"/>
<rect x="680" y="578" width="120" height="90" rx="10" fill="#F6F7FE"/>
<rect x="540" y="578" width="120" height="90" rx="10" fill="#F6F7FE"/>
<rect x="400" y="578" width="120" height="90" rx="10" fill="#F6F7FE"/>
<path d="M717.766 618.64C719.83 618.64 721.19 619.344 721.19 620.496C721.19 621.664 719.83 622.368 717.766 622.368C715.686 622.368 714.326 621.664 714.326 620.496C714.326 619.344 715.686 618.64 717.766 618.64ZM717.766 623.696C720.806 623.696 722.886 622.448 722.886 620.496C722.886 618.56 720.806 617.312 717.766 617.312C714.71 617.312 712.63 618.56 712.63 620.496C712.63 622.448 714.71 623.696 717.766 623.696ZM724.342 624.928H711.238V626.288H714.438V631.232H716.118V626.288H719.414V631.232H721.094V626.288H724.358L724.342 624.928ZM733.354 622.976C733.706 621.104 733.706 619.68 733.706 618.704V617.872H726.442V619.216H732.09C732.074 620.112 732.026 621.248 731.738 622.8L733.354 622.976ZM734.554 623.696C733.13 623.92 731.578 624.016 730.074 624.08V621.168H728.442V624.128C727.418 624.16 726.426 624.16 725.562 624.16L725.738 625.504C728.25 625.504 731.658 625.424 734.666 624.896L734.554 623.696ZM729.402 626.672H727.738V630.96H737.562V629.616H729.402V626.672ZM737.098 621.36V616.784H735.434V627.632H737.098V622.72H739.018V621.36H737.098ZM750.015 622.336H743.407V620.496H750.015V622.336ZM751.663 617.344H750.015V619.168H743.407V617.344H741.759V623.664H751.663V617.344ZM753.279 625.232H740.175V626.56H745.855V631.248H747.503V626.56H753.279V625.232ZM759.892 617.952H758.228V620.336C758.228 623.04 756.82 625.824 754.564 626.928L755.604 628.24C757.252 627.392 758.436 625.712 759.076 623.664C759.7 625.6 760.868 627.184 762.5 628L763.476 626.672C761.268 625.648 759.892 623.024 759.892 620.336V617.952ZM764.996 616.752V621.504H761.908V622.848H764.996V631.248H766.66V616.752H764.996Z" fill="#283895"/>
<path d="M574.774 626.624C573.798 626.624 573.11 625.84 573.11 624.64C573.11 623.44 573.798 622.64 574.774 622.64C575.75 622.64 576.438 623.44 576.438 624.64C576.438 625.84 575.75 626.624 574.774 626.624ZM574.774 621.28C572.95 621.28 571.638 622.64 571.638 624.64C571.638 626.624 572.95 628 574.774 628C576.598 628 577.91 626.624 577.91 624.64C577.91 622.64 576.598 621.28 574.774 621.28ZM575.59 617.2H573.958V619.136H571.222V620.464H578.294V619.136H575.59V617.2ZM581.99 616.784V622.768H580.454V617.088H578.918V630.56H580.454V624.128H581.99V631.232H583.558V616.784H581.99ZM588.074 621.152C588.074 619.888 589.05 619.088 590.378 619.088C591.722 619.088 592.698 619.888 592.698 621.152C592.698 622.4 591.722 623.2 590.378 623.2C589.05 623.2 588.074 622.4 588.074 621.152ZM591.21 624.56C593.034 624.256 594.314 622.928 594.314 621.152C594.314 619.104 592.634 617.68 590.378 617.68C588.122 617.68 586.458 619.104 586.458 621.152C586.458 622.928 587.722 624.256 589.546 624.56V626.816C588.202 626.864 586.89 626.864 585.786 626.864L585.994 628.224C588.554 628.224 592.01 628.192 595.194 627.584L595.082 626.384C593.834 626.576 592.506 626.672 591.21 626.752V624.56ZM595.946 616.768V631.248H597.61V616.768H595.946ZM610.511 629.712H604.399V628.192H610.511V629.712ZM610.511 626.896H604.399V625.36H602.767V631.04H612.159V625.36H610.511V626.896ZM605.887 622.864H602.479V620.832H605.887V622.864ZM610.511 616.768V620.224H607.503V617.52H605.887V619.552H602.479V617.504H600.847V624.208H607.503V621.568H610.511V624.704H612.159V616.784L610.511 616.768ZM626.564 616.784H624.916V627.28H626.564V616.784ZM616.548 621.36C616.548 620.032 617.492 619.168 618.772 619.168C620.036 619.168 620.996 620.032 620.996 621.36C620.996 622.672 620.036 623.552 618.772 623.552C617.492 623.552 616.548 622.672 616.548 621.36ZM622.596 621.36C622.596 619.248 620.948 617.744 618.772 617.744C616.596 617.744 614.932 619.248 614.932 621.36C614.932 623.456 616.596 624.976 618.772 624.976C620.948 624.976 622.596 623.456 622.596 621.36ZM618.788 629.616V626.224H617.124V630.96H626.98V629.616H618.788Z" fill="#283895"/>
<path d="M444.044 617.984H442.396V620.352C442.396 623.024 440.988 625.76 438.732 626.864L439.74 628.192C441.388 627.344 442.604 625.664 443.228 623.664C443.852 625.552 445.004 627.12 446.556 627.92L447.564 626.608C445.388 625.536 444.044 622.928 444.044 620.352V617.984ZM452.428 622.512H450.172V616.784H448.524V631.232H450.172V623.872H452.428V622.512ZM463.793 629.728H457.665V628.128H463.793V629.728ZM463.793 626.848H457.665V625.216H456.033V631.056H465.425V625.216H463.793V626.848ZM457.425 622.832C456.145 622.832 455.233 622.016 455.233 620.8C455.233 619.568 456.145 618.784 457.425 618.784C458.673 618.784 459.601 619.568 459.601 620.8C459.601 622.016 458.673 622.832 457.425 622.832ZM463.777 616.784V620.112H461.105C460.785 618.496 459.329 617.424 457.425 617.424C455.249 617.424 453.649 618.816 453.649 620.8C453.649 622.8 455.249 624.192 457.425 624.192C459.345 624.192 460.817 623.088 461.105 621.456H463.777V624.528H465.425V616.784H463.777ZM477.749 622.336H471.141V620.496H477.749V622.336ZM479.397 617.344H477.749V619.168H471.141V617.344H469.493V623.664H479.397V617.344ZM481.013 625.232H467.909V626.56H473.589V631.248H475.237V626.56H481.013V625.232Z" fill="#283895"/>
</svg>
